<svg id="AXA_Logo_Open" data-name="AXA Logo Open" xmlns="http://www.w3.org/2000/svg" viewBox="0 0 283.46454 283.46454"><defs><style>.cls-1{fill:#ff1721;}.cls-2{fill:#fff;}</style></defs><title>AXA_Logo_Open_White_RGB</title><polygon id="switch" class="cls-1" points="174.042 140.072 276.715 6.748 261.551 6.748 158.537 140.072 174.042 140.072"/><path id="axa" class="cls-2" d="M0,0V283.46454H283.46454V0ZM276.71539,276.71655H6.74921V249.72131H18.65155c.149-1.04144,6.81763-10.61188,7.72906-11.52808.90192-.93,23.78143-30.99432,23.78143-30.99432H90.28967l4.69666,16.25763S83.272,238.76514,80.12872,242.46228c-1.86481,2.18091-7.19861,7.259-7.19861,7.259H91.80536s.65094-1.56238,2.16241-4.3714c1.52094-2.80383,6.86377-9.291,6.86377-9.291s2.33478,7.26379,2.52051,8.49139c.23712,1.52051.87427,5.171.87427,5.171H123.3111s.67432-1.45093,2.19525-4.25476c1.50665-2.809,7.03571-8.8681,7.03571-8.8681s2.12048,6.7243,2.3114,7.9519c.23718,1.52051.86951,5.171.86951,5.171h24.39526s-3.64569-6.32428-4.46906-8.43573c-.4743-1.17187-8.11-25.07428-8.11-25.07428l6.35712-9.01239h40.43433s9.20758,29.62238,10.30524,33.53809a42.4489,42.4489,0,0,1,1.19476,8.98431h25.45569c-3.85474-2.72955-13.551-36.98859-18.25665-50.15332l-12.33289-42.741c-.6-1.62762-1.05566-7.51-1.05566-7.51H179.9425c-1.05573,2.80859-2.85522,5.38953-4.07806,7.65857-1.51624,2.80908-26.53955,35.62146-32.041,42.59241-.80908,1.03711-1.27856,1.61377-1.27856,1.58569,0-.06525-.17194-.679-.41858-1.58569-.90668-3.15765-2.76715-9.50049-2.76715-9.50049s21.3219-27.0976,23.49811-29.85522C169.33539,152.01843,173.032,149.317,173.032,149.317H152.84064a13.42917,13.42917,0,0,1-2.04144,6.16144c-.96716,1.4881-17.49432,22.20526-17.49432,22.20526s-5.19476-18.74524-6.18042-21.77765a21.111,21.111,0,0,1-.79053-6.58905H102.10107c.91144,1.03668,3.71094,7.95618,3.71094,7.95618L117.75873,194.048l-6.98956,8.93811C110.47156,202.53943,97.832,161.068,97.293,159.338c-.60474-1.95758-1.24664-10.02094-1.24664-10.02094H75.30157s-4.02716,8.76575-6.8219,12.82526c-1.15332,1.67859-14.30432,19.30334-28.3205,37.42572C24.56207,220.34991,7.584,241.42511,7.21637,241.69513a5.67931,5.67931,0,0,0-.46716.45331V6.75037H276.71539ZM80.37061,175.73511C81.282,179.36224,86.504,195.457,86.504,195.457H59.54156s17.02478-20.7262,19.91711-26.94855c.31671-.68811.38147-.15338.38147.17664A28.7928,28.7928,0,0,0,80.37061,175.73511Zm35.06287,41.32239,7.17572-9.30951s4.18048,12.67664,4.86426,13.41144l-7.42187,10.1933Zm68.52716-41.32239c.91138,3.62714,6.13806,19.72192,6.13806,19.72192H163.13635s17.02472-20.7262,19.91711-26.94855c.31616-.68811.37665-.15338.37665.17664A28.794,28.794,0,0,0,183.96063,175.73511Z"/></svg>