<svg width="24" height="24" viewBox="0 0 24 24" fill="none" xmlns="http://www.w3.org/2000/svg">
<g clip-path="url(#clip0_720_53486)">
<path fill-rule="evenodd" clip-rule="evenodd" d="M-0.000488281 3.05176e-05H24.0039V24.0044H-0.000488281V3.05176e-05Z" fill="#000001"/>
<path fill-rule="evenodd" clip-rule="evenodd" d="M16.0007 -7.62939e-06H24.0038V24.0044H16.0007V-7.62939e-06Z" fill="#009900"/>
<path fill-rule="evenodd" clip-rule="evenodd" d="M8.00244 -7.62939e-06H16.0008V24.0044H8.00244V-7.62939e-06Z" fill="#BF0000"/>
<path fill-rule="evenodd" clip-rule="evenodd" d="M12.7763 13.0266H13.1054C13.1054 13.1535 13.1847 13.2883 13.2838 13.3637H12.6494C12.7485 13.2764 12.7763 13.1654 12.7763 13.0266Z" fill="white" stroke="#BD6B00" stroke-width="0.0198343"/>
<path fill-rule="evenodd" clip-rule="evenodd" d="M10.6819 11.1503L10.8644 11.3486L13.1255 11.3566L13.3079 11.1582L12.7288 11.1463L12.4511 10.948H11.5387L11.2769 11.1503H10.6819Z" fill="white"/>
<path fill-rule="evenodd" clip-rule="evenodd" d="M11.6061 10.9198H12.3872C12.4902 10.8643 12.5259 10.6859 12.5259 10.5867C12.5259 10.2933 12.3158 10.1506 12.1096 10.1427C12.0726 10.14 12.0475 10.1228 12.0343 10.0911C12.0145 10.0277 12.0184 9.98406 11.9946 9.98802C11.9788 9.98802 11.9827 10.0277 11.9669 10.0832C11.951 10.1175 11.9246 10.1387 11.8876 10.1466C11.6338 10.1585 11.4673 10.3449 11.4713 10.5867C11.4752 10.7453 11.4951 10.8405 11.6061 10.9198Z" fill="white" stroke="#BD6B00" stroke-width="0.0198343"/>
<path fill-rule="evenodd" clip-rule="evenodd" d="M10.325 13.701H13.669L13.3715 13.459H10.6185L10.325 13.701Z" fill="white"/>
<path fill-rule="evenodd" clip-rule="evenodd" d="M11.8602 12.7846L11.9197 12.9671H12.0585L11.9474 12.7846H11.8602ZM11.7808 12.9671L11.8205 13.1496H11.9792L11.9197 12.9671H11.7808ZM12.0585 12.9671L12.1696 13.1496H12.4036L12.2212 12.9671H12.0585ZM10.6899 13.3797C10.8129 13.2646 10.8923 13.1694 10.8923 13.0306H11.1937C11.1937 13.1099 11.2175 13.1496 11.2651 13.1496H11.5706V12.9711H11.3484V11.9913C11.3405 11.6422 11.7689 11.4438 11.9435 11.4438H10.9002V11.4121H13.0939V11.4438H12.0426C12.356 11.4438 12.6575 11.7414 12.6615 11.9913V12.269H12.6218L12.6178 11.9952C12.6178 11.7215 12.2727 11.4676 11.995 11.4756C11.757 11.4795 11.3841 11.7096 11.3881 11.9913V12.0785L11.9554 12.0825L11.9514 12.1817L12.0387 12.2372L12.2172 12.2928V12.4435L12.3441 12.4792V12.626L12.4949 12.6934V12.8442L12.594 12.9037L12.5901 13.0584L12.721 13.1496H12.4116L12.6059 13.3678H12.3164L12.1735 13.1496H11.9871L12.0704 13.3638H11.8721L11.8205 13.1496H11.5746V13.3797H10.6939H10.6899ZM11.5706 12.7846V12.9671H11.7808L11.7412 12.7846H11.5666H11.5706Z" fill="white"/>
<path d="M11.9197 12.9671L11.8602 12.7846H11.9474L12.0585 12.9671M11.9197 12.9671H12.0585M11.9197 12.9671L11.9792 13.1496H11.8205M11.9197 12.9671H11.7808M12.0585 12.9671L12.1696 13.1496H12.4036L12.2212 12.9671H12.0585ZM11.7808 12.9671L11.8205 13.1496M11.7808 12.9671H11.5706V12.7846H11.5666H11.7412L11.7808 12.9671ZM11.8205 13.1496L11.8721 13.3638H12.0704L11.9871 13.1496H12.1735L12.3164 13.3678H12.6059L12.4116 13.1496H12.721L12.5901 13.0584L12.594 12.9037L12.4949 12.8442V12.6934L12.3441 12.626V12.4792L12.2172 12.4435V12.2928L12.0387 12.2372L11.9514 12.1817L11.9554 12.0825L11.3881 12.0785V11.9913C11.3841 11.7096 11.757 11.4795 11.995 11.4756C12.2727 11.4676 12.6178 11.7215 12.6178 11.9952L12.6218 12.269H12.6615V11.9913C12.6575 11.7414 12.356 11.4438 12.0426 11.4438H13.0939V11.4121H10.9002V11.4438H11.9435C11.7689 11.4438 11.3405 11.6422 11.3484 11.9913V12.9711H11.5706V13.1496H11.2651C11.2175 13.1496 11.1937 13.1099 11.1937 13.0306H10.8923C10.8923 13.1694 10.8129 13.2646 10.6899 13.3797H10.6939H11.5746V13.1496H11.8205Z" stroke="#BD6B00" stroke-width="0.0198343"/>
<path fill-rule="evenodd" clip-rule="evenodd" d="M11.5823 12.4673H11.7131V12.7686H11.5823V12.4673Z" stroke="#BD6B00" stroke-width="0.0198343"/>
<path fill-rule="evenodd" clip-rule="evenodd" d="M11.396 12.7883H11.5229V12.5663C11.5229 12.4712 11.6101 12.372 11.6498 12.3681C11.6973 12.3681 11.7647 12.4593 11.7687 12.5584V12.7883H11.9035V12.2174H11.396V12.7883ZM12.411 12.9192H12.5696V13.0461H12.411V12.9192ZM12.3159 12.709H12.4745V12.832H12.3159V12.709ZM12.1612 12.4949H12.3198V12.6179H12.1612V12.4949ZM12.0304 12.3165H12.189V12.4394H12.0304V12.3165Z" stroke="#BD6B00" stroke-width="0.0198343"/>
<path fill-rule="evenodd" clip-rule="evenodd" d="M11.9236 12.7883L12.0901 12.7963L12.3796 13.05V12.8994L12.2804 12.828V12.709L12.1377 12.6297V12.4989L11.9989 12.4513V12.2808L11.9315 12.2214L11.9236 12.7883Z" stroke="#BD6B00" stroke-width="0.0198343"/>
<path fill-rule="evenodd" clip-rule="evenodd" d="M12.6138 12.4118H12.6534V12.6933H12.6138V12.4118Z" fill="white" stroke="#BD6B00" stroke-width="0.0198343"/>
<path fill-rule="evenodd" clip-rule="evenodd" d="M10.3083 11.4676C10.2607 11.3883 10.2013 11.5787 9.99905 11.7174C9.90785 11.7809 9.84045 11.9514 9.84045 12.0624V12.2924C9.83648 12.336 9.78494 12.443 9.82062 12.4708C9.90785 12.5342 10.0228 12.6849 10.0744 12.7364C10.122 12.7761 10.1616 12.5263 10.1933 12.4192C10.233 12.3003 10.2171 12.1536 10.3202 12.0465C10.3916 11.9672 10.574 11.8959 10.5581 11.8641L10.3083 11.4676Z" fill="white" stroke="#BD6B00" stroke-width="0.0198343"/>
<path fill-rule="evenodd" clip-rule="evenodd" d="M10.2963 12.0784C10.2806 12.041 10.2592 12.0062 10.2329 11.9753C10.2077 11.9438 10.175 11.9193 10.1377 11.9039C10.1009 11.8937 10.0679 11.873 10.0425 11.8445L10.0108 11.785V11.7057L9.99893 11.7176C9.90774 11.781 9.84033 11.9515 9.84033 12.0625V12.1537C9.84562 12.1749 9.85355 12.1921 9.86412 12.2053L9.90774 12.237L10.0148 12.2647C10.0549 12.2826 10.0903 12.3098 10.1179 12.344C10.1465 12.3748 10.1705 12.4095 10.1892 12.4471L10.1972 12.4154C10.2289 12.3084 10.2249 12.1815 10.3003 12.0784H10.2963Z" fill="#BF0000" stroke="#BD6B00" stroke-width="0.0198343"/>
<path d="M10.0109 11.7017C9.99112 11.8325 10.0665 11.8801 10.1378 11.9039C10.2092 11.9317 10.2687 12.007 10.2964 12.0784M9.83252 12.1378C9.86424 12.2568 9.94354 12.2409 10.0149 12.2647C10.0863 12.2885 10.1616 12.3837 10.1933 12.455" stroke="#BD6B00" stroke-width="0.0198343"/>
<path fill-rule="evenodd" clip-rule="evenodd" d="M10.241 11.3883L10.2806 11.3645L10.9824 12.55L10.9428 12.5738L10.241 11.3883Z" fill="white" stroke="#BD6B00" stroke-width="0.0198343"/>
<path fill-rule="evenodd" clip-rule="evenodd" d="M10.3163 11.3401C10.3163 11.3611 10.308 11.3813 10.2931 11.3962C10.2782 11.4111 10.258 11.4194 10.237 11.4194C10.216 11.4194 10.1958 11.4111 10.1809 11.3962C10.1661 11.3813 10.1577 11.3611 10.1577 11.3401C10.1577 11.3191 10.1661 11.2989 10.1809 11.284C10.1958 11.2692 10.216 11.2608 10.237 11.2608C10.258 11.2608 10.2782 11.2692 10.2931 11.284C10.308 11.2989 10.3163 11.3191 10.3163 11.3401ZM10.919 10.3885H11.2045V10.452H10.919V10.3885ZM10.919 10.5114H11.2045V11.0586H10.919V10.5114ZM10.9031 10.3132H11.2203C11.2282 10.2061 11.1212 10.0912 11.0617 10.0912C10.9983 10.0951 10.8992 10.2101 10.9031 10.3132Z" fill="white" stroke="#BD6B00" stroke-width="0.0198343"/>
<path fill-rule="evenodd" clip-rule="evenodd" d="M11.7087 10.2498C11.6492 10.2736 11.6016 10.341 11.5739 10.4203C11.5461 10.4996 11.5342 10.5908 11.5501 10.6622C11.5527 10.6886 11.5593 10.7084 11.5699 10.7216C11.5778 10.7349 11.5858 10.7415 11.5937 10.7415C11.6069 10.7415 11.6162 10.7375 11.6214 10.7296L11.6294 10.6979C11.6241 10.6186 11.628 10.5472 11.6413 10.4838C11.6598 10.4137 11.7018 10.3522 11.7602 10.3093C11.7708 10.3014 11.7774 10.2921 11.78 10.2815L11.7681 10.2538C11.7496 10.2406 11.7298 10.2392 11.7087 10.2498ZM11.7166 10.2657C11.7325 10.2604 11.7457 10.2617 11.7562 10.2696L11.7602 10.2776L11.7483 10.2934C11.6869 10.3376 11.6433 10.4023 11.6254 10.4758C11.6092 10.5487 11.6052 10.6237 11.6135 10.6979L11.6056 10.7216C11.6056 10.7216 11.6056 10.7256 11.5977 10.7216L11.5818 10.7098L11.5659 10.6622C11.5554 10.5855 11.5646 10.5062 11.5937 10.4243C11.6228 10.3476 11.6624 10.2948 11.7126 10.2657H11.7166Z" fill="#BD6B00"/>
<path fill-rule="evenodd" clip-rule="evenodd" d="M11.8119 10.3252C11.7511 10.3569 11.7115 10.4124 11.693 10.4917C11.6724 10.568 11.6684 10.6477 11.6811 10.7257C11.6943 10.7785 11.7154 10.805 11.7445 10.805C11.7577 10.8102 11.7683 10.8063 11.7762 10.7931C11.7842 10.7799 11.7868 10.7666 11.7842 10.7534C11.7683 10.6873 11.7643 10.6199 11.7723 10.5512C11.7828 10.4825 11.8119 10.4283 11.8595 10.3886C11.8727 10.3781 11.8793 10.3675 11.8793 10.3569L11.8714 10.3331C11.8529 10.3199 11.8331 10.3173 11.8119 10.3252ZM11.8198 10.345C11.8357 10.3397 11.8489 10.3397 11.8595 10.345L11.8635 10.3569L11.8516 10.3728C11.7994 10.4172 11.7655 10.4793 11.7564 10.5472C11.7458 10.6213 11.7485 10.69 11.7643 10.7534V10.7851L11.7445 10.7891C11.7326 10.7891 11.7049 10.7693 11.6969 10.7217C11.685 10.6543 11.689 10.5671 11.7088 10.4957C11.73 10.419 11.767 10.3688 11.8198 10.345Z" fill="#BD6B00"/>
<path fill-rule="evenodd" clip-rule="evenodd" d="M10.9036 11.5034H11.2207V11.9395H10.9036V11.5034ZM10.9234 12.1933H11.2287V12.2884H10.9234V12.1933ZM10.9155 12.3558H11.2326V12.7008H10.9155V12.3558ZM10.8917 12.7721H11.2366V12.9664H10.8917V12.7721ZM10.9353 12.114H11.2128L11.2683 12.0188H10.8877L10.9353 12.114ZM11.308 11.773L11.3119 11.5351H11.5023C11.4201 11.5984 11.3536 11.6798 11.308 11.773Z" fill="white" stroke="#BD6B00" stroke-width="0.0198343"/>
<path fill-rule="evenodd" clip-rule="evenodd" d="M10.9551 11.8721C10.9551 11.9237 11.0146 11.9038 11.0146 11.8761V11.6541C11.0146 11.6144 11.1097 11.6223 11.1097 11.6501V11.888C11.1097 11.9276 11.1771 11.9237 11.1731 11.888V11.6104C11.1731 11.5232 10.9551 11.5272 10.9551 11.6065V11.8721ZM10.9551 12.3995H11.1811V12.677H10.9551V12.3995Z" stroke="#BD6B00" stroke-width="0.0198343"/>
<path fill-rule="evenodd" clip-rule="evenodd" d="M11.0981 12.5189H11.1774V12.5586H11.0981V12.5189ZM10.9592 12.5189H11.0386V12.5586H10.9592V12.5189ZM11.0386 12.3999H11.0981V12.5189H11.0386V12.3999ZM11.0386 12.5586H11.0981V12.6816H11.0386V12.5586ZM9.78106 9.58345C9.79693 9.80163 9.72552 9.9246 9.61048 9.90477C9.57875 9.78576 9.65015 9.70246 9.78106 9.58345ZM9.52321 10.0714C9.42007 10.0198 9.49544 9.61519 9.53511 9.44461C9.56288 9.66279 9.61445 9.9722 9.52321 10.0714Z" fill="white"/>
<path d="M11.0981 12.5189H11.1774V12.5586H11.0981M11.0981 12.5189V12.5586M11.0981 12.5189V12.3999H11.0386V12.5189M11.0981 12.5189H11.0386M11.0981 12.5586H11.0386M11.0981 12.5586V12.6816H11.0386V12.5586M11.0386 12.5189H10.9592V12.5586H11.0386M11.0386 12.5189V12.5586M9.78106 9.58345C9.79693 9.80163 9.72552 9.9246 9.61048 9.90477C9.57875 9.78576 9.65015 9.70246 9.78106 9.58345ZM9.52321 10.0714C9.42007 10.0198 9.49544 9.61519 9.53511 9.44461C9.56288 9.66279 9.61445 9.9722 9.52321 10.0714Z" stroke="#BD6B00" stroke-width="0.0198343"/>
<path fill-rule="evenodd" clip-rule="evenodd" d="M9.55876 10.0909C9.73322 10.1504 9.87595 9.96403 9.91957 9.74595C9.77683 9.9442 9.5429 9.9442 9.56272 10.0909H9.55876ZM9.42792 10.2931C9.29311 10.2574 9.37241 9.82922 9.40016 9.65873C9.42792 9.83715 9.52308 10.2336 9.42792 10.2931ZM9.4755 10.2812C9.48343 10.1345 9.63013 10.1742 9.73322 10.0949C9.71339 10.1742 9.65392 10.301 9.4755 10.2812ZM9.30897 10.4795C9.17416 10.4398 9.25346 9.97989 9.24553 9.78957C9.28518 9.9561 9.41206 10.4359 9.30897 10.4795ZM9.37241 10.4596C9.48343 10.4953 9.63013 10.42 9.64202 10.2892C9.5429 10.3566 9.39223 10.305 9.37241 10.4596Z" fill="white" stroke="#BD6B00" stroke-width="0.0198343"/>
<path fill-rule="evenodd" clip-rule="evenodd" d="M9.20577 10.6818C9.07889 10.6937 9.1344 10.3012 9.1344 9.93642C9.18198 10.2774 9.31283 10.5906 9.20577 10.6818Z" fill="white" stroke="#BD6B00" stroke-width="0.0198343"/>
<path fill-rule="evenodd" clip-rule="evenodd" d="M9.25342 10.6658C9.34065 10.7055 9.49528 10.6381 9.53889 10.4914C9.3803 10.5588 9.27721 10.4914 9.25342 10.6658ZM10.2684 9.78561C10.2447 9.9799 10.1654 10.0909 10.0504 10.0711C10.0187 9.95214 10.1138 9.87284 10.2684 9.78561ZM9.95918 10.2773C10.1535 10.305 10.2209 10.1583 10.3557 9.96404C10.1693 10.0988 9.95125 10.1226 9.95918 10.2812V10.2773Z" fill="white" stroke="#BD6B00" stroke-width="0.0198343"/>
<path fill-rule="evenodd" clip-rule="evenodd" d="M9.89982 10.2575C9.79673 10.1306 9.89982 9.96802 9.97911 9.83321C9.96325 10.0354 10.0307 10.1504 9.89982 10.2575ZM9.86017 10.4676C9.84431 10.3407 10.0584 10.313 10.1536 10.2456C10.1179 10.3169 10.0743 10.5112 9.8562 10.4676H9.86017Z" fill="white" stroke="#BD6B00" stroke-width="0.0198343"/>
<path fill-rule="evenodd" clip-rule="evenodd" d="M9.8126 10.4678C9.66589 10.4519 9.72537 10.2022 9.83242 10.0673C9.78881 10.2577 9.91172 10.3885 9.8126 10.4678Z" fill="white" stroke="#BD6B00" stroke-width="0.0198343"/>
<path fill-rule="evenodd" clip-rule="evenodd" d="M9.70162 10.6781C9.53509 10.5988 9.64215 10.3926 9.70162 10.2697C9.67783 10.4322 9.81264 10.5551 9.70162 10.6741V10.6781Z" fill="white" stroke="#BD6B00" stroke-width="0.0198343"/>
<path fill-rule="evenodd" clip-rule="evenodd" d="M9.73326 10.6545C9.82054 10.7735 9.99111 10.6227 10.0268 10.4482C9.88004 10.5712 9.76897 10.5513 9.73326 10.6584V10.6545ZM9.35245 11.4597C9.33658 11.2892 9.46352 10.9837 9.37228 10.8171C9.36038 10.7933 9.40005 10.7338 9.42782 10.7695C9.46749 10.829 9.50715 10.9956 9.52699 10.9321C9.54682 10.8687 9.54682 10.7497 9.60633 10.7259C9.64599 10.714 9.69756 10.7021 9.6817 10.7655C9.66583 10.8211 9.63409 10.9004 9.66979 10.9044C9.68963 10.9044 9.74913 10.825 9.8007 10.7854C9.84037 10.7536 9.90384 10.8092 9.84037 10.8568C9.64996 11.0154 9.46352 11.0908 9.35245 11.4597ZM9.00733 14.0184C8.98353 14.0184 8.95576 14.0065 8.98353 14.0422C9.20964 14.3198 9.27311 14.3992 9.60236 14.3595C9.93161 14.3159 10.0109 14.2246 10.245 14.0937C10.3823 14.0234 10.5416 14.0092 10.6893 14.0541C10.7527 14.0739 10.7924 14.0739 10.7448 14.0263C10.6972 13.9787 10.6456 13.9192 10.5861 13.8756C10.4374 13.7784 10.2578 13.7402 10.0823 13.7684C9.84434 13.8081 9.64203 13.9628 9.40005 14.0223C9.27045 14.0485 9.13693 14.0485 9.00733 14.0223V14.0184ZM10.9035 14.5142C10.9432 14.5222 10.9709 14.6015 10.9947 14.5499C11.0265 14.4587 11.0027 14.3912 10.963 14.3952C10.9154 14.4071 10.84 14.5142 10.9035 14.5142Z" fill="white" stroke="#BD6B00" stroke-width="0.0198343"/>
<path fill-rule="evenodd" clip-rule="evenodd" d="M8.85263 11.3287C8.80505 11.2758 8.81827 11.2507 8.89228 11.2533C8.94779 11.2533 9.05881 11.293 9.10242 11.2573C9.14207 11.2296 9.12225 11.1106 9.14207 11.0591C9.15 11.0234 9.16983 10.9798 9.22137 11.0511C9.36411 11.2811 9.53857 11.5586 9.61787 11.8283C9.65752 11.9789 9.61787 12.2168 9.48306 12.3754C9.48306 12.2406 9.43548 12.1494 9.37601 12.0344C9.29671 11.8877 9.0152 11.4793 8.85263 11.3247V11.3287Z" fill="white"/>
<path fill-rule="evenodd" clip-rule="evenodd" d="M9.44365 12.5347C9.60232 12.5347 9.63009 12.3245 9.63009 12.265C9.55075 12.2809 9.41588 12.4118 9.44365 12.5347ZM10.8122 14.5935C10.9233 14.6173 10.9193 14.3476 10.8043 14.2326C10.8559 14.4071 10.7249 14.5658 10.8082 14.5896L10.8122 14.5935ZM10.7646 14.5896C10.7725 14.7165 10.4473 14.5737 10.3679 14.4706C10.5583 14.5539 10.7567 14.4864 10.7646 14.5896ZM10.6258 14.4071C10.6377 14.5301 10.3481 14.419 10.2569 14.3238C10.4512 14.3873 10.6139 14.304 10.6258 14.4031V14.4071ZM10.6773 14.423C10.7924 14.4507 10.7725 14.1691 10.6615 14.0739C10.717 14.2603 10.5901 14.3952 10.6773 14.423ZM10.5583 14.2524C10.6734 14.2802 10.6059 14.0382 10.5226 13.943C10.5385 14.1175 10.483 14.2405 10.5623 14.2524H10.5583ZM10.4988 14.2524C10.5107 14.3793 10.2846 14.2841 10.1974 14.1612C10.3878 14.2207 10.4869 14.1493 10.4988 14.2524ZM10.4393 14.1532C10.5107 14.1016 10.4354 13.9628 10.2926 13.9707C10.3084 14.054 10.356 14.2048 10.4393 14.1532ZM10.9947 14.7363C10.9987 14.8633 10.6773 14.7998 10.5742 14.6649C10.7805 14.7046 10.9828 14.6332 10.9907 14.7363H10.9947ZM9.70943 14.5063C9.72133 14.6332 9.36828 14.4904 9.28101 14.3714C9.46745 14.4349 9.69753 14.4031 9.70943 14.5063ZM9.92364 14.5578C9.99901 14.5063 9.84827 14.3714 9.72529 14.3397C9.74116 14.423 9.8443 14.6094 9.92364 14.5618V14.5578ZM9.94744 14.6491C9.95537 14.7641 9.57059 14.7006 9.47142 14.5935C9.80067 14.653 9.93554 14.5499 9.94744 14.6491Z" fill="white" stroke="#BD6B00" stroke-width="0.0198343"/>
<path fill-rule="evenodd" clip-rule="evenodd" d="M10.1299 14.7244C10.1695 14.8315 9.80076 14.8037 9.66992 14.7443C9.88006 14.7443 10.0981 14.6491 10.1299 14.7244Z" fill="white" stroke="#BD6B00" stroke-width="0.0198343"/>
<path fill-rule="evenodd" clip-rule="evenodd" d="M10.3004 14.8036C10.34 14.8987 9.99905 14.8987 9.83252 14.8432C10.0546 14.8432 10.2607 14.7084 10.3004 14.8036ZM10.5502 14.8551C10.6136 14.9701 10.2488 14.978 10.1339 14.9225C10.34 14.8948 10.4986 14.7639 10.5502 14.8551ZM10.1259 14.6608C10.0109 14.7322 10.0189 14.5181 9.92768 14.3714C10.0704 14.5022 10.2052 14.5934 10.1259 14.6608Z" fill="white" stroke="#BD6B00" stroke-width="0.0198343"/>
<path fill-rule="evenodd" clip-rule="evenodd" d="M10.3322 14.7403C10.237 14.8236 10.1576 14.5301 10.0704 14.3635C10.2132 14.5222 10.4195 14.6689 10.3322 14.7364V14.7403ZM10.6019 14.8197C10.5226 14.9149 10.2846 14.542 10.1973 14.3436C10.3282 14.4984 10.6654 14.7403 10.6019 14.8197ZM10.3719 15.1053C10.3322 15.2481 9.72923 14.9704 9.65782 14.8236C10.0069 15.0061 10.3798 14.9664 10.3719 15.1013V15.1053ZM8.44 12.1777C8.42413 12.1579 8.38446 12.1777 8.39239 12.2214C8.4043 12.2809 8.49157 12.5863 8.64231 12.6895C8.74941 12.7688 9.31667 12.8918 9.57055 12.9473C9.71072 12.9738 9.8284 13.0438 9.9236 13.1576C9.89103 13.0259 9.85131 12.8961 9.8046 12.7688C9.757 12.6498 9.63006 12.5229 9.49518 12.5189C9.2532 12.507 8.93586 12.4872 8.70181 12.388C8.5958 12.3433 8.50393 12.2706 8.43603 12.1777H8.44Z" fill="white" stroke="#BD6B00" stroke-width="0.0198343"/>
<path fill-rule="evenodd" clip-rule="evenodd" d="M9.84047 13.3875C9.91977 13.443 10.003 13.2407 9.90788 13.0465C9.90391 13.2328 9.75721 13.2963 9.84047 13.3875Z" fill="white" stroke="#BD6B00" stroke-width="0.0198343"/>
<path fill-rule="evenodd" clip-rule="evenodd" d="M9.91586 13.5739C10.0229 13.6056 10.0546 13.4153 9.98722 13.2647C9.99912 13.4272 9.81673 13.5263 9.91586 13.5739Z" fill="white" stroke="#BD6B00" stroke-width="0.0198343"/>
<path fill-rule="evenodd" clip-rule="evenodd" d="M9.99901 13.7247C10.1021 13.7762 10.1378 13.5819 10.0664 13.4432C10.0743 13.6216 9.91971 13.6771 9.99901 13.7207V13.7247Z" fill="white" stroke="#BD6B00" stroke-width="0.0198343"/>
<path fill-rule="evenodd" clip-rule="evenodd" d="M9.95538 13.7366C9.91573 13.8555 9.67783 13.6295 9.63818 13.5066C9.78489 13.6533 9.98313 13.6335 9.95538 13.7326V13.7366Z" fill="white" stroke="#BD6B00" stroke-width="0.0198343"/>
<path fill-rule="evenodd" clip-rule="evenodd" d="M9.84814 13.5501C9.80057 13.6691 9.50319 13.3519 9.43579 13.2052C9.58249 13.3519 9.87986 13.4629 9.84814 13.5461V13.5501Z" fill="white" stroke="#BD6B00" stroke-width="0.0198343"/>
<path fill-rule="evenodd" clip-rule="evenodd" d="M9.7886 13.3636C9.74103 13.5024 9.41987 13.1337 9.32471 13.0028C9.4833 13.1456 9.82429 13.2645 9.7886 13.3636ZM9.77671 13.2288C9.89566 13.205 9.77274 13.1099 9.63001 12.9552C9.62604 13.1178 9.64983 13.2328 9.77671 13.2288Z" fill="white" stroke="#BD6B00" stroke-width="0.0198343"/>
<path fill-rule="evenodd" clip-rule="evenodd" d="M9.58193 13.1335C9.63348 13.0819 9.53832 13.0581 9.41937 12.9233C9.39955 13.0145 9.53039 13.1811 9.5859 13.1335H9.58193ZM10.137 13.7361C10.2005 13.7758 10.2401 13.645 10.1648 13.53C10.145 13.6568 10.0815 13.6886 10.137 13.7361ZM8.78102 12.9313C8.65017 13.0106 8.44003 12.6934 8.38452 12.5625C8.4995 12.7132 8.8048 12.848 8.78102 12.9313Z" fill="white" stroke="#BD6B00" stroke-width="0.0198343"/>
<path fill-rule="evenodd" clip-rule="evenodd" d="M8.89607 13.1138C8.82074 13.1931 8.59077 12.975 8.51147 12.864C8.63042 12.971 8.92779 12.9829 8.89607 13.1138Z" fill="white" stroke="#BD6B00" stroke-width="0.0198343"/>
<path fill-rule="evenodd" clip-rule="evenodd" d="M9.01915 13.2804C8.99536 13.3914 8.66231 13.1416 8.58301 13.0227C8.72575 13.1615 9.04294 13.1496 9.01915 13.2804Z" fill="white" stroke="#BD6B00" stroke-width="0.0198343"/>
<path fill-rule="evenodd" clip-rule="evenodd" d="M8.96748 13.4031C8.91594 13.5022 8.64236 13.2524 8.57495 13.1256C8.74544 13.2683 9.01109 13.304 8.97144 13.4031H8.96748ZM8.82871 12.9154C8.91197 12.8242 8.87629 12.7806 8.81285 12.6379C8.78113 12.7846 8.72958 12.8441 8.82871 12.9154ZM8.94369 13.0859C9.10229 13.0939 8.94369 12.9035 8.90404 12.741C8.9199 12.9234 8.86439 13.0701 8.94369 13.0859Z" fill="white" stroke="#BD6B00" stroke-width="0.0198343"/>
<path fill-rule="evenodd" clip-rule="evenodd" d="M9.04283 13.2367C9.14989 13.2129 9.12213 13.0583 9.0349 12.8719C9.05473 13.0741 8.94371 13.1891 9.04283 13.2367ZM9.00318 13.542C8.96353 13.661 8.65427 13.3834 8.60669 13.2724C8.76529 13.4072 9.03094 13.4508 9.00318 13.542Z" fill="white" stroke="#BD6B00" stroke-width="0.0198343"/>
<path fill-rule="evenodd" clip-rule="evenodd" d="M9.18954 13.7326C9.14593 13.8516 8.8208 13.6057 8.72168 13.4709C8.91596 13.6295 9.21333 13.6137 9.18954 13.7326Z" fill="white" stroke="#BD6B00" stroke-width="0.0198343"/>
<path fill-rule="evenodd" clip-rule="evenodd" d="M9.38008 13.9267C9.32854 14.0972 8.98755 13.8236 8.88843 13.6888C9.10253 13.8553 9.40387 13.8078 9.38008 13.9267ZM9.06288 13.4906C9.15408 13.5342 9.18976 13.2765 9.13822 13.0901C9.13822 13.2883 8.95187 13.439 9.05892 13.4866L9.06288 13.4906Z" fill="white" stroke="#BD6B00" stroke-width="0.0198343"/>
<path fill-rule="evenodd" clip-rule="evenodd" d="M9.21768 13.697C9.32875 13.7288 9.29702 13.4471 9.19785 13.2607C9.18595 13.4471 9.10661 13.6177 9.21768 13.697ZM9.41602 13.8914C9.53503 13.8954 9.45569 13.6494 9.35255 13.5106C9.36842 13.6891 9.31289 13.8676 9.41602 13.8914ZM9.19785 13.9945C9.15818 14.058 9.07091 13.943 8.92017 13.8557C9.05504 13.8954 9.21371 13.935 9.19785 13.9945ZM9.12644 11.904C9.24545 11.8167 9.15421 11.6581 9.12644 11.5073C9.08677 11.6501 8.99157 11.8405 9.12644 11.904ZM9.12644 12.1143C8.94793 12.0944 8.9757 11.8723 8.96777 11.7295C9.0233 11.9238 9.16611 11.9556 9.12644 12.1182V12.1143ZM9.15024 12.0865C9.29702 12.0786 9.28908 11.9119 9.29702 11.7453C9.22165 11.9 9.13834 11.9238 9.15024 12.0865Z" fill="white" stroke="#BD6B00" stroke-width="0.0198343"/>
<path fill-rule="evenodd" clip-rule="evenodd" d="M9.146 12.2926C9.02705 12.3045 8.97154 12.1895 8.94775 12.0151C9.05481 12.1777 9.14997 12.1261 9.146 12.2926ZM9.18565 12.2807C9.33235 12.3006 9.3046 12.1301 9.3046 12.0032C9.25702 12.1221 9.13807 12.1618 9.18565 12.2807Z" fill="white" stroke="#BD6B00" stroke-width="0.0198343"/>
<path fill-rule="evenodd" clip-rule="evenodd" d="M8.95581 12.2095C8.96771 12.3205 9.03907 12.5108 9.15406 12.4672C9.19767 12.3324 9.05097 12.3046 8.95581 12.2095Z" fill="white" stroke="#BD6B00" stroke-width="0.0198343"/>
<path fill-rule="evenodd" clip-rule="evenodd" d="M9.1855 12.4784C9.13793 12.3833 9.30445 12.3317 9.33617 12.2049C9.356 12.3873 9.34014 12.5062 9.1855 12.4824V12.4784ZM8.71368 11.3207C8.80487 11.2255 8.72557 11.0669 8.69782 10.9163C8.65817 11.059 8.59869 11.2493 8.71368 11.3207ZM8.71368 11.5031C8.55508 11.5229 8.51543 11.1978 8.49561 11.055C8.55111 11.2493 8.7335 11.3326 8.71368 11.507V11.5031ZM8.7454 11.5031C8.85641 11.4436 8.83262 11.3167 8.86434 11.2255C8.79298 11.3405 8.72161 11.3564 8.7454 11.5031Z" fill="white" stroke="#BD6B00" stroke-width="0.0198343"/>
<path fill-rule="evenodd" clip-rule="evenodd" d="M8.7098 11.7173C8.54724 11.7292 8.44812 11.3684 8.44019 11.2257C8.49173 11.42 8.73359 11.523 8.71377 11.7173H8.7098ZM8.74549 11.7094C8.90408 11.6737 8.88426 11.5706 8.86047 11.4081C8.80892 11.5746 8.7217 11.5389 8.74549 11.7094Z" fill="white" stroke="#BD6B00" stroke-width="0.0198343"/>
<path fill-rule="evenodd" clip-rule="evenodd" d="M8.70977 11.9236C8.52739 11.9553 8.53928 11.6619 8.39258 11.4518C8.51946 11.6104 8.74942 11.8086 8.70977 11.9236ZM8.74942 11.9117C8.89216 11.9196 8.90802 11.7095 8.90009 11.6223C8.86441 11.7095 8.70184 11.7888 8.75339 11.9157L8.74942 11.9117Z" fill="white" stroke="#BD6B00" stroke-width="0.0198343"/>
<path fill-rule="evenodd" clip-rule="evenodd" d="M8.42432 11.6977C8.49172 11.9237 8.59084 12.1497 8.70979 12.1339C8.76927 12.003 8.59481 11.9872 8.42432 11.6977Z" fill="white" stroke="#BD6B00" stroke-width="0.0198343"/>
<path fill-rule="evenodd" clip-rule="evenodd" d="M8.75343 12.0983C8.70586 11.9991 8.87238 11.9516 8.9041 11.8247C8.92393 12.0071 8.90807 12.126 8.75343 12.0983ZM8.47192 11.9555C8.57105 12.1577 8.61466 12.3917 8.74947 12.356C8.80101 12.1974 8.5988 12.1657 8.47192 11.9555Z" fill="white" stroke="#BD6B00" stroke-width="0.0198343"/>
<path fill-rule="evenodd" clip-rule="evenodd" d="M8.77723 12.3205C8.71772 12.2095 8.88433 12.1738 8.92797 12.027C8.9478 12.2174 8.92797 12.3562 8.77723 12.3166V12.3205ZM9.06284 10.952C9.15805 10.9758 9.26118 10.8687 9.22548 10.706C9.11441 10.7298 9.06681 10.833 9.06284 10.952ZM8.74946 10.8687C8.75739 10.9163 8.8169 10.9202 8.79706 10.8528C8.78131 10.8092 8.78131 10.7615 8.79706 10.7179C8.81493 10.6584 8.81493 10.595 8.79706 10.5355C8.78119 10.4958 8.72566 10.5196 8.74946 10.5513C8.77326 10.5831 8.77723 10.6624 8.75739 10.6981C8.73888 10.7563 8.73624 10.8131 8.74946 10.8687ZM9.65787 11.5034C9.6182 11.5549 9.54283 11.5192 9.60233 11.4439C9.64994 11.3844 9.72134 11.3328 9.72134 11.2693C9.72927 11.19 9.77291 11.071 9.81654 11.0273C9.86018 10.9837 9.91175 11.0432 9.86415 11.0749C9.81258 11.1067 9.77688 11.2495 9.78084 11.305C9.77688 11.3844 9.70151 11.4439 9.65787 11.5034ZM9.53886 11.4121C9.4992 11.4677 9.44366 11.432 9.47539 11.3447C9.50316 11.2852 9.50713 11.2059 9.53886 11.1622C9.58647 11.0948 9.65787 11.0392 9.70151 10.9956C9.74911 10.9559 9.78084 10.9956 9.74117 11.0353C9.69255 11.0838 9.64871 11.137 9.61027 11.194C9.55473 11.2812 9.57853 11.3526 9.53886 11.4121ZM8.91607 11.1265C8.9121 11.2059 8.97557 11.2217 8.9716 11.1107C8.9716 10.9916 8.88433 10.8806 8.93194 10.7021C8.96367 10.6148 8.96367 10.4522 8.9478 10.3688C8.93193 10.2855 8.86846 10.3371 8.89623 10.4045C8.92003 10.4839 8.89227 10.6267 8.87243 10.7021C8.81293 10.9163 8.92003 11.0194 8.9121 11.1265H8.91607ZM9.08664 10.6902C9.07871 10.7655 9.01524 10.7695 9.03507 10.6703C9.05094 10.5936 9.05094 10.5236 9.03507 10.4601C9.01127 10.3768 9.01921 10.234 9.03507 10.1745C9.05491 10.111 9.11441 10.1467 9.09061 10.1943C9.06316 10.2693 9.05902 10.3509 9.07871 10.4284C9.10251 10.5077 9.09854 10.6188 9.08664 10.6941V10.6902ZM8.46781 12.1619C8.49955 12.1976 8.54715 12.1738 8.50748 12.1222C8.46781 12.0825 8.47971 12.0746 8.45591 12.027C8.43211 11.9715 8.43608 11.9437 8.40831 11.908C8.38054 11.8683 8.34484 11.908 8.36864 11.9358C8.40037 11.9754 8.39244 11.9992 8.40831 12.0349C8.44798 12.0944 8.43608 12.1262 8.46781 12.1619ZM9.27705 13.1377C9.3247 13.1655 9.36526 13.204 9.39554 13.2501C9.42583 13.2962 9.44501 13.3487 9.45159 13.4035C9.45574 13.5023 9.48291 13.5987 9.53093 13.6851C9.45159 13.6653 9.41192 13.5384 9.40002 13.4154C9.38812 13.2885 9.32069 13.2369 9.28102 13.1377H9.27705ZM9.47936 13.3718C9.5468 13.4947 9.63804 13.5423 9.64597 13.6336C9.6539 13.7407 9.66184 13.7446 9.68961 13.8478C9.61027 13.828 9.59043 13.82 9.5706 13.6613C9.5587 13.5503 9.46746 13.4749 9.47936 13.3718Z" fill="white" stroke="#BD6B00" stroke-width="0.0198343"/>
<path fill-rule="evenodd" clip-rule="evenodd" d="M11.5658 14.514C11.6054 14.5854 11.6451 14.6924 11.7244 14.6726C11.7244 14.621 11.6411 14.5814 11.5658 14.514ZM11.6847 14.5378C11.8314 14.6012 11.9623 14.5854 11.9821 14.6805C11.8394 14.6964 11.7839 14.6409 11.6808 14.5378H11.6847ZM11.0464 14.0342C11.1449 14.1108 11.2147 14.2184 11.2446 14.3395C11.2766 14.4491 11.3247 14.5534 11.3874 14.6488C11.2843 14.5795 11.2096 14.4753 11.1772 14.3554C11.1495 14.2364 11.1138 14.1452 11.0464 14.0382V14.0342ZM11.1693 14.0342C11.2803 14.1215 11.3834 14.2245 11.4151 14.3475C11.4468 14.4624 11.4667 14.5497 11.542 14.6647C11.4231 14.5893 11.3794 14.4783 11.3438 14.3554C11.316 14.2364 11.2446 14.1492 11.1693 14.0382V14.0342ZM11.5341 14.3237C11.5316 14.3137 11.5332 14.3031 11.5383 14.2943C11.5435 14.2854 11.5519 14.2789 11.5618 14.2761L11.6649 14.2444C11.7046 14.2325 11.7284 14.2602 11.7284 14.2801V14.3594C11.7284 14.3831 11.7191 14.395 11.7006 14.395C11.6689 14.395 11.6372 14.4043 11.6054 14.4228C11.579 14.436 11.5592 14.4294 11.546 14.403L11.5341 14.3237ZM11.9544 14.3237C11.9544 14.2972 11.9464 14.2814 11.9306 14.2761C11.9006 14.263 11.868 14.2576 11.8354 14.2602C11.801 14.2602 11.7865 14.2682 11.7918 14.284V14.3673C11.7918 14.399 11.7918 14.399 11.8077 14.4069C11.842 14.4043 11.8751 14.4122 11.9068 14.4307C11.9306 14.4413 11.9451 14.4334 11.9504 14.4069L11.9544 14.3237Z" fill="white"/>
<path fill-rule="evenodd" clip-rule="evenodd" d="M13.6973 11.4676C13.7449 11.3883 13.8044 11.5787 14.0066 11.7174C14.0978 11.7809 14.1652 11.9514 14.1652 12.0624V12.2924C14.1691 12.336 14.2207 12.443 14.185 12.4708C14.0978 12.5342 13.9828 12.6849 13.9312 12.7364C13.8837 12.7761 13.844 12.5263 13.8123 12.4192C13.7726 12.3003 13.7885 12.1536 13.6854 12.0465C13.614 11.9672 13.4317 11.8959 13.4475 11.8641L13.6973 11.4676Z" fill="white" stroke="#BD6B00" stroke-width="0.0198343"/>
<path fill-rule="evenodd" clip-rule="evenodd" d="M13.7091 12.0784C13.7248 12.041 13.7462 12.0062 13.7725 11.9753C13.7977 11.9438 13.8304 11.9193 13.8677 11.9039C13.9045 11.8937 13.9375 11.873 13.9628 11.8445L13.9945 11.785V11.7057L14.0064 11.7176C14.0976 11.781 14.165 11.9515 14.165 12.0625V12.1537C14.1598 12.1749 14.1518 12.1921 14.1412 12.2053L14.0976 12.237L13.9906 12.2647C13.9504 12.2826 13.9151 12.3098 13.8875 12.344C13.8589 12.3748 13.8348 12.4095 13.8161 12.4471L13.8082 12.4154C13.7765 12.3084 13.7804 12.1815 13.7051 12.0784H13.7091Z" fill="#BF0000" stroke="#BD6B00" stroke-width="0.0198343"/>
<path d="M13.9947 11.7017C14.0145 11.8325 13.9392 11.8801 13.8678 11.9039C13.7964 11.9317 13.737 12.007 13.7092 12.0784M14.1731 12.1378C14.1414 12.2568 14.0621 12.2409 13.9907 12.2647C13.9193 12.2885 13.844 12.3837 13.8123 12.455" stroke="#BD6B00" stroke-width="0.0198343"/>
<path fill-rule="evenodd" clip-rule="evenodd" d="M13.7644 11.3883L13.7248 11.3645L13.023 12.55L13.0626 12.5738L13.7644 11.3883Z" fill="white" stroke="#BD6B00" stroke-width="0.0198343"/>
<path fill-rule="evenodd" clip-rule="evenodd" d="M13.6893 11.3399C13.6893 11.3609 13.6977 11.3811 13.7125 11.396C13.7274 11.4108 13.7476 11.4192 13.7686 11.4192C13.7896 11.4192 13.8098 11.4108 13.8247 11.396C13.8395 11.3811 13.8479 11.3609 13.8479 11.3399C13.8479 11.3189 13.8395 11.2987 13.8247 11.2838C13.8098 11.2689 13.7896 11.2606 13.7686 11.2606C13.7476 11.2606 13.7274 11.2689 13.7125 11.2838C13.6977 11.2987 13.6893 11.3189 13.6893 11.3399ZM13.0866 10.3883H12.8012V10.4517H13.0866V10.3883ZM13.0866 10.5112H12.8012V11.0584H13.0866V10.5112ZM13.1025 10.313H12.7853C12.7774 10.2059 12.8844 10.0909 12.9439 10.0909C13.0073 10.0949 13.1065 10.2099 13.1025 10.313Z" fill="white" stroke="#BD6B00" stroke-width="0.0198343"/>
<path fill-rule="evenodd" clip-rule="evenodd" d="M12.2967 10.2498C12.3562 10.2736 12.4038 10.341 12.4315 10.4203C12.4593 10.4996 12.4712 10.5908 12.4553 10.6622C12.4527 10.6886 12.446 10.7084 12.4355 10.7216C12.4275 10.7349 12.4196 10.7415 12.4117 10.7415C12.3985 10.7415 12.3892 10.7375 12.3839 10.7296L12.376 10.6979C12.3813 10.6186 12.3773 10.5472 12.3641 10.4838C12.3455 10.4137 12.3036 10.3522 12.2452 10.3093C12.2346 10.3014 12.228 10.2921 12.2253 10.2815L12.2372 10.2538C12.2557 10.2406 12.2756 10.2392 12.2967 10.2498ZM12.2888 10.2657C12.2729 10.2604 12.2597 10.2617 12.2491 10.2696L12.2452 10.2776L12.2571 10.2934C12.3185 10.3376 12.3621 10.4023 12.38 10.4758C12.3962 10.5487 12.4002 10.6237 12.3919 10.6979L12.3998 10.7216C12.3998 10.7216 12.3998 10.7256 12.4077 10.7216L12.4236 10.7098L12.4394 10.6622C12.45 10.5855 12.4408 10.5062 12.4117 10.4243C12.3826 10.3476 12.343 10.2948 12.2927 10.2657H12.2888Z" fill="#BD6B00"/>
<path fill-rule="evenodd" clip-rule="evenodd" d="M12.1935 10.3252C12.2542 10.3569 12.2939 10.4124 12.3124 10.4917C12.333 10.568 12.337 10.6477 12.3243 10.7257C12.3111 10.7785 12.2899 10.805 12.2609 10.805C12.2476 10.8102 12.2371 10.8063 12.2291 10.7931C12.2212 10.7799 12.2186 10.7666 12.2212 10.7534C12.2371 10.6873 12.241 10.6199 12.2331 10.5512C12.2225 10.4825 12.1935 10.4283 12.1459 10.3886C12.1327 10.3781 12.126 10.3675 12.126 10.3569L12.134 10.3331C12.1525 10.3199 12.1723 10.3173 12.1935 10.3252ZM12.1855 10.345C12.1697 10.3397 12.1564 10.3397 12.1459 10.345L12.1419 10.3569L12.1538 10.3728C12.206 10.4172 12.2399 10.4793 12.249 10.5472C12.2595 10.6213 12.2569 10.69 12.241 10.7534V10.7851L12.2609 10.7891C12.2728 10.7891 12.3005 10.7693 12.3084 10.7217C12.3203 10.6543 12.3164 10.5671 12.2965 10.4957C12.2754 10.419 12.2384 10.3688 12.1855 10.345Z" fill="#BD6B00"/>
<path fill-rule="evenodd" clip-rule="evenodd" d="M13.1018 11.5034H12.7846V11.9395H13.1018V11.5034ZM13.082 12.1933H12.7767V12.2884H13.082V12.1933ZM13.0899 12.3558H12.7727V12.7008H13.0899V12.3558ZM13.1137 12.7721H12.7688V12.9664H13.1137V12.7721ZM13.0701 12.114H12.7926L12.737 12.0188H13.1177L13.0701 12.114ZM12.6974 11.773L12.6934 11.5351H12.5031C12.5853 11.5984 12.6518 11.6798 12.6974 11.773Z" fill="white" stroke="#BD6B00" stroke-width="0.0198343"/>
<path fill-rule="evenodd" clip-rule="evenodd" d="M13.0503 11.8721C13.0503 11.9237 12.9908 11.9038 12.9908 11.8761V11.6541C12.9908 11.6144 12.8957 11.6223 12.8957 11.6501V11.888C12.8957 11.9276 12.8283 11.9237 12.8322 11.888V11.6104C12.8322 11.5232 13.0503 11.5272 13.0503 11.6065V11.8721ZM13.0503 12.3995H12.8243V12.677H13.0503V12.3995Z" stroke="#BD6B00" stroke-width="0.0198343"/>
<path fill-rule="evenodd" clip-rule="evenodd" d="M12.9076 12.5189H12.8282V12.5586H12.9076V12.5189ZM13.0464 12.5189H12.9671V12.5586H13.0464V12.5189ZM12.9671 12.3999H12.9076V12.5189H12.9671V12.3999ZM12.9671 12.5586H12.9076V12.6816H12.9671V12.5586ZM14.2246 9.58345C14.2087 9.80163 14.2801 9.9246 14.3951 9.90477C14.4269 9.78576 14.3555 9.70246 14.2246 9.58345ZM14.4824 10.0714C14.5855 10.0198 14.5102 9.61519 14.4705 9.44461C14.4427 9.66279 14.3912 9.9722 14.4824 10.0714Z" fill="white"/>
<path d="M12.9076 12.5189H12.8282V12.5586H12.9076M12.9076 12.5189V12.5586M12.9076 12.5189V12.3999H12.9671V12.5189M12.9076 12.5189H12.9671M12.9076 12.5586H12.9671M12.9076 12.5586V12.6816H12.9671V12.5586M12.9671 12.5189H13.0464V12.5586H12.9671M12.9671 12.5189V12.5586M14.2246 9.58345C14.2087 9.80163 14.2801 9.9246 14.3951 9.90477C14.4269 9.78576 14.3555 9.70246 14.2246 9.58345ZM14.4824 10.0714C14.5855 10.0198 14.5102 9.61519 14.4705 9.44461C14.4427 9.66279 14.3912 9.9722 14.4824 10.0714Z" stroke="#BD6B00" stroke-width="0.0198343"/>
<path fill-rule="evenodd" clip-rule="evenodd" d="M14.4466 10.0909C14.2722 10.1504 14.1294 9.96403 14.0858 9.74595C14.2285 9.9442 14.4625 9.9442 14.4426 10.0909H14.4466ZM14.5775 10.2931C14.7123 10.2574 14.633 9.82922 14.6052 9.65873C14.5775 9.83715 14.4823 10.2336 14.5775 10.2931ZM14.5299 10.2812C14.5219 10.1345 14.3752 10.1742 14.2722 10.0949C14.292 10.1742 14.3515 10.301 14.5299 10.2812ZM14.6964 10.4795C14.8312 10.4398 14.7519 9.97989 14.7598 9.78957C14.7202 9.9561 14.5933 10.4359 14.6964 10.4795ZM14.633 10.4596C14.5219 10.4953 14.3752 10.42 14.3633 10.2892C14.4625 10.3566 14.6131 10.305 14.633 10.4596Z" fill="white" stroke="#BD6B00" stroke-width="0.0198343"/>
<path fill-rule="evenodd" clip-rule="evenodd" d="M14.7996 10.6817C14.9265 10.6936 14.871 10.3011 14.871 9.9363C14.8234 10.2773 14.6925 10.5905 14.7996 10.6817Z" fill="white" stroke="#BD6B00" stroke-width="0.0198343"/>
<path fill-rule="evenodd" clip-rule="evenodd" d="M14.752 10.6658C14.6647 10.7055 14.5101 10.6381 14.4665 10.4914C14.6251 10.5588 14.7282 10.4914 14.752 10.6658ZM13.7369 9.78561C13.7607 9.9799 13.84 10.0909 13.955 10.0711C13.9867 9.95214 13.8916 9.87284 13.7369 9.78561ZM14.0462 10.2773C13.8519 10.305 13.7845 10.1583 13.6497 9.96404C13.8361 10.0988 14.0541 10.1226 14.0462 10.2812V10.2773Z" fill="white" stroke="#BD6B00" stroke-width="0.0198343"/>
<path fill-rule="evenodd" clip-rule="evenodd" d="M14.1056 10.2575C14.2086 10.1306 14.1056 9.96802 14.0263 9.83321C14.0421 10.0354 13.9747 10.1504 14.1056 10.2575ZM14.1452 10.4676C14.1611 10.3407 13.947 10.313 13.8518 10.2456C13.8875 10.3169 13.9311 10.5112 14.1492 10.4676H14.1452Z" fill="white" stroke="#BD6B00" stroke-width="0.0198343"/>
<path fill-rule="evenodd" clip-rule="evenodd" d="M14.1928 10.4676C14.3395 10.4517 14.28 10.202 14.1729 10.0671C14.2166 10.2575 14.0937 10.3883 14.1928 10.4676Z" fill="white" stroke="#BD6B00" stroke-width="0.0198343"/>
<path fill-rule="evenodd" clip-rule="evenodd" d="M14.304 10.6781C14.4705 10.5988 14.3635 10.3926 14.304 10.2697C14.3278 10.4322 14.193 10.5551 14.304 10.6741V10.6781Z" fill="white" stroke="#BD6B00" stroke-width="0.0198343"/>
<path fill-rule="evenodd" clip-rule="evenodd" d="M14.2721 10.6545C14.1848 10.7735 14.0143 10.6227 13.9786 10.4482C14.1253 10.5712 14.2364 10.5513 14.2721 10.6584V10.6545ZM14.6529 11.4597C14.6688 11.2892 14.5419 10.9837 14.6331 10.8171C14.645 10.7933 14.6053 10.7338 14.5776 10.7695C14.5379 10.829 14.4982 10.9956 14.4784 10.9321C14.4585 10.8687 14.4585 10.7497 14.399 10.7259C14.3594 10.714 14.3078 10.7021 14.3237 10.7655C14.3395 10.8211 14.3713 10.9004 14.3356 10.9044C14.3157 10.9044 14.2562 10.825 14.2047 10.7854C14.165 10.7536 14.1015 10.8092 14.165 10.8568C14.3554 11.0154 14.5419 11.0908 14.6529 11.4597ZM14.998 14.0184C15.0218 14.0184 15.0496 14.0065 15.0218 14.0422C14.7957 14.3198 14.7323 14.3992 14.403 14.3595C14.0738 14.3159 13.9944 14.2246 13.7604 14.0937C13.623 14.0234 13.4637 14.0092 13.3161 14.0541C13.2526 14.0739 13.213 14.0739 13.2606 14.0263C13.3082 13.9787 13.3597 13.9192 13.4192 13.8756C13.568 13.7784 13.7476 13.7402 13.923 13.7684C14.161 13.8081 14.3633 13.9628 14.6053 14.0223C14.7349 14.0485 14.8684 14.0485 14.998 14.0223V14.0184ZM13.1019 14.5142C13.0622 14.5222 13.0344 14.6015 13.0106 14.5499C12.9789 14.4587 13.0027 14.3912 13.0424 14.3952C13.09 14.4071 13.1654 14.5142 13.1019 14.5142Z" fill="white" stroke="#BD6B00" stroke-width="0.0198343"/>
<path fill-rule="evenodd" clip-rule="evenodd" d="M15.1527 11.3287C15.2003 11.2758 15.1871 11.2507 15.1131 11.2533C15.0576 11.2533 14.9466 11.293 14.9029 11.2573C14.8633 11.2296 14.8831 11.1106 14.8633 11.0591C14.8554 11.0234 14.8355 10.9798 14.784 11.0511C14.6413 11.2811 14.4668 11.5586 14.3875 11.8283C14.3479 11.9789 14.3875 12.2168 14.5223 12.3754C14.5223 12.2406 14.5699 12.1494 14.6294 12.0344C14.7087 11.8877 14.9902 11.4793 15.1527 11.3247V11.3287Z" fill="white"/>
<path fill-rule="evenodd" clip-rule="evenodd" d="M14.5617 12.5347C14.403 12.5347 14.3753 12.3245 14.3753 12.265C14.4546 12.2809 14.5895 12.4118 14.5617 12.5347ZM13.1932 14.5935C13.0821 14.6173 13.0861 14.3476 13.2011 14.2326C13.1495 14.4071 13.2804 14.5658 13.1971 14.5896L13.1932 14.5935ZM13.2408 14.5896C13.2328 14.7165 13.5581 14.5737 13.6374 14.4706C13.447 14.5539 13.2487 14.4864 13.2408 14.5896ZM13.3796 14.4071C13.3677 14.5301 13.6573 14.419 13.7485 14.3238C13.5541 14.3873 13.3915 14.304 13.3796 14.4031V14.4071ZM13.328 14.423C13.213 14.4507 13.2328 14.1691 13.3439 14.0739C13.2884 14.2603 13.4153 14.3952 13.328 14.423ZM13.447 14.2524C13.332 14.2802 13.3994 14.0382 13.4827 13.943C13.4669 14.1175 13.5224 14.2405 13.4431 14.2524H13.447ZM13.5065 14.2524C13.4946 14.3793 13.7207 14.2841 13.808 14.1612C13.6176 14.2207 13.5184 14.1493 13.5065 14.2524ZM13.566 14.1532C13.4946 14.1016 13.57 13.9628 13.7128 13.9707C13.6969 14.054 13.6493 14.2048 13.566 14.1532ZM13.0107 14.7363C13.0067 14.8633 13.328 14.7998 13.4312 14.6649C13.2249 14.7046 13.0226 14.6332 13.0146 14.7363H13.0107ZM14.2959 14.5063C14.284 14.6332 14.6371 14.4904 14.7244 14.3714C14.5379 14.4349 14.3078 14.4031 14.2959 14.5063ZM14.0817 14.5578C14.0064 14.5063 14.1571 14.3714 14.2801 14.3397C14.2642 14.423 14.1611 14.6094 14.0817 14.5618V14.5578ZM14.0579 14.6491C14.05 14.7641 14.4348 14.7006 14.534 14.5935C14.2047 14.653 14.0698 14.5499 14.0579 14.6491Z" fill="white" stroke="#BD6B00" stroke-width="0.0198343"/>
<path fill-rule="evenodd" clip-rule="evenodd" d="M13.8758 14.7244C13.8361 14.8315 14.2049 14.8037 14.3357 14.7443C14.1256 14.7443 13.9075 14.6491 13.8758 14.7244Z" fill="white" stroke="#BD6B00" stroke-width="0.0198343"/>
<path fill-rule="evenodd" clip-rule="evenodd" d="M13.7052 14.8036C13.6656 14.8987 14.0066 14.8987 14.1731 14.8432C13.9511 14.8432 13.7449 14.7084 13.7052 14.8036ZM13.4554 14.8551C13.392 14.9701 13.7568 14.978 13.8718 14.9225C13.6656 14.8948 13.507 14.7639 13.4554 14.8551ZM13.8797 14.6608C13.9947 14.7322 13.9867 14.5181 14.0779 14.3714C13.9352 14.5022 13.8004 14.5934 13.8797 14.6608Z" fill="white" stroke="#BD6B00" stroke-width="0.0198343"/>
<path fill-rule="evenodd" clip-rule="evenodd" d="M13.6732 14.7403C13.7684 14.8236 13.8477 14.5301 13.935 14.3635C13.7922 14.5222 13.5859 14.6689 13.6732 14.7364V14.7403ZM13.4034 14.8197C13.4828 14.9149 13.7208 14.542 13.8081 14.3436C13.6771 14.4984 13.34 14.7403 13.4034 14.8197ZM13.6335 15.1053C13.6732 15.2481 14.2761 14.9704 14.3475 14.8236C13.9985 15.0061 13.6256 14.9664 13.6335 15.1013V15.1053ZM15.5654 12.1777C15.5812 12.1579 15.6209 12.1777 15.613 12.2214C15.6011 12.2809 15.5138 12.5863 15.3631 12.6895C15.256 12.7688 14.6887 12.8918 14.4348 12.9473C14.2947 12.9738 14.177 13.0438 14.0818 13.1576C14.1143 13.0259 14.1541 12.8961 14.2008 12.7688C14.2484 12.6498 14.3753 12.5229 14.5102 12.5189C14.7522 12.507 15.0695 12.4872 15.3036 12.388C15.4096 12.3433 15.5014 12.2706 15.5693 12.1777H15.5654Z" fill="white" stroke="#BD6B00" stroke-width="0.0198343"/>
<path fill-rule="evenodd" clip-rule="evenodd" d="M14.1651 13.3875C14.0858 13.443 14.0026 13.2407 14.0977 13.0465C14.1017 13.2328 14.2484 13.2963 14.1651 13.3875Z" fill="white" stroke="#BD6B00" stroke-width="0.0198343"/>
<path fill-rule="evenodd" clip-rule="evenodd" d="M14.0898 13.5739C13.9827 13.6056 13.951 13.4153 14.0184 13.2647C14.0065 13.4272 14.1889 13.5263 14.0898 13.5739Z" fill="white" stroke="#BD6B00" stroke-width="0.0198343"/>
<path fill-rule="evenodd" clip-rule="evenodd" d="M14.0064 13.7247C13.9033 13.7762 13.8676 13.5819 13.939 13.4432C13.931 13.6216 14.0857 13.6771 14.0064 13.7207V13.7247Z" fill="white" stroke="#BD6B00" stroke-width="0.0198343"/>
<path fill-rule="evenodd" clip-rule="evenodd" d="M14.0502 13.7366C14.0899 13.8555 14.3278 13.6295 14.3674 13.5066C14.2207 13.6533 14.0225 13.6335 14.0502 13.7326V13.7366Z" fill="white" stroke="#BD6B00" stroke-width="0.0198343"/>
<path fill-rule="evenodd" clip-rule="evenodd" d="M14.1572 13.5501C14.2048 13.6691 14.5022 13.3519 14.5696 13.2052C14.4229 13.3519 14.1255 13.4629 14.1572 13.5461V13.5501Z" fill="white" stroke="#BD6B00" stroke-width="0.0198343"/>
<path fill-rule="evenodd" clip-rule="evenodd" d="M14.2168 13.3636C14.2643 13.5024 14.5855 13.1337 14.6807 13.0028C14.5221 13.1456 14.1811 13.2645 14.2168 13.3636ZM14.2287 13.2288C14.1097 13.205 14.2326 13.1099 14.3754 12.9552C14.3793 13.1178 14.3555 13.2328 14.2287 13.2288Z" fill="white" stroke="#BD6B00" stroke-width="0.0198343"/>
<path fill-rule="evenodd" clip-rule="evenodd" d="M14.4234 13.1335C14.3719 13.0819 14.4671 13.0581 14.586 12.9233C14.6058 13.0145 14.475 13.1811 14.4195 13.1335H14.4234ZM13.8683 13.7361C13.8049 13.7758 13.7653 13.645 13.8406 13.53C13.8604 13.6568 13.9239 13.6886 13.8683 13.7361ZM15.2244 12.9313C15.3552 13.0106 15.5653 12.6934 15.6208 12.5625C15.5059 12.7132 15.2006 12.848 15.2244 12.9313Z" fill="white" stroke="#BD6B00" stroke-width="0.0198343"/>
<path fill-rule="evenodd" clip-rule="evenodd" d="M15.1093 13.1138C15.1846 13.1931 15.4146 12.975 15.4939 12.864C15.3749 12.971 15.0776 12.9829 15.1093 13.1138Z" fill="white" stroke="#BD6B00" stroke-width="0.0198343"/>
<path fill-rule="evenodd" clip-rule="evenodd" d="M14.9865 13.2804C15.0103 13.3914 15.3433 13.1416 15.4226 13.0227C15.2799 13.1615 14.9627 13.1496 14.9865 13.2804Z" fill="white" stroke="#BD6B00" stroke-width="0.0198343"/>
<path fill-rule="evenodd" clip-rule="evenodd" d="M15.0379 13.4031C15.0894 13.5022 15.363 13.2524 15.4304 13.1256C15.2599 13.2683 14.9943 13.304 15.0339 13.4031H15.0379ZM15.1767 12.9154C15.0934 12.8242 15.1291 12.7806 15.1925 12.6379C15.2242 12.7846 15.2758 12.8441 15.1767 12.9154ZM15.0617 13.0859C14.9031 13.0939 15.0617 12.9035 15.1013 12.741C15.0855 12.9234 15.141 13.0701 15.0617 13.0859Z" fill="white" stroke="#BD6B00" stroke-width="0.0198343"/>
<path fill-rule="evenodd" clip-rule="evenodd" d="M14.9625 13.2367C14.8555 13.2129 14.8832 13.0583 14.9705 12.8719C14.9506 13.0741 15.0617 13.1891 14.9625 13.2367ZM15.0022 13.542C15.0418 13.661 15.3511 13.3834 15.3987 13.2724C15.2401 13.4072 14.9744 13.4508 15.0022 13.542Z" fill="white" stroke="#BD6B00" stroke-width="0.0198343"/>
<path fill-rule="evenodd" clip-rule="evenodd" d="M14.8158 13.7326C14.8594 13.8516 15.1846 13.6057 15.2837 13.4709C15.0894 13.6295 14.792 13.6137 14.8158 13.7326Z" fill="white" stroke="#BD6B00" stroke-width="0.0198343"/>
<path fill-rule="evenodd" clip-rule="evenodd" d="M14.6255 13.9267C14.6771 14.0972 15.0181 13.8236 15.1172 13.6888C14.9031 13.8553 14.6017 13.8078 14.6255 13.9267ZM14.9427 13.4906C14.8515 13.5342 14.8159 13.2765 14.8674 13.0901C14.8674 13.2883 15.0537 13.439 14.9467 13.4866L14.9427 13.4906Z" fill="white" stroke="#BD6B00" stroke-width="0.0198343"/>
<path fill-rule="evenodd" clip-rule="evenodd" d="M14.7879 13.697C14.6769 13.7288 14.7086 13.4471 14.8078 13.2607C14.8197 13.4471 14.899 13.6177 14.7879 13.697ZM14.5896 13.8914C14.4706 13.8954 14.5499 13.6494 14.6531 13.5106C14.6372 13.6891 14.6927 13.8676 14.5896 13.8914ZM14.8078 13.9945C14.8474 14.058 14.9347 13.943 15.0854 13.8557C14.9506 13.8954 14.7919 13.935 14.8078 13.9945ZM14.8792 11.904C14.7602 11.8167 14.8514 11.6581 14.8792 11.5073C14.9188 11.6501 15.014 11.8405 14.8792 11.904ZM14.8792 12.1143C15.0577 12.0944 15.0299 11.8723 15.0378 11.7295C14.9823 11.9238 14.8395 11.9556 14.8792 12.1182V12.1143ZM14.8554 12.0865C14.7086 12.0786 14.7165 11.9119 14.7086 11.7453C14.784 11.9 14.8673 11.9238 14.8554 12.0865Z" fill="white" stroke="#BD6B00" stroke-width="0.0198343"/>
<path fill-rule="evenodd" clip-rule="evenodd" d="M14.8594 12.2926C14.9783 12.3045 15.0338 12.1895 15.0576 12.0151C14.9506 12.1777 14.8554 12.1261 14.8594 12.2926ZM14.8197 12.2807C14.673 12.3006 14.7008 12.1301 14.7008 12.0032C14.7484 12.1221 14.8673 12.1618 14.8197 12.2807Z" fill="white" stroke="#BD6B00" stroke-width="0.0198343"/>
<path fill-rule="evenodd" clip-rule="evenodd" d="M15.0496 12.2095C15.0377 12.3205 14.9663 12.5108 14.8513 12.4672C14.8077 12.3324 14.9544 12.3046 15.0496 12.2095Z" fill="white" stroke="#BD6B00" stroke-width="0.0198343"/>
<path fill-rule="evenodd" clip-rule="evenodd" d="M14.8199 12.4784C14.8674 12.3833 14.7009 12.3317 14.6692 12.2049C14.6494 12.3873 14.6652 12.5062 14.8199 12.4824V12.4784ZM15.2917 11.3207C15.2005 11.2255 15.2798 11.0669 15.3076 10.9163C15.3472 11.059 15.4067 11.2493 15.2917 11.3207ZM15.2917 11.5031C15.4503 11.5229 15.4899 11.1978 15.5098 11.055C15.4543 11.2493 15.2719 11.3326 15.2917 11.507V11.5031ZM15.26 11.5031C15.149 11.4436 15.1727 11.3167 15.141 11.2255C15.2124 11.3405 15.2838 11.3564 15.26 11.5031Z" fill="white" stroke="#BD6B00" stroke-width="0.0198343"/>
<path fill-rule="evenodd" clip-rule="evenodd" d="M15.2958 11.7173C15.4584 11.7292 15.5575 11.3684 15.5654 11.2257C15.5139 11.42 15.272 11.523 15.2918 11.7173H15.2958ZM15.2601 11.7094C15.1015 11.6737 15.1214 11.5706 15.1451 11.4081C15.1967 11.5746 15.2839 11.5389 15.2601 11.7094Z" fill="white" stroke="#BD6B00" stroke-width="0.0198343"/>
<path fill-rule="evenodd" clip-rule="evenodd" d="M15.2958 11.9236C15.4782 11.9553 15.4663 11.6619 15.613 11.4518C15.4862 11.6104 15.2562 11.8086 15.2958 11.9236ZM15.2562 11.9117C15.1135 11.9196 15.0976 11.7095 15.1055 11.6223C15.1412 11.7095 15.3038 11.7888 15.2522 11.9157L15.2562 11.9117Z" fill="white" stroke="#BD6B00" stroke-width="0.0198343"/>
<path fill-rule="evenodd" clip-rule="evenodd" d="M15.5813 11.6977C15.5139 11.9237 15.4148 12.1497 15.2958 12.1339C15.2363 12.003 15.4108 11.9872 15.5813 11.6977Z" fill="white" stroke="#BD6B00" stroke-width="0.0198343"/>
<path fill-rule="evenodd" clip-rule="evenodd" d="M15.2522 12.0983C15.2998 11.9991 15.1332 11.9516 15.1015 11.8247C15.0817 12.0071 15.0975 12.126 15.2522 12.0983ZM15.5337 11.9555C15.4346 12.1577 15.391 12.3917 15.2561 12.356C15.2046 12.1974 15.4068 12.1657 15.5337 11.9555Z" fill="white" stroke="#BD6B00" stroke-width="0.0198343"/>
<path fill-rule="evenodd" clip-rule="evenodd" d="M15.2281 12.3205C15.2876 12.2095 15.121 12.1738 15.0774 12.027C15.0576 12.2174 15.0774 12.3562 15.2281 12.3166V12.3205ZM14.9425 10.952C14.8473 10.9758 14.7442 10.8687 14.7799 10.706C14.891 10.7298 14.9386 10.833 14.9425 10.952ZM15.2559 10.8687C15.248 10.9163 15.1885 10.9202 15.2083 10.8528C15.2241 10.8092 15.2241 10.7615 15.2083 10.7179C15.1904 10.6584 15.1904 10.595 15.2083 10.5355C15.2242 10.4958 15.2797 10.5196 15.2559 10.5513C15.2321 10.5831 15.2281 10.6624 15.248 10.6981C15.2665 10.7563 15.2691 10.8131 15.2559 10.8687ZM14.3475 11.5034C14.3872 11.5549 14.4625 11.5192 14.403 11.4439C14.3554 11.3844 14.284 11.3328 14.284 11.2693C14.2761 11.19 14.2325 11.071 14.1888 11.0273C14.1452 10.9837 14.0936 11.0432 14.1412 11.0749C14.1928 11.1067 14.2285 11.2495 14.2245 11.305C14.2285 11.3844 14.3039 11.4439 14.3475 11.5034ZM14.4665 11.4121C14.5062 11.4677 14.5617 11.432 14.53 11.3447C14.5022 11.2852 14.4982 11.2059 14.4665 11.1622C14.4189 11.0948 14.3475 11.0392 14.3039 10.9956C14.2563 10.9559 14.2245 10.9956 14.2642 11.0353C14.3128 11.0838 14.3567 11.137 14.3951 11.194C14.4506 11.2812 14.4268 11.3526 14.4665 11.4121ZM15.0893 11.1265C15.0933 11.2059 15.0298 11.2217 15.0338 11.1107C15.0338 10.9916 15.121 10.8806 15.0734 10.7021C15.0417 10.6148 15.0417 10.4522 15.0576 10.3688C15.0734 10.2855 15.1369 10.3371 15.1091 10.4045C15.0853 10.4839 15.1131 10.6267 15.1329 10.7021C15.1924 10.9163 15.0853 11.0194 15.0933 11.1265H15.0893ZM14.9187 10.6902C14.9267 10.7655 14.9901 10.7695 14.9703 10.6703C14.9544 10.5936 14.9544 10.5236 14.9703 10.4601C14.9941 10.3768 14.9862 10.234 14.9703 10.1745C14.9505 10.111 14.891 10.1467 14.9148 10.1943C14.9422 10.2693 14.9464 10.3509 14.9267 10.4284C14.9029 10.5077 14.9068 10.6188 14.9187 10.6941V10.6902ZM15.5376 12.1619C15.5058 12.1976 15.4582 12.1738 15.4979 12.1222C15.5376 12.0825 15.5257 12.0746 15.5495 12.027C15.5733 11.9715 15.5693 11.9437 15.5971 11.908C15.6248 11.8683 15.6605 11.908 15.6367 11.9358C15.605 11.9754 15.6129 11.9992 15.5971 12.0349C15.5574 12.0944 15.5693 12.1262 15.5376 12.1619ZM14.7283 13.1377C14.6807 13.1655 14.6401 13.204 14.6098 13.2501C14.5795 13.2962 14.5604 13.3487 14.5538 13.4035C14.5496 13.5023 14.5225 13.5987 14.4744 13.6851C14.5538 13.6653 14.5934 13.5384 14.6053 13.4154C14.6172 13.2885 14.6847 13.2369 14.7244 13.1377H14.7283ZM14.526 13.3718C14.4586 13.4947 14.3673 13.5423 14.3594 13.6336C14.3515 13.7407 14.3435 13.7446 14.3158 13.8478C14.3951 13.828 14.4149 13.82 14.4348 13.6613C14.4467 13.5503 14.5379 13.4749 14.526 13.3718Z" fill="white" stroke="#BD6B00" stroke-width="0.0198343"/>
<path fill-rule="evenodd" clip-rule="evenodd" d="M12.4398 14.514C12.4002 14.5854 12.3605 14.6924 12.2812 14.6726C12.2812 14.621 12.3645 14.5814 12.4398 14.514ZM12.3209 14.5378C12.1742 14.6012 12.0433 14.5854 12.0235 14.6805C12.1662 14.6964 12.2218 14.6409 12.3248 14.5378H12.3209ZM12.9592 14.0342C12.8607 14.1108 12.7909 14.2184 12.761 14.3395C12.729 14.4491 12.6809 14.5534 12.6182 14.6488C12.7214 14.5795 12.796 14.4753 12.8284 14.3554C12.8561 14.2364 12.8918 14.1452 12.9592 14.0382V14.0342ZM12.8363 14.0342C12.7253 14.1215 12.6222 14.2245 12.5905 14.3475C12.5588 14.4624 12.5389 14.5497 12.4636 14.6647C12.5826 14.5893 12.6262 14.4783 12.6619 14.3554C12.6896 14.2364 12.761 14.1492 12.8363 14.0382V14.0342ZM12.4715 14.3237C12.474 14.3137 12.4725 14.3031 12.4673 14.2943C12.4621 14.2854 12.4537 14.2789 12.4438 14.2761L12.3407 14.2444C12.301 14.2325 12.2773 14.2602 12.2773 14.2801V14.3594C12.2773 14.3831 12.2865 14.395 12.305 14.395C12.3367 14.395 12.3685 14.4043 12.4002 14.4228C12.4266 14.436 12.4464 14.4294 12.4596 14.403L12.4715 14.3237ZM12.0513 14.3237C12.0513 14.2972 12.0592 14.2814 12.075 14.2761C12.105 14.263 12.1377 14.2576 12.1702 14.2602C12.2046 14.2602 12.2191 14.2682 12.2138 14.284V14.3673C12.2138 14.399 12.2138 14.399 12.198 14.4069C12.1636 14.4043 12.1306 14.4122 12.0988 14.4307C12.075 14.4413 12.0605 14.4334 12.0552 14.4069L12.0513 14.3237Z" fill="white"/>
<path fill-rule="evenodd" clip-rule="evenodd" d="M13.1329 15.4385C13.1302 15.4861 13.1434 15.5271 13.1725 15.5615C12.9911 15.5066 12.7956 15.5222 12.6251 15.6051C12.5537 15.6368 12.4664 15.5654 12.5497 15.498C12.6687 15.4067 12.9345 15.4583 13.1329 15.4385ZM10.8519 15.4385C10.8554 15.4788 10.8499 15.5195 10.836 15.5575C11.0106 15.4901 11.197 15.5496 11.3755 15.621C11.4945 15.6725 11.5064 15.5813 11.4866 15.5535C11.4636 15.5213 11.4341 15.4944 11.3999 15.4746C11.3657 15.4547 11.3276 15.4424 11.2883 15.4385H10.8519ZM11.0026 14.5777C10.9498 14.5592 10.8969 14.5777 10.844 14.6332C10.6734 14.7998 10.4711 14.9625 10.3084 15.0934C10.2489 15.1449 10.1894 15.2401 10.4433 15.3314C10.4552 15.3393 10.6417 15.4107 10.7607 15.4107C10.8122 15.4107 10.8122 15.4821 10.8003 15.502C10.7805 15.5416 10.7964 15.5575 10.7567 15.5932C10.7131 15.6329 10.7567 15.6765 10.7964 15.6448C10.9392 15.5178 11.1772 15.6011 11.4033 15.6725C11.4588 15.6884 11.554 15.6844 11.554 15.6091C11.554 15.5337 11.6135 15.4742 11.6492 15.4702C11.7445 15.4861 12.2046 15.4901 12.3434 15.4742C12.4228 15.4623 12.4307 15.5892 12.4744 15.6329C12.5061 15.6686 12.6211 15.6765 12.7044 15.6408C12.8631 15.5694 13.1011 15.5694 13.2003 15.6408C13.24 15.6686 13.2757 15.6408 13.2519 15.613C13.2201 15.5734 13.2241 15.5496 13.2082 15.5178C13.1686 15.4385 13.2003 15.4226 13.24 15.4186C13.6763 15.3591 13.8191 15.2124 13.6842 15.0894C13.5097 14.9387 13.3193 14.784 13.1527 14.6054C13.1051 14.5578 13.0734 14.538 12.9821 14.5777C12.666 14.7204 12.3251 14.7999 11.9785 14.8117C11.6427 14.79 11.3128 14.7123 11.0026 14.5816V14.5777Z" fill="white"/>
<path fill-rule="evenodd" clip-rule="evenodd" d="M13.0576 14.6015L12.9941 14.6173C12.6371 14.7443 12.3118 14.8316 11.9747 14.8316C11.6454 14.8316 11.3003 14.7364 10.9869 14.6094C10.9678 14.6017 10.9465 14.6017 10.9274 14.6094C10.9062 14.6147 10.8891 14.624 10.8758 14.6372C10.7292 14.7838 10.5728 14.9203 10.4077 15.0458C10.38 15.0656 10.3839 15.1172 10.4276 15.133C10.7568 15.252 11.0781 15.4702 11.9985 15.4623C12.9307 15.4544 13.2599 15.2401 13.5535 15.141C13.5746 15.133 13.5918 15.1198 13.605 15.1013L13.609 15.0696L13.5852 15.0378C13.4146 14.899 13.2361 14.7879 13.1171 14.6253C13.1039 14.6068 13.0841 14.6002 13.0576 14.6054V14.6015ZM13.0576 14.6213C13.0814 14.6213 13.096 14.6253 13.1012 14.6332C13.2203 14.8038 13.4067 14.9109 13.5733 15.0497L13.5892 15.0775V15.0934C13.5812 15.1066 13.568 15.1158 13.5495 15.1211C13.248 15.2243 12.9267 15.4385 12.0024 15.4464C11.0821 15.4544 10.7648 15.2362 10.4355 15.1172C10.4038 15.1013 10.4077 15.0696 10.4196 15.0616C10.5889 14.9321 10.7449 14.7945 10.8877 14.6491L10.9314 14.6253H10.979C11.2925 14.7615 11.629 14.8369 11.9707 14.8474C12.3158 14.8474 12.6451 14.7602 13.0021 14.6372L13.0616 14.6213H13.0576Z" fill="#BD6B00"/>
<path fill-rule="evenodd" clip-rule="evenodd" d="M10.8003 8.61549C10.8003 8.55995 10.8796 8.55598 10.8717 8.63135C10.8598 8.72259 11.0502 8.9606 11.0661 9.10738C11.078 9.20655 11.0066 9.28985 10.9391 9.34539C10.8996 9.37142 10.854 9.3869 10.8068 9.39037C10.7596 9.39384 10.7123 9.38519 10.6694 9.36522C10.6337 9.33349 10.6019 9.23432 10.6297 9.19465C10.6376 9.18275 10.6813 9.34142 10.7765 9.34142C10.9074 9.34142 11.0145 9.24225 11.0145 9.15498C11.0224 9.00424 10.8043 8.76623 10.8003 8.61549ZM11.1771 8.98837C11.2009 8.97251 11.2327 9.03994 11.2089 9.05581C11.1851 9.07168 11.1494 9.00424 11.1771 8.98441V8.98837ZM11.2366 8.84953C11.2247 8.85747 11.2049 8.84953 11.2089 8.8416C11.247 8.78864 11.2956 8.74408 11.3517 8.71069C11.3676 8.70276 11.3914 8.72656 11.3834 8.73846C11.3429 8.7855 11.2929 8.82337 11.2366 8.84953ZM11.7365 8.45285C11.7484 8.42904 11.8198 8.40128 11.8396 8.38541C11.8555 8.36558 11.8634 8.40128 11.8555 8.41318C11.8436 8.44095 11.7801 8.48061 11.7523 8.48458C11.7365 8.48194 11.7312 8.47268 11.7365 8.45681V8.45285ZM11.907 8.46475C11.9274 8.41172 11.9617 8.36514 12.0062 8.32987C12.0261 8.31797 12.0578 8.32987 12.0499 8.34574C12.0229 8.39821 11.9834 8.44318 11.9348 8.47665C11.9229 8.48855 11.9031 8.47665 11.907 8.46475ZM11.7603 8.57185C11.7523 8.58507 11.7537 8.59565 11.7642 8.60359C11.7907 8.61152 11.8171 8.61152 11.8436 8.60359C11.8674 8.58772 11.8555 8.48855 11.8237 8.54012C11.7999 8.57185 11.7841 8.56392 11.7603 8.57185ZM11.4707 8.794C11.4191 8.75433 11.4866 8.69879 11.5381 8.73846C11.6452 8.8178 11.3795 9.12721 11.2366 9.27002C11.2089 9.29779 11.1851 9.23035 11.2208 9.19465C11.3239 9.10799 11.4135 9.00637 11.4866 8.89317C11.5024 8.87333 11.5143 8.8297 11.4707 8.794ZM12.0776 8.53218C12.0816 8.49251 12.0141 8.53218 12.0141 8.48061C12.0141 8.45285 12.0895 8.43301 12.1213 8.46475C12.1728 8.52028 12.1332 8.61152 12.0419 8.61945C11.9705 8.61945 11.8436 8.72656 11.8634 8.74639C11.8832 8.77416 12.0776 8.79003 12.1927 8.77416C12.2641 8.76226 12.2482 8.82573 12.1768 8.83366C12.1054 8.8416 12.0499 8.83366 11.9864 8.85747C11.907 8.8773 11.8753 8.97647 11.8317 9.01614C11.8237 9.02407 11.7999 8.98441 11.8079 8.96854C11.8396 8.92094 11.8872 8.84953 11.9427 8.82573C11.9745 8.81383 11.8475 8.80986 11.8079 8.79796C11.7761 8.79003 11.7841 8.74639 11.796 8.72259C11.8118 8.69086 11.9308 8.56789 11.9824 8.57185C12.026 8.57185 12.0737 8.55995 12.0776 8.53218ZM12.276 8.54012L12.3355 8.46871C12.3474 8.45681 12.3712 8.46871 12.3672 8.50045C12.3632 8.52822 12.3275 8.54805 12.3077 8.56789C12.2879 8.57979 12.268 8.55202 12.2799 8.54012H12.276ZM12.5338 8.44888C12.5695 8.44888 12.5735 8.51235 12.5417 8.52028C12.5179 8.52822 12.5021 8.45285 12.5338 8.44888ZM12.4505 8.64722C12.4505 8.70673 12.4783 8.70276 12.5298 8.69879C12.5814 8.69482 12.625 8.69879 12.625 8.65119C12.625 8.59962 12.5973 8.55202 12.5854 8.58772C12.5814 8.61945 12.5735 8.67499 12.5536 8.65119C12.5378 8.63135 12.5457 8.62739 12.514 8.65912C12.4941 8.67896 12.4941 8.65119 12.4822 8.63532C12.4743 8.62342 12.4505 8.64326 12.4505 8.65119V8.64722ZM12.0856 8.93284C12.0737 9.00821 12.0856 9.11135 12.1213 9.11135C12.1689 9.11135 12.2641 8.95267 12.3117 8.8654C12.3394 8.8178 12.3831 8.80986 12.3632 8.86143C12.3355 8.9368 12.3394 9.09944 12.3632 9.14705C12.3791 9.17085 12.4822 9.12325 12.4981 9.08754C12.5298 9.02011 12.5021 8.89713 12.514 8.82176C12.5179 8.77416 12.5655 8.76226 12.5616 8.80986L12.5576 9.10738C12.5576 9.14705 12.6726 9.20258 12.6885 9.08358C12.6964 9.01217 12.7361 8.9368 12.6885 8.85747C12.6568 8.8059 12.7322 8.80986 12.7718 8.88127C12.7996 8.92887 12.748 9.00821 12.752 9.06771C12.752 9.16291 12.6806 9.21845 12.629 9.21845C12.5814 9.21845 12.5497 9.15895 12.51 9.15895C12.4703 9.15895 12.4227 9.22638 12.391 9.22242C12.2482 9.21448 12.3236 9.01217 12.2799 9.00821C12.2323 9.00821 12.1808 9.20655 12.1213 9.20258C12.0657 9.19465 12.0022 9.03597 12.03 8.97251C12.0499 8.90904 12.0895 8.89317 12.0856 8.93284ZM12.756 8.61549C12.6885 8.57582 12.756 8.46871 12.7917 8.50442C12.8551 8.58375 12.9186 8.76226 12.9662 8.77813C12.994 8.78606 12.99 8.64326 13.0098 8.57979C13.0257 8.52822 13.0812 8.54408 13.0733 8.60755C13.0693 8.62739 12.994 8.86143 13.0019 8.86937C13.0548 8.96836 13.0986 9.07191 13.1328 9.17878C13.1447 9.22638 13.0892 9.19465 13.0812 9.18672C13.0455 9.13118 12.986 8.92887 12.986 8.94077L12.9186 9.24622C12.9107 9.28589 12.8512 9.27795 12.867 9.20655C12.8789 9.15101 12.9583 8.8773 12.9543 8.8654C12.9091 8.76743 12.8411 8.68173 12.756 8.61549Z" fill="white"/>
<path fill-rule="evenodd" clip-rule="evenodd" d="M12.875 9.27368C12.8591 9.27368 12.8274 9.31333 12.9226 9.33315C13.0455 9.35694 13.1843 9.31333 13.2239 9.19042C13.2755 9.04371 13.3032 8.90494 13.331 8.8534C13.3627 8.79392 13.4023 8.79789 13.3706 8.71066C13.3508 8.64325 13.3111 8.66308 13.3032 8.69876C13.2834 8.78996 13.2001 9.09526 13.1724 9.1468C13.1248 9.24725 13.0257 9.28954 12.875 9.27368Z" fill="white"/>
<path fill-rule="evenodd" clip-rule="evenodd" d="M13.129 8.78996C13.1132 8.7622 13.0815 8.78996 13.0894 8.81771C13.0893 8.82366 13.0905 8.82956 13.093 8.83497C13.0954 8.84038 13.0991 8.84517 13.1036 8.84897C13.1082 8.85278 13.1136 8.85551 13.1193 8.85696C13.1251 8.85842 13.1311 8.85855 13.137 8.85736C13.1647 8.85736 13.2242 8.86133 13.2242 8.81771C13.2242 8.78599 13.1964 8.75824 13.1806 8.79392C13.1594 8.823 13.1423 8.823 13.129 8.79392V8.78996ZM13.1568 8.67101C13.1489 8.67894 13.1568 8.71462 13.1687 8.71066C13.2142 8.71098 13.2592 8.70009 13.2995 8.67894C13.3075 8.67101 13.3035 8.65118 13.2916 8.65118C13.2519 8.65118 13.1885 8.65118 13.1568 8.67101ZM13.5057 8.7622C13.5374 8.71462 13.6167 8.71066 13.585 8.77806L13.3352 9.26575C13.3035 9.32126 13.2797 9.2935 13.3035 9.24989C13.3312 9.19438 13.4978 8.7741 13.5057 8.7622Z" fill="white"/>
<path fill-rule="evenodd" clip-rule="evenodd" d="M13.2003 9.34521C13.1924 9.31349 13.1408 9.26591 13.1488 9.35314C13.1567 9.5038 13.3668 9.45622 13.4263 9.40468C13.4858 9.35314 13.4382 9.57517 13.5136 9.59896C13.5532 9.61086 13.6325 9.55535 13.6721 9.5038C13.7792 9.36503 13.8506 9.16282 13.9497 9.02801C13.9893 8.9725 13.9299 8.93285 13.91 8.97647C13.8149 9.12713 13.7039 9.4364 13.581 9.5157C13.4818 9.57914 13.5136 9.4364 13.5096 9.38882C13.5056 9.3571 13.466 9.30952 13.4144 9.35314C13.3722 9.38485 13.3206 9.40159 13.2677 9.40071C13.24 9.40071 13.2122 9.40072 13.2003 9.34521Z" fill="white"/>
<path fill-rule="evenodd" clip-rule="evenodd" d="M13.573 9.06769C13.573 9.05579 13.5294 9.05182 13.5334 9.09546C13.5334 9.12719 13.573 9.13513 13.577 9.13513C13.6365 9.08753 13.5651 9.11133 13.573 9.06372V9.06769ZM13.4818 9.24223C13.4699 9.24223 13.458 9.2819 13.4897 9.28587L13.6445 9.27794C13.6603 9.27794 13.6683 9.24223 13.6286 9.2462C13.581 9.2462 13.5215 9.2343 13.4818 9.2462V9.24223ZM11.0224 8.58373C11.0422 8.58373 11.0858 8.63927 11.0819 8.6591C11.0819 8.66704 11.0343 8.6591 11.0224 8.6472C11.0105 8.6353 11.0144 8.58373 11.0224 8.58373ZM10.8121 8.99629C10.7724 9.02009 10.82 9.06372 10.8518 9.04389C10.9629 8.96852 11.1295 8.89315 11.1691 8.74638C11.181 8.69877 11.2247 8.6234 11.2683 8.60754C11.308 8.5877 11.3714 8.68291 11.4111 8.60754C11.4349 8.56787 11.5182 8.6353 11.538 8.59167C11.5618 8.5401 11.5499 8.51233 11.5499 8.45679C11.5499 8.42506 11.5222 8.41713 11.5023 8.4687L11.4984 8.53216C11.4878 8.54274 11.4746 8.54539 11.4587 8.5401C11.4508 8.53216 11.4587 8.51233 11.4349 8.50043C11.4243 8.49779 11.4138 8.50043 11.4032 8.50836C11.3754 8.55993 11.3635 8.60754 11.3199 8.54803C11.2842 8.50836 11.2643 8.42506 11.2405 8.53613C11.2326 8.5758 11.1731 8.63134 11.1374 8.63134C11.0938 8.63134 11.1057 8.51233 11.0105 8.53216C10.9589 8.54407 10.9629 8.63927 10.9708 8.67101C10.9827 8.72257 11.1295 8.68687 11.1176 8.71861C11.0938 8.82571 10.943 8.93282 10.8121 8.99629ZM9.91163 9.51991C9.90767 9.53975 9.93147 9.58735 9.95527 9.59132C9.97907 9.59132 9.99494 9.53975 9.987 9.51991C9.97907 9.50801 9.9156 9.50801 9.91163 9.51991ZM10.0425 9.71429C10.0267 9.69842 9.97907 9.74206 10.0187 9.77379C10.0386 9.79363 10.1179 9.81743 10.1377 9.78173C10.1695 9.73412 10.11 9.56355 10.1377 9.54371C10.1576 9.52388 10.2488 9.65479 10.2964 9.66272C10.4035 9.67859 10.3758 9.48025 10.4948 9.49611C10.5701 9.50405 10.5781 9.40884 10.5662 9.34537C10.5582 9.28587 10.463 9.20256 10.4194 9.1629C10.3639 9.11529 10.3361 9.20256 10.3718 9.22637C10.4194 9.26603 10.5027 9.34141 10.5146 9.38901C10.5186 9.41281 10.4591 9.46041 10.4353 9.44851C10.3797 9.41678 10.3321 9.28984 10.2845 9.26207C10.2687 9.25413 10.229 9.27397 10.2449 9.31364C10.2687 9.35727 10.3639 9.42074 10.3678 9.46834C10.3718 9.50801 10.3282 9.59528 10.2964 9.59528C10.2647 9.59528 10.1774 9.48818 10.1496 9.43661C10.1338 9.41678 10.0901 9.41678 10.0822 9.45248C10.0796 9.52575 10.0863 9.59905 10.102 9.67065C10.11 9.73412 10.0663 9.73809 10.0425 9.71429ZM9.88387 9.37314C9.868 9.38901 9.9156 9.42074 9.92353 9.41281C9.9394 9.39694 10.0068 9.32157 9.99494 9.2938C9.98304 9.27 9.8918 9.21447 9.87593 9.24223C9.84816 9.28587 9.9632 9.30967 9.94337 9.32157L9.88387 9.37314ZM10.0465 9.03992C10.0465 9.03992 10.0782 9.13909 10.102 9.09546C10.1179 9.06769 10.0465 9.03992 10.0465 9.03992ZM10.0941 9.1986C10.0862 9.1986 10.0544 9.22637 10.0743 9.23827C10.106 9.25413 10.1893 9.27 10.1695 9.2105C10.1576 9.1748 10.2964 9.2105 10.2607 9.11529C10.2457 9.08643 10.2221 9.06289 10.1933 9.04786C10.1774 9.04786 10.1338 9.06769 10.1615 9.08356C10.1814 9.09149 10.2409 9.12719 10.221 9.151C10.1933 9.1748 10.1774 9.13909 10.1457 9.14703C10.1298 9.14703 10.1417 9.19463 10.1298 9.20653C10.1298 9.21447 10.102 9.19066 10.0941 9.19463V9.1986ZM10.3123 8.82175C10.2889 8.84288 10.2723 8.8705 10.2647 8.90108C10.2673 8.91431 10.2739 8.92092 10.2845 8.92092C10.3096 8.90291 10.3266 8.87589 10.3321 8.84555C10.3321 8.83365 10.3242 8.81381 10.3123 8.82175ZM10.4234 8.80985C10.3916 8.77018 10.463 8.70671 10.4908 8.79001C10.5106 8.84158 10.709 9.10339 10.7486 9.19066C10.7804 9.25017 10.7486 9.27397 10.7129 9.23033C10.6138 9.10339 10.5305 8.94472 10.4234 8.80985ZM10.6296 8.81381C10.6653 8.77414 10.7367 8.69481 10.7169 8.65514C10.6971 8.61547 10.6574 8.61547 10.6495 8.62737C10.6098 8.67894 10.6812 8.66704 10.6693 8.68291C10.6481 8.71729 10.631 8.75166 10.6177 8.78604C10.6138 8.79794 10.6217 8.82175 10.6296 8.81381ZM13.7159 8.94075C13.6881 8.92092 13.7397 8.82175 13.7754 8.86141C13.8666 8.96852 13.9102 9.32157 13.938 9.58735C13.938 9.58735 13.8983 9.62305 13.8983 9.61512C13.8983 9.47628 13.8388 9.04389 13.7159 8.94075ZM11.6095 8.5996C11.5777 8.5282 11.6531 8.5044 11.665 8.552C11.7166 8.78208 11.8435 8.95662 11.9427 9.11133C11.9704 9.15893 11.9427 9.19066 11.8752 9.14306C11.8276 9.11133 11.7761 8.98835 11.7562 8.98439C11.7086 8.97645 11.6055 9.18273 11.3952 9.12323C11.3397 9.10736 11.3437 8.94472 11.3397 8.87332C11.3397 8.83761 11.3794 8.83365 11.3794 8.87332C11.3794 8.94075 11.3794 9.07959 11.4627 9.08753C11.5341 9.08753 11.6848 8.99232 11.7166 8.91298C11.7483 8.83365 11.6412 8.67894 11.6095 8.59563V8.5996Z" fill="white"/>
<path fill-rule="evenodd" clip-rule="evenodd" d="M13.7715 9.55935C13.7874 9.51177 14.0134 9.13113 14.0451 9.04787C14.0609 9.00822 14.1244 9.11924 14.0609 9.17871C14.0054 9.22629 13.8429 9.49591 13.8111 9.59107C13.7953 9.63072 13.7556 9.61089 13.7715 9.55935Z" fill="white"/>
<path fill-rule="evenodd" clip-rule="evenodd" d="M14.1563 9.19861C14.196 9.03994 14.2991 9.22241 14.2079 9.30969C14.073 9.44456 14.0294 9.7024 13.8112 9.74207C13.7556 9.75397 13.6525 9.71431 13.6208 9.6905C13.6089 9.68257 13.6287 9.62703 13.6644 9.6548C13.716 9.69447 13.827 9.70637 13.8866 9.65877C14.0168 9.5329 14.1101 9.37375 14.1563 9.19861ZM11.8952 9.7024C11.8833 9.71431 11.8555 9.71431 11.8516 9.73017C11.8396 9.78571 11.8515 9.81744 11.8396 9.87298C11.8277 9.92852 11.7881 9.92852 11.792 9.88488C11.792 9.82934 11.8436 9.74604 11.8079 9.74207C11.7841 9.73811 11.7682 9.70637 11.792 9.6905C11.8317 9.6667 11.8635 9.66141 11.8873 9.67464C11.9005 9.68257 11.9031 9.69183 11.8952 9.7024Z" fill="white"/>
<path fill-rule="evenodd" clip-rule="evenodd" d="M11.8633 9.62304C11.8078 9.67855 11.7523 9.69838 11.7007 9.76182C11.6769 9.78561 11.6809 9.82129 11.665 9.85698C11.6531 9.89266 11.6095 9.89663 11.5976 9.89266C11.5778 9.8768 11.5818 9.81336 11.558 9.84508C11.5342 9.8768 11.5223 9.92438 11.4906 9.92438C11.4589 9.92438 11.4113 9.86491 11.439 9.86491C11.5302 9.85301 11.5263 9.78561 11.558 9.77768C11.5976 9.77371 11.5976 9.83715 11.6254 9.82526C11.6412 9.81733 11.6531 9.74199 11.673 9.72217C11.7324 9.65873 11.78 9.62701 11.8435 9.57943C11.8712 9.55564 11.895 9.59926 11.8633 9.62701V9.62304ZM12.0734 9.82129C12.0258 9.82922 12.0338 9.8887 12.0496 9.89266C12.0695 9.90456 12.1051 9.90852 12.117 9.84112C12.125 9.81336 12.1289 9.97989 12.1884 9.91645C12.2281 9.8768 12.3113 9.92438 12.347 9.8768C12.3748 9.84112 12.3866 9.81733 12.3629 9.76975C12.3549 9.75785 12.3232 9.76182 12.3232 9.7975C12.3232 9.83319 12.3034 9.86491 12.2717 9.86094C12.2558 9.85698 12.2796 9.78561 12.2637 9.76578H12.236C12.2241 9.78164 12.2479 9.85301 12.2122 9.86094C12.1646 9.86887 12.1884 9.81336 12.1725 9.80543C12.1051 9.77371 12.1012 9.81336 12.0734 9.81733V9.82129ZM12.4303 9.70234C12.4659 9.69441 12.4541 9.69441 12.5096 9.6508C12.5294 9.63494 12.5334 9.68252 12.5294 9.70234C12.5294 9.7301 12.4897 9.71027 12.4778 9.73803C12.462 9.77371 12.4699 9.85698 12.462 9.8887C12.462 9.90456 12.4303 9.90456 12.4303 9.8887C12.4223 9.84905 12.4342 9.8094 12.4303 9.75785C12.4303 9.74199 12.4104 9.71424 12.4303 9.70631V9.70234ZM12.232 9.60322L12.2241 9.69441C12.2241 9.71424 12.2637 9.70234 12.2637 9.69838C12.2637 9.66666 12.2717 9.61908 12.2637 9.60719C12.2505 9.59926 12.2399 9.59793 12.232 9.60322Z" fill="white"/>
<path fill-rule="evenodd" clip-rule="evenodd" d="M11.982 9.23432L11.9265 9.45636L11.8472 9.30569V9.46032L11.6727 9.25415L11.7322 9.47618L11.5736 9.34137L11.6608 9.49204L11.3833 9.31362L11.5577 9.5198L11.3357 9.40878L11.4943 9.54359L11.1375 9.40878L11.4824 9.57927C11.6391 9.50794 11.8098 9.47271 11.982 9.47618C12.1802 9.47883 12.3454 9.51319 12.4776 9.57927L12.8265 9.40878L12.4697 9.54359L12.6283 9.40878L12.4102 9.5198L12.5807 9.31362L12.3031 9.49204L12.3904 9.34137L12.2318 9.47222L12.2912 9.25415L12.1208 9.46032V9.30569L12.0415 9.45636L11.982 9.23432Z" fill="white"/>
<path d="M11.6737 14.0509L11.669 14.154H11.6502V14.0837L11.6315 14.0228L11.608 13.9759L11.5706 13.9244L11.6034 13.84C11.6275 13.8669 11.6452 13.8989 11.6549 13.9337C11.6689 13.9713 11.6768 14.0108 11.6783 14.0509M11.9361 13.8915C11.9361 13.9197 11.9314 13.9384 11.922 13.9478C11.9126 13.9603 11.897 13.9697 11.8752 13.9759L11.8845 14.0274V14.154H11.8658V14.1071L11.8564 14.0696L11.8423 14.0321L11.8142 13.9759L11.7767 13.915L11.8002 13.84L11.8377 13.8822L11.8705 13.8915C11.9017 13.8915 11.9173 13.8759 11.9173 13.8447H11.9314V13.8915M12.1704 14.0743L12.1516 14.154L12.1235 14.1259L12.1095 14.079V14.0134L12.0673 14.0181C12.0485 14.0181 12.0329 14.0134 12.0204 14.004C12.0146 13.9997 12.0099 13.994 12.0066 13.9875C12.0034 13.981 12.0017 13.9738 12.0017 13.9665C12.0017 13.9353 12.011 13.9072 12.0298 13.8822C12.0423 13.8541 12.061 13.84 12.086 13.84C12.1016 13.84 12.1126 13.8447 12.1188 13.8541L12.1329 13.8915V13.9665C12.1329 13.9978 12.136 14.0196 12.1423 14.0321C12.1423 14.0446 12.1516 14.0587 12.1704 14.0743ZM12.1001 13.9384C12.1001 13.9197 12.0891 13.9103 12.0673 13.9103L12.0485 13.915L12.0392 13.929C12.0392 13.9384 12.0517 13.9431 12.0767 13.9431L12.1001 13.9384ZM12.4234 14.0462L12.4141 14.1446C12.3953 14.129 12.3781 14.1055 12.3625 14.0743L12.311 13.9197L12.2735 14.0602L12.2454 14.1212L12.2172 14.1493V14.0556L12.2547 13.9993L12.2828 13.9337L12.2969 13.84H12.3156L12.3484 13.9337C12.3654 13.976 12.3909 14.0143 12.4234 14.0462Z" fill="white"/>
<path d="M13.1505 14.9652C13.1662 14.9777 13.1755 14.9933 13.1787 15.0121L13.188 15.0683H13.1599L13.1271 15.0168L13.0802 14.9699L13.0193 14.9136L12.9442 14.8527L12.9208 14.8339L12.9114 14.8058L12.9067 14.7448L13.0052 14.8245L13.099 14.9089L13.1505 14.9652ZM12.7942 14.7495L12.7895 14.8245L12.6723 14.8199L12.6817 14.7448H12.7942M13.1083 15.0777L12.827 15.1668L12.7708 15.0918L13.0146 15.0215L12.9911 14.9886L12.9583 14.9652L12.9396 15.0027L12.9021 15.0261H12.8364C12.8145 15.0261 12.7989 15.0168 12.7895 14.998C12.7739 14.9744 12.7657 14.9466 12.7661 14.9183C12.7661 14.8808 12.7755 14.8574 12.7942 14.848C12.8224 14.8386 12.8614 14.8464 12.9114 14.8714C12.9555 14.8938 12.994 14.9259 13.024 14.9652L13.1083 15.0777ZM12.888 14.9277L12.8599 14.9183H12.8364L12.8177 14.9324V14.9511L12.8364 14.9605H12.8599L12.8739 14.9464L12.888 14.9277ZM12.5879 14.8714L12.5692 14.9464L12.452 14.9324L12.4707 14.8621L12.5879 14.8714ZM12.8692 15.1527L12.8036 15.1715H12.738L12.6817 15.1574C12.6723 15.1762 12.6551 15.1918 12.6301 15.2043L12.5692 15.2231L12.5223 15.2371L12.4848 15.1621L12.5317 15.1527L12.5786 15.1387L12.6067 15.1199L12.5739 15.1012L12.5457 15.0965H12.5364V15.1105H12.5129C12.4942 15.0793 12.4895 15.0543 12.4989 15.0355C12.5114 15.0168 12.5364 15.0027 12.5739 14.9933C12.6114 14.984 12.6442 14.984 12.6723 14.9933C12.7005 14.9933 12.7192 15.0027 12.7286 15.0215C12.7348 15.0308 12.7364 15.0402 12.7333 15.0496L12.7192 15.0965H12.7661L12.827 15.0824L12.8692 15.1527ZM12.5692 15.2231L12.5082 15.2324C12.477 15.2356 12.4488 15.2293 12.4238 15.2137C12.3945 15.1894 12.3732 15.1566 12.3629 15.1199L12.3348 15.0402L12.3066 14.9933L12.2691 14.9793L12.2926 14.8996L12.3441 14.9418L12.3816 15.0027L12.4004 15.059L12.4473 15.1387C12.4567 15.1512 12.4676 15.1559 12.4801 15.1527L12.5411 15.1434L12.5692 15.2231ZM12.3113 14.9418L12.2691 15.0121L12.1613 14.984L12.1988 14.9136L12.3113 14.9418ZM12.377 15.2559L12.0957 15.2793L12.0816 15.2043L12.316 15.1809L12.2879 15.148L12.2504 15.1246L12.2738 15.0543C12.2988 15.0668 12.3176 15.0824 12.3301 15.1012C12.3426 15.1199 12.352 15.1465 12.3582 15.1809L12.377 15.2559ZM12.1519 15.2934L12.0675 15.284L12.0066 15.2653L11.9597 15.2793H11.819C11.7972 15.2793 11.7815 15.2762 11.7722 15.2699L11.744 15.2324L11.6831 15.2653L11.6221 15.2746H11.5565L11.5659 15.1902L11.6268 15.1949C11.6581 15.1949 11.6846 15.1902 11.7065 15.1809C11.7378 15.1652 11.7534 15.1434 11.7534 15.1152H11.7815L11.7768 15.1621C11.7768 15.1746 11.7815 15.184 11.7909 15.1902L11.8237 15.1996H11.9597C11.9784 15.1902 11.9894 15.1746 11.9925 15.1527L11.9972 15.1387L12.016 15.1293L12.0347 15.1246V15.1527L12.0206 15.1902L12.1003 15.209L12.091 15.1856L12.0816 15.1621L12.0863 15.1527L12.1003 15.1434L12.1379 15.1105L12.1519 15.1434V15.1809L12.1472 15.2934M11.7253 14.9652L11.655 15.0121L11.6034 14.984L11.5518 15.0215L11.4815 14.9793L11.5471 14.9324L11.6034 14.9652L11.655 14.923L11.7253 14.9652ZM11.6128 15.2653L11.3408 15.2184L11.3737 15.1434L11.5987 15.1809V15.1434L11.5752 15.1152L11.6362 15.0543C11.6518 15.073 11.6596 15.0918 11.6596 15.1105C11.6628 15.1293 11.6565 15.1559 11.6409 15.1902L11.6128 15.2653ZM11.383 15.2277L11.3268 15.2137C11.2955 15.2106 11.2768 15.1965 11.2705 15.1715C11.2643 15.1496 11.2752 15.1152 11.3033 15.0683L11.3502 14.9886L11.3596 14.9464L11.3455 14.9183L11.4299 14.8621L11.4393 14.9136C11.4393 14.9324 11.4299 14.9543 11.4112 14.9793L11.383 15.0355C11.366 15.0592 11.3548 15.0865 11.3502 15.1152C11.3502 15.1309 11.3565 15.1387 11.369 15.1387L11.4252 15.1527L11.383 15.2277ZM11.2424 14.9324L11.1486 14.9746L11.083 14.9089L11.1767 14.8714L11.2424 14.9324ZM11.2002 15.1809L11.1439 15.2324C11.1252 15.2449 11.1033 15.2528 11.0783 15.2559H10.9892L10.8861 15.2277C10.838 15.2144 10.7943 15.1885 10.7595 15.1527C10.7345 15.1246 10.7345 15.0965 10.7595 15.0683L10.8298 15.0074L10.9705 14.9511L10.9892 14.9699C10.9392 14.9886 10.9048 15.0043 10.8861 15.0168L10.8392 15.0496C10.8236 15.0683 10.8251 15.0887 10.8439 15.1105C10.9101 15.1646 10.9928 15.1943 11.0783 15.1949C11.1252 15.1949 11.1549 15.1856 11.1674 15.1668L11.1861 15.134L11.1908 15.0683L11.2846 15.0121L11.2799 15.0683C11.2736 15.0871 11.2611 15.1074 11.2424 15.1293L11.2002 15.1809Z" fill="#BF0000"/>
</g>
<defs>
<clipPath id="clip0_720_53486">
<rect width="24.0044" height="24.0044" fill="white"/>
</clipPath>
</defs>
</svg>
