<svg width="24" height="24" viewBox="0 0 24 24" fill="none" xmlns="http://www.w3.org/2000/svg">
<g clip-path="url(#clip0_720_53526)">
<path d="M0.00488281 -2.28882e-05H24.0093V24.0043H0.00488281V-2.28882e-05Z" fill="#FF0000"/>
<path d="M9.61131 4.66489C9.37689 4.66489 8.99245 4.7399 9.00182 4.91806C8.34546 4.81023 8.27982 5.07746 8.31733 5.31657C8.38921 5.2228 8.45485 5.17123 8.51424 5.16185C8.60175 5.14935 8.69239 5.17279 8.78616 5.23218C8.8739 5.2892 8.95286 5.35869 9.02058 5.43846C8.79554 5.49004 8.61738 5.45722 8.43922 5.4244C8.33749 5.40327 8.24053 5.36353 8.15323 5.30719C8.07822 5.25562 8.05478 5.20874 7.93757 5.08684C7.80161 4.94619 7.65627 4.98838 7.70315 5.20405C7.80629 5.40565 7.98445 5.49941 8.2048 5.53223C8.30795 5.55099 8.46735 5.58849 8.64551 5.58849C8.82367 5.58849 9.02527 5.56505 9.13779 5.58849C9.07215 5.626 8.99714 5.70101 8.84711 5.72914C8.69708 5.75727 8.47204 5.63538 8.33139 5.60725C8.35014 5.72445 8.49548 5.83229 8.78616 5.88855C9.26437 5.99169 9.66288 6.07608 9.92543 6.21673C10.188 6.35738 10.3521 6.53554 10.4693 6.67619C10.7037 6.95749 10.7178 7.16847 10.7318 7.21535C10.7787 7.66074 10.6287 7.90923 10.338 7.98424C10.1974 8.02175 9.9395 7.95142 9.84573 7.84359C9.75196 7.73107 9.65819 7.54354 9.68632 7.24817C9.70977 7.13096 9.84573 6.82622 9.73321 6.76527C9.21244 6.48053 8.67371 6.22995 8.12042 6.01513C7.99383 5.96356 7.886 6.13234 7.84849 6.20267C7.48043 6.149 7.12872 6.01489 6.81836 5.80988C6.50801 5.60487 6.24664 5.33399 6.05285 5.01651C5.83719 4.63676 5.48556 5.01651 5.54182 5.37752C5.64028 5.78071 5.94502 6.07139 6.3154 6.27768C6.69047 6.48866 7.16399 6.69025 7.6422 6.68088C7.90006 6.72776 7.90006 7.06532 7.59063 7.12627C6.98115 7.12627 6.50293 7.11689 6.04816 6.67619C5.70122 6.36207 5.509 6.73714 5.60746 6.94811C5.77624 7.60448 6.71391 7.79202 7.66096 7.57635C8.02665 7.51541 7.80629 7.90454 7.70315 7.91392C7.30933 8.19522 6.60139 8.47652 5.97784 7.90923C5.69185 7.68887 5.49963 7.87641 5.60277 8.19053C5.88407 9.01099 6.93895 8.83752 7.66564 8.43432C7.85318 8.33118 8.02196 8.57497 7.79223 8.75782C6.89207 9.38606 6.4373 9.39543 6.02941 9.15164C5.52307 8.95004 5.47618 9.51733 5.78093 9.70487C6.11849 9.91115 6.97177 9.75175 7.6047 9.35793C7.87193 9.16102 7.886 9.47045 7.71253 9.59235C6.96708 10.2393 6.67171 10.4128 5.89345 10.305C5.509 10.2768 5.51838 10.7504 5.81843 10.9379C6.23101 11.1911 7.04209 10.7691 7.67033 10.2487C7.93288 10.1081 7.97976 10.3425 7.84849 10.6144C7.57189 11.0072 7.19452 11.3182 6.7561 11.5146C6.4643 11.6308 6.14126 11.6424 5.84188 11.5474C5.5512 11.4442 5.51369 11.7443 5.67309 12.0162C5.76686 12.1803 6.17006 12.2366 6.5967 12.0819C7.02803 11.9318 7.48749 11.5755 7.80161 11.1536C8.08291 10.9145 8.0454 11.238 7.91882 11.4677C7.28589 12.4663 6.70453 12.8367 5.94502 12.7757C5.60277 12.7195 5.52776 12.982 5.74342 13.2258C6.11849 13.5399 6.5967 13.5259 7.00927 13.2164C7.50572 12.7215 7.98727 12.2118 8.45329 11.688C8.71115 11.4818 8.79554 11.688 8.72052 12.11C8.6502 12.3491 8.47673 12.6023 8.00321 12.7898C7.67502 12.9773 7.91882 13.2305 8.16261 13.2352C8.29857 13.2352 8.5705 13.0805 8.7721 12.8461C9.04871 12.5413 9.06277 12.3303 9.21749 11.8568C9.35814 11.6224 9.61131 11.7302 9.61131 11.974C9.48941 12.4522 9.38627 12.5366 9.14248 12.7335C8.90337 12.9539 9.30188 13.0289 9.43784 12.9398C9.82698 12.6773 9.96763 12.3397 10.0989 12.0303C10.1927 11.8052 10.4646 11.9131 10.338 12.2788C10.038 13.1461 9.54099 13.4884 8.67364 13.6665C8.58456 13.6806 8.53299 13.7322 8.56112 13.8353L8.91275 14.1869C8.37359 14.3416 7.93757 14.4307 7.4031 14.5854L6.66234 14.0932C6.59201 13.9338 6.55919 13.6853 6.17475 13.8587C5.90751 13.7368 5.7903 13.7837 5.64028 13.9056C5.85125 13.9103 5.94502 13.9666 6.02941 14.065C6.13724 14.3463 6.38572 14.3745 6.6389 14.2995C6.80299 14.4354 6.89207 14.5432 7.06085 14.6839L6.22632 14.6558C5.93095 14.3416 5.69654 14.3604 5.48556 14.6089C5.32147 14.6323 5.25114 14.6323 5.14331 14.8292C5.31678 14.7589 5.42461 14.7355 5.50431 14.8152C5.81375 14.998 6.02003 14.9558 6.17475 14.8152L7.05147 14.8667C6.94364 14.9605 6.78892 15.0121 6.6764 15.1105C6.22163 14.9793 5.98721 15.1574 5.90751 15.5231C5.84135 15.6699 5.81857 15.8326 5.84188 15.9919C5.88876 15.8419 5.95908 15.7153 6.09036 15.6356C6.49356 15.7388 6.64358 15.5747 6.66703 15.3309C6.86394 15.1715 7.1593 15.1387 7.35152 14.9746C7.58125 15.0496 7.68909 15.0965 7.91882 15.1668C7.99695 15.4168 8.18449 15.5106 8.48142 15.4481C8.84242 15.4622 8.77678 15.6075 8.8096 15.7247C8.90337 15.5559 8.90337 15.3965 8.67833 15.2418C8.59863 15.0261 8.42047 14.9277 8.19074 15.0543C7.97039 14.9933 7.91413 14.9042 7.69846 14.8386C8.247 14.6651 8.63613 14.6276 9.18936 14.4495C9.33001 14.5808 9.43315 14.6745 9.5738 14.787C9.65194 14.837 9.71446 14.837 9.76134 14.787C10.1036 14.2901 10.2583 13.8494 10.5771 13.5212C10.699 13.3852 10.8584 13.2024 11.0272 13.1555C11.1116 13.1367 11.2147 13.1461 11.2851 13.2211C11.3507 13.2961 11.407 13.4274 11.3788 13.629C11.3507 13.9197 11.2851 14.0135 11.2007 14.1822C11.1163 14.351 11.0178 14.4635 10.9194 14.5948C10.7131 14.8621 10.4458 15.0168 10.2864 15.1199C9.96763 15.3262 9.83166 15.2371 9.58318 15.2231C9.26906 15.2606 9.18467 15.4153 9.44253 15.6309C9.6382 15.7387 9.8647 15.7767 10.0848 15.7388C10.2396 15.7106 10.413 15.5137 10.5443 15.4106C10.6849 15.2418 10.924 15.4387 10.7646 15.6309C10.4693 15.9826 10.1739 16.2123 9.81291 16.2076C9.42847 16.2545 9.49879 16.4748 9.75196 16.578C10.2114 16.7655 10.624 16.4139 10.8303 16.1795C10.9944 16.006 11.1116 15.9966 11.0788 16.2732C10.9194 16.7655 10.699 16.9577 10.3427 16.9812C10.052 16.9577 10.0473 17.1781 10.263 17.3328C10.7459 17.661 11.0928 17.0984 11.2569 16.7515C11.3741 16.442 11.5523 16.5874 11.571 16.8452C11.571 17.1875 11.421 17.4641 11.0084 17.8157C11.3226 18.3174 11.6883 18.8331 12.0071 19.3394L12.9682 8.64061L12.0071 6.9528C11.9086 6.85904 11.571 6.46053 11.482 6.40427C11.4491 6.37145 11.4304 6.34801 11.4773 6.32925C11.5242 6.3105 11.6273 6.29174 11.7023 6.28237C11.496 6.07608 11.3272 6.01044 10.9381 5.89792C11.0319 5.86042 11.1256 5.88386 11.4023 5.86979C11.2316 5.63643 10.9972 5.45734 10.7271 5.35407C10.9381 5.21342 10.9756 5.19936 11.1866 5.02589C10.8256 4.99776 10.5162 4.93212 10.2114 4.83836C10.0222 4.7482 9.81947 4.6896 9.61131 4.66489ZM9.64413 5.08684C9.83166 5.08684 9.95356 5.15248 9.95356 5.22749C9.95356 5.3025 9.83635 5.37283 9.64413 5.37283C9.45191 5.37283 9.3347 5.3025 9.3347 5.2228C9.3347 5.1431 9.4566 5.08215 9.64413 5.08215V5.08684Z" fill="#000001"/>
<path d="M14.4028 4.66489C14.6373 4.66489 15.0217 4.7399 15.0123 4.91806C15.6687 4.81023 15.7343 5.07746 15.6968 5.31657C15.6249 5.2228 15.5593 5.17123 15.4999 5.16185C15.4124 5.14935 15.3218 5.17279 15.228 5.23218C15.1403 5.2892 15.0613 5.35869 14.9936 5.43846C15.2186 5.49004 15.3968 5.45722 15.5749 5.4244C15.6767 5.40327 15.7736 5.36353 15.8609 5.30719C15.9359 5.25562 15.9594 5.20874 16.0766 5.08684C16.2126 4.94619 16.3579 4.98838 16.311 5.20405C16.2079 5.40565 16.0297 5.49941 15.8094 5.53223C15.7062 5.55099 15.5468 5.58849 15.3686 5.58849C15.1905 5.58849 14.9889 5.56505 14.8764 5.58849C14.942 5.626 15.017 5.70101 15.1671 5.72914C15.3171 5.75727 15.5421 5.63538 15.6828 5.60725C15.664 5.72445 15.5187 5.83229 15.228 5.88855C14.7498 5.99169 14.3513 6.07608 14.0887 6.21673C13.8262 6.35738 13.6621 6.53554 13.5449 6.67619C13.3105 6.95749 13.2964 7.16847 13.2823 7.21535C13.2354 7.66074 13.3855 7.90923 13.6762 7.98424C13.8168 8.02175 14.0747 7.95142 14.1684 7.84359C14.2622 7.73107 14.356 7.54354 14.3278 7.24817C14.3044 7.13096 14.1684 6.82622 14.281 6.76527C14.8017 6.48053 15.3405 6.22995 15.8937 6.01513C16.0203 5.96356 16.1282 6.13234 16.1657 6.20267C16.5337 6.149 16.8854 6.01489 17.1958 5.80988C17.5061 5.60487 17.7675 5.33399 17.9613 5.01651C18.177 4.63676 18.5286 5.01651 18.4723 5.37752C18.3739 5.78071 18.0691 6.07139 17.6988 6.27768C17.3237 6.48866 16.8502 6.69025 16.372 6.68088C16.1141 6.72776 16.1141 7.06532 16.4235 7.12627C17.033 7.12627 17.5112 7.11689 17.966 6.67619C18.3129 6.36207 18.5052 6.73714 18.4067 6.94811C18.2379 7.60448 17.3003 7.79202 16.3532 7.57635C15.9875 7.51541 16.2079 7.90454 16.311 7.91392C16.7048 8.19522 17.4128 8.47652 18.0363 7.90923C18.3223 7.68887 18.5145 7.87641 18.4114 8.19053C18.1301 9.01099 17.0752 8.83752 16.3485 8.43432C16.161 8.33118 15.9922 8.57497 16.2219 8.75782C17.1221 9.38606 17.5769 9.39543 17.9848 9.15164C18.4911 8.95004 18.538 9.51733 18.2332 9.70487C17.8957 9.91115 17.0424 9.75175 16.4095 9.35793C16.1422 9.16102 16.1282 9.47045 16.3016 9.59235C17.0471 10.2393 17.3424 10.4128 18.1207 10.305C18.5052 10.2768 18.4958 10.7504 18.1957 10.9379C17.7832 11.1911 16.9721 10.7691 16.3438 10.2487C16.0813 10.1081 16.0344 10.3425 16.1657 10.6144C16.4423 11.0072 16.8196 11.3182 17.2581 11.5146C17.5499 11.6308 17.8729 11.6424 18.1723 11.5474C18.463 11.4442 18.5005 11.7443 18.3411 12.0162C18.2473 12.1803 17.8441 12.2366 17.4175 12.0819C16.9861 11.9318 16.5267 11.5755 16.2126 11.1536C15.9313 10.9145 15.9688 11.238 16.0953 11.4677C16.7283 12.4663 17.3096 12.8367 18.0691 12.7757C18.4114 12.7195 18.4864 12.982 18.2707 13.2258C17.8957 13.5399 17.4175 13.5259 17.0049 13.2164C16.5084 12.7215 16.0269 12.2118 15.5609 11.688C15.303 11.4818 15.2186 11.688 15.2936 12.11C15.364 12.3491 15.5374 12.6023 16.011 12.7898C16.3391 12.9773 16.0953 13.2305 15.8516 13.2352C15.7156 13.2352 15.4437 13.0805 15.2421 12.8461C14.9655 12.5413 14.9514 12.3303 14.7967 11.8568C14.656 11.6224 14.4028 11.7302 14.4028 11.974C14.5247 12.4522 14.6279 12.5366 14.8717 12.7335C15.1108 12.9539 14.7123 13.0289 14.5763 12.9398C14.1872 12.6773 14.0465 12.3397 13.9153 12.0303C13.8215 11.8052 13.5496 11.9131 13.6762 12.2788C13.9762 13.1461 14.4732 13.4884 15.3405 13.6665C15.4296 13.6806 15.4812 13.7322 15.453 13.8353L15.1014 14.1869C15.6406 14.3416 16.0766 14.4307 16.6111 14.5854L17.3518 14.0932C17.4221 13.9338 17.455 13.6853 17.8394 13.8587C18.1066 13.7368 18.2239 13.7837 18.3739 13.9056C18.1629 13.9103 18.0691 13.9666 17.9848 14.065C17.8769 14.3463 17.6284 14.3745 17.3753 14.2995C17.2112 14.4354 17.1221 14.5432 16.9533 14.6839L17.7878 14.6558C18.0832 14.3416 18.3176 14.3604 18.5286 14.6089C18.6927 14.6323 18.763 14.6323 18.8708 14.8292C18.6974 14.7589 18.5895 14.7355 18.5098 14.8152C18.2004 14.998 17.9941 14.9558 17.8394 14.8152L16.9627 14.8667C17.0705 14.9605 17.2252 15.0121 17.3378 15.1105C17.7925 14.9793 18.0269 15.1574 18.1066 15.5231C18.1728 15.6699 18.1956 15.8326 18.1723 15.9919C18.1254 15.8419 18.0551 15.7153 17.9238 15.6356C17.5206 15.7388 17.3706 15.5747 17.3471 15.3309C17.1502 15.1715 16.8549 15.1387 16.6626 14.9746C16.4329 15.0496 16.3251 15.0965 16.0953 15.1668C16.0172 15.4168 15.8297 15.5106 15.5327 15.4481C15.1717 15.4622 15.2374 15.6075 15.2046 15.7247C15.1108 15.5559 15.1108 15.3965 15.3358 15.2418C15.4155 15.0261 15.5937 14.9277 15.8234 15.0543C16.0438 14.9933 16.1 14.9042 16.3157 14.8386C15.7672 14.6651 15.378 14.6276 14.8248 14.4495C14.6842 14.5808 14.581 14.6745 14.4404 14.787C14.3622 14.837 14.2997 14.837 14.2528 14.787C13.9106 14.2901 13.7559 13.8494 13.437 13.5212C13.3152 13.3852 13.1557 13.2024 12.987 13.1555C12.9026 13.1367 12.7994 13.1461 12.7291 13.2211C12.6635 13.2961 12.6072 13.4274 12.6353 13.629C12.6635 13.9197 12.7291 14.0135 12.8135 14.1822C12.8979 14.351 12.9963 14.4635 13.0948 14.5948C13.3011 14.8621 13.5683 15.0168 13.7277 15.1199C14.0465 15.3262 14.1825 15.2371 14.431 15.2231C14.7451 15.2606 14.8295 15.4153 14.5716 15.6309C14.376 15.7387 14.1495 15.7767 13.9293 15.7388C13.7746 15.7106 13.6011 15.5137 13.4699 15.4106C13.3292 15.2418 13.0901 15.4387 13.2495 15.6309C13.5449 15.9826 13.8402 16.2123 14.2013 16.2076C14.5857 16.2545 14.5154 16.4748 14.2622 16.578C13.8027 16.7655 13.3902 16.4139 13.1839 16.1795C13.0198 16.006 12.9026 15.9966 12.9354 16.2732C13.0948 16.7655 13.3152 16.9577 13.6715 16.9812C13.9621 16.9577 13.9668 17.1781 13.7512 17.3328C13.2683 17.661 12.9213 17.0984 12.7572 16.7515C12.64 16.442 12.4619 16.5874 12.4431 16.8452C12.4431 17.1875 12.5931 17.4641 13.0057 17.8157C12.6916 18.3174 12.3259 18.8331 12.0071 19.3394L11.046 8.64061L12.0071 6.9528C12.1056 6.85904 12.4431 6.46053 12.5322 6.40427C12.565 6.37145 12.5838 6.34801 12.5369 6.32925C12.49 6.3105 12.3869 6.29174 12.3118 6.28237C12.5181 6.07608 12.6869 6.01044 13.076 5.89792C12.9823 5.86042 12.8885 5.88386 12.6119 5.86979C12.7825 5.63643 13.017 5.45734 13.287 5.35407C13.076 5.21342 13.0385 5.19936 12.8276 5.02589C13.1886 4.99776 13.498 4.93212 13.8027 4.83836C13.992 4.7482 14.1947 4.6896 14.4028 4.66489ZM14.37 5.08684C14.1825 5.08684 14.0606 5.15248 14.0606 5.22749C14.0606 5.3025 14.1778 5.37283 14.37 5.37283C14.5623 5.37283 14.6795 5.3025 14.6795 5.2228C14.6795 5.1431 14.5576 5.08215 14.37 5.08215V5.08684Z" fill="#000001"/>
</g>
<defs>
<clipPath id="clip0_720_53526">
<rect width="24.0044" height="24.0044" fill="white" transform="translate(0.00439453)"/>
</clipPath>
</defs>
</svg>
