<svg width="25" height="24" viewBox="0 0 25 24" fill="none" xmlns="http://www.w3.org/2000/svg">
<g clip-path="url(#clip0_720_53484)">
<path d="M0.0131836 -2.28882e-05H24.0176V24.0043H0.0131836V-2.28882e-05Z" fill="#000066"/>
<path d="M0.0131836 12.0022L24.0176 -2.28882e-05V24.0043L0.0131836 12.0022Z" fill="#BD1021"/>
<path d="M1.9541 12.0022L23.9894 1.28458V22.7197" fill="white"/>
<path d="M15.7146 13.5259C15.9678 13.5399 15.9584 13.7931 15.9584 13.7931L16.8633 13.8166C16.9805 13.4977 17.0977 13.5353 17.318 13.6947C17.4521 13.7862 17.5991 13.8573 17.7541 13.9056C17.8478 13.4556 18.4854 13.5446 18.4854 13.5446C18.7574 12.8929 18.7808 12.9023 18.6167 12.8179C18.5188 12.7705 18.4384 12.6934 18.387 12.5976C18.2498 12.4153 18.1626 12.2003 18.1338 11.974C18.1151 11.8099 17.9228 12.0537 17.89 12.0068C17.8572 11.9506 17.5712 11.9834 17.5712 11.9834C17.6415 12.0584 17.4024 12.0115 17.4024 12.0115C17.4259 12.035 17.4024 12.1053 17.4024 12.1053C17.379 12.0725 17.1961 12.0397 17.1961 12.0397L17.1399 12.1194C17.0414 12.0819 16.8445 12.0866 16.8445 12.0866C16.6518 12.0787 16.4611 12.1276 16.296 12.2272C16.2163 12.2741 15.9209 12.4147 15.6865 12.6492C15.4521 12.8836 15.3114 12.8508 15.3114 12.8508C15.2411 13.1133 14.6738 13.4274 14.6738 13.4274C14.58 13.5071 14.294 13.5446 14.1487 13.4274C14.0034 13.3055 14.1487 13.0805 14.1487 13.0805C14.205 12.9867 14.2565 12.9867 14.2612 12.6351C14.2659 12.4007 14.5097 12.2038 14.7629 11.9318C15.0723 11.5896 15.5083 11.027 15.5083 11.027C15.5083 11.2005 15.6021 11.2286 15.6021 11.2286C15.6865 11.0551 15.8084 10.9145 15.8084 10.9145L15.8365 10.9379C15.9365 10.8129 15.9881 10.7519 15.9912 10.7551C15.9584 10.741 15.6865 10.7551 15.438 10.9754C15.1895 11.1958 15.0161 11.1207 15.0161 11.1207C14.8426 11.0645 14.8285 10.9332 14.8285 10.9332C14.6972 10.38 15.1989 9.99554 15.1989 9.99554C14.5285 9.83145 15.0114 8.97817 15.8459 8.61248C16.6757 8.25148 16.6664 8.08739 16.6664 8.08739C16.7046 8.13438 16.7362 8.18645 16.7601 8.2421C16.7601 8.23741 16.8258 8.14833 17.3087 7.93267C17.5574 7.82694 17.7934 7.69324 18.0119 7.53416C18.0776 7.65606 18.0682 7.74045 18.0682 7.74045C19.3809 7.28099 20.6702 6.22142 20.6702 6.22142C20.7077 6.3105 20.689 6.44646 20.689 6.44646C20.9046 6.24486 21.6735 5.79009 21.6735 5.79009C21.6876 6.08077 21.4485 6.19329 21.4485 6.19329C21.4673 6.23003 21.48 6.26963 21.486 6.3105C21.7305 6.15691 21.9712 5.99746 22.208 5.83229C22.4237 6.01982 22.2314 6.31988 22.2314 6.31988C22.3064 6.3105 22.358 6.24486 22.358 6.24486C22.419 6.56367 22.0626 6.84497 22.0626 6.84497C22.1226 6.83427 22.18 6.81198 22.2314 6.77934C22.1611 7.12627 21.5047 7.51072 21.5047 7.51072C21.5985 7.59511 21.5094 7.70763 21.4297 7.76389C21.35 7.81077 21.2141 7.92329 21.2563 7.97018C21.2984 8.01706 21.5891 7.80608 21.5891 7.80608C21.636 7.95142 21.2656 8.2421 21.2656 8.2421C21.5282 8.27492 22.2502 7.94673 22.2502 7.94673C22.1892 8.22804 21.922 8.4437 21.5798 8.57029C21.2469 8.69687 21.2656 8.71562 21.2656 8.71562C21.3219 8.76251 21.7813 8.62655 21.7813 8.62655C21.6454 8.93598 21.1625 9.15164 21.1625 9.15164C21.2938 9.26885 21.4766 9.13289 21.6595 9.01099C21.8784 8.87229 22.1149 8.76349 22.3627 8.68749C22.6299 8.59373 22.8222 8.66405 22.8222 8.66405C23.0566 8.59373 23.2441 8.69687 23.2441 8.69687C23.6754 8.72969 23.7223 8.88441 23.7223 8.88441C23.7692 8.89847 23.8067 8.91722 23.9192 9.00161C24.0318 9.08132 24.0224 9.33449 24.0177 9.46107C24.0177 9.58297 23.9802 9.58297 23.9567 9.61579C23.938 9.6533 23.9302 9.69393 23.9333 9.73769C23.938 9.80332 23.8208 10.0846 23.1503 10.0846H22.1283C22.072 10.0846 22.0064 10.1174 22.0064 10.1174C21.7251 10.2581 21.8751 10.0237 21.5376 10.2956C21.2 10.5769 21.0265 10.53 21.0265 10.53C20.8394 10.7229 20.6355 10.8986 20.417 11.0551C20.2154 11.1864 20.2483 11.1723 20.4264 11.2473C20.6046 11.3223 20.8671 11.2473 20.8671 11.2473C20.6983 11.3645 20.8202 11.4161 20.8202 11.4161C21.0359 11.2755 21.1766 11.327 21.1766 11.327C21.2469 11.5239 20.989 11.8334 20.989 11.8334C21.0875 11.8428 21.275 11.8334 21.275 11.8334C21.2281 11.9647 21.0453 12.11 20.9093 12.1522C20.7687 12.1991 20.7921 12.2178 20.8343 12.2928C20.8718 12.3819 20.8437 12.4663 20.8437 12.4663C20.5999 12.3022 20.5952 12.4476 20.5952 12.4476C20.5671 12.6398 20.5718 12.9258 20.5718 12.9258C20.403 12.8414 20.3936 12.9539 20.3936 12.9539C20.3373 13.0971 20.2509 13.2266 20.1404 13.3337C20.1357 13.2258 20.0326 13.193 20.0326 13.193C19.9248 13.404 19.7232 13.5306 19.7232 13.5306C19.6997 13.7087 19.7513 13.9572 19.7513 13.9572C19.62 13.9338 19.5731 13.9338 19.5544 13.9619C19.5356 13.99 19.5825 14.0088 19.5825 14.0088L21.2516 14.051C21.275 14.051 21.3735 14.065 21.3735 14.2385C21.3782 14.426 21.2328 14.4354 21.2328 14.4354L19.4044 14.3885C19.4044 14.3885 19.4137 14.4401 19.32 14.4917C19.2262 14.5432 19.259 14.4354 19.2262 14.6605C19.2028 14.8808 18.8418 14.6417 18.8418 14.6417C18.7808 14.7308 18.6402 14.8433 18.6402 14.8433C18.5558 14.5948 18.4714 14.5151 18.3401 14.7308C18.2135 14.9464 18.5792 14.9089 18.5792 14.9089L20.839 14.5808C20.9562 14.5714 21.0781 14.5808 21.1344 14.7402C21.1812 14.9043 20.8718 14.9277 20.8718 14.9277L18.673 15.1715C18.6261 15.2981 18.4432 15.2934 18.4432 15.2934C18.462 15.4153 18.3307 15.495 18.2651 15.5372C18.1948 15.5841 17.9838 15.5653 17.9838 15.5653C17.7306 15.7388 17.6087 15.6028 17.6087 15.6028C17.4399 15.6731 17.3368 15.6403 17.2008 15.5841C17.0602 15.5231 17.0742 15.359 17.0742 15.359L15.6865 15.4997C15.6463 15.5158 15.6096 15.5397 15.5787 15.57C15.6255 15.6309 15.4755 15.7763 15.4755 15.7763C15.5224 15.8044 15.5974 15.8841 15.6115 16.0576C15.6209 16.2451 15.3864 16.2732 15.5036 16.4045C15.6162 16.5311 15.8365 16.4233 16.0803 16.3108C16.3147 16.1935 16.5491 16.2076 16.6523 16.2076C16.7554 16.2076 17.0414 16.2826 17.2196 16.3483C17.3977 16.4045 17.4587 16.367 17.4728 16.2779C17.4821 16.1842 17.5665 16.1607 17.5665 16.1607C17.5431 16.2498 17.59 16.292 17.59 16.292C17.6603 16.292 17.7775 16.2264 17.7775 16.2264C17.7681 16.2967 17.679 16.3389 17.679 16.3389C17.5056 16.4514 17.7447 16.4092 17.7447 16.4092C17.9966 16.3413 18.258 16.316 18.5183 16.3342C18.761 16.4069 18.999 16.4946 19.2309 16.5967C19.2496 16.5358 19.2403 16.3905 19.2403 16.3905C19.3205 16.4129 19.3923 16.4586 19.4465 16.5217C19.5075 16.4608 19.47 16.353 19.47 16.353C19.9482 16.6249 19.3668 16.7468 19.2121 16.803C19.0574 16.8499 19.0574 16.9156 19.0574 16.9156C19.1887 16.878 19.2778 16.8593 19.3856 16.8499C19.4934 16.8405 19.4512 16.8499 19.7091 16.803C19.967 16.7468 20.0982 16.8593 20.0982 16.8593C19.8826 16.8687 19.8169 16.9343 19.8169 16.9343C19.9576 17.0234 19.8263 17.1031 19.8263 17.1031C19.6341 16.8593 19.4653 17.1125 19.4653 17.1125C19.5751 17.1107 19.6839 17.1332 19.7841 17.1781C19.831 17.2094 19.9201 17.2562 20.0513 17.3188C20.2295 17.3938 20.192 17.3469 20.3326 17.3938C20.4733 17.45 20.417 17.5813 20.417 17.5813C20.3757 17.5094 20.3087 17.4558 20.2295 17.4313C20.2201 17.5766 20.0748 17.6047 20.0748 17.6047C20.2576 17.4078 19.8685 17.3188 19.6857 17.3234C19.5075 17.3234 19.3715 17.4406 19.3715 17.4406C19.7372 17.7876 19.9904 17.6751 19.9904 17.6751C19.9435 17.797 19.6435 17.7454 19.6435 17.7454C19.7841 17.8532 19.7654 17.9282 19.7654 17.9282C19.6903 17.8532 19.5731 17.8907 19.3059 17.722C19.048 17.5532 18.8136 17.6094 18.8136 17.6094C19.0715 17.8767 18.7199 18.0408 18.7199 18.0408C18.5886 18.1205 18.7761 18.2142 18.7761 18.2142C18.612 18.247 18.5886 18.083 18.5886 18.083C18.5042 18.0642 18.3823 18.1673 18.3823 18.1673C18.3917 18.0033 18.612 18.0876 18.6167 17.9142C18.6214 17.7407 18.4151 17.6047 17.7962 17.6891C17.1774 17.7782 16.9992 17.5766 16.9992 17.5766C16.943 17.5766 16.9383 17.6329 16.9383 17.6329C17.032 17.7313 17.0789 17.7735 17.0649 17.8392C17.0461 17.9095 17.0977 17.9329 17.0977 17.9329C16.9805 17.9236 16.9758 17.7923 16.9758 17.7923C16.9758 17.8485 16.9523 17.8485 16.9148 17.9095C16.8773 17.9704 16.9148 18.0408 16.9148 18.0408C16.8633 17.9986 16.7742 17.947 16.8586 17.8298C16.9195 17.736 16.7273 17.6188 16.7273 17.6188C16.6476 17.5391 16.446 17.6141 16.446 17.6141C16.0241 17.6938 15.7803 17.4266 15.7803 17.4266C15.7334 17.4266 15.6396 17.4031 15.6396 17.4031C15.1942 17.6001 14.8004 17.1687 14.8004 17.1687C14.4675 17.2344 14.3128 17.075 14.2143 16.9109C14.1574 16.7997 14.065 16.7106 13.9518 16.6577C13.8205 16.5827 13.6939 16.3483 13.8205 16.2264C13.9237 16.1185 13.8955 16.0951 13.8955 16.0951C13.7174 15.7997 14.2003 15.7106 14.2143 15.6356C14.2237 15.5372 14.3269 15.4715 14.4347 15.4622C14.5472 15.4575 14.5472 15.4622 14.6222 15.3965C14.6879 15.3168 14.8238 15.4106 14.8238 15.4106C14.8567 15.3918 15.0958 15.2043 15.3067 15.2981C15.5177 15.3918 15.7006 15.3309 15.7006 15.3309C15.8506 15.2981 17.1024 15.1293 17.1024 15.1293C17.1774 15.0027 17.243 14.8574 17.5853 14.7824C17.9275 14.7073 18.1854 14.4823 18.1854 14.4823C18.1244 14.4167 18.0213 14.4214 17.9697 14.4167C17.9181 14.412 17.8103 14.3135 17.8103 14.3135C17.7447 14.3463 17.7165 14.3323 17.2618 14.6089C16.8539 14.8527 16.8398 14.3651 16.8398 14.3651H15.9631C15.949 14.5526 15.8084 14.6276 15.8084 14.6276L15.4802 14.6417C15.3067 14.5479 15.3067 14.2291 15.3067 14.2291C14.7808 14.2171 14.2607 14.3415 13.7971 14.5901C12.7 14.0322 11.842 13.9009 11.842 13.9009C13.1735 13.7603 13.8815 13.3852 13.8815 13.3852C14.3138 13.6477 14.8023 13.8036 15.3067 13.84C15.3302 13.5728 15.513 13.5071 15.513 13.5071L15.7146 13.5259Z" fill="black"/>
<path d="M14.1253 15.7388C13.8486 15.8982 13.9002 15.9873 13.9237 16.0388C13.9471 16.0857 13.9518 16.1373 13.8768 16.217C13.8018 16.2967 13.8065 16.3201 13.8065 16.3201C13.8205 16.5874 14.0081 16.6483 14.0878 16.714C14.1581 16.7655 14.2706 16.9437 14.2706 16.9437C14.3116 17.0136 14.3719 17.0703 14.4442 17.1068C14.5165 17.1434 14.5979 17.1584 14.6785 17.15C14.791 17.15 14.7816 17.1406 14.7254 17.089L14.5566 16.9484C14.6668 16.9982 14.7657 17.07 14.8473 17.1593C15.1286 17.4688 15.3911 17.4266 15.5036 17.4125C15.6162 17.3985 15.6021 17.3281 15.6021 17.3281C15.5974 17.3188 15.4896 17.3094 15.4896 17.3094C15.0582 17.2719 14.9317 16.9906 14.9317 16.9906C15.149 17.18 15.4264 17.2863 15.7146 17.2906C15.8365 17.2859 15.8271 17.3234 15.8037 17.3281C15.7787 17.3313 15.7381 17.3297 15.6818 17.3234C15.6255 17.3234 15.6255 17.3328 15.6349 17.3609C15.6568 17.3797 15.7037 17.386 15.7756 17.3797C15.8412 17.3797 15.7849 17.3891 15.9631 17.5204C16.1413 17.661 16.5726 17.5485 16.5726 17.5485C16.2913 17.4782 16.2538 17.3469 16.2538 17.3469C15.8693 17.3938 15.7146 17.164 15.7146 17.164C15.6284 17.0972 15.5357 17.0391 15.438 16.9906C15.2223 16.8968 15.1895 16.6999 15.1895 16.6999C15.2505 16.7937 15.3677 16.8874 15.5177 16.9343C15.6724 16.9718 15.7099 16.9906 15.7099 16.9906C15.6723 16.9991 15.6331 16.9958 15.5974 16.9812C15.4474 16.9343 15.5318 16.9953 15.5318 16.9953C15.7005 17.1312 15.7427 17.1172 15.7427 17.1172C16.1788 17.164 15.9631 16.9906 15.9631 16.9906C16.2678 17.0656 16.3241 16.9484 16.3241 16.9484C16.3897 17.089 16.6242 17.0328 16.6242 17.0328C16.31 17.1875 16.5445 17.1406 16.5445 17.1406C16.8633 17.0843 16.9289 17.164 16.9289 17.164C17.0086 17.2437 17.0977 17.2344 17.0977 17.2344C17.0977 17.2344 17.1539 17.2344 17.2711 17.2578C17.393 17.2812 17.5806 17.3844 17.754 17.3656C17.9228 17.3422 17.9556 17.3938 17.9556 17.3938C17.9181 17.3844 17.8431 17.3703 17.7119 17.4313C17.5806 17.4922 17.3415 17.511 16.9992 17.4313C16.657 17.3516 16.6335 17.3656 16.6335 17.3656C16.7079 17.4154 16.7664 17.4853 16.8023 17.5672C16.8164 17.6235 16.8773 17.6282 16.8773 17.6282C16.9008 17.5532 16.9992 17.5204 16.9992 17.5204C17.0695 17.5813 17.2524 17.661 17.2524 17.661C17.2711 17.6235 17.2524 17.5954 17.2524 17.5954C17.379 17.722 17.5337 17.6844 17.5337 17.6844C17.5712 17.6563 17.5618 17.5813 17.5618 17.5813C17.6134 17.5813 17.6228 17.6141 17.6556 17.6422C17.7025 17.661 17.815 17.6469 17.815 17.6469C17.7681 17.6282 17.7353 17.5625 17.7353 17.5625C17.9135 17.4453 18.2838 17.4922 18.2838 17.4922C18.5511 17.5438 18.5182 17.722 18.5182 17.722C18.5677 17.7504 18.612 17.7868 18.6495 17.8298C18.673 17.7641 18.6495 17.7032 18.6495 17.7032C18.7761 17.7595 18.7996 17.9048 18.7996 17.9048C18.9402 17.7407 18.6636 17.5579 18.6636 17.5579C18.7995 17.5391 18.9449 17.5532 19.0387 17.5625C19.1597 17.5845 19.2729 17.6379 19.3668 17.7173C19.4554 17.7765 19.5538 17.8194 19.6575 17.8438C19.6575 17.8063 19.5544 17.7454 19.5309 17.7313C19.5075 17.7173 19.4981 17.6844 19.4981 17.6844C19.595 17.6969 19.6466 17.7001 19.6528 17.6938C19.5063 17.6127 19.3694 17.5152 19.2449 17.4031C19.3668 17.4172 19.4372 17.3422 19.4372 17.3422C19.1793 17.3422 19.1699 17.2812 19.1699 17.2812C19.2027 17.2859 19.32 17.3188 19.4747 17.2859C19.6294 17.2531 19.8404 17.2859 19.8404 17.2859C19.7278 17.1078 19.3012 17.1406 19.1606 17.1453C19.0199 17.15 18.973 17.1359 18.973 17.1359C18.9918 17.1265 19.0199 17.1031 19.123 17.0984C19.2309 17.0984 19.3387 17.1125 19.4606 17.0234C19.5778 16.9437 19.7466 16.9718 19.7466 16.9718C19.7091 16.8874 19.5122 16.8593 19.3434 16.9718C19.1746 17.075 19.0152 17.0468 19.0152 17.0468C19.2871 17.0093 19.3622 16.9109 19.3622 16.9109C19.2871 16.8874 19.2403 16.9156 19.0809 16.9484C18.9168 16.9812 18.8746 16.9249 18.8746 16.9249C19.048 16.8218 19.1746 16.7796 19.1746 16.7796C19.0246 16.7421 18.8839 16.6764 18.8839 16.6764C18.7292 16.8265 18.6026 16.9109 18.3026 16.7561C18.0025 16.5921 17.8431 16.6155 17.8431 16.6155C17.9564 16.5517 18.0852 16.5205 18.2151 16.5255C18.3451 16.5304 18.4711 16.5713 18.5792 16.6436C18.7761 16.7608 18.8371 16.6671 18.8371 16.6671C18.7714 16.6296 18.7808 16.5921 18.7808 16.5921C19.259 16.8359 19.47 16.6858 19.5778 16.6155C19.681 16.5405 19.5262 16.4467 19.5262 16.4467C19.5169 16.5967 19.32 16.6764 19.1652 16.6202C19.0105 16.5686 18.8699 16.503 18.6495 16.4045C18.4292 16.3061 18.1526 16.3623 17.89 16.4186C17.6275 16.4748 17.5993 16.4467 17.5712 16.428C17.5478 16.4045 17.5384 16.3436 17.4024 16.3951C17.2711 16.4514 16.9617 16.3061 16.7695 16.2592C16.5047 16.2113 16.2316 16.256 15.9959 16.3858C15.724 16.5405 15.588 16.503 15.5083 16.4655C15.4286 16.428 15.3724 16.3248 15.4614 16.2311C15.5505 16.1373 15.5552 16.1185 15.5505 15.9873C15.5458 15.856 15.4099 15.7763 15.4099 15.7763C15.5318 15.6544 15.5599 15.6216 15.5177 15.57C15.4802 15.5184 15.5411 15.5184 15.6115 15.4856C15.6818 15.4528 15.649 15.4528 15.6349 15.4106C15.6162 15.3731 15.5787 15.3825 15.5787 15.3825C15.4192 15.3872 15.3302 15.3403 15.3302 15.3403C15.0723 15.2231 14.8238 15.4575 14.8238 15.4575C14.6785 15.3403 14.641 15.42 14.6129 15.4434C14.591 15.4715 14.5441 15.4903 14.4722 15.4997C14.4066 15.5044 14.3081 15.5278 14.28 15.5934C14.28 15.5934 14.2472 15.6403 14.28 15.6872C14.28 15.6872 14.3222 15.7528 14.2518 15.8279C14.1768 15.9029 14.1487 15.9169 14.1768 15.9873C14.1956 16.0591 14.1893 16.1154 14.1581 16.156C14.1581 16.156 14.1253 16.1185 14.1346 16.0716C14.144 16.0248 14.144 15.9904 14.1346 15.9685C14.1346 15.9685 14.0596 16.0388 14.0502 16.0904C14.0502 16.0904 14.0174 16.0107 14.1253 15.9029C14.2331 15.795 14.28 15.7482 14.2472 15.706C14.2237 15.6731 14.1487 15.7247 14.13 15.7388H14.1253Z" fill="#FFC221"/>
<path d="M14.4297 16.9055C14.4297 16.9055 14.2985 16.8024 14.3125 16.6618C14.3266 16.5212 14.3266 16.5118 14.3125 16.4743C14.3125 16.4743 14.2844 16.4884 14.2891 16.5446L14.2797 16.6571C14.2797 16.6571 14.2094 16.5446 14.1766 16.5212C14.1766 16.5212 14.2048 16.3994 14.1673 16.3478C14.1298 16.2963 14.0923 16.2916 14.0501 16.3103C13.9845 16.3291 13.9423 16.3853 14.1438 16.554C14.1438 16.554 14.2188 16.6149 14.2704 16.7414C14.3219 16.8773 14.4109 16.8961 14.425 16.9055H14.4297ZM15.0857 16.5165C15.0857 16.5165 15.0717 16.4415 15.1467 16.301C15.169 16.2577 15.1814 16.2101 15.183 16.1614C15.1846 16.1128 15.1754 16.0644 15.156 16.0198C15.142 15.9823 15.1326 15.9964 15.2029 15.9354C15.2966 15.8605 15.1701 15.7667 15.32 15.6355C15.32 15.6355 15.4138 15.5559 15.4325 15.5231C15.4325 15.5231 15.2826 15.6027 15.1795 15.6449C15.0764 15.6871 14.6968 15.8745 14.7811 16.001C14.8655 16.1276 14.8561 16.1323 14.8421 16.1885C14.8421 16.1885 14.6078 16.0666 14.6968 15.8698C14.6968 15.8698 14.7296 15.7949 14.8233 15.7011C14.917 15.6215 14.8655 15.7199 15.0389 15.6168C15.0389 15.6168 15.1795 15.5324 15.2544 15.4247C15.2544 15.4247 15.1607 15.4809 15.1279 15.4903C15.1279 15.4903 14.9217 15.5277 14.8374 15.6121C14.7577 15.7058 14.5796 15.8511 14.6359 16.0198C14.6359 16.0198 14.4344 15.9964 14.3875 15.7855C14.3875 15.7855 14.0079 16.2494 14.8093 16.4697C14.8093 16.4697 14.9498 16.5118 15.0857 16.5165Z" fill="black"/>
<path d="M18.5885 14.9511C18.8885 14.9089 20.6138 14.6464 20.7733 14.6276C20.942 14.6136 21.0077 14.5901 21.0639 14.7308C21.1296 14.8808 20.8295 14.8855 20.8295 14.8855L18.7666 15.1199C18.6729 15.1293 18.6494 15.0918 18.6494 15.0918L18.5697 14.9886C18.5697 14.9886 18.5463 14.9605 18.5885 14.9511Z" fill="#FFC221"/>
<path d="M14.3784 15.8934C14.3784 15.8934 14.1535 16.3573 15.0298 16.4698C15.0235 16.4698 15.036 16.4276 15.0673 16.3433C15.1048 16.273 15.1797 16.123 15.1048 16.0293C15.0298 15.9356 15.1657 15.9824 15.1797 15.8559C15.2032 15.7341 15.1704 15.7481 15.2313 15.6685C15.2313 15.6685 14.9595 15.7669 14.8564 15.8887C14.7533 16.0105 14.997 16.0996 14.8564 16.2355C14.8564 16.2355 14.7252 16.1886 14.6549 16.0527C14.6549 16.0527 14.4862 16.0574 14.3737 15.8887L14.3784 15.8934Z" fill="#5A3719"/>
<path d="M15.2364 16.4655C15.2364 16.4655 15.452 16.6529 15.705 16.6436C15.9581 16.6342 16.0752 16.5686 16.1409 16.4655C16.1409 16.4655 16.1877 16.5405 16.1877 16.592C16.1877 16.592 16.4126 16.4092 16.7969 16.5733C17.1812 16.7373 17.0593 16.6857 17.1437 16.6998C17.1437 16.6998 16.9797 16.6717 16.6095 16.8404C16.2252 17.0138 15.2224 16.9528 15.2318 16.4655H15.2364Z" fill="black"/>
<path d="M14.8749 15.6356C14.8749 15.6356 14.9687 15.6543 15.0624 15.5419C15.0624 15.5419 14.9359 15.57 14.8749 15.6356ZM14.1392 16.5072C14.1392 16.5072 13.9612 16.3666 14.0736 16.3385C14.0736 16.3385 14.158 16.3198 14.1392 16.5072Z" fill="#5A3719"/>
<path d="M18.0681 17.3937C18.0681 17.3937 18.1712 17.2203 18.443 17.2203C18.7242 17.2203 18.7523 17.3515 19.0991 17.3749C19.0991 17.3749 18.682 17.4921 18.3915 17.389C18.3399 17.3685 18.2848 17.3583 18.2293 17.3591C18.1738 17.3599 18.1191 17.3717 18.0681 17.3937Z" fill="black"/>
<path d="M15.3254 16.592C15.3254 16.592 15.7472 16.8404 16.1127 16.5686C16.1189 16.5686 16.1377 16.5999 16.1689 16.6623C16.1689 16.6623 16.4501 16.3952 16.9468 16.6858C16.9468 16.6858 16.8859 16.6764 16.6516 16.7795C16.347 16.9107 15.5785 16.9997 15.3254 16.5874V16.592Z" fill="#5A3719"/>
<path d="M16.9287 16.8452C16.9287 16.8452 17.327 16.8921 17.6597 16.8686C17.8659 16.8593 18.0909 16.8218 17.9831 16.8874C17.8659 16.9577 17.9222 16.9671 18.4001 16.9249C18.8687 16.878 18.3955 17.0139 18.7188 17.0561C18.7188 17.0561 17.9268 17.4591 16.9287 16.8452Z" fill="black"/>
<path d="M17.9693 16.592C17.9693 16.592 18.2036 16.5077 18.4238 16.6061C18.6347 16.7092 18.6019 16.7186 18.7472 16.7326C18.7472 16.7326 18.6487 16.8732 18.4098 16.7607C18.2731 16.6809 18.1243 16.6239 17.9693 16.592ZM18.2317 17.3043C18.2317 17.3043 18.4613 17.1919 18.7144 17.309C18.7456 17.3309 18.8003 17.3512 18.8784 17.3699C18.8784 17.3699 18.6862 17.4309 18.4847 17.3699C18.4026 17.3403 18.3179 17.3183 18.2317 17.3043ZM17.0977 16.8966C17.0977 16.8966 17.6131 16.9435 17.8849 16.8873C17.8849 16.8873 17.5663 17.0419 18.3723 16.9716C18.3723 16.9716 18.5457 16.9529 18.5269 16.981C18.5082 17.0091 18.4894 17.0279 18.5785 17.056C18.5785 17.056 17.9833 17.3278 17.0977 16.8966Z" fill="#5A3719"/>
<path d="M14.547 16.4655C14.547 16.4655 14.5517 16.503 14.6642 16.5545C14.7813 16.6014 14.8422 16.6951 14.8657 16.742C14.8829 16.7769 14.9073 16.8078 14.9371 16.8328C14.9669 16.8578 15.0017 16.8763 15.039 16.8872C15.039 16.8872 14.636 16.9716 14.4627 16.7607C14.4627 16.7607 14.3221 16.6154 14.5423 16.4655" fill="black"/>
<path d="M17.6978 17.3891C17.6978 17.3891 17.5431 17.375 17.3228 17.3047C17.1071 17.225 17.0508 17.2906 16.9289 17.2016C16.8071 17.1125 16.5586 17.164 16.5164 17.1734C16.4695 17.1734 16.3382 17.1734 16.4976 17.0656C16.4976 17.0656 16.371 17.0656 16.3195 16.9953C16.3195 16.9953 16.2632 17.0562 16.0382 17.0328C16.0382 17.0328 16.1413 17.1875 15.7428 17.1406C15.8093 17.2183 15.8974 17.2746 15.9959 17.3021C16.0944 17.3297 16.1989 17.3273 16.296 17.2953C16.296 17.2953 16.2679 17.4172 16.4507 17.4641C16.6383 17.511 16.6711 17.5438 16.7695 17.5813C16.7695 17.5813 16.7789 17.5063 16.5351 17.3281C16.5351 17.3281 16.6664 17.3234 16.8539 17.3703C17.0415 17.4172 17.4681 17.5204 17.6978 17.3891ZM17.7963 17.5719C17.7963 17.5719 17.8385 17.6657 17.9604 17.6423C18.0776 17.6188 18.2745 17.586 18.4667 17.6845C18.4667 17.6845 18.5042 17.5204 18.1151 17.511C18.1151 17.511 17.876 17.5204 17.7963 17.5719ZM14.5332 16.5217C14.5332 16.5217 14.3832 16.6436 14.5191 16.7702C14.641 16.8874 14.8333 16.8781 14.927 16.8734C14.927 16.8734 14.8661 16.8452 14.8239 16.7702C14.7723 16.6999 14.7723 16.6483 14.6692 16.6014C14.566 16.5546 14.552 16.5452 14.5332 16.5217ZM14.3832 15.8888C14.3832 15.8888 14.1534 16.3576 15.0349 16.4702C15.0286 16.4702 15.0411 16.428 15.0724 16.3436C15.1005 16.2733 15.1802 16.1232 15.1099 16.0295C15.0349 15.9357 15.1661 15.9826 15.1849 15.856C15.2036 15.7341 15.1708 15.7482 15.2318 15.6685C15.2318 15.6685 14.9598 15.7669 14.8567 15.8888C14.7536 16.0107 14.9973 16.0998 14.8567 16.2358C14.8567 16.2358 14.7254 16.1889 14.6551 16.0576C14.6551 16.0576 14.4863 16.0576 14.3738 15.8888H14.3832Z" fill="#5A3719"/>
<path d="M16.6755 16.9718C16.6755 16.9718 16.863 16.939 17.3269 17.1124C17.7908 17.2858 17.9876 17.2436 18.0579 17.2436C18.0579 17.2436 17.7955 17.3795 17.3878 17.1967C17.027 17.0374 17.0036 17.103 16.6755 16.9718Z" fill="black"/>
<path d="M19.6012 16.8687C19.6012 16.8687 19.7043 16.864 19.7699 16.8874C19.7699 16.8874 19.8074 16.8546 19.9106 16.8405C19.9106 16.8405 19.845 16.7843 19.6012 16.8687ZM19.2824 16.6061C19.2824 16.6061 19.3855 16.6061 19.423 16.5499C19.423 16.5499 19.3621 16.4842 19.2824 16.4467C19.2824 16.4467 19.3011 16.5264 19.2824 16.6061ZM15.6958 15.4153C15.6958 15.4153 15.6723 15.359 15.7895 15.345L17.3507 15.1199C17.3507 15.1199 17.4258 15.1199 17.4398 15.1668C17.4492 15.2277 17.4305 15.2653 17.0788 15.3074L15.7989 15.4622C15.7989 15.4622 15.7051 15.4809 15.6958 15.4153Z" fill="#FFC221"/>
<path d="M17.1116 15.3496C17.1116 15.3496 17.1116 15.5558 17.3224 15.5839C17.5239 15.6167 17.5942 15.5745 17.6505 15.4667C17.6645 15.4386 17.7254 15.223 17.6364 15.209C17.5875 15.2027 17.5379 15.2075 17.4911 15.223C17.4209 15.2558 17.3552 15.2887 17.374 15.3215C17.4302 15.4011 17.4396 15.4152 17.4209 15.4245C17.3693 15.4386 17.3318 15.3917 17.3224 15.3589C17.3131 15.3215 17.3506 15.298 17.2147 15.3215C17.1584 15.3261 17.1116 15.3261 17.1116 15.3496Z" fill="#FFC221"/>
<path d="M17.9836 15.1902C18.0867 15.2043 18.0773 15.4292 17.9555 15.5323C17.8149 15.6448 17.6884 15.6026 17.6884 15.6026C17.6134 15.5745 17.6275 15.5839 17.679 15.5042C17.7259 15.4245 17.754 15.3214 17.7259 15.2512C17.7196 15.223 17.7352 15.2074 17.7727 15.2043C17.7727 15.2043 17.8758 15.1809 17.9836 15.1902Z" fill="#FFC221"/>
<path d="M18.0775 15.2136C18.0775 15.2136 18.1525 15.3073 18.0588 15.4854C18.0588 15.4854 18.0119 15.5369 18.1103 15.5323C18.204 15.5229 18.4196 15.4245 18.3915 15.2933C18.3915 15.2933 18.3915 15.2605 18.3306 15.2605C18.2743 15.2651 18.3212 15.2323 18.3446 15.223C18.368 15.223 18.4383 15.1902 18.2509 15.0683C18.2509 15.0683 18.2228 15.0449 18.1853 15.0543C18.1572 15.0683 18.0588 15.1011 18.0588 15.1667C18.065 15.1949 18.0713 15.2105 18.0775 15.2136Z" fill="#FFC221"/>
<path d="M18.2785 15.0495C18.2785 15.0495 18.4332 15.1573 18.4285 15.1901C18.4285 15.2182 18.4144 15.2651 18.4566 15.2557C18.4941 15.2557 18.6534 15.2182 18.6112 15.1151C18.5691 15.012 18.5175 14.9745 18.4472 14.9417C18.3723 14.9183 18.3535 14.9511 18.2879 15.0026C18.2879 15.0026 18.241 15.0308 18.2785 15.0495ZM17.4772 15.1995C17.4772 15.1995 17.5006 15.1245 17.3647 15.0917C17.3647 15.0917 17.421 15.0448 17.5381 15.0683C17.6459 15.0917 17.6365 15.1713 17.6365 15.176C17.6365 15.1807 17.5475 15.176 17.4772 15.1995ZM17.7677 15.1807C17.7677 15.1807 17.9177 15.1526 17.988 15.162C17.988 15.162 17.913 14.9933 17.7068 15.0448C17.7068 15.0448 17.7818 15.1385 17.7677 15.1807ZM18.0302 15.1432C18.0302 15.1432 18.0302 15.087 18.1614 15.0355C18.1614 15.0355 18.1005 14.9745 18.0067 14.9839C17.9083 14.9839 17.8849 15.0214 17.8849 15.0214C17.8849 15.0214 18.0021 15.0636 18.0302 15.1385V15.1432ZM18.077 14.9558C18.077 14.9558 18.1661 14.9839 18.2176 15.0261C18.2176 15.0261 18.2926 14.9417 18.3582 14.923C18.3582 14.923 18.2317 14.8574 18.077 14.9605V14.9558Z" fill="#FFC221"/>
<path d="M13.797 14.5479C13.797 14.5479 14.158 14.2432 14.3596 14.2807C14.5612 14.3182 14.4627 14.2948 14.6784 14.2573C14.9034 14.2244 15.1285 14.201 15.2222 14.2104C15.2222 14.2104 14.9503 14.0228 14.4768 14.0228C14.4768 14.0228 14.1439 14.1401 13.9142 14.2948C13.9142 14.2948 13.4641 14.0463 13.0046 14.1916C13.0046 14.1916 13.5063 14.3792 13.8017 14.5479H13.797Z" fill="#5A3719"/>
<path d="M17.6227 15.0777L17.6836 15.0683C17.6836 15.0683 17.7821 15.1902 17.7118 15.1902C17.6508 15.1902 17.6696 15.1762 17.6649 15.1434C17.656 15.1174 17.6397 15.0945 17.618 15.0777H17.6227ZM17.1679 15.0871C17.1679 15.0871 17.1304 15.134 17.2007 15.1246C17.2851 15.1105 17.2711 15.1246 17.3554 15.0636C17.3554 15.0636 17.4164 15.0027 17.5195 15.0402C17.5195 15.0402 17.6039 15.0683 17.6743 15.0355C17.7493 14.998 17.7633 15.0027 17.8008 15.0027C17.8383 15.0074 17.8383 15.0168 17.8852 14.9793C17.9415 14.9418 18.0259 14.9699 18.0821 14.923C18.1384 14.8761 18.2087 14.9183 18.0821 14.8292C18.0821 14.8292 18.054 14.8011 18.0587 14.7823C18.0587 14.7823 18.1056 14.7964 18.1478 14.8292C18.19 14.862 18.2415 14.8527 18.2556 14.8433C18.2556 14.8433 18.265 14.7308 18.3728 14.6276C18.4853 14.5245 18.4853 14.5198 18.4197 14.5198C18.3541 14.5198 18.2462 14.4917 18.2087 14.5198C18.1712 14.5479 17.8477 14.7589 17.6555 14.7964C17.468 14.8339 17.2945 14.8902 17.1679 15.0871ZM12.1045 13.915C12.1045 13.915 12.6905 14.065 12.8171 14.126C12.8171 14.126 12.8499 14.0322 12.5827 13.9572C12.5827 13.9572 13.2297 13.9384 13.9048 14.2479C13.9048 14.2479 14.233 13.9666 15.2926 14.051C15.2926 14.051 15.2926 13.9572 15.3019 13.8869C15.3019 13.8869 14.5612 13.8634 13.8814 13.4509C13.8814 13.4509 13.2672 13.7509 12.1045 13.9197V13.915ZM15.3395 14.1963C15.3066 13.6009 15.527 13.5446 15.527 13.5446C15.527 13.5446 15.6395 13.5493 15.752 13.5681C15.752 13.5681 15.5739 13.7837 15.6208 14.2104C15.6208 14.2104 15.6395 14.276 15.4895 14.276C15.3395 14.276 15.3441 14.2057 15.3441 14.2057L15.3395 14.1963Z" fill="#FFC221"/>
<path d="M15.4988 14.59C15.4988 14.59 15.3863 14.4775 15.377 14.3463C15.377 14.3463 15.377 14.3135 15.4847 14.3135C15.5972 14.3182 15.6113 14.3088 15.6394 14.3744C15.6628 14.4353 15.7331 14.5666 15.7518 14.5853L15.4988 14.59Z" fill="#5A3719"/>
<path d="M15.7379 14.2944L15.7238 14.0648C15.7332 13.7368 15.7847 13.7649 15.8082 13.8071H15.9253C15.9253 13.8071 15.841 13.4322 15.7379 13.6524C15.6629 13.8165 15.6369 13.9987 15.6629 14.1773C15.6723 14.271 15.6832 14.3366 15.6957 14.3741L15.7379 14.2944Z" fill="#FFC221"/>
<path d="M17.0226 14.2948C17.0226 14.2948 17.2382 14.3323 16.9053 14.4073C16.9053 14.4073 16.9194 14.8152 17.3132 14.5292C17.3132 14.5292 17.5523 14.3791 17.7117 14.3182C17.7117 14.3182 17.7961 14.2948 17.7868 14.2291C17.7868 14.2291 17.7961 14.1541 17.7117 14.1729C17.7117 14.1729 17.6414 14.1729 17.5945 14.1588C17.5945 14.1588 17.5476 14.1025 17.5195 14.1213C17.4867 14.1447 17.4117 14.1307 17.4726 14.2057C17.5289 14.2713 17.5477 14.2526 17.5758 14.2338C17.6039 14.2151 17.7305 14.1682 17.6133 14.2713C17.4961 14.3745 17.407 14.2104 17.3695 14.1775L17.0226 14.2948ZM15.9208 14.3416H15.827C15.827 14.3416 15.7708 14.4167 15.7333 14.2948L15.7004 14.3745C15.7004 14.3745 15.813 14.8105 15.9208 14.3416Z" fill="#5A3719"/>
<path d="M15.7849 13.8352C15.7849 13.8352 15.7333 14.1257 15.7989 14.2944L16.8533 14.3179C16.8533 14.3179 16.8392 14.1164 16.8533 13.8352H16.7033C16.7033 13.8352 16.6799 14.0695 16.7033 14.2101H16.6752C16.6752 14.2101 16.6565 14.0133 16.6752 13.8352H16.5534C16.5534 13.8352 16.5346 14.0508 16.5487 14.2101H16.5253C16.5253 14.2101 16.5065 14.0226 16.5253 13.8352H16.4081C16.4081 13.8352 16.3847 14.0273 16.4081 14.2101H16.3753C16.3753 14.2101 16.3519 14.018 16.3753 13.8352H16.2394C16.2394 13.8352 16.2113 14.018 16.2394 14.2101H16.216C16.216 14.2101 16.1832 14.0273 16.216 13.8352H16.0801C16.0801 13.8352 16.052 14.0414 16.0801 14.2101H16.052C16.052 14.2101 16.0332 14.0133 16.0567 13.8352H15.9301C15.9301 13.8352 15.8973 14.0086 15.9301 14.2101H15.8973C15.8973 14.2101 15.8786 14.0601 15.9067 13.8352H15.7849ZM16.8955 14.3554C16.8955 14.3554 16.872 13.8399 16.9658 13.7087C17.0642 13.5775 17.0876 13.6009 17.2563 13.7087C17.425 13.8165 17.6406 13.9336 17.6781 13.943C17.7109 13.957 17.7624 13.9711 17.7624 14.0648C17.7624 14.1585 17.7765 14.1867 17.6312 14.0648C17.6124 14.0508 17.5422 13.9898 17.4906 13.9711C17.3641 13.9336 17.5234 13.9992 17.5703 14.0695C17.6078 14.1257 17.6452 14.1164 17.5422 14.1445C17.3245 14.2081 17.1088 14.2784 16.8955 14.3554Z" fill="#FFC221"/>
<path d="M17.2663 13.9853C17.2663 13.9853 17.1867 13.8916 17.2898 13.8728C17.3835 13.8494 17.3929 14.0228 17.4116 14.1259C17.4304 14.2289 17.2898 14.0228 17.271 13.99L17.2663 13.9853ZM17.1258 14.4398C17.1258 14.4398 17.0133 14.482 17.0883 14.5148C17.1633 14.5476 17.3694 14.3789 17.2991 14.393C17.2242 14.4023 17.1258 14.4398 17.1258 14.4398ZM17.2804 14.2805C17.2804 14.2805 17.3788 14.2711 17.3554 14.3133C17.3413 14.3602 17.3038 14.332 17.2898 14.318C17.271 14.3133 17.2054 14.2852 17.2804 14.2805Z" fill="black"/>
<path d="M17.8149 14.1445C17.8149 14.1445 17.8383 14.3413 18.007 14.3928C18.007 14.3928 18.1101 14.4163 18.0866 14.3319L18.0585 14.2288C18.0445 14.196 17.9742 14.1773 17.9648 14.1726C17.9554 14.1679 17.9507 14.1492 17.9976 14.1679C18.0382 14.1866 18.0538 14.1804 18.0445 14.1491C18.0445 14.1163 18.0164 14.1304 17.9742 14.1117C17.9648 14.0992 17.9711 14.0929 17.9929 14.0929C18.0117 14.0929 18.0538 14.1117 18.0538 14.0461C18.0538 14.0461 18.0632 14.0039 18.0117 14.0039C17.9601 14.0039 17.9601 13.9758 17.9742 13.9711C17.9882 13.9664 18.0492 14.0086 18.0679 13.9383C18.0866 13.8727 17.9882 13.9148 18.0023 13.8774C18.0164 13.8399 18.0866 13.8961 18.0866 13.8539C18.096 13.8164 18.1522 13.7977 18.0538 13.7836C18.0117 13.7789 18.0538 13.7555 18.1007 13.7649C18.1569 13.7696 18.1897 13.7087 18.2179 13.6852C18.2553 13.6618 18.4287 13.5587 18.1897 13.5915C17.9507 13.6243 17.8851 13.7415 17.8758 13.7649C17.818 13.8825 17.7968 14.0147 17.8149 14.1445Z" fill="#FFC221"/>
<path d="M18.3633 14.2993C18.3976 14.293 18.421 14.2993 18.4335 14.318C18.471 14.3977 18.3867 14.3743 18.3351 14.4305C18.2836 14.4867 18.2789 14.4774 18.2133 14.4586C18.1477 14.4399 18.1196 14.3321 18.1196 14.3321C18.1165 14.3009 18.1336 14.2899 18.1711 14.2993C18.1711 14.2993 18.2883 14.3134 18.3633 14.2993ZM18.1102 14.2571C18.1102 14.2571 18.1102 14.2759 18.1571 14.2806C18.1899 14.2806 18.307 14.2946 18.382 14.2712C18.382 14.2712 18.4007 14.2712 18.3914 14.2243C18.3914 14.2243 18.3914 14.1915 18.3304 14.2056C18.2695 14.2196 18.1758 14.2056 18.143 14.2009C18.1118 14.1884 18.1008 14.2056 18.1102 14.2524V14.2571ZM18.1008 14.1165C18.1008 14.1165 18.1008 14.1728 18.1571 14.1821H18.3304C18.3586 14.1821 18.4007 14.1681 18.4054 14.1353C18.4054 14.0931 18.4195 14.0697 18.3398 14.0884C18.2602 14.1072 18.1711 14.0931 18.1617 14.0884C18.1524 14.0884 18.1008 14.0744 18.1008 14.1119V14.1165ZM18.1289 13.9853C18.1289 13.9853 18.1102 14.0181 18.1149 14.0416C18.1149 14.0697 18.1571 14.0837 18.2414 14.0837C18.3211 14.0837 18.3961 14.0697 18.4007 14.0416C18.4054 14.0134 18.4242 13.9806 18.3633 13.9947C18.3043 14.0042 18.2442 14.0042 18.1852 13.9947C18.1508 13.9791 18.1321 13.976 18.1289 13.9853Z" fill="#FFC221"/>
<path d="M21.1202 14.3041C21.1202 14.3041 21.1202 14.3557 21.1624 14.4167L18.9026 14.351C18.9026 14.351 18.9307 14.3323 18.9401 14.2432L21.1202 14.3041Z" fill="#5A3719"/>
<path d="M18.1478 13.8959C18.1478 13.8959 18.129 13.9521 18.1665 13.9615C18.2071 13.9803 18.2743 13.9834 18.368 13.9709C18.368 13.9709 18.4149 13.9709 18.4289 13.924C18.443 13.8772 18.443 13.9006 18.3165 13.8772C18.3165 13.8772 18.2743 13.8631 18.3914 13.8631C18.3914 13.8631 18.4617 13.8631 18.4664 13.8537C18.4805 13.8444 18.5695 13.7694 18.4523 13.7788C18.3399 13.7788 18.3961 13.7553 18.4523 13.7553C18.5133 13.7553 18.5273 13.7694 18.5461 13.7553C18.5648 13.7413 18.5461 13.746 18.518 13.7132C18.4898 13.6804 18.5086 13.6897 18.532 13.7132C18.5539 13.7288 18.5742 13.7288 18.5929 13.7132C18.621 13.685 18.5742 13.6522 18.5929 13.6569C18.6117 13.6569 18.6257 13.6991 18.696 13.6663C18.7757 13.6241 18.8741 13.6429 18.9022 13.6663C18.9256 13.685 19.0053 13.7132 19.0522 13.6663C19.099 13.6194 18.9959 13.5726 19.0381 13.5726C19.085 13.5632 19.1131 13.5819 19.1318 13.5445C19.1506 13.507 19.0615 13.4789 19.1459 13.4507C19.2256 13.432 19.1553 13.2024 19.1318 13.1836C19.1318 13.1836 19.0381 13.2352 18.9397 13.3945C18.8366 13.5585 18.7757 13.6569 18.6398 13.6054C18.4523 13.5304 18.3446 13.6382 18.3118 13.6522C18.2649 13.685 18.4149 13.6991 18.3258 13.6991C18.2415 13.6991 18.2415 13.7085 18.2321 13.7225C18.2259 13.735 18.2321 13.7444 18.2508 13.7506C18.2649 13.7506 18.2977 13.7788 18.2462 13.7788C18.1946 13.7788 18.1524 13.7694 18.1712 13.8256L18.1993 13.8397C18.2321 13.8397 18.2462 13.8772 18.1852 13.8772C18.154 13.8803 18.1415 13.8865 18.1478 13.8959ZM18.3539 14.4582C18.3539 14.4582 18.3165 14.4864 18.368 14.491C18.4195 14.4957 18.4523 14.5051 18.4711 14.477C18.4898 14.4489 18.5648 14.4582 18.518 14.4161C18.4617 14.3739 18.4289 14.3973 18.3539 14.4629V14.4582Z" fill="#FFC221"/>
<path d="M18.5884 13.779C18.5884 13.779 18.7759 13.6009 18.9305 13.7228L19.1086 13.8634C19.1086 13.8634 19.1273 13.8774 19.0852 13.9149C19.043 13.9524 19.0852 13.9571 19.132 13.929C19.1789 13.9055 19.1789 13.929 19.2023 13.9571C19.2257 13.9852 19.2585 13.9946 19.1836 13.9946H18.9539C18.9539 13.9946 18.8509 14.0039 18.9071 13.9571C18.9539 13.9149 18.9446 13.8634 18.9211 13.8634C18.8977 13.8634 18.9211 13.8915 18.9024 13.9102C18.8837 13.929 18.8509 13.9477 18.8087 13.9477C18.7665 13.9477 18.7431 13.9758 18.7993 13.9946C18.8602 14.018 18.7946 14.0321 18.7618 14.0321C18.729 14.0321 18.5884 14.0414 18.7337 14.0602C18.8837 14.0789 18.7196 14.0742 18.8274 14.1351C18.9539 14.2054 18.8649 14.3507 18.8181 14.3648C18.8181 14.3648 18.7712 14.3929 18.8321 14.3835C18.893 14.3741 18.9305 14.3695 18.8837 14.4023C18.8415 14.4397 18.7524 14.5475 18.6306 14.4632C18.6306 14.4632 18.5697 14.4397 18.6728 14.4304C18.7759 14.4304 18.5884 14.4023 18.5556 14.3835C18.5228 14.3648 18.415 14.2429 18.4853 14.257C18.5603 14.271 18.5322 14.2289 18.4853 14.2148C18.4385 14.2008 18.4385 14.1351 18.4853 14.1445C18.5322 14.1633 18.5884 14.1914 18.6306 14.1867C18.6743 14.1867 18.6556 14.1726 18.5744 14.1445C18.49 14.1164 18.4572 14.1117 18.476 14.0414C18.4947 13.9711 18.5884 14.0695 18.5697 14.018C18.5463 13.9618 18.4619 13.9899 18.5041 13.9243C18.5463 13.8587 18.5603 13.8821 18.5791 13.8915C18.5978 13.8962 18.6259 13.8915 18.5791 13.854C18.5369 13.8259 18.5791 13.7884 18.5884 13.779Z" fill="#FFC221"/>
<path d="M18.7197 13.8304C18.7197 13.8304 18.7197 13.8071 18.757 13.8117C18.7897 13.8117 18.7803 13.7978 18.7897 13.7884C18.799 13.7884 18.8829 13.8164 18.8037 13.8444C18.7757 13.8537 18.7291 13.8444 18.7244 13.8304H18.7197Z" fill="black"/>
<path d="M18.9074 14.0275C18.9074 14.0275 18.8418 14.0604 18.898 14.126C18.9449 14.1869 18.9449 14.2057 18.9449 14.2432C18.9402 14.2807 21.1203 14.3042 21.1203 14.3042C21.1203 14.3042 21.1156 14.1635 21.2047 14.0838L18.9074 14.0275Z" fill="#FFC221"/>
<path d="M21.1531 14.2665C21.1531 14.2665 21.1624 14.1447 21.2281 14.1072C21.2655 14.0838 21.3124 14.0978 21.3311 14.1916C21.364 14.3275 21.2468 14.4446 21.1953 14.3931C21.1484 14.3462 21.1578 14.2665 21.1578 14.2665H21.1531Z" fill="#5A3719"/>
<path d="M18.6541 14.773C18.6541 14.773 18.7994 14.6464 18.8229 14.5948C18.8229 14.5948 19.2167 14.8761 19.1932 14.6183C19.1932 14.6183 19.1932 14.5479 19.2026 14.4823C19.2026 14.4823 19.3433 14.5011 19.3667 14.3885L19.001 14.3745C19.001 14.3745 18.9635 14.3651 18.9072 14.426C18.851 14.487 18.7338 14.5526 18.6259 14.4964C18.6259 14.4964 18.5791 14.4589 18.5322 14.4917C18.4853 14.5245 18.4853 14.5292 18.5228 14.5667C18.5603 14.6042 18.64 14.712 18.6541 14.773ZM19.498 14.0041L19.2823 13.9994C19.2823 13.9994 19.2073 13.8869 19.0526 13.765C19.0526 13.765 19.0057 13.7462 19.0901 13.6759C19.1839 13.6056 19.2073 13.5353 19.2073 13.4977C19.2073 13.4696 19.2073 13.4134 19.2401 13.4509C19.2729 13.4884 19.4886 13.6947 19.5214 13.6384C19.5527 13.5821 19.5667 13.5462 19.5636 13.5306C19.573 13.5118 19.5777 13.4556 19.6105 13.5165C19.6433 13.5728 19.6621 13.5587 19.6668 13.704C19.6668 13.704 19.6668 13.8587 19.6949 13.9103C19.6949 13.9103 19.4136 13.8212 19.5027 14.0041H19.498ZM18.5697 13.5446C18.5697 13.5446 18.7338 13.6384 18.8135 13.5165C18.8885 13.3946 18.9448 13.3758 18.8838 13.2493C18.8229 13.1367 18.8838 13.0805 18.9307 13.0289C18.9776 12.982 19.0198 12.9914 19.0245 12.7945C19.0291 12.607 19.1651 12.546 19.2214 12.4851C19.2776 12.4241 19.4277 12.3397 19.2026 12.2975C18.9823 12.2647 18.5322 12.1475 18.4197 11.974C18.3024 11.8006 18.2509 11.9037 18.2509 11.9084C18.2509 11.9131 18.2134 12.0444 18.3259 12.2741C18.4384 12.5038 18.5369 12.6492 18.6541 12.7242C18.7619 12.8039 18.8604 12.8414 18.8041 12.9961C18.7478 13.1508 18.6541 13.4227 18.5697 13.5493V13.5446Z" fill="#7B3C20"/>
<path d="M19.1747 13.057C19.1747 13.057 19.1981 13.4556 19.4888 13.5962C19.4888 13.5962 19.5544 13.4415 19.5263 13.2868C19.5263 13.2868 19.6201 13.2962 19.6482 13.3383C19.6482 13.3383 19.6482 13.2258 19.5169 13.1836C19.3763 13.1414 19.4466 12.8836 19.4935 12.8554C19.5404 12.8273 19.5263 12.7711 19.4935 12.7242C19.4607 12.6773 19.456 12.6117 19.5685 12.6398C19.681 12.6679 19.6623 12.6117 19.5919 12.5554C19.5263 12.4991 19.531 12.4288 19.6248 12.4288C19.7185 12.4288 19.8826 12.335 19.7842 12.3069C19.6904 12.2788 19.6576 12.246 19.7842 12.2131C19.9201 12.1663 19.9858 12.1241 19.8873 12.1147C19.7842 12.1006 19.7185 12.0678 19.817 12.0537C19.9107 12.035 19.8029 11.9365 19.6904 11.9318C19.5779 11.9272 19.3388 11.9693 19.5263 11.8193C19.7138 11.6693 19.2591 11.7818 19.4466 11.6787C19.6341 11.5849 19.381 11.6224 19.3434 11.6224C19.3106 11.6224 19.3106 11.6224 19.3247 11.5755C19.3341 11.5193 19.3059 11.5036 19.2403 11.5286C19.1887 11.5615 19.1887 11.5615 19.1934 11.4911C19.1934 11.4208 19.1278 11.4724 19.0856 11.4911C19.0387 11.5099 18.9403 11.5849 18.8934 11.5474C18.8559 11.5005 18.8324 11.4583 18.7058 11.5333C18.5699 11.613 18.6027 11.5474 18.6074 11.5099C18.6074 11.4724 18.6543 11.3411 18.4808 11.4864C18.3073 11.6318 18.4433 11.3317 18.3073 11.4302C18.1667 11.5333 18.1526 11.5521 18.1292 11.5099C18.1057 11.4677 18.0823 11.4255 17.9276 11.524C17.7729 11.6177 17.8901 11.463 17.9088 11.4302C17.9323 11.3927 17.9979 11.1723 17.8619 11.3458C17.8619 11.3458 17.7963 11.4677 17.651 11.252C17.651 11.252 17.5009 11.4677 17.4587 11.3692C17.4212 11.2755 17.3775 11.2614 17.3275 11.327C17.2806 11.388 17.3134 11.327 17.2946 11.2708C17.2712 11.2239 17.2571 11.1254 16.9993 11.3083C16.7461 11.5005 17.093 11.3646 16.8961 11.4489C16.6992 11.5333 16.2257 11.8006 16.657 11.7396C17.0884 11.6787 16.446 11.9084 16.5961 11.9506C16.7461 11.9928 16.6992 12.1241 17.2665 11.9693C17.8291 11.8146 17.7353 11.9459 18.026 11.8193C18.3167 11.6974 17.9604 11.8615 18.3448 11.8568C18.734 11.8428 18.4105 11.8568 18.4855 11.9318C18.5605 12.0069 18.8887 12.1991 19.1887 12.2366C19.4982 12.2647 19.5732 12.1522 19.4888 12.2835C19.395 12.4147 19.3669 12.4663 19.3153 12.5179C19.2684 12.5554 19.1184 12.6632 19.1137 12.8461C19.109 13.0289 18.8793 13.057 18.9637 13.2633L19.1747 13.057Z" fill="#5A3719"/>
<path d="M19.6762 13.5024C19.6762 13.5024 19.6059 13.4509 19.6059 13.3618C19.6059 13.3618 19.6527 13.3712 19.6762 13.3993C19.6762 13.3993 19.8497 13.2024 19.634 13.132C19.4277 13.057 19.5308 12.8695 19.6059 12.8695C19.6762 12.8695 19.6902 12.8507 19.6293 12.7664C19.5684 12.6913 19.573 12.682 19.6949 12.6632C19.8075 12.6445 19.7981 12.6163 19.7418 12.5882C19.7067 12.5684 19.6751 12.5431 19.6481 12.5132C19.6481 12.5132 19.9856 12.3678 19.8778 12.2975C19.7653 12.2319 19.8778 12.2506 19.9715 12.1803C20.0747 12.11 20.0888 12.0959 20.0981 12.0678C20.0981 12.0678 20.0044 12.0772 19.9294 12.0678C19.9294 12.0678 20.0137 12.0209 19.9294 11.9506C19.845 11.8803 19.8168 11.824 19.6762 11.8568C19.5449 11.8849 19.5918 11.8428 19.6387 11.7865C19.6949 11.7302 19.6731 11.6958 19.573 11.6833C19.573 11.6833 19.5871 11.6271 19.6574 11.5568C19.6574 11.5568 19.4746 11.5708 19.4136 11.538C19.4136 11.538 19.4886 11.4911 19.4886 11.4255C19.4886 11.4255 19.3949 11.463 19.2636 11.4489C19.2636 11.4489 19.3433 11.3833 19.3433 11.327C19.3433 11.327 19.1183 11.3739 19.0151 11.4536C19.012 11.4599 19.0011 11.4505 18.9823 11.4255C18.9636 11.4067 18.9495 11.3786 18.7057 11.4536C18.7057 11.4536 18.7338 11.3458 18.7948 11.2989C18.851 11.2614 18.8417 11.177 18.4666 11.4114C18.4666 11.4114 18.415 11.3833 18.3728 11.2708C18.3728 11.2708 18.2884 11.3833 18.2275 11.4208C18.2275 11.4208 18.1712 11.4442 18.1806 11.3739C18.19 11.2942 18.1431 11.3458 18.1056 11.3739C18.0681 11.388 18.0399 11.4442 18.0587 11.2942C18.0775 11.1442 18.0024 11.1114 18.0024 11.1114C18.0024 11.1114 17.8899 11.2801 17.8196 11.2989C17.8196 11.2989 17.6977 11.177 17.6508 11.0973C17.6039 11.0176 17.6086 10.9895 17.5664 11.1301C17.5242 11.2708 17.4727 11.2801 17.4727 11.2801C17.4727 11.2801 17.393 11.2145 17.3836 11.177C17.3836 11.177 17.3742 11.2192 17.3461 11.2333C17.3461 11.2333 17.2804 11.1536 17.2851 11.0457C17.2851 11.0457 16.8772 11.2708 16.8257 11.4067C16.8257 11.4067 16.4412 11.3833 16.2865 11.4114C16.2865 11.4114 16.324 11.2895 16.4272 11.2239C16.4272 11.2239 16.324 11.2145 16.3193 11.1114C16.3193 11.1114 16.399 11.1207 16.4506 11.1114C16.5022 11.102 16.3803 10.952 16.5069 10.9473C16.6334 10.9473 16.7131 11.0082 16.6616 10.8394C16.6006 10.6707 16.6241 10.6707 16.6241 10.6707C16.6241 10.6707 16.8491 10.8019 16.8819 10.7644C16.9194 10.7363 16.8538 10.6707 17.0507 10.6988C17.2476 10.7363 17.1914 10.6238 17.2711 10.6144C17.3461 10.6144 17.3836 10.6613 17.3367 10.3097C17.2898 9.95803 17.5758 10.4831 17.3836 9.94866C17.3836 9.94866 17.3367 9.78456 17.2148 9.71424C17.2148 9.71424 17.1867 9.83145 17.0601 9.73299C16.9241 9.62516 16.6663 9.59234 16.7788 9.50795C16.8866 9.42356 16.9382 9.32042 16.9054 9.25009C16.9054 9.25009 16.7741 9.38137 16.5537 9.2876C16.3756 9.2079 16.3381 9.34855 16.1599 9.31104C16.1599 9.31104 16.1599 9.26416 16.3099 9.14226C16.46 9.02036 16.2256 9.17977 16.1318 9.20321C16.038 9.22665 16.0099 9.20321 16.2068 9.04849C16.4037 8.89378 16.8069 8.62654 16.7507 8.39681C16.7507 8.39681 16.8444 8.51871 17.0929 8.42963C17.3367 8.34524 17.5242 8.31242 17.5946 8.18115C17.6696 8.05925 17.8618 7.93266 17.9134 7.89985C17.9649 7.87172 18.0306 7.85296 17.9556 7.97486C17.8805 8.09676 17.754 8.30304 17.4164 8.4437C17.0788 8.58435 16.9476 8.6828 16.8819 8.7625C16.821 8.83283 16.5069 8.99692 16.7131 8.97348C16.9147 8.94066 17.2617 8.97348 17.0976 8.92659C16.9382 8.87971 16.7507 8.95473 16.9007 8.81876C17.0507 8.6828 17.0788 8.64061 17.2945 8.54684C17.5102 8.45307 17.754 8.24678 17.7305 8.47182C17.7071 8.68749 17.2992 8.92659 17.2007 8.99692C17.1023 9.07193 17.1398 9.06256 17.1398 9.09069C17.1398 9.11882 17.1257 9.17977 17.0835 9.20321C17.0413 9.22665 17.0554 9.26416 17.0648 9.3251C17.0788 9.39074 17.0554 9.41418 17.0835 9.42356C17.1117 9.43294 17.1445 9.43763 17.1538 9.47982C17.1632 9.52045 17.1945 9.53608 17.2476 9.5267C17.307 9.51733 17.3383 9.52983 17.3414 9.56421C17.3508 9.59703 17.407 9.64391 17.4117 9.54077C17.4164 9.43763 17.4586 9.41418 17.3508 9.46107C17.2429 9.50795 17.2195 9.49389 17.2242 9.44231C17.2242 9.39543 17.2101 9.40481 17.1679 9.40012C17.121 9.40012 17.107 9.33448 17.1867 9.29229C17.2664 9.25009 17.2664 9.29229 17.3648 9.2079C17.4633 9.12351 17.4633 9.10475 17.482 9.06725C17.4961 9.02505 17.3414 9.17977 17.2617 9.21258C17.1867 9.25009 17.2101 9.18914 17.2242 9.10475C17.2336 9.02036 17.4211 8.90315 17.5055 8.90315C17.5946 8.90315 17.7868 8.95004 17.7071 9.07193C17.6227 9.18914 17.3836 9.32979 17.482 9.33917C17.5805 9.34855 17.6039 9.31104 17.6649 9.35792C17.7211 9.41418 17.6649 9.52202 17.6414 9.57828C17.6145 9.63271 17.5761 9.68069 17.5289 9.71893C17.5289 9.71893 17.4211 9.52202 17.4258 9.67673C17.4305 9.83145 17.4023 9.88302 17.4258 9.88771C17.4492 9.89708 17.5664 9.97679 17.6039 9.97679C17.6414 9.97679 17.3976 10.0893 17.5008 10.0987C17.6039 10.1081 17.7727 10.0518 17.829 9.94397C17.829 9.94397 17.6133 9.89708 17.5336 9.81738C17.5336 9.81738 17.7727 9.76112 17.7071 9.5267C17.7071 9.5267 17.9509 9.59234 17.8477 9.70486C17.7399 9.81269 17.6743 9.79863 17.768 9.82676C17.8587 9.85802 17.9024 9.87677 17.8993 9.88302C17.8946 9.8924 17.9649 9.91584 17.9274 9.96272C17.8899 10.019 17.8899 10.094 17.9274 10.0893C17.9509 10.0893 18.054 10.0424 17.9743 9.99554C17.8805 9.93928 18.0681 9.94866 17.9884 9.90177C17.9087 9.85489 17.8899 9.8502 17.8712 9.82676C17.8477 9.80801 18.8557 9.21727 18.3447 9.43763C18.3447 9.43763 18.4525 9.20321 18.6026 9.20321C18.7432 9.20321 18.7573 9.32042 18.6776 9.41418C18.5885 9.50326 18.5369 9.64391 18.34 9.67204C18.34 9.67204 18.6213 9.81269 18.2884 10.0377C18.2884 10.0377 18.2134 10.0706 18.2415 10.094C18.2697 10.1174 18.4666 10.0096 18.4947 9.94397C18.5221 9.87716 18.5742 9.82344 18.6401 9.79394C18.7151 9.75643 19.0901 9.50326 19.2027 9.31104C19.3152 9.12351 19.3433 9.11882 19.559 8.94066C19.7746 8.7625 19.7418 8.80001 19.7699 8.75781C19.7981 8.71562 19.8075 8.64529 19.9106 8.58903C20.0044 8.53277 20.3982 8.31711 20.5201 8.22803C20.642 8.13895 20.8952 7.97486 20.9983 7.8389C21.1061 7.70293 21.3968 7.52947 21.4671 7.5576C21.5421 7.5951 21.4671 7.69825 21.2937 7.82483C21.1202 7.95142 20.7029 8.29367 20.6326 8.34993C20.462 8.48603 20.2725 8.59658 20.07 8.67811C19.9387 8.69687 19.9528 8.74375 19.8731 8.83283C19.7934 8.92191 19.6059 9.10006 19.5449 9.14695C19.484 9.20321 19.3339 9.30166 19.3246 9.37668C19.3199 9.447 19.3527 9.45638 19.2308 9.56421C19.0541 9.72952 18.8533 9.86705 18.6354 9.9721C18.6354 9.9721 18.8604 10.0471 18.7291 10.2018C18.5932 10.3519 18.6025 10.3284 18.5932 10.3425C18.5932 10.3425 18.9307 10.2862 18.6963 10.5535C18.6963 10.5535 18.6447 10.6332 18.7526 10.5535C18.8651 10.4597 18.8182 10.3472 18.8041 10.3331C18.8041 10.3331 18.987 10.2159 19.198 10.2159C19.4089 10.2159 19.3949 10.1971 19.2073 10.1456C19.2073 10.1456 19.3433 9.98147 19.4511 10.0659C19.5684 10.1409 19.5308 10.1925 19.4136 10.2534C19.2917 10.319 19.1183 10.3378 18.9917 10.4128C18.9917 10.4128 19.2355 10.4597 19.3668 10.3612C19.498 10.2581 19.5074 10.3097 19.5215 10.3284C19.5402 10.3472 19.5543 10.3753 19.498 10.4644C19.4371 10.5488 19.4324 10.5488 19.4371 10.5675C19.4418 10.5863 19.4277 10.6472 19.3105 10.6613C19.198 10.6847 19.137 10.7363 19.1792 10.7926C19.2167 10.8488 19.2167 10.9848 19.1183 10.9754C19.0198 10.9613 19.0433 10.8816 19.0057 10.8488C18.9682 10.8207 18.912 10.7738 18.7338 10.8629C18.5557 10.952 18.5463 10.8441 18.551 10.7832C18.551 10.7832 18.4385 10.8863 18.34 10.7972C18.2462 10.7035 18.3306 10.666 18.3869 10.6191C18.4431 10.5722 18.6682 10.4738 18.5322 10.4925C18.3916 10.5066 18.1947 10.5159 18.1525 10.4175C18.1009 10.3097 18.2462 10.3237 18.2744 10.3331C18.2978 10.3378 18.3869 10.4175 18.3963 10.319C18.3963 10.2112 18.5463 10.2018 18.4947 10.1784C18.4478 10.1643 18.3728 10.2253 18.3541 10.2534C18.3541 10.2534 18.2509 10.1081 18.0821 10.1503C17.9134 10.2018 18.1337 10.1831 18.1759 10.1925C18.2228 10.1971 18.1947 10.2862 18.0446 10.4222C17.8946 10.5535 17.9602 10.5159 18.0728 10.5159C18.19 10.5159 18.4619 10.5159 18.3072 10.6425C18.1431 10.7785 18.0775 10.8394 17.9978 10.8207C17.9134 10.7972 18.0024 10.741 18.0446 10.7129C18.0821 10.6941 18.1009 10.6519 18.0212 10.6847C17.9415 10.7129 17.9181 10.7175 17.8524 10.6097C17.7915 10.4925 17.8149 10.53 17.843 10.455C17.8712 10.38 17.9321 10.305 17.8571 10.3331C17.7821 10.3612 17.7915 10.3612 17.7962 10.2768C17.8008 10.1925 17.7118 10.1737 17.7118 10.1737C17.7118 10.1737 17.754 10.2581 17.7165 10.3143C17.6852 10.3612 17.6914 10.3894 17.7352 10.3987C17.7915 10.4128 17.8383 10.4597 17.768 10.5066C17.6977 10.5535 17.7071 10.5488 17.7493 10.5769C17.7915 10.605 17.8618 10.6425 17.7915 10.7129C17.7211 10.7785 17.7774 10.7597 17.8149 10.7597C17.8524 10.7597 17.9274 10.7879 17.9274 10.8535C17.9274 10.9238 17.9274 10.9379 18.0399 10.877C18.1525 10.816 18.3775 10.8207 18.3775 10.9051C18.3728 10.9988 18.3447 11.0223 18.4713 10.9426C18.5885 10.8676 18.6401 11.0129 18.7244 10.9426C18.8041 10.8723 18.8604 10.8019 18.9589 10.9238C19.0526 11.0457 19.0198 11.0785 18.9026 11.1676C18.7901 11.252 18.9636 11.1864 19.0479 11.1395C19.1323 11.0926 19.3855 11.0645 19.5308 11.1301C19.6715 11.1911 19.7137 11.177 19.8121 11.1301C19.9247 11.0926 19.9762 11.0832 20.1356 11.1864C20.2411 11.2655 20.3695 11.3083 20.5013 11.3083C20.5013 11.3083 20.3279 11.3786 20.1263 11.388C19.9356 11.4067 19.8231 11.4333 19.7887 11.4677C19.7887 11.4677 19.9059 11.5474 19.9294 11.6318C19.9294 11.6318 20.0606 11.613 20.1216 11.6365C20.1216 11.6365 20.0934 11.7302 20.1685 11.7818C20.2529 11.8334 20.3091 11.8521 20.2482 11.9225C20.1872 11.9928 20.3419 11.96 20.2529 12.0537C20.1685 12.1569 20.145 12.1991 20.1403 12.2835C20.1403 12.3585 20.1591 12.3678 20.0841 12.3772C20.0091 12.3866 20.0981 12.471 20.0606 12.5788C20.0278 12.6726 19.8121 12.6632 19.8215 12.9398C19.8215 12.9398 19.8825 12.8086 20.0091 12.6867C20.1356 12.5741 20.1403 12.5601 20.1356 12.4897C20.131 12.4194 20.131 12.4335 20.2013 12.3819C20.2622 12.3257 20.1685 12.2788 20.2388 12.1991C20.3044 12.1241 20.2435 12.1381 20.3279 12.0631C20.4029 11.9881 20.2529 11.9787 20.3372 11.899C20.4123 11.824 20.1356 11.7255 20.22 11.6787C20.2997 11.6271 20.4357 11.5521 19.9715 11.5615C19.9715 11.5615 20.0841 11.3739 20.4732 11.4161C20.4732 11.4161 20.3794 11.4911 20.3654 11.5615L20.4404 11.5943C20.4404 11.5943 20.4216 11.6458 20.3466 11.7068C20.3466 11.7068 20.5576 11.824 20.5904 11.8943C20.5904 11.8943 20.4638 11.9318 20.431 11.9881C20.431 11.9881 20.4873 12.0537 20.506 12.1287C20.506 12.1287 20.3654 12.1147 20.3466 12.2225C20.3279 12.3303 20.2857 12.2553 20.2857 12.3163C20.2857 12.3772 20.2857 12.4054 20.2388 12.4147C20.1919 12.4241 20.2294 12.4757 20.2388 12.5085C20.2435 12.546 20.2622 12.6257 20.2575 12.6491C20.2575 12.6491 20.1825 12.6491 20.1497 12.6585C20.1497 12.6585 20.1731 12.8132 20.0888 12.832C20.0044 12.8507 20.1356 12.8883 20.0419 12.9023C19.9528 12.9164 19.9669 12.9258 19.8543 13.1227C19.8543 13.1227 19.9481 13.0711 20.0419 13.0055C20.145 12.9398 20.0419 12.9586 20.2013 12.8039C20.3607 12.6398 20.3326 12.6304 20.3185 12.5507C20.3044 12.471 20.3044 12.4054 20.3607 12.3257C20.4216 12.2506 20.4357 12.1616 20.6467 12.1756C20.6467 12.1756 20.5857 12.035 20.506 12.0022C20.506 12.0022 20.6092 11.9318 20.7123 11.9271C20.7123 11.9271 20.6185 11.8099 20.431 11.7068C20.431 11.7068 20.5857 11.5708 20.6232 11.5099C20.6232 11.5099 20.5529 11.5239 20.492 11.5099C20.492 11.5099 20.5201 11.4489 20.6607 11.3552C20.6607 11.3552 20.7404 11.4255 20.7311 11.5005C20.7311 11.5005 20.9749 11.3645 21.1061 11.3833C21.1061 11.3833 21.1765 11.5521 20.8436 11.8756C20.8436 11.8756 21.0499 11.8943 21.1389 11.8849C21.1389 11.8849 21.0921 12.0397 20.8389 12.1334C20.5904 12.2272 20.8905 12.3397 20.6373 12.321C20.3841 12.3022 20.4591 12.3866 20.4685 12.5132C20.4732 12.6445 20.4826 12.7804 20.4779 12.8132C20.4779 12.8132 20.2763 12.7476 20.281 12.9445C20.2857 13.1414 20.1731 13.1836 20.1544 13.2024C20.1544 13.2024 20.0934 13.1555 20.0044 13.118C20.0044 13.118 19.8778 13.3571 19.6762 13.4977V13.5024Z" fill="#5A3719"/>
<path d="M19.3854 11.027C19.3854 11.027 19.4511 11.0176 19.573 11.0926C19.6855 11.1676 19.8027 11.0129 19.6761 10.9754C19.5401 10.9379 19.6761 10.8863 19.7886 10.9848C19.9105 11.0785 19.9574 11.0317 19.9996 10.9988C20.0465 10.966 20.0934 10.9426 20.0137 10.891C19.934 10.8348 20.0699 10.8629 20.1309 10.9051C20.1918 10.9473 20.1684 10.9801 20.159 10.9895C20.1496 11.0035 20.1449 11.1301 20.2621 11.0129C20.384 10.891 20.445 10.7738 20.4403 10.7129C20.4403 10.7129 20.5059 10.755 20.5153 10.8301C20.5247 10.9051 20.6185 10.7926 20.6466 10.7504C20.6794 10.7129 20.7263 10.605 20.7216 10.5253C20.7216 10.5253 20.8013 10.6519 20.9232 10.5253C21.0404 10.4034 20.9935 10.4784 21.1342 10.4409C21.2963 10.3965 21.4426 10.3071 21.5561 10.1831C21.6546 10.0612 21.664 10.1456 21.7905 10.1127C21.9171 10.0799 22.1703 9.90646 22.1937 9.808C22.2172 9.70955 22.2125 9.65328 22.1797 9.69079C22.1422 9.71892 22.1562 9.69079 22.1047 9.66266C22.0437 9.62516 21.964 9.70486 21.964 9.70486C21.964 9.70486 22.0437 9.76581 21.9828 9.79394C21.9218 9.82207 21.8702 9.90646 21.7484 9.86895C21.6358 9.83613 21.5139 9.98147 21.5139 9.98147C21.5139 9.98147 21.6171 10.0612 21.4764 10.1127C21.3452 10.169 21.3639 10.1831 21.2842 10.1268C21.2842 10.1268 21.1389 10.3097 21.0498 10.3472C21.0498 10.3472 21.017 10.3472 20.9935 10.3097C20.9935 10.3097 20.8998 10.4175 20.8529 10.4362C20.8529 10.4362 20.7872 10.38 20.7357 10.3612C20.7357 10.3612 20.6185 10.5019 20.5247 10.5488C20.5247 10.5488 20.4966 10.4925 20.4356 10.455C20.4356 10.455 20.4075 10.6425 20.2059 10.7504C20.2059 10.7504 20.2199 10.7035 20.1168 10.6332C20.1168 10.6332 19.8683 10.8488 19.7746 10.8723C19.6761 10.891 19.7605 10.8254 19.7746 10.7972C19.7886 10.7691 19.8496 10.68 19.7277 10.6425C19.6058 10.605 19.6339 10.6707 19.6058 10.68C19.5776 10.6894 19.5776 10.6566 19.4933 10.6707C19.4182 10.68 19.4276 10.7175 19.3948 10.7316C19.3573 10.741 19.2166 10.7082 19.226 10.7972C19.2354 10.891 19.301 10.9566 19.1791 11.0082C19.0525 11.0645 19.226 11.0551 19.3854 11.027Z" fill="#7B3C20"/>
<path d="M19.8873 10.7691C19.8873 10.7691 19.9154 10.6472 19.8123 10.591C19.8123 10.591 20.4686 10.4878 19.9717 10.2346C19.9717 10.2346 20.5671 10.1174 20.4264 9.9299C20.2858 9.74237 20.1451 9.77519 20.1311 9.78456C20.1123 9.78456 20.2577 9.67204 20.2952 9.6908C20.3327 9.70955 20.8109 9.88302 20.6843 9.7283C20.5671 9.57359 20.5765 9.58296 20.5577 9.53608C20.5577 9.53608 20.7124 9.53608 20.9515 9.76581C20.9515 9.76581 20.9984 9.71893 20.9984 9.62047C20.9984 9.62047 21.1625 9.66735 21.2188 9.71893C21.2188 9.71893 21.2469 9.66267 21.2328 9.62516C21.2328 9.62516 21.3829 9.70486 21.4344 9.78925C21.4344 9.78925 21.5001 9.73299 21.5094 9.66267C21.5094 9.66267 21.6548 9.72361 21.697 9.7705C21.697 9.7705 21.7439 9.70486 21.7251 9.61578C21.7251 9.61578 21.9642 9.68611 22.0017 9.54077C22.0017 9.54077 22.2408 9.58765 22.0861 9.68142C21.8798 9.808 22.0627 9.65329 21.8517 9.79863C21.6923 9.91584 21.6032 10.0471 21.5235 10.019C21.4672 9.99554 21.3969 10.1596 21.3219 10.0846C21.2469 10.0002 21.2469 10.0377 21.1859 10.1221C21.1445 10.1841 21.0974 10.2422 21.0453 10.2956C21.0453 10.2956 21.0078 10.2722 20.9703 10.2346C20.9703 10.2346 20.9234 10.3143 20.8671 10.3753C20.8671 10.3753 20.8203 10.3097 20.7406 10.2722C20.7406 10.2722 20.6187 10.4128 20.5483 10.4597C20.5483 10.4597 20.4733 10.3894 20.403 10.3659C20.403 10.3659 20.3889 10.5535 20.2436 10.6472C20.2436 10.6472 20.2155 10.591 20.117 10.5535C20.117 10.5535 20.0467 10.666 19.8873 10.7644V10.7691Z" fill="#5A3719"/>
<path d="M19.5402 10.478C19.5402 10.478 19.4605 10.5389 19.5121 10.6045C19.5636 10.6701 19.5683 10.5904 19.6339 10.5904C19.6995 10.5811 20.5055 10.4405 19.7745 10.2249C19.7745 10.2249 19.8026 10.1921 19.9291 10.1874C20.0557 10.1687 20.5149 10.0469 20.304 9.88284C20.0885 9.72351 19.9057 9.93907 20.0885 9.74226C20.229 9.58762 20.1166 9.51264 20.1166 9.51264L19.6011 9.85004C19.5074 9.8969 19.3668 10.0047 19.5308 10.0515C19.6901 10.0984 19.7979 9.87815 19.812 9.9297C19.826 9.97656 19.4886 10.164 19.5402 10.253C19.5871 10.3374 19.5777 10.4124 19.6573 10.3936C19.7417 10.3796 19.9666 10.4358 19.7839 10.4311C19.6011 10.4217 19.5402 10.478 19.5402 10.478Z" fill="#5A3719"/>
<path d="M19.8308 10.0705C19.8308 10.0705 19.7558 10.1267 19.8542 10.0986C19.9526 10.0705 20.1495 10.0283 20.1166 9.98148C20.0745 9.92525 19.948 9.98617 19.8355 10.0752L19.8308 10.0705Z" fill="black"/>
<path d="M21.1292 9.23133C21.1292 9.23133 21.5041 9.21727 21.6587 9.32505C21.8134 9.43283 21.8884 9.49843 21.9352 9.51249C21.9352 9.51249 21.9259 9.65308 21.6869 9.54998C21.6869 9.54998 21.7009 9.62027 21.6728 9.69056C21.6728 9.69056 21.5838 9.62496 21.4854 9.60621C21.4854 9.60621 21.4619 9.65776 21.4338 9.69056C21.4338 9.69056 21.326 9.58278 21.1995 9.54998L21.162 9.62496C21.162 9.62496 21.0308 9.5453 20.9277 9.5453C20.9277 9.5453 20.9511 9.62496 20.9277 9.66245C20.9277 9.66245 20.6606 9.4422 20.4169 9.47032C20.4169 9.47032 20.5341 9.6437 20.6091 9.72805C20.6091 9.72805 20.117 9.69056 20.2014 9.42346C20.281 9.16104 20.1967 9.22664 20.5153 9.23133H21.1292Z" fill="#7B3C20"/>
<path d="M18.8275 9.96273C18.8275 9.96273 18.7712 10.0096 18.8275 10.0471C18.8838 10.0846 19.076 9.94398 19.1041 9.92522C19.1322 9.90178 19.1979 9.90647 19.1041 9.98148C19.0103 10.0565 18.9166 10.1315 18.8462 10.2112C18.8462 10.2112 19.1744 10.1174 19.3854 9.93929C19.5964 9.75175 19.376 9.87365 19.737 9.70018C20.098 9.52203 20.2856 9.24541 20.0934 9.27823C19.9011 9.31105 19.723 9.52671 19.5729 9.6111C19.4229 9.69549 19.3385 9.70487 19.362 9.65799C19.3854 9.6111 19.4932 9.62517 19.7042 9.46108C19.9105 9.2923 19.8636 9.31105 19.8636 9.2501C19.8636 9.18915 19.7886 9.04381 20.098 8.87972C20.4122 8.71563 21.3826 8.15303 21.467 7.95143C21.467 7.95143 21.1857 7.98425 20.8107 8.26086C20.6035 8.4335 20.3769 8.5814 20.1355 8.70156C20.0324 8.73907 20.0418 8.71094 19.9808 8.79533C19.8188 8.96471 19.6499 9.12738 19.4745 9.28292C19.4089 9.3298 19.3854 9.36731 19.3807 9.47045C19.3807 9.52203 18.9588 9.84552 18.8322 9.96273H18.8275Z" fill="#5A3719"/>
<path d="M20.1121 9.22173C20.1121 9.22173 20.0325 9.24984 19.9669 9.22173C19.8966 9.18424 19.92 9.03428 20.0887 8.94525C20.2862 8.83751 20.4975 8.75711 20.7166 8.70626C20.7166 8.70626 20.6932 8.8937 20.2105 9.0624C20.2105 9.0624 20.2433 9.15612 20.1121 9.22173Z" fill="#5A3719"/>
<path d="M20.281 9.0949C20.281 9.0949 20.2951 9.14176 20.281 9.18393C20.281 9.18393 21.1714 9.26828 21.64 8.7247C21.64 8.7247 21.0027 8.78562 20.7496 8.93557C20.7496 8.93557 20.9136 8.73876 21.3869 8.57474C21.8602 8.41073 22.057 8.19986 22.0992 8.09208C22.0992 8.09208 21.49 8.30295 21.2089 8.30295C21.2089 8.30295 21.1526 8.30295 21.0964 8.33107C21.0402 8.35919 20.6606 8.64035 20.5575 8.68721C20.5575 8.68721 20.773 8.66847 20.848 8.60286C20.848 8.60286 20.6981 9.00118 20.281 9.0949Z" fill="#AA5323"/>
<path d="M18.5651 9.60641C18.5651 9.60641 18.4479 9.6908 18.4947 9.7283C18.5416 9.76581 18.626 9.77519 18.7995 9.63454C18.9776 9.47982 19.4043 9.11882 19.1324 9.10475C19.1324 9.10475 18.7901 9.08131 18.8042 9.29229C18.8182 9.50326 18.5791 9.59234 18.5651 9.60641ZM17.7681 9.47982C17.7681 9.47982 17.9978 9.61578 17.9087 9.72361C17.9087 9.72361 18.6073 9.13288 18.4057 9.00161C18.2181 8.87502 18.0634 9.11882 18.1103 9.14226C18.1572 9.1657 18.2556 9.12351 18.2228 9.1657C18.0789 9.28105 17.9269 9.38603 17.7681 9.47982ZM17.5852 9.29229C17.5852 9.29229 17.7399 9.33917 17.7493 9.40481C17.7493 9.46576 18.2088 9.08131 18.0869 8.91722C18.0306 8.84689 17.7821 8.81407 17.7681 8.9641C17.754 9.10475 17.9978 8.94535 17.9087 9.04849C17.8056 9.18914 17.6227 9.26884 17.5852 9.29229ZM19.2168 8.96879C19.2168 8.96879 19.123 9.03912 19.2121 9.08131C19.3011 9.12351 19.3527 9.05787 19.3996 9.02036C19.4465 8.98286 19.6575 8.81876 19.7043 8.72031C19.7606 8.61716 19.8309 8.58435 19.9106 8.53277C19.9903 8.48589 20.5436 8.20459 20.8858 7.89985C21.2281 7.5951 21.0827 7.6748 21.4343 7.47789C21.786 7.28098 22.0204 7.10283 22.0954 6.88716C22.0954 6.88716 21.9313 6.94342 21.7907 7.03719C21.6453 7.13096 21.3218 7.33256 21.2515 7.36537C21.1859 7.38882 21.1015 7.3935 21.0499 7.44508C20.9983 7.49665 21.003 7.5576 20.8342 7.69825C20.6608 7.8389 19.784 8.45776 19.6762 8.54684L19.2168 8.96879Z" fill="#5A3719"/>
<path d="M18.5134 9.17507C18.5134 9.17507 18.6072 9.1235 18.79 9.13757C18.9682 9.14694 19.6808 8.45307 19.8871 8.3171C20.2074 8.0981 20.5202 7.86824 20.8248 7.62792C20.9186 7.53884 20.9326 7.44976 21.0076 7.39819C21.0826 7.3513 21.153 7.35599 21.3264 7.25754C21.4999 7.15908 22.3391 6.65743 22.2922 6.36675C22.2922 6.36675 21.0404 7.1122 20.7545 7.35599C20.3556 7.66788 19.9442 7.96349 19.5214 8.24209C19.3808 8.33586 19.2683 8.48588 19.0291 8.6828C18.79 8.87033 18.5509 9.03911 18.5134 9.17507Z" fill="#AA5323"/>
<path d="M18.251 8.90784C18.251 8.90784 18.4808 8.8844 18.5136 9.00161C18.5136 9.00161 19.0059 8.65936 19.1231 8.5187C19.2356 8.37805 19.0809 8.45776 19.3622 8.27491C19.8226 7.96877 20.2744 7.64984 20.7171 7.31849C20.8484 7.20128 21.1062 7.04656 21.3078 6.90591C21.5141 6.76995 22.3065 6.38082 22.2174 6.06201L21.5047 6.53553C21.3735 6.62461 21.3172 6.57304 21.1859 6.67618C21.0453 6.78401 20.7546 6.9903 20.703 7.06063C20.4745 7.25833 20.235 7.44303 19.9857 7.61385C19.7654 7.7545 19.2825 8.04049 19.0434 8.24678L18.2463 8.90315L18.251 8.90784Z" fill="#AA5323"/>
<path d="M17.5337 8.84221C17.5337 8.84221 17.6463 8.84221 17.6885 8.88909C17.6885 8.88909 17.8994 8.69687 18.1292 8.88909C18.1292 8.88909 18.9731 8.31242 19.0575 8.17177C19.1418 8.03112 19.2825 8.02643 19.606 7.78733C19.9342 7.54822 20.1405 7.44508 20.3561 7.28098C20.5765 7.10752 20.764 6.91529 20.9187 6.81215C21.0734 6.71369 21.472 6.45115 21.4063 6.23079C21.4063 6.23079 21.0828 6.40895 20.8765 6.63868C20.6656 6.8731 20.689 6.67619 20.4733 6.86372C20.2266 7.09321 19.9526 7.2916 19.6576 7.45445C19.3856 7.59042 19.5497 7.57635 19.3481 7.70294C19.1559 7.82952 19.17 7.81077 19.095 7.82952C18.9978 7.85388 18.9098 7.90601 18.8418 7.97955C18.6938 8.10556 18.5317 8.21411 18.3589 8.30305C18.066 8.45821 17.7882 8.64027 17.5291 8.84689L17.5337 8.84221Z" fill="#AA5323"/>
<path d="M17.7822 8.4062C17.7822 8.4062 17.74 8.31243 17.8197 8.24211C17.8994 8.17647 18.0541 7.99831 18.0728 7.89048C18.0963 7.77327 18.0775 7.79671 18.3073 7.69826C18.9847 7.41459 19.6267 7.05269 20.2201 6.61994C20.3139 6.54492 20.5483 6.38552 20.6374 6.3105C20.6374 6.3105 20.6796 6.4324 20.5764 6.52148C20.2318 6.78936 19.8718 7.03671 19.4981 7.26224C19.3903 7.32319 19.123 7.45915 19.0246 7.54354C18.9308 7.61855 18.9449 7.642 18.5135 7.85297C18.0869 8.05926 18.0681 8.08739 18.0775 8.10146C18.0916 8.12021 18.2838 8.03582 18.3776 7.97956C18.4713 7.92799 18.8183 7.76389 18.9261 7.6795C19.0339 7.59511 19.2074 7.46853 19.2824 7.42633C19.3574 7.38883 19.9857 7.00438 20.1732 6.86842C20.3514 6.73714 20.4029 6.69495 20.4405 6.71839C20.478 6.74183 20.5436 6.73714 20.4639 6.81216C20.3842 6.88717 20.1263 7.12159 20.0279 7.18723C19.9294 7.24818 19.62 7.43102 19.5356 7.47322C19.4512 7.5201 19.4184 7.5998 19.3668 7.63731C19.3199 7.67482 19.1793 7.76858 19.0105 7.80609C18.8417 7.8436 18.8136 7.97487 18.7011 8.04988C18.5886 8.12021 17.7962 8.54685 17.7728 8.5656C17.7728 8.5656 17.8197 8.51872 17.7868 8.4062H17.7822Z" fill="#AA5323"/>
<path d="M20.5249 6.62427C20.5249 6.62427 20.4827 6.66176 20.5061 6.68519C20.5342 6.71799 20.6467 6.79297 20.7873 6.65707C20.9835 6.47279 21.1934 6.30361 21.4152 6.15097C21.5277 6.08068 21.5886 6.01508 21.5839 5.91667C21.5839 5.91667 21.0169 6.22127 20.5249 6.62427ZM21.3074 6.57741C21.3074 6.57741 21.3918 6.42745 21.6073 6.29156C21.8229 6.15097 22.1462 5.95416 22.1837 5.9073C22.1837 5.9073 22.2587 5.99165 22.0947 6.09943L21.5605 6.45088C21.4852 6.50811 21.3991 6.54955 21.3074 6.57272V6.57741Z" fill="#AA5323"/>
<path d="M16.957 8.1577C16.957 8.1577 16.7226 8.28429 16.807 8.36399C16.8914 8.439 17.018 8.41556 17.0742 8.39212C17.1211 8.37337 17.2243 8.34524 17.2383 8.34524C17.2524 8.34055 17.4587 8.2796 17.515 8.18114C17.5618 8.08738 17.7025 7.97486 17.815 7.89984C17.9244 7.81545 17.9697 7.742 17.951 7.67949C17.951 7.67949 17.0133 8.12019 16.957 8.1577ZM15.5412 9.25478C15.5412 9.25478 15.7099 9.15632 15.9397 9.21727C15.9397 9.21727 15.9303 9.1657 15.8928 9.13288C15.8928 9.13288 16.1741 9.06255 16.235 8.93597C16.296 8.80938 16.31 8.8422 16.3616 8.80469C16.4132 8.76719 16.7929 8.46244 16.7508 8.39681C16.7039 8.33117 16.6992 8.24678 16.6664 8.21396C16.6664 8.21396 16.5913 8.32179 16.221 8.49526C15.8553 8.67811 15.4474 8.80938 15.1473 9.20789C14.8473 9.6064 14.8848 9.84082 15.2458 9.94396C15.2458 9.94396 15.499 9.78456 16.1225 9.83613C16.7461 9.89708 16.957 10.1268 16.9992 10.169C17.0367 10.2159 17.1633 10.3659 17.0414 10.6285C17.0414 10.6285 17.168 10.68 17.1727 10.5628C17.1868 10.4409 17.1915 10.4691 17.2196 10.4831C17.2524 10.5066 17.2852 10.5066 17.2665 10.4175C17.2571 10.3237 17.2196 10.1221 17.1539 10.0518C17.1024 9.98147 17.168 10.0143 17.2008 10.0237C17.2383 10.0424 17.3696 10.1503 17.2946 9.94865C17.2149 9.76112 17.1915 9.85488 17.1868 9.85957C17.1868 9.87364 17.1727 9.92052 16.9992 9.79394C16.8673 9.6926 16.718 9.61632 16.5585 9.5689C16.446 9.54077 16.5257 9.54077 16.596 9.51732C16.6664 9.49388 16.7508 9.47982 16.7836 9.40011C16.7836 9.40011 16.7179 9.41887 16.596 9.37198C16.4985 9.34334 16.3956 9.33775 16.2956 9.35565C16.1955 9.37355 16.1009 9.41445 16.0194 9.47513C16.0194 9.47513 16.0803 9.24071 15.8975 9.25478C15.7146 9.26884 15.588 9.26415 15.3911 9.41887C15.3911 9.41887 15.3818 9.18445 15.5646 9.06255C15.7474 8.94066 15.724 9.01567 15.8271 8.98285C15.9303 8.95003 15.9397 8.85158 15.8928 8.81407C15.8928 8.81407 16.1366 8.86095 16.5398 8.52339C16.5398 8.52339 16.3194 8.80469 16.0569 8.86564C16.0569 8.86564 16.0147 9.02036 15.7756 9.05318C15.5412 9.08131 15.5458 9.22196 15.5458 9.25478H15.5412Z" fill="#7B3C20"/>
<path d="M14.8565 10.6422C14.8565 10.6422 14.969 9.93455 15.6344 9.88301C16.2061 9.83615 16.3935 9.91112 16.506 9.94861C16.6185 9.9861 16.9043 10.0658 16.7918 10.1595C16.6841 10.2485 16.6231 10.2345 16.6231 10.2345C16.6231 10.2345 16.745 10.0939 16.6325 10.0658C16.5154 10.047 16.5107 10.1126 16.4919 10.1689C16.4732 10.2345 16.4732 10.3001 16.4123 10.3469C16.4123 10.3469 16.356 10.2813 16.2717 10.3376C16.1873 10.3938 16.2623 10.3985 16.2951 10.3891C16.3279 10.3797 16.3701 10.361 16.3607 10.4172C16.3514 10.4641 16.3092 10.5578 16.1733 10.6281C16.0327 10.6937 16.0374 10.6937 15.8781 10.7218C15.714 10.7452 15.5641 10.8109 15.3579 10.9842C15.147 11.167 14.9221 11.1061 14.8752 10.9093C14.8377 10.7359 14.8565 10.6422 14.8565 10.6422Z" fill="#5A3719"/>
<path d="M15.6113 10.6141C15.6113 10.6141 15.6722 10.4735 15.5644 10.4126C15.5644 10.4126 15.2176 10.4735 15.1099 10.3704C15.1099 10.3704 15.4847 10.347 15.7191 10.2532C15.9534 10.1689 15.8878 10.1033 15.8081 10.0845C15.7284 10.0658 15.5738 10.108 15.5597 10.1783C15.5597 10.1783 15.5129 10.108 15.5738 10.0517C15.6394 10.0018 15.7175 9.98926 15.8081 10.0143C15.8924 10.0377 15.9627 10.0752 16.2345 9.93459C16.2345 9.93459 16.3938 9.97208 16.3985 10.0752C16.3985 10.183 16.3892 10.2251 16.3704 10.2392C16.361 10.2642 16.3407 10.2798 16.3095 10.286C16.2767 10.286 16.2298 10.2767 16.1923 10.347C16.1549 10.4219 16.1267 10.4876 16.0565 10.5344C16.0565 10.5344 16.1361 10.3048 15.9346 10.2532C15.9346 10.2532 15.7706 10.347 15.6441 10.3563C15.6441 10.3563 15.8081 10.5063 15.6066 10.6141H15.6113Z" fill="black"/>
<path d="M15.9724 10.1924C15.9724 10.1924 15.8974 10.1127 15.9958 10.0987C16.0989 10.0987 16.2301 10.169 16.202 10.2346C16.1739 10.3002 16.0614 10.2908 15.9724 10.1924Z" fill="#5A3719"/>
<path d="M21.6453 9.08131C21.6453 9.08131 21.4578 9.13288 21.6312 9.25009C21.8 9.36261 21.8844 9.46107 22.0063 9.4892C22.1329 9.52201 22.2595 9.56421 22.2595 9.6908C22.2595 9.81738 22.2313 9.86426 22.1657 9.94866C22.0954 10.0377 22.2032 10.0706 22.2923 10.0237L22.5173 9.91584C22.5736 9.87833 22.672 9.88302 22.5877 9.9299C22.4939 9.97679 22.4001 10.0049 22.5173 10.0049C22.6298 10.0096 23.3284 10.0237 23.4738 9.97679C23.6191 9.9299 23.8113 9.91584 23.8254 9.7283C23.8254 9.7283 23.8348 9.64391 23.8863 9.60641C23.9379 9.5689 23.9801 9.4892 23.9004 9.54077C23.816 9.60328 23.7644 9.62672 23.7457 9.61109C23.7316 9.59234 23.7222 9.58296 23.7832 9.55483C23.8394 9.5267 23.8723 9.55483 23.9238 9.47982C23.9801 9.39543 23.9754 9.40949 23.9473 9.37668C23.9191 9.34855 23.8535 9.32979 23.8863 9.29229C23.9191 9.25478 23.9473 9.13757 23.8207 9.19852C23.6941 9.26884 23.4409 9.44231 23.319 9.47044C23.2065 9.49857 23.1174 9.53139 22.9627 9.56421C22.8144 9.5943 22.6719 9.64813 22.5408 9.72361C22.372 9.81738 22.3861 9.66735 22.4142 9.6486C22.4142 9.6486 22.4798 9.76581 22.6486 9.61578C22.8174 9.47044 22.7611 9.60641 23.1784 9.47044C23.5956 9.33448 23.4925 9.31104 23.6519 9.23134C23.8207 9.14695 23.9707 9.13757 23.8582 9.02505C23.741 8.91253 23.7316 8.90315 23.5863 9.02505C23.3524 9.19976 23.0783 9.31264 22.7893 9.35323C22.7893 9.35323 23.7269 8.95004 23.6332 8.89378C23.5506 8.83896 23.4606 8.79633 23.3659 8.76719C23.3003 8.74844 23.2815 8.73437 23.1315 8.8047C22.9815 8.87033 22.958 8.8844 22.9158 8.88909C22.869 8.88909 22.7424 8.91722 22.5642 9.01098C22.3861 9.10475 22.2923 9.14226 22.1657 9.21258C22.1657 9.21258 22.2501 9.0438 22.6252 8.93128C22.9909 8.82345 23.1784 8.725 23.1409 8.70624C23.1034 8.68749 23.0049 8.66405 22.9393 8.6828C22.869 8.69218 22.8924 8.67342 22.658 8.76719C22.4376 8.85158 22.5314 8.83283 22.3532 8.87502C22.1657 8.91253 22.0954 8.95004 22.0063 8.98754C22.0063 8.98754 22.0438 8.94066 22.1657 8.89378C22.2313 8.87502 22.0954 8.84689 22.2735 8.8422H22.3204C22.4711 8.8102 22.6164 8.7565 22.7517 8.6828C22.7142 8.67342 22.4986 8.64998 22.2735 8.75781C22.0532 8.85627 22.1516 8.82345 22.0766 8.83283C22.0016 8.85158 21.8328 8.95472 21.7766 9.00161C21.7203 9.04849 21.6453 9.08131 21.6453 9.08131Z" fill="white"/>
<path d="M16.146 10.094C16.146 10.094 16.235 10.1221 16.2584 10.183C16.2819 10.2439 16.3334 10.1549 16.3334 10.1268C16.3334 10.0987 16.2772 9.97682 16.1835 10.033C16.0897 10.0893 16.1366 10.0893 16.146 10.094Z" fill="#5A3719"/>
<path d="M15.9067 11.303C15.9067 11.303 16.0895 11.2187 16.2488 11.2281C16.2488 11.2281 16.1832 11.0078 16.2957 11.0406C16.4034 11.0828 16.3706 11.0687 16.3941 11.0687C16.3941 11.0687 16.4034 10.9235 16.3706 10.8625C16.3706 10.8625 16.4878 10.8907 16.6003 10.8907C16.6003 10.8907 16.4925 10.6845 16.6096 10.5392C16.6303 10.5815 16.6598 10.619 16.6962 10.6489C16.7326 10.6788 16.775 10.7005 16.8205 10.7126V10.5907C16.8205 10.5907 16.9049 10.5814 16.9751 10.6142C17.0407 10.6517 17.097 10.2393 16.8955 10.1456C16.8955 10.1456 16.8486 10.2252 16.6612 10.2627C16.4737 10.3002 16.4737 10.3377 16.3988 10.483C16.3238 10.6282 16.2582 10.6235 16.0942 10.7266C15.9821 10.8127 15.8935 10.9255 15.8364 11.0547C15.8364 11.0547 15.9161 11.1484 15.9067 11.303Z" fill="#7B3C20"/>
<path d="M22.1657 8.89379C22.2313 8.88441 22.0954 8.84691 22.2735 8.84222H22.3204C22.4711 8.81021 22.6164 8.75652 22.7517 8.68281C22.7142 8.67344 22.4986 8.65 22.2735 8.75314C22.0485 8.85628 22.1516 8.82346 22.0766 8.83753C21.9682 8.87515 21.8668 8.93061 21.7766 9.00162C21.7203 9.04851 21.6453 9.08132 21.6453 9.08132C21.6453 9.08132 21.4578 9.1329 21.6312 9.2501C21.8 9.36263 21.8844 9.46108 22.0063 9.48921C22.1329 9.52203 22.2595 9.56422 22.2595 9.69081C22.2634 9.73801 22.257 9.7855 22.2408 9.83001C22.2246 9.87452 22.199 9.915 22.1657 9.94867C22.0954 10.0377 22.2032 10.0706 22.2923 10.0237L22.5173 9.91585C22.5736 9.87834 22.672 9.88303 22.583 9.92992C22.4892 9.9768 22.4001 10.0049 22.5173 10.0049C22.6298 10.0096 23.3284 10.0237 23.4738 9.9768C23.6191 9.92992 23.8113 9.91585 23.8254 9.72832C23.8254 9.72832 23.8348 9.64393 23.8863 9.60642C23.9379 9.56891 23.9801 9.48921 23.9004 9.54078C23.816 9.60329 23.7644 9.62674 23.7457 9.61111C23.7316 9.59235 23.7222 9.58298 23.7832 9.55485C23.8394 9.52672 23.8723 9.55485 23.9238 9.47983C23.9801 9.39544 23.9754 9.40951 23.9473 9.37669C23.9254 9.36419 23.9082 9.35012 23.8957 9.3345C23.8957 9.3345 23.8488 9.29699 23.8019 9.32981C23.6928 9.38921 23.5761 9.43338 23.455 9.46108C23.3706 9.47046 23.2768 9.50796 23.1268 9.58298C22.9768 9.65799 22.7142 9.8174 22.672 9.66737L22.5408 9.72363C22.3673 9.81271 22.3814 9.68612 22.4142 9.64861C22.4142 9.64861 22.3204 9.75176 22.3251 9.66268C22.3251 9.56891 22.3861 9.58298 22.4892 9.55485C22.5877 9.52203 22.7471 9.46108 22.6814 9.40482C22.6158 9.35325 22.5455 9.46108 22.4751 9.4939C22.4048 9.52672 22.2548 9.55485 22.2313 9.44702C22.2079 9.33918 22.2079 9.26886 22.0157 9.25948C21.8188 9.2501 21.8235 9.12352 21.875 9.07195C21.936 9.02038 21.9782 8.9313 22.1657 8.89379Z" fill="#999999"/>
<path d="M22.7938 9.8454C22.7938 9.8454 23.0984 9.70951 23.3796 9.6439C23.6608 9.5783 23.4405 9.65327 23.3936 9.66733C23.3468 9.68139 22.9063 9.82666 22.8032 9.87821C22.7001 9.92507 22.7188 9.88289 22.7938 9.85478V9.8454ZM22.8594 9.91569C22.8594 9.91569 23.2062 9.79854 23.2718 9.8454C23.3374 9.89226 23.2812 9.87352 23.2062 9.88289C23.1312 9.89226 22.925 9.92975 22.8688 9.92975C22.8126 9.92975 22.8594 9.91569 22.8594 9.91569ZM23.4171 9.79386C23.4171 9.79386 23.4827 9.7798 23.4874 9.80791C23.4874 9.82978 23.4655 9.83759 23.4218 9.83135C23.3843 9.82197 23.3562 9.80323 23.4171 9.79386Z" fill="black"/>
<path d="M14.3128 12.7992C14.3128 12.7992 14.2987 12.4944 14.4534 12.3397C14.6082 12.185 15.3442 11.4161 15.4568 11.2005C15.4568 11.2005 15.5505 11.2661 15.5552 11.388C15.5552 11.388 15.6818 11.177 15.7802 11.0926C15.7802 11.0926 15.8693 11.1864 15.8553 11.3645C15.8553 11.3645 16.0334 11.2708 16.31 11.2708C16.31 11.2708 16.2022 11.3833 16.2022 11.4583C16.2022 11.4583 16.582 11.4114 16.7882 11.4489C16.7882 11.4489 16.2585 11.7396 16.4038 11.7677C16.5585 11.7959 16.7085 11.7677 16.7085 11.7677C16.7085 11.7677 16.5398 11.9365 16.2725 11.9693C16.2725 11.9693 16.6148 11.9693 16.6851 12.0444C16.6851 12.0444 16.3522 12.0912 16.085 12.2975C16.085 12.2975 16.0569 12.2835 16.0569 12.2085C16.0569 12.2085 16.0475 12.2788 15.9725 12.3444C15.8975 12.4101 15.7146 12.5413 15.6443 12.6117C15.5786 12.6773 15.4568 12.8133 15.3161 12.8086C15.3161 12.8086 15.3442 12.7007 15.2458 12.6679C15.1945 12.6507 15.1394 12.6487 15.0871 12.662C15.0347 12.6753 14.9872 12.7034 14.9504 12.7429C14.9504 12.7429 14.5941 12.7523 14.4769 12.7664C14.4769 12.7664 14.5566 12.6398 14.6316 12.6398C14.7066 12.6398 15.0067 12.6867 15.0348 12.4804C15.0582 12.2788 14.8426 12.3303 14.9223 12.2131C15.0067 12.0912 14.9879 12.0959 14.9926 12.0819C14.9926 12.0819 14.9223 12.1194 14.8848 12.2272C14.8536 12.3497 14.7785 12.4565 14.6738 12.5273C14.5742 12.5898 14.4907 12.6749 14.43 12.7757C14.43 12.7757 14.3644 12.7851 14.3081 12.7992H14.3128Z" fill="white"/>
<path d="M14.655 12.6115C14.655 12.6115 14.6644 12.5787 14.7675 12.5553C14.8753 12.5365 14.8846 12.4897 14.8659 12.4615C14.8518 12.4475 14.7909 12.4475 14.8893 12.3257C14.8893 12.3257 14.9268 12.3397 14.9503 12.3678C14.9737 12.3959 15.0908 12.6396 14.655 12.6162V12.6115Z" fill="white"/>
<path d="M14.4066 12.4007C14.4066 12.6023 14.6738 12.5273 14.6738 12.5273C14.603 12.5772 14.5384 12.6354 14.4816 12.7007C14.5003 12.607 14.3315 12.5788 14.3315 12.5788C14.3469 12.5158 14.3722 12.4557 14.4066 12.4007ZM15.3724 11.3224L15.4567 11.2005C15.4567 11.2005 15.5505 11.2661 15.5552 11.388C15.5552 11.388 15.6818 11.177 15.7802 11.0926C15.7802 11.0926 15.8693 11.1864 15.8553 11.3645C15.8553 11.3645 16.0334 11.2708 16.31 11.2708C16.31 11.2708 16.2022 11.3833 16.2022 11.4583C16.2022 11.4583 16.582 11.4114 16.7882 11.4489C16.7882 11.4489 16.2585 11.7396 16.4038 11.7677C16.5585 11.7959 16.7085 11.7677 16.7085 11.7677C16.7085 11.7677 16.5398 11.9365 16.2725 11.9693C16.2725 11.9693 16.6148 11.9693 16.6851 12.0444C16.6851 12.0444 16.582 12.0584 16.4507 12.1053C16.4507 12.1053 16.3569 12.0115 16.0709 12.0303C16.0709 12.0303 16.2913 11.9037 16.4694 11.8615C16.4694 11.8615 16.3944 11.7631 16.2678 11.8521C16.2678 11.8521 16.0287 11.688 16.2303 11.5474C16.2303 11.5474 16.0897 11.5193 15.9959 11.5849C15.9959 11.5849 15.9959 11.4677 16.0991 11.4208C16.0991 11.4208 15.8318 11.3739 15.7709 11.5708C15.7709 11.5708 15.7146 11.4911 15.7427 11.4021C15.7427 11.4021 15.5786 11.4958 15.5036 11.599C15.5036 11.599 15.4755 11.3974 15.3724 11.3224ZM14.8566 12.6023C14.8098 12.6148 14.7426 12.6195 14.655 12.6163C14.655 12.6163 14.6597 12.5882 14.7207 12.5695C14.7207 12.5695 14.7347 12.6023 14.852 12.6023" fill="#999999"/>
<path d="M15.344 11.8426C15.344 11.8426 15.4659 11.9363 15.5081 11.9926C15.5081 11.9926 15.6205 11.9176 15.658 11.852C15.658 11.852 15.7517 11.9082 15.7752 11.9926C15.7752 11.9926 15.8408 11.9551 15.8501 11.8988C15.8501 11.8988 16.0048 11.927 16.0563 11.9738C16.0563 11.9738 16.0798 11.8332 16.0563 11.7348C16.0563 11.7348 16.1641 11.7442 16.2297 11.7723C16.2297 11.7723 16.1688 11.6739 16.4781 11.5474C16.4781 11.5474 16.2438 11.5989 16.15 11.6973C16.15 11.6973 16.0563 11.7067 16.0095 11.6786V11.8988C16.0095 11.8988 15.9532 11.8707 15.8361 11.8426C15.8361 11.8426 15.808 11.8941 15.7892 11.9082C15.7892 11.9082 15.7096 11.8426 15.6814 11.7723C15.6814 11.7723 15.5643 11.8754 15.5268 11.9176C15.5268 11.9176 15.4143 11.8426 15.3394 11.8426H15.344Z" fill="black"/>
<path d="M14.6409 13.3708C14.6409 13.3708 14.6878 13.3943 14.8002 13.3005C14.9127 13.2068 15.236 13.0053 15.2642 12.8413C15.297 12.6773 15.1611 12.6679 15.058 12.7148C14.9549 12.7616 14.9971 12.8554 15.0017 12.8835C15.0017 12.9116 15.0111 13.0241 14.8377 13.1834L14.6362 13.3708H14.6409Z" fill="#FFC221"/>
<path d="M14.6032 13.4177C14.6032 13.4177 14.3454 13.31 14.5751 13.1975C14.8047 13.085 14.9078 13.0522 14.9359 12.9538C14.964 12.8601 14.9499 12.8742 14.8609 12.9116C14.7766 12.9538 14.4485 13.1038 14.4017 12.9632C14.4017 12.9632 14.5329 13.0147 14.7016 12.9351C14.8703 12.8554 15.0109 12.8273 14.9031 12.7945C14.7953 12.7617 14.4064 12.8039 14.3454 12.8226C14.2845 12.8413 14.2986 12.8367 14.2845 12.8976C14.2751 12.9632 14.2049 13.0991 14.1767 13.1319C14.1533 13.1741 14.083 13.3381 14.2049 13.4131C14.2657 13.4466 14.3339 13.4646 14.4034 13.4654C14.4729 13.4662 14.5415 13.4498 14.6032 13.4177Z" fill="#FFC221"/>
<path d="M14.5001 12.8601C14.5001 12.8601 14.4441 12.8694 14.4534 12.8927C14.4659 12.9083 14.4814 12.9145 14.5001 12.9114C14.5312 12.9083 14.5514 12.9005 14.5607 12.8881C14.5607 12.8694 14.5234 12.8508 14.5047 12.8601H14.5001Z" fill="black"/>
<path d="M14.5845 13.3616C14.5845 13.3616 14.4674 13.3054 14.6033 13.2304C14.7439 13.1554 14.8844 13.0805 14.9079 13.0523C14.9079 13.0523 14.8423 13.1461 14.5892 13.3616H14.5845Z" fill="white"/>
</g>
<defs>
<clipPath id="clip0_720_53484">
<rect width="24.0044" height="24.0044" fill="white" transform="translate(0.0131836)"/>
</clipPath>
</defs>
</svg>
