<svg width="25" height="24" viewBox="0 0 25 24" fill="none" xmlns="http://www.w3.org/2000/svg">
<g clip-path="url(#clip0_720_53412)">
<path d="M0.0175781 -2.28882e-05H24.0219V24.0043H0.0175781V-2.28882e-05Z" fill="#D0103A"/>
<path d="M0.0175781 -2.28882e-05H16.3424V24.0043H0.0175781V-2.28882e-05Z" fill="#FEDF00"/>
<path d="M0.0175781 -2.28882e-05H7.6971V24.0043H0.0175781V-2.28882e-05Z" fill="#0018A8"/>
<path d="M11.2835 8.12488C11.5742 8.12488 11.6914 8.37336 11.9821 8.37336C12.1603 8.37336 12.2634 8.3171 12.4181 8.22803C12.5306 8.16708 12.5963 8.13426 12.7229 8.13426C12.8494 8.13426 12.9291 8.17177 12.9948 8.2796C13.0364 8.35704 13.0528 8.44555 13.0417 8.53277C13.0205 8.64077 12.9874 8.74611 12.9432 8.84689C12.9198 8.90315 12.8963 8.94066 12.8963 9.0016C12.8963 9.15632 13.1026 9.20789 13.2433 9.21258C13.2761 9.21258 13.5386 9.21258 13.698 9.05318C13.609 9.05318 13.5105 8.98285 13.5105 8.89377C13.5105 8.8 13.5808 8.72968 13.6746 8.70155C13.6933 8.69686 13.7215 8.71093 13.7402 8.70155C13.7637 8.69217 13.7496 8.66404 13.773 8.64998C13.8199 8.61247 13.8481 8.58903 13.909 8.58903C13.9426 8.58687 13.9759 8.59686 14.0028 8.61716C14.0153 8.62966 14.0293 8.63904 14.045 8.64529C14.0919 8.64529 14.1106 8.61716 14.1528 8.61716C14.1841 8.61403 14.2122 8.62028 14.2372 8.63591C14.2653 8.64998 14.2653 8.69217 14.2935 8.69217C14.3075 8.69217 14.3825 8.66404 14.4247 8.66404C14.5044 8.66404 14.5513 8.69217 14.6029 8.75781C14.6169 8.77187 14.6263 8.80469 14.6404 8.80469C14.6776 8.80753 14.7136 8.81922 14.7455 8.83879C14.7773 8.85836 14.8039 8.88525 14.8232 8.91721C14.8326 8.93128 14.8467 8.96879 14.8654 8.97816C14.8811 8.97816 14.9014 8.98598 14.9264 9.0016C14.9575 9.02145 14.9834 9.04835 15.0022 9.08012C15.0209 9.11189 15.0319 9.14764 15.0342 9.18445L15.0155 9.26415C14.9451 9.50795 14.7764 9.59234 14.6076 9.79862C14.5326 9.89239 14.4763 9.96272 14.4763 10.0799C14.4763 10.1081 14.5138 10.1596 14.5232 10.1831C14.5185 10.1268 14.5419 10.0612 14.5982 10.0565C14.6826 10.0627 14.7326 10.1065 14.7482 10.1878L14.7388 10.2581C14.7826 10.2268 14.8326 10.2096 14.8889 10.2065H14.9592C15.0867 10.2158 15.2081 10.265 15.3061 10.3472C15.3961 10.4247 15.4677 10.5213 15.5155 10.63C15.5634 10.7387 15.5864 10.8567 15.5827 10.9754C15.5499 11.177 15.5687 11.5333 15.067 11.6787C15.1639 11.7193 15.2155 11.7834 15.2217 11.8709C15.2217 11.9646 15.1514 12.049 15.0577 12.049C15.0089 12.0496 14.9618 12.0311 14.9264 11.9975C14.8232 12.1006 14.7998 12.2084 14.7998 12.3585C14.7998 12.4475 14.8185 12.4991 14.8561 12.5788C14.8827 12.6568 14.9316 12.7252 14.9967 12.7757C15.028 12.7163 15.0748 12.6851 15.1374 12.682C15.2092 12.6788 15.2608 12.7054 15.2921 12.7617L15.3014 12.8085C15.314 12.8273 15.3296 12.8445 15.3483 12.8601C15.3624 12.8976 15.3483 12.9258 15.3624 12.9633C15.3749 12.982 15.3905 12.9976 15.4093 13.0101C15.4233 13.0523 15.428 13.0758 15.428 13.118C15.428 13.2305 15.3249 13.3055 15.2124 13.3055L15.1233 13.3008C15.1889 13.3618 15.2358 13.3946 15.2874 13.4696C15.3624 13.5834 15.4001 13.7178 15.3952 13.854C15.3952 14.0228 15.3671 14.126 15.2921 14.276C15.2361 14.4047 15.1451 14.5152 15.0295 14.5948C14.8521 14.7216 14.6458 14.8021 14.4294 14.8292C14.27 14.862 14.1809 14.8761 14.0168 14.8855L13.4871 14.9136C13.2198 14.9324 13.0323 14.9699 12.8401 15.1621C12.9338 15.2277 12.9948 15.2934 12.9948 15.4059C12.9917 15.5215 12.9307 15.5997 12.8119 15.6403C12.7869 15.6403 12.765 15.6434 12.7463 15.6497C12.7182 15.6638 12.7182 15.6966 12.69 15.7153C12.6483 15.7424 12.5991 15.7556 12.5494 15.7528C12.4462 15.7528 12.3806 15.7294 12.3056 15.6591C12.2259 15.7247 12.1978 15.7857 12.104 15.8419C12.0759 15.8607 12.0493 15.8732 12.0243 15.8794C11.968 15.8794 11.9399 15.8466 11.8977 15.8138C11.8347 15.7701 11.7779 15.7181 11.7289 15.6591C11.6445 15.7106 11.593 15.7528 11.4945 15.7528C11.4427 15.7552 11.3916 15.7404 11.3492 15.7106C11.321 15.6966 11.3163 15.6684 11.2882 15.6544C11.2601 15.6356 11.2413 15.645 11.2085 15.6309C11.0897 15.5841 11.0272 15.4981 11.021 15.3731C11.021 15.2652 11.0913 15.1949 11.1898 15.1527C11.0022 14.9652 10.8147 14.9324 10.5521 14.9183C10.3459 14.8996 10.224 14.8996 10.0224 14.8855C9.86296 14.8761 9.76919 14.8574 9.60979 14.8339C9.48789 14.8152 9.41756 14.8058 9.30504 14.7542C8.9206 14.5761 8.67681 14.3323 8.62523 13.9103V13.8165C8.62523 13.5962 8.70962 13.4649 8.85965 13.3102L8.75651 13.3008C8.66274 13.2633 8.59241 13.1977 8.59241 13.0945C8.58929 13.0602 8.59554 13.0289 8.61117 13.0008C8.62523 12.9726 8.64867 12.968 8.65805 12.9445C8.65805 12.9133 8.66274 12.882 8.67212 12.8507C8.68149 12.8273 8.70025 12.8273 8.70962 12.8039C8.74244 12.7335 8.78464 12.6773 8.86434 12.6773C8.92685 12.6804 8.97373 12.7117 9.00499 12.771C9.07063 12.7382 9.08938 12.6913 9.12689 12.6304C9.18784 12.5272 9.21128 12.4569 9.21128 12.3397C9.21452 12.2694 9.20335 12.1992 9.17846 12.1334C9.1597 12.0772 9.15502 12.0397 9.11282 11.9928C9.0782 12.0281 9.03101 12.0483 8.98155 12.049C8.87372 12.049 8.79401 11.9553 8.79401 11.8474C8.79401 11.7662 8.83152 11.7083 8.90653 11.674C8.84559 11.6271 8.79401 11.6177 8.73306 11.5802C8.63461 11.5146 8.5971 11.4536 8.53615 11.3552C8.48927 11.2895 8.47989 11.2473 8.46114 11.177C8.43385 11.1018 8.41958 11.0226 8.41895 10.9426V10.8816C8.44708 10.6988 8.47989 10.5816 8.5971 10.4362C8.65055 10.3564 8.72525 10.2931 8.81277 10.2534C8.90661 10.2049 9.01222 10.1837 9.11751 10.1924C9.15814 10.1956 9.19409 10.2065 9.22534 10.2253C9.23941 10.2346 9.26754 10.2581 9.26754 10.2393L9.25816 10.1924C9.25816 10.1127 9.31442 10.0424 9.38943 10.0424C9.44569 10.0424 9.46914 10.0893 9.49727 10.1362C9.51602 10.1112 9.5254 10.0846 9.5254 10.0565C9.5254 9.92521 9.45507 9.85957 9.37537 9.76112C9.2019 9.54076 8.98155 9.43762 8.98155 9.16101C8.98155 9.07974 9.01905 9.01723 9.09407 8.97347L9.16439 8.9641L9.18784 8.91253C9.20314 8.88775 9.22401 8.86688 9.24878 8.85158C9.28629 8.81407 9.3238 8.82813 9.36599 8.79532C9.38475 8.78281 9.40037 8.76406 9.41288 8.73906C9.45351 8.6828 9.50977 8.65467 9.58166 8.65467C9.61291 8.65467 9.64417 8.65935 9.67542 8.66873C9.68949 8.66873 9.71293 8.69217 9.71762 8.68748L9.76919 8.6406C9.80201 8.62654 9.81607 8.62185 9.85358 8.62185C9.89109 8.62185 9.91922 8.64529 9.96141 8.64529C9.97392 8.64216 9.98486 8.63435 9.99423 8.62185C10.0317 8.5984 10.0505 8.58434 10.0974 8.58434C10.1443 8.58434 10.163 8.5984 10.2005 8.62185C10.2333 8.6406 10.238 8.66873 10.2755 8.69217L10.3318 8.70624C10.4256 8.73437 10.5006 8.8 10.5006 8.90315C10.5037 8.95628 10.4865 9.00004 10.449 9.03442C10.4162 9.06255 10.3834 9.05786 10.3412 9.07193C10.4604 9.16693 10.611 9.21377 10.7631 9.2032C10.9272 9.2032 11.1194 9.14225 11.1194 8.98285C11.1194 8.90784 11.0772 8.87033 11.0491 8.80469C10.997 8.7048 10.9697 8.59386 10.9694 8.4812C10.9694 8.37805 10.9788 8.3171 11.0397 8.23271C11.1007 8.14364 11.1804 8.12488 11.2835 8.12488Z" fill="#C7B37F"/>
<path d="M10.2334 8.96396C10.2428 9.0077 10.274 9.03894 10.3271 9.05768C10.353 9.06321 10.38 9.0613 10.4048 9.05218C10.4297 9.04306 10.4515 9.0271 10.4677 9.00613C10.5052 8.95927 10.5005 8.89835 10.4911 8.85149C10.4779 8.81761 10.4551 8.7883 10.4255 8.76714L10.2334 8.96396Z" stroke="#703D29" stroke-width="0.0234418" stroke-linejoin="round"/>
<path d="M15.0574 11.8567C15.0105 11.7489 14.8981 11.7958 14.8887 11.8567C14.8746 11.9973 14.9965 12.0347 15.0808 12.0113C15.1245 11.9988 15.1558 11.9754 15.1745 11.941C15.1995 11.8973 15.2042 11.8504 15.1886 11.8004L15.1558 11.7395L15.1089 11.6927C15.0777 11.6739 15.0355 11.6661 14.9824 11.6692C14.7762 11.6692 14.5935 11.9176 14.5325 12.1753C14.4991 12.3231 14.496 12.4761 14.5232 12.6252C14.5546 12.784 14.631 12.9304 14.7434 13.0469C14.848 13.1481 14.9748 13.2235 15.1136 13.2672C15.1667 13.2828 15.2151 13.2828 15.2589 13.2672C15.3854 13.2438 15.4416 13.1266 15.3807 13.0095C15.3292 12.9157 15.1792 12.8595 15.1089 12.9813L15.0902 13.0423C15.0902 13.0797 15.1027 13.1079 15.1277 13.1266C15.1839 13.1641 15.2683 13.1547 15.2683 13.0563" stroke="#703D29" stroke-width="0.0234418" stroke-linecap="round"/>
<path d="M14.4106 13.2773C14.4746 13.203 14.5624 13.1533 14.6591 13.1367C14.7685 13.1304 14.8716 13.1554 14.9685 13.2117C15.0893 13.2687 15.1914 13.359 15.2628 13.4719C15.3342 13.5848 15.372 13.7157 15.3717 13.8493C15.3717 13.99 15.3342 14.1306 15.3014 14.2056C15.2686 14.2666 15.1842 14.5385 14.7247 14.7307C14.4136 14.8272 14.0893 14.8746 13.7636 14.8714C13.3698 14.8901 13.0135 14.9042 12.8025 15.1621" stroke="#703D29" stroke-width="0.0328185"/>
<path d="M14.5086 13.718C14.4992 13.6774 14.5102 13.6352 14.5414 13.5915C14.5883 13.5305 14.6774 13.5118 14.7618 13.5586C14.793 13.5711 14.8243 13.5977 14.8555 13.6383L14.9024 13.6946L14.9399 13.7884C15.0337 14.0509 14.8837 14.3369 14.6961 14.4494C14.5461 14.5432 14.3679 14.5807 14.157 14.6041L13.9085 14.6182H13.2802L12.9989 14.6463L12.7927 14.6838L12.7223 14.7026L12.6754 14.7167C12.5488 14.7522 12.4275 14.8042 12.3144 14.8714C12.2801 14.8901 12.2488 14.912 12.2207 14.937L12.1691 14.9839C12.0988 15.0495 12.0238 15.1246 12.005 15.2324V15.2933C12.005 15.359 12.0566 15.4527 12.2066 15.4809M12.4129 9.10002C12.4442 9.15003 12.4535 9.19847 12.441 9.24536C12.4223 9.31412 12.3785 9.35006 12.3098 9.35319C12.1597 9.35319 12.0753 9.17503 12.141 9.06251C12.2582 8.86091 12.4879 8.97343 12.7036 9.07189C12.6895 9.02501 12.6708 9.00625 12.6754 8.94062C12.6754 8.7859 12.7973 8.71557 12.8442 8.56555C12.8724 8.48116 12.8817 8.40614 12.8161 8.34519C12.7645 8.28893 12.6989 8.29362 12.6286 8.32175C12.4832 8.37801 12.3098 8.53742 12.005 8.54211C11.7003 8.54211 11.5221 8.37801 11.3768 8.32175C11.3064 8.29362 11.2408 8.28893 11.1892 8.34519C11.1236 8.40614 11.133 8.48585 11.1611 8.57024C11.208 8.71089 11.3252 8.7859 11.3299 8.9453C11.3299 9.00625 11.3158 9.02032 11.3018 9.07189C11.5174 8.97812 11.7565 8.85154 11.8644 9.06251C11.9253 9.17972 11.8456 9.35319 11.6956 9.35319C11.6268 9.34694 11.5831 9.31099 11.5643 9.24536C11.5487 9.19222 11.5581 9.14378 11.5924 9.10002" stroke="#703D29" stroke-width="0.0281301"/>
<path d="M11.8175 8.99688C11.88 9.03749 11.9097 9.09997 11.9066 9.18432C11.9019 9.27804 11.8738 9.30147 11.8035 9.35302M11.8925 9.21244C11.8925 9.26867 11.8644 9.30772 11.8082 9.32959" stroke="#703D29" stroke-width="0.0281301" stroke-linecap="round"/>
<path d="M10.3974 8.74839L10.4208 8.76714L10.4489 8.79994L10.4676 8.83743L10.477 8.86555V8.93584L10.4676 8.96864L10.4489 8.99207L10.4302 9.0155L10.3974 9.02956L10.3552 9.03893L10.3224 9.0483L10.2849 9.02956L10.2474 9.00613L10.2287 8.97333L10.2146 8.93584V8.92178L10.3974 8.74839Z" fill="#C7B37F"/>
<path d="M10.3411 8.89364C10.327 8.83272 10.2567 8.81866 10.2286 8.85615C10.1817 8.91239 10.2145 9.00611 10.3036 9.03422C10.3295 9.03975 10.3564 9.03784 10.3813 9.02872C10.4062 9.0196 10.428 9.00364 10.4442 8.98268C10.4754 8.92957 10.4832 8.87958 10.4676 8.83272C10.4582 8.80148 10.4363 8.77493 10.402 8.75306C10.2989 8.6734 10.1349 8.69214 10.0833 8.82335C10.013 8.99205 10.163 9.11857 10.3036 9.21229C10.4816 9.32945 10.6785 9.35288 10.8331 9.35288C11.1752 9.34819 11.4376 9.18418 11.6063 9.09046C11.6469 9.06859 11.6797 9.07171 11.7047 9.09983C11.7297 9.13107 11.7266 9.16543 11.6953 9.20292" stroke="#703D29" stroke-width="0.0234418" stroke-linecap="round"/>
<path d="M9.31891 13.5493L9.24393 13.5727L9.16427 13.6336L9.13147 13.6805L9.08929 13.7555L9.07055 13.8117L9.05649 13.882L9.04712 13.9288M9.7594 13.5539V13.6196L9.74534 13.6664L9.71254 13.7461L9.66099 13.8164L9.60476 13.8632L9.5579 13.882L9.50167 13.896" stroke="#703D29" stroke-width="0.0234418"/>
<path d="M12.0101 15.3449C11.996 15.4058 11.9398 15.4761 11.8086 15.5042H11.7852" stroke="#703D29" stroke-width="0.0281301"/>
<path d="M15.1795 13.3617C15.2468 13.4277 15.3001 13.5065 15.3364 13.5935C15.3726 13.6805 15.391 13.7738 15.3905 13.8681C15.3858 13.9993 15.3529 14.1494 15.3154 14.2197C15.2826 14.2806 15.1982 14.5573 14.7388 14.7448C14.4277 14.8421 14.1036 14.8911 13.7777 14.8901C13.3932 14.9089 13.0369 14.923 12.8259 15.1714" stroke="#703D29" stroke-width="0.0328185"/>
<path d="M14.5513 13.6102C14.5794 13.568 14.6825 13.5212 14.7668 13.5633C14.8046 13.5811 14.837 13.6086 14.8606 13.643" stroke="#703D29" stroke-width="0.0234418"/>
<path d="M15.0811 13.2678L15.1326 13.2866C15.1817 13.3001 15.2335 13.3001 15.2826 13.2866C15.3857 13.2584 15.4559 13.16 15.3997 13.0288C15.384 12.9977 15.3616 12.9705 15.3341 12.9492" stroke="#703D29" stroke-width="0.0328185"/>
<path d="M9.02843 10.4917C8.95814 10.5386 8.90659 10.5479 8.85036 10.6089C8.80665 10.6902 8.77358 10.7768 8.75195 10.8666M10.4811 8.92656C10.4749 8.99217 10.4374 9.03278 10.3687 9.0484" stroke="#703D29" stroke-width="0.0234418" stroke-linecap="round"/>
<path d="M14.9124 10.2018C15.0904 10.2018 15.6059 10.3377 15.6106 10.9422C15.6153 11.5467 15.2357 11.6404 15.0904 11.6779" stroke="#703D29" stroke-width="0.0234418"/>
<path d="M14.9592 10.2018C15.264 10.1877 15.5781 10.4128 15.5922 10.9754C15.6062 11.4161 15.2921 11.613 15.1421 11.6552M14.7858 12.3162L14.7951 12.26L14.8139 12.1662L14.842 12.0865L14.8748 12.0256L14.9123 11.9787M15.2077 11.8521L15.203 11.9083L15.1843 11.9505L15.1608 11.988L15.128 12.0115L15.0811 12.0256H15.0108M14.4763 10.0424L14.4904 9.98143L14.5185 9.92048L14.5513 9.86422L14.617 9.78452L14.6639 9.72826L14.7436 9.64856L14.8139 9.57823L14.8608 9.52666L14.917 9.45634L14.9639 9.37663L14.9967 9.31569L15.0155 9.23129L15.0202 9.13284L15.0108 9.10002M14.5513 13.9103L14.6123 13.8962L14.6592 13.8728L14.6826 13.8493L14.7014 13.8165L14.7107 13.7696V13.7415M8.78467 13.282L8.82686 13.2867H8.88312L8.94407 13.2633M9.13161 11.8896L9.12223 11.9459L9.11285 11.9646L9.0941 11.988L9.07066 12.0068L9.04253 12.0209L9.00502 12.0256H8.98158M9.35665 11.4395L9.34258 11.5239L9.32383 11.5567L9.29101 11.6036L9.24413 11.6364L9.20193 11.6599L9.11754 11.6786M9.68952 10.1877L9.67546 10.2346L9.65201 10.2721L9.62388 10.3143L9.58638 10.3471L9.53949 10.3706L9.50199 10.3799H9.47386M9.48792 10.1455V10.183" stroke="#703D29" stroke-width="0.0234418"/>
<path d="M9.55328 11.4067L9.47827 11.4536M15.123 13.1274L15.1418 13.1368C15.1887 13.1696 15.2965 13.1274 15.2684 13.043" stroke="#703D29" stroke-width="0.0234418" stroke-linecap="round"/>
<path d="M14.9356 11.9881C14.9731 12.035 15.0481 12.049 15.1044 12.035C15.145 12.0225 15.1763 11.9975 15.1981 11.96C15.22 11.9225 15.2247 11.8756 15.2122 11.8193L15.1794 11.7584L15.1278 11.7068L15.1138 11.6974M15.3575 12.9726V12.9445C15.3575 12.9008 15.3419 12.8648 15.3107 12.8367C15.3013 12.8242 15.2903 12.8148 15.2778 12.8086M15.2966 12.8226C15.2966 12.7523 15.2356 12.7054 15.1653 12.6913M15.0106 12.7992C14.9919 12.7867 14.9762 12.7726 14.9637 12.757C14.8623 12.6486 14.804 12.5069 14.7996 12.3585C14.7996 12.2038 14.8606 12.0444 14.9309 11.9834M12.8165 15.1574L12.8868 15.0965L12.9337 15.059L13.0181 15.0074L13.1024 14.9652L13.1587 14.9511L13.2759 14.9277L13.4119 14.9042M12.3007 15.6309C12.2298 15.7349 12.1306 15.8162 12.0147 15.8654C11.8989 15.8162 11.7997 15.7349 11.7288 15.6309" stroke="#703D29" stroke-width="0.0234418"/>
<path d="M11.808 15.4762C11.794 15.533 11.7669 15.5857 11.7288 15.6301" stroke="#703D29" stroke-width="0.0234418" stroke-linecap="round"/>
<path d="M11.8226 15.3965L11.8038 15.4809M11.7194 15.6356L11.6819 15.6732L11.6163 15.706L11.546 15.7294M11.335 9.06257C11.3475 9.04069 11.3522 9.00788 11.3491 8.96412C11.3491 8.80471 11.2318 8.73439 11.185 8.58905C11.1568 8.50466 11.1428 8.42965 11.2084 8.36401C11.2647 8.32025 11.3272 8.31244 11.3959 8.34057C11.546 8.39683 11.7194 8.56092 12.0242 8.56561M12.0242 8.56561C11.7194 8.56092 11.546 8.39683 11.4006 8.34057C11.3256 8.31244 11.26 8.30306 11.2037 8.35932C11.1381 8.42027 11.1568 8.49997 11.185 8.59374C11.2318 8.73439 11.3397 8.80471 11.3444 8.96412C11.3444 9.00788 11.3381 9.03913 11.3256 9.05788M12.0242 8.56561C12.3289 8.56092 12.5071 8.39683 12.6477 8.34057C12.7165 8.30931 12.779 8.31712 12.8353 8.36401C12.779 8.31244 12.7415 8.30775 12.6665 8.32181C12.5821 8.33588 12.3242 8.53748 12.0242 8.55623M15.0107 12.7992C14.9371 12.7464 14.8774 12.6766 14.8366 12.5958C14.7958 12.515 14.7751 12.4256 14.7762 12.335C14.7762 12.1803 14.8372 12.0209 14.9122 11.96M12.2867 15.6169C12.2171 15.7201 12.1195 15.8014 12.0054 15.8513C11.8879 15.803 11.7869 15.7215 11.7147 15.6169" stroke="#703D29" stroke-width="0.0234418"/>
<path d="M11.5178 9.14224L11.6069 9.09538C11.6443 9.06727 11.6959 9.07195 11.7146 9.09538C11.7396 9.13287 11.7381 9.1688 11.71 9.20316" stroke="#703D29" stroke-width="0.0234418" stroke-linecap="round"/>
<path d="M11.0722 9.34856C11.2785 9.30637 11.4473 9.2126 11.5692 9.14227M12.7835 15.3028L12.8116 15.3356L12.821 15.3684C12.8304 15.4247 12.7929 15.4622 12.7507 15.4669C12.7239 15.4682 12.6973 15.4618 12.6741 15.4485C12.6508 15.4352 12.6319 15.4156 12.6194 15.3918M11.0582 9.33918C11.2645 9.2923 11.4332 9.20322 11.5598 9.1329M15.2167 13.1414C15.1886 13.1571 15.1542 13.1539 15.1136 13.1321L15.0433 13.0946C14.9495 13.043 14.8323 12.9539 14.7245 12.757C14.697 12.7036 14.6765 12.6468 14.6635 12.5882C14.651 12.5476 14.6448 12.5054 14.6448 12.4616C14.6432 12.3828 14.651 12.3041 14.6682 12.2272C14.6893 12.1039 14.7409 11.9879 14.8182 11.8896C14.8651 11.8287 14.8979 11.7959 14.9823 11.7959M9.59071 10.319C9.62183 10.3457 9.64676 10.3788 9.66377 10.416C9.68077 10.4533 9.68944 10.4938 9.68917 10.5347C9.68917 10.6519 9.5954 10.8395 9.35161 10.9098C9.25784 10.9332 9.17345 10.9098 9.11719 10.877" stroke="#703D29" stroke-width="0.0234418"/>
<path d="M9.62796 10.7129C9.6717 10.7379 9.692 10.7785 9.68888 10.8347C9.68888 10.8753 9.66545 10.9222 9.61859 10.9753C9.57653 11.0207 9.52588 11.0573 9.46958 11.0831C9.41328 11.1088 9.35243 11.1231 9.29056 11.1252C9.2105 11.128 9.13167 11.105 9.06563 11.0596C8.99444 11.0132 8.94404 10.941 8.92505 10.8581" stroke="#703D29" stroke-width="0.0234418"/>
<path d="M9.62832 10.9613C9.67208 11.0082 9.69239 11.066 9.68927 11.1348C9.68927 11.2317 9.64239 11.3208 9.54862 11.402L9.47829 11.4489M14.3354 10.6238V10.7597M14.3214 10.591V10.7785M14.3354 10.1878V10.4316M14.3214 10.1362V10.4644M14.251 13.5446C14.2042 13.6384 14.1666 13.6853 14.0963 13.7556C14.0328 13.82 13.9581 13.8725 13.876 13.9103C13.7987 13.9479 13.7167 13.9747 13.6322 13.99C13.5337 14.0135 13.4728 14.0181 13.3743 14.0228C13.2805 14.0228 13.229 14.0228 13.1352 14.0135C13.0368 14.0135 12.9805 13.9947 12.882 13.9853C12.8023 13.9806 12.7555 13.9713 12.6711 13.9713C12.5318 13.9681 12.3933 13.992 12.2632 14.0416C12.16 14.0838 12.0475 14.1541 12.0241 14.1822C12.0006 14.1541 11.8834 14.0838 11.785 14.0416C11.6533 13.9914 11.5132 13.9675 11.3724 13.9713C11.2927 13.9713 11.2458 13.9806 11.1661 13.9853C11.0676 13.9947 11.0114 14.0088 10.9129 14.0135C10.747 14.0296 10.5796 14.0217 10.416 13.99C10.3175 13.9666 10.2612 13.9525 10.1675 13.9056C10.0787 13.8637 9.9991 13.8048 9.93306 13.7322M11.5083 15.7341L11.5787 15.7247M12.7133 15.6356L12.7789 15.6309L12.8445 15.6028L12.8914 15.5794L12.9524 15.5044L12.9664 15.4762L12.9758 15.4153V15.3871M14.7386 10.2581C14.7668 10.1596 14.7292 10.0565 14.6355 10.0565M9.68458 11.8052C9.66061 11.877 9.61258 11.9383 9.54862 11.9787M9.68927 10.2253C9.67877 10.2593 9.66064 10.2905 9.63627 10.3165C9.6119 10.3425 9.58192 10.3626 9.54862 10.3753C9.48298 10.4081 9.39859 10.3753 9.36108 10.3472" stroke="#703D29" stroke-width="0.0234418"/>
<path d="M9.15942 10.59C9.22005 10.618 9.27601 10.5761 9.26668 10.5014C9.26436 10.4784 9.25352 10.457 9.23627 10.4414C9.21903 10.4259 9.19662 10.4174 9.17341 10.4175" stroke="#703D29" stroke-width="0.0234418" stroke-linecap="round"/>
<path d="M9.39851 13.7508C9.411 13.7664 9.42194 13.7758 9.43131 13.7789C9.45474 13.7836 9.47817 13.793 9.5016 13.7602C9.52659 13.7133 9.52034 13.6649 9.48285 13.6149C9.45447 13.5866 9.41777 13.5682 9.37813 13.5623C9.33849 13.5564 9.298 13.5633 9.26261 13.5821C9.23449 13.5946 9.20325 13.6196 9.16889 13.6571L9.12671 13.718L9.08454 13.8117C9.00956 14.0273 9.0986 14.2569 9.24387 14.3975" stroke="#703D29" stroke-width="0.0234418"/>
<path d="M12.7789 15.2981L12.8023 15.3262L12.8117 15.359C12.8211 15.4153 12.7836 15.4528 12.7367 15.4528C12.6757 15.4622 12.6335 15.4247 12.6101 15.3778" stroke="#703D29" stroke-width="0.0234418" stroke-linecap="round"/>
<path d="M14.6262 8.80471C14.6893 8.81529 14.7469 8.84706 14.7896 8.8948C14.8322 8.94253 14.8572 9.00336 14.8606 9.06726C14.8606 9.23604 14.8044 9.29699 14.7153 9.4142C14.6215 9.54079 14.3168 9.7752 14.3168 10.0424C14.3137 10.1987 14.3668 10.3034 14.4762 10.3566C14.5512 10.3894 14.6403 10.3566 14.6778 10.3191C14.7716 10.23 14.7387 10.0753 14.6309 10.0565C14.5137 10.0378 14.4903 10.23 14.6075 10.2159M15.2779 12.8086C15.2724 12.7763 15.2559 12.7469 15.231 12.7255C15.2062 12.7041 15.1747 12.692 15.1419 12.6914C15.1046 12.6914 15.0689 12.7062 15.0425 12.7326C15.0161 12.7589 15.0013 12.7947 15.0013 12.832C15.0013 12.8695 15.0153 12.9008 15.0435 12.9258" stroke="#703D29" stroke-width="0.0234418"/>
<path d="M14.415 10.319C14.3839 10.3457 14.359 10.3787 14.342 10.416C14.325 10.4532 14.3163 10.4938 14.3166 10.5347C14.3166 10.6519 14.4103 10.8394 14.6541 10.9098C14.7479 10.9348 14.826 10.9301 14.8886 10.8957M9.0328 10.5113C8.96217 10.5348 8.90015 10.5789 8.85464 10.6378C8.81071 10.7081 8.78049 10.7861 8.76556 10.8676C8.76088 10.9004 8.7515 11.0082 8.77025 11.1161C8.78635 11.1914 8.81657 11.263 8.85933 11.327L8.89684 11.3739L8.93903 11.4067M11.3395 14.8574C11.5223 14.9418 11.6536 14.998 11.7708 15.1809C11.8137 15.2562 11.8293 15.3441 11.8147 15.4295C11.8002 15.515 11.7565 15.5928 11.6911 15.6497C11.6564 15.6791 11.616 15.7009 11.5724 15.7138C11.5288 15.7267 11.483 15.7304 11.4379 15.7247C11.3676 15.7153 11.2973 15.6638 11.2879 15.6309M9.54383 11.4114C9.58982 11.4423 9.62726 11.4842 9.65267 11.5334C9.67808 11.5826 9.69064 11.6374 9.68917 11.6927C9.68917 11.8334 9.61884 11.9178 9.53914 11.9693" stroke="#703D29" stroke-width="0.0234418"/>
<path d="M9.4502 11.8662C9.60484 12.0583 9.6845 12.1708 9.68919 12.3957C9.69387 12.6113 9.62358 12.7566 9.50174 12.9112" stroke="#703D29" stroke-width="0.0234418" stroke-linecap="round"/>
<path d="M12.3851 9.35324C12.4155 9.33394 12.4373 9.30374 12.4461 9.26885C12.468 9.21259 12.4633 9.16414 12.432 9.12351C12.4664 9.16727 12.4773 9.21572 12.4648 9.26885C12.4555 9.30011 12.4351 9.32824 12.4039 9.35324M14.3355 12.5882V13.1883L14.3214 13.3477M14.3214 12.5273V13.268L14.3027 13.3665M14.3214 11.7584V12.3022M14.3355 11.8006V12.2413M14.3355 11.2333V11.5661M14.3214 11.1958V11.6083M14.3355 10.8957V11.027M14.3214 10.8676V11.0551M14.2558 13.5024L14.2417 13.5259C14.2029 13.6073 14.1488 13.6805 14.0823 13.7415C14.0198 13.8038 13.9468 13.8546 13.8666 13.8916C13.7882 13.9312 13.7045 13.9596 13.6182 13.976C13.5244 13.9994 13.4635 14.0041 13.3603 14.0088C13.2665 14.0088 13.2197 14.0088 13.1259 13.9994C13.0227 13.9947 12.9712 13.9806 12.8727 13.9713C12.7883 13.9666 12.7414 13.9572 12.6617 13.9572C12.5209 13.9535 12.3808 13.9774 12.2492 14.0275C12.1507 14.0697 12.0382 14.1401 12.0147 14.1682C11.9439 14.1077 11.863 14.0601 11.7756 14.0275C11.644 13.9774 11.5039 13.9535 11.3631 13.9572C11.2834 13.9572 11.2365 13.9666 11.1521 13.9713C11.0583 13.9806 11.0021 13.9947 10.8989 13.9994C10.7346 14.0151 10.5688 14.0072 10.4066 13.976C10.2313 13.944 10.0686 13.8627 9.93781 13.7415L9.84873 13.6337M9.77372 13.5165C9.78062 13.5682 9.77668 13.6207 9.76215 13.6707C9.74762 13.7208 9.72282 13.7672 9.68933 13.8072C9.65651 13.84 9.58618 13.9009 9.50179 13.9009C9.36114 13.9056 9.31426 13.8072 9.30957 13.7837" stroke="#703D29" stroke-width="0.0234418"/>
<path d="M9.60486 13.4555C9.63348 13.4843 9.65723 13.5176 9.67519 13.554C9.70801 13.6196 9.69863 13.7322 9.6705 13.7884L9.65644 13.8025M8.90161 14.4776C8.98288 14.5714 9.11884 14.6605 9.3095 14.7448C9.62039 14.8429 9.94464 14.8919 10.2706 14.8902C10.6457 14.9042 10.9973 14.923 11.2083 15.1574M11.86 15.0027C11.9257 15.0604 11.9771 15.1326 12.01 15.2137M11.7334 15.645L11.7099 15.6684C11.6758 15.6972 11.6361 15.7187 11.5934 15.7316C11.5507 15.7445 11.5058 15.7485 11.4615 15.7435C11.4291 15.7401 11.3978 15.73 11.3695 15.7138C11.3413 15.6977 11.3167 15.6759 11.2974 15.6497M11.0958 15.5372L11.1098 15.5512C11.1579 15.6055 11.2251 15.6391 11.2974 15.645M12.31 15.645C12.2385 15.7472 12.1393 15.8269 12.0241 15.8747C11.9082 15.8256 11.809 15.7442 11.7381 15.6403L11.7287 15.6263M12.31 15.6403L12.3382 15.6684C12.3723 15.6972 12.412 15.7187 12.4547 15.7316C12.4974 15.7445 12.5423 15.7485 12.5867 15.7435C12.6183 15.7421 12.649 15.7329 12.6761 15.7165C12.7031 15.7001 12.7256 15.6771 12.7414 15.6497L12.7601 15.6216" stroke="#703D29" stroke-width="0.0234418"/>
<path d="M12.7321 15.6263L12.7039 15.6732L12.6617 15.706L12.6008 15.7341H12.5352" stroke="#703D29" stroke-width="0.0234418"/>
<path d="M12.8821 15.1996C12.9204 15.2275 12.9511 15.2646 12.9712 15.3075L12.99 15.4012C12.9907 15.4557 12.9725 15.5088 12.9384 15.5513C12.9124 15.5803 12.8806 15.6037 12.8451 15.6198C12.8096 15.636 12.7711 15.6445 12.7321 15.645H12.7181M12.7227 15.6356C12.6508 15.6346 12.582 15.6061 12.5305 15.5559M14.9216 13.0102C14.8454 12.9404 14.7819 12.8579 14.734 12.7664C14.7066 12.7129 14.6861 12.6562 14.6731 12.5976L14.6543 12.4757C14.6543 12.4007 14.6622 12.3225 14.6778 12.2413C14.7014 12.1165 14.7544 11.9992 14.8325 11.899C14.8544 11.8678 14.8794 11.8396 14.9075 11.8146M14.8606 8.97349C14.9544 8.98287 15.0388 9.08132 15.0388 9.18447C15.0388 9.32981 14.9919 9.39076 14.8747 9.53141C14.7762 9.65799 14.4762 9.87366 14.4856 10.0799C14.4887 10.1206 14.5043 10.155 14.5324 10.1831M14.4105 10.3144C14.4293 10.3362 14.4543 10.3534 14.4856 10.3659C14.5112 10.3762 14.5388 10.3807 14.5663 10.3791C14.5939 10.3774 14.6207 10.3698 14.645 10.3566M13.8526 8.73439C13.8895 8.75862 13.9187 8.79274 13.937 8.83284C14.0027 9.00162 13.8526 9.12821 13.712 9.22197C13.6186 9.28391 13.5131 9.32545 13.4026 9.34387" stroke="#703D29" stroke-width="0.0234418"/>
<path d="M13.6928 9.05743C13.6584 9.06056 13.6194 9.04181 13.5757 9.0012L13.5475 8.9684M12.9899 9.15116L12.943 9.11367C12.9056 9.07618 12.8946 9.02151 12.9102 8.94965C12.9337 8.87936 13.0508 8.67786 13.0508 8.54197C13.0649 8.33109 12.9805 8.20457 12.854 8.15771" stroke="#703D29" stroke-width="0.0234418"/>
<path d="M13.0461 8.49528L13.0414 8.57498L13.018 8.65468L12.9758 8.76251L12.943 8.83753L12.9102 8.90785L12.8961 8.95474L12.8867 8.99224L12.8914 9.02975M14.3214 13.765C14.3276 13.7806 14.3339 13.79 14.3401 13.7931C14.3639 13.8265 14.3947 13.8543 14.4303 13.8745C14.4659 13.8948 14.5055 13.907 14.5464 13.9103C14.687 13.9103 14.7199 13.8119 14.7246 13.7884C14.7433 13.6806 14.7058 13.6478 14.6495 13.6196C14.6464 13.6134 14.623 13.6103 14.5792 13.6103" stroke="#703D29" stroke-width="0.0234418" stroke-linecap="round"/>
<path d="M8.90637 13.2915C8.86025 13.3034 8.81185 13.3034 8.76572 13.2915C8.65789 13.2586 8.57819 13.1555 8.62038 13.0336M9.12204 11.8381C9.13141 11.8506 9.1361 11.8631 9.1361 11.8756C9.15017 12.0162 9.03296 12.0537 8.94857 12.035C8.90095 12.0186 8.85985 11.9874 8.83136 11.9459C8.81699 11.92 8.80896 11.8911 8.80792 11.8615M9.63776 10.9707C9.65964 10.9926 9.67526 11.016 9.68464 11.0411M9.63776 10.7222C9.65964 10.7347 9.67526 10.7504 9.68464 10.7691" stroke="#703D29" stroke-width="0.0234418"/>
<path d="M9.68893 10.8957C9.67413 10.9302 9.65353 10.9619 9.62801 10.9894C9.58555 11.034 9.53473 11.0698 9.47845 11.0947C9.42216 11.1196 9.36152 11.1332 9.29998 11.1347C9.21992 11.1374 9.14109 11.1144 9.07505 11.0691C9.00076 11.0208 8.94597 10.9477 8.92041 10.8629" stroke="#703D29" stroke-width="0.0234418" stroke-linecap="round"/>
<path d="M9.59546 10.3237C9.63791 10.356 9.67026 10.3996 9.68873 10.4496" stroke="#703D29" stroke-width="0.0234418"/>
<path d="M9.68889 10.6238C9.66681 10.6985 9.62447 10.7656 9.56657 10.8177C9.50867 10.8698 9.43747 10.9049 9.36086 10.919C9.27725 10.9373 9.1898 10.9221 9.11719 10.8768" stroke="#703D29" stroke-width="0.0234418" stroke-linecap="round"/>
<path d="M9.0188 10.5955C9.02817 10.6939 9.09846 10.7689 9.2203 10.7736C9.39837 10.7736 9.50146 10.5205 9.34682 10.3378" stroke="#703D29" stroke-width="0.0234418"/>
<path d="M8.625 11.4582C8.64999 11.4894 8.67811 11.5191 8.70935 11.5472C8.77486 11.6033 8.85153 11.6448 8.93428 11.6691M9.1311 11.6878C9.29042 11.6691 9.37946 11.5519 9.36071 11.416C9.34666 11.3082 9.24825 11.2286 9.18264 11.2286" stroke="#703D29" stroke-width="0.0234418" stroke-linecap="round"/>
<path d="M9.38916 10.0565C9.45445 10.0565 9.49642 10.1171 9.49175 10.1684" stroke="#703D29" stroke-width="0.0234418"/>
<path d="M9.37061 9.11882C9.40613 9.21033 9.47244 9.2866 9.55814 9.33448M14.9732 10.5019C14.9905 10.5287 15 10.5598 15.0008 10.5917C15.0016 10.6237 14.9935 10.6552 14.9775 10.6828C14.9615 10.7104 14.9382 10.7331 14.9101 10.7483C14.8821 10.7636 14.8504 10.7708 14.8185 10.7691C14.7853 10.7694 14.7526 10.7609 14.7237 10.7444C14.6949 10.7279 14.671 10.7041 14.6544 10.6754" stroke="#703D29" stroke-width="0.0234418" stroke-linecap="round"/>
<path d="M14.3354 9.34387V9.93432" stroke="#703D29" stroke-width="0.0234418"/>
<path d="M9.15937 10.5909C9.21563 10.6284 9.28127 10.5627 9.25314 10.4924C9.23907 10.4455 9.16875 10.394 9.07498 10.4549C8.97653 10.5252 9.00466 10.7503 9.20157 10.7503C9.37504 10.755 9.48287 10.4971 9.32815 10.319C9.17344 10.1408 8.9062 10.183 8.71867 10.3283C8.58585 10.4411 8.49363 10.5942 8.45612 10.7643C8.43064 10.8786 8.43064 10.997 8.45612 11.1113C8.47529 11.2114 8.51349 11.3069 8.56864 11.3926L8.61552 11.4535L8.69054 11.5285C8.79767 11.6232 8.9368 11.6734 9.07967 11.6692C9.25783 11.6645 9.36097 11.5379 9.33753 11.3926C9.31878 11.2519 9.17812 11.1816 9.08436 11.2519C9.02341 11.2941 8.99997 11.4301 9.11249 11.4629C9.17344 11.4817 9.2297 11.402 9.1875 11.3551M14.0446 8.65927C14.1478 8.60301 14.2259 8.61395 14.2791 8.69209C14.3335 8.77154 14.3554 8.86891 14.34 8.96402C14.3212 9.06716 14.2931 9.10467 14.2087 9.17968" stroke="#703D29" stroke-width="0.0234418" stroke-linecap="round"/>
<path d="M14.2886 8.70154C14.4057 8.62656 14.5323 8.65468 14.5979 8.76246C14.6461 8.8287 14.6679 8.91061 14.6588 8.99208C14.6544 9.06259 14.6323 9.13086 14.5947 9.19063C14.557 9.2504 14.5049 9.29976 14.4432 9.33416" stroke="#703D29" stroke-width="0.0234418" stroke-linecap="round"/>
<path d="M14.8322 8.9688C14.9259 8.97818 15.0056 9.06252 15.0056 9.16562C15.0056 9.3062 14.9681 9.37181 14.8509 9.51239C14.7525 9.63423 14.4573 9.84979 14.462 10.0607C14.462 10.1356 14.5323 10.2106 14.5885 10.2153" stroke="#703D29" stroke-width="0.0234418"/>
<path d="M14.8463 10.5908C14.7901 10.6283 14.7245 10.5674 14.7526 10.4971C14.7714 10.4502 14.837 10.394 14.926 10.4549C15.0291 10.5252 15.001 10.7501 14.8042 10.7501C14.6308 10.7548 14.5089 10.5064 14.6776 10.319C14.8323 10.1456 15.1181 10.1784 15.2962 10.319C15.3712 10.3846 15.5305 10.5533 15.5586 10.7689C15.6008 11.0313 15.5914 11.3593 15.3243 11.5561C15.2072 11.6356 15.0674 11.6751 14.926 11.6686C14.7479 11.6639 14.6448 11.5374 14.6683 11.3921C14.687 11.2515 14.8229 11.1906 14.9213 11.2515C15.0244 11.3031 15.0057 11.453 14.8932 11.4624C14.8276 11.4718 14.776 11.4015 14.8182 11.3546" stroke="#703D29" stroke-width="0.0234418" stroke-linecap="round"/>
<path d="M14.7527 10.5018C14.7808 10.3659 14.8933 10.3566 14.987 10.3566C15.2307 10.3566 15.4041 10.6518 15.4087 10.9376C15.4087 11.2938 15.2541 11.5047 14.987 11.514C14.9261 11.5187 14.8089 11.4859 14.8042 11.4062" stroke="#703D29" stroke-width="0.0234418"/>
<path d="M14.9028 10.4409C15.1652 10.4972 15.2589 10.7315 15.2589 10.9564C15.2589 11.1392 15.2402 11.3875 14.884 11.4719" stroke="#703D29" stroke-width="0.0234418" stroke-linecap="square"/>
<path d="M15.3339 12.9538C15.3389 12.9286 15.3371 12.9025 15.3287 12.8782C15.3203 12.8539 15.3056 12.8322 15.2861 12.8155C15.2667 12.7987 15.2431 12.7874 15.2178 12.7827C15.1925 12.7781 15.1664 12.7802 15.1422 12.7889C15.118 12.7976 15.0966 12.8126 15.08 12.8323C15.0635 12.852 15.0526 12.8758 15.0482 12.9011C15.0439 12.9265 15.0464 12.9525 15.0554 12.9766C15.0644 13.0007 15.0797 13.0219 15.0996 13.0382" stroke="#703D29" stroke-width="0.0234418"/>
<path d="M14.8134 12.7289C14.8697 12.8237 14.9506 12.9014 15.0477 12.9538M15.0008 13.3474C14.8743 13.2678 14.64 13.16 14.4291 13.2631C14.3925 13.2777 14.3595 13.2999 14.332 13.3281C14.3046 13.3564 14.2834 13.3901 14.2698 13.4271C14.2495 13.4882 14.2453 13.5535 14.2576 13.6167C14.27 13.6799 14.2983 13.7389 14.3401 13.7879C14.3873 13.8439 14.4546 13.8792 14.5275 13.8863C14.6681 13.8863 14.7009 13.7926 14.7056 13.7692C14.7196 13.6661 14.6587 13.6239 14.6306 13.6145C14.6025 13.6051 14.5275 13.6051 14.5088 13.6614C14.5025 13.6832 14.5056 13.7082 14.5181 13.7364" stroke="#703D29" stroke-width="0.0234418" stroke-linecap="round"/>
<path d="M12.7882 15.3168C12.8257 15.4012 12.7835 15.4387 12.7273 15.4434C12.6475 15.4528 12.6054 15.3918 12.6007 15.3356C12.5913 15.2418 12.671 15.1527 12.7648 15.1574C12.8061 15.1555 12.847 15.1674 12.8809 15.1911C12.9148 15.2149 12.9399 15.2492 12.9523 15.2887C12.9617 15.3168 12.9664 15.3465 12.9664 15.3778C12.9682 15.4339 12.9499 15.4888 12.9148 15.5325C12.8893 15.561 12.8583 15.584 12.8236 15.6001C12.789 15.6163 12.7514 15.6251 12.7132 15.6263C12.5538 15.6309 12.4319 15.4856 12.4319 15.3309C12.4319 15.0449 12.8585 14.8855 13.032 14.8433C13.2518 14.7911 13.4766 14.7629 13.7024 14.7589C13.8384 14.7495 13.9368 14.7542 14.0822 14.7402C14.2135 14.7261 14.2838 14.7167 14.4197 14.6886C14.5945 14.6494 14.7561 14.5654 14.8886 14.4448C15.0109 14.3493 15.0955 14.2136 15.1273 14.0616C15.159 13.9097 15.1359 13.7515 15.0621 13.615C15.019 13.5489 14.9625 13.4927 14.8962 13.4498C14.83 13.407 14.7555 13.3786 14.6776 13.3665C14.5307 13.3446 14.4182 13.404 14.34 13.5446C14.3239 13.5817 14.316 13.6219 14.3168 13.6623C14.3176 13.7028 14.3271 13.7426 14.3447 13.779C14.3682 13.8212 14.4385 13.8869 14.5229 13.8869C14.6635 13.8869 14.701 13.7931 14.7057 13.7697C14.7198 13.6665 14.6589 13.6243 14.6307 13.615C14.6026 13.6056 14.5276 13.6056 14.5088 13.6618C14.5026 13.6837 14.5057 13.7087 14.5182 13.7369" stroke="#703D29" stroke-width="0.0234418" stroke-linecap="round"/>
<path d="M12.6663 14.8621C12.4788 14.9417 12.3476 15.0026 12.2351 15.176C12.2034 15.2333 12.1873 15.298 12.1883 15.3635C12.1883 15.4619 12.2351 15.5743 12.3148 15.6446C12.3491 15.6748 12.3893 15.6975 12.4329 15.7112C12.4765 15.7249 12.5224 15.7294 12.5679 15.7243C12.6381 15.7149 12.7084 15.6634 12.7178 15.6306" stroke="#703D29" stroke-width="0.0234418" stroke-linecap="round"/>
<path d="M14.4572 11.4067C14.3776 11.4349 14.3167 11.5661 14.3167 11.6879C14.3167 11.8285 14.3823 11.9222 14.4666 11.9691" stroke="#703D29" stroke-width="0.0234418"/>
<path d="M14.5509 11.8662C14.401 12.0583 14.3166 12.1708 14.3166 12.3957C14.312 12.6113 14.3776 12.7566 14.5041 12.9112" stroke="#703D29" stroke-width="0.0234418" stroke-linecap="round"/>
<path d="M13.74 8.70151L13.754 8.68277C13.815 8.58904 13.9274 8.56561 14.0118 8.62653C14.1055 8.70151 14.1336 8.82803 14.1055 8.96393C14.0955 9.00657 14.0771 9.04678 14.0514 9.08219C14.0256 9.1176 13.993 9.1475 13.9555 9.17012" stroke="#703D29" stroke-width="0.0234418"/>
<path d="M9.95643 8.65936C9.86271 8.6125 9.78461 8.62344 9.72213 8.69217C9.6693 8.77223 9.64918 8.8695 9.6659 8.96396C9.68464 9.06237 9.71276 9.10454 9.79711 9.17952" stroke="#703D29" stroke-width="0.0234418" stroke-linecap="round"/>
<path d="M9.7172 8.70154C9.60005 8.62656 9.47352 8.65468 9.40792 8.76246C9.35963 8.8287 9.3379 8.91061 9.347 8.99208C9.3514 9.06259 9.37345 9.13086 9.41111 9.19063C9.44877 9.2504 9.50085 9.29976 9.56256 9.33416" stroke="#703D29" stroke-width="0.0234418"/>
<path d="M9.37972 8.80471C9.31878 8.81251 9.26262 8.84182 9.22138 8.88735C9.18014 8.93289 9.15652 8.99166 9.15479 9.05308C9.15479 9.22178 9.19696 9.28738 9.29068 9.4139C9.3844 9.54043 9.689 9.77473 9.689 10.0418C9.69212 10.198 9.63901 10.3027 9.52967 10.3558C9.45469 10.3886 9.36566 10.3558 9.32817 10.3183C9.23445 10.2293 9.27194 10.0746 9.37035 10.0559C9.49218 10.0372 9.51561 10.2293 9.39846 10.2152" stroke="#703D29" stroke-width="0.0234418"/>
<path d="M9.16889 8.9688C9.07517 8.97818 8.98145 9.06252 8.98145 9.15625C8.98145 9.30151 9.03768 9.36712 9.15483 9.51239C9.24855 9.63423 9.52972 9.84979 9.52503 10.056C9.52503 10.131 9.4688 10.2294 9.41725 10.2153" stroke="#703D29" stroke-width="0.0234418"/>
<path d="M8.94849 11.8567C8.99535 11.7489 9.10782 11.7958 9.1125 11.8567C9.13125 11.9973 9.00941 12.0348 8.92506 12.0114C8.88132 11.9989 8.85008 11.9754 8.83134 11.9411C8.81485 11.9092 8.80786 11.8733 8.81118 11.8376C8.8145 11.8019 8.828 11.7678 8.85008 11.7396L8.89694 11.6927C8.92818 11.674 8.97036 11.6662 9.02347 11.6693C9.22965 11.6693 9.41241 11.9176 9.47333 12.1754C9.50673 12.3232 9.50991 12.4762 9.4827 12.6252C9.45128 12.784 9.37482 12.9305 9.26246 13.047C9.15783 13.1482 9.03108 13.2236 8.89226 13.2672C8.84319 13.2808 8.79137 13.2808 8.7423 13.2672C8.63921 13.2391 8.56892 13.136 8.62515 13.0095C8.67201 12.9111 8.82665 12.8595 8.89694 12.9814C8.90319 12.9939 8.90788 13.0142 8.911 13.0423C8.911 13.0798 8.8985 13.1079 8.87351 13.1267C8.82197 13.1641 8.73293 13.1548 8.73762 13.0564" stroke="#703D29" stroke-width="0.0234418" stroke-linecap="round"/>
<path d="M8.78443 13.1408C8.82191 13.1548 8.84534 13.1548 8.89221 13.1314L8.9625 13.0939C9.05622 13.0424 9.17337 12.9533 9.27646 12.7565C9.30551 12.7033 9.32756 12.6466 9.34207 12.5878L9.36081 12.4613C9.36241 12.3825 9.35454 12.3039 9.33738 12.227C9.3163 12.1038 9.26476 11.9878 9.18743 11.8896C9.14057 11.8287 9.10776 11.7959 9.02342 11.7959M8.67196 12.9533C8.66696 12.9281 8.66875 12.902 8.67714 12.8777C8.68553 12.8534 8.70023 12.8317 8.71972 12.815C8.73922 12.7982 8.76281 12.7869 8.7881 12.7822C8.81339 12.7776 8.83947 12.7797 8.86366 12.7884C8.88786 12.7971 8.90931 12.8121 8.92582 12.8318C8.94233 12.8515 8.95332 12.8753 8.95765 12.9006C8.96198 12.926 8.95951 12.952 8.95048 12.9761C8.94145 13.0002 8.92619 13.0214 8.90626 13.0377" stroke="#703D29" stroke-width="0.0234418"/>
<path d="M8.72827 12.8085C8.73373 12.7762 8.75029 12.7468 8.7751 12.7254C8.79991 12.704 8.83141 12.692 8.86417 12.6914C8.90145 12.6914 8.93721 12.7062 8.96357 12.7325C8.98994 12.7589 9.00475 12.7947 9.00475 12.8319C9.00179 12.868 8.985 12.9016 8.95789 12.9257" stroke="#703D29" stroke-width="0.0234418"/>
<path d="M8.99536 12.7988C9.06886 12.746 9.12854 12.6763 9.16933 12.5955C9.21012 12.5147 9.23082 12.4253 9.22967 12.3349C9.22967 12.1802 9.16875 12.0209 9.09377 11.96" stroke="#703D29" stroke-width="0.0234418"/>
<path d="M9.19231 12.7289C9.13601 12.8237 9.05503 12.9014 8.95801 12.9538" stroke="#703D29" stroke-width="0.0234418" stroke-linecap="round"/>
<path d="M9.56741 13.268C9.53303 13.1868 9.46114 13.1414 9.35175 13.1321C9.24327 13.1238 9.13496 13.1501 9.04231 13.2071C8.95404 13.2477 8.87513 13.3061 8.81058 13.3788C8.74602 13.4514 8.69722 13.5366 8.66725 13.629C8.64594 13.6988 8.63643 13.7717 8.63911 13.8447C8.63911 13.9806 8.67662 14.126 8.71413 14.1963C8.74226 14.2619 8.82665 14.5339 9.28611 14.7214C9.59842 14.8208 9.92418 14.8714 10.2519 14.8714C10.641 14.8855 11.002 14.8996 11.2083 15.1574" stroke="#703D29" stroke-width="0.0234418"/>
<path d="M9.00488 13.3477C9.13141 13.268 9.36103 13.1602 9.5719 13.2633C9.64472 13.2962 9.70304 13.3545 9.73591 13.4273C9.75617 13.4884 9.76034 13.5537 9.74803 13.6169C9.73572 13.6801 9.70734 13.7391 9.66562 13.7882C9.63282 13.821 9.56721 13.8819 9.47818 13.8866C9.33759 13.8866 9.30479 13.7928 9.30011 13.7694C9.28605 13.6663 9.34697 13.6241 9.37508 13.6148C9.39851 13.6054 9.47818 13.6054 9.49692 13.6616C9.50317 13.6835 9.50005 13.7085 9.48755 13.7366" stroke="#703D29" stroke-width="0.0234418" stroke-linecap="round"/>
<path d="M9.49717 13.7181C9.50236 13.6959 9.50208 13.6728 9.49637 13.6508C9.49065 13.6287 9.47966 13.6084 9.46435 13.5915C9.43595 13.5632 9.39923 13.5447 9.35958 13.5388C9.31992 13.5329 9.27941 13.5399 9.244 13.5587C9.2062 13.5764 9.17383 13.604 9.15023 13.6384L9.10335 13.6947L9.06584 13.7884C8.97207 14.051 9.1221 14.3323 9.30963 14.4495C9.47341 14.5457 9.6589 14.599 9.84879 14.6042L10.0973 14.6183H10.7255L11.0068 14.6464L11.2131 14.6839L11.2834 14.7027L11.3303 14.7167C11.4569 14.7522 11.5783 14.8043 11.6913 14.8714C11.7257 14.8902 11.757 14.9121 11.7851 14.9371L11.8367 14.984C11.907 15.0496 11.982 15.1246 12.0007 15.2324V15.2934C12.0007 15.359 11.9492 15.4528 11.7991 15.4809" stroke="#703D29" stroke-width="0.0234418"/>
<path d="M11.2224 15.3168C11.1755 15.4012 11.2224 15.4387 11.2786 15.4434C11.3583 15.4528 11.4005 15.3918 11.4052 15.3356C11.4146 15.2418 11.3349 15.1527 11.2411 15.1574C11.1998 15.1555 11.1589 15.1674 11.125 15.1911C11.0911 15.2149 11.066 15.2492 11.0536 15.2887L11.0395 15.3778C11.0363 15.4333 11.0529 15.4881 11.0864 15.5325C11.1124 15.5616 11.1442 15.5849 11.1797 15.6011C11.2152 15.6172 11.2537 15.6258 11.2927 15.6263C11.4521 15.6309 11.574 15.4856 11.574 15.3309C11.574 15.0449 11.1474 14.8855 10.9739 14.8433C10.7541 14.7911 10.5293 14.7629 10.3035 14.7589C10.1675 14.7495 10.0691 14.7542 9.92371 14.7402C9.79244 14.7261 9.72211 14.7167 9.58615 14.6886C9.41135 14.6494 9.24977 14.5654 9.11732 14.4448C8.99496 14.3493 8.91039 14.2136 8.87863 14.0616C8.84688 13.9097 8.86998 13.7515 8.94385 13.615C8.98693 13.5489 9.04342 13.4927 9.10965 13.4498C9.17589 13.407 9.25038 13.3786 9.32829 13.3665C9.47519 13.3446 9.58615 13.404 9.66116 13.5446C9.69867 13.6103 9.68929 13.7228 9.66116 13.779C9.64132 13.8101 9.61442 13.8361 9.58265 13.8548C9.55088 13.8736 9.51513 13.8846 9.47832 13.8869C9.33767 13.8869 9.30485 13.7931 9.30016 13.7697C9.2861 13.6665 9.34705 13.6243 9.37518 13.615C9.39862 13.6056 9.47832 13.6056 9.49707 13.6618C9.50332 13.6837 9.5002 13.7087 9.4877 13.7369" stroke="#703D29" stroke-width="0.0234418"/>
<path d="M10.2658 8.70151L10.2518 8.68277C10.1908 8.58904 10.0784 8.56561 9.99402 8.62653C9.90029 8.70151 9.87218 8.82803 9.90029 8.96393C9.91026 9.00657 9.92867 9.04678 9.95442 9.08219C9.98017 9.1176 10.0128 9.1475 10.0502 9.17012" stroke="#703D29" stroke-width="0.0234418" stroke-linecap="round"/>
<path d="M13.7729 8.98755C13.6228 9.15164 13.4681 9.20322 13.2431 9.21259C13.1728 9.21259 13.0368 9.18915 12.9618 9.13289C12.9149 9.09538 12.8539 9.03912 12.8915 8.9266C12.9149 8.85628 13.0321 8.65937 13.0321 8.51872C13.0415 8.30774 12.9618 8.19053 12.8352 8.14834C12.6008 8.06395 12.3476 8.29836 12.1976 8.34994C12.1359 8.37141 12.0706 8.38095 12.0054 8.37807C11.9303 8.37807 11.8881 8.37807 11.8084 8.34994C11.6584 8.29836 11.4052 8.06864 11.1708 8.14834C11.0442 8.19522 10.9645 8.30774 10.9739 8.52341C10.9739 8.65937 11.0911 8.85628 11.1146 8.9266C11.1521 9.03444 11.0958 9.09538 11.0442 9.13289C10.9591 9.18378 10.8621 9.21128 10.7629 9.21259C10.5332 9.20322 10.3879 9.15164 10.2332 8.98755" stroke="#703D29" stroke-width="0.0234418"/>
<path d="M11.1709 14.7917C11.199 14.8058 11.1756 14.787 11.3677 14.8714C11.5458 14.9511 11.677 15.0213 11.7895 15.1994C11.8314 15.2852 11.8429 15.3827 11.8223 15.4759" stroke="#703D29" stroke-width="0.0234418" stroke-linecap="round"/>
<path d="M11.1802 15.6026C11.2178 15.6226 11.2594 15.6338 11.302 15.6354C11.4613 15.64 11.5832 15.4948 11.5832 15.3401C11.5769 15.2402 11.5316 15.1527 11.4473 15.0777" stroke="#703D29" stroke-width="0.0234418"/>
<path d="M11.2176 15.3168C11.1754 15.4058 11.2317 15.448 11.2879 15.4573C11.3676 15.4667 11.4097 15.4011 11.4191 15.3449C11.4193 15.3146 11.4122 15.2847 11.3983 15.2578C11.3844 15.2308 11.3642 15.2077 11.3394 15.1902" stroke="#703D29" stroke-width="0.0234418" stroke-linecap="round"/>
<path d="M14.6449 8.80471C14.7667 8.80471 14.8745 8.94061 14.8745 9.07651C14.8745 9.23583 14.7902 9.33424 14.7292 9.40453C14.6824 9.46077 14.6262 9.52012 14.5605 9.5826" stroke="#703D29" stroke-width="0.0234418"/>
<path d="M14.5043 8.67812C14.5492 8.6974 14.5869 8.73018 14.6122 8.77189C14.6588 8.83881 14.6789 8.92071 14.6684 9.00162C14.6637 9.16102 14.5512 9.26886 14.4481 9.33449M14.2699 8.67812L14.2934 8.70625C14.3214 8.74415 14.3409 8.78763 14.3506 8.83374C14.3603 8.87986 14.36 8.92752 14.3496 8.97349C14.3318 9.0581 14.2812 9.13223 14.209 9.17978M14.0214 8.63593C14.1152 8.71094 14.148 8.84222 14.1152 8.97349C14.0871 9.06726 14.0355 9.13289 13.9605 9.1704M14.3778 10.7129C14.3871 10.741 14.4059 10.7644 14.434 10.7832C14.4973 10.8479 14.5766 10.8948 14.6637 10.9192C14.7029 10.931 14.7441 10.9343 14.7846 10.9286C14.8251 10.9229 14.8638 10.9085 14.8982 10.8863M8.78455 12.9117C8.83456 12.9117 8.87676 12.9398 8.91114 12.9961L8.9252 13.0524C8.9252 13.0867 8.9127 13.1149 8.8877 13.1367C8.83144 13.1696 8.73767 13.1555 8.74236 13.057" stroke="#703D29" stroke-width="0.0234418" stroke-linecap="round"/>
<path d="M9.07508 11.674C9.26253 11.7115 9.43591 11.9317 9.49683 12.1754C9.53023 12.3232 9.53341 12.4762 9.5062 12.6252C9.47478 12.784 9.39832 12.9305 9.28596 13.047C9.26409 13.072 9.23753 13.0954 9.20629 13.1173L9.16412 13.1454M8.8689 12.6908C8.94387 12.6908 9.00948 12.7611 9.00948 12.8408C9.00902 12.8756 8.99566 12.909 8.97199 12.9345" stroke="#703D29" stroke-width="0.0234418"/>
<path d="M8.81714 12.7804C8.8968 12.7804 8.97178 12.8554 8.97178 12.9351C8.97252 12.9577 8.9678 12.9801 8.95801 13.0005C8.94822 13.0209 8.93365 13.0387 8.91555 13.0522" stroke="#703D29" stroke-width="0.0234418"/>
<path d="M9.54393 11.9834C9.61578 12.074 9.66265 12.1708 9.68451 12.2739M9.68451 12.5926C9.67196 12.6447 9.65308 12.695 9.62828 12.7425C9.59449 12.8072 9.55015 12.8658 9.49707 12.9159" stroke="#703D29" stroke-width="0.0234418" stroke-linecap="round"/>
<path d="M9.55322 11.4161C9.61358 11.4607 9.65908 11.5225 9.6838 11.5933" stroke="#703D29" stroke-width="0.0234418"/>
<path d="M9.68907 11.2329C9.66255 11.3007 9.61896 11.3604 9.56254 11.4063M9.22046 10.7596L9.30012 10.7409L9.34698 10.7034L9.37979 10.6565L9.40322 10.5909L9.41727 10.5347" stroke="#703D29" stroke-width="0.0234418" stroke-linecap="round"/>
<path d="M9.05619 10.4738L8.96247 10.5066C8.90946 10.5317 8.86415 10.5705 8.83126 10.619C8.78953 10.6882 8.76094 10.7644 8.74691 10.844C8.73753 10.8768 8.72816 10.9846 8.74691 11.0923C8.76386 11.1696 8.79569 11.2428 8.84063 11.3079L8.87812 11.3548C8.92185 11.4079 8.97652 11.4297 9.04213 11.4204" stroke="#703D29" stroke-width="0.0234418"/>
<path d="M9.50596 10.1175C9.49664 10.1641 9.46866 10.2247 9.39404 10.22" stroke="#703D29" stroke-width="0.0234418" stroke-linecap="round"/>
<path d="M9.2295 10.4456C9.15921 10.3753 9.00457 10.3566 8.85462 10.455C8.83275 10.4644 8.81244 10.48 8.7937 10.5018L8.74215 10.5581L8.68592 10.6518L8.65312 10.7455C8.625 10.8533 8.625 10.9564 8.625 10.9798L8.63906 11.0829C8.65301 11.1654 8.68157 11.2448 8.72341 11.3172C8.75152 11.3721 8.79275 11.4192 8.84343 11.4544C8.89411 11.4895 8.95268 11.5116 9.01394 11.5187C9.07955 11.5234 9.1967 11.4906 9.20139 11.4063" stroke="#703D29" stroke-width="0.0234418"/>
<path d="M13.6596 8.89369C13.6689 8.82809 13.7439 8.81871 13.772 8.8562C13.8189 8.91243 13.7908 9.00616 13.7017 9.03427C13.6758 9.0398 13.6489 9.03789 13.624 9.02877C13.5991 9.01965 13.5773 9.00369 13.5612 8.98273C13.5268 8.93274 13.519 8.88276 13.5377 8.83277C13.5471 8.80153 13.569 8.77498 13.6033 8.75311C13.7017 8.67344 13.8704 8.69219 13.922 8.8234C13.9923 8.9921 13.8423 9.11862 13.7017 9.21234C13.5237 9.3295 13.3268 9.35293 13.1722 9.35293C12.8301 9.34824 12.5677 9.18423 12.399 9.09051C12.3584 9.06864 12.3256 9.07176 12.3006 9.09988C12.2756 9.13112 12.2787 9.16392 12.31 9.19829" stroke="#703D29" stroke-width="0.0234418" stroke-linecap="round"/>
<path d="M13.7307 8.83285C13.7619 8.83597 13.7807 8.84691 13.7869 8.86567C13.8338 8.92193 13.801 9.01569 13.7119 9.04382M14.3823 10.9754C14.2511 11.1161 14.3683 11.3646 14.4667 11.4208C14.4996 11.4443 14.5136 11.4302 14.5418 11.4489" stroke="#703D29" stroke-width="0.0234418" stroke-linecap="round"/>
<path d="M14.3871 10.7035C14.3465 10.7347 14.3261 10.7754 14.3261 10.8254C14.3238 10.853 14.3277 10.8808 14.3374 10.9067C14.3472 10.9326 14.3625 10.9561 14.3824 10.9754C14.4752 11.063 14.5971 11.1131 14.7246 11.1161C14.8063 11.1198 14.887 11.0968 14.9544 11.0504C15.0256 11.004 15.076 10.9317 15.095 10.8488M14.3168 13.1742V13.268C14.298 13.3712 14.2839 13.4321 14.2371 13.5259C14.1977 13.6056 14.1436 13.6772 14.0777 13.7369C14.0141 13.8013 13.9395 13.8537 13.8573 13.8916C13.7803 13.9308 13.6983 13.9592 13.6135 13.976C13.5285 13.9925 13.4422 14.0019 13.3556 14.0041H13.1212L12.8634 13.9713C12.7837 13.9619 12.7368 13.9572 12.6571 13.9572C12.5163 13.9535 12.3761 13.9774 12.2445 14.0275C12.1588 14.0606 12.0795 14.1081 12.0101 14.1682C11.982 14.14 11.8694 14.065 11.7663 14.0275C11.7047 14.0012 11.6402 13.9823 11.5741 13.9713C11.4897 13.9572 11.4428 13.9572 11.3584 13.9572C11.274 13.9572 11.2318 13.9619 11.1474 13.9713C11.0537 13.9806 10.9927 13.9947 10.8943 13.9994C10.8005 14.0041 10.7536 14.0088 10.6598 14.0041C10.5567 14.0041 10.5004 13.9947 10.3973 13.976C10.3125 13.9592 10.2305 13.9308 10.1535 13.8916C10.0597 13.8447 10.0129 13.8119 9.93315 13.7369C9.86883 13.6768 9.81635 13.6053 9.77843 13.5259C9.73547 13.4459 9.7084 13.3583 9.69873 13.268V9.35793H14.3168V13.1742Z" stroke="#703D29" stroke-width="0.0234418"/>
<path d="M9.31438 13.713C9.31438 13.6882 9.32425 13.6643 9.34183 13.6468C9.3594 13.6292 9.38324 13.6193 9.4081 13.6193C9.43296 13.6193 9.45679 13.6292 9.47437 13.6468C9.49195 13.6643 9.50182 13.6882 9.50182 13.713C9.50182 13.7379 9.49195 13.7617 9.47437 13.7793C9.45679 13.7969 9.43296 13.8068 9.4081 13.8068C9.38324 13.8068 9.3594 13.7969 9.34183 13.7793C9.32425 13.7617 9.31438 13.7379 9.31438 13.713ZM8.74268 13.0523C8.7458 13.0023 8.76767 12.9742 8.80828 12.9679C8.84889 12.9742 8.87076 13.0023 8.87389 13.0523C8.87857 13.1273 8.84577 13.1366 8.80828 13.1366C8.76767 13.1304 8.7458 13.1023 8.74268 13.0523Z" fill="#C7B37F" stroke="#C7B37F" stroke-width="0.0140651"/>
<path d="M9.06616 11.388C9.07241 11.3474 9.09429 11.3239 9.1318 11.3177C9.17243 11.3239 9.19431 11.3474 9.19744 11.388C9.20212 11.4489 9.16931 11.4536 9.1318 11.4536C9.09429 11.4505 9.07398 11.4286 9.07085 11.388H9.06616ZM10.2195 8.9266C10.2195 8.87972 10.2351 8.85471 10.2664 8.85159C10.3039 8.85159 10.3273 8.8719 10.3367 8.91253C10.3367 8.95317 10.3195 8.97817 10.2851 8.98755C10.2476 8.98755 10.2257 8.96723 10.2195 8.9266Z" fill="#C7B37F"/>
<path d="M8.99036 11.777L8.96225 11.7958L8.93882 11.8286L8.92944 11.8754M9.10751 12.8736L9.14032 12.8361L9.16843 12.7986L9.18718 12.7658L9.21061 12.7189M9.16375 13.2344L9.10751 13.2625L9.06534 13.2859L9.01848 13.3187L8.97162 13.3562M9.53395 11.9363L9.50583 11.9035L9.47303 11.8707L9.43554 11.8473" stroke="#C7B37F" stroke-width="0.0234418" stroke-linecap="round"/>
<path d="M9.54788 11.4395L9.50125 11.4581L9.44995 11.4674" stroke="#C7B37F" stroke-width="0.0234418"/>
<path d="M8.9248 10.8206C8.9248 10.8393 8.92949 10.8565 8.93887 10.8722L8.97169 10.9378C8.99844 10.9778 9.03365 11.0114 9.07483 11.0363L9.13109 11.0691M9.0889 10.8487L9.13578 10.8722C9.17127 10.8876 9.20958 10.8956 9.2483 10.8956L9.31863 10.8909M9.58586 9.36721L9.51085 9.32032C9.46759 9.29091 9.42956 9.25446 9.39833 9.21249L9.36551 9.16561M9.64681 8.99683L9.67025 9.05777L9.72651 9.13748C9.75933 9.17498 9.78746 9.18436 9.82966 9.21249M9.88123 8.99214L9.90467 9.0484L9.93749 9.09528L9.98437 9.14217L10.0594 9.18905" stroke="#C7B37F" stroke-width="0.0234418" stroke-linecap="round"/>
<path d="M12.5162 8.68742C12.5162 8.62182 12.4553 8.61713 12.4272 8.61713C12.3616 8.61713 12.3428 8.66399 12.2538 8.71085C12.1787 8.75543 12.0927 8.77815 12.0054 8.77646C11.9157 8.78056 11.8271 8.75593 11.7524 8.70617C11.6633 8.6593 11.6493 8.61713 11.5837 8.61713C11.5462 8.61713 11.4946 8.64993 11.4993 8.71085V8.74365C11.4993 8.74365 11.5087 8.74365 11.5087 8.75303C11.5087 8.72179 11.5149 8.69992 11.5274 8.68742C11.5428 8.66912 11.5646 8.65738 11.5884 8.65462C11.6586 8.65462 11.6821 8.70148 11.7711 8.74834C11.8457 8.79456 11.9317 8.81891 12.0195 8.81863C12.1132 8.81863 12.1647 8.80457 12.2725 8.74834C12.3616 8.70148 12.385 8.65462 12.4553 8.65462C12.4771 8.65462 12.4928 8.66711 12.5021 8.69211V8.72491H12.5115L12.5162 8.68742Z" fill="#703D29" stroke="#703D29" stroke-width="0.00468835"/>
<path d="M9.93337 14.0275L9.97086 14.0041L9.96149 13.9947L9.92869 13.9853L9.89588 13.9713C9.89588 13.9713 9.88183 13.9619 9.87714 13.9713C9.87714 13.9853 9.91932 13.9853 9.90057 14.0228C9.90057 14.0322 9.8912 14.0478 9.87245 14.0697L9.77405 14.1775L9.76467 14.1868V14.0181L9.76936 13.9525C9.77873 13.9338 9.79748 13.9525 9.80216 13.9385C9.80216 13.9322 9.79904 13.9275 9.79279 13.9244C9.78654 13.9213 9.77092 13.9166 9.74593 13.9104L9.71313 13.8963H9.6897L9.69438 13.9057C9.70688 13.9119 9.71313 13.9228 9.71313 13.9385V14.2196C9.71313 14.2384 9.71625 14.2477 9.7225 14.2477L9.73656 14.2384L9.93337 14.0228V14.0275Z" fill="#703D29"/>
<path d="M10.0506 14.0697C10.0647 14.0322 10.0881 14.0556 10.0928 14.0416L10.0788 14.0322L10.0319 14.0181L9.98503 13.9994H9.97097C9.97097 14.0181 10.0178 14.0181 10.0038 14.0603L9.93817 14.2665C9.92411 14.304 9.90068 14.2853 9.896 14.2993V14.304L9.94286 14.3181L9.99909 14.3368H10.0131C10.0178 14.3227 9.96629 14.3274 9.98503 14.2759L10.0506 14.0697ZM10.1912 14.1166C10.1975 14.0916 10.2084 14.0838 10.224 14.0931C10.2584 14.1119 10.2709 14.1431 10.2615 14.1868C10.2521 14.2103 10.2428 14.2337 10.1865 14.2196C10.1709 14.2165 10.1631 14.2103 10.1631 14.2009L10.1912 14.1166ZM10.0834 14.2993C10.0647 14.3509 10.0366 14.3274 10.0366 14.3462L10.046 14.3509L10.1069 14.3696L10.1397 14.379H10.1537C10.1537 14.3602 10.1116 14.3696 10.1256 14.3227L10.149 14.2478C10.1459 14.2353 10.1537 14.2306 10.1725 14.2337C10.1912 14.2368 10.2006 14.2478 10.2006 14.2665L10.2146 14.3462C10.2146 14.3774 10.2271 14.3993 10.2521 14.4118C10.2662 14.4212 10.299 14.4165 10.299 14.4024V14.3977H10.2849L10.2709 14.3837L10.2475 14.2431L10.2756 14.2337C10.2912 14.2275 10.3037 14.2118 10.3131 14.1868C10.3177 14.1681 10.3271 14.1072 10.2428 14.0791L10.1678 14.0603L10.1209 14.0463H10.1116C10.1069 14.065 10.1537 14.0603 10.1397 14.1072L10.0834 14.2946V14.2993ZM10.3974 14.393C10.388 14.4399 10.3505 14.4118 10.3412 14.4258C10.3412 14.4352 10.3459 14.4399 10.3552 14.4399L10.4115 14.4493L10.463 14.468L10.4864 14.4633C10.4864 14.4493 10.4349 14.4493 10.449 14.3977L10.4958 14.2009C10.4958 14.1822 10.5036 14.1759 10.5192 14.1822L10.552 14.1915C10.5989 14.2009 10.5755 14.2431 10.5895 14.2478C10.5989 14.2446 10.6036 14.2368 10.6036 14.2243V14.1728L10.4818 14.1447L10.3646 14.1166C10.3584 14.1166 10.3552 14.1197 10.3552 14.1259L10.3318 14.1822V14.1962C10.3552 14.2009 10.3552 14.14 10.3974 14.1494L10.4302 14.1587C10.449 14.1587 10.4552 14.1681 10.449 14.1868L10.4021 14.3883L10.3974 14.393ZM10.8754 14.2665C10.8894 14.2431 10.9082 14.2478 10.9082 14.2384L10.8941 14.229H10.8613L10.8285 14.2196H10.8098C10.8098 14.2384 10.852 14.229 10.8426 14.2665C10.8426 14.2759 10.8348 14.2931 10.8192 14.3181L10.7395 14.4446L10.7348 14.454V14.4399L10.7067 14.2899L10.702 14.229C10.702 14.2103 10.7254 14.2197 10.7301 14.2056L10.7161 14.1962L10.6692 14.1915L10.6317 14.1822H10.613L10.6177 14.1915C10.6364 14.1978 10.6442 14.2087 10.6411 14.2243L10.6926 14.5008C10.6958 14.5164 10.7004 14.5242 10.7067 14.5242L10.7161 14.5149L10.8754 14.2665ZM10.8988 14.5196L10.9035 14.5383L10.9691 14.5664C11.0253 14.5727 11.0613 14.5461 11.0769 14.4868C11.0831 14.4368 11.0644 14.4008 11.0207 14.379C10.9738 14.3415 10.9504 14.3321 10.9597 14.304C10.9629 14.2728 10.9785 14.2603 11.0066 14.2665C11.0769 14.2759 11.0722 14.3602 11.0816 14.3602C11.0878 14.3602 11.0909 14.3555 11.0909 14.3462L11.0956 14.2853V14.2712H11.0722L11.016 14.2478C10.966 14.2415 10.9347 14.2665 10.9222 14.3227C10.916 14.3634 10.9316 14.393 10.9691 14.4118C11.0253 14.454 11.0488 14.4586 11.0441 14.5008C11.0316 14.5352 11.0097 14.5508 10.9785 14.5477C10.9347 14.5321 10.9113 14.5008 10.9082 14.454L10.9035 14.4399C10.8973 14.443 10.8941 14.4493 10.8941 14.4586V14.5196H10.8988ZM11.4893 14.3555C11.5033 14.3274 11.5174 14.3321 11.5221 14.3227C11.5221 14.3165 11.5174 14.3134 11.508 14.3134H11.4705L11.4377 14.3087L11.419 14.3134C11.419 14.3321 11.4658 14.3134 11.4565 14.3602L11.4424 14.4071L11.3768 14.543L11.3674 14.5524V14.543L11.3206 14.393L11.3112 14.3321C11.3112 14.3134 11.3393 14.3181 11.3393 14.3087C11.3393 14.2993 11.3393 14.2993 11.3253 14.2993H11.2784L11.2409 14.2946H11.2222L11.2268 14.304C11.2425 14.3102 11.2518 14.3196 11.255 14.3321L11.3346 14.6039C11.3377 14.6195 11.3424 14.6273 11.3487 14.6273L11.3581 14.6133L11.4893 14.3555Z" fill="#703D29"/>
<path d="M11.5507 14.5714C11.5507 14.6183 11.5132 14.6089 11.5132 14.6276H11.5601L11.607 14.6323L11.6257 14.6276C11.6257 14.6042 11.5741 14.637 11.5741 14.5479V14.3885C11.5741 14.3885 11.5835 14.3885 11.5882 14.3979L11.7757 14.6323H11.7898V14.6229L11.7945 14.3745C11.7945 14.3276 11.832 14.337 11.832 14.3229L11.8226 14.3182H11.7288V14.3229C11.7288 14.337 11.7757 14.3323 11.7757 14.3698V14.5198L11.771 14.5386L11.757 14.5245L11.5976 14.3276C11.5976 14.3182 11.5929 14.3135 11.5835 14.3135H11.5179L11.5132 14.3229C11.5132 14.3416 11.5601 14.3135 11.5554 14.4026V14.5714H11.5507ZM11.9445 14.3698C11.9445 14.3229 11.9726 14.3416 11.9726 14.3276L11.9586 14.3229H11.8507C11.8507 14.3416 11.8929 14.3276 11.8929 14.3698V14.5854C11.8929 14.6323 11.8648 14.6183 11.8648 14.6323V14.637H11.9726L11.9867 14.6323C11.9867 14.6183 11.9398 14.637 11.9398 14.5854L11.9445 14.3698ZM12.1133 14.5761C12.1133 14.6323 12.0664 14.6089 12.0664 14.6229C12.0664 14.6355 12.0711 14.6401 12.0805 14.637H12.193C12.2086 14.637 12.2164 14.6339 12.2164 14.6276C12.2164 14.6136 12.1649 14.6276 12.1649 14.5714V14.3698C12.1649 14.351 12.1696 14.3432 12.1789 14.3463H12.2164C12.2633 14.3463 12.2493 14.3932 12.2633 14.3932C12.2727 14.387 12.2758 14.3792 12.2727 14.3698L12.268 14.3276C12.268 14.3276 12.268 14.3182 12.2586 14.3182H12.0195C12.0133 14.3182 12.0101 14.3229 12.0101 14.3323L12.0055 14.3885L12.0101 14.4073C12.0289 14.4073 12.0148 14.3463 12.0617 14.3463H12.0945C12.1102 14.3432 12.118 14.351 12.118 14.3698V14.5761H12.1133ZM12.3477 14.4917H12.3336V14.4729L12.3618 14.3885H12.3665L12.4133 14.4682V14.4823L12.404 14.487L12.3477 14.4917ZM12.418 14.5104C12.4243 14.5042 12.4337 14.5167 12.4462 14.5479L12.4555 14.5761C12.4555 14.6042 12.4274 14.6042 12.4274 14.6136C12.4274 14.6198 12.4321 14.6214 12.4415 14.6183H12.4884L12.5352 14.6136C12.5477 14.6136 12.554 14.6104 12.554 14.6042C12.554 14.5901 12.5306 14.6089 12.5165 14.5761L12.3852 14.3135L12.3758 14.2995L12.3665 14.3182L12.2774 14.5948L12.2493 14.6276C12.2493 14.6339 12.2539 14.6355 12.2633 14.6323H12.3336C12.3461 14.6323 12.354 14.6276 12.3571 14.6183C12.3571 14.6089 12.3102 14.6183 12.3102 14.5854L12.3149 14.5526C12.3243 14.5245 12.3321 14.5136 12.3383 14.5198L12.418 14.5104ZM12.7275 14.3229C12.7275 14.2948 12.7275 14.2948 12.7744 14.2901C12.8494 14.276 12.8259 14.337 12.8447 14.3323C12.8509 14.326 12.8525 14.3182 12.8494 14.3088L12.8447 14.2619H12.8353L12.7415 14.2713L12.6384 14.2854C12.6321 14.2854 12.629 14.2885 12.629 14.2948C12.629 14.3088 12.6759 14.2948 12.6759 14.3323L12.704 14.5386C12.7134 14.5948 12.6806 14.5714 12.6806 14.5948H12.69L12.7415 14.5901L12.7884 14.5854C12.7978 14.5854 12.804 14.5823 12.8072 14.5761C12.8072 14.562 12.7603 14.5761 12.7556 14.5292L12.7462 14.4635C12.74 14.4417 12.7447 14.4307 12.7603 14.4307H12.7884C12.8306 14.4214 12.8259 14.4729 12.8353 14.4682C12.8478 14.4651 12.8494 14.4573 12.84 14.4448L12.8306 14.3698C12.8275 14.3573 12.8244 14.3526 12.8212 14.3557C12.8119 14.3557 12.8165 14.4026 12.7837 14.4026L12.7556 14.4073C12.74 14.4104 12.7337 14.4042 12.7368 14.3885L12.7275 14.3229ZM12.8775 14.426C12.8962 14.5198 12.9494 14.562 13.0369 14.5526C13.1635 14.5292 13.1682 14.412 13.1541 14.3557C13.14 14.2619 13.0697 14.2151 12.99 14.2291C12.8962 14.2479 12.8587 14.3323 12.8775 14.426ZM12.9197 14.3932C12.9056 14.3276 12.9197 14.2666 12.9853 14.2526C13.0322 14.2385 13.0932 14.2807 13.1119 14.3792C13.126 14.4542 13.1119 14.5198 13.0463 14.5292C12.9759 14.5432 12.9338 14.4589 12.9197 14.3932ZM13.2338 14.2385C13.2276 14.2135 13.2338 14.2026 13.2526 14.2057C13.2932 14.1994 13.3198 14.2198 13.3323 14.2666C13.337 14.2901 13.3416 14.3135 13.2854 14.3276C13.2698 14.3338 13.2588 14.3338 13.2526 14.3276L13.2338 14.2338V14.2385ZM13.2338 14.4495C13.2479 14.5057 13.2104 14.4964 13.2151 14.5104C13.2151 14.5198 13.2197 14.5214 13.2291 14.5151L13.2901 14.5011L13.3229 14.4964C13.3323 14.4932 13.3354 14.4901 13.3323 14.487C13.3323 14.4682 13.2948 14.4964 13.2854 14.4495L13.2666 14.3745C13.2573 14.362 13.2619 14.3542 13.2807 14.351C13.2994 14.3479 13.3135 14.3526 13.3229 14.3651L13.3698 14.426C13.3854 14.4542 13.4088 14.4682 13.4401 14.4682C13.4542 14.4635 13.4776 14.4448 13.4729 14.4354C13.4729 14.4292 13.4714 14.4276 13.4682 14.4307H13.4401L13.3463 14.3229L13.3698 14.2995C13.3791 14.287 13.3823 14.2666 13.3791 14.2385C13.3745 14.2198 13.351 14.1588 13.2619 14.1822L13.1869 14.201L13.14 14.2104L13.1307 14.2198C13.1354 14.2385 13.1775 14.2104 13.1869 14.2573L13.2338 14.4495ZM13.5573 14.3792C13.5714 14.426 13.5198 14.4214 13.5245 14.4354C13.5245 14.4448 13.5292 14.4479 13.5386 14.4448L13.5948 14.426L13.6511 14.412C13.6636 14.412 13.6683 14.4088 13.6651 14.4026C13.6651 14.3885 13.6183 14.412 13.6042 14.3604L13.5526 14.1635C13.5495 14.1479 13.5542 14.1385 13.5667 14.1354L13.5995 14.126C13.6464 14.1119 13.6464 14.1635 13.6604 14.1635V14.1401L13.6417 14.0979C13.6417 14.0979 13.6417 14.0885 13.6323 14.0885L13.5151 14.1213L13.3979 14.1541C13.3917 14.1541 13.3901 14.1572 13.3932 14.1635L13.4026 14.2244C13.4026 14.2307 13.4057 14.2354 13.412 14.2385C13.426 14.2338 13.4026 14.1776 13.4448 14.1682L13.4776 14.1588C13.4901 14.1557 13.4995 14.1619 13.5057 14.1776L13.5526 14.3792H13.5573ZM13.7636 14.1025C13.7495 14.0603 13.7823 14.0697 13.7777 14.0557H13.7636C13.7448 14.0557 13.7292 14.0603 13.7167 14.0697L13.6698 14.0791C13.6698 14.0791 13.6558 14.0791 13.6604 14.0885C13.6651 14.0979 13.7073 14.0791 13.7167 14.1166L13.773 14.3229C13.7823 14.3698 13.7542 14.3604 13.7589 14.3792L13.8058 14.3698L13.8667 14.3557C13.8761 14.3526 13.8792 14.3479 13.8761 14.3416C13.8761 14.3276 13.8339 14.3604 13.8199 14.3088L13.7636 14.1025ZM13.848 14.201C13.8792 14.2916 13.9386 14.326 14.0261 14.3041C14.148 14.2619 14.134 14.1494 14.1152 14.0932C14.0871 13.9994 14.0074 13.9666 13.9371 13.99C13.8433 14.0228 13.8152 14.1119 13.848 14.201ZM13.8855 14.1635C13.8667 14.1025 13.8667 14.0369 13.9324 14.0135C13.9793 13.9947 14.0402 14.0275 14.073 14.126C14.0965 14.1963 14.0965 14.2573 14.0261 14.2807C13.9605 14.3041 13.9089 14.2244 13.8855 14.1635ZM14.1715 13.9619C14.1652 13.9369 14.1715 13.9244 14.1902 13.9244C14.2309 13.915 14.259 13.9306 14.2746 13.9713C14.284 13.9994 14.2934 14.0182 14.2371 14.0463C14.2215 14.0525 14.2105 14.0525 14.2043 14.0463L14.1715 13.9619ZM14.2043 14.1729C14.2231 14.2198 14.1855 14.2198 14.1949 14.2338C14.1949 14.2401 14.1996 14.2401 14.209 14.2338L14.2652 14.2151L14.2981 14.201C14.3074 14.201 14.3106 14.1979 14.3074 14.1916C14.3028 14.1776 14.2699 14.2057 14.2512 14.1635L14.2231 14.0932C14.2231 14.0744 14.2137 14.0744 14.2371 14.065C14.2496 14.0588 14.2637 14.0619 14.2793 14.0744L14.3356 14.1307C14.3575 14.1557 14.3825 14.1651 14.4106 14.1588C14.4293 14.1494 14.4387 14.1369 14.4387 14.1213H14.4059L14.3028 14.0275L14.3168 14.0041C14.3231 13.9916 14.3231 13.9713 14.3168 13.9431C14.3074 13.9244 14.2793 13.8681 14.1949 13.9009L14.1199 13.9338L14.073 13.9478V13.9572C14.0777 13.9713 14.1105 13.9385 14.1293 13.9853L14.2043 14.1729Z" fill="#703D29"/>
<path d="M9.92456 9.58485H11.8944V11.5523H9.92456V9.58485Z" fill="#D52B1E"/>
<path d="M10.8481 11.1331C10.8481 11.1331 10.8481 11.205 10.8289 11.2602C10.8049 11.325 10.8049 11.325 10.7833 11.3562C10.7601 11.3943 10.729 11.4271 10.6921 11.4522C10.6441 11.4826 10.5961 11.4953 10.5482 11.4905C10.4186 11.481 10.3562 11.337 10.3274 11.2218C10.2962 11.0995 10.2075 11.0299 10.1475 11.0779C10.1155 11.1051 10.1131 11.1419 10.1403 11.1882C10.1661 11.2194 10.2002 11.2427 10.2387 11.2554L10.1691 11.3442C10.1691 11.3442 10.0179 11.325 9.98913 11.1666C9.97713 11.1067 10.0059 10.9963 10.1067 10.9627C10.2339 10.9195 10.313 11.0107 10.3538 11.0875C10.4066 11.193 10.4306 11.385 10.5793 11.3562C10.6609 11.3394 10.6993 11.2218 10.6993 11.1666L10.7569 11.1043L10.8457 11.1331H10.8481Z" fill="white"/>
<path d="M10.9713 11.1331C10.9713 11.1331 10.9713 11.205 10.9905 11.2602C11.0145 11.325 11.0145 11.325 11.036 11.3562C11.0592 11.3943 11.0903 11.4271 11.1272 11.4522C11.1752 11.4826 11.2232 11.4953 11.2712 11.4905C11.4007 11.481 11.4631 11.337 11.4919 11.2218C11.5231 11.0995 11.6119 11.0299 11.6719 11.0779C11.7038 11.1051 11.7062 11.1419 11.6791 11.1882C11.6532 11.2194 11.6191 11.2427 11.5807 11.2554L11.6503 11.3442C11.6503 11.3442 11.8014 11.325 11.8302 11.1666C11.8422 11.1067 11.8134 10.9963 11.7126 10.9627C11.5855 10.9195 11.5063 11.0107 11.4655 11.0875C11.4127 11.193 11.3887 11.385 11.24 11.3562C11.1584 11.3394 11.12 11.2218 11.12 11.1666L11.0624 11.1043L10.9737 11.1331H10.9713Z" fill="white"/>
<path d="M11.0858 10.2974L11.3449 10.0167C11.3449 10.0167 11.3833 9.98554 11.3833 9.93516L11.3305 9.94476L11.3185 9.91597L11.3161 9.88957L11.3881 9.87278V9.84159L11.3953 9.8104L11.3185 9.8152L11.3257 9.78161L11.3377 9.75761L11.3833 9.74802H11.4289C11.4721 9.66644 11.6496 9.59446 11.7744 9.72402C11.8656 9.81999 11.8464 9.99274 11.7264 10.0407C11.6998 10.0536 11.6699 10.058 11.6407 10.0533C11.6115 10.0486 11.5844 10.035 11.5633 10.0143L11.6112 9.91837C11.676 9.95915 11.7312 9.91117 11.7264 9.86078C11.7216 9.796 11.6784 9.75761 11.6232 9.75281C11.5673 9.75122 11.5273 9.77521 11.5033 9.82479C11.4889 9.85598 11.4961 9.87758 11.4913 9.91117C11.4865 9.94716 11.4913 9.96635 11.4793 10.0023C11.4674 10.0354 11.4476 10.065 11.4217 10.0887L11.1578 10.3766L10.1261 11.4899L10.0493 11.4179L11.0858 10.2974Z" fill="#FEDF00"/>
<path d="M10.3276 10.3934C10.3276 10.3934 10.3924 10.7149 10.6131 11.1972C10.7259 11.1564 10.7907 11.13 10.9107 11.13C11.0306 11.13 11.093 11.154 11.2058 11.1972C11.3286 10.9399 11.4243 10.6705 11.4913 10.3934L10.9107 9.64964L10.3276 10.3934Z" fill="white"/>
<path d="M10.9658 9.89917L11.3689 10.4198C11.3689 10.4198 11.3161 10.6717 11.1529 11.0508C11.0882 11.0364 11.033 11.0244 10.9658 11.0196V9.89917ZM10.853 9.89917L10.45 10.4198C10.45 10.4198 10.5027 10.6717 10.6659 11.0508C10.7307 11.0364 10.7858 11.0244 10.853 11.0196V9.89917Z" fill="#FEDF00"/>
<path d="M12.1038 9.58292H14.0813V11.5511H12.1131L12.1038 9.58292Z" fill="#FEDF00"/>
<path d="M12.3804 9.58292H12.6756V11.5511H12.3804V9.58292ZM12.9427 9.58292H13.2379V11.5511H12.9474L12.9427 9.58292ZM13.505 9.58292H13.8003V11.5511H13.5097L13.505 9.58292Z" fill="#D52B1E"/>
<path d="M9.92876 13.258C9.93501 13.2986 9.95219 13.3517 9.98031 13.4173C10.0178 13.4735 10.0037 13.4735 10.0834 13.5579C10.1705 13.642 10.2791 13.7004 10.3974 13.7266C10.5567 13.7734 10.6645 13.7734 10.7957 13.7687C10.8988 13.7625 10.9816 13.7531 11.044 13.7406C11.1378 13.7313 11.2034 13.7219 11.3112 13.7172H11.4564C11.5127 13.7203 11.5704 13.7281 11.6298 13.7406C11.761 13.7687 11.8922 13.8203 11.8922 13.8203V11.7631H9.92407V13.1689L9.92876 13.258Z" fill="#FEDF00"/>
<path d="M10.1584 13.6188L10.2522 13.675L10.3787 13.7219V11.7631H10.1584V13.6188ZM11.255 13.7125V11.7631H11.0347V13.7406L11.255 13.7172V13.7125ZM11.6908 11.7631H11.4752V13.7172L11.6908 13.7547V11.7631ZM10.8192 11.7631V13.7641H10.5989V11.7631H10.8192Z" fill="#D52B1E" stroke="#D52B1E" stroke-width="0.0140651"/>
<path d="M14.0707 13.2592C14.062 13.3146 14.0442 13.3681 14.0179 13.4176C13.9819 13.4728 13.9939 13.4728 13.9148 13.5615C13.8292 13.6465 13.7209 13.7048 13.6029 13.7295C13.473 13.7636 13.3385 13.7766 13.2046 13.7679C13.1038 13.7615 13.0214 13.7535 12.9575 13.7439C12.8663 13.7295 12.7967 13.7223 12.6935 13.7199H12.5448C12.3951 13.7368 12.2478 13.7706 12.1057 13.8207V11.7621H14.0779V13.1657L14.0707 13.2592Z" fill="#FEDF00"/>
<path d="M12.6099 11.93L12.5955 11.9348L12.5763 11.954C12.5683 11.962 12.5587 11.9684 12.5475 11.9732L12.5331 11.9852C12.5259 11.9924 12.5331 11.9996 12.5259 12.0092C12.5243 12.0172 12.5195 12.0252 12.5115 12.0332C12.5035 12.0412 12.4955 12.0492 12.4875 12.0572L12.4588 12.0812L12.4516 12.0836H12.4372L12.418 12.1028L12.4252 12.1172L12.4444 12.1508C12.4476 12.1604 12.4516 12.1668 12.4564 12.17C12.4676 12.1748 12.478 12.1756 12.4875 12.1724L12.5355 12.1844L12.5715 12.2036C12.5811 12.21 12.5915 12.214 12.6027 12.2156H12.6459V12.2228L12.6939 12.2468L12.6915 12.2564C12.6883 12.2643 12.6875 12.2707 12.6891 12.2755C12.7051 12.3219 12.7171 12.3475 12.7251 12.3523C12.7379 12.3587 12.7467 12.3707 12.7515 12.3883L12.7443 12.3955C12.7283 12.4083 12.7147 12.4227 12.7035 12.4387C12.6867 12.4675 12.6747 12.4675 12.6963 12.5059L12.7323 12.5635L12.7515 12.6114C12.7563 12.6274 12.7587 12.6434 12.7587 12.6594L12.7827 12.6666L12.7995 12.6522L12.8138 12.6234V12.5994C12.8091 12.5962 12.8075 12.5906 12.8091 12.5827C12.8091 12.5731 12.821 12.5755 12.8258 12.5683C12.833 12.5563 12.8162 12.5491 12.8091 12.5419C12.7947 12.5251 12.7755 12.5203 12.7707 12.4963C12.7691 12.4915 12.7723 12.4859 12.7803 12.4795L12.8282 12.4363C12.8346 12.4395 12.8426 12.4403 12.8522 12.4387L12.8834 12.4483H12.9218L12.9242 12.4627C12.9266 12.4867 12.9218 12.5347 12.929 12.5467L12.9362 12.5611L12.941 12.5755V12.6234L12.9362 12.6642C12.9362 12.6738 12.9322 12.6818 12.9242 12.6882C12.9162 12.6946 12.9082 12.7002 12.9002 12.705V12.729L12.9266 12.741L12.9578 12.7482L12.9746 12.741L12.977 12.7266L12.989 12.7146L13.0106 12.7122C13.0138 12.7074 13.0138 12.701 13.0106 12.693C13.0106 12.6802 13.0082 12.6674 13.0034 12.6546L13.001 12.5875C13.001 12.5747 13.0026 12.5627 13.0058 12.5515C13.0082 12.5275 13.0154 12.5179 13.0202 12.4987L13.0298 12.4387C13.1107 12.4512 13.1933 12.4463 13.2721 12.4243C13.2913 12.4403 13.3129 12.4531 13.3369 12.4627V12.4867C13.3369 12.4931 13.3385 12.4987 13.3417 12.5035L13.3489 12.5107C13.3553 12.5107 13.3609 12.5091 13.3657 12.5059C13.3705 12.5027 13.3721 12.4971 13.3705 12.4891V12.4723H13.4137V12.4987C13.4169 12.5051 13.4209 12.5083 13.4257 12.5083H13.4401C13.4449 12.5019 13.4473 12.4939 13.4473 12.4843V12.4675L13.4712 12.4579V12.4795L13.4641 12.5011C13.4593 12.5155 13.4521 12.5203 13.4449 12.5347C13.4385 12.5475 13.4305 12.5595 13.4209 12.5707L13.4065 12.5875L13.3921 12.609L13.3705 12.633C13.3537 12.6474 13.3417 12.6378 13.3225 12.6546L13.3153 12.6786L13.3489 12.693L13.3801 12.6978L13.3897 12.693C13.3897 12.685 13.3921 12.6786 13.3969 12.6738C13.4017 12.669 13.4073 12.6658 13.4137 12.6642C13.4233 12.6642 13.4313 12.6626 13.4377 12.6594C13.4441 12.6498 13.4497 12.6378 13.4545 12.6234C13.4723 12.588 13.4967 12.5562 13.5264 12.5299L13.5672 12.4963C13.5736 12.4899 13.5776 12.4819 13.5792 12.4723L13.5744 12.4579L13.5696 12.4339C13.6056 12.4507 13.5936 12.4507 13.5984 12.4675C13.6056 12.4819 13.5984 12.4915 13.6008 12.5083C13.6032 12.5275 13.6128 12.5347 13.6128 12.5539C13.6128 12.5715 13.6104 12.5898 13.6056 12.609C13.6056 12.625 13.6016 12.641 13.5936 12.657C13.5878 12.6709 13.5787 12.6833 13.5672 12.693L13.5528 12.705L13.5504 12.729L13.5768 12.7386L13.6152 12.7482L13.6248 12.741C13.6296 12.7242 13.6248 12.7002 13.6344 12.7002C13.644 12.7002 13.6504 12.6978 13.6536 12.693V12.6762L13.6704 12.5683L13.68 12.5227L13.6896 12.4819C13.7064 12.4339 13.6848 12.4267 13.6656 12.3955C13.6544 12.3811 13.6488 12.3691 13.6488 12.3595V12.2228L13.6584 12.218C13.6872 12.2012 13.6992 12.1964 13.716 12.158L13.7232 12.122V12.098L13.7136 12.074L13.6992 12.0548C13.6824 12.0308 13.6584 12.0284 13.6344 12.0188C13.5984 12.0068 13.5744 12.0092 13.5384 12.0068C13.4952 12.002 13.4736 12.002 13.4329 12.0068C13.3849 12.0068 13.3585 12.0164 13.3105 12.0236L13.1929 12.0332C13.1378 12.0332 13.0874 12.0212 13.0538 12.0236C12.9962 12.0284 12.9938 12.0428 12.905 12.05L12.8138 12.0548L12.7611 12.038C12.7827 12.0308 12.7875 12.026 12.7971 12.014C12.8067 12.002 12.8019 11.9972 12.8114 11.9876L12.8282 11.9636L12.8067 11.954H12.7827L12.7539 11.9612L12.7347 11.9756L12.6819 11.9468C12.6593 11.9355 12.635 11.9282 12.6099 11.9253V11.93Z" fill="#D52B1E"/>
<path d="M13.6708 12.23L13.6516 12.2372C13.6324 12.2452 13.6116 12.2492 13.5892 12.2492C13.5268 12.254 13.486 12.2228 13.4212 12.2276C13.3877 12.23 13.3733 12.2564 13.3373 12.266L13.2965 12.2708L13.3085 12.2468C13.3085 12.2468 13.2797 12.254 13.2605 12.254L13.2221 12.2492L13.2461 12.2252L13.2149 12.2204L13.1909 12.2036L13.2317 12.1964C13.2677 12.1868 13.2797 12.1676 13.3253 12.1628C13.3517 12.1628 13.3973 12.1628 13.5076 12.182C13.5796 12.194 13.6132 12.1868 13.6396 12.1748C13.6556 12.1668 13.6644 12.1524 13.666 12.1316C13.666 12.1124 13.6596 12.098 13.6468 12.0884L13.6204 12.0788" stroke="#FEDF00" stroke-width="0.0240044" stroke-linecap="round"/>
<path d="M12.6147 12.0164C12.6036 12.0164 12.5932 12.0188 12.5837 12.0236C12.5741 12.0316 12.5662 12.0403 12.5598 12.0499C12.571 12.0546 12.5805 12.057 12.5885 12.057C12.5964 12.057 12.6028 12.0531 12.6076 12.0451C12.6139 12.0371 12.6171 12.0276 12.6171 12.0164H12.6147Z" fill="#FCD900" stroke="#FEDF00" stroke-width="0.0120022"/>
<path d="M12.8837 12.3334L12.9077 12.3886C12.9125 12.4078 12.9077 12.4174 12.9125 12.4366V12.475M13.0756 12.3071L13.0684 12.3382L13.0444 12.4222V12.439M12.7805 12.343C12.8021 12.3478 12.7949 12.4222 12.8261 12.439" stroke="#FEDF00" stroke-width="0.0240044" stroke-linecap="round"/>
<path d="M13.4624 12.4772L13.472 12.4701C13.4962 12.4603 13.5181 12.4457 13.5364 12.4271" stroke="#FEDF00" stroke-width="0.0240044"/>
<path d="M13.2776 12.4342C13.3616 12.4126 13.4191 12.3718 13.4599 12.3646M13.364 12.3287H13.3832C13.4191 12.3215 13.4239 12.343 13.4479 12.3574C13.4935 12.3814 13.4983 12.4126 13.5511 12.439L13.5607 12.4414L13.5799 12.451" stroke="#FEDF00" stroke-width="0.0240044" stroke-linecap="round"/>
<path d="M12.4446 12.11H12.4613L12.4804 12.1052C12.4868 12.1052 12.4923 12.1068 12.4971 12.11C12.5003 12.11 12.5027 12.1124 12.5043 12.1172C12.5059 12.1219 12.5067 12.1259 12.5067 12.1291C12.5067 12.1339 12.5019 12.1371 12.4923 12.1387C12.4876 12.1387 12.4836 12.1363 12.4804 12.1315V12.1219C12.4771 12.1236 12.4734 12.1245 12.4696 12.1245C12.4659 12.1245 12.4622 12.1236 12.4589 12.1219L12.4446 12.11Z" fill="#FCD900" stroke="#FEDF00" stroke-width="0.0120022"/>
<path d="M12.6219 12.3427L12.5739 12.3211L12.5979 12.3091L12.6099 12.2779C12.6115 12.2619 12.6171 12.2507 12.6267 12.2443C12.6363 12.2379 12.6451 12.2371 12.6531 12.2419C12.6643 12.2435 12.6714 12.2491 12.6746 12.2587C12.6746 12.2715 12.6722 12.2835 12.6675 12.2947L12.6627 12.3283C12.6627 12.3379 12.6659 12.3459 12.6722 12.3523L12.6243 12.3427H12.6219ZM12.5979 12.3667C12.5974 12.3639 12.5979 12.3611 12.599 12.3585C12.6002 12.3559 12.6022 12.3538 12.6046 12.3523C12.607 12.3508 12.6098 12.3501 12.6126 12.3502C12.6154 12.3503 12.6182 12.3512 12.6205 12.3528C12.6228 12.3545 12.6245 12.3568 12.6255 12.3594C12.6266 12.362 12.6268 12.3649 12.6262 12.3677C12.6255 12.3705 12.6241 12.373 12.6221 12.3749C12.62 12.3769 12.6175 12.3782 12.6147 12.3787C12.6126 12.3791 12.6105 12.3789 12.6084 12.3784C12.6064 12.3778 12.6045 12.3768 12.6029 12.3754C12.6013 12.3741 12.6 12.3724 12.5991 12.3704C12.5983 12.3685 12.5978 12.3664 12.5979 12.3643V12.3667ZM12.5571 11.9684H12.5523L12.5379 11.9396L12.5307 11.9108V11.8629C12.5307 11.8549 12.5291 11.8477 12.5259 11.8413C12.5259 11.8365 12.5163 11.8341 12.5187 11.8317H12.5283C12.5363 11.8317 12.5443 11.8349 12.5523 11.8413C12.5603 11.8477 12.5651 11.8557 12.5667 11.8653L12.5763 11.9013L12.5835 11.9204L12.5955 11.9348L12.5787 11.954L12.5571 11.9684ZM12.6435 12.2228L12.6962 12.2467C12.7325 12.2252 12.7617 12.1935 12.7802 12.1556C12.8018 12.1124 12.8042 12.0908 12.8138 12.05L12.7706 12.038H12.761C12.749 12.0812 12.7442 12.1028 12.7226 12.1388C12.7034 12.1708 12.6826 12.1948 12.6603 12.2108L12.6435 12.2228ZM12.7634 12.6594L12.7826 12.6282L12.8162 12.6018H12.8258C12.8254 12.6247 12.8213 12.6474 12.8138 12.669L12.8042 12.693L12.7922 12.705C12.7802 12.6858 12.761 12.6738 12.761 12.657L12.7634 12.6594ZM13.5552 12.7026L13.5888 12.717L13.6248 12.7386V12.7506L13.5888 12.7554H13.5336L13.5192 12.7458C13.5312 12.729 13.5384 12.7074 13.5528 12.7026H13.5552ZM13.3201 12.6546L13.3536 12.6666L13.3896 12.6906V12.7002C13.3685 12.7059 13.3467 12.7083 13.3249 12.7074L13.3009 12.705L13.2841 12.6978C13.2985 12.681 13.3057 12.657 13.3201 12.6546ZM12.9026 12.705L12.9386 12.717L12.9746 12.741V12.753C12.9526 12.7581 12.9299 12.7597 12.9074 12.7578H12.8834L12.869 12.7482C12.881 12.7314 12.8882 12.7098 12.9026 12.705ZM12.6866 11.99C12.6706 11.9804 12.6659 11.9676 12.6722 11.9516L12.6866 11.942C12.6898 11.9356 12.6898 11.9292 12.6866 11.9228L12.6842 11.8989L12.6794 11.8749C12.6778 11.8621 12.681 11.8493 12.689 11.8365C12.697 11.8285 12.7034 11.8237 12.7082 11.8221C12.7114 11.8269 12.7114 11.8333 12.7082 11.8413C12.7082 11.8509 12.7106 11.8605 12.7154 11.8701L12.7322 11.9013L12.7418 11.9348L12.737 11.9636L12.7226 11.9828L12.7034 11.9924L12.6866 11.99Z" fill="#0065BD"/>
<path d="M12.6099 12.8087L12.5955 12.8135L12.5763 12.8327C12.5683 12.8407 12.5587 12.8471 12.5475 12.8519L12.5331 12.8639C12.5259 12.8711 12.5331 12.8783 12.5259 12.8879C12.5243 12.8959 12.5195 12.9039 12.5115 12.9119C12.5035 12.9199 12.4955 12.9279 12.4875 12.9359L12.4588 12.9599L12.4516 12.9623H12.4372L12.418 12.9815L12.4252 12.9959L12.4444 13.0294C12.4476 13.039 12.4516 13.0454 12.4564 13.0486C12.4676 13.0534 12.478 13.0542 12.4875 13.051L12.5355 13.063L12.5715 13.0822C12.5811 13.0886 12.5915 13.0926 12.6027 13.0942H12.6459V13.1014L12.6939 13.1254L12.6915 13.135C12.6883 13.143 12.6875 13.1494 12.6891 13.1542C12.7051 13.2006 12.7171 13.2262 12.7251 13.231C12.7379 13.2374 12.7467 13.2494 12.7515 13.267L12.7443 13.2742C12.7283 13.287 12.7147 13.3014 12.7035 13.3174C12.6867 13.3461 12.6747 13.3461 12.6963 13.3845L12.7323 13.4421L12.7515 13.4901C12.7563 13.5061 12.7587 13.5221 12.7587 13.5381L12.7827 13.5453L12.7995 13.5309L12.8138 13.5021V13.4781C12.8091 13.4749 12.8075 13.4693 12.8091 13.4613C12.8091 13.4517 12.821 13.4541 12.8258 13.4469C12.833 13.4349 12.8162 13.4277 12.8091 13.4205C12.7947 13.4037 12.7755 13.3989 12.7707 13.3749C12.7691 13.3701 12.7723 13.3645 12.7803 13.3581L12.8282 13.315C12.8346 13.3182 12.8426 13.319 12.8522 13.3174L12.8834 13.327H12.9218L12.9242 13.3414C12.9266 13.3653 12.9218 13.4133 12.929 13.4253L12.9362 13.4397L12.941 13.4541V13.5021L12.9362 13.5429C12.9362 13.5525 12.9322 13.5605 12.9242 13.5669C12.9162 13.5733 12.9082 13.5789 12.9002 13.5837V13.6077L12.9266 13.6197L12.9578 13.6269L12.9746 13.6197L12.977 13.6053L12.989 13.5933L13.0106 13.5909C13.0138 13.5861 13.0138 13.5797 13.0106 13.5717C13.0106 13.5589 13.0082 13.5461 13.0034 13.5333L13.001 13.4661C13.001 13.4533 13.0026 13.4413 13.0058 13.4301C13.0082 13.4061 13.0154 13.3965 13.0202 13.3773L13.0298 13.3174C13.1107 13.3298 13.1933 13.3249 13.2721 13.303C13.2913 13.319 13.3129 13.3318 13.3369 13.3414V13.3653C13.3369 13.3717 13.3385 13.3773 13.3417 13.3821L13.3489 13.3893C13.3553 13.3893 13.3609 13.3877 13.3657 13.3845C13.3705 13.3813 13.3721 13.3757 13.3705 13.3677V13.3509H13.4137V13.3773C13.4169 13.3837 13.4209 13.3869 13.4257 13.3869H13.4401C13.4449 13.3805 13.4473 13.3725 13.4473 13.3629V13.3461L13.4712 13.3366V13.3581L13.4641 13.3797C13.4593 13.3941 13.4521 13.3989 13.4449 13.4133C13.4385 13.4261 13.4305 13.4381 13.4209 13.4493L13.4065 13.4661L13.3921 13.4877L13.3705 13.5117C13.3537 13.5261 13.3417 13.5165 13.3225 13.5333L13.3153 13.5573L13.3489 13.5717L13.3801 13.5765L13.3897 13.5717C13.3897 13.5637 13.3921 13.5573 13.3969 13.5525C13.4017 13.5477 13.4073 13.5445 13.4137 13.5429C13.4233 13.5429 13.4313 13.5413 13.4377 13.5381C13.4441 13.5285 13.4497 13.5165 13.4545 13.5021C13.4723 13.4666 13.4967 13.4349 13.5264 13.4085L13.5672 13.3749C13.5736 13.3685 13.5776 13.3605 13.5792 13.3509L13.5744 13.3366L13.5696 13.3126C13.6056 13.3294 13.5936 13.3294 13.5984 13.3461C13.6056 13.3605 13.5984 13.3701 13.6008 13.3869C13.6032 13.4061 13.6128 13.4133 13.6128 13.4325C13.6128 13.4501 13.6104 13.4685 13.6056 13.4877C13.6056 13.5037 13.6016 13.5197 13.5936 13.5357C13.5878 13.5496 13.5787 13.5619 13.5672 13.5717L13.5528 13.5837L13.5504 13.6077L13.5768 13.6173L13.6152 13.6269L13.6248 13.6197C13.6296 13.6029 13.6248 13.5789 13.6344 13.5789C13.644 13.5789 13.6504 13.5765 13.6536 13.5717V13.5549L13.6704 13.4469L13.68 13.4013L13.6896 13.3605C13.7064 13.3126 13.6848 13.3054 13.6656 13.2742C13.6544 13.2598 13.6488 13.2478 13.6488 13.2382V13.1014L13.6584 13.0966C13.6872 13.0798 13.6992 13.075 13.716 13.0366L13.7232 13.0007V12.9767L13.7136 12.9527L13.6992 12.9335C13.6824 12.9095 13.6584 12.9071 13.6344 12.8975C13.5984 12.8855 13.5744 12.8879 13.5384 12.8855C13.4952 12.8807 13.4736 12.8807 13.4329 12.8855C13.3849 12.8855 13.3585 12.8951 13.3105 12.9023L13.1929 12.9119C13.1378 12.9119 13.0874 12.8999 13.0538 12.9023C12.9962 12.9071 12.9938 12.9215 12.905 12.9287L12.8138 12.9335L12.7611 12.9167C12.7827 12.9095 12.7875 12.9047 12.7971 12.8927C12.8067 12.8807 12.8019 12.8759 12.8114 12.8663L12.8282 12.8423L12.8067 12.8327H12.7827L12.7539 12.8399L12.7347 12.8543L12.6819 12.8255C12.6593 12.8142 12.635 12.8068 12.6099 12.8039V12.8087Z" fill="#D52B1E"/>
<path d="M13.6708 13.1087L13.6516 13.1159C13.6324 13.1239 13.6116 13.1279 13.5892 13.1279C13.5268 13.1327 13.486 13.1015 13.4212 13.1063C13.3877 13.1087 13.3733 13.1351 13.3373 13.1447L13.2965 13.1494L13.3085 13.1255C13.3085 13.1255 13.2797 13.1327 13.2605 13.1327L13.2221 13.1279L13.2461 13.1039L13.2149 13.0991L13.1909 13.0823L13.2317 13.0751C13.2677 13.0655 13.2797 13.0463 13.3253 13.0415C13.3517 13.0415 13.3973 13.0415 13.5076 13.0607C13.5796 13.0727 13.6132 13.0655 13.6396 13.0535C13.6556 13.0455 13.6644 13.0311 13.666 13.0103C13.666 12.9911 13.6596 12.9767 13.6468 12.9671L13.6204 12.9575" stroke="#FEDF00" stroke-width="0.0240044" stroke-linecap="round"/>
<path d="M12.6147 12.8951C12.6036 12.8951 12.5932 12.8975 12.5837 12.9023C12.5741 12.9103 12.5662 12.919 12.5598 12.9286C12.571 12.9333 12.5805 12.9357 12.5885 12.9357C12.5964 12.9357 12.6028 12.9317 12.6076 12.9238C12.6139 12.9158 12.6171 12.9063 12.6171 12.8951H12.6147Z" fill="#FCD900" stroke="#FEDF00" stroke-width="0.0120022"/>
<path d="M12.8837 13.2119L12.9077 13.267C12.9125 13.2862 12.9077 13.2958 12.9125 13.315V13.3534M13.0756 13.1855L13.0684 13.2167L13.0444 13.3006V13.3174M12.7805 13.2215C12.8021 13.2263 12.7949 13.3006 12.8261 13.3174" stroke="#FEDF00" stroke-width="0.0240044" stroke-linecap="round"/>
<path d="M13.4624 13.3558L13.472 13.3486C13.4962 13.3388 13.5181 13.3242 13.5364 13.3056" stroke="#FEDF00" stroke-width="0.0240044"/>
<path d="M13.2776 13.3128C13.3616 13.2912 13.4191 13.2504 13.4599 13.2432M13.364 13.2072H13.3832C13.4191 13.2 13.4239 13.2216 13.4479 13.236C13.4935 13.26 13.4983 13.2912 13.5511 13.3176L13.5607 13.32L13.5799 13.3296" stroke="#FEDF00" stroke-width="0.0240044" stroke-linecap="round"/>
<path d="M12.4446 12.9887H12.4613L12.4804 12.9839C12.4868 12.9839 12.4923 12.9855 12.4971 12.9887C12.5003 12.9887 12.5027 12.9911 12.5043 12.9959C12.5059 13.0006 12.5067 13.0046 12.5067 13.0078C12.5067 13.0126 12.5019 13.0157 12.4923 13.0173C12.4876 13.0173 12.4836 13.015 12.4804 13.0102V13.0006C12.4771 13.0023 12.4734 13.0032 12.4696 13.0032C12.4659 13.0032 12.4622 13.0023 12.4589 13.0006L12.4446 12.9887Z" fill="#FCD900" stroke="#FEDF00" stroke-width="0.0120022"/>
<path d="M12.6219 13.2214L12.5739 13.1998L12.5979 13.1878L12.6099 13.1566C12.6115 13.1406 12.6171 13.1294 12.6267 13.123C12.6363 13.1166 12.6451 13.1158 12.6531 13.1206C12.6643 13.1222 12.6714 13.1278 12.6746 13.1374C12.6746 13.1502 12.6722 13.1622 12.6675 13.1734L12.6627 13.207C12.6627 13.2166 12.6659 13.2246 12.6722 13.231L12.6243 13.2214H12.6219ZM12.5979 13.2454C12.5974 13.2426 12.5979 13.2397 12.599 13.2371C12.6002 13.2346 12.6022 13.2324 12.6046 13.2309C12.607 13.2295 12.6098 13.2287 12.6126 13.2288C12.6154 13.2289 12.6182 13.2298 12.6205 13.2315C12.6228 13.2331 12.6245 13.2354 12.6255 13.2381C12.6266 13.2407 12.6268 13.2436 12.6262 13.2464C12.6255 13.2491 12.6241 13.2516 12.6221 13.2536C12.62 13.2556 12.6175 13.2569 12.6147 13.2574C12.6126 13.2577 12.6105 13.2576 12.6084 13.257C12.6064 13.2565 12.6045 13.2555 12.6029 13.2541C12.6013 13.2527 12.6 13.251 12.5991 13.2491C12.5983 13.2472 12.5978 13.2451 12.5979 13.243V13.2454ZM12.5571 12.8471H12.5523L12.5379 12.8183L12.5307 12.7895V12.7415C12.5307 12.7335 12.5291 12.7263 12.5259 12.7199C12.5259 12.7151 12.5163 12.7127 12.5187 12.7103H12.5283C12.5363 12.7103 12.5443 12.7135 12.5523 12.7199C12.5603 12.7263 12.5651 12.7343 12.5667 12.7439L12.5763 12.7799L12.5835 12.7991L12.5955 12.8135L12.5787 12.8327L12.5571 12.8471ZM12.6435 13.1014L12.6962 13.1254C12.7325 13.1039 12.7617 13.0722 12.7802 13.0342C12.8018 12.991 12.8042 12.9695 12.8138 12.9287L12.7706 12.9167H12.761C12.749 12.9599 12.7442 12.9815 12.7226 13.0174C12.7034 13.0494 12.6826 13.0734 12.6603 13.0894L12.6435 13.1014ZM12.7634 13.5381L12.7826 13.5069L12.8162 13.4805H12.8258C12.8254 13.5034 12.8213 13.5261 12.8138 13.5477L12.8042 13.5717L12.7922 13.5837C12.7802 13.5645 12.761 13.5525 12.761 13.5357L12.7634 13.5381ZM13.5552 13.5813L13.5888 13.5957L13.6248 13.6173V13.6293L13.5888 13.6341H13.5336L13.5192 13.6245C13.5312 13.6077 13.5384 13.5861 13.5528 13.5813H13.5552ZM13.3201 13.5333L13.3536 13.5453L13.3896 13.5693V13.5789C13.3685 13.5845 13.3467 13.587 13.3249 13.5861L13.3009 13.5837L13.2841 13.5765C13.2985 13.5597 13.3057 13.5357 13.3201 13.5333ZM12.9026 13.5837L12.9386 13.5957L12.9746 13.6197V13.6317C12.9526 13.6368 12.9299 13.6384 12.9074 13.6365H12.8834L12.869 13.6269C12.881 13.6101 12.8882 13.5885 12.9026 13.5837ZM12.6866 12.8687C12.6706 12.8591 12.6659 12.8463 12.6722 12.8303L12.6866 12.8207C12.6898 12.8143 12.6898 12.8079 12.6866 12.8015L12.6842 12.7775L12.6794 12.7535C12.6778 12.7407 12.681 12.7279 12.689 12.7151C12.697 12.7071 12.7034 12.7023 12.7082 12.7007C12.7114 12.7055 12.7114 12.7119 12.7082 12.7199C12.7082 12.7295 12.7106 12.7391 12.7154 12.7487L12.7322 12.7799L12.7418 12.8135L12.737 12.8423L12.7226 12.8615L12.7034 12.8711L12.6866 12.8687Z" fill="#0065BD"/>
<path d="M9.92383 9.58297H11.8929V11.5521H9.92383V9.58297ZM12.1039 9.58297H14.0824V11.5521H12.1133L12.1039 9.58297ZM9.92852 13.2586C9.93477 13.2993 9.95196 13.3524 9.98009 13.418C10.0176 13.4743 10.0035 13.4743 10.0832 13.5587C10.1704 13.6429 10.2791 13.7013 10.3974 13.7275C10.5568 13.7744 10.6646 13.7744 10.7959 13.7697C10.899 13.7634 10.9818 13.754 11.0443 13.7415C11.1381 13.7322 11.2037 13.7228 11.3116 13.7181H11.4569C11.5132 13.7212 11.571 13.729 11.6304 13.7415C11.7617 13.7697 11.8929 13.8212 11.8929 13.8212V11.7631H9.92383V13.1696L9.92852 13.2586ZM14.073 13.2586C14.0699 13.2993 14.0527 13.3524 14.0214 13.418C13.9839 13.4743 13.998 13.4743 13.9183 13.5587C13.8312 13.6429 13.7225 13.7013 13.6042 13.7275C13.4746 13.7634 13.3399 13.7777 13.2057 13.7697C13.1057 13.7634 13.0228 13.754 12.9572 13.7415L12.6946 13.7181H12.5446C12.4884 13.7212 12.4305 13.729 12.3711 13.7415C12.2399 13.7697 12.1039 13.8212 12.1039 13.8212V11.7631H14.0824V13.1696L14.073 13.2586Z" stroke="#703D29" stroke-width="0.0187534"/>
</g>
<defs>
<clipPath id="clip0_720_53412">
<rect width="24.0044" height="24.0044" fill="white" transform="translate(0.0175781)"/>
</clipPath>
</defs>
</svg>
