<svg width="25" height="24" viewBox="0 0 25 24" fill="none" xmlns="http://www.w3.org/2000/svg">
<g clip-path="url(#clip0_720_53520)">
<path fill-rule="evenodd" clip-rule="evenodd" d="M0.0217285 0H24.0261V12.1803H0.0217285V0Z" fill="#FF0000"/>
<path fill-rule="evenodd" clip-rule="evenodd" d="M0.0214844 11.824H24.0259V24.0044H0.0214844V11.824Z" fill="#000001"/>
<path fill-rule="evenodd" clip-rule="evenodd" d="M10.7437 6.94812C18.4888 8.97818 13.5098 18.9315 7.40086 14.787L6.98828 15.4247C10.5842 17.9845 14.1427 15.9216 15.146 13.2493C16.1868 10.4925 14.7897 6.61525 10.8046 6.21674L10.7437 6.94812Z" fill="#FFEC00"/>
<path fill-rule="evenodd" clip-rule="evenodd" d="M7.99164 15.509L9.00901 15.9826L8.5308 17.0046L7.51343 16.5264L7.99164 15.509ZM14.9773 10.8441H16.1025V11.9693H14.9773V10.8441ZM14.4287 9.02037L15.4743 8.61717L15.8821 9.66267L14.8366 10.0706L14.4287 9.02037ZM13.2098 7.65606L14.0115 6.86373L14.8038 7.66075L14.0068 8.45308L13.2098 7.65606ZM11.9814 5.79009L13.0316 6.18391L12.6331 7.23411L11.5829 6.84028L11.9814 5.79009ZM14.8366 12.6585L15.8821 13.0758L15.4602 14.1166L14.4194 13.6993L14.8366 12.6585ZM11.5595 15.9404L12.5909 15.5044L13.0363 16.5358L12.0049 16.9765L11.5595 15.9404ZM9.70758 16.0717H10.8328V17.1969H9.70758V16.0717ZM11.6439 10.6332L10.6921 9.92991L9.7404 10.6144L10.1155 9.53609L9.16373 8.83283H10.3124L10.7109 7.77327L11.0766 8.83752L12.2346 8.82346L11.3157 9.54077L11.6439 10.6332Z" fill="#FFEC00"/>
<path fill-rule="evenodd" clip-rule="evenodd" d="M15.7744 16.2404C15.7181 16.2592 15.4837 16.8218 15.3196 17.0937L15.493 17.1406C16.1307 17.3656 16.4495 17.5719 16.7214 17.9611C16.7847 18.0215 16.8672 18.0578 16.9546 18.0638C17.0419 18.0698 17.1286 18.0451 17.1996 17.9939C17.1996 17.9939 17.3309 17.947 17.4997 17.7595C17.6403 17.5485 17.6028 17.3844 17.434 17.239C16.9183 16.864 16.3604 16.5827 15.7744 16.2404Z" fill="#FFEE00"/>
<path fill-rule="evenodd" clip-rule="evenodd" d="M17.1473 17.4778C17.1473 17.5318 17.1258 17.5837 17.0876 17.6219C17.0494 17.6601 16.9975 17.6816 16.9435 17.6816C16.8894 17.6816 16.8376 17.6601 16.7993 17.6219C16.7611 17.5837 16.7396 17.5318 16.7396 17.4778C16.7396 17.4243 16.7609 17.3731 16.7987 17.3353C16.8364 17.2975 16.8877 17.2762 16.9411 17.2762C16.9946 17.2762 17.0458 17.2975 17.0836 17.3353C17.1214 17.3731 17.1426 17.4243 17.1426 17.4778H17.1473ZM16.1445 16.8404C16.1445 16.8945 16.123 16.9464 16.0848 16.9846C16.0466 17.0228 15.9947 17.0443 15.9407 17.0443C15.8866 17.0443 15.8347 17.0228 15.7965 16.9846C15.7583 16.9464 15.7368 16.8945 15.7368 16.8404C15.7368 16.7864 15.7583 16.7345 15.7965 16.6963C15.8347 16.6581 15.8866 16.6366 15.9407 16.6366C15.9947 16.6366 16.0466 16.6581 16.0848 16.6963C16.123 16.7345 16.1445 16.7864 16.1445 16.8404ZM16.6553 17.1685C16.6553 17.2225 16.6338 17.2744 16.5956 17.3126C16.5574 17.3508 16.5055 17.3723 16.4514 17.3723C16.3974 17.3723 16.3455 17.3508 16.3073 17.3126C16.2691 17.2744 16.2476 17.2225 16.2476 17.1685C16.2476 17.1144 16.2691 17.0626 16.3073 17.0243C16.3455 16.9861 16.3974 16.9646 16.4514 16.9646C16.5055 16.9646 16.5574 16.9861 16.5956 17.0243C16.6338 17.0626 16.6553 17.1144 16.6553 17.1685Z" fill="#000001"/>
<path fill-rule="evenodd" clip-rule="evenodd" d="M15.2351 17.0515C13.2378 15.9122 11.1421 14.6839 9.1402 13.5446C8.26347 12.9961 8.22128 11.9787 8.81201 11.2051C8.86827 11.0973 8.94328 11.1207 8.97141 11.1817C9.04174 11.5568 9.25272 11.9459 9.50589 12.1897C11.5838 13.4968 13.6422 14.8347 15.6804 16.2029C15.521 16.4748 15.3991 16.7796 15.2351 17.0468V17.0515Z" fill="#FFEE00"/>
<path fill-rule="evenodd" clip-rule="evenodd" d="M13.9549 14.3229L14.789 15.0727L14.0392 15.9068L13.2051 15.157L13.9549 14.3229Z" fill="#FFEC00"/>
<path d="M15.5633 16.3529L9.70288 12.8132M14.8413 15.5372L12.8675 14.2572M13.7208 16.2592L11.7095 15.0965" stroke="black" stroke-width="0.140651"/>
</g>
<defs>
<clipPath id="clip0_720_53520">
<rect width="24.0044" height="24.0044" fill="white" transform="translate(0.0217285)"/>
</clipPath>
</defs>
</svg>
