<svg width="25" height="24" viewBox="0 0 25 24" fill="none" xmlns="http://www.w3.org/2000/svg">
<g clip-path="url(#clip0_720_53317)">
<path d="M0.0256348 -2.28882e-05H24.03V24.0043H0.0256348V-2.28882e-05Z" fill="#012169"/>
<path d="M0.0256348 -2.28882e-05L12.0278 12.0022L0.0256348 -2.28882e-05ZM12.0278 -2.28882e-05L0.0256348 12.0022L12.0278 -2.28882e-05Z" fill="black"/>
<path d="M0.0256348 -2.28882e-05L12.0278 12.0022M12.0278 -2.28882e-05L0.0256348 12.0022" stroke="white" stroke-width="2.34418"/>
<mask id="mask0_720_53317" style="mask-type:luminance" maskUnits="userSpaceOnUse" x="0" y="0" width="15" height="15">
<path d="M0.0246582 -6.86646e-05V6.00102H14.0288V12.0021H12.0268L0.0246582 -6.86646e-05ZM12.0268 -6.86646e-05H6.02575V14.004H0.0246582V12.0021L12.0268 -6.86646e-05Z" fill="white"/>
</mask>
<g mask="url(#mask0_720_53317)">
<path d="M0.0251465 -4.57764e-05L12.0273 12.0021L0.0251465 -4.57764e-05ZM12.0273 -4.57764e-05L0.0251465 12.0021L12.0273 -4.57764e-05Z" fill="black"/>
<path d="M0.0251465 -4.57764e-05L12.0273 12.0021M12.0273 -4.57764e-05L0.0251465 12.0021" stroke="#C8102E" stroke-width="1.40651"/>
</g>
<path d="M6.02673 -2.28882e-05V14.0041V-2.28882e-05ZM0.0256348 6.00107H14.0297H0.0256348Z" fill="black"/>
<path d="M6.02673 -2.28882e-05V14.0041M0.0256348 6.00107H14.0297" stroke="white" stroke-width="3.51626"/>
<path d="M6.02673 -2.28882e-05V14.0041V-2.28882e-05ZM0.0256348 6.00107H14.0297H0.0256348Z" fill="black"/>
<path d="M6.02673 -2.28882e-05V14.0041M0.0256348 6.00107H14.0297" stroke="#C8102E" stroke-width="2.34418"/>
<path d="M0.0256348 12.0022H12.0278V-2.28882e-05H16.027V16.0013H0.0256348V12.0022Z" fill="#012169"/>
<path d="M15.1973 10.5066C15.1973 14.7449 15.6567 16.2029 16.5756 17.1875C17.0597 17.7251 17.6113 18.1978 18.2166 18.594C18.8216 18.1974 19.3731 17.7247 19.8575 17.1875C20.7717 16.2029 21.2312 14.7449 21.2312 10.5066C20.5654 10.8113 20.1857 10.9614 19.6371 10.952C19.1381 10.9025 18.6545 10.7509 18.2166 10.5066C17.7786 10.7509 17.295 10.9025 16.796 10.952C16.2475 10.9614 15.8677 10.8113 15.202 10.5066H15.1973Z" fill="white"/>
<path d="M18.3133 12.6292C18.4511 12.9671 18.9106 13.3425 19.03 13.5302C18.8738 13.718 18.8463 13.6992 18.8646 14.0371C19.1403 13.7461 19.1403 13.7086 19.3241 13.7555C19.71 14.1497 19.3976 15.0039 19.0668 15.1916C18.7544 15.3887 18.8095 15.1916 18.3317 15.4356C18.543 15.6233 18.8003 15.4075 19.0117 15.4638C19.1219 15.6046 18.9565 15.8486 19.0484 16.0927C19.2322 16.0739 19.2138 15.689 19.2506 15.5483C19.3884 15.0414 20.2063 14.6941 20.243 14.2248C20.4176 14.1403 20.583 14.1967 20.7944 14.3187C20.6933 13.8869 20.3441 13.8869 20.2522 13.7555C20.0317 13.4082 19.8387 13.0234 19.37 12.9108C19.0209 12.8451 19.0484 12.9389 18.8187 12.7794C18.6717 12.6667 18.2398 12.4602 18.3133 12.6292Z" fill="#FF9900"/>
<path d="M19.2594 13.0883C19.2998 13.0883 19.3325 13.0549 19.3325 13.0136C19.3325 12.9724 19.2998 12.9389 19.2594 12.9389C19.219 12.9389 19.1863 12.9724 19.1863 13.0136C19.1863 13.0549 19.219 13.0883 19.2594 13.0883Z" fill="white"/>
<path d="M17.1684 14.0831C17.3965 13.8008 17.5068 13.2106 17.6134 13.015C17.8489 13.0684 17.8456 13.1021 18.1295 12.9277C17.7488 12.8146 17.7163 12.8321 17.671 12.6442C17.8319 12.1116 18.7173 11.9948 19.0344 12.2059C19.351 12.396 19.1546 12.4383 19.5892 12.7558C19.6529 12.4773 19.3458 12.3457 19.2958 12.1286C19.3661 11.9632 19.6546 11.9986 19.823 11.8017C19.7208 11.6445 19.3963 11.8408 19.2572 11.8734C18.7541 11.9856 18.0712 11.4092 17.6478 11.5952C17.4931 11.477 17.4645 11.3013 17.4714 11.0535C17.1449 11.3464 17.3081 11.6618 17.2373 11.8061C17.0397 12.1675 16.7968 12.5215 16.9183 12.9973C17.0246 13.3433 17.093 13.2746 17.0622 13.5565C17.0334 13.7419 17.0565 14.2284 17.1684 14.0831Z" fill="#FF9900"/>
<path d="M17.1237 13.0143C17.1048 12.9778 17.0606 12.9639 17.0249 12.9831C16.9892 13.0024 16.9755 13.0476 16.9944 13.0841C17.0133 13.1205 17.0575 13.1345 17.0932 13.1152C17.1289 13.0959 17.1426 13.0508 17.1237 13.0143Z" fill="white"/>
<path d="M19.0194 14.2685C18.6648 14.2152 18.113 14.4241 17.8939 14.432C17.8169 14.1985 17.8468 14.1841 17.5538 14.0261C17.6559 14.4174 17.6874 14.4367 17.5534 14.5734C17.0237 14.7083 16.4679 13.9949 16.4808 13.6086C16.4764 13.2336 16.6134 13.3833 16.6549 12.8393C16.3884 12.9277 16.437 13.2641 16.2808 13.4202C16.1059 13.4442 15.9863 13.1737 15.7342 13.1285C15.6552 13.299 15.9876 13.4811 16.0868 13.5858C16.4411 13.9675 16.3111 14.8624 16.686 15.1363C16.6669 15.3326 16.5344 15.4484 16.3231 15.5706C16.7375 15.7045 16.9175 15.3988 17.0751 15.386C17.4802 15.3717 17.9025 15.401 18.2386 15.0487C18.4736 14.7768 18.3807 14.7526 18.6329 14.6336C18.8032 14.5629 19.1991 14.2911 19.0194 14.2685Z" fill="#FF9900"/>
<path d="M18.1465 14.8604C18.1257 14.8957 18.1369 14.9416 18.1715 14.9629C18.2062 14.9841 18.2511 14.9727 18.2719 14.9373C18.2927 14.9019 18.2815 14.8561 18.2469 14.8348C18.2123 14.8136 18.1674 14.825 18.1465 14.8604Z" fill="white"/>
<path d="M15.9568 16.2873C16.1168 16.6167 16.3255 16.9201 16.5757 17.1875C17.0597 17.7251 17.6113 18.1978 18.2166 18.594C18.8216 18.1974 19.3731 17.7247 19.8575 17.1875C20.1077 16.9201 20.3163 16.6167 20.4764 16.2873H15.9568Z" fill="#99CCFF"/>
<path d="M15.0752 10.3378C15.0752 14.7542 15.5488 16.2733 16.5052 17.3C17.011 17.8558 17.5861 18.3443 18.2164 18.7534C18.8457 18.3429 19.4193 17.8528 19.923 17.2953C20.8794 16.2686 21.3576 14.7542 21.3576 10.3378C20.6638 10.6566 20.2653 10.8113 19.6933 10.8066C19.1776 10.7926 18.6337 10.5394 18.2164 10.3378C17.7945 10.5394 17.2506 10.7926 16.7396 10.8066C16.1629 10.8113 15.7691 10.6566 15.0706 10.3378H15.0752ZM15.2628 10.5722C15.9145 10.877 16.2895 11.0223 16.8287 11.0129C17.3167 10.9631 17.7891 10.8131 18.2164 10.5722C18.6103 10.7597 19.1213 11.0035 19.6042 11.0129C20.1434 11.0223 20.5137 10.8723 21.1701 10.5722C21.1701 14.7448 20.72 16.1795 19.8199 17.1453C19.3467 17.6716 18.8078 18.1349 18.2164 18.5237C17.6234 18.1352 17.0829 17.6719 16.6083 17.1453C15.7082 16.1795 15.2628 14.7402 15.2628 10.5722Z" fill="#FDC301"/>
</g>
<defs>
<clipPath id="clip0_720_53317">
<rect width="24.0044" height="24.0044" fill="white" transform="translate(0.026123)"/>
</clipPath>
</defs>
</svg>
