<svg width="25" height="24" viewBox="0 0 25 24" fill="none" xmlns="http://www.w3.org/2000/svg">
<g clip-path="url(#clip0_720_53472)">
<path d="M0.0307617 3.8147e-06H24.0351V24.0044H0.0307617V3.8147e-06Z" fill="#3A7DCE"/>
<path d="M5.0801 11.2942C4.91601 10.9238 4.91601 10.9238 4.91601 10.5582C4.83162 10.5582 4.81755 10.5769 4.77067 10.5582C4.72379 10.5441 4.70503 10.9004 4.55032 10.8301C4.52687 10.7973 4.66284 10.5394 4.51281 10.4363C4.46593 10.3988 4.52687 10.1878 4.50343 10.0987C4.50343 10.0987 4.3159 10.2065 4.17525 9.82208C4.10961 9.72363 4.01584 9.91585 4.01584 9.91585C4.01584 9.91585 4.05804 10.0331 3.98303 10.0565C3.87519 9.97211 3.80018 10.019 3.66891 9.90179C3.53763 9.78458 3.69704 9.64862 3.44387 9.54547C3.60796 9.08601 3.60796 9.17978 4.01584 8.99225C3.77205 8.8094 3.77205 8.8094 3.60796 8.53279C3.35947 8.43902 3.27977 8.34994 3.03598 8.1671C2.70779 7.70764 2.5437 6.78872 2.5437 6.14173C2.74999 5.92606 3.03598 6.8778 3.44387 7.15441L4.01584 7.43102C4.34403 7.61856 4.42373 7.79672 4.67221 7.98425L5.4036 8.26086C5.73178 8.53279 5.89587 8.90317 6.13967 8.99225C6.4069 8.99225 6.45848 8.82346 6.54287 8.8094C7.02108 8.78596 7.26956 8.71563 7.36333 8.55154C7.4571 8.42027 7.69151 8.62655 8.34788 8.34994L8.26349 7.98425C8.26349 7.98425 8.44165 7.82016 8.67607 7.89048C8.66669 7.7217 8.65263 7.27631 8.88236 7.07002C8.7417 6.90593 8.83547 6.78872 8.83547 6.78872C8.83547 6.78872 8.96674 6.64807 8.9855 6.57306C8.91517 6.16517 9.04176 6.16048 9.07458 6.04327C9.10271 5.92137 8.96206 5.96357 8.99956 5.79948C9.04176 5.63539 9.28086 5.59319 9.30899 5.45723C9.34181 5.32595 9.23867 5.25563 9.24805 5.22281C9.29493 5.09622 9.25273 4.79148 9.24805 4.67427C9.68406 4.53831 9.8294 4.1398 9.98412 4.30389C10.0638 3.75067 10.1482 3.56782 10.6405 3.56782C10.7061 3.39904 10.4576 3.2537 10.5561 3.20213C10.7202 3.17869 10.8421 3.18806 11.0343 3.46937C11.0953 3.55844 11.1046 3.33809 11.1656 3.31465C11.2312 3.29121 11.3766 3.29121 11.4 3.18338C11.4188 3.07086 11.4516 2.92552 11.536 2.74267C11.6063 2.59264 11.6579 2.79893 11.7235 3.08961C12.0657 3.10367 12.844 3.19275 13.1722 3.29121C13.416 3.36622 13.5801 3.22088 13.8145 3.19275C13.988 3.38966 14.1521 3.23964 14.2411 3.66159C14.3724 3.88194 14.5834 3.67565 14.6303 3.74598C14.9069 4.58988 15.8492 4.0179 15.9149 4.03197C16.0368 4.03197 16.1821 4.41173 16.2759 4.40704C16.4306 4.37422 16.3884 4.25701 16.5197 4.30389C16.4869 4.6227 16.7869 4.99308 16.7869 5.2275C16.7869 5.2275 16.8572 5.26969 16.9276 5.19937C16.9932 5.12904 17.0542 4.9462 17.1151 4.95089C17.2558 4.97433 17.3167 4.99777 17.4808 5.0259C17.9215 5.19937 18.1512 5.23688 18.3247 5.32127C18.3997 5.49005 18.4794 5.57444 18.6435 5.54162C18.7748 5.64476 18.6763 5.77604 18.756 5.78541C18.9201 5.69165 18.9764 5.59319 19.1358 5.68227C19.2999 5.77604 19.464 5.96357 19.5484 6.14173C19.5484 6.23549 19.464 6.60119 19.5484 7.15441C19.5859 7.34195 19.6093 7.4826 19.7828 7.8014C19.7359 8.1249 20.0031 8.66875 20.0031 8.8094C20.0031 8.99225 19.8719 9.0907 19.7922 9.26886C20.1203 9.55016 19.7922 10.0049 19.6281 10.2815C20.8564 10.5582 20.2844 11.1114 21.2643 10.8348C21.0158 11.4771 21.1049 11.4255 21.3487 12.0678C20.8611 12.4382 21.3393 12.5507 21.0111 13.0055C20.9924 13.0383 21.208 13.4087 21.5081 13.4087C21.4284 14.1447 21.1799 13.8681 21.2643 14.9699C20.6173 14.9558 20.8799 15.795 20.4438 15.706C20.472 16.2358 20.6923 16.2779 20.6079 16.8124C20.2797 16.9062 20.2797 16.9062 20.1203 17.1781L19.8719 17.0843C19.7922 17.5485 19.6281 17.6376 19.8719 18.097C19.8719 18.097 19.5577 18.1111 19.464 18.097C19.4593 18.2564 19.6046 18.2986 19.6281 18.4674C19.614 18.533 19.1592 18.8237 18.8123 18.8331C18.7185 19.0628 19.0561 19.3019 19.0373 19.4191C18.6529 19.4988 18.4841 20.0286 18.4841 20.0286C18.4841 20.0286 18.681 20.1224 18.6482 20.2162C18.5404 20.1271 18.4841 20.1224 18.32 20.1224C18.2403 20.1458 18.0387 20.1177 17.8512 20.4787C17.6402 20.5584 17.5417 20.5256 17.3823 20.7647C17.312 20.5397 17.2089 20.7647 17.087 20.8585C16.9604 20.9429 16.7963 21.1585 16.7729 21.1491C16.7775 21.0882 16.8479 20.8585 16.8479 20.8585L16.44 20.9522H16.3931C16.3556 20.9569 16.365 20.685 16.29 20.6944C16.2149 20.7038 15.9899 21.0366 15.9149 21.0507C15.8399 21.0648 15.8164 20.9429 15.7508 20.9569C15.6852 20.9616 15.5586 21.3039 15.5164 21.3132C15.4742 21.3226 15.282 21.1069 15.1272 21.1351C14.3208 21.4539 14.1943 20.5068 14.0677 21.0413C13.8989 20.9429 13.927 20.9991 13.7582 21.0507C13.6504 21.0835 13.641 20.8866 13.5426 20.8913C13.3457 20.896 13.355 21.1023 13.2519 21.0413C13.1675 20.61 12.6424 20.6897 12.5908 20.5022C12.5486 20.3146 12.8159 20.3146 12.905 20.1833C12.9706 19.9958 12.8346 19.9255 13.1066 19.7426C13.4535 19.4754 13.2519 19.3769 13.3128 19.1753C13.4254 18.8847 13.4254 18.8143 13.3316 18.5565C13.3316 18.5565 13.0597 17.7313 13.0034 17.7313C12.844 17.6798 12.844 18.0361 12.6049 18.1345C12.1126 18.3174 11.2453 17.6657 11.0953 17.6657C10.9546 17.6704 10.3217 17.8392 10.3451 17.4782C10.2514 17.8298 9.89504 17.5626 9.87629 17.5626C9.5481 17.5626 9.67469 17.8439 9.45433 17.8345C9.35588 17.797 8.34788 17.7313 8.34788 17.7313V17.9189L7.69151 17.5438L7.11953 17.361C6.63195 17.1781 6.87574 16.7187 6.05997 16.9953V16.442H5.65208C5.81148 15.3403 5.65208 15.8935 5.56769 14.8808L5.2395 14.9746C4.91132 14.4729 5.69427 14.5714 4.99571 14.2338C4.99571 14.2338 5.00977 13.6853 4.83162 13.8681C4.7988 13.8916 4.91601 14.1447 4.91601 14.1447C4.25964 14.051 4.09555 13.8681 4.09555 13.1321C4.09555 13.1321 4.63471 13.2211 4.58782 13.1321C4.51281 12.9914 4.40967 12.1006 4.42842 12.0397C4.41904 11.9178 4.93007 11.613 4.83162 11.3224C4.89257 11.2942 5.0801 11.2942 5.0801 11.2942Z" fill="white"/>
<path d="M21.7031 13.9712C21.6789 14.0317 21.6802 14.0862 21.7071 14.1346C21.7515 14.0574 21.7152 14.0257 21.7071 13.9712H21.7031ZM2.50613 7.1928C2.50613 7.1928 2.38514 7.17465 2.40934 7.29715C2.44967 7.20641 2.5021 7.19733 2.50613 7.1928ZM2.49403 6.90242C2.42547 6.90242 2.34078 6.89335 2.37304 7.01585C2.41337 6.92057 2.49403 6.90696 2.49403 6.90242ZM3.00622 8.54939C3.00622 8.54939 3.11107 8.54032 3.08688 8.66282C3.04655 8.57208 3.00622 8.55393 3.00622 8.54939Z" stroke="white" stroke-width="0.10694" stroke-linejoin="round"/>
</g>
<defs>
<clipPath id="clip0_720_53472">
<rect width="24.0044" height="24.0044" fill="white" transform="translate(0.0305176)"/>
</clipPath>
</defs>
</svg>
