<svg width="25" height="24" viewBox="0 0 25 24" fill="none" xmlns="http://www.w3.org/2000/svg">
<g clip-path="url(#clip0_720_53329)">
<path d="M0.0393066 -2.28882e-05H24.0437V24.0043H0.0393066V-2.28882e-05Z" fill="#74ACDF"/>
<path d="M0.0393066 8.003H24.0437V16.006H0.0393066V8.003Z" fill="white"/>
<path d="M11.8877 12.0646L13.2559 15.0411C13.2559 15.0411 13.2799 15.0987 13.3184 15.0843C13.3568 15.0651 13.3328 15.0075 13.3328 15.0075L12.195 11.935M12.1613 13.0968C12.1421 13.5481 12.4206 13.7977 12.387 14.201C12.3534 14.6043 12.5694 14.8347 12.627 14.9931C12.675 15.1516 12.5694 15.2428 12.6126 15.2668C12.6606 15.2908 12.7567 15.166 12.7278 14.9403C12.699 14.7147 12.5262 14.6523 12.5646 14.1578C12.603 13.6633 12.363 13.5481 12.4206 13.1016" fill="#F6B40E"/>
<path d="M11.8877 12.0646L13.2559 15.0411C13.2559 15.0411 13.2799 15.0987 13.3184 15.0843C13.3568 15.0651 13.3328 15.0075 13.3328 15.0075L12.195 11.935M12.1613 13.0968C12.1421 13.5481 12.4206 13.7977 12.387 14.201C12.3534 14.6043 12.5694 14.8347 12.627 14.9931C12.675 15.1516 12.5694 15.2428 12.6126 15.2668C12.6606 15.2908 12.7567 15.166 12.7278 14.9403C12.699 14.7147 12.5262 14.6523 12.5646 14.1578C12.603 13.6633 12.363 13.5481 12.4206 13.1016" stroke="#85340A" stroke-width="0.0528096"/>
<path d="M11.8754 12.001L12.0005 15.2746C12.0005 15.2746 12.0006 15.337 12.0416 15.3384C12.0844 15.3354 12.0843 15.273 12.0843 15.273L12.2089 11.9989M11.7333 13.0594C11.5428 13.469 11.7045 13.8062 11.5192 14.1659C11.3338 14.5256 11.4452 14.8212 11.4378 14.9896C11.4215 15.1543 11.289 15.1982 11.3198 15.2369C11.3549 15.2774 11.4914 15.1989 11.5512 14.9794C11.6109 14.7599 11.4751 14.6361 11.6998 14.1939C11.9245 13.7518 11.7469 13.5535 11.9709 13.163" fill="#F6B40E"/>
<path d="M11.8754 12.001L12.0005 15.2746C12.0005 15.2746 12.0006 15.337 12.0416 15.3384C12.0844 15.3354 12.0843 15.273 12.0843 15.273L12.2089 11.9989M11.7333 13.0594C11.5428 13.469 11.7045 13.8062 11.5192 14.1659C11.3338 14.5256 11.4452 14.8212 11.4378 14.9896C11.4215 15.1543 11.289 15.1982 11.3198 15.2369C11.3549 15.2774 11.4914 15.1989 11.5512 14.9794C11.6109 14.7599 11.4751 14.6361 11.6998 14.1939C11.9245 13.7518 11.7469 13.5535 11.9709 13.163" stroke="#85340A" stroke-width="0.0528096"/>
<path d="M11.8886 11.9377L10.7513 15.0099C10.7513 15.0099 10.7276 15.0676 10.7649 15.0846C10.8056 15.0982 10.8294 15.0405 10.8294 15.0405L12.1975 12.0633M11.3522 12.861C11.0195 13.1666 11.0399 13.54 10.731 13.8014C10.422 14.0628 10.4119 14.3785 10.3406 14.5312C10.2625 14.6772 10.1233 14.667 10.1369 14.7146C10.1539 14.7655 10.31 14.7451 10.4492 14.5652C10.5884 14.3853 10.5103 14.2189 10.8871 13.8964C11.2639 13.5739 11.1757 13.3227 11.5321 13.0477" fill="#F6B40E"/>
<path d="M11.8886 11.9377L10.7513 15.0099C10.7513 15.0099 10.7276 15.0676 10.7649 15.0846C10.8056 15.0982 10.8294 15.0405 10.8294 15.0405L12.1975 12.0633M11.3522 12.861C11.0195 13.1666 11.0399 13.54 10.731 13.8014C10.422 14.0628 10.4119 14.3785 10.3406 14.5312C10.2625 14.6772 10.1233 14.667 10.1369 14.7146C10.1539 14.7655 10.31 14.7451 10.4492 14.5652C10.5884 14.3853 10.5103 14.2189 10.8871 13.8964C11.2639 13.5739 11.1757 13.3227 11.5321 13.0477" stroke="#85340A" stroke-width="0.0528096"/>
<path d="M11.9247 11.8841L9.69832 14.2873C9.69832 14.2873 9.65428 14.3315 9.68228 14.3615C9.71472 14.3896 9.75876 14.3454 9.75876 14.3454L12.162 12.1184M11.0758 12.5319C10.6515 12.6869 10.5274 13.0397 10.142 13.163C9.75655 13.2862 9.62632 13.574 9.502 13.6879C9.374 13.7929 9.24931 13.7302 9.24367 13.7793C9.23986 13.8328 9.39193 13.8738 9.58937 13.7608C9.78681 13.6479 9.77833 13.4643 10.2499 13.3105C10.7214 13.1568 10.736 12.8909 11.1706 12.7733" fill="#F6B40E"/>
<path d="M11.9247 11.8841L9.69832 14.2873C9.69832 14.2873 9.65428 14.3315 9.68228 14.3615C9.71472 14.3896 9.75876 14.3454 9.75876 14.3454L12.162 12.1184M11.0758 12.5319C10.6515 12.6869 10.5274 13.0397 10.142 13.163C9.75655 13.2862 9.62632 13.574 9.502 13.6879C9.374 13.7929 9.24931 13.7302 9.24367 13.7793C9.23986 13.8328 9.39193 13.8738 9.58937 13.7608C9.78681 13.6479 9.77833 13.4643 10.2499 13.3105C10.7214 13.1568 10.736 12.8909 11.1706 12.7733" stroke="#85340A" stroke-width="0.0528096"/>
<path d="M12.2476 13.1736C12.2716 13.6057 12.5165 13.7977 12.4684 14.1962C12.5741 13.8841 12.3196 13.6393 12.334 13.1784M11.9644 12.0358L12.9005 14.0809L12.118 11.9734" fill="#85340A"/>
<path d="M11.7836 13.1634C11.6404 13.5718 11.7931 13.8429 11.5963 14.1927C11.8133 13.9448 11.6719 13.6212 11.8616 13.2009M11.9573 12.0038L12.0396 14.2516L12.1231 12.005" fill="#85340A"/>
<path d="M11.3589 12.9765C11.0704 13.299 11.1077 13.6079 10.792 13.8557C11.0874 13.7097 11.0806 13.3567 11.4166 13.041M11.9632 11.9716L11.179 14.0797L12.116 12.0361" fill="#85340A"/>
<path d="M11.0379 12.6412C10.6479 12.8287 10.5641 13.1284 10.1776 13.2365C10.5064 13.2147 10.6352 12.8859 11.0665 12.7229M11.9807 11.9441L10.4494 13.5916L12.0971 12.0621" fill="#85340A"/>
<path d="M11.979 11.8485L9.00248 13.2168C9.00248 13.2168 8.94487 13.2408 8.95927 13.2792C8.97847 13.3176 9.03608 13.2936 9.03608 13.2936L12.1086 12.1558M10.9468 12.1222C10.4956 12.103 10.2459 12.3814 9.84263 12.3478C9.43936 12.3142 9.20892 12.5303 9.05049 12.5879C8.89206 12.6359 8.80084 12.5303 8.77684 12.5735C8.75283 12.6215 8.87765 12.7175 9.1033 12.6887C9.32894 12.6599 9.39135 12.4871 9.88584 12.5255C10.3803 12.5639 10.4955 12.3238 10.942 12.3814" fill="#F6B40E"/>
<path d="M11.979 11.8485L9.00248 13.2168C9.00248 13.2168 8.94487 13.2408 8.95927 13.2792C8.97847 13.3176 9.03608 13.2936 9.03608 13.2936L12.1086 12.1558M10.9468 12.1222C10.4956 12.103 10.2459 12.3814 9.84263 12.3478C9.43936 12.3142 9.20892 12.5303 9.05049 12.5879C8.89206 12.6359 8.80084 12.5303 8.77684 12.5735C8.75283 12.6215 8.87765 12.7175 9.1033 12.6887C9.32894 12.6599 9.39135 12.4871 9.88584 12.5255C10.3803 12.5639 10.4955 12.3238 10.942 12.3814" stroke="#85340A" stroke-width="0.0528096"/>
<path d="M12.0426 11.8364L8.76903 11.9614C8.76903 11.9614 8.70661 11.9615 8.70522 12.0025C8.70827 12.0454 8.77068 12.0452 8.77068 12.0452L12.0448 12.1698M10.9843 11.6942C10.5747 11.5038 10.2375 11.6655 9.87776 11.4801C9.51805 11.2947 9.22247 11.4061 9.05405 11.3987C8.88931 11.3825 8.84546 11.25 8.80675 11.2807C8.7662 11.3159 8.84477 11.4523 9.06426 11.5121C9.28375 11.5718 9.40755 11.436 9.8497 11.6607C10.2919 11.8855 10.4902 11.7078 10.8806 11.9319" fill="#F6B40E"/>
<path d="M12.0426 11.8364L8.76903 11.9614C8.76903 11.9614 8.70661 11.9615 8.70522 12.0025C8.70827 12.0454 8.77068 12.0452 8.77068 12.0452L12.0448 12.1698M10.9843 11.6942C10.5747 11.5038 10.2375 11.6655 9.87776 11.4801C9.51805 11.2947 9.22247 11.4061 9.05405 11.3987C8.88931 11.3825 8.84546 11.25 8.80675 11.2807C8.7662 11.3159 8.84477 11.4523 9.06426 11.5121C9.28375 11.5718 9.40755 11.436 9.8497 11.6607C10.2919 11.8855 10.4902 11.7078 10.8806 11.9319" stroke="#85340A" stroke-width="0.0528096"/>
<path d="M12.1061 11.8494L9.03387 10.7122C9.03387 10.7122 8.97615 10.6884 8.95918 10.7258C8.9456 10.7665 9.00331 10.7903 9.00331 10.7903L11.9805 12.1583M11.1827 11.3131C10.8772 10.9804 10.5038 11.0007 10.2424 10.6918C9.981 10.3829 9.66529 10.3727 9.51252 10.3014C9.36655 10.2233 9.37673 10.0842 9.32921 10.0977C9.27829 10.1147 9.29865 10.2709 9.47857 10.4101C9.6585 10.5492 9.82484 10.4712 10.1473 10.848C10.4698 11.2248 10.721 11.1365 10.996 11.493" fill="#F6B40E"/>
<path d="M12.1061 11.8494L9.03387 10.7122C9.03387 10.7122 8.97615 10.6884 8.95918 10.7258C8.9456 10.7665 9.00331 10.7903 9.00331 10.7903L11.9805 12.1583M11.1827 11.3131C10.8772 10.9804 10.5038 11.0007 10.2424 10.6918C9.981 10.3829 9.66529 10.3727 9.51252 10.3014C9.36655 10.2233 9.37673 10.0842 9.32921 10.0977C9.27829 10.1147 9.29865 10.2709 9.47857 10.4101C9.6585 10.5492 9.82484 10.4712 10.1473 10.848C10.4698 11.2248 10.721 11.1365 10.996 11.493" stroke="#85340A" stroke-width="0.0528096"/>
<path d="M12.1596 11.8857L9.75645 9.65938C9.75645 9.65938 9.71223 9.61534 9.68226 9.64335C9.65412 9.67579 9.69835 9.71982 9.69835 9.71982L11.9254 12.1231M11.5118 11.0368C11.3568 10.6126 11.0041 10.4885 10.8808 10.103C10.7575 9.71761 10.4697 9.58738 10.3559 9.46306C10.2509 9.33506 10.3136 9.21037 10.2645 9.20473C10.2109 9.20092 10.17 9.35299 10.2829 9.55043C10.3959 9.74787 10.5795 9.73939 10.7332 10.2109C10.887 10.6825 11.1528 10.6971 11.2705 11.1316" fill="#F6B40E"/>
<path d="M12.1596 11.8857L9.75645 9.65938C9.75645 9.65938 9.71223 9.61534 9.68226 9.64335C9.65412 9.67579 9.69835 9.71982 9.69835 9.71982L11.9254 12.1231M11.5118 11.0368C11.3568 10.6126 11.0041 10.4885 10.8808 10.103C10.7575 9.71761 10.4697 9.58738 10.3559 9.46306C10.2509 9.33506 10.3136 9.21037 10.2645 9.20473C10.2109 9.20092 10.17 9.35299 10.2829 9.55043C10.3959 9.74787 10.5795 9.73939 10.7332 10.2109C10.887 10.6825 11.1528 10.6971 11.2705 11.1316" stroke="#85340A" stroke-width="0.0528096"/>
<path d="M10.8701 12.2086C10.438 12.2326 10.246 12.4775 9.84751 12.4295C10.1596 12.5351 10.4044 12.2806 10.8653 12.295M12.0079 11.9254L9.96273 12.8615L12.0703 12.079" fill="#85340A"/>
<path d="M10.8802 11.7446C10.4718 11.6015 10.2007 11.7542 9.8509 11.5573C10.0988 11.7743 10.4224 11.633 10.8427 11.8226M12.0398 11.9184L9.792 12.0006L12.0386 12.0842" fill="#85340A"/>
<path d="M11.0672 11.3199C10.7447 11.0313 10.4358 11.0686 10.188 10.7529C10.334 11.0483 10.687 11.0415 11.0027 11.3776M12.0721 11.9241L9.96395 11.1399L12.0076 12.0769" fill="#85340A"/>
<path d="M11.4025 10.9989C11.215 10.6089 10.9153 10.5252 10.8072 10.1387C10.829 10.4674 11.1578 10.5963 11.3209 11.0276M12.0997 11.9417L10.4521 10.4105L11.9816 12.0582" fill="#85340A"/>
<path d="M12.1948 11.9398L10.8266 8.96323C10.8266 8.96323 10.8026 8.90562 10.7642 8.92002C10.7258 8.93922 10.7498 8.99683 10.7498 8.99683L11.8876 12.0694M11.9212 10.9076C11.9404 10.4563 11.6619 10.2067 11.6955 9.80338C11.7291 9.40011 11.5131 9.16967 11.4555 9.01124C11.4075 8.85281 11.5131 8.76159 11.4699 8.73759C11.4219 8.71358 11.3259 8.83841 11.3547 9.06405C11.3835 9.28969 11.5563 9.3521 11.5179 9.84659C11.4795 10.3411 11.7195 10.4563 11.6619 10.9028" fill="#F6B40E"/>
<path d="M12.1948 11.9398L10.8266 8.96323C10.8266 8.96323 10.8026 8.90562 10.7642 8.92002C10.7258 8.93922 10.7498 8.99683 10.7498 8.99683L11.8876 12.0694M11.9212 10.9076C11.9404 10.4563 11.6619 10.2067 11.6955 9.80338C11.7291 9.40011 11.5131 9.16967 11.4555 9.01124C11.4075 8.85281 11.5131 8.76159 11.4699 8.73759C11.4219 8.71358 11.3259 8.83841 11.3547 9.06405C11.3835 9.28969 11.5563 9.3521 11.5179 9.84659C11.4795 10.3411 11.7195 10.4563 11.6619 10.9028" stroke="#85340A" stroke-width="0.0528096"/>
<path d="M12.2071 12.0033L12.0821 8.72975C12.0821 8.72975 12.0819 8.66734 12.0409 8.66595C11.9981 8.66899 11.9982 8.7314 11.9982 8.7314L11.8736 12.0055M12.3493 10.945C12.5397 10.5354 12.378 10.1982 12.5633 9.83849C12.7487 9.47877 12.6373 9.18319 12.6447 9.01478C12.661 8.85004 12.7935 8.80618 12.7627 8.76747C12.7276 8.72692 12.5911 8.8055 12.5314 9.02499C12.4716 9.24447 12.6074 9.36828 12.3827 9.81043C12.158 10.2526 12.3357 10.4509 12.1116 10.8413" fill="#F6B40E"/>
<path d="M12.2071 12.0033L12.0821 8.72975C12.0821 8.72975 12.0819 8.66734 12.0409 8.66595C11.9981 8.66899 11.9982 8.7314 11.9982 8.7314L11.8736 12.0055M12.3493 10.945C12.5397 10.5354 12.378 10.1982 12.5633 9.83849C12.7487 9.47877 12.6373 9.18319 12.6447 9.01478C12.661 8.85004 12.7935 8.80618 12.7627 8.76747C12.7276 8.72692 12.5911 8.8055 12.5314 9.02499C12.4716 9.24447 12.6074 9.36828 12.3827 9.81043C12.158 10.2526 12.3357 10.4509 12.1116 10.8413" stroke="#85340A" stroke-width="0.0528096"/>
<path d="M12.194 12.0667L13.3312 8.99447C13.3312 8.99447 13.3549 8.93676 13.3176 8.91978C13.2769 8.9062 13.2531 8.96391 13.2531 8.96391L11.885 11.9411M12.7303 11.1433C13.063 10.8378 13.0426 10.4644 13.3516 10.203C13.6605 9.9416 13.6707 9.62589 13.7419 9.47312C13.82 9.32715 13.9592 9.33733 13.9456 9.28981C13.9287 9.23889 13.7725 9.25926 13.6333 9.43918C13.4941 9.6191 13.5722 9.78544 13.1954 10.1079C12.8186 10.4304 12.9068 10.6816 12.5504 10.9566" fill="#F6B40E"/>
<path d="M12.194 12.0667L13.3312 8.99447C13.3312 8.99447 13.3549 8.93676 13.3176 8.91978C13.2769 8.9062 13.2531 8.96391 13.2531 8.96391L11.885 11.9411M12.7303 11.1433C13.063 10.8378 13.0426 10.4644 13.3516 10.203C13.6605 9.9416 13.6707 9.62589 13.7419 9.47312C13.82 9.32715 13.9592 9.33734 13.9456 9.28981C13.9287 9.23889 13.7725 9.25926 13.6333 9.43918C13.4941 9.6191 13.5722 9.78544 13.1954 10.1079C12.8186 10.4304 12.9068 10.6816 12.5504 10.9566" stroke="#85340A" stroke-width="0.0528096"/>
<path d="M12.1576 12.1202L14.384 9.71707C14.384 9.71707 14.428 9.67285 14.4 9.64287C14.3676 9.61474 14.3235 9.65896 14.3235 9.65896L11.9203 11.886M13.0065 11.4724C13.4308 11.3175 13.5549 10.9647 13.9403 10.8414C14.3257 10.7181 14.456 10.4303 14.5803 10.3165C14.7083 10.2115 14.833 10.2742 14.8386 10.2251C14.8424 10.1715 14.6903 10.1306 14.4929 10.2435C14.2955 10.3565 14.3039 10.5401 13.8324 10.6938C13.3609 10.8476 13.3463 11.1134 12.9117 11.2311" fill="#F6B40E"/>
<path d="M12.1576 12.1202L14.384 9.71707C14.384 9.71707 14.428 9.67285 14.4 9.64287C14.3676 9.61474 14.3235 9.65896 14.3235 9.65896L11.9203 11.886M13.0065 11.4724C13.4308 11.3175 13.5549 10.9647 13.9403 10.8414C14.3257 10.7181 14.456 10.4303 14.5803 10.3165C14.7083 10.2115 14.833 10.2742 14.8386 10.2251C14.8424 10.1715 14.6903 10.1306 14.4929 10.2435C14.2955 10.3565 14.3039 10.5401 13.8324 10.6938C13.3609 10.8476 13.3463 11.1134 12.9117 11.2311" stroke="#85340A" stroke-width="0.0528096"/>
<path d="M11.8349 10.8308C11.8109 10.3987 11.5661 10.2067 11.6141 9.8082C11.5085 10.1203 11.7629 10.3651 11.7485 10.826M12.1182 11.9686L11.182 9.92342L11.9645 12.031" fill="#85340A"/>
<path d="M12.2989 10.8409C12.4421 10.4326 12.2894 10.1615 12.4862 9.81169C12.2692 10.0596 12.4106 10.3832 12.2209 10.8034M12.1252 12.0005L12.0429 9.75279L11.9594 11.9994" fill="#85340A"/>
<path d="M12.7236 11.0279C13.0121 10.7054 12.9748 10.3965 13.2905 10.1487C12.9952 10.2946 13.002 10.6477 12.6659 10.9634M12.1193 12.0327L12.9035 9.92462L11.9666 11.9682" fill="#85340A"/>
<path d="M13.0444 11.3632C13.4344 11.1757 13.5181 10.876 13.9046 10.7678C13.5759 10.7897 13.4471 11.1184 13.0158 11.2815M12.1016 12.0603L13.6328 10.4127L11.9852 11.9422" fill="#85340A"/>
<path d="M12.1035 12.1558L15.08 10.7876C15.08 10.7876 15.1377 10.7636 15.1233 10.7252C15.104 10.6867 15.0464 10.7108 15.0464 10.7108L11.9739 11.8486M13.1357 11.8822C13.587 11.9014 13.8366 11.6229 14.2399 11.6565C14.6432 11.6901 14.8736 11.4741 15.032 11.4165C15.1905 11.3685 15.2817 11.4741 15.3057 11.4309C15.3297 11.3829 15.2049 11.2869 14.9792 11.3157C14.7536 11.3445 14.6912 11.5173 14.1967 11.4789C13.7022 11.4405 13.587 11.6805 13.1405 11.6229" fill="#F6B40E"/>
<path d="M12.1035 12.1558L15.08 10.7876C15.08 10.7876 15.1377 10.7636 15.1233 10.7252C15.104 10.6867 15.0464 10.7108 15.0464 10.7108L11.9739 11.8486M13.1357 11.8822C13.587 11.9014 13.8366 11.6229 14.2399 11.6565C14.6432 11.6901 14.8736 11.4741 15.032 11.4165C15.1905 11.3685 15.2817 11.4741 15.3057 11.4309C15.3297 11.3829 15.2049 11.2869 14.9792 11.3157C14.7536 11.3445 14.6912 11.5173 14.1967 11.4789C13.7022 11.4405 13.587 11.6805 13.1405 11.6229" stroke="#85340A" stroke-width="0.0528096"/>
<path d="M12.0399 12.168L15.3135 12.043C15.3135 12.043 15.3759 12.0428 15.3773 12.0018C15.3743 11.959 15.3118 11.9591 15.3118 11.9591L12.0377 11.8345M13.0983 12.3102C13.5078 12.5006 13.845 12.3389 14.2048 12.5243C14.5645 12.7096 14.86 12.5982 15.0285 12.6056C15.1932 12.6219 15.2371 12.7544 15.2758 12.7237C15.3163 12.6885 15.2377 12.552 15.0183 12.4923C14.7988 12.4325 14.675 12.5683 14.2328 12.3436C13.7907 12.1189 13.5924 12.2966 13.2019 12.0725" fill="#F6B40E"/>
<path d="M12.0399 12.168L15.3135 12.043C15.3135 12.043 15.3759 12.0428 15.3773 12.0018C15.3743 11.959 15.3118 11.9591 15.3118 11.9591L12.0377 11.8345M13.0983 12.3102C13.5078 12.5006 13.845 12.3389 14.2048 12.5243C14.5645 12.7096 14.86 12.5982 15.0285 12.6056C15.1932 12.6219 15.2371 12.7544 15.2758 12.7237C15.3163 12.6885 15.2377 12.552 15.0183 12.4923C14.7988 12.4325 14.675 12.5683 14.2328 12.3436C13.7907 12.1189 13.5924 12.2966 13.2019 12.0725" stroke="#85340A" stroke-width="0.0528096"/>
<path d="M11.9764 12.1549L15.0487 13.2922C15.0487 13.2922 15.1064 13.3159 15.1233 13.2786C15.1369 13.2379 15.0792 13.2141 15.0792 13.2141L12.102 11.846M12.8998 12.6913C13.2053 13.024 13.5787 13.0036 13.8401 13.3125C14.1015 13.6215 14.4172 13.6316 14.57 13.7029C14.716 13.781 14.7058 13.9202 14.7533 13.9066C14.8042 13.8897 14.7839 13.7335 14.6039 13.5943C14.424 13.4551 14.2577 13.5332 13.9352 13.1564C13.6127 12.7796 13.3615 12.8678 13.0865 12.5114" fill="#F6B40E"/>
<path d="M11.9764 12.1549L15.0487 13.2922C15.0487 13.2922 15.1064 13.3159 15.1233 13.2786C15.1369 13.2379 15.0792 13.2141 15.0792 13.2141L12.102 11.846M12.8998 12.6913C13.2053 13.024 13.5787 13.0036 13.8401 13.3125C14.1015 13.6215 14.4172 13.6316 14.57 13.7029C14.716 13.781 14.7058 13.9202 14.7533 13.9066C14.8042 13.8897 14.7839 13.7335 14.6039 13.5943C14.424 13.4551 14.2577 13.5332 13.9352 13.1564C13.6127 12.7796 13.3615 12.8678 13.0865 12.5114" stroke="#85340A" stroke-width="0.0528096"/>
<path d="M11.9229 12.1186L14.3261 14.345C14.3261 14.345 14.3703 14.389 14.4003 14.361C14.4284 14.3286 14.3842 14.2845 14.3842 14.2845L12.1572 11.8813M12.5707 12.9675C12.7257 13.3918 13.0785 13.5159 13.2017 13.9013C13.325 14.2868 13.6128 14.417 13.7267 14.5413C13.8316 14.6693 13.769 14.794 13.8181 14.7996C13.8716 14.8034 13.9125 14.6514 13.7996 14.4539C13.6866 14.2565 13.5031 14.265 13.3493 13.7934C13.1956 13.3219 12.9297 13.3073 12.8121 12.8727" fill="#F6B40E"/>
<path d="M11.9229 12.1186L14.3261 14.345C14.3261 14.345 14.3703 14.389 14.4003 14.361C14.4284 14.3286 14.3842 14.2845 14.3842 14.2845L12.1572 11.8813M12.5707 12.9675C12.7257 13.3918 13.0785 13.5159 13.2017 13.9013C13.325 14.2868 13.6128 14.417 13.7267 14.5413C13.8316 14.6693 13.769 14.794 13.8181 14.7996C13.8716 14.8034 13.9125 14.6514 13.7996 14.4539C13.6866 14.2565 13.5031 14.265 13.3493 13.7934C13.1956 13.3219 12.9297 13.3073 12.8121 12.8727" stroke="#85340A" stroke-width="0.0528096"/>
<path d="M13.2124 11.7957C13.6445 11.7717 13.8365 11.5269 14.235 11.5749C13.923 11.4693 13.6781 11.7237 13.2172 11.7093M12.0746 12.079L14.1198 11.1428L12.0122 11.9254" fill="#85340A"/>
<path d="M13.2024 12.2597C13.6107 12.4029 13.8819 12.2502 14.2316 12.447C13.9837 12.23 13.6602 12.3714 13.2399 12.1817M12.0428 12.086L14.2905 12.0037L12.0439 11.9202" fill="#85340A"/>
<path d="M13.0153 12.6845C13.3378 12.9731 13.6467 12.9357 13.8945 13.2514C13.7485 12.9561 13.3955 12.9629 13.0798 12.6268M12.0104 12.0802L14.1186 12.8644L12.0749 11.9275" fill="#85340A"/>
<path d="M12.68 13.0054C12.8675 13.3954 13.1672 13.4791 13.2753 13.8657C13.2535 13.5369 12.9247 13.4081 12.7617 12.9768M11.9829 12.0626L13.6304 13.5939L12.1009 11.9462" fill="#85340A"/>
<path d="M12.0415 13.3337C12.7768 13.3337 13.3729 12.7375 13.3729 12.0022C13.3729 11.2668 12.7768 10.6707 12.0415 10.6707C11.3061 10.6707 10.71 11.2668 10.71 12.0022C10.71 12.7375 11.3061 13.3337 12.0415 13.3337Z" fill="#F6B40E" stroke="#85340A" stroke-width="0.0703253"/>
<path d="M12.4962 11.7208C12.3994 11.7208 12.3228 11.7599 12.2666 11.838C12.3697 11.9317 12.5946 11.9411 12.7493 11.8286C12.6824 11.7602 12.5918 11.72 12.4962 11.7162V11.7208ZM12.4962 11.7396C12.5853 11.7396 12.6649 11.7771 12.679 11.8193C12.5759 11.9317 12.4119 11.9224 12.3088 11.838C12.3588 11.7693 12.4212 11.7365 12.4962 11.7396Z" fill="#843511"/>
<path d="M12.5151 11.6552C12.3839 11.6552 12.3511 11.6833 12.2902 11.7349C12.2292 11.7864 12.1964 11.7771 12.1871 11.7864C12.1777 11.7958 12.1871 11.8286 12.2058 11.8192C12.2277 11.8099 12.2698 11.7818 12.3323 11.7349C12.3932 11.688 12.4542 11.688 12.5198 11.688C12.6978 11.688 12.8009 11.838 12.8244 11.8286C12.8478 11.8192 12.7213 11.6552 12.5151 11.6552Z" fill="#85340A"/>
<path d="M12.8855 11.716C12.6512 11.5099 12.3513 11.4817 12.1873 11.6317C12.1495 11.6831 12.1239 11.7424 12.1123 11.8051C12.0904 11.9238 12.1264 12.0488 12.2201 12.18C12.2045 12.18 12.1888 12.1862 12.1732 12.1987C12.092 12.0394 12.0654 11.8832 12.0936 11.7301L12.1264 11.613C12.3513 11.4255 12.6606 11.4068 12.8855 11.716Z" fill="#85340A"/>
<path d="M12.4915 11.9131C12.5433 11.9131 12.5852 11.8711 12.5852 11.8193C12.5852 11.7675 12.5433 11.7256 12.4915 11.7256C12.4397 11.7256 12.3977 11.7675 12.3977 11.8193C12.3977 11.8711 12.4397 11.9131 12.4915 11.9131Z" fill="#85340A"/>
<path d="M12.7587 11.8802C12.5854 12.0115 12.412 12.0021 12.3089 11.9412C12.2058 11.8802 12.2058 11.8568 12.2292 11.8568C12.248 11.8568 12.2714 11.8802 12.3511 11.9224C12.4307 11.9646 12.5572 11.9599 12.7634 11.8756L12.7587 11.8802Z" fill="#85340A"/>
<path d="M11.8351 12.1897C11.8194 12.1919 11.8045 12.1981 11.7918 12.2076C11.7792 12.2171 11.7691 12.2297 11.7626 12.2442C11.7562 12.2586 11.7534 12.2745 11.7548 12.2903C11.7561 12.3061 11.7614 12.3213 11.7702 12.3345C11.779 12.3477 11.791 12.3584 11.805 12.3657C11.8191 12.373 11.8348 12.3766 11.8506 12.3762C11.8665 12.3758 11.882 12.3713 11.8956 12.3633C11.9093 12.3553 11.9207 12.3439 11.9288 12.3303C11.9725 12.3553 12.01 12.3646 12.0413 12.3584H12.0553C12.0787 12.3584 12.1303 12.3584 12.1631 12.3303C12.1818 12.3553 12.2068 12.3678 12.2381 12.3678C12.2596 12.3657 12.2797 12.3562 12.2951 12.3409C12.3104 12.3257 12.32 12.3056 12.3222 12.284C12.3244 12.2625 12.3191 12.2409 12.3072 12.2229C12.2953 12.2048 12.2775 12.1914 12.2568 12.185C12.2818 12.1944 12.2959 12.2147 12.299 12.2459C12.299 12.2627 12.2923 12.2788 12.2805 12.2907C12.2686 12.3025 12.2525 12.3092 12.2357 12.3092C12.2189 12.3092 12.2029 12.3025 12.191 12.2907C12.1791 12.2788 12.1725 12.2627 12.1725 12.2459C12.1617 12.2706 12.144 12.2917 12.1216 12.3067C12.0992 12.3216 12.0729 12.3298 12.0459 12.3303C12.019 12.3298 11.9927 12.3216 11.9703 12.3067C11.9479 12.2917 11.9302 12.2706 11.9194 12.2459C11.9163 12.2834 11.896 12.3037 11.8585 12.3068C11.8423 12.3093 11.8259 12.3053 11.8127 12.2956C11.7995 12.286 11.7907 12.2714 11.7882 12.2553C11.7857 12.2391 11.7898 12.2227 11.7994 12.2095C11.8091 12.1963 11.8236 12.1875 11.8398 12.185L11.8351 12.1897ZM11.9382 12.4615C11.8351 12.4615 11.7976 12.5552 11.7039 12.6161L11.8679 12.513C11.9382 12.4709 11.9991 12.5224 12.0413 12.5224C12.0834 12.5224 12.1443 12.4709 12.2146 12.513C12.2771 12.5568 12.3318 12.5911 12.3787 12.6161C12.2849 12.5505 12.2474 12.4615 12.1443 12.4615C12.1085 12.4642 12.0735 12.4737 12.0413 12.4896C11.9913 12.4709 11.9569 12.4615 11.9382 12.4615Z" fill="#85340A"/>
<path d="M11.9009 12.5788C11.8634 12.5788 11.8072 12.5913 11.7322 12.6163C11.9196 12.5694 11.9571 12.6351 12.0415 12.6351C12.1258 12.6351 12.1633 12.5741 12.3507 12.6163C12.1446 12.5507 12.1024 12.5929 12.0415 12.5929C11.9993 12.5929 11.9712 12.5788 11.9009 12.5788Z" fill="#85340A"/>
<path d="M11.7413 12.6116H11.7039C11.9194 12.6351 11.8163 12.7569 12.0413 12.7569C12.2662 12.7569 12.1631 12.6351 12.3787 12.6163C12.1537 12.5929 12.224 12.7288 12.0413 12.7288C11.8679 12.7288 11.9194 12.6116 11.7413 12.6116Z" fill="#85340A"/>
<path d="M11.2117 11.716C11.446 11.5099 11.7459 11.4817 11.9099 11.6317C11.9477 11.6831 11.9733 11.7424 11.9849 11.8051C12.0067 11.9238 11.9708 12.0488 11.8771 12.18C11.8927 12.18 11.9083 12.1862 11.924 12.1987C12.0052 12.0394 12.0317 11.8832 12.0036 11.7301L11.9708 11.613C11.7459 11.4255 11.4366 11.4068 11.2117 11.716Z" fill="#85340A"/>
<path d="M11.5818 11.6552C11.713 11.6552 11.7458 11.6833 11.8068 11.7349C11.8677 11.7864 11.9005 11.7771 11.9099 11.7864C11.9192 11.7958 11.9099 11.8286 11.8911 11.8192C11.8692 11.8099 11.8271 11.7818 11.7646 11.7349C11.7037 11.688 11.6428 11.688 11.5772 11.688C11.3991 11.688 11.296 11.838 11.2726 11.8286C11.2491 11.8192 11.3756 11.6552 11.5818 11.6552Z" fill="#85340A"/>
<path d="M11.5773 11.7208C11.4804 11.7208 11.4039 11.7599 11.3477 11.838C11.4507 11.9317 11.6757 11.9411 11.8303 11.8286C11.7634 11.7602 11.6729 11.72 11.5773 11.7162V11.7208ZM11.5773 11.7396C11.6663 11.7396 11.746 11.7771 11.76 11.8193C11.6569 11.9317 11.4929 11.9224 11.3898 11.838C11.4398 11.7693 11.5023 11.7365 11.5773 11.7396Z" fill="#843511"/>
<path d="M11.5867 11.9131C11.6385 11.9131 11.6805 11.8711 11.6805 11.8193C11.6805 11.7675 11.6385 11.7256 11.5867 11.7256C11.5349 11.7256 11.4929 11.7675 11.4929 11.8193C11.4929 11.8711 11.5349 11.9131 11.5867 11.9131Z" fill="#85340A"/>
<path d="M11.3382 11.8802C11.5116 12.0115 11.685 12.0021 11.788 11.9412C11.8911 11.8802 11.8911 11.8568 11.8677 11.8568C11.849 11.8568 11.8255 11.8802 11.7459 11.9224C11.6662 11.9646 11.5397 11.9599 11.3335 11.8756L11.3382 11.8802Z" fill="#85340A"/>
</g>
<defs>
<clipPath id="clip0_720_53329">
<rect width="24.0044" height="24.0044" fill="white" transform="translate(0.0393066)"/>
</clipPath>
</defs>
</svg>
