<svg width="24" height="24" viewBox="0 0 24 24" fill="none" xmlns="http://www.w3.org/2000/svg">
<g clip-path="url(#clip0_720_53451)">
<mask id="mask0_720_53451" style="mask-type:luminance" maskUnits="userSpaceOnUse" x="0" y="0" width="25" height="25">
<path d="M0.00366211 0.00429535H24.008V24.0087H0.00366211V0.00429535Z" fill="white"/>
</mask>
<g mask="url(#mask0_720_53451)">
<path d="M0.00366211 0.00429535V24.0087H36.0102V0.00429535H0.00366211Z" fill="#3399CC"/>
<path d="M0.00366211 16.0056V17.3418H36.0102V16.0056H0.00366211ZM0.00366211 18.678V20.0095H36.0102V18.6733H0.00366211V18.678Z" fill="#FFFF00"/>
<path d="M5.72326 1.31703L5.83572 1.43418L5.72794 1.32172L5.72326 1.31703ZM5.83572 1.54196L5.94819 1.65443L5.84041 1.54196H5.83572Z" fill="#99CCCC"/>
<path d="M5.83572 1.6546L5.94819 1.76707L5.84041 1.6546H5.83572Z" fill="#CCCCFF"/>
<path d="M5.72339 1.87964L5.83531 1.9869L5.72805 1.87964H5.72339Z" fill="#CC6666"/>
<path d="M5.83572 2.1L5.94819 2.21246L5.84041 2.1H5.83572Z" fill="#FFCCCC"/>
<path d="M5.39504 2.21251L5.5023 2.32443L5.39038 2.21251H5.39504Z" fill="#66CCCC"/>
<path d="M5.70928 1.54676L4.92632 4.51449L1.94922 5.32088L4.91695 6.09446L5.70928 9.06219L6.50161 6.09446L9.46465 5.30213L6.49692 4.51449L5.70928 1.54676Z" fill="#CC0000" stroke="white" stroke-width="0.140651"/>
<path d="M5.39507 2.32503L5.50285 2.43749L5.39038 2.32503" fill="#99CCFF"/>
<path d="M5.39507 2.77042L5.50285 2.88289L5.39038 2.77042" fill="#FFCCCC"/>
<path d="M5.05762 3.33299L5.16954 3.44025L5.05762 3.32833V3.33299Z" fill="#99CCCC"/>
<path d="M6.3938 3.33299L6.50572 3.44025L6.39846 3.32833L6.3938 3.33299Z" fill="#99CCCC"/>
<path d="M4.94507 3.66121L5.05699 3.77313L4.94507 3.66587V3.66121Z" fill="#99CCCC"/>
<path d="M6.50635 3.66121L6.61827 3.77313L6.50635 3.66587V3.66121Z" fill="#99CCCC"/>
<path d="M4.45752 4.7067L4.53722 4.74421L4.46221 4.7067" fill="#CC3333"/>
<path d="M3.05105 4.88956L3.15831 5.00148L3.04639 4.88956H3.05105Z" fill="#99CCFF"/>
<path d="M2.37573 5.1146L2.48765 5.22652L2.3804 5.1146H2.37573Z" fill="#CCCCFF"/>
<path d="M2.37573 5.55999L2.48765 5.67657L2.3804 5.56465L2.37573 5.55999Z" fill="#CCCCFF"/>
<path d="M2.93384 5.78503L3.04576 5.89695L2.9385 5.78503H2.93384Z" fill="#6699CC"/>
<path d="M3.05105 5.78503L3.15831 5.89695L3.04639 5.78503H3.05105Z" fill="#99CCFF"/>
<path d="M3.79175 5.81785L3.86676 5.86004L3.79175 5.82254" fill="#CC3333"/>
<path d="M4.45752 6.04288L4.53722 6.08039L4.46221 6.04288" fill="#CC3333"/>
<path d="M5.39507 7.90417L5.50285 8.01663L5.39038 7.90417" fill="#FFCCCC"/>
<path d="M5.39507 8.34956L5.50285 8.46203L5.39038 8.34956H5.39507Z" fill="#99CCFF"/>
<path d="M5.39507 8.46208L5.50285 8.57455L5.39038 8.46208" fill="#66CCCC"/>
<path d="M5.83572 8.57459L5.94819 8.68706L5.84041 8.57459H5.83572Z" fill="#FFCCCC"/>
<path d="M5.72339 8.79965L5.83531 8.90691L5.72805 8.79965H5.72339Z" fill="#CC6666"/>
<path d="M5.83572 9.01999L5.94819 9.13245L5.84041 9.01999H5.83572Z" fill="#CCCCFF"/>
<path d="M5.83572 9.13252L5.94819 9.24499L5.84041 9.13252" fill="#99CCCC"/>
</g>
</g>
<defs>
<clipPath id="clip0_720_53451">
<rect width="24.0044" height="24.0044" fill="white" transform="translate(0.00439453 0.00436401)"/>
</clipPath>
</defs>
</svg>
