<svg width="25" height="24" viewBox="0 0 25 24" fill="none" xmlns="http://www.w3.org/2000/svg">
<g clip-path="url(#clip0_720_53393)">
<path d="M0.0090332 0.00437927H24.0134V24.0087H0.0090332V0.00437927Z" fill="#00008B"/>
<path d="M12.0112 0.00437927V1.50465L7.55728 6.00547L12.0112 10.3891V12.0066H10.4406L5.96324 7.59951L1.60307 12.0066H0.0090332V10.4125L4.3692 6.02891L0.0090332 1.73907V0.00437927H1.46242L5.96324 4.41143L10.3234 0.00437927H12.0112Z" fill="white"/>
<path d="M4.32232 7.59951L4.58018 8.39653L0.993587 12.0066H0.0090332V11.9362L4.32232 7.59951ZM7.2291 7.31821L8.49495 7.50574L12.0112 10.9517V12.0066L7.2291 7.31821ZM12.0112 0.00437927L7.5104 4.59897L7.41663 3.56753L10.9329 0.00437927H12.0112ZM0.0090332 0.027821L4.53329 4.45831L3.15023 4.27078L0.0090332 1.15303V0.027821Z" fill="#FF0000"/>
<path d="M4.13478 0.00437927V12.0066H7.88547V0.00437927H4.13478ZM0.0090332 4.13013V7.88081H12.0112V4.13013H0.0090332Z" fill="white"/>
<path d="M0.0090332 4.88027V7.13068H12.0112V4.88027H0.0090332ZM4.88492 0.00437927V12.0066H7.13533V0.00437927H4.88492Z" fill="#FF0000"/>
<path d="M9.47948 18.889L7.33222 19.1422L7.54788 21.2942L6.0101 19.7751L4.46295 21.2848L4.69268 19.1328L2.54541 18.8609L4.36918 17.6982L3.24397 15.851L5.2881 16.5542L6.02886 14.5195L6.75555 16.5589L8.80436 15.8697L7.66509 17.7076L9.48417 18.8843L9.47948 18.889ZM19.9204 19.2641L18.9593 19.386L19.0625 20.3471L18.3686 19.672L17.6794 20.3518L17.7732 19.3907L16.8121 19.2782L17.6232 18.7531L17.1121 17.9326L18.031 18.2373L18.3545 17.3231L18.6874 18.2327L19.6016 17.9185L19.1 18.7437L19.9204 19.2641ZM19.4657 13.7693L19.5923 13.1599L19.1328 12.7379L19.7517 12.6676L20.0095 12.1003L20.2674 12.6676L20.8862 12.7379L20.4268 13.1599L20.5534 13.7693L20.0095 13.4599L19.4657 13.7693ZM15.5228 10.9563L14.571 11.0595L14.6554 12.0112L13.9803 11.3314L13.2864 11.9925L13.3989 11.0407L12.4519 10.9141L13.263 10.4078L12.7707 9.58734L13.6756 9.90614L14.0131 9.01067L14.3272 9.91552L15.2368 9.62015L14.7258 10.4312L15.5228 10.9563ZM23.7649 9.41856L22.785 9.54514L22.8929 10.525L22.1849 9.83582L21.4817 10.5297L21.5801 9.54514L20.6003 9.43262L21.4301 8.89346L20.9097 8.05424L21.8474 8.36836L22.1755 7.44007L22.5131 8.36836L23.4461 8.04487L22.9304 8.88877L23.7649 9.41856ZM19.9158 5.50378L18.9453 5.61161L19.0343 6.58679L18.3452 5.89291L17.6372 6.56804L17.7497 5.59755L16.7793 5.46627L17.6091 4.95055L17.1074 4.11134L18.031 4.43484L18.3733 3.52061L18.6921 4.44421L19.6204 4.13947L19.1 4.96462L19.9158 5.50378Z" fill="white"/>
</g>
<defs>
<clipPath id="clip0_720_53393">
<rect width="24.0044" height="24.0044" fill="white" transform="translate(0.00878906 0.00436401)"/>
</clipPath>
</defs>
</svg>
