<svg width="25" height="24" viewBox="0 0 25 24" fill="none" xmlns="http://www.w3.org/2000/svg">
<g clip-path="url(#clip0_720_53430)">
<path d="M0.0175781 0.00437164H24.0219V24.0087H0.0175781V0.00437164Z" fill="#3F9C35"/>
<path d="M0.0175781 0.00437164H24.0219V16.0057H0.0175781V0.00437164Z" fill="#ED2939"/>
<path d="M0.0175781 0.00437164H24.0219V8.00739H0.0175781V0.00437164Z" fill="#00B9E4"/>
<path d="M11.2132 15.6072C13.2018 15.6072 14.8139 13.9951 14.8139 12.0065C14.8139 10.0179 13.2018 8.40588 11.2132 8.40588C9.22462 8.40588 7.61255 10.0179 7.61255 12.0065C7.61255 13.9951 9.22462 15.6072 11.2132 15.6072Z" fill="white"/>
<path d="M12.015 15.0071C13.6721 15.0071 15.0155 13.6637 15.0155 12.0065C15.0155 10.3494 13.6721 9.00598 12.015 9.00598C10.3578 9.00598 9.0144 10.3494 9.0144 12.0065C9.0144 13.6637 10.3578 15.0071 12.015 15.0071Z" fill="#ED2939"/>
<path d="M15.2173 10.0046L15.597 11.0829L16.6285 10.5906L16.1409 11.6221L17.2192 12.0065L16.1409 12.391L16.6285 13.4224L15.597 12.9301L15.2173 14.0084L14.8328 12.9301L13.8014 13.4224L14.2937 12.391L13.2153 12.0065L14.2937 11.6221L13.8014 10.5906L14.8328 11.0829L15.2173 10.0046Z" fill="white"/>
</g>
<defs>
<clipPath id="clip0_720_53430">
<rect width="24.0044" height="24.0044" fill="white" transform="translate(0.0175781 0.00436401)"/>
</clipPath>
</defs>
</svg>
