<svg width="25" height="24" viewBox="0 0 25 24" fill="none" xmlns="http://www.w3.org/2000/svg">
<g clip-path="url(#clip0_720_53521)">
<path d="M0.0349121 -0.00497437H24.0393V24.0088H0.0349121V-0.00497437Z" fill="#00267F"/>
<path d="M8.03809 -0.00497437H16.0364V24.0088H8.03809V-0.00497437Z" fill="#FFC726"/>
<path d="M12.0372 8.12932C11.7793 8.83726 11.5121 9.57802 10.9448 10.1453C11.1666 10.077 11.3971 10.0406 11.6293 10.0375V13.0193L10.7854 13.1459C10.7541 13.1427 10.7401 13.1052 10.7432 13.0333C10.6554 12.1777 10.4714 11.3347 10.1946 10.5204C10.1759 10.4125 9.85708 9.99059 10.1009 10.0656C10.1337 10.0656 10.4619 10.2063 10.4103 10.1406C9.93932 9.6655 9.33081 9.35058 8.67093 9.24046C8.61467 9.22639 8.57716 9.25452 8.62873 9.32016C9.47264 10.6188 10.1806 12.1519 10.1759 13.971C10.5041 13.971 11.3011 13.7788 11.6293 13.7788V15.8839H12.0419L12.1356 10.0047L12.0372 8.12932Z" fill="#000001"/>
<path d="M12.0371 8.12932C12.2949 8.83726 12.5622 9.57802 13.1294 10.1453C12.9076 10.077 12.6771 10.0406 12.4449 10.0375V13.0193L13.2888 13.1459C13.3201 13.1427 13.3342 13.1052 13.331 13.0333C13.4188 12.1777 13.6028 11.3347 13.8796 10.5204C13.8983 10.4125 14.2171 9.99059 13.9733 10.0656C13.9405 10.0656 13.6123 10.2063 13.6639 10.1406C14.1349 9.6655 14.7434 9.35058 15.4033 9.24046C15.4596 9.22639 15.4971 9.25452 15.4455 9.32016C14.6016 10.6188 13.8936 12.1519 13.8983 13.971C13.5701 13.971 12.7731 13.7788 12.4449 13.7788V15.8839H12.0324L11.9386 10.0047L12.0371 8.12932Z" fill="#000001"/>
</g>
<defs>
<clipPath id="clip0_720_53521">
<rect width="24.0044" height="24.0044" fill="white" transform="translate(0.0349121 0.00436401)"/>
</clipPath>
</defs>
</svg>
