<svg width="25" height="24" viewBox="0 0 25 24" fill="none" xmlns="http://www.w3.org/2000/svg">
<g clip-path="url(#clip0_720_53487)">
<path d="M0.0393066 0.00440979H24.0437V24.0088H0.0393066V0.00440979Z" fill="#CE1720"/>
<mask id="mask0_720_53487" style="mask-type:luminance" maskUnits="userSpaceOnUse" x="0" y="0" width="6" height="25">
<path d="M0.273682 0.00450134H5.54808V16.2208H5.75905V23.7955L5.54808 24.0089H0.273682V0.00450134Z" fill="white"/>
</mask>
<g mask="url(#mask0_720_53487)">
<path d="M1.22311 0.00454712V0.377949H0.985764V0.751351H0.695672V1.1781H0.484696V1.52483H0.0627441V0.644665H0.484696V0.164577H0.0627441V0.00454712H1.22311ZM1.90878 2.05826V2.45833H1.69781V2.77839H1.48683V2.45833H1.27586V2.05826H1.06488V1.52483H1.27586V1.12475H1.48683V0.804694H1.69781V1.12475H1.90878V1.52483H2.11976V2.05826H1.90878ZM1.46046 2.03159H1.72418V1.5515H1.46046V2.03159ZM0.774788 4.88544H0.985764V4.40536H0.774788V4.88544ZM2.19887 4.88544H2.40985V4.40536H2.19887V4.88544ZM0.0627441 8.13938H0.431952V8.48611H0.590184V8.91285H0.827532V9.31293H1.144V8.91285H1.38134V8.48611H1.59232V8.13938H1.27586V7.7393H1.82967V8.00602H2.1725V8.45944H2.46259V8.9662H2.25162V9.3396H2.06701V9.68633H1.90878V10.0597H1.67144V10.3798H1.48683V10.6732H1.24948V11.0466H0.906648V10.6465H0.6693V10.2731H0.484696V10.0331H0.0627441V9.41961H0.484696V8.88618H0.0627441V8.13938Z" fill="white"/>
<path d="M4.59867 0.00454712V0.377949H4.83601V0.751351H5.12611V1.1781H5.33708V1.52483H5.75903V0.644665H5.33708V0.164577H5.75903V0.00454712H4.59867ZM3.91299 2.05826V2.45833H4.12397V2.77839H4.33495V2.45833H4.54592V2.05826H4.7569V1.52483H4.54592V1.12475H4.33495V0.804694H4.12397V1.12475H3.91299V1.52483H3.70202V2.05826H3.91299ZM4.36132 2.03159H4.0976V1.5515H4.36132V2.03159ZM5.04699 4.88544H4.83601V4.40536H5.04699V4.88544ZM3.6229 4.88544H3.41193V4.40536H3.6229V4.88544ZM5.75903 8.13938H5.38983V8.48611H5.23159V8.91285H4.99425V9.31293H4.67778V8.91285H4.44043V8.48611H4.22946V8.13938H4.54592V7.7393H3.99211V8.00602H3.64927V8.45944H3.35918V8.9662H3.57016V9.3396H3.75476V9.68633H3.91299V10.0597H4.15034V10.3798H4.33495V10.6732H4.57229V11.0466H4.91513V10.6465H5.15248V10.2731H5.33708V10.0331H5.75903V9.41961H5.33708V8.88618H5.75903V8.13938Z" fill="white"/>
<path d="M2.80543 0.00454712V0.858037H3.01641V0.00454712H3.86031V0.377949H3.64933V0.751351H3.33287V1.1781H3.12189V1.52483H2.69994V1.1781H2.48897V0.751351H2.1725V0.377949H1.96153V0.00454712H2.80543ZM2.75269 7.31256V7.01917H2.59446V6.67244H2.40985V6.29904H2.19888V5.92564H1.9879V5.65892H1.75055V5.28552H1.43409V5.65892H1.19674V5.92564H1.01214V6.29904H0.80116V6.67244H0.642928V7.01917H0.484696V7.47259H0.0627441V6.29904H0.484696V5.76561H0.0627441V4.88544H0.484696V5.25885H0.748416V5.63225H1.01214V5.25885H1.27586V4.88544H1.48683V4.40536H1.27586V4.03195H1.01214V3.65855H0.748416V4.03195H0.484696V4.40536H0.0627441V3.31182H0.484696V2.80506H0.0627441V2.05826H0.484696V2.40499H0.695672V2.83173H0.985764V3.17846H1.22311V3.57854H1.40772V3.8986H1.77692V3.57854H1.96153V3.17846H2.19888V2.83173H2.48897V2.40499H2.69994V2.05826H3.12189V2.40499H3.33287V2.83173H3.62296V3.17846H3.86031V3.57854H4.04491V3.8986H4.41412V3.57854H4.59873V3.17846H4.83607V2.83173H5.12617V2.40499H5.33714V2.05826H5.75909V2.80506H5.33714V3.31182H5.75909V4.40536H5.33714V4.03195H5.07342V3.65855H4.8097V4.03195H4.54598V4.40536H4.33501V4.88544H4.54598V5.25885H4.8097V5.63225H5.07342V5.25885H5.33714V4.88544H5.75909V5.76561H5.33714V6.29904H5.75909V7.47259H5.33714V7.01917H5.17891V6.67244H5.02068V6.29904H4.8097V5.92564H4.6251V5.65892H4.38775V5.28552H4.07129V5.65892H3.83394V5.92564H3.62296V6.29904H3.41199V6.67244H3.22738V7.01917H3.06915V7.31256H2.75269ZM2.80543 2.85841V3.57854H3.01641V2.85841H2.80543ZM2.69994 4.40536V4.03195H2.43622V3.65855H2.1725V4.03195H1.90878V4.40536H1.69781V4.88544H1.90878V5.25885H2.1725V5.63225H2.43622V5.25885H2.69994V4.88544H3.12189V5.25885H3.38561V5.63225H3.64933V5.25885H3.91305V4.88544H4.12403V4.40536H3.91305V4.03195H3.64933V3.65855H3.38561V4.03195H3.12189V4.40536H2.69994ZM2.80543 5.63225V6.35238H3.01641V5.63225H2.80543Z" fill="white"/>
<path d="M1.22311 24.0089V23.6354H0.985764V23.262H0.695672V22.8353H0.484696V22.4886H0.0627441V23.3687H0.484696V23.8488H0.0627441V24.0089H1.22311ZM1.90878 21.9551V21.5551H1.69781V21.235H1.48683V21.5551H1.27586V21.9551H1.06488V22.4886H1.27586V22.8886H1.48683V23.2087H1.69781V22.8886H1.90878V22.4886H2.11976V21.9551H1.90878ZM1.46046 21.9818H1.72418V22.4619H1.46046V21.9818ZM0.774788 19.128H0.985764V19.608H0.774788V19.128ZM2.19887 19.128H2.40985V19.608H2.19887V19.128ZM0.0627441 15.874H0.431952V15.5273H0.590184V15.1005H0.827532V14.7005H1.144V15.1005H1.38134V15.5273H1.59232V15.874H1.27586V16.2741H1.82967V16.0074H2.1725V15.554H2.46259V15.0472H2.25162V14.6738H2.06701V14.3271H1.90878V13.9537H1.67144V13.6336H1.48683V13.3402H1.24948V12.9668H0.906648V13.3669H0.6693V13.7403H0.484696V13.9803H0.0627441V14.5938H0.484696V15.1272H0.0627441V15.874Z" fill="white"/>
<path d="M4.59867 24.0089V23.6354H4.83601V23.262H5.12611V22.8353H5.33708V22.4886H5.75903V23.3687H5.33708V23.8488H5.75903V24.0089H4.59867ZM3.91299 21.9551V21.5551H4.12397V21.235H4.33495V21.5551H4.54592V21.9551H4.7569V22.4886H4.54592V22.8886H4.33495V23.2087H4.12397V22.8886H3.91299V22.4886H3.70202V21.9551H3.91299ZM4.36132 21.9818H4.0976V22.4619H4.36132V21.9818ZM5.04699 19.128H4.83601V19.608H5.04699V19.128ZM3.6229 19.128H3.41193V19.608H3.6229V19.128ZM5.75903 15.874H5.38983V15.5273H5.23159V15.1005H4.99425V14.7005H4.67778V15.1005H4.44043V15.5273H4.22946V15.874H4.54592V16.2741H3.99211V16.0074H3.64927V15.554H3.35918V15.0472H3.57016V14.6738H3.75476V14.3271H3.91299V13.9537H4.15034V13.6336H4.33495V13.3402H4.57229V12.9668H4.91513V13.3669H5.15248V13.7403H5.33708V13.9803H5.75903V14.5938H5.33708V15.1272H5.75903V15.874Z" fill="white"/>
<path d="M2.80543 24.0089V23.1554H3.01641V24.0089H3.86031V23.6354H3.64933V23.262H3.33287V22.8353H3.12189V22.4886H2.69994V22.8353H2.48897V23.262H2.1725V23.6354H1.96153V24.0089H2.80543ZM2.75269 16.7008V16.9942H2.59446V17.341H2.40985V17.7144H2.19888V18.0878H1.9879V18.3545H1.75055V18.7279H1.43409V18.3545H1.19674V18.0878H1.01214V17.7144H0.80116V17.341H0.642928V16.9942H0.484696V16.5408H0.0627441V17.7144H0.484696V18.2478H0.0627441V19.128H0.484696V18.7546H0.748416V18.3811H1.01214V18.7546H1.27586V19.128H1.48683V19.608H1.27586V19.9814H1.01214V20.3548H0.748416V19.9814H0.484696V19.608H0.0627441V20.7016H0.484696V21.2083H0.0627441V21.9551H0.484696V21.6084H0.695672V21.1817H0.985764V20.8349H1.22311V20.4349H1.40772V20.1148H1.77692V20.4349H1.96153V20.8349H2.19888V21.1817H2.48897V21.6084H2.69994V21.9551H3.12189V21.6084H3.33287V21.1817H3.62296V20.8349H3.86031V20.4349H4.04491V20.1148H4.41412V20.4349H4.59873V20.8349H4.83607V21.1817H5.12617V21.6084H5.33714V21.9551H5.75909V21.2083H5.33714V20.7016H5.75909V19.608H5.33714V19.9814H5.07342V20.3548H4.8097V19.9814H4.54598V19.608H4.33501V19.128H4.54598V18.7546H4.8097V18.3811H5.07342V18.7546H5.33714V19.128H5.75909V18.2478H5.33714V17.7144H5.75909V16.5408H5.33714V16.9942H5.17891V17.341H5.02068V17.7144H4.8097V18.0878H4.6251V18.3545H4.38775V18.7279H4.07129V18.3545H3.83394V18.0878H3.62296V17.7144H3.41199V17.341H3.22738V16.9942H3.06915V16.7008H2.75269ZM2.80543 21.155V20.4349H3.01641V21.155H2.80543ZM2.69994 19.608V19.9814H2.43622V20.3548H2.1725V19.9814H1.90878V19.608H1.69781V19.128H1.90878V18.7546H2.1725V18.3811H2.43622V18.7546H2.69994V19.128H3.12189V18.7546H3.38561V18.3811H3.64933V18.7546H3.91305V19.128H4.12403V19.608H3.91305V19.9814H3.64933V20.3548H3.38561V19.9814H3.12189V19.608H2.69994ZM2.80543 18.3811V17.661H3.01641V18.3811H2.80543Z" fill="white"/>
<path d="M0.0627441 10.8865H0.484696V11.2599H0.6693V11.4733H0.880276V11.8467H1.06488V12.1667H0.880276V12.5401H0.6693V12.7535H0.484696V13.1269H0.0627441V10.8865ZM5.75909 10.8865V13.1269H5.33714V12.7535H5.15254V12.5401H4.94156V12.1667H4.75696V11.8467H4.94156V11.4733H5.15254V11.2599H5.33714V10.8865H5.75909ZM1.90878 12.2468H2.11976V11.7667H1.90878V12.2468ZM3.91305 12.2468V11.7667H3.70208V12.2468H3.91305ZM2.80543 10.6731H3.01641V10.193H2.80543V10.6731ZM2.80543 13.3403V13.8204H3.01641V13.3403H2.80543ZM1.48683 11.3399H1.85604V11.0465H2.11976V10.7798H2.25162V10.5131H2.40985V10.1397H2.62083V9.7663H2.72631V9.41957H3.09552V9.7663H3.20101V10.1397H3.41199V10.5131H3.57022V10.7798H3.70208V11.0465H3.9658V11.3399H4.33501V12.6735H3.9658V12.9669H3.70208V13.2336H3.57022V13.5003H3.41199V13.8737H3.20101V14.2471H3.09552V14.5939H2.72631V14.2471H2.62083V13.8737H2.40985V13.5003H2.25162V13.2336H2.11976V12.9669H1.85604V12.6735H1.48683V11.3399ZM2.80543 11.58V11.1799H2.59446V10.9132H2.38348V11.58H2.59446V11.82H2.72631V12.1934H2.59446V12.4335H2.38348V13.1002H2.59446V12.8335H2.80543V12.4335H3.01641V12.8335H3.22738V13.1002H3.43836V12.4335H3.22738V12.1934H3.09552V11.82H3.22738V11.58H3.43836V10.9132H3.22738V11.1799H3.01641V11.58H2.80543Z" fill="white"/>
</g>
<path d="M5.53857 16.0058H24.0576V24.0088H5.53857V16.0058Z" fill="#007C30"/>
</g>
<defs>
<clipPath id="clip0_720_53487">
<rect width="24.0044" height="24.0044" fill="white" transform="translate(0.0393066 0.00436401)"/>
</clipPath>
</defs>
</svg>
