<svg width="25" height="25" viewBox="0 0 25 25" fill="none" xmlns="http://www.w3.org/2000/svg">
<g clip-path="url(#clip0_720_53450)">
<path d="M0.0134277 0.0087738H24.0178V24.0131H0.0134277V0.0087738Z" fill="#CF142B"/>
<path d="M0.0134277 0.0087738H12.0156V12.011H0.0134277V0.0087738Z" fill="#000066"/>
<path d="M12.0156 0.0087738V1.50905L7.56168 6.00987L12.0156 10.3935V12.011H10.445L5.96764 7.60391L1.60747 12.011H0.0134277V10.4169L4.3736 6.03331L0.0134277 1.74346V0.0087738H1.46682L5.96764 4.41583L10.3278 0.0087738H12.0156Z" fill="white"/>
<path d="M4.32671 7.60391L4.58457 8.40093L0.997982 12.011H0.0134277V11.9406L4.32671 7.60391ZM7.23349 7.3226L8.49935 7.51014L12.0156 10.9561V12.011L7.23349 7.3226ZM12.0156 0.0087738L7.51479 4.60336L7.42103 3.57192L10.9373 0.0087738H12.0156ZM0.0134277 0.0322156L4.53769 4.46271L3.15462 4.27518L0.0134277 1.15742V0.0322156Z" fill="#C8102E"/>
<path d="M4.13918 0.0087738V12.011H7.88986V0.0087738H4.13918ZM0.0134277 4.13452V7.88521H12.0156V4.13452H0.0134277Z" fill="white"/>
<path d="M0.0134277 4.88466V7.13507H12.0156V4.88466H0.0134277ZM4.88932 0.0087738V12.011H7.13972V0.0087738H4.88932Z" fill="#C8102E"/>
<path d="M21.908 6.8819V14.4583C21.908 16.479 17.8713 17.14 17.8713 17.14C17.8713 17.14 13.8159 16.4836 13.8159 14.4489V6.8819H21.908Z" fill="white"/>
<path d="M21.908 14.4583C21.908 16.479 17.8713 17.14 17.8713 17.14C17.8713 17.14 13.8159 16.4836 13.8159 14.4489C13.8159 14.4489 13.8159 14.2848 13.9003 14.1957C13.9003 14.1957 13.8534 14.5286 14.1113 14.7865C14.1113 14.7865 13.9097 14.4208 14.1113 14.0691C14.1113 14.0691 14.0363 14.5286 14.3176 14.7865C14.3176 14.7865 14.1629 14.4161 14.3363 14.0035C14.3363 14.0035 14.2519 14.6739 14.5614 14.8146C14.5614 14.8146 14.6458 14.4208 14.5192 14.177C14.5192 14.177 14.7348 14.2614 14.7208 14.824C14.7208 14.824 14.7911 14.7396 14.8052 14.3317C14.8052 14.3317 14.8192 14.8005 14.9739 14.9084C14.9739 14.9084 15.0302 14.8615 14.9552 14.6505C14.8849 14.4442 14.9833 14.3692 15.0021 14.3692C15.0021 14.3692 14.9693 14.6036 15.1615 14.7818C15.1615 14.7818 15.0818 14.4114 15.199 14.3598C15.199 14.3598 15.1709 14.6739 15.4193 14.7396C15.4193 14.7396 15.4381 14.6505 15.3818 14.552C15.3818 14.552 15.3349 14.4348 15.3725 14.3411C15.3725 14.3411 15.4475 14.6224 15.5553 14.6693C15.5553 14.6693 15.4943 14.5005 15.5553 14.3411C15.5553 14.3411 15.5647 14.5755 15.7803 14.6739C15.7803 14.6739 15.6397 14.4864 15.6866 14.2895L17.0368 14.3551L17.7354 14.388L19.8311 14.2473L20.1874 13.9332C20.1874 13.9332 20.3327 14.1254 20.1077 14.4395C20.1077 14.4395 20.328 14.402 20.4031 14.0504C20.4031 14.0504 20.4921 14.2426 20.3702 14.463C20.3702 14.463 20.614 14.2098 20.6515 13.9332C20.6515 13.9332 20.7453 14.2051 20.5109 14.4958C20.5109 14.4958 20.7219 14.4208 20.8109 14.116C20.8109 14.116 20.8813 14.3036 20.6797 14.5614C20.6797 14.5614 21.0594 14.3692 21.0547 13.9519C21.0547 13.9519 21.2048 14.177 21.0266 14.4958C21.0266 14.4958 21.2141 14.3223 21.2423 14.0598C21.2423 14.0598 21.3454 14.177 21.2282 14.5005C21.2282 14.5005 21.4626 14.2754 21.5048 14.0363C21.5048 14.0363 21.5517 14.2614 21.3501 14.5427C21.3501 14.5427 21.4908 14.5052 21.622 14.2332C21.622 14.2332 21.6548 14.3458 21.5376 14.5427C21.5376 14.5427 21.6642 14.5192 21.7486 14.2661C21.7486 14.2661 21.7674 14.4161 21.7252 14.5474C21.7252 14.5474 21.8283 14.4864 21.8518 14.2051C21.8518 14.2051 21.9033 14.2942 21.9033 14.4114V14.4489L21.908 14.4583Z" fill="#2F8F22"/>
<path d="M19.8311 10.0747C19.8311 10.0747 19.6904 10.1028 19.5076 10.0465C19.3294 9.99028 19.2544 10.0137 19.1982 10.0465C19.1982 10.0465 19.2732 9.9012 19.095 9.78399C19.095 9.78399 19.1513 9.93402 19.0716 9.99965C19.0716 9.99965 19.0388 10.0325 18.9919 9.98559C18.9919 9.98559 18.9309 9.91526 18.8653 9.87307C18.8653 9.87307 19.0153 9.81681 18.9872 9.66209C18.9591 9.50738 18.8747 9.49331 18.8372 9.46987C18.8296 9.50699 18.8296 9.54527 18.8372 9.58239C18.8372 9.58239 18.6684 9.48862 18.8934 9.36204C19.1185 9.23545 19.081 9.15575 19.0341 9.09011C18.9909 9.02372 18.9351 8.96639 18.87 8.92133C18.87 8.92133 18.9169 8.99635 18.9028 9.05729C18.8981 9.11355 18.7903 9.15106 18.8137 9.05261C18.8372 8.94008 18.8137 8.95884 18.8137 8.85101C18.8137 8.85101 19.0106 8.91664 19.095 8.71973C19.095 8.71973 19.1654 8.51813 18.9169 8.41968C18.9169 8.41968 18.9778 8.50407 18.9497 8.56033C18.9497 8.56033 18.8934 8.66347 18.8325 8.58846C18.7715 8.51344 18.7246 8.48531 18.7293 8.39155C18.7293 8.39155 18.9638 8.42437 18.8981 8.1712C18.8981 8.1712 18.8606 8.33998 18.5606 8.11493C18.5606 8.11493 18.7575 7.91802 18.6778 7.75862C18.6778 7.75862 18.659 7.6883 18.4527 7.7258C18.4527 7.7258 18.6309 7.61328 18.5559 7.51483C18.5559 7.51483 18.5184 7.45388 18.3449 7.53358C18.3449 7.53358 18.4105 7.42575 18.2417 7.29916C18.2417 7.29916 18.1339 7.35542 18.0777 7.41168C18.0777 7.41168 17.9651 7.27103 17.8901 7.21008C17.8901 7.21008 17.7588 7.26165 17.726 7.41168C17.726 7.41168 17.6604 7.34136 17.5244 7.29916C17.5244 7.29916 17.4541 7.43044 17.5432 7.53358C17.5432 7.53358 17.4775 7.53358 17.3603 7.48201C17.3603 7.48201 17.2244 7.42575 17.2478 7.53358C17.2666 7.6461 17.2759 7.67423 17.3041 7.73049C17.3041 7.73049 17.004 7.66016 17.0134 7.82426C17.0172 7.87991 17.032 7.93426 17.057 7.98415C17.0819 8.03404 17.1165 8.0785 17.1587 8.11493C17.1587 8.11493 16.99 8.33998 16.8446 8.1712C16.8446 8.1712 16.7884 8.22746 16.9009 8.36811C16.9009 8.36811 17.0134 8.48531 16.9196 8.56502C16.9196 8.56502 16.8024 8.65878 16.7462 8.47125C16.7462 8.47125 16.5492 8.66347 16.779 8.80881C16.779 8.80881 16.9243 8.8932 17.0743 8.76193C17.0743 8.76193 17.0275 9.137 16.8868 9.06198C16.8868 9.06198 16.8024 9.00572 16.9524 8.92602C16.9524 8.92602 16.7274 8.89789 16.6946 9.11355C16.6946 9.11355 16.6665 9.27765 16.8634 9.34797C16.8634 9.34797 17.0087 9.40423 16.8587 9.51675C16.8587 9.51675 16.7462 9.59645 16.8165 9.72304C16.8165 9.72304 16.9009 9.85431 16.6852 9.87307C16.6852 9.87307 16.5727 9.87307 16.5258 9.85431C16.5258 9.85431 16.4789 9.94808 16.5117 10.0418C16.5117 10.0418 16.3992 9.96215 16.1601 10.0512C15.9116 10.145 15.9257 10.0794 15.9116 10.1075L15.8413 10.22C15.8413 10.22 15.9679 10.3888 15.9726 10.3747L15.9445 10.5623L16.0148 10.5904L16.5164 10.3653L17.0322 10.0981L17.4541 10.1169L17.712 10.1778L18.0542 10.2059L18.3074 10.0747H18.6637L19.0528 10.2716L19.5029 10.5388L19.7373 10.5857L19.9155 10.5716V10.2059L19.8311 10.0747Z" fill="#D40000" stroke="black" stroke-width="0.0562602" stroke-linejoin="round"/>
<path d="M15.7471 10.4963C15.7471 10.4963 15.9392 10.5994 16.0283 10.4822C16.0283 10.4822 16.1314 10.276 15.8971 10.2011C15.8971 10.2011 16.0236 10.0511 15.883 9.91053C15.883 9.91053 15.8127 9.83555 15.6909 9.8871C15.6909 9.8871 15.6346 9.77932 15.5175 9.78401C15.5175 9.78401 15.405 9.78401 15.3722 9.90116C15.3722 9.90116 15.227 9.84493 15.1473 9.92928C15.1473 9.92928 15.0067 10.0792 15.1942 10.2011L15.3347 10.2151L15.4659 10.1495L15.6159 10.1917C15.6159 10.1917 15.5784 10.3417 15.7471 10.4963Z" fill="#D40000" stroke="black" stroke-width="0.0562602" stroke-linejoin="round"/>
<path d="M20.1264 10.1403C20.1912 10.1351 20.2561 10.1492 20.3129 10.181C20.3696 10.2127 20.4157 10.2605 20.4452 10.3185C20.5718 10.6092 20.3045 10.7686 20.3045 10.7686C20.3233 10.8295 20.328 10.9186 20.328 10.9186C20.6984 10.9655 20.6327 11.378 20.6327 11.378L20.5061 11.2749C20.2952 11.1905 20.0701 11.378 19.9154 11.6781C19.7607 11.9875 19.831 12.1235 19.8591 12.4892C19.8873 12.8502 20.4733 13.0705 20.4733 13.0705L20.0139 14.2426C19.8357 14.7115 19.4559 14.5192 19.3434 14.4161C19.2403 14.3223 19.2122 14.3786 19.1606 14.4161C19.1043 14.463 19.4091 14.6974 18.8512 14.9224C18.3073 15.1428 18.2088 15.3116 18.1151 15.3678C18.026 15.4241 17.6462 15.3913 17.6134 15.3397C17.5665 15.2928 17.59 15.2928 17.4446 15.2037C17.304 15.124 17.0649 15.0396 16.8023 14.9131C16.5398 14.7865 16.5445 14.6224 16.5492 14.5896C16.5539 14.5567 16.6429 14.2848 16.3335 14.5005C16.0241 14.7208 15.7615 14.3973 15.7615 14.3973C15.7053 14.3176 15.4427 13.6285 15.4427 13.6285C15.3886 13.4365 15.3212 13.2485 15.2411 13.0659C15.2411 13.0659 15.2271 13.1034 15.4568 12.9721C15.6771 12.8455 15.785 12.6298 15.8647 12.4142C15.9444 12.1985 15.8647 11.8281 15.8365 11.7578C15.8084 11.6828 15.6396 11.3405 15.4287 11.2702C15.2177 11.1952 15.0723 11.3827 15.0723 11.3827C15.0723 11.3827 15.0114 10.9608 15.3818 10.9139C15.3818 10.9139 15.3818 10.8295 15.4052 10.7686C15.4052 10.7686 15.1427 10.6092 15.2646 10.3185C15.2646 10.3185 15.349 10.1169 15.5834 10.1403L15.5271 10.2528C15.5271 10.2528 15.4709 10.8436 16.3382 10.4498C17.2055 10.0466 17.1774 9.97154 17.6791 10.2247L18.0354 10.22C18.0354 10.22 18.5558 9.97154 18.7246 10.0794C18.8933 10.1872 19.4888 10.5201 19.4888 10.5201C19.4888 10.5201 20.0701 10.7404 20.192 10.3325L20.1264 10.1403Z" fill="#64B4D1" stroke="black" stroke-width="0.0562602"/>
<path d="M17.5056 12.7142C17.5056 12.7142 17.4775 12.5314 17.4494 12.4142C17.4494 12.4142 17.3837 12.2313 17.4963 12.0953L17.6275 11.9406C17.6275 11.9406 17.7119 11.8281 17.8151 11.814C17.8151 11.814 17.9276 11.814 17.9323 11.7906C17.937 11.7672 18.0589 11.5796 18.3355 11.7906C18.3355 11.7906 18.4152 11.65 18.5558 11.6218C18.5558 11.6218 18.6965 11.5843 18.7715 11.6875C18.7715 11.6875 18.9309 11.5656 19.0716 11.7672C19.0716 11.7672 19.2591 11.6546 19.4091 11.875C19.4091 11.875 19.592 11.7812 19.7092 11.9734C19.8264 12.175 19.8029 12.2548 19.8029 12.2548L19.8967 12.5736L20.2014 12.9486L19.4841 13.2206H19.1606L18.5183 13.3893L17.3791 13.4784L17.0649 13.1033L17.5103 12.7142H17.5056Z" fill="white" stroke="#00247D" stroke-width="0.0562602" stroke-miterlimit="10"/>
<path d="M16.5445 14.613C16.5445 14.613 16.3757 14.6177 16.2866 14.6692C16.2022 14.7067 16.1366 14.7536 16.0382 14.8193C16.0382 14.8193 15.9866 14.8802 15.7897 14.8427C15.7897 14.8427 15.4568 14.763 15.4568 15.0302C15.4568 15.0302 15.0395 15.0584 15.2083 15.4194C15.2083 15.4194 15.3208 15.7007 15.5553 15.5038C15.5553 15.5038 15.4052 15.7147 15.6959 15.7991C15.6959 15.7991 15.9022 15.8554 15.9631 15.635C15.9631 15.635 15.996 15.5506 15.9163 15.4475C15.9163 15.4475 16.0194 15.4288 16.085 15.3209C16.085 15.3209 15.8741 15.5928 16.1085 15.696C16.1085 15.696 16.4038 15.7663 16.4226 15.4616C16.4226 15.4616 16.3945 15.3115 16.5117 15.26C16.5117 15.26 16.7461 15.2037 16.8446 14.9505C16.8446 14.9505 16.5117 14.7677 16.5445 14.613ZM15.8553 11.9172C15.8553 11.9172 15.5928 11.8 15.4662 11.9172C15.4662 11.9172 15.2974 11.814 15.1145 11.9172C15.1145 11.9172 14.9411 12.0297 14.8192 12.161C14.8192 12.161 14.7348 12.2313 14.7629 12.461C14.7629 12.461 14.8098 12.6251 14.7817 12.7001C14.7817 12.7001 14.7254 12.6908 14.6082 12.8314C14.6082 12.8314 14.4676 12.9955 14.3269 12.8455C14.3269 12.8455 14.3738 13.0611 14.6176 13.0236C14.6176 13.0236 14.5004 13.1174 14.5988 13.3518C14.5988 13.3518 14.6785 13.5206 14.5519 13.7363C14.5519 13.7363 14.7676 13.6519 14.7629 13.3987C14.7629 13.3987 14.7395 13.2299 14.8098 13.1174C14.8098 13.1174 14.7395 13.2205 14.8848 13.4503C14.8848 13.4503 14.9973 13.619 14.9083 13.7878C14.9083 13.7878 15.1145 13.7128 15.0958 13.4596C15.077 13.2065 14.9551 13.3096 15.0302 13.0752C15.0302 13.0752 15.0536 13.1971 15.1145 13.2627C15.1621 13.3015 15.1978 13.3527 15.2177 13.4107C15.2376 13.4687 15.2408 13.5312 15.2271 13.5909C15.2271 13.5909 15.349 13.4315 15.3208 13.2721C15.3129 13.2003 15.2923 13.1304 15.2599 13.0658L15.649 12.8408L15.8506 12.4892L15.8553 11.9172Z" fill="#D40000" stroke="black" stroke-width="0.0562602" stroke-linejoin="round"/>
<path d="M15.2597 12.9251C15.2597 12.9251 15.091 12.9157 15.0723 12.7845M14.7817 12.7001C14.7817 12.7001 14.838 12.7001 14.8942 12.7564C14.8942 12.7564 14.927 12.8126 14.9879 12.8032" stroke="black" stroke-width="0.0562602" stroke-miterlimit="10"/>
<path d="M15.4989 12.4423C15.4989 12.4423 15.4146 12.4423 15.363 12.4048C15.363 12.4048 15.3161 12.372 15.2927 12.4235C15.2927 12.4235 15.2459 12.4985 15.3255 12.5313C15.3255 12.5313 15.4333 12.5875 15.2693 12.6906C15.2693 12.6906 15.4567 12.6157 15.3818 12.5219C15.3818 12.5219 15.2974 12.4657 15.3255 12.4423C15.3255 12.4423 15.3349 12.4235 15.3724 12.4423C15.4052 12.4704 15.4708 12.461 15.4989 12.4423Z" fill="black"/>
<path d="M18.0635 12.9017L18.1573 12.8736L17.5056 10.6232H17.4822L18.0635 12.9017Z" fill="#784421" stroke="black" stroke-width="0.0562602"/>
<path d="M15.8832 15.4005C15.8832 15.4005 15.7333 15.3115 15.6021 15.4146C15.6021 15.4146 15.6208 15.3584 15.7192 15.3349C15.7192 15.3349 15.7708 15.185 15.916 15.199C15.916 15.199 15.8551 15.274 15.7754 15.3302C15.7754 15.3302 15.8645 15.3396 15.8926 15.4005H15.8832Z" fill="black"/>
<path d="M15.3443 15.752C15.3443 15.752 15.1006 15.6021 15.2365 15.3443C15.2365 15.3443 15.274 15.2741 15.349 15.2881C15.349 15.2881 15.4989 15.335 15.3818 15.5458C15.3818 15.5458 15.3209 15.6817 15.349 15.7567L15.3443 15.752ZM15.841 16.0004C15.841 16.0004 15.4943 15.8411 15.602 15.5693C15.602 15.5693 15.6348 15.4756 15.7098 15.4849C15.7098 15.4849 15.8457 15.4943 15.8176 15.6724C15.8176 15.6724 15.7801 15.8411 15.841 16.0004Z" fill="#64B4D1" stroke="#00247D" stroke-width="0.0562602" stroke-miterlimit="2.6"/>
<path d="M15.7661 14.9928C15.7661 14.9928 15.663 15.0724 15.6256 15.124C15.6256 15.124 15.5787 15.0677 15.5225 15.0396C15.5225 15.0396 15.5881 15.0256 15.6209 15.0537C15.6209 15.0537 15.6771 15.0068 15.7661 14.9928Z" fill="black"/>
<path d="M16.0757 15.9302C16.0757 15.9302 16.3568 15.8646 16.3006 15.5787C16.3006 15.5787 16.2725 15.4569 16.16 15.4757C16.16 15.4757 16.0194 15.5131 16.1085 15.6912C16.1085 15.6912 16.1647 15.8131 16.0757 15.9302Z" fill="#64B4D1" stroke="#00247D" stroke-width="0.0562602" stroke-miterlimit="2.6"/>
<path d="M17.3133 9.9809L17.5804 10.0699C17.5804 10.0699 17.8287 10.1777 18.1521 10.0699L18.4005 9.97621L18.2318 10.2293V10.3652L18.3348 10.5151C18.3348 10.5151 18.2692 10.5432 18.0818 10.4214C18.0818 10.4214 17.8756 10.2621 17.6272 10.4214C17.6272 10.4214 17.4867 10.5151 17.3789 10.5151L17.5382 10.337L17.4773 10.173L17.3086 9.97153L17.3133 9.9809Z" fill="#F5CE00" stroke="black" stroke-width="0.0562602" stroke-miterlimit="2.6"/>
<path d="M16.1834 15.5975C16.1834 15.5975 16.1928 15.5788 16.1834 15.5741L16.16 15.5835C16.16 15.5835 16.1318 15.6303 16.16 15.696C16.16 15.696 16.1834 15.7381 16.1693 15.7803L16.174 15.799C16.174 15.799 16.1881 15.7944 16.1881 15.7803C16.1881 15.7803 16.2021 15.7428 16.174 15.696C16.174 15.696 16.1459 15.6303 16.1834 15.5975Z" fill="white"/>
<path d="M19.9528 10.4963C19.9528 10.4963 19.7606 10.5994 19.6716 10.4822C19.6716 10.4822 19.5779 10.276 19.8122 10.2011C19.8122 10.2011 19.681 10.0511 19.8122 9.91053C19.8122 9.91053 19.8871 9.83555 20.009 9.8871C20.009 9.8871 20.0652 9.77932 20.1824 9.78401C20.1824 9.78401 20.2948 9.78401 20.3276 9.90116C20.3276 9.90116 20.4776 9.84493 20.5619 9.92928C20.5619 9.92928 20.6932 10.0792 20.501 10.2011L20.3698 10.2151L20.2339 10.1495L20.0887 10.1917C20.0887 10.1917 20.1261 10.3417 19.9528 10.4963Z" fill="#D40000" stroke="black" stroke-width="0.0562602" stroke-linejoin="round"/>
<path d="M18.4011 10.3419C18.4011 10.3419 18.4011 10.3794 18.3636 10.3888C18.3636 10.3888 18.3167 10.4029 18.2885 10.3466V10.3325C18.2885 10.3091 18.2792 10.2388 18.3542 10.1778C18.3542 10.1778 18.4808 10.0794 18.7152 10.2013C18.9413 10.3284 19.1728 10.4457 19.4091 10.5529C19.4091 10.5529 19.5497 10.6279 19.7748 10.6373C19.7748 10.6373 20.0842 10.6607 20.2108 10.4451C20.2108 10.4451 20.3139 10.281 20.2108 10.1731C20.2108 10.1731 20.1733 10.1263 20.1076 10.1356C20.0735 10.1432 20.0434 10.1633 20.0232 10.1919C20.0232 10.1919 19.9717 10.2575 20.0232 10.3091C20.0232 10.3091 20.0983 10.356 20.1264 10.2622C20.1264 10.2716 20.1498 10.3419 20.1123 10.3982C20.1123 10.3982 19.9248 10.6795 19.4091 10.3935L18.7433 10.0137C18.7433 10.0137 18.4058 9.84026 18.1995 10.1122C18.1995 10.1122 18.0354 10.3372 18.2464 10.4826C18.2464 10.4826 18.4058 10.5763 18.4995 10.4263C18.4995 10.4263 18.5839 10.281 18.4526 10.22C18.4526 10.22 18.3448 10.1638 18.2979 10.2763C18.251 10.3888 18.3823 10.4169 18.3917 10.3372C18.3917 10.3372 18.3917 10.3185 18.4058 10.3372L18.4011 10.3419Z" fill="#F5CE00" stroke="black" stroke-width="0.0562602" stroke-miterlimit="2.6"/>
<path d="M15.7335 11.5046V11.0827C15.7335 11.0452 15.7335 11.0264 15.7897 10.9795C15.8366 10.942 15.8929 10.8717 15.9632 11.0592C15.9632 11.0592 16.1132 10.8951 16.1648 10.8717C16.1648 10.8717 16.2539 10.8014 16.3148 10.9045C16.3148 10.9045 16.3945 10.7826 16.4555 10.7545C16.4555 10.7545 16.6055 10.6607 16.6102 10.9514L16.7274 10.8389C16.7274 10.8389 16.8212 10.7686 16.9243 10.8717C16.9243 10.8717 17.0931 11.0405 17.1119 11.0874C17.1119 11.0874 17.1541 11.1342 17.1587 11.2139C17.1587 11.2139 17.1587 11.3077 17.2056 11.3546C17.2056 11.3546 17.2619 11.4015 17.3088 11.4109C17.3088 11.4109 17.426 11.4155 17.4776 11.5328C17.4776 11.5328 17.4963 11.5093 17.5573 12.0578V13.0658L16.8821 13.8676L15.7944 13.5581L15.3631 13.3753L15.2646 13.0658L15.6866 12.7892L15.907 12.1797L15.8413 11.7437L15.7335 11.4999V11.5046Z" fill="#E4CB5E" stroke="black" stroke-width="0.0562602" stroke-miterlimit="2.6"/>
<path d="M18.72 12.0296L18.7762 11.9593L18.8934 11.8656C18.8934 11.8656 19.0808 12.353 19.0902 12.4607V12.6107C19.0902 12.6107 19.3713 12.6857 19.4229 13.1121L19.1886 13.5432L18.8277 13.337L18.72 13.2668V12.0296Z" fill="#784421" stroke="black" stroke-width="0.0562602"/>
<path d="M15.2833 15.4053C15.2833 15.4053 15.2926 15.3912 15.2833 15.3772L15.2598 15.3959C15.2598 15.3959 15.1849 15.4756 15.2458 15.6021C15.2458 15.6021 15.2458 15.6209 15.2645 15.6115V15.5974C15.2645 15.5974 15.2083 15.485 15.2833 15.41V15.4053Z" fill="white"/>
<path d="M16.3758 15.3209C16.3758 15.3209 16.3805 15.2834 16.3617 15.2459C16.3617 15.2459 16.343 15.2178 16.3477 15.1756M16.6102 10.9514C16.6102 10.9514 16.6102 11.0592 16.643 11.1389C16.6712 11.2139 16.7837 11.3499 16.7837 11.4155" stroke="black" stroke-width="0.0562602" stroke-miterlimit="10"/>
<path d="M19.1605 14.613C19.1605 14.613 19.3292 14.6177 19.4182 14.6692C19.5073 14.7067 19.5729 14.7536 19.676 14.8192C19.676 14.8192 19.7228 14.8801 19.915 14.8426C19.915 14.8426 20.257 14.7629 20.257 15.0301C20.257 15.0301 20.6647 15.0582 20.496 15.419C20.496 15.419 20.3836 15.7002 20.1493 15.5033C20.1493 15.5033 20.2992 15.7142 20.0087 15.7986C20.0087 15.7986 19.8025 15.8548 19.7416 15.6346C19.7416 15.6346 19.7088 15.5502 19.7884 15.4471C19.7884 15.4471 19.6947 15.4284 19.6244 15.3206C19.6244 15.3206 19.8353 15.5924 19.601 15.6955C19.601 15.6955 19.3058 15.7658 19.287 15.4612C19.287 15.4612 19.3105 15.3112 19.198 15.2597C19.198 15.2597 18.9637 15.2034 18.8606 14.9504C18.8606 14.9504 19.1933 14.7676 19.1605 14.613Z" fill="#D40000" stroke="black" stroke-width="0.0562602" stroke-linejoin="round"/>
<path d="M16.4788 11.4202L16.7601 13.6613M16.5444 11.4155L16.8585 13.5065M16.6007 11.4062L16.9617 13.4784" stroke="black" stroke-width="0.0562602" stroke-miterlimit="10"/>
<path d="M17.1726 13.3002L17.2711 13.2674L16.6147 11.017H16.5959L17.1726 13.3002Z" fill="#784421" stroke="black" stroke-width="0.0562602"/>
<path d="M16.7977 11.3218L17.4632 12.9853M16.7603 11.3452L17.3929 13.079" stroke="black" stroke-width="0.0562602" stroke-miterlimit="10"/>
<path d="M15.7193 15.8365C15.7193 15.8365 15.6397 15.7662 15.649 15.635C15.649 15.635 15.649 15.6069 15.6397 15.6022C15.6397 15.6022 15.6209 15.5976 15.6209 15.6304C15.6209 15.6304 15.6022 15.7662 15.6959 15.8412C15.6959 15.8475 15.7006 15.8506 15.71 15.8506C15.71 15.8506 15.724 15.8506 15.71 15.8365H15.7193Z" fill="white"/>
<path d="M16.8351 11.2983L17.5056 12.8174M16.657 11.3921L17.0789 13.4409" stroke="black" stroke-width="0.0562602" stroke-miterlimit="10"/>
<path d="M20.0511 12.9009C19.7512 12.7322 19.6856 12.3667 19.6856 12.3667C19.6459 12.1404 19.6736 11.9073 19.7653 11.6966C19.9527 11.2936 20.2808 11.2139 20.2808 11.2139C20.2808 11.2139 19.9621 11.4389 19.8684 11.7388C19.8684 11.7388 19.8028 11.9965 19.845 12.2402C19.8824 12.4979 19.8637 12.4323 19.9246 12.6291L20.0511 12.9103V12.9009Z" fill="#F5CE00" stroke="black" stroke-width="0.0562602" stroke-miterlimit="2.6"/>
<path d="M18.7669 11.95L17.5244 12.3485L17.4541 12.9111C17.1588 13.3378 16.554 13.4128 16.554 13.4128L17.0228 13.9144L17.9183 14.102L18.3965 13.7363L18.8278 13.3425C18.7809 13.1315 18.8044 12.8174 18.8044 12.8174C18.8044 12.7611 18.8278 12.6392 18.8278 12.6392C18.8278 12.6392 18.7528 12.1375 18.7715 11.9594L18.7669 11.95Z" fill="#784421" stroke="black" stroke-width="0.0562602"/>
<path d="M17.4725 12.7703C17.4725 12.7703 18.2926 12.5125 18.7846 12.3017M17.0742 13.2389C17.0742 13.2389 18.1052 13.0514 18.8268 12.639L19.0892 12.461" stroke="black" stroke-width="0.0562602" stroke-miterlimit="10"/>
<path d="M19.0902 12.6111L18.8089 12.8173C18.8089 12.8173 17.6555 13.3424 16.7788 13.3612M18.8042 13.1924C18.8042 13.1924 17.9181 13.6472 17.4164 13.6519" stroke="black" stroke-width="0.0562602" stroke-miterlimit="10"/>
<path d="M19.8545 11.9171C19.8545 11.9171 20.1169 11.8 20.2434 11.9171C20.2434 11.9171 20.4121 11.8141 20.6043 11.9171C20.6043 11.9171 20.7683 12.0296 20.8948 12.1608C20.8948 12.1608 20.9792 12.2311 20.951 12.4607C20.951 12.4607 20.9042 12.6247 20.9323 12.6997C20.9323 12.6997 20.9885 12.6904 21.101 12.8309C21.101 12.8309 21.2509 12.9949 21.3822 12.845C21.3822 12.845 21.34 13.0606 21.101 13.0231C21.101 13.0231 21.2135 13.1168 21.1104 13.3511C21.1104 13.3511 21.0401 13.5198 21.1572 13.7353C21.1572 13.7353 20.9417 13.651 20.9557 13.398C20.9557 13.398 20.9698 13.2293 20.9089 13.1168C20.9089 13.1168 20.9698 13.2199 20.8245 13.4495C20.8245 13.4495 20.7167 13.6182 20.8105 13.7869C20.8105 13.7869 20.5949 13.7119 20.623 13.4589C20.6371 13.2058 20.7636 13.3089 20.6792 13.0746C20.6792 13.0746 20.6652 13.1964 20.6043 13.2621C20.5567 13.3008 20.521 13.352 20.5011 13.41C20.4813 13.468 20.478 13.5304 20.4918 13.5901C20.4918 13.5901 20.37 13.4308 20.3981 13.2714C20.4262 13.1074 20.4496 13.0652 20.4496 13.0652L20.0607 12.8403L19.8639 12.4889L19.8545 11.9171Z" fill="#D40000" stroke="black" stroke-width="0.0562602" stroke-linejoin="round"/>
<path d="M15.3912 13.3425C15.3912 13.3425 15.4287 13.169 15.5881 13.2299C15.5881 13.2299 15.6444 12.9486 15.9538 12.9393C16.2539 12.9299 16.2726 13.2393 16.2726 13.2581C16.2726 13.2581 16.3664 13.1268 16.507 13.1409C16.507 13.1409 16.7696 13.1268 16.6805 13.5394L16.7274 13.5956C16.7274 13.5956 16.9149 13.1315 17.3228 13.2487C17.3228 13.2487 17.7119 13.3706 17.4635 13.7503C17.4635 13.7503 17.6557 14.0082 17.8198 13.9848C17.9886 13.9613 18.1339 13.9097 18.2933 13.6191C18.4621 13.3284 18.8418 13.2815 18.9356 13.3003C19.0294 13.3143 19.1091 13.3847 19.1231 13.4503C19.1231 13.4503 19.3294 12.7799 20.0561 12.8783L20.3468 13.033L20.4593 13.0799L20.2905 13.5487L19.892 14.4489L19.5873 14.5427L19.2685 14.3598L19.156 14.4161L19.1513 14.6927L18.7293 14.9928L18.4386 15.11L18.1198 15.335L18.0448 15.5319C18.0448 15.5319 17.8714 15.4522 17.6698 15.5319L17.5994 15.3631L17.4119 15.1897L16.6852 14.8427L16.5539 14.4208L16.4227 14.3598L16.2726 14.5286L16.057 14.5567L15.7335 14.3317L15.3818 13.3471L15.3912 13.3425Z" fill="white" stroke="#00247D" stroke-width="0.0562602" stroke-miterlimit="10"/>
<path d="M18.5557 10.0418C18.5557 10.0418 18.2745 10.0325 18.2886 10.323" stroke="black" stroke-width="0.0562602" stroke-miterlimit="2.6"/>
<path d="M20.3797 13.1033C19.8968 12.9533 19.7655 12.4329 19.7655 12.4329C19.7112 12.1901 19.7324 11.9365 19.8264 11.7062C20.0515 11.1905 20.4172 11.1905 20.4172 11.1905C20.4656 11.1823 20.5153 11.1934 20.5557 11.2214C20.596 11.2495 20.6237 11.2922 20.6328 11.3405C20.6469 11.453 20.5719 11.4952 20.5719 11.4952C20.4406 11.5656 20.3562 11.4718 20.3562 11.4718C20.3 11.3968 20.3468 11.3358 20.3468 11.3358C20.3797 11.2889 20.4406 11.3171 20.4406 11.3171C20.4969 11.3264 20.4875 11.3921 20.4875 11.3921C20.4875 11.3921 20.5016 11.3171 20.4312 11.3077C20.4312 11.3077 20.2812 11.2749 20.1124 11.4859C20.1124 11.4859 19.8874 11.7718 19.8874 12.1469C19.8874 12.1469 19.8593 12.8408 20.5813 13.0189C20.5813 13.0189 20.5016 13.1315 20.3609 13.5393C20.3609 13.5393 20.2062 14.0644 20.0609 14.3504C20.0609 14.3504 19.8593 14.7536 19.4139 14.5895C19.4139 14.5895 19.1513 14.4723 19.1513 14.2848C19.1513 14.2848 19.1326 14.1066 19.292 14.0973C19.292 14.0973 19.4467 14.0832 19.4467 14.2145C19.4467 14.2145 19.4467 14.3551 19.2779 14.327C19.2779 14.327 19.2216 14.3129 19.231 14.2567C19.231 14.2567 19.2404 14.2004 19.3107 14.2285C19.3857 14.2567 19.3107 14.2285 19.3107 14.2238C19.3107 14.2238 19.2826 14.2098 19.2545 14.2238C19.2545 14.2238 19.2263 14.2238 19.2263 14.2707C19.2201 14.277 19.2326 14.2942 19.2638 14.3223L19.3388 14.3317C19.3388 14.3317 19.3857 14.4254 19.4842 14.4583C19.5395 14.4748 19.5979 14.4783 19.6549 14.4686C19.7118 14.4588 19.7657 14.436 19.8124 14.402C19.8748 14.3471 19.9231 14.278 19.953 14.2004C20.0493 13.995 20.1323 13.7836 20.2015 13.5675C20.2015 13.5675 20.2859 13.3002 20.3562 13.1596L20.3797 13.1033Z" fill="#F5CE00" stroke="black" stroke-width="0.0562602" stroke-miterlimit="2.6"/>
<path d="M19.0146 14.4207C19.0146 14.4207 19.1084 14.4113 19.1084 14.491C19.1084 14.491 19.1084 14.6035 18.9584 14.58C18.9584 14.58 18.8178 14.5519 18.8694 14.3926C18.8694 14.3926 18.9022 14.2848 19.0381 14.2989C19.0381 14.2989 19.1646 14.2989 19.2255 14.4769C19.2255 14.4769 19.2677 14.6316 19.188 14.7581C19.1037 14.8987 18.8975 14.9924 18.7991 15.0393C18.7991 15.0393 18.3867 15.1939 18.2649 15.2876C18.2649 15.2876 18.0774 15.4235 18.1665 15.5501C18.1665 15.5501 18.1993 15.6016 18.2414 15.6016C18.2414 15.6016 18.2977 15.6016 18.3071 15.5454C18.3071 15.5454 18.3071 15.5782 18.2696 15.5922C18.2696 15.5922 18.2321 15.611 18.1946 15.5782C18.1946 15.5782 18.1477 15.5313 18.1805 15.4657C18.1805 15.4657 18.2321 15.3907 18.3492 15.4376C18.3492 15.4376 18.4429 15.4891 18.4055 15.5922C18.4055 15.5922 18.368 15.6906 18.2508 15.686C18.2508 15.686 18.1571 15.686 18.0962 15.6297C18.0071 15.5313 18.0025 15.3486 18.0868 15.2548C18.0868 15.2548 18.1618 15.1564 18.3117 15.0861L18.7335 14.9221C18.846 14.8802 18.9482 14.8147 19.0334 14.73C19.0334 14.73 19.0943 14.6644 19.1177 14.5425C19.1177 14.5425 19.1318 14.4488 19.0756 14.4301L19.0193 14.416L19.0146 14.4207Z" fill="#F5CE00" stroke="black" stroke-width="0.0562602" stroke-miterlimit="2.6"/>
<path d="M19.0247 14.4207C19.0247 14.4207 19.1278 14.4019 19.1887 14.5238C19.1887 14.5238 19.2215 14.5941 19.2262 14.6409M19.2636 14.2192C19.2636 14.2192 19.1606 14.2332 19.2121 14.3785C19.2683 14.5144 19.3527 14.5519 19.3808 14.5753" stroke="black" stroke-width="0.0562602" stroke-miterlimit="2.6"/>
<path d="M17.3134 10.3419C17.3134 10.3419 17.3134 10.3794 17.3556 10.3888C17.3556 10.3888 17.3931 10.3982 17.4166 10.3466L17.4213 10.3325C17.4213 10.3091 17.4353 10.2388 17.3603 10.1778C17.3603 10.1778 17.2337 10.0794 16.9993 10.2013C16.9993 10.2013 16.8118 10.295 16.6852 10.37C16.6852 10.37 16.3476 10.5482 16.3054 10.5576C16.3054 10.5576 16.1601 10.6326 15.9351 10.642C15.9351 10.642 15.6256 10.6654 15.499 10.4497C15.499 10.4497 15.4006 10.2856 15.499 10.1778C15.499 10.1778 15.5365 10.1309 15.6069 10.1403C15.635 10.1403 15.6631 10.1591 15.6913 10.1966C15.6913 10.1966 15.7381 10.2622 15.6819 10.3138C15.6819 10.3138 15.6116 10.3607 15.5834 10.2669C15.5834 10.2763 15.5647 10.3419 15.6069 10.4075C15.6069 10.4075 15.7897 10.6842 16.3007 10.3935L16.9712 10.0184C16.9712 10.0184 17.3041 9.84494 17.5103 10.1122C17.5103 10.1122 17.6744 10.3372 17.4635 10.4872C17.4635 10.4872 17.3087 10.581 17.2103 10.431C17.2103 10.431 17.1306 10.2903 17.2572 10.2247C17.2572 10.2247 17.365 10.1684 17.4166 10.281C17.4635 10.3935 17.3228 10.4216 17.3181 10.3419C17.3181 10.3419 17.3181 10.3232 17.3087 10.3419H17.3134ZM15.6631 12.9064C15.9585 12.7423 16.0241 12.3673 16.0241 12.3673C16.0898 11.9922 15.9444 11.6968 15.9444 11.6968C15.7569 11.2936 15.4287 11.2139 15.4287 11.2139C15.4287 11.2139 15.7522 11.439 15.8413 11.739C15.8413 11.739 15.9116 11.9969 15.8694 12.2407C15.8272 12.4986 15.846 12.4329 15.785 12.6298L15.6631 12.9064Z" fill="#F5CE00" stroke="black" stroke-width="0.0562602" stroke-miterlimit="2.6"/>
<path d="M17.1587 10.0418C17.1587 10.0418 17.4399 10.0325 17.4211 10.323" stroke="black" stroke-width="0.0562602" stroke-miterlimit="2.6"/>
<path d="M15.3255 13.1033C15.8131 12.9533 15.9397 12.4329 15.9397 12.4329C15.9955 12.1906 15.9759 11.937 15.8834 11.7062C15.6631 11.1905 15.2927 11.1905 15.2927 11.1905C15.245 11.1836 15.1964 11.1953 15.1572 11.2233C15.1179 11.2512 15.0909 11.2932 15.0817 11.3405C15.063 11.453 15.1427 11.4952 15.1427 11.4952C15.2692 11.5656 15.3536 11.4718 15.3536 11.4718C15.4099 11.3968 15.363 11.3358 15.363 11.3358C15.3302 11.289 15.2692 11.3171 15.2692 11.3171C15.213 11.3265 15.2224 11.3921 15.2224 11.3921C15.2224 11.3921 15.2083 11.3171 15.2833 11.3077C15.2833 11.3077 15.4333 11.2749 15.6021 11.4859C15.6021 11.4859 15.8225 11.7719 15.8225 12.1469C15.8225 12.1469 15.8506 12.8408 15.1286 13.019C15.1286 13.019 15.2083 13.1315 15.349 13.5394C15.349 13.5394 15.5037 14.0645 15.6537 14.3505C15.6537 14.3505 15.8506 14.7536 16.3007 14.5896C16.3007 14.5896 16.5632 14.4723 16.5632 14.2848C16.5632 14.2848 16.5773 14.1067 16.4226 14.0973C16.4226 14.0973 16.2632 14.0832 16.2632 14.2145C16.2632 14.2145 16.2632 14.3551 16.432 14.327C16.432 14.327 16.4882 14.3129 16.4788 14.2567C16.4788 14.2567 16.4742 14.2004 16.3991 14.2286C16.3241 14.2567 16.3991 14.2286 16.3991 14.2239C16.3991 14.2239 16.4273 14.2098 16.4554 14.2239C16.4554 14.2239 16.4835 14.2239 16.4835 14.2707C16.4898 14.277 16.4788 14.2942 16.4507 14.3223L16.3757 14.3317C16.3757 14.3317 16.3288 14.4255 16.2257 14.4583C16.1703 14.4748 16.1119 14.4783 16.055 14.4686C15.9981 14.4588 15.9442 14.436 15.8975 14.402C15.835 14.3471 15.7868 14.278 15.7568 14.2004C15.6607 13.9949 15.5777 13.7835 15.5084 13.5675C15.5084 13.5675 15.4287 13.3003 15.3583 13.1596L15.3302 13.1033H15.3255Z" fill="#F5CE00" stroke="black" stroke-width="0.0562602" stroke-miterlimit="2.6"/>
<path d="M16.6945 14.4207C16.6945 14.4207 16.6055 14.4113 16.6055 14.491C16.6055 14.491 16.6055 14.6035 16.7507 14.58C16.7507 14.58 16.8913 14.5519 16.8444 14.3926C16.8444 14.3926 16.807 14.2848 16.6711 14.2989C16.6711 14.2989 16.5445 14.2989 16.4883 14.4769C16.4883 14.4769 16.4414 14.6316 16.5211 14.7581C16.6055 14.8987 16.8116 14.9924 16.9147 15.0393C16.9147 15.0393 17.3224 15.1939 17.4443 15.2876C17.4443 15.2876 17.6317 15.4235 17.5427 15.5501C17.5427 15.5501 17.5146 15.6016 17.4677 15.6016C17.4677 15.6016 17.4115 15.6016 17.4068 15.5454C17.4068 15.5454 17.4068 15.5782 17.4396 15.5922C17.4396 15.5922 17.4771 15.611 17.5146 15.5782C17.5146 15.5782 17.5614 15.5313 17.5286 15.4657C17.5286 15.4657 17.4818 15.3907 17.3646 15.4376C17.3646 15.4376 17.2662 15.4891 17.3084 15.5922C17.3084 15.5922 17.3459 15.6906 17.463 15.686C17.463 15.686 17.552 15.686 17.613 15.6297C17.702 15.5313 17.7067 15.3486 17.627 15.2548C17.627 15.2548 17.552 15.1564 17.4068 15.0861C17.3131 15.058 17.149 14.9877 16.9803 14.9221C16.8672 14.8815 16.7646 14.8158 16.6804 14.73C16.6804 14.73 16.6195 14.6644 16.5961 14.5425C16.5961 14.5425 16.5773 14.4488 16.6336 14.4301L16.6945 14.4207Z" fill="#F5CE00" stroke="black" stroke-width="0.0562602" stroke-miterlimit="2.6"/>
<path d="M16.6851 14.4208C16.6851 14.4208 16.5819 14.402 16.521 14.5239C16.521 14.5239 16.4882 14.5942 16.4835 14.6411M16.4507 14.2192C16.4507 14.2192 16.5491 14.2332 16.4976 14.3786C16.446 14.5145 16.3569 14.552 16.3335 14.5755M17.6181 10.3044C17.6181 10.3044 17.8572 10.1497 18.1057 10.3185M16.2444 11.7859C16.2444 11.7859 16.2772 11.6453 16.1178 11.4109L15.9678 11.0592M16.3147 10.9045L16.4272 11.2139L16.5632 11.5327" stroke="black" stroke-width="0.0562602" stroke-miterlimit="2.6"/>
<path d="M16.3523 11.9308C16.3523 11.9308 16.446 12.0293 16.4366 12.1933M16.0617 11.8231C16.0617 11.8231 16.1554 11.8699 16.1461 12.1417C16.1461 12.1417 16.1461 12.3292 16.2866 12.4323M16.043 12.4979C16.043 12.4979 16.3523 12.4651 16.3757 12.6619C16.3757 12.6619 16.3757 12.8493 16.4881 12.8634C16.4881 12.8634 16.6428 12.8774 16.6756 13.0321M16.1414 12.7134C16.1414 12.7134 16.1976 12.7931 16.2538 12.8353M16.5444 12.5072C16.5444 12.5072 16.624 12.6338 16.6381 12.6994M16.8911 11.0592C16.8911 11.0592 16.9614 11.1576 17.0317 11.1998M17.1817 11.6497C17.1817 11.6497 17.3363 11.7247 17.3176 12.1183C17.3176 12.1183 17.2942 12.3526 17.3644 12.4791" stroke="black" stroke-width="0.0562602" stroke-miterlimit="10"/>
<path d="M16.446 11.3826L16.4601 11.4201C16.4601 11.4201 16.7413 11.4342 16.8912 11.242L16.8725 11.2045C16.8725 11.2045 16.6288 11.1905 16.4507 11.3826H16.446Z" fill="#784421" stroke="black" stroke-width="0.0562602"/>
<path d="M17.4541 12.8781C17.4541 12.8781 18.4241 12.5969 18.799 12.4282" stroke="black" stroke-width="0.0562602" stroke-miterlimit="10"/>
<path d="M17.3556 11.0966L17.3462 11.0685L17.8148 10.8811L17.8289 10.9185L17.3556 11.0966Z" fill="#784421" stroke="black" stroke-width="0.0562602"/>
<path d="M17.3931 11.078L17.7119 12.6392M17.4493 11.0639L17.815 12.6111M17.5103 11.0358L17.9088 12.5782M17.6697 10.9795L18.2088 12.1329M17.74 10.9608L18.3167 12.0953M17.7916 10.9326L18.4151 12.0719M17.6884 12.6486L17.9369 12.5736M17.5056 12.4985C17.5056 12.4985 18.2229 12.2876 18.7714 12.0672M17.4962 12.5736C17.4962 12.5736 18.4058 12.3391 18.7714 12.161M17.7728 13.3143L17.8197 13.469L17.951 13.4221L17.9088 13.2768M18.1432 13.2159L18.1901 13.3565L18.3167 13.3143L18.2698 13.1737M17.5197 12.3485L17.5103 12.1516L18.7058 11.7906L18.7714 11.9594M18.0213 11.9969L18.0823 12.175M18.4339 11.875L18.5136 12.0438M18.5323 11.8422L18.6073 11.9969M18.6308 11.8094L18.7011 11.9781M18.7011 11.7906L18.8371 11.7156L18.8933 11.8609M18.7714 11.7531L18.8371 11.9078" stroke="black" stroke-width="0.0562602" stroke-miterlimit="10"/>
<path d="M15.8082 14.0313C15.8082 14.0313 15.5739 13.7923 15.8082 13.5626C15.8082 13.5626 15.5505 13.4408 15.588 13.2346M16.2253 14.2187C16.2253 14.2187 15.9816 14.2515 16.0519 13.7782C16.0519 13.7782 15.9535 13.9656 15.916 14.0594C15.9036 14.1061 15.906 14.1554 15.9228 14.2007C15.9395 14.246 15.9699 14.285 16.0097 14.3124C16.0566 14.3405 16.2721 14.3968 16.3377 14.2562M15.9535 13.497C15.9535 13.497 15.8504 13.5861 15.9254 13.7501M16.0519 13.5158C16.0519 13.5158 16.0612 13.6798 16.1456 13.7688M16.1269 13.4549C16.1269 13.4549 16.1269 13.6423 16.2581 13.7641M16.1925 13.3893C16.1925 13.3893 16.1925 13.6001 16.3471 13.736M16.9797 13.7032C16.9797 13.7032 17.0594 13.5205 17.2234 13.5345C17.2234 13.5345 17.1484 13.572 17.1484 13.6517C17.1484 13.6517 17.1344 13.7923 17.2796 13.8016C17.2796 13.8016 17.3968 13.8204 17.4624 13.7548" stroke="#00247D" stroke-width="0.0562602" stroke-miterlimit="10"/>
<path d="M17.3837 14.5005C17.3837 14.5005 16.9618 14.3036 17.0086 14.027C17.0086 14.027 17.0274 13.8582 17.1962 13.7738M17.1024 13.9519C17.1024 13.9519 17.0649 14.0691 17.1493 14.1535M17.1962 13.8722C17.1962 13.8722 17.1446 14.0035 17.2337 14.0973M17.2993 13.8019C17.2993 13.8019 17.2384 13.9144 17.3087 14.0129M16.9196 14.5286C16.9196 14.5286 17.1446 14.7302 17.3228 14.7302M16.8445 14.5942C16.8445 14.5942 17.0602 14.763 17.1915 14.7912M16.7695 14.6411C16.7695 14.6411 17.0321 14.8709 17.1915 14.8849M17.8338 15.1006C17.8338 15.1006 17.5806 15.2412 17.7822 15.3913M17.6697 14.9506L18.0916 14.7349M17.7728 15.0256C17.7728 15.0256 18.1995 14.7677 18.3214 14.7115M17.9932 15.049C17.9932 15.049 18.3542 14.8052 18.5558 14.6974M18.2323 15.0303C18.2323 15.0303 18.4855 14.8427 18.7246 14.6974M18.809 14.4583C18.809 14.4583 18.6871 14.2754 18.2839 14.4583C18.2839 14.4583 18.4339 14.3223 18.7246 14.2145M19.1278 13.4503C19.1278 13.4503 19.1606 13.5956 19.1278 13.6847" stroke="#00247D" stroke-width="0.0562602" stroke-miterlimit="10"/>
<path d="M18.4808 14.1535C18.4808 14.1535 18.5605 14.0316 18.7761 13.966C18.7761 13.966 18.8324 14.1067 18.9965 14.0832C18.9965 14.0832 19.245 14.0316 19.1653 13.755C19.1653 13.755 19.1184 13.5581 18.8324 13.5347M19.6763 13.1924C19.6763 13.1924 19.967 13.2487 19.9576 13.4784C19.9576 13.4784 19.9904 13.8347 19.6154 13.9004M19.9201 13.3378C19.9201 13.3378 19.9998 13.1643 20.178 13.094M19.967 12.9908C19.967 12.9908 20.042 13.1221 20.0936 13.1362M19.9248 13.0893L20.0186 13.2065M19.8967 13.183L19.9717 13.2581M18.4058 11.814C18.4058 11.814 18.462 11.7203 18.6074 11.7578M19.1793 12.4985C19.1793 12.4985 19.2684 12.1329 19.5732 12.2641M19.4513 12.236C19.4513 12.236 19.4794 12.0672 19.4044 11.9781M19.2403 12.2219C19.2403 12.2219 19.2778 12.2923 19.2403 12.3485" stroke="#00247D" stroke-width="0.0562602" stroke-miterlimit="10"/>
<path d="M19.8685 15.9958C19.8685 15.9958 20.2152 15.8412 20.1121 15.5694C20.1121 15.5694 20.0793 15.4757 19.9997 15.485C19.9997 15.485 19.8638 15.4897 19.8872 15.6725C19.8872 15.6725 19.9341 15.8505 19.8638 16.0005L19.8685 15.9958Z" fill="#64B4D1" stroke="#00247D" stroke-width="0.0562602" stroke-miterlimit="2.6"/>
<path d="M19.9951 15.8365C19.9951 15.8365 20.0701 15.7662 20.0607 15.635C20.0607 15.635 20.056 15.6069 20.0654 15.6022C20.0654 15.6022 20.0842 15.5976 20.0842 15.6304C20.0842 15.6304 20.1076 15.7662 20.0139 15.8412C20.0139 15.8475 20.0092 15.8506 19.9998 15.8506L19.9951 15.8365Z" fill="white"/>
<path d="M20.3607 15.752C20.3607 15.752 20.6091 15.6021 20.4732 15.3443C20.4732 15.3443 20.4357 15.2741 20.3607 15.2881C20.3607 15.2881 20.2108 15.335 20.3279 15.5458C20.3279 15.5458 20.3842 15.6817 20.3607 15.7567V15.752Z" fill="#64B4D1" stroke="#00247D" stroke-width="0.0562602" stroke-miterlimit="2.6"/>
<path d="M20.4264 15.4053C20.4264 15.4053 20.4124 15.3912 20.4264 15.3772L20.4405 15.3959C20.4405 15.3959 20.5155 15.4756 20.4592 15.6021C20.4592 15.6021 20.4498 15.6209 20.4358 15.6115V15.5974C20.4358 15.5974 20.492 15.485 20.4264 15.41V15.4053Z" fill="white"/>
<path d="M19.6293 15.9302C19.6293 15.9302 19.3575 15.8646 19.4091 15.5787C19.4091 15.5787 19.4325 15.4569 19.5497 15.4757C19.5497 15.4757 19.6903 15.5131 19.6012 15.6912C19.6012 15.6912 19.545 15.8131 19.6293 15.9302Z" fill="#64B4D1" stroke="#00247D" stroke-width="0.0562602" stroke-miterlimit="2.6"/>
<path d="M19.5264 15.5975C19.5264 15.5975 19.517 15.5788 19.5264 15.5741L19.5451 15.5835C19.5451 15.5835 19.5732 15.6303 19.5545 15.696C19.5545 15.696 19.531 15.7381 19.5404 15.7803L19.531 15.799L19.517 15.7803C19.517 15.7803 19.5076 15.7428 19.531 15.696C19.531 15.696 19.5592 15.6303 19.531 15.5975H19.5264Z" fill="white"/>
<path d="M19.8262 15.4004C19.8262 15.4004 19.9809 15.3114 20.1074 15.4145C20.1074 15.4145 20.0933 15.3583 19.9949 15.3348C19.9949 15.3348 19.9434 15.1849 19.7981 15.1989C19.7981 15.1989 19.8543 15.2739 19.9387 15.3301C19.9387 15.3301 19.8543 15.3395 19.8262 15.4004ZM19.9387 14.9928C19.9387 14.9928 20.0511 15.0724 20.0886 15.124C20.0886 15.124 20.1261 15.0677 20.1824 15.0396C20.1824 15.0396 20.1214 15.0256 20.0886 15.0537C20.0886 15.0537 20.0324 15.0068 19.9434 14.9928H19.9387Z" fill="black"/>
<path d="M19.334 15.3209C19.334 15.3209 19.3246 15.2834 19.3528 15.2459C19.359 15.2459 19.3622 15.2225 19.3622 15.1756M20.4592 12.9252C20.4592 12.9252 20.6186 12.9158 20.6468 12.7845M20.9281 12.7001C20.9281 12.7001 20.8718 12.7001 20.8202 12.7564C20.8202 12.7564 20.7827 12.8127 20.7265 12.8033" stroke="black" stroke-width="0.0562602" stroke-miterlimit="10"/>
<path d="M20.2203 12.4423C20.2203 12.4423 20.2999 12.4423 20.3468 12.4048C20.3468 12.4048 20.3936 12.372 20.4264 12.4235C20.4264 12.4235 20.4733 12.4985 20.3843 12.5313C20.3843 12.5313 20.2859 12.5875 20.4452 12.6906C20.4452 12.6906 20.2531 12.6157 20.3327 12.5219C20.3327 12.5219 20.4171 12.4657 20.3843 12.4423C20.3843 12.4423 20.3749 12.4235 20.3374 12.4423C20.3046 12.4704 20.2437 12.461 20.2156 12.4423H20.2203Z" fill="black"/>
<path d="M20.3279 10.398C20.3279 10.398 20.3701 10.3418 20.3513 10.1918C20.3326 10.0419 20.4731 10.0184 20.5247 10.0606C20.5247 10.0606 20.5809 10.1075 20.5247 10.2059C20.4858 10.2925 20.4155 10.3612 20.3279 10.398Z" fill="#64B4D1" stroke="#00247D" stroke-width="0.0562602" stroke-miterlimit="2.6"/>
<path d="M20.3796 10.2762C20.3796 10.2762 20.4359 10.2246 20.4078 10.1075L20.4124 10.0981H20.4312C20.4312 10.0981 20.4593 10.2293 20.4031 10.2949C20.4031 10.2949 20.389 10.309 20.3796 10.2949V10.2762Z" fill="white"/>
<path d="M20.2905 10.3417C20.2905 10.3417 20.2858 10.2761 20.178 10.173C20.0655 10.0605 20.1546 9.96683 20.2249 9.96683C20.2249 9.96683 20.2905 9.96683 20.3186 10.0746C20.3425 10.1641 20.3325 10.2592 20.2905 10.3417Z" fill="#64B4D1" stroke="#00247D" stroke-width="0.0562602" stroke-miterlimit="2.6"/>
<path d="M20.2718 10.2013C20.2718 10.2013 20.2718 10.1262 20.1733 10.0465V10.0278H20.1874C20.1874 10.0278 20.2952 10.1122 20.2952 10.2059C20.2952 10.2122 20.2921 10.2169 20.2859 10.22C20.2796 10.2231 20.2749 10.2169 20.2718 10.2013Z" fill="white"/>
<path d="M20.1404 10.2902C20.1404 10.2902 20.1122 10.2433 19.9763 10.1918C19.8451 10.1449 19.8779 10.0278 19.9295 10.0043C19.9295 10.0043 19.9951 9.98091 20.056 10.0559C20.11 10.1221 20.1398 10.2048 20.1404 10.2902Z" fill="#64B4D1" stroke="#00247D" stroke-width="0.0562602" stroke-miterlimit="2.6"/>
<path d="M20.0794 10.1966C20.0794 10.1966 20.0513 10.1309 19.9247 10.0981L19.9153 10.084C19.9122 10.0809 19.9185 10.0793 19.9341 10.0793C19.9341 10.0793 20.0654 10.1075 20.1076 10.1919L20.0982 10.2059C20.0982 10.2059 20.0888 10.2059 20.0841 10.1966H20.0794Z" fill="white"/>
<path d="M20.22 10.3419C20.22 10.3419 20.1591 10.3653 20.0138 10.295C19.8732 10.2247 19.8076 10.3465 19.8357 10.4028C19.8357 10.4028 19.8592 10.4778 19.9716 10.459C20.0672 10.4552 20.1578 10.415 20.2247 10.3465L20.22 10.3419Z" fill="#64B4D1" stroke="#00247D" stroke-width="0.0562602" stroke-miterlimit="2.6"/>
<path d="M19.8921 10.3888C19.8921 10.3888 19.953 10.4356 20.0702 10.3888H20.0889C20.0889 10.3888 20.0889 10.3982 20.0795 10.4028C20.0795 10.4028 19.953 10.4591 19.8687 10.4075V10.3935H19.8874L19.8921 10.3888Z" fill="white"/>
<path d="M20.0139 9.88715C20.0139 9.88715 20.0839 9.92445 20.0699 10.0037" stroke="black" stroke-width="0.0562602" stroke-miterlimit="2.6"/>
<path d="M20.3279 9.9012C20.3279 9.9012 20.3559 9.9898 20.3279 10.0411" stroke="black" stroke-width="0.0562602" stroke-miterlimit="10"/>
<path d="M15.3724 10.398C15.3724 10.398 15.3302 10.3418 15.3489 10.1918C15.363 10.0325 15.2318 10.0184 15.1802 10.0606C15.1802 10.0606 15.124 10.1075 15.1756 10.2059C15.2145 10.2925 15.2848 10.3612 15.3724 10.398Z" fill="#64B4D1" stroke="#00247D" stroke-width="0.0562602" stroke-miterlimit="2.6"/>
<path d="M15.3208 10.2762C15.3208 10.2762 15.2739 10.2246 15.2927 10.1075V10.0981H15.2692C15.2692 10.0981 15.2458 10.2293 15.3021 10.2949C15.3021 10.2949 15.3161 10.309 15.3208 10.2949V10.2762Z" fill="white"/>
<path d="M15.4146 10.3417C15.4146 10.3417 15.4146 10.2761 15.5271 10.173C15.6396 10.0605 15.5505 9.96683 15.4802 9.96683C15.4802 9.96683 15.41 9.96683 15.3865 10.0746C15.3626 10.1641 15.3726 10.2592 15.4146 10.3417Z" fill="#64B4D1" stroke="#00247D" stroke-width="0.0562602" stroke-miterlimit="2.6"/>
<path d="M15.4334 10.2013C15.4334 10.2013 15.4334 10.1262 15.5272 10.0465C15.5303 10.0434 15.5303 10.0372 15.5272 10.0278H15.5178C15.5178 10.0278 15.4053 10.1122 15.4053 10.2059C15.4053 10.2122 15.41 10.2169 15.4193 10.22C15.4225 10.2231 15.4272 10.2169 15.4334 10.2013Z" fill="white"/>
<path d="M15.5598 10.2902C15.5598 10.2902 15.5879 10.2433 15.7285 10.1918C15.855 10.1449 15.8222 10.0278 15.766 10.0043C15.766 10.0043 15.7098 9.98091 15.6442 10.0559C15.5902 10.1221 15.5604 10.2048 15.5598 10.2902Z" fill="#64B4D1" stroke="#00247D" stroke-width="0.0562602" stroke-miterlimit="2.6"/>
<path d="M15.6254 10.1959C15.6254 10.1959 15.6487 10.1306 15.7699 10.098L15.7839 10.084L15.7699 10.0793C15.7699 10.0793 15.6394 10.1073 15.6021 10.1913V10.2053C15.6021 10.2053 15.616 10.2053 15.6207 10.1959H15.6254Z" fill="white"/>
<path d="M15.4756 10.3419C15.4756 10.3419 15.5459 10.3653 15.6818 10.295C15.827 10.2247 15.8926 10.3465 15.8692 10.4028C15.8692 10.4028 15.8411 10.4778 15.7286 10.459C15.633 10.4552 15.5425 10.415 15.4756 10.3465V10.3419Z" fill="#64B4D1" stroke="#00247D" stroke-width="0.0562602" stroke-miterlimit="2.6"/>
<path d="M15.813 10.3888C15.813 10.3888 15.7521 10.4356 15.6256 10.3888H15.6162V10.4028C15.6162 10.4028 15.7521 10.4591 15.8271 10.4075C15.8271 10.4075 15.8411 10.4075 15.8271 10.3935L15.813 10.3888Z" fill="white"/>
<path d="M15.6908 9.88715C15.6908 9.88715 15.6162 9.92445 15.6348 10.0037" stroke="black" stroke-width="0.0562602" stroke-miterlimit="2.6"/>
<path d="M15.3723 9.9012C15.3723 9.9012 15.3443 9.9898 15.3723 10.0411" stroke="black" stroke-width="0.0562602" stroke-miterlimit="10"/>
<path d="M18.4902 9.08543C18.4902 9.08543 18.5371 9.21202 18.5183 9.32923C18.4996 9.44175 18.523 9.46519 18.5652 9.48863C18.598 9.50269 18.673 9.46988 18.6777 9.38549C18.6777 9.38549 18.7715 9.56364 18.598 9.68085C18.598 9.68085 18.4668 9.76055 18.3636 9.6621C18.3214 9.6199 18.3074 9.52145 18.3261 9.42768C18.3261 9.42768 18.3542 9.30109 18.3074 9.16982C18.3074 9.16982 18.3777 9.24483 18.3636 9.39955C18.3636 9.39955 18.3214 9.68085 18.5277 9.6621C18.5277 9.6621 18.6684 9.6621 18.673 9.49332C18.673 9.49332 18.6168 9.54958 18.5558 9.53082C18.5275 9.5241 18.5029 9.50667 18.4872 9.48219C18.4714 9.45772 18.4658 9.4281 18.4714 9.39955C18.4808 9.32454 18.4996 9.19795 18.4902 9.08543ZM18.2652 9.53082C18.2652 9.53082 18.2511 9.75587 18.0542 9.80744C18.0542 9.80744 18.0823 9.76524 18.0354 9.65272C18.0354 9.65272 17.9885 9.59646 17.9885 9.49801C17.9885 9.49801 17.937 9.54489 18.0026 9.67616C18.0495 9.75586 18.0073 9.84494 17.9979 9.84963C17.9792 9.85432 18.3261 9.80275 18.2605 9.53551L18.2652 9.53082ZM18.0026 9.31985C18.0026 9.31985 17.9557 9.26359 17.9463 9.14169C17.9463 9.01511 17.9276 8.98229 17.9088 8.97291C17.9088 8.97291 17.9323 9.08074 17.9276 9.14169C17.9276 9.21045 17.9323 9.25734 17.9417 9.28234C17.9417 9.28234 17.8291 9.29641 17.7635 9.14169C17.6979 8.98698 17.6369 9.00104 17.5994 9.00104C17.5994 9.00104 17.6416 9.00573 17.7119 9.14169C17.7916 9.28234 17.8151 9.31516 18.0026 9.31516V9.31985ZM17.501 8.99166C17.501 8.99166 17.5572 9.14169 17.5619 9.2167C17.5619 9.2167 17.4166 9.16982 17.3744 9.05261C17.3744 9.05261 17.2243 9.0995 17.2806 9.27296C17.2806 9.27296 17.1493 9.22608 17.0884 9.12294C17.0884 9.12294 17.1587 9.1792 17.229 9.20264C17.229 9.20264 17.2197 9.0573 17.3978 9.00573C17.3978 9.00573 17.4259 9.13231 17.5244 9.16044L17.501 8.99166ZM17.7354 8.73849C17.7354 8.73849 17.7916 8.80882 17.8901 8.80882C17.9196 8.81011 17.949 8.80441 17.9759 8.79219C18.0028 8.77997 18.0264 8.76157 18.0448 8.73849C18.0448 8.73849 18.0354 8.86039 17.8901 8.86508C17.8901 8.86508 17.7354 8.86508 17.7354 8.73849ZM17.1024 9.60584L17.1962 9.69492C17.1962 9.69492 17.2525 9.75118 17.29 9.68085C17.29 9.68085 17.3556 9.56833 17.4306 9.57771C17.4306 9.57771 17.3697 9.61053 17.3181 9.71836C17.3181 9.71836 17.304 9.75118 17.2618 9.75586C17.2384 9.75586 17.215 9.76524 17.1775 9.72305L17.1024 9.61053V9.60584ZM17.8854 8.22746C17.7354 8.22746 17.862 8.33998 17.862 8.33998C17.862 8.52752 17.7213 8.59315 17.6182 8.53689C17.515 8.48063 17.5947 8.34936 17.5947 8.34936C17.5947 8.34936 17.4822 8.41968 17.5478 8.5322C17.6229 8.64473 17.8198 8.58846 17.8854 8.49001C17.9604 8.59315 18.1526 8.64473 18.223 8.5322C18.298 8.41968 18.1808 8.34467 18.1808 8.34467C18.1808 8.34467 18.2652 8.48063 18.162 8.5322C18.0589 8.59315 17.9088 8.5322 17.9135 8.34467C17.9135 8.34467 18.0448 8.22746 17.8901 8.22746H17.8854ZM17.9792 8.02117C17.9792 8.02117 18.0354 8.11494 18.026 8.25559C18.026 8.25559 18.0729 8.11494 17.9792 8.02586V8.02117ZM17.5103 8.24153C17.5103 8.24153 17.501 8.13838 17.3978 8.12901C17.3978 8.12901 17.4916 8.18996 17.5103 8.24153ZM18.2652 8.24153C18.2652 8.24153 18.2792 8.13838 18.3777 8.12901C18.3777 8.12901 18.2933 8.18996 18.2652 8.24153ZM17.3603 8.39155C17.3603 8.39155 17.44 8.415 17.4822 8.35874L17.3603 8.39155ZM17.1071 7.77738C17.1071 7.77738 17.2009 7.77269 17.29 7.90397C17.29 7.90397 17.1962 7.95085 17.1775 7.97898C17.1775 7.97898 17.1775 7.9321 17.2243 7.89928C17.2243 7.89928 17.2056 7.83364 17.1071 7.78207V7.77738ZM18.6074 7.77738C18.6074 7.77738 18.5136 7.77269 18.4292 7.90397C18.4292 7.90397 18.5183 7.95085 18.5418 7.97898C18.5418 7.97898 18.5418 7.9321 18.4949 7.89928C18.4949 7.89928 18.5136 7.83364 18.6074 7.78207V7.77738ZM17.9182 7.88052C17.9182 7.88052 17.9979 7.90397 18.0964 7.84771C18.0964 7.84771 18.223 7.78207 18.298 7.84771C18.298 7.84771 18.2323 7.81489 18.0964 7.88052C18.0964 7.88052 17.9698 7.95554 17.9182 7.88052Z" fill="black"/>
<path d="M18.0027 7.96016C18.0027 7.96016 18.073 7.84301 18.2839 7.86644C18.2839 7.86644 18.2276 8.03514 18.0027 7.96016Z" fill="white"/>
<path d="M18.143 7.97375C18.1636 7.97375 18.1803 7.95078 18.1803 7.92245C18.1803 7.89412 18.1636 7.87115 18.143 7.87115C18.1224 7.87115 18.1057 7.89412 18.1057 7.92245C18.1057 7.95078 18.1224 7.97375 18.143 7.97375Z" fill="#784421"/>
<path d="M18.1432 7.95518C18.1561 7.95518 18.1665 7.94056 18.1665 7.92254C18.1665 7.90451 18.1561 7.88989 18.1432 7.88989C18.1303 7.88989 18.1199 7.90451 18.1199 7.92254C18.1199 7.94056 18.1303 7.95518 18.1432 7.95518Z" fill="black"/>
<path d="M17.5571 7.70227C17.5571 7.70227 17.6836 7.71633 17.768 7.7585C17.768 7.7585 17.8523 7.81473 17.946 7.74444C17.946 7.74444 18.0538 7.67884 18.1194 7.59917C18.1194 7.59917 17.9601 7.70695 17.8992 7.7257C17.8992 7.7257 17.8429 7.67884 17.8242 7.61792C17.8242 7.61792 17.8289 7.57106 17.9179 7.49139C17.9179 7.49139 17.8008 7.52888 17.7773 7.62729C17.7934 7.6675 17.8173 7.70414 17.8476 7.73507C17.8476 7.73507 17.8242 7.74913 17.768 7.70695C17.768 7.70695 17.6414 7.66946 17.5571 7.70695V7.70227ZM17.8898 8.4989C17.782 8.59731 17.8898 8.58794 17.8898 8.58794C17.8898 8.58794 18.0023 8.59731 17.8898 8.49421V8.4989ZM17.8242 7.88034C17.8242 7.88034 17.7398 7.90377 17.6368 7.84754C17.6368 7.84754 17.5149 7.78193 17.4399 7.84754C17.4399 7.84754 17.5055 7.81473 17.6414 7.88034C17.6414 7.88034 17.7727 7.95532 17.8289 7.88034H17.8242Z" fill="black"/>
<path d="M17.7399 7.96016C17.7399 7.96016 17.6743 7.84301 17.4587 7.86644C17.4587 7.86644 17.515 8.03514 17.7399 7.96016Z" fill="white"/>
<path d="M17.5944 7.97375C17.615 7.97375 17.6317 7.95078 17.6317 7.92245C17.6317 7.89412 17.615 7.87115 17.5944 7.87115C17.5738 7.87115 17.5571 7.89412 17.5571 7.92245C17.5571 7.95078 17.5738 7.97375 17.5944 7.97375Z" fill="#784421"/>
<path d="M17.5946 7.95518C17.6075 7.95518 17.6179 7.94056 17.6179 7.92254C17.6179 7.90451 17.6075 7.88989 17.5946 7.88989C17.5817 7.88989 17.5713 7.90451 17.5713 7.92254C17.5713 7.94056 17.5817 7.95518 17.5946 7.95518Z" fill="black"/>
<path d="M21.9221 6.8819V14.4583C21.9221 16.479 17.8808 17.14 17.8808 17.14C17.8808 17.14 13.8347 16.4836 13.8347 14.4583V6.8819H21.9221Z" stroke="black" stroke-width="0.0562602"/>
</g>
<defs>
<clipPath id="clip0_720_53450">
<rect width="24.0044" height="24.0044" fill="white" transform="translate(0.0131836 0.00872803)"/>
</clipPath>
</defs>
</svg>
