<svg width="25" height="25" viewBox="0 0 25 25" fill="none" xmlns="http://www.w3.org/2000/svg">
<g clip-path="url(#clip0_720_53477)">
<path d="M0.0175781 0.0087738H24.0219V24.0131H0.0175781V0.0087738Z" fill="#FFD520"/>
<path d="M0.0175781 24.0131H24.0219V0.0087738L0.0175781 24.0131Z" fill="#FF4E12"/>
<path d="M13.2343 7.62732C13.0469 7.56171 12.9344 7.65543 12.9391 7.89442C12.9438 8.12873 13.0703 8.26462 13.2531 8.17559L13.2343 7.62732Z" fill="white" stroke="black" stroke-width="0.0187534"/>
<path d="M13.3937 7.18659C13.2438 7.06475 13.0985 7.1163 13.0282 7.34123C12.9579 7.56616 13.0329 7.73486 13.2344 7.71143L13.3937 7.18659Z" fill="white" stroke="black" stroke-width="0.0187534"/>
<path d="M13.6472 6.75998C13.516 6.61933 13.3659 6.64277 13.2628 6.85375C13.1596 7.06472 13.2018 7.24288 13.4034 7.25226L13.6472 6.75998ZM13.4831 8.83223C13.2581 8.91662 13.2347 9.22136 13.3753 9.4089C13.516 9.59643 13.7738 9.63394 13.9192 9.4089L13.4831 8.83223Z" fill="white" stroke="black" stroke-width="0.0187534"/>
<path d="M13.2204 8.18523C13.0094 8.1149 12.8172 8.40089 12.7844 8.65406C12.7469 8.98225 12.2874 9.08539 12.5406 9.57767C12.5922 9.26355 12.7985 9.09477 12.9625 9.0807C13.1266 9.06664 13.3751 9.03382 13.4783 8.83222L13.2204 8.18523ZM13.8908 9.44639C13.647 9.50734 13.6095 9.83553 13.7877 10.0699C13.9377 10.2715 14.4112 10.2247 14.3972 10.0231L13.8955 9.44639H13.8908ZM14.5941 11.4296C14.6035 11.2186 14.2659 11.1342 14.1018 11.1764C13.933 11.2186 13.6189 11.1717 13.5439 10.9935C13.4876 11.1342 13.572 11.2889 13.8111 11.3686C13.9893 11.4249 13.9893 11.5562 13.933 11.6124C14.0737 11.6359 14.4722 11.6359 14.5894 11.4296H14.5941Z" fill="white" stroke="black" stroke-width="0.0187534"/>
<path d="M14.4015 10.0746C14.1578 9.97154 14.0126 10.1309 13.9235 10.2902C13.7829 10.5198 13.3706 10.2246 13.23 10.5292C13.4174 10.4495 13.6142 10.6229 13.7033 10.6838C13.9657 10.8525 14.4624 10.801 14.5327 10.4027L14.4015 10.0746Z" fill="white" stroke="black" stroke-width="0.0187534"/>
<path d="M14.5425 10.3606C14.2987 10.5388 14.2049 10.7591 14.2143 10.9045C14.2143 11.0545 14.4253 11.3733 14.6456 11.3968C14.7769 11.1295 14.8425 10.5716 14.5425 10.3606ZM13.5392 11.4952C13.5392 11.4061 13.6705 11.3733 13.7595 11.4014C13.8439 11.4296 13.9799 11.5186 13.933 11.6124L13.5392 11.4952ZM12.2077 11.0123C12.1842 10.9045 12.3577 10.7216 12.5828 10.8248C12.8172 10.9232 12.8453 11.1201 12.7515 11.1952L12.2077 11.0123Z" fill="white" stroke="black" stroke-width="0.0187534"/>
<path d="M12.7704 11.2045C12.7516 11.1483 12.9157 11.0311 13.197 11.1014C13.4783 11.1717 13.5487 11.3546 13.5393 11.4952L12.7704 11.2045ZM12.1797 11.0123C12.325 10.8998 12.2734 10.6841 12.1375 10.6232C11.8984 10.506 11.9874 10.2012 11.8327 10.1403C11.678 10.084 11.5327 9.97619 11.528 9.86836C11.4483 10.0184 11.4952 10.1497 11.603 10.2434C11.7108 10.3372 11.5186 10.7216 11.6546 10.8248L12.1797 11.0123ZM9.02439 10.9279C8.90249 10.7357 8.60244 10.7732 8.48523 10.9045C8.35865 11.0451 8.3774 11.242 8.49461 11.3264L9.02439 10.9279ZM9.72764 10.6419C9.68076 10.3841 9.37133 10.3513 9.20255 10.4169C9.02908 10.4825 8.91187 10.7451 9.02439 10.9326L9.72764 10.6419Z" fill="white" stroke="black" stroke-width="0.0187534"/>
<path d="M10.2007 10.604C10.3132 10.3885 10.0976 10.0651 9.84923 10.0183C9.64305 9.97608 9.39937 9.98077 9.31971 9.77458C9.27285 9.95265 9.39937 10.0651 9.55401 10.1635C9.70865 10.2619 9.52589 10.5244 9.77426 10.6696L10.2007 10.604Z" fill="white" stroke="black" stroke-width="0.0187534"/>
<path d="M10.1777 10.6136C10.1308 10.459 10.2339 10.2481 10.4448 10.2622C10.6556 10.2809 10.7728 10.4309 10.6791 10.623L10.1777 10.6136Z" fill="white" stroke="black" stroke-width="0.0187534"/>
<path d="M10.6514 10.623C10.6186 10.4637 10.7545 10.2716 10.9606 10.3184C11.1668 10.3653 11.2652 10.5293 11.1481 10.7074L10.6514 10.623Z" fill="white" stroke="black" stroke-width="0.0187534"/>
<path d="M11.1154 10.6982C11.0966 10.5388 11.2373 10.3512 11.4435 10.4075C11.6498 10.4591 11.7389 10.6326 11.6076 10.806L11.1154 10.6982ZM7.56628 13.3987C7.17246 13.3987 7.074 13.4924 7.01774 13.8956C6.94742 14.402 7.6366 14.4582 7.56628 13.3987Z" fill="white" stroke="black" stroke-width="0.0187534"/>
<path d="M7.73978 12.8689C7.13498 12.6345 6.80211 13.5956 6.20669 13.4268C6.42235 13.7691 6.94276 13.4268 7.13498 13.4596C7.46317 13.5206 8.1758 13.3987 7.74447 12.8689H7.73978ZM7.34596 14.1816C7.0459 14.041 6.72241 14.5004 6.78335 14.702C6.85837 14.9599 7.54287 14.7489 7.34596 14.1816ZM5.94414 16.1554C6.11292 16.2023 6.30983 16.2961 6.27232 16.6149C6.23482 16.9337 5.6394 17.5807 5.10024 17.6182C4.56107 17.6557 4.36416 18.3074 3.89533 18.1245C4.33135 18.0401 4.33135 17.5479 4.6736 17.3931C4.42511 17.3041 4.29853 17.862 3.97972 17.862C3.66091 17.862 3.51088 18.373 3.12175 18.3355C2.73262 18.3027 2.69042 18.9497 1.91216 18.9591C1.32142 18.9637 0.585351 19.6623 0.318115 19.3623C0.894783 19.2779 1.1292 18.9591 1.47145 18.6074C2.02468 18.0448 2.64823 18.2933 2.86389 17.7963C2.61579 17.9618 2.3228 18.0469 2.02468 18.0401C1.66367 18.0355 1.26516 18.6168 0.861964 18.3589C1.09638 18.3308 1.2511 18.2277 1.49489 17.9698C1.74806 17.7073 2.11844 17.876 2.41381 17.6041C2.87327 17.1822 3.26709 17.5338 3.70779 17.004C3.5859 16.9478 3.31866 16.99 3.07487 17.1165C2.82638 17.2478 2.51226 17.0275 2.22627 17.1822C2.25909 16.8352 2.92015 17.0321 3.33273 16.793C3.80156 16.5211 4.18132 16.6055 4.5517 16.6336C4.03598 16.6336 3.83907 16.146 3.13113 16.2867C2.82638 16.3476 2.5779 15.8647 2.27316 16.1085C2.28254 15.9257 2.60134 15.7804 2.92953 15.9585C3.25771 16.1367 3.39836 15.8038 4.05473 16.2164C4.32197 16.3852 4.78612 16.1085 5.08148 16.2914C5.04397 16.1789 4.87519 16.1085 4.67828 16.1273C4.80018 15.8741 5.5972 15.9069 5.94414 16.1601V16.1554Z" fill="white" stroke="black" stroke-width="0.0187534"/>
<path d="M6.46893 15.7756C6.21119 15.5741 5.85037 15.8178 5.60669 15.7194C5.60669 15.8881 5.68635 16.1318 5.95815 16.2255C6.13773 16.0847 6.30979 15.9345 6.47361 15.7756H6.46893Z" fill="white" stroke="black" stroke-width="0.0187534"/>
<path d="M6.87671 15.2037C6.46902 14.9975 6.39873 15.5083 6.08008 15.4052C6.09414 15.5505 6.21129 15.7332 6.46902 15.7754L6.87671 15.2037Z" fill="white" stroke="black" stroke-width="0.0187534"/>
<path d="M7.11615 14.7395C6.51605 14.5051 6.44103 15.0818 6.08472 14.9693C6.16911 15.1662 6.67545 15.274 6.93331 15.2037L7.12084 14.7349L7.11615 14.7395ZM7.9413 12.2125C7.7819 11.9875 7.44903 12.1703 7.39277 12.4376C7.3412 12.7001 7.47247 13.0705 7.69282 12.9908L7.9413 12.2125Z" fill="white" stroke="black" stroke-width="0.0187534"/>
<path d="M8.34893 11.5046C8.06776 11.4437 7.7538 11.4718 7.7866 11.7389C7.68351 11.7858 7.6507 12.1372 7.94124 12.2122L8.34893 11.5093V11.5046Z" fill="white" stroke="black" stroke-width="0.0187534"/>
<path d="M8.53209 11.3217C8.26016 11.0076 7.95542 11.0123 7.78664 11.1483C7.47721 11.3968 7.17715 11.2514 7.16309 11.4999C7.35062 11.3593 7.5194 11.528 7.66943 11.4765C7.81946 11.4249 7.93666 11.7203 8.35862 11.5937L8.53209 11.3217ZM7.87572 16.0757C7.91791 16.1508 8.17108 16.1883 8.29767 16.057C8.45707 15.8835 8.27891 15.41 8.01637 15.3725C7.75382 15.335 7.73507 15.9116 7.87572 16.0757Z" fill="white" stroke="black" stroke-width="0.0187534"/>
<path d="M7.58032 16.0896C7.95521 16.2208 8.10985 15.9162 7.90835 15.7194C7.80711 15.8483 7.69754 15.9704 7.58032 16.0849V16.0896Z" fill="white" stroke="black" stroke-width="0.0187534"/>
<path d="M6.19265 16.5915C6.12233 16.8071 5.75664 16.8399 5.34875 17.501C4.93149 18.1574 4.53766 17.8807 4.43921 18.3355C4.93149 17.937 5.32062 18.1996 5.61599 17.8057C6.06607 17.2056 6.43176 17.29 6.60523 16.8868C6.85371 16.3102 7.93672 16.3242 7.99298 15.4147C7.63198 15.3444 6.47395 16.3242 6.19265 16.5915ZM15.4897 7.69765C15.9585 7.85236 15.9726 8.46185 16.5117 8.66345C17.0556 8.86036 17.1071 9.34326 17.5478 9.22605C17.1353 9.11353 17.1634 8.64001 16.7368 8.5228C16.2304 8.38215 16.0429 7.61326 15.6397 7.49605M17.6463 10.8951C17.7307 11.0826 17.7166 11.4155 17.4259 11.5046C17.5854 11.6077 17.8198 11.5093 17.9464 11.2936C17.7541 11.7249 17.8854 12.1141 18.1901 12.1844C18.0448 11.889 18.373 11.7484 18.2652 11.5515C18.4621 11.6359 18.6309 11.8984 18.6262 12.0672C18.8793 11.7859 18.4386 11.4061 18.5183 11.1389L17.6463 10.8951ZM14.5989 13.9191C14.3082 13.6659 14.1863 13.9847 14.0456 13.8722C13.9144 13.7738 13.7362 13.7597 13.6706 13.8628C13.9144 13.8675 13.7972 14.0597 14.2754 14.1066C13.7972 14.1394 13.8816 14.6739 13.5627 14.6505C13.905 14.974 14.0785 14.3598 14.3598 14.4629C14.2754 14.4864 14.4863 14.6786 14.341 14.9365C14.5754 14.9318 14.6739 14.6036 14.7067 14.4301L14.5989 13.9191ZM8.24615 16.6665C8.13832 16.5821 7.83358 16.5399 7.71637 16.6102C7.59916 16.6805 7.64135 16.6993 7.782 16.7087C7.92266 16.718 8.1055 16.9478 7.80076 16.9618C7.66011 16.9665 7.70699 17.3088 7.41162 17.3369C7.52883 17.4776 7.87577 17.3838 7.99767 17.2197C7.97423 17.3557 8.15238 17.4729 8.08206 17.6323C8.29772 17.6557 8.17583 17.1916 8.51808 17.215C8.37743 17.2338 8.43369 17.5526 8.68217 17.4682C8.53683 17.5385 8.61184 17.712 8.77594 17.6698C8.67279 17.7026 8.63528 17.8386 8.78062 17.9183C8.92127 17.7213 8.76656 17.0275 8.24615 16.6665ZM21.0688 10.1684C21.2852 10.1684 21.4926 10.0825 21.6456 9.92947C21.7986 9.77649 21.8846 9.56899 21.8846 9.35264C21.8846 9.13628 21.7986 8.92878 21.6456 8.7758C21.4926 8.62281 21.2852 8.53686 21.0688 8.53686C20.8524 8.53686 20.6449 8.62281 20.492 8.7758C20.339 8.92878 20.253 9.13628 20.253 9.35264C20.253 9.56899 20.339 9.77649 20.492 9.92947C20.6449 10.0825 20.8524 10.1684 21.0688 10.1684Z" fill="white"/>
<path d="M15.4897 7.69765C15.9585 7.85236 15.9726 8.46185 16.5117 8.66345C17.0556 8.86036 17.1071 9.34326 17.5478 9.22605C17.1353 9.11353 17.1634 8.64001 16.7368 8.5228C16.2304 8.38215 16.0429 7.61326 15.6397 7.49605M6.19265 16.5915C6.12233 16.8071 5.75664 16.8399 5.34875 17.501C4.93149 18.1574 4.53766 17.8807 4.43921 18.3355C4.93149 17.937 5.32062 18.1996 5.61599 17.8057C6.06607 17.2056 6.43176 17.29 6.60523 16.8868C6.85371 16.3102 7.93672 16.3242 7.99298 15.4147C7.63198 15.3444 6.47395 16.3242 6.19265 16.5915ZM17.6463 10.8951C17.7307 11.0826 17.7166 11.4155 17.4259 11.5046C17.5854 11.6077 17.8198 11.5093 17.9464 11.2936C17.7541 11.7249 17.8854 12.1141 18.1901 12.1844C18.0448 11.889 18.373 11.7484 18.2652 11.5515C18.4621 11.6359 18.6309 11.8984 18.6262 12.0672C18.8793 11.7859 18.4386 11.4061 18.5183 11.1389L17.6463 10.8951ZM14.5989 13.9191C14.3082 13.6659 14.1863 13.9847 14.0456 13.8722C13.9144 13.7738 13.7362 13.7597 13.6706 13.8628C13.9144 13.8675 13.7972 14.0597 14.2754 14.1066C13.7972 14.1394 13.8816 14.6739 13.5627 14.6505C13.905 14.974 14.0785 14.3598 14.3598 14.4629C14.2754 14.4864 14.4863 14.6786 14.341 14.9365C14.5754 14.9318 14.6739 14.6036 14.7067 14.4301L14.5989 13.9191ZM8.24615 16.6665C8.13832 16.5821 7.83358 16.5399 7.71637 16.6102C7.59916 16.6805 7.64135 16.6993 7.782 16.7087C7.92266 16.718 8.1055 16.9478 7.80076 16.9618C7.66011 16.9665 7.70699 17.3088 7.41162 17.3369C7.52883 17.4776 7.87577 17.3838 7.99767 17.2197C7.97423 17.3557 8.15238 17.4729 8.08206 17.6323C8.29772 17.6557 8.17583 17.1916 8.51808 17.215C8.37743 17.2338 8.43369 17.5526 8.68217 17.4682C8.53683 17.5385 8.61184 17.712 8.77594 17.6698C8.67279 17.7026 8.63528 17.8386 8.78062 17.9183C8.92127 17.7213 8.76656 17.0275 8.24615 16.6665ZM21.0688 10.1684C21.2852 10.1684 21.4926 10.0825 21.6456 9.92947C21.7986 9.77649 21.8846 9.56899 21.8846 9.35264C21.8846 9.13628 21.7986 8.92878 21.6456 8.7758C21.4926 8.62281 21.2852 8.53686 21.0688 8.53686C20.8524 8.53686 20.6449 8.62281 20.492 8.7758C20.339 8.92878 20.253 9.13628 20.253 9.35264C20.253 9.56899 20.339 9.77649 20.492 9.92947C20.6449 10.0825 20.8524 10.1684 21.0688 10.1684Z" stroke="black" stroke-width="0.0187534"/>
<path d="M16.8024 11.153C17.0508 10.9186 17.4259 10.8013 17.6838 10.9795C17.9416 11.1577 18.8043 11.364 19.2309 11.0733C19.6529 10.7779 19.8498 10.6232 20.0373 10.6607C20.178 10.867 20.353 10.9764 20.5624 10.9889C20.6281 11.0592 20.8578 11.1202 20.9844 11.1014C21.1719 11.1483 21.4063 11.0873 21.5892 10.8904C21.8705 10.9279 22.133 10.717 22.2362 10.3982C22.5362 10.3653 22.555 10.0278 22.3628 9.80742C22.1893 9.76991 22.3252 9.17449 21.6829 9.2917C21.9502 9.45579 21.7439 9.78866 21.9689 9.93869C21.8189 9.93869 21.622 10.0043 21.5751 10.2341C21.6314 10.0747 21.5657 9.97151 21.5235 9.934C21.5282 9.79804 21.2282 9.46517 20.9469 9.58707C21.1485 9.63395 21.0359 9.96213 21.1813 10.084C21.1263 10.0868 21.0725 10.1017 21.0239 10.1277C20.9753 10.1536 20.933 10.1899 20.9 10.2341C20.8203 10.0981 20.553 9.95745 20.3843 9.94807C20.3843 9.90119 20.3796 9.80742 20.3561 9.76053C20.2657 9.60133 20.2295 9.41703 20.253 9.23544C20.1123 9.38547 19.9904 9.60113 19.9248 9.75116C19.6998 9.60113 19.1465 9.82148 18.884 9.88243C18.6214 9.94338 17.7588 9.79804 17.5572 9.58707C17.2782 9.36491 16.9504 9.21225 16.6008 9.14167C16.0991 8.99633 16.0944 8.4478 15.5412 8.06804C15.5318 8.75254 16.5679 10.9186 16.8024 11.153ZM11.0357 16.357C11.2446 16.357 11.4449 16.2741 11.5926 16.1264C11.7404 15.9786 11.8233 15.7783 11.8233 15.5694C11.8233 15.3605 11.7404 15.1602 11.5926 15.0125C11.4449 14.8647 11.2446 14.7818 11.0357 14.7818C10.8268 14.7818 10.6265 14.8647 10.4787 15.0125C10.331 15.1602 10.248 15.3605 10.248 15.5694C10.248 15.7783 10.331 15.9786 10.4787 16.1264C10.6265 16.2741 10.8268 16.357 11.0357 16.357Z" fill="white" stroke="black" stroke-width="0.0187534"/>
<path d="M9.1462 15.7522C9.3056 15.9585 9.57753 15.9445 9.69005 15.9257C9.78382 16.1742 10.0839 16.1695 10.2151 16.3008C10.3417 16.4414 10.7871 16.4274 10.9184 16.3477C10.7965 16.3383 10.6418 16.268 10.4964 16.1461C10.3183 15.996 10.4027 15.7007 10.262 15.5928C10.3652 15.4756 10.3839 15.2787 10.3605 15.2037C10.473 15.1381 10.5574 15.0349 10.5668 14.9787C10.7295 14.9686 10.8836 14.9023 11.0028 14.7911C11.1012 14.8849 11.3544 14.763 11.4904 14.9224C11.5232 14.5333 11.1481 14.327 10.9043 14.4536C10.8012 14.4067 10.5386 14.4395 10.4918 14.5098C10.4074 14.4723 10.1776 14.5895 10.0698 14.6692C10.1917 14.6036 10.2105 14.4114 10.1636 14.3411C10.2573 14.2942 10.3745 14.1629 10.3839 14.0598C10.5246 14.0832 10.7356 13.9894 10.834 14.0129C10.6793 13.816 10.4261 13.7456 10.1683 13.7597C9.89634 13.7785 9.78382 13.966 9.74631 14.1676C9.59159 14.2614 9.53533 14.5802 9.59628 14.6927C9.50252 14.6927 9.41813 14.7771 9.38531 14.8286C9.2499 14.772 9.10537 14.7402 8.95867 14.7349M9.01493 14.4161C8.95867 14.2614 9.02899 14.1254 9.06181 14.0035C9.15558 13.6941 9.09932 13.6144 8.82739 13.6566C8.84308 13.919 8.90664 14.1764 9.01493 14.4161Z" fill="white"/>
<path d="M9.1462 15.7522C9.3056 15.9585 9.57753 15.9445 9.69005 15.9257C9.78382 16.1742 10.0839 16.1695 10.2151 16.3008C10.3417 16.4414 10.7871 16.4274 10.9184 16.3477C10.7965 16.3383 10.6418 16.268 10.4964 16.1461C10.3183 15.996 10.4027 15.7007 10.262 15.5928C10.3652 15.4756 10.3839 15.2787 10.3605 15.2037C10.473 15.1381 10.5574 15.0349 10.5668 14.9787C10.7295 14.9686 10.8836 14.9023 11.0028 14.7911C11.1012 14.8849 11.3544 14.763 11.4904 14.9224C11.5232 14.5333 11.1481 14.327 10.9043 14.4536C10.8012 14.4067 10.5386 14.4395 10.4918 14.5098C10.4074 14.4723 10.1776 14.5895 10.0698 14.6692C10.1917 14.6036 10.2105 14.4114 10.1636 14.3411C10.2573 14.2942 10.3745 14.1629 10.3839 14.0598C10.5246 14.0832 10.7356 13.9894 10.834 14.0129C10.6793 13.816 10.4261 13.7456 10.1683 13.7597C9.89634 13.7785 9.78382 13.966 9.74631 14.1676C9.59159 14.2614 9.53533 14.5802 9.59628 14.6927C9.50252 14.6927 9.41813 14.7771 9.38531 14.8286C9.2499 14.772 9.10537 14.7402 8.95867 14.7349M9.01493 14.4161C8.95867 14.2614 9.02899 14.1254 9.06181 14.0035C9.15558 13.6941 9.09932 13.6144 8.82739 13.6566C8.84308 13.919 8.90664 14.1764 9.01493 14.4161Z" stroke="black" stroke-width="0.0187534"/>
<path d="M8.80884 13.6704C8.87913 13.7454 9.13218 13.7782 9.15561 13.5532C9.18841 13.2955 9.08532 13.1971 8.86039 13.2955C8.84164 13.3564 8.8229 13.5954 8.81352 13.6704H8.80884Z" fill="white" stroke="black" stroke-width="0.0187534"/>
<path d="M8.86504 13.2859C8.95876 13.3234 9.16026 13.4031 9.27273 13.1829C9.36645 13.0001 9.24461 12.8595 9.04779 12.8736C9.00093 12.9251 8.90721 13.1126 8.86035 13.2859H8.86504Z" fill="white" stroke="black" stroke-width="0.0187534"/>
<path d="M9.03857 12.8547C9.062 12.9249 9.301 13.1592 9.47907 12.9906C9.65245 12.8219 9.65245 12.5688 9.39003 12.4751C9.31974 12.4845 9.10887 12.7328 9.03857 12.8547Z" fill="white" stroke="black" stroke-width="0.0187534"/>
<path d="M9.39018 12.4702C9.44173 12.6202 9.60574 12.8732 9.91503 12.7514C10.2196 12.6389 10.0884 12.2547 9.94783 12.1797C9.86816 12.1797 9.53077 12.3343 9.3855 12.4702H9.39018Z" fill="white" stroke="black" stroke-width="0.0187534"/>
<path d="M9.9481 12.1797C9.92467 12.3062 9.9481 12.6623 10.3699 12.653C10.7822 12.653 10.6651 12.1609 10.5573 12.0906C10.3886 12.0906 10.1027 12.0953 9.9481 12.1797Z" fill="white" stroke="black" stroke-width="0.0187534"/>
<path d="M10.581 12.1047C10.5341 12.2078 10.4263 12.8639 11.2417 12.6858C11.3495 12.6623 11.626 12.0532 10.5763 12.1094L10.581 12.1047Z" fill="white" stroke="black" stroke-width="0.0187534"/>
<path d="M11.0262 12.1656C10.9419 12.25 11.1574 12.9154 11.7104 12.8029C12.2634 12.6905 11.7994 12.0579 11.0262 12.1656Z" fill="white" stroke="black" stroke-width="0.0187534"/>
<path d="M11.4951 12.2641C11.4108 12.4516 11.542 12.9905 12.2215 12.9905C12.8447 12.9905 12.1933 12.2782 11.4998 12.2641H11.4951Z" fill="white" stroke="black" stroke-width="0.0187534"/>
<path d="M12.0344 12.4235C11.9876 12.5266 11.936 13.0983 12.7373 13.1498C13.3231 13.1826 13.1825 12.3579 12.0344 12.4235Z" fill="white" stroke="black" stroke-width="0.0187534"/>
<path d="M12.897 12.6673C12.7986 12.8454 12.6908 13.2859 13.5765 13.3234C14.1388 13.3421 13.7921 12.6767 12.897 12.6673Z" fill="white" stroke="black" stroke-width="0.0187534"/>
<path d="M13.633 12.8033C13.5065 12.9766 13.6002 13.3234 13.9283 13.389C14.3406 13.4734 14.3969 13.0844 14.1157 12.897C13.8345 12.7095 13.633 12.8033 13.633 12.8033Z" fill="white" stroke="black" stroke-width="0.0187534"/>
<path d="M14.0363 12.883C13.9425 13.0471 13.9987 13.4456 14.6223 13.4456C14.7536 13.4456 15.2458 12.9439 14.0363 12.883ZM9.20256 20.5625C9.44565 20.5625 9.67878 20.4659 9.85067 20.294C10.0226 20.1221 10.1191 19.889 10.1191 19.6459C10.1191 19.4028 10.0226 19.1697 9.85067 18.9978C9.67878 18.8259 9.44565 18.7293 9.20256 18.7293C8.96009 18.7293 8.72755 18.8257 8.5561 18.9971C8.38465 19.1686 8.28833 19.4011 8.28833 19.6436C8.28833 19.886 8.38465 20.1186 8.5561 20.29C8.72755 20.4615 8.96009 20.5578 9.20256 20.5578V20.5625Z" fill="white" stroke="black" stroke-width="0.0187534"/>
<path d="M15.9163 7.24289C15.846 7.31321 15.7006 7.52419 15.6725 7.60858C15.3631 8.5275 16.1835 9.21669 16.6571 10.2012C16.8544 10.6474 16.9343 11.1367 16.8892 11.6225C16.844 12.1083 16.6754 12.5745 16.3992 12.9767C16.1976 13.244 16.2585 13.319 16.0007 13.5909C15.9022 13.6941 15.7897 13.8253 15.8225 14.2004C15.9913 14.1441 16.2257 14.2942 16.2726 14.4254C16.3898 14.3692 16.5539 14.3926 16.6149 14.463C16.8055 14.3692 16.9852 14.4161 17.154 14.6036C17.3087 14.5802 17.4728 14.6036 17.6229 14.7677C17.7072 14.6036 17.8713 14.5427 17.9885 14.5802C17.9792 14.3692 18.1901 14.2145 18.3777 14.2989C18.3624 14.2382 18.3638 14.1745 18.3817 14.1145C18.3997 14.0546 18.4335 14.0006 18.4797 13.9583C18.5258 13.916 18.5825 13.887 18.6438 13.8743C18.7051 13.8617 18.7686 13.8658 18.8278 13.8863C19.0387 13.7222 19.4607 13.7081 19.6717 13.9566C19.2966 13.8488 19.3107 14.252 18.9919 14.2145C19.0762 14.4489 18.8606 14.5895 18.6496 14.6599C18.7856 14.5989 18.9309 14.5192 18.9778 14.6036C19.095 14.5005 19.3341 14.538 19.3904 14.5895C19.5498 14.5427 19.6998 14.5802 19.7654 14.7677C19.9811 14.899 20.1217 15.2272 19.967 15.4709C19.9201 15.2131 19.7467 15.2272 19.6763 15.1193C19.5076 15.1803 19.3482 15.1803 19.3013 15.0724C19.2075 15.1662 18.884 15.2506 18.7434 15.1099C18.6918 15.3209 18.5089 15.4991 18.298 15.4991C18.3542 15.6632 18.1901 15.9445 18.0636 16.0851C18.2605 16.193 18.2042 16.4274 18.1573 16.568C18.4621 16.6149 18.2042 16.8868 18.734 17.065C18.4714 17.1447 17.9651 17.065 17.8948 16.7462C17.6369 16.7321 17.4588 16.4743 17.4728 16.2023C17.2712 16.0148 17.2384 15.7476 17.5197 15.5553C17.2853 15.6257 17.154 15.2506 16.8165 15.4053C16.643 15.4803 16.1976 15.3491 16.2023 15.1943C16.132 15.3115 15.7006 15.2647 15.6397 15.0631C15.499 15.1381 15.1708 15.0115 15.1755 14.8146C14.9927 14.899 14.7489 14.7489 14.7583 14.5614C14.5895 14.538 14.5707 14.3879 14.5801 14.2567C14.4301 14.1863 14.4723 14.0363 14.5332 13.8628C14.4254 13.7456 14.4723 13.5815 14.552 13.4268C14.4348 13.3096 14.4582 13.169 14.4957 13.0049C13.9284 12.958 13.2205 12.8173 11.5983 12.3204C9.151 11.5702 8.48994 13.3331 9.0291 14.4395C9.65734 15.7147 8.95877 15.9914 9.16975 16.9478C9.39479 16.9947 9.512 17.1822 9.49793 17.3838C9.6339 17.3838 9.73235 17.5104 9.68547 17.7448C9.74768 17.7358 9.81111 17.7408 9.87114 17.7595C9.93116 17.7781 9.98626 17.81 10.0324 17.8526C10.1121 17.6979 10.384 17.6651 10.5247 17.8433C10.8341 17.8198 10.9841 18.0636 10.9748 18.373C11.0457 18.5121 11.0767 18.6681 11.0643 18.8237C11.0519 18.9793 10.9965 19.1284 10.9044 19.2544C10.9185 19.1326 10.9044 18.9544 10.8951 18.8466C10.8857 18.6543 10.6138 18.6121 10.6419 18.4527C10.5012 18.4668 10.3653 18.3871 10.3184 18.284C10.2767 18.3169 10.2276 18.3393 10.1753 18.3491C10.123 18.3589 10.0692 18.3559 10.0183 18.3402C10.1777 18.4105 10.2996 18.6965 10.2528 18.8841C10.3372 19.0247 10.3184 19.2826 10.2199 19.3998C10.1731 19.6248 9.9949 19.7092 9.76517 19.6061C9.82371 19.5692 9.8709 19.5168 9.90151 19.4547C9.93213 19.3927 9.94498 19.3234 9.93864 19.2544C9.86226 19.1759 9.81581 19.073 9.80737 18.9638C9.57764 19.0013 9.25883 18.8044 9.19788 18.7294C9.07782 18.73 8.95906 18.7542 8.84838 18.8007C8.73769 18.8472 8.63725 18.9151 8.55279 19.0004C8.46833 19.0858 8.40151 19.1869 8.35613 19.2981C8.31076 19.4092 8.28772 19.5282 8.28834 19.6483C8.2649 19.4607 8.02579 19.2732 8.05392 19.1138C7.91327 18.6778 8.11487 18.2699 8.69154 18.1902C8.62121 18.0261 8.86501 17.8526 8.77124 17.6651C8.58796 17.3314 8.36264 17.0226 8.10081 16.7462C8.3024 16.4039 8.24146 15.9492 8.12425 15.6632C7.95547 15.2553 7.79606 15.3584 7.19595 16.0148C6.2114 17.0931 4.90804 16.7931 3.7547 17.501C3.44996 17.6885 3.14522 17.7589 3.4734 17.4307C3.80159 17.1025 4.67362 16.7743 5.24091 16.4883C6.30048 15.9585 7.19595 15.0724 7.54758 13.3565C8.37742 9.31514 11.4342 10.6466 13.3611 11.4015C15.1755 12.1047 14.8473 10.506 13.9284 9.54018C12.8267 8.38216 13.047 7.46793 13.5627 6.73655C14.4957 6.60996 16.2773 6.93346 15.9163 7.24289Z" fill="white" stroke="black" stroke-width="0.0187534"/>
<path d="M19.1931 17.1672C19.3254 17.1672 19.4564 17.1411 19.5786 17.0905C19.7008 17.0398 19.8119 16.9656 19.9055 16.8721C19.999 16.7785 20.0732 16.6674 20.1239 16.5452C20.1745 16.423 20.2006 16.292 20.2006 16.1597C20.2006 16.0273 20.1745 15.8963 20.1239 15.7741C20.0732 15.6519 19.999 15.5408 19.9055 15.4472C19.8119 15.3537 19.7008 15.2795 19.5786 15.2288C19.4564 15.1782 19.3254 15.1521 19.1931 15.1521C18.9258 15.1521 18.6696 15.2583 18.4806 15.4472C18.2917 15.6362 18.1855 15.8924 18.1855 16.1597C18.1855 16.4269 18.2917 16.6831 18.4806 16.8721C18.6696 17.061 18.9258 17.1672 19.1931 17.1672Z" fill="white" stroke="black" stroke-width="0.0187534"/>
<path d="M15.353 7.28979C15.128 8.27904 15.3155 8.72912 15.6484 9.16514C16.3282 10.0653 16.8673 12.1188 16.0938 13.4597" stroke="black" stroke-width="0.0187534"/>
<path d="M16.5297 12.3016C16.6235 12.2641 16.8017 12.1563 16.8438 11.9594M16.6001 11.8703C16.6282 11.7015 16.8954 11.6265 16.9001 11.4483M16.6047 11.2045C16.5907 11.0311 16.872 10.8717 16.8298 10.6935M16.4547 10.5716C16.4313 10.4732 16.6891 10.2809 16.6188 10.1215M16.2578 9.95276C16.2062 9.84024 16.3844 9.71365 16.3047 9.59175M15.9765 9.45579C15.9577 9.38078 16.0703 9.212 16.0093 9.11354M15.6952 8.87912C15.7186 8.8463 15.8124 8.77598 15.7749 8.6869M15.4983 8.45248C15.5405 8.42904 15.653 8.39153 15.6389 8.30714" stroke="black" stroke-width="0.0187534" stroke-linecap="round"/>
<path d="M9.60509 19.5498C9.37067 19.4654 9.0753 19.5826 9.01904 19.7842M9.19251 19.9671C9.22533 19.7655 9.53007 19.6764 9.62384 19.7702C9.43162 19.667 9.33785 20.0421 9.50663 20.0515M11.0913 15.3115C10.9506 15.3819 10.9038 15.6397 11.0913 15.8319M11.3023 15.3678C11.2038 15.4522 11.2085 15.696 11.3538 15.7569C11.2319 15.6679 11.3538 15.5178 11.4476 15.5085C11.532 15.5085 11.5883 15.6116 11.4851 15.7147M19.5725 15.9492C19.2443 15.8648 18.9771 16.2445 19.2772 16.5868C19.2772 16.2586 19.5116 16.0382 19.7929 16.0992M19.6663 16.3242C19.6495 16.3236 19.6327 16.3264 19.6171 16.3325C19.6014 16.3386 19.5872 16.3479 19.5753 16.3598C19.5634 16.3717 19.5541 16.3859 19.548 16.4016C19.5419 16.4173 19.539 16.434 19.5397 16.4508C19.5397 16.5164 19.596 16.5774 19.685 16.5774C19.746 16.5774 19.7929 16.5118 19.7929 16.4555M20.8243 9.09478C20.8806 9.30107 21.1525 9.38077 21.3729 9.33389M21.3729 9.20262C21.2041 9.21199 21.0634 9.05259 21.0728 8.91663C21.0728 9.01508 21.3072 9.06196 21.3729 8.99633" stroke="black" stroke-width="0.0187534" stroke-linecap="round" stroke-linejoin="round"/>
<path d="M9.68951 15.9257C9.64262 15.8085 9.83016 15.6913 9.83485 15.5788C9.83953 15.4663 10.0505 15.3819 10.2568 15.5928M10.163 14.3364L10.0505 14.3926M10.5662 14.9787C10.5193 14.9787 10.4115 14.9787 10.3553 14.9365M10.3599 15.2037C10.3177 15.2225 10.2287 15.26 10.1724 15.2693M8.34395 18.7575C8.33457 18.8653 8.43772 19.02 8.49867 19.0669M8.79872 18.5043C8.74246 18.5981 8.70495 18.7481 8.74246 18.8512M9.68013 18.8606C9.5723 18.7903 9.64262 18.6075 9.63325 18.4856C9.61918 18.3683 9.75514 18.1808 10.0177 18.3449M8.6862 18.1902C8.79403 18.1714 8.90655 18.1761 8.97688 18.2043M10.0318 17.8526C9.9942 17.9068 9.97156 17.9698 9.96612 18.0355M10.5287 17.8386C10.4443 17.8386 10.374 17.8995 10.3365 17.9605M9.38476 14.8239C9.47853 14.8568 9.72233 15.0068 9.7317 15.1615M10.3834 14.0551C10.0927 14.0551 9.98487 13.755 10.2005 13.755M10.9038 14.4489C10.7913 14.4958 10.8428 14.6927 10.9976 14.7864M10.2146 16.3008C10.1583 16.2305 10.2287 16.0195 10.4115 16.0851M10.6459 18.448C10.6553 18.2699 10.8803 18.1667 10.9741 18.3637M9.80672 18.9591C9.79265 18.7622 9.89111 18.6965 9.98019 18.6872C10.0693 18.6778 10.1958 18.7481 10.2521 18.8747M8.04858 19.1091C8.06265 18.9919 8.16579 18.8653 8.26894 18.8841M18.8271 13.8863C18.7474 13.9425 18.7005 14.191 18.9912 14.2145M18.3817 14.2989C18.3817 14.327 18.4145 14.3692 18.438 14.3832M19.7648 14.7677C19.6898 14.7067 19.4929 14.9458 19.671 15.1193M17.8941 16.7462C17.8472 16.5774 18.0066 16.5352 18.152 16.568M17.5191 15.5553C17.6081 15.4991 17.6972 15.4334 17.805 15.4053M17.4722 16.2023C17.4722 16.0617 17.5425 15.9445 17.6081 15.9116M17.9879 14.5802C17.9854 14.7285 18.0244 14.8747 18.1004 15.0021M19.3897 14.5895C19.2991 14.6114 19.235 14.6552 19.1975 14.7208M19.2959 15.0724C19.3428 15.0349 19.3788 15.0005 19.4038 14.9693M21.5229 9.934C21.5229 10.0981 21.3166 10.1872 21.1807 10.084M21.9683 9.94337C22.0621 10.009 22.3762 9.94337 22.3012 9.76053M21.5839 10.8857C21.4986 10.8607 21.4221 10.8119 21.3635 10.7451M22.2355 10.3981C22.1572 10.4196 22.0737 10.4113 22.0011 10.3747M20.5618 10.9889C20.6227 10.9889 20.7634 10.9654 20.8572 10.9139M20.3883 9.94806C20.3579 9.94144 20.3265 9.94093 20.296 9.94657C20.2654 9.9522 20.2362 9.96387 20.2102 9.98088M21.5698 10.2341C21.5481 10.3261 21.4991 10.4095 21.4291 10.4732" stroke="black" stroke-width="0.0187534" stroke-linecap="round"/>
<path d="M20.1865 10.4965C20.3318 10.4309 20.5145 10.9323 20.866 10.7542M20.8988 10.2388C20.8519 10.2997 20.8191 10.3981 20.8145 10.4871" stroke="black" stroke-width="0.0187534" stroke-linecap="round" stroke-linejoin="round"/>
<path d="M13.8574 9.46989C13.9043 9.4652 13.9887 9.44645 14.0027 9.3855M7.80005 14.9553C7.97821 15.0537 8.1001 15.2272 8.02509 15.4804M15.8921 8.93542C15.9484 8.96824 16.1453 8.96824 16.2578 8.92604M16.3985 9.05263C16.3985 9.13233 16.4172 9.44645 16.2578 9.51209M16.3188 9.4652C16.4641 9.51209 16.7595 9.49802 16.8533 9.23079M16.647 9.45583C16.6714 9.49463 16.6875 9.53814 16.6941 9.58353C16.7008 9.62893 16.6978 9.67521 16.6854 9.71939C16.673 9.76357 16.6515 9.80466 16.6223 9.84002C16.5931 9.87537 16.5568 9.90421 16.5157 9.92466M16.7032 9.65274C16.8767 9.709 17.2705 9.71369 17.2283 9.38081M17.0971 9.65274C17.2143 9.81683 17.73 10.0091 17.6503 9.6668M16.6188 10.1263C16.8204 10.1731 17.1017 10.0372 16.9845 9.68556M17.5471 9.86371C17.58 9.99968 18.2363 10.1403 18.1472 9.83558M18.0253 10.0091C18.1472 10.2904 18.8036 10.2716 18.5973 9.89184M18.4895 10.1825C18.6208 10.3419 19.1927 10.2482 18.9677 9.86371M18.963 10.1778C19.3193 10.4451 19.7366 10.0606 19.2865 9.77464M19.4928 10.0888C19.8069 10.3419 20.1961 9.88247 19.9194 9.75119M16.9752 9.98561C17.0783 10.0137 17.2893 9.99968 17.3362 9.81683M17.2565 9.93873C17.2471 10.2107 17.6972 10.3138 17.8097 10.0044M17.6597 10.1685C17.744 10.3466 18.1379 10.4169 18.2035 10.1685M18.1379 10.281C18.2035 10.4591 18.5458 10.4404 18.6395 10.2575M18.5129 10.3747C18.6208 10.6092 19.0568 10.6092 19.1552 10.2716M19.0802 10.4169C19.249 10.5248 19.6147 10.4826 19.5866 10.1544M19.5162 10.3888C19.7694 10.5951 20.1257 10.3935 19.9523 10.0466M19.9335 10.656C20.0695 10.6373 20.1398 10.3654 19.9991 10.295M16.797 10.7076C17.0783 10.5529 17.1299 10.295 16.9376 10.0419M17.0361 10.4498C17.2143 10.5529 17.5518 10.4404 17.6081 10.1825M17.2799 10.4779C17.3737 10.6045 17.3971 10.7639 17.2658 10.9139M17.3596 10.642C17.6737 10.4451 18.0629 10.8061 17.7722 11.0264M17.7206 10.6232C17.7909 10.6045 17.9128 10.4779 17.9269 10.3279M17.8613 10.7592C17.9878 10.6232 18.8739 10.8998 18.316 11.1811M18.2691 10.3841C18.4426 10.4544 18.5317 10.6936 18.2691 10.7779M18.4942 10.9795C18.6817 10.7826 19.2724 10.9092 19.0615 11.153M18.9208 10.8998C19.024 10.5435 19.6569 10.7639 19.4506 10.9139M18.7942 10.5388C18.8083 10.6139 18.813 10.7873 18.7005 10.8811M19.3193 10.4732C19.3312 10.5123 19.3344 10.5535 19.3288 10.594C19.3231 10.6345 19.3087 10.6733 19.2865 10.7076M19.7225 10.4732C19.7553 10.5435 19.8163 10.6607 19.685 10.7639M14.6826 7.76802C14.6872 8.10558 14.8044 8.33062 15.2592 8.11496M14.8232 8.17122C14.5982 8.47127 14.8513 8.79477 15.292 8.47127M14.134 8.31656C14.4388 8.64474 14.9873 8.40564 14.6357 7.90398M15.006 8.59786C14.9451 8.92604 15.2123 8.98699 15.428 8.84165M13.8621 8.37282C13.9183 8.69631 14.2512 8.95417 14.5747 8.74789M14.27 8.8229C14.27 9.28705 14.9123 9.33862 15.0576 8.85572M14.8232 9.15108C15.0342 9.57304 15.4796 9.40426 15.6296 9.1464M14.3637 8.46658C14.4481 8.67756 14.6122 8.90729 14.9967 8.73382M13.187 8.36813C13.2385 8.5416 13.548 8.7432 13.8996 8.50878M13.4073 8.58848C13.2198 8.8651 13.5949 9.12295 14.0449 8.71038M13.6277 8.93073C13.7074 9.31518 13.8621 9.6293 14.4106 9.12764M14.134 9.32924C14.3356 9.57773 14.6404 9.72775 14.931 9.31049" stroke="black" stroke-width="0.0187534"/>
<path d="M15.1465 9.39955C15.1278 9.69492 15.1887 9.84026 15.4185 9.83088C15.5966 9.8215 15.7701 9.67616 15.8685 9.52145M15.3763 9.83088C15.3716 10.1638 15.6341 10.431 16.1264 10.0887M15.5825 10.2247C15.4888 10.4779 15.7701 10.8904 16.3233 10.6748M14.4105 9.54958C14.373 9.87776 14.6777 10.0934 15.1606 9.67616M14.6449 9.91058C14.6636 10.1778 14.9637 10.4966 15.4044 10.0372M14.8559 10.2481C14.823 10.6982 15.2403 10.8295 15.5919 10.4826M14.2323 9.91058C14.3261 9.91527 14.3964 9.83557 14.4433 9.77462M14.4292 10.2435C14.5089 10.2575 14.6496 10.1825 14.6965 10.0887M14.6355 10.7779C14.7293 10.8764 15.0481 10.8061 15.0856 10.6701M14.9918 10.7686C15.1653 11.1811 15.6341 11.1671 15.831 10.6982M15.7373 10.867C15.831 11.1061 16.0514 11.2608 16.4171 11.1764M15.9154 11.1108C15.7091 11.4484 15.9811 11.8422 16.4405 11.4531M16.0279 11.6125C16.0045 11.8234 16.2014 12.0672 16.464 12.0954M15.1606 10.9936C15.0903 11.4718 15.4325 11.6968 15.8638 11.4484M14.6636 11.2233C14.7762 11.3124 14.9731 11.3218 15.1606 11.2515M15.395 11.5328C15.2872 11.9313 15.6998 12.2173 16.0514 11.7719M14.823 11.289C14.823 11.4952 15.0293 11.7203 15.3763 11.6546M16.3467 12.0672C16.1123 12.2266 16.0654 12.5079 16.3936 12.6908M15.7701 11.9875C15.7795 12.2219 15.892 12.3626 16.1592 12.3813M15.4231 11.8609C15.0668 12.1844 15.4138 12.5642 15.8357 12.2407M15.6669 12.3438C15.5497 12.7142 15.9951 12.9393 16.2295 12.5595M14.9402 11.5515C14.809 11.9172 14.9731 12.161 15.2731 12.1375M14.4761 11.4812C14.4902 11.7015 14.6777 11.7765 14.8934 11.7297M14.6121 11.7109C14.448 12.0203 14.6918 12.1797 15.0106 12.0672M15.9764 12.747C15.9248 12.9439 15.9529 13.0846 16.2389 13.1502M15.9951 13.0236C15.6435 13.1831 15.6201 13.5206 15.8873 13.7363M15.7138 12.6533C15.6719 12.6893 15.6393 12.7349 15.6186 12.7861C15.5978 12.8374 15.5897 12.8928 15.5947 12.9479C15.5997 13.0029 15.6179 13.0559 15.6476 13.1026C15.6772 13.1492 15.7177 13.188 15.7654 13.2159M14.1714 11.5749C13.9698 11.7765 14.1573 12.3204 14.6027 12.0203M15.3153 12.2641C15.0434 12.4892 15.17 12.8971 15.6154 12.7799M14.8652 12.0954C14.7246 12.4939 14.8652 12.6345 15.1793 12.6439" stroke="black" stroke-width="0.0187534"/>
<path d="M13.8668 11.5609C13.8232 11.5912 13.7865 11.6304 13.7592 11.676C13.7318 11.7215 13.7145 11.7723 13.7083 11.8251C13.7021 11.8778 13.7072 11.9313 13.7232 11.9819C13.7392 12.0325 13.7657 12.0792 13.8011 12.1188C13.9043 12.236 14.1059 12.1844 14.1668 12.0297M13.3604 11.4015C13.0932 11.7484 13.3604 12.161 13.7449 12.0391M14.8091 12.4329C14.5325 12.5267 14.3215 12.7846 14.495 13.0002C14.5888 13.1315 15.0295 13.1502 15.1514 12.6486M14.3075 12.1094C14.1528 12.3392 14.2043 12.5548 14.495 12.6673M14.2934 12.5361C14.1246 12.6298 14.0121 12.7424 14.0496 12.9486M13.909 12.1798C13.8558 12.4517 13.9183 12.6283 14.0965 12.7095M13.9043 12.5079C13.6417 12.4892 13.5058 12.6017 13.5948 12.8596M13.6183 12.5736C13.3557 12.4798 13.3182 12.2548 13.4307 12.0204M13.3932 12.3673C13.1119 12.3767 12.9854 12.5173 12.9854 12.7142" stroke="black" stroke-width="0.0187534"/>
<path d="M13.0087 11.2655C12.8024 11.3546 12.7368 11.6312 12.8165 11.7812C12.8915 11.936 13.1353 11.95 13.2806 11.8469M12.4367 11.0499C12.2445 11.2608 12.4602 11.6734 12.7977 11.5703M11.9538 10.8811C11.7757 11.1296 11.9679 11.5421 12.4226 11.4249M12.4461 12.5736C12.3992 12.2782 12.7039 12.086 13.079 12.4657M12.8962 11.8703C12.8437 11.9197 12.8033 11.9804 12.7781 12.0479C12.7528 12.1154 12.7435 12.1878 12.7508 12.2595M11.4662 10.7451C11.274 11.0733 11.5084 11.378 11.9257 11.2608M12.5586 11.5656C12.2773 11.8422 12.3711 12.1188 12.5821 12.2782M12.3805 11.8891C11.9585 11.8938 11.9397 12.3767 12.282 12.5314M12.0616 11.4062C11.8929 11.5234 11.8366 11.8469 12.132 11.9782M12.0523 12.1282C11.8741 12.0485 11.6631 12.1469 11.6772 12.3532M11.785 12.1376C11.6256 11.7625 11.1615 11.8234 11.2037 12.2126M11.9163 11.6687C11.8132 11.6875 11.6162 11.7484 11.5412 11.9031M11.5694 11.2468C11.3818 11.4577 11.5225 11.7156 11.6772 11.7625M11.0068 10.6514C10.9739 10.9045 11.0724 11.0264 11.3912 11.0077M11.1193 10.9748C10.9974 11.2843 11.1615 11.4156 11.4803 11.3968M11.1896 11.3499C11.0021 11.575 11.1333 11.8188 11.3162 11.9172M11.1005 11.6359C10.7677 11.5937 10.7161 11.9828 10.8239 12.1657" stroke="black" stroke-width="0.0187534"/>
<path d="M10.8331 10.6185C10.6269 10.7076 10.5051 10.9653 10.6176 11.1246C10.73 11.284 10.9549 11.2324 11.0768 11.1481M10.6878 11.1949C10.5191 11.4527 10.6738 11.6495 10.8565 11.7244" stroke="black" stroke-width="0.0187534"/>
<path d="M10.0317 10.5904C9.89108 10.731 9.98016 11.017 10.3083 11.0264C10.5709 11.0264 10.7069 10.7779 10.6272 10.6045M10.2615 11.0264C10.1536 11.2608 10.2193 11.514 10.6178 11.4718M10.7912 11.8422C10.5428 11.7297 10.2146 11.8422 10.3552 12.1376M10.3177 11.4249C10.2193 11.5656 10.2568 11.7672 10.3646 11.8938M10.3037 11.8C10.1349 11.8281 9.97547 11.9172 10.0786 12.1751M10.0552 11.9641C9.8442 11.9031 9.57227 12.0578 9.73636 12.2735M9.69886 12.0672C9.5207 12.0391 9.30035 12.2313 9.4785 12.4235M9.40818 12.2641C9.24409 12.311 9.04718 12.4986 9.22065 12.6392M10.238 11.3405C10.0036 11.4484 9.97547 11.7156 10.088 11.9031M9.98954 10.8529C9.63791 10.9889 9.6426 11.4624 10.0317 11.6031M9.86764 11.4999C9.65197 11.6265 9.61447 11.8609 9.75512 12.0157M9.49726 10.6748C9.35661 10.7217 9.36598 11.1577 9.74105 11.1436M9.10812 10.8248C8.82682 11.0123 9.16438 11.4906 9.62384 11.1483M9.37067 11.2655C9.32848 11.4577 9.38474 11.6734 9.69886 11.6968M9.38943 11.5234C9.32804 11.5544 9.27896 11.6053 9.25017 11.6678C9.22139 11.7303 9.2146 11.8007 9.2309 11.8675C9.2472 11.9344 9.28564 11.9937 9.33996 12.0359C9.39428 12.0782 9.46128 12.1007 9.53008 12.1M8.6768 11.1061C8.39081 11.3733 8.91121 11.6031 9.10812 11.2186M8.27829 11.5468C8.13764 11.7203 8.62991 12.1657 8.84558 11.4202M8.90184 11.4062C8.91121 11.5874 9.02217 11.6859 9.23471 11.7015M9.23471 11.8703C8.88308 11.9266 8.77056 12.3626 9.1597 12.4564M8.58772 11.8141C8.57834 11.9781 8.74712 12.1141 8.94403 12.086M9.1175 12.4423C8.79869 12.5126 8.76119 12.9252 9.04249 12.9018M8.89715 13.2862C8.62991 13.2065 8.62522 12.8924 8.85964 12.7705" stroke="black" stroke-width="0.0187534"/>
<path d="M8.67668 13.0096C8.45163 13.1409 8.54071 13.469 8.65792 13.5159C8.77513 13.5628 8.8689 13.5019 8.88296 13.4034M8.86421 13.8535C8.88765 14.0082 8.32036 13.9473 8.61104 13.4737M8.61104 13.8816C8.41882 14.1817 8.72825 14.4255 8.92516 14.1723M8.63448 14.2426C8.55947 14.4864 8.85014 14.6599 9.03768 14.4723M8.00155 11.9875C7.89372 12.2032 8.42351 12.2829 8.46101 11.8375M7.85153 12.3063C7.74838 12.7283 8.5454 12.6439 8.33911 12.0954M8.35787 12.3767C8.41088 12.4014 8.46895 12.4134 8.52742 12.4117C8.5859 12.41 8.64316 12.3946 8.69464 12.3668C8.74612 12.339 8.79039 12.2996 8.8239 12.2516C8.85741 12.2037 8.87925 12.1486 8.88765 12.0907M8.64855 12.3907C8.67975 12.5108 8.7573 12.6137 8.86421 12.6767M8.2641 12.5032C8.23128 12.733 8.46101 12.9205 8.72356 12.9017M8.30161 12.7236C8.17502 12.9018 8.13752 13.2393 8.54071 13.2674M7.68743 12.7845C7.6218 12.9674 8.00624 13.1549 8.23128 12.8549M7.57022 13.2487C7.53741 13.3893 7.88434 13.5769 8.07657 12.9861M7.92185 13.2862C8.00624 13.4315 8.28285 13.5487 8.45163 13.2628M8.17502 13.4362C8.1047 13.6425 8.30161 13.8394 8.53603 13.7785M7.73901 13.3893C7.69212 13.6847 8.02968 13.8582 8.24066 13.7035M7.50928 13.5159C7.41082 13.8957 7.89372 14.0363 8.07188 13.755M7.95467 13.8676C7.96873 14.0785 8.30161 14.2614 8.55947 14.0832M7.36394 14.0457C7.3405 14.1395 7.73901 14.2332 7.79527 13.9051M7.59367 14.1254C7.68743 14.3692 8.00624 14.4255 8.18909 14.1301M8.08126 14.2473C8.12345 14.4723 8.40944 14.5989 8.6673 14.4442M8.77044 14.5333C8.70481 14.8334 9.01893 15.0725 9.21115 14.9084M8.27348 14.4817C8.17971 14.8099 8.5876 14.9974 8.81733 14.8146M7.77651 14.3129C7.75307 14.6224 7.99218 14.8052 8.26879 14.6693M7.25142 14.3411C7.17171 14.5427 7.60773 14.7068 7.81402 14.538M6.97949 14.8896C7.09201 15.0209 7.48115 14.8896 7.51865 14.6036M7.41082 14.8146C7.55147 14.9787 7.88903 15.0678 8.02031 14.7161M7.90779 14.899C7.89841 15.1522 8.35318 15.335 8.49852 14.8662M9.03299 14.9599C8.9908 15.0818 9.08925 15.2787 9.29085 15.3022M8.65792 14.8802C8.62979 15.0209 8.83608 15.2225 9.05174 15.1428M9.09863 15.199C9.03768 15.3538 9.08456 15.5741 9.29085 15.5741M9.11738 15.485C8.96267 15.6163 9.02361 15.846 9.24865 15.8554M9.03768 15.7054C8.81733 15.8507 8.89703 16.1742 9.18302 16.1555M8.37662 15.0771C8.37662 15.396 8.77044 15.4428 8.84546 15.1522M8.69543 15.3397C8.63448 15.5272 8.7892 15.7101 9.0283 15.6585M8.74231 17.6135C8.79389 17.6886 9.01424 17.5573 8.95329 17.426C8.89234 17.2947 8.66261 17.3698 8.69074 17.5057M8.90172 17.3744C8.92985 17.1166 8.62042 17.0744 8.5454 17.2994M8.65792 17.1682C8.73762 17.0416 8.47508 16.8634 8.37193 17.0509M8.4657 16.9759C8.53603 16.7884 8.24066 16.704 8.21722 16.8775M8.15158 16.629C8.18909 16.5352 8.51727 16.5915 8.37662 16.7884M8.62979 17.0228C8.76107 16.9056 8.54071 16.6618 8.40475 16.7509M9.50183 17.3838C9.39868 17.3932 9.29085 17.4588 9.36586 17.6792C9.42212 17.8292 9.64717 17.8386 9.67998 17.7448" stroke="black" stroke-width="0.0187534"/>
<path d="M9.34706 17.4916C9.25329 17.426 9.03294 17.5385 9.13139 17.7448M9.13139 17.7448C9.20641 17.9042 9.39863 17.8386 9.42676 17.7589M9.13139 17.7448C9.0892 17.8433 8.83603 17.8855 8.78914 17.7917M8.95792 17.501C9.01419 17.4682 9.10795 17.5104 9.13139 17.5573M8.94386 16.0523C8.77039 16.1648 8.87822 16.5024 9.14077 16.418M8.8876 16.3242C8.75164 16.4321 8.87822 16.765 9.13139 16.6384M8.9298 16.6384C8.83603 16.7321 8.9298 16.9947 9.17359 16.9478M8.89229 16.7696C8.8454 16.7462 8.70475 16.765 8.64381 16.8493M8.73757 15.5788C8.61099 15.7007 8.67194 15.9539 8.91573 15.9726M8.69538 15.832C8.50784 15.9257 8.50784 16.2961 8.88291 16.3102M8.68131 16.2492C8.57817 16.3336 8.62505 16.6524 8.89229 16.6102M8.7657 16.6009C8.7282 16.6384 8.71882 16.7321 8.75164 16.7743M8.64849 16.479C8.55473 16.479 8.42814 16.5493 8.39532 16.6477M8.22654 16.3055C8.26405 16.2117 8.55473 16.2164 8.57348 16.493M8.60161 16.1648C8.56905 16.1716 8.53886 16.1869 8.51415 16.2091C8.48943 16.2313 8.47108 16.2598 8.46096 16.2914M8.47502 15.3022C8.34844 15.4147 8.28749 15.7757 8.67194 15.846M8.22185 16.0476C8.22185 15.9539 8.4844 15.8695 8.57348 16.0148M8.05307 15.5225C8.09058 15.5929 8.27343 15.696 8.38126 15.6163M7.10603 14.9459C7.1043 14.9882 7.11185 15.0304 7.12813 15.0695C7.14442 15.1086 7.16906 15.1437 7.20032 15.1722C7.23158 15.2008 7.26871 15.2222 7.30912 15.235C7.34952 15.2477 7.39221 15.2514 7.43421 15.2459C7.63112 15.2225 7.66863 15.049 7.61237 14.9365M7.46234 15.2506C7.33576 15.41 7.49516 15.6351 7.6405 15.5694M7.61237 15.1381C7.68738 15.11 7.94055 15.0725 8.01557 15.1897M6.79659 15.1897C6.73565 15.2741 7.10134 15.3631 7.21855 15.1897M7.10134 15.2834C7.08727 15.396 7.14822 15.5976 7.44828 15.5178" stroke="black" stroke-width="0.0187534"/>
<path d="M7.49487 15.6958C7.54173 15.6021 7.3168 15.4334 7.1481 15.6162C6.9794 15.7989 7.17153 16.0051 7.27463 15.9348M6.7123 15.3022C6.61857 15.4568 6.96534 15.738 7.15747 15.4756" stroke="black" stroke-width="0.0187534"/>
<path d="M6.4873 15.5694C6.36078 15.6959 6.51542 15.9255 6.69817 15.8553C6.88562 15.785 6.86687 15.5928 6.8247 15.5413" stroke="black" stroke-width="0.0187534"/>
<path d="M6.24363 15.8038C6.14987 15.8976 6.24363 16.1085 6.38428 16.1085C6.52493 16.1085 6.60464 16.0007 6.57651 15.8647M6.81092 15.785C6.78748 15.9257 6.98908 16.0194 7.12036 15.8882M7.12504 15.6444C7.13755 15.6069 7.12817 15.5725 7.09691 15.5412M6.03266 15.9866C5.91545 16.0804 6.16393 16.3336 6.31865 16.0992M6.91876 15.9351C6.84374 16.0054 6.96095 16.1929 7.07816 16.1367M6.51556 16.0663C6.52962 16.1929 6.77811 16.2867 6.93751 16.0945M6.64683 16.1882C6.60932 16.2726 6.68903 16.3992 6.78279 16.3805M8.99101 16.9196C8.89724 17.0978 9.19261 17.3087 9.40358 17.0931M9.20198 17.1868C9.1551 17.2806 9.21136 17.4213 9.29575 17.4681M8.92537 17.3884C8.94881 17.3041 9.0754 17.2197 9.18792 17.2619M8.77534 17.1587C8.78941 17.079 8.89724 16.9993 8.97694 17.0181M15.7047 13.483C15.2875 13.4924 15.4656 14.1629 15.8219 14.0269M15.5688 13.98C15.4891 14.116 15.6485 14.3316 15.8219 14.2051M15.7751 14.2285C15.6532 14.4348 16.0939 14.7489 16.272 14.4254M16.1314 14.552C16.1314 14.7442 16.7033 14.8661 16.619 14.4817M16.5674 14.6926C16.6987 14.9224 17.205 14.9458 17.1534 14.5989M17.0409 14.838C17.1487 14.9927 17.641 15.0865 17.627 14.7677M15.0343 12.9017C15.1046 13.0845 15.3484 13.1502 15.611 13.0423M14.8796 13.033C15.0484 13.1361 14.8046 13.619 14.5514 13.4268M14.8796 13.333C15.0671 13.4174 15.2875 13.3565 15.3484 13.0986M15.2406 13.2955C15.2593 13.4315 15.4516 13.5393 15.7094 13.483M14.7858 13.4362C15.0202 13.6378 14.6827 14.0457 14.528 13.8581M14.8749 13.5909C14.9874 13.6706 15.2781 13.6237 15.3062 13.4033M15.1749 13.5909C15.1984 13.7315 15.3156 13.7831 15.4703 13.7925M14.8139 13.7831C14.9312 13.9472 15.2218 13.9988 15.3531 13.7784M15.5688 14.1535C15.3859 14.191 15.2125 14.0597 15.2218 13.9003C15.2453 14.1254 14.9687 14.2426 14.7952 14.1441M14.5842 14.2566C14.7342 14.3316 14.8983 14.0457 14.7717 13.8441M14.7577 14.5614C14.9452 14.5754 14.964 14.2941 14.7952 14.1394M15.1749 14.8145C15.3297 14.777 15.2828 14.4395 14.9124 14.416M15.6391 15.063C15.7891 15.0208 15.6719 14.6504 15.264 14.6739M16.2017 15.1896C16.3002 15.0396 15.9673 14.777 15.7 14.913M16.4783 15.4053C16.6612 15.4522 16.7831 14.9739 16.2064 15.049M16.8159 15.4053C16.9706 15.3584 17.0831 15.0771 16.619 15.1709M17.1675 15.4287C17.3081 15.499 17.3738 15.0865 16.9425 15.1943M15.1515 14.0972C15.2125 14.2004 15.189 14.4067 15.0765 14.4629M15.1703 14.3457C15.2875 14.3926 15.4469 14.3457 15.5406 14.1582M15.3765 14.3457C15.4094 14.4254 15.4234 14.5895 15.3484 14.6739M15.4047 14.4864C15.5359 14.5567 15.686 14.4629 15.7516 14.327M15.6719 14.4442C15.7657 14.5004 15.8454 14.777 15.6907 14.8896M15.7751 14.763C15.8876 14.7677 16.0564 14.7677 16.1595 14.6223M16.0845 14.702C16.1829 14.7302 16.3002 14.8989 16.258 15.0443M16.2673 14.9927C16.3799 14.9786 16.5721 14.8989 16.6236 14.7677M16.5721 14.8567C16.6202 14.8888 16.6589 14.933 16.6845 14.9849C16.71 15.0367 16.7213 15.0944 16.7174 15.1521M16.7174 15.0583C16.8299 15.049 16.9284 14.9927 16.9612 14.8708M16.9284 14.9505C17.0128 14.9786 17.1159 15.0724 17.1159 15.1849M17.1065 15.1146C17.1878 15.099 17.2534 15.0505 17.3035 14.9693M17.5238 14.9552C17.6316 15.063 17.491 15.4147 17.2706 15.349M15.264 7.81952C15.0484 7.95079 14.4295 7.91329 14.7342 7.39757M15.325 7.47258C14.8936 7.64605 14.3639 7.31318 14.9171 6.95686M14.7717 6.83965C14.4107 6.83965 14.1716 7.41632 14.6545 7.61323M13.3746 7.07876C13.2809 7.26629 13.6184 7.4632 13.8435 7.28036C14.0263 7.13971 14.0122 6.75526 13.9044 6.60992M13.1918 7.51009C13.0746 7.89922 13.9419 7.92266 13.8013 7.3038M13.1449 8.08676C13.173 8.38212 13.9747 8.28835 13.7169 7.69293M13.8106 7.52884C13.8763 7.61792 14.0497 7.76795 14.3498 7.73982M13.9513 7.11158C13.9794 7.21472 14.1576 7.29911 14.3873 7.21941M5.92014 16.071C5.71385 16.2164 6.02797 16.4461 6.14049 16.1929M5.76073 16.1835C5.55913 16.3242 5.86857 16.5586 5.98577 16.3054M5.59195 16.2914C5.39035 16.4367 5.69978 16.6664 5.81699 16.4133M5.41379 16.3945C5.22157 16.4977 5.44661 16.7508 5.64821 16.5258M5.22626 16.4883C5.02935 16.5914 5.25908 16.8446 5.45599 16.6242M6.20613 16.1882C6.20613 16.3383 6.49212 16.3992 6.59526 16.1742M6.39366 16.3242C6.30458 16.4367 6.46867 16.5774 6.55775 16.5258M6.0139 16.3054C6.00453 16.432 6.25301 16.5023 6.37491 16.3664M6.14987 16.4367C6.07016 16.5399 6.22488 16.6805 6.32802 16.6383M5.84981 16.418C5.85919 16.5211 5.99984 16.6336 6.15455 16.568M5.93889 16.5539C5.88263 16.6055 5.91076 16.7321 5.99515 16.7696M5.63415 16.5445C5.61071 16.6383 5.76542 16.7977 5.92483 16.6946M5.66697 16.6477C5.5732 16.7274 5.58258 16.8352 5.70447 16.854M5.44192 16.6383C5.42786 16.6993 5.50756 16.8024 5.61071 16.7883M4.93558 16.6336C4.84182 16.6805 5.08561 16.9384 5.23564 16.7039M4.70585 16.7415C4.58864 16.7977 4.87932 17.079 5.0106 16.7883M5.47006 16.7274C5.37629 16.7508 5.32003 16.8821 5.39504 16.9337M5.17 16.7743C5.16062 16.8305 5.26846 16.9149 5.35753 16.8821M5.09499 16.7977C5.00122 16.854 5.0481 17.0087 5.15594 16.9852M4.78087 16.9009C4.69648 16.9618 4.75274 17.0884 4.86526 17.0556M4.93089 16.8915C4.93089 16.9243 5.00591 16.9759 5.06686 16.9571M4.49019 16.8399C4.38705 16.8868 4.39173 17.1447 4.73867 17.004M4.25577 16.9431C4.11512 17.0134 4.162 17.2103 4.47612 17.0228M4.49957 17.0368C4.46206 17.065 4.41986 17.1962 4.5652 17.1447M4.23702 17.0978C4.17607 17.1493 4.21358 17.2619 4.34485 17.2197M3.93228 17.1165C3.82444 17.1775 4.05886 17.2572 4.21358 17.0978M4.0026 17.1915C3.95572 17.2384 3.95572 17.3791 4.07761 17.3322M3.70255 17.2478C3.63222 17.3041 3.74943 17.3744 3.97447 17.2759M3.78694 17.3228C3.70723 17.3931 3.71661 17.4775 3.83382 17.4541M3.54783 17.3603C3.45406 17.4447 3.58534 17.501 3.74474 17.4353M3.54783 17.4541C3.39311 17.5244 3.45875 17.6557 3.55721 17.6041M8.76128 17.9042C8.72377 17.9839 8.84098 18.0448 8.9535 18.0308C9.06133 18.012 9.16448 17.9229 9.08478 17.7963M9.08478 17.9511C9.19261 18.0354 9.38483 17.9417 9.38483 17.8151" stroke="black" stroke-width="0.0187534"/>
<path d="M15.5826 5.47979C15.114 5.24549 14.1346 4.80499 13.8582 5.16114C14.1112 5.05336 14.8516 5.16582 15.4655 5.73284L15.5826 5.47979Z" fill="white" stroke="black" stroke-width="0.0187534"/>
<path d="M15.8647 5.45188C15.3255 4.81895 15.002 4.9596 14.6129 4.74394C14.2425 4.53765 13.6565 4.49545 13.5439 4.82364C14.0831 4.56109 14.5754 4.96429 14.8754 5.01117C15.2974 5.07681 15.5318 5.40031 15.6537 5.55033L15.8694 5.45657L15.8647 5.45188ZM17.9182 5.37218C17.6369 4.72518 17.0321 4.89396 16.7648 4.62204C16.3757 4.21884 15.3958 3.84846 14.988 4.12507C15.8787 4.07819 16.2632 4.73925 16.7414 4.96898C17.0837 5.13776 17.4447 5.48939 17.9182 5.37218Z" fill="white" stroke="black" stroke-width="0.0187534"/>
<path d="M16.8587 5.30186C16.3758 4.70175 15.6398 4.17196 15.2928 4.37356C15.7429 4.39701 15.8836 4.70644 16.2024 4.90804C16.5212 5.10964 16.3758 5.39562 16.8587 5.30186ZM14.5614 6.36143C14.0598 6.17389 13.0705 6.08012 12.6111 6.65679C13.3753 6.78338 14.5333 6.71305 14.5661 6.36143H14.5614Z" fill="white" stroke="black" stroke-width="0.0187534"/>
<path d="M14.4722 6.58646C13.9658 6.35205 13.5673 6.68023 13.0938 6.63335C12.1843 6.54427 11.5373 6.59584 11.4529 7.03186C11.9733 6.56771 12.8453 6.95216 13.1969 6.8537C13.5486 6.75524 14.8566 6.84432 15.2692 7.02248C15.0582 6.75993 14.73 6.6943 14.4722 6.58646ZM16.0615 5.23622C15.9396 4.84708 15.949 4.4392 16.5304 4.46733C16.385 4.27979 15.8412 4.18603 15.7521 4.87053C15.1098 4.40169 14.4112 4.3173 14.28 4.72519C14.6081 4.44389 15.1239 4.65017 15.7333 5.34405C15.8362 5.2907 15.9471 5.25429 16.0615 5.23622Z" fill="white" stroke="black" stroke-width="0.0187534"/>
<path d="M15.1757 5.77538C14.81 5.54096 14.3177 5.15652 15.1803 5.0018C14.8146 4.8002 14.2708 4.88928 14.3317 5.57378C13.3378 5.17058 12.6299 5.30655 12.4798 5.70037C12.3158 6.13638 12.9299 6.38018 13.0331 6.10357C12.9206 6.15045 12.5408 6.01917 12.7377 5.77538C12.9346 5.53159 13.9661 5.70974 14.9412 6.22077C15.2132 6.36142 16.1415 6.33798 15.1757 5.77538Z" fill="white" stroke="black" stroke-width="0.0187534"/>
<path d="M14.9177 6.42238C14.6364 5.84571 13.7222 6.36612 13.5394 5.81289C13.2862 6.62867 14.838 6.17389 14.9177 6.42238ZM20.7313 7.04593C20.9188 7.1397 21.0876 6.98967 20.7922 6.87246C20.9798 6.96623 21.1532 6.82558 20.8579 6.70368C21.0501 6.79745 21.2189 6.6568 20.9235 6.5349C20.8438 6.6146 20.736 6.90528 20.7266 7.04593H20.7313ZM20.8251 5.93948C21.2517 5.4894 20.7922 5.33937 21.3127 4.87991C21.7346 4.50484 21.3924 4.25167 21.7956 3.96099C21.9221 3.86723 22.2034 3.67969 22.2316 3.49216C22.4003 3.91411 21.7018 3.97037 21.7487 4.65487C21.7768 5.09089 21.4814 5.05338 21.3736 5.78007C21.3455 5.93948 21.2423 6.28173 20.8298 5.93948H20.8251Z" fill="white" stroke="black" stroke-width="0.0187534"/>
<path d="M21.0173 6.13591C21.2516 5.62981 21.5234 5.63919 21.65 5.44237C21.8983 5.06748 22.4232 5.50798 22.8683 5.17058C22.7887 5.64856 22.1935 5.47986 21.9311 5.78445C21.6781 6.08905 21.4625 6.22963 21.0173 6.13591Z" fill="white" stroke="black" stroke-width="0.0187534"/>
<path d="M21.0736 6.30516C21.4861 5.97698 21.7909 6.19264 22.0769 6.02386C22.7942 5.58316 23.0849 6.10825 23.7225 5.90196C23.5537 6.31454 22.6067 5.96291 22.1941 6.26766C21.7815 6.5724 20.3328 6.86777 21.0736 6.30516ZM19.8733 8.64934C19.8626 8.53652 19.815 8.43038 19.7379 8.34733C19.6608 8.26428 19.5584 8.20895 19.4467 8.18988C19.1982 8.16175 19.0904 7.90389 18.9029 7.88983C18.7153 7.88045 18.5887 7.50538 18.3309 7.51007C18.073 7.51476 17.9652 7.85232 18.5747 8.15706C19.1842 8.46181 19.8499 8.81343 19.8733 8.64934ZM19.1091 8.80874C18.8513 8.82281 18.8138 9.19788 18.5653 9.21194C18.9075 9.39479 19.156 9.12755 19.3342 8.89313L19.1091 8.80874Z" fill="white" stroke="black" stroke-width="0.0187534"/>
<path d="M19.32 8.85562C19.0998 9.04306 19.0342 9.44138 19.3575 9.55385C19.1607 9.28674 19.6996 9.1649 19.5309 8.91654L19.32 8.85562Z" fill="white" stroke="black" stroke-width="0.0187534"/>
<path d="M19.5451 8.86967C19.367 9.21176 19.8215 9.25393 19.7044 9.51167C19.9621 9.45075 20.0043 8.96339 19.77 8.83218L19.5451 8.86967Z" fill="white" stroke="black" stroke-width="0.0187534"/>
<path d="M17.8152 8.1383C18.2371 8.11486 18.6263 8.34459 18.8841 8.71497C19.0482 8.94939 19.6014 9.04315 19.7937 8.85562C19.9859 8.66808 19.8734 8.26957 19.4045 8.39616C19.2873 8.19925 18.9451 8.26957 18.781 8.10548C18.6169 7.9367 17.9793 7.46787 17.8152 8.1383Z" fill="white" stroke="black" stroke-width="0.0187534"/>
<path d="M19.4041 8.40073C19.2916 8.41948 19.2541 8.61629 19.3244 8.7147L19.4041 8.40073ZM19.6431 8.51789C19.6805 8.57412 19.6571 8.65847 19.6384 8.70064L19.6431 8.51789ZM18.4856 8.15706C18.7012 8.16643 18.7433 8.32576 18.9776 8.38668L18.4856 8.15706Z" fill="white"/>
<path d="M19.4041 8.40073C19.2916 8.41948 19.2541 8.61629 19.3244 8.7147M19.6431 8.51789C19.6805 8.57412 19.6571 8.65847 19.6384 8.70064M18.4856 8.15706C18.7012 8.16643 18.7433 8.32576 18.9776 8.38668" stroke="black" stroke-width="0.0187534" stroke-linecap="round"/>
<path d="M18.3402 7.62257C19.0904 7.81011 19.6905 7.9742 20.0609 8.18517C20.5093 8.4065 21.0239 8.45329 21.5049 8.31645C22.0065 8.1758 22.9723 8.04452 22.9254 8.66807C23.188 8.35864 22.8551 8.02108 22.1847 7.96482C22.1987 7.65539 21.8706 7.37878 21.6361 7.56162C21.8518 7.53349 22.0393 7.93669 21.6127 8.10547C21.635 8.03311 21.6354 7.95577 21.6139 7.88317C21.5925 7.81056 21.55 7.74591 21.4919 7.69734C21.4338 7.64877 21.3627 7.61843 21.2874 7.61013C21.2122 7.60183 21.1361 7.61595 21.0689 7.6507C21.2705 7.71165 21.4767 8.04921 21.022 8.18049C20.736 8.26488 20.3187 8.15704 20.0093 7.96951C19.6999 7.78198 17.9558 7.09748 18.3355 7.61788L18.3402 7.62257Z" fill="white" stroke="black" stroke-width="0.0187534"/>
<path d="M20.2383 7.31315C20.004 7.42093 20.154 7.66929 19.7932 7.80988C19.4323 7.95046 19.1746 8.27848 19.2543 8.55028C19.5026 8.01138 19.9384 8.03481 20.0931 7.81925C20.2477 7.60369 20.468 7.29909 20.2383 7.31315Z" fill="white" stroke="black" stroke-width="0.0187534"/>
<path d="M20.3045 7.35066C20.2905 7.78198 19.9529 7.62258 20.0842 8.22738C20.1704 8.48659 20.1671 8.76728 20.0748 9.0244C20.4499 8.75247 20.2107 8.17112 20.3795 7.95076C20.4784 7.82611 20.5575 7.68695 20.6139 7.53819C20.5202 7.78667 20.5296 8.24144 20.7687 8.36334C20.5764 7.90388 21.2938 7.52881 20.7968 6.99903C20.7265 7.12561 20.5061 7.35534 20.3045 7.35066ZM19.1043 6.91933C19.1606 7.01309 19.2215 7.23345 19.1699 7.35534C19.3118 7.2602 19.4278 7.13132 19.5075 6.98027C19.7513 7.01309 19.8451 7.31315 19.6153 7.44911C19.756 7.44911 19.9998 7.44911 20.131 7.28502C19.967 7.10217 19.4559 6.82087 19.0996 6.91933H19.1043Z" fill="white" stroke="black" stroke-width="0.0187534"/>
<path d="M15.4427 6.07544C15.3786 6.02563 15.3027 5.99332 15.2224 5.98167C14.8661 5.91134 15.0536 5.59254 15.3537 5.59254C16.0007 4.88928 16.3663 5.43313 17.154 5.20809C17.4353 5.12839 17.6228 5.15183 17.7728 5.21747C18.1245 4.98305 18.537 5.04869 18.8371 5.3253C18.8684 5.27216 18.9152 5.23466 18.9778 5.21278C19.2591 5.13777 19.4794 5.37218 19.5544 5.68161C19.7701 5.63473 20.0186 5.74725 20.1827 5.89259C20.4077 5.77382 20.5515 5.77382 20.614 5.89259C20.8156 5.79882 21.0734 5.73787 21.2047 6.05668C21.336 6.37549 20.9 6.27703 20.8297 6.94747C20.7828 7.36473 20.3233 7.52883 19.9576 7.27565C19.3716 6.88652 18.8043 6.82088 18.5183 7.42099C18.2323 8.0211 18.0166 8.37273 17.3321 8.17113C17.0837 8.10549 16.7695 8.19926 16.5679 8.47118C16.3663 8.73842 16.0616 8.48525 15.6959 8.51807C16.1554 8.44774 15.9772 8.33053 16.3757 8.3024C16.7414 8.27896 16.6476 7.9414 16.8821 7.88983C15.9678 8.12425 16.0006 7.78668 15.2458 8.0211C15.574 7.59915 16.0944 7.83357 16.3523 7.58509C15.6725 7.57571 15.3677 7.13032 15.0583 7.31316C14.5754 7.60853 14.7864 8.44774 13.5299 8.37273C12.9204 8.33991 12.5266 8.41961 12.1609 8.7853C12.7985 7.47256 13.6612 8.19457 14.0831 7.77262C14.3015 7.57693 14.4909 7.35119 14.6457 7.10219C14.6645 7.06576 14.691 7.03388 14.7234 7.00878C14.7558 6.98367 14.7933 6.96595 14.8333 6.95685C13.7831 6.62866 14.416 6.11294 15.4427 6.07544Z" fill="white" stroke="black" stroke-width="0.0187534"/>
<path d="M20.6137 5.89259C20.6324 5.92383 20.6403 5.96601 20.6371 6.01912C20.6371 6.28154 20.2529 6.29091 20.2294 6.67517C20.2154 6.87198 20.192 6.98445 20.0561 6.96102C19.9202 6.93759 19.803 6.72672 19.9342 6.47835" fill="white"/>
<path d="M20.6137 5.89259C20.6324 5.92383 20.6403 5.96601 20.6371 6.01912C20.6371 6.28154 20.2529 6.29091 20.2294 6.67517C20.2154 6.87198 20.192 6.98445 20.0561 6.96102C19.9202 6.93759 19.803 6.72672 19.9342 6.47835" stroke="black" stroke-width="0.0187534" stroke-linecap="round"/>
<path d="M15.6351 5.69098C15.5525 5.63286 15.4547 5.60025 15.3538 5.59721L15.6351 5.69098ZM17.7683 5.21745C18.0824 5.35342 18.2324 5.67691 18.6872 5.68629C19.1232 5.70504 19.3904 6.33797 20.1218 5.92539L20.1781 5.89726M18.8372 5.32529C18.774 5.43946 18.7525 5.57205 18.7763 5.70035L18.8372 5.32529ZM17.4166 6.65678C16.8587 6.65678 16.7181 6.93808 16.7181 7.21C16.7181 7.48193 16.9806 7.83355 17.4354 7.83355C17.8902 7.83355 18.1433 7.55225 18.1433 7.24282C18.1433 6.93339 17.862 6.65678 17.4119 6.65678H17.4166Z" fill="white"/>
<path d="M15.6351 5.69098C15.5525 5.63286 15.4547 5.60025 15.3538 5.59721M17.7683 5.21745C18.0824 5.35342 18.2324 5.67691 18.6872 5.68629C19.1232 5.70504 19.3904 6.33797 20.1218 5.92539L20.1781 5.89726M18.8372 5.32529C18.774 5.43946 18.7525 5.57205 18.7763 5.70035M17.4166 6.65678C16.8587 6.65678 16.7181 6.93808 16.7181 7.21C16.7181 7.48193 16.9806 7.83355 17.4354 7.83355C17.8902 7.83355 18.1433 7.55225 18.1433 7.24282C18.1433 6.93339 17.862 6.65678 17.4119 6.65678H17.4166Z" stroke="black" stroke-width="0.0187534"/>
<path d="M17.5148 7.81916C17.5007 7.66921 17.2243 7.69264 17.2336 7.57549C17.243 7.45834 17.3883 7.40679 17.3883 7.24746C17.3883 7.08814 17.6366 7.06939 17.7163 7.2006C17.796 7.33181 18.049 7.57549 18.1006 7.44896M17.721 7.19592C17.6482 7.27791 17.6064 7.38283 17.603 7.49243C17.5996 7.60203 17.6347 7.70936 17.7022 7.79573M17.8944 7.39742C17.8569 7.48645 17.8475 7.62235 17.8944 7.70201V7.39742Z" fill="white"/>
<path d="M17.5148 7.81916C17.5007 7.66921 17.2243 7.69264 17.2336 7.57549C17.243 7.45834 17.3883 7.40679 17.3883 7.24746C17.3883 7.08814 17.6366 7.06939 17.7163 7.2006C17.796 7.33181 18.049 7.57549 18.1006 7.44896M17.721 7.19592C17.6482 7.27791 17.6064 7.38283 17.603 7.49243C17.5996 7.60203 17.6347 7.70936 17.7022 7.79573M17.8944 7.39742C17.8569 7.48645 17.8475 7.62235 17.8944 7.70201" stroke="black" stroke-width="0.0187534"/>
<path d="M20.0932 6.96552C20.529 6.99833 20.5993 6.52503 20.2806 6.49692M19.5637 5.67685C19.4137 5.48941 19.0669 5.4238 19.0623 5.82681" stroke="black" stroke-width="0.0187534"/>
<path d="M19.02 6.29109C18.8747 5.9254 18.4949 5.86914 18.298 6.05667C18.1292 6.2067 18.1246 6.60052 18.4856 6.68491C18.6075 6.53957 18.8513 6.34266 19.02 6.29109ZM18.8606 6.06136C18.645 5.87383 18.3355 6.23014 18.6168 6.55833L18.8606 6.06136ZM14.8333 6.94746C14.974 6.91464 15.1803 6.98497 15.4991 7.13499C15.7007 7.22876 16.2961 7.43036 16.6759 7.22876C16.2867 7.36941 15.996 6.77868 15.7007 6.85369C15.4053 6.92871 14.8662 7.03185 14.6411 6.81618C15.1943 6.85369 15.4897 6.41299 16.1226 6.79274C16.3022 6.90521 16.5109 6.96228 16.7227 6.95684C16.207 6.33328 15.5225 6.73179 15.4522 6.22545C15.7663 6.56301 16.5305 6.15044 16.915 6.77868M15.5647 6.31922C15.4897 6.23014 15.5225 6.14106 15.4475 6.07074L15.5647 6.31922Z" fill="white"/>
<path d="M18.8606 6.06136C18.645 5.87383 18.3355 6.23014 18.6168 6.55833M14.8333 6.94746C14.974 6.91464 15.1803 6.98497 15.4991 7.13499C15.7007 7.22876 16.2961 7.43036 16.6759 7.22876C16.2867 7.36941 15.996 6.77868 15.7007 6.85369C15.4053 6.92871 14.8662 7.03185 14.6411 6.81618C15.1943 6.85369 15.4897 6.41299 16.1226 6.79274C16.3022 6.90521 16.5109 6.96228 16.7227 6.95684C16.207 6.33328 15.5225 6.73179 15.4522 6.22545C15.7663 6.56301 16.5305 6.15044 16.915 6.77868M15.5647 6.31922C15.4897 6.23014 15.5225 6.14106 15.4475 6.07074M19.02 6.29109C18.8747 5.9254 18.4949 5.86914 18.298 6.05667C18.1292 6.2067 18.1246 6.60052 18.4856 6.68491C18.6075 6.53957 18.8513 6.34266 19.02 6.29109Z" stroke="black" stroke-width="0.0187534"/>
<path d="M19.5632 5.68162C19.432 5.54103 19.1509 5.64881 19.2305 5.92998C19.2588 5.86314 19.3039 5.80473 19.3613 5.7604C19.4188 5.71607 19.4867 5.68732 19.5586 5.67693L19.5632 5.68162ZM18.7619 6.43139C18.8403 6.37191 18.9272 6.32452 19.0197 6.29081C18.9842 6.19712 18.9243 6.11461 18.8463 6.05182C18.7807 6.00496 18.5839 6.26738 18.7619 6.43139Z" fill="black"/>
<path d="M18.4149 5.95355C18.2039 5.8129 18.007 5.82697 17.946 5.94417C17.7913 5.93949 17.6647 6.05201 17.6554 6.27236M17.9836 6.36613C17.7304 6.19266 17.3834 6.25829 17.4069 6.64743M17.2569 6.86778C17.3788 6.76932 17.5569 6.699 17.6882 6.87247M19.1416 6.48334C19.0947 6.54897 19.0619 6.65212 19.1416 6.80214C19.0478 6.68025 18.8087 6.68025 18.5555 7.00843M19.7042 6.46927C19.3994 6.50209 19.4041 6.70369 19.6526 6.79277M17.5241 5.71913C17.2662 5.66756 17.0787 5.82228 17.435 5.95355M18.0211 5.54098C17.6554 5.44721 17.5053 5.54098 17.6741 5.62537M16.9662 7.00374C16.9521 7.13502 17.0271 7.3038 17.2381 7.11157M17.0365 7.39288C17.0365 7.43038 17.0271 7.46633 17.0084 7.50071M16.1879 5.67225C15.9676 5.60193 15.9254 5.39564 16.1832 5.41439M16.1129 6.14577C15.8644 6.06138 15.8644 5.81759 16.0707 5.84572M16.5724 6.01919C16.2817 5.94886 16.2723 5.75195 16.488 5.78008M16.6052 5.40501C16.4552 5.39564 16.216 5.56911 16.6146 5.66756M17.0365 5.75195C16.6755 5.69569 16.6849 5.84572 16.8959 5.93949M17.3084 5.4097C17.0271 5.35813 16.9334 5.52222 17.1209 5.59255M16.4411 6.43176C16.3755 6.3755 16.3192 6.10827 16.6427 6.18797M17.1115 6.34737C16.8959 6.29111 16.6896 6.50209 16.8865 6.62867M17.4022 6.0942C17.1678 6.0567 16.9802 6.11764 17.1021 6.20203" stroke="black" stroke-width="0.0187534" stroke-linecap="round"/>
<path d="M19.5494 5.68166C19.4797 5.69308 19.414 5.72181 19.3584 5.7652C19.3027 5.80859 19.2588 5.86526 19.2307 5.93002" fill="white"/>
<path d="M19.5494 5.68166C19.4797 5.69308 19.414 5.72181 19.3584 5.7652C19.3027 5.80859 19.2588 5.86526 19.2307 5.93002" stroke="black" stroke-width="0.0187534"/>
</g>
<defs>
<clipPath id="clip0_720_53477">
<rect width="24.0044" height="24.0044" fill="white" transform="translate(0.0175781 0.00872803)"/>
</clipPath>
</defs>
</svg>
