<svg width="25" height="25" viewBox="0 0 25 25" fill="none" xmlns="http://www.w3.org/2000/svg">
<g clip-path="url(#clip0_720_53465)">
<mask id="mask0_720_53465" style="mask-type:luminance" maskUnits="userSpaceOnUse" x="0" y="0" width="25" height="25">
<path d="M0.0319824 0.00886536H24.0364V24.0132H0.0319824V0.00886536Z" fill="white"/>
</mask>
<g mask="url(#mask0_720_53465)">
<path fill-rule="evenodd" clip-rule="evenodd" d="M0.0314941 0.00883484H24.0359V24.0132H0.0314941V0.00883484Z" fill="#000099"/>
<path fill-rule="evenodd" clip-rule="evenodd" d="M3.6416 0.00883484L24.1297 20.4969V0.00883484H3.6416Z" fill="#FFCC00"/>
<path fill-rule="evenodd" clip-rule="evenodd" d="M21.6635 22.0628L20.4398 21.1674L19.1787 22.0582L19.6569 20.5954L18.4192 19.6952H19.9523L20.4305 18.2418L20.8993 19.6999L22.4371 19.7046L21.2087 20.6141L21.6635 22.0628ZM25.2595 22.5504H23.7264L23.2575 21.0877L22.7793 22.5457H21.2415L22.4793 23.4459L22.0058 24.9087L23.2622 24.0179L24.4906 24.9087L24.0311 23.46L25.2595 22.5504ZM18.4004 17.8058L19.6288 16.8963H18.0957L17.6221 15.4335L17.1439 16.8869H15.6108L16.8486 17.7918L16.375 19.2498L17.6315 18.359L18.8552 19.2545L18.4004 17.8058ZM15.5733 14.9741L16.8017 14.0645L15.2639 14.0598L14.7951 12.5971L14.3169 14.0598L12.7838 14.0551L14.0215 14.9553L13.5433 16.4181L14.8044 15.5273L16.0281 16.4228L15.5733 14.9741ZM12.7744 12.1751L14.0027 11.2656H12.4696L11.9961 9.80281L11.5179 11.2609H9.98481L11.2225 12.161L10.749 13.6238L12.0055 12.733L13.2292 13.6238L12.7744 12.1751ZM9.94262 9.34804L11.171 8.44318L9.63319 8.4385L9.16435 6.97573L8.68614 8.4385L7.15305 8.43381L8.39077 9.33397L7.91256 10.7967L9.17373 9.90595L10.3974 10.7967L9.94262 9.35272V9.34804ZM7.14367 6.53971L8.37671 5.63486L6.84362 5.63017L6.37478 4.16741L5.89188 5.62548H4.3541L5.59183 6.52565L5.1183 7.98841L6.37478 7.09763L7.59844 7.98841L7.14367 6.53971ZM4.33066 3.7267L5.5637 2.82185L4.0306 2.81716L3.56177 1.35439L3.07887 2.81247H1.54109L2.77881 3.71264L2.30529 5.1754L3.56177 4.28461L4.79012 5.1754L4.33066 3.7267ZM1.51765 0.913688L2.75068 0.00883627L1.2129 0.00414789L0.744069 -1.45862L0.25648 -0.000540376H-1.27661L-0.0341978 0.899623L-0.507721 2.36239L0.748757 1.4716L1.97242 2.36239L1.51765 0.913688Z" fill="white"/>
</g>
</g>
<defs>
<clipPath id="clip0_720_53465">
<rect width="24.0044" height="24.0044" fill="white" transform="translate(0.0305176 0.00872803)"/>
</clipPath>
</defs>
</svg>
