<svg width="25" height="25" viewBox="0 0 25 25" fill="none" xmlns="http://www.w3.org/2000/svg">
<g clip-path="url(#clip0_720_53448)">
<path fill-rule="evenodd" clip-rule="evenodd" d="M0.0393066 0.00869751H24.0437V24.0131H0.0393066V0.00869751Z" fill="#229E45"/>
<path fill-rule="evenodd" clip-rule="evenodd" d="M12.2945 19.0153L23.0683 12.0203L12.2289 5.00655L1.41284 12.0391L12.2945 19.0153Z" fill="#F8E509"/>
<path fill-rule="evenodd" clip-rule="evenodd" d="M16.9877 12.011C17.0066 12.6214 16.9027 13.2294 16.682 13.7989C16.4614 14.3684 16.1285 14.8877 15.7031 15.326C15.2778 15.7643 14.7687 16.1126 14.2061 16.3502C13.6435 16.5879 13.0389 16.71 12.4281 16.7094C11.8174 16.7088 11.213 16.5854 10.6509 16.3466C10.0888 16.1078 9.5804 15.7584 9.15597 15.3192C8.73154 14.8801 8.39972 14.3601 8.18022 13.7902C7.96072 13.2202 7.85802 12.612 7.87823 12.0016C7.91738 10.8189 8.41502 9.69784 9.26591 8.8755C10.1168 8.05316 11.2542 7.59405 12.4375 7.59526C13.6208 7.59648 14.7573 8.05794 15.6065 8.88203C16.4556 9.70611 16.951 10.8282 16.9877 12.011Z" fill="#2B49A3"/>
<path fill-rule="evenodd" clip-rule="evenodd" d="M10.9302 14.7396L10.7896 14.6552L10.6443 14.7302L10.6771 14.5661L10.5646 14.4489L10.724 14.4301L10.799 14.2801L10.8693 14.4348L11.0287 14.4629L10.9068 14.5755M13.9871 15.5131L13.8464 15.4288L13.6964 15.5038L13.7292 15.3397L13.6167 15.2225L13.7808 15.2037L13.8558 15.0537L13.9214 15.2084L14.0808 15.2365L13.9636 15.349M12.6696 14.2754L12.5477 14.2051L12.4211 14.266L12.4493 14.1254L12.3555 14.0222L12.4915 14.0082L12.5571 13.8816L12.6134 14.0129L12.754 14.0363L12.6509 14.1301M15.7546 13.83L15.6327 13.7597L15.5108 13.8206L15.5389 13.6847L15.4451 13.5862L15.5811 13.5675L15.642 13.4456L15.703 13.5722L15.839 13.5956L15.7358 13.6894M12.6134 12.9064L12.4727 12.822L12.3274 12.897L12.3602 12.7329L12.2477 12.6157L12.4071 12.597L12.4821 12.4516L12.5524 12.6017L12.7118 12.6298L12.5899 12.7423M8.85331 11.4952L8.71266 11.4108L8.57201 11.4858L8.60014 11.3218L8.48762 11.2045L8.65171 11.1858L8.72672 11.0358L8.79236 11.1905L8.95176 11.2186L8.83455 11.3311M9.30808 13.3706L9.16743 13.2909L9.02209 13.3612L9.05491 13.2018L8.94239 13.0799L9.10179 13.0611L9.1768 12.9205L9.24713 13.0658L9.40653 13.0986L9.28464 13.2065M14.0011 10.8013L13.8792 10.731L13.7479 10.792L13.7761 10.6513L13.6823 10.5435L13.823 10.5294L13.8886 10.3981L13.9495 10.5341L14.0902 10.5576L13.9824 10.656M13.7479 12.025L13.6354 11.9641L13.537 12.0109L13.5557 11.8984L13.4807 11.8187L13.5932 11.8047L13.6448 11.7015L13.6917 11.8093L13.8042 11.8281L13.7198 11.9031M8.63764 13.7081L8.54388 13.6519L8.44542 13.6987L8.46417 13.5909L8.38916 13.5112L8.50168 13.5018L8.54856 13.4081L8.59545 13.5018L8.70328 13.5253L8.62358 13.6003M15.778 14.1395L15.6983 14.1019L15.6186 14.1348L15.6374 14.0551L15.5764 13.9941L15.6655 13.9847L15.7077 13.9144L15.7405 13.9894L15.8296 14.0035L15.7639 14.0598" fill="#FFFFEF"/>
<path fill-rule="evenodd" clip-rule="evenodd" d="M8.64216 13.7127L8.54844 13.6564L8.45003 13.7033L8.47346 13.5955L8.3938 13.5158L8.50158 13.5065L8.55313 13.4128L8.59999 13.5065L8.70777 13.5299L8.6281 13.6049" fill="#FFFFEF"/>
<path fill-rule="evenodd" clip-rule="evenodd" d="M8.64228 13.7128L8.54851 13.6566L8.45006 13.7034L8.4735 13.5956L8.3938 13.5159L8.50163 13.5065L8.5532 13.4128L8.60009 13.5065L8.70792 13.53L8.62822 13.605M10.1379 13.7128L10.0441 13.6566L9.95033 13.7034L9.96909 13.5956L9.89407 13.5159L10.0019 13.5065L10.0488 13.4081L10.0957 13.5065L10.2035 13.53L10.1238 13.605M9.95033 14.2145L9.85656 14.1582L9.7628 14.2051L9.78155 14.0973L9.70654 14.0176L9.81437 14.0035L9.86125 13.9097L9.90814 14.0035L10.016 14.0269L9.93627 14.102M13.0634 13.3049L12.9696 13.2487L12.8712 13.2956L12.8899 13.1877L12.8149 13.108L12.9227 13.0986L12.9743 13.0002L13.0212 13.0986L13.1243 13.1174L13.0446 13.1924M12.1492 13.3049L12.0554 13.2487L11.9569 13.2956L11.9804 13.1877L11.9054 13.108L12.0132 13.0986L12.0601 13.0002L12.107 13.0986L12.2148 13.1174L12.1351 13.1924M9.67372 12.9861L9.61746 12.9533L9.55651 12.9814L9.56589 12.9111L9.519 12.8642L9.58933 12.8548L9.62215 12.7939L9.64559 12.8595L9.71591 12.8689L9.66903 12.9158M15.6607 14.5427L15.567 14.4911L15.4685 14.538L15.492 14.4301L15.417 14.3504L15.5248 14.3364L15.5717 14.2426L15.6186 14.3364L15.7264 14.3598L15.6467 14.4348M14.8965 14.6411L14.8215 14.5942L14.7418 14.6411L14.7606 14.5473L14.6949 14.4817L14.7887 14.4723L14.8262 14.3926L14.8637 14.4723L14.9575 14.4911L14.8872 14.552M15.2622 14.6364L15.1872 14.5895L15.1122 14.6317L15.1263 14.5473L15.07 14.4864L15.1544 14.477L15.1919 14.402L15.2247 14.477L15.3091 14.4911L15.2482 14.552M16.289 13.7363L16.2187 13.6941L16.1436 13.7316L16.1624 13.6519L16.1061 13.5909L16.1858 13.5815L16.2233 13.5112L16.2562 13.5862L16.3359 13.6003L16.2749 13.6566M14.9012 15.1475L14.8075 15.0959L14.7137 15.1428L14.7371 15.0396L14.6621 14.9693L14.7653 14.9552L14.8168 14.8662L14.8637 14.9599L14.9622 14.9787L14.8872 15.0443M14.9059 15.5553L14.8215 15.5085L14.7371 15.5507L14.7559 15.4475L14.6903 15.3772L14.784 15.3631L14.8309 15.274L14.8684 15.3678L14.9622 15.3866L14.8919 15.4522M14.212 14.6364L14.1417 14.5942L14.0667 14.6317L14.0855 14.5473L14.0292 14.4911L14.1089 14.4817L14.1464 14.4067L14.1792 14.4817L14.2589 14.4958L14.198 14.552M13.5651 14.6364L13.4947 14.5942L13.4197 14.6317L13.4385 14.5473L13.3822 14.4911L13.4619 14.4817L13.4994 14.4067L13.5322 14.4817L13.6119 14.4958L13.5557 14.552M12.4633 13.6706L12.393 13.6284L12.318 13.6659L12.3367 13.5862L12.2804 13.5253L12.3601 13.5159L12.3977 13.4456L12.4305 13.5206L12.5102 13.5347L12.4492 13.5862M12.5852 15.6257L12.5242 15.5928L12.4633 15.6257L12.4774 15.5553L12.4305 15.5085L12.4961 15.4944L12.5289 15.4334L12.5571 15.4991L12.6274 15.5085L12.5758 15.5553M10.9255 12.461L10.7849 12.3813L10.6395 12.4516L10.6723 12.2922L10.5598 12.1703L10.7192 12.1516L10.7942 12.0063L10.8646 12.1563L11.024 12.1844L10.9021 12.2969" fill="#FFFFEF"/>
<path fill-rule="evenodd" clip-rule="evenodd" d="M16.6876 13.6519C16.7758 13.422 16.8448 13.1852 16.8939 12.9439C14.4747 10.8154 11.7742 9.72304 8.36109 9.94808C8.23881 10.187 8.13839 10.4365 8.06104 10.6935C9.62684 10.5354 11.2083 10.7175 12.6972 11.2272C14.1861 11.737 15.5473 12.5625 16.6876 13.6472V13.6519Z" fill="white"/>
<path d="M15.5998 12.4516L15.6842 12.4985C15.6725 12.525 15.6692 12.5545 15.6748 12.5829C15.6811 12.6048 15.6967 12.6236 15.7217 12.6392C15.7467 12.6548 15.7717 12.6642 15.7967 12.6673C15.8155 12.6673 15.8311 12.6579 15.8436 12.6392C15.8499 12.6298 15.8514 12.6189 15.8483 12.6064L15.8342 12.5689L15.778 12.5079C15.7482 12.4774 15.7258 12.4405 15.7123 12.4001C15.706 12.3696 15.7099 12.3379 15.7234 12.3099C15.737 12.2819 15.7595 12.2592 15.7873 12.2454C15.8124 12.2346 15.8401 12.2313 15.867 12.236C15.901 12.2429 15.9331 12.2573 15.9608 12.2782C16.0015 12.3067 16.0338 12.3456 16.0546 12.3907C16.0603 12.4115 16.0611 12.4332 16.057 12.4544C16.053 12.4755 16.0441 12.4954 16.0311 12.5126L15.9467 12.461C15.9561 12.436 15.9592 12.4141 15.9561 12.3954C15.9499 12.3798 15.9342 12.3641 15.9092 12.3485C15.8842 12.3329 15.8624 12.3251 15.8436 12.3251L15.8155 12.3391L15.8108 12.3719C15.8108 12.3907 15.8295 12.4173 15.867 12.4516L15.9374 12.5454C15.9502 12.5687 15.9561 12.5952 15.9544 12.6218C15.9527 12.6483 15.9436 12.6739 15.928 12.6954C15.9118 12.7189 15.8889 12.7369 15.8624 12.747C15.8345 12.7598 15.8032 12.7631 15.7733 12.7564C15.7377 12.7473 15.7043 12.7314 15.6748 12.7095C15.6316 12.6818 15.5986 12.6406 15.5811 12.5923C15.5654 12.5517 15.5717 12.5048 15.5998 12.4516ZM15.1872 12.1844L15.281 12.2313C15.2711 12.255 15.2678 12.2809 15.2716 12.3063C15.2779 12.3313 15.2935 12.3516 15.3185 12.3673C15.3435 12.3829 15.3685 12.3891 15.3935 12.386C15.4123 12.386 15.4279 12.3766 15.4404 12.3579L15.4451 12.3298C15.4451 12.3172 15.4388 12.3047 15.4263 12.2922L15.3701 12.2313C15.3392 12.2026 15.3152 12.1674 15.2998 12.1282C15.2942 12.1094 15.2925 12.0898 15.2949 12.0704C15.2974 12.051 15.3038 12.0324 15.3138 12.0156C15.3281 11.9953 15.3475 11.9791 15.3701 11.9687C15.3952 11.9579 15.4229 11.9547 15.4498 11.9594C15.4779 11.9594 15.5092 11.9719 15.5435 11.9969C15.5936 12.0281 15.6248 12.0641 15.6373 12.1047C15.6443 12.1248 15.6467 12.1462 15.6443 12.1673C15.6418 12.1884 15.6347 12.2087 15.6233 12.2266L15.5342 12.175C15.5467 12.15 15.5498 12.1297 15.5435 12.1141C15.5373 12.0985 15.5217 12.0828 15.4967 12.0672C15.4872 12.0587 15.476 12.0523 15.4639 12.0482C15.4518 12.0442 15.439 12.0427 15.4263 12.0438L15.3982 12.0625V12.0953C15.3982 12.111 15.417 12.1375 15.4545 12.175C15.492 12.2125 15.517 12.2407 15.5295 12.2594C15.5439 12.2828 15.5512 12.31 15.5503 12.3375C15.5495 12.365 15.5406 12.3916 15.5248 12.4141C15.5098 12.4394 15.4872 12.4593 15.4603 12.471C15.4334 12.4828 15.4035 12.4859 15.3748 12.4798C15.3379 12.4727 15.3028 12.4584 15.2716 12.4376C15.2274 12.4118 15.1928 12.3723 15.1732 12.3251C15.1593 12.2781 15.1644 12.2277 15.1872 12.1844ZM14.6809 12.0438L14.9434 11.6218L15.2576 11.8093L15.2107 11.8844L14.9856 11.7437L14.9247 11.8375L15.1403 11.9687L15.0935 12.0438L14.8825 11.9125L14.8122 12.0297L15.0466 12.1703L15.0044 12.2454L14.6809 12.0438ZM13.9401 11.439L13.9823 11.364L14.1699 11.4671L14.0808 11.6406C14.0048 11.6582 13.925 11.6483 13.8557 11.6124C13.814 11.5903 13.7786 11.5581 13.7526 11.5187C13.7291 11.4823 13.7161 11.4401 13.7151 11.3968C13.7151 11.3499 13.7276 11.3061 13.7526 11.2655C13.774 11.2221 13.8063 11.1849 13.8464 11.1577C13.8807 11.1295 13.9229 11.1155 13.973 11.1155C14.0073 11.1155 14.0464 11.1264 14.0902 11.1483C14.1364 11.17 14.1742 11.2062 14.198 11.2514C14.2167 11.2889 14.2214 11.3311 14.2121 11.378L14.1136 11.3499C14.1198 11.3261 14.1164 11.3009 14.1042 11.2796C14.0906 11.2575 14.0711 11.2397 14.048 11.228C14.0312 11.218 14.0126 11.2115 13.9932 11.2091C13.9738 11.2067 13.9541 11.2083 13.9354 11.2139C13.9042 11.2296 13.8729 11.2608 13.8417 11.3077C13.8194 11.351 13.8113 11.4002 13.8182 11.4483C13.8276 11.4858 13.8526 11.514 13.8932 11.5327L13.9542 11.5515H14.0151L14.0433 11.4952L13.9401 11.439ZM10.7145 10.6419L10.7896 10.145L10.9396 10.1684L10.9771 10.52L11.1177 10.1919L11.2631 10.2153L11.1928 10.7123L11.099 10.6982L11.1552 10.3091L11.0005 10.6841L10.9068 10.6701L10.8646 10.2622L10.8083 10.656L10.7145 10.6419ZM10.2129 10.581L10.2598 10.084L10.6255 10.1168L10.6208 10.2012L10.3489 10.1778L10.3395 10.2856L10.588 10.3091L10.5833 10.3935L10.3348 10.37L10.3207 10.5107L10.5973 10.5341L10.588 10.6185L10.2129 10.581Z" fill="#309E3A"/>
<path d="M8.54392 10.2667C8.54392 10.2168 8.55173 10.1746 8.56735 10.1402L8.61421 10.0746L8.6845 10.0278C8.71917 10.0161 8.75578 10.0113 8.79228 10.0137C8.8248 10.0135 8.85701 10.02 8.88686 10.0329C8.91671 10.0458 8.94355 10.0648 8.96566 10.0887C9.0094 10.1355 9.02971 10.198 9.02658 10.2761C9.02658 10.3605 9.00315 10.4229 8.95629 10.4636C8.93283 10.4863 8.90486 10.5039 8.8742 10.5152C8.84353 10.5265 8.81084 10.5313 8.77822 10.5292C8.74604 10.53 8.71404 10.5242 8.68421 10.5121C8.65438 10.5 8.62736 10.4819 8.60484 10.4589C8.58168 10.4339 8.56423 10.4042 8.55371 10.3719C8.54319 10.3395 8.53985 10.3052 8.54392 10.2714V10.2667Z" fill="#309E3A"/>
<path d="M8.64702 10.2668C8.64702 10.323 8.65952 10.3668 8.68451 10.398C8.7095 10.4292 8.74074 10.4449 8.77823 10.4449C8.79738 10.4452 8.8164 10.4417 8.83413 10.4344C8.85186 10.4272 8.86792 10.4164 8.88132 10.4027C8.90632 10.3746 8.92037 10.3324 8.9235 10.2762C8.9235 10.2137 8.911 10.1699 8.88601 10.1449C8.86198 10.1178 8.8284 10.101 8.79229 10.0981C8.74543 10.0981 8.71106 10.1121 8.68919 10.1403C8.66108 10.1684 8.64546 10.2105 8.64233 10.2668H8.64702Z" fill="#F7FFFF"/>
<path d="M9.13403 10.5292L9.13872 10.0278H9.34959C9.40583 10.0278 9.44488 10.034 9.46675 10.0465C9.49799 10.059 9.51673 10.0746 9.52298 10.0934C9.53547 10.1184 9.54328 10.1449 9.54641 10.1731C9.54641 10.2105 9.53547 10.2418 9.51361 10.2668C9.49174 10.2886 9.45737 10.3043 9.41051 10.3136C9.4355 10.323 9.45425 10.3355 9.46675 10.3511L9.52298 10.4355L9.5839 10.5292H9.46206L9.39177 10.4214L9.33553 10.3464L9.30742 10.3277L9.26056 10.3183H9.23713V10.5292H9.13403Z" fill="#309E3A"/>
<path d="M9.23755 10.2387H9.40625L9.42968 10.2152C9.43905 10.2059 9.44374 10.1934 9.44374 10.1778C9.44374 10.1621 9.43905 10.1481 9.42968 10.1356L9.39219 10.1168H9.24224L9.23755 10.2387Z" fill="white"/>
<path d="M9.70609 10.0512L9.88885 10.0606L9.98257 10.0747C10.0093 10.0847 10.0333 10.1008 10.0529 10.1215C10.0747 10.1475 10.0907 10.1778 10.0997 10.2106C10.1091 10.2418 10.1122 10.2809 10.1091 10.3277C10.1115 10.3637 10.1056 10.3998 10.0918 10.4331C10.0779 10.4664 10.0566 10.4961 10.0294 10.5198C10.0107 10.5355 9.98726 10.548 9.95914 10.5573H9.86542L9.67798 10.5526L9.70609 10.0512Z" fill="#309E3A"/>
<path d="M9.79995 10.1403L9.78589 10.4683L9.86087 10.4777H9.92179L9.96396 10.4543C9.97646 10.4449 9.98583 10.4293 9.99208 10.4074L10.0061 10.3137L10.0014 10.2293C9.9952 10.2075 9.98583 10.1918 9.97333 10.1825L9.92647 10.1543L9.84681 10.145L9.79995 10.1403Z" fill="white"/>
<path d="M12.1589 10.9465L12.2761 10.4591L12.4307 10.4966C12.4932 10.5122 12.5323 10.5247 12.5479 10.5341C12.5729 10.5466 12.5916 10.5669 12.6041 10.595C12.6166 10.6231 12.6182 10.6575 12.6088 10.6981C12.6046 10.7223 12.5942 10.7449 12.5786 10.7638C12.563 10.7827 12.5427 10.7972 12.5198 10.8059L12.4682 10.8199L12.3651 10.8012L12.2995 10.7871L12.2527 10.9699L12.1589 10.9465Z" fill="#309E3A"/>
<path d="M12.3509 10.5669L12.3181 10.7075L12.3744 10.7169C12.4119 10.7263 12.4384 10.7294 12.4541 10.7263C12.4671 10.7249 12.4793 10.7198 12.4894 10.7114C12.4994 10.7031 12.5067 10.6919 12.5103 10.6794L12.5056 10.6278L12.4681 10.595L12.3978 10.5763L12.3509 10.5669Z" fill="white"/>
<path d="M12.623 11.0871L12.7871 10.6138L12.9886 10.6841L13.0917 10.731C13.1104 10.7497 13.1245 10.7732 13.1338 10.8013C13.1479 10.8434 13.1338 10.8528 13.1245 10.8809C13.1151 10.9184 13.0948 10.9434 13.0635 10.9559C13.0474 10.9653 13.0296 10.9714 13.0111 10.9738C12.9926 10.9762 12.9738 10.9749 12.9558 10.97L12.9932 11.0262L13.0214 11.1199L13.0448 11.2324L12.9323 11.1949L12.8995 11.0684L12.8714 10.9793L12.8527 10.9512L12.8058 10.9278L12.7871 10.9231L12.7168 11.1199L12.623 11.0871Z" fill="#309E3A"/>
<path d="M12.8108 10.8482L12.8811 10.8716L12.9701 10.895C12.9826 10.895 12.9935 10.8919 13.0029 10.8857L13.0264 10.8529V10.806L12.9982 10.7779L12.9279 10.7544L12.853 10.7263L12.8108 10.8482Z" fill="white"/>
<path d="M13.2086 11.0685C13.2208 11.0257 13.2415 10.9858 13.2696 10.9513C13.2852 10.9294 13.3055 10.9123 13.3305 10.8998L13.4055 10.8763C13.4367 10.8763 13.4726 10.881 13.5132 10.8904C13.545 10.8983 13.5748 10.9129 13.6006 10.9331C13.6265 10.9532 13.6478 10.9786 13.6632 11.0075C13.6944 11.0669 13.696 11.1341 13.6679 11.209C13.6504 11.2763 13.6087 11.3347 13.5507 11.3731C13.5218 11.3874 13.4902 11.3957 13.458 11.3973C13.4257 11.3989 13.3935 11.3939 13.3633 11.3824C13.3315 11.3745 13.3017 11.3599 13.2759 11.3398C13.25 11.3196 13.2287 11.2942 13.2133 11.2653C13.1881 11.2024 13.1864 11.1325 13.2086 11.0685Z" fill="#309E3A"/>
<path d="M13.3071 11.0966C13.2915 11.1466 13.2915 11.1903 13.3071 11.2278C13.3227 11.2653 13.3509 11.2903 13.3915 11.3028C13.429 11.3122 13.4633 11.3075 13.4946 11.2887C13.5258 11.27 13.5524 11.2325 13.5742 11.1763C13.5867 11.1232 13.5867 11.0779 13.5742 11.0404C13.5656 11.0236 13.5537 11.0087 13.5392 10.9967C13.5247 10.9846 13.5079 10.9756 13.4899 10.9701C13.4719 10.9652 13.4531 10.9639 13.4346 10.9663C13.4161 10.9687 13.3982 10.9748 13.3821 10.9842C13.3509 11.0029 13.3259 11.0404 13.3071 11.0966Z" fill="white"/>
<path d="M14.1843 11.7669L14.4139 11.3217L14.6014 11.4155C14.6482 11.4436 14.6795 11.4655 14.6951 11.4811C14.7139 11.5029 14.7248 11.5264 14.7279 11.5514C14.7342 11.5826 14.7279 11.6092 14.7092 11.631C14.6967 11.6623 14.6732 11.6857 14.6389 11.7013C14.6076 11.7107 14.5717 11.7091 14.5311 11.6966C14.5436 11.7154 14.553 11.7357 14.5592 11.7576L14.5733 11.856L14.5826 11.9731L14.4749 11.9169L14.4608 11.7857L14.4467 11.6919L14.428 11.6638L14.3858 11.6357L14.3671 11.6263L14.2734 11.8138L14.1843 11.7669Z" fill="#309E3A"/>
<path d="M14.4045 11.5561L14.4701 11.5889L14.5545 11.6264C14.567 11.6264 14.5779 11.6232 14.5873 11.617C14.5983 11.6087 14.6074 11.5982 14.6139 11.586C14.6204 11.5739 14.6241 11.5604 14.6248 11.5467L14.5967 11.5139L14.5358 11.4764L14.4655 11.4436L14.4045 11.5561Z" fill="white"/>
<path d="M16.0353 12.6813C16.0603 12.6375 16.0915 12.6063 16.129 12.5875L16.204 12.5547H16.2789C16.3133 12.5579 16.3477 12.5735 16.382 12.6016C16.4097 12.6185 16.4336 12.641 16.4522 12.6676C16.4707 12.6942 16.4835 12.7244 16.4898 12.7562C16.4966 12.8244 16.4783 12.8927 16.4383 12.9484C16.4008 13.0081 16.3423 13.0516 16.2743 13.0702C16.2425 13.0761 16.2099 13.0755 16.1785 13.0682C16.147 13.0609 16.1174 13.0473 16.0915 13.028C16.0638 13.0111 16.0399 12.9886 16.0214 12.962C16.0028 12.9354 15.99 12.9052 15.9837 12.8734C15.9756 12.8058 15.9922 12.7375 16.0306 12.6813H16.0353Z" fill="#309E3A"/>
<path d="M16.1199 12.7329C16.0886 12.7828 16.0761 12.8266 16.0824 12.8641C16.0856 12.883 16.0926 12.9011 16.1031 12.9172C16.1136 12.9334 16.1273 12.9472 16.1433 12.9578C16.174 12.9771 16.2109 12.9838 16.2464 12.9765C16.2839 12.9672 16.3198 12.9375 16.3542 12.8875C16.3885 12.8375 16.401 12.7953 16.3917 12.761C16.3917 12.7266 16.3729 12.6954 16.3354 12.6672C16.2792 12.6251 16.2651 12.6391 16.2276 12.6485C16.1902 12.6579 16.1558 12.686 16.1245 12.7329H16.1199Z" fill="white"/>
<path d="M11.5913 10.7449L11.671 10.3888L11.9334 10.4497L11.9193 10.5106L11.7319 10.4637L11.7131 10.5434L11.8865 10.5856L11.8725 10.6465L11.6991 10.5996L11.6757 10.698L11.8725 10.7449L11.8584 10.8058L11.5913 10.7449Z" fill="#309E3A"/>
</g>
<defs>
<clipPath id="clip0_720_53448">
<rect width="24.0044" height="24.0044" fill="white" transform="translate(0.0393066 0.00872803)"/>
</clipPath>
</defs>
</svg>
