<svg width="24" height="25" viewBox="0 0 24 25" fill="none" xmlns="http://www.w3.org/2000/svg">
<g clip-path="url(#clip0_720_53463)">
<path d="M-0.000244141 0.0131378H24.0041V24.0175H-0.000244141V0.0131378Z" fill="white"/>
<path fill-rule="evenodd" clip-rule="evenodd" d="M24.0041 20.8294C23.7369 21.1576 23.5072 21.9265 22.7898 21.9265C21.3599 21.9265 21.0036 20.3043 19.9299 20.3043C19.2173 20.3043 18.861 21.9312 18.1484 21.9312C16.7137 21.9312 16.3574 20.3043 15.2885 20.3043C14.5712 20.3043 14.2148 21.9312 13.5069 21.9312C12.0723 21.9312 11.716 20.3043 10.647 20.3043C9.92969 20.3043 9.57337 21.9312 8.86074 21.9312C7.4308 21.9312 7.07448 20.3043 6.00085 20.3043C5.28353 20.3043 4.92722 21.9312 4.21459 21.9312C2.78464 21.9312 2.42832 20.3043 1.35469 20.3043C0.64206 20.3043 0.431084 21.4624 -0.000244141 21.4624V23.5487C0.431084 23.5487 0.64206 22.3906 1.35938 22.3906C2.42832 22.3906 2.78933 24.0175 4.21459 24.0175C4.9319 24.0175 5.28822 22.3906 6.00085 22.3906C7.07448 22.3906 7.4308 24.0175 8.86074 24.0175C9.57337 24.0175 9.92969 22.3906 10.6423 22.3906C11.716 22.3906 12.077 24.0175 13.5022 24.0175C14.2195 24.0175 14.5758 22.3906 15.2885 22.3906C16.3621 22.3906 16.7184 24.0175 18.1484 24.0175C18.861 24.0175 19.2173 22.3906 19.9299 22.3906C21.0036 22.3906 21.3646 24.0175 22.7898 24.0175C23.5072 24.0175 23.7369 23.558 24.0041 23.2299V20.8294ZM24.0041 16.7693C23.7369 17.1022 23.5072 17.8664 22.7898 17.8664C21.3599 17.8664 21.0036 16.2442 19.9299 16.2442C19.2173 16.2442 18.861 17.8664 18.1484 17.8664C16.7137 17.8664 16.3574 16.2442 15.2885 16.2442C14.5712 16.2442 14.2148 17.8664 13.5069 17.8664C12.0723 17.8664 11.716 16.2442 10.647 16.2442C9.92969 16.2442 9.57337 17.8664 8.86074 17.8664C7.4308 17.8664 7.07448 16.2442 6.00085 16.2442C5.28353 16.2442 4.92722 17.8664 4.21459 17.8664C2.78464 17.8664 2.42832 16.2442 1.35469 16.2442C0.64206 16.2442 0.431084 17.4022 -0.000244141 17.4022V19.4932C0.431084 19.4932 0.64206 18.3352 1.35938 18.3352C2.42832 18.3352 2.78933 19.9621 4.21459 19.9621C4.9319 19.9621 5.28822 18.3352 6.00085 18.3352C7.07448 18.3352 7.4308 19.9621 8.86074 19.9621C9.57337 19.9621 9.92969 18.3352 10.6423 18.3352C11.716 18.3352 12.077 19.9621 13.5022 19.9621C14.2195 19.9621 14.5758 18.3352 15.2885 18.3352C16.3621 18.3352 16.7184 19.9621 18.1484 19.9621C18.861 19.9621 19.2173 18.3352 19.9299 18.3352C21.0036 18.3352 21.3646 19.9621 22.7898 19.9621C23.5072 19.9621 23.7369 19.5026 24.0041 19.1697V16.7693ZM24.0041 12.7092C23.7369 13.0468 23.5072 13.811 22.7898 13.811C21.3599 13.811 21.0036 12.1841 19.9299 12.1841C19.2173 12.1841 18.861 13.811 18.1484 13.811C16.7137 13.811 16.3574 12.1841 15.2885 12.1841C14.5712 12.1841 14.2148 13.811 13.5069 13.811C12.0723 13.811 11.716 12.1841 10.647 12.1841C9.92969 12.1841 9.57337 13.811 8.86074 13.811C7.4308 13.811 7.07448 12.1841 6.00085 12.1841C5.28353 12.1841 4.92722 13.811 4.21459 13.811C2.78464 13.811 2.42832 12.1841 1.35469 12.1841C0.64206 12.1841 0.431084 13.3468 -0.000244141 13.3468V15.4331C0.431084 15.4331 0.64206 14.2798 1.35938 14.2798C2.42832 14.2798 2.78933 15.902 4.21459 15.902C4.9319 15.902 5.28822 14.2798 6.00085 14.2798C7.07448 14.2798 7.4308 15.902 8.86074 15.902C9.57337 15.902 9.92969 14.2798 10.6423 14.2798C11.716 14.2798 12.077 15.902 13.5022 15.902C14.2195 15.902 14.5758 14.2798 15.2885 14.2798C16.3621 14.2798 16.7184 15.902 18.1484 15.902C18.861 15.902 19.2173 14.2798 19.9299 14.2798C21.0036 14.2798 21.3646 15.902 22.7898 15.902C23.5072 15.902 23.7369 15.4378 24.0041 15.1096V12.7092ZM24.0041 8.65377C23.7369 8.98196 23.5072 9.75085 22.7898 9.75085C21.3599 9.75085 21.0036 8.12868 19.9299 8.12868C19.2173 8.12868 18.861 9.75085 18.1484 9.75085C16.7137 9.75085 16.3574 8.12868 15.2885 8.12868C14.5712 8.12868 14.2148 9.75085 13.5069 9.75085C12.0723 9.75085 11.716 8.12868 10.647 8.12868C9.92969 8.12868 9.57337 9.75085 8.86074 9.75085C7.4308 9.75085 7.07448 8.12868 6.00085 8.12868C5.28353 8.12868 4.92722 9.75085 4.21459 9.75085C2.78464 9.75085 2.42832 8.12868 1.35469 8.12868C0.64206 8.12868 0.431084 9.2867 -0.000244141 9.2867V11.3777C0.431084 11.3777 0.64206 10.2197 1.35938 10.2197C2.42832 10.2197 2.78933 11.8465 4.21459 11.8465C4.9319 11.8465 5.28822 10.2197 6.00085 10.2197C7.07448 10.2197 7.4308 11.8465 8.86074 11.8465C9.57337 11.8465 9.92969 10.2197 10.6423 10.2197C11.716 10.2197 12.077 11.8465 13.5022 11.8465C14.2195 11.8465 14.5758 10.2197 15.2885 10.2197C16.3621 10.2197 16.7184 11.8465 18.1484 11.8465C18.861 11.8465 19.2173 10.2197 19.9299 10.2197C21.0036 10.2197 21.3646 11.8465 22.7898 11.8465C23.5072 11.8465 23.7369 11.3777 24.0041 11.0495V8.65377ZM24.0041 4.59366C23.7369 4.92184 23.5072 5.69542 22.7898 5.69542C21.3599 5.69542 21.0036 4.06856 19.9299 4.06856C19.2173 4.06856 18.861 5.69542 18.1484 5.69542C16.7137 5.69542 16.3574 4.06856 15.2885 4.06856C14.5712 4.06856 14.2148 5.69542 13.5069 5.69542C12.0723 5.69542 11.716 4.06856 10.647 4.06856C9.92969 4.06856 9.57337 5.69542 8.86074 5.69542C7.4308 5.69542 7.07448 4.06856 6.00085 4.06856C5.28353 4.06856 4.92722 5.69542 4.21459 5.69542C2.78464 5.69542 2.42832 4.06856 1.35469 4.06856C0.64206 4.07325 0.426396 5.24065 -0.000244141 5.24065V7.32697C0.431084 7.32697 0.64206 6.16895 1.35938 6.16895C2.42832 6.16895 2.78464 7.79112 4.21927 7.79112C4.9319 7.79112 5.28822 6.16895 6.00085 6.16895C7.07448 6.16895 7.4308 7.79112 8.86074 7.79112C9.57337 7.79112 9.92969 6.16895 10.6423 6.16895C11.716 6.16895 12.0723 7.79112 13.5022 7.79112C14.2195 7.79112 14.5758 6.16895 15.2885 6.16895C16.3621 6.16895 16.7184 7.79112 18.1484 7.79112C18.861 7.79112 19.2173 6.16895 19.9299 6.16895C21.0036 6.16895 21.3646 7.79112 22.7898 7.79112C23.5025 7.79112 23.7369 7.33166 24.0041 6.99878V4.60772V4.59366ZM24.0041 0.538233C23.7369 0.866418 23.5072 1.64 22.7898 1.64C21.3599 1.64 21.0036 0.0131378 19.9299 0.0131378C19.2173 0.0131378 18.861 1.64 18.1484 1.64C16.7137 1.64 16.3574 0.0131378 15.2885 0.0131378C14.5712 0.0131378 14.2148 1.64 13.5069 1.64C12.0723 1.64 11.716 0.0131378 10.647 0.0131378C9.92969 0.0131378 9.57337 1.64 8.85605 1.64C7.42611 1.64 7.07917 0.0131378 6.00085 0.0131378C5.28353 0.0131378 4.9319 1.64 4.21459 1.64C2.78464 1.64 2.42832 0.0131378 1.35469 0.0131378C0.646749 0.0131378 0.431084 1.17585 -0.000244141 1.17585V3.26686C0.431084 3.26686 0.64206 2.10883 1.35938 2.10883C2.42832 2.10883 2.78464 3.73569 4.21927 3.73569C4.9319 3.73569 5.28822 2.10883 6.00085 2.10883C7.07448 2.10883 7.4308 3.73569 8.86074 3.73569C9.57337 3.73569 9.92969 2.10883 10.6423 2.10883C11.716 2.10883 12.0723 3.73569 13.5022 3.73569C14.2195 3.73569 14.5758 2.10883 15.2885 2.10883C16.3621 2.10883 16.7184 3.73569 18.1484 3.73569C18.861 3.73569 19.2173 2.10883 19.9299 2.10883C21.0036 2.10883 21.3646 3.73569 22.7898 3.73569C23.5025 3.73569 23.7369 3.27154 24.0041 2.93867V0.538233Z" fill="#000063"/>
<path fill-rule="evenodd" clip-rule="evenodd" d="M17.6887 7.9364L17.5339 22.0577C17.5339 22.8032 18.2044 22.8032 18.2747 22.0577L18.1294 7.94578L17.6887 7.9364Z" fill="#A24300" stroke="white" stroke-width="0.0890787"/>
<path fill-rule="evenodd" clip-rule="evenodd" d="M19.2265 13.1874L18.7576 12.6717L18.6451 13.1921L18.4388 12.4419L18.2513 12.817L18.2185 12.02L18.0309 12.3997L17.9934 11.6027L17.8059 11.9778L17.6934 11.0401L17.5058 11.4152L17.398 10.4775L17.2105 10.8526L17.098 9.9149L17.0464 9.44606L17.1402 9.25853L17.3839 9.3523L17.7778 9.72268L18.5607 10.4681L18.0731 10.2806L18.8608 11.0307L18.3732 10.8432L19.1608 11.5933L18.6732 11.4058L19.3812 12.0153L18.8936 11.8277L19.6062 12.4325L19.1186 12.245L19.6578 12.9014L19.0952 12.5732L19.2265 13.1874Z" fill="#006D00" stroke="white" stroke-width="0.079702"/>
<path d="M19.2265 13.1874L17.1401 9.25853M18.5654 10.4681L17.4402 9.82113L17.2105 10.8526" stroke="black" stroke-width="0.0140651"/>
<path d="M18.8601 11.0304L17.7355 10.379L17.5059 11.4194" stroke="black" stroke-width="0.0140651"/>
<path d="M19.1602 11.593L18.0356 10.9416L17.8013 11.9773" stroke="black" stroke-width="0.0140651"/>
<path d="M19.3806 12.015L18.331 11.4996L18.0264 12.3946" stroke="black" stroke-width="0.0140651"/>
<path d="M19.6057 12.437L18.5561 11.9215L18.2515 12.8212" stroke="black" stroke-width="0.0140651"/>
<path d="M19.6575 12.9057L18.7062 12.2028L18.6406 13.1916" stroke="black" stroke-width="0.0140651"/>
<path fill-rule="evenodd" clip-rule="evenodd" d="M13.7457 6.48301L14.5099 6.77838L14.2896 6.19702L14.9553 6.85339L14.8944 6.38456L15.4336 7.1722L15.3679 6.70336L15.9118 7.49101L15.8461 7.01748L16.5494 7.90827L16.4837 7.43944L17.1823 8.33022L17.1167 7.86139L17.8199 8.75217L18.1669 9.20226L18.1997 9.43667L17.9137 9.46012L17.3042 9.27258L16.0993 8.9022L16.6713 8.85532L15.4617 8.48025L16.0383 8.43337L14.8288 8.0583L15.4007 8.01141L14.3505 7.74418L14.9225 7.69729L13.8723 7.43006L14.4443 7.37849L13.5254 6.97998L14.2568 7.03624L13.7504 6.48301H13.7457Z" fill="#006D00" stroke="white" stroke-width="0.0843903"/>
<path d="M13.7458 6.48302L18.1998 9.43668M16.0994 8.90221L17.5622 9.01473L17.1168 7.86139" stroke="black" stroke-width="0.0140651"/>
<path d="M15.4617 8.47975L16.9237 8.59221L16.4832 7.43944" stroke="black" stroke-width="0.0140651"/>
<path d="M14.8289 8.06248L16.2909 8.17026L15.8457 7.01749" stroke="black" stroke-width="0.0140651"/>
<path d="M14.3506 7.74837H15.6533L15.3722 6.69868" stroke="black" stroke-width="0.0140651"/>
<path d="M13.8772 7.42955H15.1799L14.8941 6.38455" stroke="black" stroke-width="0.0140651"/>
<path d="M13.5254 6.9796L14.8609 7.22327L14.2892 6.19702" stroke="black" stroke-width="0.0140651"/>
<path fill-rule="evenodd" clip-rule="evenodd" d="M22.6208 7.46756L21.9879 7.93639L22.6912 8.0161L21.7066 8.25051L22.2317 8.40054L21.1721 8.48024L21.6925 8.63496L20.633 8.70997L21.1534 8.86469L19.9157 9.0194L20.4361 9.17412L19.1983 9.32884L19.7187 9.48824L18.481 9.64296L17.8622 9.71797L17.5996 9.64296L17.6934 9.40854L18.1528 9.0194L19.0671 8.24583L18.8702 8.70997L19.7844 7.93639L19.5875 8.40054L20.5017 7.62696L20.3048 8.09111L21.0409 7.39255L20.844 7.86138L21.5753 7.15813L21.3831 7.62696L22.1989 7.08311L21.8238 7.62696L22.6208 7.46756Z" fill="#006D00" stroke="white" stroke-width="0.0843903"/>
<path d="M22.621 7.46756L17.6045 9.63827M19.0673 8.24583L18.3171 9.32884L19.7236 9.48824" stroke="black" stroke-width="0.0140651"/>
<path d="M19.7842 7.9364L19.0344 9.0142L20.4402 9.16884" stroke="black" stroke-width="0.0140651"/>
<path d="M20.5015 7.62697L19.7517 8.70945L21.1575 8.86409" stroke="black" stroke-width="0.0140651"/>
<path d="M21.0407 7.39255L20.469 8.40005L21.6921 8.63436" stroke="black" stroke-width="0.0140651"/>
<path d="M21.5798 7.15813L21.0034 8.17032L22.2218 8.40462" stroke="black" stroke-width="0.0140651"/>
<path d="M22.1986 7.08311L21.3645 8.01096H22.6907" stroke="black" stroke-width="0.0140651"/>
<path fill-rule="evenodd" clip-rule="evenodd" d="M22.5225 12.17L21.7255 11.9356L22.0115 12.4982L21.2754 11.8934L21.3879 12.3622L20.7691 11.6168L20.8816 12.0856L20.258 11.3402L20.3705 11.809L19.5829 10.9698L19.6954 11.4386L18.9031 10.6041L19.0156 11.0682L18.2233 10.2337L17.8295 9.81175L17.7732 9.58202L18.0545 9.53514L18.678 9.67579L19.9205 9.94772L19.3579 10.0415L20.5956 10.3181L20.033 10.4119L21.2754 10.6838L20.7128 10.7776L21.7864 10.9651L21.2238 11.0589L22.2928 11.237L21.7302 11.3308L22.6866 11.659H21.9552L22.5178 12.17H22.5225Z" fill="#006D00" stroke="white" stroke-width="0.0843903"/>
<path d="M22.5225 12.17L17.7686 9.57733M19.9158 9.94302L18.4437 9.94771L19.011 11.0635" stroke="black" stroke-width="0.0140651"/>
<path d="M20.5949 10.3181H19.1282L19.6905 11.4334" stroke="black" stroke-width="0.0140651"/>
<path d="M21.2746 10.6838L19.8079 10.6931L20.3702 11.8037" stroke="black" stroke-width="0.0140651"/>
<path d="M21.7856 10.9604L20.4829 11.0588L20.8812 12.0804" stroke="black" stroke-width="0.0140651"/>
<path d="M22.2922 11.237L20.9941 11.3354L21.3878 12.357" stroke="black" stroke-width="0.0140651"/>
<path d="M22.6905 11.6542L21.3315 11.523L22.011 12.4977" stroke="black" stroke-width="0.0140651"/>
<path fill-rule="evenodd" clip-rule="evenodd" d="M14.271 12.4372L14.6695 11.884L14.0601 11.9731L14.8102 11.5511L14.332 11.5277L15.1946 11.2182L14.7164 11.1995L15.5744 10.8947L15.0962 10.8713L16.0807 10.4587L15.6072 10.4353L16.5918 10.0227L16.1136 10.004L17.1028 9.58669L17.5951 9.3804L17.8342 9.38978L17.8201 9.6242L17.5529 10.0649L17.009 10.9557L17.0419 10.5009L16.5027 11.3917L16.5308 10.9369L15.9917 11.8277L16.0245 11.373L15.6119 12.1559L15.64 11.7011L15.2275 12.4841L15.2603 12.0246L14.7352 12.6904L14.8946 12.1231L14.271 12.4372Z" fill="#006D00" stroke="white" stroke-width="0.079702"/>
<path d="M14.271 12.4372L17.8341 9.38979M17.0184 10.9604L17.3325 9.83518L16.1182 10.0086" stroke="black" stroke-width="0.0140651"/>
<path d="M16.5022 11.3959L16.8162 10.2618L15.6072 10.4352" stroke="black" stroke-width="0.0140651"/>
<path d="M15.9912 11.8272L16.3145 10.7025L15.1008 10.8759" stroke="black" stroke-width="0.0140651"/>
<path d="M15.6113 12.1554L15.7988 11.1339L14.7163 11.1995" stroke="black" stroke-width="0.0140651"/>
<path d="M15.227 12.4836L15.4145 11.4574L14.3367 11.5277" stroke="black" stroke-width="0.0140651"/>
<path d="M14.7348 12.6899L15.1612 11.6777L14.0647 11.9729" stroke="black" stroke-width="0.0140651"/>
<path fill-rule="evenodd" clip-rule="evenodd" d="M21.4723 5.12338L20.7035 5.6391L20.5816 5.09056L20.1268 5.85007L20.0424 5.48438L19.6767 6.26734L19.6251 5.90633L19.3345 6.70804L19.1704 6.3236L18.8844 7.29877L18.7203 6.90964L18.4343 7.88482L18.2702 7.50037L17.9795 8.47086L17.8389 8.95845L17.9186 9.15536L18.228 9.05222L18.7625 8.6584L19.8267 7.86607L19.2172 8.06767L20.2815 7.28002L19.6626 7.48162L20.7316 6.68929L20.1174 6.89089L21.1864 6.27671L20.455 6.45018L21.6083 5.85476L20.905 6.03761L21.749 5.36717L21.0223 5.71411L21.4723 5.12338Z" fill="#006D00" stroke="white" stroke-width="0.0843903"/>
<path d="M21.1769 5.40469L20.0657 6.35643L17.9185 9.15538" stroke="black" stroke-width="0.0140651"/>
<path d="M19.5962 7.98312L18.3685 8.5642L18.2654 7.67384" stroke="black" stroke-width="0.0140651"/>
<path d="M20.0651 7.40177L18.8233 7.97815L18.7202 7.0878" stroke="black" stroke-width="0.0140651"/>
<path d="M20.5058 6.81104L19.2734 7.38743L19.1797 6.49707" stroke="black" stroke-width="0.0140651"/>
<path d="M20.8763 6.37503L19.7282 6.79677L19.5923 6.07512" stroke="black" stroke-width="0.0140651"/>
<path d="M21.2981 5.95308L20.0657 6.36077L20.0188 5.65317" stroke="black" stroke-width="0.0140651"/>
<path d="M21.4624 5.55456L20.3237 6.14032L20.544 5.25465" stroke="black" stroke-width="0.0140651"/>
<path fill-rule="evenodd" clip-rule="evenodd" d="M17.3137 4.16228L17.6607 4.94523L18.1014 4.53266L18.0217 5.38594L18.317 5.10932L18.1576 5.94385L18.4202 5.65786L18.1764 6.46895L18.5514 6.21578L18.2092 7.17689L18.5843 6.91903L18.2373 7.88014L18.6124 7.62228L18.2655 8.58339L18.092 9.06629L17.9045 9.19288L17.7029 8.96784L17.4872 8.39117L17.0559 7.23784L17.4591 7.68792L17.0277 6.53458L17.4309 6.97998L16.9996 5.82664L17.3981 6.27672L16.8636 5.27342L17.3794 5.74694L16.7605 4.72488L17.2481 5.19371L16.934 4.24198L17.3419 4.87022L17.3137 4.16228Z" fill="#006D00" stroke="white" stroke-width="0.0843903"/>
<path d="M17.4028 4.53265L17.7685 5.84539L17.9045 9.19288" stroke="black" stroke-width="0.0140651"/>
<path d="M17.1824 7.44412L17.8759 8.48912L18.5038 7.77215" stroke="black" stroke-width="0.0140651"/>
<path d="M17.1355 6.73618L17.8478 7.78117L18.4757 7.06889" stroke="black" stroke-width="0.0140651"/>
<path d="M17.1167 6.03293L17.8196 7.07792L18.4382 6.36095" stroke="black" stroke-width="0.0140651"/>
<path d="M17.0652 5.49846L17.7915 6.37476L18.3445 5.81243" stroke="black" stroke-width="0.0140651"/>
<path d="M16.9622 4.94991L17.7682 5.84495L18.2368 5.26387" stroke="black" stroke-width="0.0140651"/>
<path d="M17.0652 4.53265L17.6837 5.54485L18.0305 4.68729" stroke="black" stroke-width="0.0140651"/>
<path fill-rule="evenodd" clip-rule="evenodd" d="M12.7144 9.91957L13.7177 9.22569L13.216 8.96783L14.0927 9.11786L13.7927 8.71935L14.646 9.03816L14.3412 8.63965L15.1992 8.95846L14.8944 8.56463L15.9259 8.91157L15.6258 8.51306L16.6291 9.02878L16.3244 8.63496L17.3558 8.9819L17.8575 9.23976L18.0075 9.44136L17.8059 9.58201L17.2574 9.65702L16.3666 10.0227L16.5307 9.70859L15.4242 9.85862L15.8274 9.58201L14.6975 9.91019L15.096 9.62889L14.1443 9.98989L14.5709 9.53981L13.5911 10.0649L14.0177 9.61951L13.2207 10.1774L13.6661 9.55856L12.7144 9.91957Z" fill="#006D00" stroke="white" stroke-width="0.079702"/>
<path d="M13.0332 9.73204L14.0646 9.28665L14.6272 9.20226L15.0867 9.19757L15.8837 9.24445L16.5964 9.27727L18.0029 9.43668" stroke="black" stroke-width="0.0140651"/>
<path d="M16.5026 9.87684L17.2992 9.38949L16.4885 8.75687" stroke="black" stroke-width="0.0140651"/>
<path d="M15.6118 9.80182L16.5912 9.28167L15.7852 8.64905" stroke="black" stroke-width="0.0140651"/>
<path d="M14.9788 9.78831L15.8743 9.24915L15.0632 8.6631M13.7974 9.92896L14.6225 9.20695L13.9521 8.84126" stroke="black" stroke-width="0.0140651"/>
<path d="M13.427 9.97993L14.069 9.28639L13.5535 9.09895M14.3455 9.84872L15.1609 9.20204L14.5048 8.75687" stroke="black" stroke-width="0.0140651"/>
<path fill-rule="evenodd" clip-rule="evenodd" d="M16.0854 17.5267L16.0759 16.3562L15.7368 15.8096C15.6519 15.5408 15.6935 15.4111 15.8312 15.4019C15.9683 15.3937 16.1043 15.4714 16.3018 15.4801C16.4994 15.4887 16.4622 15.1766 16.7542 15.1853C17.0461 15.194 17.555 15.3503 17.9879 15.3763C18.4214 15.4019 18.6473 15.2374 19.1468 15.22C19.6463 15.2026 19.7778 15.4366 19.8062 15.4366C19.8345 15.4366 19.976 15.3416 20.117 15.3242C20.2585 15.3069 20.3057 15.3763 20.3057 15.3763C20.3057 15.3763 20.2962 15.6711 20.2302 15.8443C20.1641 16.018 19.9288 16.3041 19.9194 16.3041C19.9099 16.3041 19.8345 17.5788 19.8345 17.5875C19.8345 17.5962 16.0854 17.5527 16.0854 17.5267Z" fill="#CC0000" stroke="black" stroke-width="0.00709989"/>
<path fill-rule="evenodd" clip-rule="evenodd" d="M19.9619 16.3288C19.9619 16.3288 20.3393 16.0631 20.3493 15.424C20.3548 15.0561 20.1583 14.7905 19.6666 14.7905C18.9784 14.7905 17.9955 15.0617 17.9955 15.0617V15.1522C17.9955 15.1522 18.7819 14.8809 19.6671 14.8809C20.0601 14.8809 20.2571 15.1466 20.2571 15.4183C20.2571 15.871 19.8631 16.3293 19.8631 16.3293V17.0532H19.9619V16.3288Z" fill="#FFF100" stroke="black" stroke-width="0.00709989"/>
<path fill-rule="evenodd" clip-rule="evenodd" d="M20.1674 16.1385C20.1664 16.151 20.1682 16.1635 20.1727 16.1754C20.1772 16.1872 20.1843 16.198 20.1935 16.2072C20.2028 16.2164 20.214 16.2237 20.2264 16.2287C20.2389 16.2337 20.2524 16.2363 20.266 16.2363C20.2796 16.2363 20.293 16.2337 20.3055 16.2287C20.3179 16.2237 20.3291 16.2164 20.3384 16.2072C20.3476 16.198 20.3547 16.1872 20.3592 16.1754C20.3637 16.1635 20.3655 16.151 20.3645 16.1385C20.3626 16.1156 20.3514 16.0943 20.3331 16.0787C20.3149 16.0631 20.2909 16.0544 20.266 16.0544C20.241 16.0544 20.217 16.0631 20.1988 16.0787C20.1805 16.0943 20.1693 16.1156 20.1674 16.1385Z" fill="white" stroke="black" stroke-width="0.00709989"/>
<path fill-rule="evenodd" clip-rule="evenodd" d="M20.2661 15.9322C20.2651 15.9447 20.2668 15.9573 20.2713 15.9691C20.2758 15.9809 20.2829 15.9917 20.2922 16.0009C20.3014 16.0101 20.3126 16.0174 20.3251 16.0224C20.3375 16.0274 20.351 16.03 20.3646 16.03C20.3782 16.03 20.3916 16.0274 20.4041 16.0224C20.4166 16.0174 20.4278 16.0101 20.437 16.0009C20.4463 15.9917 20.4534 15.9809 20.4578 15.9691C20.4623 15.9573 20.4641 15.9447 20.4631 15.9322C20.4612 15.9094 20.45 15.888 20.4318 15.8724C20.4135 15.8568 20.3895 15.8481 20.3646 15.8481C20.3397 15.8481 20.3157 15.8568 20.2974 15.8724C20.2791 15.888 20.2679 15.9094 20.2661 15.9322Z" fill="white" stroke="black" stroke-width="0.00709989"/>
<path fill-rule="evenodd" clip-rule="evenodd" d="M20.3176 15.7213C20.3166 15.7337 20.3184 15.7463 20.3228 15.7581C20.3273 15.7699 20.3344 15.7807 20.3437 15.7899C20.3529 15.7991 20.3641 15.8064 20.3766 15.8114C20.3891 15.8164 20.4025 15.819 20.4161 15.819C20.4297 15.819 20.4431 15.8164 20.4556 15.8114C20.4681 15.8064 20.4793 15.7991 20.4885 15.7899C20.4978 15.7807 20.5049 15.7699 20.5094 15.7581C20.5138 15.7463 20.5156 15.7337 20.5146 15.7213C20.5127 15.6984 20.5016 15.677 20.4833 15.6614C20.465 15.6458 20.441 15.6371 20.4161 15.6371C20.3912 15.6371 20.3672 15.6458 20.3489 15.6614C20.3306 15.677 20.3195 15.6984 20.3176 15.7213Z" fill="white" stroke="black" stroke-width="0.00709989"/>
<path fill-rule="evenodd" clip-rule="evenodd" d="M20.3552 15.4962C20.3542 15.5087 20.356 15.5212 20.3604 15.533C20.3649 15.5449 20.372 15.5557 20.3813 15.5649C20.3905 15.574 20.4017 15.5814 20.4142 15.5864C20.4267 15.5914 20.4401 15.594 20.4537 15.594C20.4673 15.594 20.4807 15.5914 20.4932 15.5864C20.5057 15.5814 20.5169 15.574 20.5261 15.5649C20.5354 15.5557 20.5425 15.5449 20.547 15.533C20.5514 15.5212 20.5532 15.5087 20.5522 15.4962C20.5503 15.4733 20.5392 15.452 20.5209 15.4363C20.5026 15.4207 20.4786 15.4121 20.4537 15.4121C20.4288 15.4121 20.4048 15.4207 20.3865 15.4363C20.3682 15.452 20.3571 15.4733 20.3552 15.4962Z" fill="white" stroke="black" stroke-width="0.00709989"/>
<path fill-rule="evenodd" clip-rule="evenodd" d="M20.3457 15.2524C20.3446 15.2649 20.3464 15.2775 20.3509 15.2893C20.3554 15.3011 20.3625 15.3119 20.3718 15.3211C20.381 15.3303 20.3922 15.3376 20.4047 15.3426C20.4171 15.3476 20.4306 15.3502 20.4442 15.3502C20.4578 15.3502 20.4712 15.3476 20.4837 15.3426C20.4961 15.3376 20.5074 15.3303 20.5166 15.3211C20.5258 15.3119 20.5329 15.3011 20.5374 15.2893C20.5419 15.2775 20.5437 15.2649 20.5427 15.2524C20.5408 15.2296 20.5296 15.2082 20.5114 15.1926C20.4931 15.177 20.4691 15.1683 20.4442 15.1683C20.4193 15.1683 20.3953 15.177 20.377 15.1926C20.3587 15.2082 20.3475 15.2296 20.3457 15.2524Z" fill="white" stroke="black" stroke-width="0.00709989"/>
<path fill-rule="evenodd" clip-rule="evenodd" d="M20.0268 16.3214C20.0258 16.3339 20.0276 16.3464 20.0321 16.3582C20.0366 16.37 20.0437 16.3809 20.0529 16.39C20.0622 16.3992 20.0734 16.4065 20.0858 16.4115C20.0983 16.4165 20.1117 16.4191 20.1253 16.4191C20.1389 16.4191 20.1524 16.4165 20.1648 16.4115C20.1773 16.4065 20.1885 16.3992 20.1978 16.39C20.207 16.3809 20.2141 16.37 20.2186 16.3582C20.2231 16.3464 20.2249 16.3339 20.2238 16.3214C20.222 16.2985 20.2108 16.2771 20.1925 16.2615C20.1742 16.2459 20.1502 16.2372 20.1253 16.2372C20.1004 16.2372 20.0764 16.2459 20.0581 16.2615C20.0399 16.2771 20.0287 16.2985 20.0268 16.3214Z" fill="white" stroke="black" stroke-width="0.00709989"/>
<path fill-rule="evenodd" clip-rule="evenodd" d="M20.2612 15.0227C20.2602 15.0352 20.262 15.0477 20.2665 15.0595C20.2709 15.0713 20.278 15.0822 20.2873 15.0913C20.2965 15.1005 20.3077 15.1078 20.3202 15.1128C20.3327 15.1178 20.3461 15.1204 20.3597 15.1204C20.3733 15.1204 20.3868 15.1178 20.3992 15.1128C20.4117 15.1078 20.4229 15.1005 20.4321 15.0913C20.4414 15.0822 20.4485 15.0713 20.453 15.0595C20.4574 15.0477 20.4592 15.0352 20.4582 15.0227C20.4564 14.9998 20.4452 14.9784 20.4269 14.9628C20.4086 14.9472 20.3846 14.9386 20.3597 14.9386C20.3348 14.9386 20.3108 14.9472 20.2925 14.9628C20.2742 14.9784 20.2631 14.9998 20.2612 15.0227Z" fill="white" stroke="black" stroke-width="0.00709989"/>
<path fill-rule="evenodd" clip-rule="evenodd" d="M20.0783 14.8398C20.0773 14.8523 20.0791 14.8649 20.0836 14.8767C20.0881 14.8885 20.0952 14.8993 20.1044 14.9085C20.1137 14.9177 20.1249 14.925 20.1373 14.93C20.1498 14.935 20.1632 14.9376 20.1768 14.9376C20.1904 14.9376 20.2039 14.935 20.2164 14.93C20.2288 14.925 20.24 14.9177 20.2493 14.9085C20.2585 14.8993 20.2656 14.8885 20.2701 14.8767C20.2746 14.8649 20.2764 14.8523 20.2754 14.8398C20.2735 14.817 20.2623 14.7956 20.244 14.78C20.2258 14.7644 20.2018 14.7557 20.1768 14.7557C20.1519 14.7557 20.1279 14.7644 20.1097 14.78C20.0914 14.7956 20.0802 14.817 20.0783 14.8398Z" fill="white" stroke="black" stroke-width="0.00709989"/>
<path fill-rule="evenodd" clip-rule="evenodd" d="M19.8347 14.7179C19.8337 14.7304 19.8355 14.743 19.8399 14.7548C19.8444 14.7666 19.8515 14.7774 19.8608 14.7866C19.87 14.7958 19.8812 14.8031 19.8937 14.8081C19.9061 14.8131 19.9196 14.8157 19.9332 14.8157C19.9468 14.8157 19.9602 14.8131 19.9727 14.8081C19.9852 14.8031 19.9964 14.7958 20.0056 14.7866C20.0149 14.7774 20.022 14.7666 20.0264 14.7548C20.0309 14.743 20.0327 14.7304 20.0317 14.7179C20.0298 14.6951 20.0186 14.6737 20.0004 14.6581C19.9821 14.6425 19.9581 14.6338 19.9332 14.6338C19.9083 14.6338 19.8843 14.6425 19.866 14.6581C19.8477 14.6737 19.8365 14.6951 19.8347 14.7179Z" fill="white" stroke="black" stroke-width="0.00709989"/>
<path fill-rule="evenodd" clip-rule="evenodd" d="M19.5908 14.7039C19.5898 14.7164 19.5916 14.7289 19.596 14.7407C19.6005 14.7525 19.6076 14.7634 19.6169 14.7725C19.6261 14.7817 19.6373 14.789 19.6498 14.794C19.6622 14.799 19.6757 14.8016 19.6893 14.8016C19.7029 14.8016 19.7163 14.799 19.7288 14.794C19.7413 14.789 19.7525 14.7817 19.7617 14.7725C19.771 14.7634 19.7781 14.7525 19.7825 14.7407C19.787 14.7289 19.7888 14.7164 19.7878 14.7039C19.7859 14.681 19.7748 14.6596 19.7565 14.644C19.7382 14.6284 19.7142 14.6198 19.6893 14.6198C19.6644 14.6198 19.6404 14.6284 19.6221 14.644C19.6038 14.6596 19.5926 14.681 19.5908 14.7039Z" fill="white" stroke="black" stroke-width="0.00709989"/>
<path fill-rule="evenodd" clip-rule="evenodd" d="M19.3283 14.7086C19.3273 14.7211 19.3291 14.7336 19.3336 14.7454C19.3381 14.7572 19.3452 14.7681 19.3544 14.7772C19.3637 14.7864 19.3749 14.7937 19.3873 14.7987C19.3998 14.8037 19.4132 14.8063 19.4268 14.8063C19.4404 14.8063 19.4539 14.8037 19.4664 14.7987C19.4788 14.7937 19.49 14.7864 19.4993 14.7772C19.5085 14.7681 19.5156 14.7572 19.5201 14.7454C19.5246 14.7336 19.5264 14.7211 19.5254 14.7086C19.5235 14.6857 19.5123 14.6643 19.494 14.6487C19.4758 14.6331 19.4518 14.6245 19.4268 14.6245C19.4019 14.6245 19.3779 14.6331 19.3597 14.6487C19.3414 14.6643 19.3302 14.6857 19.3283 14.7086Z" fill="white" stroke="black" stroke-width="0.00709989"/>
<path fill-rule="evenodd" clip-rule="evenodd" d="M19.061 14.7461C19.06 14.7585 19.0618 14.7711 19.0663 14.7829C19.0707 14.7947 19.0778 14.8056 19.0871 14.8147C19.0963 14.8239 19.1075 14.8312 19.12 14.8362C19.1325 14.8412 19.1459 14.8438 19.1595 14.8438C19.1731 14.8438 19.1866 14.8412 19.199 14.8362C19.2115 14.8312 19.2227 14.8239 19.2319 14.8147C19.2412 14.8056 19.2483 14.7947 19.2528 14.7829C19.2573 14.7711 19.259 14.7585 19.258 14.7461C19.2562 14.7232 19.245 14.7018 19.2267 14.6862C19.2084 14.6706 19.1844 14.6619 19.1595 14.6619C19.1346 14.6619 19.1106 14.6706 19.0923 14.6862C19.0741 14.7018 19.0629 14.7232 19.061 14.7461Z" fill="white" stroke="black" stroke-width="0.00709989"/>
<path fill-rule="evenodd" clip-rule="evenodd" d="M18.8032 14.7789C18.8022 14.7914 18.804 14.8039 18.8084 14.8157C18.8129 14.8276 18.82 14.8384 18.8293 14.8476C18.8385 14.8567 18.8497 14.8641 18.8622 14.8691C18.8746 14.8741 18.8881 14.8767 18.9017 14.8767C18.9153 14.8767 18.9287 14.8741 18.9412 14.8691C18.9537 14.8641 18.9649 14.8567 18.9741 14.8476C18.9834 14.8384 18.9905 14.8276 18.9949 14.8157C18.9994 14.8039 19.0012 14.7914 19.0002 14.7789C18.9983 14.756 18.9872 14.7347 18.9689 14.719C18.9506 14.7034 18.9266 14.6948 18.9017 14.6948C18.8768 14.6948 18.8528 14.7034 18.8345 14.719C18.8162 14.7347 18.805 14.756 18.8032 14.7789Z" fill="white" stroke="black" stroke-width="0.00709989"/>
<path fill-rule="evenodd" clip-rule="evenodd" d="M18.5173 14.8211C18.5163 14.8336 18.5181 14.8461 18.5226 14.8579C18.527 14.8697 18.5341 14.8806 18.5434 14.8898C18.5526 14.8989 18.5638 14.9063 18.5763 14.9113C18.5888 14.9163 18.6022 14.9188 18.6158 14.9188C18.6294 14.9188 18.6429 14.9163 18.6553 14.9113C18.6678 14.9063 18.679 14.8989 18.6882 14.8898C18.6975 14.8806 18.7046 14.8697 18.7091 14.8579C18.7135 14.8461 18.7153 14.8336 18.7143 14.8211C18.7125 14.7982 18.7013 14.7768 18.683 14.7612C18.6647 14.7456 18.6407 14.737 18.6158 14.737C18.5909 14.737 18.5669 14.7456 18.5486 14.7612C18.5304 14.7768 18.5192 14.7982 18.5173 14.8211Z" fill="white" stroke="black" stroke-width="0.00709989"/>
<path fill-rule="evenodd" clip-rule="evenodd" d="M18.2734 14.8867C18.2724 14.8992 18.2742 14.9117 18.2787 14.9236C18.2831 14.9354 18.2902 14.9462 18.2995 14.9554C18.3087 14.9646 18.3199 14.9719 18.3324 14.9769C18.3449 14.9819 18.3583 14.9845 18.3719 14.9845C18.3855 14.9845 18.399 14.9819 18.4114 14.9769C18.4239 14.9719 18.4351 14.9646 18.4443 14.9554C18.4536 14.9462 18.4607 14.9354 18.4652 14.9236C18.4697 14.9117 18.4714 14.8992 18.4704 14.8867C18.4686 14.8638 18.4574 14.8425 18.4391 14.8269C18.4208 14.8113 18.3968 14.8026 18.3719 14.8026C18.347 14.8026 18.323 14.8113 18.3047 14.8269C18.2865 14.8425 18.2753 14.8638 18.2734 14.8867Z" fill="white" stroke="black" stroke-width="0.00709989"/>
<path fill-rule="evenodd" clip-rule="evenodd" d="M15.8243 16.1385C15.8253 16.151 15.8235 16.1635 15.819 16.1754C15.8145 16.1872 15.8074 16.198 15.7982 16.2072C15.7889 16.2164 15.7777 16.2237 15.7653 16.2287C15.7528 16.2337 15.7393 16.2363 15.7257 16.2363C15.7121 16.2363 15.6987 16.2337 15.6862 16.2287C15.6738 16.2237 15.6626 16.2164 15.6533 16.2072C15.6441 16.198 15.637 16.1872 15.6325 16.1754C15.628 16.1635 15.6262 16.151 15.6272 16.1385C15.6291 16.1156 15.6403 16.0943 15.6586 16.0787C15.6768 16.0631 15.7008 16.0544 15.7257 16.0544C15.7507 16.0544 15.7747 16.0631 15.7929 16.0787C15.8112 16.0943 15.8224 16.1156 15.8243 16.1385Z" fill="white" stroke="black" stroke-width="0.00709989"/>
<path fill-rule="evenodd" clip-rule="evenodd" d="M15.7212 15.9322C15.7222 15.9447 15.7205 15.9573 15.716 15.9691C15.7115 15.9809 15.7044 15.9917 15.6951 16.0009C15.6859 16.0101 15.6747 16.0174 15.6622 16.0224C15.6498 16.0274 15.6363 16.03 15.6227 16.03C15.6091 16.03 15.5957 16.0274 15.5832 16.0224C15.5707 16.0174 15.5595 16.0101 15.5503 16.0009C15.541 15.9917 15.534 15.9809 15.5295 15.9691C15.525 15.9573 15.5232 15.9447 15.5242 15.9322C15.5261 15.9094 15.5373 15.888 15.5555 15.8724C15.5738 15.8568 15.5978 15.8481 15.6227 15.8481C15.6476 15.8481 15.6716 15.8568 15.6899 15.8724C15.7082 15.888 15.7194 15.9094 15.7212 15.9322Z" fill="white" stroke="black" stroke-width="0.00709989"/>
<path fill-rule="evenodd" clip-rule="evenodd" d="M15.6744 15.7213C15.6754 15.7338 15.6736 15.7463 15.6691 15.7581C15.6646 15.7699 15.6575 15.7808 15.6483 15.7899C15.639 15.7991 15.6278 15.8064 15.6154 15.8114C15.6029 15.8164 15.5894 15.819 15.5758 15.819C15.5622 15.819 15.5488 15.8164 15.5363 15.8114C15.5239 15.8064 15.5127 15.7991 15.5034 15.7899C15.4942 15.7808 15.4871 15.7699 15.4826 15.7581C15.4781 15.7463 15.4763 15.7338 15.4773 15.7213C15.4792 15.6984 15.4904 15.677 15.5087 15.6614C15.5269 15.6458 15.5509 15.6371 15.5758 15.6371C15.6008 15.6371 15.6248 15.6458 15.643 15.6614C15.6613 15.677 15.6725 15.6984 15.6744 15.7213Z" fill="white" stroke="black" stroke-width="0.00709989"/>
<path fill-rule="evenodd" clip-rule="evenodd" d="M15.6368 15.4962C15.6378 15.5087 15.636 15.5213 15.6315 15.5331C15.627 15.5449 15.6199 15.5557 15.6107 15.5649C15.6014 15.5741 15.5902 15.5814 15.5778 15.5864C15.5653 15.5914 15.5518 15.594 15.5382 15.594C15.5246 15.594 15.5112 15.5914 15.4987 15.5864C15.4863 15.5814 15.4751 15.5741 15.4658 15.5649C15.4566 15.5557 15.4495 15.5449 15.445 15.5331C15.4405 15.5213 15.4387 15.5087 15.4397 15.4962C15.4416 15.4734 15.4528 15.452 15.4711 15.4364C15.4893 15.4208 15.5133 15.4121 15.5382 15.4121C15.5632 15.4121 15.5872 15.4208 15.6054 15.4364C15.6237 15.452 15.6349 15.4734 15.6368 15.4962Z" fill="white" stroke="black" stroke-width="0.00709989"/>
<path fill-rule="evenodd" clip-rule="evenodd" d="M15.6414 15.2524C15.6424 15.2649 15.6406 15.2775 15.6361 15.2893C15.6316 15.3011 15.6246 15.3119 15.6153 15.3211C15.6061 15.3303 15.5949 15.3376 15.5824 15.3426C15.5699 15.3476 15.5565 15.3502 15.5429 15.3502C15.5293 15.3502 15.5158 15.3476 15.5034 15.3426C15.4909 15.3376 15.4797 15.3303 15.4705 15.3211C15.4612 15.3119 15.4541 15.3011 15.4496 15.2893C15.4451 15.2775 15.4434 15.2649 15.4444 15.2524C15.4462 15.2296 15.4574 15.2082 15.4757 15.1926C15.494 15.177 15.518 15.1683 15.5429 15.1683C15.5678 15.1683 15.5918 15.177 15.6101 15.1926C15.6283 15.2082 15.6395 15.2296 15.6414 15.2524Z" fill="white" stroke="black" stroke-width="0.00709989"/>
<path fill-rule="evenodd" clip-rule="evenodd" d="M15.7259 15.0227C15.7269 15.0352 15.7251 15.0477 15.7206 15.0595C15.7161 15.0714 15.709 15.0822 15.6998 15.0914C15.6905 15.1005 15.6793 15.1079 15.6669 15.1129C15.6544 15.1179 15.641 15.1205 15.6274 15.1205C15.6138 15.1205 15.6003 15.1179 15.5878 15.1129C15.5754 15.1079 15.5642 15.1005 15.5549 15.0914C15.5457 15.0822 15.5386 15.0714 15.5341 15.0595C15.5296 15.0477 15.5278 15.0352 15.5288 15.0227C15.5307 14.9998 15.5419 14.9785 15.5602 14.9629C15.5784 14.9473 15.6024 14.9386 15.6274 14.9386C15.6523 14.9386 15.6763 14.9473 15.6945 14.9629C15.7128 14.9785 15.724 14.9998 15.7259 15.0227Z" fill="white" stroke="black" stroke-width="0.00709989"/>
<path fill-rule="evenodd" clip-rule="evenodd" d="M15.9041 14.8399C15.9051 14.8523 15.9033 14.8649 15.8988 14.8767C15.8943 14.8885 15.8873 14.8993 15.878 14.9085C15.8688 14.9177 15.8576 14.925 15.8451 14.93C15.8326 14.935 15.8192 14.9376 15.8056 14.9376C15.792 14.9376 15.7785 14.935 15.7661 14.93C15.7536 14.925 15.7424 14.9177 15.7332 14.9085C15.7239 14.8993 15.7168 14.8885 15.7123 14.8767C15.7078 14.8649 15.706 14.8523 15.7071 14.8399C15.7089 14.817 15.7201 14.7956 15.7384 14.78C15.7567 14.7644 15.7807 14.7557 15.8056 14.7557C15.8305 14.7557 15.8545 14.7644 15.8728 14.78C15.891 14.7956 15.9022 14.817 15.9041 14.8399Z" fill="white" stroke="black" stroke-width="0.00709989"/>
<path fill-rule="evenodd" clip-rule="evenodd" d="M16.1573 14.718C16.1583 14.7304 16.1565 14.743 16.152 14.7548C16.1475 14.7666 16.1404 14.7774 16.1312 14.7866C16.1219 14.7958 16.1107 14.8031 16.0983 14.8081C16.0858 14.8131 16.0723 14.8157 16.0588 14.8157C16.0452 14.8157 16.0317 14.8131 16.0192 14.8081C16.0068 14.8031 15.9956 14.7958 15.9863 14.7866C15.9771 14.7774 15.97 14.7666 15.9655 14.7548C15.961 14.743 15.9592 14.7304 15.9602 14.718C15.9621 14.6951 15.9733 14.6737 15.9916 14.6581C16.0098 14.6425 16.0338 14.6338 16.0588 14.6338C16.0837 14.6338 16.1077 14.6425 16.1259 14.6581C16.1442 14.6737 16.1554 14.6951 16.1573 14.718Z" fill="white" stroke="black" stroke-width="0.00709989"/>
<path fill-rule="evenodd" clip-rule="evenodd" d="M16.3963 14.7039C16.3973 14.7164 16.3955 14.7289 16.391 14.7407C16.3865 14.7526 16.3794 14.7634 16.3702 14.7726C16.3609 14.7817 16.3497 14.7891 16.3373 14.7941C16.3248 14.7991 16.3114 14.8017 16.2978 14.8017C16.2842 14.8017 16.2707 14.7991 16.2583 14.7941C16.2458 14.7891 16.2346 14.7817 16.2253 14.7726C16.2161 14.7634 16.209 14.7526 16.2045 14.7407C16.2 14.7289 16.1982 14.7164 16.1993 14.7039C16.2011 14.681 16.2123 14.6597 16.2306 14.6441C16.2488 14.6285 16.2728 14.6198 16.2978 14.6198C16.3227 14.6198 16.3467 14.6285 16.365 14.6441C16.3832 14.6597 16.3944 14.681 16.3963 14.7039Z" fill="white" stroke="black" stroke-width="0.00709989"/>
<path fill-rule="evenodd" clip-rule="evenodd" d="M16.659 14.7086C16.66 14.7211 16.6582 14.7336 16.6537 14.7454C16.6492 14.7572 16.6421 14.7681 16.6329 14.7772C16.6236 14.7864 16.6124 14.7937 16.6 14.7987C16.5875 14.8037 16.5741 14.8063 16.5605 14.8063C16.5469 14.8063 16.5334 14.8037 16.521 14.7987C16.5085 14.7937 16.4973 14.7864 16.488 14.7772C16.4788 14.7681 16.4717 14.7572 16.4672 14.7454C16.4627 14.7336 16.4609 14.7211 16.4619 14.7086C16.4638 14.6857 16.475 14.6643 16.4933 14.6487C16.5115 14.6331 16.5355 14.6245 16.5605 14.6245C16.5854 14.6245 16.6094 14.6331 16.6277 14.6487C16.6459 14.6643 16.6571 14.6857 16.659 14.7086Z" fill="white" stroke="black" stroke-width="0.00709989"/>
<path fill-rule="evenodd" clip-rule="evenodd" d="M16.9261 14.7461C16.9271 14.7586 16.9253 14.7711 16.9208 14.7829C16.9163 14.7947 16.9092 14.8056 16.9 14.8148C16.8907 14.8239 16.8795 14.8313 16.8671 14.8363C16.8546 14.8413 16.8411 14.8438 16.8276 14.8438C16.814 14.8438 16.8005 14.8413 16.788 14.8363C16.7756 14.8313 16.7644 14.8239 16.7551 14.8148C16.7459 14.8056 16.7388 14.7947 16.7343 14.7829C16.7298 14.7711 16.728 14.7586 16.729 14.7461C16.7309 14.7232 16.7421 14.7018 16.7604 14.6862C16.7786 14.6706 16.8026 14.662 16.8276 14.662C16.8525 14.662 16.8765 14.6706 16.8947 14.6862C16.913 14.7018 16.9242 14.7232 16.9261 14.7461Z" fill="white" stroke="black" stroke-width="0.00709989"/>
<path fill-rule="evenodd" clip-rule="evenodd" d="M17.1888 14.7789C17.1898 14.7914 17.188 14.8039 17.1835 14.8157C17.179 14.8276 17.1719 14.8384 17.1627 14.8476C17.1534 14.8567 17.1422 14.8641 17.1298 14.8691C17.1173 14.8741 17.1038 14.8767 17.0902 14.8767C17.0766 14.8767 17.0632 14.8741 17.0507 14.8691C17.0383 14.8641 17.0271 14.8567 17.0178 14.8476C17.0086 14.8384 17.0015 14.8276 16.997 14.8157C16.9925 14.8039 16.9907 14.7914 16.9917 14.7789C16.9936 14.756 17.0048 14.7347 17.0231 14.719C17.0413 14.7034 17.0653 14.6948 17.0902 14.6948C17.1152 14.6948 17.1392 14.7034 17.1574 14.719C17.1757 14.7347 17.1869 14.756 17.1888 14.7789Z" fill="white" stroke="black" stroke-width="0.00709989"/>
<path fill-rule="evenodd" clip-rule="evenodd" d="M17.47 14.8211C17.471 14.8336 17.4692 14.8461 17.4647 14.858C17.4603 14.8698 17.4532 14.8806 17.4439 14.8898C17.4347 14.899 17.4235 14.9063 17.411 14.9113C17.3985 14.9163 17.3851 14.9189 17.3715 14.9189C17.3579 14.9189 17.3444 14.9163 17.332 14.9113C17.3195 14.9063 17.3083 14.899 17.2991 14.8898C17.2898 14.8806 17.2827 14.8698 17.2782 14.858C17.2738 14.8461 17.272 14.8336 17.273 14.8211C17.2748 14.7983 17.286 14.7769 17.3043 14.7613C17.3226 14.7457 17.3466 14.737 17.3715 14.737C17.3964 14.737 17.4204 14.7457 17.4387 14.7613C17.457 14.7769 17.4681 14.7983 17.47 14.8211Z" fill="white" stroke="black" stroke-width="0.00709989"/>
<path fill-rule="evenodd" clip-rule="evenodd" d="M17.7137 14.8868C17.7147 14.8992 17.7129 14.9118 17.7084 14.9236C17.7039 14.9354 17.6968 14.9462 17.6876 14.9554C17.6783 14.9646 17.6671 14.9719 17.6547 14.9769C17.6422 14.9819 17.6287 14.9845 17.6151 14.9845C17.6016 14.9845 17.5881 14.9819 17.5756 14.9769C17.5632 14.9719 17.552 14.9646 17.5427 14.9554C17.5335 14.9462 17.5264 14.9354 17.5219 14.9236C17.5174 14.9118 17.5156 14.8992 17.5166 14.8868C17.5185 14.8639 17.5297 14.8425 17.548 14.8269C17.5662 14.8113 17.5902 14.8026 17.6151 14.8026C17.6401 14.8026 17.6641 14.8113 17.6823 14.8269C17.7006 14.8425 17.7118 14.8639 17.7137 14.8868Z" fill="white" stroke="black" stroke-width="0.00709989"/>
<path fill-rule="evenodd" clip-rule="evenodd" d="M15.9602 16.3214C15.9613 16.3339 15.9595 16.3464 15.955 16.3582C15.9505 16.3701 15.9434 16.3809 15.9342 16.3901C15.9249 16.3992 15.9137 16.4066 15.9012 16.4116C15.8888 16.4166 15.8753 16.4192 15.8617 16.4192C15.8481 16.4192 15.8347 16.4166 15.8222 16.4116C15.8098 16.4066 15.7986 16.3992 15.7893 16.3901C15.7801 16.3809 15.773 16.3701 15.7685 16.3582C15.764 16.3464 15.7622 16.3339 15.7632 16.3214C15.7651 16.2985 15.7763 16.2771 15.7945 16.2615C15.8128 16.2459 15.8368 16.2373 15.8617 16.2373C15.8867 16.2373 15.9107 16.2459 15.9289 16.2615C15.9472 16.2771 15.9584 16.2985 15.9602 16.3214Z" fill="white" stroke="black" stroke-width="0.00709989"/>
<path fill-rule="evenodd" clip-rule="evenodd" d="M16.0301 16.3288C16.0301 16.3288 15.6527 16.0631 15.6427 15.424C15.6371 15.0562 15.8336 14.7905 16.3254 14.7905C17.0136 14.7905 17.9965 15.0618 17.9965 15.0618V15.1522C17.9965 15.1522 17.21 14.8809 16.3248 14.8809C15.9319 14.8809 15.7348 15.1466 15.7348 15.4184C15.7348 15.871 16.1289 16.3293 16.1289 16.3293V17.0532H16.0301V16.3288Z" fill="#FFF100" stroke="black" stroke-width="0.00709989"/>
<path fill-rule="evenodd" clip-rule="evenodd" d="M16.7153 16.6641C16.7153 16.6641 16.7436 16.5953 16.8464 16.5953C16.9163 16.5953 16.9774 16.6641 16.9774 16.733V16.8709H17.043V16.733C17.043 16.6641 17.1085 16.5953 17.1739 16.5953C17.2723 16.5953 17.305 16.6641 17.305 16.6641C17.305 16.6641 17.305 16.4574 17.1739 16.4574C17.0757 16.4574 17.043 16.5262 17.043 16.5262C17.043 16.5262 17.0757 16.4229 17.0757 16.3195C17.0757 16.216 17.0103 16.1471 17.0103 16.1471C17.0103 16.1603 16.9446 16.2162 16.9446 16.3195C16.9446 16.4227 16.9774 16.5262 16.9774 16.5262C16.9774 16.5262 16.9446 16.4574 16.8464 16.4574C16.7153 16.4574 16.7153 16.6641 16.7153 16.6641Z" fill="#FFF100" stroke="black" stroke-width="0.00569241"/>
<path fill-rule="evenodd" clip-rule="evenodd" d="M18.6799 16.6641C18.6799 16.6641 18.7082 16.5953 18.811 16.5953C18.8809 16.5953 18.942 16.6641 18.942 16.733V16.8709H19.0076V16.733C19.0076 16.6641 19.0731 16.5953 19.1385 16.5953C19.2369 16.5953 19.2696 16.6641 19.2696 16.6641C19.2696 16.6641 19.2696 16.4574 19.1385 16.4574C19.0403 16.4574 19.0076 16.5262 19.0076 16.5262C19.0076 16.5262 19.0403 16.4229 19.0403 16.3195C19.0403 16.216 18.9749 16.1471 18.9749 16.1471C18.9749 16.1603 18.9092 16.2162 18.9092 16.3195C18.9092 16.4227 18.942 16.5262 18.942 16.5262C18.942 16.5262 18.9092 16.4574 18.811 16.4574C18.6799 16.4574 18.6799 16.6641 18.6799 16.6641Z" fill="#FFF100" stroke="black" stroke-width="0.00569241"/>
<path fill-rule="evenodd" clip-rule="evenodd" d="M16.03 17.5963V16.7814C16.03 16.7814 16.2265 17.0532 16.5218 17.0532C16.7632 17.0532 17.0135 16.691 17.0135 16.691C17.0135 16.691 17.2438 16.9628 17.5052 16.9628C17.7383 16.9628 17.9964 16.6123 17.9964 16.6123C17.9964 16.6123 18.2362 16.9628 18.4882 16.9628C18.7407 16.9628 18.9799 16.691 18.9799 16.691C18.9799 16.691 19.2369 17.0532 19.5699 17.0532C19.8646 17.0532 19.9634 16.7814 19.9634 16.7814V17.5963H16.03Z" fill="#FFF100" stroke="black" stroke-width="0.00709989"/>
<path fill-rule="evenodd" clip-rule="evenodd" d="M16.0288 17.596V16.9628C16.0288 16.9628 16.6185 17.1431 16.6185 17.596H16.0288Z" fill="#FFF100" stroke="black" stroke-width="0.00709989"/>
<path fill-rule="evenodd" clip-rule="evenodd" d="M19.958 17.596V16.9628C19.958 16.9628 19.3683 17.1431 19.3683 17.596H19.958Z" fill="#FFF100" stroke="black" stroke-width="0.00709989"/>
<path fill-rule="evenodd" clip-rule="evenodd" d="M16.4236 17.5959C16.4236 17.143 17.0133 16.857 17.0133 16.857C17.0133 16.857 17.603 17.143 17.603 17.5959H16.4236Z" fill="#FFF100" stroke="black" stroke-width="0.00709989"/>
<path fill-rule="evenodd" clip-rule="evenodd" d="M18.3926 17.5959C18.3926 17.143 18.9823 16.857 18.9823 16.857C18.9823 16.857 19.572 17.143 19.572 17.5959H18.3926Z" fill="#FFF100" stroke="black" stroke-width="0.00709989"/>
<path fill-rule="evenodd" clip-rule="evenodd" d="M17.3093 17.5965C17.3093 17.1441 17.9978 16.7825 17.9978 16.7825C17.9978 16.7825 18.6856 17.1441 18.6856 17.5965H17.3099H17.3093Z" fill="#FFF100" stroke="black" stroke-width="0.00709989"/>
<path fill-rule="evenodd" clip-rule="evenodd" d="M20.0561 17.5958C19.8618 17.5054 19.1452 17.415 17.9912 17.415C16.8373 17.415 16.0707 17.5054 15.8759 17.5958C15.6817 17.6863 15.6817 17.8676 15.8759 17.9581C16.0702 18.0485 16.8378 18.1389 17.9912 18.1389C19.1447 18.1389 19.8618 18.0485 20.0561 17.9581C20.2503 17.8676 20.2503 17.6863 20.0561 17.5958Z" fill="white" stroke="black" stroke-width="0.00705959"/>
<path fill-rule="evenodd" clip-rule="evenodd" d="M19.9626 17.9601C19.9626 18.143 18.3217 18.143 17.9935 18.143C17.6372 18.143 16.0291 18.1899 16.0291 17.9554C16.0291 17.7773 17.6512 17.7773 17.9982 17.7773C18.3357 17.7773 19.9626 17.8148 19.9626 17.9601Z" fill="#808080"/>
<path fill-rule="evenodd" clip-rule="evenodd" d="M16.2213 17.3085C16.2181 17.3741 16.1869 17.41 16.1275 17.4163C16.0384 17.4257 16.0291 17.3694 16.0291 17.3085C16.0353 17.2428 16.0666 17.2069 16.1228 17.2006C16.1791 17.2006 16.226 17.2475 16.226 17.3085H16.2213ZM19.9626 17.3085C19.9626 17.3694 19.9157 17.4163 19.8594 17.4163C19.8032 17.41 19.7719 17.3741 19.7657 17.3085C19.7719 17.2428 19.8032 17.2069 19.8594 17.2006C19.9219 17.2069 19.9548 17.2428 19.9579 17.3085H19.9626Z" fill="#CC0000"/>
<path fill-rule="evenodd" clip-rule="evenodd" d="M18.1903 17.2568C18.1903 17.313 18.1012 17.3599 17.9934 17.3599C17.8904 17.3599 17.7966 17.313 17.7966 17.2521C17.7966 17.1912 17.8904 17.1443 17.9934 17.1443C18.0965 17.1443 18.1903 17.1912 18.1903 17.2521V17.2568Z" fill="black"/>
<path fill-rule="evenodd" clip-rule="evenodd" d="M19.1327 17.2569C19.1327 17.3131 19.0671 17.36 18.9874 17.36C18.9077 17.36 18.8421 17.3131 18.8421 17.2522C18.8421 17.1912 18.9077 17.1443 18.9827 17.1443C19.0577 17.1443 19.1327 17.1912 19.1327 17.2522V17.2569ZM17.1121 17.2569C17.1121 17.3131 17.0464 17.36 16.962 17.36C16.8776 17.36 16.812 17.3131 16.812 17.2522C16.812 17.1912 16.8776 17.1443 16.962 17.1443C17.0464 17.1443 17.1121 17.1912 17.1121 17.2522V17.2569Z" fill="#006300"/>
<path fill-rule="evenodd" clip-rule="evenodd" d="M17.5989 16.6324C17.5989 16.6324 17.7112 16.4777 17.8237 16.4777H17.9359V16.5807C17.9359 16.736 17.7676 16.7879 17.7676 16.7879H18.2167C18.2167 16.7879 18.0481 16.736 18.0481 16.5807V16.4777H18.1606C18.2728 16.4777 18.385 16.633 18.385 16.633V16.2189C18.385 16.2189 18.2728 16.3742 18.1606 16.3742H18.0481V16.2706C18.0481 16.1156 18.2167 16.064 18.2167 16.064H17.7673C17.7673 16.064 17.9356 16.1156 17.9356 16.2706V16.3742H17.8234C17.7108 16.3742 17.5986 16.2189 17.5986 16.2189V16.6327L17.5989 16.6324Z" fill="#FFF100" stroke="black" stroke-width="0.00669398"/>
<path fill-rule="evenodd" clip-rule="evenodd" d="M16.0266 16.9624H16.139C16.139 16.9624 16.0547 16.9172 16.0547 16.7814V16.6913H16.1108C16.1671 16.6913 16.2233 16.8271 16.2233 16.8271V16.4648C16.2233 16.4648 16.1671 16.6006 16.1108 16.6006H16.0547V16.51C16.0547 16.3744 16.139 16.3292 16.139 16.3292H16.0266V16.9624Z" fill="#FFF100" stroke="black" stroke-width="0.00664268"/>
<path fill-rule="evenodd" clip-rule="evenodd" d="M19.9602 16.9624H19.8478C19.8478 16.9624 19.9321 16.9172 19.9321 16.7814V16.6913H19.876C19.8197 16.6913 19.7635 16.8271 19.7635 16.8271V16.4648C19.7635 16.4648 19.8197 16.6006 19.876 16.6006H19.9321V16.51C19.9321 16.3744 19.8478 16.3292 19.8478 16.3292H19.9602V16.9624Z" fill="#FFF100" stroke="black" stroke-width="0.00664268"/>
<path fill-rule="evenodd" clip-rule="evenodd" d="M18.0947 16.4197C18.0947 16.4437 18.0843 16.4667 18.0659 16.4836C18.0475 16.5006 18.0225 16.5101 17.9964 16.5101C17.9704 16.5101 17.9454 16.5006 17.927 16.4836C17.9085 16.4667 17.8982 16.4437 17.8982 16.4197C17.8982 16.3957 17.9085 16.3727 17.927 16.3558C17.9454 16.3388 17.9704 16.3293 17.9964 16.3293C18.0225 16.3293 18.0475 16.3388 18.0659 16.3558C18.0843 16.3727 18.0947 16.3957 18.0947 16.4197Z" fill="white" stroke="black" stroke-width="0.00709989"/>
<path fill-rule="evenodd" clip-rule="evenodd" d="M17.5989 14.7289C17.5989 14.7289 17.7112 14.5743 17.8237 14.5743H17.9359V14.6773C17.9359 14.8325 17.7676 14.8845 17.7676 14.8845H18.2167C18.2167 14.8845 18.0481 14.8325 18.0481 14.6773V14.5743H18.1606C18.2728 14.5743 18.385 14.7295 18.385 14.7295V14.3154C18.385 14.3154 18.2728 14.4707 18.1606 14.4707H18.0481V14.3671C18.0481 14.2121 18.2167 14.1605 18.2167 14.1605H17.7673C17.7673 14.1605 17.9356 14.2121 17.9356 14.3671V14.4707H17.8234C17.7108 14.4707 17.5986 14.3154 17.5986 14.3154V14.7292L17.5989 14.7289Z" fill="#FFF100" stroke="black" stroke-width="0.00669398"/>
<path fill-rule="evenodd" clip-rule="evenodd" d="M18.1039 14.5303C18.1039 14.5543 18.0936 14.5773 18.0752 14.5942C18.0567 14.6112 18.0318 14.6207 18.0057 14.6207C17.9797 14.6207 17.9547 14.6112 17.9362 14.5942C17.9178 14.5773 17.9075 14.5543 17.9075 14.5303C17.9075 14.5063 17.9178 14.4833 17.9362 14.4664C17.9547 14.4494 17.9797 14.4399 18.0057 14.4399C18.0318 14.4399 18.0567 14.4494 18.0752 14.4664C18.0936 14.4833 18.1039 14.5063 18.1039 14.5303Z" fill="white" stroke="black" stroke-width="0.00709989"/>
<path fill-rule="evenodd" clip-rule="evenodd" d="M17.7999 14.8813H18.1932V15.1529H17.7993L17.7999 14.8813Z" fill="#FFF100" stroke="black" stroke-width="0.00709989"/>
<path fill-rule="evenodd" clip-rule="evenodd" d="M17.7999 15.0233H18.1932V16.0574H17.7993L17.7999 15.0233Z" fill="#FFF100" stroke="black" stroke-width="0.00709989"/>
<path fill-rule="evenodd" clip-rule="evenodd" d="M18.0889 15.876C18.0899 15.8885 18.0881 15.901 18.0836 15.9128C18.0792 15.9246 18.0721 15.9355 18.0628 15.9447C18.0536 15.9538 18.0424 15.9612 18.0299 15.9662C18.0174 15.9712 18.004 15.9737 17.9904 15.9737C17.9768 15.9737 17.9633 15.9712 17.9509 15.9662C17.9384 15.9612 17.9272 15.9538 17.918 15.9447C17.9087 15.9355 17.9016 15.9246 17.8971 15.9128C17.8927 15.901 17.8909 15.8885 17.8919 15.876C17.8937 15.8531 17.9049 15.8317 17.9232 15.8161C17.9415 15.8005 17.9655 15.7919 17.9904 15.7919C18.0153 15.7919 18.0393 15.8005 18.0576 15.8161C18.0759 15.8317 18.087 15.8531 18.0889 15.876Z" fill="white" stroke="black" stroke-width="0.00709989"/>
<path fill-rule="evenodd" clip-rule="evenodd" d="M18.0889 15.6463C18.0899 15.6587 18.0881 15.6713 18.0836 15.6831C18.0792 15.6949 18.0721 15.7057 18.0628 15.7149C18.0536 15.7241 18.0424 15.7314 18.0299 15.7364C18.0174 15.7414 18.004 15.744 17.9904 15.744C17.9768 15.744 17.9633 15.7414 17.9509 15.7364C17.9384 15.7314 17.9272 15.7241 17.918 15.7149C17.9087 15.7057 17.9016 15.6949 17.8971 15.6831C17.8927 15.6713 17.8909 15.6587 17.8919 15.6463C17.8937 15.6234 17.9049 15.602 17.9232 15.5864C17.9415 15.5708 17.9655 15.5621 17.9904 15.5621C18.0153 15.5621 18.0393 15.5708 18.0576 15.5864C18.0759 15.602 18.087 15.6234 18.0889 15.6463Z" fill="white" stroke="black" stroke-width="0.00709989"/>
<path fill-rule="evenodd" clip-rule="evenodd" d="M18.0889 15.4306C18.0899 15.4431 18.0881 15.4556 18.0836 15.4674C18.0792 15.4793 18.0721 15.4901 18.0628 15.4993C18.0536 15.5084 18.0424 15.5158 18.0299 15.5208C18.0174 15.5258 18.004 15.5284 17.9904 15.5284C17.9768 15.5284 17.9633 15.5258 17.9509 15.5208C17.9384 15.5158 17.9272 15.5084 17.918 15.4993C17.9087 15.4901 17.9016 15.4793 17.8971 15.4674C17.8927 15.4556 17.8909 15.4431 17.8919 15.4306C17.8937 15.4077 17.9049 15.3864 17.9232 15.3708C17.9415 15.3552 17.9655 15.3465 17.9904 15.3465C18.0153 15.3465 18.0393 15.3552 18.0576 15.3708C18.0759 15.3864 18.087 15.4077 18.0889 15.4306Z" fill="white" stroke="black" stroke-width="0.00709989"/>
<path fill-rule="evenodd" clip-rule="evenodd" d="M18.0889 15.2009C18.0899 15.2133 18.0881 15.2259 18.0836 15.2377C18.0792 15.2495 18.0721 15.2603 18.0628 15.2695C18.0536 15.2787 18.0424 15.286 18.0299 15.291C18.0174 15.296 18.004 15.2986 17.9904 15.2986C17.9768 15.2986 17.9633 15.296 17.9509 15.291C17.9384 15.286 17.9272 15.2787 17.918 15.2695C17.9087 15.2603 17.9016 15.2495 17.8971 15.2377C17.8927 15.2259 17.8909 15.2133 17.8919 15.2009C17.8937 15.178 17.9049 15.1566 17.9232 15.141C17.9415 15.1254 17.9655 15.1167 17.9904 15.1167C18.0153 15.1167 18.0393 15.1254 18.0576 15.141C18.0759 15.1566 18.087 15.178 18.0889 15.2009Z" fill="white" stroke="black" stroke-width="0.00709989"/>
<path fill-rule="evenodd" clip-rule="evenodd" d="M18.2046 17.5991C18.2046 17.6413 18.1108 17.6741 17.9983 17.6741C17.8858 17.6741 17.8061 17.6413 17.8061 17.5991C17.8061 17.5569 17.8952 17.5288 18.003 17.5288C18.1108 17.5288 18.2046 17.5616 18.2046 17.5991ZM20.0143 17.7773C20.0049 17.8101 19.9065 17.8101 19.7939 17.782C19.6861 17.7585 19.6064 17.7163 19.6158 17.6882C19.6252 17.6601 19.7283 17.6554 19.8361 17.6882C19.944 17.7117 20.0237 17.7492 20.0143 17.782V17.7773ZM19.2548 17.6554C19.2548 17.6929 19.161 17.7163 19.0438 17.7117C18.936 17.7023 18.8469 17.6648 18.8469 17.6273C18.8516 17.5944 18.95 17.571 19.0626 17.5804C19.1751 17.5898 19.2642 17.6226 19.2548 17.6554ZM15.9307 17.7773C15.9401 17.8101 16.0386 17.8101 16.1464 17.782C16.2589 17.7585 16.3339 17.7163 16.3246 17.6882C16.3152 17.6601 16.2167 17.6554 16.1042 17.6882C16.0011 17.7117 15.9167 17.7492 15.9307 17.782V17.7773ZM16.7278 17.6413C16.7278 17.6788 16.8215 17.6976 16.934 17.6882C17.0466 17.6788 17.1403 17.6507 17.131 17.6085C17.131 17.5757 17.0372 17.5522 16.92 17.5616C16.8075 17.5663 16.7184 17.5991 16.7231 17.6413H16.7278Z" fill="black"/>
<path d="M-0.000244141 0.0131378H12.0019V12.0153H-0.000244141V0.0131378Z" fill="#012169"/>
<path d="M12.0019 0.0131378V1.51341L7.548 6.01423L12.0019 10.3978V12.0153H10.4313L5.95396 7.60827L1.5938 12.0153H-0.000244141V10.4213L4.35992 6.03767L-0.000244141 1.74783V0.0131378H1.45315L5.95396 4.42019L10.3141 0.0131378H12.0019Z" fill="white"/>
<path d="M4.31304 7.60827L4.5709 8.40529L0.98431 12.0153H-0.000244141V11.945L4.31304 7.60827ZM7.21982 7.32697L8.48567 7.5145L12.0019 10.9604V12.0153L7.21982 7.32697ZM12.0019 0.0131378L7.50112 4.60772L7.40735 3.57629L10.9236 0.0131378H12.0019ZM-0.000244141 0.0365796L4.52402 4.46707L3.14095 4.27954L-0.000244141 1.16178V0.0365796Z" fill="#C8102E"/>
<path d="M4.12551 0.0131378V12.0153H7.87619V0.0131378H4.12551ZM-0.000244141 4.13889V7.88957H12.0019V4.13889H-0.000244141Z" fill="white"/>
<path d="M-0.000244141 4.88903V7.13943H12.0019V4.88903H-0.000244141ZM4.87564 0.0131378V12.0153H7.12605V0.0131378H4.87564Z" fill="#C8102E"/>
</g>
<defs>
<clipPath id="clip0_720_53463">
<rect width="24.0044" height="24.0044" fill="white" transform="translate(0 0.013092)"/>
</clipPath>
</defs>
</svg>
