<svg width="24" height="25" viewBox="0 0 24 25" fill="none" xmlns="http://www.w3.org/2000/svg">
<g clip-path="url(#clip0_720_53466)">
<path d="M0.00488281 0.013092H24.0093V24.0175H0.00488281V0.013092Z" fill="#000066"/>
<path d="M13.6459 5.85899L22.3195 5.82782L22.3022 13.5523C22.3022 13.5523 22.607 14.73 18.6651 16.5139C20.0818 16.3685 21.6267 14.8582 21.6267 14.8582C21.6267 14.8582 22.2537 14.0511 22.562 14.5014C22.8703 14.9517 23.1543 15.1803 23.3794 15.357C23.6046 15.5337 23.7813 16.0151 23.4453 16.3685C23.1058 16.7252 22.5758 16.7703 22.4303 16.3373C22.2052 16.4516 20.8231 18.1246 17.9896 18.2043C15.1077 18.1558 13.5316 16.32 13.5316 16.32C13.5316 16.32 13.1471 16.9331 12.5963 16.4516C12.0664 15.8212 12.4682 15.4193 12.4682 15.4193C12.4682 15.4193 12.9185 15.163 13.0501 14.9864C13.2579 14.7439 13.3238 14.4217 13.6736 14.4217C14.0962 14.4564 14.2555 14.7924 14.2555 14.7924C14.2555 14.7924 15.7035 16.32 17.2657 16.5139C13.7429 14.8236 13.6113 13.7775 13.6286 13.5211L13.6459 5.85899Z" fill="white"/>
<path d="M13.8539 6.07031L22.1257 6.02182V13.4553C22.143 14.4252 20.515 15.4055 17.9725 16.6594C15.3503 15.3085 13.8366 14.4876 13.8228 13.438L13.8539 6.07031Z" fill="#006129" stroke="black" stroke-width="0.065814"/>
<path d="M14.9788 7.16799L15.4635 6.45131L15.9586 7.17145" stroke="#FFC72C" stroke-width="0.065814"/>
<path d="M15.5646 6.8982C15.5646 6.92392 15.5544 6.94859 15.5362 6.96678C15.518 6.98497 15.4933 6.99519 15.4676 6.99519C15.4419 6.99519 15.4172 6.98497 15.399 6.96678C15.3808 6.94859 15.3706 6.92392 15.3706 6.8982C15.3706 6.87247 15.3808 6.8478 15.399 6.82962C15.4172 6.81143 15.4419 6.80121 15.4676 6.80121C15.4933 6.80121 15.518 6.81143 15.5362 6.82962C15.5544 6.8478 15.5646 6.87247 15.5646 6.8982Z" fill="#FFC72C" stroke="black" stroke-width="0.0311751"/>
<path d="M15.0688 7.69803H15.827C15.827 7.69803 15.8374 7.60108 15.7474 7.54223C16.1455 7.48683 16.0417 7.14061 16.3706 7.11983C16.4398 7.13022 16.1975 7.26871 16.1975 7.26871C16.1975 7.26871 16.0001 7.4072 16.0936 7.47991C16.1629 7.53876 16.1975 7.44528 16.2044 7.37604C16.2113 7.30679 16.5264 7.26179 16.4814 7.06444C16.4087 6.90172 15.9724 7.17523 15.9724 7.17523L15.6608 7.17177C15.6401 7.13715 15.557 6.99866 15.467 6.99866C15.3631 6.99866 15.2869 7.17177 15.2869 7.17177H14.5841C14.5841 7.17177 14.5599 7.35527 14.9165 7.38989C14.9961 7.49375 15.0584 7.52145 15.1311 7.54915C15.085 7.58608 15.0642 7.63571 15.0688 7.69803ZM15.1242 7.54569H15.7543H15.1242Z" fill="#FFC72C"/>
<path d="M15.1242 7.54569H15.7543M15.0688 7.69803H15.827C15.827 7.69803 15.8374 7.60108 15.7474 7.54223C16.1455 7.48683 16.0417 7.14061 16.3706 7.11983C16.4398 7.13022 16.1975 7.26871 16.1975 7.26871C16.1975 7.26871 16.0001 7.4072 16.0936 7.47991C16.1629 7.53876 16.1975 7.44528 16.2044 7.37604C16.2113 7.30679 16.5264 7.26179 16.4814 7.06444C16.4087 6.90172 15.9724 7.17523 15.9724 7.17523L15.6608 7.17177C15.6401 7.13715 15.557 6.99866 15.467 6.99866C15.3631 6.99866 15.2869 7.17177 15.2869 7.17177H14.5841C14.5841 7.17177 14.5599 7.35527 14.9165 7.38989C14.9961 7.49375 15.0584 7.52145 15.1311 7.54915C15.085 7.58608 15.0642 7.63571 15.0688 7.69803Z" stroke="black" stroke-width="0.0311751"/>
<path d="M14.8372 7.17532C14.8372 7.17532 14.8856 7.46961 15.1211 7.53886L14.8372 7.17532Z" fill="#FFC72C"/>
<path d="M14.8372 7.17532C14.8372 7.17532 14.8856 7.46961 15.1211 7.53886" stroke="black" stroke-width="0.0311751"/>
<path d="M14.7988 7.16799C14.8195 7.0572 14.8645 7.03642 14.9095 6.89101C14.9165 6.75252 14.7988 6.76983 14.8334 6.68328C14.8934 6.58172 14.8645 6.49286 14.7468 6.41669C14.7711 6.54479 14.5945 6.66597 14.5945 6.76983C14.5945 6.8737 14.6845 6.85293 14.6741 7.01219C14.681 7.10221 14.6499 7.08143 14.6395 7.16799H14.7988Z" fill="url(#paint0_linear_720_53466)" stroke="black" stroke-width="0.0311751"/>
<path d="M15.5566 6.47166C15.5566 6.49542 15.5472 6.5182 15.5304 6.535C15.5136 6.5518 15.4908 6.56124 15.467 6.56124C15.4433 6.56124 15.4205 6.5518 15.4037 6.535C15.3869 6.5182 15.3774 6.49542 15.3774 6.47166C15.3774 6.4479 15.3869 6.42512 15.4037 6.40832C15.4205 6.39152 15.4433 6.38208 15.467 6.38208C15.4908 6.38208 15.5136 6.39152 15.5304 6.40832C15.5472 6.42512 15.5566 6.4479 15.5566 6.47166Z" fill="#FFC72C" stroke="black" stroke-width="0.0311751"/>
<path d="M14.9519 8.59864L15.4366 7.88196L15.9317 8.6021" stroke="#FFC72C" stroke-width="0.065814"/>
<path d="M15.5375 8.32883C15.5375 8.35455 15.5273 8.37922 15.5091 8.39741C15.4909 8.4156 15.4662 8.42582 15.4405 8.42582C15.4148 8.42582 15.3901 8.4156 15.3719 8.39741C15.3537 8.37922 15.3435 8.35455 15.3435 8.32883C15.3435 8.30311 15.3537 8.27844 15.3719 8.26025C15.3901 8.24206 15.4148 8.23184 15.4405 8.23184C15.4662 8.23184 15.4909 8.24206 15.5091 8.26025C15.5273 8.27844 15.5375 8.30311 15.5375 8.32883Z" fill="#FFC72C" stroke="black" stroke-width="0.0311751"/>
<path d="M15.0419 9.12841H15.8002C15.8002 9.12841 15.8106 9.03147 15.7205 8.97261C16.1187 8.91722 16.0148 8.571 16.3437 8.55022C16.413 8.56061 16.1706 8.6991 16.1706 8.6991C16.1706 8.6991 15.9733 8.83759 16.0668 8.91029C16.136 8.96915 16.1706 8.87567 16.1775 8.80643C16.1845 8.73718 16.4995 8.69218 16.4545 8.49483C16.3818 8.3321 15.9456 8.60562 15.9456 8.60562L15.634 8.60216C15.6132 8.56754 15.5301 8.42905 15.4401 8.42905C15.3362 8.42905 15.2601 8.60216 15.2601 8.60216H14.5572C14.5572 8.60216 14.533 8.78565 14.8896 8.82028C14.9692 8.92414 15.0316 8.95184 15.1043 8.97954C15.0581 9.01647 15.0373 9.06609 15.0419 9.12841ZM15.0973 8.97608H15.7275H15.0973Z" fill="#FFC72C"/>
<path d="M15.0973 8.97608H15.7275M15.0419 9.12841H15.8002C15.8002 9.12841 15.8106 9.03147 15.7205 8.97261C16.1187 8.91722 16.0148 8.571 16.3437 8.55022C16.413 8.56061 16.1706 8.6991 16.1706 8.6991C16.1706 8.6991 15.9733 8.83759 16.0668 8.91029C16.136 8.96915 16.1706 8.87567 16.1775 8.80643C16.1845 8.73718 16.4995 8.69218 16.4545 8.49483C16.3818 8.3321 15.9456 8.60562 15.9456 8.60562L15.634 8.60216C15.6132 8.56754 15.5301 8.42905 15.4401 8.42905C15.3362 8.42905 15.2601 8.60216 15.2601 8.60216H14.5572C14.5572 8.60216 14.533 8.78565 14.8896 8.82028C14.9692 8.92414 15.0316 8.95184 15.1043 8.97954C15.0581 9.01647 15.0373 9.06609 15.0419 9.12841Z" stroke="black" stroke-width="0.0311751"/>
<path d="M14.8101 8.60596C14.8101 8.60596 14.8585 8.90025 15.094 8.96949L14.8101 8.60596Z" fill="#FFC72C"/>
<path d="M14.8101 8.60596C14.8101 8.60596 14.8585 8.90025 15.094 8.96949" stroke="black" stroke-width="0.0311751"/>
<path d="M14.7719 8.59864C14.7927 8.48785 14.8377 8.46707 14.8827 8.32166C14.8896 8.18317 14.7719 8.20048 14.8065 8.11393C14.8665 8.01237 14.8377 7.9235 14.72 7.84734C14.7442 7.97544 14.5676 8.09662 14.5676 8.20048C14.5676 8.30435 14.6576 8.28357 14.6473 8.44284C14.6542 8.53285 14.623 8.51208 14.6126 8.59864H14.7719Z" fill="url(#paint1_linear_720_53466)" stroke="black" stroke-width="0.0311751"/>
<path d="M15.5297 7.90229C15.5297 7.92605 15.5203 7.94884 15.5035 7.96564C15.4867 7.98244 15.4639 7.99187 15.4402 7.99187C15.4164 7.99187 15.3936 7.98244 15.3768 7.96564C15.36 7.94884 15.3506 7.92605 15.3506 7.90229C15.3506 7.87854 15.36 7.85575 15.3768 7.83895C15.3936 7.82215 15.4164 7.81271 15.4402 7.81271C15.4639 7.81271 15.4867 7.82215 15.5035 7.83895C15.5203 7.85575 15.5297 7.87854 15.5297 7.90229Z" fill="#FFC72C" stroke="black" stroke-width="0.0311751"/>
<path d="M14.9409 10.0084L15.4256 9.29167L15.9207 10.0118" stroke="#FFC72C" stroke-width="0.065814"/>
<path d="M15.5265 9.73864C15.5265 9.76436 15.5163 9.78903 15.4981 9.80722C15.4799 9.82541 15.4552 9.83563 15.4295 9.83563C15.4038 9.83563 15.3791 9.82541 15.3609 9.80722C15.3427 9.78903 15.3325 9.76436 15.3325 9.73864C15.3325 9.71291 15.3427 9.68824 15.3609 9.67005C15.3791 9.65187 15.4038 9.64165 15.4295 9.64165C15.4552 9.64165 15.4799 9.65187 15.4981 9.67005C15.5163 9.68824 15.5265 9.71291 15.5265 9.73864Z" fill="#FFC72C" stroke="black" stroke-width="0.0311751"/>
<path d="M15.0307 10.5385H15.7889C15.7889 10.5385 15.7993 10.4415 15.7093 10.3827C16.1075 10.3273 16.0036 9.98105 16.3325 9.96027C16.4017 9.97066 16.1594 10.1091 16.1594 10.1091C16.1594 10.1091 15.962 10.2476 16.0555 10.3203C16.1248 10.3792 16.1594 10.2857 16.1663 10.2165C16.1732 10.1472 16.4883 10.1022 16.4433 9.90488C16.3706 9.74215 15.9343 10.0157 15.9343 10.0157L15.6227 10.0122C15.602 9.97758 15.5189 9.8391 15.4289 9.8391C15.325 9.8391 15.2488 10.0122 15.2488 10.0122H14.546C14.546 10.0122 14.5218 10.1957 14.8784 10.2303C14.958 10.3342 15.0203 10.3619 15.093 10.3896C15.0469 10.4265 15.0261 10.4761 15.0307 10.5385ZM15.0861 10.3861H15.7162H15.0861Z" fill="#FFC72C"/>
<path d="M15.0861 10.3861H15.7162M15.0307 10.5385H15.7889C15.7889 10.5385 15.7993 10.4415 15.7093 10.3827C16.1075 10.3273 16.0036 9.98105 16.3325 9.96027C16.4017 9.97066 16.1594 10.1091 16.1594 10.1091C16.1594 10.1091 15.962 10.2476 16.0555 10.3203C16.1248 10.3792 16.1594 10.2857 16.1663 10.2165C16.1732 10.1472 16.4883 10.1022 16.4433 9.90488C16.3706 9.74215 15.9343 10.0157 15.9343 10.0157L15.6227 10.0122C15.602 9.97758 15.5189 9.8391 15.4289 9.8391C15.325 9.8391 15.2488 10.0122 15.2488 10.0122H14.546C14.546 10.0122 14.5218 10.1957 14.8784 10.2303C14.958 10.3342 15.0203 10.3619 15.093 10.3896C15.0469 10.4265 15.0261 10.4761 15.0307 10.5385Z" stroke="black" stroke-width="0.0311751"/>
<path d="M14.7991 10.0157C14.7991 10.0157 14.8475 10.31 15.083 10.3793L14.7991 10.0157Z" fill="#FFC72C"/>
<path d="M14.7991 10.0157C14.7991 10.0157 14.8475 10.31 15.083 10.3793" stroke="black" stroke-width="0.0311751"/>
<path d="M14.7607 10.0084C14.7814 9.89756 14.8264 9.87679 14.8715 9.73137C14.8784 9.59288 14.7607 9.6102 14.7953 9.52364C14.8553 9.42208 14.8264 9.33322 14.7087 9.25705C14.733 9.38515 14.5564 9.50633 14.5564 9.6102C14.5564 9.71406 14.6464 9.69329 14.636 9.85255C14.643 9.94257 14.6118 9.92179 14.6014 10.0084H14.7607Z" fill="url(#paint2_linear_720_53466)" stroke="black" stroke-width="0.0311751"/>
<path d="M15.5185 9.31208C15.5185 9.33584 15.5091 9.35863 15.4923 9.37543C15.4755 9.39223 15.4527 9.40166 15.4289 9.40166C15.4052 9.40166 15.3824 9.39223 15.3656 9.37543C15.3488 9.35863 15.3394 9.33584 15.3394 9.31208C15.3394 9.28833 15.3488 9.26554 15.3656 9.24874C15.3824 9.23194 15.4052 9.2225 15.4289 9.2225C15.4527 9.2225 15.4755 9.23194 15.4923 9.24874C15.5091 9.26554 15.5185 9.28833 15.5185 9.31208Z" fill="#FFC72C" stroke="black" stroke-width="0.0311751"/>
<path d="M15.8662 11.536L16.3509 10.8194L16.846 11.5395" stroke="#FFC72C" stroke-width="0.065814"/>
<path d="M16.4515 11.2662C16.4515 11.2919 16.4413 11.3166 16.4231 11.3348C16.405 11.353 16.3803 11.3632 16.3546 11.3632C16.3288 11.3632 16.3042 11.353 16.286 11.3348C16.2678 11.3166 16.2576 11.2919 16.2576 11.2662C16.2576 11.2405 16.2678 11.2158 16.286 11.1976C16.3042 11.1795 16.3288 11.1692 16.3546 11.1692C16.3803 11.1692 16.405 11.1795 16.4231 11.1976C16.4413 11.2158 16.4515 11.2405 16.4515 11.2662Z" fill="#FFC72C" stroke="black" stroke-width="0.0311751"/>
<path d="M15.956 12.066H16.7142C16.7142 12.066 16.7246 11.9691 16.6346 11.9102C17.0328 11.8548 16.9289 11.5086 17.2578 11.4878C17.327 11.4982 17.0847 11.6367 17.0847 11.6367C17.0847 11.6367 16.8873 11.7752 16.9808 11.8479C17.0501 11.9068 17.0847 11.8133 17.0916 11.7441C17.0985 11.6748 17.4136 11.6298 17.3686 11.4325C17.2959 11.2697 16.8596 11.5432 16.8596 11.5432L16.548 11.5398C16.5273 11.5052 16.4442 11.3667 16.3542 11.3667C16.2503 11.3667 16.1741 11.5398 16.1741 11.5398H15.4713C15.4713 11.5398 15.4471 11.7233 15.8037 11.7579C15.8833 11.8618 15.9456 11.8895 16.0183 11.9172C15.9722 11.9541 15.9514 12.0037 15.956 12.066ZM16.0114 11.9137H16.6415H16.0114Z" fill="#FFC72C"/>
<path d="M16.0114 11.9137H16.6415M15.956 12.066H16.7142C16.7142 12.066 16.7246 11.9691 16.6346 11.9102C17.0328 11.8548 16.9289 11.5086 17.2578 11.4878C17.327 11.4982 17.0847 11.6367 17.0847 11.6367C17.0847 11.6367 16.8873 11.7752 16.9808 11.8479C17.0501 11.9068 17.0847 11.8133 17.0916 11.7441C17.0985 11.6748 17.4136 11.6298 17.3686 11.4325C17.2959 11.2697 16.8596 11.5432 16.8596 11.5432L16.548 11.5398C16.5273 11.5052 16.4442 11.3667 16.3542 11.3667C16.2503 11.3667 16.1741 11.5398 16.1741 11.5398H15.4713C15.4713 11.5398 15.4471 11.7233 15.8037 11.7579C15.8833 11.8618 15.9456 11.8895 16.0183 11.9172C15.9722 11.9541 15.9514 12.0037 15.956 12.066Z" stroke="black" stroke-width="0.0311751"/>
<path d="M15.7241 11.5433C15.7241 11.5433 15.7726 11.8376 16.008 11.9069L15.7241 11.5433Z" fill="#FFC72C"/>
<path d="M15.7241 11.5433C15.7241 11.5433 15.7726 11.8376 16.008 11.9069" stroke="black" stroke-width="0.0311751"/>
<path d="M15.686 11.536C15.7067 11.4252 15.7517 11.4045 15.7968 11.2591C15.8037 11.1206 15.686 11.1379 15.7206 11.0513C15.7806 10.9498 15.7517 10.8609 15.634 10.7847C15.6583 10.9128 15.4817 11.034 15.4817 11.1379C15.4817 11.2417 15.5717 11.221 15.5613 11.3802C15.5682 11.4702 15.5371 11.4495 15.5267 11.536H15.686Z" fill="url(#paint3_linear_720_53466)" stroke="black" stroke-width="0.0311751"/>
<path d="M16.4438 10.8396C16.4438 10.8633 16.4344 10.8861 16.4176 10.9029C16.4008 10.9197 16.378 10.9292 16.3542 10.9292C16.3305 10.9292 16.3077 10.9197 16.2909 10.9029C16.2741 10.8861 16.2646 10.8633 16.2646 10.8396C16.2646 10.8158 16.2741 10.793 16.2909 10.7762C16.3077 10.7594 16.3305 10.75 16.3542 10.75C16.378 10.75 16.4008 10.7594 16.4176 10.7762C16.4344 10.793 16.4438 10.8158 16.4438 10.8396Z" fill="#FFC72C" stroke="black" stroke-width="0.0311751"/>
<path d="M14.8206 12.7865L15.3053 12.0698L15.8004 12.7899" stroke="#FFC72C" stroke-width="0.065814"/>
<path d="M15.4061 12.5167C15.4061 12.5424 15.3959 12.5671 15.3777 12.5853C15.3595 12.6035 15.3349 12.6137 15.3091 12.6137C15.2834 12.6137 15.2588 12.6035 15.2406 12.5853C15.2224 12.5671 15.2122 12.5424 15.2122 12.5167C15.2122 12.491 15.2224 12.4663 15.2406 12.4481C15.2588 12.4299 15.2834 12.4197 15.3091 12.4197C15.3349 12.4197 15.3595 12.4299 15.3777 12.4481C15.3959 12.4663 15.4061 12.491 15.4061 12.5167Z" fill="#FFC72C" stroke="black" stroke-width="0.0311751"/>
<path d="M14.9106 13.3165H15.6688C15.6688 13.3165 15.6792 13.2196 15.5892 13.1607C15.9873 13.1053 15.8835 12.7591 16.2124 12.7383C16.2816 12.7487 16.0393 12.8872 16.0393 12.8872C16.0393 12.8872 15.8419 13.0257 15.9354 13.0984C16.0047 13.1572 16.0393 13.0638 16.0462 12.9945C16.0531 12.9253 16.3682 12.8803 16.3232 12.6829C16.2505 12.5202 15.8142 12.7937 15.8142 12.7937L15.5026 12.7902C15.4819 12.7556 15.3988 12.6171 15.3087 12.6171C15.2049 12.6171 15.1287 12.7902 15.1287 12.7902H14.4259C14.4259 12.7902 14.4016 12.9737 14.7583 13.0084C14.8379 13.1122 14.9002 13.1399 14.9729 13.1676C14.9268 13.2045 14.906 13.2542 14.9106 13.3165ZM14.966 13.1642H15.5961H14.966Z" fill="#FFC72C"/>
<path d="M14.966 13.1642H15.5961M14.9106 13.3165H15.6688C15.6688 13.3165 15.6792 13.2196 15.5892 13.1607C15.9873 13.1053 15.8835 12.7591 16.2124 12.7383C16.2816 12.7487 16.0393 12.8872 16.0393 12.8872C16.0393 12.8872 15.8419 13.0257 15.9354 13.0984C16.0047 13.1572 16.0393 13.0638 16.0462 12.9945C16.0531 12.9253 16.3682 12.8803 16.3232 12.6829C16.2505 12.5202 15.8142 12.7937 15.8142 12.7937L15.5026 12.7902C15.4819 12.7556 15.3988 12.6171 15.3087 12.6171C15.2049 12.6171 15.1287 12.7902 15.1287 12.7902H14.4259C14.4259 12.7902 14.4016 12.9737 14.7583 13.0084C14.8379 13.1122 14.9002 13.1399 14.9729 13.1676C14.9268 13.2045 14.906 13.2542 14.9106 13.3165Z" stroke="black" stroke-width="0.0311751"/>
<path d="M14.6787 12.7938C14.6787 12.7938 14.7272 13.0881 14.9626 13.1573L14.6787 12.7938Z" fill="#FFC72C"/>
<path d="M14.6787 12.7938C14.6787 12.7938 14.7272 13.0881 14.9626 13.1573" stroke="black" stroke-width="0.0311751"/>
<path d="M14.6405 12.7865C14.6613 12.6757 14.7063 12.6549 14.7513 12.5095C14.7583 12.371 14.6405 12.3883 14.6752 12.3018C14.7352 12.2002 14.7063 12.1113 14.5886 12.0352C14.6129 12.1633 14.4363 12.2845 14.4363 12.3883C14.4363 12.4922 14.5263 12.4714 14.5159 12.6307C14.5228 12.7207 14.4917 12.6999 14.4813 12.7865H14.6405Z" fill="url(#paint4_linear_720_53466)" stroke="black" stroke-width="0.0311751"/>
<path d="M15.3982 12.0901C15.3982 12.1139 15.3887 12.1367 15.3719 12.1535C15.3551 12.1703 15.3323 12.1797 15.3086 12.1797C15.2848 12.1797 15.262 12.1703 15.2452 12.1535C15.2284 12.1367 15.219 12.1139 15.219 12.0901C15.219 12.0664 15.2284 12.0436 15.2452 12.0268C15.262 12.01 15.2848 12.0005 15.3086 12.0005C15.3323 12.0005 15.3551 12.01 15.3719 12.0268C15.3887 12.0436 15.3982 12.0664 15.3982 12.0901Z" fill="#FFC72C" stroke="black" stroke-width="0.0311751"/>
<path d="M14.8477 14.2621L15.3324 13.5454L15.8275 14.2656" stroke="#FFC72C" stroke-width="0.065814"/>
<path d="M15.4332 13.9922C15.4332 14.0179 15.423 14.0426 15.4048 14.0608C15.3866 14.079 15.362 14.0892 15.3362 14.0892C15.3105 14.0892 15.2859 14.079 15.2677 14.0608C15.2495 14.0426 15.2393 14.0179 15.2393 13.9922C15.2393 13.9665 15.2495 13.9418 15.2677 13.9236C15.2859 13.9054 15.3105 13.8952 15.3362 13.8952C15.362 13.8952 15.3866 13.9054 15.4048 13.9236C15.423 13.9418 15.4332 13.9665 15.4332 13.9922Z" fill="#FFC72C" stroke="black" stroke-width="0.0311751"/>
<path d="M14.9374 14.7919H15.6957C15.6957 14.7919 15.7061 14.695 15.616 14.6361C16.0142 14.5807 15.9103 14.2345 16.2392 14.2137C16.3085 14.2241 16.0661 14.3626 16.0661 14.3626C16.0661 14.3626 15.8688 14.5011 15.9623 14.5738C16.0315 14.6326 16.0661 14.5392 16.0731 14.4699C16.08 14.4007 16.395 14.3557 16.35 14.1583C16.2773 13.9956 15.8411 14.2691 15.8411 14.2691L15.5295 14.2656C15.5087 14.231 15.4256 14.0925 15.3356 14.0925C15.2317 14.0925 15.1556 14.2656 15.1556 14.2656H14.4527C14.4527 14.2656 14.4285 14.4491 14.7851 14.4838C14.8647 14.5876 14.9271 14.6153 14.9998 14.643C14.9536 14.68 14.9328 14.7296 14.9374 14.7919ZM14.9928 14.6396H15.623H14.9928Z" fill="#FFC72C"/>
<path d="M14.9928 14.6396H15.623M14.9374 14.7919H15.6957C15.6957 14.7919 15.7061 14.695 15.616 14.6361C16.0142 14.5807 15.9103 14.2345 16.2392 14.2137C16.3085 14.2241 16.0661 14.3626 16.0661 14.3626C16.0661 14.3626 15.8688 14.5011 15.9623 14.5738C16.0315 14.6326 16.0661 14.5392 16.0731 14.4699C16.08 14.4007 16.395 14.3557 16.35 14.1583C16.2773 13.9956 15.8411 14.2691 15.8411 14.2691L15.5295 14.2656C15.5087 14.231 15.4256 14.0925 15.3356 14.0925C15.2317 14.0925 15.1556 14.2656 15.1556 14.2656H14.4527C14.4527 14.2656 14.4285 14.4491 14.7851 14.4838C14.8647 14.5876 14.9271 14.6153 14.9998 14.643C14.9536 14.68 14.9328 14.7296 14.9374 14.7919Z" stroke="black" stroke-width="0.0311751"/>
<path d="M14.7056 14.2691C14.7056 14.2691 14.754 14.5634 14.9895 14.6326L14.7056 14.2691Z" fill="#FFC72C"/>
<path d="M14.7056 14.2691C14.7056 14.2691 14.754 14.5634 14.9895 14.6326" stroke="black" stroke-width="0.0311751"/>
<path d="M14.6674 14.2621C14.6882 14.1513 14.7332 14.1306 14.7782 13.9851C14.7851 13.8467 14.6674 13.864 14.702 13.7774C14.762 13.6759 14.7332 13.587 14.6155 13.5108C14.6397 13.6389 14.4631 13.7601 14.4631 13.864C14.4631 13.9678 14.5532 13.9471 14.5428 14.1063C14.5497 14.1963 14.5185 14.1756 14.5081 14.2621H14.6674Z" fill="url(#paint5_linear_720_53466)" stroke="black" stroke-width="0.0311751"/>
<path d="M15.4253 13.5657C15.4253 13.5894 15.4158 13.6122 15.399 13.629C15.3822 13.6458 15.3594 13.6552 15.3357 13.6552C15.3119 13.6552 15.2891 13.6458 15.2723 13.629C15.2555 13.6122 15.2461 13.5894 15.2461 13.5657C15.2461 13.5419 15.2555 13.5191 15.2723 13.5023C15.2891 13.4855 15.3119 13.4761 15.3357 13.4761C15.3594 13.4761 15.3822 13.4855 15.399 13.5023C15.4158 13.5191 15.4253 13.5419 15.4253 13.5657Z" fill="#FFC72C" stroke="black" stroke-width="0.0311751"/>
<path d="M20.0474 7.1922L20.5321 6.47552L21.0272 7.19567" stroke="#FFC72C" stroke-width="0.065814"/>
<path d="M20.6327 6.92238C20.6327 6.94811 20.6225 6.97278 20.6043 6.99096C20.5861 7.00915 20.5614 7.01937 20.5357 7.01937C20.51 7.01937 20.4853 7.00915 20.4671 6.99096C20.4489 6.97278 20.4387 6.94811 20.4387 6.92238C20.4387 6.89666 20.4489 6.87199 20.4671 6.8538C20.4853 6.83561 20.51 6.82539 20.5357 6.82539C20.5614 6.82539 20.5861 6.83561 20.6043 6.8538C20.6225 6.87199 20.6327 6.89666 20.6327 6.92238Z" fill="#FFC72C" stroke="black" stroke-width="0.0311751"/>
<path d="M20.1372 7.72221H20.8954C20.8954 7.72221 20.9058 7.62527 20.8158 7.56641C21.2139 7.51102 21.11 7.16479 21.4389 7.14402C21.5082 7.15441 21.2658 7.2929 21.2658 7.2929C21.2658 7.2929 21.0685 7.43138 21.162 7.50409C21.2312 7.56295 21.2658 7.46947 21.2728 7.40022C21.2797 7.33098 21.5947 7.28597 21.5497 7.08862C21.477 6.9259 21.0408 7.19942 21.0408 7.19942L20.7292 7.19595C20.7084 7.16133 20.6253 7.02284 20.5353 7.02284C20.4314 7.02284 20.3553 7.19595 20.3553 7.19595H19.6524C19.6524 7.19595 19.6282 7.37945 19.9848 7.41407C20.0644 7.51794 20.1268 7.54564 20.1995 7.57333C20.1533 7.61027 20.1325 7.65989 20.1372 7.72221ZM20.1926 7.56987H20.8227H20.1926Z" fill="#FFC72C"/>
<path d="M20.1926 7.56987H20.8227M20.1372 7.72221H20.8954C20.8954 7.72221 20.9058 7.62527 20.8158 7.56641C21.2139 7.51102 21.11 7.16479 21.4389 7.14402C21.5082 7.15441 21.2658 7.2929 21.2658 7.2929C21.2658 7.2929 21.0685 7.43138 21.162 7.50409C21.2312 7.56295 21.2658 7.46947 21.2728 7.40022C21.2797 7.33098 21.5947 7.28597 21.5497 7.08862C21.477 6.9259 21.0408 7.19942 21.0408 7.19942L20.7292 7.19595C20.7084 7.16133 20.6253 7.02284 20.5353 7.02284C20.4314 7.02284 20.3553 7.19595 20.3553 7.19595H19.6524C19.6524 7.19595 19.6282 7.37945 19.9848 7.41407C20.0644 7.51794 20.1268 7.54564 20.1995 7.57333C20.1533 7.61027 20.1325 7.65989 20.1372 7.72221Z" stroke="black" stroke-width="0.0311751"/>
<path d="M19.9053 7.19949C19.9053 7.19949 19.9537 7.49378 20.1892 7.56303L19.9053 7.19949Z" fill="#FFC72C"/>
<path d="M19.9053 7.19949C19.9053 7.19949 19.9537 7.49378 20.1892 7.56303" stroke="black" stroke-width="0.0311751"/>
<path d="M19.8669 7.19219C19.8876 7.0814 19.9326 7.06062 19.9777 6.91521C19.9846 6.77672 19.8669 6.79403 19.9015 6.70748C19.9615 6.60592 19.9326 6.51706 19.8149 6.44089C19.8392 6.56899 19.6626 6.69017 19.6626 6.79403C19.6626 6.8979 19.7526 6.87713 19.7422 7.03639C19.7492 7.12641 19.718 7.10563 19.7076 7.19219H19.8669Z" fill="url(#paint6_linear_720_53466)" stroke="black" stroke-width="0.0311751"/>
<path d="M20.6247 6.49583C20.6247 6.51959 20.6153 6.54237 20.5985 6.55917C20.5817 6.57597 20.5589 6.58541 20.5351 6.58541C20.5114 6.58541 20.4886 6.57597 20.4718 6.55917C20.455 6.54237 20.4456 6.51959 20.4456 6.49583C20.4456 6.47207 20.455 6.44929 20.4718 6.43249C20.4886 6.41569 20.5114 6.40625 20.5351 6.40625C20.5589 6.40625 20.5817 6.41569 20.5985 6.43249C20.6153 6.44929 20.6247 6.47207 20.6247 6.49583Z" fill="#FFC72C" stroke="black" stroke-width="0.0311751"/>
<path d="M19.999 8.59516L20.4837 7.87848L20.9788 8.59862" stroke="#FFC72C" stroke-width="0.065814"/>
<path d="M20.5844 8.32534C20.5844 8.35106 20.5741 8.37573 20.556 8.39392C20.5378 8.41211 20.5131 8.42233 20.4874 8.42233C20.4616 8.42233 20.437 8.41211 20.4188 8.39392C20.4006 8.37573 20.3904 8.35106 20.3904 8.32534C20.3904 8.29961 20.4006 8.27494 20.4188 8.25676C20.437 8.23857 20.4616 8.22835 20.4874 8.22835C20.5131 8.22835 20.5378 8.23857 20.556 8.25676C20.5741 8.27494 20.5844 8.29961 20.5844 8.32534Z" fill="#FFC72C" stroke="black" stroke-width="0.0311751"/>
<path d="M20.0886 9.12492H20.8468C20.8468 9.12492 20.8572 9.02798 20.7672 8.96912C21.1653 8.91373 21.0615 8.5675 21.3904 8.54673C21.4596 8.55712 21.2173 8.69561 21.2173 8.69561C21.2173 8.69561 21.0199 8.83409 21.1134 8.9068C21.1826 8.96566 21.2173 8.87218 21.2242 8.80293C21.2311 8.73369 21.5462 8.68868 21.5012 8.49133C21.4284 8.32861 20.9922 8.60213 20.9922 8.60213L20.6806 8.59866C20.6598 8.56404 20.5767 8.42555 20.4867 8.42555C20.3829 8.42555 20.3067 8.59866 20.3067 8.59866H19.6039C19.6039 8.59866 19.5796 8.78216 19.9362 8.81678C20.0159 8.92065 20.0782 8.94835 20.1509 8.97604C20.1047 9.01298 20.084 9.0626 20.0886 9.12492ZM20.144 8.97258H20.7741H20.144Z" fill="#FFC72C"/>
<path d="M20.144 8.97258H20.7741M20.0886 9.12492H20.8468C20.8468 9.12492 20.8572 9.02798 20.7672 8.96912C21.1653 8.91373 21.0615 8.5675 21.3904 8.54673C21.4596 8.55712 21.2173 8.69561 21.2173 8.69561C21.2173 8.69561 21.0199 8.83409 21.1134 8.9068C21.1826 8.96566 21.2173 8.87218 21.2242 8.80293C21.2311 8.73369 21.5462 8.68868 21.5012 8.49133C21.4284 8.32861 20.9922 8.60213 20.9922 8.60213L20.6806 8.59866C20.6598 8.56404 20.5767 8.42555 20.4867 8.42555C20.3829 8.42555 20.3067 8.59866 20.3067 8.59866H19.6039C19.6039 8.59866 19.5796 8.78216 19.9362 8.81678C20.0159 8.92065 20.0782 8.94835 20.1509 8.97604C20.1047 9.01298 20.084 9.0626 20.0886 9.12492Z" stroke="black" stroke-width="0.0311751"/>
<path d="M19.8569 8.60245C19.8569 8.60245 19.9054 8.89674 20.1408 8.96598L19.8569 8.60245Z" fill="#FFC72C"/>
<path d="M19.8569 8.60245C19.8569 8.60245 19.9054 8.89674 20.1408 8.96598" stroke="black" stroke-width="0.0311751"/>
<path d="M19.8185 8.59499C19.8393 8.4842 19.8843 8.46343 19.9293 8.31801C19.9362 8.17952 19.8185 8.19683 19.8531 8.11028C19.9132 8.00872 19.8843 7.91986 19.7666 7.84369C19.7908 7.97179 19.6143 8.09297 19.6143 8.19683C19.6143 8.3007 19.7043 8.27993 19.6939 8.43919C19.7008 8.52921 19.6697 8.50843 19.6593 8.59499H19.8185Z" fill="url(#paint7_linear_720_53466)" stroke="black" stroke-width="0.0311751"/>
<path d="M20.5766 7.89878C20.5766 7.92254 20.5672 7.94533 20.5504 7.96213C20.5336 7.97893 20.5108 7.98837 20.487 7.98837C20.4633 7.98837 20.4405 7.97893 20.4237 7.96213C20.4069 7.94533 20.3975 7.92254 20.3975 7.89878C20.3975 7.87503 20.4069 7.85224 20.4237 7.83544C20.4405 7.81864 20.4633 7.8092 20.487 7.8092C20.5108 7.8092 20.5336 7.81864 20.5504 7.83544C20.5672 7.85224 20.5766 7.87503 20.5766 7.89878Z" fill="#FFC72C" stroke="black" stroke-width="0.0311751"/>
<path d="M19.937 10.0327L20.4217 9.31598L20.9168 10.0361" stroke="#FFC72C" stroke-width="0.065814"/>
<path d="M20.5223 9.76284C20.5223 9.78856 20.5121 9.81323 20.4939 9.83142C20.4758 9.84961 20.4511 9.85983 20.4254 9.85983C20.3996 9.85983 20.375 9.84961 20.3568 9.83142C20.3386 9.81323 20.3284 9.78856 20.3284 9.76284C20.3284 9.73711 20.3386 9.71244 20.3568 9.69426C20.375 9.67607 20.3996 9.66585 20.4254 9.66585C20.4511 9.66585 20.4758 9.67607 20.4939 9.69426C20.5121 9.71244 20.5223 9.73711 20.5223 9.76284Z" fill="#FFC72C" stroke="black" stroke-width="0.0311751"/>
<path d="M20.0268 10.5627H20.785C20.785 10.5627 20.7954 10.4657 20.7054 10.4069C21.1036 10.3515 20.9997 10.0052 21.3286 9.98447C21.3978 9.99486 21.1555 10.1333 21.1555 10.1333C21.1555 10.1333 20.9581 10.2718 21.0516 10.3445C21.1209 10.4034 21.1555 10.3099 21.1624 10.2407C21.1693 10.1714 21.4844 10.1264 21.4394 9.92908C21.3667 9.76635 20.9304 10.0399 20.9304 10.0399L20.6188 10.0364C20.5981 10.0018 20.515 9.8633 20.425 9.8633C20.3211 9.8633 20.2449 10.0364 20.2449 10.0364H19.5421C19.5421 10.0364 19.5179 10.2199 19.8745 10.2545C19.9541 10.3584 20.0164 10.3861 20.0891 10.4138C20.043 10.4507 20.0222 10.5003 20.0268 10.5627ZM20.0822 10.4103H20.7123H20.0822Z" fill="#FFC72C"/>
<path d="M20.0822 10.4103H20.7123M20.0268 10.5627H20.785C20.785 10.5627 20.7954 10.4657 20.7054 10.4069C21.1036 10.3515 20.9997 10.0052 21.3286 9.98447C21.3978 9.99486 21.1555 10.1333 21.1555 10.1333C21.1555 10.1333 20.9581 10.2718 21.0516 10.3445C21.1209 10.4034 21.1555 10.3099 21.1624 10.2407C21.1693 10.1714 21.4844 10.1264 21.4394 9.92908C21.3667 9.76635 20.9304 10.0399 20.9304 10.0399L20.6188 10.0364C20.5981 10.0018 20.515 9.8633 20.425 9.8633C20.3211 9.8633 20.2449 10.0364 20.2449 10.0364H19.5421C19.5421 10.0364 19.5179 10.2199 19.8745 10.2545C19.9541 10.3584 20.0164 10.3861 20.0891 10.4138C20.043 10.4507 20.0222 10.5003 20.0268 10.5627Z" stroke="black" stroke-width="0.0311751"/>
<path d="M19.7949 10.0399C19.7949 10.0399 19.8434 10.3342 20.0788 10.4035L19.7949 10.0399Z" fill="#FFC72C"/>
<path d="M19.7949 10.0399C19.7949 10.0399 19.8434 10.3342 20.0788 10.4035" stroke="black" stroke-width="0.0311751"/>
<path d="M19.7565 10.0326C19.7773 9.92181 19.8223 9.90103 19.8673 9.75562C19.8742 9.61713 19.7565 9.63444 19.7911 9.54789C19.8511 9.44633 19.8223 9.35746 19.7046 9.2813C19.7288 9.4094 19.5522 9.53058 19.5522 9.63444C19.5522 9.73831 19.6423 9.71753 19.6319 9.8768C19.6388 9.96681 19.6076 9.94604 19.5973 10.0326H19.7565Z" fill="url(#paint8_linear_720_53466)" stroke="black" stroke-width="0.0311751"/>
<path d="M20.5144 9.33628C20.5144 9.36004 20.5049 9.38283 20.4881 9.39963C20.4713 9.41643 20.4485 9.42587 20.4248 9.42587C20.401 9.42587 20.3782 9.41643 20.3614 9.39963C20.3446 9.38283 20.3352 9.36004 20.3352 9.33628C20.3352 9.31253 20.3446 9.28974 20.3614 9.27294C20.3782 9.25614 20.401 9.2467 20.4248 9.2467C20.4485 9.2467 20.4713 9.25614 20.4881 9.27294C20.5049 9.28974 20.5144 9.31253 20.5144 9.33628Z" fill="#FFC72C" stroke="black" stroke-width="0.0311751"/>
<path d="M20.0093 11.4425L20.494 10.7258L20.9891 11.4459" stroke="#FFC72C" stroke-width="0.065814"/>
<path d="M20.5946 11.1727C20.5946 11.1984 20.5844 11.2231 20.5662 11.2412C20.548 11.2594 20.5233 11.2696 20.4976 11.2696C20.4719 11.2696 20.4472 11.2594 20.429 11.2412C20.4109 11.2231 20.4006 11.1984 20.4006 11.1727C20.4006 11.1469 20.4109 11.1223 20.429 11.1041C20.4472 11.0859 20.4719 11.0757 20.4976 11.0757C20.5233 11.0757 20.548 11.0859 20.5662 11.1041C20.5844 11.1223 20.5946 11.1469 20.5946 11.1727Z" fill="#FFC72C" stroke="black" stroke-width="0.0311751"/>
<path d="M20.0991 11.9725H20.8573C20.8573 11.9725 20.8677 11.8755 20.7777 11.8167C21.1758 11.7613 21.072 11.4151 21.4009 11.3943C21.4701 11.4047 21.2278 11.5432 21.2278 11.5432C21.2278 11.5432 21.0304 11.6816 21.1239 11.7544C21.1931 11.8132 21.2278 11.7197 21.2347 11.6505C21.2416 11.5812 21.5567 11.5362 21.5117 11.3389C21.4389 11.1762 21.0027 11.4497 21.0027 11.4497L20.6911 11.4462C20.6703 11.4116 20.5872 11.2731 20.4972 11.2731C20.3934 11.2731 20.3172 11.4462 20.3172 11.4462H19.6144C19.6144 11.4462 19.5901 11.6297 19.9467 11.6643C20.0264 11.7682 20.0887 11.7959 20.1614 11.8236C20.1152 11.8605 20.0945 11.9101 20.0991 11.9725ZM20.1545 11.8201H20.7846H20.1545Z" fill="#FFC72C"/>
<path d="M20.1545 11.8201H20.7846M20.0991 11.9725H20.8573C20.8573 11.9725 20.8677 11.8755 20.7777 11.8167C21.1758 11.7613 21.072 11.4151 21.4009 11.3943C21.4701 11.4047 21.2278 11.5432 21.2278 11.5432C21.2278 11.5432 21.0304 11.6816 21.1239 11.7544C21.1931 11.8132 21.2278 11.7197 21.2347 11.6505C21.2416 11.5812 21.5567 11.5362 21.5117 11.3389C21.4389 11.1762 21.0027 11.4497 21.0027 11.4497L20.6911 11.4462C20.6703 11.4116 20.5872 11.2731 20.4972 11.2731C20.3934 11.2731 20.3172 11.4462 20.3172 11.4462H19.6144C19.6144 11.4462 19.5901 11.6297 19.9467 11.6643C20.0264 11.7682 20.0887 11.7959 20.1614 11.8236C20.1152 11.8605 20.0945 11.9101 20.0991 11.9725Z" stroke="black" stroke-width="0.0311751"/>
<path d="M19.8672 11.4498C19.8672 11.4498 19.9157 11.7441 20.1511 11.8133L19.8672 11.4498Z" fill="#FFC72C"/>
<path d="M19.8672 11.4498C19.8672 11.4498 19.9157 11.7441 20.1511 11.8133" stroke="black" stroke-width="0.0311751"/>
<path d="M19.8288 11.4425C19.8496 11.3317 19.8946 11.311 19.9396 11.1655C19.9465 11.0271 19.8288 11.0444 19.8634 10.9578C19.9234 10.8563 19.8946 10.7674 19.7768 10.6912C19.8011 10.8193 19.6245 10.9405 19.6245 11.0444C19.6245 11.1482 19.7145 11.1275 19.7041 11.2867C19.7111 11.3767 19.6799 11.356 19.6695 11.4425H19.8288Z" fill="url(#paint9_linear_720_53466)" stroke="black" stroke-width="0.0311751"/>
<path d="M20.5866 10.7461C20.5866 10.7699 20.5772 10.7926 20.5604 10.8094C20.5436 10.8262 20.5208 10.8357 20.4971 10.8357C20.4733 10.8357 20.4505 10.8262 20.4337 10.8094C20.4169 10.7926 20.4075 10.7699 20.4075 10.7461C20.4075 10.7223 20.4169 10.6996 20.4337 10.6828C20.4505 10.666 20.4733 10.6565 20.4971 10.6565C20.5208 10.6565 20.5436 10.666 20.5604 10.6828C20.5772 10.6996 20.5866 10.7223 20.5866 10.7461Z" fill="#FFC72C" stroke="black" stroke-width="0.0311751"/>
<path d="M19.9922 12.8557L20.4769 12.139L20.972 12.8592" stroke="#FFC72C" stroke-width="0.065814"/>
<path d="M20.5775 12.5859C20.5775 12.6116 20.5673 12.6363 20.5491 12.6545C20.5309 12.6727 20.5063 12.6829 20.4805 12.6829C20.4548 12.6829 20.4301 12.6727 20.412 12.6545C20.3938 12.6363 20.3835 12.6116 20.3835 12.5859C20.3835 12.5602 20.3938 12.5355 20.412 12.5173C20.4301 12.4991 20.4548 12.4889 20.4805 12.4889C20.5063 12.4889 20.5309 12.4991 20.5491 12.5173C20.5673 12.5355 20.5775 12.5602 20.5775 12.5859Z" fill="#FFC72C" stroke="black" stroke-width="0.0311751"/>
<path d="M20.0817 13.3855H20.84C20.84 13.3855 20.8503 13.2885 20.7603 13.2297C21.1585 13.1743 21.0546 12.8281 21.3835 12.8073C21.4528 12.8177 21.2104 12.9562 21.2104 12.9562C21.2104 12.9562 21.0131 13.0947 21.1066 13.1674C21.1758 13.2262 21.2104 13.1327 21.2173 13.0635C21.2243 12.9942 21.5393 12.9492 21.4943 12.7519C21.4216 12.5892 20.9854 12.8627 20.9854 12.8627L20.6738 12.8592C20.653 12.8246 20.5699 12.6861 20.4799 12.6861C20.376 12.6861 20.2999 12.8592 20.2999 12.8592H19.597C19.597 12.8592 19.5728 13.0427 19.9294 13.0773C20.009 13.1812 20.0713 13.2089 20.1441 13.2366C20.0979 13.2735 20.0771 13.3232 20.0817 13.3855ZM20.1371 13.2331H20.7673H20.1371Z" fill="#FFC72C"/>
<path d="M20.1371 13.2331H20.7673M20.0817 13.3855H20.84C20.84 13.3855 20.8503 13.2885 20.7603 13.2297C21.1585 13.1743 21.0546 12.8281 21.3835 12.8073C21.4528 12.8177 21.2104 12.9562 21.2104 12.9562C21.2104 12.9562 21.0131 13.0947 21.1066 13.1674C21.1758 13.2262 21.2104 13.1327 21.2173 13.0635C21.2243 12.9942 21.5393 12.9492 21.4943 12.7519C21.4216 12.5892 20.9854 12.8627 20.9854 12.8627L20.6738 12.8592C20.653 12.8246 20.5699 12.6861 20.4799 12.6861C20.376 12.6861 20.2999 12.8592 20.2999 12.8592H19.597C19.597 12.8592 19.5728 13.0427 19.9294 13.0773C20.009 13.1812 20.0713 13.2089 20.1441 13.2366C20.0979 13.2735 20.0771 13.3232 20.0817 13.3855Z" stroke="black" stroke-width="0.0311751"/>
<path d="M19.8501 12.863C19.8501 12.863 19.8986 13.1573 20.134 13.2265L19.8501 12.863Z" fill="#FFC72C"/>
<path d="M19.8501 12.863C19.8501 12.863 19.8986 13.1573 20.134 13.2265" stroke="black" stroke-width="0.0311751"/>
<path d="M19.8117 12.8558C19.8325 12.745 19.8775 12.7243 19.9225 12.5789C19.9294 12.4404 19.8117 12.4577 19.8463 12.3711C19.9063 12.2696 19.8775 12.1807 19.7598 12.1045C19.784 12.2326 19.6074 12.3538 19.6074 12.4577C19.6074 12.5616 19.6974 12.5408 19.6871 12.7C19.694 12.7901 19.6628 12.7693 19.6524 12.8558H19.8117Z" fill="url(#paint10_linear_720_53466)" stroke="black" stroke-width="0.0311751"/>
<path d="M20.5695 12.1593C20.5695 12.1831 20.5601 12.2059 20.5433 12.2227C20.5265 12.2395 20.5037 12.2489 20.48 12.2489C20.4562 12.2489 20.4334 12.2395 20.4166 12.2227C20.3998 12.2059 20.3904 12.1831 20.3904 12.1593C20.3904 12.1356 20.3998 12.1128 20.4166 12.096C20.4334 12.0792 20.4562 12.0698 20.48 12.0698C20.5037 12.0698 20.5265 12.0792 20.5433 12.096C20.5601 12.1128 20.5695 12.1356 20.5695 12.1593Z" fill="#FFC72C" stroke="black" stroke-width="0.0311751"/>
<path d="M19.999 14.2759L20.4837 13.5593L20.9788 14.2794" stroke="#FFC72C" stroke-width="0.065814"/>
<path d="M20.5844 14.0061C20.5844 14.0318 20.5741 14.0565 20.556 14.0747C20.5378 14.0929 20.5131 14.1031 20.4874 14.1031C20.4616 14.1031 20.437 14.0929 20.4188 14.0747C20.4006 14.0565 20.3904 14.0318 20.3904 14.0061C20.3904 13.9804 20.4006 13.9557 20.4188 13.9375C20.437 13.9193 20.4616 13.9091 20.4874 13.9091C20.5131 13.9091 20.5378 13.9193 20.556 13.9375C20.5741 13.9557 20.5844 13.9804 20.5844 14.0061Z" fill="#FFC72C" stroke="black" stroke-width="0.0311751"/>
<path d="M20.0888 14.8059H20.847C20.847 14.8059 20.8574 14.709 20.7674 14.6501C21.1656 14.5947 21.0617 14.2485 21.3906 14.2277C21.4599 14.2381 21.2175 14.3766 21.2175 14.3766C21.2175 14.3766 21.0202 14.5151 21.1136 14.5878C21.1829 14.6467 21.2175 14.5532 21.2244 14.4839C21.2313 14.4147 21.5464 14.3697 21.5014 14.1723C21.4287 14.0096 20.9925 14.2831 20.9925 14.2831L20.6809 14.2797C20.6601 14.2451 20.577 14.1066 20.487 14.1066C20.3831 14.1066 20.3069 14.2797 20.3069 14.2797H19.6041C19.6041 14.2797 19.5799 14.4632 19.9365 14.4978C20.0161 14.6017 20.0784 14.6294 20.1511 14.6571C20.105 14.694 20.0842 14.7436 20.0888 14.8059ZM20.1442 14.6536H20.7743H20.1442Z" fill="#FFC72C"/>
<path d="M20.1442 14.6536H20.7743M20.0888 14.8059H20.847C20.847 14.8059 20.8574 14.709 20.7674 14.6501C21.1656 14.5947 21.0617 14.2485 21.3906 14.2277C21.4599 14.2381 21.2175 14.3766 21.2175 14.3766C21.2175 14.3766 21.0202 14.5151 21.1136 14.5878C21.1829 14.6467 21.2175 14.5532 21.2244 14.4839C21.2313 14.4147 21.5464 14.3697 21.5014 14.1723C21.4287 14.0096 20.9925 14.2831 20.9925 14.2831L20.6809 14.2797C20.6601 14.2451 20.577 14.1066 20.487 14.1066C20.3831 14.1066 20.3069 14.2797 20.3069 14.2797H19.6041C19.6041 14.2797 19.5799 14.4632 19.9365 14.4978C20.0161 14.6017 20.0784 14.6294 20.1511 14.6571C20.105 14.694 20.0842 14.7436 20.0888 14.8059Z" stroke="black" stroke-width="0.0311751"/>
<path d="M19.8569 14.2832C19.8569 14.2832 19.9054 14.5775 20.1408 14.6468L19.8569 14.2832Z" fill="#FFC72C"/>
<path d="M19.8569 14.2832C19.8569 14.2832 19.9054 14.5775 20.1408 14.6468" stroke="black" stroke-width="0.0311751"/>
<path d="M19.8185 14.276C19.8393 14.1652 19.8843 14.1445 19.9293 13.999C19.9362 13.8606 19.8185 13.8779 19.8531 13.7913C19.9132 13.6898 19.8843 13.6009 19.7666 13.5247C19.7908 13.6528 19.6143 13.774 19.6143 13.8779C19.6143 13.9817 19.7043 13.961 19.6939 14.1202C19.7008 14.2102 19.6697 14.1895 19.6593 14.276H19.8185Z" fill="url(#paint11_linear_720_53466)" stroke="black" stroke-width="0.0311751"/>
<path d="M20.5766 13.5796C20.5766 13.6033 20.5672 13.6261 20.5504 13.6429C20.5336 13.6597 20.5108 13.6692 20.487 13.6692C20.4633 13.6692 20.4405 13.6597 20.4237 13.6429C20.4069 13.6261 20.3975 13.6033 20.3975 13.5796C20.3975 13.5558 20.4069 13.533 20.4237 13.5162C20.4405 13.4994 20.4633 13.49 20.487 13.49C20.5108 13.49 20.5336 13.4994 20.5504 13.5162C20.5672 13.533 20.5766 13.5558 20.5766 13.5796Z" fill="#FFC72C" stroke="black" stroke-width="0.0311751"/>
<path d="M18.4782 14.9446C18.4782 14.9446 18.6755 15.4016 18.9005 15.1177C19.1256 14.8407 19.046 14.7196 19.046 14.7196L18.5405 14.446L18.3916 14.7576L18.4782 14.9446Z" fill="#FFC72C" stroke="black" stroke-width="0.0311751"/>
<path d="M18.9147 14.8858C18.9147 14.8858 18.9494 14.8893 18.9736 14.8408C19.0013 14.7923 18.9147 14.7715 18.8732 14.7161L18.8316 14.8027L18.9147 14.8858ZM17.7717 14.7611L17.3283 15.0036C17.3283 15.0036 17.1066 15.0486 17.0927 15.0036C17.0754 14.962 17.0962 14.9239 17.214 14.917C17.3283 14.9136 17.64 14.626 17.64 14.626L17.7717 14.7646V14.7611ZM17.7786 6.86692L17.7924 7.02626C17.7994 7.08168 17.7058 7.19946 17.7024 7.19253C17.6989 7.1856 17.6504 7.19946 17.6573 7.23063C17.6643 7.26181 17.7266 7.27566 17.7266 7.27566C17.7266 7.27566 17.7024 7.38997 17.7266 7.3969C17.7543 7.40036 17.6573 7.54238 17.7266 7.58048C17.7994 7.61859 17.9206 7.67055 17.976 7.66015C18.0314 7.64976 17.976 7.87145 17.976 7.87145L17.8201 8.20052L18.6653 8.11392L18.4921 7.83681C18.4921 7.83681 18.409 7.77793 18.4298 7.61859C18.454 7.46271 18.4194 6.74222 18.4194 6.74222L17.8167 6.65909L17.7786 6.86692ZM17.6227 8.12085C17.6227 8.12085 17.3491 8.24555 17.3594 8.58501C17.2902 8.91408 17.2521 9.24315 17.2521 9.24315C17.2521 9.24315 16.9265 9.61033 16.8295 9.74542C16.729 9.87705 16.5801 10.1438 16.5281 10.2165C16.4727 10.2858 16.2579 10.5213 16.2614 10.6114C16.2683 10.698 16.2129 11.0894 16.4277 11.131C16.4831 11.1552 16.6597 10.6807 16.6597 10.6807C16.6597 10.6807 16.6701 10.4798 16.6078 10.4382C16.5489 10.4036 16.7394 10.2719 16.7394 10.2719L17.1897 9.93593C17.2729 9.86666 17.498 9.61726 17.498 9.61726L17.6227 8.12085Z" fill="#FFC6B5" stroke="black" stroke-width="0.0311751"/>
<path d="M17.9378 7.86119C17.9378 7.86119 18.0071 8.05517 18.1665 8.02053C18.3258 7.98589 18.5129 7.84041 18.5129 7.84041C18.5129 7.84041 18.6618 7.83348 18.6826 7.85773C18.7034 7.88198 19.0844 8.24568 19.0705 8.35999C19.0602 8.47777 18.8973 8.44313 18.835 8.51933C18.7726 8.59554 18.6757 8.78952 18.7034 8.935C18.7311 9.07356 18.8142 9.26061 18.8038 9.33335C18.7934 9.40609 18.7345 9.42687 18.7345 9.46498C18.7345 9.50308 18.783 9.56889 18.783 9.63817C18.783 9.71091 18.7138 9.81483 18.7276 9.88757C18.738 9.95685 18.7415 10.1647 18.7415 10.1647L18.7276 11.1346C18.7276 11.1346 18.783 11.1657 18.7865 11.2212C18.7934 11.2731 19.1606 12.87 19.1606 12.87C19.1606 12.87 19.1433 12.9219 19.1052 12.915C19.0671 12.9081 19.2541 13.161 19.2576 13.2337C19.2611 13.3064 19.4516 13.8641 19.4446 13.9403C19.4377 14.0165 19.41 14.1897 19.3961 14.1932C19.3788 14.2001 19.5174 14.5465 19.4931 14.5985C19.4724 14.6539 19.2507 14.6504 19.2507 14.6504L19.1883 14.6366C19.1883 14.6366 19.1918 14.7093 19.1502 14.7162C19.1086 14.7232 18.783 14.6989 18.783 14.6989C18.783 14.6989 18.6895 14.8409 18.6341 14.8375C18.5787 14.8306 18.5059 14.7336 18.4921 14.7474C18.4748 14.7647 18.5406 14.8583 18.5267 14.886C18.5059 14.9137 18.2288 14.9726 18.1734 14.8409C18.118 14.7093 18.208 14.744 18.1873 14.7162C18.1734 14.6885 18.0487 14.6158 18.0071 14.6366C17.9725 14.6608 18.1076 14.692 18.1007 14.7474C18.0937 14.8028 17.9794 14.886 17.9378 14.886C17.8963 14.886 17.7889 14.6816 17.633 14.7024C17.4806 14.7266 17.3836 14.7647 17.3836 14.7647C17.3836 14.7647 17.2 14.8409 17.1238 14.8236C17.0476 14.8098 17.013 14.7474 17.013 14.7162C17.013 14.6816 17.0684 14.5396 17.0649 14.4946C17.058 14.453 17.013 14.408 17.013 14.3421C17.013 14.2763 17.1412 14.0512 17.1412 14.0512L17.1342 13.0397C17.1342 13.0397 17.0199 13.0397 17.013 12.9704C17.0095 12.9012 17.1896 11.3736 17.2208 11.2731L17.3178 10.8228C17.3178 10.8228 17.2347 10.8644 17.2278 10.8228C17.2243 10.7882 17.4772 9.91528 17.4772 9.91528C17.4772 9.91528 17.5187 9.47883 17.5187 9.36452C17.5187 9.25021 17.4979 9.09088 17.4979 9.09088C17.4979 9.09088 17.2728 8.99389 17.2659 8.8484C17.2451 8.61632 17.4806 8.48816 17.5083 8.41195L17.6192 8.1002C17.6192 8.1002 17.7404 7.89237 17.9378 7.86119Z" fill="white" stroke="black" stroke-width="0.0311751"/>
<path d="M17.8544 14.8305C17.8544 14.8305 17.3212 15.1075 17.245 15.1317C17.1688 15.1559 17.1204 15.0382 17.1965 15.0175C17.2727 14.9932 17.3939 14.9828 17.3939 14.9828C17.3939 14.9828 17.2138 14.8409 17.2208 14.834L17.4701 14.7439C17.477 14.7439 17.5462 14.8824 17.5947 14.8755C17.6634 14.8421 17.7284 14.8015 17.7886 14.7543L17.8544 14.8305Z" fill="#FFC72C" stroke="black" stroke-width="0.0311751"/>
<path d="M18.6028 14.9829C18.6547 15.0487 18.672 15.1595 18.7897 15.0937C18.904 15.0279 18.7309 14.9068 18.7309 14.9068L18.6028 14.9829Z" fill="#FFC6B5" stroke="black" stroke-width="0.0311751"/>
<path d="M18.814 14.9726C18.814 14.9726 18.8694 15.0176 18.9179 14.9656C18.9664 14.9171 18.8209 14.8132 18.8209 14.8132L18.7482 14.8964L18.814 14.9726ZM19.0496 8.3877C19.0565 8.3877 19.2297 8.92806 19.2539 9.06662C19.2747 9.20517 19.3474 9.75247 19.3197 9.82868C19.292 9.90488 19.0114 10.2721 18.9803 10.3656C18.9491 10.4591 18.7482 10.8159 18.7482 10.8159C18.7482 10.8159 18.6997 11.1692 18.6789 11.1831C18.6581 11.1969 18.7343 11.287 18.7274 11.3147C18.717 11.3493 18.5681 11.5017 18.5023 11.4879C18.4364 11.474 18.3291 11.3944 18.3291 11.3216C18.3187 11.2523 18.3291 11.0133 18.381 10.9544C18.4295 10.8921 18.6893 10.2859 18.7032 10.2478C18.7205 10.2062 18.9387 9.72822 18.9456 9.64855C18.9526 9.56888 18.8764 9.37491 18.8001 9.30563C18.627 8.79644 18.6962 8.49161 19.0496 8.3877Z" fill="#FFC6B5" stroke="black" stroke-width="0.0311751"/>
<path d="M17.7575 6.83567C17.7575 6.83567 17.8822 6.85298 17.9479 6.8149C18.0137 6.77681 18.0899 6.7595 18.1453 6.83567C18.2007 6.91184 18.2388 6.90491 18.2388 6.90491C18.2388 6.90491 18.1557 7.11265 18.2388 7.13342C18.3184 7.15419 18.3599 7.15419 18.3634 7.18189C18.3669 7.20959 18.2942 7.26845 18.3149 7.29614C18.3357 7.32384 18.3738 7.355 18.3807 7.37924C18.3876 7.40347 18.3323 7.49349 18.3461 7.51773C18.3634 7.5385 18.4153 7.62505 18.4465 7.62505C18.4811 7.62505 18.4569 7.76354 18.5573 7.72892C18.6542 7.6943 18.6508 7.60774 18.6508 7.60774C18.6508 7.60774 18.7546 7.59389 18.7823 7.50041C18.81 7.40693 18.8724 7.3827 18.8724 7.3827C18.8724 7.3827 19.0039 7.31345 18.8308 7.20266C18.8308 6.43405 18.3253 6.51715 18.3253 6.51715C18.3253 6.51715 18.2665 6.37866 18.1661 6.39597C18.0657 6.41328 18.0622 6.52753 17.993 6.51715C17.9202 6.50676 17.9029 6.45829 17.8995 6.46175C17.8925 6.46867 17.8302 6.57947 17.8302 6.6037C17.8302 6.6314 17.6398 6.56908 17.6571 6.70757C17.6744 6.85298 17.7679 6.84606 17.761 6.83567H17.7575Z" fill="#9C5100" stroke="black" stroke-width="0.0311751"/>
<path d="M18.6514 8.07593C18.6514 8.07593 18.1629 8.38768 18.1733 8.49852M18.7622 8.13135C18.7622 8.13135 18.6514 8.25259 18.6444 8.25259M18.9077 8.26298C18.9077 8.26298 18.6652 8.46042 18.7033 8.58512M17.7681 8.04822C17.7681 8.04822 17.6953 8.19717 17.7126 8.24566C17.73 8.29415 17.8512 8.4812 17.8651 8.59551C17.8824 8.71329 17.8651 8.79296 17.8651 8.79296M17.6399 8.32187C17.6399 8.32187 17.6607 8.49506 17.6953 8.5297C17.73 8.56434 17.8166 8.71329 17.8269 8.77217M17.5949 9.05275C17.5949 9.05275 17.7404 9.12203 17.872 8.84838M18.0833 8.65786C18.0798 8.65786 17.9794 8.92458 18.156 9.02504C18.3327 9.12549 18.4643 9.11163 18.537 9.08392C18.6167 9.05968 18.6999 9.00772 18.6999 9.00772M18.0071 8.98693C18.0071 8.98693 18.0175 9.34718 18.5509 9.70396M18.0313 9.3264C18.0313 9.3264 18.0244 9.64507 18.2322 9.78709M17.9205 8.95229C17.9205 8.95229 17.7611 9.42685 17.633 9.47188M17.872 9.29868C17.872 9.29868 17.8651 9.63815 17.82 9.75938M17.7785 9.84252C17.7785 9.84252 17.8858 9.98107 18.0071 9.96722C18.1283 9.95336 18.1803 9.8148 18.2599 9.83559C18.3431 9.85984 18.4193 9.92565 18.6098 9.90833M18.3361 10.0503C18.3361 10.0503 18.3361 10.3309 18.3881 10.3586C18.4366 10.3863 18.4123 10.6427 18.4123 10.6427M17.6676 9.91872C17.6676 9.91872 17.6607 10.182 17.6295 10.2755C17.5983 10.369 17.5291 10.5284 17.5429 10.6669M17.3316 10.8193C17.3593 10.8089 17.4528 10.7258 17.4528 10.7258M17.5013 10.7847C17.5013 10.7847 17.2658 11.7962 17.3316 12.3989M17.5568 10.8367C17.5568 10.8367 17.4355 11.5918 17.491 11.7373M17.4979 10.8124L17.9586 10.847M18.0244 10.7847C18.0244 10.7847 18.1491 10.854 18.3258 10.8401M17.969 11.1553C17.969 11.1553 17.9482 12.4474 17.9135 12.7349M18.6444 11.4498C18.6444 11.4498 18.7864 12.5859 18.8696 12.6898M18.3708 11.5918C18.3708 11.5918 18.4574 12.5963 18.5093 12.6864M17.1238 13.0362C17.1238 13.0362 17.297 12.9808 17.4494 12.818C17.6226 13.0535 17.8928 12.8284 17.8928 12.8284C17.8928 12.8284 18.3084 13.1124 18.4955 12.7938C18.783 12.9808 18.925 12.766 18.925 12.766C18.925 12.766 19.0289 12.9254 19.1051 12.9081M18.6514 13.0189C18.6514 13.0189 18.8627 14.0234 19.1813 14.3075" stroke="black" stroke-width="0.0311751"/>
<path d="M17.5497 12.915C17.5497 12.915 17.574 13.7533 17.6224 14.3456M17.5081 13.8641C17.5081 13.8641 17.4804 14.4114 17.4493 14.453M17.186 14.5049C17.186 14.5049 17.2449 14.7439 17.5462 14.5222C17.8476 14.304 17.8545 14.6054 17.8649 14.6365C17.8753 14.6712 17.9238 14.9067 18.0381 14.7093M18.2806 14.3871C18.2806 14.3871 18.2321 14.8721 18.6651 14.5188C19.0981 14.162 19.1708 14.5118 19.1847 14.6227M18.2875 6.6488C18.2875 6.6488 18.2494 6.89128 18.5057 6.86703C18.4711 7.00212 18.575 7.04369 18.575 7.04369M18.7621 7.19264C18.769 7.19264 18.8798 7.26191 18.7621 7.35197M18.3914 7.38315C18.3914 7.38315 18.4469 7.45243 18.5057 7.43511C18.5681 7.41779 18.6651 7.49399 18.6651 7.49399C18.6651 7.49399 18.7482 7.52171 18.7586 7.50439M18.0554 7.59098C18.0554 7.59098 18.2425 7.66373 18.3672 7.36929M17.7125 7.27923L17.8199 7.28616M16.4932 10.7431L16.5036 10.9821M16.2681 10.7223C16.2681 10.7223 16.4239 10.9821 16.4066 11.1172" stroke="black" stroke-width="0.0311751"/>
<path d="M17.7263 7.39009H17.8268L17.7402 7.42819M18.336 11.2627C18.336 11.2627 18.4503 11.2489 18.4468 11.4428C18.5196 11.2004 18.6685 11.1969 18.6685 11.1969" stroke="black" stroke-width="0.0311751" stroke-linejoin="round"/>
<path d="M17.865 7.08174C17.8822 7.08174 17.9408 7.06107 17.9511 7.0783C17.9649 7.09208 17.8857 7.10586 17.865 7.08174Z" stroke="black" stroke-width="0.0588862" stroke-linejoin="round"/>
<path d="M17.9412 16.7564C19.3874 16.6894 20.7501 16.059 21.7376 15.0002C21.7237 14.9864 22.0459 14.536 22.3022 14.5984C22.5585 14.6608 22.9292 15.4193 23.3795 15.5821C23.6046 15.9355 23.3171 16.2576 23.2201 16.32C23.1231 16.3823 22.6867 16.5624 22.6243 16.3061C22.5585 16.0463 22.4304 16.0983 22.4304 16.0983C22.4304 16.0983 20.3693 18.1073 17.9896 18.0277C15.5303 18.0415 13.5004 16.0948 13.5004 16.0948L13.3238 16.2888C13.3238 16.2888 13.1298 16.4966 13.0328 16.4828C12.9358 16.4689 12.5167 16.1918 12.4855 15.9181C12.4543 15.6445 12.7418 15.4678 12.7418 15.4678C12.7418 15.4678 13.4519 14.9205 13.5316 14.633C13.6944 14.4702 13.9992 14.7439 13.9992 14.7439C13.9992 14.7439 15.8663 16.8846 17.9412 16.7529V16.7564Z" fill="#FFC72C" stroke="black" stroke-width="0.065814"/>
<path d="M12.6968 15.5095C12.6968 15.5095 12.8872 15.461 12.9564 15.5406C13.0257 15.6203 13.5104 16.0946 13.5104 16.0946" stroke="black" stroke-width="0.065814"/>
<path d="M13.1334 15.7346L12.9395 15.8767C12.9395 15.8767 13.4244 15.9737 13.3136 16.2923M23.2064 15.4956C23.2064 15.4956 23.1129 15.4437 22.964 15.5545C22.8116 15.6688 22.434 16.0914 22.434 16.0914" stroke="black" stroke-width="0.065814"/>
<path d="M22.7766 15.7208L22.9844 15.8801C22.9844 15.8801 22.5516 15.9112 22.6451 16.3198" stroke="black" stroke-width="0.065814"/>
<path d="M15.1493 16.0221C15.1354 16.0568 15.1008 16.0221 15.0731 16.029C15.0038 16.029 14.9415 16.0775 14.8791 16.1122L14.2417 16.4828C14.2256 16.4736 14.2221 16.4597 14.2314 16.4412L14.4046 15.6445C14.4115 15.5995 14.4253 15.5406 14.3803 15.506C14.363 15.4921 14.3907 15.4679 14.4046 15.4921L14.7302 15.7242C14.7198 15.7554 14.699 15.7311 14.6817 15.7208C14.6366 15.6757 14.5812 15.7173 14.5847 15.7727L14.4669 16.2958L14.9034 16.0394C14.9518 16.0186 14.9899 15.9494 14.938 15.9078C14.9172 15.8939 14.8826 15.8628 14.9172 15.8558L15.1493 16.0221ZM15.3779 17.1306C15.371 17.1513 15.3594 17.1548 15.3433 17.141L14.9622 16.9331C14.9645 16.91 14.9749 16.9054 14.9934 16.9193C15.0281 16.9435 15.0835 16.9539 15.1112 16.9123L15.2497 16.6595L15.4437 16.3062C15.4714 16.2611 15.4403 16.2092 15.3987 16.1918C15.3848 16.1849 15.3641 16.178 15.3814 16.1641C15.3883 16.1537 15.4091 16.1745 15.4195 16.178L15.7866 16.3789C15.782 16.3997 15.7716 16.4031 15.7555 16.3893C15.7208 16.365 15.6654 16.3546 15.6377 16.3962L15.4991 16.6491L15.3052 17.0024C15.2775 17.044 15.3086 17.0994 15.3502 17.1167L15.3779 17.1306ZM16.8535 16.7842L16.7496 17.0751C16.7046 17.0717 16.7358 17.0162 16.7219 16.9885C16.715 16.9222 16.6882 16.8595 16.6449 16.8088C16.6016 16.7581 16.5439 16.7217 16.4794 16.7045C16.3755 16.6768 16.2716 16.7287 16.2092 16.8119C16.119 16.9352 16.066 17.0819 16.0568 17.2345C16.0537 17.278 16.0623 17.3215 16.0818 17.3606C16.1013 17.3996 16.131 17.4326 16.1677 17.4562C16.2287 17.4943 16.3002 17.5125 16.372 17.5081L16.4448 17.2899C16.4552 17.2414 16.4032 17.2102 16.3651 17.1998C16.3582 17.186 16.372 17.1652 16.3894 17.1825L16.7704 17.3211C16.7704 17.3661 16.715 17.3141 16.6838 17.3349C16.6388 17.3522 16.6353 17.4077 16.6145 17.4492L16.5695 17.5809C16.394 17.5924 16.2277 17.5555 16.0707 17.47C15.9287 17.38 15.8282 17.2033 15.8594 17.0301C15.8802 16.8812 15.9737 16.7426 16.1088 16.6768C16.2335 16.6075 16.3859 16.611 16.5175 16.6629C16.5868 16.6906 16.6492 16.7299 16.7046 16.7807C16.7392 16.8257 16.8016 16.8257 16.8293 16.7772L16.8535 16.7842ZM17.4736 17.7818C17.4736 17.7956 17.4736 17.8129 17.4528 17.8026L17.0163 17.7367C17.014 17.716 17.0209 17.709 17.0371 17.716C17.0718 17.7229 17.1272 17.7229 17.141 17.6813C17.1572 17.6213 17.1687 17.5612 17.1757 17.5012L17.2519 16.9955C17.2623 16.9608 17.2519 16.9193 17.2138 16.9054L17.1445 16.8881C17.1399 16.8719 17.1468 16.865 17.1653 16.8673L17.6017 16.9366C17.6063 16.9551 17.5994 16.962 17.5809 16.9574C17.5463 16.947 17.4943 16.9504 17.477 16.992C17.4609 17.0497 17.4493 17.1086 17.4424 17.1687L17.3662 17.6744C17.3558 17.709 17.3662 17.7541 17.4077 17.7679L17.477 17.7818H17.4736ZM18.6582 17.4977L18.6409 17.806L17.8581 17.8441C17.8534 17.8256 17.8604 17.8176 17.8788 17.8199C17.9169 17.8199 17.9689 17.8026 17.9758 17.7575L17.9654 17.5289L17.9412 17.0647C17.9447 17.0197 17.9065 16.9851 17.8615 16.9885C17.8477 16.9816 17.8096 17.0024 17.813 16.9781C17.8061 16.9574 17.8373 16.9678 17.8477 16.9643L18.2841 16.94C18.2887 16.9631 18.2807 16.9724 18.2599 16.9678C18.2218 16.9678 18.1698 16.9747 18.156 17.0232C18.156 17.0901 18.1583 17.156 18.1629 17.2206L18.1871 17.7056C18.1871 17.7437 18.2218 17.7818 18.2633 17.7748C18.3257 17.7714 18.3915 17.7748 18.4538 17.7575C18.5404 17.7333 18.5855 17.6467 18.6097 17.567C18.627 17.5462 18.6097 17.4908 18.6444 17.4977H18.6582ZM19.2644 16.7426C19.2436 16.7426 19.254 16.7703 19.2471 16.7842C19.2147 17.0451 19.1801 17.3038 19.1432 17.5601C19.1362 17.619 19.1224 17.6848 19.067 17.7125C19.0462 17.7229 19.0635 17.7541 19.0843 17.7367L19.3441 17.6571C19.3406 17.6155 19.2886 17.6571 19.2609 17.6467C19.202 17.6467 19.1917 17.5739 19.202 17.5289C19.202 17.4966 19.2055 17.4654 19.2124 17.4354L19.5103 17.3453C19.5496 17.3915 19.5877 17.44 19.6246 17.4908C19.6524 17.5393 19.59 17.5601 19.5554 17.5705C19.5346 17.5705 19.5484 17.6051 19.5658 17.5913L19.9572 17.4735C19.9572 17.4285 19.9018 17.4735 19.8775 17.4388C19.8013 17.3869 19.7493 17.3107 19.6905 17.2414L19.2644 16.7426ZM19.2644 17.0544L19.4722 17.3072L19.2194 17.3834L19.2644 17.0544ZM20.6015 16.1607L20.7158 16.3685C20.6811 16.4031 20.6603 16.3304 20.6292 16.32C20.6026 16.2987 20.5704 16.2857 20.5365 16.2827C20.5026 16.2796 20.4686 16.2865 20.4387 16.3027L20.3694 16.3408L20.7088 16.9747C20.7262 17.0266 20.792 17.037 20.837 17.0093C20.8532 16.9908 20.8647 16.992 20.8716 17.0128C20.8139 17.0474 20.7539 17.0798 20.6915 17.1098L20.4664 17.231C20.4525 17.2148 20.4571 17.2033 20.4802 17.1964C20.4925 17.1919 20.5035 17.1847 20.5124 17.1752C20.5213 17.1658 20.5279 17.1544 20.5316 17.1419C20.5353 17.1294 20.536 17.1163 20.5337 17.1035C20.5314 17.0907 20.5261 17.0786 20.5183 17.0682L20.1823 16.4447C20.12 16.4793 20.0438 16.5071 20.0265 16.5833C20.0091 16.6352 20.0334 16.6941 20.0334 16.7357C20.0161 16.7565 20.0091 16.7287 19.9987 16.7149L19.9052 16.5348L20.6015 16.1607ZM21.1314 15.8455L21.3462 16.133C21.3947 16.0983 21.4363 16.0429 21.4224 15.9805C21.4293 15.9321 21.3601 15.8766 21.3843 15.842C21.3982 15.8351 21.4085 15.8697 21.4189 15.8801L21.6683 16.2092C21.6337 16.2438 21.6129 16.1711 21.5783 16.1607C21.5298 16.126 21.464 16.1087 21.412 16.1468C21.3774 16.1607 21.3739 16.1803 21.4016 16.2057C21.457 16.2819 21.5148 16.357 21.5748 16.4309C21.6095 16.4655 21.6579 16.4309 21.6891 16.4031C21.7723 16.3477 21.845 16.2577 21.8415 16.1537C21.8485 16.1052 21.8173 16.0568 21.8173 16.0152C21.8381 15.9909 21.8415 16.029 21.8519 16.0429L21.9697 16.2507L21.3601 16.7114C21.3358 16.6941 21.3601 16.6803 21.3774 16.6699C21.4328 16.6352 21.4155 16.5625 21.3774 16.5244L20.9825 16.0083C20.9478 15.9632 20.8855 15.9875 20.8543 16.0186C20.837 16.0394 20.8197 16.0013 20.8439 15.9979L21.4155 15.5649L21.5714 15.7727C21.5367 15.8074 21.5021 15.7277 21.464 15.7242C21.3878 15.6826 21.2977 15.7138 21.2354 15.7658L21.128 15.8455" fill="black"/>
<path d="M0.00488281 0.013092H12.0071V12.0153H0.00488281V0.013092Z" fill="#012169"/>
<path d="M12.0071 0.013092V1.51337L7.55313 6.01418L12.0071 10.3978V12.0153H10.4365L5.95909 7.60822L1.59892 12.0153H0.00488281V10.4212L4.36505 6.03763L0.00488281 1.74778V0.013092H1.45827L5.95909 4.42014L10.3193 0.013092H12.0071Z" fill="white"/>
<path d="M4.31817 7.60822L4.57603 8.40524L0.989437 12.0153H0.00488281V11.945L4.31817 7.60822ZM7.22495 7.32692L8.4908 7.51446L12.0071 10.9604V12.0153L7.22495 7.32692ZM12.0071 0.013092L7.50625 4.60768L7.41248 3.57624L10.9287 0.013092H12.0071ZM0.00488281 0.0365338L4.52914 4.46703L3.14608 4.27949L0.00488281 1.16174V0.0365338Z" fill="#C8102E"/>
<path d="M4.13063 0.013092V12.0153H7.88132V0.013092H4.13063ZM0.00488281 4.13884V7.88953H12.0071V4.13884H0.00488281Z" fill="white"/>
<path d="M0.00488281 4.88898V7.13939H12.0071V4.88898H0.00488281ZM4.88077 0.013092V12.0153H7.13118V0.013092H4.88077Z" fill="#C8102E"/>
</g>
<defs>
<linearGradient id="paint0_linear_720_53466" x1="14.6915" y1="6.9571" x2="14.2977" y2="6.89905" gradientUnits="userSpaceOnUse">
<stop stop-color="#FF0000"/>
<stop offset="1" stop-color="#FFFF00"/>
</linearGradient>
<linearGradient id="paint1_linear_720_53466" x1="14.6646" y1="8.38775" x2="14.2708" y2="8.3297" gradientUnits="userSpaceOnUse">
<stop stop-color="#FF0000"/>
<stop offset="1" stop-color="#FFFF00"/>
</linearGradient>
<linearGradient id="paint2_linear_720_53466" x1="14.6534" y1="9.79746" x2="14.2596" y2="9.73941" gradientUnits="userSpaceOnUse">
<stop stop-color="#FF0000"/>
<stop offset="1" stop-color="#FFFF00"/>
</linearGradient>
<linearGradient id="paint3_linear_720_53466" x1="15.5787" y1="11.3251" x2="15.1849" y2="11.2671" gradientUnits="userSpaceOnUse">
<stop stop-color="#FF0000"/>
<stop offset="1" stop-color="#FFFF00"/>
</linearGradient>
<linearGradient id="paint4_linear_720_53466" x1="14.5333" y1="12.5756" x2="14.1395" y2="12.5175" gradientUnits="userSpaceOnUse">
<stop stop-color="#FF0000"/>
<stop offset="1" stop-color="#FFFF00"/>
</linearGradient>
<linearGradient id="paint5_linear_720_53466" x1="14.5601" y1="14.0512" x2="14.1663" y2="13.9932" gradientUnits="userSpaceOnUse">
<stop stop-color="#FF0000"/>
<stop offset="1" stop-color="#FFFF00"/>
</linearGradient>
<linearGradient id="paint6_linear_720_53466" x1="19.7596" y1="6.9813" x2="19.3658" y2="6.92325" gradientUnits="userSpaceOnUse">
<stop stop-color="#FF0000"/>
<stop offset="1" stop-color="#FFFF00"/>
</linearGradient>
<linearGradient id="paint7_linear_720_53466" x1="19.7113" y1="8.3841" x2="19.3175" y2="8.32605" gradientUnits="userSpaceOnUse">
<stop stop-color="#FF0000"/>
<stop offset="1" stop-color="#FFFF00"/>
</linearGradient>
<linearGradient id="paint8_linear_720_53466" x1="19.6493" y1="9.82171" x2="19.2555" y2="9.76366" gradientUnits="userSpaceOnUse">
<stop stop-color="#FF0000"/>
<stop offset="1" stop-color="#FFFF00"/>
</linearGradient>
<linearGradient id="paint9_linear_720_53466" x1="19.7215" y1="11.2316" x2="19.3277" y2="11.1736" gradientUnits="userSpaceOnUse">
<stop stop-color="#FF0000"/>
<stop offset="1" stop-color="#FFFF00"/>
</linearGradient>
<linearGradient id="paint10_linear_720_53466" x1="19.7044" y1="12.6449" x2="19.3106" y2="12.5869" gradientUnits="userSpaceOnUse">
<stop stop-color="#FF0000"/>
<stop offset="1" stop-color="#FFFF00"/>
</linearGradient>
<linearGradient id="paint11_linear_720_53466" x1="19.7113" y1="14.0651" x2="19.3175" y2="14.0071" gradientUnits="userSpaceOnUse">
<stop stop-color="#FF0000"/>
<stop offset="1" stop-color="#FFFF00"/>
</linearGradient>
<clipPath id="clip0_720_53466">
<rect width="24.0044" height="24.0044" fill="white" transform="translate(0.00439453 0.013092)"/>
</clipPath>
</defs>
</svg>
