<svg width="25" height="25" viewBox="0 0 25 25" fill="none" xmlns="http://www.w3.org/2000/svg">
<g clip-path="url(#clip0_720_53460)">
<path d="M0.00927734 0.0131378H24.0136V24.0175H0.00927734V0.0131378Z" fill="#F7E017"/>
<path d="M0.0090332 1.68214V12.3435L24.0134 17.3459V11.673L0.0090332 1.68214Z" fill="white"/>
<path d="M0.0090332 7.34567V12.3481L24.0134 22.3484V17.3506L0.0090332 7.34567Z" fill="#000001"/>
<path d="M11.201 19.0066C10.6158 18.9422 10.0527 18.7461 9.55407 18.4331C9.47406 18.3798 9.40071 18.3331 9.38738 18.3331C9.37404 18.3331 9.36737 18.3965 9.36737 18.4698C9.36737 18.6832 9.28069 18.7899 9.06732 18.8465C8.86061 18.8999 8.54722 18.7932 8.29385 18.5798C8.05375 18.374 7.77324 18.2207 7.47036 18.1297C7.15495 18.055 6.8231 18.0976 6.53686 18.2498C6.50847 18.2695 6.47689 18.2841 6.44351 18.2931C6.40684 18.2931 6.41017 18.0631 6.45018 17.9931C6.50019 17.893 6.62021 17.7997 6.76357 17.7497C6.83692 17.723 6.89693 17.6897 6.89693 17.673C6.89693 17.6563 6.87026 17.6063 6.84025 17.553C6.74468 17.3774 6.78246 17.2229 6.9536 17.0896C7.12697 16.9562 7.42035 16.9362 7.67707 17.0329L7.81043 17.0796C7.84376 17.0796 7.82376 17.0295 7.73041 16.8929C7.62372 16.7362 7.60039 16.6595 7.61372 16.4694C7.62481 16.3538 7.67579 16.2457 7.75791 16.1636C7.84004 16.0814 7.94819 16.0304 8.0638 16.0194C8.25717 16.006 8.37719 16.0727 8.66391 16.3428C9.43397 17.1179 10.4454 17.6071 11.5311 17.7297C11.8078 17.763 12.3579 17.7463 12.6813 17.6963C13.7058 17.5254 14.6556 17.0516 15.4085 16.3361C15.6218 16.1361 15.7219 16.0827 15.8986 16.0827C16.0486 16.0827 16.1553 16.1294 16.2653 16.2494C16.3653 16.3594 16.3986 16.4628 16.3853 16.6328C16.3786 16.7395 16.362 16.7895 16.2986 16.8962C16.2053 17.0462 16.2219 17.0629 16.4053 16.9895C16.6587 16.8895 16.9687 16.9362 17.1354 17.0962C17.2821 17.2362 17.2955 17.3763 17.1821 17.563C17.1388 17.633 17.1054 17.6963 17.1054 17.7097C17.1054 17.7297 17.1388 17.7363 17.2888 17.763C17.4888 17.7964 17.6055 17.943 17.6055 18.1697C17.6055 18.2364 17.5955 18.2931 17.5855 18.2931C17.5755 18.2931 17.4988 18.2631 17.4188 18.2298C17.1854 18.1331 17.0521 18.1097 16.7787 18.1131C16.572 18.1131 16.502 18.1231 16.3586 18.1697C16.1188 18.2536 15.8979 18.3839 15.7085 18.5532C15.4951 18.7432 15.3618 18.8032 15.1551 18.7999C14.9617 18.7999 14.8306 18.7443 14.7617 18.6332C14.725 18.5732 14.7183 18.5398 14.7283 18.4065C14.735 18.3198 14.7317 18.2498 14.7283 18.2498C14.7183 18.2498 14.645 18.2964 14.5616 18.3531C14.3712 18.4894 14.1639 18.6004 13.9449 18.6832C13.0673 19.0005 12.1283 19.1112 11.201 19.0066Z" fill="#CF1126"/>
<path d="M11.5544 17.523C10.9092 17.4645 10.2841 17.2686 9.72111 16.9482C9.1581 16.6279 8.67026 16.1907 8.29043 15.666C7.47695 14.5591 7.22357 13.0955 7.47028 11.7586C7.60364 11.1485 7.87036 10.5384 8.32044 10.105C7.95039 10.8753 7.8483 11.7471 8.03039 12.5821C8.33044 14.2424 9.73069 15.646 11.4077 15.8893C12.0744 16.0794 12.7579 15.876 13.3914 15.6726C14.7916 15.1792 15.8585 13.8523 15.9852 12.3687C16.0952 11.5686 15.9752 10.7317 15.6118 10.0016C15.8185 10.1116 16.0785 10.5417 16.2319 10.8284C16.7653 11.8619 16.7886 13.0988 16.4752 14.2024C16.0485 15.6059 14.975 16.8362 13.5581 17.2829C12.9116 17.4846 12.2335 17.566 11.5577 17.523H11.5544Z" fill="#CF1126"/>
<path d="M5.07649 15.6793C4.99318 15.666 4.89987 15.7493 4.9332 15.8359C4.99318 15.9226 5.09981 15.9692 5.19312 16.0092C5.4389 16.1054 5.70284 16.1464 5.96621 16.1292C6.15941 16.129 6.3511 16.0951 6.53271 16.0292C6.63268 15.9959 6.75931 15.9626 6.79929 15.8493C6.84261 15.7793 6.76597 15.706 6.69599 15.7193C6.59602 15.7426 6.49605 15.786 6.39608 15.816C6.1763 15.878 5.94728 15.9005 5.71962 15.8826C5.55394 15.8585 5.39243 15.8114 5.23977 15.7426C5.18645 15.7193 5.13647 15.686 5.07649 15.6793Z" fill="#CF1126"/>
<path d="M5.16985 15.3326C5.08654 15.3193 5.01323 15.4192 5.04655 15.4992C5.1132 15.5925 5.22317 15.6425 5.32647 15.6858C5.50658 15.7569 5.69948 15.7898 5.89296 15.7825H5.94295C6.10744 15.7828 6.27043 15.7511 6.4228 15.6892C6.51277 15.6525 6.62607 15.6158 6.66606 15.5159C6.69605 15.4592 6.67273 15.3792 6.59941 15.3726C6.53943 15.3726 6.48278 15.4126 6.4228 15.4292C6.20583 15.5193 5.9704 15.5558 5.73634 15.5359C5.58972 15.5192 5.4531 15.4659 5.3198 15.4026C5.26982 15.3792 5.2265 15.3426 5.16985 15.3359V15.3326Z" fill="#CF1126"/>
<path d="M5.28668 15.0025C5.21337 14.9925 5.16339 15.0758 5.17671 15.1391C5.18671 15.1991 5.2367 15.2391 5.28002 15.2724C5.46146 15.3981 5.67939 15.4602 5.89983 15.449H5.95314C6.09171 15.448 6.22831 15.4162 6.35302 15.3557C6.43633 15.3224 6.53297 15.2791 6.56296 15.1825C6.57629 15.1391 6.58295 15.0758 6.53297 15.0492C6.47965 15.0225 6.42967 15.0658 6.38301 15.0825C6.22362 15.1662 6.04655 15.2108 5.8665 15.2125C5.71195 15.2063 5.5616 15.1604 5.42997 15.0792C5.37998 15.0558 5.34 15.0125 5.28668 15.0025Z" fill="#CF1126"/>
<path d="M4.05983 10.105C3.95314 10.215 4.03649 10.415 4.02649 10.5551C4.0865 10.9951 4.15651 11.4386 4.31987 11.8553C4.51991 12.2554 4.94665 12.4721 5.20337 12.8288C5.29672 12.9988 5.26338 13.2055 5.28338 13.3956C5.29449 13.9068 5.29449 14.418 5.28338 14.9292C5.51676 15.0492 5.7668 15.1626 6.03352 15.1192C6.19021 15.0825 6.4836 15.0592 6.51694 14.9025L6.4836 12.252C6.39358 11.982 6.11686 11.842 5.91349 11.6686C5.74355 11.5008 5.58537 11.3214 5.44008 11.1318C5.35339 10.9818 5.01 10.9318 5.13335 11.1852C5.2067 11.4085 5.39007 11.5719 5.43674 11.8053C5.44674 11.9353 5.60344 12.172 5.47008 12.2454C5.38712 12.1011 5.26287 11.985 5.11335 11.912C4.96666 11.802 4.72328 11.7553 4.66994 11.5619C4.62172 11.2869 4.49426 11.032 4.3032 10.8284C4.35321 10.5817 4.3032 10.2717 4.08983 10.1116L4.05983 10.105Z" fill="#CF1126"/>
<path d="M4.3898 10.155C4.28983 10.1717 4.2965 10.295 4.33982 10.3616C4.38949 10.505 4.4021 10.6586 4.37647 10.8081C4.55935 11.0115 4.6817 11.262 4.7297 11.5312C4.7297 11.6312 4.83633 11.6645 4.90631 11.7145C5.06959 11.8178 5.24954 11.8945 5.39616 12.0244C5.42615 12.0578 5.44948 12.0911 5.42948 12.0244C5.40616 11.9378 5.39616 11.8445 5.32951 11.7812C5.23621 11.6812 5.12291 11.5946 4.98962 11.5679C4.97962 11.4279 4.91297 11.3013 4.85299 11.1814C4.78635 11.0647 4.71637 10.9414 4.60307 10.8681C4.60307 10.6648 4.60307 10.4516 4.51643 10.2616C4.48977 10.215 4.44978 10.1583 4.3898 10.155Z" fill="#CF1126"/>
<path d="M4.66679 10.235C4.60014 10.255 4.61347 10.3416 4.63346 10.3916C4.66257 10.5363 4.67376 10.6841 4.66679 10.8315C4.79675 10.9315 4.87339 11.0781 4.9467 11.218C4.99558 11.3113 5.03001 11.4102 5.05 11.5146C5.15331 11.5479 5.24328 11.6146 5.32325 11.6812C5.28993 11.5879 5.22328 11.5146 5.1733 11.4246C5.12331 11.3347 5.07333 11.238 5.05 11.1347C4.95003 11.0314 4.89672 10.8815 4.91671 10.7348C4.92338 10.5782 4.87339 10.4149 4.76676 10.295C4.7401 10.2683 4.70677 10.2383 4.66679 10.235Z" fill="#CF1126"/>
<path d="M4.9833 10.2817C4.94332 10.2883 4.92332 10.3216 4.90333 10.3516C4.89333 10.3816 4.92999 10.4116 4.93665 10.4449C4.97993 10.555 4.99594 10.6739 4.9833 10.7915C4.9833 10.8781 5.00552 10.9559 5.04995 11.0248C5.05785 10.9993 5.07318 10.9769 5.09397 10.9602C5.11476 10.9436 5.14005 10.9336 5.16658 10.9315C5.18324 10.9315 5.21323 10.9381 5.1999 10.9081C5.19102 10.746 5.15992 10.5905 5.1066 10.4416C5.08955 10.3841 5.05732 10.3323 5.01329 10.2917C5.00441 10.2828 4.9933 10.2794 4.97997 10.2817H4.9833Z" fill="#CF1126"/>
<path d="M18.9457 15.6793C19.029 15.666 19.1223 15.7493 19.089 15.8359C19.029 15.9226 18.9224 15.9692 18.8291 16.0092C18.5833 16.1054 18.3194 16.1464 18.056 16.1292C17.8628 16.129 17.6711 16.0951 17.4895 16.0292C17.3895 15.9959 17.2629 15.9626 17.2229 15.8493C17.1796 15.7793 17.2562 15.706 17.3262 15.7193C17.4262 15.7426 17.5262 15.786 17.6261 15.816C17.8459 15.878 18.0749 15.9005 18.3026 15.8826C18.4683 15.8585 18.6298 15.8114 18.7824 15.7426C18.8358 15.7193 18.8857 15.686 18.9457 15.6793Z" fill="#CF1126"/>
<path d="M18.8524 15.3326C18.9357 15.3193 19.009 15.4192 18.9757 15.4992C18.909 15.5925 18.799 15.6425 18.6957 15.6858C18.5156 15.7569 18.3227 15.7898 18.1293 15.7825H18.0793C17.9148 15.7828 17.7518 15.7511 17.5994 15.6892C17.5094 15.6525 17.3961 15.6158 17.3562 15.5159C17.3262 15.4592 17.3495 15.3792 17.4228 15.3726C17.4828 15.3726 17.5394 15.4126 17.5994 15.4292C17.8164 15.5193 18.0518 15.5558 18.2859 15.5359C18.4325 15.5192 18.5691 15.4659 18.7024 15.4026C18.7524 15.3792 18.7957 15.3426 18.8524 15.3359V15.3326Z" fill="#CF1126"/>
<path d="M18.7358 15.0025C18.8091 14.9925 18.8591 15.0758 18.8457 15.1391C18.8357 15.1991 18.7858 15.2391 18.7424 15.2724C18.561 15.3981 18.3431 15.4602 18.1226 15.449H18.0693C17.9307 15.448 17.7941 15.4162 17.6694 15.3557C17.5861 15.3224 17.4895 15.2791 17.4595 15.1825C17.4462 15.1391 17.4395 15.0758 17.4895 15.0492C17.5428 15.0225 17.5928 15.0658 17.6394 15.0825C17.7988 15.1662 17.9759 15.2108 18.156 15.2125C18.3105 15.2063 18.4609 15.1604 18.5925 15.0792C18.6425 15.0558 18.6825 15.0125 18.7358 15.0025Z" fill="#CF1126"/>
<path d="M19.9626 10.105C20.0693 10.215 19.986 10.415 19.996 10.5551C19.936 10.9951 19.866 11.4386 19.7026 11.8553C19.5026 12.2554 19.0758 12.4721 18.8191 12.8288C18.7257 12.9988 18.7591 13.2055 18.7391 13.3956C18.728 13.9068 18.728 14.418 18.7391 14.9292C18.5057 15.0492 18.2557 15.1626 17.9889 15.1192C17.8323 15.0825 17.5389 15.0592 17.5055 14.9025L17.5389 12.252C17.6289 11.982 17.9056 11.842 18.109 11.6686C18.2789 11.5008 18.4371 11.3214 18.5824 11.1318C18.6691 10.9818 19.0125 10.9318 18.8891 11.1852C18.8158 11.4085 18.6324 11.5719 18.5857 11.8053C18.5757 11.9353 18.419 12.172 18.5524 12.2454C18.6353 12.1011 18.7596 11.985 18.9091 11.912C19.0558 11.802 19.2992 11.7553 19.3525 11.5619C19.4007 11.2869 19.5282 11.032 19.7193 10.8284C19.6692 10.5817 19.7193 10.2717 19.9326 10.1116L19.9626 10.105Z" fill="#CF1126"/>
<path d="M19.6324 10.155C19.7324 10.1717 19.7257 10.295 19.6824 10.3616C19.6327 10.505 19.6201 10.6586 19.6457 10.8081C19.4629 11.0115 19.3405 11.262 19.2925 11.5313C19.2925 11.6312 19.1859 11.6646 19.1159 11.7145C18.9526 11.8178 18.7727 11.8945 18.6261 12.0244C18.5961 12.0578 18.5727 12.0911 18.5927 12.0244C18.6161 11.9378 18.6261 11.8445 18.6927 11.7812C18.786 11.6812 18.8993 11.5946 19.0326 11.5679C19.0426 11.428 19.1092 11.3013 19.1692 11.1814C19.2359 11.0647 19.3058 10.9414 19.4191 10.8681C19.4191 10.6649 19.4191 10.4516 19.5058 10.2616C19.5324 10.215 19.5724 10.1583 19.6324 10.155Z" fill="#CF1126"/>
<path d="M19.3559 10.235C19.4226 10.255 19.4092 10.3416 19.3892 10.3916C19.3601 10.5363 19.3489 10.6841 19.3559 10.8315C19.226 10.9315 19.1493 11.0781 19.076 11.218C19.0271 11.3113 18.9927 11.4102 18.9727 11.5146C18.8694 11.5479 18.7794 11.6146 18.6995 11.6812C18.7328 11.5879 18.7994 11.5146 18.8494 11.4246C18.8994 11.3347 18.9494 11.238 18.9727 11.1347C19.0727 11.0314 19.126 10.8815 19.106 10.7348C19.0993 10.5782 19.1493 10.4149 19.2559 10.295C19.2826 10.2683 19.3159 10.2383 19.3559 10.235Z" fill="#CF1126"/>
<path d="M19.0392 10.2817C19.0791 10.2883 19.0991 10.3216 19.1191 10.3516C19.1291 10.3816 19.0925 10.4116 19.0858 10.4449C19.0425 10.555 19.0265 10.6739 19.0392 10.7915C19.0392 10.8781 19.0169 10.9559 18.9725 11.0248C18.9646 10.9993 18.9493 10.9769 18.9285 10.9602C18.9077 10.9436 18.8824 10.9336 18.8559 10.9315C18.8392 10.9315 18.8092 10.9381 18.8226 10.9081C18.8314 10.746 18.8625 10.5905 18.9159 10.4416C18.9329 10.3841 18.9651 10.3323 19.0092 10.2917C19.0181 10.2828 19.0292 10.2794 19.0425 10.2817H19.0392Z" fill="#CF1126"/>
<path d="M11.8677 15.8827C11.643 15.8568 11.4303 15.7679 11.2539 15.6263C11.0775 15.4848 10.9447 15.2963 10.8708 15.0825C10.8809 15.0092 10.9709 15.1225 11.0142 15.1325C11.0955 15.181 11.1867 15.2106 11.2809 15.2192C11.3976 15.2692 11.471 15.3859 11.5843 15.4493C11.6377 15.4893 11.8244 15.5693 11.7877 15.4393C11.7443 15.3726 11.7143 15.2859 11.7543 15.2059C11.8144 15.0692 11.911 14.9492 12.0111 14.8325C12.0811 14.8091 12.1311 14.9525 12.1811 14.9992C12.2511 15.1092 12.3378 15.2425 12.2944 15.3759C12.2544 15.4259 12.2278 15.5759 12.3378 15.5293C12.4711 15.4693 12.5812 15.3692 12.6912 15.2759C12.7912 15.2092 12.9146 15.2059 13.0146 15.1425C13.0646 15.1325 13.1613 15.0392 13.1813 15.0892C13.1215 15.2382 13.0382 15.3767 12.9346 15.4993C12.7744 15.6898 12.5527 15.8183 12.3078 15.8627C12.1611 15.8893 12.0144 15.896 11.8677 15.8827Z" fill="#CF1126"/>
<path d="M12.3946 15.3559C12.4035 15.267 12.3846 15.1781 12.3379 15.0892C12.2646 14.9514 12.1757 14.8191 12.0712 14.6925C11.9779 14.6391 11.9279 14.8158 11.8679 14.8658C11.7712 15.0092 11.6512 15.1559 11.6445 15.3326C11.5911 15.4159 11.4911 15.2659 11.4478 15.2159C11.3589 15.1017 11.3119 14.9605 11.3144 14.8158C11.3066 14.5811 11.3474 14.3472 11.4345 14.129C11.5011 13.9423 11.6045 13.7623 11.5945 13.5623C11.6011 13.4056 11.5711 13.2389 11.4478 13.1355C11.3278 13.0422 11.5245 13.0222 11.5845 13.0688C11.6912 13.0788 11.7478 13.2522 11.8445 13.2089C11.8812 13.1188 11.8912 13.0088 11.9712 12.9388C12.0479 12.8321 12.1279 12.9822 12.1546 13.0555C12.2113 13.1155 12.1546 13.2722 12.2413 13.2755C12.348 13.1989 12.4246 13.0755 12.5613 13.0455C12.618 13.0122 12.7113 13.0455 12.638 13.1055C12.538 13.2022 12.4513 13.3189 12.4313 13.4622C12.4013 13.6389 12.4446 13.819 12.5213 13.9757C12.6713 14.2891 12.788 14.6425 12.7113 14.9925C12.678 15.1459 12.5713 15.2792 12.4446 15.3692C12.428 15.3793 12.4013 15.3793 12.3946 15.3559Z" fill="#CF1126"/>
<path d="M12.2346 13.0021C12.1899 12.9118 12.1262 12.8322 12.0479 12.7688C11.9679 12.7688 11.9179 12.8688 11.8646 12.9221C11.8279 12.9921 11.7812 13.1088 11.6879 13.0188C11.5378 12.9321 11.5145 12.7421 11.5145 12.5854C11.5045 12.332 11.6078 12.0953 11.6979 11.8653C11.7545 11.7219 11.7412 11.5585 11.7045 11.4119C11.6612 11.2452 11.5245 11.1251 11.4211 10.9918C11.4278 10.9418 11.5612 10.9684 11.6112 10.9784C11.7245 11.0084 11.7912 11.1051 11.8746 11.1785C11.9346 11.1585 11.9079 11.0385 11.9379 10.9818C11.9379 10.9018 12.0446 10.7984 12.0879 10.9118C12.1546 10.9851 12.0879 11.1285 12.1713 11.1718C12.2513 11.1418 12.2913 11.0551 12.3646 11.0151C12.4029 10.9903 12.447 10.9758 12.4925 10.9729C12.538 10.9699 12.5835 10.9788 12.6247 10.9984C12.6547 11.0718 12.538 11.1318 12.5047 11.1985C12.4371 11.2811 12.3903 11.3787 12.3682 11.4831C12.3462 11.5875 12.3495 11.6957 12.378 11.7986C12.4247 11.9653 12.5047 12.1153 12.5347 12.282C12.5708 12.4721 12.5651 12.6678 12.518 12.8554C12.488 12.9688 12.3913 13.0421 12.2913 13.0888C12.2691 13.0644 12.2502 13.0355 12.2346 13.0021Z" fill="#CF1126"/>
<path d="M11.7312 10.9118C11.6179 10.8284 11.5812 10.7518 11.5812 10.5951C11.5812 10.5184 11.5979 10.475 11.6479 10.4017C11.7279 10.2972 11.7134 10.2606 11.6045 10.2917C11.4312 10.3428 11.3423 10.295 11.3378 10.1483C11.3378 10.075 11.3511 10.045 11.4478 9.92493C11.5278 9.83381 11.559 9.78046 11.5412 9.76491C11.5278 9.74935 11.4278 9.83603 11.2411 10.025C11.122 10.1506 10.995 10.2686 10.8611 10.3783C10.5343 10.5984 10.2209 10.6317 10.0776 10.4617C10.0042 10.375 10.0076 10.3283 10.0909 10.275C10.1441 10.2392 10.1932 10.1979 10.2376 10.1516C10.401 10.0025 10.5811 9.87267 10.7744 9.76491C10.8966 9.70045 10.92 9.66711 10.8444 9.66489C10.7444 9.66489 10.4276 9.87159 10.1843 10.0916C10.1143 10.1583 10.0109 10.2317 9.95757 10.2583C9.80938 10.3131 9.64866 10.3247 9.49415 10.2917C9.4208 10.2683 9.28411 10.1416 9.28411 10.095C9.28411 10.085 9.31745 10.0583 9.35079 10.035C9.40513 10.0043 9.45647 9.96854 9.50415 9.92827C9.69752 9.76157 10.0642 9.58487 10.3543 9.52153C10.4477 9.50486 10.411 9.45485 10.3076 9.46152C10.0016 9.51996 9.71507 9.65406 9.47414 9.85159C9.19743 10.0816 8.78068 10.0583 8.64733 9.80825C8.62399 9.76491 8.60732 9.7249 8.61399 9.71823C8.85012 9.65856 9.0784 9.57128 9.29411 9.45818C9.48004 9.34906 9.68468 9.27556 9.89755 9.24148C9.9909 9.22481 9.99757 9.17813 9.90756 9.16813C9.78753 9.1548 9.6075 9.21481 9.29078 9.36817C8.8807 9.57154 8.76402 9.60821 8.55064 9.59487C8.35061 9.58154 8.24059 9.53153 8.08389 9.3815C7.97721 9.28149 7.83051 9.03144 7.85719 9.00143C8.0303 9.03766 8.20724 9.05222 8.38395 9.04478C8.66066 9.04478 8.73734 9.03811 8.88404 8.99477C9.17068 8.90412 9.44085 8.7679 9.68418 8.59136C10.0281 8.3023 10.4619 8.14198 10.9111 8.13795C11.3245 8.13795 11.5845 8.2313 11.8179 8.46801C11.8979 8.54802 11.9646 8.59803 11.9746 8.58803C11.9846 8.57803 11.9946 8.438 11.9979 8.27797C11.9979 8.27797 12.1213 8.26464 12.148 8.30131C12.148 8.55802 12.148 8.58136 12.188 8.58136C12.2146 8.57914 12.2369 8.55691 12.2546 8.51468C12.288 8.43133 12.4213 8.31464 12.5614 8.2413C12.8614 8.09127 13.3848 8.0846 13.8049 8.2313C14.0058 8.3073 14.1937 8.41416 14.3617 8.54802C14.6069 8.72061 14.8766 8.85547 15.1618 8.94809C15.3885 9.01477 15.7953 9.03144 15.9987 8.98143L16.1787 8.94809C16.2554 8.94809 16.1253 9.20147 15.972 9.3515C15.6919 9.62488 15.3285 9.62155 14.8184 9.34816C14.4984 9.1748 14.1183 9.08145 14.1183 9.1748C14.1183 9.19703 14.135 9.20814 14.1683 9.20814C14.2795 9.20814 14.4873 9.28037 14.7918 9.42484C14.9804 9.53336 15.1871 9.60678 15.4019 9.64155C15.4797 9.64155 15.4819 9.69378 15.4085 9.79825C15.3308 9.90938 15.2007 9.96494 15.0185 9.96494C14.8418 9.96494 14.7418 9.92827 14.5851 9.79825C14.3184 9.57821 13.6649 9.33149 13.6882 9.46485C13.6927 9.48708 13.7282 9.50375 13.7949 9.51486C14.0765 9.57604 14.3401 9.70156 14.5651 9.88159L14.7618 10.025C14.7984 10.045 14.7984 10.0516 14.7684 10.1083C14.7218 10.2017 14.5951 10.2717 14.4617 10.285C14.2928 10.3072 14.1317 10.2517 13.9783 10.1183C13.6449 9.84159 13.3348 9.64155 13.2348 9.64155C13.1526 9.64377 13.1859 9.68489 13.3348 9.76491C13.5245 9.8655 13.7014 9.98864 13.8616 10.1316C13.9283 10.195 14.005 10.255 14.0283 10.2683C14.0916 10.3017 14.0883 10.3483 14.0216 10.435C13.955 10.5217 13.8416 10.5617 13.6982 10.545C13.4115 10.515 13.1848 10.3783 12.8314 10.0116C12.7474 9.9178 12.6559 9.83084 12.558 9.75157C12.5136 9.75602 12.538 9.81158 12.6314 9.91827C12.7447 10.0416 12.7647 10.1116 12.7214 10.2183C12.6847 10.305 12.6214 10.3283 12.4947 10.2917C12.3613 10.2583 12.3391 10.2928 12.428 10.395C12.5547 10.5584 12.538 10.7518 12.378 10.8884C12.3449 10.9203 12.3066 10.9463 12.2646 10.9651C12.2469 10.9629 12.2213 10.9362 12.188 10.8851C12.0924 10.7317 11.9957 10.7317 11.8979 10.8851L11.8312 10.9851L11.7312 10.9118Z" fill="#CF1126"/>
<path d="M12.2343 7.7812L12.061 7.9145L11.9077 7.8012V8.72758H12.2343V7.7812Z" fill="#CF1126"/>
<path d="M11.1743 6.82438C11.1442 7.19925 11.0424 7.56483 10.8743 7.90124L11.2443 7.55784L11.501 7.86457L11.7811 7.55118L12.0645 7.81789L12.3379 7.54117L12.6212 7.87457L12.868 7.60119L13.288 7.90124C13.1347 7.56785 12.9313 7.28113 12.9546 6.80771C12.5512 7.10776 11.5877 7.16111 11.1743 6.82104V6.82438Z" fill="#CF1126"/>
<path d="M11.9108 6.601C11.7553 6.59656 11.6064 6.60767 11.4643 6.63433C11.3716 6.64898 11.283 6.68304 11.2043 6.7343C11.2143 7.02088 12.5706 7.13751 12.9338 6.74096C12.8521 6.68439 12.7587 6.64681 12.6606 6.63099C12.5273 6.60434 12.374 6.60434 12.2307 6.59767V6.83427H11.9108V6.601Z" fill="#CF1126"/>
<path d="M12.1745 5.1474H11.9646V6.79356H12.1779L12.1745 5.1474Z" fill="#CF1126"/>
<path d="M12.1743 5.18731L12.0944 5.97707L12.9041 6.37362L12.4942 5.82378L13.0541 5.64051L12.1743 5.18731ZM12.0844 4.98404C11.9611 4.98404 11.8711 5.03069 11.8711 5.08401C11.8711 5.13733 11.9611 5.18398 12.0844 5.18398C12.2077 5.18398 12.2976 5.13733 12.2976 5.08401C12.2976 5.03069 12.2077 4.98404 12.0844 4.98404Z" fill="#CF1126"/>
<path d="M11.7108 18.813C11.8467 18.7661 11.9217 18.6865 11.9732 18.5318C11.9956 18.4729 12.0114 18.4116 12.0201 18.3491C12.006 18.3022 11.9451 18.3022 11.8842 18.3584C11.8373 18.3912 11.8373 18.41 11.8467 18.485C11.8795 18.6724 11.8139 18.7193 11.4578 18.7568C11.425 18.7568 11.3219 18.7568 11.2328 18.7427C11.0641 18.7271 11.0095 18.7427 11.0688 18.7896C11.1002 18.811 11.1351 18.8269 11.1719 18.8364C11.2656 18.8599 11.6124 18.8458 11.7108 18.8083V18.813ZM12.4465 18.7802C12.4653 18.7614 12.5309 18.7333 12.5965 18.7099C12.6777 18.688 12.7324 18.6505 12.7605 18.5974C12.8636 18.4428 12.8449 18.3116 12.6949 18.1288C12.6105 18.0351 12.5731 18.0351 12.5075 18.1476C12.4512 18.2413 12.4512 18.2413 12.5356 18.2647C12.5824 18.2772 12.6184 18.3053 12.6434 18.3491C12.7308 18.5084 12.7074 18.5912 12.5731 18.5974C12.4512 18.5974 12.4184 18.6162 12.3856 18.6912L12.3575 18.7896C12.3575 18.8224 12.4044 18.8177 12.4465 18.7802ZM12.2029 18.6021C12.2263 18.5412 12.2357 18.4334 12.231 18.2085C12.231 18.0351 12.2263 17.8898 12.2169 17.8805C12.1982 17.8664 12.0998 17.9273 12.0857 17.9695C12.0826 18.0007 12.0904 18.0367 12.1091 18.0773C12.1419 18.1382 12.1466 18.1944 12.1373 18.4287C12.1216 18.7193 12.1435 18.7771 12.2029 18.6021Z" fill="#F7E017"/>
<path d="M11.6408 18.4665C11.6549 18.4102 11.669 18.2977 11.6736 18.2133C11.683 18.1336 11.6971 18.0258 11.7112 17.9789C11.7455 17.8664 11.7143 17.8414 11.6174 17.9039L11.5517 17.9508L11.5658 18.1149C11.5799 18.2649 11.5564 18.5415 11.5189 18.6494C11.5127 18.6806 11.5283 18.6744 11.5658 18.6306C11.603 18.5806 11.6286 18.5229 11.6408 18.4618V18.4665ZM11.1392 18.5462C11.2611 18.4431 11.247 18.2649 11.2751 18.1243C11.2751 18.0305 11.3361 17.918 11.2939 17.8383C11.1814 17.857 11.1064 17.9649 11.1673 18.0727C11.172 18.1993 11.1673 18.3352 11.1064 18.4478C11.0548 18.5181 10.886 18.4946 10.8954 18.3962C10.9376 18.2415 10.7547 18.3165 10.6797 18.3587C10.6235 18.3962 10.5062 18.4009 10.5484 18.3024C10.5203 18.1711 10.3562 18.2555 10.2671 18.2555C10.1827 18.2555 10.2578 18.0821 10.1359 18.1149C9.91083 18.0914 9.65765 18.1149 9.46074 17.9742C9.34822 17.9227 9.36698 17.7867 9.42324 17.6929C9.49825 17.571 9.517 17.4163 9.62952 17.3225C9.74204 17.2147 9.52638 17.2616 9.47481 17.2991C9.36698 17.3554 9.46543 17.5101 9.38104 17.5945C9.32478 17.6882 9.25446 17.8054 9.13725 17.7914C8.95909 17.7586 8.85595 17.5945 8.73405 17.4866C8.62622 17.4632 8.68717 17.6601 8.74343 17.7023C8.85432 17.7849 8.98006 17.8454 9.1138 17.8805C9.24508 17.857 9.24977 18.0305 9.36229 18.0586C9.56858 18.1524 9.7983 18.1805 10.0187 18.1946C10.1124 18.1993 10.0609 18.3587 10.1781 18.3259C10.2437 18.3446 10.389 18.3024 10.3937 18.3774C10.3 18.4946 10.4875 18.4946 10.5625 18.4712C10.6563 18.4571 10.7688 18.4243 10.7969 18.5462C10.8719 18.6306 11.0126 18.6165 11.1017 18.5696L11.1392 18.5462Z" fill="#F7E017"/>
<path d="M9.15138 17.5335C9.18419 17.4866 9.24045 17.3929 9.27327 17.3226C9.2987 17.2608 9.33178 17.2026 9.37173 17.1491C9.42799 17.0772 9.40455 17.0506 9.3014 17.0694C9.25452 17.0756 9.22952 17.0991 9.22639 17.1397C9.19826 17.2804 9.14669 17.4257 9.0998 17.4913C9.01541 17.6132 9.01541 17.6179 9.05292 17.6179C9.07167 17.6117 9.10293 17.5835 9.14669 17.5335H9.15138ZM7.8949 16.7506C7.80113 16.7506 7.80113 16.8115 7.89021 16.8443C7.93397 16.8568 7.96991 16.8943 7.99804 16.9569C8.09181 17.1303 8.13869 17.1631 8.37311 17.1819L8.52782 17.196L8.53251 17.2897C8.5372 17.3366 8.55127 17.3835 8.56064 17.3835L8.69192 17.3272C8.79975 17.271 8.90758 17.1397 8.90758 17.06C8.90758 17.0084 8.81381 16.9475 8.7388 16.9475C8.6803 16.9561 8.62522 16.9804 8.5794 17.0178C8.41062 17.1397 8.23246 17.1116 8.134 16.9569C8.05274 16.8225 7.97304 16.7537 7.8949 16.7506ZM8.71067 17.0788C8.75755 17.0788 8.76849 17.11 8.74349 17.1725C8.72474 17.2194 8.66848 17.2194 8.64972 17.1725C8.63097 17.1256 8.66379 17.0788 8.71067 17.0788ZM15.0353 16.8725C14.9743 16.8725 14.9556 16.8865 14.9181 16.9475C14.8524 17.0413 14.8477 17.2428 14.9087 17.3132C14.9415 17.3601 14.9462 17.3601 15.0259 17.3272C15.1337 17.2804 15.1525 17.285 15.1478 17.3413C15.1478 17.4913 14.9368 17.7726 14.7165 17.9273C14.6717 17.9527 14.632 17.9861 14.5992 18.0258C14.5805 18.0727 14.6649 18.0586 14.7633 18.007C14.904 17.9367 15.0821 17.7539 15.1572 17.6085C15.2134 17.4913 15.2228 17.4538 15.2322 17.2522C15.2322 17.0647 15.2322 17.0131 15.1994 16.9475C15.1665 16.8818 15.1525 16.8725 15.0634 16.8725H15.0353ZM15.0446 17.0037C15.0915 17.0037 15.0962 17.0131 15.1009 17.0788C15.1103 17.1319 15.0993 17.171 15.0681 17.196C15.0212 17.2335 15.0212 17.2335 14.9837 17.1772C14.9368 17.0975 14.9649 17.0037 15.0446 17.0037ZM14.032 18.4243C14.1996 18.3545 14.3362 18.2262 14.4164 18.0633L14.4773 17.9086C14.4773 17.8805 14.3836 17.8383 14.3226 17.8383C14.2617 17.8383 14.257 17.7961 14.2757 17.6882C14.3039 17.5804 14.2757 17.4491 14.2289 17.4491C14.207 17.4523 14.1851 17.4695 14.1632 17.5007C14.1304 17.5476 14.1304 17.571 14.1538 17.6414C14.1851 17.7351 14.157 17.8133 14.0695 17.8758C14.0226 17.9102 13.9991 17.9445 13.9991 17.9789C13.9991 18.0102 14.0023 18.0274 14.0085 18.0305L14.1163 17.9789L14.2101 17.9227L14.2711 17.9695C14.2992 17.993 14.3273 18.0352 14.3273 18.0586C14.3273 18.1758 13.9898 18.3774 13.7553 18.3962C13.6334 18.4056 13.6147 18.3962 13.5678 18.3587C13.5365 18.3274 13.524 18.2915 13.5303 18.2508L13.5584 18.1243C13.5819 18.0211 13.535 18.0352 13.46 18.1571C13.3943 18.2508 13.3756 18.3634 13.4131 18.4196C13.4412 18.4665 13.6334 18.5087 13.7694 18.4993C13.8538 18.4962 13.9413 18.4712 14.032 18.4243ZM15.3306 17.6976C15.4525 17.5757 15.5088 17.4257 15.5088 17.196V17.0225L15.6072 16.9756C15.7385 16.9147 15.8651 16.7881 15.8651 16.7224C15.8651 16.6474 15.8354 16.6506 15.776 16.7318C15.7338 16.7881 15.6823 16.8209 15.476 16.9147C15.4244 16.9381 15.4197 16.9522 15.4103 17.1678C15.3963 17.4163 15.3634 17.5054 15.2228 17.6789C15.1384 17.7773 15.1337 17.7914 15.1947 17.7914C15.2181 17.7914 15.2791 17.7539 15.3353 17.6976H15.3306ZM13.9944 17.557C14.0085 17.5242 13.9382 17.5007 13.9101 17.5288C13.8976 17.5445 13.896 17.5601 13.9054 17.5757C13.9241 17.6085 13.9851 17.5992 13.9991 17.5617L13.9944 17.557ZM15.837 17.0834C15.851 17.0459 15.7807 17.0225 15.7526 17.0506C15.7401 17.0694 15.7385 17.085 15.7479 17.0975C15.7666 17.1303 15.8276 17.121 15.8417 17.0834H15.837ZM13.6194 15.7895C13.5787 15.8207 13.5444 15.8598 13.5162 15.9067C13.4928 15.9207 13.5115 15.9348 13.5256 15.9536C13.61 16.0426 13.6428 16.1645 13.685 16.2817C13.7225 16.413 13.7741 16.5583 13.7319 16.699C13.7131 16.7506 13.6709 16.8068 13.61 16.7928C13.5069 16.7771 13.4068 16.7662 13.3099 16.7599C13.2162 16.7599 13.1459 16.8443 13.0568 16.835C12.9958 16.8396 13.0005 16.7178 12.9443 16.7506C12.9161 16.8162 12.9302 16.8865 12.9255 16.9569H13.1693C13.1787 17.0225 13.174 17.0975 13.2209 17.1444C13.2865 17.1678 13.3568 17.1444 13.4131 17.121C13.4787 17.0928 13.4881 17.0131 13.5069 16.9569C13.5256 16.8912 13.61 16.91 13.6616 16.8818C13.7208 16.8622 13.7718 16.8235 13.8066 16.7717C13.8414 16.72 13.858 16.6581 13.8538 16.5959C13.8491 16.4036 13.7741 16.2208 13.7178 16.0426L13.6381 15.8035C13.6381 15.7973 13.6319 15.7941 13.6194 15.7941V15.7895ZM13.3193 16.8818C13.385 16.8818 13.4131 16.9615 13.4037 17.0178C13.3756 17.0928 13.2818 17.0459 13.2631 16.9897C13.2302 16.9428 13.2537 16.8772 13.3193 16.8818Z" fill="#F7E017"/>
<path d="M10.811 16.2583C10.7758 16.2597 10.7416 16.2711 10.7126 16.2911C10.5344 16.4177 10.4875 16.563 10.6094 16.6193C10.7001 16.6599 10.6751 16.7146 10.5344 16.7834C10.3375 16.8771 10.1593 16.8678 9.83115 16.7318C9.74988 16.6943 9.72019 16.7115 9.74207 16.7834C9.76082 16.8584 9.83115 16.8959 9.99524 16.9381C10.1781 16.9756 10.3937 16.9662 10.5344 16.9053C10.6167 16.8637 10.6899 16.8063 10.7501 16.7365L10.8579 16.6193L10.9845 16.6334C11.1392 16.6521 11.1439 16.6568 11.1439 16.7271C11.1439 16.7881 11.1439 16.7928 11.2892 16.8021L11.5236 16.8162C11.5862 16.8162 11.6268 16.8318 11.6455 16.8631C11.6737 16.8959 11.6924 16.9006 11.9268 16.8771C12.1425 16.8584 12.1894 16.8584 12.2878 16.8959C12.3629 16.9209 12.4316 16.9287 12.4941 16.9193C12.6629 16.9006 12.8926 16.7646 12.9255 16.6615C12.9301 16.6521 12.9911 16.6287 13.0614 16.6146C13.2333 16.5771 13.2396 16.5474 13.0802 16.5255C13.0018 16.5149 12.9248 16.496 12.8504 16.4693C12.795 16.4468 12.7366 16.4325 12.677 16.4271C12.5926 16.4271 12.5082 16.4786 12.5082 16.5349C12.5082 16.5724 12.5223 16.5771 12.6254 16.5677C12.7192 16.5537 12.7473 16.5583 12.7942 16.6005C12.8348 16.6318 12.8504 16.6537 12.8411 16.6662C12.8223 16.7037 12.6254 16.7928 12.5363 16.8068C12.4856 16.8173 12.4329 16.8107 12.3863 16.7881C12.3066 16.7506 12.1941 16.7412 12.1706 16.774C12.1644 16.7928 12.1425 16.7849 12.105 16.7506L12.0581 16.7037L11.9362 16.7506C11.8206 16.8006 11.7659 16.7974 11.7721 16.7412C11.7721 16.7131 11.7393 16.7131 11.5611 16.7224C11.3642 16.7365 11.3455 16.7318 11.308 16.6943C11.2752 16.6568 11.2752 16.6427 11.2986 16.6005C11.3236 16.5724 11.3236 16.549 11.2986 16.5302C11.2798 16.5115 11.2517 16.5115 11.1767 16.5302C10.9845 16.5818 10.9282 16.5537 10.9282 16.4036C10.922 16.3099 10.8829 16.2614 10.811 16.2583ZM10.7641 16.3989C10.7704 16.3958 10.7798 16.4021 10.7923 16.4177C10.8141 16.4364 10.8204 16.4583 10.811 16.4833C10.7969 16.5302 10.7126 16.5255 10.6938 16.4786C10.6876 16.4536 10.6969 16.4318 10.7219 16.413L10.7641 16.3989Z" fill="#F7E017"/>
<path d="M10.4172 16.5349C10.5297 16.4599 10.5297 16.4693 10.5438 16.2583C10.5578 16.1176 10.5578 16.1036 10.5156 16.1036C10.4594 16.1036 10.4297 16.1645 10.4266 16.2864C10.4266 16.3614 10.4172 16.3989 10.3797 16.4411C10.2765 16.5349 10.0327 16.4927 10.0046 16.3708C9.99211 16.3364 10.0093 16.2864 10.0562 16.2208C10.1593 16.0645 10.1437 16.0395 10.0093 16.1458C9.91553 16.2255 9.90146 16.2255 9.92022 16.1598C9.93272 16.0973 9.90146 16.0739 9.82645 16.0895C9.79519 16.0989 9.77488 16.1255 9.7655 16.1692C9.75613 16.2161 9.73425 16.2411 9.69987 16.2442C9.63892 16.263 9.54046 16.2067 9.54046 16.1551C9.54046 16.1223 9.69049 15.9395 9.88271 15.7332C9.93386 15.6871 9.97949 15.6351 10.0187 15.5785C10.0124 15.5691 9.98273 15.5629 9.92959 15.5597C9.85927 15.5597 9.8452 15.5691 9.8452 15.6019C9.8452 15.6207 9.74675 15.7519 9.62485 15.8832C9.37637 16.1645 9.35762 16.2255 9.4842 16.2958C9.53253 16.3277 9.58953 16.344 9.64743 16.3423C9.70533 16.3406 9.7613 16.3211 9.8077 16.2864L9.8874 16.2302V16.3333C9.8874 16.4599 9.91084 16.5021 10.014 16.5583C10.0772 16.5876 10.1467 16.6008 10.2162 16.5967C10.2857 16.5926 10.3532 16.5714 10.4125 16.5349H10.4172ZM15.6353 14.8049C15.5416 14.8612 15.6119 14.9784 15.6259 15.0534C15.5884 15.1565 15.4572 15.1847 15.3587 15.2081C15.2181 15.2269 15.1196 15.3488 15.068 15.4706C15.0399 15.5503 14.9696 15.6722 14.8946 15.5503C14.8289 15.4847 14.707 15.4331 14.632 15.5082C14.5711 15.5644 14.557 15.6488 14.5336 15.7238C14.5007 15.6676 14.4867 15.5832 14.4117 15.5644C14.2945 15.5785 14.3366 15.7285 14.3882 15.7895C14.4398 15.8598 14.4867 15.9535 14.4351 16.0379C14.3976 16.1411 14.2476 16.2067 14.1538 16.1223C14.0741 16.0754 14.1304 15.9207 14.0507 15.9114C14.0085 15.9442 14.0038 16.1036 13.9428 16.0145C13.8959 15.9395 13.9194 15.8363 13.8631 15.7707C13.7975 15.7801 13.7412 15.8926 13.7647 15.9582C13.8457 16.0833 13.9 16.2237 13.9241 16.3708C13.9475 16.4318 13.9241 16.5443 13.9756 16.5677C14.0132 16.474 13.9756 16.3708 14.0085 16.277C14.0929 16.2677 14.196 16.3052 14.2851 16.2864C14.4163 16.2677 14.5195 16.1598 14.5617 16.0426C14.5711 15.9489 14.5695 15.8598 14.557 15.7754C14.6601 15.7895 14.768 15.7895 14.8664 15.8223C14.9133 15.8973 14.8524 16.0051 14.8383 16.0848C14.7867 16.2536 14.6508 16.3755 14.5242 16.488C14.4726 16.5208 14.4632 16.6052 14.5429 16.563C14.7164 16.488 14.843 16.3286 14.918 16.1598C14.9743 16.0332 14.9274 15.8879 14.9649 15.7566C15.0165 15.6535 15.143 15.6769 15.2368 15.6769C15.3306 15.6722 15.415 15.5597 15.3775 15.466C15.3493 15.3581 15.4665 15.3066 15.5416 15.269C15.6447 15.2175 15.7291 15.1096 15.7197 14.9877C15.715 14.9268 15.7197 14.8096 15.6353 14.8049ZM15.2649 15.4285C15.3775 15.4613 15.2462 15.6722 15.1852 15.5363C15.1712 15.4894 15.2134 15.4285 15.2649 15.4285ZM14.7492 15.5832C14.8946 15.5738 14.843 15.7848 14.7211 15.691C14.6555 15.6582 14.6742 15.5785 14.7492 15.5832ZM9.51233 16.3989C9.51546 16.3739 9.50764 16.3614 9.48889 16.3614C9.44669 16.3614 9.42325 16.3989 9.44201 16.4271C9.46076 16.4599 9.50764 16.4411 9.51233 16.3989ZM11.2095 16.2114C11.2095 16.1802 11.197 16.1676 11.172 16.1739C11.1157 16.1833 11.1064 16.2536 11.1626 16.2536C11.1939 16.2536 11.2095 16.238 11.2095 16.2067V16.2114ZM9.11382 15.194C9.0435 15.18 9.0013 15.2362 8.97786 15.2878C8.93098 15.3816 8.86378 15.455 8.77626 15.5082C8.71062 15.5269 8.63561 15.4988 8.58404 15.466C8.51371 15.4331 8.53247 15.3534 8.49965 15.2972C8.45276 15.2597 8.36837 15.3112 8.36837 15.3722C8.36368 15.4519 8.4387 15.4988 8.49965 15.5269C8.55122 15.5597 8.62623 15.5785 8.64967 15.6441C8.64967 15.7004 8.66843 15.7613 8.73875 15.7379C8.81377 15.7379 8.83252 15.8317 8.7997 15.8879C8.76599 15.9494 8.75284 16.02 8.76219 16.0895C8.7997 16.1223 8.83721 16.0426 8.86534 16.0145L8.91691 15.9442C9.05131 15.9567 9.18415 15.9629 9.31542 15.9629C9.40919 15.9629 9.49358 15.902 9.54984 15.8363C9.63892 15.7426 9.70924 15.6394 9.8077 15.5644C9.87802 15.5457 9.84052 15.4144 9.7655 15.4519C9.69987 15.48 9.68111 15.5503 9.63423 15.5972C9.56234 15.6941 9.47795 15.7816 9.38106 15.8598C9.30917 15.8848 9.23416 15.8848 9.15602 15.8598C9.12789 15.8363 9.21696 15.8129 9.23103 15.7848C9.27323 15.7379 9.3248 15.7004 9.34355 15.6441C9.32011 15.5972 9.24978 15.5925 9.2029 15.5925C9.07631 15.6066 8.98255 15.7098 8.86065 15.7191C8.76688 15.7191 8.81377 15.6207 8.86065 15.5879C8.94192 15.491 9.02787 15.3941 9.11851 15.2972C9.14195 15.269 9.23103 15.2409 9.17477 15.2034C9.15602 15.1972 9.1357 15.194 9.11382 15.194ZM9.17477 15.691C9.23572 15.7238 9.13257 15.7848 9.09038 15.7754C9.03412 15.7895 9.03412 15.7332 9.081 15.7238C9.11226 15.7051 9.14351 15.6941 9.17477 15.691ZM8.98255 15.8223C9.01537 15.8223 9.09038 15.8551 9.02005 15.8738C8.97317 15.9114 8.91691 15.8363 8.98255 15.8223Z" fill="#F7E017"/>
<path d="M10.4829 15.9066C10.4829 15.8597 10.3985 15.8644 10.3892 15.916C10.3798 15.9441 10.3954 15.955 10.436 15.9488C10.4642 15.9425 10.4798 15.9285 10.4829 15.9066ZM14.2196 15.5784C14.2289 15.5315 14.1633 15.5034 14.1305 15.5315C14.0977 15.569 14.1305 15.63 14.1774 15.6253C14.1992 15.6128 14.2133 15.5972 14.2196 15.5784ZM8.40599 15.1189C8.46225 15.0721 8.46225 15.0674 8.43881 14.9549C8.4013 14.8001 8.40599 14.7814 8.46225 14.7673C8.53727 14.7486 8.72949 14.8517 8.77168 14.9314C8.8045 14.997 8.8045 14.997 8.74824 15.0486C8.68729 15.1049 8.68729 15.1705 8.74824 15.1705C8.79513 15.1705 8.93578 15.0392 8.93578 14.9924C8.93578 14.9314 8.78106 14.7767 8.66385 14.7204C8.59046 14.6867 8.51017 14.6706 8.42943 14.6735C8.27472 14.6735 8.25596 14.7064 8.29347 14.8845C8.34036 15.0908 8.27784 15.1174 8.10594 14.9642C8.04612 14.9105 7.99971 14.8435 7.9704 14.7686C7.9411 14.6937 7.92971 14.613 7.93716 14.5329C7.93716 14.3297 8.02155 14.2203 8.19033 14.2047C8.3091 14.1828 8.3091 14.161 8.19033 14.1391C8.00748 14.1109 7.86214 14.2328 7.80119 14.4391C7.74025 14.6735 7.88558 14.9595 8.13876 15.1049C8.27472 15.1846 8.32629 15.1846 8.40599 15.1189ZM15.3682 14.8611C15.3838 14.8423 15.3916 14.8189 15.3916 14.7908C15.3979 14.7501 15.4166 14.7111 15.4479 14.6735L15.5042 14.5798C15.5042 14.5376 15.4338 14.5423 15.3823 14.5798C15.3229 14.6267 15.2916 14.6282 15.2885 14.5845C15.2885 14.572 15.3072 14.5563 15.3448 14.5376C15.4229 14.5001 15.4291 14.4641 15.3635 14.4298C15.2744 14.3922 15.19 14.4626 15.1807 14.5798C15.176 14.6595 15.1807 14.6735 15.2416 14.7064C15.2916 14.7345 15.3104 14.7658 15.2979 14.8001C15.2885 14.8876 15.3119 14.908 15.3682 14.8611ZM16.0246 14.7861C16.0715 14.7439 16.109 14.6923 16.109 14.6782C16.1152 14.6595 16.1465 14.6282 16.2027 14.5845C16.3434 14.4813 16.3762 14.3782 16.3106 14.2141C16.2918 14.161 16.2012 14.0594 16.0386 13.9093C15.9569 13.8288 15.8674 13.7566 15.7714 13.6937C15.7245 13.6937 15.7292 13.8672 15.7761 13.8812C15.8652 13.9093 15.9167 13.9469 16.048 14.0688C16.2074 14.2094 16.2777 14.3407 16.2355 14.411C16.2027 14.4813 16.1512 14.4579 16.0105 14.3172C15.9402 14.2375 15.8699 14.1766 15.8558 14.1766C15.837 14.1766 15.8277 14.1985 15.8277 14.2422C15.8245 14.2829 15.8558 14.3407 15.9214 14.4157C16.0386 14.547 16.0527 14.622 15.9683 14.6923C15.9308 14.7204 15.9058 14.7361 15.8933 14.7392C15.7794 14.5455 15.628 14.3766 15.4479 14.2422C15.426 14.2422 15.4151 14.2657 15.4151 14.3125C15.4151 14.3735 15.4291 14.3969 15.476 14.4204C15.5323 14.4485 15.6823 14.5985 15.8277 14.7767C15.8699 14.8236 15.912 14.8705 15.9214 14.8705C15.9308 14.8705 15.973 14.833 16.0199 14.7861H16.0246ZM16.3152 13.9515C16.2965 13.8906 15.8933 13.4827 15.8558 13.4827C15.8339 13.4796 15.8261 13.5093 15.8323 13.5718C15.8323 13.6515 15.8464 13.6656 15.898 13.6749C15.9355 13.689 16.0386 13.7687 16.1324 13.8625C16.2262 13.9562 16.3106 14.0219 16.3199 14.0172L16.3152 13.9515ZM13.9242 18.5789C13.928 18.5875 13.9296 18.5968 13.9286 18.606C13.9276 18.6152 13.9242 18.6241 13.9186 18.6318C13.9131 18.6395 13.9055 18.6458 13.8967 18.6502C13.8878 18.6546 13.878 18.6568 13.8679 18.6568C13.8579 18.6568 13.848 18.6546 13.8392 18.6502C13.8303 18.6458 13.8228 18.6395 13.8172 18.6318C13.8116 18.6241 13.8082 18.6152 13.8073 18.606C13.8063 18.5968 13.8078 18.5875 13.8117 18.5789C13.8091 18.5706 13.8086 18.5618 13.8103 18.5532C13.8121 18.5446 13.8159 18.5366 13.8216 18.5296C13.8273 18.5227 13.8346 18.517 13.8431 18.5131C13.8515 18.5093 13.8608 18.5072 13.8703 18.5072C13.8797 18.5072 13.889 18.5093 13.8974 18.5131C13.9059 18.517 13.9132 18.5227 13.9189 18.5296C13.9246 18.5366 13.9285 18.5446 13.9302 18.5532C13.9319 18.5618 13.9315 18.5706 13.9289 18.5789H13.9242ZM14.1398 18.5086C14.1398 18.5235 14.1334 18.5379 14.122 18.5484C14.1106 18.559 14.0951 18.5649 14.0789 18.5649C14.0627 18.5649 14.0472 18.559 14.0358 18.5484C14.0244 18.5379 14.018 18.5235 14.018 18.5086C14.018 18.4937 14.0244 18.4794 14.0358 18.4688C14.0472 18.4583 14.0627 18.4524 14.0789 18.4524C14.0951 18.4524 14.1106 18.4583 14.122 18.4688C14.1334 18.4794 14.1398 18.4937 14.1398 18.5086Z" fill="#F7E017"/>
</g>
<defs>
<clipPath id="clip0_720_53460">
<rect width="24.0044" height="24.0044" fill="white" transform="translate(0.00878906 0.013092)"/>
</clipPath>
</defs>
</svg>
