<svg width="25" height="25" viewBox="0 0 25 25" fill="none" xmlns="http://www.w3.org/2000/svg">
<g clip-path="url(#clip0_720_53429)">
<mask id="mask0_720_53429" style="mask-type:luminance" maskUnits="userSpaceOnUse" x="0" y="0" width="25" height="25">
<path d="M0.0166016 0.0113068H24.0209V24.0156H0.0166016V0.0113068Z" fill="white"/>
</mask>
<g mask="url(#mask0_720_53429)">
<path fill-rule="evenodd" clip-rule="evenodd" d="M-8.32349 0.011322L11.7852 12.0134L-8.32349 24.0156V0.011322ZM31.8802 0.011322L11.7852 12.0134L31.8665 24.0156L31.8802 0.011322Z" fill="#18B637"/>
<path fill-rule="evenodd" clip-rule="evenodd" d="M-8.32349 0.011322L11.7852 12.0134L31.8665 0.011322H-8.32349ZM-8.32349 24.0156L11.7852 12.0134L31.8665 24.0156H-8.32349Z" fill="#CF0921"/>
<path fill-rule="evenodd" clip-rule="evenodd" d="M31.8802 0.011322H28.1355L-8.32349 21.7797V24.0156H-4.57882L31.8802 2.24714V0.011322Z" fill="white"/>
<path fill-rule="evenodd" clip-rule="evenodd" d="M18.726 12.0134C18.726 13.8542 17.9948 15.6196 16.6932 16.9212C15.3915 18.2228 13.6262 18.9541 11.7854 18.9541C9.94461 18.9541 8.17922 18.2228 6.8776 16.9212C5.57597 15.6196 4.84473 13.8542 4.84473 12.0134C4.84473 10.1726 5.57597 8.40724 6.8776 7.10561C8.17922 5.80399 9.94461 5.07274 11.7854 5.07274C13.6262 5.07274 15.3915 5.80399 16.6932 7.10561C17.9948 8.40724 18.726 10.1726 18.726 12.0134Z" fill="white"/>
<path fill-rule="evenodd" clip-rule="evenodd" d="M-8.32349 0.011322V2.24714L28.1355 24.0156H31.8802V21.7797L-4.57882 0.011322H-8.32349Z" fill="white"/>
<path fill-rule="evenodd" clip-rule="evenodd" d="M13.1433 9.39351L12.238 9.40723L11.7717 10.1754L11.3053 9.40723L10.4137 9.39351L10.8527 8.59795L10.4137 7.81609L11.319 7.78866L11.7854 7.02052L12.2518 7.80237H13.1433L12.7181 8.59795L13.1433 9.39351ZM10.1257 14.6333H9.22036L8.754 15.4151L8.28763 14.647L7.38232 14.6196L7.82126 13.8377L7.39604 13.0422L8.28763 13.0284L8.754 12.2603L9.22036 13.0284L10.1257 13.0559L9.68673 13.8377L10.1257 14.6333ZM16.2433 14.6333H15.338L14.8717 15.4151L14.4053 14.647L13.5137 14.6196L13.9389 13.8377L13.5137 13.0422L14.419 13.0284L14.8854 12.2603L15.3517 13.0284L16.2433 13.0559L15.8044 13.8377L16.2433 14.6333Z" fill="#CF0921" stroke="#18B637" stroke-width="0.18289"/>
</g>
</g>
<defs>
<clipPath id="clip0_720_53429">
<rect width="24.0044" height="24.0044" fill="white" transform="translate(0.0217285 0.013092)"/>
</clipPath>
</defs>
</svg>
