<svg width="25" height="25" viewBox="0 0 25 25" fill="none" xmlns="http://www.w3.org/2000/svg">
<g clip-path="url(#clip0_720_53409)">
<path d="M0.0256348 0.013092H24.03V24.0175H0.0256348V0.013092Z" fill="#032EA1"/>
<path d="M0.0256348 6.01418H24.03V18.0164H0.0256348V6.01418Z" fill="#E00025"/>
<path d="M8.64795 11.3298H15.4772V13.9582H8.64795V11.3298Z" fill="white" stroke="black" stroke-width="0.0600109" stroke-linejoin="bevel"/>
<path d="M15.1291 12.776H15.3392V13.7662H15.1291V12.776ZM8.64795 12.2899H15.4772V12.59H8.64795V12.2899ZM8.64795 11.8698H15.4772V12.1459H8.64795V11.8698Z" fill="white" stroke="black" stroke-width="0.0600109" stroke-linejoin="bevel"/>
<path d="M8.64795 11.4618H15.4772V11.7198H8.64795V11.4618Z" fill="white" stroke="black" stroke-width="0.0540098" stroke-linejoin="bevel"/>
<path d="M10.4483 12.776H10.6644V13.7662H10.4483V12.776ZM13.3889 12.776H13.6049V13.7662H13.3889V12.776ZM8.70801 12.776H8.91805V13.7662H8.70801V12.776ZM9.12808 12.776H9.33812V13.7662H9.12808V12.776ZM9.57817 12.776H9.7882V13.7662H9.57817V12.776ZM10.0282 12.776H10.2383V13.7662H10.0282V12.776ZM13.7969 12.776H14.013V13.7662H13.7969V12.776ZM14.247 12.776H14.4631V13.7662H14.247V12.776ZM14.6971 12.776H14.9131V13.7662H14.6971V12.776Z" fill="white" stroke="black" stroke-width="0.0600109" stroke-linejoin="bevel"/>
<path d="M5.97754 14.0903C6.04028 14.0572 6.09589 14.0121 6.1412 13.9575C6.1865 13.9029 6.22061 13.84 6.24159 13.7722H17.8297C17.8507 13.84 17.8848 13.9029 17.9301 13.9575C17.9754 14.0121 18.031 14.0572 18.0937 14.0903H5.97754Z" fill="white" stroke="black" stroke-width="0.0600109"/>
<path d="M11.8889 7.32706C11.8889 7.32706 11.8829 7.08101 12.0269 7.07501C12.165 7.07501 12.159 7.32706 12.159 7.32706H11.8889ZM11.1388 10.5977V10.2676C11.1388 10.0996 10.9708 10.0876 10.9708 9.96754C10.9708 9.96754 10.9467 9.78751 10.9948 9.70349C11.0608 9.94354 11.1748 9.90153 11.1748 9.79951C11.1748 9.71549 11.1148 9.63148 10.9768 9.42144C10.9287 9.35543 10.9588 9.14539 11.0188 9.06738C11.0348 9.24741 11.0788 9.33742 11.1508 9.33742C11.2028 9.34143 11.2308 9.30142 11.2348 9.2174C11.2348 9.09738 11.1568 9.03737 11.1148 8.92935C11.0941 8.87559 11.0893 8.81702 11.101 8.76062C11.1127 8.70422 11.1404 8.65238 11.1808 8.61129C11.2108 8.79133 11.2048 8.86334 11.2828 8.86334C11.4448 8.80933 11.2828 8.57529 11.2468 8.51527C11.2108 8.44926 11.3068 8.31124 11.3068 8.31124C11.3548 8.47327 11.3668 8.48527 11.4268 8.46727C11.4989 8.44926 11.4868 8.34725 11.4028 8.26323C11.3508 8.19922 11.3548 8.1332 11.4148 8.06519C11.4748 8.17921 11.5469 8.17321 11.5529 8.1012L11.5049 7.83715H12.549L12.495 8.0952C12.483 8.16721 12.579 8.18521 12.6391 8.06519C12.6991 8.1252 12.7051 8.20922 12.6511 8.26323C12.567 8.34725 12.555 8.44926 12.6271 8.46727C12.6871 8.48527 12.6991 8.46727 12.7471 8.31124C12.7471 8.31124 12.8371 8.40125 12.8071 8.51527C12.7711 8.57529 12.6091 8.81533 12.7711 8.86334C12.8491 8.86334 12.8431 8.79133 12.8731 8.61129C12.9125 8.65303 12.939 8.70517 12.9497 8.76154C12.9603 8.81791 12.9546 8.87615 12.9331 8.92935C12.8971 9.03737 12.8131 9.09738 12.8131 9.2174C12.8211 9.30142 12.8511 9.34143 12.9031 9.33742C12.9751 9.33742 13.0191 9.24741 13.0351 9.06738C13.0951 9.14539 13.1251 9.35543 13.0771 9.42744C12.9391 9.63148 12.8731 9.71549 12.8731 9.79951C12.8731 9.90153 12.9931 9.94354 13.0531 9.70349C13.1071 9.78751 13.0831 9.96754 13.0831 9.96754C13.0831 10.0876 12.9211 10.0996 12.9151 10.2676V10.5977H11.1388ZM11.5709 7.83715L11.5469 7.65112H12.501L12.477 7.83715H11.5709ZM11.6309 7.64512L11.6189 7.49509H12.429L12.411 7.64512H11.6309ZM11.7689 7.48909L11.7509 7.33306H12.291L12.285 7.48909H11.7689ZM13.7493 14.0903C13.6292 14.0483 13.4492 13.9163 13.4492 13.7902V12.332L13.6052 12.1279H10.4487L10.5987 12.332V13.7902C10.5987 13.9163 10.4787 14.0483 10.3586 14.0903H13.7493Z" fill="white" stroke="black" stroke-width="0.0600109"/>
<path d="M11.0007 12.776H11.2167V13.7657H11.0007V12.776ZM12.8242 12.776H13.0401V13.7657H12.8242V12.776Z" fill="white" stroke="black" stroke-width="0.0600109" stroke-linejoin="bevel"/>
<path d="M10.3886 10.4716V12.1279H13.6292V10.4716C13.5912 10.4844 13.557 10.5065 13.5298 10.5358C13.5025 10.5652 13.4831 10.6009 13.4731 10.6397V11.3478H10.5506V10.6397C10.5506 10.6397 10.5146 10.5196 10.3826 10.4716H10.3886Z" fill="white" stroke="black" stroke-width="0.0600109"/>
<path d="M13.1851 14.0903C13.0771 14.0483 12.849 13.9162 12.849 13.7902V12.1579C12.873 12.0679 12.9931 12.0139 13.0711 11.9539H10.9287C11.0307 12.0139 11.1447 12.0559 11.1867 12.1579V13.7902C11.1867 13.9162 11.0067 14.0483 10.8987 14.0903H13.1851Z" fill="white" stroke="black" stroke-width="0.0600109"/>
<path d="M13.4731 11.9719V10.7957H13.179V10.6817H10.8506V10.8017H10.5505V11.9719H13.4731ZM12.7289 14.0903C12.6209 14.0483 12.4709 13.9163 12.4709 13.7902V12.398L12.5549 12.272H11.4927L11.5827 12.392V13.7902C11.5827 13.9163 11.4267 14.0483 11.3247 14.0903H12.7289Z" fill="white" stroke="black" stroke-width="0.0600109"/>
<path d="M11.7507 12.272H12.2906V14.0894H11.7507V12.272Z" fill="white" stroke="black" stroke-width="0.0600109"/>
<path d="M12.573 11.8699C12.573 11.7499 12.921 11.7439 13.1011 11.6418H10.9407C11.1207 11.7439 11.4628 11.7499 11.4628 11.8699L11.5348 12.1039L12.4349 12.1399L12.573 11.8699Z" fill="white" stroke="black" stroke-width="0.0600109" stroke-linejoin="bevel"/>
<path d="M12.9931 10.5977C12.9931 10.3036 13.0052 10.1956 13.0952 10.1956V11.1197C12.8731 11.2038 12.7171 11.4798 12.7171 11.4798H11.3248C11.3248 11.4798 11.1688 11.2038 10.9468 11.1197V10.1896C11.0548 10.1896 11.0548 10.3096 11.0548 10.5917L12.9931 10.5977ZM13.0952 10.4776C13.0952 10.1416 13.3892 10.1056 13.3892 10.1056V10.4056C13.2752 10.3996 13.2212 10.5016 13.2212 10.6457C13.2212 10.7957 13.3112 10.7957 13.3112 10.7957V11.6478H13.0952V10.4776Z" fill="white" stroke="black" stroke-width="0.0600109"/>
<path d="M10.9465 10.4774C10.9465 10.1416 10.6526 10.1056 10.6526 10.1056V10.4055C10.7666 10.3995 10.8205 10.5014 10.8205 10.6454C10.8205 10.7954 10.7306 10.7954 10.7306 10.7954V11.6471H10.9465V10.4774Z" fill="white" stroke="black" stroke-width="0.0600109"/>
<path d="M11.517 8.15517H12.5487M11.397 8.47907H12.6567M11.2771 8.86895H12.7706M11.1511 9.34281H12.9206M11.1091 9.88265H12.9326" stroke="black" stroke-width="0.0480087"/>
<path d="M10.5571 11.6598H13.4737M11.4813 11.6598H12.5615V12.0559H11.4813V11.6598Z" stroke="black" stroke-width="0.0600109"/>
<path d="M11.3486 10.7717C11.5287 10.9877 11.5047 11.3538 11.5047 11.5698H12.5489C12.5489 11.3538 12.5248 10.9877 12.7049 10.7717H11.3486ZM11.9307 8.31123L11.7867 8.23321V8.02318C11.8467 8.04118 11.9067 8.04718 11.9187 8.1432C11.9367 8.00517 11.9787 8.01718 12.0328 7.96317C12.0928 8.01718 12.1228 8.00517 12.1468 8.1432C12.1468 8.04718 12.2188 8.04118 12.2728 8.02318V8.23321L12.1348 8.30522L11.9307 8.31123Z" fill="white" stroke="black" stroke-width="0.0600109"/>
<path d="M11.9186 8.65306L11.6787 8.48511V8.29917C11.7687 8.31716 11.8587 8.32916 11.8707 8.43113C11.8946 8.28118 11.9486 8.2092 12.0326 8.14922C12.1106 8.2092 12.1646 8.28118 12.1946 8.43113C12.2006 8.32916 12.2965 8.31716 12.3745 8.29917V8.49111L12.1406 8.65306H11.9186Z" fill="white" stroke="black" stroke-width="0.0600109"/>
<path d="M11.9008 9.1874L11.6307 8.94736V8.66531C11.7267 8.68931 11.8347 8.70131 11.8467 8.85134C11.8767 8.6413 11.9368 8.52728 12.0268 8.44327C12.1228 8.52728 12.1828 8.6413 12.2188 8.85134C12.2308 8.70131 12.3388 8.68931 12.4348 8.66531V8.94736L12.1588 9.1874H11.9008ZM12.4048 9.50546L12.1648 9.84752H11.8827L11.6367 9.50546H12.4048ZM11.4927 10.0756C11.6087 10.1356 11.6687 10.2876 11.6727 10.5316H12.3688C12.3728 10.2876 12.4328 10.1356 12.5489 10.0756H11.4927Z" fill="white" stroke="black" stroke-width="0.0600109"/>
<path d="M12.5604 9.49914V9.16324C12.5083 9.17313 12.4597 9.19667 12.4197 9.23144C12.3797 9.26621 12.3496 9.31098 12.3325 9.36118C12.3325 9.24122 12.1825 8.98329 12.0205 8.85133C11.8586 8.99529 11.7026 9.23521 11.7086 9.35518C11.6767 9.25921 11.6007 9.19523 11.4807 9.16324V9.50513L12.5604 9.49914Z" fill="white" stroke="black" stroke-width="0.0600109" stroke-linejoin="bevel"/>
<path d="M12.6085 10.0752V9.73934C12.4805 9.77532 12.3986 9.8413 12.3626 9.93727C12.3626 9.81731 12.2006 9.55939 12.0207 9.42743C11.8407 9.57738 11.6728 9.81131 11.6788 9.93727C11.6468 9.8453 11.5648 9.77932 11.4329 9.73934V10.0812L12.6085 10.0752Z" fill="white" stroke="black" stroke-width="0.0600109" stroke-linejoin="bevel"/>
<path d="M12.7523 10.7773V10.3814C12.6282 10.4221 12.5208 10.5021 12.4464 10.6093C12.4464 10.3994 12.2064 10.0695 12.0205 9.96753C11.8285 10.0755 11.5946 10.4114 11.5946 10.6093C11.5186 10.501 11.409 10.4209 11.2827 10.3814V10.7773H12.7523Z" fill="white" stroke="black" stroke-width="0.0600109" stroke-linejoin="bevel"/>
<path d="M12.6684 11.6593V11.2514C12.5245 11.3054 12.4885 11.4374 12.4405 11.5334C12.4585 11.1195 12.2125 10.6816 12.0206 10.5676C11.8287 10.6816 11.5767 11.1315 11.6007 11.5274C11.5527 11.4434 11.5108 11.3054 11.3728 11.2514V11.6533L12.6684 11.6593Z" fill="white" stroke="black" stroke-width="0.0600109" stroke-linejoin="bevel"/>
<path d="M12.5724 12.2715V11.8637C12.4225 11.8996 12.4165 11.9536 12.3685 12.0436C12.3865 11.7977 12.2125 11.5158 12.0206 11.4078C11.8286 11.5158 11.6607 11.7977 11.6727 12.0436C11.6247 11.9536 11.6187 11.8996 11.4688 11.8637V12.2715H12.5724Z" fill="white" stroke="black" stroke-width="0.0600109"/>
<path d="M6.24724 13.7723V12.5481C6.20523 12.392 6.06721 12.248 5.97119 12.224V11.1438L6.19323 11.2638L6.45128 12.398V13.7783L6.24724 13.7723Z" fill="white" stroke="black" stroke-width="0.0600109"/>
<path d="M6.24724 13.7783V12.548C6.20523 12.392 6.06721 12.248 5.97119 12.224V11.0718C6.12122 11.0718 6.19323 11.2638 6.19323 11.2638L6.45128 12.398V13.7723L6.24724 13.7783Z" fill="white" stroke="black" stroke-width="0.0600109"/>
<path d="M6.08521 14.0903C6.18722 14.0483 6.33725 13.9163 6.33725 13.7903V12.254L6.26524 12.134H8.88771L8.7857 12.254V13.7903C8.7901 13.8539 8.81131 13.9152 8.84716 13.9679C8.883 14.0206 8.93221 14.0629 8.98973 14.0903H6.08521Z" fill="white" stroke="black" stroke-width="0.0600109"/>
<path d="M8.45486 14.0894C8.35289 14.0474 8.20294 13.9154 8.20294 13.7895V12.3319L8.41887 12.128H6.64341L6.85935 12.3319V13.7895C6.85935 13.9154 6.70939 14.0474 6.60742 14.0894H8.45486Z" fill="white" stroke="black" stroke-width="0.0600109"/>
<path d="M8.2091 14.0895C8.10714 14.0475 7.95118 13.9155 7.95118 13.7895V12.4699L8.09514 12.272H6.96748L7.11144 12.4699V13.7895C7.11144 13.9155 6.96148 14.0475 6.85352 14.0895H8.2091Z" fill="white" stroke="black" stroke-width="0.0600109"/>
<path d="M7.26747 12.272H7.80131V14.0954H7.26147L7.26747 12.272Z" fill="white" stroke="black" stroke-width="0.0600109"/>
<path d="M6.5293 12.7761H6.74534V13.7663H6.5293V12.7761ZM8.37763 12.7761H8.58767V13.7663H8.37163L8.37763 12.7761ZM6.34326 11.1078H6.60731V12.128H6.34326V11.1078ZM6.34326 10.9158H6.60131V11.1078H6.34326V10.9158ZM8.47965 11.3298H8.84572V12.11H8.47965V11.3298Z" fill="white"/>
<path d="M6.34326 11.1078H6.60731V12.128H6.34326V11.1078ZM6.34326 11.1078H6.60131V10.9158H6.34326V11.1078ZM6.5293 12.7761H6.74534V13.7663H6.5293V12.7761ZM8.37763 12.7761H8.58767V13.7663H8.37163L8.37763 12.7761ZM8.47965 11.3298H8.84572V12.11H8.47965V11.3298Z" stroke="black" stroke-width="0.0600109" stroke-linejoin="bevel"/>
<path d="M6.60133 12.1159V10.3756C6.67334 10.3756 6.68535 10.6337 6.85338 10.6337C6.94339 10.6337 6.93739 10.5257 6.88338 10.4416C6.84137 10.3636 6.78736 10.2616 6.85938 10.0636C6.91339 10.2136 7.04541 10.2616 7.02141 10.1716C6.9794 10.0096 6.85338 9.97955 6.94939 9.73351C6.9794 9.93755 7.11142 9.93154 7.08142 9.81152C7.04541 9.6735 6.9674 9.61349 7.06342 9.42145C7.11743 9.64349 7.18344 9.63149 7.18344 9.49346C7.18344 9.28943 7.18344 9.07339 7.43548 8.99537C7.43548 8.99537 7.45349 8.81534 7.5495 8.81534C7.64552 8.81534 7.65752 8.99537 7.65752 8.99537C7.91557 9.07339 7.90957 9.29543 7.90957 9.49346C7.90957 9.63149 7.97558 9.64349 8.02959 9.42145C8.12561 9.61349 8.04759 9.6735 8.01159 9.81152C7.98158 9.93154 8.11361 9.93755 8.14361 9.73351C8.23963 9.97955 8.11361 10.0096 8.0716 10.1716C8.04759 10.2616 8.17962 10.2136 8.23363 10.0636C8.30564 10.2616 8.25163 10.3636 8.20962 10.4416C8.16162 10.5257 8.14961 10.6337 8.23963 10.6337C8.40766 10.6337 8.41966 10.3816 8.49167 10.3816V12.1159H6.60133ZM6.18726 10.8017V12.1279H6.33728V10.8017C6.28527 10.7737 6.23526 10.7737 6.18726 10.8017Z" fill="white" stroke="black" stroke-width="0.0600109"/>
<path d="M6.19922 11.6599C6.38525 11.7559 6.57129 11.87 6.6193 12.128H6.19922V11.6599ZM8.79169 11.2638V12.128H8.91171V11.2638C8.8717 11.2438 8.8317 11.2438 8.79169 11.2638Z" fill="white" stroke="black" stroke-width="0.0600109"/>
<path d="M8.9119 11.6599C8.72587 11.7499 8.53983 11.8579 8.49182 12.122H8.9119V11.6599ZM7.67568 9.63752L7.7837 9.54751V9.42749C7.75169 9.42749 7.72168 9.44749 7.69368 9.4875C7.68203 9.44896 7.66274 9.41316 7.63697 9.38223C7.61119 9.3513 7.57946 9.32587 7.54365 9.30746C7.50732 9.32456 7.4748 9.34877 7.448 9.37867C7.42119 9.40856 7.40067 9.44353 7.38762 9.4815C7.36362 9.44549 7.33361 9.42549 7.29761 9.42149V9.54151L7.40563 9.63752H7.67568Z" fill="white" stroke="black" stroke-width="0.0600109"/>
<path d="M7.73547 9.9314L7.78346 9.81743V9.66748C7.75147 9.66748 7.72148 9.68747 7.69349 9.72746C7.68184 9.68894 7.66257 9.65316 7.6368 9.62224C7.61104 9.59133 7.57932 9.56592 7.54353 9.54752C7.50722 9.5646 7.47471 9.5888 7.44792 9.61868C7.42113 9.64856 7.40062 9.68351 7.38758 9.72146C7.36359 9.68548 7.3336 9.66748 7.29761 9.66748V9.81743L7.34559 9.9314H7.73547Z" fill="white" stroke="black" stroke-width="0.0600109"/>
<path d="M7.74732 10.3274L7.90327 10.1295V9.93752C7.85129 9.93752 7.8073 9.96951 7.77131 10.0335C7.72932 9.89553 7.65135 9.87154 7.54338 9.80556C7.42941 9.86554 7.35144 9.89553 7.31545 10.0275C7.26746 9.96151 7.23747 9.94352 7.17749 9.93752V10.1295L7.33944 10.3274H7.74732Z" fill="white" stroke="black" stroke-width="0.0600109"/>
<path d="M7.78929 10.7174C7.78929 10.7174 7.98124 10.5555 7.98723 10.4655V10.2556C7.91526 10.2616 7.84928 10.2795 7.79529 10.3695C7.74731 10.1956 7.67533 10.1476 7.54337 10.0696C7.40541 10.1476 7.33343 10.1956 7.29145 10.3695C7.23146 10.2795 7.17148 10.2616 7.09351 10.2496V10.4655C7.14388 10.5606 7.21093 10.646 7.29145 10.7174H7.78929Z" fill="white" stroke="black" stroke-width="0.0600109"/>
<path d="M7.86718 11.4373C7.86718 11.4373 8.1311 11.1554 8.1371 11.0414V10.7175C8.03713 10.7255 7.94916 10.7975 7.87318 10.9335C7.8212 10.6696 7.71123 10.4736 7.54328 10.3457C7.36334 10.4776 7.26737 10.6636 7.20738 10.9335C7.13141 10.7975 7.04543 10.7255 6.94946 10.7175V11.0414C6.96746 11.1554 7.21338 11.4373 7.21338 11.4373H7.86718Z" fill="white" stroke="black" stroke-width="0.0600109"/>
<path d="M7.86718 11.8635C7.86718 11.8635 8.08912 11.6415 8.1371 11.5456V11.2217C8.03713 11.2337 7.94916 11.3036 7.87318 11.4316C7.85714 11.3225 7.81974 11.2175 7.76314 11.1229C7.70653 11.0282 7.63182 10.9456 7.54328 10.8798C7.36334 11.0117 7.26737 11.1617 7.20738 11.4316C7.13141 11.3036 7.04543 11.2337 6.94946 11.2217V11.5456C7.00944 11.6415 7.21338 11.8635 7.21338 11.8635H7.86718Z" fill="white" stroke="black" stroke-width="0.0600109"/>
<path d="M7.95735 12.1156C7.89737 11.8337 7.83739 11.6238 7.53148 11.4138C7.21957 11.6238 7.16559 11.8337 7.09961 12.1156H7.95735Z" fill="white" stroke="black" stroke-width="0.0600109"/>
<path d="M8.11911 12.2717V11.8638C7.97515 11.9238 7.84919 12.0018 7.8012 12.0918C7.75322 11.8638 7.65125 11.7679 7.52529 11.6299C7.39933 11.7679 7.31535 11.8698 7.26137 12.0918C7.21338 12.0018 7.08742 11.9178 6.94946 11.8638V12.2717H8.11911Z" fill="white" stroke="black" stroke-width="0.0600109"/>
<path d="M17.8114 13.7723V12.5481C17.8534 12.392 17.9914 12.248 18.0874 12.224V11.1438L17.8654 11.2638L17.6073 12.398V13.7783L17.8114 13.7723Z" fill="white" stroke="black" stroke-width="0.0600109"/>
<path d="M17.8114 13.7783V12.548C17.8534 12.392 17.9914 12.248 18.0874 12.224V11.0718C17.9374 11.0718 17.8654 11.2638 17.8654 11.2638L17.6073 12.398V13.7723L17.8114 13.7783Z" fill="white" stroke="black" stroke-width="0.0600109"/>
<path d="M17.9734 14.0903C17.8714 14.0483 17.7213 13.9163 17.7213 13.7903V12.254L17.7934 12.134H15.1709L15.2729 12.254V13.7903C15.2685 13.8539 15.2473 13.9152 15.2114 13.9679C15.1756 14.0206 15.1264 14.0629 15.0689 14.0903H17.9734Z" fill="white" stroke="black" stroke-width="0.0600109"/>
<path d="M15.604 14.0894C15.7059 14.0474 15.8559 13.9154 15.8559 13.7895V12.3319L15.64 12.128H17.4154L17.1995 12.3319V13.7895C17.1995 13.9154 17.3494 14.0474 17.4514 14.0894H15.604Z" fill="white" stroke="black" stroke-width="0.0600109"/>
<path d="M15.8497 14.0895C15.9517 14.0475 16.1077 13.9155 16.1077 13.7895V12.4699L15.9637 12.272H17.0914L16.9474 12.4699V13.7895C16.9474 13.9155 17.0974 14.0475 17.2053 14.0895H15.8497Z" fill="white" stroke="black" stroke-width="0.0600109"/>
<path d="M16.7911 12.272H16.2573V14.0954H16.7971L16.7911 12.272Z" fill="white" stroke="black" stroke-width="0.0600109"/>
<path d="M17.5293 12.7761H17.3133V13.7663H17.5293V12.7761ZM15.681 12.7761H15.4709V13.7663H15.687L15.681 12.7761ZM17.7153 11.1078H17.4513V12.128H17.7153V11.1078ZM17.7153 10.9158H17.4573V11.1078H17.7153V10.9158ZM15.5789 11.3298H15.2129V12.11H15.5789V11.3298Z" fill="white"/>
<path d="M17.7153 11.1078H17.4513V12.128H17.7153V11.1078ZM17.7153 11.1078H17.4573V10.9158H17.7153V11.1078ZM17.5293 12.7761H17.3133V13.7663H17.5293V12.7761ZM15.681 12.7761H15.4709V13.7663H15.687L15.681 12.7761ZM15.5789 11.3298H15.2129V12.11H15.5789V11.3298Z" stroke="black" stroke-width="0.0600109" stroke-linejoin="bevel"/>
<path d="M17.4573 12.116V10.3757C17.3852 10.3757 17.3732 10.6337 17.2052 10.6337C17.1152 10.6337 17.1212 10.5257 17.1752 10.4417C17.2172 10.3637 17.2712 10.2616 17.1992 10.0636C17.1452 10.2136 17.0132 10.2616 17.0372 10.1716C17.0792 10.0096 17.2052 9.9796 17.1092 9.73355C17.0792 9.93759 16.9472 9.93159 16.9772 9.81157C17.0132 9.67354 17.0912 9.61353 16.9952 9.4215C16.9412 9.64354 16.8752 9.63154 16.8752 9.49351C16.8752 9.28947 16.8752 9.07343 16.6231 8.99542C16.6231 8.99542 16.6051 8.81538 16.5091 8.81538C16.4131 8.81538 16.4011 8.99542 16.4011 8.99542C16.143 9.07343 16.149 9.29547 16.149 9.49351C16.149 9.63154 16.083 9.64354 16.029 9.4215C15.933 9.61353 16.011 9.67354 16.047 9.81157C16.077 9.93159 15.945 9.93759 15.915 9.73355C15.819 9.9796 15.945 10.0096 15.987 10.1716C16.011 10.2616 15.879 10.2136 15.825 10.0636C15.753 10.2616 15.807 10.3637 15.849 10.4417C15.897 10.5257 15.909 10.6337 15.819 10.6337C15.6509 10.6337 15.6389 10.3817 15.5669 10.3817V12.116H17.4573ZM17.8713 10.8017V12.128H17.7213V10.8017C17.7733 10.7737 17.8233 10.7737 17.8713 10.8017Z" fill="white" stroke="black" stroke-width="0.0600109"/>
<path d="M17.8594 11.6599C17.6733 11.7559 17.4873 11.87 17.4393 12.128H17.8594V11.6599ZM15.2669 11.2638V12.128H15.1469V11.2638C15.1869 11.2438 15.2269 11.2438 15.2669 11.2638Z" fill="white" stroke="black" stroke-width="0.0600109"/>
<path d="M15.1469 11.6599C15.333 11.7499 15.519 11.8579 15.567 12.122H15.1469V11.6599ZM16.3832 9.63752L16.2751 9.54751V9.42749C16.3071 9.42749 16.3372 9.44749 16.3652 9.4875C16.3768 9.44896 16.3961 9.41316 16.4219 9.38223C16.4476 9.3513 16.4794 9.32587 16.5152 9.30746C16.5515 9.32456 16.584 9.34877 16.6108 9.37867C16.6376 9.40856 16.6582 9.44353 16.6712 9.4815C16.6952 9.44549 16.7252 9.42549 16.7612 9.42149V9.54151L16.6532 9.63752H16.3832Z" fill="white" stroke="black" stroke-width="0.0600109"/>
<path d="M16.3234 9.9314L16.2754 9.81743V9.66748C16.3074 9.66748 16.3374 9.68747 16.3654 9.72746C16.377 9.68894 16.3963 9.65316 16.422 9.62224C16.4478 9.59133 16.4795 9.56592 16.5153 9.54752C16.5516 9.5646 16.5841 9.5888 16.6109 9.61868C16.6377 9.64856 16.6582 9.68351 16.6713 9.72146C16.6953 9.68548 16.7252 9.66748 16.7612 9.66748V9.81743L16.7132 9.9314H16.3234Z" fill="white" stroke="black" stroke-width="0.0600109"/>
<path d="M16.3115 10.3274L16.1556 10.1295V9.93752C16.2076 9.93752 16.2515 9.96951 16.2875 10.0335C16.3295 9.89553 16.4075 9.87154 16.5155 9.80556C16.6294 9.86554 16.7074 9.89553 16.7434 10.0275C16.7914 9.96151 16.8214 9.94352 16.8813 9.93752V10.1295L16.7194 10.3274H16.3115Z" fill="white" stroke="black" stroke-width="0.0600109"/>
<path d="M16.2695 10.7174C16.2695 10.7174 16.0776 10.5555 16.0716 10.4655V10.2556C16.1436 10.2616 16.2096 10.2795 16.2635 10.3695C16.3115 10.1956 16.3835 10.1476 16.5155 10.0696C16.6534 10.1476 16.7254 10.1956 16.7674 10.3695C16.8274 10.2795 16.8874 10.2616 16.9653 10.2496V10.4655C16.915 10.5606 16.8479 10.646 16.7674 10.7174H16.2695Z" fill="white" stroke="black" stroke-width="0.0600109"/>
<path d="M16.1917 11.4373C16.1917 11.4373 15.9277 11.1554 15.9217 11.0414V10.7175C16.0217 10.7255 16.1097 10.7975 16.1857 10.9335C16.2376 10.6696 16.3476 10.4736 16.5156 10.3457C16.6955 10.4776 16.7915 10.6636 16.8515 10.9335C16.9274 10.7975 17.0134 10.7255 17.1094 10.7175V11.0414C17.0914 11.1554 16.8455 11.4373 16.8455 11.4373H16.1917Z" fill="white" stroke="black" stroke-width="0.0600109"/>
<path d="M16.1917 11.8635C16.1917 11.8635 15.9697 11.6415 15.9217 11.5456V11.2217C16.0217 11.2337 16.1097 11.3036 16.1857 11.4316C16.2017 11.3225 16.2391 11.2175 16.2957 11.1229C16.3523 11.0282 16.427 10.9456 16.5156 10.8798C16.6955 11.0117 16.7915 11.1617 16.8515 11.4316C16.9274 11.3036 17.0134 11.2337 17.1094 11.2217V11.5456C17.0494 11.6415 16.8455 11.8635 16.8455 11.8635H16.1917Z" fill="white" stroke="black" stroke-width="0.0600109"/>
<path d="M16.1015 12.1156C16.1615 11.8337 16.2215 11.6238 16.5274 11.4138C16.8393 11.6238 16.8932 11.8337 16.9592 12.1156H16.1015Z" fill="white" stroke="black" stroke-width="0.0600109"/>
<path d="M15.9397 12.2717V11.8638C16.0837 11.9238 16.2096 12.0018 16.2576 12.0918C16.3056 11.8638 16.4076 11.7679 16.5335 11.6299C16.6595 11.7679 16.7435 11.8698 16.7975 12.0918C16.8455 12.0018 16.9714 11.9178 17.1094 11.8638V12.2717H15.9397Z" fill="white" stroke="black" stroke-width="0.0600109"/>
<path d="M4.66961 15.5786H19.3903V16.3287H4.66961V15.5786ZM4.27954 16.3287H19.7804V17.0788H4.27954V16.3287ZM5.44375 14.4503H18.6101V14.9364H5.44375V14.4503Z" fill="white" stroke="black" stroke-width="0.0600109"/>
<path d="M5.05957 14.9364H19.0061V15.5726H5.05957V14.9364ZM5.67168 14.0783H18.394V14.4503H5.67168V14.0783Z" fill="white" stroke="black" stroke-width="0.0600109"/>
<path d="M7.052 14.0783H8.01218V17.0788H7.052V14.0783Z" fill="white" stroke="black" stroke-width="0.0600109"/>
<path d="M7.26796 14.0783H7.80206V17.0788H7.26196L7.26796 14.0783ZM11.5287 14.0783H12.4889V17.0788H11.5287V14.0783Z" fill="white" stroke="black" stroke-width="0.0600109"/>
<path d="M11.7507 14.0783H12.2908V17.0788H11.7507V14.0783ZM16.0415 14.0783H17.0017V17.0788H16.0415V14.0783Z" fill="white" stroke="black" stroke-width="0.0600109"/>
<path d="M16.2517 14.0783H16.7918V17.0788H16.2517V14.0783Z" fill="white" stroke="black" stroke-width="0.0600109"/>
<path d="M6.2478 13.7722H17.8299M7.25599 16.7008H7.80809M7.25599 16.3227H7.80809M7.25599 15.9506H7.80809M7.25599 15.5726H7.80809M7.25599 15.2005H7.80809M7.25599 14.8224H7.80809M7.25599 14.4504H7.80809M11.7568 16.7008H12.2729M11.7568 16.3227H12.2729M11.7568 15.9506H12.2729M11.7568 15.5726H12.2729M11.7568 15.2005H12.2729M11.7568 14.8224H12.2729M11.7568 14.4504H12.2729M16.2456 16.7008H16.7977M16.2456 16.3227H16.7977M16.2456 15.9506H16.7977M16.2456 15.5726H16.7977M16.2456 15.2005H16.7977M16.2456 14.8224H16.7977M16.2456 14.4504H16.7977" stroke="black" stroke-width="0.0600109"/>
</g>
<defs>
<clipPath id="clip0_720_53409">
<rect width="24.0044" height="24.0044" fill="white" transform="translate(0.026123 0.013092)"/>
</clipPath>
</defs>
</svg>
