<svg width="25" height="25" viewBox="0 0 25 25" fill="none" xmlns="http://www.w3.org/2000/svg">
<g clip-path="url(#clip0_720_53504)">
<path d="M0.0307617 0.0130615H8.03378V24.0174H0.0307617V0.0130615Z" fill="#007A5E"/>
<path d="M8.03394 0.013092H16.0323V24.0175H8.03394V0.013092Z" fill="#CE1126"/>
<path d="M16.0322 0.013092H24.0352V24.0175H16.0322V0.013092Z" fill="#FCD116"/>
<path d="M12.0323 9.88164L11.3655 11.9087L12.379 12.2554L12.0323 9.88164Z" fill="#FCD116"/>
<path d="M12.0322 9.88164L12.699 11.9087L11.6855 12.2554L12.0322 9.88164Z" fill="#FCD116"/>
<path d="M14.0613 11.356L11.9274 11.3482L11.9108 12.4193L14.0613 11.356Z" fill="#FCD116"/>
<path d="M14.0613 11.356L12.3395 12.6165L11.6965 11.7598L14.0613 11.356Z" fill="#FCD116"/>
<path d="M13.287 13.7416L12.635 11.7097L11.6112 12.0249L13.287 13.7416Z" fill="#FCD116"/>
<path d="M13.287 13.7416L11.5561 12.4936L12.1722 11.6173L13.287 13.7416Z" fill="#FCD116"/>
<path d="M10.7782 13.7415L12.5091 12.4935L11.8929 11.6173L10.7782 13.7415Z" fill="#FCD116"/>
<path d="M10.7782 13.7415L11.4302 11.7096L12.454 12.0249L10.7782 13.7415Z" fill="#FCD116"/>
<path d="M10.0027 11.356L11.7245 12.6165L12.3674 11.7598L10.0027 11.356Z" fill="#FCD116"/>
<path d="M10.0027 11.356L12.1366 11.3482L12.1531 12.4193L10.0027 11.356Z" fill="#FCD116"/>
</g>
<defs>
<clipPath id="clip0_720_53504">
<rect width="24.0044" height="24.0044" fill="white" transform="translate(0.0305176 0.013092)"/>
</clipPath>
</defs>
</svg>
