<svg width="25" height="25" viewBox="0 0 25 25" fill="none" xmlns="http://www.w3.org/2000/svg">
<g clip-path="url(#clip0_720_53449)">
<path d="M3.8374 0.013092H20.8233V24.0175H3.8374V0.013092Z" fill="white"/>
<path d="M-4.65332 0.013092H3.83729V24.0175H-4.65332V0.013092ZM20.8232 0.013092H29.3138V24.0175H20.8232V0.013092ZM6.37838 11.6121L5.722 11.8371L8.78819 14.5329C9.02261 15.2268 8.70849 15.4284 8.50689 15.7941L11.8356 15.3721L11.7512 18.7243L12.4451 18.7009L12.2904 15.3768L15.6285 15.7706C15.4222 15.3346 15.2394 15.1049 15.4269 14.411L18.4931 11.8559L17.9586 11.6636C17.5179 11.3214 18.1461 10.0321 18.2399 9.21633C18.2399 9.21633 16.4536 9.8305 16.3364 9.50701L15.8723 8.63966L14.2501 10.4212C14.072 10.4681 13.9969 10.3931 13.9548 10.2431L14.7049 6.50646L13.514 7.1769C13.4109 7.21753 13.3234 7.18002 13.2515 7.06437L12.1029 4.76708L10.9214 7.15345C10.8276 7.23784 10.7432 7.25035 10.6682 7.19096L9.53364 6.55334L10.2134 10.2665C10.1619 10.4072 10.0306 10.4541 9.88057 10.3744L8.31935 8.60215C8.11775 8.93034 7.9771 9.46481 7.70987 9.58671C7.44263 9.69454 6.53778 9.35698 5.93298 9.22571C6.13927 9.97115 6.78626 11.2089 6.37838 11.6168V11.6121Z" fill="#D52B1E"/>
</g>
<defs>
<clipPath id="clip0_720_53449">
<rect width="24.0044" height="24.0044" fill="white" transform="translate(0.0349121 0.013092)"/>
</clipPath>
</defs>
</svg>
