<svg width="25" height="25" viewBox="0 0 25 25" fill="none" xmlns="http://www.w3.org/2000/svg">
<g clip-path="url(#clip0_720_53459)">
<mask id="mask0_720_53459" style="mask-type:luminance" maskUnits="userSpaceOnUse" x="0" y="0" width="25" height="25">
<path d="M0.0393066 0.013092H24.0437V24.0175H0.0393066V0.013092Z" fill="white"/>
</mask>
<g mask="url(#mask0_720_53459)">
<path fill-rule="evenodd" clip-rule="evenodd" d="M-5.74604 10.937H33.9362V20.595H-5.75073L-5.74604 10.937Z" fill="white"/>
<path fill-rule="evenodd" clip-rule="evenodd" d="M-5.71802 0.0130615H33.9454V12.0434H-5.71802V0.0130615ZM-5.70395 18.1054H34.2455V24.0174H-5.70395V18.1054Z" fill="#081873"/>
<path fill-rule="evenodd" clip-rule="evenodd" d="M-5.70386 14.2H33.9596V16.0566H-5.70386V14.2Z" fill="#DE3929"/>
<path fill-rule="evenodd" clip-rule="evenodd" d="M6.18104 18.729L6.49047 19.6854H7.49378L6.67801 20.2808L6.98744 21.2419L6.18104 20.6418L5.36527 21.2372L5.67939 20.2761L4.86362 19.6807H5.87161M14.9014 11.7527L15.2155 12.7138H16.2141L15.3983 13.3046L15.7078 14.2657L14.892 13.6702L14.0762 14.2657L14.3857 13.3046L13.5699 12.7138H14.5826M4.17443 15.7331L4.48386 16.6942H5.49185L4.68077 17.2943L4.99489 18.2508L4.17912 17.66L3.36334 18.2508L3.67277 17.2943L2.857 16.6989H3.865M14.9014 15.4612L15.2155 16.4176H16.2141L15.3983 17.013L15.7078 17.9695L14.892 17.3787L14.0762 17.9742L14.3857 17.013L13.5699 16.4176H14.5826M12.6838 8.83656L12.9979 9.79298H14.0106L13.1948 10.3884L13.5043 11.3495L12.6885 10.7541L11.8727 11.3495L12.1868 10.3884L11.3664 9.79298H12.379M9.35506 7.67384L9.66918 8.63496H10.6772L9.8614 9.22569L10.1708 10.1868L9.35506 9.59607L8.53928 10.1868L8.8534 9.22569L8.03763 8.63496H9.04094M6.01695 8.77092L6.33107 9.73203H7.33907L6.52329 10.3228L6.83741 11.2839L6.01695 10.6885L5.20118 11.2839L5.5153 10.3228L4.69952 9.73203H5.71221M4.08066 11.7574L4.39009 12.7185H5.40278L4.58231 13.3092L4.89643 14.2704L4.08066 13.6749L3.26489 14.2704L3.57432 13.3092L2.75854 12.7185H3.76654M9.35506 19.7229L9.66918 20.684H10.6772L9.8614 21.2748L10.1755 22.2359L9.35506 21.6404L8.53928 22.2359L8.8534 21.2748L8.03763 20.684H9.04094M12.8948 18.729L13.2042 19.6854H14.2122L13.4011 20.2808L13.7152 21.2419L12.8995 20.6465L12.079 21.2419L12.3931 20.2808L11.5773 19.6854H12.5853" fill="#FFCE08"/>
</g>
</g>
<defs>
<clipPath id="clip0_720_53459">
<rect width="24.0044" height="24.0044" fill="white" transform="translate(0.0393066 0.013092)"/>
</clipPath>
</defs>
</svg>
