<svg width="24" height="25" viewBox="0 0 24 25" fill="none" xmlns="http://www.w3.org/2000/svg">
<g clip-path="url(#clip0_720_53397)">
<path d="M-0.000244141 0.0174561H24.0041V24.0218H-0.000244141V0.0174561Z" fill="#000066"/>
<path d="M-0.000244141 -0.00585938H12.0019V11.9963H-0.000244141V-0.00585938Z" fill="#012169"/>
<path d="M12.0019 -0.00585938V1.49441L7.548 5.99523L12.0019 10.3788V11.9963H10.4313L5.95396 7.58927L1.5938 11.9963H-0.000244141V10.4023L4.35992 6.01867L-0.000244141 1.72883V-0.00585938H1.45315L5.95396 4.40119L10.3141 -0.00585938H12.0019Z" fill="white"/>
<path d="M4.31304 7.58927L4.5709 8.38629L0.98431 11.9963H-0.000244141V11.926L4.31304 7.58927ZM7.21982 7.30797L8.48567 7.49551L12.0019 10.9414V11.9963L7.21982 7.30797ZM12.0019 -0.00585938L7.50112 4.58873L7.40735 3.55729L10.9236 -0.00585938H12.0019ZM-0.000244141 0.0175824L4.52402 4.44808L3.14095 4.26054L-0.000244141 1.14279V0.0175824Z" fill="#C8102E"/>
<path d="M4.12551 -0.00585938V11.9963H7.87619V-0.00585938H4.12551ZM-0.000244141 4.11989V7.87057H12.0019V4.11989H-0.000244141Z" fill="white"/>
<path d="M-0.000244141 4.87003V7.12044H12.0019V4.87003H-0.000244141ZM4.87564 -0.00585938V11.9963H7.12605V-0.00585938H4.87564Z" fill="#C8102E"/>
<path d="M21.0183 9.74011V12.9271C21.0183 15.691 19.7114 16.6396 17.9609 17.3903C16.2104 16.6396 14.8899 15.691 14.8899 12.9271V9.73669H21.0183V9.74011Z" fill="white" stroke="white" stroke-width="0.327574" stroke-linejoin="round"/>
<path d="M12.9899 17.1311C13.0889 17.3904 13.7918 17.735 14.6107 17.2949C15.1669 16.9809 15.5252 16.5442 15.8698 15.7594C15.9654 15.5615 16.0166 15.3158 15.788 15.169C15.6071 15.036 15.3102 14.8892 15.1806 14.7596L15.0031 14.5958C15.0373 14.6254 15.0691 14.6629 15.0987 14.7084C15.4263 15.1008 15.085 15.6741 14.7233 16.0187C14.4606 16.2644 13.9897 16.8683 13.3004 16.2951C13.1537 16.1654 12.8091 16.7046 12.9933 17.1311H12.9899ZM22.9332 17.1311C22.8172 17.3904 22.1142 17.735 21.3124 17.2949C20.7596 16.9809 20.3979 16.5442 20.0396 15.7594C19.9577 15.5615 19.9065 15.3158 20.1351 15.169C20.316 15.036 20.6128 14.8892 20.7425 14.7596C20.8073 14.6913 20.8551 14.6436 20.9199 14.5958C20.8858 14.6254 20.854 14.6629 20.8244 14.7084C20.4968 15.1008 20.8381 15.6741 21.1827 16.0187C21.4454 16.2644 21.9334 16.8683 22.6227 16.2951C22.7694 16.1654 23.097 16.7046 22.9298 17.1311H22.9332Z" fill="#FCEA83" stroke="white" stroke-width="0.327574" stroke-linejoin="round"/>
<path d="M17.9615 18.5369C19.2684 18.5369 21.2816 17.9466 22.3633 15.8856C22.5407 15.5444 22.3633 15.3635 22.1483 15.2509C21.9053 15.1285 21.684 14.9672 21.4932 14.7732C21.7559 15.036 21.7047 15.2168 21.5273 15.5103C20.6913 16.9025 19.5482 17.6054 17.9615 17.6054C16.3748 17.6054 15.2317 16.9025 14.3957 15.5103C14.2183 15.2168 14.1671 15.036 14.4128 14.7766C14.2248 14.973 14.0029 15.1337 13.7576 15.2509C13.5461 15.3635 13.3652 15.5444 13.5461 15.8856C14.6243 17.9466 16.6512 18.5369 17.9615 18.5369Z" fill="#FCEA83" stroke="white" stroke-width="0.327574" stroke-linejoin="round"/>
<path d="M14.9344 15.773C14.9003 15.6092 14.6921 15.674 14.6273 15.8719C14.5389 15.7588 14.4613 15.6377 14.3953 15.5102C14.2008 15.2168 14.1667 15.0188 14.4465 14.7425C14.5761 14.6128 14.8389 14.4627 15.0163 14.6264C15.3916 14.937 15.1972 15.4454 14.9344 15.773ZM20.9706 15.773C21.0048 15.6092 21.2334 15.674 21.2982 15.8719C21.3824 15.7582 21.4586 15.6376 21.5268 15.5102C21.7213 15.2168 21.7555 15.0188 21.4586 14.7425C21.346 14.6128 21.0833 14.4627 20.8888 14.6264C20.5271 14.937 20.7079 15.4454 20.9706 15.773ZM12.9894 17.131C12.8257 16.8853 12.696 16.2438 12.6619 16.0835C12.6141 15.9367 12.597 15.8037 12.7779 15.7422C12.9587 15.674 13.1191 15.9026 13.201 16.1005C13.2829 16.2984 13.416 16.5885 13.5627 16.9502C13.201 16.7386 12.9075 16.8819 12.9894 17.131ZM22.9327 17.131C23.0794 16.8853 23.2091 16.2438 23.2603 16.0835C23.2944 15.9367 23.3251 15.8037 23.1442 15.7422C22.9634 15.674 22.803 15.9026 22.7211 16.1005C22.6392 16.2984 22.5061 16.5885 22.3594 16.9502C22.7211 16.7386 22.9975 16.8819 22.9327 17.131Z" fill="#C8102E" stroke="white" stroke-width="0.327574" stroke-linejoin="round"/>
<path d="M16.7021 9.72303C16.4906 9.7708 16.3439 9.78786 16.1459 9.60702C16.0163 9.47735 16.047 9.24873 16.1801 9.16343C16.3268 9.06788 16.4565 9.00305 16.6373 9.05082C16.8181 9.09859 17.2924 9.54218 17.1764 9.55925C17.0604 9.55925 16.883 9.67185 16.7021 9.72303ZM17.2071 8.93822C17.2754 8.88704 17.3573 8.85633 17.5688 8.83585C17.7667 8.8222 17.9101 8.8222 17.9612 8.97234C18.0295 9.14978 18.0773 9.36134 18.2069 9.46029C18.125 9.50806 17.7156 9.55925 17.5688 9.47735C17.3743 9.3784 17.3232 8.99964 17.2106 8.93822H17.2071ZM18.6164 8.95528C18.6812 8.9041 18.7631 8.9041 18.9747 8.92116C19.1862 8.93822 19.2681 8.95528 19.3159 9.10201C19.3671 9.26579 19.3159 9.47735 19.4183 9.62408C19.3159 9.6582 18.9917 9.6582 18.8757 9.54218C18.6983 9.41252 18.7119 9.03376 18.6164 8.95187V8.95528Z" fill="white" stroke="white" stroke-width="0.327574" stroke-linejoin="round"/>
<path d="M19.5954 9.05082C19.4487 9.0167 19.3497 9.00305 19.2883 9.05082C19.3668 9.14978 19.302 9.54218 19.4658 9.67185C19.5784 9.75374 19.8752 9.77422 19.94 9.58996C20.0219 9.42617 20.0219 9.18049 19.5988 9.05082H19.5954ZM17.9132 8.88704C17.961 8.83927 18.0599 8.8222 18.2544 8.8222C18.4694 8.8222 18.5956 8.85633 18.6639 8.98599C18.7321 9.14978 18.7116 9.36134 18.8277 9.49441C18.7799 9.55925 18.3363 9.55925 18.2066 9.46029C18.0258 9.34428 18.0087 8.96893 17.9132 8.88704ZM16.5244 9.03376C16.5244 8.95187 16.637 8.93822 16.9339 8.92116C17.2239 8.88704 17.241 8.9041 17.3399 9.11566C17.3877 9.23167 17.4525 9.42617 17.5856 9.491C17.2239 9.57631 17.1079 9.62408 16.9134 9.50806C16.7712 9.41946 16.6537 9.29617 16.5722 9.14978C16.5551 9.10201 16.5551 9.05082 16.521 9.03376H16.5244Z" fill="#073163" stroke="white" stroke-width="0.327574" stroke-linejoin="round"/>
<path d="M16.5548 7.5801C16.4388 7.57783 16.3455 7.53461 16.275 7.45044C16.1624 7.3003 15.8519 7.23547 15.7188 7.36854C15.6711 7.40267 15.6062 7.40267 15.5585 7.41632C15.4766 7.41632 15.3776 7.49821 15.4083 7.662C15.4766 7.61081 15.4902 7.662 15.5414 7.662C15.5755 7.64494 15.5585 7.67906 15.5585 7.70977C15.5585 7.79166 15.7359 7.95545 15.8997 7.93839C16.0805 7.93839 16.1624 8.00663 16.1931 8.04075C16.2443 8.08511 16.2102 8.07146 16.2443 8.15336C16.2921 8.20113 16.3091 8.21819 16.2273 8.28302C16.19 8.31409 16.16 8.35296 16.1395 8.39689C16.1189 8.44082 16.1082 8.48873 16.1082 8.53723C16.1082 8.58574 16.1189 8.63365 16.1395 8.67758C16.16 8.72151 16.19 8.76038 16.2273 8.79144C16.4388 8.95182 16.9779 9.20091 17.5853 8.7232C18.1722 8.26596 19.0867 8.5287 19.1549 8.68908C19.2368 8.85628 19.2675 8.95182 19.2846 9.03371C19.3017 9.10196 19.3836 9.16679 19.4996 9.14973C19.6122 9.14973 19.7418 9.1975 19.8067 9.24868C19.892 9.29645 20.0046 9.28281 19.9739 9.13267C19.9056 8.67543 19.6292 8.6106 19.5985 8.39904C19.7589 8.41269 19.8715 8.41269 19.9398 8.34785C19.9875 8.28302 20.0524 8.16701 20.1206 8.1363C20.1684 8.10217 20.1684 8.06805 20.1035 8.08511C20.0217 8.10217 19.9739 8.1363 19.8237 8.11924C19.0731 8.03734 16.9643 7.46409 16.5548 7.5801Z" fill="#059334" stroke="white" stroke-width="0.327574" stroke-linejoin="round"/>
<path d="M19.8917 8.13619C19.7671 8.22431 19.6605 8.33551 19.5778 8.46376C19.4174 8.67532 18.926 8.88688 18.3187 8.88688C17.7318 8.88688 17.3735 8.79133 17.1107 8.57978C16.9985 8.49016 16.8773 8.4124 16.749 8.34774C16.5716 8.26585 16.5375 8.085 16.5852 7.93828C16.5375 8.02017 16.5068 8.10206 16.4078 8.085C16.3396 8.085 16.2099 8.085 16.244 8.15325C16.227 8.11912 16.227 8.07135 16.2099 8.05088L16.1758 8.02017C16.227 8.05429 16.343 7.95534 16.4249 7.95534C16.4897 7.9724 16.5716 7.8905 16.5545 7.79155L16.5068 7.57999C16.6364 7.51175 18.3528 7.82567 18.6974 7.85638C19.0386 7.87344 20.0214 8.02017 19.8917 8.13619Z" fill="#000001" stroke="white" stroke-width="0.327574" stroke-linejoin="round"/>
<path d="M16.783 7.51528C16.9468 7.35149 17.1413 7.2696 17.3392 7.31737H17.3869C17.4893 7.23547 17.7145 7.21841 17.8476 7.28325H17.9124C18.1069 7.21841 18.4823 7.28325 18.6153 7.41632L18.6631 7.45044C19.1067 7.41632 19.366 7.61082 19.6766 7.92475C19.7107 7.95887 19.7584 8.02029 19.8403 8.03735C19.9393 8.05441 19.9564 8.10559 19.8745 8.15336C19.7434 8.23462 19.6278 8.33862 19.5332 8.46047C19.3831 8.65837 18.9088 8.85628 18.3185 8.85628C17.7486 8.85628 17.404 8.75392 17.1413 8.55942C16.9945 8.44682 16.8819 8.38198 16.8 8.3308C16.7011 8.29668 16.5714 8.16701 16.6192 8.03735C16.6533 7.90768 16.5714 7.7439 16.5066 7.58011C16.5544 7.54599 16.684 7.49822 16.7489 7.53234L16.783 7.51528Z" fill="#059334" stroke="white" stroke-width="0.327574" stroke-linejoin="round"/>
<path d="M19.6763 7.92468C19.3692 7.61076 19.1064 7.41626 18.6629 7.44697C18.6629 7.46403 18.6629 7.51522 18.6458 7.54934C18.9551 7.68776 19.2292 7.89421 19.4477 8.1533C19.5159 8.08506 19.6285 8.00658 19.6763 7.92468ZM18.6151 7.41626C18.482 7.2866 18.1067 7.21835 17.9122 7.2866C17.9122 7.35143 17.9122 7.45038 17.878 7.51522C17.9941 7.56299 18.0896 7.679 18.1886 7.79161C18.2568 7.77455 18.4172 7.72677 18.4991 7.70971C18.5479 7.61624 18.5868 7.51788 18.6151 7.41626ZM17.8473 7.28318C17.7143 7.21835 17.4856 7.23541 17.3867 7.31731C17.3526 7.38555 17.3389 7.51522 17.3389 7.58005C17.4072 7.58005 17.5027 7.62782 17.5334 7.66194C17.6358 7.62782 17.7654 7.56299 17.8132 7.51522C17.8303 7.44697 17.861 7.35143 17.8473 7.2866V7.28318ZM16.7827 7.51522C16.9465 7.35143 17.141 7.26954 17.3389 7.31731C17.3048 7.36849 17.2911 7.46403 17.2911 7.56299C17.1103 7.54593 16.8817 7.59711 16.7827 7.66194V7.51522Z" fill="#00493D" stroke="white" stroke-width="0.327574" stroke-linejoin="round"/>
<path d="M19.3828 8.18401C19.1774 7.94045 18.9211 7.74479 18.6321 7.61076C18.6321 7.62782 18.598 7.69265 18.5809 7.74383C18.6799 7.89056 18.8744 8.21813 18.9562 8.39898C19.0381 8.36486 19.2668 8.2659 19.3828 8.18401ZM18.1407 8.54571C18.169 8.32269 18.185 8.09828 18.1885 7.8735C18.2704 7.85644 18.4342 7.80867 18.499 7.7916C18.5809 7.92468 18.7788 8.26932 18.8607 8.42969C18.6628 8.47746 18.3352 8.55936 18.1407 8.54571ZM17.5675 7.76089C17.6494 7.72677 17.7654 7.65853 17.8439 7.59711C17.9121 7.64488 18.0418 7.76089 18.0895 7.82573C18.0895 7.97245 18.0418 8.39898 18.0247 8.54229C17.895 8.54229 17.6835 8.51158 17.5675 8.44675C17.5845 8.20107 17.6016 7.92468 17.5675 7.76089ZM16.7485 7.95539C16.7656 7.92127 16.7827 7.80867 16.7827 7.76089C16.9123 7.679 17.2399 7.59711 17.4856 7.72677C17.5026 7.89056 17.4856 8.30003 17.4685 8.39898C17.2498 8.22088 17.0089 8.07178 16.7519 7.95539H16.7485Z" fill="#00493D" stroke="white" stroke-width="0.327574" stroke-linejoin="round"/>
<path d="M15.934 7.65841C15.8999 7.65841 15.8828 7.56287 15.818 7.56287C15.8009 7.56287 15.7531 7.57993 15.7361 7.56287C15.7384 7.59926 15.7497 7.62656 15.7702 7.64476C15.7873 7.69253 15.8692 7.66182 15.934 7.66182V7.65841Z" fill="#000001"/>
<path d="M15.9335 7.93804C16.1279 7.93804 16.162 7.69247 16.2609 7.67883M16.0461 7.95509C16.1927 8.0233 16.3087 7.67883 16.4212 7.69247M15.7528 7.53218C15.8005 7.53218 15.8346 7.46397 15.9165 7.54582C15.9551 7.57992 15.9938 7.59698 16.0324 7.59698M15.9983 7.77433C15.9301 7.87664 15.8176 7.93804 15.7528 7.90734M15.7186 7.36847C15.6709 7.40257 15.6402 7.46397 15.6061 7.51512M15.5583 7.61062V7.69247" stroke="white" stroke-width="0.327574" stroke-linejoin="round"/>
<path d="M17.3086 7.3683C16.9641 7.10569 16.5549 6.86013 16.1797 6.81238C16.5711 7.07336 16.9428 7.36291 17.2915 7.67866" fill="black"/>
<path d="M17.3086 7.3683C16.9641 7.10569 16.5549 6.86013 16.1797 6.81238C16.5711 7.07336 16.9428 7.36291 17.2915 7.67866" stroke="white" stroke-width="0.327574" stroke-linejoin="round"/>
<path d="M17.5034 7.12299C17.0939 6.84319 16.6196 6.53268 16.1624 6.50197C16.5903 6.74993 16.9714 7.07099 17.2884 7.45057M18.0254 6.66575C18.2102 6.24585 18.4837 5.871 18.8273 5.56702C18.6635 5.91165 18.4861 6.61457 18.4008 6.89437" fill="black"/>
<path d="M17.5034 7.12299C17.0939 6.84319 16.6196 6.53268 16.1624 6.50197C16.5903 6.74993 16.9714 7.07099 17.2884 7.45057M18.0254 6.66575C18.2102 6.24585 18.4837 5.871 18.8273 5.56702C18.6635 5.91165 18.4861 6.61457 18.4008 6.89437" stroke="white" stroke-width="0.327574" stroke-linejoin="round"/>
<path d="M18.3872 6.58335C18.5441 6.19829 18.8416 5.88735 19.2194 5.71365C18.936 6.06689 18.7251 6.47252 18.5987 6.90735" fill="black"/>
<path d="M18.3872 6.58335C18.5441 6.19829 18.8416 5.88735 19.2194 5.71365C18.936 6.06689 18.7251 6.47252 18.5987 6.90735" stroke="white" stroke-width="0.327574" stroke-linejoin="round"/>
<path d="M18.5339 6.90739C18.8478 6.42875 19.2964 6.05375 19.8231 5.82965C19.4139 6.23892 18.8102 6.98925 18.6635 7.28597M18.7624 7.26891C19.0558 7.10521 19.6458 6.84259 20.0687 6.92786C19.8095 7.02335 19.0251 7.38146 18.6806 7.71229" fill="black"/>
<path d="M18.5339 6.90739C18.8478 6.42875 19.2964 6.05375 19.8231 5.82965C19.4139 6.23892 18.8102 6.98925 18.6635 7.28597M18.7624 7.26891C19.0558 7.10521 19.6458 6.84259 20.0687 6.92786C19.8095 7.02335 19.0251 7.38146 18.6806 7.71229" stroke="white" stroke-width="0.327574" stroke-linejoin="round"/>
<path d="M18.6976 7.1537C18.974 6.86025 19.4824 6.42007 20.0215 6.23922C19.6291 6.61457 18.7931 7.46762 18.6805 7.59729M17.9128 6.97626C17.7148 6.36889 17.4214 5.79904 16.9812 5.61819C17.3317 6.1195 17.5756 6.68741 17.6978 7.28678M17.534 6.9592C17.2098 6.56679 16.7662 6.17439 16.2612 6.09249C16.7562 6.41617 17.1472 6.8759 17.3873 7.41644" fill="black"/>
<path d="M18.6976 7.1537C18.974 6.86025 19.4824 6.42007 20.0215 6.23922C19.6291 6.61457 18.7931 7.46762 18.6805 7.59729M17.9128 6.97626C17.7148 6.36889 17.4214 5.79904 16.9812 5.61819C17.3317 6.1195 17.5756 6.68741 17.6978 7.28678M17.534 6.9592C17.2098 6.56679 16.7662 6.17439 16.2612 6.09249C16.7562 6.41617 17.1472 6.8759 17.3873 7.41644" stroke="white" stroke-width="0.327574" stroke-linejoin="round"/>
<path d="M17.718 6.94156C17.3088 6.20488 16.995 6.07527 16.8176 5.92862C16.9643 6.20488 17.3224 6.94156 17.5338 7.25192" fill="black"/>
<path d="M17.718 6.94156C17.3088 6.20488 16.995 6.07527 16.8176 5.92862C16.9643 6.20488 17.3224 6.94156 17.5338 7.25192" stroke="white" stroke-width="0.327574" stroke-linejoin="round"/>
<path d="M16.8994 6.89429C17.1325 7.04122 17.3323 7.23522 17.486 7.46385" stroke="white" stroke-width="0.327574" stroke-linejoin="round"/>
<path d="M16.8994 7.23551C16.995 7.3174 17.1758 7.41636 17.3396 7.56308L16.8994 7.23551ZM18.8444 7.48119C19.0082 7.35153 19.3665 7.13997 19.5473 7.07172L18.8444 7.48119ZM18.7284 7.36859C18.8922 7.15362 19.2197 6.86017 19.3357 6.76121L18.7284 7.36859ZM19.1856 6.35174C18.9657 6.59816 18.7585 6.85555 18.5646 7.12291L19.1856 6.35174ZM18.7625 6.20502C18.6076 6.43408 18.4707 6.6748 18.353 6.925L18.7625 6.20502ZM17.4693 6.23914C17.5682 6.50188 17.7491 6.94206 17.8105 7.12291L17.4693 6.23914ZM17.3225 6.51553C17.3908 6.6179 17.5204 6.8431 17.5682 7.00689L17.3225 6.51553Z" fill="black"/>
<path d="M16.8994 7.23551C16.995 7.3174 17.1758 7.41636 17.3396 7.56308M18.8444 7.48119C19.0082 7.35153 19.3665 7.13997 19.5473 7.07172M18.7284 7.36859C18.8922 7.15362 19.2197 6.86017 19.3357 6.76121M19.1856 6.35174C18.9657 6.59816 18.7585 6.85555 18.5646 7.12291M18.7625 6.20502C18.6076 6.43408 18.4707 6.6748 18.353 6.925M17.4693 6.23914C17.5682 6.50188 17.7491 6.94206 17.8105 7.12291M17.3225 6.51553C17.3908 6.6179 17.5204 6.8431 17.5682 7.00689" stroke="white" stroke-width="0.327574" stroke-linejoin="round"/>
<path d="M17.8794 6.43348C17.8794 6.28682 17.9783 6.12653 18.0772 6.12653C18.1898 6.12653 18.2716 6.32093 18.2716 6.43348C18.2716 6.56649 18.1727 6.67904 18.0772 6.67904C17.9749 6.67904 17.8794 6.58354 17.8794 6.43348Z" fill="black" stroke="white" stroke-width="0.327574" stroke-linejoin="round"/>
<path d="M17.6678 6.56657C17.6849 6.40287 17.7974 6.27326 17.8963 6.28691C17.9952 6.30055 18.043 6.50177 18.0259 6.61432C18.0089 6.74392 17.8963 6.84283 17.8145 6.82578C17.7326 6.82578 17.6507 6.71323 17.6678 6.56657ZM18.1078 6.61432C18.0737 6.46767 18.1419 6.30737 18.2408 6.28691C18.3363 6.27326 18.4352 6.43356 18.4522 6.56657C18.4863 6.69617 18.4011 6.82578 18.3192 6.82578C18.2408 6.84283 18.1248 6.76098 18.1078 6.61432Z" fill="black" stroke="white" stroke-width="0.327574" stroke-linejoin="round"/>
<path d="M17.8623 6.74399C17.8623 6.5837 17.9612 6.43704 18.0601 6.43704C18.1727 6.43704 18.2545 6.61439 18.2545 6.74399C18.2545 6.87701 18.159 6.98956 18.0601 6.98956C17.9612 6.98956 17.8623 6.89406 17.8623 6.74399Z" fill="black" stroke="white" stroke-width="0.327574" stroke-linejoin="round"/>
<path d="M17.5688 6.82585C17.5688 6.6792 17.6848 6.5189 17.7803 6.5189C17.8826 6.5189 17.9781 6.71331 17.9781 6.82585C17.9781 6.95887 17.8622 7.07142 17.7803 7.07142C17.6848 7.07142 17.5688 6.97592 17.5688 6.82585ZM18.1725 6.76105C18.1725 6.6144 18.2748 6.4541 18.3703 6.4541C18.4829 6.4541 18.5647 6.6485 18.5647 6.76105C18.5647 6.89407 18.4692 7.00661 18.3703 7.00661C18.2714 7.00661 18.1725 6.90771 18.1725 6.76105Z" fill="black" stroke="white" stroke-width="0.327574" stroke-linejoin="round"/>
<path d="M18.1079 6.89413C18.1079 6.73043 18.2239 6.58377 18.3194 6.58377C18.4217 6.58377 18.5172 6.76112 18.5172 6.89072C18.5172 7.02373 18.4183 7.13969 18.3194 7.13969C18.2239 7.13969 18.1079 7.03738 18.1079 6.89413Z" fill="black" stroke="white" stroke-width="0.327574" stroke-linejoin="round"/>
<path d="M17.8485 7.04085C17.8485 6.87715 17.944 6.73049 18.0429 6.73049C18.1588 6.73049 18.2407 6.9249 18.2407 7.03744C18.2407 7.17387 18.1384 7.28642 18.0429 7.28642C17.944 7.28642 17.8451 7.1841 17.8451 7.04085H17.8485ZM17.4392 7.04085C17.4392 6.87715 17.5211 6.73049 17.6029 6.73049C17.6848 6.73049 17.7496 6.9249 17.7496 7.03744C17.7496 7.17387 17.6677 7.28642 17.6029 7.28642C17.5211 7.28642 17.4392 7.1841 17.4392 7.04085ZM18.3532 7.01016C18.3532 6.86009 18.4351 6.71344 18.517 6.71344C18.5988 6.71344 18.6807 6.8942 18.6807 7.00675C18.6807 7.1534 18.5818 7.25231 18.517 7.25231C18.4351 7.25231 18.3532 7.1534 18.3532 7.00675V7.01016Z" fill="black" stroke="white" stroke-width="0.327574" stroke-linejoin="round"/>
<path d="M18.4526 7.28314C18.4867 7.12284 18.5822 6.98983 18.647 7.01029C18.7152 7.02394 18.7288 7.21834 18.6981 7.3343C18.6811 7.48095 18.5822 7.56281 18.5174 7.54575C18.4492 7.53211 18.4185 7.41615 18.4492 7.28655L18.4526 7.28314Z" fill="black" stroke="white" stroke-width="0.327574" stroke-linejoin="round"/>
<path d="M18.1416 7.23538C18.1587 7.08872 18.2541 6.94207 18.336 6.95912C18.4349 6.95912 18.4827 7.15352 18.469 7.26607C18.452 7.41614 18.3667 7.51504 18.2883 7.49799C18.2064 7.49799 18.1245 7.38203 18.1416 7.23538ZM17.6846 7.28312C17.6334 7.12283 17.5345 7.01028 17.4697 7.02392C17.4049 7.03756 17.3879 7.23538 17.422 7.35134C17.4561 7.48094 17.5516 7.56279 17.6164 7.54574C17.6675 7.5321 17.7187 7.41614 17.6846 7.28654V7.28312Z" fill="black" stroke="white" stroke-width="0.327574" stroke-linejoin="round"/>
<path d="M17.5688 7.25245C17.5688 7.10579 17.6507 6.95914 17.7326 6.95914C17.8315 6.95914 17.8963 7.1399 17.8963 7.25245C17.8963 7.3991 17.8144 7.49801 17.7326 7.49801C17.6643 7.49801 17.5688 7.3991 17.5688 7.25245Z" fill="black" stroke="white" stroke-width="0.327574" stroke-linejoin="round"/>
<path d="M17.8146 7.31741C17.8146 7.15363 17.9135 7.01031 18.0091 7.01031C18.1251 7.01031 18.207 7.18775 18.207 7.31741C18.207 7.45049 18.108 7.56309 18.0091 7.56309C17.9135 7.56309 17.8146 7.46414 17.8146 7.31741ZM17.8964 5.51917C17.8623 5.64883 17.7497 5.76485 17.8282 5.9457C17.6849 5.89451 17.5552 5.87745 17.4392 6.01053C17.5859 5.99347 17.7156 6.04465 17.7804 6.14019C17.6508 6.12313 17.5859 6.19138 17.5518 6.27327C17.6678 6.23915 17.7804 6.20502 17.8316 6.22209C17.7804 6.27327 17.6985 6.35175 17.6849 6.42C17.7804 6.3381 17.8964 6.35175 17.9613 6.30398C17.9135 6.42 18.0091 6.5326 18.0909 6.6452C18.0773 6.48483 18.1728 6.37222 18.1251 6.28692C18.2718 6.32104 18.2889 6.45071 18.5004 6.45071C18.4185 6.40293 18.3707 6.23915 18.2718 6.23915C18.3196 6.22209 18.5175 6.20502 18.5516 6.23915C18.5175 6.1709 18.4015 6.10948 18.3366 6.10948C18.4049 6.04124 18.5175 5.91157 18.5994 5.87745C18.4834 5.89451 18.3059 5.91157 18.2411 6.01053C18.4015 5.87745 18.3707 5.63518 18.5482 5.60106C18.4526 5.584 18.3059 5.64883 18.1899 5.76485C18.2411 5.66589 18.2411 5.53623 18.3059 5.50211C18.1728 5.53623 18.0261 5.70001 17.9783 5.78191C17.9713 5.68926 17.9433 5.59943 17.8964 5.51917Z" fill="black" stroke="white" stroke-width="0.327574" stroke-linejoin="round"/>
<path d="M17.9782 5.78188C17.9782 5.82963 17.9782 5.92854 17.9612 5.95923L17.9782 5.78188ZM18.1897 5.76483C18.1556 5.79894 18.0908 5.91149 18.0908 6.01039L18.1897 5.76483Z" fill="black"/>
<path d="M17.9782 5.78188C17.9782 5.82963 17.9782 5.92854 17.9612 5.95923M18.1897 5.76483C18.1556 5.79894 18.0908 5.91149 18.0908 6.01039" stroke="white" stroke-width="0.327574" stroke-linejoin="round"/>
<path d="M18.2882 5.95932C18.2332 5.9937 18.1922 6.04668 18.1729 6.10866" stroke="white" stroke-width="0.327574" stroke-linejoin="round"/>
<path d="M12.9899 17.131C13.0889 17.3904 13.7918 17.735 14.6107 17.2948C15.1669 16.9809 15.5252 16.5441 15.8698 15.7593C15.9654 15.5614 16.0166 15.3157 15.788 15.169C15.6071 15.0359 15.3102 14.8892 15.1806 14.7595L15.0031 14.5957C15.0373 14.6253 15.0691 14.6628 15.0987 14.7083C15.4263 15.1007 15.085 15.674 14.7233 16.0186C14.4606 16.2643 13.9897 16.8683 13.3004 16.295C13.1537 16.1654 12.8091 16.7045 12.9933 17.131H12.9899ZM22.9332 17.131C22.8172 17.3904 22.1142 17.735 21.3124 17.2948C20.7596 16.9809 20.3979 16.5441 20.0396 15.7593C19.9577 15.5614 19.9065 15.3157 20.1351 15.169C20.316 15.0359 20.6128 14.8892 20.7425 14.7595C20.8073 14.6913 20.8551 14.6435 20.9199 14.5957C20.8858 14.6253 20.854 14.6628 20.8244 14.7083C20.4968 15.1007 20.8381 15.674 21.1827 16.0186C21.4454 16.2643 21.9334 16.8683 22.6227 16.295C22.7694 16.1654 23.097 16.7045 22.9298 17.131H22.9332Z" fill="#FCEA83" stroke="black" stroke-width="0.0477712"/>
<path d="M17.9615 18.5369C19.2684 18.5369 21.2816 17.9465 22.3633 15.8856C22.5407 15.5443 22.3633 15.3635 22.1483 15.2509C21.9053 15.1285 21.684 14.9671 21.4932 14.7732C21.7559 15.0359 21.7047 15.2168 21.5273 15.5102C20.6913 16.9024 19.5482 17.6053 17.9615 17.6053C16.3748 17.6053 15.2317 16.9024 14.3957 15.5102C14.2183 15.2168 14.1671 15.0359 14.4128 14.7766C14.2248 14.9729 14.0029 15.1336 13.7576 15.2509C13.5461 15.3635 13.3652 15.5443 13.5461 15.8856C14.6243 17.9465 16.6512 18.5369 17.9615 18.5369Z" fill="#FCEA83" stroke="black" stroke-width="0.0477712"/>
<path d="M14.9344 15.7729C14.9003 15.6091 14.6921 15.674 14.6273 15.8719C14.5389 15.7587 14.4613 15.6377 14.3953 15.5102C14.2008 15.2167 14.1667 15.0188 14.4465 14.7424C14.5761 14.6128 14.8389 14.4626 15.0163 14.6264C15.3916 14.9369 15.1972 15.4453 14.9344 15.7729ZM20.9706 15.7729C21.0048 15.6091 21.2334 15.674 21.2982 15.8719C21.3824 15.7581 21.4586 15.6376 21.5268 15.5102C21.7213 15.2167 21.7555 15.0188 21.4586 14.7424C21.346 14.6128 21.0833 14.4626 20.8888 14.6264C20.5271 14.9369 20.7079 15.4453 20.9706 15.7729ZM12.9894 17.131C12.8257 16.8853 12.696 16.2438 12.6619 16.0834C12.6141 15.9367 12.597 15.8036 12.7779 15.7422C12.9587 15.674 13.1191 15.9026 13.201 16.1005C13.2829 16.2984 13.416 16.5884 13.5627 16.9501C13.201 16.7386 12.9075 16.8819 12.9894 17.131ZM22.9327 17.131C23.0794 16.8853 23.2091 16.2438 23.2603 16.0834C23.2944 15.9367 23.3251 15.8036 23.1442 15.7422C22.9634 15.674 22.803 15.9026 22.7211 16.1005C22.6392 16.2984 22.5061 16.5884 22.3594 16.9501C22.7211 16.7386 22.9975 16.8819 22.9327 17.131Z" fill="#C8102E" stroke="black" stroke-width="0.0477712"/>
<path d="M13.9377 15.6568L13.8081 15.725C13.774 15.7386 13.774 15.7727 13.774 15.7898H13.7569L13.6921 15.6431H13.7092C13.7092 15.6568 13.7262 15.6772 13.7569 15.6568L14.0366 15.5101C14.0684 15.4919 14.0741 15.476 14.0537 15.4624L14.0673 15.4453L14.1492 15.609H14.1355C14.1185 15.592 14.1014 15.5749 14.0673 15.592L13.9548 15.6602L14.0025 15.7557L14.1355 15.7079C14.1696 15.6909 14.1492 15.6568 14.1492 15.6397H14.1662L14.2344 15.7898C14.2174 15.7727 14.2003 15.7557 14.1662 15.7727L13.89 15.9194C13.8581 15.9376 13.8524 15.9535 13.8729 15.9671L13.8558 15.9842L13.774 15.8375L13.791 15.8205C13.8081 15.8375 13.8252 15.8546 13.8593 15.8375L13.9889 15.7693L13.9377 15.6568ZM14.2174 15.8716C14.2492 15.858 14.2537 15.8353 14.231 15.8034H14.2481L14.4118 16.049L14.2992 16.1308V16.1172C14.364 16.066 14.364 16.0012 14.347 15.9842C14.3299 15.9671 14.3129 15.9501 14.3129 15.9364C14.2992 15.9364 14.2992 15.9194 14.2651 15.9535L14.1492 16.0353C14.1662 16.049 14.1833 16.1001 14.2651 16.049H14.2822L14.1014 16.182V16.1649C14.1833 16.0967 14.1492 16.049 14.1355 16.0353L14.0196 16.1172C13.9854 16.1308 13.9854 16.1513 13.9854 16.1649C14.0025 16.1649 14.0025 16.182 14.0196 16.199C14.0366 16.2332 14.0878 16.2638 14.1662 16.2332L14.1833 16.2468L14.0537 16.2945L13.89 16.0353H13.907C13.9206 16.049 13.9411 16.0694 13.9718 16.049L14.2174 15.8716ZM14.4766 16.4924L14.364 16.5879C14.347 16.6049 14.347 16.639 14.364 16.6561H14.347L14.231 16.5401L14.2481 16.5231C14.2651 16.5401 14.2822 16.5572 14.3163 16.5231L14.5277 16.3116C14.5596 16.298 14.5641 16.2752 14.5414 16.2434L14.6573 16.3798C14.6346 16.3593 14.6119 16.3593 14.5891 16.3798L14.4936 16.4753L14.5755 16.5572L14.6744 16.4753C14.7085 16.4412 14.6914 16.4276 14.6744 16.4071L14.6914 16.3935L14.804 16.5231H14.7869C14.7733 16.5231 14.7528 16.5094 14.7221 16.5401L14.5107 16.7379C14.4788 16.7675 14.4732 16.7891 14.4936 16.8027V16.8198L14.3811 16.6868C14.3947 16.6868 14.4288 16.7038 14.4459 16.6868L14.5584 16.5742L14.4766 16.4924ZM14.7221 16.8368L14.7733 16.8846L14.8381 16.7379C14.8381 16.7379 14.7869 16.7516 14.7051 16.8027L14.7221 16.8368ZM14.7221 16.8368L14.7051 16.8505L14.671 16.8164C14.6573 16.8334 14.6403 16.8334 14.6232 16.8505C14.5755 16.8846 14.5891 16.9016 14.6096 16.9187V16.9323L14.5277 16.8505H14.5414L14.6096 16.8334L14.9336 16.6561L14.9506 16.6697C14.9506 16.6697 14.9336 16.6868 14.7869 17.0142C14.7869 17.0483 14.7733 17.0619 14.7869 17.096L14.6573 16.9835L14.6744 16.9664C14.6971 17.0005 14.7187 17.0005 14.7392 16.9664C14.7392 16.9494 14.7562 16.9153 14.7562 16.8982L14.7051 16.8505L14.7221 16.8334V16.8368ZM14.8517 17.1608L14.8688 17.1438C14.8824 17.162 14.9052 17.162 14.937 17.1438L15.1485 16.8675L15.1314 16.8505C15.0973 16.8334 15.0495 16.8334 15.0018 16.8846V16.8675L15.0666 16.7857L15.3122 16.9664L15.2303 17.0619H15.2133C15.261 17.0142 15.2474 16.9494 15.2133 16.9323V16.9153L15.0018 17.1949C14.9677 17.212 14.9847 17.2427 15.0018 17.2597H14.9847L14.8517 17.1608Z" fill="#00493D"/>
<path d="M15.2789 17.2266L15.197 17.3426C15.18 17.3767 15.197 17.3904 15.2141 17.4108L15.197 17.4245L15.0674 17.3255V17.3085C15.097 17.329 15.1186 17.3244 15.1322 17.2948L15.3131 17.0491C15.3222 17.0173 15.3165 16.9946 15.296 16.9809L15.3131 16.9673L15.4427 17.0628V17.0799C15.4086 17.0628 15.395 17.0628 15.3745 17.0969L15.296 17.2129L15.395 17.2778L15.4769 17.1618C15.4859 17.1322 15.4803 17.1106 15.4598 17.0969L15.4769 17.0799L15.6065 17.1788V17.1959C15.5838 17.1754 15.561 17.1811 15.5383 17.2129L15.3779 17.4723C15.3438 17.4893 15.3608 17.5064 15.3779 17.5234V17.5371L15.2312 17.4416H15.2482C15.2642 17.4438 15.2801 17.4381 15.296 17.4245L15.3779 17.2948L15.2789 17.2266ZM15.6065 17.6872L15.6236 17.6702C15.6463 17.6906 15.6679 17.685 15.6884 17.6531L15.8181 17.3767C15.8351 17.3426 15.8181 17.3255 15.801 17.3085L16.0808 17.4416L16.0126 17.5712L15.9989 17.5542C16.0467 17.4893 15.9989 17.4245 15.9819 17.4074C15.9648 17.4074 15.9477 17.3904 15.9341 17.3904C15.917 17.3904 15.917 17.3904 15.9 17.4245C15.8829 17.4416 15.8351 17.5371 15.8351 17.5371C15.8522 17.5542 15.8829 17.5883 15.9512 17.503H15.9648L15.8693 17.7009L15.8522 17.6872C15.9 17.5849 15.8351 17.5712 15.8181 17.5712L15.7532 17.7009C15.7362 17.735 15.7532 17.7521 15.7703 17.7521V17.7691L15.6065 17.6872ZM16.0808 17.9159C16.033 17.8817 16.033 17.7828 16.0808 17.6872C16.1149 17.5849 16.1798 17.5064 16.2446 17.5371C16.2924 17.5542 16.2787 17.6531 16.2446 17.7521C16.1934 17.8647 16.1286 17.9295 16.0808 17.9159H16.0638C16.1798 17.9636 16.2617 17.8988 16.3094 17.7828C16.3572 17.6872 16.3436 17.5712 16.2412 17.5234C16.1456 17.4723 16.0467 17.5371 15.9989 17.6531C15.9512 17.7691 15.9648 17.8817 16.0672 17.9159H16.0808ZM16.5858 17.9466L16.6541 17.7521C16.6632 17.7202 16.6575 17.6975 16.637 17.6838L16.7189 17.7009V17.7179C16.7018 17.7179 16.6848 17.7179 16.6677 17.7521L16.6029 17.9466C16.5688 18.0285 16.521 18.0933 16.4255 18.0626C16.3572 18.0455 16.3094 17.9636 16.3436 17.8817L16.4255 17.6702C16.4345 17.6383 16.4289 17.6156 16.4084 17.6019V17.5883L16.5551 17.6531V17.6702C16.5381 17.6531 16.5073 17.6531 16.5073 17.6872L16.422 17.8954C16.405 17.9602 16.405 18.025 16.4562 18.0421C16.5062 18.058 16.5483 18.025 16.5824 17.9432L16.5858 17.9466ZM16.736 17.735C16.7382 17.7214 16.7326 17.7157 16.7189 17.7179L16.8315 17.735L16.9339 18.0455L16.9816 17.8476C16.9907 17.818 16.9851 17.7964 16.9646 17.7828L17.0601 17.7998L17.0465 17.8169C17.0294 17.8169 17.0124 17.8169 16.9953 17.851L16.9134 18.2093H16.8998L16.7667 17.8169L16.6848 18.0796C16.6848 18.1274 16.7018 18.1274 16.7189 18.1445V18.1615L16.6199 18.1274V18.1104C16.637 18.1274 16.6677 18.1104 16.6677 18.0762L16.7496 17.7828L16.736 17.735ZM17.2922 18.0626C17.258 18.2093 17.1898 18.2434 17.1591 18.2434H17.125C17.125 18.2434 17.1113 18.2264 17.125 18.2093L17.1761 17.8817C17.1932 17.8647 17.1932 17.8476 17.2103 17.8647H17.2444C17.2751 17.8647 17.3058 17.9329 17.2922 18.0626L17.3399 18.0796C17.3741 17.9159 17.3058 17.8476 17.2239 17.834C17.1591 17.8169 17.0601 17.7998 17.0601 17.7998V17.8169C17.0772 17.834 17.1113 17.834 17.0942 17.8851L17.0465 18.1752C17.0283 18.2093 17.0112 18.2264 16.9953 18.2264H16.9816L17.142 18.2605C17.2239 18.2741 17.3058 18.2605 17.3399 18.0796L17.2922 18.0626ZM17.4389 17.9295C17.4389 17.8954 17.4048 17.8817 17.3877 17.8817V17.8647L17.6846 17.8988L17.6675 18.0285C17.6675 17.9466 17.6163 17.9159 17.5856 17.9159C17.5697 17.9022 17.5526 17.8965 17.5344 17.8988C17.5208 17.8988 17.5208 17.8988 17.5208 17.9466L17.5037 18.0796C17.5208 18.0796 17.5685 18.0933 17.6027 17.9977L17.5856 18.2093H17.5685C17.5685 18.1104 17.5208 18.1104 17.5003 18.1104L17.4867 18.2571C17.4867 18.2912 17.4867 18.2912 17.5037 18.2912L17.5378 18.3083C17.5856 18.3083 17.6334 18.2912 17.6675 18.1922H17.6846L17.6504 18.3219L17.3399 18.2878C17.3741 18.2878 17.3877 18.2741 17.4082 18.2434L17.4389 17.9295ZM17.978 18.1274C17.978 18.2741 17.9268 18.3219 17.8791 18.3219C17.862 18.3083 17.862 18.3083 17.8449 18.3083L17.8313 18.2912L17.8484 17.95C17.8461 17.9341 17.8506 17.9272 17.862 17.9295H17.8961C17.9302 17.9295 17.978 17.9807 17.978 18.1274H18.0428C18.0428 17.9636 17.961 17.9159 17.8791 17.9159C17.8108 17.8988 17.7153 17.8988 17.7153 17.8988V17.9159C17.7323 17.9159 17.7665 17.9295 17.7665 17.9636L17.7494 18.2741C17.7471 18.3083 17.7357 18.3242 17.7153 18.3219V18.339H17.862C17.9439 18.339 18.0258 18.3048 18.0428 18.1274H17.9746H17.978ZM18.4523 18.2571C18.4523 18.2912 18.4694 18.2912 18.5001 18.2912V18.3083L18.3192 18.3219C18.3363 18.3083 18.3704 18.2878 18.3704 18.2571L18.3363 17.95C18.3192 17.9159 18.3022 17.9159 18.2715 17.9159V17.8988L18.4523 17.8817C18.4353 17.8988 18.4011 17.9159 18.4182 17.95L18.4523 18.2571ZM18.6161 18.2912V18.2741C18.6366 18.2741 18.6479 18.2582 18.6502 18.2264L18.582 17.8851H18.5649C18.5308 17.8988 18.5001 17.9295 18.5171 17.9977H18.5001L18.483 17.8817L18.7799 17.834L18.7935 17.9466H18.7799C18.7799 17.8817 18.7287 17.8647 18.6775 17.8647H18.6639L18.7321 18.2059C18.7321 18.24 18.748 18.2571 18.7799 18.2571V18.2741L18.6161 18.2912ZM19.319 17.9636L19.2508 17.7691C19.2508 17.735 19.2201 17.735 19.203 17.735V17.7179L19.2849 17.6838V17.7009C19.2678 17.7179 19.2678 17.7179 19.2678 17.7521L19.3361 17.9636C19.3497 18.0319 19.3497 18.1274 19.2542 18.1615C19.1859 18.1752 19.1075 18.1445 19.0904 18.0455L19.0222 17.834C19.0085 17.7998 18.9914 17.7998 18.9744 17.7998L18.9573 17.7828L19.1211 17.735V17.7521C19.1075 17.7691 19.087 17.7862 19.1075 17.8169L19.1552 18.0285C19.1723 18.0967 19.2235 18.1274 19.2678 18.1274C19.319 18.1104 19.3361 18.0455 19.319 17.9636ZM19.4999 17.8476C19.5784 17.8135 19.5647 17.7691 19.5476 17.7179C19.5306 17.6702 19.4999 17.6361 19.4657 17.6531C19.4487 17.6531 19.4316 17.6702 19.4487 17.6872L19.4999 17.8476ZM19.5135 17.8647L19.5476 17.9977C19.5704 18.0296 19.5931 18.0341 19.6159 18.0114V18.0285L19.4657 18.0967L19.4487 18.0796C19.4828 18.0626 19.4828 18.0455 19.4828 18.0114L19.3668 17.735C19.3497 17.6872 19.3327 17.7009 19.302 17.7009V17.6872L19.4657 17.619C19.534 17.6053 19.5954 17.619 19.6295 17.6872C19.6432 17.7646 19.6159 17.8192 19.5476 17.851C19.5306 17.851 19.5135 17.8647 19.5135 17.8647Z" fill="#00493D"/>
<path d="M19.9058 17.8949C19.8581 17.9154 19.7933 17.8472 19.7421 17.7346C19.6944 17.6357 19.6944 17.5368 19.7421 17.5232C19.7933 17.5061 19.8581 17.5709 19.9058 17.6698C19.957 17.7687 19.957 17.8642 19.9058 17.8983C20.0081 17.8642 20.0388 17.7517 19.9877 17.6357C19.9399 17.5368 19.841 17.472 19.7421 17.5061C19.7192 17.5176 19.6988 17.5337 19.6821 17.5532C19.6655 17.5728 19.653 17.5955 19.6454 17.62C19.6377 17.6446 19.6351 17.6704 19.6377 17.6959C19.6402 17.7215 19.6479 17.7462 19.6603 17.7687C19.7114 17.8813 19.8103 17.9461 19.9058 17.8983V17.8949ZM19.9229 17.4413H19.8922L19.9877 17.3731L20.2844 17.5368L20.1821 17.3595C20.1684 17.3254 20.1343 17.3254 20.1207 17.3254V17.3083L20.2025 17.2742C20.1855 17.2947 20.1684 17.3083 20.2025 17.3424L20.3663 17.6698L20.3492 17.6869L19.9877 17.4891L20.1207 17.7346C20.1343 17.7687 20.1684 17.7687 20.1855 17.7517V17.7687L20.1036 17.8165V17.7994C20.1196 17.7835 20.1196 17.7619 20.1036 17.7346L19.974 17.472L19.9229 17.4413ZM20.6596 17.4891V17.472C20.6596 17.455 20.6766 17.4379 20.6596 17.4072L20.4618 17.131H20.4447C20.4106 17.1446 20.397 17.2128 20.4447 17.2606L20.4311 17.2776L20.3628 17.1617L20.6084 16.998L20.6766 17.1003C20.6255 17.0491 20.5743 17.0491 20.5436 17.0662L20.5266 17.0798L20.7244 17.3595C20.7471 17.3913 20.7698 17.397 20.7926 17.3765V17.3902L20.6596 17.4891Z" fill="#00493D"/>
<path d="M20.8408 17.0961L20.9363 17.212C20.9534 17.2257 20.9875 17.2257 21.0045 17.212V17.2257L20.8715 17.3416V17.3246C20.8874 17.3109 20.8874 17.2893 20.8715 17.2598L20.6771 17.0142C20.66 16.9801 20.643 16.9972 20.6089 16.9972L20.7419 16.8846V16.9017C20.7419 16.9153 20.7248 16.9358 20.7419 16.9665L20.8238 17.062L20.9192 16.9972L20.8408 16.8846C20.8238 16.8505 20.7896 16.8676 20.7726 16.8676L20.9056 16.7516V16.7687C20.8897 16.7823 20.8897 16.805 20.9056 16.8369L21.1 17.079C21.1182 17.0972 21.1353 17.0972 21.1512 17.079L21.1648 17.0961L21.0352 17.212L21.0182 17.195C21.0352 17.1779 21.0523 17.1609 21.0352 17.1268L20.9363 17.0142L20.8408 17.0961ZM20.9875 16.7516C20.9704 16.738 20.9363 16.738 20.9192 16.7516V16.738L21.1341 16.5402L21.233 16.6391H21.216C21.1648 16.5709 21.1 16.605 21.0693 16.622C21.0693 16.6391 21.0523 16.6391 21.0352 16.6561L21.0523 16.7039L21.1512 16.8028C21.1648 16.7857 21.216 16.7516 21.1512 16.6698H21.1648L21.2978 16.8198V16.8335C21.216 16.7516 21.1819 16.7994 21.1648 16.8198L21.2671 16.9153C21.2808 16.9494 21.2978 16.9494 21.2978 16.9494L21.3456 16.9017C21.3626 16.8846 21.3797 16.8335 21.3456 16.738H21.3626L21.4274 16.8505L21.216 17.062L21.1989 17.0483C21.216 17.0313 21.233 17.0142 21.1989 16.9801L20.9875 16.7516ZM21.3797 16.2946C21.3626 16.3116 21.3626 16.3458 21.3933 16.3628C21.4274 16.3935 21.4615 16.3935 21.5263 16.3628C21.5604 16.3458 21.6218 16.3287 21.673 16.3764C21.7548 16.4583 21.7207 16.5231 21.7071 16.5572C21.69 16.5743 21.6559 16.5913 21.6389 16.605C21.6252 16.6027 21.6196 16.6084 21.6218 16.622V16.6391L21.5093 16.5402H21.5263C21.5911 16.5743 21.6559 16.5879 21.69 16.5402C21.7241 16.5061 21.69 16.4719 21.673 16.4583C21.6389 16.4242 21.6048 16.4242 21.557 16.4583C21.5093 16.4754 21.4445 16.4754 21.3933 16.4412C21.3285 16.3764 21.3285 16.3287 21.3592 16.2775L21.4274 16.2298C21.4445 16.2298 21.4445 16.2298 21.4274 16.1957L21.5434 16.2775H21.5263C21.4445 16.2434 21.3933 16.2639 21.3797 16.2946ZM21.5263 16.165C21.4922 16.1479 21.4752 16.165 21.4581 16.182H21.4445L21.6252 15.9194L21.7378 16.0013L21.7207 16.0183C21.7003 16.0008 21.6743 15.9912 21.6474 15.9912C21.6205 15.9912 21.5945 16.0008 21.5741 16.0183C21.5741 16.0354 21.557 16.0524 21.557 16.0661C21.5411 16.0684 21.5468 16.0797 21.5741 16.1002C21.5911 16.1172 21.69 16.182 21.69 16.182C21.7071 16.165 21.7378 16.1309 21.673 16.0661V16.049L21.8367 16.182C21.7378 16.1309 21.7207 16.182 21.7071 16.1957L21.8196 16.2775L21.8674 16.2946C21.8697 16.2764 21.881 16.2605 21.9015 16.2468C21.9185 16.2127 21.9356 16.165 21.8674 16.1002L21.8844 16.0831L21.9663 16.182L21.8026 16.4276H21.7855C21.8026 16.3935 21.8026 16.3764 21.7719 16.3458L21.5263 16.165ZM21.9663 15.8717L21.9185 15.9535C21.8503 15.8853 21.8196 15.8376 21.8196 15.8376L21.9663 15.8717ZM22.0004 15.8717C22.0175 15.8717 22.0481 15.8853 22.0652 15.8853C22.113 15.9024 22.0993 15.9194 22.0823 15.9535H22.0993L22.1812 15.8035C22.1471 15.8376 22.13 15.8205 22.0993 15.8205C21.7548 15.7557 21.7241 15.7387 21.7241 15.7387V15.7557L21.9833 16.049C22.0004 16.0661 22.0004 16.1002 22.0004 16.1172H22.0175L22.0652 16.0354L22.0481 16.0183C22.0311 16.0524 22.014 16.0661 21.9833 16.0183L21.9492 15.9842L22.0004 15.8717ZM21.8674 15.5102C21.8537 15.5272 21.8537 15.5613 21.9015 15.5784C21.9492 15.5954 21.9697 15.5784 22.0175 15.5443C22.0652 15.5102 22.113 15.4761 22.1778 15.5102C22.2801 15.5613 22.2596 15.6432 22.246 15.6739L22.1948 15.7421V15.7728L22.0652 15.7046C22.1471 15.7216 22.2119 15.7046 22.2289 15.6568C22.246 15.6227 22.2119 15.592 22.1948 15.575C22.1652 15.5636 22.1277 15.575 22.0823 15.6091C22.0311 15.6568 21.9799 15.6773 21.9185 15.6432C21.8458 15.6068 21.8231 15.5625 21.8503 15.5102C21.8503 15.4761 21.8844 15.4624 21.9015 15.4454C21.9015 15.4283 21.9015 15.4283 21.8844 15.4113V15.3976L22.0175 15.4624H22.0004C21.9185 15.4454 21.8674 15.4795 21.8674 15.5102Z" fill="#00493D"/>
<path d="M16.7016 9.72303C16.4901 9.7708 16.3434 9.78786 16.1455 9.60702C16.0158 9.47735 16.0465 9.24873 16.1796 9.16343C16.3263 9.06788 16.456 9.00305 16.6368 9.05082C16.8177 9.09859 17.292 9.54218 17.1759 9.55925C17.0599 9.55925 16.8825 9.67185 16.7016 9.72303ZM17.2067 8.93822C17.2749 8.88704 17.3568 8.85633 17.5684 8.83585C17.7663 8.8222 17.9096 8.8222 17.9608 8.97234C18.029 9.14978 18.0768 9.36134 18.2064 9.46029C18.1245 9.50806 17.7151 9.55925 17.5684 9.47735C17.3739 9.3784 17.3227 8.99964 17.2101 8.93822H17.2067ZM18.6159 8.95528C18.6807 8.9041 18.7626 8.9041 18.9742 8.92116C19.1857 8.93822 19.2676 8.95528 19.3154 9.10201C19.3666 9.26579 19.3154 9.47735 19.4178 9.62408C19.3154 9.6582 18.9913 9.6582 18.8752 9.54218C18.6978 9.41252 18.7114 9.03376 18.6159 8.95187V8.95528Z" fill="white" stroke="black" stroke-width="0.0477712"/>
<path d="M19.5949 9.05082C19.4482 9.0167 19.3492 9.00305 19.2878 9.05082C19.3663 9.14978 19.3015 9.54218 19.4653 9.67185C19.5779 9.75374 19.8747 9.77422 19.9396 9.58996C20.0215 9.42617 20.0215 9.18049 19.5983 9.05082H19.5949ZM17.9127 8.88704C17.9605 8.83927 18.0594 8.8222 18.2539 8.8222C18.4689 8.8222 18.5951 8.85633 18.6634 8.98599C18.7316 9.14978 18.7112 9.36134 18.8272 9.49441C18.7794 9.55925 18.3358 9.55925 18.2061 9.46029C18.0253 9.34428 18.0082 8.96893 17.9127 8.88704ZM16.5239 9.03376C16.5239 8.95187 16.6365 8.93822 16.9334 8.92116C17.2234 8.88704 17.2405 8.9041 17.3394 9.11566C17.3872 9.23167 17.452 9.42617 17.5851 9.491C17.2234 9.57631 17.1074 9.62408 16.9129 9.50806C16.7707 9.41946 16.6533 9.29617 16.5717 9.14978C16.5546 9.10201 16.5546 9.05082 16.5205 9.03376H16.5239Z" fill="#073163" stroke="black" stroke-width="0.0477712"/>
<path d="M17.3074 7.36833C16.9629 7.10572 16.5536 6.86016 16.1785 6.81241C16.5699 7.07339 16.9415 7.36294 17.2903 7.67869" fill="#F9D050"/>
<path d="M17.3074 7.36833C16.9629 7.10572 16.5536 6.86016 16.1785 6.81241C16.5699 7.07339 16.9415 7.36294 17.2903 7.67869" stroke="black" stroke-width="0.0204734"/>
<path d="M17.5021 7.1229C17.0927 6.8431 16.6184 6.53259 16.1611 6.50188C16.589 6.74984 16.9701 7.0709 17.2872 7.45048M18.0242 6.66566C18.2089 6.24576 18.4825 5.87091 18.8261 5.56693C18.6623 5.91156 18.4849 6.61448 18.3996 6.89428" fill="#F9D050"/>
<path d="M17.5021 7.1229C17.0927 6.8431 16.6184 6.53259 16.1611 6.50188C16.589 6.74984 16.9701 7.0709 17.2872 7.45048M18.0242 6.66566C18.2089 6.24576 18.4825 5.87091 18.8261 5.56693C18.6623 5.91156 18.4849 6.61448 18.3996 6.89428" stroke="black" stroke-width="0.0204734"/>
<path d="M18.386 6.58338C18.5429 6.19832 18.8404 5.88738 19.2182 5.71368C18.9348 6.06692 18.7239 6.47255 18.5974 6.90739" fill="#F9D050"/>
<path d="M18.386 6.58338C18.5429 6.19832 18.8404 5.88738 19.2182 5.71368C18.9348 6.06692 18.7239 6.47255 18.5974 6.90739" stroke="black" stroke-width="0.0204734"/>
<path d="M18.5327 6.90742C18.8466 6.42878 19.2952 6.05378 19.8219 5.82968C19.4126 6.23895 18.809 6.98928 18.6623 7.286M18.7612 7.26894C19.0545 7.10524 19.6446 6.84262 20.0675 6.92789C19.8083 7.02338 19.0238 7.38149 18.6794 7.71232" fill="#F9D050"/>
<path d="M18.5327 6.90742C18.8466 6.42878 19.2952 6.05378 19.8219 5.82968C19.4126 6.23895 18.809 6.98928 18.6623 7.286M18.7612 7.26894C19.0545 7.10524 19.6446 6.84262 20.0675 6.92789C19.8083 7.02338 19.0238 7.38149 18.6794 7.71232" stroke="black" stroke-width="0.0204734"/>
<path d="M18.6963 7.15361C18.9727 6.86015 19.4812 6.41998 20.0203 6.23913C19.6279 6.61447 18.7919 7.46753 18.6793 7.5972M17.9115 6.97617C17.7136 6.36879 17.4202 5.79895 16.98 5.6181C17.3305 6.11941 17.5744 6.68732 17.6966 7.28668M17.5328 6.95911C17.2086 6.5667 16.765 6.1743 16.26 6.0924C16.755 6.41608 17.146 6.87581 17.386 7.41635" fill="#F9D050"/>
<path d="M18.6963 7.15361C18.9727 6.86015 19.4812 6.41998 20.0203 6.23913C19.6279 6.61447 18.7919 7.46753 18.6793 7.5972M17.9115 6.97617C17.7136 6.36879 17.4202 5.79895 16.98 5.6181C17.3305 6.11941 17.5744 6.68732 17.6966 7.28668M17.5328 6.95911C17.2086 6.5667 16.765 6.1743 16.26 6.0924C16.755 6.41608 17.146 6.87581 17.386 7.41635" stroke="black" stroke-width="0.0204734"/>
<path d="M17.7168 6.94159C17.3075 6.20491 16.9938 6.0753 16.8164 5.92865C16.9631 6.20491 17.3212 6.94159 17.5326 7.25195" fill="#F9D050"/>
<path d="M17.7168 6.94159C17.3075 6.20491 16.9938 6.0753 16.8164 5.92865C16.9631 6.20491 17.3212 6.94159 17.5326 7.25195" stroke="black" stroke-width="0.0204734"/>
<path d="M16.8982 6.89432C17.1313 7.04125 17.3311 7.23525 17.4848 7.46388" stroke="black" stroke-width="0.0204734"/>
<path d="M16.8982 7.23554C16.9937 7.31744 17.1746 7.41639 17.3384 7.56312L16.8982 7.23554ZM18.8432 7.48122C19.007 7.35156 19.3652 7.14 19.5461 7.07175L18.8432 7.48122ZM18.7271 7.36862C18.8909 7.15365 19.2185 6.8602 19.3345 6.76124L18.7271 7.36862ZM19.1844 6.35177C18.9645 6.59819 18.7572 6.85558 18.5634 7.12294L19.1844 6.35177ZM18.7613 6.20505C18.6064 6.43411 18.4695 6.67483 18.3518 6.92503L18.7613 6.20505ZM17.468 6.23917C17.567 6.50191 17.7478 6.94209 17.8093 7.12294L17.468 6.23917ZM17.3213 6.51556C17.3896 6.61793 17.5192 6.84313 17.567 7.00692L17.3213 6.51556Z" fill="#F9D050"/>
<path d="M16.8982 7.23554C16.9937 7.31744 17.1746 7.41639 17.3384 7.56312M18.8432 7.48122C19.007 7.35156 19.3652 7.14 19.5461 7.07175M18.7271 7.36862C18.8909 7.15365 19.2185 6.8602 19.3345 6.76124M19.1844 6.35177C18.9645 6.59819 18.7572 6.85558 18.5634 7.12294M18.7613 6.20505C18.6064 6.43411 18.4695 6.67483 18.3518 6.92503M17.468 6.23917C17.567 6.50191 17.7478 6.94209 17.8093 7.12294M17.3213 6.51556C17.3896 6.61793 17.5192 6.84313 17.567 7.00692" stroke="black" stroke-width="0.0204734"/>
<path d="M17.8784 6.43342C17.8784 6.28676 17.9773 6.12646 18.0762 6.12646C18.1888 6.12646 18.2706 6.32087 18.2706 6.43342C18.2706 6.56643 18.1717 6.67898 18.0762 6.67898C17.9739 6.67898 17.8784 6.58348 17.8784 6.43342Z" fill="#F9D050" stroke="black" stroke-width="0.0204734"/>
<path d="M17.6668 6.56651C17.6839 6.4028 17.7964 6.2732 17.8953 6.28684C17.9942 6.30049 18.042 6.50171 18.0249 6.61426C18.0079 6.74386 17.8953 6.84277 17.8135 6.82572C17.7316 6.82572 17.6498 6.71317 17.6668 6.56651ZM18.1068 6.61426C18.0727 6.4676 18.1409 6.30731 18.2398 6.28684C18.3353 6.2732 18.4342 6.4335 18.4513 6.56651C18.4854 6.69611 18.4001 6.82572 18.3182 6.82572C18.2398 6.84277 18.1238 6.76091 18.1068 6.61426Z" fill="#F9D050" stroke="black" stroke-width="0.0204734"/>
<path d="M17.8613 6.74393C17.8613 6.58364 17.9602 6.43698 18.0591 6.43698C18.1717 6.43698 18.2535 6.61433 18.2535 6.74393C18.2535 6.87695 18.158 6.98949 18.0591 6.98949C17.9602 6.98949 17.8613 6.894 17.8613 6.74393Z" fill="#F9D050" stroke="black" stroke-width="0.0204734"/>
<path d="M17.5679 6.82579C17.5679 6.67914 17.6838 6.51884 17.7793 6.51884C17.8816 6.51884 17.9771 6.71324 17.9771 6.82579C17.9771 6.95881 17.8612 7.07135 17.7793 7.07135C17.6838 7.07135 17.5679 6.97586 17.5679 6.82579ZM18.1715 6.76099C18.1715 6.61434 18.2739 6.45404 18.3694 6.45404C18.4819 6.45404 18.5638 6.64844 18.5638 6.76099C18.5638 6.894 18.4683 7.00655 18.3694 7.00655C18.2704 7.00655 18.1715 6.90765 18.1715 6.76099Z" fill="#F9D050" stroke="black" stroke-width="0.0204734"/>
<path d="M18.1069 6.89407C18.1069 6.73036 18.2229 6.58371 18.3184 6.58371C18.4207 6.58371 18.5162 6.76106 18.5162 6.89066C18.5162 7.02367 18.4173 7.13963 18.3184 7.13963C18.2229 7.13963 18.1069 7.03732 18.1069 6.89407Z" fill="#F9D050" stroke="black" stroke-width="0.0204734"/>
<path d="M17.8475 7.04079C17.8475 6.87709 17.943 6.73043 18.0419 6.73043C18.1579 6.73043 18.2397 6.92483 18.2397 7.03738C18.2397 7.17381 18.1374 7.28636 18.0419 7.28636C17.943 7.28636 17.8441 7.18404 17.8441 7.04079H17.8475ZM17.4382 7.04079C17.4382 6.87709 17.5201 6.73043 17.6019 6.73043C17.6838 6.73043 17.7486 6.92483 17.7486 7.03738C17.7486 7.17381 17.6667 7.28636 17.6019 7.28636C17.5201 7.28636 17.4382 7.18404 17.4382 7.04079ZM18.3523 7.0101C18.3523 6.86003 18.4341 6.71338 18.516 6.71338C18.5978 6.71338 18.6797 6.89414 18.6797 7.00669C18.6797 7.15334 18.5808 7.25225 18.516 7.25225C18.4341 7.25225 18.3523 7.15334 18.3523 7.00669V7.0101Z" fill="#F9D050" stroke="black" stroke-width="0.0204734"/>
<path d="M18.4516 7.28308C18.4857 7.12278 18.5812 6.98977 18.646 7.01023C18.7142 7.02388 18.7279 7.21828 18.6972 7.33424C18.6801 7.48089 18.5812 7.56275 18.5164 7.54569C18.4482 7.53205 18.4175 7.41609 18.4482 7.28649L18.4516 7.28308Z" fill="#F9D050" stroke="black" stroke-width="0.0204734"/>
<path d="M18.1406 7.23532C18.1577 7.08866 18.2532 6.94201 18.335 6.95906C18.4339 6.95906 18.4817 7.15346 18.468 7.26601C18.451 7.41608 18.3657 7.51498 18.2873 7.49793C18.2054 7.49793 18.1236 7.38197 18.1406 7.23532ZM17.6836 7.28306C17.6324 7.12277 17.5335 7.01022 17.4687 7.02386C17.4039 7.0375 17.3869 7.23532 17.421 7.35128C17.4551 7.48088 17.5506 7.56273 17.6154 7.54568C17.6666 7.53204 17.7177 7.41608 17.6836 7.28647V7.28306Z" fill="#F9D050" stroke="black" stroke-width="0.0204734"/>
<path d="M17.5679 7.25239C17.5679 7.10573 17.6497 6.95908 17.7316 6.95908C17.8305 6.95908 17.8953 7.13984 17.8953 7.25239C17.8953 7.39904 17.8134 7.49795 17.7316 7.49795C17.6634 7.49795 17.5679 7.39904 17.5679 7.25239Z" fill="#F9D050" stroke="black" stroke-width="0.0204734"/>
<path d="M17.8136 7.31735C17.8136 7.15356 17.9125 7.01025 18.0081 7.01025C18.1241 7.01025 18.206 7.18769 18.206 7.31735C18.206 7.45043 18.107 7.56303 18.0081 7.56303C17.9125 7.56303 17.8136 7.46408 17.8136 7.31735ZM17.8955 5.51911C17.8613 5.64877 17.7487 5.76479 17.8272 5.94563C17.6839 5.89445 17.5542 5.87739 17.4382 6.01047C17.585 5.99341 17.7146 6.04459 17.7795 6.14013C17.6498 6.12307 17.585 6.19131 17.5508 6.27321C17.6669 6.23909 17.7795 6.20496 17.8306 6.22202C17.7795 6.27321 17.6976 6.35169 17.6839 6.41993C17.7795 6.33804 17.8955 6.35169 17.9603 6.30392C17.9125 6.41993 18.0081 6.53254 18.09 6.64514C18.0763 6.48477 18.1719 6.37216 18.1241 6.28686C18.2708 6.32098 18.2879 6.45064 18.4994 6.45064C18.4175 6.40287 18.3698 6.23909 18.2708 6.23909C18.3186 6.22202 18.5165 6.20496 18.5506 6.23909C18.5165 6.17084 18.4005 6.10942 18.3356 6.10942C18.4039 6.04118 18.5165 5.91151 18.5984 5.87739C18.4824 5.89445 18.3049 5.91151 18.2401 6.01047C18.4005 5.87739 18.3698 5.63512 18.5472 5.601C18.4517 5.58394 18.3049 5.64877 18.1889 5.76479C18.2401 5.66583 18.2401 5.53617 18.3049 5.50204C18.1719 5.53617 18.0251 5.69995 17.9774 5.78185C17.9703 5.6892 17.9423 5.59936 17.8955 5.51911Z" fill="#F9D050" stroke="black" stroke-width="0.0204734"/>
<path d="M17.9773 5.78182C17.9773 5.82957 17.9773 5.92848 17.9602 5.95917L17.9773 5.78182ZM18.1887 5.76477C18.1546 5.79888 18.0898 5.91143 18.0898 6.01033L18.1887 5.76477Z" fill="#F9D050"/>
<path d="M17.9773 5.78182C17.9773 5.82957 17.9773 5.92848 17.9602 5.95917M18.1887 5.76477C18.1546 5.79888 18.0898 5.91143 18.0898 6.01033" stroke="black" stroke-width="0.0204734"/>
<path d="M18.2873 5.95926C18.2322 5.99364 18.1912 6.04662 18.1719 6.1086" stroke="black" stroke-width="0.0204734"/>
<path d="M16.5543 7.5801C16.4383 7.57783 16.3451 7.53461 16.2745 7.45044C16.1619 7.3003 15.8514 7.23547 15.7183 7.36854C15.6706 7.40267 15.6057 7.40267 15.558 7.41632C15.4761 7.41632 15.3771 7.49821 15.4078 7.662C15.4761 7.61081 15.4897 7.662 15.5409 7.662C15.575 7.64494 15.558 7.67906 15.558 7.70977C15.558 7.79166 15.7354 7.95545 15.8992 7.93839C16.08 7.93839 16.1619 8.00663 16.1926 8.04075C16.2438 8.08511 16.2097 8.07146 16.2438 8.15336C16.2916 8.20113 16.3087 8.21819 16.2268 8.28302C16.1895 8.31409 16.1595 8.35296 16.139 8.39689C16.1184 8.44082 16.1077 8.48873 16.1077 8.53723C16.1077 8.58574 16.1184 8.63365 16.139 8.67758C16.1595 8.72151 16.1895 8.76038 16.2268 8.79144C16.4383 8.95182 16.9775 9.20091 17.5848 8.7232C18.1717 8.26596 19.0862 8.5287 19.1545 8.68908C19.2363 8.85628 19.2671 8.95182 19.2841 9.03371C19.3012 9.10196 19.3831 9.16679 19.4991 9.14973C19.6117 9.14973 19.7414 9.1975 19.8062 9.24868C19.8915 9.29645 20.0041 9.28281 19.9734 9.13267C19.9051 8.67543 19.6288 8.6106 19.598 8.39904C19.7584 8.41269 19.871 8.41269 19.9393 8.34785C19.987 8.28302 20.0519 8.16701 20.1201 8.1363C20.1679 8.10217 20.1679 8.06805 20.1031 8.08511C20.0212 8.10217 19.9734 8.1363 19.8233 8.11924C19.0726 8.03734 16.9638 7.46409 16.5543 7.5801Z" fill="#059334" stroke="black" stroke-width="0.0477712"/>
<path d="M19.8912 8.13619C19.7666 8.22431 19.66 8.33551 19.5773 8.46376C19.4169 8.67532 18.9256 8.88688 18.3182 8.88688C17.7313 8.88688 17.373 8.79133 17.1102 8.57978C16.998 8.49016 16.8768 8.4124 16.7485 8.34774C16.5711 8.26585 16.537 8.085 16.5848 7.93828C16.537 8.02017 16.5063 8.10206 16.4073 8.085C16.3391 8.085 16.2094 8.085 16.2435 8.15325C16.2265 8.11912 16.2265 8.07135 16.2094 8.05088L16.1753 8.02017C16.2265 8.05429 16.3425 7.95534 16.4244 7.95534C16.4892 7.9724 16.5711 7.8905 16.5541 7.79155L16.5063 7.57999C16.6359 7.51175 18.3523 7.82567 18.6969 7.85638C19.0382 7.87344 20.0209 8.02017 19.8912 8.13619Z" fill="#000001" stroke="black" stroke-width="0.0477712"/>
<path d="M16.7825 7.51528C16.9463 7.35149 17.1408 7.2696 17.3387 7.31737H17.3865C17.4888 7.23547 17.714 7.21841 17.8471 7.28325H17.9119C18.1064 7.21841 18.4818 7.28325 18.6149 7.41632L18.6626 7.45044C19.1062 7.41632 19.3656 7.61082 19.6761 7.92475C19.7102 7.95887 19.758 8.02029 19.8399 8.03735C19.9388 8.05441 19.9559 8.10559 19.874 8.15336C19.7429 8.23462 19.6273 8.33862 19.5328 8.46047C19.3826 8.65837 18.9083 8.85628 18.318 8.85628C17.7482 8.85628 17.4035 8.75392 17.1408 8.55942C16.9941 8.44682 16.8814 8.38198 16.7996 8.3308C16.7006 8.29668 16.5709 8.16701 16.6187 8.03735C16.6528 7.90768 16.5709 7.7439 16.5061 7.58011C16.5539 7.54599 16.6835 7.49822 16.7484 7.53234L16.7825 7.51528Z" fill="#059334" stroke="black" stroke-width="0.0477712"/>
<path d="M19.6758 7.92468C19.3687 7.61076 19.106 7.41626 18.6624 7.44697C18.6624 7.46403 18.6624 7.51522 18.6453 7.54934C18.9546 7.68776 19.2287 7.89421 19.4472 8.1533C19.5154 8.08506 19.628 8.00658 19.6758 7.92468ZM18.6146 7.41626C18.4815 7.2866 18.1062 7.21835 17.9117 7.2866C17.9117 7.35143 17.9117 7.45038 17.8776 7.51522C17.9936 7.56299 18.0891 7.679 18.1881 7.79161C18.2563 7.77455 18.4167 7.72677 18.4986 7.70971C18.5475 7.61624 18.5863 7.51788 18.6146 7.41626ZM17.8468 7.28318C17.7138 7.21835 17.4851 7.23541 17.3862 7.31731C17.3521 7.38555 17.3384 7.51522 17.3384 7.58005C17.4067 7.58005 17.5022 7.62782 17.5329 7.66194C17.6353 7.62782 17.7649 7.56299 17.8127 7.51522C17.8298 7.44697 17.8605 7.35143 17.8468 7.2866V7.28318ZM16.7822 7.51522C16.946 7.35143 17.1405 7.26954 17.3384 7.31731C17.3043 7.36849 17.2906 7.46403 17.2906 7.56299C17.1098 7.54593 16.8812 7.59711 16.7822 7.66194V7.51522Z" fill="#00493D" stroke="black" stroke-width="0.0477712"/>
<path d="M19.3823 8.18401C19.1769 7.94045 18.9207 7.74479 18.6316 7.61076C18.6316 7.62782 18.5975 7.69265 18.5804 7.74383C18.6794 7.89056 18.8739 8.21813 18.9558 8.39898C19.0377 8.36486 19.2663 8.2659 19.3823 8.18401ZM18.1402 8.54571C18.1685 8.32269 18.1845 8.09828 18.188 7.8735C18.2699 7.85644 18.4337 7.80867 18.4985 7.7916C18.5804 7.92468 18.7783 8.26932 18.8602 8.42969C18.6623 8.47746 18.3347 8.55936 18.1402 8.54571ZM17.567 7.76089C17.6489 7.72677 17.7649 7.65853 17.8434 7.59711C17.9116 7.64488 18.0413 7.76089 18.0891 7.82573C18.0891 7.97245 18.0413 8.39898 18.0242 8.54229C17.8946 8.54229 17.683 8.51158 17.567 8.44675C17.584 8.20107 17.6011 7.92468 17.567 7.76089ZM16.748 7.95539C16.7651 7.92127 16.7822 7.80867 16.7822 7.76089C16.9118 7.679 17.2394 7.59711 17.4851 7.72677C17.5022 7.89056 17.4851 8.30003 17.468 8.39898C17.2493 8.22088 17.0084 8.07178 16.7515 7.95539H16.748Z" fill="#00493D" stroke="black" stroke-width="0.0477712"/>
<path d="M15.9335 7.65841C15.8994 7.65841 15.8823 7.56287 15.8175 7.56287C15.8004 7.56287 15.7527 7.57993 15.7356 7.56287C15.7379 7.59926 15.7492 7.62656 15.7697 7.64476C15.7868 7.69253 15.8687 7.66182 15.9335 7.66182V7.65841Z" fill="#000001"/>
<path d="M15.933 7.93804C16.1274 7.93804 16.1615 7.69247 16.2604 7.67883M16.0456 7.95509C16.1922 8.0233 16.3082 7.67883 16.4207 7.69247M15.7523 7.53218C15.8 7.53218 15.8341 7.46397 15.916 7.54582C15.9546 7.57992 15.9933 7.59698 16.0319 7.59698M15.9978 7.77433C15.9296 7.87664 15.8171 7.93804 15.7523 7.90734M15.7182 7.36847C15.6704 7.40257 15.6397 7.46397 15.6056 7.51512M15.5579 7.61062V7.69247" stroke="black" stroke-width="0.0477712"/>
<path d="M21.018 9.7402V12.9272C21.018 15.6911 19.7111 16.6397 17.9607 17.3904C16.2102 16.6397 14.8896 15.6911 14.8896 12.9272V9.73679H21.018V9.7402Z" fill="white"/>
<path d="M17.9606 12.4359C18.1074 12.4359 18.336 12.3062 18.5339 12.1083C18.7455 11.8797 19.1072 11.8012 19.4825 12.1083C19.8579 12.4154 20.0865 12.2891 20.2844 12.1083C20.4789 11.9309 20.6427 11.8626 21.018 11.8626V9.7402H14.8862V11.866C15.2616 11.866 15.4254 11.9343 15.6233 12.1117C15.8178 12.2926 16.0464 12.4222 16.4251 12.1117C16.8176 11.8046 17.1588 11.8831 17.3874 12.1117C17.5682 12.3096 17.7969 12.4393 17.9606 12.4393V12.4359Z" fill="#C8102E"/>
<path d="M17.9606 14.0738C18.1586 14.0738 18.551 13.8588 18.6465 13.811C19.0082 13.596 19.2675 13.794 19.4825 13.8929C19.7111 13.9885 20.1342 14.1045 20.397 13.8929C20.6597 13.6813 20.8064 13.695 20.9873 13.695C21.0214 13.4493 21.0214 13.2036 21.0214 12.9272V12.7293C20.7894 12.6816 20.6768 12.7464 20.4311 12.9614C20.1854 13.1763 19.9056 13.1252 19.5439 12.9955C19.2027 12.8454 18.8615 12.586 18.5168 12.9955C18.3743 13.1558 18.1746 13.2538 17.9606 13.2685C17.715 13.2685 17.5034 13.1081 17.4045 12.9955C17.0462 12.586 16.7186 12.8454 16.374 12.9955C16.0157 13.1252 15.7188 13.1729 15.4765 12.9614C15.2479 12.7464 15.1319 12.6816 14.8862 12.7293V12.9272C14.8862 13.2036 14.9033 13.4493 14.934 13.695C15.1149 13.695 15.2479 13.6779 15.5073 13.8929C15.7666 14.1079 16.2102 13.9885 16.4251 13.8929C16.6538 13.794 16.9131 13.596 17.2748 13.811C17.3737 13.8588 17.7491 14.0703 17.9606 14.0703V14.0738ZM17.9606 14.7767C18.244 14.7614 18.5193 14.677 18.7625 14.531C19.0901 14.3501 19.3187 14.4286 19.6463 14.5958C19.9875 14.7596 20.2673 14.7084 20.4652 14.5958C20.5608 14.5276 20.6427 14.3979 20.8542 14.4491C20.7587 14.8586 20.6085 15.2169 20.4311 15.5103C20.1493 15.6018 19.8428 15.5785 19.578 15.4455C19.2368 15.2817 18.8103 15.1827 18.5817 15.3295C18.3963 15.4501 18.1817 15.5185 17.9606 15.5274C17.7798 15.5274 17.5512 15.4591 17.3396 15.3295C17.111 15.1827 16.6845 15.2817 16.3433 15.4455C16.079 15.5796 15.7724 15.6041 15.4902 15.5137C15.3082 15.2134 15.1672 14.8586 15.0671 14.4491C15.2786 14.3979 15.3605 14.531 15.4595 14.5958C15.5819 14.6646 15.72 14.7007 15.8604 14.7007C16.0008 14.7007 16.1389 14.6646 16.2614 14.5958C16.6026 14.432 16.8312 14.3501 17.1588 14.5276C17.4017 14.6748 17.677 14.7603 17.9606 14.7767ZM17.9606 17.3904C18.5931 17.1453 19.1836 16.8034 19.7111 16.377C19.578 16.3292 19.4996 16.36 19.3835 16.2781C19.2675 16.1962 18.9263 16.1655 18.6329 16.3292C18.4293 16.4479 18.198 16.5105 17.9624 16.5105C17.7268 16.5105 17.4954 16.4479 17.2919 16.3292C16.995 16.1655 16.6538 16.1962 16.5412 16.2781C16.4286 16.36 16.3433 16.3292 16.2102 16.3804C16.7356 16.8089 17.3267 17.15 17.9606 17.3904Z" fill="#0B50A0"/>
<path d="M17.5346 10.5386C17.5516 10.5728 17.5209 10.6547 17.5346 10.6854C17.5687 10.7536 17.5687 10.7877 17.6165 10.8184H17.7325C18.0908 10.8184 18.5173 10.6717 18.8756 10.6717C19.2202 10.6717 19.4318 10.7843 19.6263 10.7843C19.7423 10.7843 19.8413 10.7024 19.8413 10.6205C19.8413 10.5386 19.7116 10.4909 19.4318 10.4909C19.0394 10.4909 18.8278 10.5898 18.5002 10.5898C18.0089 10.5898 17.927 10.409 17.927 10.3271C17.927 10.2452 18.0089 10.1326 18.2716 10.1326C18.3558 10.1326 18.4161 10.1155 18.4525 10.0814C18.4695 10.0473 18.5173 9.98245 18.6163 9.93468C18.7289 9.86643 18.9575 9.93468 19.0735 9.85278C19.0735 9.92103 18.9745 10.0166 18.8927 10.0507C19.0564 9.99951 19.2339 9.99951 19.268 10.1326C19.1861 10.0814 19.0564 10.1155 19.0087 10.1326C18.9404 10.1462 18.9097 10.1667 18.8449 10.1804C18.9097 10.1633 18.9438 10.293 19.0394 10.293C18.9438 10.3749 18.78 10.3749 18.6163 10.31C18.5651 10.293 18.4354 10.2452 18.3535 10.2452C18.1897 10.2452 18.0908 10.2793 18.0908 10.3441C18.0908 10.426 18.1931 10.4738 18.4832 10.4738C18.78 10.4738 18.9438 10.3919 19.384 10.3919C19.3499 10.3441 19.4011 10.293 19.3362 10.2452C19.5 10.2452 19.6775 10.293 19.7457 10.409C19.7286 10.293 19.8242 10.1974 19.7935 10.0985C19.8924 10.1155 19.9743 10.2111 19.988 10.293C19.988 10.2452 20.0562 10.2452 20.0562 10.1974C20.1033 10.2204 20.1415 10.2583 20.1649 10.3052C20.1883 10.352 20.1957 10.4053 20.1859 10.4567C20.2337 10.3749 20.2848 10.409 20.3155 10.31C20.3497 10.3783 20.3326 10.5728 20.2166 10.6376C20.319 10.5694 20.4623 10.5694 20.5612 10.6854C20.4623 10.6717 20.4145 10.7195 20.3667 10.7366C20.1289 10.8589 19.8626 10.9154 19.5956 10.9003C19.3362 10.8833 19.3021 10.8321 19.1383 10.8321C19.2373 10.8492 19.4318 11.0471 19.616 11.0471C19.7298 11.0493 19.8105 11.0437 19.8583 11.03C19.9061 11.0129 19.988 11.03 20.0528 11.0641C20.104 11.1119 20.2029 11.1597 20.2678 11.146C20.2496 11.2074 20.2166 11.245 20.1688 11.2586C20.2507 11.3098 20.2029 11.3405 20.2848 11.4053C20.2507 11.4053 20.2166 11.4395 20.1688 11.4224C20.2166 11.4702 20.2166 11.5384 20.2678 11.5691C20.2507 11.5691 20.1995 11.5862 20.1688 11.5691C20.2166 11.6374 20.1688 11.7159 20.2166 11.75C20.2678 11.8182 20.1688 11.8967 20.0869 11.8319C20.104 11.8796 20.0528 11.9308 20.005 11.9138C19.9573 11.8967 19.9231 11.8455 19.9368 11.8319C19.9368 11.8148 19.9368 11.8148 19.9573 11.7978C19.9231 11.8489 19.8583 11.8489 19.8242 11.8319C19.8105 11.8148 19.7901 11.7978 19.7901 11.7841C19.6775 11.8182 19.6297 11.7159 19.6468 11.6681C19.6638 11.6203 19.7594 11.5998 19.7935 11.6203C19.8276 11.634 19.8583 11.6544 19.8924 11.6203C19.9266 11.5998 19.9425 11.5725 19.9402 11.5384C19.9402 11.4872 19.8924 11.3405 19.6775 11.3576C19.4318 11.3746 19.0394 11.3098 18.8449 11.2416C18.8278 11.2279 18.8108 11.2279 18.7937 11.2074C18.7937 11.2757 18.7289 11.3098 18.7289 11.3746C18.7289 11.4565 18.763 11.5214 18.8619 11.5521C18.8108 11.634 18.7289 11.6203 18.6982 11.5691C18.6982 11.6203 18.6299 11.651 18.6299 11.7159C18.6163 11.6817 18.5958 11.6681 18.5821 11.634C18.5344 11.75 18.4013 11.8148 18.3365 11.7841C18.2546 11.8489 18.159 11.8319 18.1249 11.767C18.0771 11.8012 18.0089 11.8012 17.9782 11.767C17.9782 11.8148 17.944 11.8012 17.927 11.866C17.927 11.9001 17.8622 11.9138 17.8314 11.9001C17.7973 11.8796 17.7803 11.8148 17.8144 11.7841C17.7621 11.8182 17.7188 11.8182 17.6847 11.7841C17.6847 11.75 17.6847 11.7022 17.7188 11.6817H17.7496C17.7154 11.6681 17.6677 11.6817 17.6335 11.6681C17.5994 11.634 17.5994 11.5998 17.6165 11.5691C17.6335 11.5521 17.6847 11.5214 17.7188 11.5521L17.7325 11.5691C17.7348 11.5305 17.7461 11.5089 17.7666 11.5043C17.8007 11.4872 17.8451 11.4872 17.8963 11.5384C17.9304 11.5862 17.9611 11.5862 18.0601 11.5725C18.142 11.5725 18.2716 11.4872 18.3672 11.4053C18.0942 11.3576 18.2546 11.1767 18.3365 11.1119C18.2716 11.0948 18.1727 11.0948 18.1078 11.129C17.7666 11.3098 17.4049 11.5214 17.1763 11.4565C17.1795 11.4907 17.1912 11.5236 17.2104 11.5521C17.1592 11.5521 17.0603 11.5521 17.0296 11.5043C17.0125 11.5384 16.9818 11.6203 17.0125 11.6852C16.9784 11.651 16.8828 11.6169 16.8317 11.6033C16.8658 11.6374 16.8317 11.7022 16.8487 11.75C16.801 11.7022 16.7191 11.6681 16.6849 11.7022C16.6508 11.7363 16.586 11.75 16.5382 11.7363C16.5056 11.7805 16.4604 11.8138 16.4085 11.8319C16.4085 11.7978 16.4085 11.75 16.3915 11.7329C16.3744 11.7841 16.3232 11.8489 16.2618 11.8796C16.2618 11.8455 16.2618 11.7978 16.2448 11.767C16.2448 11.8319 16.1151 11.866 16.098 11.9138C16.1117 11.8614 16.1174 11.8182 16.1151 11.7841C16.0975 11.8135 16.0737 11.8388 16.0455 11.8583C16.0172 11.8777 15.9851 11.8908 15.9513 11.8967C15.965 11.8626 15.9854 11.8285 15.965 11.7978C15.9513 11.866 15.8524 11.9001 15.7705 11.8796C15.7705 11.9138 15.7022 11.9615 15.6237 11.9138C15.5725 11.8967 15.5418 11.8455 15.5725 11.8148C15.5077 11.8148 15.4429 11.75 15.477 11.7022L15.4907 11.651C15.4429 11.6169 15.4258 11.5521 15.477 11.5043C15.4907 11.4872 15.5418 11.4872 15.5725 11.4872C15.5725 11.3576 15.6886 11.3576 15.7363 11.4531C15.7705 11.5043 15.8694 11.5862 15.9513 11.5691C15.9854 11.5691 15.9991 11.5521 16.0332 11.5521C16.18 11.5036 16.3182 11.4322 16.4427 11.3405C16.454 11.295 16.4586 11.2575 16.4563 11.2279C16.3915 11.262 16.3267 11.2927 16.2925 11.3405V11.2927C16.2448 11.2927 16.1629 11.2757 16.1287 11.2757C16.1458 11.2586 16.1629 11.1767 16.197 11.1597C16.1151 11.1767 16.0332 11.1597 15.965 11.146C15.9991 11.1119 15.9991 11.0641 16.0161 11.0129C15.982 11.03 15.9001 10.9993 15.8353 11.0129C15.8524 10.9652 15.8694 10.9003 15.9172 10.8833C15.8489 10.8969 15.7727 10.8856 15.6886 10.8492C15.7568 10.8492 15.7875 10.7673 15.8353 10.7673C15.7056 10.7673 15.6715 10.7024 15.6067 10.6717C15.6544 10.6854 15.6886 10.6376 15.7363 10.6376C15.6886 10.6205 15.6067 10.5386 15.6408 10.4909C15.6271 10.5136 15.6044 10.5364 15.5725 10.5591C15.5384 10.5728 15.477 10.5591 15.4258 10.5079C15.3917 10.4397 15.4088 10.3612 15.477 10.3441C15.462 10.3432 15.4476 10.3379 15.4356 10.3291C15.4235 10.3202 15.4142 10.308 15.4088 10.294C15.4034 10.28 15.4022 10.2647 15.4052 10.25C15.4082 10.2353 15.4154 10.2218 15.4258 10.2111C15.4429 10.1769 15.5077 10.1326 15.5418 10.1769L15.5896 10.2452C15.5725 10.2111 15.5725 10.1462 15.5725 10.0985C15.5896 10.0507 15.6237 10.0507 15.6749 10.0302C15.7193 10.0302 15.7534 10.0814 15.7534 10.1326C15.7534 10.1804 15.7705 10.2111 15.7875 10.2793L15.8012 10.2111C15.8012 10.1462 15.8831 10.1633 15.9342 10.1769C15.982 10.1974 15.9991 10.293 15.9342 10.3441C15.9001 10.3783 15.9172 10.426 15.9513 10.4567C16.0639 10.6376 16.2584 10.7843 16.4256 10.8014C16.4279 10.7331 16.4552 10.6729 16.5075 10.6205C16.5075 10.5864 16.5212 10.5386 16.5416 10.5079C16.5553 10.409 16.603 10.3612 16.6679 10.3919C16.6542 10.3749 16.6338 10.3578 16.6338 10.3441C16.586 10.293 16.5382 10.2111 16.5723 10.1462C16.6065 10.0814 16.702 10.0985 16.7361 10.1326C16.7191 10.0302 16.8317 9.95174 16.8317 9.90055C16.8487 9.95174 16.8828 10.0166 16.8658 10.0643C16.8828 9.99951 16.9955 9.91762 17.0773 9.88691C17.0432 9.93468 17.1456 10.0166 17.1285 10.0643C17.1626 9.98245 17.2923 9.93468 17.3879 9.93468C17.3537 9.9688 17.3537 10.0336 17.3537 10.0643C17.4049 10.0643 17.4902 10.0507 17.5209 9.99951C17.5209 10.0678 17.4868 10.1326 17.4527 10.1633C17.4698 10.1462 17.5346 10.1462 17.5858 10.1462C17.5346 10.1974 17.5516 10.2486 17.5039 10.2793C17.5687 10.2452 17.6506 10.2452 17.6677 10.3134C17.7018 10.3612 17.6506 10.4431 17.6165 10.4909C17.5824 10.5079 17.5516 10.5386 17.5346 10.5386Z" fill="#F9D050" stroke="black" stroke-width="0.0477712"/>
<path d="M16.5245 10.7366C16.4086 10.7843 16.3745 10.9003 16.3574 10.9651" stroke="black" stroke-width="0.0477712"/>
<path d="M16.5076 10.8492C16.3439 10.9515 16.2757 11.0299 16.3098 11.2107M16.5861 11.3437C16.6884 11.3096 16.7498 11.2755 16.8316 11.1288" stroke="black" stroke-width="0.0477712"/>
<path d="M16.7841 11.1938C16.75 11.262 16.7841 11.3746 16.7363 11.4223C16.7798 11.4 16.8174 11.3677 16.8459 11.3279C16.8744 11.2882 16.8929 11.2422 16.9 11.1938" stroke="black" stroke-width="0.0477712"/>
<path d="M16.8181 11.3745C16.8829 11.3404 16.9818 11.2415 17.0296 11.1289C17.0125 11.1767 17.0296 11.2585 16.9955 11.3097C17.0773 11.2278 17.1114 11.1767 17.1285 11.0948L17.1421 11.163C17.1762 11.1289 17.2103 11.0948 17.2103 11.03M17.2069 11.0778V11.1596C17.2751 11.1119 17.2922 11.0471 17.2922 10.9652" stroke="black" stroke-width="0.0477712"/>
<path d="M17.2751 11.0637C17.374 10.9955 17.3876 10.9 17.3876 10.7533M17.3876 10.9171C17.4559 10.8659 17.4695 10.8352 17.4695 10.6851M17.258 10.2452C17.2239 10.2452 17.1898 10.2622 17.1898 10.3134C17.1898 10.3441 17.1421 10.3918 17.1421 10.443C17.1284 10.5066 17.0966 10.5282 17.0466 10.5078C16.9954 10.4737 16.9954 10.4737 16.9954 10.4259C16.9954 10.3577 17.0773 10.3441 17.0773 10.2793C17.0943 10.2452 17.1114 10.1974 17.1284 10.1974C17.0466 10.2452 16.9306 10.2111 16.9136 10.1156" stroke="black" stroke-width="0.0477712"/>
<path d="M17.4049 10.293C17.3708 10.31 17.3367 10.2589 17.2923 10.2793C17.2753 10.2793 17.2241 10.293 17.2104 10.2793" stroke="black" stroke-width="0.0477712"/>
<path d="M17.1762 10.3748C17.1933 10.3918 17.2752 10.4259 17.357 10.3918C17.2888 10.4089 17.2411 10.327 17.3059 10.2793M17.0296 10.2111C16.9614 10.2111 16.9136 10.2622 16.9307 10.3134C16.9477 10.3611 17.0125 10.3611 17.0603 10.327M16.9136 11.0296C16.9341 11.0069 16.9455 10.9841 16.9477 10.9614C16.9841 10.9614 17.0114 10.9512 17.0296 10.9307C17.0944 10.9307 17.1421 10.883 17.1592 10.8352C17.1933 10.8352 17.2104 10.7534 17.2274 10.7193C17.241 10.7363 17.2752 10.7193 17.2922 10.651C17.3263 10.6715 17.3741 10.651 17.3877 10.6033M16.7192 10.4907C16.7192 10.5078 16.6851 10.5385 16.651 10.559C16.6681 10.5897 16.651 10.6715 16.6203 10.6851C16.6374 10.7193 16.6203 10.767 16.6033 10.8011C16.6033 10.8182 16.6203 10.8693 16.6203 10.883M16.784 10.1633C16.7499 10.2452 16.767 10.3441 16.8318 10.3611" stroke="black" stroke-width="0.0477712"/>
<path d="M16.8181 10.4227C16.801 10.508 16.801 10.6206 16.7839 10.6718C16.7669 10.7059 16.7362 10.8185 16.8658 10.8492C17.0126 10.8833 17.0944 10.8662 17.1763 10.6206M17.422 11.2587C17.422 11.2757 17.405 11.3098 17.3743 11.3098M17.5346 11.2279C17.5346 11.2621 17.5005 11.3098 17.4869 11.3235M17.6506 11.1938C17.6506 11.2279 17.6506 11.2757 17.6165 11.2928M16.6543 10.1804C16.6679 10.1804 16.6884 10.2145 16.702 10.2452C16.6543 10.2111 16.6031 10.293 16.6338 10.3442M16.6031 10.4568L16.5383 10.508M16.5553 10.6035C16.5383 10.6035 16.5212 10.6206 16.5075 10.6206M15.7705 10.3101C15.7705 10.293 15.7705 10.293 15.7876 10.2759M15.6238 10.2623C15.6067 10.2623 15.6067 10.2623 15.5897 10.2452M15.6374 10.4909H15.6715M15.5726 10.3919C15.5467 10.3662 15.5132 10.3495 15.4771 10.3442M16.4734 10.9993C16.3574 11.0949 16.3096 11.1768 16.2926 11.2928M16.586 11.0778C16.5571 11.1386 16.5123 11.1904 16.4564 11.2279M15.9514 11.5692C15.8967 11.5868 15.8388 11.5916 15.782 11.5833C15.7252 11.5751 15.6711 11.5539 15.6238 11.5214C15.6067 11.5043 15.5897 11.5043 15.5726 11.4873M16.4393 11.344C16.4257 11.4054 16.4052 11.4873 16.3745 11.5043C16.5075 11.4361 16.6201 11.3405 16.6372 11.1938M15.4907 11.6511C15.5419 11.634 15.5931 11.6681 15.6238 11.634M18.3365 11.1119C18.3706 11.129 18.4184 11.1461 18.4355 11.1597C18.4525 11.1256 18.5173 11.0778 18.5651 11.0642M17.1763 11.4566C17.1593 11.3883 17.1934 11.3098 17.2924 11.2757M16.5383 11.733C16.5553 11.6988 16.5553 11.6511 16.5724 11.6204M15.8183 11.7841C15.8012 11.8183 15.7705 11.849 15.7705 11.8797M15.5726 11.8148C15.5726 11.8148 15.5726 11.7978 15.5897 11.7978C15.6238 11.7841 15.6715 11.75 15.6886 11.7159M17.7974 11.5862C17.7632 11.6033 17.7496 11.5862 17.7325 11.5692M17.7803 11.6681C17.7803 11.6681 17.7667 11.6852 17.7462 11.6852M17.8622 11.75C17.844 11.7705 17.8281 11.7819 17.8144 11.7841M18.3365 11.7841C18.3683 11.7705 18.3911 11.7318 18.4047 11.6681M18.1249 11.7671C18.1727 11.75 18.2068 11.7159 18.2546 11.6681M18.5822 11.634C18.5799 11.5999 18.5856 11.568 18.5992 11.5385M19.7935 11.7841C19.7594 11.75 19.7594 11.7022 19.8106 11.6681C19.8447 11.6511 19.8584 11.634 19.8925 11.6204" stroke="black" stroke-width="0.0477712"/>
<path d="M18.7939 11.2075C18.5346 11.0949 18.5516 10.9481 18.3367 10.9652M19.9575 11.7193C19.9745 11.733 19.9575 11.7841 19.9575 11.7978M20.1042 11.7193C20.0871 11.7671 20.0871 11.7841 20.0871 11.8319M18.8451 10.1804H18.7086M17.47 10.7366C17.47 10.7707 17.5211 10.8355 17.6508 10.8355C17.6337 10.8355 17.6167 10.8185 17.6167 10.8185M17.5348 10.5387C17.5211 10.5557 17.5007 10.5387 17.5007 10.5387C17.47 10.5046 17.5211 10.4431 17.5689 10.409C17.5234 10.4227 17.4847 10.4283 17.4529 10.4261C17.4188 10.525 17.3232 10.5728 17.2584 10.508C17.2413 10.5728 17.1594 10.6547 17.0946 10.6376C17.0309 10.6012 17.0082 10.558 17.0264 10.508C16.9479 10.6035 16.8489 10.5421 16.8182 10.508C16.8012 10.4738 16.8182 10.3919 16.8523 10.293" stroke="black" stroke-width="0.0477712"/>
<path d="M18.582 11.1597C18.5343 11.1938 18.4831 11.1597 18.4354 11.2108C18.4013 11.2449 18.4524 11.2586 18.4831 11.2586C18.4695 11.3097 18.4695 11.3268 18.5513 11.3268C18.5172 11.3745 18.6161 11.3916 18.5991 11.4564C18.6183 11.4343 18.6316 11.4077 18.6376 11.379C18.6435 11.3503 18.642 11.3206 18.6332 11.2927C18.6161 11.2415 18.5309 11.2108 18.582 11.1597Z" fill="black"/>
<path d="M17.0943 10.6376C17.0306 10.6012 17.0079 10.558 17.0261 10.5079C17.0102 10.5398 16.984 10.5557 16.9476 10.5557C16.8794 10.7024 16.8009 10.8355 16.7019 10.8355C16.5859 10.8492 16.603 10.9652 16.6849 10.9652C16.8657 10.9993 16.9476 10.9311 17.0943 10.6376ZM15.4769 10.2452C15.5247 10.1974 15.4906 10.1462 15.4599 10.1326C15.4087 10.1155 15.3131 10.1326 15.262 10.2111C15.3131 10.1974 15.3643 10.1974 15.378 10.2281C15.395 10.2623 15.4257 10.2964 15.4769 10.2452ZM15.5588 9.95175C15.6714 9.95175 15.7056 9.96881 15.7192 10.0166C15.7363 10.0507 15.7056 10.0985 15.6714 10.0985C15.6237 10.0985 15.5725 10.0643 15.5895 10.0507C15.6066 10.0166 15.6066 9.96881 15.5554 9.94833L15.5588 9.95175ZM15.883 10.2111C15.9649 10.2281 15.999 10.177 15.9512 10.1155C15.933 10.0609 15.883 10.0382 15.8011 10.0473C15.883 10.0985 15.8011 10.1804 15.883 10.2111ZM15.279 10.4909C15.2937 10.5199 15.3183 10.5427 15.3483 10.5552C15.3783 10.5678 15.4119 10.5691 15.4428 10.5591C15.4906 10.5386 15.5111 10.4909 15.4906 10.4568C15.4565 10.409 15.4087 10.3919 15.395 10.4568C15.3609 10.525 15.3131 10.5079 15.279 10.4909ZM15.5247 11.4872C15.4906 11.4224 15.395 11.4224 15.3131 11.4872C15.3473 11.4702 15.4087 11.4872 15.4257 11.5214C15.4428 11.5555 15.4769 11.5555 15.494 11.5555C15.5076 11.5384 15.5418 11.5214 15.5247 11.4872ZM15.6544 11.3917C15.6544 11.3098 15.5418 11.2893 15.4769 11.3235C15.5111 11.3235 15.5588 11.3576 15.5588 11.3917C15.5725 11.4258 15.6066 11.4395 15.6237 11.4395C15.6578 11.4213 15.6692 11.4054 15.6578 11.3917H15.6544ZM15.4906 11.6852C15.395 11.6681 15.3439 11.7841 15.3439 11.8626C15.3609 11.8148 15.4121 11.7841 15.4599 11.7978C15.5054 11.7978 15.527 11.7818 15.5247 11.75C15.5418 11.7159 15.5247 11.7022 15.4906 11.6817V11.6852ZM15.5076 11.9615C15.5418 11.9786 15.5759 11.9445 15.5895 11.8967C15.5895 11.8626 15.6578 11.8626 15.6714 11.8797C15.7056 11.8967 15.7056 11.9615 15.6544 11.9957C15.6202 12.0127 15.5418 12.0298 15.5076 11.9615ZM17.7802 11.4702C17.7461 11.4565 17.6676 11.4224 17.6028 11.4702C17.6505 11.4565 17.6846 11.4872 17.6983 11.5214C17.6983 11.5555 17.7495 11.5691 17.7665 11.5384C17.7802 11.5214 17.8007 11.4872 17.7802 11.4702ZM17.6335 11.5862C17.5686 11.5521 17.4867 11.634 17.4697 11.7022C17.503 11.675 17.5431 11.6573 17.5857 11.651C17.6244 11.6647 17.646 11.6533 17.6505 11.6169C17.671 11.601 17.6653 11.5908 17.6335 11.5862ZM17.7188 11.7193C17.6676 11.7193 17.6028 11.7841 17.6028 11.8489C17.6187 11.8125 17.646 11.8012 17.6846 11.8148C17.7188 11.8148 17.7665 11.7978 17.7665 11.7671C17.7665 11.7329 17.7495 11.7159 17.7154 11.7159L17.7188 11.7193ZM17.8621 11.8489C17.828 11.8319 17.7802 11.8489 17.7802 11.8967C17.7802 11.9445 17.7802 11.9957 17.7665 12.0127C17.8007 11.9809 17.8325 11.9581 17.8621 11.9445C17.8791 11.9308 17.8962 11.8797 17.8621 11.8489ZM19.7115 11.7022C19.6774 11.6681 19.6296 11.6852 19.6126 11.7159C19.5955 11.7466 19.5784 11.8319 19.6126 11.8967C19.6126 11.8626 19.6467 11.8148 19.6808 11.8148C19.7286 11.7978 19.7422 11.7329 19.7115 11.7022ZM19.8105 11.7671C19.7422 11.8012 19.7422 11.9138 19.7934 11.9786C19.7934 11.9445 19.8105 11.8967 19.8412 11.8797C19.8924 11.8797 19.9094 11.8148 19.8924 11.7841C19.8582 11.75 19.8241 11.7671 19.8105 11.7671ZM20.005 11.8319C19.9708 11.8148 19.9367 11.8489 19.9367 11.8797C19.9231 11.9308 19.9572 11.9957 20.005 12.0264C20.0072 11.99 20.0186 11.9627 20.0391 11.9445C20.0869 11.9104 20.0732 11.8489 20.005 11.8319ZM20.1517 11.8148C20.1176 11.8148 20.0869 11.8626 20.1176 11.9138C20.1312 11.9479 20.1699 11.9593 20.2336 11.9479C20.2165 11.9479 20.1858 11.8967 20.1995 11.8797C20.2154 11.841 20.1995 11.8194 20.1517 11.8148Z" fill="#073163"/>
<path d="M15.6058 14.8723L16.4248 12.3541L17.2437 14.8723L15.0974 13.3197H17.7521L15.6058 14.8723Z" fill="#F9D050"/>
<path d="M15.7696 14.6437L17.4689 13.4016H15.3772L17.0594 14.6437L16.4248 12.6509L15.7696 14.6437Z" fill="#024919"/>
<path d="M18.6805 14.8723L19.4995 12.354L20.3184 14.8723L18.1721 13.3197H20.8268L18.6805 14.8723Z" fill="#F9D050"/>
<path d="M18.8443 14.6435L20.5436 13.4014H18.4519L20.1341 14.6435L19.4995 12.6508L18.8443 14.6435Z" fill="#024919"/>
<path d="M17.1415 16.6534L17.9604 14.1351L18.7793 16.6534L16.6331 15.1008H19.2878L17.1415 16.6534Z" fill="#F9D050"/>
<path d="M17.3052 16.4248L19.0045 15.1827H16.9128L18.5951 16.4248L17.9604 14.432L17.3052 16.4248Z" fill="#024919"/>
<path d="M21.018 9.7402V12.9272C21.018 15.6911 19.7111 16.6397 17.9607 17.3904C16.2102 16.6397 14.8896 15.6911 14.8896 12.9272V9.73679H21.018V9.7402Z" stroke="black" stroke-width="0.0477712"/>
</g>
<defs>
<clipPath id="clip0_720_53397">
<rect width="24.0044" height="24.0044" fill="white" transform="translate(0 0.0174561)"/>
</clipPath>
</defs>
</svg>
