<svg width="25" height="25" viewBox="0 0 25 25" fill="none" xmlns="http://www.w3.org/2000/svg">
<g clip-path="url(#clip0_720_53443)">
<path d="M0.0178223 0.0174561H24.0222V24.0218H0.0178223V0.0174561Z" fill="#EE1C25"/>
<path d="M9.61952 4.93837L3.49841 8.89909L6.01887 2.41791L8.17926 8.89909L2.41821 4.93837H9.61952Z" fill="#FFFF00"/>
<path d="M11.1092 1.56691L13.2902 2.63515L11.0073 3.02742L12.4872 1.29863L12.3447 3.62309L11.1092 1.56691Z" fill="#FFFF00"/>
<path d="M13.8891 3.68412L15.4836 5.51811L13.2264 4.99074L15.2638 3.97339L14.2273 6.06061L13.8891 3.68412Z" fill="#FFFF00"/>
<path d="M14.3909 7.16862L15.098 9.49511L13.2519 8.09126L15.5283 7.99446L13.7289 9.47731L14.3909 7.16862Z" fill="#FFFF00"/>
<path d="M12.4891 9.65822L12.2436 12.0749L11.0836 10.0693L13.2188 10.8578L10.9888 11.5306L12.4891 9.65822Z" fill="#FFFF00"/>
</g>
<defs>
<clipPath id="clip0_720_53443">
<rect width="24.0044" height="24.0044" fill="white" transform="translate(0.0175781 0.0174561)"/>
</clipPath>
</defs>
</svg>
