<svg width="25" height="25" viewBox="0 0 25 25" fill="none" xmlns="http://www.w3.org/2000/svg">
<g clip-path="url(#clip0_720_53420)">
<mask id="mask0_720_53420" style="mask-type:luminance" maskUnits="userSpaceOnUse" x="0" y="0" width="25" height="25">
<path d="M0.0275879 0.0172729H24.0343V24.0239H0.0275879V0.0172729Z" fill="white"/>
</mask>
<g mask="url(#mask0_720_53420)">
<path fill-rule="evenodd" clip-rule="evenodd" d="M0.0275879 0.0172729H36.0693V6.01461H0.0275879V0.0172729Z" fill="#FFFF00"/>
<path fill-rule="evenodd" clip-rule="evenodd" d="M0.0273438 6.01462H36.0691V12.0177H0.0273438V6.01462Z" fill="white"/>
<path fill-rule="evenodd" clip-rule="evenodd" d="M0.0273438 12.0177H36.0691V18.0151H0.0273438V12.0177Z" fill="#BE0027"/>
<path fill-rule="evenodd" clip-rule="evenodd" d="M0.0273438 18.0208H36.0691V24.0182H0.0273438V18.0208Z" fill="#3B5AA3"/>
<path fill-rule="evenodd" clip-rule="evenodd" d="M0.0275879 0.0172729V24.0182L17.9273 12.0523L0.0275879 0.0172729Z" fill="#239E46"/>
<path fill-rule="evenodd" clip-rule="evenodd" d="M7.39726 6.64895C3.40672 6.44712 1.59022 9.62456 1.59598 12.0812C1.58445 14.9876 4.34092 17.3865 6.88402 17.2366C5.94821 16.7397 5.16737 15.9947 4.62719 15.0832C4.08702 14.1717 3.8084 13.1291 3.82192 12.0696C3.7883 10.9081 4.11353 9.7645 4.75331 8.79451C5.39309 7.82452 6.31632 7.07532 7.39726 6.64895Z" fill="white"/>
<path fill-rule="evenodd" clip-rule="evenodd" d="M7.33956 9.25549L6.77443 8.81722L6.09396 9.03059L6.33616 8.36165L5.92672 7.77922L6.63602 7.80228L7.06276 7.22562L7.25883 7.91762L7.93929 8.14252L7.34533 8.54618L7.33956 9.25549ZM7.32803 11.6948L6.76289 11.2565L6.08242 11.4699L6.32462 10.801L5.90942 10.2185L6.62449 10.2416L7.05123 9.66492L7.24729 10.3569L7.92776 10.5876L7.33379 10.9855L7.32803 11.6948ZM7.33956 14.1629L6.77443 13.7247L6.09396 13.938L6.33616 13.2633L5.92672 12.6867L6.63602 12.7097L7.06276 12.1331L7.25883 12.8251L7.93929 13.05L7.34533 13.4479L7.33956 14.1629ZM7.32803 16.6484L6.76289 16.2101L6.08242 16.4235L6.32462 15.7545L5.90942 15.1721L6.62449 15.1952L7.05123 14.6185L7.24729 15.3105L7.92776 15.5412L7.33379 15.9391L7.32803 16.6484Z" fill="white"/>
</g>
</g>
<defs>
<clipPath id="clip0_720_53420">
<rect width="24.0044" height="24.0044" fill="white" transform="translate(0.026123 0.0174561)"/>
</clipPath>
</defs>
</svg>
