<svg width="25" height="25" viewBox="0 0 25 25" fill="none" xmlns="http://www.w3.org/2000/svg">
<g clip-path="url(#clip0_720_53441)">
<path d="M0.0349121 0.017395H24.0393V24.0218H0.0349121V0.017395Z" fill="#000066"/>
<path fill-rule="evenodd" clip-rule="evenodd" d="M16.2002 11.743L16.4674 10.885L15.7454 10.3365L16.6549 10.3271L16.9597 9.47849L17.255 10.3271L18.1646 10.3552L17.4332 10.8897L17.6957 11.7523L16.9503 11.2366M18.3427 11.9117L18.8772 11.1944L18.3802 10.4302L19.2429 10.7303L19.8055 10.0364V10.9413L20.6494 11.2741L19.7867 11.532L19.7446 12.4321L19.2148 11.6914M14.1514 12.465L14.1138 11.5648L13.2512 11.2976L14.1045 10.9694V10.0739L14.6671 10.7725L15.5297 10.4818L15.0234 11.2366L15.5579 11.9586L14.6858 11.7242M12.6417 13.834L12.2666 13.0182L11.3665 13.112L12.0228 12.479L11.6853 11.6492L12.4682 12.0711L13.1527 11.4617L12.9793 12.3571L13.7435 12.8119L12.8527 12.9432M11.9525 15.8031L11.268 15.2358L10.4944 15.7046L10.8226 14.8466L10.1663 14.2465L11.0523 14.2887L11.4134 13.4448L11.6337 14.3262L12.5198 14.4059L11.7697 14.9123M11.9338 18.0207L11.0805 17.7722L10.5648 18.5223L10.5273 17.5987L9.68335 17.3174L10.5132 16.9939V16.0703L11.0617 16.797L11.9056 16.511L11.4134 17.2752M12.9324 19.896L12.0557 20.0179L11.8775 20.9134L11.4743 20.0835L10.5929 20.1679L11.2258 19.535L10.8554 18.6911L11.6478 19.1271L12.3041 18.5176L12.1635 19.4225M14.4795 21.3775L13.6966 21.7995L13.8372 22.7043L13.1762 22.0667L12.3792 22.4558L12.7542 21.6401L12.1213 20.979L13.0121 21.1103L13.42 20.3133L13.5934 21.2041M16.3643 21.6729L15.9423 22.4605L16.5424 23.1403L15.6469 22.9716L15.1875 23.7405L15.0609 22.8497L14.1748 22.6434L14.9906 22.2589L14.9015 21.3681L15.5344 22.0198M18.4881 21.3447L18.4553 22.2449L19.2992 22.5731L18.4271 22.8356L18.3662 23.7311L17.8505 22.995L16.9691 23.2247L17.527 22.5027L17.0441 21.7479L17.902 22.0386M20.7057 11.5742L21.3198 12.2259L22.1403 11.8461L21.7184 12.6619L22.3044 13.3323L21.4277 13.1917L20.9682 13.9887L20.851 13.0838L19.979 12.8963L20.7854 12.4884M22.5482 13.5714L22.8295 14.4294L23.725 14.4435L22.9983 14.992L23.2421 15.864L22.5107 15.3483L21.7605 15.8687L22.0418 15.0014L21.3292 14.4575L22.2341 14.4341M23.2374 16.1453L23.1342 17.0361L23.9453 17.4393L23.0545 17.6268L22.9139 18.5176L22.4685 17.7347L21.573 17.8847L22.1825 17.2143L21.7699 16.4172L22.5998 16.7876M22.7498 18.8364L22.3513 19.6381L22.9748 20.2945L22.0794 20.1632L21.6433 20.9462L21.4886 20.0601L20.5978 19.8866L21.3949 19.4741L21.2776 18.5833L21.934 19.2162M21.423 21.2322L20.6682 21.701L20.8604 22.5918L20.1665 22.0011L19.3929 22.4418L19.7211 21.5979L19.046 20.979L19.9415 21.054L20.3025 20.2289L20.5322 21.1197" fill="white"/>
<path d="M0.0349121 -0.00604248H12.0371V11.9961H0.0349121V-0.00604248Z" fill="#000066"/>
<path d="M12.0371 -0.00604248V1.49423L7.58316 5.99505L12.0371 10.3787V11.9961H10.4665L5.98912 7.58909L1.62895 11.9961H0.0349121V10.4021L4.39508 6.01849L0.0349121 1.72865V-0.00604248H1.4883L5.98912 4.40101L10.3493 -0.00604248H12.0371Z" fill="white"/>
<path d="M4.3482 7.58909L4.60606 8.38611L1.01947 11.9961H0.0349121V11.9258L4.3482 7.58909ZM7.25498 7.30779L8.52083 7.49532L12.0371 10.9413V11.9961L7.25498 7.30779ZM12.0371 -0.00604248L7.53628 4.58854L7.44251 3.55711L10.9588 -0.00604248H12.0371ZM0.0349121 0.0173993L4.55917 4.44789L3.17611 4.26036L0.0349121 1.1426V0.0173993Z" fill="#C8102E"/>
<path d="M4.16066 -0.00604248V11.9961H7.91135V-0.00604248H4.16066ZM0.0349121 4.11971V7.87039H12.0371V4.11971H0.0349121Z" fill="white"/>
<path d="M0.0349121 4.86984V7.12025H12.0371V4.86984H0.0349121ZM4.9108 -0.00604248V11.9961H7.16121V-0.00604248H4.9108Z" fill="#C8102E"/>
</g>
<defs>
<clipPath id="clip0_720_53441">
<rect width="24.0044" height="24.0044" fill="white" transform="translate(0.0349121 0.0174561)"/>
</clipPath>
</defs>
</svg>
