<svg width="25" height="25" viewBox="0 0 25 25" fill="none" xmlns="http://www.w3.org/2000/svg">
<g clip-path="url(#clip0_720_53439)">
<path d="M0.017334 0.0218506H24.0217V24.0262H0.017334V0.0218506Z" fill="white"/>
<path d="M11.4101 19.9566L11.396 19.9473V19.9426L11.3304 19.8769L11.1428 19.6472L10.8943 19.3378L10.8615 19.2956L10.5521 19.2018L10.3271 19.094L10.4443 18.958L10.8662 19.1362L11.1756 19.2018L11.7476 19.6238L11.4288 19.9238L11.4194 19.9426L11.4569 19.9191L11.4945 19.9519L11.4101 19.9566ZM9.27686 19.3143C9.00494 19.3143 8.73926 19.2393 8.47984 19.0893C8.09071 18.8642 8.51735 19.0283 8.59705 18.9674C8.67206 18.9111 8.81272 18.8408 9.04244 18.8408C9.31437 18.8408 9.64099 18.9314 10.0223 19.1127C10.0082 19.1221 9.70819 19.3143 9.27686 19.3143ZM8.10477 19.0565C8.05476 19.0565 8.01101 19.0377 7.9735 19.0002C7.94585 18.9661 7.92658 18.9259 7.91724 18.883C7.90515 18.8292 7.90042 18.774 7.90317 18.7189L7.96881 18.7002C8.07196 18.7002 8.15166 18.7939 8.18448 18.8783C8.20323 18.9252 8.20792 18.9658 8.19854 19.0002C8.18448 19.0518 8.14697 19.0518 8.10477 19.0518V19.0565ZM10.1676 18.8127C9.47377 18.7189 9.1831 18.4657 9.05651 18.2688C8.9753 18.1526 8.93717 18.0116 8.94868 17.8703C8.94868 17.8703 8.99556 17.8609 9.05651 17.8609C9.24404 17.8609 9.71288 17.9547 10.1676 18.8127ZM8.74708 18.6767C8.44702 18.6767 8.22355 18.6267 8.07664 18.5267C8.01223 18.4851 7.96036 18.4267 7.92662 18.3579L7.90317 18.2782C8.0162 18.2321 8.13748 18.2098 8.25949 18.2126C8.49391 18.2126 8.84085 18.2876 9.20654 18.6439C9.05408 18.663 8.90071 18.674 8.74708 18.6767ZM7.31244 18.6204C6.99832 18.6204 6.56699 18.5267 6.29976 18.2594C6.52261 18.2066 6.75057 18.1783 6.97957 18.1751C7.27337 18.1751 7.49529 18.2313 7.64532 18.3438C7.70158 18.3813 7.73127 18.4189 7.73439 18.4564C7.74065 18.4876 7.72658 18.5157 7.6922 18.5407C7.62344 18.5908 7.50467 18.6173 7.33588 18.6204H7.31244ZM6.29507 18.1047C6.25894 18.1018 6.22535 18.085 6.2013 18.0578C6.17748 18.0278 6.16138 17.9924 6.15442 17.9547C6.13567 17.8797 6.14035 17.8094 6.14035 17.8094L6.18724 17.7953C6.23412 17.7984 6.27007 17.8141 6.29507 17.8422C6.32425 17.8713 6.34665 17.9065 6.36071 17.9453C6.37633 17.9891 6.37946 18.025 6.37008 18.0532C6.36071 18.0813 6.3357 18.0969 6.29507 18.1V18.1047ZM8.63925 18.0485C8.58924 18.0485 8.54704 18.0313 8.51266 17.9969C8.48501 17.9628 8.46574 17.9226 8.4564 17.8797C8.44388 17.8244 8.43915 17.7675 8.44234 17.7109L8.50328 17.6968C8.60643 17.6968 8.69082 17.7859 8.71895 17.8703C8.7377 17.9203 8.74239 17.961 8.73301 17.9922C8.71739 18.0266 8.68613 18.0453 8.63925 18.0485ZM7.49529 18.0016C6.86705 17.9781 6.53886 17.8 6.37946 17.6546C6.3083 17.5928 6.24945 17.518 6.20599 17.4343L6.17317 17.3405C6.17317 17.3405 6.22943 17.3171 6.32789 17.3171H6.34195C6.55293 17.3171 6.98895 17.4062 7.49529 18.0016ZM8.17979 17.9359C7.82115 17.8959 7.48781 17.7317 7.23743 17.4718C7.14376 17.3721 7.07191 17.2539 7.02645 17.1249C7.02645 17.1249 7.09209 17.1108 7.18586 17.1061H7.22805C7.48122 17.1108 7.94537 17.228 8.17979 17.9359ZM5.58244 17.6922C5.41366 17.6922 5.25426 17.6734 5.10423 17.6359C4.83699 17.5703 4.72447 17.4718 4.6729 17.3968C4.65241 17.3659 4.63956 17.3305 4.63539 17.2936V17.2515C4.63539 17.2515 4.80886 17.2046 5.05266 17.1999C5.17694 17.1975 5.30111 17.2085 5.42304 17.2327C5.67889 17.2849 5.90712 17.4282 6.06534 17.6359C6.06534 17.6359 5.86374 17.6922 5.58244 17.6922ZM6.75453 17.2702C6.70452 17.2702 6.66232 17.2515 6.62794 17.2139C6.60029 17.1798 6.58103 17.1397 6.57168 17.0967C6.55897 17.043 6.55423 16.9877 6.55762 16.9326L6.61857 16.9186H6.62325C6.7264 16.9186 6.8061 17.003 6.83892 17.092C6.85767 17.1389 6.8608 17.1796 6.8483 17.2139C6.83267 17.2452 6.80141 17.2624 6.75453 17.2655V17.2702ZM5.87312 17.1436C5.86843 17.1436 5.63401 17.0874 5.39491 16.9373C5.16987 16.7967 4.90263 16.5623 4.86512 16.1872C4.82762 15.8121 4.88856 16.1778 4.92138 16.1778H4.93076C4.9964 16.1778 5.13236 16.1966 5.29645 16.3185C5.50899 16.481 5.70121 16.7576 5.87312 17.1483V17.1436ZM6.44979 17.1249C6.44979 17.1249 6.281 17.0592 6.07472 16.8811C5.77703 16.6297 5.54526 16.3094 5.39959 15.9481C5.39959 15.9481 5.44648 15.9246 5.5168 15.92H5.54962C5.64339 15.92 5.78873 15.9622 5.95282 16.1403C6.18754 16.4288 6.35707 16.7647 6.44979 17.1249ZM4.94951 17.078C4.76198 17.078 4.69634 16.9748 4.6729 16.9326C4.65506 16.8848 4.64864 16.8334 4.65415 16.7826L4.74791 16.7686H4.75729C4.90732 16.7686 5.02921 16.8483 5.08079 16.9233C5.09016 16.9373 5.12298 16.9936 5.09485 17.0311C5.0761 17.0624 5.02921 17.078 4.9542 17.078H4.94951ZM4.52756 16.5435C4.41973 16.5435 4.25564 16.5341 4.08217 16.506C3.9087 16.4779 3.81024 16.3278 3.75867 16.2106C3.72388 16.1314 3.70021 16.0478 3.68835 15.9622C4.21813 15.9762 4.4713 16.1309 4.58851 16.2575C4.66123 16.3343 4.70584 16.4335 4.71509 16.5388L4.52756 16.5435ZM5.08079 15.9903L4.95889 15.8215C4.89325 15.723 4.83699 15.6199 4.83699 15.5402L4.80886 15.1933L4.77604 14.9588C4.79011 14.9682 5.10892 15.0854 5.10892 15.3855C5.10892 15.6855 5.08079 15.9856 5.08079 15.9903ZM4.66821 15.9622H4.65415C4.56038 15.9434 4.39629 15.8684 4.21344 15.7652C4.04011 15.6727 3.88199 15.5541 3.74461 15.4136C3.65709 15.3136 3.60708 15.1573 3.59458 14.9448C3.58696 14.8512 3.58696 14.7571 3.59458 14.6635L3.65084 14.6494C3.71335 14.6494 3.79461 14.6838 3.89463 14.7526C3.98839 14.8182 4.07624 14.892 4.15718 14.9729C4.25816 15.074 4.35362 15.1804 4.44317 15.2917C4.54281 15.4775 4.62898 15.6702 4.70103 15.8684V15.9387L4.68228 15.9575L4.66821 15.9622Z" fill="#435125"/>
<path d="M10.3177 19.9566L10.3318 19.9473V19.9426L10.3974 19.8769L10.585 19.6472L10.8334 19.3378L10.8663 19.2956L11.1757 19.2018L11.4007 19.094L11.2835 18.958L10.8616 19.1362L10.5521 19.2018L9.98016 19.6238L10.299 19.9238L10.3083 19.9426L10.2708 19.9191L10.2333 19.9519L10.3177 19.9566ZM12.4509 19.3143C12.7228 19.3143 12.9885 19.2393 13.2479 19.0893C13.6371 18.8642 13.2104 19.0283 13.1307 18.9674C13.0557 18.9111 12.9151 18.8408 12.6853 18.8408C12.4134 18.8408 12.0868 18.9314 11.7055 19.1127C11.7195 19.1221 12.0196 19.3143 12.4509 19.3143ZM13.623 19.0565C13.673 19.0565 13.7168 19.0377 13.7543 19.0002C13.7819 18.9661 13.8012 18.9259 13.8105 18.883C13.8226 18.8292 13.8274 18.774 13.8246 18.7189L13.759 18.7002C13.6558 18.7002 13.5761 18.7939 13.5433 18.8783C13.5246 18.9252 13.5199 18.9658 13.5292 19.0002C13.5433 19.0518 13.5808 19.0518 13.623 19.0518V19.0565ZM11.5601 18.8127C12.254 18.7189 12.5447 18.4657 12.6713 18.2688C12.7525 18.1526 12.7906 18.0116 12.7791 17.8703C12.7791 17.8703 12.7322 17.8609 12.6713 17.8609C12.4837 17.8609 12.0149 17.9547 11.5601 18.8127ZM12.9807 18.6767C13.2808 18.6767 13.5042 18.6267 13.6511 18.5267C13.7156 18.4851 13.7674 18.4267 13.8012 18.3579L13.8246 18.2782C13.7116 18.2321 13.5903 18.2098 13.4683 18.2126C13.2339 18.2126 12.8869 18.2876 12.5212 18.6439C12.6737 18.663 12.8271 18.674 12.9807 18.6767ZM14.4153 18.6204C14.7295 18.6204 15.1608 18.5267 15.428 18.2594C15.2052 18.2066 14.9772 18.1783 14.7482 18.1751C14.4544 18.1751 14.2325 18.2313 14.0825 18.3438C14.0262 18.3813 13.9965 18.4189 13.9934 18.4564C13.9871 18.4876 14.0012 18.5157 14.0356 18.5407C14.1043 18.5908 14.2231 18.6173 14.3919 18.6204H14.4153ZM15.4327 18.1047C15.4688 18.1018 15.5024 18.085 15.5265 18.0578C15.5503 18.0278 15.5664 17.9924 15.5734 17.9547C15.5921 17.8797 15.5874 17.8094 15.5874 17.8094L15.5405 17.7953C15.4937 17.7984 15.4577 17.8141 15.4327 17.8422C15.4035 17.8713 15.3811 17.9065 15.3671 17.9453C15.3514 17.9891 15.3483 18.025 15.3577 18.0532C15.3671 18.0813 15.3921 18.0969 15.4327 18.1V18.1047ZM13.0885 18.0485C13.1385 18.0485 13.1807 18.0313 13.2151 17.9969C13.2428 17.9628 13.262 17.9226 13.2714 17.8797C13.2839 17.8244 13.2886 17.7675 13.2854 17.7109L13.2245 17.6968C13.1214 17.6968 13.037 17.7859 13.0088 17.8703C12.9901 17.9203 12.9854 17.961 12.9948 17.9922C13.0104 18.0266 13.0417 18.0453 13.0885 18.0485ZM14.2325 18.0016C14.8607 17.9781 15.1889 17.8 15.3483 17.6546C15.4195 17.5928 15.4783 17.518 15.5218 17.4343L15.5546 17.3405C15.5546 17.3405 15.4983 17.3171 15.3999 17.3171H15.3858C15.1749 17.3171 14.7388 17.4062 14.2325 18.0016ZM13.548 17.9359C13.9066 17.8959 14.24 17.7317 14.4904 17.4718C14.584 17.3721 14.6559 17.2539 14.7013 17.1249C14.7013 17.1249 14.6357 17.1108 14.5419 17.1061H14.4997C14.2466 17.1108 13.7824 17.228 13.548 17.9359ZM16.1453 17.6922C16.3141 17.6922 16.4735 17.6734 16.6236 17.6359C16.8908 17.5703 17.0033 17.4718 17.0549 17.3968C17.0754 17.3659 17.0882 17.3305 17.0924 17.2936V17.2515C17.0924 17.2515 16.9189 17.2046 16.6751 17.1999C16.5508 17.1975 16.4267 17.2085 16.3047 17.2327C16.0489 17.2849 15.8207 17.4282 15.6624 17.6359C15.6624 17.6359 15.864 17.6922 16.1453 17.6922ZM14.9733 17.2702C15.0233 17.2702 15.0655 17.2515 15.0998 17.2139C15.1275 17.1798 15.1468 17.1397 15.1561 17.0967C15.1688 17.043 15.1736 16.9877 15.1702 16.9326L15.1092 16.9186H15.1045C15.0014 16.9186 14.9217 17.003 14.8889 17.092C14.8701 17.1389 14.867 17.1796 14.8795 17.2139C14.8951 17.2452 14.9264 17.2624 14.9733 17.2655V17.2702ZM15.8547 17.1436C15.8594 17.1436 16.0938 17.0874 16.3329 16.9373C16.5579 16.7967 16.8252 16.5623 16.8627 16.1872C16.9002 15.8121 16.8392 16.1778 16.8064 16.1778H16.797C16.7314 16.1778 16.5954 16.1966 16.4313 16.3185C16.2188 16.481 16.0266 16.7576 15.8547 17.1483V17.1436ZM15.278 17.1249C15.278 17.1249 15.4468 17.0592 15.6531 16.8811C15.9508 16.6297 16.1825 16.3094 16.3282 15.9481C16.3282 15.9481 16.2813 15.9246 16.211 15.92H16.1782C16.0844 15.92 15.9391 15.9622 15.775 16.1403C15.5402 16.4288 15.3707 16.7647 15.278 17.1249ZM16.7783 17.078C16.9658 17.078 17.0314 16.9748 17.0549 16.9326C17.0727 16.8848 17.0791 16.8334 17.0736 16.7826L16.9799 16.7686H16.9705C16.8205 16.7686 16.6986 16.8483 16.647 16.9233C16.6376 16.9373 16.6048 16.9936 16.6329 17.0311C16.6517 17.0624 16.6986 17.078 16.7736 17.078H16.7783ZM17.2002 16.5435C17.3081 16.5435 17.4721 16.5341 17.6456 16.506C17.8191 16.4779 17.9175 16.3278 17.9691 16.2106C18.0039 16.1314 18.0276 16.0478 18.0394 15.9622C17.5097 15.9762 17.2565 16.1309 17.1393 16.2575C17.0666 16.3343 17.0219 16.4335 17.0127 16.5388L17.2002 16.5435ZM16.647 15.9903L16.7689 15.8215C16.8345 15.723 16.8908 15.6199 16.8908 15.5402L16.9189 15.1933L16.9517 14.9588C16.9377 14.9682 16.6189 15.0854 16.6189 15.3855C16.6189 15.6855 16.647 15.9856 16.647 15.9903ZM17.0596 15.9622H17.0736C17.1674 15.9434 17.3315 15.8684 17.5143 15.7652C17.6877 15.6727 17.8458 15.5541 17.9832 15.4136C18.0707 15.3136 18.1207 15.1573 18.1332 14.9448C18.1408 14.8512 18.1408 14.7571 18.1332 14.6635L18.0769 14.6494C18.0144 14.6494 17.9332 14.6838 17.8332 14.7526C17.7394 14.8182 17.6515 14.892 17.5706 14.9729C17.4696 15.074 17.3742 15.1804 17.2846 15.2917C17.185 15.4775 17.0988 15.6702 17.0268 15.8684V15.9387L17.0455 15.9575L17.0596 15.9622Z" fill="#435125"/>
<path d="M21.973 3.84277L21.8792 3.88028L21.8417 3.89435L21.7292 3.88497L21.6214 3.93654L21.4338 4.06781L21.4245 4.0725L21.3541 4.09126L21.2885 4.06313L21.251 4.08188L21.2369 4.15689L21.2041 4.21315L21.1572 4.24597L21.0072 4.26004L20.8806 4.32567L20.7118 4.27879L20.6368 4.31161L20.4727 4.45695L20.3883 4.49914H20.3602L20.2477 4.48977L20.2008 4.50852L20.1305 4.56947L19.9992 4.57884L19.957 4.60698L19.8914 4.73825L19.8211 4.81326L19.7836 4.81795L19.7367 4.80389L19.7038 4.80857L19.6898 4.89296L19.6617 4.93047L19.5679 4.9586L19.5022 5.01955L19.4366 5.04768H19.3335L19.2538 5.09456L19.0944 5.10863L19.0334 5.16958L19.0147 5.18364L18.9865 5.2024L18.9396 5.23053L18.9256 5.2399L18.8646 5.22584L18.7943 5.25397L18.7662 5.20708L18.7193 5.2399H18.6537L18.574 5.20708L18.513 5.17895L18.4661 5.18833L18.4521 5.26334V5.27272L18.4052 5.33367L18.3161 5.38524L18.3067 5.404L18.2083 5.53058L18.0207 5.73218L17.8566 5.81188L17.6925 5.85877L17.5753 5.95253L17.2706 6.10725L16.7924 6.34635L16.6939 6.37917L16.5533 6.39793L16.3048 6.49169L16.0798 6.55733L16.0657 6.56202L16.0235 6.57608L15.7141 6.66985L15.5687 6.65579L15.4796 6.6886L15.2546 6.66047L15.0999 6.66516L15.0061 6.68392L14.8186 6.77768L14.5045 6.92302L14.4013 7.01679L14.2372 7.10587L14.0497 7.16213V7.08243L13.9841 7.10118L13.9372 7.11524L13.7825 7.13869H13.6981L13.6465 7.12462H13.6371L13.323 7.23245L12.9761 7.26527L12.8026 7.32153H12.6713L12.5869 7.34029L12.4275 7.36373L12.3713 7.34497H12.3572L11.8884 7.36373L11.6727 7.34029L11.5696 7.36373L11.4008 7.30278L11.1476 7.27465L11.0913 7.25589L10.9601 7.21839L10.8991 7.25121L10.8522 7.25589L10.7491 7.21839H10.7069L10.6225 7.25121L10.5709 7.23714L10.5241 7.19963L10.4115 7.18557L10.3459 7.12462L9.97083 7.17619L9.86768 7.14806L9.52543 7.04492L9.46917 7.04961L9.40354 7.09649L9.30039 7.13869L9.21131 7.16213H9.08942L8.94877 7.12931L8.80812 7.05898L8.75185 7.04492L8.63465 7.05898H8.59714L8.38148 6.94178L8.10017 6.76831L7.90795 6.67454L7.83294 6.66516L7.82356 6.69798L7.86107 6.8105L7.87513 6.92302L7.87044 7.02148V7.08711L7.88451 7.14337L7.95484 7.21839L7.98296 7.29809L8.00641 7.50907V7.72473L7.9689 8.06698L7.95952 8.11386L7.91733 8.29671L7.88451 8.45611L7.74386 8.89213L7.70166 8.9437L7.6079 9.00934L7.38754 9.15937L7.22814 9.25313L7.18126 9.27189L7.04998 9.28126L6.97028 9.27657L6.86714 9.22031L6.77337 9.19687L6.6421 9.10311L6.49676 9.07498L6.33735 8.98121L6.29985 8.93433L6.21077 8.92495L6.09356 8.88744L6.04668 8.87806L6.01855 8.86869L5.86852 8.864L5.72787 8.79836L5.65285 8.77961L5.54971 8.77492L5.44188 8.8218L5.39031 8.84993L5.31998 8.8218H5.2731L5.21215 8.91088L5.20746 8.92495L5.16995 8.9437H5.08087L5.04337 8.95777L4.98711 8.98121L4.94022 9.00465L4.91678 9.01403H4.89803L4.87459 9.0234H4.84177L4.78551 8.99527L4.75738 8.97652L4.70581 8.96714L4.67768 8.9859V9.07966L4.64955 9.13124L4.56516 9.21094L4.48545 9.28126L4.42919 9.36565L4.28385 9.69853L4.19009 9.83918L4.16196 9.86731L4.06819 9.97514L3.97911 10.0408L3.7822 10.1908L3.59467 10.2611L3.43526 10.2939H3.36025L3.21022 10.2752L3.07895 10.233L2.93361 10.1392L2.76952 10.0126L2.53979 9.78292L2.50697 9.76416H2.50228L2.43196 9.71728H2.3757L2.35694 9.7501L2.34288 9.79698L2.3335 9.84387L2.31006 10.1017V10.1158L2.32412 10.2189L2.50228 10.4674L2.55385 10.5987L2.56323 10.6128L2.60074 10.6737L2.62887 10.7206L2.68982 10.8987L2.64762 11.0019L2.67106 11.0675L2.6148 11.1097L2.60542 11.166L2.76483 11.3676L2.79765 11.452L2.76014 11.5739L2.69919 11.6395L2.68044 11.6583L2.68982 11.7098L2.76483 11.7755L2.88673 11.888L2.95236 12.0521L2.99925 12.0943L3.0602 12.0802L3.09301 12.1083H3.1399L3.18678 12.1552L3.2196 12.1693L3.27117 12.1927L3.30868 12.2443L3.31805 12.399L3.39307 12.5959V12.7178L3.43995 12.7928L3.45402 12.8538L3.43058 13.0179L3.48684 13.0695L3.54778 13.0554L3.58998 13.0648L3.65562 13.1163L3.73532 13.2382L3.81033 13.2289L3.85722 13.2523L4.09163 13.4633L4.14789 13.4914L4.19478 13.5102L4.24166 13.557L4.31199 13.5102H4.32136L4.40106 13.5008L4.43857 13.5242L4.50421 13.5711H4.59797L4.78551 13.6321L4.87459 13.6508L5.04337 13.7586L5.11838 13.8055L5.16058 13.8383L5.21684 13.8852L5.32936 13.9321L5.42312 13.9556L5.47938 13.9696L5.52158 13.9837L5.73256 14.0681L5.84508 14.0915L5.95291 14.1337L6.02792 14.1618H6.08418L6.16388 14.0915H6.24359L6.30922 14.1056L6.37017 14.0962L6.46863 14.0353L6.49207 14.0024L6.56239 13.9696L6.79681 13.9415L6.86714 13.9649L7.04529 13.8852L7.16719 13.918L7.27034 13.8805L7.50475 13.9321L7.5657 13.979L7.63134 14.054H7.71573L7.6876 14.1103L7.78605 14.2181L7.87982 14.3587V14.3728L7.95015 14.565L7.99703 14.6354L8.03454 14.7291V14.7948L7.98296 14.837L7.97359 14.8604V14.8698L7.98296 14.8932L8.00172 14.8838L8.03923 14.8604L8.08611 14.8557L8.1705 14.8651H8.22207L8.31115 14.8276L8.36741 14.7995L8.46118 14.837H8.55963L8.60183 14.8557L8.72372 14.9073L8.78467 14.9167L8.80812 14.8979L8.82218 14.8651L8.8128 14.8276L8.76592 14.7713L8.66747 14.6541L8.62058 14.5932L8.59245 14.5088L8.58307 14.3963L8.5737 14.3212L8.58776 14.2228L8.61589 14.1853L8.63465 14.1056L8.63933 14.0868L8.6956 14.0118L8.84562 13.918L9.00503 13.7774L9.13161 13.6883L9.26289 13.6321V13.618L9.28164 13.6227L9.60982 13.5102H9.6192L9.76454 13.482L10.7632 13.5524L10.8007 13.543L10.8335 13.4492L10.8522 13.4305L10.8616 13.4211L10.9741 13.3742L11.021 13.3648L11.1617 13.4023L11.2226 13.4164L11.3164 13.3648H11.382L11.5227 13.2898H11.6071L11.6352 13.2804L11.7993 13.1585L11.9587 13.1116L12.0056 13.0929L12.0149 13.0835L12.179 12.9991L12.2822 12.9194L12.3713 12.8725L12.465 12.8491L12.7229 12.8303L12.7745 12.746L12.8823 12.7272L12.9526 12.6522L13.0276 12.6241L13.0792 12.5444L13.1261 12.4787L13.1917 12.4412L13.3933 12.4318L13.6371 12.46L13.6699 12.4412L13.7215 12.2443L13.7778 12.2068L13.9325 11.9864V11.8364L13.9606 11.738L13.9419 11.5598L13.9653 11.3816L14.0591 11.1566L14.1435 11.0628L14.2794 10.9738L14.3497 10.9456L14.4435 10.9269H14.4623L14.4857 10.9222L14.8233 10.9175H14.9452L15.0577 10.9128L15.339 10.9597L15.3624 10.9691L15.4562 10.9972L15.5687 11.0863L15.6859 11.1988L15.7094 11.2222L15.7844 11.2504L15.8078 11.2644L15.8735 11.2504L15.9625 11.2035L16.0282 11.1472L16.1219 11.1003V11.0957L16.1735 11.016L16.197 10.9831L16.3751 10.9128L16.5861 10.9034L16.6095 10.8894L16.6236 10.8847L16.6752 10.819H16.7267L16.8533 10.8659L16.9424 10.8472L17.0127 10.8753L17.0643 10.8659L17.1674 10.8565L17.28 10.9316L17.3456 10.9409L17.5706 11.0722H17.5894L17.5988 11.0769L17.6269 11.0722L17.6691 11.0581L17.6785 11.0628L17.7019 11.1003L17.7394 11.105L17.7816 11.0488L17.7629 11.0253L17.7582 11.016L17.6785 10.9972L17.6035 10.8753L17.6738 10.8003L17.566 10.669L17.5472 10.6456L17.5425 10.6362L17.505 10.5799L17.3175 10.2893L17.0643 10.0923L16.9799 10.022L16.9471 9.99858L16.8158 9.86262L16.7221 9.74072L16.708 9.71259L16.6892 9.66571L16.633 9.5485L16.5392 9.4688L16.4548 9.38441V9.37972L16.286 9.15468L16.2579 9.11717L16.2204 9.09373H16.136L16.1266 9.08435V9.07966L16.1641 9.03278L16.211 9.0234L16.2298 8.98121L16.1454 8.73741V8.72804L16.136 8.65302L16.2063 8.29671L16.2157 8.24983L16.3329 8.01541L16.4079 7.95446L16.4829 7.79974L16.5533 7.70129L16.6189 7.63565L16.6283 7.63096L16.7455 7.56064L16.844 7.54657L16.9377 7.53251L17.1018 7.57939H17.2893L17.3597 7.57001L17.4769 7.53251L17.5331 7.49969L17.5613 7.45281L17.6175 7.25589L17.641 7.19026L17.6738 7.12462L17.8895 6.87614L18.0489 6.7308L18.4099 6.46356L18.588 6.36042L18.6771 6.30416L19.4835 5.94784L19.6898 5.73687L19.7976 5.62435L19.9945 5.49776L20.2196 5.404L20.4118 5.24928L20.454 5.19771L20.5102 5.02424L20.5524 5.01486L20.5946 4.92578L20.604 4.90234L20.7634 4.78982L20.7822 4.78044L21.3963 4.4757L21.4901 4.48508L21.537 4.41475L21.7152 4.38662L21.7433 4.37725L21.7902 4.35849L21.8277 4.29286V4.27879L21.8324 4.11001L21.8699 4.06313L21.8933 3.95061L21.9121 3.92248L21.9308 3.89903L21.9824 3.86153L21.973 3.84277Z" fill="#D47600"/>
</g>
<defs>
<clipPath id="clip0_720_53439">
<rect width="24.0044" height="24.0044" fill="white" transform="translate(0.0175781 0.0218201)"/>
</clipPath>
</defs>
</svg>
