<svg width="25" height="25" viewBox="0 0 25 25" fill="none" xmlns="http://www.w3.org/2000/svg">
<g clip-path="url(#clip0_720_53347)">
<mask id="mask0_720_53347" style="mask-type:luminance" maskUnits="userSpaceOnUse" x="0" y="0" width="25" height="25">
<path d="M0.0393066 0.021637H24.0437V24.026H0.0393066V0.021637Z" fill="white"/>
</mask>
<g mask="url(#mask0_720_53347)">
<path fill-rule="evenodd" clip-rule="evenodd" d="M-12.0708 0.021637H36.102V24.026H-12.0708V0.021637Z" fill="#108C00"/>
<path fill-rule="evenodd" clip-rule="evenodd" d="M-12.1506 8.37628H36.2613V10.7251H-12.1506V8.37628Z" fill="#FFD600"/>
<path fill-rule="evenodd" clip-rule="evenodd" d="M8.5249 0.021637H10.7988V24.026H8.52959L8.5249 0.021637Z" fill="#FFD600"/>
<path fill-rule="evenodd" clip-rule="evenodd" d="M10.719 0.021637H12.9882V24.026H10.719V0.021637Z" fill="#000001"/>
<path fill-rule="evenodd" clip-rule="evenodd" d="M-12.1506 10.6454H36.2613V12.999H-12.1506V10.6454Z" fill="#000001"/>
<path fill-rule="evenodd" clip-rule="evenodd" d="M-12.1506 12.999H36.2613V15.3479H-12.1506V12.999Z" fill="white"/>
<path fill-rule="evenodd" clip-rule="evenodd" d="M12.9883 0.021637H15.2621V24.026H12.9883V0.021637Z" fill="white"/>
<path d="M5.7026 12.0426C5.7026 15.6029 8.57619 18.489 12.121 18.489C15.6657 18.489 18.5393 15.6029 18.5393 12.0426C18.5393 8.48226 15.6657 5.59607 12.121 5.59607C8.57619 5.59607 5.7026 8.48226 5.7026 12.0426Z" fill="#E72910"/>
<path fill-rule="evenodd" clip-rule="evenodd" d="M11.7836 6.44469L12.0462 5.69455L12.2853 6.43062C12.2853 6.43062 13.087 6.45406 13.087 6.44C13.087 6.42593 12.4541 6.9229 12.4541 6.9229L12.7401 7.74805C12.7307 7.72461 12.0462 7.23702 12.0462 7.23702C12.0462 7.23702 11.3523 7.72461 11.3664 7.72461C11.3804 7.72461 11.6289 6.92759 11.6289 6.92759L11.0054 6.45406L11.7836 6.44V6.44469Z" fill="black"/>
<path fill-rule="evenodd" clip-rule="evenodd" d="M11.8208 6.4772L12.0411 5.83521L12.2473 6.47251C12.2473 6.47251 12.9455 6.49126 12.9455 6.48188C12.9455 6.47251 12.3972 6.90363 12.3972 6.90363L12.6409 7.61591C12.6315 7.59248 12.0411 7.17542 12.0411 7.17542C12.0411 7.17542 11.4413 7.59717 11.4506 7.59717C11.46 7.59717 11.6849 6.90363 11.6849 6.90363L11.1414 6.49126L11.8162 6.48188L11.8208 6.4772Z" fill="#FFE700"/>
<path fill-rule="evenodd" clip-rule="evenodd" d="M11.9148 6.58515L12.046 6.21027L12.1678 6.58047C12.1678 6.58047 12.5661 6.58984 12.5661 6.58047C12.5661 6.57109 12.2522 6.82414 12.2522 6.82414L12.3928 7.23652C12.3881 7.22246 12.046 6.98347 12.046 6.98347L11.7086 7.22714C11.718 7.22714 11.8398 6.82883 11.8398 6.82883L11.5305 6.59452L11.9148 6.58515Z" fill="#108C00"/>
<path fill-rule="evenodd" clip-rule="evenodd" d="M16.7719 9.95158L17.0345 9.20145L17.2689 9.93752C17.2689 9.93752 18.0753 9.96565 18.0753 9.95158C18.0753 9.93752 17.4424 10.4345 17.4424 10.4345L17.7237 11.2596C17.7143 11.2362 17.0345 10.7486 17.0345 10.7486C17.0345 10.7486 16.3406 11.2362 16.3547 11.2362C16.3687 11.2362 16.6172 10.4392 16.6172 10.4392L15.9937 9.96096L16.7719 9.94689V9.95158Z" fill="black"/>
<path fill-rule="evenodd" clip-rule="evenodd" d="M16.8044 9.98877L17.034 9.3374L17.2402 9.97939C17.2402 9.97939 17.9337 9.99814 17.9337 9.98877C17.9337 9.9794 17.3855 10.4105 17.3855 10.4105L17.6338 11.1181C17.6245 11.0994 17.034 10.6776 17.034 10.6776C17.034 10.6776 16.4342 11.0994 16.4436 11.0994C16.4529 11.0994 16.6732 10.4058 16.6732 10.4058L16.1343 9.99814L16.8044 9.98877Z" fill="#FFE700"/>
<path fill-rule="evenodd" clip-rule="evenodd" d="M16.9031 10.0967L17.0343 9.72186L17.1515 10.0874L17.5545 10.0967L17.2358 10.3357C17.2358 10.3357 17.3858 10.7575 17.3764 10.7481C17.3764 10.7341 17.0343 10.4951 17.0343 10.4951L16.6922 10.7341L16.8234 10.3357L16.5142 10.1014L16.9031 10.0967Z" fill="#108C00"/>
<path fill-rule="evenodd" clip-rule="evenodd" d="M15.3183 15.5214L15.5809 14.7712L15.8153 15.512C15.8153 15.512 16.6217 15.5354 16.6217 15.5261C16.6217 15.5167 15.9887 16.009 15.9887 16.009L16.27 16.8294C16.2607 16.806 15.5809 16.3231 15.5809 16.3231C15.5809 16.3231 14.887 16.806 14.8964 16.806C14.9057 16.806 15.1636 16.009 15.1636 16.009L14.54 15.5401L15.3183 15.5214Z" fill="black"/>
<path fill-rule="evenodd" clip-rule="evenodd" d="M15.3508 15.5585L15.5804 14.9118L15.7866 15.5491C15.7866 15.5491 16.4801 15.5725 16.4801 15.5585C16.4801 15.5444 15.9318 15.9802 15.9318 15.9802L16.1802 16.6925C16.1708 16.6691 15.5804 16.252 15.5804 16.252C15.5804 16.252 14.9806 16.6738 14.9899 16.6738C14.9993 16.6738 15.2196 15.9802 15.2196 15.9802L14.6807 15.5725L15.3508 15.5585Z" fill="#FFE700"/>
<path fill-rule="evenodd" clip-rule="evenodd" d="M15.4492 15.6663L15.5805 15.2914L15.6976 15.6616C15.6976 15.6616 16.1006 15.6757 16.1006 15.6663C16.1006 15.6569 15.782 15.91 15.782 15.91L15.9225 16.3177C15.9225 16.3083 15.5805 16.0646 15.5805 16.0646L15.2384 16.3083L15.3696 15.91L15.0603 15.6757L15.4492 15.6663Z" fill="#108C00"/>
<path fill-rule="evenodd" clip-rule="evenodd" d="M8.34663 15.5214L8.60917 14.7712L8.84359 15.512C8.84359 15.512 9.6453 15.5354 9.6453 15.5261C9.6453 15.5167 9.01237 16.009 9.01237 16.009L9.30305 16.8294C9.28899 16.806 8.60917 16.3231 8.60917 16.3231C8.60917 16.3231 7.9153 16.806 7.92467 16.806C7.93405 16.806 8.19191 16.009 8.19191 16.009L7.56836 15.5401L8.34663 15.5214Z" fill="black"/>
<path fill-rule="evenodd" clip-rule="evenodd" d="M8.38378 15.5585L8.60871 14.9118L8.8149 15.5491C8.8149 15.5491 9.50844 15.5725 9.50844 15.5585C9.50844 15.5444 8.96017 15.9802 8.96017 15.9802L9.20853 16.6925C9.19916 16.6691 8.60871 16.252 8.60871 16.252C8.60871 16.252 8.00889 16.6738 8.01827 16.6738C8.02764 16.6738 8.24788 15.9802 8.24788 15.9802L7.70898 15.5725L8.38378 15.5585Z" fill="#FFE700"/>
<path fill-rule="evenodd" clip-rule="evenodd" d="M8.47781 15.6665L8.60902 15.2916L8.72617 15.6618C8.72617 15.6618 9.12918 15.6759 9.12918 15.6665C9.12918 15.6571 8.81052 15.9102 8.81052 15.9102L8.95111 16.3179C8.95111 16.3085 8.60902 16.0648 8.60902 16.0648L8.26694 16.3085L8.39815 15.9102L8.08887 15.6759L8.47781 15.6665Z" fill="#108C00"/>
<path fill-rule="evenodd" clip-rule="evenodd" d="M7.07172 9.8062L7.33427 9.05606L7.57338 9.79682C7.57338 9.79682 8.37509 9.82026 8.37509 9.8062C8.37509 9.79213 7.74216 10.2938 7.74216 10.2938L8.02815 11.1142C8.01408 11.0908 7.33427 10.6079 7.33427 10.6079C7.33427 10.6079 6.6404 11.0861 6.65446 11.0861C6.66853 11.0861 6.91701 10.2891 6.91701 10.2891L6.29346 9.82026L7.07172 9.8062Z" fill="black"/>
<path fill-rule="evenodd" clip-rule="evenodd" d="M7.10888 9.8434L7.33381 9.19672L7.54468 9.83402C7.54468 9.83402 8.23354 9.85745 8.23354 9.8434C8.23354 9.82934 7.68527 10.2651 7.68527 10.2651L7.93363 10.9774C7.92425 10.954 7.33381 10.5369 7.33381 10.5369C7.33381 10.5369 6.73399 10.9587 6.74805 10.9587C6.76211 10.9587 6.97298 10.2651 6.97298 10.2651L6.43408 9.85745L7.10888 9.8434Z" fill="#FFE700"/>
<path fill-rule="evenodd" clip-rule="evenodd" d="M7.20286 9.95136L7.33407 9.57648L7.45591 9.94668L7.85423 9.95136L7.54026 10.195L7.68084 10.6027C7.67616 10.5934 7.33407 10.3497 7.33407 10.3497L6.99667 10.5934C7.00605 10.5934 7.12788 10.195 7.12788 10.195L6.8186 9.96074L7.20286 9.95136Z" fill="#108C00"/>
<path fill-rule="evenodd" clip-rule="evenodd" d="M15.2577 8.18401L14.9952 8.93414L14.7607 8.19807C14.7607 8.19807 13.9543 8.17463 13.9543 8.18401C13.9543 8.19338 14.5873 7.70111 14.5873 7.70111L14.306 6.88065C14.3153 6.90409 14.9952 7.38699 14.9952 7.38699C14.9952 7.38699 15.689 6.90409 15.675 6.90409C15.6609 6.90409 15.4124 7.70111 15.4124 7.70111L16.036 8.16994L15.2577 8.18401Z" fill="black"/>
<path fill-rule="evenodd" clip-rule="evenodd" d="M15.2241 8.14589C15.2241 8.15994 14.9898 8.79725 14.9898 8.79725L14.7883 8.15994C14.7883 8.15994 14.0947 8.13651 14.0947 8.14589C14.0947 8.15526 14.643 7.72882 14.643 7.72882L14.3946 7.01654C14.404 7.03997 14.9945 7.45703 14.9945 7.45703C14.9945 7.45703 15.5943 7.03529 15.5849 7.03529C15.5755 7.03529 15.3553 7.72882 15.3553 7.72882L15.8942 8.13651L15.2241 8.14589Z" fill="#FFE700"/>
<path fill-rule="evenodd" clip-rule="evenodd" d="M15.126 8.03816L14.9948 8.41304L14.8776 8.04753C14.8776 8.04753 14.4746 8.03347 14.4746 8.04284C14.4746 8.05222 14.7933 7.79917 14.7933 7.79917L14.6527 7.39148C14.6527 7.40085 14.9948 7.64453 14.9948 7.64453L15.3368 7.40085C15.3275 7.40085 15.201 7.79917 15.201 7.79917L15.5149 8.03347L15.126 8.04284V8.03816Z" fill="#108C00"/>
<path fill-rule="evenodd" clip-rule="evenodd" d="M17.2594 13.632L16.9969 14.3821L16.7625 13.6414C16.7625 13.6414 15.9561 13.6179 15.9561 13.632C15.9561 13.6461 16.589 13.1491 16.589 13.1491L16.3077 12.3239C16.3171 12.3474 16.9969 12.8303 16.9969 12.8303C16.9969 12.8303 17.6907 12.3474 17.6767 12.3474C17.6626 12.3474 17.4141 13.1444 17.4141 13.1444L18.0424 13.6179L17.2594 13.632Z" fill="black"/>
<path fill-rule="evenodd" clip-rule="evenodd" d="M17.226 13.5939L16.9964 14.2406L16.7902 13.6033C16.7902 13.6033 16.0967 13.5846 16.0967 13.5939C16.0967 13.6033 16.645 13.1722 16.645 13.1722L16.3966 12.4599C16.406 12.4833 16.9964 12.9004 16.9964 12.9004C16.9964 12.9004 17.5962 12.4786 17.5869 12.4786C17.5775 12.4786 17.3572 13.1722 17.3572 13.1722L17.8961 13.5846L17.226 13.5939Z" fill="#FFE700"/>
<path fill-rule="evenodd" clip-rule="evenodd" d="M17.1277 13.4863L16.9965 13.8612L16.8793 13.491C16.8793 13.491 16.4763 13.4816 16.4763 13.491C16.4763 13.5004 16.795 13.2473 16.795 13.2473L16.6544 12.835C16.6544 12.849 16.9965 13.088 16.9965 13.088L17.3386 12.8443C17.3292 12.8443 17.2027 13.2473 17.2027 13.2473L17.5166 13.4816L17.1277 13.4863Z" fill="#108C00"/>
<path fill-rule="evenodd" clip-rule="evenodd" d="M12.2941 17.617L12.0315 18.3672L11.7971 17.6264C11.7971 17.6264 10.9907 17.603 10.9907 17.6124C10.9907 17.6217 11.6237 17.1295 11.6237 17.1295L11.3423 16.309C11.3517 16.3324 12.0315 16.8153 12.0315 16.8153C12.0315 16.8153 12.7254 16.3324 12.7113 16.3324C12.6973 16.3324 12.4488 17.1295 12.4488 17.1295L13.0724 17.603L12.2941 17.617Z" fill="black"/>
<path fill-rule="evenodd" clip-rule="evenodd" d="M12.2607 17.5743L12.0311 18.2304L11.8249 17.5884C11.8249 17.5884 11.1313 17.565 11.1313 17.579C11.1313 17.5931 11.6796 17.1573 11.6796 17.1573L11.4313 16.445C11.4406 16.4684 12.0311 16.8855 12.0311 16.8855C12.0311 16.8855 12.6309 16.4637 12.6215 16.4637C12.6121 16.4637 12.3919 17.1573 12.3919 17.1573L12.9308 17.565L12.2607 17.579V17.5743Z" fill="#FFE700"/>
<path fill-rule="evenodd" clip-rule="evenodd" d="M12.1626 17.4714L12.0314 17.8463L11.9142 17.4761C11.9142 17.4761 11.5112 17.462 11.5112 17.4714C11.5112 17.4808 11.8299 17.2277 11.8299 17.2277L11.6893 16.82C11.6893 16.8294 12.0314 17.0731 12.0314 17.0731L12.3735 16.8294L12.2423 17.2277L12.5515 17.462L12.1626 17.4714Z" fill="#108C00"/>
<path fill-rule="evenodd" clip-rule="evenodd" d="M7.63422 13.632L7.36699 14.3821L7.13257 13.6414C7.13257 13.6414 6.32617 13.6179 6.32617 13.632C6.32617 13.6461 6.9591 13.1491 6.9591 13.1491L6.6778 12.3239C6.68718 12.3474 7.36699 12.8303 7.36699 12.8303L8.05617 12.3521L7.78894 13.1491L8.41249 13.6226L7.63422 13.6367V13.632Z" fill="black"/>
<path fill-rule="evenodd" clip-rule="evenodd" d="M7.59614 13.5939L7.36652 14.2406L7.16034 13.6033C7.16034 13.6033 6.4668 13.5846 6.4668 13.5939C6.4668 13.6033 7.01507 13.1722 7.01507 13.1722L6.76671 12.4599C6.77608 12.4833 7.36652 12.9004 7.36652 12.9004C7.36652 12.9004 7.96634 12.4786 7.95697 12.4786C7.9476 12.4786 7.72735 13.1722 7.72735 13.1722L8.26625 13.5846L7.59614 13.5939Z" fill="#FFE700"/>
<path fill-rule="evenodd" clip-rule="evenodd" d="M7.4978 13.4863L7.36659 13.8612L7.24944 13.491C7.24944 13.491 6.84644 13.4816 6.84644 13.491C6.84644 13.5004 7.16509 13.2473 7.16509 13.2473L7.02451 12.835C7.02451 12.849 7.36659 13.088 7.36659 13.088L7.70867 12.8443L7.57746 13.2473L7.88674 13.4816L7.4978 13.4863Z" fill="#108C00"/>
<path fill-rule="evenodd" clip-rule="evenodd" d="M9.35463 8.26372L9.09208 9.01386L8.84829 8.27779C8.84829 8.27779 8.05127 8.25434 8.05127 8.26372C8.05127 8.2731 8.6842 7.78082 8.6842 7.78082L8.39821 6.96036C8.40758 6.9838 9.0874 7.4667 9.0874 7.4667C9.0874 7.4667 9.78127 6.9838 9.7719 6.9838C9.76252 6.9838 9.50935 7.78082 9.50935 7.78082L10.1282 8.24965L9.35463 8.26372Z" fill="black"/>
<path fill-rule="evenodd" clip-rule="evenodd" d="M9.3166 8.22569L9.08698 8.88174L8.8808 8.23975C8.8808 8.23975 8.18726 8.21632 8.18726 8.23038C8.18726 8.24443 8.73553 7.80863 8.73553 7.80863L8.48716 7.09634C8.49654 7.11977 9.08698 7.53684 9.08698 7.53684C9.08698 7.53684 9.6868 7.11509 9.67743 7.11509C9.66806 7.11509 9.4525 7.80863 9.4525 7.80863L9.98671 8.21632L9.3166 8.23038V8.22569Z" fill="#FFE700"/>
<path fill-rule="evenodd" clip-rule="evenodd" d="M9.21821 8.12277L9.087 8.49766L8.96985 8.12746C8.96985 8.12746 8.57153 8.1134 8.57153 8.12277C8.57153 8.13214 8.8855 7.87909 8.8855 7.87909L8.74492 7.47141C8.74492 7.48078 9.087 7.72445 9.087 7.72445L9.42909 7.48078L9.29788 7.87909L9.60716 8.1134L9.21821 8.12277Z" fill="#108C00"/>
<path d="M13.1752 15.3219C13.3656 15.3024 13.4649 14.5277 13.3971 13.5915C13.3293 12.6553 13.1201 11.9122 12.9298 11.9317C12.7395 11.9512 12.6401 12.7259 12.7079 13.6621C12.7757 14.5982 12.9849 15.3414 13.1752 15.3219Z" fill="#009200" stroke="black" stroke-width="0.0250892"/>
<path d="M13.5256 15.3174C13.7269 15.2968 13.8338 14.5214 13.7644 13.5853C13.6949 12.6493 13.4754 11.9072 13.2741 11.9278C13.0728 11.9483 12.966 12.7238 13.0354 13.6598C13.1049 14.5958 13.3243 15.3379 13.5256 15.3174Z" fill="#009200" stroke="black" stroke-width="0.0258024"/>
<path d="M13.3715 15.5894C13.5327 15.5727 13.6038 14.7205 13.5305 13.6859C13.4571 12.6513 13.267 11.8261 13.1058 11.8427C12.9446 11.8593 12.8734 12.7116 12.9468 13.7462C13.0201 14.7808 13.2103 15.606 13.3715 15.5894Z" fill="#009200" stroke="black" stroke-width="0.0242718"/>
<path fill-rule="evenodd" clip-rule="evenodd" d="M10.5388 14.5199C10.8334 14.5066 10.7059 14.3487 10.8546 14.2646C11.0034 14.1805 11.2144 14.2357 11.2782 14.3406C11.342 14.4455 11.29 14.5487 11.3724 14.5499C11.4548 14.5511 13.6756 14.4521 13.7555 14.5396C13.8353 14.627 13.8487 14.8009 13.766 14.8683C13.6833 14.9357 10.8738 14.975 10.7769 14.9039C10.6801 14.8339 10.5385 14.5365 10.5388 14.5199Z" fill="#A95600" stroke="black" stroke-width="0.0252502"/>
<path fill-rule="evenodd" clip-rule="evenodd" d="M12.1129 14.7436C12.107 14.9669 12.4365 14.9032 12.4402 15.0898C12.43 15.2874 11.8886 15.1019 11.8844 14.7405C11.9075 14.3789 12.4375 14.2007 12.4444 14.4074C12.4485 14.5784 12.118 14.5203 12.1121 14.7436L12.1129 14.7436Z" fill="#FFFF00" stroke="black" stroke-width="0.0247183"/>
<path fill-rule="evenodd" clip-rule="evenodd" d="M12.3072 14.7485C12.3014 14.9718 12.6308 14.9081 12.6345 15.0947C12.6244 15.2923 12.0829 15.1068 12.0787 14.7454C12.1018 14.3838 12.6319 14.2055 12.6387 14.4123C12.6429 14.5832 12.3123 14.5252 12.3065 14.7485L12.3072 14.7485Z" fill="#FFFF00" stroke="black" stroke-width="0.0247183"/>
<path fill-rule="evenodd" clip-rule="evenodd" d="M12.5162 14.7387C12.5104 14.9621 12.8398 14.8984 12.8435 15.085C12.8333 15.2825 12.2919 15.0971 12.2877 14.7357C12.3108 14.3741 12.8409 14.1958 12.8477 14.4025C12.8518 14.5735 12.5213 14.5154 12.5155 14.7387L12.5162 14.7387Z" fill="#FFFF00" stroke="black" stroke-width="0.0247183"/>
<path fill-rule="evenodd" clip-rule="evenodd" d="M12.7103 14.7387C12.7044 14.9621 13.0339 14.8984 13.0376 15.085C13.0274 15.2825 12.486 15.0971 12.4818 14.7357C12.5049 14.3741 13.0349 14.1958 13.0418 14.4025C13.0459 14.5735 12.7154 14.5154 12.7096 14.7387L12.7103 14.7387Z" fill="#FFFF00" stroke="black" stroke-width="0.0247183"/>
<path d="M13.6471 14.8824C13.7499 14.8839 13.835 14.7998 13.8372 14.6946C13.8393 14.5894 13.7578 14.5029 13.6551 14.5014C13.5523 14.4999 13.4672 14.584 13.465 14.6892C13.4628 14.7944 13.5444 14.8809 13.6471 14.8824Z" fill="#A95600" stroke="black" stroke-width="0.0218434"/>
<path d="M12.5608 14.4263C12.6524 14.4125 12.709 14.2373 12.6871 14.0349C12.6653 13.8325 12.5733 13.6797 12.4816 13.6935C12.39 13.7073 12.3334 13.8825 12.3552 14.0849C12.3771 14.2872 12.4691 14.4401 12.5608 14.4263Z" fill="#009200" stroke="black" stroke-width="0.0277834"/>
<path d="M12.2751 14.4016C12.3668 14.3878 12.4234 14.2126 12.4015 14.0102C12.3796 13.8079 12.2876 13.655 12.196 13.6688C12.1043 13.6826 12.0477 13.8578 12.0696 14.0602C12.0915 14.2626 12.1835 14.4154 12.2751 14.4016Z" fill="#009200" stroke="black" stroke-width="0.0277834"/>
<path d="M12.072 14.0366C12.1637 14.0228 12.2202 13.8476 12.1984 13.6452C12.1765 13.4428 12.0845 13.2899 11.9929 13.3037C11.9012 13.3175 11.8446 13.4928 11.8665 13.6951C11.8883 13.8975 11.9803 14.0504 12.072 14.0366Z" fill="#009200" stroke="black" stroke-width="0.0277834"/>
<path d="M12.3734 14.055C12.4616 14.0405 12.5136 13.8474 12.4896 13.6238C12.4656 13.4002 12.3746 13.2308 12.2864 13.2454C12.1982 13.2599 12.1462 13.453 12.1702 13.6766C12.1942 13.9002 12.2852 14.0696 12.3734 14.055Z" fill="#009200" stroke="black" stroke-width="0.0286811"/>
<path d="M12.769 14.0547C12.8573 14.0412 12.9106 13.8605 12.8881 13.6511C12.8655 13.4416 12.7756 13.2827 12.6873 13.2962C12.5989 13.3096 12.5456 13.4903 12.5682 13.6998C12.5908 13.9092 12.6807 14.0681 12.769 14.0547Z" fill="#009200" stroke="black" stroke-width="0.0277501"/>
<path d="M12.5503 13.9206C12.6386 13.9072 12.6919 13.7265 12.6693 13.517C12.6467 13.3076 12.5568 13.1487 12.4685 13.1622C12.3802 13.1756 12.3269 13.3563 12.3495 13.5658C12.372 13.7752 12.4619 13.9341 12.5503 13.9206Z" fill="#009200" stroke="black" stroke-width="0.0277501"/>
<path d="M12.2768 13.7287C12.3651 13.7152 12.4184 13.5345 12.3959 13.3251C12.3733 13.1157 12.2834 12.9568 12.1951 12.9702C12.1068 12.9837 12.0535 13.1644 12.076 13.3738C12.0986 13.5833 12.1885 13.7422 12.2768 13.7287Z" fill="#009200" stroke="black" stroke-width="0.0277501"/>
<path d="M12.0215 13.6179C12.1098 13.6045 12.1631 13.4238 12.1405 13.2143C12.1179 13.0049 12.028 12.846 11.9397 12.8595C11.8514 12.8729 11.7981 13.0536 11.8207 13.2631C11.8432 13.4725 11.9331 13.6314 12.0215 13.6179Z" fill="#009200" stroke="black" stroke-width="0.0277501"/>
<path fill-rule="evenodd" clip-rule="evenodd" d="M11.7047 10.071C11.7047 10.071 11.1441 10.5605 11.2173 11.8837C11.2997 13.2149 12.4805 13.8399 12.4805 13.8399C12.4805 13.8399 12.7775 13.4612 12.7341 12.3928C12.6379 10.8278 12.0778 10.1385 12.0778 10.1385L11.7055 10.0712L11.7047 10.071Z" fill="#804BFF" stroke="black" stroke-width="0.022118"/>
<path d="M12.9561 14.48C13.0488 14.4828 13.1358 14.3205 13.1505 14.1175C13.1651 13.9145 13.1019 13.7476 13.0093 13.7448C12.9167 13.742 12.8297 13.9043 12.815 14.1073C12.8003 14.3103 12.8635 14.4772 12.9561 14.48Z" fill="#009200" stroke="black" stroke-width="0.0277834"/>
<path d="M12.6795 14.4046C12.7722 14.4074 12.8592 14.2451 12.8738 14.0421C12.8885 13.8391 12.8253 13.6722 12.7327 13.6694C12.64 13.6666 12.553 13.8289 12.5384 14.0319C12.5237 14.2349 12.5869 14.4018 12.6795 14.4046Z" fill="#009200" stroke="black" stroke-width="0.0277834"/>
<path d="M12.545 14.0091C12.6376 14.0119 12.7246 13.8496 12.7393 13.6466C12.754 13.4436 12.6908 13.2767 12.5982 13.2739C12.5055 13.2711 12.4185 13.4334 12.4038 13.6364C12.3892 13.8394 12.4524 14.0063 12.545 14.0091Z" fill="#009200" stroke="black" stroke-width="0.0277834"/>
<path d="M12.8382 14.0812C12.9276 14.0826 13.0134 13.902 13.0297 13.6777C13.0461 13.4534 12.9869 13.2704 12.8975 13.269C12.8081 13.2676 12.7223 13.4482 12.706 13.6725C12.6896 13.8968 12.7488 14.0797 12.8382 14.0812Z" fill="#009200" stroke="black" stroke-width="0.0286811"/>
<path d="M13.2276 14.1513C13.3169 14.1538 13.4017 13.9856 13.4169 13.7755C13.4321 13.5654 13.3721 13.393 13.2828 13.3904C13.1935 13.3879 13.1087 13.5561 13.0935 13.7662C13.0783 13.9763 13.1383 14.1487 13.2276 14.1513Z" fill="#009200" stroke="black" stroke-width="0.0277501"/>
<path d="M13.0364 13.9804C13.1258 13.983 13.2105 13.8147 13.2257 13.6046C13.241 13.3945 13.1809 13.2221 13.0916 13.2196C13.0023 13.217 12.9176 13.3853 12.9023 13.5954C12.8871 13.8055 12.9471 13.9779 13.0364 13.9804Z" fill="#009200" stroke="black" stroke-width="0.0277501"/>
<path d="M12.8016 13.7428C12.8909 13.7454 12.9756 13.5771 12.9909 13.367C13.0061 13.1569 12.9461 12.9845 12.8568 12.982C12.7675 12.9794 12.6827 13.1477 12.6675 13.3578C12.6522 13.5679 12.7123 13.7403 12.8016 13.7428Z" fill="#009200" stroke="black" stroke-width="0.0277501"/>
<path d="M12.5701 13.5882C12.6594 13.5908 12.7442 13.4225 12.7594 13.2124C12.7747 13.0023 12.7146 12.8299 12.6253 12.8273C12.536 12.8248 12.4513 12.993 12.436 13.2032C12.4208 13.4133 12.4808 13.5856 12.5701 13.5882Z" fill="#009200" stroke="black" stroke-width="0.0277501"/>
<path d="M13.4676 13.7067C13.7131 13.6129 13.6526 12.9366 13.3324 12.1962C13.0122 11.4557 12.5536 10.9316 12.3081 11.0254C12.0626 11.1192 12.1231 11.7955 12.4433 12.536C12.7635 13.2764 13.2221 13.8006 13.4676 13.7067Z" fill="#C90000" stroke="black" stroke-width="0.0106614"/>
<path d="M12.5307 11.1682C12.6451 11.1702 12.7393 11.0897 12.741 10.9884C12.7428 10.887 12.6515 10.8033 12.5372 10.8013C12.4228 10.7993 12.3286 10.8798 12.3269 10.9811C12.3251 11.0825 12.4164 11.1662 12.5307 11.1682Z" fill="#009200" stroke="black" stroke-width="0.0247858"/>
<path d="M12.6938 10.9037C12.7963 10.9055 12.8808 10.8248 12.8826 10.7235C12.8844 10.6221 12.8027 10.5385 12.7002 10.5367C12.5977 10.535 12.5132 10.6156 12.5114 10.717C12.5097 10.8183 12.5913 10.9019 12.6938 10.9037Z" fill="#009200" stroke="black" stroke-width="0.0250285"/>
<path d="M12.4411 10.8995C12.5436 10.9013 12.6282 10.8206 12.6299 10.7192C12.6317 10.6179 12.55 10.5343 12.4475 10.5325C12.345 10.5307 12.2605 10.6114 12.2588 10.7128C12.257 10.8141 12.3386 10.8977 12.4411 10.8995Z" fill="#009200" stroke="black" stroke-width="0.0250285"/>
<path d="M12.4926 10.6986C12.5998 10.7004 12.688 10.6249 12.6896 10.5298C12.6913 10.4347 12.6058 10.3561 12.4987 10.3542C12.3915 10.3523 12.3033 10.4279 12.3017 10.523C12.3 10.6181 12.3855 10.6967 12.4926 10.6986Z" fill="#009200" stroke="black" stroke-width="0.0247895"/>
<path d="M12.4721 10.4796C12.5793 10.4815 12.6674 10.4059 12.6691 10.3108C12.6708 10.2157 12.5853 10.1371 12.4781 10.1352C12.371 10.1334 12.2828 10.2089 12.2812 10.304C12.2795 10.3991 12.365 10.4777 12.4721 10.4796Z" fill="#009200" stroke="black" stroke-width="0.0247895"/>
<path d="M12.2007 10.7593C12.3032 10.7611 12.3877 10.6804 12.3894 10.579C12.3912 10.4777 12.3096 10.3941 12.2071 10.3923C12.1046 10.3905 12.0201 10.4712 12.0183 10.5726C12.0165 10.6739 12.0982 10.7575 12.2007 10.7593Z" fill="#009200" stroke="black" stroke-width="0.0250285"/>
<path d="M12.2535 10.5164C12.356 10.5182 12.4405 10.4392 12.4422 10.3399C12.444 10.2407 12.3623 10.1588 12.2598 10.157C12.1573 10.1552 12.0728 10.2342 12.0711 10.3335C12.0693 10.4327 12.151 10.5146 12.2535 10.5164Z" fill="#009200" stroke="black" stroke-width="0.0247709"/>
<path d="M11.9492 10.5266C12.0636 10.5286 12.1577 10.448 12.1595 10.3467C12.1612 10.2454 12.07 10.1616 11.9556 10.1596C11.8412 10.1576 11.7471 10.2381 11.7453 10.3395C11.7436 10.4408 11.8348 10.5246 11.9492 10.5266Z" fill="#009200" stroke="black" stroke-width="0.0247858"/>
<path d="M12.3313 10.21C12.4384 10.2118 12.5266 10.1363 12.5282 10.0412C12.5299 9.94605 12.4444 9.86744 12.3373 9.86557C12.2302 9.8637 12.142 9.93928 12.1403 10.0344C12.1386 10.1295 12.2241 10.2081 12.3313 10.21Z" fill="#009200" stroke="black" stroke-width="0.0247895"/>
<path d="M12.0736 10.251C12.1761 10.2528 12.2606 10.1737 12.2623 10.0745C12.264 9.97524 12.1824 9.89333 12.0799 9.89154C11.9774 9.88976 11.8929 9.96876 11.8912 10.068C11.8894 10.1673 11.9711 10.2492 12.0736 10.251Z" fill="#009200" stroke="black" stroke-width="0.0247709"/>
<path d="M11.675 10.5363C11.7775 10.5381 11.862 10.4574 11.8638 10.3561C11.8656 10.2548 11.7839 10.1712 11.6814 10.1694C11.5789 10.1676 11.4944 10.2483 11.4926 10.3496C11.4909 10.451 11.5725 10.5346 11.675 10.5363Z" fill="#009200" stroke="black" stroke-width="0.0250285"/>
<path d="M11.7406 10.3957C11.8431 10.3975 11.9276 10.3185 11.9293 10.2193C11.931 10.12 11.8494 10.0381 11.7469 10.0363C11.6444 10.0345 11.5599 10.1135 11.5581 10.2128C11.5564 10.312 11.6381 10.394 11.7406 10.3957Z" fill="#009200" stroke="black" stroke-width="0.0247709"/>
<path d="M11.8209 10.2465C11.9234 10.2483 12.0079 10.1693 12.0096 10.0701C12.0114 9.97082 11.9297 9.88891 11.8272 9.88712C11.7247 9.88533 11.6402 9.96434 11.6385 10.0636C11.6367 10.1628 11.7184 10.2448 11.8209 10.2465Z" fill="#009200" stroke="black" stroke-width="0.0247709"/>
<path d="M13.7076 13.7076C14.023 13.5957 13.971 12.7903 13.5913 11.9085C13.2117 11.0268 12.6482 10.4026 12.3328 10.5145C12.0174 10.6263 12.0695 11.4318 12.4491 12.3135C12.8288 13.1953 13.3922 13.8194 13.7076 13.7076Z" fill="#009200" stroke="black" stroke-width="0.0217993"/>
<path d="M13.6656 12.7245C13.7239 12.6966 13.7046 12.5253 13.6224 12.3417C13.5401 12.1581 13.4262 12.0319 13.3678 12.0597C13.3095 12.0876 13.3289 12.2589 13.4111 12.4425C13.4933 12.6261 13.6072 12.7523 13.6656 12.7245Z" fill="#009200" stroke="black" stroke-width="0.0221676"/>
<path fill-rule="evenodd" clip-rule="evenodd" d="M13.4613 12.3908C13.9553 12.9902 13.8915 13.372 13.8391 13.6943C13.6837 13.3225 13.6016 13.0886 13.1076 12.4891C12.6136 11.8897 12.8604 11.4685 12.8942 11.2458C12.9684 11.4385 12.9673 11.7913 13.4613 12.3908Z" fill="#009200" stroke="black" stroke-width="0.0227074"/>
<path fill-rule="evenodd" clip-rule="evenodd" d="M13.506 12.875C14 13.4745 13.9362 13.8563 13.8838 14.1786C13.7283 13.8068 13.6463 13.5729 13.1523 12.9734C12.6583 12.3739 12.905 11.9528 12.9389 11.7301C13.0131 11.9228 13.012 12.2756 13.506 12.875Z" fill="#009200" stroke="black" stroke-width="0.0227074"/>
<path fill-rule="evenodd" clip-rule="evenodd" d="M13.5241 13.2654C14.0305 13.8541 13.9746 14.2371 13.9289 14.5605C13.7657 14.1921 13.6789 13.96 13.1725 13.3713C12.6661 12.7825 12.9041 12.3562 12.9334 12.1329C13.0115 12.3239 13.0177 12.6766 13.5241 13.2654Z" fill="#009200" stroke="black" stroke-width="0.0227069"/>
<path d="M13.4382 12.4195C13.5539 12.3899 13.53 12.1008 13.385 11.7737C13.2401 11.4466 13.0288 11.2055 12.9132 11.2351C12.7976 11.2647 12.8214 11.5539 12.9664 11.881C13.1114 12.208 13.3226 12.4491 13.4382 12.4195Z" fill="#009200" stroke="black" stroke-width="0.0225061"/>
<path d="M13.1835 12.6549C13.2875 12.6368 13.2805 12.4026 13.1679 12.1317C13.0552 11.8608 12.8796 11.6559 12.7755 11.674C12.6715 11.6921 12.6785 11.9263 12.7911 12.1971C12.9038 12.468 13.0794 12.6729 13.1835 12.6549Z" fill="#009200" stroke="black" stroke-width="0.0219127"/>
<path d="M12.9355 12.8803C13.0398 12.8644 13.0377 12.6302 12.9307 12.3572C12.8237 12.0841 12.6524 11.8757 12.5481 11.8916C12.4437 11.9075 12.4459 12.1417 12.5528 12.4148C12.6598 12.6878 12.8311 12.8962 12.9355 12.8803Z" fill="#009200" stroke="black" stroke-width="0.0219042"/>
<path d="M13.1161 11.9344C13.2002 11.9189 13.1897 11.7427 13.0928 11.5408C12.9958 11.339 12.8491 11.188 12.765 11.2035C12.6809 11.2191 12.6914 11.3953 12.7884 11.5971C12.8853 11.7989 13.0321 11.95 13.1161 11.9344Z" fill="#009200" stroke="black" stroke-width="0.0226095"/>
<path d="M12.8872 12.0973C12.9721 12.0863 12.973 11.9098 12.8891 11.7029C12.8052 11.4961 12.6684 11.3373 12.5835 11.3482C12.4985 11.3591 12.4977 11.5357 12.5816 11.7426C12.6654 11.9494 12.8023 12.1082 12.8872 12.0973Z" fill="#009200" stroke="black" stroke-width="0.022594"/>
<path fill-rule="evenodd" clip-rule="evenodd" d="M12.5803 11.4853C12.7259 11.8408 12.7848 12.1608 12.7112 12.1996C12.6377 12.2385 12.4601 11.9811 12.3145 11.6255" fill="#009200"/>
<path d="M12.5803 11.4853C12.7259 11.8408 12.7848 12.1608 12.7112 12.1996C12.6377 12.2385 12.4601 11.9811 12.3145 11.6255" stroke="black" stroke-width="0.0223534"/>
<path d="M12.8643 11.6789C12.9492 11.668 12.95 11.4914 12.8662 11.2846C12.7823 11.0777 12.6454 10.9189 12.5605 10.9299C12.4756 10.9408 12.4747 11.1174 12.5586 11.3242C12.6425 11.5311 12.7793 11.6899 12.8643 11.6789Z" fill="#009200" stroke="black" stroke-width="0.022594"/>
<path d="M12.6202 11.7965C12.7054 11.7872 12.7102 11.6108 12.6308 11.4024C12.5514 11.194 12.418 11.0326 12.3328 11.0419C12.2476 11.0512 12.2428 11.2277 12.3222 11.436C12.4016 11.6444 12.535 11.8058 12.6202 11.7965Z" fill="#009200" stroke="black" stroke-width="0.0225962"/>
<path fill-rule="evenodd" clip-rule="evenodd" d="M12.3336 11.008C12.4755 11.2485 12.552 11.4732 12.5041 11.5098C12.4561 11.5463 12.3021 11.3806 12.1602 11.1401" fill="#009200"/>
<path d="M12.3336 11.008C12.4755 11.2485 12.552 11.4732 12.5041 11.5098C12.4561 11.5463 12.3021 11.3806 12.1602 11.1401" stroke="black" stroke-width="0.0224114"/>
<path fill-rule="evenodd" clip-rule="evenodd" d="M12.4317 10.8479C12.5737 11.0884 12.6502 11.3132 12.6022 11.3497C12.5542 11.3862 12.4003 11.2205 12.2583 10.98" fill="#009200"/>
<path d="M12.4317 10.8479C12.5737 11.0884 12.6502 11.3132 12.6022 11.3497C12.5542 11.3862 12.4003 11.2205 12.2583 10.98" stroke="black" stroke-width="0.0224114"/>
<path fill-rule="evenodd" clip-rule="evenodd" d="M12.8681 10.8771C13.0655 11.2053 13.1717 11.512 13.1047 11.562C13.0378 11.612 12.8236 11.3859 12.6262 11.0577" fill="#009200"/>
<path d="M12.8681 10.8771C13.0655 11.2053 13.1717 11.512 13.1047 11.562C13.0378 11.612 12.8236 11.3859 12.6262 11.0577" stroke="black" stroke-width="0.0223648"/>
<path fill-rule="evenodd" clip-rule="evenodd" d="M12.5816 10.6996C12.7241 10.9646 12.8011 11.212 12.7532 11.2521C12.7053 11.2922 12.5509 11.1096 12.4084 10.8446" fill="#009200"/>
<path d="M12.5816 10.6996C12.7241 10.9646 12.8011 11.212 12.7532 11.2521C12.7053 11.2922 12.5509 11.1096 12.4084 10.8446" stroke="black" stroke-width="0.02204"/>
<path fill-rule="evenodd" clip-rule="evenodd" d="M12.5627 10.3314C12.4678 10.4277 12.5608 10.6068 12.6476 10.6709C12.7446 10.7594 13.2922 11.336 13.6775 10.8482C13.3684 10.8431 12.7909 10.1176 12.5627 10.3314Z" fill="#804BFF" stroke="black" stroke-width="0.0227628"/>
<path fill-rule="evenodd" clip-rule="evenodd" d="M12.4946 10.0447C12.3996 10.141 12.4927 10.3201 12.5795 10.3841C12.6765 10.4726 13.2241 11.0492 13.6094 10.5615C13.3003 10.5563 12.7227 9.83079 12.4946 10.0447Z" fill="#804BFF" stroke="black" stroke-width="0.0227628"/>
<path fill-rule="evenodd" clip-rule="evenodd" d="M12.4069 9.77274C12.312 9.86906 12.4051 10.0481 12.4919 10.1122C12.5888 10.2007 13.1364 10.7773 13.5218 10.2896C13.2126 10.2844 12.6351 9.55888 12.4069 9.77274Z" fill="#804BFF" stroke="black" stroke-width="0.0227628"/>
<path fill-rule="evenodd" clip-rule="evenodd" d="M12.2177 9.46201C12.1228 9.55833 12.2159 9.73742 12.3026 9.80144C12.3996 9.88996 12.9472 10.4666 13.3326 9.97883C13.0234 9.97371 12.4459 9.24815 12.2177 9.46201Z" fill="#804BFF" stroke="black" stroke-width="0.0227628"/>
<path fill-rule="evenodd" clip-rule="evenodd" d="M11.537 9.14788C11.7334 9.00429 12.095 8.96204 12.3759 9.10562C12.6105 9.22062 12.9993 9.68576 13.2925 9.79615C13.2147 9.81318 13.1336 9.81673 13.0539 9.80661C12.9743 9.79648 12.8976 9.77287 12.8285 9.73716C12.567 9.924 12.4744 9.95094 12.2074 9.98784C11.8383 10.0387 11.5315 9.94254 11.4255 9.75142C11.3147 9.57119 11.3628 9.28216 11.537 9.14788Z" fill="#804BFF" stroke="black" stroke-width="0.0242157"/>
<path d="M11.9379 9.52526C12.0312 9.52689 12.1076 9.48452 12.1085 9.43064C12.1094 9.37676 12.0346 9.33175 11.9413 9.33013C11.8481 9.3285 11.7717 9.37086 11.7708 9.42475C11.7698 9.47863 11.8447 9.52363 11.9379 9.52526Z" fill="#FF0000" stroke="black" stroke-width="0.0220017"/>
<path d="M11.4926 9.97242C11.6146 9.92707 11.6911 9.83011 11.6634 9.75586C11.6357 9.68161 11.5143 9.65819 11.3923 9.70355C11.2703 9.74891 11.1938 9.84586 11.2215 9.92011C11.2492 9.99436 11.3706 10.0178 11.4926 9.97242Z" fill="#FFFF00" stroke="black" stroke-width="0.023897"/>
<path d="M11.9334 9.47867C11.9665 9.47925 11.9938 9.45651 11.9943 9.42789C11.9948 9.39926 11.9683 9.37559 11.9352 9.37501C11.9021 9.37443 11.8748 9.39717 11.8743 9.42579C11.8738 9.45442 11.9003 9.47809 11.9334 9.47867Z" fill="black"/>
<path fill-rule="evenodd" clip-rule="evenodd" d="M11.5731 9.54482C11.5889 9.61938 11.5339 9.7216 11.4139 9.75913C11.2913 9.81147 11.1989 9.92789 11.146 10.1176C10.9577 9.68843 11.0755 9.50435 11.2729 9.45827C11.443 9.40181 11.5455 9.40772 11.5731 9.54482Z" fill="#FFFF00" stroke="black" stroke-width="0.0283571"/>
<path d="M11.3965 9.616C11.42 9.61478 11.4379 9.59445 11.4366 9.5706C11.4352 9.54675 11.4151 9.5284 11.3916 9.52962C11.3682 9.53084 11.3502 9.55117 11.3515 9.57502C11.3529 9.59888 11.373 9.61722 11.3965 9.616Z" fill="black"/>
</g>
</g>
<defs>
<clipPath id="clip0_720_53347">
<rect width="24.0044" height="24.0044" fill="white" transform="translate(0.0393066 0.0218201)"/>
</clipPath>
</defs>
</svg>
