<svg width="24" height="25" viewBox="0 0 24 25" fill="none" xmlns="http://www.w3.org/2000/svg">
<g clip-path="url(#clip0_720_53475)">
<path fill-rule="evenodd" clip-rule="evenodd" d="M0.00537109 0.0261841H24.0097V24.0306H0.00537109V0.0261841Z" fill="#FFE800"/>
<path fill-rule="evenodd" clip-rule="evenodd" d="M0.00537109 12.0284H24.0097V24.0306H0.00537109V12.0284Z" fill="#00148E"/>
<path fill-rule="evenodd" clip-rule="evenodd" d="M0.00537109 18.0295H24.0097V24.0306H0.00537109V18.0295Z" fill="#DA0010"/>
<path fill-rule="evenodd" clip-rule="evenodd" d="M10.014 11.4751L7.44947 14.1803L7.40259 14.1241L9.96712 11.4142L10.014 11.4751ZM11.7956 11.9158L8.4434 15.4509L8.38714 15.3946L11.7393 11.8596L11.8003 11.9158H11.7956Z" fill="black"/>
<path fill-rule="evenodd" clip-rule="evenodd" d="M8.49438 15.4543L8.21621 15.7366L7.8949 15.9775L8.12995 15.6537L8.40812 15.3713L8.49438 15.4543Z" fill="#808080" stroke="black" stroke-width="0.0159516"/>
<path fill-rule="evenodd" clip-rule="evenodd" d="M7.63184 14.0712L7.35366 14.3536L7.03236 14.5944L7.2674 14.2706L7.54557 13.9883L7.63184 14.0712Z" fill="#808080" stroke="black" stroke-width="0.0159516"/>
<path fill-rule="evenodd" clip-rule="evenodd" d="M7.83946 5.28094C7.83946 5.28094 7.55731 12.9505 8.68589 12.9505C9.81447 12.9505 10.3804 12.1439 10.3804 12.1439L10.3676 7.92861L7.83946 5.28094Z" fill="#FFDF00" stroke="black" stroke-width="0.0254107"/>
<path fill-rule="evenodd" clip-rule="evenodd" d="M8.52957 5.9964C8.52957 6.3997 8.40364 12.1439 8.96793 12.1439C9.53222 12.1439 10.3803 11.7406 10.3803 11.7406L10.3675 7.9286L8.52957 5.9964Z" fill="#0000C4" stroke="black" stroke-width="0.0254107"/>
<path fill-rule="evenodd" clip-rule="evenodd" d="M8.89624 6.38376C8.89624 6.78706 8.96797 11.3373 9.53386 11.3373H10.3803L10.3675 7.92861L8.89624 6.38376Z" fill="#E10000" stroke="black" stroke-width="0.0254107"/>
<path fill-rule="evenodd" clip-rule="evenodd" d="M7.77349 5.28652L10.3333 7.99169L10.3802 7.93543L7.81568 5.23026L7.7688 5.28652H7.77349Z" fill="black"/>
<path fill-rule="evenodd" clip-rule="evenodd" d="M7.02919 6.77048C7.02919 6.77048 6.29894 14.1086 8.48971 14.1086C10.3154 14.1086 10.3154 12.951 10.6805 12.951L10.3154 10.2477L7.02919 6.77048Z" fill="#FFDF00" stroke="black" stroke-width="0.0282756"/>
<path d="M8.64462 8.07227C8.65957 8.07124 9.19659 6.87844 10.5239 6.1328" stroke="black" stroke-width="0.0300812"/>
<path fill-rule="evenodd" clip-rule="evenodd" d="M8.56436 6.90949C8.75096 6.99854 8.86853 7.10124 8.97528 7.22106C8.76112 7.17556 8.65058 7.15723 8.46398 7.06817C8.27738 6.97912 8.13558 6.84257 8.02293 6.73209C8.16208 6.77522 8.37673 6.81993 8.56436 6.90949Z" fill="#005B00" stroke="black" stroke-width="0.0136787"/>
<path fill-rule="evenodd" clip-rule="evenodd" d="M9.14069 7.59958C9.15319 7.62421 9.13954 7.6586 9.10951 7.67526C9.07948 7.69192 9.0449 7.68507 9.03209 7.65983C9.01928 7.6346 9.03355 7.60143 9.06358 7.58477C9.09361 7.56812 9.1282 7.57496 9.14069 7.59958Z" fill="#FF0000" stroke="black" stroke-width="0.00951974"/>
<path fill-rule="evenodd" clip-rule="evenodd" d="M9.59678 6.13258C9.51535 6.34462 9.4255 6.48455 9.32194 6.6152C9.36846 6.37954 9.38821 6.25859 9.46964 6.04654C9.55106 5.8345 9.66992 5.66402 9.766 5.52831C9.72456 5.68328 9.67865 5.91936 9.59678 6.13258Z" fill="#005B00" stroke="black" stroke-width="0.0129635"/>
<path fill-rule="evenodd" clip-rule="evenodd" d="M9.45114 6.13183C9.43163 6.33963 9.38852 6.50073 9.3318 6.6642C9.31667 6.46243 9.30544 6.36162 9.32495 6.15382C9.34446 5.94601 9.40485 5.74351 9.45414 5.58133C9.45501 5.72122 9.47076 5.92288 9.45114 6.13183Z" fill="#005B00" stroke="black" stroke-width="0.0113509"/>
<path fill-rule="evenodd" clip-rule="evenodd" d="M9.6142 6.40694C9.50394 6.53078 9.41074 6.58287 9.3126 6.61537C9.41026 6.44168 9.45805 6.34914 9.56831 6.22531C9.67858 6.10148 9.79744 6.04571 9.89288 6.00252C9.82252 6.10784 9.72507 6.28242 9.6142 6.40694Z" fill="#005B00" stroke="black" stroke-width="0.0122353"/>
<path fill-rule="evenodd" clip-rule="evenodd" d="M8.73865 6.7769C8.85739 6.92788 8.91299 7.07149 8.9525 7.22955C8.79282 7.11531 8.70826 7.06171 8.58952 6.91073C8.47077 6.75976 8.40895 6.57335 8.36067 6.42317C8.45883 6.51151 8.61924 6.62509 8.73865 6.7769Z" fill="#005B00" stroke="black" stroke-width="0.0136195"/>
<path fill-rule="evenodd" clip-rule="evenodd" d="M8.32866 7.66144C8.48982 7.79122 8.57555 7.92537 8.64438 8.07705C8.44019 7.99189 8.33304 7.95373 8.17188 7.82396C8.01073 7.69419 7.91163 7.51813 7.83358 7.37601C7.96166 7.44659 8.16662 7.53096 8.32866 7.66144Z" fill="#005B00" stroke="black" stroke-width="0.0150057"/>
<path fill-rule="evenodd" clip-rule="evenodd" d="M9.07159 7.60088C8.9486 7.80445 8.81438 7.94188 8.66015 8.07189C8.73222 7.84943 8.76315 7.73562 8.88613 7.53205C9.00912 7.32849 9.18645 7.16024 9.32977 7.02618C9.26642 7.1734 9.19526 7.39619 9.07159 7.60088Z" fill="#005B00" stroke="black" stroke-width="0.0150578"/>
<path fill-rule="evenodd" clip-rule="evenodd" d="M9.27619 7.80355C9.07093 7.94519 8.89213 8.01757 8.70157 8.07365C8.87692 7.89054 8.96195 7.79415 9.16721 7.65251C9.37247 7.51086 9.60158 7.42817 9.78572 7.3632C9.65739 7.47727 9.48258 7.66112 9.27619 7.80355Z" fill="#005B00" stroke="black" stroke-width="0.0149619"/>
<path fill-rule="evenodd" clip-rule="evenodd" d="M10.6263 5.99977C10.5398 6.1041 10.4619 6.16826 10.3778 6.22562C10.4485 6.10397 10.4825 6.041 10.569 5.93668C10.6555 5.83235 10.7559 5.7554 10.8366 5.69433C10.7838 5.77291 10.7133 5.89487 10.6263 5.99977Z" fill="#005B00" stroke="black" stroke-width="0.00746291"/>
<path fill-rule="evenodd" clip-rule="evenodd" d="M10.536 5.96374C10.4851 6.074 10.4296 6.15599 10.3659 6.23756C10.3958 6.12625 10.4086 6.07018 10.4595 5.95991C10.5104 5.84965 10.5837 5.74736 10.6429 5.66556C10.6167 5.74153 10.5872 5.85287 10.536 5.96374Z" fill="#005B00" stroke="black" stroke-width="0.00669443"/>
<path fill-rule="evenodd" clip-rule="evenodd" d="M10.6069 6.16767C10.5195 6.22025 10.4554 6.23606 10.392 6.24052C10.4812 6.15906 10.5262 6.1151 10.6136 6.06251C10.7009 6.00992 10.7808 5.99559 10.8446 5.98494C10.784 6.03282 10.6947 6.11479 10.6069 6.16767Z" fill="#005B00" stroke="black" stroke-width="0.00719588"/>
<path fill-rule="evenodd" clip-rule="evenodd" d="M9.45306 6.88175C9.29191 6.97929 9.16004 7.03382 9.02302 7.07939C9.17105 6.95902 9.24411 6.89612 9.40526 6.79858C9.56642 6.70104 9.73371 6.63715 9.86792 6.58669C9.76291 6.66289 9.61511 6.78367 9.45306 6.88175Z" fill="#005B00" stroke="black" stroke-width="0.00933195"/>
<path fill-rule="evenodd" clip-rule="evenodd" d="M9.97757 6.84054C9.76383 6.96776 9.58211 7.02714 9.39028 7.06921C9.5783 6.89789 9.67015 6.80716 9.88389 6.67993C10.0976 6.55271 10.3296 6.48675 10.5159 6.43524C10.3801 6.5405 10.1925 6.71261 9.97757 6.84054Z" fill="#005B00" stroke="black" stroke-width="0.0149294"/>
<path d="M8.57084 8.90019C8.58455 8.89256 8.45227 7.77889 9.31609 6.62632" stroke="black" stroke-width="0.0301386"/>
<path fill-rule="evenodd" clip-rule="evenodd" d="M9.94709 6.465C9.95959 6.48962 9.94593 6.52402 9.91591 6.54068C9.88588 6.55734 9.85129 6.55049 9.83848 6.52525C9.82567 6.50001 9.83995 6.46685 9.86998 6.45019C9.90001 6.43353 9.93459 6.44038 9.94709 6.465Z" fill="#FF0000" stroke="black" stroke-width="0.00951974"/>
<path fill-rule="evenodd" clip-rule="evenodd" d="M10.3314 6.23997C10.3439 6.26459 10.3302 6.29898 10.3002 6.31564C10.2702 6.3323 10.2356 6.32545 10.2228 6.30022C10.2099 6.27498 10.2242 6.24181 10.2543 6.22515C10.2843 6.2085 10.3189 6.21534 10.3314 6.23997Z" fill="#FF0000" stroke="black" stroke-width="0.00951974"/>
<path fill-rule="evenodd" clip-rule="evenodd" d="M8.96443 6.9199C8.97376 6.93855 8.95688 6.96859 8.92619 6.98612C8.89551 7.00365 8.86301 7.00244 8.85345 6.98332C8.84389 6.9642 8.86123 6.9351 8.89192 6.91757C8.9226 6.90004 8.95511 6.90125 8.96443 6.9199Z" fill="#FF0000" stroke="black" stroke-width="0.00839324"/>
<path fill-rule="evenodd" clip-rule="evenodd" d="M9.07234 6.873C9.08167 6.89165 9.06479 6.92168 9.03411 6.93921C9.00342 6.95675 8.97092 6.95554 8.96136 6.93642C8.9518 6.9173 8.96914 6.8882 8.99983 6.87066C9.03051 6.85313 9.06302 6.85434 9.07234 6.873Z" fill="#FF0000" stroke="black" stroke-width="0.00839324"/>
<path fill-rule="evenodd" clip-rule="evenodd" d="M9.01131 6.97145C9.02064 6.9901 9.00375 7.02013 8.97307 7.03766C8.94239 7.0552 8.90988 7.05399 8.90032 7.03487C8.89076 7.01575 8.90811 6.98665 8.93879 6.96911C8.96948 6.95158 9.00198 6.95279 9.01131 6.97145Z" fill="#FF0000" stroke="black" stroke-width="0.00839324"/>
<path fill-rule="evenodd" clip-rule="evenodd" d="M9.45136 6.94918C9.46516 6.9766 9.44996 7.01479 9.41664 7.0332C9.38333 7.05161 9.345 7.04388 9.33086 7.01577C9.31671 6.98767 9.3326 6.95084 9.36591 6.93243C9.39923 6.91402 9.43755 6.92176 9.45136 6.94918Z" fill="#FF0000" stroke="black" stroke-width="0.0105682"/>
<path fill-rule="evenodd" clip-rule="evenodd" d="M9.53095 6.86947C9.54475 6.89689 9.52955 6.93508 9.49623 6.95349C9.46292 6.9719 9.42459 6.96416 9.41045 6.93606C9.3963 6.90795 9.41219 6.87113 9.4455 6.85272C9.47882 6.83431 9.51714 6.84205 9.53095 6.86947Z" fill="#FF0000" stroke="black" stroke-width="0.0105682"/>
<path fill-rule="evenodd" clip-rule="evenodd" d="M9.54974 6.90697C9.56355 6.93439 9.54835 6.97259 9.51503 6.991C9.48172 7.00941 9.44339 7.00167 9.42924 6.97357C9.4151 6.94546 9.43099 6.90864 9.4643 6.89023C9.49762 6.87182 9.53594 6.87955 9.54974 6.90697Z" fill="#FF0000" stroke="black" stroke-width="0.0105682"/>
<path fill-rule="evenodd" clip-rule="evenodd" d="M7.75955 7.5444C7.75955 7.93028 7.02929 12.1793 8.857 13.3369C9.58725 13.7228 10.6826 12.951 10.6826 13.3369L10.3175 10.2477L7.75955 7.5444Z" fill="#0000C4" stroke="black" stroke-width="0.0282756"/>
<path fill-rule="evenodd" clip-rule="evenodd" d="M8.48969 8.31616C8.48969 8.70204 8.12456 11.7912 9.22201 12.5651C9.95226 13.3369 11.78 13.1276 11.78 13.1276L10.3174 10.2477L8.48969 8.31616Z" fill="#E10000" stroke="black" stroke-width="0.0282756"/>
<path fill-rule="evenodd" clip-rule="evenodd" d="M6.98096 6.77742L10.3331 10.3124L10.3941 10.2562L7.03722 6.72116L6.98096 6.77742Z" fill="black"/>
<path fill-rule="evenodd" clip-rule="evenodd" d="M6.42407 6.38024L6.64139 6.42752L6.70774 6.49553C6.69904 6.49455 6.7741 6.56355 6.68949 6.6523C6.60489 6.74105 6.47266 6.60452 6.47266 6.60452C6.47266 6.60452 6.52077 6.82929 6.65385 6.96571C6.78694 7.10212 6.93752 7.081 6.93752 7.081C6.93752 7.081 6.78751 6.95301 6.88941 6.85622C6.99142 6.75854 7.04037 6.83548 7.04037 6.83548L7.17308 6.97151L7.25816 6.88226L6.72695 6.33777L6.67884 6.11299L6.34939 6.04495L6.42418 6.37936L6.42407 6.38024Z" fill="#CECECC" stroke="black" stroke-width="0.00813492"/>
<path fill-rule="evenodd" clip-rule="evenodd" d="M7.06876 4.86295L7.31853 5.24308L7.64665 5.31806L7.42685 5.45907L7.82083 5.43418L7.9955 5.55063L8.06223 5.45054L7.88707 5.33376L7.75888 4.95995L7.71289 5.21764L7.51785 4.94303L7.06865 4.86206L7.06876 4.86295Z" fill="#CECECC" stroke="black" stroke-width="0.00843325"/>
<path fill-rule="evenodd" clip-rule="evenodd" d="M8.02274 5.15327C8.02274 5.17521 7.99433 5.19386 7.96166 5.19386C7.92899 5.19386 7.89915 5.17521 7.89915 5.15327C7.89915 5.13133 7.92757 5.11158 7.96166 5.11158C7.99575 5.11158 8.02274 5.13023 8.02274 5.15327ZM7.93467 5.23994C7.93467 5.63269 8.23157 7.30024 8.25572 7.34084C8.25714 7.3902 8.18753 7.41105 8.15486 7.35071C8.0611 7.15982 7.85938 5.59539 7.85228 5.23006C7.84801 5.07977 7.90484 5.0677 7.97018 5.07099C8.02274 5.07318 8.08809 5.11158 8.08809 5.15766C8.08809 5.21251 8.0057 5.2531 7.93467 5.23994Z" fill="#E10000" stroke="black" stroke-width="0.0166452"/>
<path fill-rule="evenodd" clip-rule="evenodd" d="M8.07778 5.33412C8.06709 5.35475 8.03128 5.36572 8.00055 5.35817C7.96981 5.35062 7.95084 5.32619 7.96153 5.30557C7.97222 5.28494 8.00856 5.27293 8.04063 5.28081C8.0727 5.28869 8.089 5.31246 8.07778 5.33412ZM7.95271 5.39525C8.04544 6.13193 7.71247 7.27449 7.71487 7.31926C7.69269 7.36497 7.61653 7.36952 7.61573 7.30421C7.59996 7.26197 7.98157 6.22903 7.88002 5.36694C7.94924 5.22464 8.00856 5.22643 8.06842 5.24462C8.11679 5.25882 8.15955 5.31002 8.1371 5.35334C8.11038 5.40491 8.01311 5.42404 7.95271 5.39525Z" fill="#0000C4" stroke="black" stroke-width="0.0168568"/>
<path fill-rule="evenodd" clip-rule="evenodd" d="M7.26733 6.55989C7.26733 6.59552 7.23104 6.62581 7.18931 6.62581C7.14758 6.62581 7.10948 6.59552 7.10948 6.55989C7.10948 6.52426 7.14577 6.49219 7.18931 6.49219C7.23286 6.49219 7.26733 6.52247 7.26733 6.55989ZM7.15484 6.70063C7.15484 7.33844 7.53405 10.0464 7.56489 10.1123C7.56671 10.1925 7.4778 10.2264 7.43607 10.1284C7.31632 9.81839 7.05868 7.27786 7.0496 6.6846C7.04416 6.44052 7.11674 6.42092 7.2002 6.42627C7.26733 6.42983 7.35079 6.49219 7.35079 6.56701C7.35079 6.65609 7.24556 6.72201 7.15484 6.70063Z" fill="#E10000" stroke="black" stroke-width="0.0239721"/>
<path fill-rule="evenodd" clip-rule="evenodd" d="M7.36311 6.83088C7.34951 6.86463 7.30373 6.88283 7.26437 6.87075C7.22501 6.85867 7.20063 6.81895 7.21423 6.7852C7.22783 6.75144 7.27429 6.73156 7.31536 6.74416C7.35643 6.75677 7.37738 6.79543 7.36311 6.83088ZM7.20331 6.93166C7.32494 8.13338 6.90344 10.001 6.9067 10.074C6.8785 10.1488 6.78105 10.1568 6.77976 10.0502C6.75941 9.98141 7.2436 8.29237 7.11017 6.88601C7.19817 6.65321 7.2741 6.65565 7.35078 6.68486C7.41273 6.70767 7.46766 6.7909 7.43911 6.86178C7.40512 6.94617 7.28071 6.97817 7.20331 6.93166Z" fill="#0000C4" stroke="black" stroke-width="0.024063"/>
<path fill-rule="evenodd" clip-rule="evenodd" d="M13.5822 11.4751L16.1467 14.1803L16.1936 14.1241L13.6291 11.4142L13.5822 11.4751ZM11.8006 11.9158L15.1481 15.4509L15.2044 15.3946L11.8522 11.8596L11.7913 11.9158H11.8006Z" fill="black"/>
<path fill-rule="evenodd" clip-rule="evenodd" d="M15.0969 15.4543L15.3751 15.7366L15.6964 15.9775L15.4614 15.6537L15.1832 15.3713L15.0969 15.4543Z" fill="#808080" stroke="black" stroke-width="0.0159516"/>
<path fill-rule="evenodd" clip-rule="evenodd" d="M15.9641 14.0712L16.2423 14.3536L16.5636 14.5944L16.3285 14.2706L16.0504 13.9883L15.9641 14.0712Z" fill="#808080" stroke="black" stroke-width="0.0159516"/>
<path fill-rule="evenodd" clip-rule="evenodd" d="M15.7619 5.28094C15.7619 5.28094 16.044 12.9505 14.9154 12.9505C13.7868 12.9505 13.221 12.1439 13.221 12.1439L13.2337 7.92861L15.7619 5.28094Z" fill="#FFDF00" stroke="black" stroke-width="0.0254107"/>
<path fill-rule="evenodd" clip-rule="evenodd" d="M15.0715 5.9964C15.0715 6.3997 15.1974 12.1439 14.6331 12.1439C14.0689 12.1439 13.2208 11.7406 13.2208 11.7406L13.2336 7.9286L15.0715 5.9964Z" fill="#0000C4" stroke="black" stroke-width="0.0254107"/>
<path fill-rule="evenodd" clip-rule="evenodd" d="M14.7048 6.38376C14.7048 6.78706 14.6331 11.3373 14.0672 11.3373H13.2208L13.2335 7.92861L14.7048 6.38376Z" fill="#E10000" stroke="black" stroke-width="0.0254107"/>
<path fill-rule="evenodd" clip-rule="evenodd" d="M15.823 5.28653L13.2632 7.99639L13.2163 7.94013L15.7808 5.23495L15.8277 5.29122L15.823 5.28653Z" fill="black"/>
<path fill-rule="evenodd" clip-rule="evenodd" d="M13.8667 7.31182C13.8667 7.31182 14.5957 8.22897 14.9455 8.94218C15.2951 9.6569 15.7015 10.7486 15.7015 10.7486C15.7015 10.7486 15.4723 9.67029 15.0319 8.8111C14.4545 7.73072 13.866 7.37398 13.8667 7.31182Z" fill="#005B00" stroke="black" stroke-width="0.0120407"/>
<path fill-rule="evenodd" clip-rule="evenodd" d="M13.7174 6.60272C13.7174 6.60272 14.504 7.70007 14.8633 8.51864C15.2221 9.33877 15.6218 10.571 15.6218 10.571C15.6218 10.571 15.4274 9.38149 14.9725 8.39234C14.3731 7.14475 13.7124 6.66906 13.7174 6.60272Z" fill="#005B00" stroke="black" stroke-width="0.013374"/>
<path fill-rule="evenodd" clip-rule="evenodd" d="M14.4967 5.54501C14.4967 5.54501 15.0719 7.22956 15.2485 8.26928C15.4242 9.30989 15.5336 10.7405 15.5336 10.7405C15.5336 10.7405 15.6404 9.54199 15.4039 8.26584C15.0771 6.63173 14.4732 5.59677 14.4967 5.54501Z" fill="#005B00" stroke="black" stroke-width="0.0155276"/>
<path fill-rule="evenodd" clip-rule="evenodd" d="M13.9074 5.44527C13.9074 5.44527 14.6691 6.94918 14.9621 7.97081C15.2542 8.99389 15.5244 10.4697 15.5244 10.4697C15.5244 10.4697 15.4952 9.12938 15.1161 7.88573C14.6069 6.30579 13.8899 5.51305 13.9074 5.44527Z" fill="#005B00" stroke="black" stroke-width="0.0156216"/>
<path fill-rule="evenodd" clip-rule="evenodd" d="M14.8997 5.86775C14.8997 5.86775 15.3003 7.48882 15.4052 8.4597C15.5093 9.43124 15.5469 10.7449 15.5469 10.7449C15.5469 10.7449 15.6738 9.67736 15.5294 8.48244C15.3253 6.94834 14.8792 5.91071 14.8997 5.86775Z" fill="#005B00" stroke="black" stroke-width="0.0139719"/>
<path fill-rule="evenodd" clip-rule="evenodd" d="M13.7953 5.95847C13.7953 5.95847 14.5554 7.25118 14.8678 8.15479C15.1796 9.05983 15.492 10.3825 15.492 10.3825C15.492 10.3825 15.4047 9.15675 15.0039 8.0593C14.4697 6.66824 13.7825 6.0226 13.7953 5.95847Z" fill="#005B00" stroke="black" stroke-width="0.0142368"/>
<path fill-rule="evenodd" clip-rule="evenodd" d="M13.712 6.83121C13.712 6.83121 14.4978 7.85805 14.8539 8.64536C15.2095 9.43429 15.6028 10.6327 15.6028 10.6327C15.6028 10.6327 15.4167 9.45788 14.9654 8.50845C14.3703 7.31336 13.7064 6.89821 13.712 6.83121Z" fill="#005B00" stroke="black" stroke-width="0.0135399"/>
<path fill-rule="evenodd" clip-rule="evenodd" d="M13.8155 6.34278C13.8155 6.34278 14.5503 7.51445 14.8707 8.36565C15.1906 9.21837 15.5317 10.4856 15.5317 10.4856C15.5317 10.4856 15.394 9.28149 14.986 8.25083C14.4458 6.9483 13.8074 6.40834 13.8155 6.34278Z" fill="#005B00" stroke="black" stroke-width="0.013361"/>
<path fill-rule="evenodd" clip-rule="evenodd" d="M14.6735 5.58159C14.6735 5.58159 15.1538 7.23292 15.2732 8.23912C15.3917 9.2461 15.4232 10.6209 15.4232 10.6209C15.4232 10.6209 15.5938 9.48362 15.4277 8.24718C15.1912 6.66216 14.6473 5.62932 14.6735 5.58159Z" fill="#005B00" stroke="black" stroke-width="0.0151242"/>
<path fill-rule="evenodd" clip-rule="evenodd" d="M14.0395 5.17715C14.0395 5.17715 14.7255 6.74602 14.9681 7.79116C15.2098 8.83767 15.4081 10.3334 15.4081 10.3334C15.4081 10.3334 15.4432 8.99484 15.1255 7.7205C14.6944 6.09904 14.0188 5.2431 14.0395 5.17715Z" fill="#005B00" stroke="black" stroke-width="0.0156538"/>
<path fill-rule="evenodd" clip-rule="evenodd" d="M15.0745 6.03008C15.0745 6.03008 15.3808 7.58225 15.43 8.50239C15.4784 9.4231 15.4413 10.6608 15.4413 10.6608C15.4413 10.6608 15.6279 9.66603 15.5521 8.53248C15.4362 7.07586 15.0516 6.06902 15.0745 6.03008Z" fill="#005B00" stroke="black" stroke-width="0.0133954"/>
<path fill-rule="evenodd" clip-rule="evenodd" d="M13.8666 5.66686C13.8666 5.66686 14.5799 7.0233 14.8467 7.95858C15.1127 8.89526 15.3498 10.2557 15.3498 10.2557C15.3498 10.2557 15.3441 9.00684 14.9976 7.86968C14.5304 6.42675 13.8485 5.73119 13.8666 5.66686Z" fill="#005B00" stroke="black" stroke-width="0.0147792"/>
<path fill-rule="evenodd" clip-rule="evenodd" d="M16.5672 6.77048C16.5672 6.77048 17.2975 14.1086 15.1067 14.1086C13.2811 14.1086 13.2811 12.951 12.916 12.951L13.2811 10.2477L16.5672 6.77048Z" fill="#FFDF00" stroke="black" stroke-width="0.0282756"/>
<path fill-rule="evenodd" clip-rule="evenodd" d="M15.8369 7.5444C15.8369 7.93028 16.5671 12.1793 14.7394 13.3369C14.0092 13.7228 12.9138 12.951 12.9138 13.3369L13.2789 10.2477L15.8369 7.5444Z" fill="#0000C4" stroke="black" stroke-width="0.0282756"/>
<path fill-rule="evenodd" clip-rule="evenodd" d="M15.1068 8.31616C15.1068 8.70204 15.4719 11.7912 14.3744 12.5651C13.6442 13.3369 11.8165 13.1276 11.8165 13.1276L13.279 10.2477L15.1068 8.31616Z" fill="#E10000" stroke="black" stroke-width="0.0282756"/>
<path fill-rule="evenodd" clip-rule="evenodd" d="M16.6155 6.77742L13.2633 10.3124L13.2024 10.2562L16.5593 6.72116L16.6155 6.77742Z" fill="black"/>
<path fill-rule="evenodd" clip-rule="evenodd" d="M17.177 6.38024L16.9597 6.42752L16.8933 6.49553C16.902 6.49455 16.827 6.56355 16.9116 6.6523C16.9962 6.74105 17.1284 6.60452 17.1284 6.60452C17.1284 6.60452 17.0803 6.82929 16.9472 6.96571C16.8141 7.10212 16.6636 7.081 16.6636 7.081C16.6636 7.081 16.8136 6.95301 16.7117 6.85622C16.6097 6.75854 16.5607 6.83548 16.5607 6.83548L16.428 6.97151L16.3429 6.88226L16.8741 6.33777L16.9222 6.11299L17.2517 6.04495L17.1769 6.37936L17.177 6.38024Z" fill="#CECECC" stroke="black" stroke-width="0.00813492"/>
<path fill-rule="evenodd" clip-rule="evenodd" d="M16.523 4.86295L16.2733 5.24308L15.9451 5.31806L16.1649 5.45907L15.771 5.43418L15.5963 5.55063L15.5296 5.45054L15.7047 5.33376L15.8329 4.95995L15.8789 5.21764L16.0739 4.94303L16.5232 4.86206L16.523 4.86295Z" fill="#CECECC" stroke="black" stroke-width="0.00843325"/>
<path fill-rule="evenodd" clip-rule="evenodd" d="M15.5691 5.15327C15.5691 5.17521 15.5975 5.19386 15.6301 5.19386C15.6628 5.19386 15.6926 5.17521 15.6926 5.15327C15.6926 5.13133 15.6642 5.11158 15.6301 5.11158C15.596 5.11158 15.5691 5.13023 15.5691 5.15327ZM15.6571 5.23994C15.6571 5.63269 15.3602 7.30024 15.3361 7.34084C15.3347 7.3902 15.4043 7.41105 15.4369 7.35071C15.5307 7.15982 15.7324 5.59539 15.7395 5.23006C15.7438 5.07977 15.687 5.0677 15.6216 5.07099C15.5691 5.07318 15.5037 5.11158 15.5037 5.15766C15.5037 5.21251 15.5861 5.2531 15.6571 5.23994Z" fill="#E10000" stroke="black" stroke-width="0.0166452"/>
<path fill-rule="evenodd" clip-rule="evenodd" d="M15.5187 5.33412C15.5293 5.35475 15.5652 5.36572 15.5959 5.35817C15.6266 5.35062 15.6456 5.32619 15.6349 5.30557C15.6242 5.28494 15.5879 5.27293 15.5558 5.28081C15.5237 5.28869 15.5074 5.31246 15.5187 5.33412ZM15.6437 5.39525C15.551 6.13193 15.884 7.27449 15.8816 7.31926C15.9037 7.36497 15.9799 7.36952 15.9807 7.30421C15.9965 7.26197 15.6149 6.22903 15.7164 5.36694C15.6472 5.22464 15.5879 5.22643 15.528 5.24462C15.4796 5.25882 15.4369 5.31002 15.4593 5.35334C15.4861 5.40491 15.5833 5.42404 15.6437 5.39525Z" fill="#0000C4" stroke="black" stroke-width="0.0168568"/>
<path fill-rule="evenodd" clip-rule="evenodd" d="M16.3245 6.55989C16.3245 6.59552 16.3608 6.62581 16.4025 6.62581C16.4442 6.62581 16.4823 6.59552 16.4823 6.55989C16.4823 6.52426 16.446 6.49219 16.4025 6.49219C16.3589 6.49219 16.3245 6.52247 16.3245 6.55989ZM16.437 6.70063C16.437 7.33844 16.0578 10.0464 16.0269 10.1123C16.0251 10.1925 16.114 10.2264 16.1557 10.1284C16.2755 9.81839 16.5331 7.27786 16.5422 6.6846C16.5476 6.44052 16.4751 6.42092 16.3916 6.42627C16.3245 6.42983 16.241 6.49219 16.241 6.56701C16.241 6.65609 16.3462 6.72201 16.437 6.70063Z" fill="#E10000" stroke="black" stroke-width="0.0239721"/>
<path fill-rule="evenodd" clip-rule="evenodd" d="M16.2333 6.83088C16.2469 6.86463 16.2927 6.88283 16.3321 6.87075C16.3714 6.85867 16.3958 6.81895 16.3822 6.7852C16.3686 6.75144 16.3221 6.73156 16.2811 6.74416C16.24 6.75677 16.2191 6.79543 16.2333 6.83088ZM16.3931 6.93166C16.2715 8.13338 16.693 10.001 16.6897 10.074C16.7179 10.1488 16.8154 10.1568 16.8167 10.0502C16.837 9.98141 16.3528 8.29237 16.4863 6.88601C16.3983 6.65321 16.3223 6.65565 16.2457 6.68486C16.1837 6.70767 16.1288 6.7909 16.1573 6.86178C16.1913 6.94617 16.3157 6.97817 16.3931 6.93166Z" fill="#0000C4" stroke="black" stroke-width="0.024063"/>
<path fill-rule="evenodd" clip-rule="evenodd" d="M10.6852 16.0402C10.8516 16.142 11.0405 16.1957 11.2329 16.1957C11.4252 16.1957 11.6141 16.142 11.7806 16.0402V12.951H11.0503C11.4154 14.1087 11.4154 15.2685 10.6831 16.0402H10.6852Z" fill="#E10000" stroke="black" stroke-width="0.0282756"/>
<path fill-rule="evenodd" clip-rule="evenodd" d="M11.2272 12.9744C11.2272 15.1486 10.6992 15.6326 10.6992 16.0699C10.9191 16.0699 11.0657 15.866 11.2272 15.5859C11.4472 15.1486 11.4683 12.94 11.4472 12.9744H11.2272Z" fill="#0000C4" stroke="black" stroke-width="0.0232942"/>
<path fill-rule="evenodd" clip-rule="evenodd" d="M10.7872 12.9744C10.7761 14.2445 10.2306 15.4213 10.3338 15.6817C10.4506 15.9151 10.7872 15.1486 11.2271 15.5834C11.447 15.1486 11.4681 12.94 11.447 12.9719L10.7872 12.9744Z" fill="#0000C4" stroke="black" stroke-width="0.0232942"/>
<path fill-rule="evenodd" clip-rule="evenodd" d="M10.8426 12.986C10.8426 14.4375 10.3372 14.5343 10.3372 14.9214C10.557 14.9214 10.8413 14.7098 10.8426 14.7295C11.0624 14.4375 11.0835 12.9631 11.0624 12.986H10.8426Z" fill="#FFDF00" stroke="black" stroke-width="0.0190378"/>
<path fill-rule="evenodd" clip-rule="evenodd" d="M10.4026 12.986C10.3914 13.8339 9.85864 14.5556 9.96171 14.7294C10.0797 14.8836 10.4026 14.4375 10.8422 14.7294C11.062 14.4375 11.0831 12.963 11.062 12.986H10.4026Z" fill="#FFDF00" stroke="black" stroke-width="0.0190378"/>
<path fill-rule="evenodd" clip-rule="evenodd" d="M12.9125 16.0402C12.746 16.142 12.5571 16.1957 12.3648 16.1957C12.1725 16.1957 11.9836 16.142 11.8171 16.0402V12.951H12.5474C12.1822 14.1087 12.1822 15.2685 12.9146 16.0402H12.9125Z" fill="#E10000" stroke="black" stroke-width="0.0282756"/>
<path fill-rule="evenodd" clip-rule="evenodd" d="M12.3704 12.9744C12.3704 15.1486 12.8984 15.6326 12.8984 16.0699C12.6785 16.0699 12.5319 15.866 12.3704 15.5859C12.1505 15.1486 12.1294 12.94 12.1505 12.9744H12.3704Z" fill="#0000C4" stroke="black" stroke-width="0.0232942"/>
<path fill-rule="evenodd" clip-rule="evenodd" d="M12.8104 12.9744C12.8216 14.2445 13.367 15.4213 13.2639 15.6817C13.1471 15.9151 12.8104 15.1486 12.3706 15.5834C12.1507 15.1486 12.1296 12.94 12.1507 12.972L12.8104 12.9744Z" fill="#0000C4" stroke="black" stroke-width="0.0232942"/>
<path fill-rule="evenodd" clip-rule="evenodd" d="M12.76 12.986C12.76 14.4375 13.2654 14.5343 13.2654 14.9214C13.0456 14.9214 12.7612 14.7098 12.76 14.7295C12.5402 14.4375 12.5191 12.9631 12.5402 12.986H12.76Z" fill="#FFDF00" stroke="black" stroke-width="0.0190378"/>
<path fill-rule="evenodd" clip-rule="evenodd" d="M13.1997 12.986C13.2109 13.834 13.7437 14.5556 13.6406 14.7295C13.5226 14.8836 13.1997 14.4375 12.7601 14.7295C12.5403 14.4375 12.5192 12.9631 12.5403 12.986H13.1997Z" fill="#FFDF00" stroke="black" stroke-width="0.0190378"/>
<path fill-rule="evenodd" clip-rule="evenodd" d="M9.01912 13.2829L8.64062 13.5651L9.01912 13.8472L9.20815 13.7062L9.30267 13.8472L9.39718 14.1294L9.49212 13.8472L9.58664 13.7062H14.6581V13.424H9.58622L9.4917 13.2821C9.4917 13.1411 9.51153 13 9.58664 13H9.96471C9.96471 12.8589 9.77568 12.5768 9.39718 12.5768C9.01912 12.5768 8.82966 12.8589 8.82966 13H9.20815C9.28284 13 9.30267 13.1411 9.30267 13.2829L9.20815 13.424L9.01912 13.2829Z" fill="#908F8A" stroke="black" stroke-width="0.0260963"/>
<path fill-rule="evenodd" clip-rule="evenodd" d="M10.1313 13.9509H13.4463V14.1227H10.1323L10.1313 13.9509ZM10.1313 13.7782H13.4463V13.9509H10.1323L10.1313 13.7782ZM10.1313 13.6064H13.4463V13.7791H10.1323L10.1313 13.6064ZM10.1313 13.4346H13.4463V13.6064H10.1323L10.1313 13.4346ZM10.1313 13.2628H13.4463V13.4346H10.1323L10.1313 13.2628ZM10.1313 13.0901H13.4463V13.2628H10.1323L10.1313 13.0901ZM10.1313 12.9193H13.4463V13.0901H10.1323L10.1313 12.9193Z" fill="#B74D00"/>
<path d="M13.4463 13.9509H10.1313L10.1323 14.1227H13.4463V13.9509ZM13.4463 13.9509V13.7782H10.1313L10.1323 13.9509H13.4463ZM13.4463 13.6064H10.1313L10.1323 13.7791H13.4463V13.6064ZM13.4463 13.6064V13.4346M13.4463 13.6064H10.1323L10.1313 13.4346H13.4463M13.4463 13.4346V13.2628M13.4463 13.4346H10.1323L10.1313 13.2628H13.4463M13.4463 13.2628V13.0901M13.4463 13.2628H10.1323L10.1313 13.0901H13.4463M13.4463 13.0901V12.9193H10.1313L10.1323 13.0901H13.4463Z" stroke="black" stroke-width="0.0175949"/>
<path fill-rule="evenodd" clip-rule="evenodd" d="M10.3284 12.9172L11.5553 14.12H11.7307L10.5047 12.9182H10.3293L10.3284 12.9172Z" fill="#908F8A" stroke="black" stroke-width="0.0306829"/>
<path fill-rule="evenodd" clip-rule="evenodd" d="M10.3286 14.1212L11.5555 12.9183H11.7309L10.5049 14.1202H10.3295L10.3286 14.1212Z" fill="#908F8A" stroke="black" stroke-width="0.0306829"/>
<path fill-rule="evenodd" clip-rule="evenodd" d="M10.3088 12.9172V14.12H10.483V12.9172H10.3088Z" fill="#908F8A" stroke="black" stroke-width="0.0303024"/>
<path fill-rule="evenodd" clip-rule="evenodd" d="M11.8945 12.9173L13.1214 14.1202H13.2968L12.0708 12.9183H11.8954L11.8945 12.9173Z" fill="#908F8A" stroke="black" stroke-width="0.0306829"/>
<path fill-rule="evenodd" clip-rule="evenodd" d="M11.8945 14.1212L13.1214 12.9183H13.2968L12.0708 14.1202H11.8954L11.8945 14.1212Z" fill="#908F8A" stroke="black" stroke-width="0.0306829"/>
<path fill-rule="evenodd" clip-rule="evenodd" d="M13.0989 12.9173V14.1202H13.2731V12.9173H13.0989Z" fill="#908F8A" stroke="black" stroke-width="0.0303024"/>
<path fill-rule="evenodd" clip-rule="evenodd" d="M11.8799 12.9173V14.1202H12.0541V12.9173H11.8799Z" fill="#908F8A" stroke="black" stroke-width="0.0303024"/>
<path fill-rule="evenodd" clip-rule="evenodd" d="M11.5281 12.9173V14.1202H11.7023V12.9173H11.5281Z" fill="#908F8A" stroke="black" stroke-width="0.0303024"/>
<path fill-rule="evenodd" clip-rule="evenodd" d="M14.3383 9.47592C14.3383 11.3944 13.1914 12.951 11.7804 12.951C10.3694 12.951 9.22241 11.3944 9.22241 9.47592C9.22241 7.55745 10.3673 5.99869 11.7804 5.99869C13.1934 5.99869 14.3383 7.55527 14.3383 9.47374V9.47592ZM13.9732 9.47592C13.9732 11.1807 12.9913 12.5651 11.7804 12.5651C10.5695 12.5651 9.58754 11.1807 9.58754 9.47592C9.58754 7.76892 10.5695 6.38456 11.7804 6.38456C12.9913 6.38456 13.9732 7.76892 13.9732 9.47592Z" fill="#FFDF00" stroke="black" stroke-width="0.0282756"/>
<path fill-rule="evenodd" clip-rule="evenodd" d="M12.7755 6.27334C12.4682 6.09684 12.1322 5.99878 11.7796 5.99878C11.427 5.99878 11.0909 6.09684 10.7837 6.27116L10.928 6.62852C11.1874 6.47099 11.4814 6.3881 11.7806 6.3881C12.0798 6.3881 12.3738 6.47099 12.6332 6.62852L12.7755 6.27334Z" fill="#FFDF00" stroke="black" stroke-width="0.0282756"/>
<path fill-rule="evenodd" clip-rule="evenodd" d="M12.7801 12.6919C12.4729 12.8684 12.1368 12.9665 11.7842 12.9665C11.4316 12.9665 11.0955 12.8684 10.7883 12.6941L10.9327 12.3368C11.1921 12.4943 11.4861 12.5772 11.7852 12.5772C12.0844 12.5772 12.3784 12.4943 12.6378 12.3368L12.7801 12.6919Z" fill="#FFDF00" stroke="black" stroke-width="0.0282756"/>
<path fill-rule="evenodd" clip-rule="evenodd" d="M13.9762 9.47323C13.9762 11.1798 12.9916 12.5629 11.782 12.5629C10.5678 12.5629 9.58789 11.1798 9.58789 9.47323C9.58789 7.76667 10.5724 6.38361 11.782 6.38361C12.9916 6.38361 13.9715 7.76667 13.9715 9.47323H13.9762Z" fill="#A7CFFF"/>
<path fill-rule="evenodd" clip-rule="evenodd" d="M13.9728 9.47596C13.9955 10.0559 13.8779 10.3393 13.7273 10.9432C13.6881 11.0086 13.5004 10.8015 13.389 10.699C13.2776 10.5965 13.2281 10.7906 13.0878 10.6336C12.9496 10.4723 12.8609 10.6772 12.7578 10.542C12.6546 10.4069 11.6995 10.3894 11.6995 10.3763C11.7944 10.3284 12.2813 10.3807 12.2029 10.1343C12.1142 9.8771 11.5634 10.1256 11.4891 9.79861C11.4375 9.4716 10.3834 9.45852 10.3071 9.38004C10.338 9.50212 11.1281 9.55444 11.1095 9.87056C11.091 10.0014 10.3318 10.0384 10.2576 10.1474C10.1957 10.2848 10.8558 10.1104 10.8785 10.2782C10.8785 10.348 10.7816 10.2782 10.4391 10.3872C10.2658 10.4417 10.7568 10.6118 10.5711 10.7055C10.3855 10.7993 9.98735 10.8407 10.0038 10.8799C10.0657 11.0761 10.926 11.3072 10.8414 11.3399C10.5361 11.4838 10.3752 11.5776 10.2287 11.6604C9.79968 11.0233 9.57486 10.2578 9.58715 9.47596C10.2411 9.22743 10.1029 9.17511 11.3117 9.17511C12.5206 9.17511 12.9208 9.22525 13.9728 9.47596Z" fill="#AFFF7B" stroke="black" stroke-width="0.0282756"/>
<path fill-rule="evenodd" clip-rule="evenodd" d="M13.9728 9.47598C13.8078 9.47598 13.6345 9.5501 13.4571 9.5501C13.2797 9.5501 13.0961 9.4738 12.9104 9.4738C12.7248 9.4738 12.5123 9.57408 12.3225 9.57408C12.1307 9.57408 11.9636 9.47598 11.7717 9.47598C11.5799 9.47598 11.388 9.5501 11.1983 9.5501C11.0085 9.5501 10.8208 9.4738 10.6372 9.4738C10.4536 9.4738 10.272 9.5501 10.0967 9.5501C9.92134 9.5501 9.75013 9.4738 9.58716 9.4738C9.58991 9.0465 9.64767 8.64609 9.76044 8.27257C10.3174 8.31617 9.98736 7.9303 10.3174 7.9303C10.4138 7.92478 10.5101 7.94098 10.6001 7.97781C10.6901 8.01465 10.7716 8.07128 10.8393 8.14394C10.8888 8.14394 11.1364 7.89542 11.4149 7.9303C11.6934 7.96518 11.5902 8.52546 11.9595 8.5538C12.1451 8.70205 12.2545 8.79579 12.5103 8.85683C12.8754 8.89171 13.9213 8.80233 13.9274 8.85247C13.9576 9.05878 13.9728 9.26722 13.9728 9.47598Z" fill="white" stroke="black" stroke-width="0.0282756"/>
<path fill-rule="evenodd" clip-rule="evenodd" d="M12.1587 11.3558C12.1587 11.2589 12.2567 11.1942 12.2567 11.0394C12.2567 10.8846 12.1696 10.8812 12.1667 10.7366C12.1652 10.6771 12.2415 10.6176 12.2749 10.6108C12.3083 10.604 12.3366 10.7366 12.3366 10.7656C12.3366 10.7945 12.3025 10.6941 12.2742 10.6924C12.2458 10.6907 12.1848 10.7026 12.1848 10.7315C12.1848 10.7894 12.2923 10.8608 12.2843 11.0547C12.2764 11.2452 12.1921 11.3031 12.1921 11.3609C12.1921 11.4188 12.2284 11.5787 12.2284 11.5787C12.2284 11.5787 12.158 11.4511 12.158 11.3541L12.1587 11.3558Z" fill="black" stroke="black" stroke-width="0.0148279"/>
<path fill-rule="evenodd" clip-rule="evenodd" d="M12.2539 11.3417C12.2539 11.2448 12.1559 11.1801 12.1559 11.0253C12.1559 10.8705 12.243 10.8671 12.2459 10.7225C12.2532 10.6545 12.1602 10.6103 12.1268 10.6052C12.0934 10.6001 12.0542 10.7413 12.0542 10.7685C12.0542 10.7957 12.0934 10.68 12.1217 10.6783C12.15 10.6766 12.2278 10.6885 12.2278 10.7174C12.2278 10.7753 12.1203 10.8467 12.1283 11.0406C12.1362 11.2312 12.2205 11.289 12.2205 11.3468C12.2205 11.4047 12.1842 11.5646 12.1842 11.5646C12.1842 11.5646 12.2546 11.437 12.2546 11.34L12.2539 11.3417Z" fill="black" stroke="black" stroke-width="0.0148279"/>
<path fill-rule="evenodd" clip-rule="evenodd" d="M12.2555 10.5515C12.2555 10.5984 12.232 10.6405 12.2086 10.6405C12.1742 10.6374 12.1555 10.6077 12.1524 10.5515C12.1477 10.4672 12.1758 10.4672 12.2039 10.4672C12.2352 10.4703 12.2523 10.4984 12.2555 10.5515ZM12.9162 10.8092H12.9349V11.4981H12.9162V10.8092ZM13.0662 10.753H13.0849V11.4466H13.0662V10.753Z" fill="black"/>
<path fill-rule="evenodd" clip-rule="evenodd" d="M12.9495 11.1375V11.1141L13.0894 11.1421V11.1561L12.9495 11.1375Z" fill="black"/>
<path fill-rule="evenodd" clip-rule="evenodd" d="M10.9808 11.2675C10.9808 11.2675 11.5172 11.516 11.6348 11.6642C11.7523 11.8125 11.7049 11.8125 11.7049 11.8125L12.8952 11.8626C12.8952 11.7885 13.1056 11.7885 13.153 11.6141C13.2005 11.4397 13.2005 11.3917 13.2005 11.3917L12.8271 11.516L12.8477 11.2936H12.5218L12.4743 11.516L11.773 11.492L11.8204 10.8969L11.6801 10.9208L11.6595 11.4877C11.6348 11.4877 11.0035 11.3154 10.9788 11.2675H10.9808Z" fill="#B74D00" stroke="black" stroke-width="0.0282756"/>
<path fill-rule="evenodd" clip-rule="evenodd" d="M9.90283 7.71881C9.90283 7.71881 10.6805 7.47464 11.8027 7.49208C12.9249 7.50952 13.7026 7.77113 13.6861 7.77113C13.6696 7.77113 13.4716 7.37 13.4716 7.37C13.4716 7.37 12.6795 7.14109 11.7862 7.12365C10.8951 7.10621 10.1174 7.29805 10.1359 7.31549L9.90283 7.71881Z" fill="#FEDE00" stroke="#FEDE00" stroke-width="0.0282756"/>
<path fill-rule="evenodd" clip-rule="evenodd" d="M11.3038 7.19L11.7867 7.18062V7.46192L11.3085 7.4713L11.3038 7.19ZM10.1973 7.34471L10.0286 7.62133L10.6005 7.551L10.5537 7.2697L10.1973 7.34471ZM10.6849 7.23688L11.1631 7.19469L11.1866 7.47599L10.7084 7.51818L10.6849 7.23688ZM12.4149 7.20875L11.9367 7.17593L11.918 7.45724L12.3962 7.49005L12.4149 7.20875ZM13.4464 7.38691L13.6198 7.72916L13.1041 7.59789L13.1604 7.32596L13.4464 7.38691ZM13.0291 7.28377L12.5556 7.22282L12.5228 7.49943L12.9963 7.56038L13.0291 7.28377Z" fill="#38A9F9"/>
<path fill-rule="evenodd" clip-rule="evenodd" d="M11.8024 7.87524L11.7508 7.58107L11.5941 7.83166L11.6519 7.53749L11.4189 7.70528L11.5756 7.45904L11.2993 7.52006L11.5364 7.35445L11.2581 7.29998L11.5364 7.24332L11.2993 7.07772L11.5756 7.13873L11.4168 6.8925L11.6519 7.06028L11.5941 6.76611L11.7508 7.0167L11.8024 6.72253L11.856 7.0167L12.0106 6.76611L11.955 7.06028L12.188 6.8925L12.0292 7.13873L12.3075 7.07772L12.0704 7.24332L12.3488 7.29998L12.0704 7.35445L12.3075 7.52006L12.0292 7.45904L12.188 7.70528L11.955 7.53749L12.0127 7.83166L11.856 7.58107L11.8024 7.87524Z" fill="#FFDF00" stroke="black" stroke-width="0.0282756"/>
<path fill-rule="evenodd" clip-rule="evenodd" d="M12.1477 7.29455C12.1477 7.46364 12.0147 7.60001 11.8495 7.60001C11.6843 7.60001 11.5513 7.46364 11.5513 7.29455C11.5513 7.12546 11.6843 6.98727 11.8495 6.98727C12.0147 6.98727 12.1477 7.12546 12.1477 7.29637V7.29455Z" fill="#FFDF00" stroke="black" stroke-width="0.0255334"/>
<path fill-rule="evenodd" clip-rule="evenodd" d="M11.8194 7.21812C11.8131 7.23686 11.7819 7.2478 11.7257 7.25092C11.6413 7.25561 11.6226 7.23686 11.6226 7.21812C11.6226 7.19937 11.6694 7.18063 11.721 7.18063C11.7725 7.18063 11.8241 7.19937 11.8241 7.21812H11.8194ZM12.0396 7.21812C12.0334 7.23686 12.0084 7.2478 11.9646 7.25092C11.899 7.25561 11.8897 7.23686 11.8897 7.21812C11.8928 7.19625 11.9178 7.18375 11.9646 7.18063C12.0349 7.17594 12.0349 7.19937 12.0349 7.21812H12.0396Z" fill="black"/>
<path d="M11.7759 7.33919L11.7963 7.3509C11.7472 7.321 11.7696 7.3321 11.8465 7.40761C11.891 7.38244 11.8995 7.35941 11.9272 7.32815" stroke="black" stroke-width="0.0283202"/>
<path d="M11.671 7.4572L11.6875 7.47463C11.6483 7.43105 11.6669 7.45284 11.7535 7.50949C11.836 7.52039 11.9205 7.48335 11.97 7.42233" stroke="black" stroke-width="0.0282756"/>
<path fill-rule="evenodd" clip-rule="evenodd" d="M10.4833 8.02921C10.4833 8.02921 10.5161 8.31051 10.2958 8.66213C10.0848 9.00907 10.1176 8.88717 10.1176 8.88717C10.1176 8.88717 10.2161 9.07471 10.202 9.07471C10.1879 9.07471 10.0332 8.90593 10.0332 8.90593L9.85507 9.09346C9.85507 9.09346 10.0192 8.7981 10.0004 8.7981C9.98166 8.7981 9.95353 8.69495 9.95353 8.69495L10.0848 8.64338C10.0848 8.64338 10.2817 8.27769 10.2817 8.29175C10.2817 8.30582 9.68629 8.69495 9.68629 8.69495L10.4833 8.02921ZM10.6146 8.13704C10.5958 8.13704 10.6943 8.41834 10.7787 8.55899C10.8303 8.65426 10.8591 8.76015 10.8631 8.86842L11.1444 9.00907L10.7787 8.46991L11.0131 8.5543L10.6146 8.13704ZM10.6146 8.86842C10.6146 8.86842 10.8115 9.0794 10.8302 9.14972C10.849 9.22005 10.8443 9.37476 10.8443 9.37476L10.7646 9.20129L10.6474 9.3607C10.6474 9.3607 10.7318 9.11222 10.713 9.09815C10.6943 9.08408 10.5818 9.18254 10.5818 9.18254L10.6287 9.02782C10.6287 9.01376 10.6287 8.91999 10.6146 8.86842ZM9.61597 9.3607C9.6816 9.30444 9.81757 9.26693 9.81757 9.26693C9.81757 9.26693 9.73318 9.40758 9.71442 9.40758C9.69567 9.40758 9.64879 9.40758 9.62066 9.3607H9.61597ZM11.8992 8.59181C11.8992 8.59181 12.3258 8.85436 12.3258 8.87311C12.3258 8.89186 12.0445 8.74652 12.0445 8.74652L11.8992 8.59181ZM11.1256 8.04327C11.1584 8.06202 11.7539 8.54961 11.7351 8.54961C11.7163 8.54961 11.4726 8.40896 11.4726 8.42772V8.54961L11.3413 8.26831L11.3085 8.37614L11.1256 8.04796V8.04327ZM11.2756 8.83091L11.4397 9.1591L11.6038 9.12628C11.6038 9.12628 11.2897 8.83091 11.2756 8.83091ZM11.7914 8.61994L11.8054 8.93406C11.8054 8.93406 11.8992 9.02314 11.8992 9.00438C11.8992 8.98563 11.8054 8.63869 11.7867 8.61994H11.7914Z" fill="#B7E1FF"/>
<path fill-rule="evenodd" clip-rule="evenodd" d="M6.93408 4.34887C6.93408 4.34887 7.67953 3.94099 8.52812 3.63156C9.14879 3.40425 9.78913 3.23475 10.441 3.12521C10.6941 3.12521 11.1208 3.75345 11.1911 3.75345C11.2661 3.75345 11.5521 3.57998 11.9084 3.57998C12.2647 3.57998 12.4804 3.86129 12.5554 3.86129H13.1977C13.268 3.86129 12.9821 3.15803 13.1977 3.19554C13.3056 3.21429 14.2198 3.35494 15.0684 3.62687C15.917 3.90817 17.1219 4.39107 17.1219 4.39107C17.1219 4.39107 15.1528 4.65362 14.6277 4.5786C14.5573 4.61142 14.6277 5.03806 14.5245 4.85053C14.3604 4.81302 13.7556 4.71925 13.6478 4.71925C13.54 4.71925 13.3431 4.84115 13.0571 4.90679L12.4101 5.08495L12.8789 5.81633L12.3022 6.09763C12.3022 6.09763 11.9459 5.25841 11.8006 5.25841C11.6553 5.25841 11.5896 5.85384 11.4068 5.82102C11.2286 5.78351 11.1583 5.25841 11.0176 5.11776C10.877 4.97711 10.1175 4.93023 9.83148 4.8599C9.54549 4.78958 9.08135 4.73332 8.83286 4.66299C8.58438 4.59267 8.33121 4.84115 8.22338 4.84115C8.11555 4.84115 8.36403 4.63018 8.26089 4.59267C8.15774 4.55516 8.08273 4.7005 8.00771 4.7005C7.93739 4.7005 7.18725 4.55985 7.11693 4.52234C7.04191 4.48952 7.29509 4.34887 7.22476 4.34887H6.93408Z" fill="#984000"/>
<path fill-rule="evenodd" clip-rule="evenodd" d="M12.2503 3.98768C12.2503 4.18637 12.091 4.34757 11.8954 4.34757C11.6998 4.34757 11.5413 4.18637 11.5413 3.98768C11.5413 3.78899 11.6998 3.62872 11.8954 3.62872C12.091 3.62872 12.2503 3.78992 12.2503 3.98768Z" fill="#808080" stroke="#772600" stroke-width="0.0315122"/>
<path fill-rule="evenodd" clip-rule="evenodd" d="M10.4902 4.06739C10.5549 3.99317 10.635 3.8807 10.8445 3.8807C10.8928 3.86158 10.8928 3.74911 11.0048 3.74911C11.1167 3.74911 11.0849 3.86158 11.166 3.89982C11.2461 3.93693 11.9054 3.86158 11.9054 3.86158C11.9054 3.86158 11.9691 3.91781 11.9691 3.99317C11.9691 4.06852 11.9209 4.12363 11.9054 4.12363C11.89 4.12363 11.2461 4.06739 11.1978 4.08651C11.1496 4.10563 11.1177 4.12363 11.0048 4.12363C10.8918 4.12363 10.86 3.99317 10.7798 3.99317C10.6997 3.99317 10.6196 3.97405 10.4902 4.06852V4.06739Z" fill="#984000" stroke="#772600" stroke-width="0.0552504"/>
<path d="M12.4528 4.03081H12.7097C12.8024 4.03193 12.8343 4.06456 12.9193 4.06794H13.1443C13.2264 4.06456 13.2699 4.04206 13.3529 4.03081C13.493 4.02856 13.4456 4.01618 13.4176 3.91829C13.3925 3.84515 13.3887 3.81027 13.3529 3.76863C13.3394 3.67862 13.3085 3.64711 13.3046 3.54359C13.2902 3.46483 13.2631 3.41194 13.2892 3.31855C13.3259 3.38269 13.3404 3.40857 13.4341 3.41307C13.5306 3.41307 13.5683 3.40969 13.6272 3.4502C13.6716 3.50534 13.7315 3.48733 13.8204 3.48733C13.8938 3.50309 13.9063 3.54697 13.9643 3.58072C14.0329 3.62573 14.0773 3.63698 14.1729 3.63698C14.2502 3.65386 14.3178 3.66624 14.3661 3.69325C14.4076 3.75063 14.4723 3.76526 14.5592 3.76863C14.6075 3.76863 14.6461 3.76301 14.6877 3.74951C14.762 3.75401 14.8374 3.74951 14.9291 3.74951C14.989 3.83052 15.0025 3.8609 15.1059 3.86203C15.1773 3.92054 15.2372 3.92954 15.299 3.95542H15.5405C15.6274 3.96329 15.6544 4.00493 15.7336 4.03081C15.8016 4.06658 15.8712 4.09776 15.9422 4.1242C16.0114 4.13878 16.0816 4.14519 16.1518 4.14333C16.2107 4.17933 16.2832 4.18158 16.3286 4.21759C16.3952 4.23447 16.486 4.25472 16.5372 4.27385C16.6222 4.28735 16.655 4.31886 16.7303 4.33011C16.795 4.35262 16.7091 4.37062 16.6656 4.38637C16.571 4.383 16.5642 4.34136 16.4725 4.33011C16.4242 4.29748 16.3508 4.30198 16.2793 4.27385H16.2639C16.3276 4.31886 16.3894 4.34699 16.3604 4.42463C16.2783 4.42463 16.2117 4.41225 16.1354 4.4055C16.0543 4.3875 16.0176 4.36837 15.9268 4.36837C16.0176 4.34249 16.0408 4.37062 16.1035 4.4055C16.1267 4.49552 16.0765 4.46176 15.9905 4.46176C15.9171 4.43138 15.8727 4.39425 15.7819 4.38637H15.5888C15.6844 4.39087 15.7047 4.4325 15.7655 4.48089C15.7703 4.51014 15.7645 4.50789 15.7172 4.51802C15.667 4.46739 15.6023 4.45051 15.5241 4.42463C15.4478 4.42125 15.3676 4.41338 15.299 4.38637C15.2517 4.383 15.2594 4.31773 15.3637 4.42463C15.4265 4.46739 15.4487 4.50339 15.4439 4.53715C15.3608 4.51239 15.3203 4.47414 15.2671 4.44263C15.1949 4.41336 15.1185 4.40074 15.0421 4.4055C14.9591 4.37962 15.0508 4.36499 15.1059 4.46176C15.2256 4.56078 15.0904 4.51802 15.0421 4.49889C14.9697 4.47526 14.8943 4.44038 14.8325 4.42463C14.7842 4.40775 14.7418 4.392 14.6877 4.38637C14.7717 4.39537 14.7997 4.43025 14.8325 4.49889C14.9175 4.5664 14.8287 4.53377 14.7524 4.51802C14.7041 4.46851 14.6413 4.44263 14.6075 4.38637C14.5273 4.34024 14.5244 4.2851 14.5756 4.4055C14.5882 4.44376 14.5853 4.52702 14.5911 4.53715C14.5322 4.46176 14.5447 4.44263 14.4791 4.44263C14.4337 4.40663 14.368 4.37849 14.3342 4.33011C14.2724 4.32336 14.2685 4.29748 14.2057 4.27385C14.2569 4.34474 14.3255 4.4145 14.3661 4.48089C14.4395 4.52815 14.4597 4.5709 14.5109 4.61141C14.5312 4.65304 14.5882 4.6868 14.5273 4.63054C14.4578 4.55178 14.4066 4.53265 14.3023 4.48089C14.2424 4.42463 14.2212 4.40212 14.1574 4.34924C14.0705 4.31661 14.1043 4.29861 14.1574 4.4055C14.2183 4.47076 14.2646 4.54277 14.3178 4.59341C14.3594 4.65136 14.4083 4.70179 14.4626 4.74306C14.4771 4.76782 14.5206 4.77232 14.4626 4.78019C14.4143 4.72843 14.3429 4.6958 14.2859 4.64854C14.2057 4.62266 14.1681 4.57428 14.1092 4.51802C14.0705 4.45163 14.0087 4.401 13.9643 4.34924C13.8716 4.30648 13.9826 4.38975 14.0126 4.44263C14.0329 4.51127 14.0589 4.5664 14.0763 4.63054C14.1034 4.69243 13.9952 4.61591 13.9643 4.59341C13.9007 4.54545 13.8294 4.51327 13.7547 4.49889C13.6907 4.48397 13.6263 4.47158 13.5615 4.46176C13.4891 4.43926 13.6011 4.51577 13.6427 4.59341C13.7238 4.6823 13.5625 4.60916 13.5142 4.59341C13.4345 4.57763 13.3536 4.57122 13.2728 4.57428C13.1694 4.58103 13.2438 4.59678 13.2728 4.64854C13.3046 4.6778 13.3269 4.73856 13.3211 4.76106C13.2535 4.74981 13.1955 4.72731 13.1115 4.72393C13.0439 4.74981 12.9637 4.74306 12.8864 4.74306C12.8836 4.79032 12.9009 4.74981 12.9347 4.79932C12.9908 4.8252 13.0275 4.85671 13.0159 4.89271H12.5494C12.4982 4.90847 12.56 4.90059 12.5977 4.9681C12.5764 5.02886 12.5494 5.00523 12.4847 5.00523C12.4412 4.98498 12.3533 4.97598 12.3079 4.94897C12.2625 4.94897 12.2664 4.93547 12.2278 4.92985C12.363 5.04237 12.2954 5.01424 12.3726 5.09863C12.3852 5.10425 12.4161 5.11775 12.3881 5.11775M11.3267 5.71749C11.317 5.71749 11.2958 5.65673 11.2629 5.60497C11.2398 5.53746 11.2108 5.57571 11.1818 5.47332C11.1857 5.36755 11.1886 5.34955 11.1818 5.24828C11.1161 5.19427 11.0881 5.17852 11.0369 5.0795C10.9558 5.00073 11.0495 4.86571 11.0649 4.76669C10.9935 4.74869 10.9587 4.89609 10.8496 4.94897C10.7704 5.01086 10.8399 4.8207 10.8013 4.71043C10.7752 4.55403 10.697 4.78919 10.668 4.85558C10.6149 4.89721 10.5985 4.95122 10.5231 4.87359C10.5231 4.8162 10.5705 4.65417 10.5502 4.62266C10.4748 4.66655 10.3763 4.79707 10.2981 4.81732C10.2189 4.7982 10.3145 4.65079 10.3145 4.54165C10.2855 4.5304 10.1725 4.83195 10.1262 4.8342C10.0798 4.83645 10.1001 4.54165 10.0779 4.5484C10.0441 4.60466 9.97553 4.72168 9.9282 4.76219C9.83645 4.74756 9.94172 4.56528 9.95524 4.49777C9.9707 4.41675 9.86929 4.65304 9.8152 4.66767C9.7756 4.70818 9.69738 4.73518 9.67033 4.74306C9.70124 4.6733 9.85383 4.53265 9.84418 4.49214C9.75436 4.49552 9.61818 4.63279 9.54188 4.64967C9.49166 4.64967 9.42212 4.6688 9.41343 4.66767C9.41729 4.57766 9.6008 4.50339 9.62977 4.44826C9.53995 4.46514 9.36707 4.5574 9.31685 4.63054C9.25697 4.64517 9.18164 4.6643 9.12369 4.63054C9.13238 4.54615 9.26759 4.383 9.29753 4.32899C9.21544 4.37062 9.17488 4.40325 9.08796 4.42238C9.07154 4.44151 9.02518 4.48201 9.03966 4.44151C9.06574 4.36274 9.10437 4.32899 9.13625 4.27273C9.06381 4.28848 9.03677 4.33686 8.9595 4.38525C8.91025 4.3875 8.76924 4.5529 8.72192 4.55515C8.64184 4.62875 8.54833 4.67995 8.44859 4.7048C8.37519 4.72056 8.33946 4.73856 8.30372 4.78019C8.34043 4.7048 8.39644 4.63392 8.44859 4.59341C8.48055 4.52523 8.53172 4.47197 8.59347 4.44263C8.61182 4.41675 8.66204 4.41 8.60892 4.4055C8.56353 4.45276 8.48626 4.50677 8.44859 4.53715C8.39934 4.57316 8.34236 4.60916 8.31918 4.59341C8.34525 4.51239 8.39161 4.49214 8.43218 4.42463C8.51717 4.36162 8.43218 4.40212 8.36747 4.42463C8.32594 4.46739 8.25157 4.50002 8.19073 4.53715C8.12312 4.5574 8.07773 4.60466 7.99757 4.63054C7.99757 4.65755 8.02075 4.58216 8.0304 4.55515C8.09608 4.47189 8.11346 4.44826 8.19073 4.42463C8.21004 4.392 8.23322 4.4055 8.17527 4.4055C8.13085 4.45051 8.07097 4.47526 8.01398 4.51802C7.957 4.53265 7.88264 4.53715 7.80537 4.53715C7.70493 4.55065 7.71362 4.55965 7.80537 4.49889C7.85656 4.44263 7.89905 4.45726 7.90195 4.38637C7.84111 4.43813 7.76674 4.47639 7.69237 4.51802C7.63056 4.52027 7.61414 4.53715 7.5475 4.53715C7.57937 4.49889 7.59869 4.45051 7.64408 4.42463C7.71169 4.33799 7.60159 4.40775 7.57937 4.42463H7.33792C7.29543 4.48764 7.33599 4.42463 7.37076 4.38637C7.41229 4.36162 7.45575 4.32899 7.45092 4.31211C7.40263 4.36049 7.34758 4.383 7.30605 4.42463C7.26163 4.44038 7.20947 4.44713 7.20947 4.46176C7.24521 4.40212 7.30219 4.36499 7.33889 4.31211C7.39297 4.29861 7.43933 4.27835 7.45092 4.25585H7.22589H7.38621C7.46831 4.25585 7.53784 4.24685 7.61221 4.23672C7.7397 4.21196 7.60062 4.19959 7.53108 4.19959C7.51853 4.17033 7.57165 4.15458 7.62766 4.14333C7.67595 4.11632 7.7368 4.09269 7.78895 4.06794C7.835 4.05164 7.87841 4.02654 7.9174 3.99367C7.86911 3.99593 7.86911 4.00943 7.82082 4.01168C7.89326 4.00605 7.94445 3.99367 8.0304 3.99367C8.10119 3.96649 8.17081 3.93532 8.23902 3.90028C8.26799 3.85978 8.27958 3.86203 8.20714 3.86203C8.27185 3.8384 8.3636 3.82602 8.41576 3.80577C8.48233 3.78952 8.54712 3.76461 8.60892 3.7315C8.65624 3.69437 8.68328 3.65049 8.73737 3.61898C8.80015 3.66849 8.80111 3.67524 8.91411 3.67524C9.0049 3.67412 9.06091 3.64824 9.10727 3.59985C9.17681 3.57735 9.18936 3.53909 9.26856 3.52559C9.34298 3.53921 9.41827 3.54523 9.49359 3.54359C9.57086 3.51996 9.64522 3.47608 9.7022 3.43107C9.75146 3.40294 9.81037 3.36244 9.86349 3.33768C9.92144 3.37256 9.9678 3.40069 10.0402 3.41307C10.1146 3.39957 10.1542 3.35681 10.217 3.33768C10.2557 3.28967 10.3064 3.25701 10.3618 3.24429C10.4555 3.19028 10.4488 3.26117 10.4903 3.31855C10.5386 3.37706 10.6004 3.34893 10.667 3.37481C10.7047 3.44232 10.7317 3.48733 10.78 3.52446C10.8177 3.57847 10.8621 3.59198 10.9413 3.59985C10.9703 3.64486 10.9471 3.67637 11.0051 3.69325C11.0282 3.7225 11.0678 3.73375 11.1016 3.74951" stroke="#772600" stroke-width="0.0364861"/>
<path d="M12.2669 5.23925V5.24824C12.2669 5.22238 12.2669 5.237 12.2833 5.28648C12.2891 5.32697 12.2755 5.32247 12.2591 5.35171C12.2562 5.39333 12.2514 5.42369 12.2514 5.47318C12.2456 5.51366 12.2263 5.5519 12.2109 5.58564C12.1954 5.62051 12.1288 5.64075 12.1307 5.68911C12.0921 5.70148 12.0912 5.67224 12.0902 5.62276C12.067 5.59239 12.0593 5.55078 12.0419 5.51029C12.0323 5.47205 12.0091 5.44281 11.9937 5.39782C11.9705 5.35621 11.9502 5.34384 11.93 5.29548C11.9213 5.27299 11.9232 5.24375 11.9058 5.23025C11.8798 5.19089 11.8624 5.18526 11.817 5.18301C11.7823 5.19201 11.7687 5.21001 11.7369 5.22013C11.7118 5.23025 11.6635 5.22688 11.6326 5.23925C11.6249 5.25387 11.6481 5.26174 11.6568 5.29548C11.6355 5.31572 11.6278 5.35059 11.6162 5.37983C11.5969 5.40795 11.5844 5.42144 11.5757 5.46418C11.5892 5.49005 11.5776 5.52491 11.5602 5.54853C11.5544 5.59127 11.5361 5.61488 11.5274 5.65087C11.5023 5.67224 11.4927 5.69136 11.4714 5.72622C11.4531 5.75659 11.4367 5.75434 11.3913 5.75434C11.3556 5.74309 11.3508 5.7206 11.3189 5.7071C11.3176 5.69736 11.3121 5.69136 11.3025 5.68911" stroke="#782600" stroke-width="0.0323163"/>
<path fill-rule="evenodd" clip-rule="evenodd" d="M11.36 5.62409C11.36 5.62409 11.3459 5.79756 11.2334 5.91477C11.1209 6.03198 10.8865 6.16794 10.8865 6.16794C10.8865 6.16794 11.2006 6.0226 11.2334 6.05073C11.2662 6.07886 11.0318 6.3461 11.0318 6.3461C11.0318 6.3461 11.3366 6.06949 11.3788 6.06949C11.4209 6.06949 11.5053 6.33672 11.5382 6.33203C11.571 6.32734 11.4678 5.99447 11.4819 5.9429C11.496 5.89133 11.4819 5.61472 11.4819 5.61472L11.36 5.62409ZM12.0867 5.60065C12.0867 5.60065 12.0726 5.78818 11.9554 5.91008C11.8382 6.03198 11.6085 6.18201 11.6085 6.18201C11.6085 6.18201 11.9273 6.0226 11.9554 6.06011C11.9835 6.09762 11.7538 6.36954 11.7538 6.36954C11.7538 6.36954 12.0633 6.07886 12.1008 6.07886C12.1383 6.07886 12.232 6.36016 12.2649 6.36016C12.2977 6.35079 12.1898 5.99447 12.2086 5.93821C12.2227 5.88664 12.2086 5.58659 12.2086 5.58659L12.0867 5.60065ZM11.0693 3.89878C11.0662 3.93941 11.0412 3.96129 10.9943 3.96441C10.924 3.9691 10.9193 3.93628 10.9193 3.89878C10.9193 3.86127 10.9521 3.83783 10.9943 3.83783C11.0365 3.83783 11.0693 3.86596 11.0693 3.89878Z" fill="#812E00"/>
</g>
<defs>
<clipPath id="clip0_720_53475">
<rect width="24.0044" height="24.0044" fill="white" transform="translate(0.00439453 0.0261841)"/>
</clipPath>
</defs>
</svg>
