<svg width="25" height="25" viewBox="0 0 25 25" fill="none" xmlns="http://www.w3.org/2000/svg">
<g clip-path="url(#clip0_720_53417)">
<path d="M0.0090332 16.0276H24.0134V24.0306H0.0090332V16.0276Z" fill="#000001"/>
<path d="M0.0090332 8.02921H24.0134V16.0275H0.0090332V8.02921Z" fill="white"/>
<path d="M0.00927734 0.0261536H24.0136V8.02917H0.00927734V0.0261536Z" fill="#CE1126"/>
<path d="M12.0438 12.1243L14.7842 14.6688L14.5882 10.048C14.5602 9.34784 13.9521 9.50786 13.508 9.75991C13.0639 10.048 12.5478 10.048 12.0118 9.85993C11.4717 10.048 10.9596 10.048 10.5155 9.75991C10.0754 9.50786 9.4633 9.34784 9.43529 10.048L9.23926 14.6688L12.0438 12.1243Z" fill="white" stroke="#C09300" stroke-width="0.0520093" stroke-linejoin="round"/>
<path d="M9.75135 9.88794L9.55931 14.3807L9.23926 14.6688L9.43529 10.048C9.52981 9.97548 9.63698 9.92122 9.75135 9.88794ZM10.1354 10.208L9.97539 13.9687L9.65533 14.2967L9.84737 9.95595C9.91138 10.02 10.0994 10.176 10.1354 10.208ZM10.4835 10.496L10.3595 13.6326L10.0994 13.8847L10.2594 10.308C10.3235 10.368 10.4515 10.46 10.4835 10.496ZM10.8635 10.6561L10.7395 13.3286L10.4875 13.5326L10.6115 10.5601C10.6755 10.5881 10.7995 10.6561 10.8635 10.6561ZM11.2156 10.6561L11.1236 12.8845L10.8635 13.1365L10.9636 10.6841C11.0236 10.6841 11.1876 10.6841 11.2156 10.6561Z" fill="#C09300"/>
<path d="M14.2721 9.88794L14.4641 14.3807L14.7842 14.6688L14.5881 10.048C14.4936 9.97548 14.3865 9.92122 14.2721 9.88794ZM13.888 10.208L14.048 13.9687L14.3681 14.2967L14.1761 9.95595C14.1121 10.02 13.924 10.176 13.888 10.208ZM13.54 10.496L13.664 13.6326L13.924 13.8847L13.764 10.308C13.7 10.368 13.572 10.46 13.54 10.496ZM13.1599 10.6561L13.2839 13.3286L13.536 13.5326L13.4119 10.5601C13.3479 10.5881 13.2239 10.6561 13.1599 10.6561ZM12.8078 10.6561L12.8998 12.8845L13.1599 13.1365L13.0599 10.6841C12.9999 10.6841 12.8358 10.6841 12.8078 10.6561Z" fill="#C09300"/>
<path d="M12.1393 12.6284L12.5232 14.3799L12.3952 14.5078L12.2633 14.4079L12.0473 12.8484L12.1393 14.4079L12.0114 14.5678L11.8874 14.4079L11.9794 12.8484L11.7594 14.4079L11.6275 14.5078L11.4995 14.3799L11.8834 12.6324H12.1393V12.6284Z" fill="#C09300" stroke="#C09300" stroke-width="0.0440078"/>
<path d="M11.1516 11.8602L10.3875 14.5687L11.4396 14.7287L11.8837 12.6924L11.1516 11.8602Z" fill="white" stroke="#C09300" stroke-width="0.0480085" stroke-linejoin="round"/>
<path d="M10.8997 12.7883L10.9916 13.0083L11.4875 12.5364" stroke="#C09300" stroke-width="0.0520093" stroke-linejoin="round"/>
<path d="M11.2437 12.2281L11.3477 13.2003L11.6638 12.7842M11.5357 12.9442L11.7078 13.5444M11.7758 13.3243L11.4277 13.8524M11.5357 14.3805L11.4237 13.8524M11.4237 13.8524L11.3277 13.3163L11.0917 13.6324L10.9916 13.2683L10.6636 13.6044L10.8276 14.2125L11.0596 13.8364L11.1837 14.2205L11.4237 13.8524Z" stroke="#C09300" stroke-width="0.0520093" stroke-linejoin="round"/>
<path d="M10.6116 14.5086L10.8235 14.2087L10.9595 14.6686L11.1514 14.3487L11.2754 14.7325" stroke="#C09300" stroke-width="0.0520093" stroke-linejoin="round"/>
<path d="M12.8716 11.8603L13.6357 14.5687L12.5836 14.7288L12.1395 12.6924L12.8716 11.8603Z" fill="white" stroke="#C09300" stroke-width="0.0480085" stroke-linejoin="round"/>
<path d="M13.1235 12.7883L13.0316 13.0083L12.5357 12.5364" stroke="#C09300" stroke-width="0.0520093" stroke-linejoin="round"/>
<path d="M12.7795 12.2283L12.6755 13.2005L12.3594 12.7844M12.4875 12.9445L12.3154 13.5446M12.2474 13.3245L12.5955 13.8526M12.4875 14.3807L12.5995 13.8526M12.5995 13.8526L12.6955 13.3165L12.9315 13.6326L13.0316 13.2685L13.3596 13.6046L13.1956 14.2127L12.9635 13.8366L12.8395 14.2207L12.5995 13.8526Z" stroke="#C09300" stroke-width="0.0520093" stroke-linejoin="round"/>
<path d="M13.4116 14.5086L13.1997 14.2087L13.0637 14.6686L12.8718 14.3487L12.7478 14.7325" stroke="#C09300" stroke-width="0.0520093" stroke-linejoin="round"/>
<path d="M12.0117 15.781C12.8119 15.781 13.572 15.717 14.0201 15.593C14.2081 15.557 14.2081 15.461 14.2081 15.333C14.4002 15.269 14.3041 15.0449 14.4362 15.0449C14.3001 15.0849 14.2761 14.8249 14.1161 14.8569C14.1161 14.6328 13.8881 14.6048 13.7 14.6689C13.32 14.7929 12.6479 14.8249 12.0117 14.8249C11.3716 14.7929 10.7075 14.7929 10.3234 14.6649C10.1354 14.6048 9.91137 14.6328 9.91137 14.8569C9.75134 14.8249 9.72333 15.0809 9.59131 15.0449C9.72333 15.0449 9.62331 15.273 9.81535 15.333C9.81535 15.461 9.81535 15.557 10.0074 15.593C10.4475 15.717 11.2156 15.781 12.0117 15.781Z" fill="white" stroke="#C09300" stroke-width="0.0960171" stroke-linecap="round" stroke-linejoin="round"/>
<path d="M10.9275 14.5687C11.1835 14.6047 11.4716 14.6327 11.6956 14.6047C11.8236 14.6047 11.9156 14.8247 11.6596 14.8567C11.4396 14.8847 11.0875 14.8567 10.8995 14.8247C10.652 14.7814 10.4064 14.728 10.1633 14.6647C9.93929 14.5687 10.0993 14.3847 10.2273 14.4087C10.4557 14.4819 10.6899 14.5354 10.9275 14.5687ZM13.0958 14.5687C12.8398 14.6047 12.5518 14.6327 12.3357 14.6047C12.1997 14.6047 12.1077 14.8247 12.3637 14.8567C12.5878 14.8847 12.9358 14.8567 13.1239 14.8247C13.2839 14.7927 13.6359 14.7327 13.86 14.6647C14.084 14.5687 13.924 14.3847 13.796 14.4087C13.5676 14.4819 13.3334 14.5354 13.0958 14.5687Z" fill="white" stroke="#C09300" stroke-width="0.0520093" stroke-linecap="round" stroke-linejoin="round"/>
<path d="M10.1315 14.4447C9.93946 14.4087 9.85144 14.6327 9.91145 14.7607C9.93946 14.6967 10.0715 14.6967 10.0995 14.6327C10.1355 14.5367 10.0715 14.5367 10.1355 14.4447H10.1315ZM10.8996 15.0328C10.8996 14.9047 11.0237 14.9207 11.0237 14.7927C11.0237 14.7327 10.9916 14.6327 10.9276 14.6327C10.8943 14.6346 10.8628 14.6487 10.8392 14.6723C10.8156 14.6959 10.8015 14.7274 10.7996 14.7607C10.7716 14.8847 10.8996 14.9047 10.8996 15.0328ZM11.8078 14.6687C11.9958 14.6687 11.9758 14.9207 11.8878 15.0488C11.8878 14.9568 11.7278 14.9207 11.7278 14.8567C11.7278 14.7607 11.8718 14.7607 11.8078 14.6687ZM13.8882 14.4447C14.0842 14.4087 14.1762 14.6327 14.1122 14.7607C14.0842 14.6967 13.9522 14.6967 13.9242 14.6327C13.8882 14.5367 13.9522 14.5367 13.8882 14.4447ZM13.132 15.0288C13.132 14.9007 13.004 14.9167 13.004 14.7887C13.004 14.7287 13.036 14.6287 13.1 14.6287C13.1334 14.6306 13.1648 14.6447 13.1884 14.6683C13.212 14.6919 13.2261 14.7234 13.228 14.7567C13.256 14.8807 13.128 14.9007 13.128 15.0288H13.132ZM12.2119 14.6687C12.0238 14.6687 12.0438 14.9207 12.1318 15.0488C12.1318 14.9568 12.2919 14.9207 12.2919 14.8567C12.2919 14.7607 12.1479 14.7607 12.2119 14.6687Z" fill="white" stroke="#C09300" stroke-width="0.0520093" stroke-linecap="round" stroke-linejoin="round"/>
<path d="M10.1995 14.5086C10.2635 14.5086 10.3595 14.5366 10.3875 14.5726L10.1995 14.5086ZM10.5155 14.6047C10.5475 14.6047 10.6755 14.6327 10.7356 14.6687L10.5155 14.6047ZM11.6597 14.7327C11.5997 14.7327 11.4717 14.7327 11.4397 14.7607L11.6597 14.7287V14.7327ZM11.3117 14.7327C11.2757 14.6967 11.1516 14.6967 11.0876 14.7327H11.3117ZM13.8241 14.5086C13.7562 14.5095 13.6904 14.5319 13.6361 14.5726L13.8241 14.5086ZM13.5121 14.6047C13.472 14.6047 13.352 14.6327 13.288 14.6687L13.5121 14.6047ZM12.3638 14.7327C12.4239 14.7327 12.5519 14.7327 12.5879 14.7607L12.3638 14.7287V14.7327ZM12.7119 14.7327C12.7479 14.6967 12.8719 14.6967 12.9359 14.7327H12.7119Z" fill="white" stroke="#C09300" stroke-width="0.0360064" stroke-linecap="round" stroke-linejoin="round"/>
<path d="M10.1435 15.0128C10.1222 15.0048 10.1142 14.9914 10.1195 14.9728C10.1275 14.9461 10.1409 14.9354 10.1595 14.9408C10.1755 14.9408 10.1955 14.9648 10.1955 14.9728L10.1795 15.0008L10.1715 15.0048C10.1689 15.0128 10.1595 15.0154 10.1435 15.0128ZM12.3439 15.1688C12.3332 15.1635 12.3252 15.1541 12.3199 15.1408C12.3199 15.1248 12.3439 15.1008 12.3599 15.1008L12.3919 15.1168C12.4053 15.1328 12.4039 15.1488 12.3879 15.1648C12.3746 15.1728 12.3599 15.1728 12.3439 15.1648V15.1688ZM12.3559 15.2688C12.3426 15.2635 12.3346 15.2528 12.3319 15.2368C12.3292 15.2208 12.3359 15.2088 12.3519 15.2008L12.3679 15.1928L12.3839 15.2008C12.3999 15.2061 12.4093 15.2168 12.4119 15.2328C12.4119 15.2461 12.4026 15.2568 12.3839 15.2648C12.3733 15.2728 12.3639 15.2728 12.3559 15.2648V15.2688Z" fill="#C09300"/>
<path d="M10.3236 14.8288C10.3049 14.8315 10.2889 14.8395 10.2756 14.8528C10.2516 14.8568 10.2196 14.8728 10.1956 14.8528C10.1716 14.8488 10.1396 14.8528 10.1356 14.8848C10.1396 14.9128 10.1756 14.9248 10.1996 14.9088C10.2156 14.8888 10.2596 14.8728 10.2676 14.9088C10.2476 14.9408 10.2516 14.9768 10.2356 15.0048C10.2329 15.0235 10.2263 15.0408 10.2156 15.0568C10.1943 15.0568 10.1756 15.0608 10.1596 15.0688C10.1472 15.0688 10.1349 15.0717 10.1238 15.0773C10.1127 15.0828 10.103 15.0909 10.0956 15.1008C10.0769 15.1248 10.0649 15.1515 10.0596 15.1809C10.0636 15.2049 10.0996 15.2129 10.1236 15.2169L10.2036 15.2409L10.3316 15.2769L10.5237 15.3209L10.5437 15.3249C10.5717 15.3329 10.5837 15.3049 10.5837 15.2849L10.6237 15.1409C10.6317 15.1208 10.6437 15.0808 10.6077 15.0888C10.589 15.1048 10.5677 15.1155 10.5437 15.1208C10.5076 15.1208 10.5277 15.1609 10.5437 15.1729C10.5437 15.1995 10.537 15.2235 10.5237 15.2449C10.4996 15.2529 10.4756 15.2502 10.4516 15.2369C10.4316 15.2369 10.3836 15.2249 10.4036 15.1969L10.4236 15.1248L10.4436 15.0448C10.4276 15.0168 10.4036 15.0568 10.3836 15.0608C10.3636 15.0648 10.3196 15.0728 10.3436 15.1008C10.3676 15.1168 10.3516 15.1449 10.3436 15.1689C10.3436 15.1969 10.3116 15.2089 10.2876 15.1969C10.2636 15.1969 10.2276 15.1769 10.2476 15.1529L10.2676 15.0808L10.2956 15.0008C10.2956 14.9742 10.3036 14.9502 10.3196 14.9288C10.3196 14.9008 10.3396 14.8768 10.3396 14.8488C10.3396 14.8381 10.3343 14.8328 10.3236 14.8328V14.8288ZM10.1756 15.1208H10.1876C10.1956 15.1288 10.1956 15.1369 10.1876 15.1449L10.1756 15.1529C10.1569 15.1529 10.1489 15.1489 10.1516 15.1409L10.1636 15.1288L10.1756 15.1208ZM10.1356 15.3209C10.1169 15.3075 10.1209 15.2902 10.1476 15.2689C10.1583 15.2609 10.1703 15.2622 10.1836 15.2729C10.2076 15.2889 10.2076 15.3062 10.1836 15.3249C10.1783 15.3329 10.1716 15.3356 10.1636 15.3329C10.1556 15.3302 10.1463 15.3276 10.1356 15.3249V15.3209ZM10.2556 15.3609C10.2472 15.3574 10.2402 15.3511 10.2359 15.3431C10.2315 15.3351 10.23 15.3259 10.2316 15.3169C10.2343 15.3009 10.2463 15.2942 10.2676 15.2969C10.2916 15.2942 10.3036 15.3035 10.3036 15.3249C10.3036 15.3382 10.2996 15.3476 10.2916 15.3529L10.2556 15.3609ZM13.8242 15.3609C13.8162 15.3582 13.8122 15.3516 13.8122 15.3409C13.8122 15.3249 13.8229 15.3129 13.8442 15.3049C13.8682 15.2915 13.8843 15.2942 13.8923 15.3129C13.9056 15.3342 13.9043 15.3502 13.8883 15.3609C13.8829 15.3716 13.8722 15.3756 13.8562 15.3729C13.8376 15.3729 13.8269 15.3702 13.8242 15.3649V15.3609ZM10.4236 15.4089C10.4076 15.4062 10.3996 15.3956 10.3996 15.3769C10.3996 15.3662 10.4023 15.3582 10.4076 15.3529L10.4316 15.3449L10.4556 15.3489C10.477 15.3649 10.481 15.3809 10.4676 15.3969C10.4543 15.4129 10.4383 15.4169 10.4196 15.4089H10.4236ZM11.2958 15.4489L11.2878 15.4369C11.2878 15.4129 11.2905 15.3902 11.2958 15.3689L11.3038 15.3089L11.3198 15.1969C11.3198 15.1755 11.3225 15.1569 11.3278 15.1409C11.3278 15.1088 11.3305 15.0795 11.3358 15.0528C11.3358 15.0408 11.3478 15.0128 11.3598 15.0288C11.3758 15.0502 11.3945 15.0702 11.4158 15.0888C11.4318 15.1008 11.4158 15.1168 11.4038 15.1208C11.3878 15.1288 11.3811 15.1422 11.3838 15.1609L11.3758 15.2089L11.3678 15.2889L11.3638 15.3609L11.3558 15.4089C11.3585 15.4276 11.3531 15.4422 11.3398 15.4529C11.3238 15.4609 11.3105 15.4596 11.2998 15.4489H11.2958ZM12.484 15.0568L12.432 15.1048C12.408 15.1248 12.452 15.1329 12.456 15.1489C12.464 15.1729 12.4667 15.1969 12.464 15.2209C12.472 15.2449 12.4747 15.2675 12.472 15.2889C12.472 15.3169 12.44 15.3089 12.424 15.3249C12.408 15.3356 12.3947 15.3489 12.384 15.3649L12.368 15.4289C12.368 15.4489 12.356 15.4689 12.368 15.4849L12.372 15.4929H12.392L12.452 15.4889L12.6 15.4769L12.688 15.4689C12.712 15.4729 12.724 15.4489 12.724 15.4289C12.708 15.4009 12.72 15.3729 12.708 15.3489L12.7 15.2609C12.7 15.2369 12.672 15.2289 12.66 15.2449L12.612 15.2809C12.6 15.3049 12.636 15.3049 12.644 15.3209L12.648 15.3809C12.652 15.4049 12.628 15.4049 12.608 15.4089C12.584 15.4196 12.564 15.4156 12.548 15.3969C12.5427 15.3782 12.54 15.3582 12.54 15.3369L12.528 15.2289L12.516 15.1008C12.516 15.0808 12.512 15.0528 12.484 15.0568ZM12.46 15.3849H12.472V15.4169L12.46 15.4209L12.444 15.4249H12.436C12.428 15.4169 12.4293 15.4062 12.44 15.3929L12.46 15.3849ZM11.2598 15.0168C11.2478 15.0168 11.2278 15.0448 11.2118 15.0408C11.1758 15.0448 11.1798 15.0808 11.2078 15.0928V15.1248C11.2118 15.1569 11.1918 15.1849 11.1958 15.2169L11.1838 15.3209C11.1731 15.3582 11.1678 15.3942 11.1678 15.4289C11.1638 15.4609 11.1398 15.4489 11.1198 15.4409V15.4009C11.1198 15.3689 11.1038 15.3529 11.0718 15.3529C11.0451 15.3502 11.0344 15.3356 11.0397 15.3089C11.0557 15.2982 11.0758 15.2942 11.0998 15.2969C11.1398 15.3049 11.1358 15.2529 11.1158 15.2329C11.0958 15.2129 11.0677 15.1929 11.0597 15.1689C11.0597 15.1342 11.0437 15.1062 11.0117 15.0848C10.9677 15.0808 10.9317 15.1168 10.9197 15.1569C10.8984 15.1569 10.8797 15.1622 10.8637 15.1729C10.8357 15.1809 10.7957 15.2289 10.8357 15.2489C10.8557 15.2529 10.9237 15.2689 10.8917 15.2969C10.873 15.3236 10.8477 15.3316 10.8157 15.3209C10.7877 15.3209 10.7557 15.3049 10.7557 15.2729C10.7557 15.2409 10.7504 15.2102 10.7397 15.1809C10.7317 15.1489 10.6957 15.1569 10.6917 15.1889C10.665 15.2155 10.6637 15.2422 10.6877 15.2689C10.6957 15.3009 10.6917 15.3302 10.6757 15.3569C10.6677 15.3969 10.6277 15.3969 10.5997 15.4049C10.5877 15.4129 10.5357 15.4049 10.5557 15.4329C10.5857 15.4467 10.6192 15.4509 10.6517 15.4449C10.6837 15.4396 10.7104 15.4209 10.7317 15.3889C10.7517 15.3689 10.7877 15.3809 10.8197 15.3809C10.8477 15.3809 10.8797 15.4009 10.9117 15.3849C10.9197 15.3649 10.9597 15.3249 10.9717 15.3649C10.9771 15.4022 10.9971 15.4182 11.0317 15.4129C11.0677 15.4129 11.0517 15.4369 11.0517 15.4609C11.0571 15.4956 11.0771 15.5196 11.1118 15.5329H11.1438C11.1758 15.5249 11.1998 15.5063 11.2158 15.4769L11.2358 15.3889L11.2518 15.2529C11.2598 15.2129 11.2651 15.1702 11.2678 15.1248L11.2798 15.0328C11.2798 15.0168 11.2731 15.0115 11.2598 15.0168ZM10.9917 15.1809C10.9971 15.1809 10.9997 15.1875 10.9997 15.2009C10.9997 15.2142 11.0064 15.2249 11.0197 15.2329V15.2449L10.9877 15.2529C10.9691 15.2529 10.9531 15.2462 10.9397 15.2329L10.9317 15.2249L10.9437 15.2169L10.9637 15.1969C10.9744 15.1862 10.9837 15.1809 10.9917 15.1809ZM13.6322 14.8648L13.5642 14.8768C13.5242 14.8768 13.5042 14.9168 13.5442 14.9408C13.5682 15.0008 13.6042 14.9248 13.6442 14.9328C13.7002 14.9408 13.7042 15.0048 13.7162 15.0528C13.7189 15.0955 13.7282 15.1395 13.7442 15.1849C13.7842 15.2289 13.7162 15.2569 13.6882 15.2249C13.6642 15.1969 13.6082 15.1649 13.5802 15.2009C13.5442 15.2169 13.5402 15.2649 13.5122 15.2809C13.4642 15.2929 13.4602 15.2329 13.4322 15.2089C13.4082 15.1729 13.3642 15.1689 13.3282 15.1609C13.3121 15.1248 13.3201 15.0648 13.2881 15.0408C13.2561 15.0528 13.2001 15.1088 13.2481 15.1369C13.2881 15.1769 13.2281 15.1929 13.2081 15.2169C13.1788 15.2542 13.1655 15.2942 13.1681 15.3369C13.1161 15.3649 13.1081 15.3049 13.1001 15.2689C13.1001 15.2249 13.0601 15.2369 13.0321 15.2529C12.9974 15.2742 12.9708 15.3009 12.9521 15.3329V15.4129C12.9601 15.4489 13.0001 15.4329 13.0241 15.4289C13.0641 15.4129 13.0801 15.4569 13.0481 15.4809C13.0241 15.5049 12.9601 15.4929 12.9681 15.5369H13.0321C13.0721 15.5249 13.1201 15.4929 13.1241 15.4449C13.1321 15.4049 13.1921 15.4089 13.2241 15.4009C13.2641 15.3889 13.3161 15.3849 13.3282 15.4409C13.3562 15.4689 13.4162 15.5009 13.4482 15.4609C13.4651 15.4531 13.4787 15.4396 13.4867 15.4228C13.4948 15.406 13.4967 15.387 13.4922 15.3689C13.4882 15.3369 13.5442 15.3369 13.5602 15.3569C13.5802 15.3889 13.6442 15.3809 13.6762 15.3569C13.7082 15.3329 13.7162 15.2929 13.7642 15.2929L13.9803 15.2329C14.0363 15.2209 13.9723 15.1849 13.9563 15.1609C13.9163 15.1409 13.8762 15.2289 13.8282 15.1849C13.7882 15.1569 13.7922 15.1048 13.7802 15.0608C13.7682 15.0048 13.7722 14.9408 13.7322 14.9008C13.7056 14.8741 13.6722 14.8621 13.6322 14.8648ZM13.3602 15.2449L13.3802 15.2529C13.3962 15.2635 13.4055 15.2769 13.4082 15.2929C13.4082 15.2982 13.4042 15.3022 13.3962 15.3049L13.3762 15.3129C13.3628 15.3102 13.3535 15.3035 13.3482 15.2929V15.2769C13.3402 15.2635 13.3402 15.2555 13.3482 15.2529L13.3602 15.2449ZM13.6202 15.2609C13.6335 15.2609 13.6442 15.2649 13.6522 15.2729C13.6575 15.2862 13.6522 15.2969 13.6362 15.3049L13.6162 15.3129L13.6002 15.3009C13.5922 15.2982 13.5882 15.2929 13.5882 15.2849C13.5909 15.2715 13.6015 15.2622 13.6202 15.2569V15.2609ZM13.2601 15.2609C13.2681 15.2609 13.2735 15.2635 13.2761 15.2689C13.2841 15.2742 13.2881 15.2822 13.2881 15.2929V15.3169C13.2935 15.3249 13.2855 15.3276 13.2641 15.3249C13.2321 15.3209 13.2361 15.3249 13.2361 15.3009C13.2361 15.2875 13.2401 15.2782 13.2481 15.2729C13.2561 15.2675 13.2615 15.2649 13.2641 15.2649L13.2601 15.2609ZM13.0441 15.3209L13.0601 15.3369C13.0601 15.3476 13.0574 15.3556 13.0521 15.3609C13.0361 15.3662 13.0228 15.3662 13.0121 15.3609V15.3569C13.0041 15.3516 13.0041 15.3476 13.0121 15.3449V15.3409L13.0201 15.3289L13.0441 15.3209ZM13.4122 15.3689L13.4322 15.3729V15.3969H13.3842L13.3802 15.3889C13.3802 15.3809 13.3828 15.3756 13.3882 15.3729L13.4122 15.3689ZM12.728 15.5609C12.72 15.5609 12.7187 15.5583 12.724 15.5529C12.732 15.5423 12.7427 15.5343 12.7561 15.5289C12.7782 15.5213 12.7977 15.5074 12.8121 15.4889L12.8281 15.4489L12.8241 15.3929C12.8181 15.3764 12.8068 15.3624 12.7921 15.3529C12.7761 15.3529 12.7654 15.3449 12.7601 15.3289L12.7761 15.2929L12.8001 15.2449C12.8161 15.2369 12.8267 15.2395 12.8321 15.2529L12.8521 15.2929C12.8627 15.3035 12.8707 15.3169 12.8761 15.3329L12.8921 15.3729L12.9001 15.4249L12.8921 15.4889L12.8681 15.5209C12.8574 15.5343 12.8441 15.5436 12.8281 15.5489C12.8174 15.5569 12.8054 15.5623 12.7921 15.5649H12.732L12.728 15.5609ZM12.452 15.5769C12.444 15.5716 12.44 15.5636 12.44 15.5529C12.44 15.5369 12.44 15.5409 12.452 15.5289C12.4627 15.5129 12.4813 15.5129 12.508 15.5289C12.5347 15.5449 12.548 15.5463 12.548 15.5329C12.5533 15.5223 12.5667 15.5156 12.588 15.5129L12.608 15.5209C12.616 15.5263 12.62 15.5356 12.62 15.5489C12.62 15.5689 12.62 15.5689 12.608 15.5809C12.6 15.5863 12.5907 15.5889 12.58 15.5889C12.573 15.5881 12.5664 15.5854 12.5608 15.5812C12.5552 15.577 12.5508 15.5714 12.548 15.5649C12.548 15.5543 12.5453 15.5529 12.54 15.5609L12.532 15.5649C12.5213 15.5676 12.5107 15.5743 12.5 15.5849L12.48 15.5889C12.4693 15.5889 12.46 15.5849 12.452 15.5769ZM11.6599 15.2209C11.6278 15.2235 11.6078 15.2409 11.5998 15.2729C11.6078 15.3009 11.6319 15.3329 11.6158 15.3609C11.6278 15.4009 11.5838 15.4169 11.5558 15.3969C11.5452 15.3569 11.5278 15.3169 11.5038 15.2769C11.4718 15.2689 11.4598 15.3209 11.4358 15.3409C11.4478 15.3689 11.4798 15.3969 11.4838 15.4329C11.4865 15.4756 11.4718 15.5076 11.4398 15.5289C11.4118 15.5569 11.3718 15.5489 11.3398 15.5529C11.2998 15.5769 11.3678 15.5849 11.3878 15.5849C11.4305 15.5929 11.4705 15.5823 11.5078 15.5529C11.5358 15.5409 11.5318 15.4849 11.5678 15.4809L11.7599 15.4929C11.7919 15.5009 11.8439 15.4889 11.8679 15.5129C11.8679 15.5529 11.9079 15.5849 11.9439 15.6009C11.9639 15.6089 11.9839 15.5809 12.0039 15.5769C12.0439 15.5649 12.0319 15.5169 12.0559 15.4969H12.256C12.264 15.4969 12.268 15.4769 12.28 15.4689L12.272 15.3929C12.26 15.3609 12.272 15.3209 12.252 15.2929C12.216 15.2849 12.1879 15.3129 12.1559 15.3169C12.1133 15.3356 12.0893 15.3662 12.0839 15.4089C12.0639 15.4449 12.0279 15.4009 12.0439 15.3689L12.0399 15.3289C12.0199 15.3089 11.9839 15.3169 11.9559 15.3129L11.8359 15.3049C11.7959 15.3075 11.7599 15.3062 11.7279 15.3009C11.6879 15.3009 11.6879 15.2609 11.6879 15.2289L11.6599 15.2209ZM11.7399 15.3689L11.7799 15.3729H11.8319C11.8719 15.3809 11.9119 15.3836 11.9519 15.3809C11.9599 15.3809 11.9679 15.3862 11.9759 15.3969V15.4769C11.9759 15.4902 11.9732 15.5009 11.9679 15.5089L11.9599 15.5169L11.9319 15.4969V15.4409L11.9039 15.4289L11.7999 15.4249L11.7199 15.4209C11.7065 15.4209 11.6945 15.4156 11.6839 15.4049C11.6785 15.3942 11.6839 15.3849 11.6999 15.3769L11.7399 15.3689ZM12.1919 15.3809C12.1973 15.3809 12.2 15.3849 12.2 15.3929L12.208 15.4129C12.208 15.4182 12.2053 15.4209 12.2 15.4209C12.1786 15.4289 12.1626 15.4289 12.1519 15.4209L12.1599 15.3969L12.1919 15.3809Z" fill="#C09300"/>
<path d="M12.0117 13.1165C13.316 12.1163 13.204 10.6441 13.204 10.6441L13.1039 10.6521C12.8279 10.6521 12.1758 10.492 12.0237 10.296C11.8637 10.476 11.1916 10.6561 10.9195 10.6561L10.8195 10.6441C10.8195 10.6441 10.7035 12.1123 12.0117 13.1165Z" fill="white" stroke="#C09300" stroke-width="0.0440078"/>
<path d="M13.0997 10.7481H13.0677C12.8197 10.7481 12.2436 10.624 12.0195 10.432C11.7875 10.608 11.1994 10.7521 10.9553 10.7521L10.9233 10.7481C10.9255 11.0009 10.9604 11.2524 11.0274 11.4962C11.1878 12.0837 11.5328 12.604 12.0115 12.9805C12.4909 12.603 12.836 12.0811 12.9957 11.4922C13.0623 11.2497 13.0972 10.9996 13.0997 10.7481Z" fill="white" stroke="#C09300" stroke-width="0.0360064"/>
<path d="M11.5875 10.6281C11.3726 10.6981 11.1491 10.7385 10.9233 10.7481L10.9273 10.9121C10.9411 11.1083 10.9746 11.3027 11.0274 11.4922C11.1349 11.8857 11.3259 12.2514 11.5875 12.5644V10.6281ZM12.4116 10.6281V12.5964C12.6858 12.2762 12.8854 11.8991 12.9957 11.4922C13.0485 11.3027 13.082 11.1083 13.0957 10.9121L13.0997 10.7521H13.0677C12.9157 10.7521 12.6516 10.7041 12.4116 10.6241V10.6281Z" fill="#C09300"/>
<path d="M12.5034 10.147C12.5314 10.151 12.4674 10.007 12.4674 10.007C12.5394 10.079 12.8033 10.099 12.8033 10.099C12.6434 10.027 12.4834 9.4952 12.5034 9.06734C12.5194 8.64347 12.4434 8.47552 12.3835 8.41154C12.3035 8.33156 12.0436 8.25958 11.8756 8.25159C11.7756 8.24759 11.7956 8.32356 11.7956 8.32356C11.6157 8.27958 11.4358 8.25958 11.3558 8.31557C11.2838 8.36355 11.2678 8.61548 11.3238 8.57149C11.4557 8.46352 11.5717 8.56349 11.6517 8.67946C11.7237 8.77942 11.7197 9.06734 11.6157 9.40723C11.5236 9.66419 11.3884 9.90355 11.2158 10.115C11.3758 10.115 11.5997 9.97506 11.5997 9.97506L11.5477 10.195C11.7157 10.115 11.8476 9.99105 11.8476 9.99105L12.0076 10.159C12.0596 10.087 12.1675 9.99105 12.1675 9.99105C12.1675 9.99105 12.2995 10.131 12.5034 10.151V10.147Z" fill="white" stroke="#C09300" stroke-width="0.0480085"/>
<path d="M11.8558 9.13175C11.8558 9.13175 11.7678 9.78755 11.5999 9.97149M11.9997 9.11176C11.9997 9.11176 11.9597 9.77955 11.8478 9.99148M12.1237 9.13975C12.1237 9.13975 12.1237 9.86752 12.1637 9.99148M12.2836 9.17574C12.2836 9.17574 12.3156 9.78755 12.4676 10.0075" stroke="#C09300" stroke-width="0.0520093"/>
<path d="M11.6916 8.8115C11.688 8.76512 11.6744 8.72009 11.6516 8.67954C11.5717 8.55957 11.4557 8.4636 11.3237 8.57157C11.3237 8.57157 11.3677 8.43161 11.4677 8.42761C11.5397 8.42361 11.7116 8.4836 11.8636 8.73952C11.8636 8.73952 11.7516 8.71552 11.7236 8.73952C11.6756 8.7795 11.6956 8.8115 11.6956 8.8115H11.6916Z" fill="#C09300" stroke="#C09300" stroke-width="0.0120021"/>
<path d="M11.3076 8.39954C11.3183 8.35689 11.3356 8.3289 11.3596 8.31557C11.4396 8.25958 11.6155 8.27558 11.7955 8.32356C11.7955 8.32356 11.7795 8.24759 11.8754 8.25159C12.0434 8.25958 12.2993 8.33156 12.3793 8.41154C12.4048 8.43971 12.4251 8.47221 12.4393 8.50751C12.3993 8.45153 12.2873 8.45552 12.2593 8.45952C12.2193 8.46352 12.1913 8.45952 12.1354 8.47552C12.1034 8.48352 12.0727 8.49418 12.0434 8.50751C12.0274 8.5235 12.0114 8.57149 11.9874 8.57149C11.9474 8.57149 11.9474 8.56349 11.9354 8.55149C11.9248 8.52484 11.9128 8.51151 11.8994 8.51151C11.8568 8.51684 11.7901 8.48352 11.6995 8.41154C11.6075 8.33956 11.5715 8.32356 11.4596 8.33156C11.3396 8.33956 11.3076 8.40754 11.3076 8.40754V8.39954Z" fill="#C09300" stroke="#C09300" stroke-width="0.0120021"/>
<path d="M11.9635 8.50313C11.9899 8.50313 12.0113 8.48175 12.0113 8.45538C12.0113 8.429 11.9899 8.40762 11.9635 8.40762C11.9372 8.40762 11.9158 8.429 11.9158 8.45538C11.9158 8.48175 11.9372 8.50313 11.9635 8.50313Z" fill="white"/>
</g>
<defs>
<clipPath id="clip0_720_53417">
<rect width="24.0044" height="24.0044" fill="white" transform="translate(0.00878906 0.0261841)"/>
</clipPath>
</defs>
</svg>
