<svg width="25" height="25" viewBox="0 0 25 25" fill="none" xmlns="http://www.w3.org/2000/svg">
<g clip-path="url(#clip0_720_53481)">
<path d="M0.0175781 0.0261841H24.0219V24.0306H0.0175781V0.0261841Z" fill="#E32118"/>
<path d="M0.0175781 0.0261841H24.0219V16.0275H0.0175781V0.0261841Z" fill="white"/>
<path d="M0.0175781 0.0261841H24.0219V8.0292H0.0175781V0.0261841Z" fill="#3E9A00"/>
<path d="M0.0175781 0.0261841V24.0306L7.51894 12.0284L0.0175781 0.0261841Z" fill="#0073CE"/>
<path d="M10.0969 9.61386H13.9273V13.6271C13.9273 14.9773 12.1692 13.9365 12.0191 14.6585C11.7566 13.9178 10.1063 14.9867 10.1063 13.5474L10.0969 9.61386Z" fill="white" stroke="black" stroke-width="0.0468835"/>
<path d="M12.2865 14.0162C12.2865 14.0162 12.2396 14.0678 12.1458 14.0303C12.0567 13.9881 12.0474 11.4564 12.0474 11.4564C12.249 11.236 12.4084 11.1704 12.4084 11.1704L12.5256 11.2641C12.0755 11.4986 12.1177 11.8267 12.1552 12.3987C12.1693 12.6097 12.1693 12.8769 12.2161 13.1395C12.2865 13.4677 12.4271 13.749 12.4365 13.96C12.4459 14.0912 12.2865 14.0209 12.2865 14.0209V14.0162Z" fill="#73452B" stroke="black" stroke-width="0.00937671"/>
<path d="M11.977 11.1094H12.1599C12.0051 12.5628 12.1364 13.4208 12.1364 13.8381C12.1364 13.9787 12.2161 14.0256 12.2067 14.0256C12.0286 14.2272 11.9348 14.0162 11.9348 14.0162L11.977 11.1094Z" fill="#73452B" stroke="black" stroke-width="0.00937671"/>
<path d="M11.6957 14.0162C11.527 14.1006 11.5082 13.9412 11.5176 13.9224C11.888 13.1723 12.0474 11.5173 11.7051 11.3392L11.7286 11.1797C11.8551 11.2173 11.977 11.386 11.977 11.386C12.0239 13.2379 11.977 13.9974 11.9489 14.0303C11.7661 14.2178 11.6957 13.9974 11.6864 13.9787" fill="#A36629"/>
<path d="M11.6957 14.0162C11.527 14.1006 11.5082 13.9412 11.5176 13.9224C11.888 13.1723 12.0474 11.5173 11.7051 11.3392L11.7286 11.1797C11.8551 11.2173 11.977 11.386 11.977 11.386C12.0239 13.2379 11.977 13.9974 11.9489 14.0303C11.7661 14.2178 11.6957 13.9974 11.6864 13.9787" stroke="black" stroke-width="0.00937671"/>
<path d="M11.6911 13.9876C11.6583 13.8283 11.9488 13.4159 11.9254 12.9895M12.1784 13.3409C12.2721 13.5877 12.3081 13.8142 12.2862 14.0204" stroke="black" stroke-width="0.00937671"/>
<path d="M12.5678 10.4296C12.6288 10.3593 12.6288 10.3593 12.7366 10.3593C12.7553 10.2093 13.0085 10.2093 13.0273 10.3968C13.2289 10.3593 13.2664 10.4765 13.1867 10.5984C13.3742 10.5515 13.5477 10.5984 13.4961 10.8188C13.8384 10.9125 13.7071 11.1469 13.5571 11.1938C13.5383 11.3485 13.3976 11.4001 13.2054 11.3345C12.971 11.5079 12.8304 11.447 12.7178 11.2782C12.4459 11.3157 12.4272 11.2595 12.3099 11.1094C12.099 11.1985 12.0568 11.1985 11.8786 11.086C11.8692 11.2266 11.8177 11.1891 11.7286 11.1798C11.738 11.3579 11.6676 11.4376 11.5082 11.3767C11.6255 11.6298 11.3207 11.7377 11.166 11.5267C11.0253 11.5361 11.016 11.4986 10.9456 11.447C10.8894 11.6486 10.6643 11.6205 10.6268 11.5079C10.3455 11.4658 10.3783 11.3204 10.6081 11.3063C10.6268 11.1469 10.7675 11.1798 10.8566 11.1985C10.8659 11.1001 10.9269 11.1188 10.9785 11.1376C10.9441 11.0688 10.9706 11.025 11.0582 11.0063C10.9269 10.8375 11.0113 10.7766 11.1379 10.7156C11.0675 10.5562 11.1847 10.5656 11.2785 10.5562C11.2691 10.3874 11.316 10.3593 11.4989 10.3359C11.4754 10.2796 11.5082 10.228 11.6067 10.228C11.5457 10.0592 11.6254 10.0171 11.8083 10.0499C11.8364 9.80139 12.3709 9.9186 12.324 10.2562C12.4787 10.2796 12.5256 10.3077 12.5678 10.4296Z" fill="#009A3B" stroke="black" stroke-width="0.00937671"/>
<path d="M11.4987 10.3406C11.5362 10.3593 11.5877 10.3406 11.5971 10.4484C11.6768 10.3077 11.7753 10.3874 11.7753 10.5468M12.3285 10.2562C12.2863 10.3171 12.141 10.3171 12.155 10.4765C12.1082 10.4062 12.0097 10.3874 11.9675 10.4578M12.5676 10.4296C12.5676 10.4671 12.5582 10.589 12.5207 10.65M13.1865 10.5984C13.1959 10.6078 13.0458 10.5984 12.9755 10.6453M13.5569 11.1985C13.5193 11.1798 13.435 11.1282 13.3787 11.2079C13.3787 11.1657 13.3787 11.0579 13.2662 11.0579M13.2099 11.3392C13.2099 11.236 13.1865 11.2079 13.163 11.1798M12.8817 11.1985C12.7973 11.1376 12.7176 11.2267 12.7176 11.2782M12.2957 11.1094C12.2957 11.0672 12.2676 10.9875 12.3379 10.9594M11.1564 11.5267C11.1752 11.4283 11.2502 11.4283 11.2361 11.3767M11.2361 11.3767C11.2267 11.297 11.1377 11.2267 11.0251 11.3392M11.2361 11.3767C11.2971 11.3579 11.358 11.3673 11.3768 11.4001M11.0673 11.0063C11.1095 10.9688 11.208 10.9782 11.2689 11.0063M11.2689 10.7719C11.3158 10.7719 11.4096 10.7484 11.4377 10.8375C11.5456 10.6687 11.6253 10.6875 11.6487 10.7297M11.8456 10.7062C11.9253 10.6781 12.066 10.7578 12.1457 10.8938C12.1879 10.7906 12.2488 10.8094 12.3098 10.8M12.6848 10.8938C12.8161 10.8375 12.8958 10.9594 12.938 11.0063C12.9989 10.9266 13.0458 10.9266 13.1068 10.9266M11.4752 11.1376C11.508 11.0907 11.5784 11.0766 11.6253 11.1094C11.6159 11.0157 11.6768 10.9782 11.719 10.9969" stroke="black" stroke-width="0.00937671"/>
<path d="M11.8879 9.05594L11.6675 9.06532L11.5597 9.26223L11.4378 9.07469L11.2174 9.08407L11.3159 8.88247L11.1987 8.69493L11.4284 8.68556L11.5269 8.48865L11.6488 8.67618L11.8691 8.66681L11.766 8.86372L11.8879 9.05594ZM10.9502 9.12626L10.7252 9.18252L10.6689 9.3935L10.5095 9.2341L10.2985 9.28567L10.3548 9.07469L10.2094 8.9106L10.4157 8.85903L10.4767 8.64336L10.6361 8.80277L10.8564 8.75588L10.7861 8.96686L10.9502 9.12626ZM10.036 9.3138L9.83907 9.41225L9.825 9.63729L9.63747 9.5154L9.43587 9.60916L9.45462 9.38881L9.26709 9.26691L9.46869 9.16377L9.48744 8.94342L9.6656 9.06532L9.8672 8.97155L9.85782 9.1919L10.036 9.3138ZM12.1786 9.05594L12.3989 9.06532L12.4974 9.26223L12.6193 9.07469L12.8396 9.08407L12.7365 8.88247L12.8584 8.69493L12.638 8.68556L12.5255 8.48865L12.4083 8.67618L12.1879 8.66681L12.2864 8.86372L12.1786 9.05594ZM13.1162 9.12626L13.3272 9.18252L13.3882 9.3935L13.5476 9.2341L13.7585 9.28567L13.6976 9.07469L13.857 8.9106L13.6366 8.85903L13.5757 8.64336L13.4163 8.80277L13.21 8.75588L13.2663 8.96686L13.1162 9.12626ZM14.0164 9.3138L14.218 9.41225L14.2274 9.63729L14.4149 9.5154L14.6165 9.60916L14.6071 9.38881L14.7853 9.26691L14.5884 9.16377L14.579 8.94342L14.3915 9.06532L14.1852 8.97155L14.2086 9.1919L14.0164 9.3138Z" fill="#FFD700" stroke="black" stroke-width="0.0375068"/>
<path d="M14.2877 13.5474L14.5362 13.9084L14.7706 13.5662L14.6065 13.2802L14.2877 13.5474ZM12.6937 14.5976L12.7171 14.9586C12.7171 14.9586 12.8156 14.9586 12.9047 14.9305C12.9938 14.9023 13.0594 14.8367 13.0594 14.8367L13.0453 14.6492L12.6937 14.5976ZM11.3575 14.5976L11.3341 14.9492C11.3341 14.9492 11.245 14.9492 11.1559 14.9305C11.1024 14.9153 11.0518 14.8915 11.0059 14.8602L10.9074 14.6164L11.3575 14.5976ZM9.74473 13.5474L9.48687 13.9084L9.20557 13.449L9.41654 13.2286L9.74473 13.5474Z" fill="white" stroke="black" stroke-width="0.0375068"/>
<path d="M10.9966 15.3196C10.9966 15.6572 13.0595 15.6572 13.0595 15.3196V14.8414C13.0595 15.0899 10.9966 15.0383 10.9966 14.8414V15.3196Z" fill="white" stroke="black" stroke-width="0.0375068"/>
<path d="M9.15874 14.2085C9.3369 15.1274 10.9966 15.1462 10.9966 15.1462V14.8414C10.9591 14.7195 11.0247 14.6773 11.2966 14.6398C11.4092 14.6305 11.3576 14.471 11.3576 14.471C11.3576 14.471 10.6356 14.5976 10.1245 14.4007C9.43535 14.1194 9.3369 13.5803 9.3369 13.5803C9.3369 13.5803 9.29001 14.0022 9.15405 14.2085H9.15874ZM14.8879 14.2085C14.7191 15.1274 13.0595 15.1462 13.0595 15.1462V14.8414C13.0876 14.7195 13.0126 14.6773 12.7453 14.6398C12.6375 14.6305 12.6984 14.471 12.6984 14.471C12.6984 14.471 13.4158 14.5976 13.9268 14.4007C14.6066 14.1194 14.6863 13.5803 14.6863 13.5803C14.6863 13.5803 14.7566 14.0022 14.8879 14.2085Z" fill="white" stroke="black" stroke-width="0.0375068"/>
<path d="M9.28533 13.8569C8.82587 13.6084 9.18688 13.3505 9.22438 12.6098C9.29471 13.0599 9.80574 13.2474 9.74479 13.5381C9.53381 13.5474 9.43536 13.2286 9.3369 13.5803L9.28533 13.8569ZM14.7566 13.8569C15.2161 13.599 14.8363 13.3505 14.7988 12.6098C14.7285 13.0599 14.2269 13.2474 14.2831 13.5381C14.4894 13.5474 14.5879 13.2286 14.6863 13.5803L14.7566 13.8475V13.8569Z" fill="white" stroke="black" stroke-width="0.0375068"/>
<path d="M9.56711 14.1991L9.61399 14.2366L9.50616 14.3585C9.45928 14.4022 9.45146 14.4382 9.48272 14.4663C9.5171 14.4975 9.55148 14.4913 9.58586 14.4475L9.70776 14.3209L9.74527 14.3585L9.62806 14.4991C9.56242 14.5741 9.50147 14.5554 9.4499 14.5085C9.40302 14.471 9.37958 14.41 9.4499 14.335L9.56711 14.1991ZM9.76871 14.3678L9.81559 14.4007L9.80622 14.6351L9.91874 14.4663L9.96562 14.4991L9.80622 14.757L9.74527 14.7288L9.75464 14.4897L9.64681 14.6585L9.59993 14.6304L9.76871 14.3678ZM9.85779 14.7898L9.99844 14.5085L10.0453 14.5366L9.91874 14.8085L9.85779 14.7898ZM10.0781 14.5507L9.96562 14.8367L10.0781 14.8789C10.1813 14.9164 10.2282 14.8695 10.261 14.7851C10.2938 14.6913 10.2797 14.6304 10.1766 14.5882L10.0781 14.5507ZM10.1156 14.621C10.2188 14.6538 10.2282 14.696 10.2 14.7617C10.1719 14.832 10.1438 14.8554 10.0453 14.8085L10.1156 14.621ZM10.4063 14.6585L10.2282 14.9304L10.2985 14.9492L10.336 14.8789L10.4579 14.907L10.4673 14.9773L10.5376 14.9867L10.4673 14.6679L10.4063 14.6585ZM10.4251 14.7288L10.4485 14.8507L10.3688 14.8414L10.4251 14.7288ZM10.5798 14.682L10.5657 14.9961H10.6829C10.7955 14.9961 10.8236 14.9398 10.8283 14.846C10.8283 14.7523 10.7955 14.696 10.6876 14.6913L10.5798 14.682ZM10.6361 14.7382C10.7486 14.7382 10.7673 14.7757 10.7626 14.8507C10.758 14.9257 10.7439 14.9586 10.6314 14.9445L10.6361 14.7382ZM11.6253 15.118V15.4368H11.6956V15.3196C11.6956 15.3196 11.7566 15.3196 11.8081 15.3102C11.8488 15.3039 11.8707 15.2711 11.8738 15.2117C11.8785 15.1227 11.841 15.118 11.78 15.118H11.6253ZM11.6956 15.1649L11.7659 15.1695C11.8269 15.1695 11.8128 15.2586 11.7659 15.2586H11.6956V15.1649ZM11.9863 15.118L11.855 15.4368H11.9254L11.9582 15.3571H12.0894L12.1176 15.4368H12.1879L12.0566 15.118H11.9863ZM12.0191 15.1883L12.066 15.3102H11.9769L12.0191 15.1883ZM12.1879 15.3758L12.3567 15.1695H12.2067V15.1227H12.4458V15.1695L12.2676 15.3805H12.4458V15.4415H12.1879V15.3758ZM13.1959 14.757L13.2568 14.7476L13.285 14.9304C13.2944 14.9929 13.274 15.0336 13.224 15.0523C13.1725 15.0711 13.1068 15.0523 13.0974 14.9679L13.1443 14.9586C13.16 15.0054 13.1803 15.0211 13.2053 15.0054C13.224 14.9961 13.2318 14.9742 13.2287 14.9398L13.1959 14.757ZM13.299 14.7429L13.3553 14.7288L13.3834 14.8789C13.3928 14.9445 13.4178 14.9726 13.4584 14.9633C13.5022 14.957 13.5178 14.9257 13.5053 14.8695L13.4678 14.7101L13.5288 14.7007L13.5663 14.8648C13.5897 14.9586 13.5428 15.0054 13.4725 15.0148C13.4116 15.0242 13.3506 15.0101 13.3319 14.9164L13.299 14.7429ZM13.6085 14.8789L13.6554 14.8601C13.6835 14.907 13.721 14.9023 13.7491 14.8882C13.7913 14.8695 13.796 14.832 13.7773 14.8226C13.7444 14.8038 13.6788 14.8273 13.6366 14.8132C13.596 14.7976 13.5757 14.771 13.5757 14.7335C13.585 14.6898 13.6163 14.6616 13.6694 14.6491C13.7194 14.6304 13.7616 14.646 13.796 14.696L13.7397 14.7195C13.7147 14.6882 13.6913 14.6804 13.6694 14.696C13.6507 14.7054 13.6225 14.7241 13.6366 14.7523C13.6507 14.771 13.7257 14.757 13.7632 14.757C13.8069 14.7632 13.8335 14.7867 13.8429 14.8273C13.8523 14.8742 13.8273 14.9101 13.7679 14.9351C13.6882 14.9633 13.6225 14.9304 13.6085 14.8789ZM13.8757 14.6304L13.796 14.6679L13.7773 14.621L13.9976 14.5272L14.0164 14.5694L13.9367 14.6069L14.0304 14.8273L13.9789 14.8601L13.8757 14.6304ZM14.007 14.5179L14.0539 14.4897L14.1945 14.7476L14.1476 14.7804L14.007 14.5179ZM14.3492 14.5366L14.4055 14.5179C14.4124 14.5365 14.4146 14.5566 14.412 14.5763C14.4093 14.596 14.4019 14.6148 14.3903 14.6309C14.3788 14.6471 14.3634 14.6602 14.3456 14.6691C14.3279 14.678 14.3082 14.6824 14.2883 14.682C14.1383 14.682 14.1195 14.5132 14.1476 14.4569C14.1851 14.3631 14.2977 14.3678 14.3492 14.4194L14.2977 14.4569C14.2648 14.4194 14.1945 14.4428 14.1898 14.4804C14.1856 14.5094 14.1906 14.539 14.204 14.565C14.2175 14.5911 14.2387 14.6123 14.2648 14.6257C14.3117 14.6491 14.3821 14.5929 14.3492 14.5366ZM14.3164 14.3303L14.3633 14.2881L14.5508 14.5272L14.4993 14.5694L14.3164 14.3303ZM14.5039 14.1803L14.4571 14.2178L14.5696 14.5179L14.6165 14.471L14.5883 14.41L14.6774 14.3303L14.7384 14.3585L14.7852 14.3209L14.5039 14.1803ZM14.5274 14.2506L14.6258 14.2975L14.5696 14.3585L14.5274 14.2506Z" fill="black"/>
</g>
<defs>
<clipPath id="clip0_720_53481">
<rect width="24.0044" height="24.0044" fill="white" transform="translate(0.0175781 0.0261841)"/>
</clipPath>
</defs>
</svg>
