<svg width="25" height="25" viewBox="0 0 25 25" fill="none" xmlns="http://www.w3.org/2000/svg">
<g clip-path="url(#clip0_720_53473)">
<mask id="mask0_720_53473" style="mask-type:luminance" maskUnits="userSpaceOnUse" x="0" y="0" width="25" height="25">
<path d="M0.0217285 0.0262756H24.0261V24.0306H0.0217285V0.0262756Z" fill="white"/>
</mask>
<g mask="url(#mask0_720_53473)">
<path fill-rule="evenodd" clip-rule="evenodd" d="M-2.22876 0.0262146H25.5028V24.0306H-2.22876V0.0262146Z" fill="#BE0027"/>
<path fill-rule="evenodd" clip-rule="evenodd" d="M-2.22876 24.0306L25.5028 24.0165V12.0284L-2.22876 24.0306Z" fill="#B4D7F4"/>
<path fill-rule="evenodd" clip-rule="evenodd" d="M-2.22876 0.0262146L25.5028 0.0402797V12.0284L-2.22876 0.0262146Z" fill="#239E46"/>
<path fill-rule="evenodd" clip-rule="evenodd" d="M6.99801 16.5011C6.59013 16.6136 6.35571 16.9324 6.3604 17.2325L8.36701 17.2231C8.38576 16.8996 8.12322 16.6042 7.72002 16.487C9.68913 16.4495 11.3957 15.7088 11.7051 15.2399C11.4004 15.104 11.0441 15.3196 10.7909 15.2681C11.391 14.9915 13.1913 13.8241 12.9006 12.577C12.6645 13.1705 12.2394 13.6698 11.6911 13.9975C12.3615 12.9755 13.2851 11.9112 12.4881 11.0907C12.5256 11.569 12.1786 12.0941 12.0286 12.1316C12.4177 11.0532 12.7928 9.69362 11.9442 8.80283C12.0567 9.12633 12.0145 10.0359 11.8598 10.0781C11.813 9.34199 11.6864 7.79952 10.9128 7.82296C11.1613 8.03863 11.2644 8.63874 11.2738 9.23885C11.0956 8.82627 10.8987 8.51684 10.4674 8.20741C10.0857 7.54602 9.54197 6.99263 8.88742 6.5993C8.89862 6.87572 8.9776 7.14515 9.1174 7.38387C9.2572 7.62259 9.45353 7.82329 9.68913 7.9683C9.3375 7.94486 8.98587 7.27912 8.61081 7.26036C8.31075 7.2463 8.07633 7.53229 7.58406 7.36819C7.64032 7.5276 7.86536 7.60261 7.91224 7.71982C7.81379 7.79015 7.56061 7.71044 7.35433 7.60261C7.64032 7.98706 8.08102 8.2121 8.45609 8.13708C8.90148 8.05269 9.37969 8.09958 9.83447 8.35744C9.55059 8.41649 9.25847 8.42442 8.97181 8.38088C9.23904 8.64811 9.41251 8.82627 9.87197 8.82158C10.2845 8.82158 10.5002 8.60592 10.6034 8.73719C10.8612 9.04194 11.0347 9.34668 11.2503 9.70299C10.7721 9.75925 10.9175 9.16852 10.3877 8.86378C10.0923 9.48264 10.7299 10.2093 11.166 10.5141C11.166 10.9782 11.2363 11.358 11.4332 11.7143C11.5645 11.9628 11.7379 12.216 11.6723 12.7786C11.4144 12.591 11.1566 11.9487 11.2503 11.4424C10.9222 11.5315 10.8003 12.0987 10.9503 12.3894C11.0675 12.6098 11.1425 13.0317 11.0112 13.2193C10.88 13.3927 10.8706 13.374 10.8706 13.749C10.8706 13.9741 10.7487 14.2413 10.5424 14.4242C10.5893 14.2694 10.6362 13.9928 10.5893 13.8241C10.4252 14.1007 10.022 14.382 9.89541 14.6773C9.76883 14.9727 9.73601 15.4837 9.13121 15.6009C8.34826 15.7557 8.07633 15.8916 7.57468 16.0979C7.51842 15.7182 7.6872 14.9211 8.00601 14.968C8.32013 15.0243 9.26249 14.6398 8.92492 13.8428C8.85929 14.096 8.63425 14.3398 8.39514 14.3538C8.653 14.0163 9.11715 13.6647 8.89211 13.102C8.75502 13.3871 8.53848 13.6264 8.26856 13.7912C8.59205 13.1771 8.30606 12.9942 7.92631 13.4959C7.78566 13.6928 7.69189 14.0866 7.60281 14.5836C7.45278 14.1804 7.46216 13.6459 7.284 13.2146C7.09647 12.7457 7.53248 12.6191 7.73408 12.6567C8.23105 12.7926 9.06558 12.7926 8.99994 11.9675C8.78896 12.2488 8.40921 12.3332 8.00132 12.2347C8.46078 11.8971 8.82178 11.2736 8.31075 10.9454C8.28824 11.1392 8.21771 11.3243 8.10554 11.484C7.99338 11.6436 7.84314 11.7727 7.66845 11.8596C7.58563 11.5516 7.5808 11.2277 7.65438 10.9173C7.45278 11.1283 7.30744 11.5643 7.19023 12.0659C7.18674 11.6884 7.23887 11.3124 7.34495 10.9501C7.44809 10.561 7.71064 10.8141 8.10915 10.8423C8.4936 10.8657 9.02338 10.6547 8.92492 10.1296C8.79365 10.3359 8.52173 10.4156 8.24511 10.3969C8.57799 10.1953 9.15465 9.83427 8.84053 9.29042C8.70457 9.49671 8.66238 9.67486 8.27793 9.7405C8.37639 9.50608 8.39514 9.1779 8.6952 9.05131C8.16072 8.94348 7.85598 9.29511 7.70126 9.83896C7.63563 9.46389 7.56061 9.32324 7.54655 9.04194C7.83723 8.72313 7.86536 8.09489 7.24181 7.95893C7.2043 8.27773 7.21836 8.35744 7.28869 8.6153C6.99332 8.44652 6.58544 8.34806 6.30414 8.59654C6.49167 8.79814 6.78235 8.97161 7.22774 8.75595C7.11991 9.0982 6.84798 9.03725 6.47292 8.90597C6.70265 9.3373 6.98864 9.417 7.31213 9.36543C7.47622 9.80614 7.4856 10.139 6.99801 10.7813C7.01677 10.3828 6.98864 10.0874 6.66983 9.76394C6.40259 9.49671 6.18224 9.77801 6.60419 10.3687C6.29617 10.1229 6.07581 9.78416 5.97595 9.40294C5.89156 9.87646 5.96657 10.4344 6.22912 10.7532C6.10254 10.8845 5.96189 10.7391 5.7556 10.4156C5.83061 11.4564 6.27601 11.6533 6.87611 11.4236C6.89018 11.9956 6.89018 12.5254 6.923 13.2146C6.66538 12.8114 6.31074 12.4794 5.89156 12.2488C5.81186 12.5301 6.10254 12.8911 6.26663 13.0927C6.01815 13.0458 5.48367 12.6379 5.48367 12.6379C5.42741 13.102 6.02752 13.5287 6.41666 13.7209C5.96189 13.7022 5.76029 13.5334 5.46492 13.2521C5.46961 14.5367 6.85736 14.3116 7.11991 14.1147L7.23712 16.112C6.8433 16.0463 6.87611 15.9244 6.53855 15.8963C5.60557 15.8588 4.86481 14.7758 4.62102 13.9788C4.55069 14.11 4.60695 14.246 4.54131 14.4101C4.39129 14.0163 4.19906 13.5146 3.93652 13.2802C4.00215 13.5052 4.01153 13.7397 3.98809 14.1616C3.89901 13.885 3.81462 13.8006 3.80993 13.4771C3.81462 13.2286 4.04904 13.0458 4.03966 12.6942C4.03028 12.441 3.79587 11.8878 3.75836 11.4564C3.64584 11.9018 3.57551 12.366 3.40204 12.6379C3.49112 12.1691 3.46299 11.8409 3.60833 11.5268C3.77711 11.1892 3.91776 10.8938 3.80524 10.5563C3.69741 10.6875 3.73492 10.8048 3.46768 11.1189C3.40673 10.7766 3.81462 10.2281 4.20844 10.003C4.48974 9.8624 4.83668 9.33261 4.61164 8.97161C4.34909 9.15915 4.23188 9.417 3.8615 9.84833C4.12405 8.8169 4.80855 8.54966 5.62901 8.54497C5.81655 8.54497 6.17755 8.47933 6.28538 8.24023C6.05096 8.32931 5.77435 8.33868 5.53524 8.28711C5.70871 8.03394 6.08378 8.06676 6.43072 8.06207C6.70265 8.06207 7.12929 8.02456 7.30275 7.64012C6.92546 7.78416 6.51301 7.80871 6.12129 7.71044C6.6417 7.43852 7.45747 7.41039 7.87473 7.05407C7.39652 6.70245 6.20568 7.14315 5.45554 7.65887C5.66652 7.46665 5.99939 7.1244 6.18224 6.84779C5.76966 6.65088 4.72885 7.80421 4.37253 8.48871C4.03497 8.67624 3.89901 8.98099 3.76305 9.19196C3.95058 8.57779 3.96465 8.1324 4.11467 7.63074C2.95196 8.02925 3.43486 10.1859 3.18169 10.7016C3.20982 10.1296 3.18638 9.39825 2.95196 9.02318C2.59565 9.29511 2.56283 10.9079 2.90508 12.2535C2.77849 11.8925 2.54876 11.5549 2.47844 11.1189C1.94397 12.0894 2.78787 13.2286 3.49112 14.1335C2.93069 13.7851 2.45371 13.3177 2.09399 12.7645C2.18776 14.4992 4.00215 14.8602 4.28346 15.2868C3.89901 15.1087 3.17232 14.757 2.8582 15.1274C3.29337 15.2082 3.71083 15.3653 4.09123 15.5916C4.56007 16.1776 5.45086 16.4355 6.99801 16.5011Z" fill="#F3E295"/>
</g>
</g>
<defs>
<clipPath id="clip0_720_53473">
<rect width="24.0044" height="24.0044" fill="white" transform="translate(0.0217285 0.0261841)"/>
</clipPath>
</defs>
</svg>
