<svg width="25" height="25" viewBox="0 0 25 25" fill="none" xmlns="http://www.w3.org/2000/svg">
<g clip-path="url(#clip0_720_53426)">
<mask id="mask0_720_53426" style="mask-type:luminance" maskUnits="userSpaceOnUse" x="0" y="0" width="25" height="25">
<path d="M0.0236816 0.0257874H24.019V24.0211H0.0236816V0.0257874Z" fill="white"/>
</mask>
<g mask="url(#mask0_720_53426)">
<path fill-rule="evenodd" clip-rule="evenodd" d="M-11.1228 0.192505H37.5153V23.5307H-11.1277L-11.1228 0.192505Z" fill="#FFC621"/>
<path fill-rule="evenodd" clip-rule="evenodd" d="M-11.2209 16.0766H37.4858V24.0211H-11.2209V16.0766Z" fill="#EF2118"/>
<path fill-rule="evenodd" clip-rule="evenodd" d="M-11.1228 0.0257874H37.5152V8.4607H-11.1228V0.0257874Z" fill="#298C08"/>
<path d="M12.3092 17.4517C15.0947 17.4517 17.3527 15.1937 17.3527 12.4082C17.3527 9.6227 15.0947 7.36462 12.3092 7.36462C9.5237 7.36462 7.26562 9.6227 7.26562 12.4082C7.26562 15.1937 9.5237 17.4517 12.3092 17.4517Z" fill="#006BC6"/>
<path fill-rule="evenodd" clip-rule="evenodd" d="M10.0626 8.84812L9.76836 9.059L10.8669 10.6087L11.1611 10.4174L10.0626 8.84812ZM11.4455 12.5016L10.9944 12.1829L11.1807 11.5944L8.92486 11.6238L8.27263 11.1236L11.3474 11.0893L11.9212 9.35814L12.2204 10.0643L11.4357 12.5065L11.4455 12.5016ZM15.0304 9.1865L14.7361 8.96582L13.5935 10.4861L13.8632 10.7067L15.0304 9.1865ZM11.9654 11.6042L12.1272 11.0795H12.75L12.0389 8.93639L12.3184 8.16156L13.2796 11.0893L15.1039 11.1089L14.5302 11.614L11.9654 11.6042ZM16.2122 14.0071L16.3348 13.6541L14.54 13.0362L14.4125 13.3549L16.2122 14.0022V14.0071ZM12.9756 11.8298L13.5248 11.82L13.721 12.4133L15.5355 11.0795L16.3545 11.1089L13.8681 12.9234L14.4076 14.6643L13.7504 14.272L12.9707 11.8298H12.9756ZM12.0438 16.6112L12.4165 16.6161L12.4312 14.7182L12.088 14.6986L12.0487 16.6112H12.0438ZM13.0737 12.8449L13.2551 13.3647L12.7598 13.7423L14.6037 15.0419L14.8391 15.8265L12.3283 14.0513L10.8521 15.1155L11.014 14.37L13.0786 12.8498L13.0737 12.8449ZM8.2334 13.453L8.34619 13.8061L10.1558 13.2323L10.0675 12.8988L8.2334 13.453ZM12.137 13.2666L11.6956 13.6001L11.1856 13.2372L10.5236 15.395L9.84682 15.8609L10.7639 12.9185L9.29267 11.8494L10.0528 11.7709L12.137 13.2666Z" fill="#FFC621"/>
</g>
</g>
<defs>
<clipPath id="clip0_720_53426">
<rect width="24.0044" height="24.0044" fill="white" transform="translate(0.0305176 0.0261841)"/>
</clipPath>
</defs>
</svg>
