<svg width="25" height="25" viewBox="0 0 25 25" fill="none" xmlns="http://www.w3.org/2000/svg">
<g clip-path="url(#clip0_720_53456)">
<path d="M0.0351562 0.0261841H24.0395V24.0306H0.0351562V0.0261841Z" fill="#012169"/>
<path fill-rule="evenodd" clip-rule="evenodd" d="M14.8123 15.1772L14.7231 15.1817C14.5713 15.2085 14.3303 15.7039 14.2009 15.994C13.9911 16.244 13.884 16.4404 13.7992 16.5832C13.7635 16.6412 13.7099 16.7037 13.7277 16.7796C13.4153 16.8554 13.3975 17.1232 13.3975 17.2259C13.3975 17.3419 13.4332 17.3955 13.4332 17.3955L13.6206 17.7436V17.7481C13.8215 18.1632 14.1116 18.7166 14.2812 18.7613C14.5133 18.8282 15.1203 18.6051 15.5756 18.2168C16.4527 18.582 17.3926 18.7731 18.3428 18.7791C19.4051 18.7791 20.3602 18.5247 21.1056 18.2168C21.5609 18.6051 22.1634 18.8282 22.4 18.7613C22.5651 18.7166 22.8597 18.1587 23.0605 17.7481L23.2435 17.3955C23.2435 17.3955 23.2792 17.3419 23.2792 17.2304C23.2792 17.1277 23.2614 16.8554 22.9489 16.784C22.9668 16.7082 22.9177 16.6412 22.882 16.5832C22.7927 16.4359 22.6856 16.2395 22.4803 15.9851C22.3464 15.695 22.1054 15.2085 21.9581 15.1817C21.7439 15.146 21.2886 15.2531 21.2886 15.2933V15.3156L20.3647 16.177C20.3647 16.1993 20.4093 16.8242 20.5879 17.3821C19.8645 17.6395 19.1016 17.7679 18.3339 17.7615C17.4502 17.7615 16.6958 17.6053 16.0844 17.3777C16.1992 16.9845 16.274 16.5808 16.3075 16.1726L15.3926 15.3156V15.2933C15.3926 15.262 15.04 15.1772 14.8123 15.1772ZM15.0444 16.2484C15.1605 16.2484 15.281 16.3466 15.3836 16.4493L15.3747 16.5118C15.3382 16.6726 15.2905 16.8307 15.2319 16.9849C15.004 16.8539 14.7901 16.6999 14.5936 16.5252C14.6918 16.418 14.8525 16.2752 15.0221 16.2529L15.0444 16.2484ZM21.6323 16.2484H21.6546C21.8242 16.2752 21.9849 16.418 22.0875 16.5252C21.8897 16.7001 21.6743 16.8542 21.4448 16.9849C21.3861 16.8308 21.3383 16.6727 21.302 16.5118L21.2931 16.4493C21.3913 16.3422 21.5162 16.2484 21.6323 16.2484ZM14.2232 17.4714C14.3452 17.5666 14.5029 17.6707 14.6963 17.7838C14.6446 17.8188 14.5872 17.8445 14.5267 17.8597C14.4463 17.8775 14.3645 17.8761 14.2812 17.8552C14.2496 17.7739 14.2316 17.688 14.2276 17.6008L14.2232 17.4714ZM22.458 17.4714L22.4491 17.6008C22.4451 17.688 22.427 17.7739 22.3955 17.8552C22.3251 17.872 22.252 17.8743 22.1806 17.862C22.1093 17.8498 22.0412 17.8232 21.9804 17.7838C22.1768 17.6707 22.336 17.5666 22.458 17.4714Z" fill="url(#paint0_linear_720_53456)" stroke="white" stroke-width="0.446331"/>
<path fill-rule="evenodd" clip-rule="evenodd" d="M15.605 16.7689C15.605 16.7689 15.2834 16.2494 15.0239 16.2907C14.7587 16.3261 14.5104 16.6568 14.4935 16.6745C14.3466 16.5444 14.2159 16.3956 14.1042 16.2316C14.1211 16.2139 14.5104 15.2574 14.7248 15.2161C14.9517 15.1947 15.1801 15.2312 15.3906 15.3224L15.605 16.7689Z" fill="url(#paint1_linear_720_53456)" stroke="black" stroke-width="0.0692947"/>
<path fill-rule="evenodd" clip-rule="evenodd" d="M16.3105 16.2144C16.3105 16.2499 16.1976 17.6204 15.746 18.0989C15.2945 18.5774 14.5437 18.8727 14.2784 18.8019C14.0187 18.7251 13.4147 17.3427 13.4147 17.3427C13.4147 17.3427 14.0526 18.0044 14.5268 17.8921C15.0009 17.7799 15.2832 16.9529 15.3735 16.5453C15.4638 16.1436 15.3904 15.3461 15.3904 15.3461L16.3162 16.2144H16.3105Z" fill="url(#paint2_linear_720_53456)" stroke="black" stroke-width="0.0692947"/>
<path fill-rule="evenodd" clip-rule="evenodd" d="M21.0767 16.7689C21.0767 16.7689 21.3983 16.2494 21.6578 16.2907C21.923 16.3261 22.1712 16.6568 22.1881 16.6745C22.335 16.5444 22.4658 16.3956 22.5774 16.2316C22.5605 16.2139 22.1712 15.2574 21.9568 15.2161C21.73 15.1947 21.5015 15.2312 21.2911 15.3224L21.0767 16.7689Z" fill="url(#paint3_linear_720_53456)" stroke="black" stroke-width="0.0692947"/>
<path fill-rule="evenodd" clip-rule="evenodd" d="M20.3709 16.2144C20.3709 16.2499 20.4838 17.6204 20.9354 18.0989C21.3869 18.5774 22.1377 18.8727 22.403 18.8019C22.6627 18.7251 23.2666 17.3427 23.2666 17.3427C23.2666 17.3427 22.6288 18.0044 22.1546 17.8921C21.6805 17.7799 21.3982 16.9529 21.3079 16.5453C21.2176 16.1436 21.291 15.3461 21.291 15.3461L20.3652 16.2144H20.3709Z" fill="url(#paint4_linear_720_53456)" stroke="black" stroke-width="0.0692947"/>
<path fill-rule="evenodd" clip-rule="evenodd" d="M14.2077 15.9829C13.9979 16.2373 13.8863 16.4381 13.797 16.5854C13.7078 16.7312 13.7628 16.947 13.9622 17.2326C14.1853 17.545 15.9885 18.7814 18.3407 18.7814C20.6928 18.7814 22.496 17.5495 22.7147 17.2326C22.9171 16.944 22.9736 16.7283 22.8843 16.5854C22.7951 16.4381 22.6835 16.2373 22.4737 15.9829C22.4737 16.3667 20.9785 17.7682 18.3407 17.7682C15.7029 17.7682 14.2077 16.3667 14.2077 15.9829Z" fill="url(#paint5_linear_720_53456)" stroke="black" stroke-width="0.0669497"/>
<path fill-rule="evenodd" clip-rule="evenodd" d="M22.3625 18.5977L22.7688 17.8951L22.5656 17.7475C22.5092 17.9246 22.2779 17.9837 22.2384 18.208C22.1989 18.4324 22.3964 18.6509 22.3625 18.5977Z" fill="url(#paint6_linear_720_53456)" stroke="black" stroke-width="0.0692947"/>
<path fill-rule="evenodd" clip-rule="evenodd" d="M22.7358 18.3935C22.7358 18.3935 22.8091 18.0805 22.5778 18.0392C22.3521 18.0038 22.228 18.2163 22.2619 18.1337C22.2957 18.0392 22.4311 17.9506 22.4537 17.6377C22.4763 17.3248 22.4368 17.1535 22.4368 17.1535C22.4368 17.1535 22.527 16.752 22.8938 16.8052C23.2661 16.8642 23.2831 17.1594 23.2831 17.2657C23.2831 17.372 23.2492 17.431 23.2492 17.431L22.7358 18.3935Z" fill="url(#paint7_linear_720_53456)" stroke="black" stroke-width="0.0692947"/>
<path d="M21.4515 17.1903L21.5265 17.3262L21.5734 17.2934L21.5406 17.209L21.55 17.1903L21.6391 17.134L21.8641 17.5419V17.5606L21.8172 17.5935L21.8407 17.631L22.0563 17.4903L22.0376 17.4528L21.9907 17.4809H21.9673L21.7422 17.073L21.8266 17.0168H21.8454L21.9016 17.0918L21.9485 17.059L21.8735 16.9277L21.4515 17.1949V17.1903ZM20.903 17.5044L20.9218 17.5419L20.9686 17.5231L20.9874 17.5278L21.1843 17.9404V17.9591L21.1374 17.9873L21.1562 18.0248L21.3718 17.9123L21.3531 17.8701L21.3062 17.8888H21.2874L21.1937 17.6919L21.414 17.5794L21.5078 17.7669V17.7857L21.4609 17.8185L21.4797 17.856L21.7 17.7435L21.6813 17.706L21.6344 17.7247L21.6156 17.7153L21.414 17.3075L21.4187 17.2887L21.4656 17.2606L21.4468 17.2231L21.2265 17.3356L21.2452 17.3731L21.2921 17.3543L21.3109 17.359L21.3953 17.5278L21.1749 17.645L21.0905 17.4762L21.0999 17.4575L21.1421 17.4294L21.1234 17.3919L20.903 17.5044ZM20.7764 17.856L20.7905 17.8935L20.8514 17.8794L20.8702 17.8888L20.9171 18.0576L20.8702 18.0764C20.7483 18.1139 20.6451 18.0529 20.6029 17.9029C20.5561 17.7575 20.6076 17.645 20.7295 17.6075L20.8045 17.6028L20.8186 17.6122L20.8655 17.6919L20.9218 17.6732L20.8842 17.5325C20.8155 17.5325 20.753 17.5419 20.6967 17.5606C20.5186 17.6216 20.4342 17.7669 20.481 17.9404C20.5279 18.1139 20.6826 18.1936 20.8561 18.1373C20.9186 18.1157 20.9772 18.084 21.0296 18.0435L20.9733 17.856L20.9827 17.8419L21.0296 17.8232L21.0202 17.7763L20.7764 17.856ZM20.2701 18.3342L20.5139 18.2592L20.5045 18.2123L20.4435 18.2264L20.4295 18.2217L20.2982 17.7763L20.3029 17.7622L20.3591 17.7388L20.3451 17.7013L20.1013 17.7763L20.1107 17.8138L20.1716 17.8044L20.1857 17.8091L20.317 18.2545L20.3076 18.2686L20.2607 18.292L20.2701 18.3342ZM18.9386 18.5499L19.3699 18.5124L19.3558 18.3577H19.3043L19.2949 18.4514L19.2855 18.4702L19.098 18.4889L19.0792 18.2545H19.1871L19.2011 18.2639L19.2105 18.3248H19.2574L19.2433 18.1185H19.1964V18.1842L19.1824 18.2029L19.0792 18.2076L19.0605 18.0013L19.2199 17.992L19.2339 17.9966L19.248 18.0764L19.3043 18.0717L19.2949 17.931L18.8917 17.9732V18.0107H18.9433L18.9526 18.0248L18.9948 18.4842L18.9855 18.4983L18.9386 18.5077V18.5499ZM18.2916 17.9826V18.0295H18.3432L18.3525 18.0435L18.3619 18.503L18.3525 18.5171L18.3057 18.5264V18.5639H18.5354V18.5217H18.4885L18.4697 18.503V18.2873L18.6995 18.2826L18.7042 18.4983L18.6948 18.5171H18.6479V18.5639H18.8729V18.5171H18.8261L18.812 18.4983L18.8073 18.0388L18.8167 18.0201H18.8636V17.9732H18.6338V18.0201L18.6807 18.0248L18.6995 18.0388V18.2264L18.4651 18.2311V18.0435L18.4791 18.0295H18.526V17.9826H18.2916ZM17.804 17.9685V18.1232H17.8603L17.8743 18.0295L17.8837 18.0201H17.9775V18.4889L17.9634 18.5077H17.9118V18.5546H18.1509V18.5171L18.0994 18.5077L18.0853 18.4936L18.09 18.0248H18.1838L18.2025 18.0342L18.2119 18.1279H18.2681V17.9779L17.804 17.9685ZM17.0585 18.4608L17.4805 18.4795L17.4852 18.3295L17.4383 18.3248L17.4196 18.4186L17.4055 18.428L17.2226 18.4186L17.2367 18.1889L17.3399 18.1982L17.3445 18.2076L17.3539 18.2733H17.4008L17.4055 18.0764H17.3586L17.3492 18.1326L17.3399 18.142H17.2367L17.2461 17.9357L17.4008 17.9404L17.4102 17.9545L17.4242 18.0295H17.4758V17.8888L17.0867 17.8701V17.9169L17.1336 17.9216L17.1429 17.9357L17.1242 18.3952L17.1101 18.4092H17.0632V18.4561L17.0585 18.4608ZM16.0927 18.2076L16.3131 18.2873L16.3272 18.2451L16.2803 18.2264L16.2709 18.2076L16.4069 17.7669L16.4209 17.7575L16.4772 17.7716L16.4866 17.7294L16.2615 17.6544L16.2475 17.6919L16.2943 17.7153L16.3084 17.7294L16.1678 18.1701L16.1537 18.1842L16.1068 18.1654L16.0927 18.2076ZM15.6895 18.0576C15.7312 18.0913 15.779 18.1168 15.8302 18.1326C15.9521 18.1701 16.0506 18.1232 16.0834 18.0295C16.093 18.004 16.0951 17.9762 16.0892 17.9496C16.0834 17.9229 16.07 17.8986 16.0506 17.8794L15.9615 17.7857C15.9302 17.7482 15.9177 17.7107 15.924 17.6732C15.9427 17.6263 15.9818 17.6106 16.0412 17.6263L16.0927 17.6591V17.6732L16.0834 17.7622L16.1396 17.781L16.1771 17.6497C16.1386 17.6153 16.0941 17.5883 16.0459 17.57C15.938 17.5325 15.849 17.5841 15.8161 17.6732C15.8062 17.7177 15.8129 17.7644 15.8349 17.8044C15.8661 17.8451 15.8943 17.8763 15.9193 17.8982C15.9662 17.9451 15.9818 17.9888 15.9662 18.0295C15.9474 18.0795 15.9068 18.0951 15.8443 18.0764L15.7833 18.0388L15.7739 18.0248L15.7927 17.9216L15.7364 17.9029L15.6895 18.0576ZM15.1832 17.8419L15.5677 18.0295L15.6286 17.8888L15.5817 17.8701L15.5348 17.9451L15.5208 17.9545L15.352 17.8701L15.4458 17.6685L15.5395 17.7153V17.7294L15.5255 17.7904L15.5677 17.8138L15.6474 17.6263L15.6098 17.6075L15.5723 17.6591L15.5583 17.6685L15.4645 17.6216L15.5489 17.434L15.6895 17.5044L15.6989 17.5231L15.6755 17.5935L15.7224 17.6169L15.7833 17.495L15.4223 17.3168L15.4082 17.3543L15.4458 17.3778L15.4551 17.4012L15.2676 17.8138L15.2488 17.8185L15.202 17.8044L15.1832 17.8419ZM15.1223 17.1481L14.9347 17.0121L14.9066 17.0496L14.9488 17.0824V17.1012L14.705 17.4809L14.6862 17.4856L14.6487 17.4622L14.6206 17.5044L14.8128 17.631C14.8785 17.681 14.941 17.7013 15.0004 17.6919C15.0816 17.6857 15.1504 17.6388 15.2066 17.5513C15.3004 17.4012 15.277 17.2512 15.1223 17.1481ZM15.0426 17.1481L15.0801 17.1762C15.1832 17.2481 15.1926 17.3497 15.1082 17.4809C14.9816 17.6778 14.9253 17.6497 14.8269 17.5747L14.7847 17.5559L15.0426 17.1527V17.1481ZM16.571 17.7529L16.5616 17.7904L16.6085 17.8044L16.6178 17.8185L16.5241 18.2686L16.51 18.2826L16.4631 18.2779L16.4538 18.3155L16.6741 18.3623L16.6835 18.3295L16.6366 18.3108L16.6225 18.292L16.66 18.1045H16.6788C16.7538 18.1232 16.7726 18.1654 16.7726 18.2498C16.7726 18.2967 16.7726 18.3295 16.8101 18.3764C16.8226 18.3952 16.8491 18.4108 16.8898 18.4233L16.9648 18.4327L16.9695 18.3905H16.9648C16.9116 18.3811 16.8851 18.3545 16.8851 18.3108C16.8851 18.2639 16.8788 18.217 16.8663 18.1701C16.8522 18.1389 16.8272 18.1139 16.796 18.0998C16.8866 18.0998 16.9398 18.0623 16.9554 17.9873C16.9742 17.8935 16.9241 17.831 16.8054 17.7997L16.571 17.7529ZM16.721 17.8326L16.7538 17.8372C16.8288 17.856 16.8601 17.9013 16.8476 17.9732C16.8319 18.0513 16.7835 18.081 16.7022 18.0623L16.6741 18.0529L16.721 17.8326ZM19.5528 17.8794L19.5574 17.9263H19.6231L19.6981 18.3905L19.684 18.3998L19.6371 18.4139L19.6418 18.4514L19.8762 18.4139V18.3717L19.82 18.3764L19.8059 18.367L19.7778 18.1748H19.7919C19.8762 18.1561 19.9044 18.1889 19.9466 18.2686C19.9653 18.3061 19.9747 18.3436 20.0263 18.3717C20.0513 18.3842 20.0825 18.3873 20.12 18.3811L20.2044 18.3577L20.1951 18.3201H20.1857C20.1357 18.3326 20.0982 18.3186 20.0732 18.2779C20.0544 18.2373 20.0325 18.1982 20.0075 18.1607C19.9825 18.1357 19.9513 18.1232 19.9138 18.1232C20.0044 18.0857 20.0435 18.0279 20.031 17.9498C20.0122 17.856 19.9388 17.8169 19.8106 17.8326L19.5528 17.8794ZM19.7356 17.8982H19.7731C19.8544 17.8826 19.9013 17.9107 19.9138 17.9826C19.9263 18.0607 19.8888 18.1076 19.8012 18.1232H19.7684L19.7309 17.8982H19.7356Z" fill="black"/>
<path fill-rule="evenodd" clip-rule="evenodd" d="M14.3191 18.5977L13.9129 17.8951L14.116 17.7475C14.1724 17.9246 14.4037 17.9837 14.4432 18.208C14.4827 18.4324 14.2853 18.6509 14.3191 18.5977Z" fill="url(#paint8_linear_720_53456)" stroke="black" stroke-width="0.0692947"/>
<path fill-rule="evenodd" clip-rule="evenodd" d="M13.9456 18.3935C13.9456 18.3935 13.8723 18.0805 14.1036 18.0392C14.3293 18.0038 14.4534 18.2163 14.4195 18.1337C14.3857 18.0392 14.2503 17.9506 14.2277 17.6377C14.2051 17.3248 14.2446 17.1535 14.2446 17.1535C14.2446 17.1535 14.1544 16.752 13.7876 16.8052C13.4153 16.8642 13.3983 17.1594 13.3983 17.2657C13.3983 17.372 13.4322 17.431 13.4322 17.431L13.9456 18.3935Z" fill="url(#paint9_linear_720_53456)" stroke="black" stroke-width="0.0692947"/>
<path fill-rule="evenodd" clip-rule="evenodd" d="M18.3463 17.54C18.3463 17.54 14.0845 16.2758 14.1127 11.5027L14.1409 5.18188H22.546L22.5742 11.4673C22.6024 16.2404 18.3406 17.5341 18.3406 17.5341L18.3463 17.54Z" fill="#0072C4" stroke="white" stroke-width="0.225208"/>
<path fill-rule="evenodd" clip-rule="evenodd" d="M14.7239 6.59461C14.7333 6.59461 14.7802 6.54773 14.8317 6.50084L15.0193 6.38832C15.0755 6.36488 15.174 6.34144 15.2162 6.318C15.2796 6.28857 15.3357 6.24532 15.3803 6.19141C15.3849 6.10702 15.399 6.04607 15.399 5.9523L15.5865 5.85854C15.6803 5.83041 15.6944 5.79759 15.7835 5.78352C15.8397 5.76477 15.9335 5.76477 16.0132 5.76477C16.1023 5.76477 16.1538 5.83041 16.2335 5.83978C16.3273 5.87729 16.3742 5.90542 16.4492 5.97106C16.4867 6.02263 16.5148 6.06482 16.5899 6.10702C16.6399 6.14453 16.6977 6.17578 16.7633 6.20079C16.8383 6.24298 16.8993 6.26642 16.9555 6.32737C17.0118 6.36488 17.0352 6.42114 17.0774 6.45865L17.2603 6.58992C17.3353 6.6368 17.4103 6.67431 17.5275 6.66493C17.5932 6.65868 17.6635 6.65868 17.7385 6.66493C17.8291 6.66181 17.912 6.66962 17.987 6.68838C18.0808 6.68838 18.1511 6.69775 18.2355 6.70713C18.3136 6.71963 18.3949 6.72432 18.4793 6.72119C18.5605 6.73995 18.6434 6.7462 18.7277 6.73995H19.2247C19.3216 6.73995 19.4029 6.7462 19.4685 6.7587L19.717 6.73995C19.8108 6.73995 19.8858 6.72588 19.9842 6.72119H20.2796C20.3593 6.74464 20.4577 6.7587 20.514 6.8009C20.5843 6.81965 20.6172 6.85247 20.6875 6.87591C20.7552 6.90489 20.816 6.94806 20.8656 7.0025C20.9212 7.06323 20.9684 7.13101 21.0063 7.2041C21.0532 7.27442 21.0719 7.35881 21.1094 7.4432C21.1313 7.52447 21.1438 7.61042 21.1469 7.70106C21.1626 7.78232 21.1688 7.86828 21.1657 7.95892C21.1422 8.04331 21.1422 8.13708 21.1094 8.21678C21.1063 8.31055 21.0954 8.39025 21.0766 8.45589C21.0625 8.53559 21.0391 8.58247 21.0391 8.68093V8.93879C21.0391 9.02318 21.0157 9.07944 21.0063 9.1732L20.8797 9.4545C20.8248 9.49266 20.7772 9.54029 20.739 9.59516C20.7015 9.63266 20.6844 9.65923 20.6875 9.67486C20.7578 9.6983 20.739 9.74987 20.739 9.83895C20.7453 9.91709 20.7578 9.99835 20.7766 10.0827C20.7828 10.1609 20.7984 10.2281 20.8234 10.2843C20.8563 10.3218 20.8656 10.3031 20.7906 10.3031C20.7437 10.3406 20.6875 10.3218 20.6687 10.2468C20.6294 10.1846 20.6053 10.1139 20.5984 10.0405C20.589 9.95616 20.5734 9.88271 20.5515 9.8202C20.5374 9.71705 20.5093 9.71705 20.4109 9.71236C20.364 9.67173 20.2921 9.65298 20.1952 9.6561C20.1014 9.6561 20.0921 9.64673 20.0874 9.74987V10.0077L20.017 10.2093C19.9655 10.2468 19.942 10.3125 19.8764 10.3547C19.8436 10.4391 19.8014 10.4531 19.717 10.4719L19.6138 10.3406C19.6607 10.2562 19.7076 10.2468 19.7357 10.1531C19.7732 10.0827 19.7967 10.0359 19.8201 9.97022C19.7826 9.91396 19.7545 9.88583 19.717 9.80613C19.6782 9.74269 19.6468 9.67506 19.6232 9.60453C19.5716 9.58109 19.4826 9.5764 19.4357 9.54827C19.3466 9.52483 19.3279 9.62328 19.2247 9.62328H18.9762C18.8684 9.62328 18.8403 9.67955 18.7465 9.67486C18.7152 9.68111 18.6512 9.68111 18.5543 9.67486C18.4793 9.70299 18.3902 9.69361 18.3058 9.69361C18.2214 9.68736 18.1448 9.67486 18.0761 9.6561C17.9979 9.6311 17.9167 9.61391 17.8323 9.60453C17.7244 9.60453 17.6869 9.60922 17.6166 9.6561C17.565 9.68892 17.4853 9.76394 17.4291 9.80613C17.4009 9.86708 17.3869 9.97022 17.3494 10.0405C17.3353 10.1203 17.3025 10.1624 17.279 10.2281C17.2512 10.3 17.2353 10.376 17.2322 10.4531C17.2228 10.575 17.1993 10.561 17.1243 10.5234L17.0165 10.3547C17.0352 10.2609 17.054 10.2187 17.054 10.1203C17.0352 10.0405 16.9977 10.0499 16.9509 10.1015C16.9509 10.1953 16.9509 10.2703 16.9087 10.3218C16.8937 10.3803 16.8567 10.4306 16.8055 10.4625C16.7821 10.5375 16.7211 10.5703 16.6649 10.5985V10.5188C16.6227 10.4391 16.6649 10.3687 16.6649 10.2656C16.6649 10.1718 16.6602 10.1109 16.6836 10.0312C16.6836 9.9374 16.6461 9.85301 16.6321 9.78738C16.5992 9.71705 16.5805 9.68423 16.4914 9.6561C16.4258 9.62797 16.3367 9.59984 16.2945 9.54358C16.254 9.4875 16.1989 9.44369 16.1351 9.417C16.0601 9.38887 16.0179 9.36074 15.9569 9.32323C15.91 9.26228 15.8632 9.23884 15.835 9.15914C15.7975 9.10288 15.7928 8.99505 15.7694 8.92003C15.7607 8.84438 15.7417 8.77026 15.7131 8.69968C15.7053 8.62283 15.688 8.54724 15.6616 8.47464L15.61 8.23553C15.6131 8.14489 15.6053 8.05894 15.5865 7.97767V7.71981C15.5772 7.6448 15.5725 7.53228 15.5537 7.48071C15.5537 7.37756 15.5444 7.32599 15.5162 7.25567C15.4787 7.19003 15.4787 7.1619 15.4131 7.14783C15.3662 7.20409 15.2959 7.23535 15.2021 7.2416C15.1365 7.22754 15.0474 7.21347 14.9724 7.18534C14.9099 7.16659 14.852 7.14158 14.7989 7.11033L14.6911 6.96499C14.677 6.87122 14.6583 6.81965 14.6536 6.72119C14.6536 6.65556 14.6536 6.69306 14.7286 6.59461H14.7239Z" fill="#BCBCBC"/>
<path fill-rule="evenodd" clip-rule="evenodd" d="M15.7694 7.26036L15.7835 7.24629C15.7522 7.27129 15.7678 7.26661 15.8303 7.23222C15.8725 7.21347 15.9429 7.17128 15.971 7.13846C15.9991 7.12908 16.0554 7.10564 16.0835 7.07751C16.1148 7.04 16.1523 7.00562 16.196 6.97437C16.2429 6.93217 16.2898 6.91811 16.3461 6.8806C16.4117 6.87591 16.4398 6.84309 16.5055 6.86653C16.5664 6.8806 16.5945 6.8806 16.6461 6.82903C16.693 6.8009 16.7493 6.76339 16.768 6.71651V6.63212C16.768 6.71651 16.7493 6.74932 16.693 6.77277C16.6555 6.82434 16.5992 6.87591 16.5805 6.92279C16.5383 6.97905 16.5336 7.00718 16.4961 7.03531C16.4586 7.07751 16.4023 7.10095 16.3929 7.17128C16.4117 7.19941 16.3929 7.21816 16.4351 7.21816C16.468 7.25098 16.5055 7.23691 16.557 7.21816C16.596 7.17341 16.6277 7.12277 16.6508 7.06813L16.7446 6.93217C16.7883 6.91029 16.8165 6.87591 16.829 6.82903C16.879 6.79777 16.9212 6.76652 16.9555 6.73526C16.9931 6.71651 17.0118 6.69775 17.0681 6.68838C17.0708 6.73805 17.0577 6.78731 17.0306 6.82903C17.0165 6.90404 17.0212 6.93686 17.0446 6.98374C17.0774 7.00718 17.0728 7.03063 17.0915 7.07751C17.1149 7.03063 17.1243 6.94624 17.1337 6.88997V6.8806C17.1337 6.93686 17.1337 7.01187 17.1149 7.04938C17.1149 7.12908 17.1384 7.1619 17.1571 7.21816C17.1759 7.24942 17.1962 7.27129 17.2181 7.2838C17.2181 7.20878 17.2415 7.1619 17.2415 7.09626C17.254 7.1494 17.2619 7.20878 17.265 7.27442C17.2744 7.33068 17.29 7.38225 17.3119 7.42914C17.3447 7.4432 17.3541 7.49946 17.3634 7.45727C17.3963 7.3635 17.3963 7.26504 17.415 7.17128C17.414 7.11682 17.4236 7.06269 17.4431 7.01187L17.415 7.16659C17.415 7.1197 17.4244 7.04938 17.4431 7.01187V6.99781L17.4666 7.20878C17.4666 7.26504 17.4713 7.3213 17.4806 7.37756C17.5181 7.35569 17.5478 7.31662 17.5697 7.26036C17.5952 7.20987 17.6267 7.16265 17.6635 7.1197L17.5697 7.26036C17.5952 7.20987 17.6267 7.16265 17.6635 7.1197V7.10564L17.6541 7.2838C17.6541 7.35256 17.6588 7.41038 17.6682 7.45727C17.6822 7.5229 17.701 7.53697 17.7057 7.60729C17.6994 7.65105 17.7026 7.68231 17.7151 7.70106C17.7713 7.71513 17.7713 7.687 17.776 7.61198C17.776 7.52759 17.7994 7.47133 17.8041 7.39163C17.8041 7.29317 17.8182 7.40101 17.8276 7.43851C17.85 7.49373 17.8627 7.55243 17.8651 7.61198C17.8651 7.65261 17.8698 7.68387 17.8792 7.70575C17.926 7.68231 17.9448 7.62605 17.9729 7.59792L18.0526 7.46664C18.1183 7.45727 18.1136 7.42914 18.1136 7.35412C18.1136 7.28536 18.1183 7.22285 18.1276 7.16659L18.1792 6.99781C18.2026 6.98374 18.2261 7.02125 18.2402 7.04938C18.2683 7.09626 18.2636 7.15252 18.2636 7.21816L18.3292 7.37756C18.353 7.42366 18.3829 7.46626 18.4183 7.50415C18.4246 7.55728 18.4277 7.61511 18.4277 7.67762C18.4683 7.61511 18.4886 7.54166 18.4886 7.45727C18.4793 7.40101 18.4793 7.32599 18.4652 7.26973C18.4625 7.21716 18.4531 7.16516 18.4371 7.11502C18.3964 7.10251 18.3933 7.07126 18.4277 7.02125C18.4652 6.98843 18.5121 7.00718 18.5777 7.01187C18.6105 7.04938 18.6246 7.06813 18.6246 7.14315C18.6215 7.21191 18.6309 7.26817 18.6527 7.31193C18.6762 7.34943 18.6996 7.37756 18.7137 7.43851C18.7324 7.46195 18.7465 7.4854 18.7746 7.45727C18.7887 7.41976 18.8028 7.34006 18.8121 7.29786C18.8278 7.2541 18.8481 7.22285 18.8731 7.2041C18.8731 7.27911 18.8731 7.3213 18.9012 7.37756L18.9622 7.51821C18.9903 7.54166 18.995 7.57916 19.0278 7.59792C19.034 7.53541 19.0372 7.46664 19.0372 7.39163V7.2041C19.0434 7.15096 19.0575 7.10408 19.0794 7.06344C19.1169 7.11502 19.1169 7.13377 19.1169 7.2041C19.1481 7.19159 19.1684 7.1619 19.1778 7.11502C19.2013 7.08689 19.2153 7.07751 19.2247 7.14315L19.2622 7.33537C19.2857 7.36819 19.3185 7.43851 19.3466 7.46664L19.4263 7.57447C19.4451 7.61198 19.4498 7.64011 19.5013 7.64949C19.5013 7.5651 19.4966 7.47915 19.4873 7.39163C19.4873 7.31662 19.4685 7.28848 19.4638 7.21816C19.4404 7.17596 19.431 7.11033 19.4357 7.08689C19.4868 7.12998 19.527 7.18462 19.5529 7.24629L19.6279 7.41976L19.7217 7.54634C19.7686 7.58385 19.792 7.62605 19.8389 7.66355C19.8623 7.68699 19.9139 7.70106 19.9233 7.68699C19.9233 7.61511 19.9108 7.54634 19.8858 7.48071C19.8862 7.42684 19.8733 7.3737 19.8483 7.32599C19.8014 7.2838 19.7592 7.25567 19.7357 7.19472C19.717 7.17596 19.717 7.16659 19.7123 7.12908C19.7777 7.18235 19.836 7.2438 19.8858 7.31193C19.9117 7.35134 19.9472 7.38359 19.9889 7.40569C20.0077 7.43382 20.0827 7.46664 20.1343 7.48071C20.1666 7.52039 20.2111 7.54838 20.2608 7.56041L20.1343 7.48071C20.1666 7.52039 20.2111 7.54838 20.2608 7.56041V7.57447C20.2516 7.4995 20.226 7.42748 20.1858 7.3635C20.1609 7.30645 20.1202 7.25766 20.0686 7.22285C20.0374 7.17501 19.9957 7.13492 19.9467 7.10564C19.9139 7.06813 19.8623 6.99781 19.8342 6.97437C19.8905 6.93686 19.9514 6.99781 20.0077 7.02125C20.0592 7.07751 20.1014 7.14783 20.1343 7.18065C20.1644 7.244 20.204 7.30247 20.2515 7.35412C20.2983 7.38225 20.3421 7.41663 20.3827 7.45727C20.4624 7.47602 20.4296 7.44789 20.4109 7.39163C20.389 7.32287 20.4046 7.31349 20.4577 7.3635L20.5843 7.45727C20.6078 7.48071 20.6406 7.50415 20.6687 7.48071C20.6844 7.46821 20.6906 7.4557 20.6875 7.4432C20.6656 7.35881 20.6265 7.30255 20.5703 7.27442C20.539 7.23379 20.5015 7.19472 20.4577 7.15721L20.3827 7.04938L20.4624 7.15252C20.4343 7.11502 20.4062 7.09626 20.3827 7.04938H20.3734C20.4484 7.04938 20.4765 7.07282 20.5328 7.10564C20.5779 7.12641 20.6167 7.15876 20.6453 7.19941C20.6765 7.22754 20.7078 7.26036 20.739 7.29786L20.8563 7.39163C20.9031 7.4432 20.9031 7.48071 20.9031 7.56041C20.936 7.59792 20.936 7.67293 20.95 7.71513C20.936 7.79014 20.9125 7.72919 20.9031 7.68699C20.9031 7.63073 20.875 7.63542 20.8328 7.64949C20.8328 7.72919 20.8422 7.74794 20.8703 7.80889C20.8636 7.85388 20.8477 7.89699 20.8234 7.93548C20.7906 7.95423 20.7859 7.89797 20.7578 7.87453C20.7578 7.79483 20.7344 7.78076 20.6828 7.74326V7.79483C20.7109 7.85109 20.7437 7.89797 20.7484 7.97767C20.7665 8.03203 20.7744 8.08923 20.7719 8.14645C20.7719 8.20897 20.7672 8.27148 20.7578 8.33399L20.7484 8.49808V8.86377C20.739 8.91066 20.7344 8.96692 20.7344 9.03255V9.04662C20.7094 8.98411 20.6875 8.92003 20.6687 8.8544C20.6311 8.81567 20.6024 8.7693 20.5843 8.71843L20.5609 8.55434C20.5421 8.50746 20.5234 8.46057 20.4812 8.4887C20.4671 8.58247 20.4906 8.63873 20.5234 8.7325C20.5421 8.79345 20.5421 8.84502 20.5609 8.90597C20.589 8.9716 20.6125 8.98098 20.5609 9.05599C20.5328 9.10288 20.5234 9.11225 20.514 9.16383C20.4671 9.18727 20.4531 9.20133 20.4484 9.25759C20.4343 9.20602 20.3968 9.14507 20.3734 9.08881L20.3124 8.90128C20.2796 8.8544 20.2468 8.78876 20.214 8.76063C20.1764 8.71843 20.1343 8.64342 20.1108 8.60591C20.0639 8.54965 20.0499 8.51215 20.0077 8.4887C20.003 8.46057 19.9889 8.42775 19.9608 8.4512C19.9608 8.51371 19.9655 8.57309 19.9748 8.62935C19.9889 8.70437 20.0077 8.74656 20.0124 8.82158V8.96692L19.9233 8.76063C19.8951 8.71843 19.8764 8.64342 19.8389 8.61998C19.8201 8.56684 19.7983 8.52308 19.7732 8.4887C19.7686 8.4512 19.7498 8.4512 19.7357 8.42307C19.7357 8.49339 19.7592 8.52152 19.7732 8.57778C19.7958 8.62773 19.8055 8.68254 19.8014 8.73719C19.7701 8.64029 19.7357 8.54809 19.6982 8.46057C19.6607 8.409 19.6232 8.33868 19.6045 8.2871C19.5623 8.24491 19.5248 8.24022 19.4873 8.21209C19.4544 8.197 19.4256 8.17454 19.4029 8.14645C19.4122 8.21209 19.4279 8.26835 19.4498 8.31523C19.4591 8.38087 19.4919 8.43244 19.5013 8.4887C19.4873 8.57778 19.4638 8.46057 19.4544 8.42307C19.4432 8.36762 19.4208 8.315 19.3888 8.26835L19.2857 8.17458C19.2482 8.16052 19.2622 8.17458 19.2622 8.22147C19.2591 8.30273 19.2669 8.36524 19.2857 8.409C19.3107 8.44338 19.32 8.49496 19.3138 8.56372L19.2997 8.75125V8.84971C19.2716 8.79813 19.2435 8.76063 19.2247 8.69499C19.1825 8.63404 19.1684 8.59185 19.1403 8.52621C19.1122 8.51215 19.0606 8.50277 19.0372 8.52621C19.0419 8.59185 19.0747 8.61998 19.0794 8.69499C19.0278 8.74187 19.0325 8.76063 18.9997 8.68093C18.9762 8.61998 18.9387 8.62467 18.9012 8.58716C18.8403 8.58716 18.859 8.54028 18.8403 8.48401C18.8403 8.43401 18.8356 8.38712 18.8262 8.34336C18.7559 8.34336 18.7184 8.34336 18.6762 8.38087C18.6574 8.41838 18.6668 8.49339 18.6762 8.55434V8.7325C18.6621 8.77938 18.6387 8.77938 18.6293 8.84033C18.6012 8.8919 18.5965 8.95285 18.5777 8.99036C18.5308 9.03724 18.5496 9.03724 18.5308 8.96692V8.54496L18.5402 8.38087C18.5168 8.3293 18.5074 8.31523 18.423 8.31523C18.4089 8.34805 18.4183 8.409 18.423 8.44651C18.423 8.51527 18.4277 8.57153 18.4371 8.61529C18.4371 8.68561 18.4464 8.72781 18.4511 8.78407C18.4511 8.85596 18.4355 8.90753 18.4042 8.93879C18.3574 8.95285 18.3949 8.98567 18.3527 8.99505C18.3013 8.97105 18.2539 8.93944 18.212 8.90128C18.1683 8.88565 18.1151 8.87784 18.0526 8.87784C17.9682 8.87784 17.9682 8.86377 17.9401 8.80282C17.9183 8.73402 17.9026 8.66342 17.8932 8.59185C17.8604 8.5309 17.8557 8.4887 17.8463 8.41838C17.8286 8.38058 17.8011 8.34821 17.7666 8.32461C17.7448 8.38712 17.7322 8.45432 17.7291 8.52621C17.7151 8.55434 17.7104 8.63404 17.7057 8.66686C17.6776 8.62935 17.6682 8.55434 17.6541 8.49808C17.6307 8.42307 17.6072 8.37149 17.5275 8.39494C17.4478 8.39494 17.4431 8.39494 17.4431 8.4887L17.5369 8.63873V8.82626C17.5369 8.90128 17.5463 8.92003 17.49 8.93879C17.4658 8.85926 17.4277 8.78466 17.3775 8.71843C17.3728 8.67155 17.3587 8.68093 17.3025 8.68093C17.2681 8.67468 17.24 8.67936 17.2181 8.69499V8.80751C17.19 8.81689 17.1696 8.80907 17.1571 8.78407C17.1337 8.82158 17.1525 8.87784 17.1571 8.92472C17.1461 8.97656 17.1255 9.02587 17.0962 9.07006C17.0868 9.05131 17.0728 9.06068 17.0962 9.06068L16.8618 8.98567C16.8243 8.98567 16.7915 9.02786 16.768 9.06068C16.7024 9.07944 16.6742 9.09819 16.6039 9.09819C16.5383 9.09819 16.5055 9.11225 16.4445 9.11225C16.3976 9.12163 16.3429 9.12632 16.2804 9.12632C16.2476 9.11225 16.1867 9.11225 16.1679 9.09819C16.196 9.06068 16.2242 9.04193 16.2476 8.98567L16.3414 8.8919L16.4445 8.78407C16.4633 8.71843 16.4914 8.70906 16.5336 8.68093C16.6086 8.68093 16.618 8.70906 16.693 8.71843C16.7633 8.74656 16.8055 8.76063 16.8477 8.70437C16.904 8.68093 16.9509 8.63873 17.0165 8.62935L17.1431 8.55434C17.1993 8.51683 17.2181 8.48402 17.265 8.44651C17.279 8.39025 17.3212 8.35274 17.3025 8.29179C17.24 8.26991 17.19 8.27773 17.1525 8.31523C17.1056 8.36212 17.0915 8.38087 17.0306 8.41838C16.9837 8.43244 16.9509 8.45588 16.8899 8.47464C16.843 8.49339 16.7774 8.48401 16.7211 8.48401C16.6649 8.48401 16.5899 8.48401 16.557 8.49808C16.6102 8.45883 16.6686 8.42727 16.7305 8.40431C16.7774 8.37149 16.8008 8.35743 16.8712 8.35743C16.8993 8.31523 16.9321 8.31523 16.9462 8.2496C16.9649 8.17458 16.8993 8.19803 16.843 8.22616C16.7961 8.23553 16.7352 8.27304 16.693 8.2871C16.6415 8.30412 16.5878 8.31359 16.5336 8.31523C16.5148 8.29179 16.543 8.27304 16.557 8.24022C16.6133 8.21678 16.6227 8.2074 16.6321 8.14645C16.5664 8.15583 16.5383 8.17927 16.4773 8.18396C16.4148 8.19959 16.3492 8.20897 16.2804 8.21209H16.107C16.046 8.21209 16.0132 8.19803 15.9429 8.19803C15.896 8.1699 15.896 8.16052 15.896 8.08082C15.9335 8.03393 15.971 8.04331 16.046 8.04331L16.182 7.97767C16.232 7.9683 16.2539 7.95111 16.2476 7.9261H16.0694C15.9991 7.89328 16.0694 7.88391 16.107 7.86046C16.1695 7.85734 16.2242 7.86515 16.271 7.88391C16.3461 7.88391 16.3742 7.85578 16.4351 7.80889C16.482 7.77139 16.5008 7.74326 16.557 7.71513C16.5977 7.67762 16.6289 7.64324 16.6508 7.61198C16.7071 7.57135 16.7461 7.53228 16.768 7.49477C16.8055 7.47602 16.818 7.45414 16.8055 7.42914C16.7258 7.43851 16.693 7.46664 16.6414 7.50415C16.6148 7.5357 16.5831 7.56263 16.5477 7.58385C16.499 7.61698 16.4423 7.63641 16.3836 7.64011L16.2054 7.62605C16.1398 7.61667 16.2007 7.6026 16.2195 7.56979C16.2507 7.55103 16.2601 7.52134 16.2476 7.48071C16.1913 7.46508 16.132 7.46039 16.0694 7.46664H15.896C15.8303 7.46664 15.8022 7.45258 15.7553 7.42914C15.746 7.39163 15.7553 7.40101 15.8022 7.40101C15.8592 7.40006 15.9159 7.39219 15.971 7.37756C16.0273 7.35881 16.0366 7.33537 16.046 7.27442C15.9804 7.27442 15.9257 7.26973 15.8819 7.26036H15.7694ZM14.6911 6.96499C14.677 6.87122 14.6583 6.81965 14.6536 6.72119C14.6536 6.65556 14.6536 6.69306 14.7239 6.59461C14.7333 6.59461 14.7802 6.54773 14.8317 6.50084L15.0193 6.38832C15.0708 6.36488 15.174 6.34144 15.2162 6.318C15.2796 6.28857 15.3357 6.24532 15.3803 6.19141C15.3803 6.10702 15.3943 6.04607 15.3943 5.9523L15.5865 5.85854C15.6803 5.83041 15.6944 5.79759 15.7835 5.78352C15.8397 5.76477 15.9335 5.76477 16.0132 5.76477C16.1023 5.76477 16.1538 5.83041 16.2335 5.83978C16.3273 5.87729 16.3742 5.90542 16.4445 5.97106C16.4867 6.02263 16.5148 6.06482 16.5852 6.10702C16.6383 6.14453 16.6977 6.17578 16.7633 6.20079C16.7633 6.26642 16.7774 6.25705 16.7305 6.25705C16.7211 6.32268 16.7071 6.32268 16.6414 6.32268C16.5963 6.29762 16.5578 6.26229 16.5289 6.21954C16.557 6.14922 16.5383 6.27111 16.5289 6.29455C16.4961 6.32268 16.482 6.34613 16.4445 6.32268C16.4211 6.25705 16.407 6.21485 16.407 6.13515C16.3929 6.05545 16.3742 6.1164 16.3601 6.14922C16.3367 6.21954 16.3461 6.24298 16.3695 6.29455L16.2054 6.28518C16.1585 6.2758 16.1085 6.28205 16.0554 6.30393C15.9897 6.35081 16.0085 6.35081 16.0413 6.3977C16.0976 6.41645 16.1492 6.44146 16.196 6.47271C16.2492 6.46646 16.307 6.45396 16.3695 6.4352C16.4305 6.41645 16.482 6.4352 16.543 6.4352L16.6321 6.47271C16.6321 6.5196 16.6274 6.55554 16.618 6.58054C16.5945 6.5993 16.5711 6.64618 16.5242 6.65556C16.4718 6.68735 16.4149 6.71106 16.3554 6.72588C16.2804 6.72588 16.2476 6.74464 16.1913 6.77277C16.1867 6.84309 16.1632 6.86184 16.1023 6.8806C16.0501 6.9077 15.9923 6.92215 15.9335 6.92279C15.8929 6.92592 15.8632 6.91967 15.8444 6.90404C15.8866 6.86084 15.92 6.80989 15.9429 6.75401C15.9569 6.72588 15.9804 6.70713 15.9569 6.68369C15.8819 6.68369 15.8632 6.68369 15.8538 6.7587C15.8491 6.83372 15.821 6.84309 15.7694 6.86653C15.7788 6.80715 15.7913 6.75089 15.8069 6.69775L15.6475 6.71182C15.61 6.73995 15.5912 6.74464 15.61 6.78683C15.5569 6.79933 15.4975 6.79933 15.4318 6.78683C15.3803 6.78683 15.4084 6.76339 15.3709 6.73995C15.3428 6.68838 15.3193 6.67431 15.2584 6.67431C15.2302 6.71182 15.1787 6.72119 15.1458 6.74932C15.0896 6.76808 15.0568 6.74932 15.0052 6.72588C14.9489 6.72588 14.9583 6.74464 14.9677 6.79152C14.9958 6.80558 14.9677 6.82434 15.0099 6.82903C15.0474 6.86185 15.0755 6.86653 15.1458 6.86653C15.199 6.86028 15.2568 6.85716 15.3193 6.85716C15.3803 6.85716 15.3709 6.87122 15.3709 6.93217C15.3334 6.96499 15.2724 6.9603 15.2068 6.9603L15.0568 6.92279C15.0005 6.91811 14.9536 6.90404 14.9067 6.92279C14.888 6.94624 14.8317 6.95092 14.8974 6.9603C14.9255 6.98374 15.0708 6.96968 15.0755 7.01656C15.113 7.05407 15.1036 7.10564 15.0474 7.10564C15.0337 7.09825 15.0184 7.09439 15.0028 7.09439C14.9873 7.09439 14.972 7.09825 14.9583 7.10564L14.7942 7.11033C14.888 7.1197 14.7239 7.00718 14.6911 6.96499Z" fill="#FEFEFE"/>
<path fill-rule="evenodd" clip-rule="evenodd" d="M15.0847 6.52866L15.0097 6.58021L14.8597 6.6833C14.8316 6.70674 14.8316 6.72079 14.7988 6.72079C14.8551 6.71611 14.8832 6.69736 14.9394 6.67393C15.005 6.66768 15.0566 6.64894 15.0941 6.6177C15.1315 6.60833 15.0941 6.55678 15.0847 6.52398V6.52866ZM15.6564 5.91947C15.6658 5.91947 15.6798 5.95228 15.7032 5.98039C15.7282 6.02101 15.7423 6.06943 15.7454 6.12566C15.7595 6.06006 15.7829 6.0132 15.7923 5.9429C15.7735 5.90542 15.7735 5.89604 15.7173 5.89136C15.7173 5.92885 15.7267 5.90073 15.6564 5.91479V5.91947Z" fill="#BCBCBC"/>
<path fill-rule="evenodd" clip-rule="evenodd" d="M15.2761 6.47273C15.2479 6.47273 15.3213 6.44321 15.3495 6.43731C15.3645 6.39401 15.389 6.35858 15.4228 6.33102C15.483 6.33102 15.5244 6.35267 15.5469 6.39597C15.6034 6.41369 15.6203 6.4373 15.6823 6.44911C15.7106 6.47273 15.7388 6.47273 15.6823 6.49045C15.6447 6.50619 15.5958 6.51406 15.5357 6.51406C15.4847 6.51778 15.4348 6.53181 15.389 6.55539C15.3043 6.55539 15.3156 6.5554 15.2761 6.47273Z" fill="#C4C4C2" stroke="black" stroke-width="0.051971"/>
<path fill-rule="evenodd" clip-rule="evenodd" d="M15.8821 5.92886V5.94293C15.8821 5.90855 15.8868 5.92418 15.8961 5.98981C15.9149 6.03357 15.9227 6.08827 15.9196 6.15391C15.9557 6.12228 15.9832 6.08193 15.9993 6.0367C15.9993 5.93355 15.9805 5.93355 15.8821 5.92886ZM16.3415 7.42914H16.3556C16.3181 7.42914 16.3415 7.42914 16.4025 7.39163C16.4494 7.35881 16.4822 7.31662 16.5431 7.29786C16.5902 7.25726 16.6442 7.22549 16.7025 7.2041C16.7354 7.19003 16.7635 7.17128 16.7963 7.19003C16.7869 7.25567 16.7729 7.2838 16.7166 7.31193C16.6854 7.34943 16.6478 7.37444 16.6041 7.38694C16.5666 7.4057 16.5197 7.41038 16.5056 7.45727C16.4353 7.4854 16.4306 7.48071 16.3462 7.42914H16.3415ZM16.5806 7.80421L16.7213 7.67762C16.7547 7.62763 16.7958 7.58331 16.8432 7.54635L16.9557 7.4057L17.0542 7.27442C17.0542 7.33068 17.0495 7.4057 17.0682 7.43851C17.0718 7.49419 17.0588 7.54968 17.0307 7.59792C17.0026 7.6448 16.9838 7.67293 16.9135 7.70575C16.8619 7.73388 16.8244 7.74326 16.7822 7.78076L16.665 7.8464C16.6322 7.86047 16.6463 7.85578 16.5806 7.80889V7.80421ZM16.1915 8.10426H16.2056C16.1681 8.10426 16.1868 8.10895 16.2571 8.06675C16.304 8.01987 16.3572 7.98549 16.4166 7.96361C16.4702 7.96232 16.523 7.94953 16.5713 7.9261C16.5994 7.91673 16.6182 7.89797 16.6416 7.9261C16.6838 7.97767 16.6932 7.99643 16.6322 8.02925C16.5946 8.05902 16.5516 8.0813 16.5056 8.09488C16.4775 8.12301 16.4119 8.12301 16.3509 8.13239C16.304 8.13239 16.2759 8.14177 16.2571 8.10426L16.3556 8.13239C16.3087 8.13239 16.2806 8.14177 16.1915 8.10426ZM16.726 8.10426V8.09488C16.7229 8.13239 16.7322 8.11364 16.7541 8.03862C16.801 7.9683 16.8198 7.9261 16.8807 7.91204C16.9088 7.87453 16.9557 7.86515 17.0213 7.8464C17.0401 7.88391 17.0213 7.93079 17.0213 7.97767C17.0026 8.02456 16.9557 8.05738 16.9276 8.09488C16.8901 8.12301 16.8807 8.14646 16.8151 8.16052C16.7682 8.16052 16.7963 8.16052 16.7307 8.10426H16.726Z" fill="#BCBCBC"/>
<path fill-rule="evenodd" clip-rule="evenodd" d="M15.5063 6.41142C15.5063 6.45183 15.4861 6.47359 15.4457 6.4767C15.385 6.48137 15.3804 6.44872 15.3804 6.41142C15.3866 6.371 15.4084 6.34924 15.4457 6.34613C15.4861 6.34924 15.5063 6.371 15.5063 6.41142Z" fill="black"/>
<path fill-rule="evenodd" clip-rule="evenodd" d="M15.66 10.0732H15.7108C15.5527 10.0732 15.6487 10.0614 15.9083 10.28C16.0212 10.1854 16.0212 10.1736 16.1059 10.339C16.1623 10.4276 16.1736 10.3272 16.2583 10.2327C16.2978 10.4217 16.3204 10.6167 16.4559 10.4395C16.6139 10.4395 16.772 10.4276 16.8567 10.4926C16.9583 10.6876 16.9244 10.4572 17.0034 10.5458C17.2292 10.5694 17.2236 10.3449 17.4606 10.2859C17.6074 10.4808 17.6751 10.3331 17.8558 10.2386C17.9969 10.2741 18.1267 10.4926 18.155 10.28C18.2678 10.0909 18.2735 10.1027 18.3525 10.28C18.4654 10.3863 18.5106 10.2327 18.6009 10.1795C18.7627 10.278 18.9622 10.2957 19.1992 10.2327C19.2444 10.404 19.346 10.3272 19.4533 10.28C19.6734 10.3804 19.7468 10.4099 20.0008 10.28C20.125 10.1264 20.0572 10.2859 20.1476 10.3863C20.3338 10.3272 20.283 10.3154 20.4975 10.3331C20.7177 10.3331 20.7346 10.3331 20.7967 10.1795C20.9096 10.2918 20.9435 10.3745 21.0959 10.2327C21.333 10.2327 21.2596 10.2622 21.3951 10.1736C21.5023 10.4099 21.5249 10.2445 21.6491 10.3331C21.5775 10.5065 21.4549 10.6513 21.2991 10.7466C21.2031 10.9239 21.141 11.1011 20.9491 11.172C20.808 11.3196 20.6556 11.4083 20.4975 11.5382C20.283 11.5973 20.046 11.5855 19.8032 11.5855H17.7034C17.5566 11.6682 17.3082 11.7036 17.105 11.745C16.8792 11.745 16.6139 11.745 16.4559 11.6918C16.3486 11.5796 16.1623 11.4555 16.0607 11.3256C15.9478 11.2369 15.9478 11.0656 15.8575 10.9593C15.7785 10.8116 15.7446 10.5753 15.66 10.4395V10.0732Z" fill="#005120" stroke="#002B0D" stroke-width="0.0769941"/>
<path fill-rule="evenodd" clip-rule="evenodd" d="M20.4976 10.5456V10.5929C20.4976 10.4511 20.5033 10.5279 20.396 10.8056C20.3791 10.8705 20.3283 10.8883 20.2493 10.9119M20.0517 10.7524H20.1025C19.9162 10.9296 19.792 11.0182 19.7525 11.225L20.1025 10.7524C19.9162 10.9296 19.792 11.0182 19.7525 11.225M19.3517 10.4925C19.3517 10.4925 19.3461 10.6756 19.3009 10.7524L19.3517 10.4925ZM18.7534 10.5456H18.8042H18.7477C18.7703 10.5456 18.7873 10.5456 18.7477 10.5456H18.7534ZM15.9592 10.5456C15.9818 10.5456 16.0834 10.711 16.2076 10.8056C16.1794 10.9591 16.1286 11.1364 16.2076 11.2781M16.36 10.8587C16.3826 10.8587 16.4785 11.0241 16.6084 11.1186L16.36 10.8587C16.3826 10.8587 16.4785 11.0241 16.6084 11.1186V11.1718C16.6084 11.0064 16.5971 10.841 16.6592 10.7524C16.7156 10.8528 16.7834 11.0064 16.8059 10.8587C17.0882 10.8469 17.2237 10.7642 17.4043 10.6992C17.4043 10.776 17.393 10.7406 17.4607 10.8056M20.8476 10.5929H20.8984C20.8024 10.6756 20.7291 10.8469 20.65 10.9591M18.8042 10.4393H19.1993H18.8042Z" fill="#005120"/>
<path d="M20.4976 10.5456V10.5929C20.4976 10.4511 20.5033 10.5279 20.396 10.8056C20.3791 10.8705 20.3283 10.8883 20.2493 10.9119M20.0517 10.7524H20.1025M20.1025 10.7524C19.9162 10.9296 19.792 11.0182 19.7525 11.225L20.1025 10.7524ZM19.3517 10.4925C19.3517 10.4925 19.3461 10.6756 19.3009 10.7524M19.1542 10.8587V10.906M18.7477 10.5456H18.8042H18.7534H18.7477ZM18.7477 10.5456C18.7703 10.5456 18.7873 10.5456 18.7477 10.5456ZM15.9592 10.5456C15.9818 10.5456 16.0834 10.711 16.2076 10.8056C16.1794 10.9591 16.1286 11.1364 16.2076 11.2781M16.6084 11.1186C16.4785 11.0241 16.3826 10.8587 16.36 10.8587L16.6084 11.1186ZM16.6084 11.1186V11.1718C16.6084 11.0064 16.5971 10.841 16.6592 10.7524C16.7156 10.8528 16.7834 11.0064 16.8059 10.8587C17.0882 10.8469 17.2237 10.7642 17.4043 10.6992C17.4043 10.776 17.393 10.7406 17.4607 10.8056M20.8476 10.5929H20.8984C20.8024 10.6756 20.7291 10.8469 20.65 10.9591M18.8042 10.4393H19.1993" stroke="#002B0D" stroke-width="0.0769941"/>
<path fill-rule="evenodd" clip-rule="evenodd" d="M15.5394 10.8094C14.9393 10.8094 14.7424 11.4377 14.1422 11.4377H14.1047V11.4752C14.1047 11.9127 14.136 12.3191 14.1985 12.6941C14.7564 12.6566 14.958 12.0659 15.5394 12.0659C16.1395 12.0659 16.3411 12.6941 16.9412 12.6941C17.5413 12.6941 17.7382 12.0659 18.3383 12.0659C18.9384 12.0659 19.14 12.6941 19.7448 12.6941C20.3402 12.6941 20.5418 12.0659 21.142 12.0659C21.7186 12.0659 21.9249 12.6473 22.4781 12.6894C22.5452 12.2772 22.5765 11.86 22.5719 11.4423H22.5391C21.939 11.4423 21.7421 10.8141 21.142 10.8141C20.5418 10.8141 20.3356 11.4423 19.7401 11.4423C19.1447 11.4423 18.9431 10.8141 18.3383 10.8141C17.7335 10.8141 17.5413 11.4423 16.9412 11.4423C16.3458 11.4423 16.1395 10.8141 15.5347 10.8141L15.5394 10.8094ZM15.5394 13.2614C15.0705 13.2614 14.8502 13.6412 14.4892 13.8053C14.6086 14.1338 14.7577 14.4508 14.9346 14.7523C15.1039 14.6081 15.3171 14.5255 15.5394 14.5179C16.1395 14.5179 16.3411 15.1461 16.9365 15.1461C17.5413 15.1461 17.7382 14.5179 18.343 14.5179C18.9384 14.5179 19.14 15.1461 19.7401 15.1461C20.3356 15.1461 20.5372 14.5179 21.142 14.5179C21.3596 14.5236 21.5684 14.6048 21.7327 14.7476C21.9091 14.4459 22.0582 14.1289 22.1781 13.8006C21.8265 13.6318 21.6014 13.2614 21.142 13.2614C20.5418 13.2614 20.3356 13.885 19.7354 13.885C19.14 13.885 18.9384 13.2614 18.3383 13.2614C17.7382 13.2614 17.5413 13.885 16.9365 13.885C16.3317 13.885 16.1395 13.2614 15.5394 13.2614ZM18.3383 15.7041C17.7382 15.7041 17.5413 16.337 16.9412 16.337C16.3739 16.337 16.1629 15.7744 15.6331 15.7134C16.2139 16.3492 16.9109 16.868 17.6866 17.2418C17.8742 17.0965 18.0617 17.4153 18.3336 17.4153C18.6149 17.4153 18.8025 17.0918 18.9853 17.2325C19.7531 16.8608 20.4436 16.3469 21.0201 15.7181C20.509 15.7931 20.298 16.337 19.7401 16.337C19.14 16.337 18.9431 15.7087 18.3383 15.7087V15.7041Z" fill="white"/>
<path d="M14.6399 13.5896C14.8346 13.5204 15.0324 13.4613 15.2327 13.4126L16.153 14.3392L15.3964 14.4986L14.6399 13.5896Z" stroke="#512007" stroke-width="0.0288769"/>
<path d="M16.4297 14.7959C16.444 14.5827 16.8505 13.3594 16.8505 13.3594M16.5684 14.8098L16.8888 13.3687M16.6784 14.8144L16.9461 13.3687M16.444 14.6198C16.5158 14.5827 16.7214 14.5271 16.7214 14.5271M16.5445 14.4066C16.6114 14.4066 16.7501 14.351 16.7501 14.351M16.5827 14.2445C16.6509 14.2195 16.7213 14.2009 16.7931 14.1888M16.6114 14.0406L16.8362 14.0035M16.7118 13.8645C16.7118 13.8784 16.8649 13.8784 16.8649 13.8784M16.7501 13.707L16.9031 13.7301" stroke="#512007" stroke-width="0.0282571"/>
<path d="M18.8997 15.7314C18.8827 15.3666 18.4026 13.273 18.4026 13.273M18.7359 15.6601L18.3574 13.2809M18.5664 15.4777C18.5551 15.3429 18.2896 13.2889 18.2896 13.2889M18.8827 15.4301C18.798 15.3666 18.5551 15.2715 18.5551 15.2715M18.7641 15.0653C18.685 15.0653 18.5212 14.9701 18.5212 14.9701M18.7189 14.7877C18.6384 14.745 18.5552 14.7131 18.4704 14.6926M18.685 14.4388L18.4195 14.3753M18.5664 14.1374C18.5664 14.1612 18.3856 14.1612 18.3856 14.1612M18.5212 13.8678L18.3405 13.9074" stroke="#512007" stroke-width="0.0267717"/>
<path d="M20.2903 15.1927C20.2733 14.9212 19.7935 13.363 19.7935 13.363M20.1266 15.1396L19.7483 13.3689M19.9572 15.0039C19.9459 14.9035 19.6805 13.3748 19.6805 13.3748M20.2733 14.9684C20.1887 14.9212 19.9459 14.8504 19.9459 14.8504M20.1548 14.6969C20.0757 14.6969 19.912 14.6261 19.912 14.6261M20.1096 14.4904C20.0292 14.4586 19.946 14.4348 19.8612 14.4195M20.0757 14.2307L19.8104 14.1834M19.9572 14.0064C19.9572 14.0241 19.7765 14.0241 19.7765 14.0241M19.912 13.8057L19.7314 13.8352" stroke="#512007" stroke-width="0.0288769"/>
<path fill-rule="evenodd" clip-rule="evenodd" d="M18.187 15.4085L18.2379 11.0978C18.2379 11.0978 18.3847 11.0801 18.3847 11.0978C18.3847 11.1155 18.3678 15.3908 18.3508 15.4085C18.3339 15.4262 18.1701 15.438 18.187 15.4085ZM19.7968 11.2867L19.763 14.9066L19.65 15.0483L19.6839 11.2867H19.7968Z" fill="#DD8B59" stroke="#512007" stroke-width="0.0288769"/>
<path fill-rule="evenodd" clip-rule="evenodd" d="M16.3627 14.6999C16.3627 14.6999 16.5321 16.4714 18.4187 16.4183C20.3054 16.3651 20.8307 14.6349 20.8307 14.6349L20.0116 14.5995C19.9947 14.5995 19.3564 15.4262 18.5317 15.4085C17.707 15.3908 17.4472 15.1841 17.2664 15.0128C17.0857 14.8416 16.9275 14.5818 16.9275 14.5818L15.9673 14.1861L16.0238 14.5641L16.3627 14.6999ZM21.4633 14.5227L21.4068 14.2865V14.0858L21.4972 13.8732C21.4972 13.8732 20.0681 14.0917 20.0681 14.1094L20.0625 14.5109L21.4633 14.5168V14.5227Z" fill="#DD8B59" stroke="#512007" stroke-width="0.0288769"/>
<path d="M16.3005 14.6822C16.3514 14.6822 16.7298 14.7707 16.7298 14.7707L17.1252 15.3199M21.1922 14.0858L21.1583 14.4401H21.3899L21.3729 14.0858H21.1922ZM20.9493 14.1035L20.9323 14.4814L21.0792 14.4637L21.0961 14.1035H20.9493ZM20.7007 14.4814V14.1861L20.8476 14.133L20.8645 14.4282L20.7007 14.4814ZM20.4183 14.4637L20.4522 14.2039L20.6217 14.2216L20.633 14.4991L20.4183 14.4637ZM20.1076 14.4637L20.1246 14.2393L20.294 14.2216V14.4814L20.1076 14.4637Z" stroke="#512007" stroke-width="0.0288769"/>
<path d="M16.5771 14.753C16.5941 14.7707 16.9217 15.9222 18.4976 15.9222C20.0736 15.9222 20.452 14.6172 20.452 14.6172" stroke="#512007" stroke-width="0.0288769"/>
<path d="M20.7006 14.6526C20.7006 14.6526 19.9437 16.3651 18.4977 16.247C17.0573 16.1289 16.8257 15.562 16.7127 15.2668C16.5998 14.9715 16.532 14.7353 16.532 14.7353" stroke="#512007" stroke-width="0.0288769"/>
<path fill-rule="evenodd" clip-rule="evenodd" d="M16.9386 14.5818C16.9556 14.4814 16.9556 11.3694 16.9556 11.3694L16.8595 11.3576L16.8426 14.5286L16.9386 14.5877V14.5818ZM14.5945 13.572L15.8372 14.2038L15.8089 14.2924C15.8089 14.2924 14.6114 13.7019 14.6114 13.6842C14.6114 13.6665 14.6227 13.5956 14.5945 13.5661V13.572Z" fill="#DD8B59" stroke="#512007" stroke-width="0.0288769"/>
<path fill-rule="evenodd" clip-rule="evenodd" d="M15.165 13.3831C15.165 13.4303 15.3458 14.4814 15.3458 14.4814C15.3458 14.4814 15.4588 14.4991 15.4588 14.4814L15.2667 13.4008L15.165 13.3831ZM16.3173 13.4126C16.3795 13.4126 17.5035 13.2236 17.5035 13.2236L17.4809 13.4126L16.3795 13.5307L16.3173 13.4126Z" fill="#DD8B59" stroke="#512007" stroke-width="0.0288769"/>
<path fill-rule="evenodd" clip-rule="evenodd" d="M16.4753 11.9891C16.5149 11.9891 16.8705 12.178 17.023 12.1307C17.1754 12.0835 17.0738 11.9537 17.102 11.9537C17.1359 11.9537 17.2488 12.0422 17.3166 11.9714C17.3843 11.9006 17.4295 11.6999 17.4013 11.7176C17.373 11.7353 16.4979 12.0599 16.481 11.9891H16.4753Z" fill="#FECF3E" stroke="#512007" stroke-width="0.0288769"/>
<path fill-rule="evenodd" clip-rule="evenodd" d="M16.3342 12.4203C16.3963 12.438 17.6779 12.0603 17.6779 12.0603C17.6779 12.0603 17.6779 12.1783 17.661 12.1783L16.3342 12.5384V12.4203Z" fill="#DD8B59" stroke="#512007" stroke-width="0.0288769"/>
<path fill-rule="evenodd" clip-rule="evenodd" d="M19.2998 11.8891C19.2998 11.8891 19.3845 12.0957 19.4693 12.0603C19.554 12.0249 19.6331 11.954 19.6331 11.954C19.6331 11.954 19.7008 12.1312 19.8138 12.0957C19.9268 12.0603 19.9946 11.8713 19.9946 11.8713C19.9946 11.8713 20.1075 11.9068 20.1584 11.8891C20.2092 11.8713 20.2713 11.5938 20.2713 11.5938L19.2998 11.8891ZM19.2038 13.5543C19.1868 13.5897 19.2885 13.6724 19.3732 13.6724C19.458 13.6724 19.4862 13.5543 19.5031 13.5897C19.5201 13.6193 19.5201 13.7787 19.7291 13.7255C19.9381 13.6724 19.9437 13.5189 19.9437 13.5189C19.9437 13.5189 19.8816 13.572 20.0285 13.5897C20.1753 13.6074 20.3222 13.3653 20.3109 13.3653C20.2883 13.3653 19.2377 13.572 19.2038 13.5543Z" fill="#FECF3E" stroke="#512007" stroke-width="0.0288769"/>
<path fill-rule="evenodd" clip-rule="evenodd" d="M16.3849 11.9186C16.3746 11.9718 16.3785 12.0269 16.3962 12.078L17.4694 11.7001C17.4694 11.7001 17.5146 11.6115 17.4694 11.6115C17.4242 11.6115 16.3679 11.954 16.3792 11.9245L16.3849 11.9186ZM17.797 11.6824C17.8253 11.6824 18.8928 11.3221 18.8928 11.3221C18.8928 11.3221 18.9098 11.4757 18.8928 11.4757L17.893 11.7827L17.7914 11.6824H17.797Z" fill="#DD8B59" stroke="#512007" stroke-width="0.0288769"/>
<path fill-rule="evenodd" clip-rule="evenodd" d="M19.2038 12.4381C19.2038 12.4381 19.04 12.6269 19.0908 12.8807C19.1416 13.1404 19.2038 13.3647 19.2207 13.3647C19.2376 13.3647 19.4183 13.0224 19.6159 13.0047C19.8135 12.987 20.1748 13.1936 20.1748 13.1936C20.1748 13.1936 20.124 12.7804 20.141 12.5915C20.1579 12.4027 20.4345 12.078 20.4345 12.078L19.2038 12.4322V12.4381Z" fill="#FECF3E" stroke="#512007" stroke-width="0.0288769"/>
<path fill-rule="evenodd" clip-rule="evenodd" d="M17.7126 12.1251C17.7126 12.1251 17.6787 12.2845 17.6957 12.2845L19.0902 11.9067V11.7946L17.7126 12.1192V12.1251Z" fill="#DD8B59" stroke="#512007" stroke-width="0.0288769"/>
<path fill-rule="evenodd" clip-rule="evenodd" d="M15.9388 14.2039C15.9388 14.2039 15.6114 14.1566 15.6283 14.2393C15.6453 14.3278 15.792 14.4104 15.809 14.4636C15.8259 14.5167 15.7582 14.6996 15.8598 14.6878C15.9558 14.6701 16.0518 14.5993 16.0518 14.5462L16.0348 14.2511L15.9388 14.2039Z" fill="#B6B6B4" stroke="#512007" stroke-width="0.0288769"/>
<path fill-rule="evenodd" clip-rule="evenodd" d="M17.7634 13.3476V13.4656L18.9434 13.2944L18.9095 13.2059L17.7634 13.3476Z" fill="#DD8B59" stroke="#512007" stroke-width="0.0288769"/>
<path fill-rule="evenodd" clip-rule="evenodd" d="M16.3625 13.5536C16.3851 13.5536 16.3625 13.7071 16.498 13.6717C16.6279 13.6363 16.6618 13.5536 16.6618 13.5536C16.6618 13.5536 16.6956 13.7425 16.8763 13.7248C17.057 13.7071 17.1586 13.5005 17.1586 13.5005C17.1586 13.5005 17.1699 13.654 17.2828 13.6009C17.3957 13.5477 17.4296 13.4297 17.4296 13.4297L16.3964 13.5831L16.3625 13.5536ZM16.3625 12.5385C16.3625 12.5385 16.2157 12.5916 16.2666 12.8985C16.3174 13.2054 16.4359 13.3825 16.4472 13.3825C16.4585 13.3825 16.594 13.0874 16.7916 13.0401C16.9892 12.9811 17.3336 13.1936 17.3336 13.1936C17.3336 13.1936 17.2997 12.9162 17.3505 12.6624C17.3868 12.4971 17.4604 12.3433 17.5651 12.2138C17.5651 12.2138 16.4133 12.5385 16.3682 12.5385H16.3625Z" fill="#FECF3E" stroke="#512007" stroke-width="0.0288769"/>
<path fill-rule="evenodd" clip-rule="evenodd" d="M19.1246 13.4296L19.1415 13.5358C19.1415 13.5358 20.3272 13.3823 20.3272 13.3587C20.3272 13.3469 20.3272 13.2407 20.3046 13.2407C20.2876 13.2407 19.1415 13.4473 19.119 13.4296H19.1246ZM19.1077 12.3317L19.1246 12.4498L20.5191 12.0602C20.5191 12.0602 20.553 11.954 20.536 11.954C20.5191 11.954 19.1415 12.3849 19.1077 12.3317Z" fill="#DD8B59" stroke="#512007" stroke-width="0.0288769"/>
<path d="M21.4406 13.7728L20.4238 12.0958M20.2883 13.2591C20.3052 13.2118 20.3561 12.1784 20.3561 12.1784M19.2546 11.7828C19.2546 11.7828 19.2377 11.8891 19.2546 11.8891C19.2715 11.8891 20.2883 11.6293 20.2883 11.6115C20.2883 11.5938 20.39 11.4934 20.3052 11.5112C20.2261 11.5289 19.2885 11.8359 19.2546 11.7828Z" stroke="#512007" stroke-width="0.0288769"/>
<path fill-rule="evenodd" clip-rule="evenodd" d="M17.8312 11.7355C17.8877 11.7473 18.0063 11.9245 18.0741 11.8891C18.1419 11.8536 18.2379 11.7473 18.2379 11.7473C18.2379 11.7473 18.221 11.954 18.3509 11.9245C18.4865 11.8891 18.5034 11.7473 18.5034 11.7473C18.5034 11.7473 18.5994 11.8064 18.6842 11.7473C18.7632 11.7001 18.8423 11.4403 18.8141 11.4403C18.7858 11.4403 17.8595 11.7473 17.8256 11.7355H17.8312ZM17.7973 12.2316C17.7973 12.267 17.6279 12.5386 17.6844 12.7984C17.7409 13.0583 17.8256 13.2945 17.8425 13.2945C17.8595 13.2945 18.108 13.0228 18.3227 12.9697C18.5373 12.9165 18.848 13.1409 18.831 13.1409C18.8141 13.1409 18.7463 12.8811 18.7463 12.6922C18.7463 12.5032 18.9948 11.9245 18.9948 11.9245L17.7973 12.2316ZM17.7973 13.4716C17.7973 13.4834 17.8425 13.6015 17.9612 13.6015C18.0798 13.6015 18.0911 13.4834 18.0911 13.4834C18.0911 13.4834 18.0741 13.6901 18.2549 13.6724C18.4356 13.6547 18.4978 13.4657 18.4978 13.4657C18.4978 13.4657 18.5147 13.572 18.6672 13.5189C18.8141 13.4657 19.0061 13.2945 18.9948 13.2945C18.9835 13.2945 17.8086 13.5189 17.7917 13.4716H17.7973Z" fill="#FECF3E" stroke="#512007" stroke-width="0.0288769"/>
<path fill-rule="evenodd" clip-rule="evenodd" d="M17.9303 12.5576C17.9534 12.5586 17.9752 12.5691 17.9909 12.5869C18.0066 12.6047 18.0149 12.6282 18.014 12.6524C18.0131 12.6766 18.0031 12.6994 17.9861 12.7158C17.9691 12.7322 17.9466 12.7409 17.9235 12.74C17.9004 12.739 17.8786 12.7284 17.8629 12.7107C17.8472 12.6929 17.8389 12.6693 17.8398 12.6451C17.8407 12.6209 17.8508 12.5981 17.8677 12.5817C17.8847 12.5653 17.9072 12.5566 17.9303 12.5576Z" fill="#BE0F17" stroke="#512007" stroke-width="0.028316"/>
<path fill-rule="evenodd" clip-rule="evenodd" d="M18.5243 12.4001C18.5474 12.401 18.5692 12.4116 18.5849 12.4294C18.6006 12.4471 18.6089 12.4707 18.608 12.4949C18.6071 12.5191 18.5971 12.5419 18.5801 12.5583C18.5631 12.5747 18.5406 12.5834 18.5175 12.5824C18.4944 12.5815 18.4726 12.5709 18.4569 12.5531C18.4412 12.5353 18.4329 12.5118 18.4338 12.4876C18.4347 12.4634 18.4448 12.4406 18.4617 12.4242C18.4787 12.4078 18.5012 12.3991 18.5243 12.4001Z" fill="#BE0F17" stroke="#512007" stroke-width="0.028316"/>
<path fill-rule="evenodd" clip-rule="evenodd" d="M18.2272 12.7241C18.2503 12.7251 18.2721 12.7356 18.2878 12.7534C18.3035 12.7712 18.3118 12.7948 18.3109 12.819C18.31 12.8431 18.3 12.866 18.283 12.8824C18.266 12.8988 18.2435 12.9075 18.2204 12.9065C18.1973 12.9055 18.1755 12.895 18.1598 12.8772C18.1441 12.8594 18.1358 12.8358 18.1367 12.8116C18.1376 12.7875 18.1476 12.7647 18.1646 12.7482C18.1816 12.7318 18.2041 12.7232 18.2272 12.7241Z" fill="#BE0F17" stroke="#512007" stroke-width="0.028316"/>
<path fill-rule="evenodd" clip-rule="evenodd" d="M18.2272 12.229C18.2503 12.23 18.2721 12.2405 18.2878 12.2583C18.3035 12.2761 18.3118 12.2997 18.3109 12.3238C18.31 12.348 18.3 12.3708 18.283 12.3873C18.266 12.4037 18.2435 12.4123 18.2204 12.4114C18.1973 12.4104 18.1755 12.3999 18.1598 12.3821C18.1441 12.3643 18.1358 12.3407 18.1367 12.3165C18.1376 12.2923 18.1476 12.2695 18.1646 12.2531C18.1816 12.2367 18.2041 12.228 18.2272 12.229Z" fill="#BE0F17" stroke="#512007" stroke-width="0.028316"/>
<path d="M18.3508 11.145C18.3508 11.1332 18.8592 11.3694 18.8592 11.3871C18.8592 11.4048 20.6667 13.9145 20.6837 13.9145M19.7799 11.3871L20.2431 11.5938L20.3899 11.9717M16.9217 11.3576C16.9048 11.3576 17.4301 11.771 17.4301 11.771L17.4979 12.1075M15.1368 13.8614C15.3627 13.761 16.9556 12.3024 16.9556 12.3024M14.7075 13.5838L16.4981 12.0072M17.6956 12.2434L19.3901 15.1841M19.1868 13.4598C19.1868 13.4598 19.3845 14.1507 19.5822 14.257C19.7297 14.3397 19.873 14.4304 20.0115 14.5286" stroke="#512007" stroke-width="0.0288769"/>
<path d="M19.1643 13.4775C19.1643 13.4775 19.3055 14.292 19.5031 14.4455C19.7007 14.599 19.8983 14.7701 19.8983 14.7701" stroke="#512007" stroke-width="0.0288769"/>
<path d="M17.8047 13.4165C17.8047 13.4165 17.9966 14.5497 18.3918 14.8094L19.1145 15.2875" stroke="#512007" stroke-width="0.0288769"/>
<path d="M17.7877 13.3988C17.7877 13.3988 18.2113 14.2964 18.5785 14.568C18.9343 14.8455 19.4257 15.0995 19.4257 15.0995M16.4094 13.4756C16.5224 13.6822 16.5054 14.0779 16.6354 14.2137C16.7548 14.3548 16.8643 14.5048 16.963 14.6625M16.4377 13.4874C16.5054 13.5878 16.6862 14.1015 16.7992 14.255C16.8839 14.3968 17.7199 15.2707 17.7199 15.2707" stroke="#512007" stroke-width="0.0288769"/>
<path fill-rule="evenodd" clip-rule="evenodd" d="M17.4431 15.312C17.4431 15.3291 17.4399 15.346 17.4337 15.3617C17.4274 15.3775 17.4183 15.3918 17.4067 15.4039C17.3952 15.4159 17.3815 15.4255 17.3664 15.432C17.3513 15.4386 17.3352 15.4419 17.3188 15.4419C17.3025 15.4419 17.2864 15.4386 17.2713 15.432C17.2562 15.4255 17.2425 15.4159 17.231 15.4039C17.2194 15.3918 17.2103 15.3775 17.204 15.3617C17.1978 15.346 17.1946 15.3291 17.1946 15.312C17.1946 15.2776 17.2077 15.2445 17.231 15.2202C17.2543 15.1958 17.2859 15.1821 17.3188 15.1821C17.3518 15.1821 17.3834 15.1958 17.4067 15.2202C17.43 15.2445 17.4431 15.2776 17.4431 15.312ZM18.0475 15.5896C18.0475 15.6193 18.0362 15.6479 18.0161 15.6689C17.9959 15.6899 17.9686 15.7018 17.9402 15.7018C17.9117 15.7018 17.8844 15.6899 17.8643 15.6689C17.8442 15.6479 17.8329 15.6193 17.8329 15.5896C17.8329 15.5598 17.8442 15.5313 17.8643 15.5102C17.8844 15.4892 17.9117 15.4774 17.9402 15.4774C17.9686 15.4774 17.9959 15.4892 18.0161 15.5102C18.0362 15.5313 18.0475 15.5598 18.0475 15.5896ZM18.8214 15.6604C18.8214 15.6902 18.81 15.7187 18.7899 15.7398C18.7698 15.7608 18.7425 15.7726 18.714 15.7726C18.6856 15.7726 18.6583 15.7608 18.6381 15.7398C18.618 15.7187 18.6067 15.6902 18.6067 15.6604C18.6067 15.6307 18.618 15.6021 18.6381 15.5811C18.6583 15.56 18.6856 15.5482 18.714 15.5482C18.7425 15.5482 18.7698 15.56 18.7899 15.5811C18.81 15.6021 18.8214 15.6307 18.8214 15.6604ZM19.4935 15.3947C19.4898 15.4577 19.4596 15.4911 19.4032 15.4951C19.3467 15.4872 19.3165 15.4537 19.3128 15.3947C19.3128 15.3415 19.3523 15.2884 19.4032 15.2884C19.4596 15.2923 19.4898 15.3278 19.4935 15.3947ZM20.0358 15.0581C20.0283 15.1172 19.9925 15.1486 19.9285 15.1526C19.872 15.1526 19.8211 15.1112 19.8211 15.0581C19.8211 15.005 19.872 14.9636 19.9285 14.9636C19.9925 14.9676 20.0283 14.9991 20.0358 15.0581Z" fill="black" stroke="#512007" stroke-width="0.0288769"/>
<path fill-rule="evenodd" clip-rule="evenodd" d="M16.8501 11.3734C16.7993 11.4088 15.9802 11.6155 16.0932 11.5978C16.2062 11.5801 16.8671 11.7749 16.8501 11.7159C16.8332 11.6568 16.8501 11.4088 16.8501 11.3734ZM18.2453 11.1195C18.2114 11.1195 17.7369 11.3084 17.7539 11.3084C17.7708 11.3084 18.2961 11.462 18.2792 11.4265C18.2622 11.3911 18.2622 11.1667 18.2453 11.1195ZM19.6744 11.2907C19.6405 11.3084 19.0813 11.4443 19.1829 11.462C19.2846 11.4797 19.6574 11.6155 19.6574 11.5801C19.6574 11.5505 19.6574 11.3084 19.6744 11.2848V11.2907Z" fill="#FF0000" stroke="#512007" stroke-width="0.0288769"/>
<path d="M19.0813 15.3052C19.0982 15.0337 19.5781 13.4756 19.5781 13.4756M19.245 15.2521L19.6233 13.4815M19.4144 15.1164C19.4257 15.016 19.691 13.4874 19.691 13.4874M19.0982 15.081C19.1829 15.0337 19.4257 14.9629 19.4257 14.9629M19.2168 14.8095C19.2958 14.8095 19.4596 14.7386 19.4596 14.7386M19.262 14.6029C19.3424 14.5711 19.4256 14.5474 19.5104 14.5321M19.2958 14.3432L19.5612 14.296M19.4144 14.1189C19.4144 14.1366 19.5951 14.1366 19.5951 14.1366M19.4596 13.9182L19.6402 13.9477" stroke="#512007" stroke-width="0.0288769"/>
<path d="M17.686 15.3107C17.703 15.0286 18.1829 13.4099 18.1829 13.4099M17.8498 15.3291L18.228 13.4221M17.9796 15.3352L18.2958 13.4221M17.703 15.0777C17.7877 15.0286 18.0304 14.955 18.0304 14.955M17.8215 14.7956C17.9006 14.7956 18.0643 14.722 18.0643 14.722M17.8667 14.581C17.9472 14.548 18.0303 14.5233 18.1151 14.5074M17.9006 14.3112L18.1659 14.2621M18.0191 14.0782C18.0191 14.0966 18.1998 14.0966 18.1998 14.0966M18.0643 13.8697L18.245 13.9004" stroke="#512007" stroke-width="0.0294328"/>
<path d="M17.4954 15.1238C17.4784 14.8506 16.9985 13.2829 16.9985 13.2829M17.3316 15.0703L16.9534 13.2889M17.1623 14.9337C17.151 14.8328 16.8856 13.2948 16.8856 13.2948M17.4784 14.8981C17.3937 14.8506 17.151 14.7794 17.151 14.7794M17.3599 14.625C17.2808 14.625 17.1171 14.5537 17.1171 14.5537M17.3147 14.4171C17.2342 14.3851 17.151 14.3613 17.0663 14.3459M17.2808 14.1558L17.0155 14.1083M17.1623 13.9302C17.1623 13.948 16.9816 13.948 16.9816 13.948M17.1171 13.7283L16.9364 13.758" stroke="#512007" stroke-width="0.0289648"/>
<path fill-rule="evenodd" clip-rule="evenodd" d="M19.9438 14.5991L21.502 14.6345L21.519 14.5164L19.9099 14.4987L19.9438 14.5991ZM20.0115 14.1682C20.1922 14.1682 21.5528 13.8967 21.5528 13.8967C21.5528 13.8967 21.6036 13.7196 21.5528 13.7196C21.502 13.7196 20.0115 14.0502 20.0115 14.0502V14.1682Z" fill="#DD8B59" stroke="#512007" stroke-width="0.0288769"/>
<path fill-rule="evenodd" clip-rule="evenodd" d="M18.2272 12.4766C18.2503 12.4775 18.2721 12.4881 18.2878 12.5059C18.3035 12.5236 18.3118 12.5472 18.3109 12.5714C18.31 12.5956 18.3 12.6184 18.283 12.6348C18.266 12.6512 18.2435 12.6599 18.2204 12.6589C18.1973 12.658 18.1755 12.6474 18.1598 12.6296C18.1441 12.6119 18.1358 12.5883 18.1367 12.5641C18.1376 12.5399 18.1476 12.5171 18.1646 12.5007C18.1816 12.4843 18.2041 12.4756 18.2272 12.4766Z" fill="#BE0F17" stroke="#512007" stroke-width="0.028316"/>
<path d="M0.0351562 0.0261841H12.0373V12.0284H0.0351562V0.0261841Z" fill="#012169"/>
<path d="M12.0373 0.0261841V1.52646L7.5834 6.02728L12.0373 10.4109V12.0284H10.4667L5.98936 7.62132L1.6292 12.0284H0.0351562V10.4343L4.39532 6.05072L0.0351562 1.76087V0.0261841H1.48855L5.98936 4.43324L10.3495 0.0261841H12.0373Z" fill="white"/>
<path d="M4.34844 7.62132L4.6063 8.41834L1.01971 12.0284H0.0351562V11.958L4.34844 7.62132ZM7.25522 7.34001L8.52108 7.52755L12.0373 10.9735V12.0284L7.25522 7.34001ZM12.0373 0.0261841L7.53652 4.62077L7.44275 3.58933L10.959 0.0261841H12.0373ZM0.0351562 0.0496258L4.55942 4.48012L3.17635 4.29259L0.0351562 1.17483V0.0496258Z" fill="#C8102E"/>
<path d="M4.16091 0.0261841V12.0284H7.91159V0.0261841H4.16091ZM0.0351562 4.15193V7.90262H12.0373V4.15193H0.0351562Z" fill="white"/>
<path d="M0.0351562 4.90207V7.15248H12.0373V4.90207H0.0351562ZM4.91104 0.0261841V12.0284H7.16145V0.0261841H4.91104Z" fill="#C8102E"/>
</g>
<defs>
<linearGradient id="paint0_linear_720_53456" x1="4.75797" y1="27.1757" x2="5.9408" y2="26.4976" gradientUnits="userSpaceOnUse">
<stop stop-color="#A43907"/>
<stop offset="1" stop-color="white"/>
</linearGradient>
<linearGradient id="paint1_linear_720_53456" x1="15.5975" y1="16.4692" x2="14.0694" y2="15.6322" gradientUnits="userSpaceOnUse">
<stop stop-color="#A43907"/>
<stop offset="1" stop-color="white"/>
</linearGradient>
<linearGradient id="paint2_linear_720_53456" x1="16.549" y1="17.0799" x2="13.2339" y2="16.6476" gradientUnits="userSpaceOnUse">
<stop stop-color="#A43907"/>
<stop offset="1" stop-color="white"/>
</linearGradient>
<linearGradient id="paint3_linear_720_53456" x1="22.6687" y1="15.6745" x2="21.1348" y2="15.7561" gradientUnits="userSpaceOnUse">
<stop stop-color="#A43907"/>
<stop offset="1" stop-color="white"/>
</linearGradient>
<linearGradient id="paint4_linear_720_53456" x1="23.2919" y1="16.5247" x2="20.0324" y2="16.7197" gradientUnits="userSpaceOnUse">
<stop stop-color="#A43907"/>
<stop offset="1" stop-color="white"/>
</linearGradient>
<linearGradient id="paint5_linear_720_53456" x1="22.929" y1="17.3799" x2="13.7524" y2="17.3799" gradientUnits="userSpaceOnUse">
<stop stop-color="#A43907"/>
<stop offset="1" stop-color="white"/>
</linearGradient>
<linearGradient id="paint6_linear_720_53456" x1="14.0087" y1="18.0515" x2="27.4237" y2="18.0995" gradientUnits="userSpaceOnUse">
<stop stop-color="#A43907"/>
<stop offset="1" stop-color="white"/>
</linearGradient>
<linearGradient id="paint7_linear_720_53456" x1="23.2511" y1="17.323" x2="22.1664" y2="17.3544" gradientUnits="userSpaceOnUse">
<stop stop-color="#A43907"/>
<stop offset="1" stop-color="white"/>
</linearGradient>
<linearGradient id="paint8_linear_720_53456" x1="13.7159" y1="18.3958" x2="14.7669" y2="18.4654" gradientUnits="userSpaceOnUse">
<stop stop-color="#A43907"/>
<stop offset="1" stop-color="white"/>
</linearGradient>
<linearGradient id="paint9_linear_720_53456" x1="14.74" y1="18.2426" x2="12.8311" y2="17.7717" gradientUnits="userSpaceOnUse">
<stop stop-color="#A43907"/>
<stop offset="1" stop-color="white"/>
</linearGradient>
<clipPath id="clip0_720_53456">
<rect width="24.0044" height="24.0044" fill="white" transform="translate(0.0349121 0.0261841)"/>
</clipPath>
</defs>
</svg>
