<svg width="24" height="25" viewBox="0 0 24 25" fill="none" xmlns="http://www.w3.org/2000/svg">
<g clip-path="url(#clip0_720_53444)">
<path d="M-0.000244141 0.0305786V24.0349H24.0041V0.0399553H15.0963V0.0305786H-0.000244141Z" fill="#68BFE5"/>
<path d="M14.5435 11.9389V18.3338C14.5435 20.4249 18.3223 21.6673 18.3223 21.6673C18.3223 21.6673 22.1011 20.4249 22.1011 18.3385V11.9389H14.5435Z" fill="white"/>
<path d="M17.7972 14.1894V17.068H14.5435V18.1135H17.8019V21.4657L18.3223 21.6673L18.8474 21.4657V18.1135H22.1011V17.068H18.8474V14.1894H17.7972Z" fill="#D21034"/>
<path d="M14.5435 11.9389H22.1011V14.4097H14.5435V11.9389Z" fill="#D21034"/>
<path d="M15.1476 13.7906C15.3816 13.7906 15.5713 13.6372 15.5713 13.4479C15.5713 13.2586 15.3816 13.1052 15.1476 13.1052C14.9136 13.1052 14.7239 13.2586 14.7239 13.4479C14.7239 13.6372 14.9136 13.7906 15.1476 13.7906Z" fill="white" stroke="black" stroke-width="0.0249368" stroke-miterlimit="3"/>
<path d="M15.1475 13.4603C15.3557 13.4603 15.5245 13.3752 15.5245 13.2703C15.5245 13.1653 15.3557 13.0802 15.1475 13.0802C14.9393 13.0802 14.7705 13.1653 14.7705 13.2703C14.7705 13.3752 14.9393 13.4603 15.1475 13.4603Z" fill="white" stroke="black" stroke-width="0.0249368" stroke-miterlimit="3"/>
<path d="M15.1475 13.8437C15.3557 13.8437 15.5245 13.7586 15.5245 13.6537C15.5245 13.5487 15.3557 13.4636 15.1475 13.4636C14.9393 13.4636 14.7705 13.5487 14.7705 13.6537C14.7705 13.7586 14.9393 13.8437 15.1475 13.8437Z" fill="white" stroke="black" stroke-width="0.0249368" stroke-miterlimit="3"/>
<path d="M15.1475 13.638C15.3557 13.638 15.5245 13.5529 15.5245 13.448C15.5245 13.343 15.3557 13.2579 15.1475 13.2579C14.9393 13.2579 14.7705 13.343 14.7705 13.448C14.7705 13.5529 14.9393 13.638 15.1475 13.638Z" fill="white" stroke="black" stroke-width="0.0249368" stroke-miterlimit="3"/>
<path d="M21.9135 13.9222L21.8525 13.7487C21.8525 13.7487 21.6838 13.6831 21.6697 13.5893C21.6416 13.3549 21.5525 13.2611 21.4259 13.2283C21.3905 13.217 21.3532 13.2129 21.3162 13.2161C21.2792 13.2193 21.2432 13.2298 21.2102 13.247C21.1727 13.3033 20.9805 13.3033 20.8727 13.308C20.7648 13.3127 20.7648 13.2611 20.7648 13.2611C20.7418 13.2613 20.7191 13.2559 20.6986 13.2452C20.6782 13.2346 20.6607 13.2191 20.6476 13.2001C20.5945 13.097 20.5539 13.0439 20.5257 13.0407C20.6664 13.0407 20.7695 12.9751 20.9242 12.811C21.0977 12.6329 21.2196 12.7032 21.2196 12.7032C21.1352 12.8673 21.2477 12.8532 21.2477 12.8532C21.4728 12.7407 21.2759 12.4453 21.2055 12.4594C21.1399 12.4735 21.1212 12.4266 21.1212 12.4266C21.1212 12.4781 21.0415 12.5016 21.0415 12.5016C21.1024 12.1687 20.9008 12.0796 20.9008 12.0796C20.8727 12.1078 20.8539 12.1734 20.8539 12.1734C20.8023 12.3703 20.6195 12.3422 20.4132 12.2437C20.2069 12.1453 19.6584 12.3469 19.4849 12.4125C19.3161 12.4828 19.002 12.5907 18.7207 12.4313C18.4394 12.2719 18.3691 12.3 18.2566 12.3328C18.1441 12.3656 17.9471 12.4078 17.8768 12.3703C17.827 12.3459 17.7728 12.3316 17.7174 12.3281C17.7409 12.3187 17.708 12.2719 17.708 12.2719C17.6236 12.1546 17.7174 12.0843 17.7174 12.0843C17.7174 12.0843 17.5627 12.1312 17.6236 12.4031L17.6518 12.4453C17.6518 12.4453 17.6752 12.5297 17.7221 12.5532V12.5719C17.7221 12.5719 17.7596 12.5532 17.769 12.6094C17.7877 12.6657 17.844 12.6141 17.8721 12.5672C17.8721 12.5672 17.8252 12.8157 18.1347 12.8767C18.1347 12.8767 18.1019 12.8391 18.1159 12.811C18.13 12.7829 18.0784 12.7641 18.0831 12.7266C18.0831 12.6891 18.0034 12.6704 18.069 12.6422C18.1347 12.6141 18.1628 12.5485 18.3035 12.6329C18.4347 12.7126 18.5426 12.6938 18.5426 12.6938C18.5426 12.6938 18.4582 12.525 18.5051 12.525C18.5519 12.525 18.7582 12.7829 18.8614 12.7688C18.9645 12.7548 19.1614 12.6422 19.2599 12.6844C19.2599 12.6844 19.2693 12.6329 19.6443 12.5672C20.0194 12.5016 20.4882 12.3141 20.6617 12.4781C20.6617 12.4781 20.6805 12.6094 20.7555 12.6422C20.7555 12.6422 20.7414 12.9142 20.2726 12.7641L20.1038 12.7172C20.1038 12.7172 20.0803 12.6375 19.1896 12.8673C19.1896 12.8673 19.1427 12.886 19.1052 12.9142C19.0723 12.9376 19.0255 12.8954 18.8473 12.961C18.6691 13.0267 18.0175 13.2423 17.6143 13.1626C17.5252 13.1392 17.4408 13.1486 17.4408 13.1392C17.4361 13.1204 17.4877 13.1392 17.4877 13.1392C17.4564 13.1079 17.4408 13.0954 17.4408 13.1017C17.1032 13.0689 17.1642 12.9142 17.1642 12.9142L17.1829 12.961C17.2392 12.8907 17.1595 12.7172 17.1595 12.7172L17.1548 12.7032L17.1829 12.6844C17.347 12.5438 17.5346 12.5203 17.5346 12.5203C17.422 12.3797 17.1876 12.4547 17.1876 12.4547C17.1876 12.2906 17.122 12.0984 17.122 12.0984C16.8876 12.1218 16.7563 12.3141 16.7563 12.3141C16.7516 12.1453 16.5313 12.0468 16.5313 12.0468C16.611 12.1406 16.5594 12.375 16.5594 12.375L16.5688 12.3844H16.55L16.5453 12.4313H16.5359C16.5359 12.4313 16.4562 12.4594 16.3578 12.6751C16.3578 12.6751 16.3484 12.7219 16.3109 12.7688V12.7548C16.3109 12.7548 16.2078 12.8954 15.964 12.7548C15.964 12.7548 15.6358 12.5578 15.5186 12.5672C15.4014 12.5719 15.3264 12.6282 15.331 12.661C15.331 12.661 15.0685 12.6375 14.9794 12.7876C14.9794 12.7876 14.7778 12.8626 14.9513 13.022C14.9513 13.022 14.97 13.097 15.0216 13.1345C15.0216 13.1345 15.0122 12.9845 15.0497 13.0314L15.0779 13.0548C15.0779 13.0736 15.0966 13.1345 15.1341 13.1626L15.1576 13.1533L15.181 13.0501H15.1904L15.1857 13.0548L15.2326 13.1251L15.2842 13.097C15.3123 13.097 15.3451 13.1204 15.3451 13.1204L15.4061 13.0736V13.0689C15.467 13.0783 15.4811 12.961 15.4811 12.961C15.5066 12.9671 15.5332 12.9678 15.5591 12.9629C15.5849 12.9581 15.6095 12.9479 15.6311 12.9329C15.6592 13.0267 15.8749 13.1345 15.8749 13.1345H15.8843L15.8561 13.1533C15.9499 13.2236 16.1374 13.2048 16.1374 13.2048C16.0624 13.2377 16.0718 13.3783 16.0718 13.3783C16.0249 13.3971 16.0249 13.4393 16.0249 13.4393C16.1703 13.5002 16.2734 13.4533 16.2734 13.4533V13.5049C16.2125 13.6315 16.1843 13.7581 16.1843 13.7581V13.7674C16.1843 13.7674 15.9218 13.8612 15.8093 13.9878C15.8093 13.9878 15.7952 13.9503 15.7624 13.9503C15.7296 13.9503 15.6264 13.8659 15.5795 13.8565C15.5326 13.8378 15.4623 13.8659 15.4436 13.8471C15.4248 13.8284 15.4389 13.6784 15.4061 13.6549L15.3732 13.5612C15.3498 13.608 15.2607 13.5987 15.2607 13.5987L15.2232 13.6268L15.1857 13.6221C15.1763 13.6284 15.1669 13.6455 15.1576 13.6737L15.1482 13.6831V13.6549C15.1294 13.669 15.0919 13.6502 15.0779 13.6502L15.0544 13.6924L14.97 13.7018C14.956 13.7065 14.97 13.819 14.97 13.819C14.8622 13.88 14.9138 13.9644 14.9138 13.9644C14.97 14.2457 15.4529 14.1238 15.4904 14.1566C15.5233 14.1941 15.6077 14.2035 15.6545 14.2035C15.7014 14.2035 15.7483 14.3066 15.8139 14.316C15.8749 14.33 15.8139 14.2363 16.0952 14.166C16.3859 14.0956 16.4797 13.9784 16.4797 13.9784C16.5735 13.9644 16.5969 13.8518 16.6016 13.8096L16.6063 13.88C16.6203 13.9737 16.5547 14.0112 16.5547 14.0112L16.7985 13.9362C16.8969 13.9128 16.8876 13.8284 16.8876 13.8284C16.9813 14.0956 17.1501 14.1097 17.1501 14.1097C17.1876 14.0112 17.1829 13.9784 17.1829 13.9784H17.258C17.258 13.9175 17.2111 13.8753 17.1829 13.8565L17.3001 13.9315L17.347 13.9222C17.347 13.9644 17.4127 14.0019 17.4127 14.0019L17.422 13.9456C17.4783 14.0206 17.5814 13.9925 17.5814 13.9925L17.5721 13.955C17.7924 14.0909 18.1394 13.9175 18.1394 13.9175C18.2331 13.9362 18.2472 13.88 18.2472 13.88C18.355 13.894 18.3785 13.8237 18.3785 13.8237C18.6316 13.8003 18.8098 13.6221 18.8098 13.6221C18.9317 13.6127 18.9364 13.5283 18.9364 13.5283C18.9364 13.5283 19.063 13.5471 19.1802 13.3971C19.4615 12.9986 19.8741 13.2095 19.8741 13.2095L19.6396 13.2236C19.0067 13.2189 19.2646 13.6455 19.2646 13.6455H19.3068C19.3677 13.6549 19.5693 13.819 19.4943 13.9409V13.9456C19.363 14.1191 19.1239 13.955 19.0583 13.8049C18.9926 13.6549 18.852 13.6877 18.852 13.6877C18.852 13.6877 18.4957 13.7487 18.641 14.03H18.6457C18.6504 14.1003 18.6926 14.18 18.8192 14.2597C18.8895 14.3582 19.1239 14.3675 19.2974 14.33C19.3771 14.316 19.799 14.1331 19.799 14.1331C19.8319 14.0394 19.9397 14.0628 20.0335 13.9315C20.1272 13.7956 19.8928 13.7487 19.8459 13.6784C19.7944 13.6033 19.86 13.6174 19.86 13.6174C20.0616 13.7299 20.0803 13.3736 20.0803 13.3736C20.0877 13.4313 20.1102 13.486 20.1456 13.5322C20.181 13.5783 20.2281 13.6142 20.2819 13.6362C20.3945 13.5236 20.3101 13.2939 20.3101 13.2939C20.5773 13.7721 20.7414 13.6971 20.7414 13.6971C20.5961 13.6033 20.6664 13.4861 20.6664 13.4861C20.7977 13.9925 21.3228 13.5518 21.3228 13.5518C21.2993 13.6268 21.3228 13.669 21.3696 13.7159C21.4165 13.7628 21.4728 13.7815 21.4493 13.8706C21.4259 13.9597 21.1774 13.9362 21.1774 13.9362C21.1774 13.9362 20.9383 13.9268 20.9618 14.1238C20.9711 14.1706 21.1305 14.1894 21.1915 14.18C21.1915 14.18 21.168 14.18 21.2524 14.1941L21.3556 14.1988C21.4587 14.1988 21.5665 14.18 21.5665 14.18C21.7072 14.1472 21.6838 14.1003 21.6838 14.1003C21.8947 14.0628 21.9182 13.9222 21.9182 13.9222H21.9135Z" fill="#FFD100" stroke="black" stroke-width="0.0375068" stroke-miterlimit="3"/>
<path d="M14.9559 13.0454C14.9559 13.0454 14.9653 13.0173 14.9887 13.0126C15.0044 13.0126 15.0231 13.0251 15.045 13.0501L15.0544 13.0407C15.0544 13.0407 14.9981 12.9563 15.0215 12.9001C15.034 12.8719 15.0591 12.8563 15.0966 12.8532V12.8344C15.0497 12.8438 15.02 12.8641 15.0075 12.8954L15.0028 12.9329C15.0028 12.9642 15.009 12.9892 15.0215 13.0079L14.984 12.9985C14.9653 13.0048 14.9528 13.0142 14.9465 13.0267L14.9559 13.0454ZM21.5665 14.1659C21.4258 14.1894 21.2102 14.1988 21.1914 14.1566C21.1914 14.1519 21.1914 14.1191 21.3086 14.044L21.2946 14.0206C21.1977 14.0831 21.157 14.1316 21.1727 14.1659C21.2008 14.2456 21.5102 14.1988 21.5712 14.1894L21.5665 14.1659ZM18.8285 14.2503C18.7972 14.1972 18.8129 14.1284 18.8754 14.044L18.8519 14.03C18.7832 14.1237 18.7675 14.2019 18.805 14.2644L18.8285 14.2503Z" fill="black"/>
<path d="M18.6364 14.0347C18.6364 14.1191 18.6958 14.1972 18.8145 14.2691L18.8286 14.2503C18.7223 14.1847 18.6661 14.1113 18.6598 14.03C18.6598 13.9128 18.7817 13.8237 18.7817 13.819L18.7677 13.8003C18.763 13.8003 18.627 13.8987 18.6364 14.0347ZM21.0743 14.0628C21.0368 14.1238 21.0509 14.1941 21.0509 14.1941H21.0743C21.0743 14.1941 21.065 14.1284 21.0978 14.0769C21.1089 14.0617 21.1229 14.0489 21.139 14.0393C21.1551 14.0296 21.1729 14.0233 21.1915 14.0206V13.9972C21.1384 14.0065 21.0993 14.0284 21.0743 14.0628ZM15.4858 12.9704H15.4764V12.9751C15.4764 12.9751 15.4624 13.0501 15.4296 13.0689L15.3967 13.0736L15.3405 13.0407C15.328 13.0282 15.3155 13.0236 15.303 13.0267C15.2898 13.0092 15.2832 12.9876 15.2842 12.9657C15.2905 12.9282 15.3139 12.8954 15.3545 12.8673L15.3498 12.8532C15.303 12.8845 15.2764 12.9204 15.2701 12.961C15.2655 13.0079 15.2889 13.0361 15.2936 13.0407H15.2983C15.3108 13.0376 15.3217 13.0407 15.3311 13.0501L15.392 13.0876H15.4389C15.4717 13.0642 15.4858 12.9985 15.4858 12.9845C15.6405 13.0173 15.7671 12.8298 15.7671 12.8251L15.7577 12.8157C15.7577 12.8157 15.6311 13.0032 15.4858 12.9704Z" fill="black"/>
<path d="M15.12 12.9422C15.1137 12.9735 15.1184 13.0031 15.134 13.0313C15.1496 13.0594 15.1668 13.075 15.1856 13.0781C15.2074 13.0781 15.2246 13.0688 15.2371 13.05C15.2496 13.0313 15.259 13.025 15.2652 13.0313L15.2793 13.0406L15.2933 13.0313L15.2699 13.0172C15.2543 13.0172 15.2402 13.0235 15.2277 13.0359C15.2152 13.0547 15.2012 13.0625 15.1856 13.0594C15.1762 13.0594 15.1637 13.0469 15.1481 13.0219C15.1399 13.0105 15.1344 12.9974 15.132 12.9837C15.1296 12.9699 15.1303 12.9557 15.134 12.9422C15.1481 12.8766 15.2277 12.8251 15.2277 12.8251V12.8157C15.223 12.8157 15.134 12.8626 15.12 12.9422ZM14.9091 13.9076C14.9184 13.8794 14.9388 13.8576 14.97 13.842C14.9653 13.842 15.0028 13.8748 15.0356 13.8701L15.0543 13.8607C15.0637 13.8654 15.12 13.9169 15.12 13.9825C15.12 13.9982 15.1168 14.0122 15.1106 14.0247L15.1246 14.0294C15.1715 13.9357 15.0637 13.842 15.0637 13.842H15.0543L15.0309 13.856C15.0075 13.856 14.9747 13.8279 14.97 13.8279C14.9294 13.8466 14.9044 13.8716 14.895 13.9029L14.9091 13.9076ZM15.3964 13.6592C15.3636 13.6592 15.2746 13.6779 15.2465 13.7201C15.2371 13.7389 15.2371 13.7576 15.2465 13.7764L15.2558 13.8092C15.284 13.8794 15.3121 13.9544 15.3402 13.9732L15.3496 13.9591C15.3215 13.945 15.2933 13.8654 15.2699 13.7998L15.2558 13.7717C15.2526 13.7651 15.2508 13.7579 15.2508 13.7506C15.2508 13.7433 15.2526 13.736 15.2558 13.7295C15.284 13.692 15.3589 13.6733 15.3964 13.6733C15.4152 13.6733 15.4199 13.7435 15.4245 13.7904H15.4386C15.4386 13.7201 15.4292 13.6545 15.3917 13.6592H15.3964Z" fill="black"/>
<path d="M15.1576 13.7299C15.1519 13.7353 15.1477 13.7419 15.1452 13.7492C15.1428 13.7566 15.1422 13.7645 15.1435 13.7721C15.1435 13.7768 15.1482 13.9596 15.2372 13.997L15.2419 13.983C15.1623 13.9502 15.1576 13.7721 15.1576 13.7721C15.1576 13.7721 15.1529 13.7534 15.1669 13.7393C15.1794 13.7299 15.2044 13.7299 15.2419 13.7393V13.7252C15.2013 13.7128 15.1732 13.7143 15.1576 13.7299Z" fill="black"/>
<path d="M15.0871 13.744C15.0498 13.7719 15.0498 13.8466 15.0498 13.8512H15.0638C15.0638 13.8512 15.0638 13.7766 15.0964 13.758C15.1089 13.7486 15.1244 13.7486 15.1431 13.758V13.744C15.1213 13.7346 15.1027 13.7346 15.0871 13.744Z" fill="black"/>
<path d="M17.146 12.7404C17.146 12.7404 17.1865 12.8339 17.1865 12.9056C17.1865 12.9181 17.1834 12.9285 17.1772 12.9368L17.1616 12.8963L17.1522 12.9275C17.1522 12.9275 17.1335 12.9711 17.1616 13.0179C17.199 13.0802 17.2925 13.1186 17.4421 13.1332V13.1363L17.4296 13.1394L17.4234 13.1457V13.1581C17.4276 13.1706 17.4463 13.1758 17.4795 13.1737L17.5013 13.1768L17.52 13.1831L17.5169 13.1799C17.5502 13.1799 17.5876 13.1883 17.6291 13.2049L17.598 13.2111L17.6323 13.2267C17.6354 13.2267 17.9034 13.3358 18.0125 13.4231C17.9814 13.4511 17.8473 13.5478 17.6167 13.4917L17.5793 13.4823L17.6042 13.5135C17.6042 13.5135 17.7569 13.688 17.7881 13.794C17.7351 13.794 17.5325 13.794 17.4608 13.7317L17.4452 13.7473C17.4452 13.7473 17.5387 13.8906 17.5637 13.9997C17.5325 14.006 17.4702 14.0091 17.4296 13.9561L17.4109 13.9343L17.4016 13.9966C17.3829 13.981 17.3579 13.9623 17.3579 13.9374V13.9249L17.3018 13.9343L17.1834 13.8626L17.1647 13.8501L17.1522 13.8719L17.1709 13.8813C17.1959 13.9 17.2395 13.9343 17.2426 13.9842H17.1678V13.9997C17.1678 14.0091 17.1678 14.0434 17.1397 14.1151C17.1055 14.1088 16.9745 14.0621 16.8966 13.8408L16.8717 13.847V13.8532C16.8717 13.8751 16.8654 13.9249 16.7969 13.9436L16.5943 14.006C16.611 13.98 16.6197 13.9496 16.6192 13.9187V13.8938L16.613 13.8127C16.6109 13.767 16.6254 13.7358 16.6566 13.7192L16.6441 13.6943C16.641 13.6943 16.3449 13.8158 16.1984 13.766C16.2046 13.7348 16.2296 13.635 16.2794 13.5291L16.2732 13.5353C16.2825 13.5291 16.2919 13.5166 16.2825 13.4667V13.4511L16.267 13.4574C16.267 13.4574 16.1734 13.501 16.0363 13.4511C16.0363 13.4366 16.0488 13.422 16.0737 13.4075L16.0831 13.4044V13.3794C16.0831 13.342 16.0862 13.2548 16.1392 13.236L16.1329 13.2111C16.1329 13.2111 15.974 13.2236 15.8773 13.1706C15.919 13.1406 15.967 13.1203 16.0176 13.1114H16.0269V13.0989C16.0265 13.0742 16.0212 13.0498 16.0114 13.0272C16.0488 13.0397 16.0924 13.049 16.108 13.0366L16.1142 13.0334L16.108 12.9368H16.0831L16.0862 13.0179L15.9927 12.996L15.9553 12.9836L15.9802 13.0147C15.9953 13.0367 16.0029 13.0629 16.002 13.0895C15.9455 13.102 15.8924 13.1265 15.8462 13.1612L15.8306 13.1737L15.8462 13.1831C15.921 13.2329 16.0363 13.2392 16.0955 13.236C16.0683 13.2777 16.0542 13.3266 16.055 13.3763V13.3888C16.0425 13.3958 16.0317 13.4057 16.0236 13.4176C16.0155 13.4295 16.0102 13.4431 16.0082 13.4574V13.4667L16.0145 13.4698C16.0918 13.5054 16.1796 13.511 16.2607 13.4854V13.5135C16.1984 13.6444 16.1672 13.7722 16.1672 13.7722V13.7847H16.1766C16.2981 13.8345 16.5101 13.7691 16.6067 13.7348C16.5943 13.7556 16.587 13.7815 16.5849 13.8127L16.5943 13.9187C16.5943 13.9904 16.5475 14.0184 16.5444 14.0184L16.5537 14.0434L16.8031 13.9686C16.8592 13.953 16.881 13.9187 16.8904 13.8906C16.987 14.1213 17.1397 14.14 17.1491 14.1431H17.1585L17.1616 14.1338C17.1781 14.094 17.1886 14.052 17.1927 14.0091L17.2675 14.006V13.9904C17.2675 13.9696 17.2634 13.9509 17.2551 13.9343L17.2987 13.9592L17.3392 13.953C17.3486 13.9935 17.3985 14.0278 17.4047 14.0309L17.4203 14.0403L17.4296 13.9873C17.492 14.0403 17.5761 14.0247 17.5824 14.0247L17.5917 14.0216V14.0091C17.5793 13.9249 17.5232 13.8252 17.4889 13.7722C17.598 13.8221 17.7975 13.8189 17.8068 13.8189H17.8193V13.8034C17.7782 13.7002 17.7191 13.6052 17.6447 13.5228C17.9003 13.5696 18.0375 13.4355 18.0437 13.4293L18.0531 13.42L18.0406 13.4137C17.9285 13.3337 17.8071 13.2678 17.679 13.2173L17.7071 13.2111L17.6759 13.1955C17.6198 13.1672 17.5579 13.1522 17.4951 13.1519C17.4639 13.1145 17.4483 13.1114 17.4452 13.1082C17.2707 13.0895 17.2083 13.0428 17.1834 13.0054V12.996L17.1896 12.9867C17.2042 12.9659 17.2114 12.9389 17.2114 12.9056C17.2114 12.8246 17.1709 12.7342 17.1709 12.7311L17.146 12.7404Z" fill="black"/>
<path d="M16.3509 12.6903C16.3509 12.6903 16.3322 12.7837 16.2512 12.8305C16.1889 12.8637 16.11 12.8606 16.0144 12.8211L16.002 12.818V12.8305C16.0089 12.8706 16.0313 12.9063 16.0643 12.9302C16.1058 12.9613 16.1671 12.9738 16.2481 12.9675C16.22 12.9987 16.1359 13.1046 16.1359 13.2106V13.2261C16.1484 13.2324 16.2792 13.2698 16.3416 13.1919C16.3416 13.223 16.354 13.3321 16.3945 13.3726C16.4174 13.3996 16.4278 13.4276 16.4257 13.4567L16.4194 13.5003L16.4132 13.519L16.4288 13.5065C16.435 13.5034 16.5565 13.4131 16.5939 13.2978C16.5939 13.2978 16.6157 13.2666 16.6531 13.2573V13.2729C16.6531 13.3196 16.6718 13.4006 16.8027 13.4505L16.812 13.4536V13.4224C16.812 13.3881 16.812 13.329 16.8463 13.2978C16.8593 13.2845 16.868 13.2676 16.8713 13.2492C16.8747 13.2309 16.8724 13.212 16.865 13.195C16.893 13.2012 16.9553 13.223 16.9802 13.2698C17.0176 13.3383 17.1454 13.2822 17.1516 13.2822L17.1485 13.2666C17.1485 13.2666 17.0924 13.2791 17.0581 13.2573C17.0508 13.2518 17.0448 13.2448 17.0405 13.2367C17.0362 13.2286 17.0337 13.2197 17.0332 13.2106L17.027 13.1358C17.027 13.1046 17.0197 13.0818 17.0052 13.0672C17.0208 13.0672 17.055 13.0672 17.0675 13.0984C17.0924 13.1482 17.1703 13.1514 17.1734 13.1514L17.2015 13.1545L17.1796 13.1389C17.1796 13.1389 17.1111 13.0953 17.1236 13.0361L17.1329 12.9925C17.1516 12.9146 17.1828 12.7868 17.1547 12.7058L17.1423 12.7121C17.1485 12.7328 17.1516 12.7557 17.1516 12.7806C17.1516 12.8492 17.1298 12.9364 17.1204 12.9894L17.108 13.033V13.0485C17.1121 13.0901 17.1256 13.1181 17.1485 13.1327C17.1267 13.1296 17.0955 13.1171 17.0862 13.0922C17.0644 13.0485 17.0145 13.0485 16.9927 13.0517L16.974 13.0548L16.9865 13.0672C17.0073 13.0776 17.0156 13.1015 17.0114 13.1389L17.0176 13.2106C17.0218 13.2355 17.0322 13.2542 17.0488 13.2666C17.0696 13.277 17.0872 13.2822 17.1018 13.2822C17.0644 13.2916 17.0114 13.2978 16.9927 13.2635C16.9584 13.195 16.8587 13.1794 16.8556 13.1763H16.84L16.8463 13.1888C16.8463 13.1888 16.8587 13.2074 16.8587 13.2324C16.8587 13.249 16.8515 13.2666 16.8369 13.2853C16.8027 13.3196 16.7964 13.385 16.7964 13.4193V13.4318C16.6843 13.385 16.6656 13.3165 16.6656 13.276V13.2448L16.6718 13.2355H16.6593C16.6433 13.2392 16.6282 13.2461 16.6148 13.2557C16.6014 13.2654 16.5901 13.2775 16.5815 13.2916C16.5505 13.3677 16.5 13.4343 16.435 13.4847L16.4381 13.4536C16.4402 13.4245 16.4298 13.3944 16.407 13.3632C16.3602 13.3196 16.354 13.1763 16.354 13.1763V13.1514L16.3416 13.1732C16.2917 13.2604 16.1484 13.2168 16.1453 13.2168C16.139 13.1077 16.2699 12.9644 16.2699 12.9613L16.2824 12.9489H16.2637C16.1806 12.9592 16.1162 12.9489 16.0705 12.9177C16.0464 12.8974 16.029 12.8702 16.0206 12.8398C16.1141 12.8751 16.193 12.8762 16.2574 12.8429C16.2849 12.8272 16.3086 12.8056 16.3269 12.7798C16.3452 12.754 16.3576 12.7245 16.3634 12.6934C16.4568 12.4877 16.5347 12.4535 16.5347 12.4535L16.5316 12.441C16.5254 12.441 16.4444 12.4722 16.3509 12.6903Z" fill="black"/>
<path d="M16.5598 12.3818H16.5535L16.4788 12.4846H16.5006C16.7331 12.5029 16.9511 12.6048 17.1143 12.7713L17.1237 12.7806L17.1953 12.7027L17.1891 12.6934C16.9866 12.3756 16.5629 12.3818 16.5566 12.3818H16.5598ZM16.566 12.4099C16.6158 12.4099 16.9773 12.4192 17.1642 12.6996L17.1237 12.7432C16.9593 12.587 16.7479 12.4895 16.5224 12.4659L16.566 12.4099Z" fill="black"/>
<path d="M16.5006 12.5937C16.4671 12.6375 16.4446 12.6888 16.4352 12.7432L16.4383 12.7557C16.4162 12.7781 16.3991 12.805 16.3884 12.8346C16.3776 12.8641 16.3734 12.8957 16.376 12.9271C16.376 12.9686 16.3822 13.0081 16.3947 13.0454L16.404 13.0673C16.4414 13.1732 16.4757 13.2667 16.647 13.2106C16.8091 13.1607 16.8153 13.1483 16.8558 13.0797L16.8683 13.0641C16.8901 13.0268 16.915 13.0205 16.9399 13.0112C16.9711 13.0018 17.0022 12.9925 17.0334 12.9364L17.0583 12.8959C17.0895 12.8554 17.1268 12.8024 17.13 12.7401H17.1175C17.1079 12.7941 17.0843 12.8446 17.049 12.8866L17.0178 12.9302C17.0102 12.9469 16.999 12.9616 16.985 12.9735C16.971 12.9853 16.9545 12.994 16.9368 12.9987C16.9202 13.0021 16.9044 13.0088 16.8905 13.0184C16.8766 13.0281 16.8648 13.0404 16.8558 13.0548L16.8433 13.0735C16.8059 13.1389 16.7997 13.1483 16.6408 13.1981C16.4819 13.248 16.4539 13.1701 16.4165 13.061L16.4071 13.0392C16.3635 12.9208 16.3978 12.8024 16.457 12.7588L16.4757 12.7432L16.4476 12.7464V12.7432C16.4476 12.7214 16.4695 12.6622 16.51 12.603C16.5473 12.5532 16.6346 12.5065 16.6346 12.5033L16.6283 12.4909C16.6221 12.494 16.538 12.5438 16.5006 12.5937Z" fill="black"/>
<path d="M16.426 13.0271C16.453 13.0437 16.4915 13.0437 16.5413 13.0271C16.5413 13.0427 16.5413 13.0801 16.5725 13.105C16.6099 13.1362 16.667 13.1424 16.7438 13.1237V13.1081C16.669 13.1268 16.615 13.1216 16.5818 13.0926C16.5719 13.0829 16.5643 13.0712 16.5594 13.0583C16.5546 13.0454 16.5526 13.0315 16.5538 13.0178V13.0053L16.5444 13.0115C16.4987 13.0323 16.4613 13.0323 16.4323 13.0115C16.3855 12.9804 16.3886 12.8963 16.3886 12.8963H16.3762C16.3762 12.8963 16.37 12.9897 16.426 13.0271Z" fill="black"/>
<path d="M16.5134 12.9119C16.4968 12.9202 16.4884 12.9316 16.4884 12.9461V12.9555C16.4947 12.9929 16.5352 13.0178 16.5694 13.0271C16.6037 13.0365 16.6505 13.0396 16.666 13.0178C16.6743 13.0095 16.6743 12.9918 16.666 12.9648C16.6526 12.9385 16.6296 12.9184 16.6018 12.9085C16.574 12.8987 16.5435 12.8999 16.5165 12.9119H16.5134ZM16.5757 13.0147C16.5445 13.0053 16.5071 12.9835 16.504 12.9524C16.504 12.9524 16.5009 12.9306 16.5196 12.9243C16.5437 12.9146 16.5705 12.9143 16.5948 12.9235C16.6191 12.9328 16.639 12.9509 16.6505 12.9742C16.6588 12.9887 16.6598 12.9991 16.6536 13.0053C16.6442 13.0209 16.61 13.024 16.5757 13.0147ZM16.5632 13.0988C16.5539 13.1767 16.5632 13.1798 16.5663 13.1798H16.5726L16.5788 13.1767L16.6224 13.1144L16.5663 13.0895V13.0988H16.5632ZM16.5788 13.1113L16.6006 13.1206L16.5757 13.1549L16.5788 13.1113ZM16.4479 13.0365L16.4448 13.1081L16.5071 13.0334L16.4448 13.0271L16.4479 13.0365ZM16.4604 13.0427H16.4791L16.4604 13.0676V13.0427Z" fill="black"/>
<path d="M16.4043 13.0115C16.4043 13.0115 16.451 13.1018 16.4604 13.1361C16.4666 13.1569 16.4874 13.1745 16.5227 13.1891C16.558 13.2036 16.5861 13.2026 16.6068 13.186L16.6473 13.1517C16.6577 13.1371 16.6681 13.1319 16.6785 13.1361V13.1205C16.6619 13.1205 16.6484 13.1268 16.638 13.1392L16.5975 13.1704C16.5726 13.1891 16.5445 13.1828 16.5289 13.1766C16.4957 13.1641 16.477 13.1486 16.4729 13.1299C16.4635 13.0987 16.4199 13.0084 16.4168 13.0052L16.4043 13.0115ZM16.4666 12.7435C16.4315 12.762 16.4047 12.7932 16.3918 12.8308L16.4043 12.8339C16.4043 12.8339 16.4261 12.7778 16.4697 12.756C16.4815 12.7509 16.4943 12.7482 16.5071 12.7482C16.52 12.7482 16.5327 12.7509 16.5445 12.756L16.5476 12.7435C16.5185 12.7311 16.4905 12.7311 16.4635 12.7435H16.4666ZM16.8031 12.9055C16.8093 12.9055 16.9028 12.9803 16.8498 13.0676L16.8592 13.0769C16.9215 12.9741 16.8124 12.8931 16.8124 12.89L16.8031 12.9055ZM16.5165 12.918C16.5165 12.918 16.5009 12.971 16.5788 12.9897C16.5788 12.9897 16.5071 12.9897 16.5009 12.971C16.4978 12.9523 16.5009 12.9118 16.5165 12.918ZM16.7501 12.9803C16.7501 12.9866 16.747 12.9897 16.7408 12.9897L16.7314 12.9834C16.7314 12.9772 16.7346 12.9741 16.7408 12.9741C16.747 12.9741 16.7501 12.9772 16.7501 12.9834V12.9803ZM16.7564 13.0177C16.7564 13.0219 16.7543 13.0239 16.7501 13.0239L16.7408 13.0177L16.7501 13.0084C16.7543 13.0084 16.7564 13.0115 16.7564 13.0177Z" fill="black"/>
<path d="M16.7004 13.0088C16.7057 13.0088 16.71 13.0046 16.71 12.9993C16.71 12.994 16.7057 12.9898 16.7004 12.9898C16.6952 12.9898 16.6909 12.994 16.6909 12.9993C16.6909 13.0046 16.6952 13.0088 16.7004 13.0088Z" fill="black"/>
<path d="M16.725 13.0489C16.725 13.0514 16.724 13.0538 16.7223 13.0555C16.7205 13.0573 16.7181 13.0583 16.7157 13.0583C16.7132 13.0583 16.7108 13.0573 16.7091 13.0555C16.7073 13.0538 16.7063 13.0514 16.7063 13.0489C16.7063 13.0448 16.7094 13.0427 16.7157 13.0427L16.725 13.0489ZM16.5038 12.8215C16.5038 12.824 16.5028 12.8263 16.5011 12.8281C16.4993 12.8298 16.4969 12.8308 16.4945 12.8308C16.492 12.8308 16.4896 12.8298 16.4878 12.8281C16.4861 12.8263 16.4851 12.824 16.4851 12.8215C16.486 12.8202 16.4871 12.8191 16.4885 12.8184C16.4898 12.8177 16.4914 12.8173 16.4929 12.8173C16.4944 12.8173 16.496 12.8177 16.4973 12.8184C16.4987 12.8191 16.4998 12.8202 16.5007 12.8215H16.5038Z" fill="black"/>
<path d="M16.501 12.8655C16.5062 12.8655 16.5105 12.8612 16.5105 12.8559C16.5105 12.8507 16.5062 12.8464 16.501 12.8464C16.4957 12.8464 16.4915 12.8507 16.4915 12.8559C16.4915 12.8612 16.4957 12.8655 16.501 12.8655Z" fill="black"/>
<path d="M16.4544 12.8499C16.4596 12.8499 16.4639 12.8456 16.4639 12.8403C16.4639 12.8351 16.4596 12.8308 16.4544 12.8308C16.4491 12.8308 16.4448 12.8351 16.4448 12.8403C16.4448 12.8456 16.4491 12.8499 16.4544 12.8499Z" fill="black"/>
<path d="M16.4758 12.8897L16.4696 12.899C16.4671 12.899 16.4647 12.898 16.4629 12.8963C16.4612 12.8945 16.4602 12.8921 16.4602 12.8897C16.4602 12.8872 16.4612 12.8848 16.4629 12.8831C16.4647 12.8813 16.4671 12.8803 16.4696 12.8803L16.4758 12.8897ZM16.6253 12.5906C16.6253 12.5906 16.7344 12.6591 16.6284 12.7868C16.6284 12.7868 16.6814 12.7463 16.6845 12.6809C16.6876 12.6155 16.6471 12.5625 16.6222 12.5906H16.6253ZM17.0459 12.7744C17.0085 12.7931 16.9587 12.7588 16.9338 12.7277C16.9088 12.6965 16.8559 12.6871 16.8216 12.7463C16.7905 12.8024 16.7437 12.8242 16.7437 12.8242C16.7437 12.8242 16.7905 12.7993 16.8372 12.7463C16.8839 12.6934 16.912 12.737 16.9587 12.7619C17.0023 12.7868 17.0117 12.7931 17.0428 12.7775V12.7744H17.0459Z" fill="black"/>
<path d="M17.0369 12.784C17.0264 12.7903 17.0144 12.7933 17.0022 12.7928C16.99 12.7922 16.9782 12.7881 16.9684 12.7809C16.9372 12.756 16.9154 12.7248 16.8811 12.7435C16.8437 12.7622 16.7783 12.8121 16.7783 12.8121C16.7783 12.8121 16.8874 12.7373 16.9092 12.756C16.9279 12.7716 16.9777 12.8121 17.0058 12.7996L17.0369 12.784Z" fill="black"/>
<path d="M16.952 12.8275C16.9179 12.8027 16.8838 12.8585 16.8559 12.8523C16.8249 12.8461 16.8032 12.7965 16.8032 12.7965C16.8032 12.7965 16.828 12.8461 16.8652 12.8368C16.9055 12.8244 16.9303 12.7996 16.9551 12.8182C16.9799 12.8368 16.952 12.8275 16.952 12.8275Z" fill="black"/>
<path d="M16.8994 12.8367C16.8905 12.8386 16.8814 12.8384 16.8726 12.8363C16.8638 12.8342 16.8555 12.8302 16.8484 12.8246C16.8414 12.819 16.8356 12.8119 16.8315 12.8038C16.8275 12.7957 16.8252 12.7869 16.825 12.7778C16.825 12.7778 16.8467 12.8336 16.9056 12.8243L16.8994 12.8367Z" fill="black"/>
<path d="M16.8966 12.7934C16.9028 12.81 16.8976 12.8183 16.881 12.8183C16.8581 12.8183 16.8478 12.81 16.8498 12.7934C16.8498 12.7778 16.8935 12.7809 16.8966 12.7934ZM16.6536 12.6999C16.6517 12.7045 16.6487 12.7087 16.6449 12.7119C16.6411 12.7152 16.6366 12.7175 16.6317 12.7186C16.6193 12.7186 16.6141 12.7124 16.6162 12.6999C16.6193 12.6812 16.6162 12.6781 16.6317 12.6781C16.6473 12.6781 16.6536 12.6874 16.6536 12.6999Z" fill="black"/>
<path d="M16.5757 12.6219C16.5757 12.6219 16.6935 12.6219 16.6377 12.7676C16.6377 12.7676 16.6811 12.6963 16.6532 12.6436C16.6222 12.594 16.5819 12.6064 16.5819 12.6064C16.5819 12.6064 16.5695 12.6157 16.5757 12.6219Z" fill="black"/>
<path d="M16.5756 12.6809C16.5756 12.7099 16.5942 12.7398 16.6314 12.7708L16.6407 12.7584C16.6056 12.7316 16.588 12.7057 16.588 12.6809C16.588 12.6437 16.6066 12.6406 16.6066 12.6406L16.5973 12.6313C16.5973 12.6313 16.5756 12.6499 16.5725 12.6809H16.5756Z" fill="black"/>
<path d="M16.6005 12.7061C16.6046 12.7227 16.6171 12.7352 16.6379 12.7435L16.6441 12.731C16.6275 12.7248 16.6171 12.7144 16.6129 12.6999C16.6067 12.675 16.6254 12.6469 16.6254 12.6469L16.6129 12.6376C16.6129 12.6376 16.5911 12.675 16.6005 12.7061ZM16.7594 12.7871C16.7594 12.7871 16.7812 12.8339 16.75 12.8837L16.7189 12.9336C16.7189 12.9336 16.7563 12.8619 16.7407 12.8339C16.7251 12.8058 16.7594 12.7871 16.7594 12.7871ZM17.2142 13.2794C17.3326 13.3012 17.6037 13.5131 17.6037 13.5131L17.6193 13.4944C17.6099 13.485 17.342 13.2763 17.2174 13.2545L17.2142 13.2794ZM17.3202 13.5754C17.3264 13.6844 17.4448 13.7498 17.4448 13.753L17.4604 13.7311C17.4604 13.7311 17.3513 13.6688 17.3451 13.5754H17.3202ZM17.0304 13.6003C17.0304 13.7187 17.1426 13.862 17.1488 13.8682L17.1675 13.8527C17.1675 13.8527 17.0553 13.7093 17.0553 13.6003H17.0304ZM16.6534 13.6128C16.6701 13.6522 16.6742 13.6751 16.6659 13.6813C16.6555 13.6917 16.6493 13.6958 16.6472 13.6938L16.6503 13.7187C16.6628 13.7187 16.6752 13.7104 16.6877 13.6938C16.7002 13.673 16.696 13.6418 16.6752 13.6003L16.6534 13.6128Z" fill="black"/>
<path d="M14.9556 13.022C14.9556 13.022 14.9556 13.1016 15.0212 13.1485C15.0212 13.1485 15.0118 13.0641 15.0306 13.0266C15.0306 13.0266 14.9978 12.9892 14.9509 13.0266L14.9556 13.022ZM15.0775 13.0735C15.0775 13.0735 15.0915 13.1438 15.1337 13.1766L15.1571 13.1719C15.1571 13.1719 15.1712 13.0782 15.1852 13.0688C15.1993 13.0594 15.1243 13.1016 15.0775 13.0735Z" fill="white" stroke="black" stroke-width="0.00937671" stroke-miterlimit="3"/>
<path d="M15.1853 13.0686L15.232 13.1432L15.2879 13.1152L15.2739 13.0266C15.2739 13.0266 15.2413 13.0173 15.1807 13.0733L15.1853 13.0686Z" fill="white" stroke="black" stroke-width="0.00937671" stroke-miterlimit="3"/>
<path d="M15.4057 13.0828L15.3448 13.1344C15.3448 13.1344 15.312 13.111 15.2839 13.1157L15.2979 13.036C15.2979 13.036 15.3448 13.0032 15.4057 13.0828ZM14.9652 13.8326C14.9652 13.8326 14.9558 13.7248 14.9699 13.7155C14.9699 13.7155 15.0168 13.7295 15.0308 13.7155C15.0308 13.7155 15.0589 13.8045 15.0496 13.8373C15.0402 13.8701 15.0027 13.8607 14.9652 13.8373V13.8326ZM15.2464 13.7202C15.2464 13.7202 15.2464 13.6264 15.2604 13.6124C15.2604 13.6124 15.3542 13.6264 15.3729 13.5796L15.4057 13.6686C15.4057 13.6686 15.3026 13.6592 15.2464 13.7155V13.7202Z" fill="white" stroke="black" stroke-width="0.00937671" stroke-miterlimit="3"/>
<path d="M15.1478 13.7393C15.1478 13.7393 15.1666 13.6408 15.1853 13.6361C15.1853 13.6361 15.2322 13.6502 15.2463 13.6361V13.7533C15.2463 13.7533 15.2463 13.7018 15.1525 13.7393H15.1478ZM15.0447 13.7533C15.0447 13.7533 15.0634 13.6643 15.0775 13.6643C15.0916 13.6643 15.1291 13.6877 15.1478 13.6736V13.7393C15.1478 13.7393 15.0681 13.7205 15.0541 13.833L15.0447 13.7533Z" fill="white"/>
<path d="M15.1478 13.7393C15.1478 13.7393 15.1666 13.6408 15.1853 13.6361C15.1853 13.6361 15.2322 13.6502 15.2463 13.6361V13.7533C15.2463 13.7533 15.2463 13.7018 15.1525 13.7393H15.1478ZM15.1478 13.7393V13.6736C15.1291 13.6877 15.0916 13.6643 15.0775 13.6643C15.0634 13.6643 15.0447 13.7533 15.0447 13.7533L15.0541 13.833C15.0681 13.7205 15.1478 13.7393 15.1478 13.7393Z" stroke="black" stroke-width="0.00937671" stroke-miterlimit="3"/>
<path d="M16.4561 15.5583C16.4561 15.5583 16.7044 15.7926 16.6435 15.9894C16.6435 15.9894 16.7982 15.6473 16.6295 15.5489C16.4561 15.4458 16.4514 15.5255 16.4561 15.5583Z" fill="#00A651" stroke="black" stroke-width="0.0234418" stroke-miterlimit="4.8"/>
<path d="M16.1467 15.7834C16.1467 15.7834 16.0811 15.8724 16.1514 15.9333C16.1514 15.9333 16.0764 16.0458 16.1326 16.1395C16.1326 16.1395 16.0858 16.2379 16.0998 16.3457C16.0998 16.3457 16.0577 16.5097 16.1467 16.5847C16.1467 16.5847 16.2404 16.6316 16.2826 16.5941C16.2826 16.5941 16.3622 16.4676 16.3107 16.341C16.3107 16.341 16.3716 16.2333 16.306 16.102C16.306 16.102 16.3248 16.0224 16.2685 15.9333C16.2685 15.9333 16.306 15.8771 16.2732 15.8303C16.2732 15.8303 16.1561 15.7084 16.1467 15.7834Z" fill="#964B36" stroke="black" stroke-width="0.0234418" stroke-miterlimit="4.8"/>
<path d="M16.2167 15.4923C16.2167 15.4923 15.9215 14.93 15.7153 14.9066C15.5091 14.8831 15.4998 14.6816 15.4998 14.6816C15.4998 14.6816 15.5232 14.7754 15.6872 14.7754C15.8512 14.7754 16.1699 15.0097 16.2027 15.1831C16.2402 15.3611 16.273 15.3377 16.273 15.3377L16.2167 15.4923Z" fill="#00A651" stroke="black" stroke-width="0.0234418" stroke-miterlimit="4.8"/>
<path d="M16.2171 15.4548C16.2171 15.4548 16.3249 14.7426 16.7888 14.7285C17.2528 14.7144 17.0981 14.766 17.2106 14.691C17.2106 14.691 16.8966 14.855 16.7045 14.8785C16.5124 14.9019 16.353 15.2768 16.3577 15.3471C16.3624 15.4174 16.2546 15.5532 16.1984 15.5064C16.1422 15.4595 16.2171 15.4548 16.2171 15.4548Z" fill="#00A651" stroke="black" stroke-width="0.0234418" stroke-miterlimit="4.8"/>
<path d="M16.3199 15.7176C16.3199 15.7176 16.4276 15.4364 16.6104 15.5302C16.6104 15.5302 16.4698 15.2584 16.2168 15.4927C16.2168 15.4927 16.3292 15.6473 16.3246 15.7176H16.3199ZM15.9684 15.4364C15.9684 15.4364 16.1277 16.0644 15.8934 16.2518C15.8934 16.2518 15.8981 15.9285 15.7575 15.7363C15.617 15.5442 15.8981 15.3333 15.9731 15.4317L15.9684 15.4364Z" fill="#00A651" stroke="black" stroke-width="0.0234418" stroke-miterlimit="4.8"/>
<path d="M15.9873 15.5489C15.9873 15.5489 16.2685 15.8113 16.2825 15.9004C16.3013 15.9894 16.3622 15.6379 16.2357 15.5348C16.1552 15.4756 16.0622 15.4355 15.9639 15.4177L15.9873 15.5489Z" fill="#00A651" stroke="black" stroke-width="0.0234418" stroke-miterlimit="4.8"/>
<path d="M15.4763 16.2428C15.4763 16.2428 15.5044 16.3506 15.57 16.374C15.57 16.374 15.5747 16.4537 15.6356 16.4818C15.6356 16.4818 15.6028 16.5474 15.6591 16.5896C15.6591 16.5896 15.645 16.7301 15.6966 16.7583C15.6966 16.7583 15.8184 16.7489 15.8606 16.7114C15.8606 16.7114 15.8887 16.6224 15.8184 16.5333C15.8184 16.5333 15.8278 16.449 15.7622 16.4021C15.7622 16.4021 15.7809 16.285 15.6966 16.2428C15.6966 16.2428 15.6825 16.1491 15.631 16.1022C15.631 16.1022 15.5232 16.2522 15.4763 16.2428Z" fill="#964B36" stroke="black" stroke-width="0.0234418" stroke-miterlimit="4.8"/>
<path d="M15.6119 16.1069C15.6119 16.1069 15.2511 15.971 15.0496 16.1631C15.0496 16.1631 15.3588 16.2053 15.401 16.2662C15.4385 16.3271 15.6306 16.1678 15.6166 16.1069H15.6119Z" fill="#00A651" stroke="black" stroke-width="0.0234418" stroke-miterlimit="4.8"/>
<path d="M15.504 16.3313L15.4384 16.2797C15.4009 16.2563 15.0963 16.1719 15.0542 16.4672C15.0542 16.4672 14.9464 16.1766 15.1057 16.1391C15.265 16.0923 15.3962 16.186 15.504 16.3266M15.265 15.7314C15.265 15.7314 15.3775 15.9658 15.4197 15.9845C15.4572 15.9939 15.49 15.9517 15.49 15.9517C15.49 15.9517 15.34 15.7361 15.265 15.7314ZM15.1807 15.3566C15.1807 15.3566 15.087 15.0473 14.9792 15.1316C14.8667 15.2113 14.8948 15.4362 14.8948 15.4362C14.8948 15.4362 14.6699 15.2066 14.8011 15.0238C14.9323 14.8411 15.1854 15.0426 15.1854 15.3612L15.1807 15.3566Z" fill="#00A651"/>
<path d="M15.504 16.3313L15.4384 16.2797C15.4009 16.2563 15.0963 16.1719 15.0542 16.4672C15.0542 16.4672 14.9464 16.1766 15.1057 16.1391C15.265 16.0923 15.3962 16.186 15.504 16.3266M15.265 15.7314C15.265 15.7314 15.3775 15.9658 15.4197 15.9845C15.4572 15.9939 15.49 15.9517 15.49 15.9517C15.49 15.9517 15.34 15.7361 15.265 15.7314ZM15.1807 15.3566C15.1807 15.3566 15.087 15.0473 14.9792 15.1316C14.8667 15.2113 14.8948 15.4362 14.8948 15.4362C14.8948 15.4362 14.6699 15.2066 14.8011 15.0238C14.9323 14.8411 15.1854 15.0426 15.1854 15.3612L15.1807 15.3566Z" stroke="black" stroke-width="0.0234418" stroke-miterlimit="4.8"/>
<path d="M15.4341 15.9987C15.4341 15.9987 15.4341 16.0593 15.4807 16.0733C15.518 16.092 15.5926 16.1199 15.5926 16.0873C15.5926 16.0547 15.5367 15.9194 15.5134 15.9334C15.49 15.9474 15.4481 15.9521 15.4341 15.9987Z" fill="#964B36" stroke="black" stroke-width="0.0234418" stroke-miterlimit="4.8"/>
<path d="M15.3639 15.6378C15.3639 15.6378 15.3545 15.366 15.5279 15.263C15.5279 15.263 15.5654 15.2723 15.5841 15.2161C15.5841 15.2161 15.4435 15.5582 15.481 15.7316V15.755" fill="#00A651"/>
<path d="M15.3639 15.6378C15.3639 15.6378 15.3545 15.366 15.5279 15.263C15.5279 15.263 15.5654 15.2723 15.5841 15.2161C15.5841 15.2161 15.4435 15.5582 15.481 15.7316V15.755" stroke="black" stroke-width="0.0234418" stroke-miterlimit="4.8"/>
<path d="M15.4014 15.305C15.4014 15.305 15.72 14.6489 16.1043 14.8785C16.1043 14.8785 15.7013 14.9582 15.556 15.2487L15.4061 15.4643L15.4014 15.305Z" fill="#00A651" stroke="black" stroke-width="0.0234418" stroke-miterlimit="4.8"/>
<path d="M15.2324 15.5487C15.2324 15.5487 15.1387 15.1082 15.0777 15.0473C15.0168 14.9863 14.9184 14.9254 14.8013 15.0238C14.8013 15.0238 15.0075 14.8411 15.223 14.9957C15.4433 15.1504 15.3964 15.3894 15.3964 15.3894L15.373 15.6939L15.223 15.5581" fill="#00A651"/>
<path d="M15.2324 15.5487C15.2324 15.5487 15.1387 15.1082 15.0777 15.0473C15.0168 14.9863 14.9184 14.9254 14.8013 15.0238C14.8013 15.0238 15.0075 14.8411 15.223 14.9957C15.4433 15.1504 15.3964 15.3894 15.3964 15.3894L15.373 15.6939L15.223 15.5581" stroke="black" stroke-width="0.0234418" stroke-miterlimit="4.8"/>
<path d="M15.5702 16.0694C15.5702 16.0694 15.181 15.338 14.9326 15.8584C14.9326 15.8584 14.8857 15.9944 14.9326 16.0459C14.9326 16.0459 14.7919 15.9428 14.8575 15.6803C14.9232 15.4271 15.3545 15.5396 15.4764 15.7553C15.5952 15.9616 15.6421 16.0709 15.6171 16.0835C15.5983 16.0928 15.5702 16.0694 15.5702 16.0694ZM16.6626 16.2804C16.6626 16.2804 16.9439 15.699 17.1126 15.9662C17.1126 15.9662 17.1595 16.0928 17.0845 16.1491C17.0845 16.1491 16.9767 16.0084 16.8735 16.1772C16.7798 16.3413 16.8173 16.3272 16.8173 16.3272C16.8173 16.3272 16.7094 16.3601 16.6626 16.2804Z" fill="#00A651" stroke="black" stroke-width="0.0234418" stroke-miterlimit="4.8"/>
<path d="M17.0845 16.1488C17.0845 16.1488 17.2391 16.2285 17.1876 16.3925C17.1876 16.3925 17.3938 15.9989 17.1079 15.9661C17.1079 15.9661 17.1641 16.0879 17.0892 16.1488H17.0845ZM17.1032 15.7458C17.1032 15.7458 17.4781 15.8536 17.4875 16.0129C17.4875 16.0129 17.5484 15.7083 17.3375 15.6146C17.3375 15.6146 17.0845 15.6521 17.1032 15.7458Z" fill="#00A651" stroke="black" stroke-width="0.0234418" stroke-miterlimit="4.8"/>
<path d="M17.267 15.2582C17.4264 14.9489 17.6279 15.3613 17.6279 15.3613C17.6279 15.3613 17.6982 15.0332 17.4967 14.977C17.2952 14.9208 17.1686 15.6659 17.1686 15.6659L16.9343 15.7174C16.9343 15.7174 16.9999 15.066 17.3514 15.0051L17.3936 15.0145" fill="#00A651"/>
<path d="M17.267 15.2582C17.4264 14.9489 17.6279 15.3613 17.6279 15.3613C17.6279 15.3613 17.6982 15.0332 17.4967 14.977C17.2952 14.9208 17.1686 15.6659 17.1686 15.6659L16.9343 15.7174C16.9343 15.7174 16.9999 15.066 17.3514 15.0051L17.3936 15.0145" stroke="black" stroke-width="0.0234418" stroke-miterlimit="4.8"/>
<path d="M16.9858 15.4456C16.9858 15.4456 16.7608 14.991 16.6109 14.9442C16.4609 14.8973 16.6952 14.827 16.789 14.9114C16.8827 15.0051 17.0561 15.1129 17.0373 15.3472L16.9905 15.4456H16.9858ZM16.7562 16.0735C16.7562 16.0735 16.8218 15.7642 16.9998 15.6705C17.1732 15.5768 17.3372 15.6096 17.3372 15.6096C17.3372 15.6096 17.1264 15.6564 17.0936 15.7642C17.0608 15.872 16.9998 15.8767 16.9998 15.8767L16.7562 16.0735Z" fill="#00A651" stroke="black" stroke-width="0.0234418" stroke-miterlimit="4.8"/>
<path d="M16.6623 16.2804C16.6623 16.2804 16.5639 16.4678 16.5874 16.5006C16.5874 16.5006 16.4796 16.6506 16.5218 16.7302C16.5218 16.7302 16.6295 16.8099 16.6764 16.7771C16.6764 16.7771 16.7982 16.6037 16.7654 16.51C16.7654 16.51 16.8451 16.3975 16.8123 16.3272C16.8123 16.3272 16.6951 16.3366 16.6623 16.2804Z" fill="#964B36" stroke="black" stroke-width="0.0234418" stroke-miterlimit="4.8"/>
<path d="M16.1465 15.9475C16.1511 15.9475 16.2121 15.9803 16.2542 15.9662L16.2824 15.9428L16.2589 15.9287C16.2449 15.9568 16.1793 15.9334 16.1558 15.924L16.1465 15.9475ZM16.1371 16.1302L16.1324 16.1537C16.1371 16.1537 16.2542 16.1771 16.3152 16.1255L16.2964 16.1068C16.2495 16.1537 16.1371 16.1302 16.1371 16.1302ZM16.1043 16.3364L16.0902 16.3552C16.0902 16.3552 16.2308 16.4583 16.3245 16.3505L16.3011 16.3317C16.2261 16.4255 16.1137 16.3411 16.109 16.3317L16.1043 16.3364ZM15.5701 16.3645V16.3786C15.5794 16.3786 15.6966 16.3317 15.706 16.2427H15.6919C15.6825 16.3224 15.5701 16.3645 15.5701 16.3645ZM15.6357 16.4723V16.4864C15.6404 16.4864 15.7481 16.477 15.7669 16.402H15.7528C15.7388 16.4676 15.6357 16.4723 15.6357 16.4723ZM15.6591 16.5848V16.5988C15.6591 16.5988 15.7856 16.6035 15.8231 16.5379L15.8137 16.5285C15.7763 16.5895 15.6591 16.5848 15.6591 16.5848ZM16.5776 16.5098C16.5776 16.5098 16.6338 16.5613 16.6947 16.5567C16.7101 16.5574 16.7253 16.5544 16.7392 16.5479C16.7531 16.5413 16.7652 16.5315 16.7744 16.5192L16.7556 16.5051C16.7395 16.5217 16.7178 16.5317 16.6947 16.5332C16.676 16.5324 16.6577 16.5278 16.6408 16.5197C16.6239 16.5117 16.6088 16.5003 16.5963 16.4864L16.5776 16.5098Z" fill="#000001"/>
<path d="M20.6564 16.8284C20.6564 16.8222 20.6533 16.8191 20.647 16.8191L20.6283 16.7816H20.6142L20.5814 16.716V16.6879C20.5752 16.6879 20.5705 16.6847 20.5674 16.6785V16.6457L20.5627 16.6269V16.5801C20.5502 16.5645 20.5439 16.5457 20.5439 16.5238L20.5486 16.477L20.5393 16.4301L20.5486 16.3879V16.1396L20.5393 16.0927V15.999L20.5346 16.1162C20.5346 16.0131 20.5252 15.9147 20.5252 15.9147L20.3706 15.8444C20.3706 15.8444 20.3565 16.1302 20.3612 16.1724C20.3612 16.2099 20.3752 16.4864 20.3706 16.5192C20.3612 16.552 20.3471 16.716 20.3471 16.716C20.3471 16.716 20.2721 16.7722 20.2393 16.8331C20.2112 16.8894 20.2159 16.9128 20.2065 16.9128L20.2815 16.8987L20.2253 16.9362L20.2581 16.9409L20.2721 16.9503L20.2815 16.9409L20.3143 16.9596L20.3331 16.9456L20.3424 16.9268H20.394C20.4065 16.9237 20.419 16.9128 20.4315 16.894C20.444 16.8847 20.4565 16.88 20.469 16.88C20.4846 16.8831 20.4986 16.8894 20.5111 16.8987C20.5205 16.8987 20.5299 16.894 20.5393 16.8847L20.5533 16.8566H20.6423L20.6564 16.8659L20.6611 16.8472V16.8284H20.6564Z" fill="#964B36"/>
<path d="M20.2253 16.9362L20.2065 16.9503M20.2253 16.9362L20.2815 16.8987L20.2065 16.9128C20.2159 16.9128 20.2112 16.8894 20.2393 16.8331C20.2721 16.7722 20.3471 16.716 20.3471 16.716C20.3471 16.716 20.3612 16.552 20.3706 16.5192C20.3752 16.4864 20.3612 16.2099 20.3612 16.1724C20.3565 16.1302 20.3706 15.8444 20.3706 15.8444L20.5252 15.9147C20.5252 15.9147 20.5346 16.0131 20.5346 16.1162L20.5393 15.999V16.0927L20.5486 16.1396V16.3879L20.5393 16.4301L20.5486 16.477L20.5439 16.5238C20.5439 16.5457 20.5502 16.5645 20.5627 16.5801V16.6269L20.5674 16.6457V16.6785C20.5705 16.6847 20.5752 16.6879 20.5814 16.6879V16.716L20.6142 16.7816H20.6283L20.647 16.8191C20.6533 16.8191 20.6564 16.8222 20.6564 16.8284H20.6611V16.8472L20.6564 16.8659L20.6423 16.8566H20.5533L20.5393 16.8847C20.5299 16.894 20.5205 16.8987 20.5111 16.8987C20.4986 16.8894 20.4846 16.8831 20.469 16.88C20.4565 16.88 20.444 16.8847 20.4315 16.894C20.419 16.9128 20.4065 16.9237 20.394 16.9268H20.3424L20.3331 16.9456L20.3143 16.9596L20.2815 16.9409L20.2721 16.9503L20.2581 16.9409L20.2253 16.9362Z" stroke="black" stroke-width="0.0140651" stroke-miterlimit="4.8"/>
<path d="M20.3422 16.932L20.3656 16.9367L20.3703 16.946H20.3797L20.3937 16.9507H20.4078L20.4265 16.9554C20.4359 16.9585 20.4453 16.957 20.4546 16.9507C20.464 16.9445 20.4718 16.9476 20.4781 16.9601C20.4874 16.9788 20.4874 16.9648 20.4921 16.9601V16.9554L20.5062 16.9507L20.5249 16.946L20.539 16.9367L20.5577 16.946L20.5671 16.9507L20.6046 16.9226H20.6655C20.6655 16.9163 20.6702 16.9132 20.6796 16.9132L20.7124 16.932C20.7171 16.932 20.7452 16.9413 20.7405 16.9179C20.7358 16.8945 20.7217 16.9132 20.7171 16.8992V16.8711L20.6983 16.8523H20.6843L20.6749 16.8289H20.6561L20.6468 16.8195C20.6327 16.8054 20.6233 16.8289 20.614 16.8242L20.5859 16.7914C20.5827 16.7789 20.5765 16.7726 20.5671 16.7726L20.5624 16.8054H20.5437L20.5296 16.8195C20.5202 16.8351 20.5093 16.8445 20.4968 16.8476L20.4734 16.8382C20.4703 16.8445 20.464 16.8492 20.4546 16.8523H20.4359C20.4265 16.8492 20.4203 16.8429 20.4172 16.8336C20.4172 16.8323 20.4167 16.8311 20.4158 16.8302C20.4149 16.8294 20.4137 16.8289 20.4125 16.8289C20.4112 16.8289 20.41 16.8294 20.4092 16.8302C20.4083 16.8311 20.4078 16.8323 20.4078 16.8336L20.3984 16.8289C20.3922 16.8258 20.3875 16.8289 20.3843 16.8382V16.8617L20.3656 16.8804L20.3469 16.8851C20.3422 16.8851 20.3328 16.8992 20.3281 16.8851C20.3234 16.8664 20.3422 16.8336 20.3187 16.8382L20.3047 16.8523V16.8804C20.3047 16.8945 20.2766 16.9179 20.2813 16.9273C20.2813 16.9413 20.2953 16.9273 20.3 16.9273L20.3094 16.946C20.3141 16.9601 20.3422 16.9273 20.3422 16.946M20.2438 16.8195V16.8148L20.2203 16.8054L20.2016 16.8242C20.1875 16.8476 20.1922 16.8711 20.1688 16.8711H20.15V16.9179C20.1438 16.9179 20.1391 16.921 20.136 16.9273C20.1391 16.9398 20.1454 16.9445 20.1547 16.9413H20.2016L20.2297 16.932L20.2531 16.9273L20.2625 16.9039V16.8851L20.2766 16.8664C20.2766 16.8336 20.2438 16.857 20.2485 16.8242" fill="#964B36"/>
<path d="M20.3422 16.932L20.3656 16.9367L20.3703 16.946H20.3797L20.3937 16.9507H20.4078L20.4265 16.9554C20.4359 16.9585 20.4453 16.957 20.4546 16.9507C20.464 16.9445 20.4718 16.9476 20.4781 16.9601C20.4874 16.9788 20.4874 16.9648 20.4921 16.9601V16.9554L20.5062 16.9507L20.5249 16.946L20.539 16.9367L20.5577 16.946L20.5671 16.9507L20.6046 16.9226H20.6655C20.6655 16.9163 20.6702 16.9132 20.6796 16.9132L20.7124 16.932C20.7171 16.932 20.7452 16.9413 20.7405 16.9179C20.7358 16.8945 20.7217 16.9132 20.7171 16.8992V16.8711L20.6983 16.8523H20.6843L20.6749 16.8289H20.6561L20.6468 16.8195C20.6327 16.8054 20.6233 16.8289 20.614 16.8242L20.5859 16.7914C20.5827 16.7789 20.5765 16.7726 20.5671 16.7726L20.5624 16.8054H20.5437L20.5296 16.8195C20.5202 16.8351 20.5093 16.8445 20.4968 16.8476L20.4734 16.8382C20.4703 16.8445 20.464 16.8492 20.4546 16.8523H20.4359C20.4265 16.8492 20.4203 16.8429 20.4172 16.8336C20.4172 16.8323 20.4167 16.8311 20.4158 16.8302C20.4149 16.8294 20.4137 16.8289 20.4125 16.8289C20.4112 16.8289 20.41 16.8294 20.4092 16.8302C20.4083 16.8311 20.4078 16.8323 20.4078 16.8336L20.3984 16.8289C20.3922 16.8258 20.3875 16.8289 20.3843 16.8382V16.8617L20.3656 16.8804L20.3469 16.8851C20.3422 16.8851 20.3328 16.8992 20.3281 16.8851C20.3234 16.8664 20.3422 16.8336 20.3187 16.8382L20.3047 16.8523V16.8804C20.3047 16.8945 20.2766 16.9179 20.2813 16.9273C20.2813 16.9413 20.2953 16.9273 20.3 16.9273L20.3094 16.946C20.3141 16.9601 20.3422 16.9273 20.3422 16.946M20.2438 16.8195V16.8148L20.2203 16.8054L20.2016 16.8242C20.1875 16.8476 20.1922 16.8711 20.1688 16.8711H20.15V16.9179C20.1438 16.9179 20.1391 16.921 20.136 16.9273C20.1391 16.9398 20.1454 16.9445 20.1547 16.9413H20.2016L20.2297 16.932L20.2531 16.9273L20.2625 16.9039V16.8851L20.2766 16.8664C20.2766 16.8336 20.2438 16.857 20.2485 16.8242" stroke="black" stroke-width="0.0140651" stroke-miterlimit="4.8"/>
<path d="M20.638 15.91C20.6349 15.96 20.613 15.9865 20.5724 15.9896C20.5318 15.9834 20.5099 15.9568 20.5068 15.91C20.5099 15.8631 20.5318 15.8381 20.5724 15.835C20.613 15.8381 20.6349 15.8631 20.638 15.91ZM20.4271 15.8162C20.4209 15.8662 20.399 15.8912 20.3615 15.8912C20.3209 15.8881 20.299 15.8631 20.2959 15.8162C20.299 15.7694 20.3209 15.7444 20.3615 15.7413C20.399 15.7444 20.4209 15.7694 20.4271 15.8162Z" fill="black" stroke="black" stroke-width="0.0234418" stroke-miterlimit="4.8"/>
<path d="M20.5344 15.844C20.5312 15.8937 20.511 15.9202 20.4737 15.9233C20.4333 15.9171 20.4116 15.8906 20.4084 15.844C20.4116 15.7974 20.4333 15.7725 20.4737 15.7694C20.511 15.7725 20.5312 15.7974 20.5344 15.844Z" fill="black" stroke="black" stroke-width="0.0234418" stroke-miterlimit="4.8"/>
<path d="M20.4264 15.9143C20.4233 15.964 20.4031 15.9905 20.3658 15.9936C20.3254 15.9874 20.3036 15.9609 20.3005 15.9143C20.3036 15.8677 20.3254 15.8428 20.3658 15.8397C20.4031 15.8428 20.4233 15.8677 20.4264 15.9143Z" fill="black" stroke="black" stroke-width="0.0234418" stroke-miterlimit="4.8"/>
<path d="M20.5295 15.9705C20.5264 16.0203 20.5046 16.0467 20.4642 16.0498C20.4238 16.0467 20.402 16.0218 20.3989 15.9752C20.402 15.9255 20.4238 15.899 20.4642 15.8959C20.5046 15.9022 20.5264 15.9286 20.5295 15.9752V15.9705Z" fill="black" stroke="black" stroke-width="0.0234418" stroke-miterlimit="4.8"/>
<path d="M20.5584 15.1411C20.5584 15.1411 21.2148 14.2316 21.9134 15.1786C21.9134 15.1786 21.9134 15.2724 21.8524 15.3661L21.8337 15.2958L21.7962 15.3052L21.7821 15.2583L21.7071 15.2536L21.7305 15.1552L21.6461 15.2161L21.6602 15.1458L21.5664 15.2395L21.5758 15.0426L21.4774 15.2114L21.4867 15.0942L21.4539 15.1458L21.4305 15.0801L21.4023 15.1458L21.3555 15.113V15.1598L21.2711 15.0895L21.2429 15.1833L21.1961 15.0848L21.1867 15.1505L21.1492 15.0708L21.1398 15.1598L21.0085 15.0989L21.0367 15.1833L20.971 15.1364L20.9851 15.1833L20.8913 15.1645L20.9007 15.2161L20.8069 15.202L20.8257 15.2489L20.6944 15.2302L20.7413 15.2817L20.7272 15.3052C20.7272 15.3052 21.4352 15.0708 21.482 15.9522L21.3555 16.0178L21.3883 15.9475L21.3555 15.924L21.2476 15.8397L21.2758 15.7271L21.2429 15.7412L21.2336 15.6756L21.2195 15.6896L21.1726 15.624L21.1632 15.6474L21.1351 15.5677L21.107 15.624L21.0882 15.4927L21.0413 15.5771L21.0367 15.5302L21.0179 15.5584L20.9616 15.488L20.9429 15.5349L20.9194 15.4974L20.9007 15.5443L20.8351 15.4833V15.5302L20.7975 15.4927L20.7788 15.5162L20.6757 15.4646V15.5115L20.6194 15.4646L20.6006 15.5115C20.6006 15.5115 21.2429 15.8772 21.0413 16.4679L21.0085 16.5476L20.9945 16.346L20.9382 16.4538L20.9757 16.2194L20.9382 16.2663L20.9288 16.1725L20.8772 16.2663L20.8585 16.1632L20.8351 16.1913L20.8022 16.0413L20.7694 16.1069L20.7225 15.9334L20.6897 16.0038L20.6663 15.8584L20.6428 15.9475L20.5725 15.8162L20.5584 15.8678L20.5209 15.7646L20.4975 15.7975C20.4975 15.7975 20.3803 15.7975 20.3428 15.7646C20.3053 15.7318 20.2068 15.9428 20.2068 15.9428L20.2209 15.8162L20.174 15.9006V15.8162L20.1037 16.0647L20.0849 15.8865L20.0427 16.0413L20.024 15.9944L20.0146 16.06L19.9912 16.0366L19.9677 16.1022L19.9302 16.0741V16.1678L19.8974 16.121L19.8646 16.2616L19.8505 16.2054V16.271L19.8177 16.2335L19.7896 16.3741L19.7474 16.3179V16.4163L19.7614 16.4913L19.7145 16.4679L19.7333 16.5945C19.7333 16.5945 19.5458 16.2522 19.7661 15.924C19.9865 15.5959 20.2818 15.5021 20.2818 15.5021L20.249 15.4787L20.2443 15.4458L20.0662 15.5396L20.0709 15.4833L20.024 15.5209L20.0146 15.4646L19.9865 15.5162L19.9771 15.4927L19.9396 15.5584L19.9161 15.4646L19.8833 15.5771L19.8552 15.4974L19.7942 15.6662V15.5396L19.7474 15.6709L19.7333 15.5302L19.6958 15.6943V15.5443L19.6442 15.6943L19.6067 15.5537L19.5833 15.6896L19.5504 15.5818L19.5129 15.7412L19.4614 15.6006L19.4332 15.8115L19.3957 15.7271L19.391 15.8819L19.3488 15.7881L19.391 15.985L19.3395 15.91L19.3535 16.0319L19.2785 15.9006L19.2832 16.06L19.2457 16.0038L19.2269 16.0647C19.2269 16.0647 19.2082 15.4552 19.6255 15.3333C20.0427 15.2114 20.3146 15.3708 20.3146 15.3708L20.1552 15.2395L20.174 15.202H20.113L20.1365 15.1552H20.0193L20.0521 15.1083L19.9583 15.1223V15.0942L19.9021 15.1411L19.9255 15.0895L19.8411 15.1411V15.0614L19.7942 15.1317L19.7708 15.0614L19.5833 15.2489L19.6348 15.052L19.602 15.0989L19.5973 15.052L19.5411 15.1364L19.5317 15.0755L19.5083 15.1458L19.4895 15.0661L19.4473 15.1458L19.4098 15.0708L19.391 15.1692L19.3582 15.1223L19.3254 15.1927L19.2785 15.1458L19.2738 15.1927L19.1801 15.1552L19.2035 15.2255L19.1332 15.1645L19.1144 15.2583L19.0722 15.2114L19.0441 15.3286L19.016 15.2161L18.9832 15.3099C18.9832 15.3099 19.3535 14.3628 20.2818 14.9817C20.2818 14.9817 20.385 15.0755 20.4084 15.1458C20.4319 15.2161 20.4084 15.1598 20.4084 15.1598L20.3943 14.5035L20.4319 14.7848L20.4553 14.691L20.4459 14.8317L20.5397 14.6301C20.5397 14.6301 20.4319 14.9723 20.4694 15.0989C20.4694 15.0989 20.5162 14.7004 20.6569 14.6535L20.5256 14.9348L20.5631 14.9301L20.535 14.9864H20.5725L20.5256 15.0801L20.5069 15.127L20.5303 15.1739L20.5631 15.1411H20.5584Z" fill="#00A651" stroke="black" stroke-width="0.0234418" stroke-miterlimit="4.8"/>
<path d="M20.4647 15.5253L20.4835 15.5394C20.4835 15.5394 20.5444 15.4785 20.6381 15.5581L20.6569 15.5394C20.5397 15.441 20.4647 15.5253 20.4647 15.5253ZM20.4366 15.2067L20.4319 15.2254L20.4788 15.2067L20.446 15.2629L20.5116 15.2395L20.4272 15.3473L20.4507 15.366L20.5819 15.1879L20.4975 15.216L20.535 15.1551L20.4647 15.1879L20.4788 15.0942H20.4554L20.4366 15.2067Z" fill="black"/>
<path d="M20.3099 15.2114L20.3381 15.277L20.2912 15.2583L20.4318 15.4926L20.4458 15.4738L20.4177 15.5441L20.4411 15.5535L20.5021 15.4035L20.4786 15.3895L20.4318 15.4504L20.3521 15.3098L20.3896 15.3239L20.3521 15.2395L20.399 15.2723V15.1786H20.3755V15.2255L20.3006 15.1739L20.3146 15.2114H20.3099ZM20.2256 15.5113L20.235 15.5347C20.2693 15.5191 20.3006 15.5176 20.3287 15.5301C20.3521 15.5394 20.3615 15.5675 20.3615 15.5675L20.3849 15.5629C20.3849 15.5629 20.3755 15.5254 20.3381 15.5066C20.3068 15.491 20.2693 15.4926 20.2256 15.5113ZM20.3287 15.7644L20.3099 15.6332H20.3334L20.3568 15.7644H20.3287ZM20.5114 15.7456L20.4786 15.6425L20.5021 15.6378L20.5349 15.7362L20.5114 15.7456ZM20.577 15.8206L20.5536 15.7175L20.577 15.7128L20.6005 15.8112L20.577 15.8206Z" fill="black"/>
<path d="M15.5652 18.8306C15.5652 18.8306 15.4527 18.7838 15.4012 18.8213C15.3543 18.8587 15.3543 18.9103 15.3121 18.9056C15.3121 18.9056 15.4808 18.9431 15.5183 18.9009L15.5652 18.8447M15.5839 18.8822C15.5839 18.8822 15.509 18.9759 15.5371 19.0321C15.5605 19.0884 15.612 19.093 15.6027 19.1352C15.6027 19.1352 15.673 18.9806 15.6402 18.9384L15.5933 18.8822M15.4621 18.6104C15.4621 18.6104 15.3449 18.6479 15.3309 18.7041C15.3168 18.7697 15.359 18.8025 15.3262 18.8306C15.3262 18.8306 15.4715 18.7463 15.4715 18.69L15.4668 18.6198M15.5277 18.6526C15.5277 18.6526 15.5839 18.5448 15.5464 18.4932C15.509 18.4417 15.4574 18.4464 15.4668 18.3995C15.4668 18.3995 15.4199 18.5682 15.4668 18.6057L15.5136 18.6526M15.4152 18.6104C15.4152 18.6104 15.4152 18.4932 15.3637 18.4604C15.3121 18.4276 15.2653 18.4557 15.2512 18.4136C15.2512 18.4136 15.2793 18.5823 15.3356 18.601L15.4059 18.6151M15.612 18.8119C15.612 18.8119 15.7386 18.7697 15.7526 18.9056C15.7573 19.0462 15.7433 18.9993 15.7433 18.9993C15.7433 18.9993 15.6777 18.8494 15.6027 18.8259L15.612 18.8119Z" fill="#00A651"/>
<path d="M15.5652 18.8306C15.5652 18.8306 15.4527 18.7838 15.4012 18.8213C15.3543 18.8587 15.3543 18.9103 15.3121 18.9056C15.3121 18.9056 15.4808 18.9431 15.5183 18.9009L15.5652 18.8447M15.5839 18.8822C15.5839 18.8822 15.509 18.9759 15.5371 19.0321C15.5605 19.0884 15.612 19.093 15.6027 19.1352C15.6027 19.1352 15.673 18.9806 15.6402 18.9384L15.5933 18.8822M15.4621 18.6104C15.4621 18.6104 15.3449 18.6479 15.3309 18.7041C15.3168 18.7697 15.359 18.8025 15.3262 18.8306C15.3262 18.8306 15.4715 18.7463 15.4715 18.69L15.4668 18.6198M15.5277 18.6526C15.5277 18.6526 15.5839 18.5448 15.5464 18.4932C15.509 18.4417 15.4574 18.4464 15.4668 18.3995C15.4668 18.3995 15.4199 18.5682 15.4668 18.6057L15.5136 18.6526M15.4152 18.6104C15.4152 18.6104 15.4152 18.4932 15.3637 18.4604C15.3121 18.4276 15.2653 18.4557 15.2512 18.4136C15.2512 18.4136 15.2793 18.5823 15.3356 18.601L15.4059 18.6151M15.612 18.8119C15.612 18.8119 15.7386 18.7697 15.7526 18.9056C15.7573 19.0462 15.7433 18.9993 15.7433 18.9993C15.7433 18.9993 15.6777 18.8494 15.6027 18.8259L15.612 18.8119Z" stroke="black" stroke-width="0.0234418" stroke-miterlimit="4.8"/>
<path d="M15.5793 18.8823L15.5934 18.9901H15.6121L15.5981 18.8823L15.645 18.6527H15.6215L15.5793 18.8823Z" fill="black"/>
<path d="M15.4669 18.8494L15.4575 18.8635C15.5184 18.8869 15.6028 18.8166 15.6074 18.8166L15.5981 18.8026C15.5981 18.8026 15.5137 18.8682 15.4669 18.8494ZM15.6215 18.7135L15.3403 18.573L15.3497 18.5495L15.6309 18.6901L15.6215 18.7135Z" fill="black"/>
<path d="M15.4201 18.6807L15.4014 18.6667L15.4576 18.6057L15.4763 18.6245L15.4201 18.6807ZM15.5138 18.6526L15.4576 18.5261L15.481 18.512L15.5419 18.6432L15.5138 18.6526ZM15.6029 18.8119V18.84C15.6778 18.8354 15.6966 18.8869 15.6966 18.8869L15.7247 18.8775C15.7247 18.8635 15.6919 18.8072 15.6029 18.8119Z" fill="black"/>
<path d="M16.9009 18.8727C16.9947 18.8212 17.0134 18.6338 17.0134 18.6338C16.9947 18.6994 16.8213 18.7697 16.8213 18.7697C16.9478 18.69 17.1024 18.3292 17.1024 18.3292C17.0603 18.4604 16.7276 18.5635 16.5073 18.6853C16.2871 18.8071 16.4042 19.1539 16.4042 19.1539C16.3015 19.0466 16.233 18.9112 16.2074 18.765C16.184 18.601 16.1184 18.54 15.9731 18.5213C15.8232 18.5025 15.7388 18.6666 15.7388 18.6666L15.5186 18.7837L15.7388 18.7931C15.7388 18.7931 15.8981 18.8446 15.8981 18.9712C15.8981 19.0977 15.7575 19.5944 15.9918 19.8756C16.1512 20.0677 16.7416 20.1802 16.7416 20.1802" fill="white"/>
<path d="M16.9009 18.8727C16.9947 18.8212 17.0134 18.6338 17.0134 18.6338C16.9947 18.6994 16.8213 18.7697 16.8213 18.7697C16.9478 18.69 17.1024 18.3292 17.1024 18.3292C17.0603 18.4604 16.7276 18.5635 16.5073 18.6853C16.2871 18.8071 16.4042 19.1539 16.4042 19.1539C16.3015 19.0466 16.233 18.9112 16.2074 18.765C16.184 18.601 16.1184 18.54 15.9731 18.5213C15.8232 18.5025 15.7388 18.6666 15.7388 18.6666L15.5186 18.7837L15.7388 18.7931C15.7388 18.7931 15.8981 18.8446 15.8981 18.9712C15.8981 19.0977 15.7575 19.5944 15.9918 19.8756C16.1512 20.0677 16.7416 20.1802 16.7416 20.1802" stroke="black" stroke-width="0.0328185" stroke-miterlimit="4.8"/>
<path d="M16.4702 19.2571C16.4702 19.2571 16.5171 19.0322 16.6577 19.0415C16.8076 19.0509 16.8498 18.8775 16.9388 18.8494C17.0232 18.8213 17.473 18.7041 17.5246 18.4839C17.5246 18.4839 17.4777 18.84 17.07 19.0181C17.07 19.0181 17.3981 18.9103 17.4402 18.8353C17.4402 18.8353 17.2903 19.154 16.9341 19.2055C16.9341 19.2055 17.2715 19.1774 17.3184 19.0884C17.3184 19.0884 17.1684 19.2899 16.9201 19.3133C16.9201 19.3133 17.1497 19.407 17.2106 19.3274C17.2106 19.3274 17.0841 19.4773 16.9295 19.4867L16.9716 19.5008C16.9716 19.5008 16.8217 19.6742 16.6623 19.557C16.4983 19.4398 16.4936 19.5851 16.4936 19.5851" fill="white"/>
<path d="M16.4702 19.2571C16.4702 19.2571 16.5171 19.0322 16.6577 19.0415C16.8076 19.0509 16.8498 18.8775 16.9388 18.8494C17.0232 18.8213 17.473 18.7041 17.5246 18.4839C17.5246 18.4839 17.4777 18.84 17.07 19.0181C17.07 19.0181 17.3981 18.9103 17.4402 18.8353C17.4402 18.8353 17.2903 19.154 16.9341 19.2055C16.9341 19.2055 17.2715 19.1774 17.3184 19.0884C17.3184 19.0884 17.1684 19.2899 16.9201 19.3133C16.9201 19.3133 17.1497 19.407 17.2106 19.3274C17.2106 19.3274 17.0841 19.4773 16.9295 19.4867L16.9716 19.5008C16.9716 19.5008 16.8217 19.6742 16.6623 19.557C16.4983 19.4398 16.4936 19.5851 16.4936 19.5851" stroke="black" stroke-width="0.0328185" stroke-miterlimit="4.8"/>
<path d="M16.8031 19.595C16.8031 19.595 16.9905 19.9137 17.014 20.0824C17.014 20.0824 17.3748 20.4854 17.5107 20.5041C17.5107 20.5041 17.4498 20.5322 17.3326 20.4338C17.3326 20.4338 17.4263 20.5369 17.4498 20.5416C17.4732 20.5463 17.3701 20.5322 17.3561 20.5041C17.3561 20.5041 17.3935 20.5651 17.4217 20.5744L17.3935 20.5651C17.3935 20.5651 17.3467 20.5604 17.3233 20.5416C17.2998 20.5229 17.3139 20.5885 17.3139 20.5885C17.3139 20.5885 17.2576 20.5744 17.2389 20.5557C17.2202 20.5369 17.2483 20.5979 17.2483 20.5979L17.2014 20.5838L17.1639 20.6072C17.1639 20.6072 17.1639 20.6307 17.1358 20.6119C17.1171 20.5932 17.0749 20.6119 17.0749 20.6119C17.0749 20.6119 17.0421 20.64 17.028 20.6213C17.014 20.6025 16.9577 20.6916 16.9577 20.6916L16.7188 20.1152" fill="white"/>
<path d="M16.8031 19.595C16.8031 19.595 16.9905 19.9137 17.014 20.0824C17.014 20.0824 17.3748 20.4854 17.5107 20.5041C17.5107 20.5041 17.4498 20.5322 17.3326 20.4338C17.3326 20.4338 17.4263 20.5369 17.4498 20.5416C17.4732 20.5463 17.3701 20.5322 17.3561 20.5041C17.3561 20.5041 17.3935 20.5651 17.4217 20.5744L17.3935 20.5651C17.3935 20.5651 17.3467 20.5604 17.3233 20.5416C17.2998 20.5229 17.3139 20.5885 17.3139 20.5885C17.3139 20.5885 17.2576 20.5744 17.2389 20.5557C17.2202 20.5369 17.2483 20.5979 17.2483 20.5979L17.2014 20.5838L17.1639 20.6072C17.1639 20.6072 17.1639 20.6307 17.1358 20.6119C17.1171 20.5932 17.0749 20.6119 17.0749 20.6119C17.0749 20.6119 17.0421 20.64 17.028 20.6213C17.014 20.6025 16.9577 20.6916 16.9577 20.6916L16.7188 20.1152" stroke="black" stroke-width="0.0328185" stroke-miterlimit="4.8"/>
<path d="M17.0279 20.6402L16.728 20.0638L16.7608 20.0498L17.0607 20.6215L17.0279 20.6402ZM17.2904 20.598L16.7749 20.0217L16.803 19.9982L17.3185 20.5746L17.2904 20.598ZM17.4122 20.5512L16.8217 20.0029L16.8452 19.9748L17.4403 20.5184L17.4122 20.5512Z" fill="black"/>
<path d="M15.9329 18.7033C15.9329 18.7033 15.8955 18.6347 15.8612 18.6628C15.83 18.6856 15.8114 18.695 15.8051 18.6908C15.8051 18.6908 15.8363 18.6908 15.8581 18.6752C15.8789 18.6545 15.9038 18.6649 15.9329 18.7064V18.7033ZM15.7272 18.6721L15.749 18.7157L15.7241 18.7874L15.7428 18.7936L15.7646 18.7157L15.7428 18.6659L15.7272 18.6721Z" fill="black"/>
<path d="M15.9261 18.6939C15.9261 18.6939 15.8951 18.7249 15.8579 18.7187L15.8176 18.7094H15.8734C15.8951 18.7094 15.923 18.7001 15.9261 18.6939Z" fill="black"/>
<path d="M15.917 18.7C15.917 18.7 15.8798 18.6628 15.855 18.6752C15.855 18.6752 15.8984 18.6597 15.9232 18.6969L15.917 18.7Z" fill="black"/>
<path d="M15.9105 18.6939C15.9105 18.6939 15.8702 18.7218 15.8268 18.6939L15.8237 18.6877H15.8299C15.8299 18.6877 15.8826 18.7094 15.9105 18.6939Z" fill="black"/>
<path d="M15.877 18.7006C15.884 18.7006 15.8897 18.695 15.8897 18.6879C15.8897 18.6809 15.884 18.6752 15.877 18.6752C15.8699 18.6752 15.8643 18.6809 15.8643 18.6879C15.8643 18.695 15.8699 18.7006 15.877 18.7006Z" fill="black"/>
<path d="M15.9124 19.7404C15.9124 19.7404 15.8796 19.8013 15.8984 19.8341C15.9171 19.8669 15.9874 19.8856 15.9921 19.9325C16.0046 19.9731 16.028 19.9856 16.0624 19.97L16.1092 19.9653C16.1092 19.9653 15.964 19.8856 15.9218 19.7638L15.9124 19.7404Z" fill="black"/>
<path d="M20.5725 18.5776C20.5725 18.5776 20.8303 18.2308 21.0646 18.3245C21.2989 18.4183 21.4488 18.4604 21.4488 18.4604C21.4488 18.4604 21.4535 18.6947 21.3317 18.6947C21.2051 18.6947 21.088 18.4604 20.9755 18.526C20.8631 18.5963 20.7693 18.6901 20.7647 18.7229C20.7553 18.7557 20.4647 18.765 20.5725 18.5823V18.5776Z" fill="#964B36" stroke="black" stroke-width="0.0140651" stroke-miterlimit="4.8"/>
<path d="M19.5736 20.2468C19.5736 20.2468 19.5036 20.3214 19.5363 20.34C19.5689 20.3587 19.6295 20.34 19.6295 20.312C19.6295 20.2841 19.5876 20.2374 19.5736 20.2468Z" fill="#964B36" stroke="black" stroke-width="0.0234418" stroke-miterlimit="4.8"/>
<path d="M19.5175 20.3218C19.5175 20.3218 19.3816 20.2421 19.2785 20.4249C19.1708 20.6076 19.0817 20.9029 19.0208 20.9403C18.9599 20.9778 19.6206 20.6498 19.63 20.5139C19.63 20.5139 19.6769 20.3358 19.6019 20.3358C19.5363 20.3405 19.5316 20.3499 19.5175 20.3171V20.3218Z" fill="#964B36" stroke="black" stroke-width="0.0234418" stroke-miterlimit="4.8"/>
<path d="M19.5365 20.3405C19.5365 20.3405 19.3958 20.3733 19.3677 20.5703C19.3396 20.7672 19.1474 20.8656 19.1333 20.875M21.4493 18.4558C21.4493 18.4558 21.2384 18.5308 21.2759 18.6762L21.4493 18.4558Z" fill="#964B36"/>
<path d="M19.5365 20.3405C19.5365 20.3405 19.3958 20.3733 19.3677 20.5703C19.3396 20.7672 19.1474 20.8656 19.1333 20.875M21.4493 18.4558C21.4493 18.4558 21.2384 18.5308 21.2759 18.6762" stroke="black" stroke-width="0.0140651" stroke-miterlimit="4.8"/>
<path d="M19.8364 18.8822C19.8364 18.8822 19.8411 18.3855 20.2488 18.4089C20.3285 18.4136 20.291 18.5026 20.291 18.5026C20.291 18.5026 20.38 18.4417 20.4175 18.5401C20.4175 18.5401 20.5487 18.4839 20.5581 18.6104C20.5581 18.6104 20.6987 18.5916 20.6846 18.7041C20.6846 18.7041 20.7783 18.6854 20.7783 18.765C20.7783 18.765 20.8861 18.7182 20.872 18.8306C20.872 18.8306 20.9939 18.751 20.9751 18.8962C20.9751 18.8962 21.1017 18.8119 21.1438 18.9572C21.1907 19.0977 21.0173 19.4117 20.8533 19.4914" fill="#FFF200"/>
<path d="M19.8364 18.8822C19.8364 18.8822 19.8411 18.3855 20.2488 18.4089C20.3285 18.4136 20.291 18.5026 20.291 18.5026C20.291 18.5026 20.38 18.4417 20.4175 18.5401C20.4175 18.5401 20.5487 18.4839 20.5581 18.6104C20.5581 18.6104 20.6987 18.5916 20.6846 18.7041C20.6846 18.7041 20.7783 18.6854 20.7783 18.765C20.7783 18.765 20.8861 18.7182 20.872 18.8306C20.872 18.8306 20.9939 18.751 20.9751 18.8962C20.9751 18.8962 21.1017 18.8119 21.1438 18.9572C21.1907 19.0977 21.0173 19.4117 20.8533 19.4914" stroke="black" stroke-width="0.0140651" stroke-miterlimit="4.8"/>
<path d="M20.966 18.915C20.966 18.915 21.0222 19.304 20.8019 19.4445L20.8113 19.4539C21.0362 19.3133 20.98 18.915 20.98 18.9103H20.966V18.915ZM20.7035 19.3368L20.7129 19.3461C20.8535 19.2102 20.8816 18.8494 20.8816 18.8307H20.8675C20.8675 18.8354 20.8394 19.2056 20.7035 19.3368ZM20.5723 19.2477H20.5864C20.6051 19.0275 20.7832 18.7697 20.7832 18.7697L20.7691 18.7604C20.7691 18.7604 20.5911 19.0228 20.5723 19.2477ZM20.4739 19.1821H20.488C20.5114 18.915 20.6895 18.7135 20.6895 18.7135L20.6801 18.6995C20.6801 18.6995 20.4973 18.9103 20.4739 19.1821ZM20.3333 19.0931H20.3427C20.3568 18.7744 20.5676 18.6198 20.5723 18.6151L20.563 18.6057C20.563 18.6057 20.3427 18.7651 20.3286 19.0931H20.3333ZM20.1974 19.0134H20.2162C20.2021 18.7229 20.4271 18.5448 20.4271 18.5448L20.4224 18.5354C20.4224 18.5354 20.1881 18.7182 20.1974 19.0134ZM19.9631 18.9103H19.9772C19.9865 18.8197 20.0221 18.7337 20.0795 18.663C20.1369 18.5922 20.2137 18.5398 20.3005 18.512L20.2958 18.498C20.2091 18.5308 20.1329 18.5865 20.0752 18.6591C20.0174 18.7316 19.9803 18.8184 19.9678 18.9103H19.9631Z" fill="black"/>
<path d="M19.5973 19.4869C19.5973 19.4869 19.5271 19.0277 19.8035 18.8777C19.8035 18.8777 19.8504 18.8683 19.8832 18.934C19.8832 18.934 20.0285 18.873 20.0331 18.9949C20.0331 18.9949 20.1034 18.9386 20.1269 19.0183C20.1269 19.0183 20.2815 18.9855 20.2487 19.1027C20.2487 19.1027 20.3799 19.0652 20.3705 19.1776C20.3705 19.1776 20.5018 19.1308 20.4783 19.2245C20.4783 19.2245 20.6189 19.1964 20.5861 19.3088C20.5861 19.3088 20.7548 19.2901 20.7033 19.4119C20.7033 19.4119 20.8298 19.3791 20.8017 19.4775C20.8017 19.4775 20.9704 19.5057 20.8954 19.6087C20.7738 19.7588 20.6157 19.875 20.4361 19.9461" fill="#00A651"/>
<path d="M19.5973 19.4869C19.5973 19.4869 19.5271 19.0277 19.8035 18.8777C19.8035 18.8777 19.8504 18.8683 19.8832 18.934C19.8832 18.934 20.0285 18.873 20.0331 18.9949C20.0331 18.9949 20.1034 18.9386 20.1269 19.0183C20.1269 19.0183 20.2815 18.9855 20.2487 19.1027C20.2487 19.1027 20.3799 19.0652 20.3705 19.1776C20.3705 19.1776 20.5018 19.1308 20.4783 19.2245C20.4783 19.2245 20.6189 19.1964 20.5861 19.3088C20.5861 19.3088 20.7548 19.2901 20.7033 19.4119C20.7033 19.4119 20.8298 19.3791 20.8017 19.4775C20.8017 19.4775 20.9704 19.5057 20.8954 19.6087C20.7738 19.7588 20.6157 19.875 20.4361 19.9461" stroke="black" stroke-width="0.0140651" stroke-miterlimit="4.8"/>
<path d="M19.4473 19.9558C19.4473 19.9558 19.3348 19.5669 19.5504 19.4684C19.5504 19.4684 19.5879 19.4591 19.5972 19.4966C19.5972 19.4966 19.6441 19.4356 19.6816 19.4919C19.6816 19.4919 19.7894 19.4403 19.8128 19.52C19.8128 19.52 19.8878 19.4591 19.9253 19.5481C19.9253 19.5481 19.9909 19.52 19.9909 19.595C19.9909 19.595 20.0846 19.5481 20.0846 19.6418C20.0846 19.6418 20.1783 19.6043 20.1596 19.7028C20.1596 19.7028 20.3002 19.7215 20.2533 19.7871C20.2533 19.7871 20.3798 19.8199 20.333 19.8715C20.333 19.8715 20.4689 19.8574 20.3939 19.9464C20.3939 19.9464 20.497 19.9136 20.4407 20.0261C20.3845 20.1386 20.2018 20.2604 20.0705 20.2791" fill="#00A651"/>
<path d="M19.4473 19.9558C19.4473 19.9558 19.3348 19.5669 19.5504 19.4684C19.5504 19.4684 19.5879 19.4591 19.5972 19.4966C19.5972 19.4966 19.6441 19.4356 19.6816 19.4919C19.6816 19.4919 19.7894 19.4403 19.8128 19.52C19.8128 19.52 19.8878 19.4591 19.9253 19.5481C19.9253 19.5481 19.9909 19.52 19.9909 19.595C19.9909 19.595 20.0846 19.5481 20.0846 19.6418C20.0846 19.6418 20.1783 19.6043 20.1596 19.7028C20.1596 19.7028 20.3002 19.7215 20.2533 19.7871C20.2533 19.7871 20.3798 19.8199 20.333 19.8715C20.333 19.8715 20.4689 19.8574 20.3939 19.9464C20.3939 19.9464 20.497 19.9136 20.4407 20.0261C20.3845 20.1386 20.2018 20.2604 20.0705 20.2791" stroke="black" stroke-width="0.0140651" stroke-miterlimit="4.8"/>
<path d="M19.5834 20.2559C19.5834 20.2559 19.3444 20.0216 19.4569 19.956C19.4569 19.956 19.5037 19.9701 19.5225 20.0216C19.5225 20.0216 19.5834 19.9373 19.6162 20.0216C19.6162 20.0216 19.7005 19.9935 19.7005 20.0544L19.7708 20.1013C19.7708 20.1013 19.8505 20.1013 19.8364 20.1482C19.8364 20.1482 19.9255 20.1388 19.9208 20.1856C19.9208 20.1856 19.9957 20.1856 19.9911 20.2372C19.9911 20.2372 20.1176 20.2606 20.0614 20.3262C20.0614 20.3262 19.8317 20.3731 19.6724 20.3075C19.6724 20.3075 19.5881 20.2794 19.5787 20.2606L19.5834 20.2559Z" fill="#00A651" stroke="black" stroke-width="0.0140651" stroke-miterlimit="4.8"/>
<path d="M20.4034 19.8712L20.4081 19.8853C20.5487 19.829 20.7971 19.4963 20.8064 19.4776L20.7971 19.4729C20.7971 19.4729 20.544 19.8196 20.4034 19.8712ZM20.3238 19.8103L20.3284 19.8243C20.4717 19.705 20.5993 19.5681 20.708 19.4166L20.6986 19.4073C20.6986 19.4073 20.4456 19.7447 20.3238 19.8103ZM20.2535 19.7822L20.2628 19.7915C20.3941 19.6837 20.5815 19.3229 20.5909 19.3135L20.5768 19.3042C20.5768 19.3089 20.38 19.6791 20.2488 19.7822H20.2535ZM20.1879 19.6978H20.2019C20.23 19.5197 20.4831 19.2386 20.4831 19.2292L20.4737 19.2245C20.4643 19.2339 20.216 19.5151 20.1925 19.6978H20.1879ZM19.6818 19.4822H19.6958C19.6724 19.2245 19.8833 18.9433 19.888 18.9387L19.8786 18.9293C19.8786 18.9293 19.6583 19.2198 19.6818 19.4822ZM19.813 19.501H19.827C19.7942 19.2948 20.0332 19.0043 20.0379 18.9996L20.0285 18.9902C20.0145 19.0043 19.7802 19.2901 19.813 19.5057V19.501ZM20.0192 19.576H20.0332C20.0332 19.3417 20.2535 19.1074 20.2535 19.1074L20.2441 19.098C20.2441 19.098 20.0145 19.337 20.0192 19.576ZM19.5271 19.9977H19.5412C19.4615 19.7822 19.6021 19.5057 19.6021 19.501L19.588 19.4963C19.588 19.4963 19.4475 19.7775 19.5271 20.0024V19.9977ZM19.6208 20.0165L19.6349 20.0118C19.5646 19.7915 19.6818 19.4963 19.6865 19.4963L19.6724 19.4869C19.6724 19.4869 19.5506 19.7915 19.6255 20.0165H19.6208ZM20.0098 20.2367L20.0145 20.2508C20.2488 20.1664 20.3987 19.9555 20.4034 19.9509L20.3894 19.9462C20.3894 19.9462 20.2394 20.1524 20.0145 20.2367H20.0098ZM19.9629 20.1852L19.9676 20.1992C20.1551 20.1149 20.3284 19.8806 20.3284 19.8806L20.3191 19.8712C20.3191 19.8712 20.1457 20.1055 19.9629 20.1852ZM19.9161 20.1664L19.9254 20.1805C20.0707 20.0727 20.2535 19.8056 20.2582 19.8056L20.2488 19.7962C20.2488 19.7962 20.0613 20.0633 19.9208 20.1711L19.9161 20.1664ZM19.6865 20.0305H19.7005C19.695 19.8539 19.737 19.6791 19.8223 19.5244L19.8083 19.5151C19.8083 19.5151 19.6536 19.7962 19.6865 20.0305ZM19.7895 20.0961L19.7989 20.1055C19.9489 19.9696 19.9957 19.6088 20.0004 19.59H19.9864C19.9864 19.5947 19.9348 19.9649 19.7895 20.0961Z" fill="black"/>
<path d="M19.8927 20.1383L19.8974 20.1524C20.1083 19.9977 20.1645 19.7025 20.1692 19.7025H20.1552C20.1552 19.7025 20.0989 19.9884 19.8927 20.1383ZM19.9162 19.5104V19.5479L19.7568 20.0634L19.7709 20.068L19.9302 19.5526C19.9068 19.2995 20.127 19.023 20.127 19.023L20.1177 19.0137C20.1177 19.0137 19.9162 19.2667 19.9162 19.5104Z" fill="black"/>
<path d="M20.0799 19.6323C20.0799 19.6417 20.033 19.9978 19.8409 20.129L19.8456 20.1384C20.0424 20.0025 20.094 19.6557 20.094 19.6417C20.1783 19.5386 20.3751 19.1824 20.3751 19.1824L20.3658 19.1731C20.3658 19.1778 20.1689 19.5292 20.0846 19.6323H20.0799ZM19.5176 20.0212C19.5176 20.0306 19.5504 20.2087 19.5879 20.2696L19.5972 20.2602C19.5644 20.1993 19.5316 20.0259 19.5316 20.0212H19.5176ZM19.6113 20.0212C19.6113 20.115 19.6113 20.2556 19.6019 20.2696H19.616C19.6254 20.2556 19.6207 20.0634 19.6207 20.0259H19.6066L19.6113 20.0212Z" fill="black"/>
<path d="M19.6162 20.2747L19.6303 20.2841C19.6912 20.1482 19.7099 20.0545 19.7099 20.0545H19.6959C19.6959 20.0545 19.6771 20.1482 19.6162 20.2747Z" fill="black"/>
<path d="M19.6301 20.2841L19.6348 20.2935C19.7032 20.2504 19.7532 20.1837 19.7754 20.106H19.7613C19.7613 20.106 19.7379 20.2185 19.6301 20.2794V20.2841ZM19.6489 20.2888V20.3029C19.7613 20.2935 19.8363 20.1576 19.841 20.1529L19.8316 20.1435C19.8316 20.1435 19.752 20.2841 19.6489 20.2888Z" fill="black"/>
<path d="M19.6631 20.2982V20.3123C19.7127 20.3104 19.7615 20.2986 19.8065 20.2777C19.8516 20.2568 19.892 20.2271 19.9255 20.1904L19.9161 20.1811C19.9161 20.1811 19.8318 20.2888 19.6631 20.2982Z" fill="black"/>
<path d="M19.6724 20.3029V20.317C19.6817 20.317 19.9067 20.3639 19.9863 20.2467L19.977 20.2373C19.902 20.3498 19.677 20.3029 19.6724 20.3029Z" fill="black"/>
<path d="M14.5435 11.9389V18.3338C14.5435 20.4249 18.3223 21.6673 18.3223 21.6673C18.3223 21.6673 22.1011 20.4249 22.1011 18.3385V11.9389H14.5435Z" stroke="black" stroke-width="0.131274" stroke-miterlimit="4.8"/>
<path d="M-0.000244141 0.0305786H12.0019V12.0328H-0.000244141V0.0305786Z" fill="#012169"/>
<path d="M12.0019 0.0305786V1.53085L7.548 6.03167L12.0019 10.4153V12.0328H10.4313L5.95396 7.62571L1.5938 12.0328H-0.000244141V10.4387L4.35992 6.05511L-0.000244141 1.76527V0.0305786H1.45315L5.95396 4.43763L10.3141 0.0305786H12.0019Z" fill="white"/>
<path d="M4.31304 7.62571L4.5709 8.42273L0.98431 12.0328H-0.000244141V11.9624L4.31304 7.62571ZM7.21982 7.34441L8.48567 7.53194L12.0019 10.9779V12.0328L7.21982 7.34441ZM12.0019 0.0305786L7.50112 4.62516L7.40735 3.59373L10.9236 0.0305786H12.0019ZM-0.000244141 0.0540204L4.52402 4.48451L3.14095 4.29698L-0.000244141 1.17923V0.0540204Z" fill="#C8102E"/>
<path d="M4.12551 0.0305786V12.0328H7.87619V0.0305786H4.12551ZM-0.000244141 4.15633V7.90701H12.0019V4.15633H-0.000244141Z" fill="white"/>
<path d="M-0.000244141 4.90647V7.15688H12.0019V4.90647H-0.000244141ZM4.87564 0.0305786V12.0328H7.12605V0.0305786H4.87564Z" fill="#C8102E"/>
</g>
<defs>
<clipPath id="clip0_720_53444">
<rect width="24.0044" height="24.0044" fill="white" transform="translate(0 0.0305481)"/>
</clipPath>
</defs>
</svg>
