<svg width="25" height="25" viewBox="0 0 25 25" fill="none" xmlns="http://www.w3.org/2000/svg">
<g clip-path="url(#clip0_720_53356)">
<mask id="mask0_720_53356" style="mask-type:luminance" maskUnits="userSpaceOnUse" x="0" y="0" width="25" height="25">
<path d="M0.0183105 0.0306396H24.0227V24.035H0.0183105V0.0306396Z" fill="white"/>
</mask>
<g mask="url(#mask0_720_53356)">
<path d="M0.0178223 0.0305786H24.0222V24.0349H0.0178223V0.0305786Z" fill="white"/>
<path fill-rule="evenodd" clip-rule="evenodd" d="M9.88234 17.0727C9.88234 17.0727 10.4262 16.632 10.9513 16.632C11.4764 16.632 11.6264 16.9977 11.9921 17.0259C12.3578 17.054 12.6672 16.6602 13.1173 16.6508C13.5768 16.632 14.1487 16.9696 14.1487 16.9696L12.1562 17.565L9.88234 17.068V17.0727ZM8.74308 16.4257L15.5084 16.4586C15.5084 16.4586 14.9223 15.8256 14.2331 15.8116C13.5439 15.7975 13.7362 16.1069 13.2111 16.1491C12.686 16.1913 12.55 15.8256 12.0671 15.8397C11.5842 15.8538 11.3029 16.1491 10.9419 16.1632C10.5715 16.1773 10.1027 15.7975 9.82608 15.8116C9.54947 15.8256 8.55085 16.2523 8.55085 16.2523L8.74308 16.4257ZM7.87573 15.6193L16.2257 15.6522C16.3616 15.4599 15.8178 15.0052 15.3208 14.963C14.9083 14.977 14.6176 15.3849 14.28 15.399C13.9425 15.4131 13.5627 14.977 13.1783 14.9911C12.8032 15.0052 12.4047 15.4037 12.0249 15.4037C11.6452 15.4037 11.3639 14.977 10.881 14.977C10.3981 14.977 10.1777 15.4459 9.81202 15.4177C9.44164 15.3849 9.12283 14.9489 8.77121 14.9489C8.41958 14.9489 7.83353 15.474 7.71633 15.4459C7.59912 15.4177 7.86166 15.6662 7.87573 15.6193Z" fill="#083D9C" stroke="#083D9C" stroke-width="0.125023"/>
<path fill-rule="evenodd" clip-rule="evenodd" d="M11.0824 10.9779L13.0046 11.4936V8.75092C12.1232 8.7978 11.3919 7.08187 12.9437 6.96466C11.4247 6.73962 11.2465 7.13813 11.0684 7.56008L11.0824 10.9779Z" fill="#FF0000" stroke="black" stroke-width="0.117209" stroke-linejoin="round"/>
<path fill-rule="evenodd" clip-rule="evenodd" d="M9.86816 12.9705L14.2049 12.9845L9.86816 12.9705Z" fill="#083D9C"/>
<path d="M9.86816 12.9705L14.2049 12.9845" stroke="#083D9C" stroke-width="0.234418" stroke-linecap="round"/>
<path d="M10.0745 11.9296L10.5902 12.6188M10.0745 12.6188L10.6324 11.9437M10.3698 11.8828L10.3511 12.3094M10.8949 11.9296L11.4106 12.6188M10.8949 12.6188L11.4528 11.9437M11.1903 11.8828L11.1715 12.3094M11.7341 11.9296L12.2405 12.6188M11.7295 12.6188L12.2874 11.9437M12.0248 11.8828L12.0108 12.3094M12.5921 11.9296L13.1078 12.6188M12.5921 12.6188L13.1547 11.9437M12.8875 11.8828L12.8734 12.3094M13.4313 11.9296L13.9424 12.6188M13.4266 12.6188L13.9892 11.9437M13.722 11.8828L13.7079 12.3094" stroke="black" stroke-width="0.187534" stroke-linecap="round"/>
<path fill-rule="evenodd" clip-rule="evenodd" d="M6.95669 13.0173L8.79921 13.0267V11.8687L6.68945 11.7702L6.952 13.0126L6.95669 13.0173ZM6.86292 11.4186L8.83203 11.6061L8.81328 10.7857L6.89105 10.0262L6.86292 11.4186ZM7.26143 9.77768L8.77108 10.5091L8.98675 10.284C8.98675 10.284 8.8461 10.1903 8.85547 10.0965C8.85547 10.0121 8.99612 9.99804 8.99612 9.89958C8.99612 9.8105 8.84141 9.80112 8.84141 9.71205C8.82734 9.61828 8.9633 9.51045 8.9633 9.51045L7.59899 8.32898L7.26143 9.77768ZM17.1632 13.0267H15.2176L15.2035 11.9015L17.3414 11.7374L17.1632 13.0267ZM15.2316 11.6343L17.5477 11.353L17.046 10.0262L15.2176 10.7997L15.2316 11.6343ZM16.9194 9.66047L15.241 10.5325C15.2176 10.4387 15.1941 10.345 15.0816 10.27C15.0816 10.27 15.1847 10.209 15.1847 10.1059C15.1847 10.0027 15.0488 9.98866 15.0488 9.9324C15.0488 9.87614 15.1707 9.81988 15.1801 9.6886C15.166 9.59484 15.0488 9.47294 15.0722 9.44481L16.3709 8.45088L16.9101 9.65579L16.9194 9.66047ZM13.2907 11.6108L14.1299 11.5733L14.1439 11.2358L13.2907 11.6108ZM10.7449 11.5827L9.86347 11.5639V11.2123L10.7449 11.5827ZM10.7402 11.4796L9.86347 11.0295V10.4434C9.86347 10.4434 9.76032 10.4575 9.77439 10.3403C9.77908 10.0965 10.4214 10.7857 10.7449 11.0107L10.7402 11.4796ZM13.2907 11.428V11.0482C13.2907 11.0482 14.0783 10.3356 14.2471 10.2043C14.2471 10.3497 14.1533 10.4622 14.1533 10.4622V11.0248L13.2907 11.428ZM8.17566 8.22115L9.06176 9.2057C9.0852 9.11194 9.2868 9.10256 9.49309 9.11194C9.69938 9.13069 9.86347 9.10256 9.86347 9.25259C9.86347 9.39324 9.75564 9.37448 9.75564 9.47763C9.75564 9.58077 9.91504 9.5714 9.91504 9.70267C9.91504 9.83394 9.80252 9.80581 9.79783 9.90896C9.79783 9.99335 9.91973 10.0027 9.91973 10.0027L10.7496 10.8044V9.94177L9.03832 7.25535L8.17566 8.22115ZM9.53528 7.20378L10.698 9.58077C10.698 9.58077 10.7121 7.38662 10.9043 7.26941L10.5761 6.6693L9.53528 7.20378ZM14.5846 7.29754L13.2907 9.6089V8.63372C13.2907 8.63372 13.3985 8.46963 13.2297 8.4837C13.0609 8.49776 12.8499 8.46963 12.8499 8.46963L13.3704 6.64117L14.5846 7.29754ZM15.9161 8.28679C15.9021 8.31492 15.0394 9.18695 15.0394 9.18695C15.0019 9.08381 14.7394 9.13538 14.4956 9.13538C14.2471 9.13538 14.2143 9.21508 14.2236 9.27603C14.2518 9.4495 14.3362 9.32291 14.3362 9.48232C14.3362 9.63703 14.2143 9.57608 14.2049 9.69329C14.2143 9.82457 14.3924 9.79175 14.2893 9.89489L13.2907 10.8513V9.94177L15.1472 7.05844L15.9161 8.28679Z" fill="#EF7D08"/>
<path fill-rule="evenodd" clip-rule="evenodd" d="M11.509 13.4534C11.0917 14.1425 9.9759 13.9409 9.71804 13.4534C9.63834 13.4346 9.68522 10.4762 9.68522 10.4762C9.68522 10.4762 9.55863 10.42 9.55394 10.3309C9.54926 10.2418 9.72273 10.2325 9.72273 10.1152C9.72273 9.99804 9.54457 10.0402 9.53988 9.92771C9.53988 9.8105 9.7321 9.82457 9.72741 9.72142C9.71335 9.60422 9.51175 9.62297 9.50237 9.51045C9.493 9.42606 9.64302 9.35104 9.68991 9.31354H9.22576C9.00072 9.31354 9.23045 9.36511 9.22576 9.50107C9.22576 9.58546 9.11324 9.64172 9.10386 9.71674C9.10386 9.79175 9.26327 9.84332 9.26796 9.93709C9.26796 10.0168 9.10386 10.0262 9.10855 10.1012C9.12262 10.2278 9.25389 10.2559 9.25389 10.3356C9.25389 10.4106 9.07104 10.4434 9.07104 10.5044L9.09917 13.5424C9.38048 15.0333 11.0402 15.4084 11.509 13.4487V13.4534ZM12.6014 13.4534C13.0233 14.1425 14.1345 13.9409 14.397 13.4534C14.4767 13.4346 14.4298 10.4762 14.4298 10.4762C14.4298 10.4762 14.5564 10.42 14.5611 10.3309C14.5658 10.2418 14.4017 10.2325 14.4017 10.1152C14.4017 9.99804 14.5705 10.0402 14.5752 9.92771C14.5752 9.8105 14.397 9.81988 14.4064 9.71205C14.4158 9.59484 14.5517 9.6089 14.5611 9.50107C14.5658 9.4073 14.472 9.35104 14.4298 9.31354H14.8846C15.1143 9.31354 14.8846 9.36511 14.8846 9.50107C14.8846 9.58546 15.0018 9.64172 15.0112 9.71674C15.0112 9.79175 14.8471 9.84332 14.8471 9.93709C14.8471 10.0168 15.0112 10.0262 15.0018 10.1012C14.9924 10.2278 14.8612 10.2559 14.8612 10.3356C14.8612 10.4106 15.044 10.4434 15.044 10.5044C15.0346 10.6263 15.0159 13.5424 15.0159 13.5424C14.7299 15.0333 13.0749 15.4084 12.6014 13.4487V13.4534Z" fill="#FF0000" stroke="black" stroke-width="0.117209" stroke-linejoin="round"/>
<path fill-rule="evenodd" clip-rule="evenodd" d="M11.106 14.813H12.972C12.9861 14.7989 12.55 14.166 12.0343 14.2129C11.4623 14.2269 11.0732 14.813 11.106 14.813ZM17.0509 14.7661H14.5004C14.5004 14.7661 14.8286 14.5739 14.9223 14.391C15.0864 14.4848 15.0395 14.5739 15.3677 14.5879C15.6959 14.602 16.0147 14.2129 16.3288 14.2269C16.643 14.241 17.0509 14.7802 17.0509 14.7661ZM6.99902 14.7661H9.54949C9.54949 14.7661 9.2213 14.5739 9.12754 14.391C8.96344 14.4848 9.01033 14.5739 8.67745 14.5879C8.34458 14.602 8.03515 14.2129 7.71634 14.2269C7.40222 14.241 6.99902 14.7802 6.99902 14.7661ZM7.18656 13.9691L9.00564 13.9784C9.00564 13.9784 8.88843 13.73 8.87436 13.4252C8.40553 13.2611 8.02109 13.7768 7.68821 13.7909C7.35534 13.805 6.99902 13.4252 6.99902 13.4252L7.18656 13.9644V13.9691ZM16.8914 13.9691L15.0724 13.9784C15.0724 13.9784 15.1896 13.73 15.2036 13.4252C15.6725 13.2611 16.0522 13.7768 16.3898 13.7909C16.7274 13.805 17.079 13.4252 17.079 13.4252L16.8914 13.9644V13.9691ZM11.5702 13.9784L12.4938 13.9503C12.4938 13.9503 12.5078 13.669 12.0249 13.669C11.542 13.669 11.5842 13.9972 11.5702 13.9784ZM11.0076 13.5846C11.1717 13.4955 11.3217 13.4065 11.4201 13.2049L10.7919 13.2189C10.7919 13.2189 10.5012 13.3924 10.3512 13.5846H11.0076ZM13.047 13.5846C12.872 13.5079 12.7281 13.374 12.6391 13.2049L13.2674 13.2189C13.2674 13.2189 13.5627 13.3924 13.7081 13.5846H13.047Z" fill="#083D9C" stroke="#083D9C" stroke-width="0.125023"/>
<path fill-rule="evenodd" clip-rule="evenodd" d="M-5.98315 18.0339H30.0234V24.0349H-5.98315V18.0339ZM-5.98315 0.0305786H30.0234V6.03167H-5.98315V0.0305786Z" fill="#DE2010"/>
</g>
</g>
<defs>
<clipPath id="clip0_720_53356">
<rect width="24.0044" height="24.0044" fill="white" transform="translate(0.0175781 0.0305481)"/>
</clipPath>
</defs>
</svg>
