<svg width="25" height="25" viewBox="0 0 25 25" fill="none" xmlns="http://www.w3.org/2000/svg">
<g clip-path="url(#clip0_720_53458)">
<path d="M0.0310059 0.0305176H24.0354V24.0349H0.0310059V0.0305176Z" fill="white"/>
<path d="M9.64185 0.0305176H14.424V24.0349H9.64185V0.0305176Z" fill="#FF0000"/>
<path d="M0.0307617 9.64163H24.0351V14.4238H0.0307617V9.64163Z" fill="#FF0000"/>
<path fill-rule="evenodd" clip-rule="evenodd" d="M5.38017 18.6855C5.43174 17.8416 5.58177 17.1196 5.58177 17.1196C5.58177 17.1196 5.0848 17.1664 4.83632 17.1664C4.58784 17.1664 4.09087 17.1196 4.09087 17.1196C4.09087 17.1196 4.2409 17.8369 4.29247 18.6855C3.44857 18.6339 2.72656 18.4839 2.72656 18.4839C2.72656 18.4839 2.77345 18.8589 2.77345 19.2293C2.77345 19.5997 2.72656 19.9748 2.72656 19.9748C2.72656 19.9748 3.44388 19.8247 4.29247 19.7732C4.2409 20.6171 4.09087 21.3391 4.09087 21.3391C4.09087 21.3391 4.46594 21.2922 4.83632 21.2922C5.2067 21.2922 5.58177 21.3391 5.58177 21.3391C5.58177 21.3391 5.43174 20.6218 5.38017 19.7732C6.22407 19.8247 6.94608 19.9748 6.94608 19.9748C6.94608 19.9748 6.8992 19.4778 6.8992 19.2293C6.8992 18.9808 6.94608 18.4839 6.94608 18.4839C6.94608 18.4839 6.22876 18.6339 5.38017 18.6855ZM19.7734 4.29223C19.825 3.44832 19.975 2.72632 19.975 2.72632C19.975 2.72632 19.478 2.7732 19.2296 2.7732C18.9811 2.7732 18.4841 2.72632 18.4841 2.72632C18.4841 2.72632 18.6341 3.44832 18.6857 4.29223C17.8418 4.24066 17.1198 4.09063 17.1198 4.09063C17.1198 4.09063 17.1667 4.4657 17.1667 4.83608C17.1667 5.20646 17.1198 5.58153 17.1198 5.58153C17.1198 5.58153 17.8371 5.4315 18.6857 5.37993C18.6341 6.22383 18.4841 6.94584 18.4841 6.94584C18.4841 6.94584 18.8592 6.89895 19.2296 6.89895C19.5999 6.89895 19.975 6.94584 19.975 6.94584C19.975 6.94584 19.825 6.22852 19.7734 5.37993C20.6173 5.4315 21.3393 5.58153 21.3393 5.58153C21.3393 5.58153 21.2924 5.08456 21.2924 4.83608C21.2924 4.59228 21.3393 4.09063 21.3393 4.09063C21.3393 4.09063 20.6173 4.24066 19.7734 4.29223ZM5.38017 4.29223C5.43174 3.44832 5.58177 2.72632 5.58177 2.72632C5.58177 2.72632 5.0848 2.7732 4.83632 2.7732C4.58784 2.7732 4.09087 2.72632 4.09087 2.72632C4.09087 2.72632 4.2409 3.44832 4.29247 4.29223C3.44857 4.24066 2.72656 4.09063 2.72656 4.09063C2.72656 4.09063 2.77345 4.4657 2.77345 4.83608C2.77345 5.20646 2.72656 5.58153 2.72656 5.58153C2.72656 5.58153 3.44388 5.4315 4.29247 5.37993C4.2409 6.22383 4.09087 6.94584 4.09087 6.94584C4.09087 6.94584 4.46594 6.89895 4.83632 6.89895C5.2067 6.89895 5.58177 6.94584 5.58177 6.94584C5.58177 6.94584 5.43174 6.22852 5.38017 5.37993C6.22407 5.4315 6.94608 5.58153 6.94608 5.58153C6.94608 5.58153 6.8992 5.08456 6.8992 4.83608C6.8992 4.59228 6.94608 4.09063 6.94608 4.09063C6.94608 4.09063 6.22876 4.24066 5.38017 4.29223ZM19.7734 18.6855C19.825 17.8416 19.975 17.1196 19.975 17.1196C19.975 17.1196 19.478 17.1664 19.2296 17.1664C18.9811 17.1664 18.4841 17.1196 18.4841 17.1196C18.4841 17.1196 18.6341 17.8369 18.6857 18.6855C17.8418 18.6339 17.1198 18.4839 17.1198 18.4839C17.1198 18.4839 17.1667 18.8589 17.1667 19.2293C17.1667 19.5997 17.1198 19.9748 17.1198 19.9748C17.1198 19.9748 17.8371 19.8247 18.6857 19.7732C18.6341 20.6171 18.4841 21.3391 18.4841 21.3391C18.4841 21.3391 18.8592 21.2922 19.2296 21.2922C19.5999 21.2922 19.975 21.3391 19.975 21.3391C19.975 21.3391 19.825 20.6218 19.7734 19.7732C20.6173 19.8247 21.3393 19.9748 21.3393 19.9748C21.3393 19.9748 21.2924 19.4778 21.2924 19.2293C21.2924 18.9808 21.3393 18.4839 21.3393 18.4839C21.3393 18.4839 20.6173 18.6339 19.7734 18.6855Z" fill="#FF0000"/>
</g>
<defs>
<clipPath id="clip0_720_53458">
<rect width="24.0044" height="24.0044" fill="white" transform="translate(0.0305176 0.0305481)"/>
</clipPath>
</defs>
</svg>
