<svg width="24" height="25" viewBox="0 0 24 25" fill="none" xmlns="http://www.w3.org/2000/svg">
<g clip-path="url(#clip0_720_53418)">
<path d="M0 0.0349426H24.0044V24.0393H0V0.0349426Z" fill="#DA000C"/>
<path d="M0 0.0349426H24.0044V16.116H0V0.0349426Z" fill="white"/>
<path d="M6.43164 10.94H12.4327V15.0657H6.43164V10.94Z" fill="#000001"/>
<path d="M9.54471 14.4656H5.88779L5.07202 15.0001V15.5627H9.54471M8.01631 12.0933C8.5414 12.0933 8.97273 12.534 8.97273 13.0779V14.4562H9.65723V9.20529H5.87842V14.4562H7.05988V13.0779C7.05988 12.5528 7.48183 12.0933 8.01631 12.0933Z" fill="#DA000C"/>
<path d="M9.54471 14.4656H5.88779L5.07202 15.0001V15.5627H9.54471M8.01631 12.0933C8.5414 12.0933 8.97273 12.534 8.97273 13.0779V14.4562H9.65723V9.20529H5.87842V14.4562H7.05988V13.0779C7.05988 12.5528 7.48183 12.0933 8.01631 12.0933Z" stroke="black" stroke-width="0.0937671" stroke-linecap="square"/>
<path d="M7.17236 5.66089H8.91643V8.84897H7.17236V5.66089Z" fill="#000001"/>
<path d="M8.90719 8.35201H7.38817V7.80816H6.27234V8.35201H5.5222V7.80816H5.06274V8.78334H8.90719M5.51283 8.78334H8.79467V9.20529H5.51283V8.78334ZM6.82557 4.49819V7.81754H7.38817V6.908C7.38817 6.57044 7.62258 6.28914 7.96015 6.27038H7.99765C8.16527 6.27511 8.32472 6.3438 8.44328 6.46237C8.56185 6.58094 8.63055 6.74039 8.63527 6.908V7.81754H9.16974V4.49819H6.82557ZM6.6099 4.0481V4.49819H9.35728V4.0481H6.6099ZM6.26296 3.19482V4.0481H9.54481V3.19482H9.04784V3.63553H8.42898V3.19482H7.49131V3.63553H6.88182V3.19482H6.26296ZM5.06274 15.0001H9.56356H5.06274ZM12.4703 14.7375H9.43229L8.51337 15.1783V15.8346H12.4703" fill="#DA000C"/>
<path d="M8.90719 8.35201H7.38817V7.80816H6.27234V8.35201H5.5222V7.80816H5.06274V8.78334H8.90719M5.06274 15.0001H9.56356M12.4703 14.7376H9.43229L8.51337 15.1783V15.8346H12.4703M5.51283 8.78334H8.79467V9.20529H5.51283V8.78334ZM6.82557 4.49819V7.81754H7.38817V6.908C7.38817 6.57044 7.62258 6.28914 7.96015 6.27038H7.99765C8.16527 6.27511 8.32472 6.3438 8.44328 6.46237C8.56185 6.58094 8.63055 6.74039 8.63527 6.908V7.81754H9.16974V4.49819H6.82557ZM6.6099 4.0481V4.49819H9.35728V4.0481H6.6099ZM6.26296 3.19482V4.0481H9.54481V3.19482H9.04784V3.63553H8.42898V3.19482H7.49131V3.63553H6.88182V3.19482H6.26296Z" stroke="black" stroke-width="0.0937671" stroke-linecap="square"/>
<path d="M8.51318 15.1783H12.5639H8.51318Z" fill="#DA000C"/>
<path d="M8.51318 15.1783H12.5639" stroke="black" stroke-width="0.0937671"/>
<path d="M17.5715 10.94H11.5704V15.0657H17.5715V10.94Z" fill="#000001"/>
<path d="M14.4587 14.4656H18.1156L18.9314 15.0001V15.5627H14.4587M15.9871 12.0933C15.462 12.0933 15.0307 12.534 15.0307 13.0779V14.4562H14.3462V9.20529H18.125V14.4562H16.9435V13.0779C16.9435 12.5528 16.5216 12.0933 15.9871 12.0933Z" fill="#DA000C"/>
<path d="M14.4587 14.4656H18.1156L18.9314 15.0001V15.5627H14.4587M15.9871 12.0933C15.462 12.0933 15.0307 12.534 15.0307 13.0779V14.4562H14.3462V9.20529H18.125V14.4562H16.9435V13.0779C16.9435 12.5528 16.5216 12.0933 15.9871 12.0933Z" stroke="black" stroke-width="0.0937671" stroke-linecap="square"/>
<path d="M16.8308 5.66089H15.0867V8.84897H16.8308V5.66089Z" fill="#000001"/>
<path d="M15.0962 8.35201H16.6153V7.80816H17.7311V8.35201H18.4812V7.80816H18.9407V8.78334H15.0962M18.4906 8.78334H15.2087V9.20529H18.4906V8.78334ZM17.1779 4.49819V7.81754H16.6153V6.908C16.6153 6.57044 16.3808 6.28914 16.0433 6.27038H16.0058C15.8382 6.27511 15.6787 6.3438 15.5601 6.46237C15.4416 6.58094 15.3729 6.74039 15.3681 6.908V7.81754H14.8337V4.49819H17.1779ZM17.3935 4.0481V4.49819H14.6461V4.0481H17.3935ZM17.7405 3.19482V4.0481H14.4586V3.19482H14.9556V3.63553H15.5744V3.19482H16.5121V3.63553H17.1216V3.19482H17.7405ZM18.9407 15.0001H14.4399H18.9407ZM11.5331 14.7375H14.5711L15.49 15.1783V15.8346H11.5331" fill="#DA000C"/>
<path d="M15.0962 8.35201H16.6153V7.80816H17.7311V8.35201H18.4812V7.80816H18.9407V8.78334H15.0962M18.9407 15.0001H14.4399M11.5331 14.7376H14.5711L15.49 15.1783V15.8346H11.5331M18.4906 8.78334H15.2087V9.20529H18.4906V8.78334ZM17.1779 4.49819V7.81754H16.6153V6.908C16.6153 6.57044 16.3808 6.28914 16.0433 6.27038H16.0058C15.8382 6.27511 15.6787 6.3438 15.5601 6.46237C15.4416 6.58094 15.3729 6.74039 15.3681 6.908V7.81754H14.8337V4.49819H17.1779ZM17.3935 4.0481V4.49819H14.6461V4.0481H17.3935ZM17.7405 3.19482V4.0481H14.4586V3.19482H14.9556V3.63553H15.5744V3.19482H16.5121V3.63553H17.1216V3.19482H17.7405Z" stroke="black" stroke-width="0.0937671" stroke-linecap="square"/>
<path d="M15.49 15.1783H11.4393H15.49Z" fill="#DA000C"/>
<path d="M15.49 15.1783H11.4393" stroke="black" stroke-width="0.0937671"/>
<path d="M13.6228 14.0999C13.3791 14.1999 13.1448 14.3186 12.9199 14.4561C12.6283 14.6225 12.3494 14.8105 12.0858 15.0184C11.9858 15.0809 11.9015 15.1559 11.8327 15.2433C11.739 15.3183 11.6453 15.4308 11.664 15.5714C11.664 15.6276 11.739 15.4964 11.7952 15.487C11.8387 15.4616 11.8868 15.4452 11.9367 15.4387C11.9866 15.4323 12.0373 15.436 12.0858 15.4495C12.217 15.3246 12.3544 15.2184 12.4982 15.1309C12.88 14.8542 13.2881 14.6156 13.7165 14.4186L13.6228 14.0999Z" fill="#F8D80E" stroke="black" stroke-width="0.0750137" stroke-linecap="round"/>
<path d="M12.4143 14.7936V15.1591V14.7936ZM12.6392 14.6343V14.9998V14.6343ZM12.8642 14.4937V14.8498V14.4937ZM13.0985 14.3531V14.728V14.3531Z" fill="#F8D80E"/>
<path d="M12.4143 14.7936V15.1591M12.6392 14.6343V14.9998M12.8642 14.4937V14.8498M13.0985 14.3531V14.728" stroke="black" stroke-width="0.0937671" stroke-linecap="round"/>
<path d="M10.3982 14.1187L10.2856 14.4282C10.8037 14.6272 11.3001 14.8785 11.7672 15.1783C11.9359 15.2783 12.086 15.4002 12.2172 15.544C12.2454 15.619 12.1704 15.6847 12.0953 15.6565C12.0297 15.6378 11.9547 15.6096 11.8891 15.6565C11.7859 15.7034 11.6922 15.8628 11.8422 15.9097C12.0672 16.0597 12.4142 15.9941 12.5173 15.7409C12.5736 15.6096 12.5829 15.4409 12.4704 15.3283C12.2829 15.1127 12.0203 14.9533 11.7765 14.7939C11.3388 14.527 10.8774 14.301 10.3982 14.1187Z" fill="#F8D80E" stroke="black" stroke-width="0.0750137" stroke-linecap="round"/>
<path d="M11.8135 14.8498L11.7854 15.1685L11.8135 14.8498ZM12.0759 15.0091L12.0009 15.3184L12.0759 15.0091ZM12.3571 15.2247L12.1884 15.4684L12.3571 15.2247ZM12.4414 15.8058L12.1978 15.6746L12.4414 15.8058ZM12.5164 15.5433L12.2353 15.5715L12.5164 15.5433ZM12.1603 15.9463L12.1415 15.7027L12.1603 15.9463ZM12.0478 15.6746L11.8229 15.8433L12.0478 15.6746ZM10.9419 14.3718V14.6624V14.3718ZM11.5323 14.6905V15.0185V14.6905ZM11.2324 14.5312V14.8404V14.5312Z" fill="#F8D80E"/>
<path d="M11.8135 14.8498L11.7854 15.1685M12.0759 15.0091L12.0009 15.3184M12.3571 15.2247L12.1884 15.4684M12.4414 15.8058L12.1978 15.6746M12.5164 15.5433L12.2353 15.5715M12.1603 15.9463L12.1415 15.7027M12.0478 15.6746L11.8229 15.8433M10.9419 14.3718V14.6624M11.5323 14.6905V15.0185M11.2324 14.5312V14.8404" stroke="black" stroke-width="0.0937671" stroke-linecap="round"/>
<path d="M10.1077 21.3762V22.126H10.5763V21.7511H11.223V22.126H11.729V21.3762H10.1077ZM10.1077 22.4072V23.1569H11.7197V22.4072H11.2136V22.782H10.5669V22.4072H10.1077Z" fill="#F8D80E" stroke="black" stroke-width="0.0937671"/>
<path d="M11.7207 18.1975H12.1895V23.636H11.7207V18.1975Z" fill="#F8D80E" stroke="black" stroke-width="0.0937671"/>
<path d="M11.7206 18.6664H12.1894V23.3547H11.7206V18.6664ZM11.9644 16.8567L12.9583 17.438L11.9644 18.0194L10.9611 17.438L11.9644 16.8567ZM10.6235 17.2317H10.3704V17.6443H10.6235L11.9644 18.4226L13.2959 17.6443H13.5584V17.2317H13.2959L11.9644 16.4535L10.6235 17.2317Z" fill="#F8D80E" stroke="black" stroke-width="0.0937671"/>
<path d="M11.9361 15.4408C11.827 15.4629 11.7294 15.5232 11.6607 15.6108C11.592 15.6984 11.5567 15.8075 11.5612 15.9187V16.9684C11.5698 17.0799 11.618 17.1846 11.697 17.2637C11.7761 17.3427 11.8808 17.3909 11.9923 17.3995C12.0848 17.4052 12.177 17.3833 12.257 17.3366C12.3371 17.2899 12.4015 17.2205 12.4422 17.1371L12.2828 17.0434C12.2595 17.0974 12.2198 17.1427 12.1694 17.173C12.1189 17.2032 12.0603 17.2169 12.0017 17.2121C11.8517 17.2121 11.7299 17.0621 11.7486 16.9216V15.8719C11.7577 15.804 11.7914 15.7418 11.8431 15.6969C11.8949 15.652 11.9613 15.6276 12.0298 15.6282C12.086 15.6095 12.1704 15.6938 12.2078 15.6282C12.2641 15.5439 12.1704 15.4876 12.1141 15.4408H11.9361ZM12.4796 15.8063C12.4338 15.8704 12.3726 15.922 12.3016 15.9562V16.6591L12.489 16.7622V15.8063H12.4796Z" fill="#F8D80E" stroke="black" stroke-width="0.0937671"/>
<path d="M10.5767 3.63553H13.324V8.62394H10.5767V3.63553Z" fill="#000001"/>
<path d="M10.3892 3.63554V7.80817H11.2612V6.57045C11.2612 6.28915 11.4488 5.88595 12.002 5.88595C12.5552 5.88595 12.7521 6.28915 12.7521 6.57045V7.81755H13.6148V3.63554H10.3892ZM11.8707 4.10437H12.1333V5.52963H11.8707V4.10437ZM11.0924 4.38567H11.3737V5.42649H11.0924V4.38567ZM12.6396 4.38567H12.9115V5.42649H12.6302L12.6396 4.38567ZM10.0891 3.03543V3.62616H13.9148V3.03543H10.0891ZM9.73282 2.34155V3.03543H14.2805V2.34155H13.7085V2.71662H13.0522V2.34155H12.3208V2.71662H11.6832V2.34155H10.9424V2.71662H10.3142V2.34155H9.73282ZM8.88892 9.2053V9.63663H15.1244V9.2053H8.88892Z" fill="#DA000C" stroke="black" stroke-width="0.0937671"/>
<path d="M8.62622 7.80817V9.21467H15.3774V7.80817H14.7398V8.35202H13.8772V7.80817H12.7332V8.35202H11.2517V7.80817H10.1077V8.35202H9.26384V7.80817H8.62622Z" fill="#DA000C" stroke="black" stroke-width="0.0937671"/>
<path d="M9.44214 9.63663V14.7376H10.6424V12.8247C10.6424 11.9339 11.2425 11.512 12.002 11.512C12.7334 11.512 13.3616 11.9339 13.3616 12.8247V14.7376H14.5618V9.63663H9.44214Z" fill="#DA000C" stroke="black" stroke-width="0.0937671" stroke-linejoin="round"/>
</g>
<defs>
<clipPath id="clip0_720_53418">
<rect width="24.0044" height="24.0044" fill="white" transform="translate(0 0.0349121)"/>
</clipPath>
</defs>
</svg>
