<svg width="24" height="25" viewBox="0 0 24 25" fill="none" xmlns="http://www.w3.org/2000/svg">
<g clip-path="url(#clip0_720_53511)">
<path fill-rule="evenodd" clip-rule="evenodd" d="M0.00390625 0.0348816H24.0083V2.70724H0.00390625V0.0348816Z" fill="#0D5EAF"/>
<path fill-rule="evenodd" clip-rule="evenodd" d="M0.00390625 2.70724H24.0083V5.37961H0.00390625V2.70724Z" fill="white"/>
<path fill-rule="evenodd" clip-rule="evenodd" d="M0.00390625 5.37961H24.0083V8.05197H0.00390625V5.37961Z" fill="#0D5EAF"/>
<path fill-rule="evenodd" clip-rule="evenodd" d="M0.00390625 8.05194H24.0083V10.7243H0.00390625V8.05194Z" fill="white"/>
<path fill-rule="evenodd" clip-rule="evenodd" d="M0.00390625 10.7243H24.0083V13.392H0.00390625V10.7243Z" fill="#0D5EAF"/>
<path fill-rule="evenodd" clip-rule="evenodd" d="M0.00390625 13.392H24.0083V16.0644H0.00390625V13.392Z" fill="white"/>
<path fill-rule="evenodd" clip-rule="evenodd" d="M0.00390625 16.0643H24.0083V18.7367H0.00390625V16.0643Z" fill="#0D5EAF"/>
<path fill-rule="evenodd" clip-rule="evenodd" d="M0.00390625 18.7367H24.0083V21.4091H0.00390625V18.7367Z" fill="white"/>
<path d="M0.00390625 0.0348816H13.361V13.392H0.00390625V0.0348816Z" fill="#0D5EAF"/>
<path fill-rule="evenodd" clip-rule="evenodd" d="M5.34814 0.0348511H8.02051V13.392H5.34814V0.0348511Z" fill="white"/>
<path fill-rule="evenodd" clip-rule="evenodd" d="M0.00341797 5.37958H13.3605V8.05194H0.00341797V5.37958Z" fill="white"/>
<path fill-rule="evenodd" clip-rule="evenodd" d="M0.00390625 21.3669H24.0083V24.0392H0.00390625V21.3669Z" fill="#0D5EAF"/>
</g>
<defs>
<clipPath id="clip0_720_53511">
<rect width="24.0044" height="24.0044" fill="white" transform="translate(0.00439453 0.0349121)"/>
</clipPath>
</defs>
</svg>
