<svg width="25" height="25" viewBox="0 0 25 25" fill="none" xmlns="http://www.w3.org/2000/svg">
<g clip-path="url(#clip0_720_53334)">
<path d="M0.0090332 0.0349426H24.0134V24.0393H0.0090332V0.0349426Z" fill="white"/>
<path d="M0.0090332 12.037H24.0134V24.0392H0.0090332V12.037ZM2.50793 12.037C2.50793 13.088 2.71493 14.1287 3.11712 15.0997C3.51931 16.0706 4.10881 16.9529 4.85196 17.696C5.5951 18.4392 6.47735 19.0287 7.44832 19.4309C8.41929 19.8331 9.45997 20.0401 10.5109 20.0401C11.5619 20.0401 12.6026 19.8331 13.5736 19.4309C14.5445 19.0287 15.4268 18.4392 16.1699 17.696C16.9131 16.9529 17.5026 16.0706 17.9048 15.0997C18.307 14.1287 18.514 13.088 18.514 12.037C18.514 9.91451 17.6708 7.87891 16.1699 6.37806C14.6691 4.8772 12.6335 4.03403 10.5109 4.03403C8.38841 4.03403 6.35281 4.8772 4.85196 6.37806C3.3511 7.87891 2.50793 9.91451 2.50793 12.037Z" fill="#D00C33"/>
</g>
<defs>
<clipPath id="clip0_720_53334">
<rect width="24.0044" height="24.0044" fill="white" transform="translate(0.00878906 0.0349121)"/>
</clipPath>
</defs>
</svg>
