<svg width="25" height="25" viewBox="0 0 25 25" fill="none" xmlns="http://www.w3.org/2000/svg">
<g clip-path="url(#clip0_720_53498)">
<path d="M0.0134277 0.0348816H24.0178V24.0392H0.0134277V0.0348816Z" fill="#CE1126"/>
<path d="M3.375 3.39642H20.6563V20.6777H3.375V3.39642Z" fill="#007A5E"/>
<path d="M3.375 3.39642H20.6563L3.375 20.6824H20.6563L3.375 3.39642Z" fill="#FCD116"/>
<path d="M12.0107 14.9204C13.6006 14.9204 14.8894 13.6316 14.8894 12.0417C14.8894 10.4519 13.6006 9.16309 12.0107 9.16309C10.4209 9.16309 9.13208 10.4519 9.13208 12.0417C9.13208 13.6316 10.4209 14.9204 12.0107 14.9204Z" fill="#CE1126"/>
<path d="M12.0149 9.39658L11.1989 11.9078L12.4546 12.3158" fill="#FCD116"/>
<path d="M12.0149 9.39658L12.8308 11.9078L11.5752 12.3158" fill="#FCD116"/>
<path d="M14.5259 11.221H11.8854V12.5412" fill="#FCD116"/>
<path d="M14.5259 11.221L12.3897 12.773L11.6137 11.7049" fill="#FCD116"/>
<path d="M13.5669 14.1732L12.7509 11.662L11.4953 12.07" fill="#FCD116"/>
<path d="M13.5669 14.1732L11.4307 12.6212L12.2067 11.5531" fill="#FCD116"/>
<path d="M10.4631 14.1732L12.5993 12.6212L11.8233 11.5531" fill="#FCD116"/>
<path d="M10.4631 14.1732L11.2791 11.662L12.5347 12.07" fill="#FCD116"/>
<path d="M9.50317 11.2211L11.6394 12.7731L12.4154 11.705" fill="#FCD116"/>
<path d="M9.50317 11.2211H12.1437V12.5413" fill="#FCD116"/>
<path d="M6.55859 0.152893L6.07667 1.63609L6.81827 1.87705" fill="#FCD116"/>
<path d="M6.55859 0.152893L7.04051 1.63609L6.29891 1.87705" fill="#FCD116"/>
<path d="M8.04224 1.23108H6.48271V2.01084" fill="#FCD116"/>
<path d="M8.04224 1.23108L6.78055 2.14775L6.32222 1.5169" fill="#FCD116"/>
<path d="M7.47534 2.97559L6.99342 1.49239L6.25182 1.73335" fill="#FCD116"/>
<path d="M7.47534 2.97559L6.21366 2.05892L6.67199 1.42808" fill="#FCD116"/>
<path d="M5.64087 2.97552L6.90255 2.05886L6.44422 1.42802" fill="#FCD116"/>
<path d="M5.64087 2.97552L6.12279 1.49233L6.86439 1.73329" fill="#FCD116"/>
<path d="M5.07446 1.23138L6.33615 2.14805L6.79448 1.51721" fill="#FCD116"/>
<path d="M5.07446 1.23138H6.63399V2.01115" fill="#FCD116"/>
<path d="M12.0159 0.157745L11.5339 1.64094L12.2755 1.8819" fill="#FCD116"/>
<path d="M12.0159 0.157745L12.4978 1.64094L11.7562 1.8819" fill="#FCD116"/>
<path d="M13.4995 1.23587H11.94V2.01563" fill="#FCD116"/>
<path d="M13.4995 1.23587L12.2378 2.15254L11.7795 1.5217" fill="#FCD116"/>
<path d="M12.9329 2.98029L12.4509 1.49709L11.7093 1.73805" fill="#FCD116"/>
<path d="M12.9329 2.98029L11.6712 2.06362L12.1295 1.43278" fill="#FCD116"/>
<path d="M11.0984 2.98032L12.3601 2.06365L11.9017 1.43281" fill="#FCD116"/>
<path d="M11.0984 2.98032L11.5803 1.49712L12.3219 1.73808" fill="#FCD116"/>
<path d="M10.5315 1.23581L11.7932 2.15248L12.2515 1.52163" fill="#FCD116"/>
<path d="M10.5315 1.23581H12.091V2.01557" fill="#FCD116"/>
<path d="M17.4729 0.157715L16.991 1.64091L17.7326 1.88187" fill="#FCD116"/>
<path d="M17.4729 0.157715L17.9548 1.64091L17.2132 1.88187" fill="#FCD116"/>
<path d="M18.9573 1.23587H17.3977V2.01563" fill="#FCD116"/>
<path d="M18.9573 1.23587L17.6956 2.15254L17.2373 1.5217" fill="#FCD116"/>
<path d="M18.3906 2.98029L17.9087 1.49709L17.1671 1.73805" fill="#FCD116"/>
<path d="M18.3906 2.98029L17.1289 2.06362L17.5873 1.43278" fill="#FCD116"/>
<path d="M16.5562 2.98032L17.8178 2.06365L17.3595 1.43281" fill="#FCD116"/>
<path d="M16.5562 2.98032L17.0381 1.49712L17.7797 1.73808" fill="#FCD116"/>
<path d="M15.9893 1.23581L17.2509 2.15248L17.7093 1.52163" fill="#FCD116"/>
<path d="M15.9893 1.23581H17.5488V2.01557" fill="#FCD116"/>
<path d="M4.69238 12.0746C5.05339 12.745 5.75195 13.4717 6.36612 13.7296C6.3755 13.0498 6.13171 12.173 5.80352 11.4792L4.69238 12.0746Z" fill="#CE1126"/>
<path d="M4.08285 9.76788C4.60326 10.8603 2.72323 13.4576 5.85505 14.0671C5.43649 13.4528 5.24578 12.7115 5.31589 11.9714C6.00755 12.2967 6.57627 12.8359 6.93806 13.5092C7.75852 10.5368 4.83767 10.7196 4.07816 9.76788H4.08285Z" fill="#FCD116"/>
<path d="M6.55859 20.8802L6.07667 22.3634L6.81827 22.6044" fill="#FCD116"/>
<path d="M6.55859 20.8802L7.04051 22.3634L6.29891 22.6044" fill="#FCD116"/>
<path d="M8.04224 21.9584H6.48271V22.7381" fill="#FCD116"/>
<path d="M8.04224 21.9584L6.78055 22.875L6.32222 22.2442" fill="#FCD116"/>
<path d="M7.47534 23.7025L6.99342 22.2193L6.25182 22.4603" fill="#FCD116"/>
<path d="M7.47534 23.7025L6.21366 22.7858L6.67199 22.155" fill="#FCD116"/>
<path d="M5.64087 23.7028L6.90255 22.7862L6.44422 22.1553" fill="#FCD116"/>
<path d="M5.64087 23.7028L6.12279 22.2196L6.86439 22.4606" fill="#FCD116"/>
<path d="M5.07446 21.9583L6.33615 22.875L6.79448 22.2441" fill="#FCD116"/>
<path d="M5.07446 21.9583H6.63399V22.7381" fill="#FCD116"/>
<path d="M12.0159 20.8849L11.5339 22.3681L12.2755 22.609" fill="#FCD116"/>
<path d="M12.0159 20.8849L12.4978 22.3681L11.7562 22.609" fill="#FCD116"/>
<path d="M13.4995 21.963H11.94V22.7428" fill="#FCD116"/>
<path d="M13.4995 21.963L12.2378 22.8797L11.7795 22.2488" fill="#FCD116"/>
<path d="M12.9329 23.7075L12.4509 22.2243L11.7093 22.4653" fill="#FCD116"/>
<path d="M12.9329 23.7075L11.6712 22.7909L12.1295 22.16" fill="#FCD116"/>
<path d="M11.0984 23.7075L12.3601 22.7909L11.9017 22.16" fill="#FCD116"/>
<path d="M11.0984 23.7075L11.5803 22.2243L12.3219 22.4653" fill="#FCD116"/>
<path d="M10.5315 21.963L11.7932 22.8797L12.2515 22.2488" fill="#FCD116"/>
<path d="M10.5315 21.963H12.091V22.7428" fill="#FCD116"/>
<path d="M17.4729 20.8895L16.991 22.3727L17.7326 22.6136" fill="#FCD116"/>
<path d="M17.4729 20.8895L17.9548 22.3727L17.2132 22.6136" fill="#FCD116"/>
<path d="M18.9573 21.9677H17.3977V22.7474" fill="#FCD116"/>
<path d="M18.9573 21.9677L17.6956 22.8843L17.2373 22.2535" fill="#FCD116"/>
<path d="M18.3906 23.7121L17.9087 22.2289L17.1671 22.4699" fill="#FCD116"/>
<path d="M18.3906 23.7121L17.1289 22.7954L17.5873 22.1646" fill="#FCD116"/>
<path d="M16.5562 23.7121L17.8178 22.7954L17.3595 22.1646" fill="#FCD116"/>
<path d="M16.5562 23.7121L17.0381 22.2289L17.7797 22.4699" fill="#FCD116"/>
<path d="M15.9893 21.9677L17.2509 22.8844L17.7093 22.2535" fill="#FCD116"/>
<path d="M15.9893 21.9677H17.5488V22.7475" fill="#FCD116"/>
</g>
<defs>
<clipPath id="clip0_720_53498">
<rect width="24.0044" height="24.0044" fill="white" transform="translate(0.0131836 0.0349121)"/>
</clipPath>
</defs>
</svg>
