<svg width="25" height="25" viewBox="0 0 25 25" fill="none" xmlns="http://www.w3.org/2000/svg">
<g clip-path="url(#clip0_720_53411)">
<path fill-rule="evenodd" clip-rule="evenodd" d="M0.0214844 0.0349426H24.0259V24.0393H0.0214844V0.0349426Z" fill="#BE0027"/>
<path fill-rule="evenodd" clip-rule="evenodd" d="M0.982666 0.995972H23.0179V23.0781H0.982666V0.995972Z" fill="#3B5AA3"/>
<path fill-rule="evenodd" clip-rule="evenodd" d="M11.8315 18.6054C11.9158 18.6523 12.0518 18.6523 12.1268 18.6101C16.9699 16.0315 16.9746 8.9615 12.1315 6.42041C12.0826 6.39914 12.0297 6.38855 11.9763 6.38936C11.9229 6.39016 11.8704 6.40235 11.8221 6.4251C7.10091 9.00838 7.08684 15.9987 11.8315 18.6054Z" fill="#CBE0E5"/>
<path fill-rule="evenodd" clip-rule="evenodd" d="M11.8315 18.7367C11.9065 18.7977 12.0566 18.7883 12.1269 18.7367C15.6947 16.0644 15.7182 14.4 15.5588 14.4H8.49341C8.38558 14.4 8.55436 16.0925 11.8315 18.732V18.7367Z" fill="#ADD2D9"/>
<path fill-rule="evenodd" clip-rule="evenodd" d="M9.05135 15.7221C9.37416 15.6197 9.72358 15.6414 10.0312 15.783C10.2985 15.9237 10.4532 15.9237 10.7392 15.9237C11.0439 15.9284 11.2783 16.1534 11.6065 16.1581C12.2066 16.1769 12.4645 16.4722 11.9956 16.4769C11.7753 16.4769 11.3018 16.3269 11.072 16.3597C10.5938 16.4066 10.2891 16.5144 9.83899 17.0161L10.3594 17.3724C10.8095 17.1849 10.8845 16.9833 11.133 16.9739C11.4143 16.9645 11.508 16.7864 11.8362 16.7864C12.2066 16.8567 12.7036 16.7395 12.9989 16.6785C13.5193 16.5566 13.2709 16.1956 12.9567 16.0597C12.7036 15.9518 12.2254 16.0597 11.9253 15.9518C11.705 15.8627 11.8878 15.7221 12.0097 15.694C12.1316 15.6658 12.2629 15.7127 12.4129 15.7362C12.6848 15.7596 13.0224 15.7362 13.2568 15.694C13.7491 15.619 13.7256 15.4736 13.9647 15.4736C14.1169 15.4691 14.264 15.4184 14.3867 15.3283C14.5273 15.2345 14.668 15.047 14.8368 15.0517L15.2869 15.0704L14.6492 16.491L12.8677 18.3101L11.9394 18.6617L9.91401 17.3349L8.88257 15.7643L9.05135 15.7221Z" fill="#FDF9A1"/>
<path fill-rule="evenodd" clip-rule="evenodd" d="M11.3862 14.339L15.4651 14.3203L15.5401 13.9593L15.2776 13.9311C15.1275 13.9218 14.8791 14.0859 14.7103 14.0859C14.5884 14.0859 14.4524 13.8702 14.3352 13.8749C14.1289 13.8749 14.1102 14.0624 13.9133 14.0624C13.7538 14.0624 13.6882 13.9405 13.4819 13.9499C13.2663 13.964 13.285 14.0812 13.0131 14.0765C12.6521 14.0671 12.5114 13.753 12.2254 13.7483C11.7425 13.7483 11.7285 14.2077 11.3862 14.339Z" fill="#179A3B"/>
<path fill-rule="evenodd" clip-rule="evenodd" d="M11.3862 14.4281L15.587 14.4047V14.2921L11.2925 14.3156L11.3862 14.4281Z" fill="#FDF9A1"/>
<path fill-rule="evenodd" clip-rule="evenodd" d="M13.1116 15.694C13.1772 15.9378 13.2475 16.0222 13.5054 16.0878C13.7632 16.1487 14.1571 15.9003 13.9133 15.6565C13.6789 15.4314 13.4351 15.3752 13.2288 15.1689C12.7881 14.7375 12.127 13.6733 12.127 12.9278C12.127 12.2809 12.0661 10.9634 12.0661 9.71632C12.0661 9.63193 11.8223 9.94136 11.8223 10.0211C11.8316 11.1275 11.8316 11.9574 11.8738 13.0685C11.9442 13.8843 12.3333 14.4281 12.6709 14.9251C12.8256 15.1595 13.0459 15.4174 13.1116 15.6893V15.694Z" fill="#A79270"/>
<path fill-rule="evenodd" clip-rule="evenodd" d="M9.95621 9.75383C9.89995 9.85697 10.0828 9.7257 10.125 9.70694C10.3594 9.62724 10.4532 9.33187 10.8564 9.50534C11.1752 9.64599 11.6065 9.56629 11.3815 9.70225C11.1002 9.87103 10.5516 10.0539 10.5376 10.8743C10.5845 10.954 10.5938 10.94 10.6313 10.8556C10.711 10.6681 11.1142 10.143 11.3111 10.1898C11.3908 10.2086 11.6206 9.95543 11.63 10.0258C11.6487 10.232 11.3111 10.6446 11.3158 11.1978C11.3158 11.3291 11.4752 11.3713 11.5503 11.2822C11.6253 11.2025 11.6675 11.1181 11.8034 11.015C12.0378 10.8228 11.9722 10.007 12.0003 10.0445C12.1644 10.2602 12.1879 10.865 12.441 11.1134C12.6426 11.3197 12.8114 11.2213 12.7692 10.9353C12.6755 10.3586 12.4035 10.5227 12.2769 9.9273C12.2488 9.81009 12.2441 9.70694 12.3942 9.75383C12.5817 9.81009 12.6942 9.89448 12.8349 10.1101C12.9755 10.3117 13.2334 10.504 13.3881 10.6259C13.6506 10.8275 13.7444 10.6493 13.6178 10.3914C13.4568 10.0937 13.1938 9.86394 12.8771 9.74445C12.6614 9.66944 12.5817 9.66475 12.3895 9.62724C12.3426 9.61786 12.2816 9.50534 12.3754 9.44908C12.5801 9.30152 12.8188 9.208 13.0693 9.17716C13.3037 9.17247 13.4912 9.36 13.6553 9.41158C13.9882 9.49597 13.9835 9.28499 13.8429 9.13028C13.721 8.999 13.4678 8.77865 13.2334 8.80209C12.7552 8.86304 12.7833 8.84897 12.4926 9.04588C12.3848 9.10683 12.2676 9.17716 12.3098 9.10214C12.4176 8.90992 12.3145 8.94274 12.4832 8.74583C12.6098 8.60518 12.7036 8.49735 12.8349 8.46453C12.9568 8.43171 13.1162 8.30513 13.163 8.23949C13.2849 8.0754 13.1818 7.98163 12.999 8.03789C12.8395 8.08477 12.7505 8.18792 12.6426 8.21605C12.3848 8.29575 12.1738 8.88648 12.1457 8.96618C12.1035 9.06933 12.0613 9.01775 12.066 8.93336C12.1035 8.52079 12.141 7.82222 11.9956 7.53624C11.7753 7.11428 11.794 7.31119 11.7097 7.51279C11.6046 7.81331 11.6046 8.14057 11.7097 8.44109C11.7425 8.5958 11.8691 8.76927 11.8972 8.89586C11.9113 8.98962 11.8362 8.86304 11.7987 8.80678C11.6581 8.5958 11.5549 8.45046 11.3299 8.33794C11.1041 8.2464 10.8566 8.22198 10.6173 8.26762C10.5563 8.28637 10.6876 8.38014 10.7439 8.42233C10.8939 8.54423 11.1799 8.58174 11.3721 8.70363C11.5409 8.7974 11.6675 8.86773 11.719 9.00838C11.7425 9.11152 11.7753 9.26624 11.7097 9.26155C11.5268 9.25217 11.2455 9.09746 10.6688 9.15841C10.3735 9.2006 10.1203 9.45377 9.95621 9.75383Z" fill="#239E46"/>
<path fill-rule="evenodd" clip-rule="evenodd" d="M11.2126 15.0282H11.3813V15.3094H11.2126V15.0282Z" fill="black"/>
<path fill-rule="evenodd" clip-rule="evenodd" d="M10.3829 13.1717C11.0439 14.0906 12.1082 14.625 12.1316 15.047L10.0547 15.0376C10.5282 14.4656 10.8189 14.0765 10.3782 13.167L10.3829 13.1717Z" fill="#FDF9FF"/>
<path fill-rule="evenodd" clip-rule="evenodd" d="M9.77806 15.0657C10.6829 15.2673 11.7565 15.3752 12.4457 15.0376C12.4457 15.2392 12.2207 15.5252 12.0332 15.5252H10.3032C10.5048 15.4971 10.6173 15.4361 10.9455 15.4174L10.0265 15.4314C9.92809 15.4314 9.74524 15.1642 9.77806 15.0657Z" fill="#A68861"/>
<path fill-rule="evenodd" clip-rule="evenodd" d="M11.8221 19.0696C11.872 19.093 11.9264 19.1051 11.9815 19.1051C12.0366 19.1051 12.0911 19.093 12.1409 19.0696C17.3497 16.2988 17.3544 8.69426 12.1503 5.96095C12.0986 5.93533 12.0416 5.922 11.9839 5.922C11.9261 5.922 11.8692 5.93533 11.8174 5.96095C6.73996 8.74114 6.72589 16.2613 11.8221 19.0649V19.0696ZM11.8503 18.4413C11.8936 18.4615 11.9408 18.4719 11.9886 18.4719C12.0363 18.4719 12.0835 18.4615 12.1269 18.4413C16.487 15.8768 16.5386 9.09746 12.1316 6.66889C12.0472 6.60794 11.9253 6.62669 11.8409 6.66889C7.66825 9.13965 7.43383 15.6424 11.8503 18.4367V18.4413Z" fill="#BE0027"/>
<path d="M10.2749 12.023C10.3561 12.023 10.4264 12.0386 10.4857 12.0699C10.5701 12.1136 10.6216 12.1917 10.6404 12.3042H10.5279C10.5123 12.2417 10.4811 12.1948 10.4342 12.1636C10.3936 12.1355 10.3389 12.1214 10.2702 12.1214C10.1921 12.1214 10.1249 12.1526 10.0687 12.2151C10.0156 12.2745 9.98903 12.3635 9.98903 12.4822C9.98903 12.5822 10.0109 12.665 10.0546 12.7306C10.1015 12.7931 10.1749 12.8243 10.2749 12.8243C10.353 12.8243 10.417 12.8024 10.467 12.7587C10.5201 12.715 10.5467 12.6416 10.5467 12.5385H10.2796V12.4447H10.6544V12.904H10.5795L10.5514 12.7915C10.5139 12.8352 10.4795 12.8665 10.4483 12.8852C10.3952 12.9133 10.3295 12.9274 10.2514 12.9274C10.1515 12.9274 10.064 12.8946 9.98903 12.829C9.9078 12.7447 9.86719 12.6306 9.86719 12.4869C9.86719 12.3432 9.90624 12.2292 9.98434 12.1448C10.0624 12.0605 10.1593 12.0199 10.2749 12.023Z" fill="#BD0728"/>
<path d="M11.1094 12.0464V12.5806C11.1094 12.6431 11.1203 12.6947 11.1422 12.7353C11.1766 12.7978 11.2359 12.829 11.3203 12.829C11.4171 12.829 11.4843 12.7962 11.5218 12.7306C11.5405 12.6931 11.5499 12.6431 11.5499 12.5806V12.0464H11.667V12.5338C11.667 12.6369 11.6514 12.7181 11.6202 12.7774C11.5702 12.8805 11.4733 12.9321 11.3296 12.9321C11.1828 12.9321 11.0828 12.8805 11.0297 12.7774C11.0016 12.7181 10.9875 12.6369 10.9875 12.5338V12.0464H11.1094Z" fill="#BD0728"/>
<path d="M12.7313 12.5525L12.6001 12.1776L12.4595 12.5525H12.7313ZM12.5392 12.0464H12.6704L12.9843 12.9087H12.8531L12.7688 12.6509H12.4267L12.333 12.9087H12.2158L12.5392 12.0464Z" fill="#BD0728"/>
<path d="M13.3879 12.0417H13.5566L13.8003 12.7728L14.0487 12.0417H14.2127V12.904H14.1002V12.1776L13.8565 12.904H13.7441L13.4957 12.1776V12.904H13.3879V12.0417Z" fill="#BD0728"/>
</g>
<defs>
<clipPath id="clip0_720_53411">
<rect width="24.0044" height="24.0044" fill="white" transform="translate(0.0217285 0.0349121)"/>
</clipPath>
</defs>
</svg>
