<svg width="25" height="25" viewBox="0 0 25 25" fill="none" xmlns="http://www.w3.org/2000/svg">
<g clip-path="url(#clip0_720_53515)">
<path d="M0.0258789 0.0348816H24.0302V24.0392H0.0258789V0.0348816Z" fill="#4997D0"/>
<path d="M8.02881 0.0348816H16.0271V24.0392H8.02881V0.0348816Z" fill="white"/>
<path d="M11.1059 14.6523C11.1953 14.6388 11.245 14.6119 11.3046 14.5916M11.3808 14.4533C11.4248 14.4982 11.4586 14.5523 11.4801 14.6119M11.2119 14.4398C11.254 14.4798 11.2877 14.528 11.3112 14.5815M9.6721 9.97413C9.63898 10.0281 9.57276 10.0652 9.51315 10.0888M9.50322 10.0821C9.4988 10.0326 9.4988 9.98312 9.50322 9.93365M9.4403 10.1023C9.4403 10.1158 9.45355 10.1495 9.46017 10.1698M9.52971 10.2035L9.46348 10.2136M9.33102 10.1832C9.33102 10.2709 9.34096 10.3721 9.34758 10.4497M9.28798 10.416C9.30343 10.4452 9.32109 10.4666 9.34096 10.4801M9.18864 10.6993C9.2063 10.7263 9.22064 10.7713 9.23168 10.8342M9.3542 10.6757L9.28798 10.7263M9.34427 10.8747C9.31116 10.9039 9.27252 10.9275 9.22837 10.9455M9.10254 12.3082C9.13617 12.3693 9.18116 12.4231 9.23499 12.4667M9.25486 12.524C9.21988 12.5196 9.1861 12.5082 9.15552 12.4903M9.30122 12.777L9.35752 12.8107M9.34427 12.9254C9.38401 12.9569 9.42485 13.0007 9.46679 13.057M9.42043 13.1514C9.46679 13.1626 9.50211 13.1739 9.5264 13.1851M9.49328 13.2694H9.55951M9.60256 13.0907L9.586 13.2323M9.61912 13.2863L9.63236 13.2323M9.78799 13.4347L9.78468 13.5427M11.0827 14.4837L11.043 14.5377M10.9635 14.4061L10.9404 14.3454" stroke="#24420E" stroke-width="0.013368"/>
<path d="M12.2323 14.9054C12.2047 14.8655 12.1669 14.834 12.123 14.8143C11.8681 14.6794 11.6131 14.6153 11.3283 14.5681C11.2588 14.558 11.1926 14.4939 11.123 14.4601C10.9574 14.3826 10.7753 14.3522 10.6164 14.2679C10.6064 14.2645 10.5667 14.2409 10.5501 14.2173C10.4839 14.1431 10.368 14.1195 10.2985 14.0487C10.0203 13.7856 9.72892 13.5427 9.57659 13.1886C9.39116 12.7602 9.16267 12.3184 9.19247 11.8327C9.21234 11.5224 9.16929 11.212 9.24214 10.922C9.35473 10.4835 9.49381 10.0551 9.7521 9.69424L9.70905 9.72123C9.46397 10.0925 9.29087 10.5081 9.1991 10.9456C9.12294 11.239 9.16598 11.5527 9.14943 11.8563C9.11631 12.3453 9.34811 12.7872 9.53024 13.2155C9.68256 13.5663 9.97727 13.8125 10.2521 14.079C10.325 14.1465 10.4376 14.1701 10.5038 14.2477L10.57 14.2982C10.7323 14.3792 10.9144 14.4096 11.08 14.4905C11.1462 14.5242 11.2124 14.5849 11.2786 14.5984C11.5571 14.6339 11.8278 14.716 12.08 14.8413C12.1238 14.861 12.1616 14.8925 12.1893 14.9323L12.2323 14.902" fill="#406325"/>
<path d="M12.2323 14.9054C12.2047 14.8655 12.1669 14.834 12.123 14.8143C11.8681 14.6794 11.6131 14.6153 11.3283 14.5681C11.2588 14.558 11.1926 14.4939 11.123 14.4601C10.9574 14.3826 10.7753 14.3522 10.6164 14.2679C10.6064 14.2645 10.5667 14.2409 10.5501 14.2173C10.4839 14.1431 10.368 14.1195 10.2985 14.0487C10.0203 13.7856 9.72892 13.5427 9.57659 13.1886C9.39116 12.7602 9.16267 12.3184 9.19247 11.8327C9.21234 11.5224 9.16929 11.212 9.24214 10.922C9.35473 10.4835 9.49381 10.0551 9.7521 9.69424L9.70905 9.72123C9.46397 10.0925 9.29087 10.5081 9.1991 10.9456C9.12294 11.239 9.16598 11.5527 9.14943 11.8563C9.11631 12.3453 9.34811 12.7872 9.53024 13.2155C9.68256 13.5663 9.97727 13.8125 10.2521 14.079C10.325 14.1465 10.4376 14.1701 10.5038 14.2477L10.57 14.2982C10.7323 14.3792 10.9144 14.4096 11.08 14.4905C11.1462 14.5242 11.2124 14.5849 11.2786 14.5984C11.5571 14.6339 11.8278 14.716 12.08 14.8413C12.1238 14.861 12.1616 14.8925 12.1893 14.9323L12.2323 14.902" stroke="#24420E" stroke-width="0.006684"/>
<path d="M9.59014 13.1042C9.52207 12.8448 9.5198 12.5721 9.58352 12.3116C9.80538 12.7501 9.73253 13.111 9.59014 13.1042ZM11.1101 14.6355C10.8401 14.6985 10.5904 14.8309 10.3849 15.02C10.8849 15.0234 11.1796 14.7738 11.1101 14.6355ZM11.3584 14.4905C11.1321 14.2373 10.9726 13.9297 10.8948 13.5967C11.3915 13.9643 11.5207 14.4163 11.3584 14.4905Z" fill="#67923D" stroke="#24420E" stroke-width="0.006684"/>
<path d="M11.1894 14.4938C10.951 14.288 10.7685 14.0232 10.6596 13.7248C11.1662 14.0013 11.3318 14.4061 11.1894 14.4938ZM10.6729 14.2644C10.706 14.0013 10.4874 13.4482 10.4245 13.3875C10.3252 13.944 10.5238 14.3184 10.6729 14.2644ZM9.76885 13.4448C9.71537 13.2111 9.72107 12.9674 9.7854 12.7365C9.96753 13.1311 9.89468 13.4516 9.76885 13.4448ZM9.31519 10.8544C9.49646 10.6155 9.73629 10.4294 10.0106 10.3148C9.7854 10.8072 9.41453 10.986 9.31519 10.8544Z" fill="#67923D" stroke="#24420E" stroke-width="0.006684"/>
<path d="M9.33865 10.6657C9.47027 10.3939 9.66878 10.1615 9.91483 9.99109C9.79231 10.5206 9.46117 10.7736 9.33865 10.6657ZM10.2625 14.0116C10.1095 13.7403 10.0264 13.434 10.0208 13.1211C10.3917 13.5427 10.4182 13.9745 10.2592 14.0116H10.2625ZM9.31216 12.7805C9.08036 12.8176 8.60352 12.6253 8.55054 12.568C9.034 12.46 9.35851 12.6354 9.31216 12.7805ZM9.23931 12.4533C9.2658 12.2678 9.52408 11.9204 9.58038 11.8934C9.54726 12.2981 9.33534 12.5208 9.23931 12.4533ZM10.938 14.4298C10.6155 14.503 10.3175 14.6612 10.0738 14.8885C10.6698 14.8919 11.0241 14.5951 10.938 14.4298Z" fill="#67923D" stroke="#24420E" stroke-width="0.006684"/>
<path d="M9.59381 13.1008C9.73288 13.1075 9.80573 12.75 9.58387 12.3115C9.62563 12.5726 9.62898 12.8386 9.59381 13.1008ZM9.96468 13.7753C9.76029 13.5897 9.51309 13.4597 9.24611 13.3976C9.54082 13.8057 9.90508 13.9069 9.96468 13.7753ZM9.1567 11.9877C9.06248 11.6803 8.89396 11.402 8.66662 11.1782C8.71629 11.7583 9.01763 12.0788 9.1567 11.9877ZM9.43486 13.1446C9.26929 13.0198 8.8057 12.9625 8.73947 12.9827C9.07723 13.266 9.40837 13.2694 9.43486 13.1446ZM9.12359 12.3081C8.98056 12.1055 8.78751 11.9449 8.56396 11.8427C8.74609 12.2609 9.04743 12.4161 9.12359 12.3047V12.3081ZM9.21631 10.7026C9.2428 10.4463 9.03087 9.91337 8.97127 9.85265C8.87524 10.3923 9.0673 10.7532 9.213 10.7026H9.21631ZM9.36201 10.2001C9.45142 9.98082 9.3885 9.44453 9.34545 9.37708C9.13352 9.83242 9.21962 10.2068 9.36201 10.2001Z" fill="#406325" stroke="#24420E" stroke-width="0.006684"/>
<path d="M9.5274 9.94046C9.61903 9.73561 9.65887 9.51066 9.6433 9.28612C9.40488 9.61329 9.41151 9.92359 9.5274 9.94046ZM9.72609 9.73471C9.87283 9.5681 9.97541 9.3661 10.0241 9.14783C9.70291 9.38393 9.62012 9.68074 9.72609 9.73471ZM9.19295 11.1918C9.19627 11.2222 9.15984 10.9152 8.86182 10.5746C8.87506 11.0738 9.06712 11.2626 9.19295 11.1918ZM10.2725 14.0857C10.0091 13.9457 9.71513 13.8761 9.41813 13.8834C9.83536 14.2342 10.2427 14.2409 10.2725 14.0857ZM10.6731 14.2645C10.5208 14.3151 10.3254 13.9441 10.4215 13.3876C10.4645 13.6901 10.548 13.9851 10.6698 14.2645H10.6731ZM11.1136 14.6355C11.1798 14.7738 10.8884 15.0234 10.3917 15.02C10.789 14.8514 11.0937 14.6861 11.1136 14.6389V14.6355ZM11.3553 14.4871C11.5175 14.4095 11.3917 13.9643 10.8917 13.5967C11.1765 14.0419 11.3718 14.4264 11.3553 14.4871Z" fill="#406325" stroke="#24420E" stroke-width="0.006684"/>
<path d="M11.1897 14.4906C11.3288 14.3995 11.1665 14.0015 10.6599 13.7249C10.9744 14.1027 11.1963 14.4332 11.1897 14.4906ZM9.7724 13.445C9.89492 13.4517 9.97108 13.1313 9.78896 12.7367C9.81214 13.1077 9.8022 13.4112 9.7724 13.445ZM9.31543 10.858C9.41477 10.9861 9.77902 10.8107 10.0075 10.3183C9.80371 10.5314 9.57058 10.7132 9.31543 10.858Z" fill="#406325" stroke="#24420E" stroke-width="0.006684"/>
<path d="M9.34527 10.6657C9.46448 10.7736 9.79231 10.5207 9.91483 9.99112C9.64992 10.3723 9.39825 10.659 9.34527 10.6657ZM10.2625 14.0082C10.4182 13.9711 10.395 13.5428 10.0208 13.1212C10.1864 13.5765 10.2857 13.9576 10.2625 14.0082ZM9.30553 12.7805C9.35189 12.6355 9.03069 12.4635 8.55054 12.568C8.95784 12.6422 9.27904 12.7367 9.30553 12.7805ZM9.24262 12.4567C9.33865 12.5174 9.54395 12.2982 9.58369 11.8934C9.49692 12.0968 9.38207 12.2865 9.24262 12.4567ZM10.938 14.4332C11.0208 14.6019 10.6731 14.8953 10.0771 14.8919C10.5473 14.6929 10.9149 14.4939 10.938 14.4332Z" fill="#406325" stroke="#24420E" stroke-width="0.006684"/>
<path d="M9.36149 12.9253C9.22289 12.7007 9.02888 12.517 8.79883 12.3926C8.96432 12.8511 9.26882 13.0365 9.36149 12.9253Z" fill="#406325" stroke="#24420E" stroke-width="0.006684"/>
<path d="M9.12972 11.1614C9.26218 11.0028 9.70922 10.8511 9.77875 10.8578C9.51384 11.212 9.18271 11.2828 9.12972 11.1614ZM9.96088 13.7754C9.90128 13.9103 9.54033 13.8091 9.24231 13.401C9.46269 13.5607 9.70476 13.6868 9.96088 13.7754ZM9.1529 11.9877C9.01383 12.0788 8.71911 11.7584 8.66613 11.1782C8.88468 11.6268 9.09661 11.9709 9.1529 11.9877ZM9.43106 13.1446C9.40788 13.2694 9.07674 13.2661 8.74229 12.9861C8.96316 13.0725 9.19516 13.1259 9.43106 13.1446ZM9.11648 12.3048C9.04032 12.4127 8.7456 12.2609 8.56348 11.8427C8.83501 12.1125 9.07674 12.3048 9.11979 12.3048H9.11648ZM9.2092 10.6993C9.0635 10.7532 8.87475 10.3957 8.96747 9.85606C9.05687 10.3114 9.16615 10.6723 9.2092 10.6993ZM9.35821 10.1967C9.21582 10.2068 9.12972 9.83245 9.34165 9.37711C9.31516 9.80884 9.32509 10.163 9.35821 10.1967ZM9.52378 9.94038C9.41119 9.92014 9.40126 9.61321 9.64299 9.28604C9.57129 9.49684 9.5311 9.71741 9.52378 9.94038ZM9.72246 9.73463C9.61981 9.67729 9.69928 9.38385 10.0205 9.15112C9.89333 9.32952 9.79289 9.52617 9.72246 9.73463Z" fill="#67923D" stroke="#24420E" stroke-width="0.006684"/>
<path d="M9.19253 11.1918C9.06339 11.2627 8.87464 11.0738 8.86139 10.5746C9.03138 10.9703 9.14176 11.1761 9.19253 11.1918ZM10.2687 14.0858C10.2389 14.2409 9.83494 14.2342 9.41771 13.8868C9.85481 14.0318 10.2224 14.1128 10.2687 14.0858ZM9.9972 13.7653C9.8722 13.5716 9.79704 13.3489 9.77865 13.1177C10.0767 13.4112 10.1164 13.7282 10.0038 13.7653H9.9972ZM9.44089 12.9221C9.32168 12.7265 9.30843 12.2172 9.34154 12.1464C9.61639 12.5477 9.58328 12.912 9.44089 12.9221ZM9.35148 12.9255C9.26207 13.0368 8.95742 12.8547 8.79517 12.3926C8.95329 12.5977 9.14083 12.7773 9.35148 12.9255Z" fill="#67923D" stroke="#24420E" stroke-width="0.006684"/>
<path d="M9.12964 11.1615C9.18262 11.2829 9.50714 11.212 9.77536 10.8613C9.37799 11.0906 9.22236 11.1918 9.12964 11.1615ZM9.4376 12.9154C9.57999 12.9052 9.6131 12.5443 9.33826 12.1463C9.4114 12.3968 9.44493 12.6575 9.4376 12.9187V12.9154ZM10.0005 13.7653C10.1131 13.7316 10.0734 13.4112 9.77867 13.1177C9.92437 13.4449 10.0171 13.7249 10.0005 13.7653Z" fill="#406325" stroke="#24420E" stroke-width="0.006684"/>
<path d="M9.18929 11.7614C9.25548 11.4782 9.13302 10.9995 9.04697 10.8983C8.89141 11.4175 9.04035 11.7951 9.18929 11.7614Z" fill="#406325" stroke="#24420E" stroke-width="0.006684"/>
<path d="M9.18242 11.8288C8.98383 11.8727 8.89447 11.4243 9.04672 10.9152C9.07982 11.3703 9.13939 11.7951 9.17911 11.8255L9.18242 11.8288Z" fill="#67923D" stroke="#24420E" stroke-width="0.006684"/>
<path d="M9.1394 11.8255C9.16847 11.5269 9.27091 11.2405 9.43728 10.9928C9.50348 11.5255 9.28834 11.8794 9.1394 11.8255Z" fill="#67923D" stroke="#24420E" stroke-width="0.006684"/>
<path d="M9.14282 11.8221C9.29176 11.8761 9.50359 11.5255 9.43739 10.9928C9.32155 11.4412 9.18916 11.7952 9.14282 11.8221Z" fill="#406325" stroke="#24420E" stroke-width="0.006684"/>
<path d="M9.18579 12.1493C9.23163 11.8562 9.35265 11.5806 9.53663 11.3503C9.56311 11.8965 9.32811 12.2235 9.18579 12.1493Z" fill="#67923D" stroke="#24420E" stroke-width="0.006684"/>
<path d="M9.18921 12.1527C9.32822 12.2269 9.56321 11.9032 9.53674 11.3604C9.39111 11.792 9.23886 12.1325 9.18921 12.1527Z" fill="#406325" stroke="#24420E" stroke-width="0.006684"/>
<path d="M9.27451 10.4324C9.29452 10.4324 9.31074 10.4158 9.31074 10.3955C9.31074 10.3751 9.29452 10.3586 9.27451 10.3586C9.2545 10.3586 9.23828 10.3751 9.23828 10.3955C9.23828 10.4158 9.2545 10.4324 9.27451 10.4324Z" fill="#BA1F3E" stroke="#511124" stroke-width="0.006684"/>
<path d="M9.55259 10.2233C9.5726 10.2233 9.58882 10.2068 9.58882 10.1864C9.58882 10.166 9.5726 10.1495 9.55259 10.1495C9.53258 10.1495 9.51636 10.166 9.51636 10.1864C9.51636 10.2068 9.53258 10.2233 9.55259 10.2233Z" fill="#BA1F3E" stroke="#511124" stroke-width="0.006684"/>
<path d="M9.43345 10.1087C9.45346 10.1087 9.46968 10.0922 9.46968 10.0718C9.46968 10.0514 9.45346 10.0349 9.43345 10.0349C9.41344 10.0349 9.39722 10.0514 9.39722 10.0718C9.39722 10.0922 9.41344 10.1087 9.43345 10.1087Z" fill="#BA1F3E" stroke="#511124" stroke-width="0.006684"/>
<path d="M9.13217 12.5236C9.15582 12.5236 9.17499 12.504 9.17499 12.48C9.17499 12.4559 9.15582 12.4363 9.13217 12.4363C9.10853 12.4363 9.08936 12.4559 9.08936 12.48C9.08936 12.504 9.10853 12.5236 9.13217 12.5236Z" fill="#BA1F3E" stroke="#511124" stroke-width="0.006684"/>
<path d="M9.21494 11.9839C9.23858 11.9839 9.25775 11.9644 9.25775 11.9403C9.25775 11.9162 9.23858 11.8967 9.21494 11.8967C9.19129 11.8967 9.17212 11.9162 9.17212 11.9403C9.17212 11.9644 9.19129 11.9839 9.21494 11.9839Z" fill="#BA1F3E" stroke="#511124" stroke-width="0.006684"/>
<path d="M9.65195 13.2454C9.6756 13.2454 9.69477 13.2258 9.69477 13.2018C9.69477 13.1777 9.6756 13.1581 9.65195 13.1581C9.6283 13.1581 9.60913 13.1777 9.60913 13.2018C9.60913 13.2258 9.6283 13.2454 9.65195 13.2454Z" fill="#BA1F3E" stroke="#511124" stroke-width="0.006684"/>
<path d="M9.46005 13.3095C9.4837 13.3095 9.50287 13.2899 9.50287 13.2658C9.50287 13.2418 9.4837 13.2222 9.46005 13.2222C9.43641 13.2222 9.41724 13.2418 9.41724 13.2658C9.41724 13.2899 9.43641 13.3095 9.46005 13.3095Z" fill="#BA1F3E" stroke="#511124" stroke-width="0.006684"/>
<path d="M10.9269 14.3618C10.9505 14.3618 10.9697 14.3423 10.9697 14.3182C10.9697 14.2941 10.9505 14.2746 10.9269 14.2746C10.9032 14.2746 10.884 14.2941 10.884 14.3182C10.884 14.3423 10.9032 14.3618 10.9269 14.3618Z" fill="#BA1F3E" stroke="#511124" stroke-width="0.006684"/>
<path d="M11.023 14.6013C11.0467 14.6013 11.0659 14.5817 11.0659 14.5577C11.0659 14.5336 11.0467 14.514 11.023 14.514C10.9994 14.514 10.9802 14.5336 10.9802 14.5577C10.9802 14.5817 10.9994 14.6013 11.023 14.6013Z" fill="#BA1F3E" stroke="#511124" stroke-width="0.006684"/>
<path d="M14.7148 10.6554C14.738 10.6757 14.7545 10.6824 14.791 10.7195M14.5724 10.082C14.5724 10.0348 14.5526 9.95724 14.5426 9.91339M14.6585 10.0146C14.6585 10.0775 14.6464 10.1383 14.6221 10.1967M14.483 10.1798C14.5404 10.2361 14.5989 10.2799 14.6585 10.3114M14.7843 10.3519C14.7888 10.4193 14.781 10.4868 14.7612 10.5542M14.7744 10.6048L14.8175 10.5273M14.7545 10.9388C14.8009 10.9489 14.8473 11.0062 14.8704 11.0568M14.887 11.013L14.94 10.9388M14.9963 11.9776L14.9168 12.0923M14.7843 12.0923C14.8108 12.1395 14.8373 12.1935 14.8704 12.2272M14.9532 12.4262C14.9146 12.4824 14.8636 12.5286 14.8042 12.5611M14.8108 12.7129C14.7744 12.7399 14.7281 12.8141 14.6883 12.8714M14.9665 12.1901L14.8969 12.2205M14.8506 11.9709L14.8903 12.0046M14.5824 13.266H14.5161M14.4466 13.2053L14.4665 13.2593M14.2148 13.4313C14.2082 13.4943 14.2093 13.5572 14.2181 13.6202M14.3605 13.3166L14.3936 13.3908M14.5227 13.3875L14.44 13.3976M13.4201 14.2509L13.3869 14.3116M13.781 14.1767C13.7324 14.1812 13.6872 14.179 13.6452 14.17M13.4631 14.3724L13.3638 14.3386M12.877 14.4297C12.8472 14.4533 12.8108 14.5106 12.7777 14.5646M12.7578 14.4128C12.6783 14.4567 12.6518 14.5376 12.6121 14.6085M12.7048 14.7029C12.6518 14.6872 12.5933 14.6647 12.5293 14.6354M13.0823 14.6118C13.0061 14.5714 12.9267 14.5781 12.8472 14.5646M13.2048 14.5511C13.0834 14.5286 12.9697 14.5275 12.8637 14.5477M13.122 14.4601L13.0757 14.4398M12.8902 14.6253L12.8141 14.5815M14.7314 12.922C14.6894 12.9535 14.6486 12.9973 14.6088 13.0536M14.6685 10.3687L14.5956 10.3417" stroke="#24420E" stroke-width="0.013368"/>
<path d="M11.8438 14.9018C11.8747 14.8613 11.9111 14.8309 11.953 14.8107C12.208 14.6758 12.463 14.6151 12.7478 14.5678C12.8173 14.5544 12.8835 14.4903 12.9531 14.4599C13.1186 14.379 13.3008 14.3486 13.4597 14.2677C13.4696 14.2609 13.5094 14.2373 13.5259 14.2137C13.5922 14.1395 13.7081 14.1159 13.7776 14.0451C14.0558 13.782 14.3472 13.5391 14.4995 13.185C14.6849 12.7566 14.9134 12.3148 14.8836 11.8291C14.8637 11.5188 14.9068 11.2084 14.8339 10.9184C14.7418 10.4799 14.5687 10.0633 14.324 9.69064L14.367 9.71763C14.6125 10.0899 14.7856 10.5067 14.877 10.9454C14.9531 11.2354 14.9101 11.5491 14.9266 11.856C14.9598 12.3417 14.728 12.7836 14.5458 13.2153C14.3935 13.5661 14.0988 13.8089 13.824 14.0754C13.7511 14.1429 13.6385 14.1665 13.5723 14.2441L13.5061 14.2946C13.3438 14.3756 13.1617 14.4093 12.9961 14.4869C12.9299 14.5206 12.8637 14.5813 12.7974 14.5948C12.519 14.6303 12.2483 14.7124 11.9961 14.8377C11.9522 14.8574 11.9145 14.8889 11.8868 14.9288L11.8438 14.9018Z" fill="#406325" stroke="#24420E" stroke-width="0.006684"/>
<path d="M14.4668 13.2049C14.5594 12.9554 14.4668 12.3688 14.4204 12.2946C14.1987 12.8138 14.3079 13.2251 14.4668 13.2049Z" fill="#406325" stroke="#24420E" stroke-width="0.006684"/>
<path d="M14.2315 13.4413C14.3076 13.2524 14.2547 12.7903 14.2182 12.733C14.0361 13.1276 14.109 13.4514 14.2315 13.4413ZM14.7911 10.942C14.6239 10.7238 14.4036 10.5541 14.152 10.4496C14.3573 10.8981 14.6984 11.0634 14.7911 10.942Z" fill="#406325" stroke="#24420E" stroke-width="0.006684"/>
<path d="M14.738 10.6723C14.6289 10.4451 14.4633 10.2509 14.2578 10.109C14.3605 10.5475 14.6353 10.76 14.738 10.6723ZM14.8936 11.1749C14.7777 11.04 14.3903 10.9084 14.3307 10.9152C14.5625 11.2187 14.8472 11.2828 14.8936 11.1749ZM14.8009 12.7399C15.0378 12.7382 15.2699 12.6718 15.4731 12.5476C15.0459 12.4532 14.7611 12.6117 14.8009 12.7399ZM14.7943 12.5476C14.7943 12.3588 14.5856 11.981 14.5293 11.9405C14.5128 12.3453 14.6916 12.5982 14.7943 12.5476Z" fill="#406325" stroke="#24420E" stroke-width="0.006684"/>
<path d="M14.8112 12.0855C14.7648 11.7934 14.6437 11.5189 14.4602 11.2895C14.4337 11.8359 14.6688 12.1597 14.8112 12.0855ZM13.0562 14.6253C13.2651 14.8124 13.5186 14.9403 13.7913 14.9963C13.4999 14.5815 13.1257 14.487 13.0595 14.6253H13.0562Z" fill="#406325" stroke="#24420E" stroke-width="0.006684"/>
<path d="M14.4664 13.1987C14.3041 13.2189 14.1982 12.8142 14.42 12.2947C14.4035 12.7737 14.4266 13.1616 14.4664 13.1987ZM12.6981 14.6692C12.9679 14.7346 13.2173 14.868 13.4233 15.0571C12.9233 15.0605 12.6286 14.8109 12.6948 14.6726L12.6981 14.6692ZM12.6981 14.4028C12.7643 14.133 13.1948 13.6877 13.2776 13.6574C13.1584 14.2341 12.8239 14.5175 12.6981 14.4028ZM13.4034 14.2645C13.4118 13.9554 13.4973 13.6537 13.6518 13.3875C13.7511 13.9407 13.5524 14.3151 13.4034 14.2645ZM14.1154 13.7721C14.3188 13.5869 14.5648 13.457 14.8306 13.3943C14.5359 13.8024 14.175 13.9036 14.1121 13.7721H14.1154ZM14.9664 11.9743C14.9995 11.7618 15.2876 11.3706 15.3505 11.3368C15.3108 11.7955 15.0757 12.0451 14.9664 11.9777V11.9743Z" fill="#67923D" stroke="#24420E" stroke-width="0.006684"/>
<path d="M14.5791 13.2594C14.8291 13.1302 15.1068 13.0664 15.3871 13.0739C14.9963 13.401 14.6089 13.4044 14.5791 13.2594ZM14.9202 12.433C15.0702 12.2214 15.2724 12.0539 15.5063 11.9473C15.3142 12.3858 14.9996 12.5477 14.9202 12.433ZM14.8705 10.895C14.8705 10.6386 15.1354 10.1293 15.2016 10.0787C15.2381 10.6218 15.0129 10.9624 14.8705 10.895ZM14.642 10.0214C14.5849 9.80043 14.5837 9.56832 14.6387 9.3468C14.8208 9.71445 14.7612 10.0214 14.6387 10.0214H14.642Z" fill="#67923D" stroke="#24420E" stroke-width="0.006684"/>
<path d="M14.4996 9.94719C14.326 9.73154 14.2077 9.47543 14.1552 9.20178C14.5459 9.51546 14.632 9.88985 14.4996 9.94719ZM14.887 11.1108C14.8771 11.1412 14.9863 10.8511 15.3572 10.5948C15.2248 11.0771 14.993 11.212 14.887 11.1108ZM13.7578 14.1431C14.0567 13.987 14.389 13.9094 14.7247 13.9171C14.2545 14.3151 13.7909 14.3218 13.7578 14.1431ZM14.2313 13.4415C14.1088 13.4483 14.0327 13.1278 14.2148 12.7332C14.1916 13.1042 14.2015 13.4078 14.2313 13.4415ZM14.791 10.9422C14.7016 11.0636 14.3605 10.9017 14.1552 10.4498C14.3411 10.6461 14.5555 10.8122 14.791 10.9422ZM14.7347 10.6724C14.632 10.7601 14.3605 10.5509 14.2578 10.1091C14.4797 10.4261 14.6883 10.6656 14.7347 10.6724ZM14.8936 11.1783C14.8473 11.2829 14.5658 11.2221 14.334 10.9186C14.6784 11.1176 14.8141 11.2019 14.8969 11.1783H14.8936ZM14.8075 12.7366C14.7645 12.6084 15.0493 12.4566 15.4764 12.5511C15.2455 12.5779 15.0199 12.6404 14.8075 12.7366ZM14.7943 12.5477C14.6883 12.5983 14.5128 12.3487 14.5294 11.9439C14.5887 12.1582 14.6779 12.3626 14.7943 12.5511V12.5477Z" fill="#67923D" stroke="#24420E" stroke-width="0.006684"/>
<path d="M14.8076 12.0923C14.6652 12.1665 14.4334 11.8427 14.4599 11.2997C14.6056 11.7314 14.7579 12.0721 14.8076 12.0923ZM13.0625 14.6254C13.1287 14.4837 13.4963 14.5782 13.791 14.9897C13.4268 14.7637 13.1122 14.6085 13.0625 14.6254Z" fill="#67923D" stroke="#24420E" stroke-width="0.006684"/>
<path d="M13.4036 14.2573C13.5558 14.3113 13.7511 13.9404 13.6551 13.3842C13.5624 13.8561 13.4499 14.2303 13.4036 14.2607V14.2573Z" fill="#406325" stroke="#24420E" stroke-width="0.006684"/>
<path d="M13.7447 14.0824C13.87 13.7967 13.9224 13.4835 13.897 13.1717C13.5658 13.6304 13.5857 14.0588 13.7447 14.0824ZM12.695 14.6726C12.6287 14.8109 12.9168 15.0605 13.4168 15.0538C13.0195 14.8919 12.7148 14.7232 12.695 14.6726ZM12.7016 14.3994C12.8274 14.5141 13.1585 14.2341 13.2778 13.6574C13.0095 14.0756 12.7579 14.3927 12.7016 14.3994ZM14.1155 13.7721C14.1751 13.907 14.5361 13.8058 14.8341 13.3977C14.6137 13.5574 14.3717 13.6835 14.1155 13.7721ZM14.9699 11.9743C15.0791 12.0451 15.3109 11.7955 15.3507 11.3402C15.2551 11.5695 15.1268 11.7832 14.9699 11.9743ZM14.5791 13.2594C14.6122 13.4078 14.9931 13.401 15.3871 13.0739C14.9732 13.2088 14.6255 13.283 14.5824 13.2594H14.5791ZM14.9235 12.4296C15.0063 12.5443 15.3176 12.3824 15.5096 11.9439C15.3397 12.1353 15.1421 12.2991 14.9235 12.4296ZM14.8772 10.8916C15.0162 10.9591 15.2414 10.6218 15.2017 10.0821C15.0692 10.5206 14.9235 10.868 14.8738 10.8916H14.8772ZM14.6454 10.018C14.7613 10.0214 14.8242 9.71446 14.6387 9.34344C14.6718 9.6976 14.6718 9.98767 14.6454 10.018ZM14.503 9.94382C14.6354 9.88648 14.5493 9.51546 14.1586 9.20178C14.309 9.43031 14.425 9.6804 14.503 9.94382ZM14.8871 11.1142C14.9931 11.2154 15.2248 11.0805 15.3573 10.5948C15.0968 10.9343 14.9401 11.1075 14.8871 11.1142ZM13.7612 14.1464C13.7943 14.3218 14.2546 14.3151 14.7215 13.9205C14.2281 14.0824 13.8142 14.1768 13.7612 14.1464Z" fill="#406325" stroke="#24420E" stroke-width="0.006684"/>
<path d="M13.9863 13.8859C14.0815 13.6739 14.1225 13.4408 14.1055 13.2083C13.8573 13.5454 13.8672 13.8657 13.9863 13.8825V13.8859ZM14.635 12.9183C14.7542 12.7262 14.7674 12.2137 14.7343 12.1429C14.4596 12.5441 14.4927 12.9082 14.635 12.9183Z" fill="#406325" stroke="#24420E" stroke-width="0.006684"/>
<path d="M13.7447 14.0789C13.5858 14.0587 13.5692 13.6303 13.8937 13.175C13.7745 13.6405 13.7149 14.0317 13.7447 14.0789ZM14.9103 11.7752C14.8772 11.5122 15.0428 11.0973 15.1289 11.0163C15.215 11.502 15.0395 11.8258 14.9103 11.7752ZM13.9865 13.8833C13.8672 13.8664 13.8573 13.546 14.1057 13.2087C14.0325 13.4261 13.9923 13.6536 13.9865 13.8833ZM14.7613 10.3687C14.6885 10.1664 14.7613 9.69417 14.8011 9.63345C14.9766 10.0449 14.8871 10.3789 14.7613 10.3687ZM12.8374 14.4196C12.9202 14.1498 13.3738 13.7113 13.4599 13.6776C13.3176 14.2678 12.9632 14.541 12.8374 14.4196ZM14.6454 13.0165C14.7832 12.7922 14.9761 12.6085 15.205 12.4836C15.0395 12.9423 14.7348 13.1278 14.6421 13.0165H14.6454ZM14.6388 12.9153C14.4964 12.9018 14.4633 12.5443 14.7381 12.1429C14.665 12.3934 14.6315 12.6541 14.6388 12.9153Z" fill="#67923D" stroke="#24420E" stroke-width="0.006684"/>
<path d="M14.9102 11.8356C15.0823 11.8996 15.208 11.5052 15.1286 11.0298C15.0898 11.3079 15.0164 11.5798 14.9102 11.8389V11.8356Z" fill="#406325" stroke="#24420E" stroke-width="0.006684"/>
<path d="M14.9367 11.8225C14.9532 11.5695 14.7049 11.0467 14.6387 10.9894C14.5724 11.5223 14.7877 11.8764 14.9367 11.8225ZM14.7612 10.3654C14.8903 10.3789 14.9764 10.0483 14.8009 9.63345C14.8142 10.0213 14.7943 10.335 14.7612 10.3654ZM12.8406 14.4162C12.9664 14.541 13.3174 14.2678 13.4598 13.6809C13.1684 14.0958 12.8969 14.4095 12.8406 14.4162ZM14.6486 13.0165C14.7413 13.1278 15.046 12.9456 15.2115 12.4836C15.0514 12.6891 14.8616 12.8688 14.6486 13.0165Z" fill="#406325" stroke="#24420E" stroke-width="0.006684"/>
<path d="M14.9333 11.8187C14.7843 11.876 14.5725 11.5254 14.6387 10.9927C14.7545 11.4377 14.8869 11.7917 14.9333 11.8187Z" fill="#67923D" stroke="#24420E" stroke-width="0.006684"/>
<path d="M14.8304 10.5538C14.8504 10.5538 14.8667 10.5373 14.8667 10.5169C14.8667 10.4966 14.8504 10.48 14.8304 10.48C14.8104 10.48 14.7942 10.4966 14.7942 10.5169C14.7942 10.5373 14.8104 10.5538 14.8304 10.5538Z" fill="#BA1F3E" stroke="#511124" stroke-width="0.006684"/>
<path d="M14.9562 10.9552C14.9762 10.9552 14.9924 10.9387 14.9924 10.9183C14.9924 10.8979 14.9762 10.8814 14.9562 10.8814C14.9361 10.8814 14.9199 10.8979 14.9199 10.9183C14.9199 10.9387 14.9361 10.9552 14.9562 10.9552Z" fill="#BA1F3E" stroke="#511124" stroke-width="0.006684"/>
<path d="M15.0025 12.2267C15.0262 12.2267 15.0454 12.2072 15.0454 12.1831C15.0454 12.159 15.0262 12.1395 15.0025 12.1395C14.9789 12.1395 14.9597 12.159 14.9597 12.1831C14.9597 12.2072 14.9789 12.2267 15.0025 12.2267Z" fill="#BA1F3E" stroke="#511124" stroke-width="0.006684"/>
<path d="M14.8302 11.9906C14.8538 11.9906 14.873 11.9711 14.873 11.947C14.873 11.9229 14.8538 11.9034 14.8302 11.9034C14.8065 11.9034 14.7874 11.9229 14.7874 11.947C14.7874 11.9711 14.8065 11.9906 14.8302 11.9906Z" fill="#BA1F3E" stroke="#511124" stroke-width="0.006684"/>
<path d="M14.3436 13.3364C14.3672 13.3364 14.3864 13.3169 14.3864 13.2928C14.3864 13.2687 14.3672 13.2492 14.3436 13.2492C14.32 13.2492 14.3008 13.2687 14.3008 13.2928C14.3008 13.3169 14.32 13.3364 14.3436 13.3364Z" fill="#BA1F3E" stroke="#511124" stroke-width="0.006684"/>
<path d="M14.5521 13.4275C14.5757 13.4275 14.5949 13.408 14.5949 13.3839C14.5949 13.3598 14.5757 13.3403 14.5521 13.3403C14.5284 13.3403 14.5093 13.3598 14.5093 13.3839C14.5093 13.408 14.5284 13.4275 14.5521 13.4275Z" fill="#BA1F3E" stroke="#511124" stroke-width="0.006684"/>
<path d="M13.148 14.5203C13.1717 14.5203 13.1909 14.5008 13.1909 14.4767C13.1909 14.4526 13.1717 14.4331 13.148 14.4331C13.1244 14.4331 13.1052 14.4526 13.1052 14.4767C13.1052 14.5008 13.1244 14.5203 13.148 14.5203Z" fill="#BA1F3E" stroke="#511124" stroke-width="0.006684"/>
<path d="M12.9164 14.6889C12.94 14.6889 12.9592 14.6694 12.9592 14.6453C12.9592 14.6212 12.94 14.6017 12.9164 14.6017C12.8927 14.6017 12.8735 14.6212 12.8735 14.6453C12.8735 14.6694 12.8927 14.6889 12.9164 14.6889Z" fill="#BA1F3E" stroke="#511124" stroke-width="0.006684"/>
<path d="M14.5819 10.365C14.6019 10.365 14.6181 10.3485 14.6181 10.3281C14.6181 10.3077 14.6019 10.2912 14.5819 10.2912C14.5619 10.2912 14.5457 10.3077 14.5457 10.3281C14.5457 10.3485 14.5619 10.365 14.5819 10.365Z" fill="#BA1F3E" stroke="#511124" stroke-width="0.006684"/>
<path d="M10.5162 13.2625C10.5096 13.2961 10.5426 13.3397 10.5821 13.3296C10.5986 13.3296 10.6052 13.3128 10.5887 13.3128C10.5733 13.3173 10.5601 13.314 10.5492 13.3028C10.5413 13.2938 10.5359 13.2829 10.5335 13.2711C10.5312 13.2593 10.5321 13.247 10.536 13.2357L10.5162 13.2625Z" fill="#8C959D" stroke="#485654" stroke-width="0.003342"/>
<path d="M10.6121 13.33C10.579 13.3705 10.5294 13.3874 10.4996 13.3604C10.4775 13.3402 10.472 13.3177 10.483 13.293L10.45 13.3368C10.45 13.3368 10.4698 13.3806 10.5029 13.3975C10.5459 13.4143 10.6022 13.3874 10.6353 13.3435C10.6618 13.3098 10.6883 13.2626 10.6684 13.2222C10.6533 13.196 10.63 13.1758 10.6022 13.1649L10.5691 13.1986C10.5868 13.1941 10.6055 13.1986 10.6254 13.2121C10.6684 13.2458 10.6452 13.2963 10.6121 13.33Z" fill="#8C959D"/>
<path d="M10.6123 13.33L10.5759 13.3637C10.5604 13.3727 10.5439 13.3761 10.5262 13.3739L10.503 13.3637L10.4865 13.3435L10.4766 13.3199C10.4744 13.3109 10.4766 13.3019 10.4832 13.2929L10.4865 13.2963L10.4501 13.3401V13.3368L10.4832 13.3806L10.5064 13.3941L10.5328 13.3975C10.5517 13.3971 10.5701 13.3912 10.5858 13.3806C10.6034 13.3716 10.6178 13.3604 10.6288 13.3469L10.6619 13.2997C10.6707 13.284 10.674 13.266 10.6718 13.2457L10.6652 13.2188C10.6504 13.1945 10.6284 13.1756 10.6023 13.1648H10.6056L10.5725 13.2019H10.5692C10.5759 13.1974 10.5836 13.1952 10.5924 13.1952L10.6189 13.2019C10.6343 13.2109 10.6443 13.2244 10.6487 13.2424C10.6509 13.2604 10.6487 13.2761 10.6421 13.2896C10.6354 13.3076 10.6255 13.321 10.6123 13.33ZM10.6123 13.33C10.6255 13.321 10.6343 13.3076 10.6387 13.2896C10.6432 13.2716 10.6454 13.2559 10.6454 13.2424C10.641 13.2266 10.631 13.2154 10.6156 13.2087C10.6001 13.1974 10.5858 13.1952 10.5725 13.2019H10.5692L10.6023 13.1615C10.6301 13.1724 10.6534 13.1926 10.6685 13.2188C10.6752 13.2255 10.6785 13.2345 10.6785 13.2457C10.6785 13.2682 10.674 13.2873 10.6652 13.3031C10.6586 13.321 10.6476 13.3368 10.6321 13.3503C10.6211 13.366 10.6067 13.3784 10.5891 13.3873C10.5737 13.3986 10.5549 13.4042 10.5328 13.4042C10.5231 13.405 10.5133 13.4036 10.5041 13.4001C10.495 13.3966 10.4867 13.3911 10.4799 13.384L10.4468 13.3368L10.4799 13.2929H10.4865L10.4832 13.3199L10.4898 13.3435L10.5064 13.3604C10.5108 13.3671 10.5174 13.3705 10.5262 13.3705C10.5439 13.3727 10.5604 13.3705 10.5759 13.3637L10.6123 13.33Z" fill="#485654"/>
<path d="M13.1952 10.3282L11.8674 11.6605L10.5064 12.9827L10.3541 13.1649C10.2878 13.2424 10.2084 13.3436 10.1157 13.4347C10.0991 13.4583 10.0792 13.4482 10.0594 13.4617C9.99975 13.4954 9.93684 13.5561 9.89379 13.6067L9.48649 14.062C9.46 14.089 9.45558 14.1115 9.47324 14.1295L9.69179 14.4263C9.73153 14.4668 9.77789 14.487 9.79776 14.4533C9.90041 14.2678 10.162 13.9878 10.2614 13.7686C10.3176 13.6337 10.3905 13.3942 10.4435 13.3369C10.5097 13.2627 10.6786 13.0738 10.8342 12.9085L10.8673 12.8748C10.874 12.8613 10.8839 12.85 10.8971 12.8411C11.6753 12.0316 12.576 11.05 13.2317 10.3586L13.1952 10.3282Z" fill="#6C301E" stroke="#351710" stroke-width="0.006684" stroke-linejoin="round"/>
<path d="M10.4363 12.9858C10.399 12.9814 10.3672 12.9657 10.3408 12.9389C10.3803 12.9523 10.4199 12.9657 10.4561 12.9489L10.4363 12.9858Z" fill="#8C959D" stroke="#485654" stroke-width="0.003342"/>
<path d="M14.5792 9.34335L13.5262 10.2271C13.5152 10.2383 13.5052 10.2383 13.4964 10.2271L13.4004 10.1461V10.1259L13.4467 10.0786C13.4512 10.0741 13.4501 10.0674 13.4434 10.0584L13.4236 10.0382C13.4147 10.0359 13.407 10.0382 13.4004 10.0449L13.354 10.0955C13.3275 10.0978 13.3121 10.1135 13.3077 10.1427C12.6719 10.7735 12.1222 11.3367 11.4897 11.9573L10.7413 12.6859C10.7149 12.7196 10.599 12.7837 10.5228 12.8343C10.4941 12.8523 10.4742 12.8692 10.4632 12.8849L10.4036 13.0704C10.3837 13.1109 10.3208 13.2053 10.3208 13.2121L10.4466 13.3369L10.8142 12.9355L10.844 12.9018C10.8198 12.8673 10.7908 12.8366 10.7579 12.8107L10.7347 12.7938C10.7347 12.7848 10.7402 12.777 10.7513 12.7702C11.6255 11.9068 12.5725 10.959 13.3408 10.1866H13.3739L13.4699 10.2911C13.492 10.3136 13.5108 10.3181 13.5262 10.3046L14.5826 9.34335H14.5792Z" fill="#B2B6BA" stroke="#485654" stroke-width="0.006684"/>
<path d="M10.407 13.0627H10.4267L10.4432 13.0594L10.4663 12.9789L10.4926 12.8983C10.486 12.8916 10.4783 12.8872 10.4696 12.8849C10.4783 12.8849 10.486 12.8894 10.4926 12.8983L10.4696 12.9789L10.4465 13.0594L10.4267 13.0661L10.407 13.0627Z" fill="#485654"/>
<path d="M10.6457 13.0071C10.6569 13.0071 10.666 12.9979 10.666 12.9865C10.666 12.9751 10.6569 12.9659 10.6457 12.9659C10.6346 12.9659 10.6255 12.9751 10.6255 12.9865C10.6255 12.9979 10.6346 13.0071 10.6457 13.0071Z" stroke="#485654" stroke-width="0.006684"/>
<path d="M10.52 13.1353C10.5312 13.1353 10.5402 13.126 10.5402 13.1146C10.5402 13.1033 10.5312 13.094 10.52 13.094C10.5088 13.094 10.4998 13.1033 10.4998 13.1146C10.4998 13.126 10.5088 13.1353 10.52 13.1353Z" stroke="#485654" stroke-width="0.006684"/>
<path d="M12.7646 10.6553L12.8799 10.7727L12.8997 10.7526L12.7844 10.6385L12.7646 10.6587V10.6553Z" fill="#8C959D" stroke="#485654" stroke-width="0.003342"/>
<path d="M12.9969 13.3089C13.0019 13.3427 12.9669 13.3847 12.9279 13.3726C12.9114 13.3718 12.9057 13.3547 12.9221 13.3556C12.9372 13.3608 12.9506 13.3581 12.9621 13.3475C12.9704 13.3389 12.9763 13.3283 12.9792 13.3166C12.9821 13.3049 12.9818 13.2927 12.9784 13.2811L12.9969 13.3089Z" fill="#8C959D" stroke="#485654" stroke-width="0.003342"/>
<path d="M12.8977 13.3716C12.9288 13.4136 12.9776 13.4329 13.0087 13.4075C13.0317 13.3884 13.0383 13.3662 13.0284 13.3409L13.0594 13.3864C13.0594 13.3864 13.0374 13.4291 13.0036 13.4443C12.9598 13.459 12.9049 13.4293 12.8739 13.3839C12.8491 13.3489 12.8249 13.3004 12.8467 13.261C12.863 13.2356 12.8873 13.2166 12.9156 13.2071L12.947 13.2424C12.9296 13.237 12.9106 13.2406 12.8902 13.253C12.8456 13.2846 12.8663 13.3362 12.8977 13.3716Z" fill="#8C959D"/>
<path d="M12.8977 13.3716L12.9324 13.407C12.9474 13.4168 12.9638 13.421 12.9815 13.4196L13.0051 13.4107L13.0226 13.3913L13.0337 13.3682C13.0363 13.3593 13.0346 13.3502 13.0284 13.3409L13.0249 13.3441L13.0592 13.3897L13.0593 13.3864L13.0242 13.4285L13.0004 13.4408L12.9738 13.4429C12.955 13.4415 12.9369 13.4348 12.9217 13.4234C12.9045 13.4135 12.8907 13.4016 12.8803 13.3876L12.8495 13.3388C12.8415 13.3226 12.839 13.3045 12.8422 13.2844L12.8501 13.2578C12.8661 13.2342 12.889 13.2165 12.9155 13.2071L12.9122 13.2069L12.9435 13.2456L12.9468 13.2457C12.9404 13.2409 12.9328 13.2383 12.924 13.2379L12.8972 13.2433C12.8813 13.2515 12.8708 13.2645 12.8655 13.2822C12.8624 13.3 12.8639 13.3159 12.8699 13.3297C12.8756 13.348 12.8849 13.3619 12.8977 13.3716ZM12.8977 13.3716C12.8849 13.3619 12.8767 13.348 12.8732 13.3298C12.8696 13.3117 12.8682 13.2958 12.8688 13.2824C12.874 13.2669 12.8844 13.2561 12.9002 13.2502C12.9162 13.2397 12.9306 13.2382 12.9435 13.2456L12.9468 13.2457L12.9157 13.2037C12.8874 13.2133 12.8632 13.2323 12.8468 13.2576C12.8399 13.264 12.8361 13.2729 12.8356 13.2841C12.8345 13.3065 12.838 13.3258 12.8461 13.342C12.8518 13.3603 12.8621 13.3765 12.8769 13.3908C12.8871 13.407 12.9009 13.4201 12.9181 13.4299C12.933 13.4419 12.9514 13.4485 12.9735 13.4496C12.9831 13.4509 12.993 13.45 13.0023 13.447C13.0116 13.4439 13.0202 13.4388 13.0273 13.432L13.0626 13.3865L13.0317 13.3411L13.0251 13.3408L13.0271 13.3679L13.0193 13.3911L13.002 13.4071C12.9973 13.4136 12.9905 13.4167 12.9817 13.4162C12.9639 13.4176 12.9475 13.4145 12.9324 13.407L12.8977 13.3716Z" fill="#485654"/>
<path d="M10.4618 10.2448L11.7242 11.6416L13.0201 13.0299L13.1635 13.2194C13.226 13.3002 13.3005 13.4052 13.3887 13.5008C13.4041 13.5252 13.4245 13.5161 13.4437 13.5305C13.5016 13.5672 13.5615 13.631 13.6021 13.6836L13.9871 14.1587C14.0122 14.187 14.0156 14.2096 13.9971 14.2267L13.7645 14.5123C13.7229 14.5508 13.6756 14.5687 13.6574 14.534C13.5638 14.3436 13.3159 14.051 13.2272 13.827C13.1774 13.6895 13.1162 13.4467 13.066 13.3868C13.0034 13.3094 12.8438 13.1123 12.6963 12.9395L12.6648 12.9041C12.6588 12.8903 12.6494 12.8786 12.6367 12.869C11.8982 12.0217 11.0457 10.9966 10.424 10.2733L10.4618 10.2448Z" fill="#6C301E" stroke="#351710" stroke-width="0.006684" stroke-linejoin="round"/>
<path d="M13.0901 13.0365C13.1276 13.0339 13.1601 13.0199 13.1877 12.9944C13.1476 13.0058 13.1075 13.0172 13.0721 12.9987L13.0901 13.0365Z" fill="#8C959D" stroke="#485654" stroke-width="0.003342"/>
<path d="M9.12653 9.19223L10.1359 10.1273C10.1464 10.139 10.1563 10.1395 10.1657 10.1287L10.2655 10.0527L10.2664 10.0325L10.2224 9.98299C10.2182 9.97828 10.2196 9.97159 10.2267 9.96294L10.2475 9.94372C10.2564 9.94191 10.264 9.94454 10.2703 9.95161L10.3142 10.0044C10.3406 10.008 10.3552 10.0245 10.3582 10.0539C10.963 10.7155 11.485 11.3055 12.087 11.9568L12.7995 12.7217C12.8244 12.7567 12.9371 12.8265 13.0107 12.8808C13.0385 12.9002 13.0575 12.9181 13.0678 12.9343L13.1185 13.1226C13.1364 13.164 13.1947 13.2615 13.1943 13.2682L13.0627 13.3866L12.7148 12.9674L12.6867 12.9322C12.7125 12.8991 12.7429 12.8699 12.777 12.8456L12.801 12.8299C12.8014 12.8209 12.7963 12.8128 12.7856 12.8055C11.9538 11.8995 11.0533 10.9058 10.3231 10.0961L10.29 10.0944L10.1891 10.1941C10.1659 10.2154 10.147 10.219 10.1322 10.2047L9.12322 9.19206L9.12653 9.19223Z" fill="#B2B6BA" stroke="#485654" stroke-width="0.006684"/>
<path d="M13.1155 13.1148L13.0958 13.1138L13.0795 13.1096L13.0603 13.028L13.0378 12.9463C13.0447 12.9399 13.0526 12.9358 13.0615 12.9341C13.0527 12.9336 13.0449 12.9377 13.0378 12.9463L13.057 13.0279L13.0762 13.1094L13.0956 13.1171L13.1155 13.1148Z" fill="#485654"/>
<path d="M12.8797 13.0473C12.8685 13.0468 12.8599 13.0371 12.8604 13.0257C12.861 13.0143 12.8705 13.0056 12.8816 13.0061C12.8928 13.0067 12.9014 13.0164 12.9009 13.0277C12.9003 13.0391 12.8908 13.0479 12.8797 13.0473Z" stroke="#485654" stroke-width="0.006684"/>
<path d="M12.9993 13.1816C12.9881 13.181 12.9795 13.1714 12.9801 13.16C12.9806 13.1486 12.9901 13.1399 13.0013 13.1404C13.0124 13.141 13.021 13.1506 13.0205 13.162C13.0199 13.1734 13.0105 13.1822 12.9993 13.1816Z" stroke="#485654" stroke-width="0.006684"/>
<path d="M10.8761 10.5929L10.7554 10.7045L10.7366 10.6834L10.8572 10.5752L10.876 10.5963L10.8761 10.5929Z" fill="#8C959D" stroke="#485654" stroke-width="0.003342"/>
<path d="M10.5056 14.2442C10.1853 14.1664 9.85043 14.1768 9.5354 14.2745C10.0752 14.5444 10.5123 14.4297 10.5023 14.2408L10.5056 14.2442ZM13.4528 14.3555C13.7111 14.2442 14.3402 14.3319 14.4164 14.3892C13.8799 14.6557 13.4395 14.541 13.4495 14.3555H13.4528Z" fill="#67923D" stroke="#24420E" stroke-width="0.006684"/>
<path d="M10.499 14.2475C10.5089 14.4331 10.0752 14.5477 9.5354 14.2779C10.042 14.3116 10.456 14.2914 10.4957 14.2442L10.499 14.2475ZM13.4528 14.3588C13.4461 14.5444 13.8799 14.659 14.4197 14.3892C13.913 14.4229 13.4991 14.4027 13.4561 14.3555L13.4528 14.3588Z" fill="#406325" stroke="#24420E" stroke-width="0.006684"/>
<path d="M12.9726 14.062C12.3053 13.1209 11.4456 12.3384 10.4526 11.7685C10.5685 11.7617 10.8301 11.9 10.9394 11.9708C11.7308 12.4903 12.4064 13.1783 13.1117 13.9878C13.0719 14.0283 13.0454 14.0553 12.9991 14.089L12.9726 14.062Z" fill="#B2B6BA" stroke="#485654" stroke-width="0.006684"/>
<path d="M13.042 14.0553L12.9891 14.0958C12.2274 13.0974 11.1678 12.1429 10.4492 11.7685C11.4459 12.2339 12.2837 13.175 13.0321 14.0485H13.0354L13.042 14.0553Z" fill="#8C959D"/>
<path d="M13.042 14.0553L12.9891 14.0958C12.6371 13.6354 12.2472 13.2066 11.8234 12.8141C11.5066 12.5178 11.1703 12.244 10.8168 11.9944C10.6976 11.9135 10.5751 11.8382 10.4492 11.7685V11.7617C10.7141 11.8876 10.9625 12.0372 11.1943 12.2103C11.4261 12.3812 11.6468 12.5678 11.8566 12.7702C12.0659 12.9707 12.268 13.1788 12.4625 13.3942C12.659 13.6123 12.8511 13.8316 13.0387 14.0519L13.042 14.0553ZM13.042 14.0553C12.8522 13.8327 12.659 13.6146 12.4625 13.4009C12.2681 13.1855 12.066 12.9773 11.8566 12.777C11.6468 12.5768 11.4261 12.3902 11.1943 12.2171C10.9625 12.0439 10.7152 11.8955 10.4525 11.7718V11.7651C10.7023 11.9095 10.9423 12.0706 11.1711 12.2474C11.6272 12.6021 12.0506 12.9983 12.436 13.4313C12.6304 13.646 12.816 13.8688 12.9924 14.0991L13.042 14.0553Z" fill="#485654"/>
<path d="M13.2699 13.8933C13.2037 13.9135 13.1452 13.9394 13.0944 13.9708C13.0878 14.018 13.0282 14.072 12.9786 14.0821L12.9587 14.0551H12.9521L12.9323 14.0652C12.9102 14.063 12.8925 14.0742 12.8793 14.099C12.8661 14.1327 12.8892 14.1765 12.919 14.2035C12.9521 14.2271 12.9654 14.2372 12.9985 14.2372C13.0349 14.2271 13.0547 14.1934 13.0646 14.1832C13.1871 14.3349 13.2798 14.4192 13.4353 14.5406C13.5048 14.5406 13.5413 14.4968 13.5181 14.4462C13.5093 14.4282 13.4949 14.4215 13.4751 14.426V14.4091C13.5545 14.3349 13.5909 14.2406 13.5048 14.0787C13.432 13.9439 13.3493 13.8967 13.2732 13.8967H13.2699V13.8933ZM13.4751 14.0484C13.4905 14.0709 13.5015 14.0933 13.5082 14.1158C13.5611 14.217 13.5181 14.3417 13.432 14.3788H13.4254C13.4387 14.3552 13.3989 14.3046 13.3791 14.3215C13.389 14.2979 13.3559 14.254 13.3294 14.2641C13.3427 14.2406 13.3129 14.2001 13.2831 14.2136C13.2963 14.19 13.2732 14.1529 13.2401 14.1596C13.25 14.1327 13.2268 14.099 13.197 14.1057C13.197 14.081 13.1915 14.0641 13.1805 14.0551C13.2136 14.0282 13.2566 13.9843 13.293 13.9641C13.3824 13.9237 13.4387 13.9978 13.4751 14.0484Z" fill="#FAB81C" stroke="#6C301E" stroke-width="0.006684"/>
<path d="M13.5152 14.1561C13.4977 14.1426 13.4911 14.1303 13.4955 14.1192C13.5042 14.1057 13.5174 14.1035 13.535 14.1125C13.5525 14.1214 13.5602 14.1326 13.558 14.146C13.5493 14.1594 13.535 14.1628 13.5152 14.1561Z" fill="#FAB81C" stroke="#6C301E" stroke-width="0.003342"/>
<path d="M13.5052 14.1224C13.4876 14.1112 13.4811 14.0978 13.4854 14.0821C13.4942 14.0709 13.5074 14.0698 13.525 14.0787C13.5425 14.0877 13.5502 14.0989 13.548 14.1123C13.5392 14.1257 13.525 14.1291 13.5052 14.1224Z" fill="#FAB81C" stroke="#6C301E" stroke-width="0.003342"/>
<path d="M13.4854 14.0819C13.4679 14.073 13.4613 14.0618 13.4657 14.0484C13.4745 14.0349 13.4876 14.0316 13.5052 14.0383C13.5228 14.0517 13.5294 14.064 13.525 14.0752C13.5206 14.0864 13.5074 14.0886 13.4854 14.0819Z" fill="#FAB81C" stroke="#6C301E" stroke-width="0.003342"/>
<path d="M13.4588 14.0482C13.4413 14.037 13.4347 14.0247 13.4391 14.0113C13.4478 14.0001 13.461 13.9979 13.4786 14.0046C13.4962 14.018 13.5038 14.0303 13.5016 14.0415C13.4929 14.0549 13.4786 14.0572 13.4588 14.0482Z" fill="#FAB81C" stroke="#6C301E" stroke-width="0.003342"/>
<path d="M13.4258 14.0145C13.406 14.0033 13.3994 13.9921 13.406 13.9809V13.9742C13.4126 13.9776 13.4291 13.9809 13.4258 13.9709V13.9641L13.4456 13.9709C13.4631 13.9843 13.4697 13.9966 13.4653 14.0078C13.4609 14.0189 13.4478 14.0212 13.4258 14.0145Z" fill="#FAB81C" stroke="#6C301E" stroke-width="0.003342"/>
<path d="M13.0654 14.1834C13.0886 14.1227 13.1316 14.0688 13.1813 14.0553L13.0654 14.1834ZM13.072 14.1935C13.1151 14.2002 13.1813 14.1497 13.1978 14.1058L13.072 14.1935ZM13.1118 14.2407C13.1647 14.2542 13.221 14.2002 13.2442 14.1598L13.1118 14.2407ZM13.1614 14.2946C13.2276 14.2946 13.264 14.2508 13.2839 14.2137L13.1614 14.2946ZM13.2111 14.3452C13.2673 14.3452 13.317 14.3014 13.3302 14.2643L13.2111 14.3452ZM13.2574 14.3924C13.3192 14.3879 13.36 14.3654 13.3799 14.325L13.2574 14.3924ZM13.3137 14.4396C13.3699 14.443 13.413 14.4092 13.4262 14.3789L13.3137 14.4396ZM13.3732 14.4902C13.4262 14.4902 13.4626 14.4564 13.4758 14.4227L13.3732 14.4902Z" fill="#FAB81C"/>
<path d="M13.0654 14.1834C13.0801 14.1407 13.1066 14.1033 13.1416 14.0755C13.1504 14.0665 13.1636 14.0598 13.1813 14.0553L13.1416 14.0755L13.1085 14.1092C13.0903 14.1314 13.0758 14.1565 13.0654 14.1834ZM13.072 14.1935L13.1118 14.1867L13.1449 14.1665L13.178 14.1395C13.1601 14.1606 13.1373 14.1768 13.1118 14.1867C13.0985 14.1935 13.0853 14.1957 13.072 14.1935ZM13.1118 14.2407H13.1515L13.1846 14.2205C13.2073 14.2044 13.2264 14.1838 13.2408 14.1598L13.2177 14.1935L13.1879 14.2238L13.1548 14.2407H13.1118ZM13.1614 14.2946C13.1747 14.2946 13.1868 14.2924 13.1978 14.2879L13.2309 14.271L13.264 14.2441L13.2839 14.2103C13.2742 14.2364 13.2569 14.2588 13.2342 14.2744L13.2011 14.2913L13.1614 14.2946ZM13.2111 14.3452C13.2375 14.3452 13.2607 14.3362 13.2806 14.3182C13.3008 14.3042 13.3178 14.2858 13.3302 14.2643C13.328 14.2755 13.3214 14.2868 13.3104 14.298L13.2839 14.3216L13.2508 14.3418L13.2111 14.3452ZM13.2574 14.3924C13.2706 14.3924 13.2828 14.3901 13.2938 14.3857C13.3181 14.3796 13.3407 14.3681 13.36 14.3519L13.3799 14.3216L13.36 14.3553C13.3512 14.3643 13.3401 14.371 13.3269 14.3755C13.3048 14.389 13.2828 14.3946 13.2607 14.3924H13.2574ZM13.3137 14.4396C13.3366 14.4387 13.3592 14.433 13.3799 14.4227L13.4063 14.4059L13.4262 14.3789C13.424 14.3901 13.4185 14.3991 13.4096 14.4059C13.3962 14.4181 13.3805 14.4274 13.3634 14.4332C13.3463 14.4389 13.3283 14.4411 13.3104 14.4396H13.3137ZM13.3732 14.4902L13.4063 14.4868L13.4328 14.4733L13.456 14.4531L13.4758 14.4261C13.468 14.4468 13.4537 14.4642 13.4352 14.4758C13.4166 14.4873 13.3949 14.4924 13.3732 14.4902Z" fill="#6C301E"/>
<path d="M10.9659 13.9738C11.6868 13.0746 12.5906 12.3454 13.615 11.8364C13.4997 11.8227 13.2305 11.945 13.1173 12.0091C12.297 12.4798 11.5826 13.1258 10.8314 13.8913C10.8687 13.9341 10.8936 13.9626 10.9379 13.9991L10.9659 13.9738Z" fill="#B2B6BA" stroke="#485654" stroke-width="0.006684"/>
<path d="M10.897 13.9628L10.9475 14.0064C11.7659 13.0558 12.8793 12.167 13.6184 11.8367C12.5963 12.2411 11.7052 13.1299 10.9073 13.9567L10.904 13.9565L10.897 13.9628Z" fill="#8C959D"/>
<path d="M10.8969 13.9628L10.9474 14.0064C11.3255 13.5682 11.7397 13.1637 12.1856 12.7974C12.5191 12.5208 12.8708 12.2678 13.2382 12.04C13.3619 11.9664 13.4886 11.8986 13.6183 11.8367L13.6187 11.8299C13.3469 11.9396 13.0903 12.0739 12.8488 12.2327C12.6074 12.3893 12.3762 12.5623 12.1551 12.7516C11.9345 12.9391 11.7206 13.1347 11.5138 13.3379C11.305 13.5438 11.1005 13.751 10.9004 13.9597L10.8969 13.9628ZM10.8969 13.9628C11.0993 13.7521 11.3049 13.546 11.5134 13.3446C11.7201 13.1413 11.934 12.9457 12.1547 12.7584C12.3757 12.5713 12.6069 12.3983 12.8484 12.2395C13.0899 12.0806 13.3453 11.9474 13.6148 11.8398L13.6152 11.8331C13.3574 11.9622 13.1084 12.1085 12.8698 12.2712C12.3938 12.5976 11.9481 12.9676 11.5381 13.3765C11.3316 13.5791 11.1333 13.7903 10.9439 14.0096L10.8969 13.9628Z" fill="#485654"/>
<path d="M10.6786 13.7874C10.7435 13.8116 10.8004 13.8409 10.8492 13.8754C10.853 13.9229 10.9094 13.9804 10.9583 13.9935L10.9797 13.9678L10.9864 13.9682L11.0056 13.9795C11.0277 13.9785 11.0447 13.9908 11.0565 14.0163C11.0677 14.0508 11.0421 14.0931 11.0108 14.1182C10.9763 14.1398 10.9625 14.1491 10.9295 14.1471C10.8937 14.1348 10.8759 14.0999 10.8666 14.0892C10.7355 14.2333 10.6381 14.3118 10.4757 14.4236C10.4063 14.4194 10.3725 14.3734 10.3986 14.3243C10.4085 14.3069 10.4232 14.3011 10.4427 14.3068L10.4437 14.2899C10.3687 14.2111 10.3379 14.1147 10.4332 13.9583C10.5138 13.8281 10.5991 13.786 10.6751 13.7906L10.6784 13.7908L10.6786 13.7874ZM10.4647 13.9298C10.448 13.9513 10.4357 13.9731 10.4278 13.9951C10.369 14.0929 10.4047 14.22 10.4884 14.2622L10.495 14.2626C10.4832 14.2383 10.5258 14.1902 10.5446 14.2082C10.5361 14.1841 10.5717 14.1423 10.5975 14.154C10.5857 14.1297 10.6178 14.0911 10.6467 14.1063C10.6349 14.082 10.6602 14.0464 10.6928 14.0551C10.6845 14.0276 10.7096 13.9953 10.7389 14.0038C10.7404 13.9792 10.7468 13.9627 10.7584 13.9544C10.7269 13.9254 10.6865 13.8791 10.6513 13.8567C10.5645 13.8109 10.504 13.8816 10.4647 13.9298Z" fill="#FAB81C" stroke="#6C301E" stroke-width="0.006684"/>
<path d="M10.4185 14.035C10.4368 14.0227 10.4441 14.0108 10.4404 13.9994C10.4324 13.9854 10.4194 13.9824 10.4013 13.9903C10.3832 13.9982 10.3749 14.0089 10.3763 14.0224C10.3843 14.0363 10.3984 14.0405 10.4185 14.035Z" fill="#FAB81C" stroke="#6C301E" stroke-width="0.003342"/>
<path d="M10.4302 14.002C10.4484 13.9918 10.4557 13.9789 10.4522 13.963C10.4441 13.9513 10.431 13.9494 10.413 13.9572C10.3949 13.9651 10.3866 13.9758 10.388 13.9893C10.396 14.0032 10.4101 14.0075 10.4302 14.002Z" fill="#FAB81C" stroke="#6C301E" stroke-width="0.003342"/>
<path d="M10.4525 13.9628C10.4706 13.9549 10.4778 13.9441 10.4742 13.9305C10.4662 13.9165 10.4533 13.9124 10.4354 13.918C10.417 13.9304 10.4097 13.9422 10.4135 13.9537C10.4172 13.9651 10.4302 13.9681 10.4525 13.9628Z" fill="#FAB81C" stroke="#6C301E" stroke-width="0.003342"/>
<path d="M10.4808 13.9307C10.499 13.9206 10.5063 13.9087 10.5027 13.8951C10.4946 13.8834 10.4816 13.8803 10.4636 13.886C10.4453 13.8983 10.4369 13.9101 10.4385 13.9214C10.4465 13.9353 10.4606 13.9384 10.4808 13.9307Z" fill="#FAB81C" stroke="#6C301E" stroke-width="0.003342"/>
<path d="M10.5159 13.899C10.5363 13.889 10.5435 13.8783 10.5376 13.8667L10.538 13.86C10.5312 13.8629 10.5146 13.8653 10.5184 13.8555L10.5188 13.8488L10.4987 13.8543C10.4804 13.8666 10.4731 13.8785 10.4768 13.8899C10.4806 13.9013 10.4936 13.9044 10.5159 13.899Z" fill="#FAB81C" stroke="#6C301E" stroke-width="0.003342"/>
<path d="M10.8663 14.0893C10.8467 14.0274 10.8069 13.9709 10.7581 13.9545L10.8663 14.0893ZM10.8591 14.099C10.8158 14.1032 10.7526 14.0487 10.7387 14.0039L10.8591 14.099ZM10.8167 14.1437C10.7631 14.154 10.7101 14.0968 10.6893 14.055L10.8167 14.1437ZM10.764 14.1946C10.6979 14.1906 10.6642 14.1446 10.6465 14.1064L10.764 14.1946ZM10.7115 14.2421C10.6554 14.2387 10.6083 14.1919 10.5973 14.1541L10.7115 14.2421ZM10.6625 14.2864C10.6011 14.2782 10.5617 14.2533 10.5442 14.2117L10.6625 14.2864ZM10.6036 14.3301C10.5472 14.3301 10.5063 14.2938 10.4948 14.2627L10.6036 14.3301ZM10.5412 14.377C10.4883 14.3738 10.4539 14.3379 10.4427 14.3035L10.5412 14.377Z" fill="#FAB81C"/>
<path d="M10.8663 14.0893C10.8541 14.0459 10.8299 14.0069 10.7966 13.977C10.7883 13.9675 10.7755 13.96 10.7581 13.9545L10.7966 13.977L10.8277 14.0127C10.8445 14.036 10.8576 14.0619 10.8663 14.0893ZM10.8591 14.099L10.8199 14.0899L10.788 14.0677L10.7565 14.0388C10.7732 14.0609 10.7949 14.0785 10.8199 14.0899C10.8327 14.0974 10.8458 14.1005 10.8591 14.099ZM10.8167 14.1437L10.7771 14.1414L10.7452 14.1192C10.7235 14.1018 10.7056 14.08 10.6926 14.0552L10.7137 14.0902L10.7417 14.1223L10.7738 14.1412L10.8167 14.1437ZM10.764 14.1946C10.7508 14.1938 10.7388 14.1908 10.7281 14.1857L10.696 14.1668L10.6645 14.1379L10.6467 14.1031C10.6548 14.1297 10.6708 14.153 10.6925 14.17L10.7246 14.1888L10.764 14.1946ZM10.7115 14.2421C10.6851 14.2405 10.6625 14.2301 10.6437 14.211C10.6243 14.1957 10.6084 14.1763 10.5973 14.1541C10.5988 14.1655 10.6048 14.1771 10.6152 14.189L10.6402 14.2141L10.6721 14.2363L10.7115 14.2421ZM10.6625 14.2864C10.6493 14.2856 10.6373 14.2826 10.6266 14.2775C10.6027 14.27 10.5808 14.2571 10.5625 14.2398L10.5444 14.2083L10.5623 14.2432C10.5705 14.2527 10.5812 14.2601 10.5941 14.2654C10.6154 14.2802 10.6371 14.2871 10.6592 14.2862L10.6625 14.2864ZM10.6036 14.3301C10.5807 14.3278 10.5586 14.3208 10.5385 14.3093L10.5131 14.2909L10.4948 14.2627C10.4964 14.2741 10.5013 14.2834 10.5098 14.2907C10.5225 14.3036 10.5376 14.3139 10.5543 14.3207C10.571 14.3275 10.5889 14.3308 10.6069 14.3303L10.6036 14.3301ZM10.5412 14.377L10.5083 14.3716L10.4827 14.3566L10.4608 14.335L10.4425 14.3068C10.4491 14.3279 10.4624 14.3462 10.4802 14.3589C10.4981 14.3716 10.5195 14.3779 10.5412 14.377Z" fill="#6C301E"/>
<path d="M9.68532 10.0146C9.94809 9.87343 10.1705 9.66544 10.331 9.41083C9.81446 9.55249 9.57935 9.89315 9.68532 10.0179V10.0146ZM14.5133 10.1731C14.4004 9.90798 14.2225 9.67685 13.9967 9.5019C14.0895 10.0146 14.3941 10.2709 14.5133 10.1765V10.1731Z" fill="#406325" stroke="#24420E" stroke-width="0.006684"/>
<path d="M9.68544 10.0146C9.57617 9.89317 9.81127 9.55588 10.3279 9.41422C9.9636 9.69754 9.69206 9.96062 9.68544 10.0146ZM14.5134 10.1731C14.3909 10.2743 14.0929 10.018 14.0002 9.50866C14.2386 9.87967 14.4638 10.1664 14.5134 10.1731Z" fill="#67923D" stroke="#24420E" stroke-width="0.006684"/>
<path d="M11.1083 12.6484C11.1083 12.6484 10.9064 12.672 10.8468 12.3855C10.7873 12.0787 11.0223 12.0484 11.0223 12.0484C11.0223 12.0484 11.2903 12.018 11.4591 12.0146L11.532 12.6215L11.1083 12.6484Z" fill="url(#paint0_radial_720_53515)" stroke="#999270" stroke-width="0.006684"/>
<path d="M11.1348 12.5575C11.1348 12.5575 11.0024 12.5811 10.9759 12.3687C10.9561 12.217 11.0487 12.1968 11.0487 12.1968L11.3532 12.2507V12.5272L11.1348 12.5575Z" fill="url(#paint1_radial_720_53515)" stroke="#999270" stroke-width="0.006684"/>
<path d="M11.0488 12.1968C11.0488 12.1968 11.2474 12.1833 11.3467 12.1698L11.3897 12.362L11.1547 12.3754C11.1547 12.3754 11.1382 12.2035 11.0488 12.1968Z" fill="url(#paint2_radial_720_53515)" stroke="#999270" stroke-width="0.006684"/>
<path d="M11.0093 12.0517C11.0093 12.0517 11.2575 11.9876 11.2906 12.2675C11.2972 12.3416 11.2575 12.5102 11.135 12.5574L11.5951 12.5068L11.5521 12.0011L11.3998 12.0146C11.3998 12.0146 11.0689 12.0247 11.0093 12.0483V12.0517Z" fill="url(#paint3_radial_720_53515)" stroke="#999270" stroke-width="0.006684"/>
<path d="M11.1086 12.6488C11.1086 12.6488 12.8272 12.5307 13.0027 12.5374C13.5259 12.2474 13.0027 11.104 12.5623 10.4631C12.612 10.3181 11.5722 9.99428 11.1053 10.0246C11.0435 10.0246 10.9861 10.028 10.9331 10.0348C10.6781 10.0617 10.6748 10.3957 10.7775 10.6082C10.8768 10.8105 11.7841 12.4632 11.1484 12.642L11.1086 12.6488Z" fill="#F9F0AA" stroke="#999270" stroke-width="0.006684"/>
<path d="M12.9498 11.1377C12.8339 10.8915 12.6948 10.6554 12.5623 10.4631C12.612 10.3181 11.5722 9.99428 11.1053 10.0246C11.0435 10.0246 10.9861 10.028 10.9331 10.0348C10.6781 10.0617 10.6748 10.3957 10.7775 10.6082C10.8106 10.6689 10.9199 10.878 11.0391 11.1377" fill="url(#paint4_linear_720_53515)"/>
<path d="M12.9498 11.1377C12.8339 10.8915 12.6948 10.6554 12.5623 10.4631C12.612 10.3181 11.5722 9.99428 11.1053 10.0246C11.0435 10.0246 10.9861 10.028 10.9331 10.0348C10.6781 10.0617 10.6748 10.3957 10.7775 10.6082C10.8106 10.6689 10.9199 10.878 11.0391 11.1377" stroke="#999270" stroke-width="0.006684"/>
<path d="M11.2011 11.5323C11.3866 12.0248 11.4892 12.5442 11.1481 12.642L11.1084 12.6487C11.1084 12.6487 12.8303 12.5307 13.0025 12.5374C13.2873 12.3789 13.2608 11.9708 13.1085 11.5256" fill="url(#paint5_linear_720_53515)"/>
<path d="M11.2011 11.5323C11.3866 12.0248 11.4892 12.5442 11.1481 12.642L11.1084 12.6487C11.1084 12.6487 12.8303 12.5307 13.0025 12.5374C13.2873 12.3789 13.2608 11.9708 13.1085 11.5256" stroke="#999270" stroke-width="0.006684"/>
<path d="M10.9496 10.1325C10.8271 10.1325 10.794 10.2539 10.7973 10.3281C10.8006 10.5304 10.9496 10.5371 10.9496 10.5371L11.1482 10.527L11.2409 10.1157L10.9496 10.1325Z" fill="url(#paint6_radial_720_53515)" stroke="#999270" stroke-width="0.006684"/>
<path d="M10.9497 10.1325L11.241 10.1157L11.2741 10.4225L11.0159 10.436C11.0159 10.436 11.0986 10.1899 10.9497 10.1325Z" fill="url(#paint7_linear_720_53515)" stroke="#999270" stroke-width="0.006684"/>
<path d="M12.5616 10.4629C12.7833 10.4292 12.78 10.1258 12.6278 10.0011C12.1147 9.98086 11.4429 9.99771 10.953 10.0348C11.0093 10.0348 11.1648 10.0483 11.1814 10.2539C11.1854 10.2986 11.1784 10.3435 11.1611 10.3847C11.1437 10.4259 11.1166 10.4621 11.0821 10.4899C11.0438 10.5192 10.9976 10.5357 10.9497 10.5371H11.0689L11.1682 10.5236C11.8632 10.4326 12.5583 10.4629 12.5583 10.4629H12.5616Z" fill="url(#paint8_linear_720_53515)" stroke="#999270" stroke-width="0.006684"/>
<path d="M11.3172 10.9386C11.3128 10.9274 11.304 10.9184 11.2907 10.9117C11.2797 10.9139 11.2742 10.9094 11.2742 10.8982H11.3006L11.3536 10.8914C11.3646 10.8982 11.3646 10.9038 11.3536 10.9083C11.3371 10.9083 11.347 10.9252 11.3503 10.9353L11.3933 11.0364C11.3977 11.0499 11.4055 11.0578 11.4165 11.06L11.4529 11.0566C11.4595 11.0476 11.4617 11.0364 11.4595 11.0229C11.4562 11.0128 11.4761 11.0162 11.4761 11.0229L11.4893 11.0701C11.4893 11.0746 11.4849 11.0757 11.4761 11.0735L11.3768 11.0802C11.3668 11.0802 11.3503 11.0903 11.3437 11.0802C11.3437 11.0667 11.3635 11.0735 11.3635 11.0634L11.3536 11.0297L11.3172 10.9386ZM11.4761 10.9252C11.4739 10.9162 11.4661 10.9083 11.4529 10.9016C11.4419 10.9038 11.4352 10.8993 11.433 10.8881C11.4397 10.8836 11.4474 10.8836 11.4562 10.8881L11.5125 10.8813C11.5224 10.8813 11.5257 10.8982 11.5125 10.8948C11.5036 10.8971 11.5014 10.9049 11.5059 10.9184L11.5555 11.033C11.5555 11.042 11.561 11.0488 11.572 11.0533C11.5809 11.0533 11.5886 11.0566 11.5952 11.0634C11.593 11.0701 11.5864 11.0712 11.5754 11.0667L11.5224 11.0735C11.5136 11.0735 11.5081 11.0701 11.5059 11.0634C11.5025 11.0533 11.5224 11.0634 11.5257 11.0499C11.5257 11.0409 11.5213 11.0297 11.5125 11.0162L11.4761 10.9285V10.9252ZM11.625 10.9521C11.6294 10.9566 11.6349 10.9566 11.6416 10.9521C11.6526 10.9521 11.6592 10.9476 11.6614 10.9386C11.6614 10.9207 11.6537 10.9072 11.6382 10.8982C11.6272 10.8914 11.6151 10.8892 11.6018 10.8914L11.6051 10.9083L11.625 10.9521ZM11.6449 11.0061L11.6647 11.0398C11.6735 11.0443 11.6824 11.0443 11.6912 11.0398C11.7022 11.0375 11.7066 11.0319 11.7044 11.0229C11.7022 10.9982 11.689 10.9813 11.6647 10.9724H11.6316L11.6382 10.9892L11.6449 11.0061ZM11.5787 10.9252C11.5743 10.9117 11.5665 10.9004 11.5555 10.8914C11.5467 10.8937 11.539 10.8914 11.5323 10.8847C11.5323 10.8746 11.5522 10.8813 11.5588 10.878C11.5886 10.878 11.6184 10.8678 11.6449 10.878C11.6713 10.8869 11.6879 10.9049 11.6945 10.9319C11.6945 10.9454 11.6879 10.9544 11.6747 10.9589L11.6912 10.9622C11.7133 10.969 11.7287 10.9825 11.7375 11.0027C11.7464 11.0162 11.7464 11.0308 11.7375 11.0465C11.7221 11.0578 11.7066 11.0623 11.6912 11.06L11.6151 11.0667C11.6051 11.0667 11.6018 11.0499 11.6151 11.0499C11.6239 11.0476 11.6261 11.0409 11.6217 11.0297L11.5787 10.9285V10.9252ZM11.8236 10.8611C11.8324 10.8633 11.8379 10.869 11.8401 10.878L11.8501 10.9083C11.8412 10.9105 11.8346 10.9061 11.8302 10.8948C11.8236 10.8858 11.8159 10.8813 11.807 10.8813H11.7673C11.7629 10.8881 11.764 10.8948 11.7706 10.9016L11.7905 10.9488C11.7993 10.9488 11.8081 10.9454 11.817 10.9386C11.817 10.9319 11.807 10.915 11.8236 10.9184C11.8302 10.9274 11.8346 10.9375 11.8368 10.9488L11.8534 10.9858C11.8435 10.996 11.8368 10.9825 11.8335 10.9724C11.8247 10.9634 11.8137 10.96 11.8004 10.9622V10.9724L11.8203 11.0229C11.8291 11.0319 11.8401 11.0353 11.8534 11.033C11.8666 11.0353 11.8777 11.0308 11.8865 11.0196C11.8931 11.0128 11.8765 10.996 11.8865 10.9926C11.8975 10.9948 11.903 11.0016 11.903 11.0128C11.903 11.024 11.9063 11.033 11.913 11.0398C11.9107 11.0465 11.9063 11.0488 11.8997 11.0465L11.8004 11.0533C11.7872 11.0533 11.7706 11.06 11.7673 11.0465C11.7673 11.0364 11.7905 11.0431 11.7872 11.0297L11.7739 10.996L11.7375 10.9049C11.7331 10.8914 11.7243 10.8836 11.7111 10.8813C11.7044 10.8813 11.6912 10.8813 11.6978 10.8678H11.7309L11.8236 10.8611ZM11.8997 10.9049C11.8975 10.8937 11.8898 10.8836 11.8765 10.8746C11.8655 10.8768 11.8578 10.8723 11.8534 10.8611H11.8865C11.913 10.8611 11.9394 10.851 11.9659 10.8611C11.9946 10.8678 12.0123 10.8881 12.0189 10.9218C12.0189 10.9353 12.0111 10.9443 11.9957 10.9488C11.9858 10.9488 12.0023 10.9521 12.0056 10.9555C12.0277 10.9667 12.0431 10.9836 12.052 11.0061C12.0553 11.0128 12.0685 11.0297 12.0718 11.0128C12.0751 10.996 12.0917 11.0128 12.0884 11.0229C12.0862 11.0364 12.0784 11.0431 12.0652 11.0431C12.052 11.0431 12.0398 11.0364 12.0288 11.0229C12.0178 11.0004 12.0034 10.9813 11.9858 10.9656L11.9593 10.9589V10.9757L11.9792 11.0162C11.988 11.0252 11.999 11.0285 12.0122 11.0263C12.0222 11.0297 12.0189 11.0465 12.0056 11.0431H11.9494C11.9394 11.0499 11.9196 11.0431 11.9262 11.033C11.9394 11.033 11.945 11.0274 11.9427 11.0162L11.9096 10.9285L11.8997 10.9049ZM11.9461 10.9386H11.9758C11.9847 10.9341 11.9869 10.9263 11.9825 10.915C11.978 10.8971 11.9681 10.8836 11.9527 10.8746C11.9461 10.8746 11.9262 10.8678 11.9229 10.878L11.9461 10.9319V10.9386ZM12.1844 10.9926C12.1888 11.0038 12.1954 11.0117 12.2042 11.0162C12.213 11.0162 12.2208 11.0196 12.2274 11.0263C12.2252 11.033 12.2186 11.0353 12.2075 11.033H12.1546C12.1435 11.0375 12.1369 11.0342 12.1347 11.0229C12.1413 11.0162 12.1579 11.0229 12.1579 11.0094L12.1413 10.9724L12.1049 10.8746C12.0983 10.8656 12.0906 10.8622 12.0818 10.8645C12.0685 10.8622 12.0608 10.8667 12.0586 10.878C12.063 10.8892 12.063 10.8982 12.0586 10.9049C12.0498 10.9027 12.0442 10.8971 12.042 10.8881C12.0398 10.8791 12.0354 10.8678 12.0288 10.8544C12.0332 10.8499 12.0387 10.8487 12.0453 10.851L12.1844 10.8442C12.1954 10.8442 12.2009 10.8499 12.2009 10.8611L12.2141 10.8948C12.2075 10.9016 12.2009 10.8982 12.1943 10.8847C12.1877 10.8712 12.1777 10.8633 12.1645 10.8611L12.138 10.8678L12.1446 10.8914L12.1844 10.9926ZM12.3101 10.9622C12.3057 10.9645 12.3046 10.969 12.3068 10.9757V11.0027C12.3134 11.0117 12.3223 11.0162 12.3333 11.0162C12.3399 11.0162 12.3366 11.033 12.3267 11.0297H12.287C12.277 11.033 12.2605 11.0263 12.2704 11.0162C12.277 11.0162 12.2825 11.0128 12.287 11.0061V10.8375C12.2958 10.8308 12.3024 10.833 12.3068 10.8442L12.426 10.996C12.4326 11.0049 12.4414 11.0094 12.4524 11.0094C12.4624 11.0094 12.4657 11.0263 12.4524 11.0229H12.3796C12.3752 11.0162 12.3774 11.0117 12.3863 11.0094C12.3962 11.0094 12.3863 10.996 12.3829 10.9892L12.3631 10.9622H12.3101ZM12.3465 10.9454C12.351 10.9454 12.351 10.9431 12.3465 10.9386L12.3035 10.8813V10.9488H12.3465V10.9454ZM12.4491 10.8847C12.4458 10.8712 12.4392 10.851 12.4227 10.851C12.4094 10.851 12.4039 10.8465 12.4061 10.8375H12.4624C12.4844 10.833 12.5065 10.8341 12.5286 10.8409C12.5815 10.8611 12.6146 10.8993 12.6279 10.9555C12.6279 10.978 12.6212 10.996 12.608 11.0094C12.5815 11.0229 12.5539 11.0263 12.5253 11.0196L12.4789 11.0229C12.469 11.0229 12.4657 11.0061 12.4789 11.0094C12.49 11.0049 12.4922 10.9971 12.4855 10.9858L12.4491 10.8847ZM12.5153 10.969C12.5175 10.9802 12.5231 10.9915 12.5319 11.0027H12.565C12.5804 10.9982 12.5882 10.9881 12.5882 10.9724C12.5867 10.9476 12.58 10.9234 12.5683 10.9016C12.5551 10.8791 12.5352 10.8633 12.5087 10.8544H12.4756V10.8678L12.5153 10.969ZM11.817 11.387C11.8192 11.3983 11.828 11.405 11.8435 11.4072C11.8501 11.4072 11.8666 11.4072 11.8666 11.4207C11.8578 11.4252 11.849 11.4252 11.8401 11.4207L11.7905 11.4275H11.7607C11.7541 11.423 11.7552 11.4185 11.764 11.414C11.775 11.414 11.7817 11.4095 11.7839 11.4005L11.7773 11.3735L11.7375 11.2791C11.7353 11.2701 11.7276 11.2668 11.7144 11.269C11.7055 11.2713 11.6978 11.269 11.6912 11.2623C11.6912 11.2522 11.7078 11.2555 11.7144 11.2488L11.7475 11.2387C11.7541 11.2387 11.7574 11.2421 11.7574 11.2488L11.817 11.387ZM11.8401 11.2353H11.9063C11.9196 11.2353 11.913 11.2185 11.9196 11.2185C11.9306 11.223 11.935 11.2308 11.9328 11.2421C11.9328 11.2578 11.9262 11.2645 11.913 11.2623H11.8633L11.8799 11.3027L11.8997 11.296C11.9328 11.296 11.9725 11.3162 11.9858 11.3499C11.9946 11.3679 11.9946 11.3848 11.9858 11.4005C11.9725 11.4162 11.9549 11.423 11.9328 11.4207C11.9152 11.4207 11.8997 11.414 11.8865 11.4005C11.8832 11.3938 11.8832 11.3769 11.8931 11.3803C11.9085 11.3803 11.9163 11.387 11.9163 11.4005C11.9229 11.405 11.9306 11.4061 11.9394 11.4039C11.9505 11.4039 11.9571 11.3983 11.9593 11.387C11.9593 11.369 11.9538 11.3533 11.9427 11.3398C11.9361 11.3263 11.9218 11.3185 11.8997 11.3162L11.8732 11.3196C11.8644 11.3173 11.86 11.3117 11.86 11.3027L11.8368 11.2387L11.8435 11.2353H11.8401ZM12.0685 11.269C12.0641 11.2533 12.0542 11.2421 12.0387 11.2353C12.0321 11.2353 12.0156 11.2319 12.0255 11.2218H12.0784C12.1027 11.2173 12.1259 11.2185 12.148 11.2252C12.2009 11.2454 12.234 11.2836 12.2472 11.3398C12.2495 11.3623 12.2417 11.3803 12.2241 11.3938C12.1998 11.4027 12.1733 11.4061 12.1446 11.4039L12.1016 11.4106C12.0917 11.4106 12.0884 11.3938 12.1016 11.3938C12.1104 11.3915 12.1126 11.3836 12.1082 11.3702L12.0685 11.269ZM12.1347 11.3533L12.1546 11.387H12.1877C12.2009 11.3803 12.2075 11.369 12.2075 11.3533C12.2075 11.3308 12.1998 11.3072 12.1844 11.2825C12.1689 11.2578 12.1491 11.2432 12.1248 11.2387H12.0917V11.2522L12.1347 11.3533ZM12.3465 11.2083C12.3554 11.2106 12.3609 11.2162 12.3631 11.2252C12.3653 11.2342 12.3686 11.2432 12.373 11.2522C12.3642 11.2589 12.3576 11.2555 12.3532 11.2421C12.3509 11.2331 12.3443 11.2274 12.3333 11.2252H12.2903V11.2454L12.3101 11.2926C12.3212 11.2926 12.33 11.2904 12.3366 11.2859C12.3432 11.2791 12.3267 11.2623 12.3432 11.2657C12.3521 11.2701 12.3565 11.2791 12.3565 11.2926L12.373 11.3297C12.3697 11.3432 12.3565 11.3297 12.3532 11.3196C12.3465 11.3106 12.3377 11.3072 12.3267 11.3095C12.3179 11.3095 12.3156 11.3117 12.3201 11.3162L12.3399 11.3668C12.3487 11.3758 12.3598 11.3792 12.373 11.3769C12.3885 11.3769 12.3995 11.3735 12.4061 11.3668C12.4127 11.36 12.3995 11.3466 12.4061 11.3398C12.4194 11.3421 12.4249 11.3477 12.4227 11.3567L12.4326 11.3904H12.4194L12.3167 11.3971C12.3057 11.4016 12.2958 11.4005 12.287 11.3938C12.2803 11.3803 12.3035 11.387 12.3068 11.3769L12.2969 11.3466L12.2605 11.2488C12.2561 11.2376 12.2472 11.2297 12.234 11.2252C12.2274 11.2252 12.2141 11.2252 12.2208 11.2117H12.2539L12.3465 11.2083ZM11.4463 11.6904C11.4529 11.7062 11.4639 11.7152 11.4794 11.7174C11.5081 11.7241 11.5323 11.7365 11.5522 11.7545C11.5632 11.768 11.5687 11.7837 11.5687 11.8017C11.5665 11.8197 11.5555 11.8309 11.5356 11.8354C11.518 11.8421 11.4992 11.841 11.4794 11.832C11.4728 11.8287 11.4761 11.8455 11.4628 11.8421C11.4584 11.8331 11.4562 11.823 11.4562 11.8118L11.443 11.7781C11.4474 11.7713 11.4529 11.7736 11.4595 11.7848C11.4705 11.8073 11.4882 11.8197 11.5125 11.8219C11.5279 11.8219 11.5367 11.8152 11.539 11.8017C11.5367 11.7837 11.5279 11.7702 11.5125 11.7612L11.4463 11.7343C11.4368 11.7287 11.4289 11.7209 11.4231 11.7115C11.4173 11.7021 11.4139 11.6914 11.4132 11.6803C11.4154 11.6646 11.4242 11.6545 11.4397 11.65C11.4551 11.6455 11.4728 11.6455 11.4926 11.65C11.497 11.6455 11.5036 11.6444 11.5125 11.6466L11.5191 11.6668L11.529 11.6972C11.5202 11.7017 11.5147 11.6994 11.5125 11.6904C11.5036 11.6747 11.4926 11.6657 11.4794 11.6635C11.4661 11.6635 11.4551 11.6668 11.4463 11.6736V11.6904ZM11.6647 11.6331C11.6758 11.6354 11.6813 11.641 11.6813 11.65L11.6879 11.6769C11.6835 11.6837 11.678 11.6814 11.6713 11.6702C11.6691 11.6612 11.6614 11.6556 11.6482 11.6533H11.6085V11.6736L11.625 11.7208C11.636 11.7208 11.6449 11.7185 11.6515 11.714C11.6581 11.7073 11.6449 11.6938 11.6548 11.6904C11.6658 11.6949 11.6713 11.7028 11.6713 11.714L11.6846 11.7579C11.678 11.7646 11.6724 11.7612 11.668 11.7477C11.6636 11.7388 11.6548 11.7354 11.6416 11.7376C11.6327 11.7376 11.6294 11.7399 11.6316 11.7444L11.6515 11.7949C11.6559 11.8039 11.6636 11.8073 11.6747 11.8051C11.6901 11.8051 11.7033 11.8017 11.7144 11.7949C11.7166 11.7859 11.7166 11.777 11.7144 11.768C11.7254 11.7635 11.732 11.7668 11.7342 11.7781L11.7408 11.8118C11.7386 11.8185 11.7342 11.8208 11.7276 11.8185L11.6283 11.8253C11.6151 11.8253 11.6018 11.8354 11.5952 11.8253C11.5952 11.8118 11.6118 11.8152 11.6151 11.8051L11.6085 11.7781L11.5754 11.6769C11.5754 11.6657 11.5676 11.659 11.5522 11.6567C11.5412 11.6567 11.5367 11.6522 11.539 11.6432H11.572L11.6647 11.6331ZM11.8037 11.7747C11.8081 11.786 11.8148 11.7938 11.8236 11.7983C11.8368 11.7961 11.8457 11.7983 11.8501 11.8051C11.8501 11.8185 11.8335 11.8118 11.8269 11.8118L11.7739 11.8185C11.7651 11.8185 11.7585 11.8163 11.7541 11.8118C11.7541 11.7983 11.7706 11.8051 11.7739 11.7983L11.7706 11.7713L11.7375 11.6702C11.7331 11.6567 11.7254 11.6489 11.7144 11.6466C11.7033 11.6489 11.6978 11.6444 11.6978 11.6331H11.721C11.7431 11.6286 11.7673 11.6264 11.7938 11.6264C11.8059 11.6272 11.8176 11.6314 11.8275 11.6386C11.8374 11.6457 11.8452 11.6555 11.8501 11.6668C11.8567 11.6826 11.8567 11.6972 11.8501 11.7107C11.8324 11.7219 11.8137 11.7286 11.7938 11.7309C11.7894 11.7309 11.7894 11.7343 11.7938 11.741L11.8037 11.7747ZM11.7839 11.714H11.807C11.8181 11.7095 11.8225 11.7017 11.8203 11.6904C11.8203 11.6747 11.8148 11.6612 11.8037 11.65C11.7927 11.6387 11.7806 11.6365 11.7673 11.6432V11.6601L11.7839 11.714ZM11.9891 11.7646C11.9891 11.7736 11.9946 11.7803 12.0056 11.7848C12.0167 11.7848 12.0244 11.7882 12.0288 11.7949C12.0354 11.8051 12.0122 11.8017 12.0056 11.8017L11.9527 11.8051C11.9438 11.8051 11.9383 11.8017 11.9361 11.7949C11.9427 11.7882 11.9593 11.7949 11.9593 11.7815L11.9494 11.741L11.9163 11.6432C11.9141 11.6365 11.9063 11.6342 11.8931 11.6365C11.8843 11.6365 11.8765 11.6399 11.8699 11.6466V11.6736C11.8611 11.6781 11.8567 11.6747 11.8567 11.6635L11.8435 11.6297C11.8457 11.623 11.8512 11.6196 11.86 11.6196L11.9957 11.6129C12.0067 11.6129 12.0122 11.6185 12.0122 11.6297L12.0255 11.6635C12.0189 11.668 12.0134 11.6657 12.0089 11.6567C12.0023 11.6432 11.9913 11.6354 11.9758 11.6331H11.9494L11.956 11.6567L11.9891 11.7646ZM12.0586 11.6533C12.0586 11.6399 12.052 11.6309 12.0387 11.6264C12.0299 11.6286 12.0233 11.6241 12.0189 11.6129H12.0387L12.0983 11.6061C12.1082 11.6028 12.1149 11.6196 12.1049 11.6196C12.095 11.6196 12.0851 11.6264 12.0884 11.6365L12.1049 11.6904L12.1281 11.7646C12.1303 11.7713 12.1358 11.7758 12.1446 11.7781C12.1579 11.7758 12.1645 11.7803 12.1645 11.7916H12.1413L12.0884 11.7983C12.0818 11.7983 12.0685 11.7916 12.0751 11.7848C12.0862 11.7848 12.0928 11.7803 12.095 11.7713L12.0851 11.7309L12.0586 11.6533ZM12.2506 11.5994C12.2594 11.6017 12.2638 11.6073 12.2638 11.6163L12.2704 11.6432C12.2638 11.65 12.2583 11.6477 12.2539 11.6365C12.2517 11.6253 12.2439 11.6185 12.2307 11.6163H12.1943V11.6399L12.2108 11.6837L12.2373 11.6769C12.2439 11.6736 12.2307 11.6567 12.2406 11.6567C12.2517 11.659 12.2572 11.6657 12.2572 11.6769C12.2594 11.6927 12.2638 11.7073 12.2704 11.7208C12.2638 11.7275 12.2583 11.7253 12.2539 11.714C12.2495 11.7028 12.2406 11.6983 12.2274 11.7005C12.2241 11.7005 12.2108 11.7005 12.2175 11.7073L12.234 11.7579C12.2406 11.7668 12.2483 11.7713 12.2572 11.7713C12.2726 11.7713 12.2859 11.768 12.2969 11.7612L12.3002 11.7309C12.3112 11.7286 12.3167 11.7331 12.3167 11.7444L12.3234 11.7781C12.3234 11.7848 12.319 11.7871 12.3101 11.7848L12.2108 11.7882H12.1777C12.1744 11.7747 12.1943 11.7781 12.1976 11.7713L12.1943 11.7444L12.1612 11.6432C12.1612 11.6297 12.1535 11.6219 12.138 11.6196C12.1314 11.6196 12.1182 11.6129 12.1248 11.6061H12.1579L12.2539 11.5994H12.2506ZM12.3167 11.6331C12.3123 11.6196 12.3035 11.6118 12.2903 11.6095C12.2803 11.6129 12.2737 11.5893 12.2903 11.596H12.3399L12.3631 11.6264L12.4359 11.7241L12.4326 11.714L12.4458 11.5927C12.4525 11.5859 12.469 11.5927 12.4789 11.5859C12.4889 11.5859 12.512 11.5859 12.5054 11.5994C12.49 11.5994 12.4833 11.6061 12.4855 11.6196L12.5253 11.741C12.5275 11.7545 12.5363 11.7601 12.5517 11.7579C12.5617 11.7579 12.5617 11.7781 12.5517 11.7747H12.4922C12.4767 11.7792 12.469 11.7758 12.469 11.7646C12.4789 11.7646 12.4955 11.7579 12.4889 11.7444L12.4558 11.6365V11.65L12.4491 11.7511L12.4458 11.7781C12.437 11.7781 12.4315 11.7747 12.4293 11.768L12.3333 11.6432L12.3399 11.6533L12.3697 11.7511C12.3741 11.7624 12.3829 11.768 12.3962 11.768C12.405 11.777 12.4028 11.7815 12.3896 11.7815H12.3399C12.3311 11.777 12.3311 11.7725 12.3399 11.768C12.3532 11.7635 12.3554 11.7545 12.3465 11.741L12.3167 11.6331ZM12.6047 11.6601H12.6212C12.6323 11.6623 12.64 11.6578 12.6444 11.6466C12.6444 11.6309 12.6389 11.6174 12.6279 11.6061C12.6146 11.5994 12.6014 11.5972 12.5882 11.5994V11.6163L12.6047 11.6601ZM12.6212 11.714L12.6345 11.7477C12.6455 11.7522 12.6555 11.7534 12.6643 11.7511C12.6731 11.7511 12.6775 11.7455 12.6775 11.7343C12.6775 11.7118 12.6676 11.6949 12.6477 11.6837H12.6146V11.6938L12.6212 11.714ZM12.5584 11.6331C12.5584 11.6196 12.5517 11.6084 12.5385 11.5994C12.5275 11.5994 12.5209 11.596 12.5186 11.5893C12.5153 11.5792 12.5352 11.5893 12.5418 11.5859H12.6312C12.6577 11.5949 12.672 11.6129 12.6742 11.6399C12.672 11.6533 12.6643 11.6635 12.651 11.6702H12.6676C12.6852 11.6769 12.6985 11.6904 12.7073 11.7107C12.7161 11.7241 12.7161 11.7388 12.7073 11.7545C12.6919 11.7657 12.6753 11.7702 12.6577 11.768L12.5815 11.7713C12.5716 11.7713 12.5683 11.7545 12.5815 11.7579C12.5926 11.7556 12.5948 11.7477 12.5882 11.7343L12.5584 11.6331ZM12.7272 11.6264C12.7272 11.6129 12.7205 11.6017 12.7073 11.5927C12.6963 11.5927 12.6897 11.5893 12.6874 11.5826C12.6941 11.5724 12.7073 11.5826 12.7205 11.5792H12.7867C12.8154 11.5814 12.8342 11.5972 12.843 11.6264C12.8474 11.6444 12.843 11.6578 12.8298 11.6668L12.8165 11.6736C12.8386 11.6826 12.854 11.696 12.8629 11.714L12.8794 11.741C12.886 11.7432 12.8893 11.7399 12.8893 11.7309C12.9026 11.7241 12.9092 11.741 12.9026 11.7511C12.8938 11.7646 12.8827 11.7691 12.8695 11.7646C12.8637 11.7639 12.8582 11.7616 12.8536 11.7581C12.8489 11.7545 12.8453 11.7498 12.843 11.7444L12.8099 11.6871C12.7989 11.6803 12.7889 11.6792 12.7801 11.6837V11.6972L12.7967 11.7376C12.8033 11.7466 12.8121 11.7511 12.8231 11.7511C12.8364 11.7511 12.8364 11.768 12.8231 11.7646H12.7404C12.7338 11.7477 12.7536 11.7545 12.7603 11.7477L12.7536 11.7174L12.7272 11.6264ZM12.7702 11.6601C12.7735 11.6702 12.79 11.6601 12.7967 11.6601C12.8077 11.6578 12.8121 11.6522 12.8099 11.6432C12.8099 11.6253 12.8044 11.6106 12.7934 11.5994C12.7823 11.5927 12.7713 11.5915 12.7603 11.596C12.7558 11.5983 12.7558 11.6039 12.7603 11.6129L12.7702 11.6567V11.6601ZM12.9986 11.5724C13.0074 11.5747 13.0118 11.5803 13.0118 11.5893C13.0118 11.5983 13.0151 11.6073 13.0217 11.6163C13.0129 11.623 13.0063 11.6208 13.0019 11.6095C13.0019 11.5983 12.9953 11.5915 12.982 11.5893H12.939C12.9346 11.5938 12.9346 11.6005 12.939 11.6095L12.9522 11.6567C12.9633 11.6567 12.9721 11.6545 12.9787 11.65C12.9886 11.6466 12.9754 11.6331 12.9853 11.6264C12.9964 11.6286 13.0008 11.6365 12.9986 11.65C13.0008 11.6657 13.0052 11.6803 13.0118 11.6938C13.0052 11.7005 12.9997 11.6983 12.9953 11.6871C12.993 11.6758 12.9853 11.6713 12.9721 11.6736C12.9688 11.6736 12.9555 11.6668 12.9588 11.6736L12.9754 11.7309C12.9798 11.7399 12.9875 11.7432 12.9986 11.741C13.014 11.741 13.0272 11.7388 13.0383 11.7343L13.0416 11.7073C13.0548 11.7028 13.0603 11.7062 13.0581 11.7174L13.0648 11.7511C13.0626 11.7579 13.0581 11.7601 13.0515 11.7579H12.9489C12.9379 11.7601 12.9291 11.7601 12.9224 11.7579C12.9125 11.7444 12.9291 11.7477 12.9357 11.741C12.9423 11.7343 12.9357 11.7241 12.9357 11.7174L12.9059 11.6129C12.9059 11.5994 12.8993 11.5915 12.886 11.5893C12.8684 11.5893 12.8629 11.5848 12.8695 11.5758H12.9026L12.9986 11.5724ZM11.913 12.0141C11.913 12.0006 11.9063 11.9893 11.8931 11.9804C11.8799 11.9804 11.8743 11.977 11.8765 11.9702L11.9096 11.9669H11.9891C12.0332 11.9781 12.0619 12.004 12.0751 12.0444C12.084 12.0714 12.0818 12.0972 12.0685 12.122C12.0487 12.1422 12.0244 12.1512 11.9957 12.1489C11.9736 12.1489 11.9527 12.1512 11.9328 12.1557C11.9262 12.159 11.913 12.1523 11.9196 12.1422C11.9328 12.1422 11.9394 12.1366 11.9394 12.1253L11.9262 12.0748L11.913 12.0141ZM11.9659 12.0984C11.9681 12.1096 11.9725 12.1197 11.9792 12.1287C11.9902 12.1332 12.0012 12.1332 12.0122 12.1287C12.0277 12.1287 12.0376 12.1186 12.042 12.0984C12.0446 12.0729 12.04 12.0471 12.0288 12.0242C12.0245 12.0137 12.0177 12.0046 12.0091 11.9975C12.0004 11.9904 11.9901 11.9857 11.9792 11.9837H11.9427V11.9972L11.9659 12.0984ZM12.2009 11.9466C12.2097 11.9489 12.2141 11.9545 12.2141 11.9635L12.2208 11.9938C12.2119 11.9983 12.2064 11.9961 12.2042 11.9871C12.1998 11.9759 12.1932 11.9691 12.1844 11.9669H12.1413C12.1369 11.9714 12.1369 11.9781 12.1413 11.9871C12.1413 12.0051 12.1446 12.0208 12.1513 12.0343C12.1623 12.0343 12.1711 12.0321 12.1777 12.0276C12.1844 12.0208 12.1744 12.0073 12.1844 12.004C12.1932 12.0085 12.1976 12.0163 12.1976 12.0276L12.2075 12.0714C12.2075 12.0815 12.191 12.0714 12.191 12.0646C12.1888 12.0534 12.181 12.0489 12.1678 12.0512C12.1645 12.0512 12.1513 12.0478 12.1579 12.0545C12.1579 12.0703 12.1623 12.0882 12.1711 12.1085C12.1733 12.1175 12.181 12.1208 12.1943 12.1186C12.2097 12.1186 12.223 12.1152 12.234 12.1085L12.2406 12.0815C12.2472 12.077 12.2517 12.0815 12.2539 12.095L12.2605 12.1287C12.2561 12.1332 12.2506 12.1343 12.2439 12.1321L12.1446 12.1388C12.1336 12.1433 12.1237 12.1433 12.1149 12.1388C12.1104 12.1298 12.1149 12.1253 12.1281 12.1253C12.1369 12.1186 12.138 12.1107 12.1314 12.1017L12.1082 11.9938C12.1038 11.9804 12.0972 11.9725 12.0884 11.9702C12.0751 11.9702 12.0696 11.9658 12.0718 11.9568H12.1049L12.2009 11.9466ZM12.416 12.0849C12.416 12.0961 12.4227 12.104 12.4359 12.1085C12.4447 12.1085 12.4525 12.1107 12.4591 12.1152C12.4624 12.1253 12.4458 12.122 12.4392 12.122L12.3829 12.1253H12.3565C12.3476 12.1208 12.3487 12.1163 12.3598 12.1118C12.3708 12.1118 12.3785 12.1073 12.3829 12.0984L12.3796 12.0714L12.3565 11.977C12.3565 11.968 12.3498 11.9646 12.3366 11.9669C12.3278 11.9714 12.3201 11.9702 12.3134 11.9635C12.3134 11.95 12.33 11.9534 12.3366 11.95L12.373 11.9365C12.3796 11.9365 12.3829 11.9399 12.3829 11.9466L12.416 12.0849ZM12.5385 11.9736C12.5385 11.9579 12.5308 11.9489 12.5153 11.9466C12.5021 11.9466 12.4933 11.95 12.4889 11.9568C12.4844 11.9702 12.4889 11.9815 12.5021 11.9905L12.5319 12.0073L12.5385 11.9871V11.9736ZM12.565 12.0714C12.5606 12.0557 12.5495 12.0444 12.5319 12.0377L12.5153 12.0343C12.5102 12.038 12.5062 12.0432 12.5039 12.0492C12.5015 12.0552 12.5009 12.0617 12.5021 12.068C12.5087 12.0905 12.5197 12.1017 12.5352 12.1017C12.5484 12.1062 12.5595 12.1017 12.5683 12.0882V12.0714H12.565ZM12.5981 12.0646C12.5981 12.0826 12.5915 12.0972 12.5782 12.1085C12.5606 12.1197 12.5385 12.122 12.512 12.1152C12.4922 12.1107 12.4789 12.0972 12.4723 12.0748C12.4723 12.0568 12.4778 12.041 12.4889 12.0276C12.4922 12.0276 12.5054 12.0242 12.4955 12.0208C12.4756 12.0141 12.4646 12.0006 12.4624 11.9804C12.4558 11.9624 12.4613 11.9478 12.4789 11.9365C12.4936 11.9288 12.5105 11.927 12.5264 11.9314C12.5424 11.9357 12.5561 11.946 12.565 11.9601C12.5716 11.9759 12.5716 11.9893 12.565 12.0006L12.5451 12.0174C12.5628 12.0197 12.576 12.0287 12.5848 12.0444C12.5915 12.0489 12.5948 12.0557 12.5948 12.0646H12.5981ZM12.704 12.0849C12.7128 12.0849 12.7183 12.0804 12.7205 12.0714C12.7239 12.0646 12.7205 12.0478 12.7305 12.0512C12.7371 12.0512 12.7404 12.0579 12.7404 12.0714C12.7426 12.0849 12.7382 12.0972 12.7272 12.1085C12.7205 12.113 12.7117 12.1141 12.7007 12.1118H12.6444C12.6356 12.1163 12.6279 12.1163 12.6212 12.1118V12.0882C12.6301 12.0658 12.6411 12.0478 12.6543 12.0343C12.6698 12.0253 12.6786 12.0129 12.6808 11.9972L12.6742 11.9568C12.6719 11.953 12.6688 11.9497 12.6652 11.9471C12.6615 11.9445 12.6574 11.9427 12.6531 11.9418C12.6488 11.9408 12.6444 11.9408 12.64 11.9416C12.6357 11.9424 12.6315 11.9442 12.6279 11.9466C12.6168 11.9534 12.6135 11.9613 12.6179 11.9702C12.6246 11.977 12.6378 11.9702 12.6411 11.9837C12.6455 11.995 12.6422 12.0017 12.6312 12.004C12.6201 12.0062 12.6091 11.9983 12.5981 11.9804C12.5937 11.9601 12.6003 11.9444 12.6179 11.9332C12.6356 11.9219 12.6543 11.9197 12.6742 11.9264C12.6941 11.9332 12.7073 11.9466 12.7139 11.9669C12.7183 11.9804 12.7172 11.995 12.7106 12.0107L12.6543 12.068C12.6499 12.0725 12.6488 12.0792 12.651 12.0882C12.6554 12.0815 12.661 12.0792 12.6676 12.0815L12.704 12.0849ZM12.8331 12.0714C12.8331 12.0804 12.8397 12.0871 12.8529 12.0916C12.8618 12.0916 12.8695 12.0939 12.8761 12.0984C12.8827 12.1085 12.8662 12.1085 12.8596 12.1085H12.7702C12.7658 12.0995 12.768 12.095 12.7768 12.095C12.7856 12.095 12.7934 12.0905 12.8 12.0815V12.0545L12.7768 11.9601C12.7746 11.9511 12.7691 11.9478 12.7603 11.95C12.7514 11.9523 12.7437 11.9523 12.7371 11.95C12.7305 11.9365 12.747 11.9365 12.7536 11.9332L12.7934 11.9197C12.8022 11.9197 12.8066 11.923 12.8066 11.9298L12.8331 12.0714Z" fill="#B07E09"/>
<path d="M11.8898 9.31958L11.764 9.47466C11.7243 9.64996 11.8236 9.78481 12.0189 9.89944C12.1744 10.0006 12.4657 10.0242 12.5584 9.94326L12.1049 9.505L11.8898 9.31958Z" fill="url(#paint9_radial_720_53515)" stroke="#4C0505" stroke-width="0.006684"/>
<path d="M12.8104 13.8697L12.7442 13.7854C12.4562 14.1832 12.0867 14.5123 11.6614 14.7501C12.1614 14.6084 12.4892 14.2374 12.8104 13.8697ZM12.2972 15.0739C12.4835 14.7025 12.6845 14.3391 12.8998 13.9844L12.8303 13.8934C12.5853 14.3048 12.3005 14.7939 12.3005 15.0739H12.2972ZM13.6813 11.2119C13.6499 11.0608 13.6021 10.9138 13.5389 10.7734C13.1835 10.1641 12.6851 9.65421 12.0885 9.28935V9.27923H12.1018L12.0985 9.27586H12.1117L12.1051 9.26574H12.1183L12.1084 9.25225H12.1217L12.1117 9.24213H12.1283L12.1183 9.22864H12.1316L12.1183 9.21852L12.1382 9.21515L12.1217 9.20503L12.1382 9.20166L12.125 9.19154L12.1448 9.18479L12.1283 9.17467L12.1482 9.16455L12.1283 9.15106L12.1515 9.14432L12.125 9.1342L12.1482 9.12071H12.1217L12.1382 9.0971H12.115L12.125 9.08023H12.1051L12.115 9.06337L12.0919 9.06674L12.1018 9.0465L12.0819 9.05999L12.0885 9.03638L12.0654 9.04988L12.0687 9.02627L12.0488 9.04313L12.0521 9.01952L12.0356 9.03638V9.01277L12.019 9.03301V9.0094L12.0058 9.02627L11.9991 9.00603L11.9859 9.02627L11.9826 9.00266L11.9726 9.02627L11.966 9.00266L11.9561 9.02627L11.9495 9.00603L11.9428 9.02627L11.9362 9.00603L11.9296 9.03301L11.923 9.0094L11.913 9.03638L11.9031 9.01277V9.03976L11.8899 9.01615V9.04313L11.8733 9.02289V9.04988L11.8601 9.02964V9.05325L11.8468 9.04313L11.8534 9.06674L11.8369 9.05662L11.8435 9.07686L11.8303 9.07011L11.8336 9.09035H11.8203L11.8269 9.10384H11.817L11.8236 9.11733C11.8116 9.15541 11.8071 9.19553 11.8104 9.23538C11.8104 9.24213 11.8303 9.24888 11.8336 9.25562L11.8402 9.27586C11.7872 9.36356 11.7409 9.43101 11.7375 9.5322C11.7773 9.47823 11.8236 9.41078 11.8832 9.41078C11.8534 9.46137 11.8402 9.61652 11.8733 9.64013L11.8998 9.59628C11.8998 9.63001 11.9042 9.65587 11.913 9.67386C11.9219 9.65138 11.9329 9.63226 11.9462 9.61652C11.9462 9.66824 11.9528 9.70534 11.966 9.72783C11.9815 9.70309 11.9991 9.6851 12.019 9.67386C12.0102 9.70309 12.0069 9.73345 12.0091 9.76493C12.0289 9.73345 12.0499 9.70534 12.072 9.68061C12.0587 9.73457 12.072 9.77505 12.0852 9.83239C12.0985 9.76493 12.1051 9.75481 12.1349 9.72783C12.1382 9.79191 12.1283 9.84925 12.1415 9.88635C12.168 9.82901 12.1879 9.83576 12.2078 9.79866C12.2011 9.85262 12.1912 9.90996 12.2078 9.95718C12.2187 9.92169 12.2408 9.89085 12.2707 9.86949C12.2707 9.94369 12.2872 9.9302 12.2442 9.99429C12.264 10.001 12.327 9.98079 12.3634 9.96393C12.3468 10.0044 12.3501 10.0348 12.3336 10.0651C12.3667 10.0426 12.3987 10.0156 12.4296 9.98417C12.4164 10.0314 12.3799 10.0786 12.3965 10.1225C12.4098 10.0775 12.4351 10.0494 12.4727 10.0381C12.466 10.0617 12.4627 10.1123 12.4296 10.1359C12.5091 10.1427 12.5422 10.0887 12.5819 10.0449C12.5786 10.0887 12.5819 10.1258 12.6349 10.1899C12.625 10.109 12.6415 10.1258 12.678 10.0786C12.6978 10.1494 12.7177 10.227 12.7906 10.281C12.7574 10.2034 12.7574 10.1629 12.7707 10.1157C12.7806 10.1663 12.827 10.227 12.8369 10.2709C12.8435 10.2169 12.8546 10.1719 12.87 10.1359C12.8944 10.1963 12.91 10.2599 12.9164 10.3248C12.9341 10.2911 12.9462 10.2574 12.9528 10.2236C13.6085 10.9151 13.7542 11.7988 13.0356 12.7331C13.2939 12.5577 13.3601 12.2777 13.5025 12.0383C13.3634 12.3519 13.3038 12.7027 13.0555 12.9624C13.2939 12.7533 13.3436 12.5611 13.4859 12.3587C13.3369 12.7803 13.1217 13.2424 12.8303 13.6674L12.9892 13.8428L13.1217 13.61C13.433 13.0906 13.9396 12.3452 13.6846 11.2119H13.6813Z" fill="#448127" stroke="#34541F" stroke-width="0.006684"/>
<path d="M11.8037 9.18143C11.7707 9.18814 11.7576 9.20156 11.7312 9.2284C11.7619 9.23511 11.7905 9.23846 11.8168 9.23846C11.8234 9.23399 11.8267 9.22728 11.8267 9.21833L11.8201 9.18478C11.8201 9.17807 11.8004 9.18143 11.7938 9.18478L11.8037 9.18143Z" fill="#EAC102" stroke="#A08307" stroke-width="0.006684"/>
<path d="M11.9531 9.21151C11.9677 9.21151 11.9795 9.1995 11.9795 9.18468C11.9795 9.16985 11.9677 9.15784 11.9531 9.15784C11.9386 9.15784 11.9268 9.16985 11.9268 9.18468C11.9268 9.1995 11.9386 9.21151 11.9531 9.21151Z" fill="black" stroke="black" stroke-width="0.003342"/>
<path d="M11.9601 9.19543C11.9657 9.19543 11.9702 9.18928 11.9702 9.18169C11.9702 9.17409 11.9657 9.16794 11.9601 9.16794C11.9545 9.16794 11.95 9.17409 11.95 9.18169C11.95 9.18928 11.9545 9.19543 11.9601 9.19543Z" fill="url(#paint10_radial_720_53515)"/>
<path d="M12.3011 15.0638C12.3611 14.8616 12.4433 14.667 12.5462 14.4836C12.6198 14.3437 12.6982 14.2064 12.7813 14.0721L12.8674 13.9372L12.7846 14.0721L12.5528 14.487C12.456 14.672 12.3719 14.8636 12.3011 15.0604V15.0638ZM11.6753 14.7433C12.0621 14.5717 12.4002 14.3038 12.6588 13.9642C12.5284 14.0901 12.4046 14.223 12.2879 14.3622C12.1044 14.5209 11.8977 14.6495 11.6753 14.7433ZM12.9104 13.7551C12.9369 13.7191 12.9612 13.682 12.9833 13.6438C13.0544 13.5321 13.1207 13.4173 13.182 13.2997L13.3078 13.0636L13.4303 12.8275L13.374 12.9456L13.3144 13.067C13.2342 13.2248 13.1491 13.38 13.0595 13.5325L12.9104 13.7551ZM13.1058 12.9085C13.2195 12.7717 13.3142 12.6196 13.3873 12.4565C13.4947 12.2107 13.5618 11.9487 13.586 11.6808L13.5827 11.8157C13.5547 12.0388 13.4897 12.2555 13.3906 12.4565C13.3158 12.6194 13.22 12.7714 13.1058 12.9085Z" fill="#34541F"/>
<path d="M13.0527 12.7122C13.1685 12.5868 13.2655 12.4449 13.3407 12.2908C13.3961 12.1758 13.4447 12.0576 13.4863 11.9368L13.4962 11.9064L13.5062 11.8761L13.526 11.8154C13.5596 11.6442 13.5619 11.4682 13.5327 11.2962C13.5347 11.3832 13.5424 11.4699 13.5558 11.5558C13.5558 11.6457 13.5481 11.7323 13.5327 11.8154L13.5128 11.8795L13.5029 11.9098L13.4896 11.9401L13.344 12.2975C13.3075 12.3747 13.2654 12.4491 13.2182 12.52C13.17 12.591 13.1146 12.6565 13.0527 12.7155V12.7122Z" fill="#34541F"/>
<path d="M12.8574 13.6977C12.8994 13.6438 12.9391 13.5876 12.9766 13.5291L13.0362 13.4448L13.0925 13.3604L13.1919 13.1783L13.278 12.9928C13.3376 12.8691 13.3928 12.7421 13.4435 12.6117C13.5425 12.3549 13.6017 12.0841 13.619 11.8089C13.6473 11.5337 13.618 11.2555 13.5329 10.9927C13.6269 11.2534 13.6586 11.5332 13.6257 11.8089C13.6081 12.0852 13.5489 12.3571 13.4502 12.615C13.3994 12.7432 13.3442 12.8691 13.2846 12.9928L13.1919 13.1783C13.1632 13.2413 13.1312 13.302 13.0958 13.3604L13.0395 13.4481L12.9799 13.5325L12.8607 13.7011L12.8574 13.6977Z" fill="#34541F"/>
<path d="M12.9501 13.8023C13.1059 13.5428 13.2539 13.2784 13.3938 13.0097C13.596 12.6001 13.695 12.1457 13.6819 11.6875C13.6819 11.5346 13.6687 11.3839 13.6422 11.2355H13.6455C13.6742 11.3862 13.6874 11.5368 13.6852 11.6875C13.6844 11.9917 13.6443 12.2945 13.566 12.5881C13.5224 12.7341 13.4671 12.8763 13.4005 13.013C13.2594 13.2807 13.1103 13.5439 12.9534 13.8023H12.9501ZM12.0295 9.36694H12.0759C12.1231 9.37435 12.1689 9.38914 12.2117 9.41079C12.3222 9.47082 12.4228 9.54822 12.5097 9.64015C12.4216 9.55141 12.3212 9.4764 12.2117 9.41754C12.1538 9.39144 12.0924 9.37438 12.0295 9.36694Z" fill="#34541F"/>
<path d="M12.5719 9.7312C12.5719 9.7312 12.6712 9.79188 12.7274 9.87953C12.7274 9.87953 12.5719 9.84919 12.4626 9.72446" fill="#448127"/>
<path d="M12.5718 9.7312C12.6354 9.76724 12.6899 9.81806 12.7306 9.87953L12.7339 9.88628H12.7273C12.6759 9.87406 12.6268 9.85358 12.5817 9.82559C12.5376 9.79862 12.4967 9.76491 12.4592 9.72446C12.5135 9.78229 12.5804 9.82619 12.6545 9.85256L12.7273 9.87616V9.88291C12.7074 9.85121 12.6828 9.82279 12.6545 9.79862L12.5718 9.7312Z" fill="#34541F"/>
<path d="M12.3467 9.70087C12.3467 9.70087 12.585 9.85594 12.6214 9.86943C12.6214 9.86943 12.5651 9.75144 12.4526 9.70087" fill="#448127"/>
<path d="M12.3467 9.70087L12.4824 9.78515L12.585 9.84583L12.6181 9.86606V9.86943C12.6003 9.83319 12.5768 9.80017 12.5486 9.77166C12.5206 9.74288 12.4882 9.71897 12.4526 9.70087C12.4903 9.71535 12.5243 9.73841 12.5519 9.76829C12.5804 9.79781 12.6039 9.832 12.6214 9.86943L12.628 9.87617L12.6181 9.8728L12.5486 9.83235L12.3467 9.70087Z" fill="#34541F"/>
<path d="M12.4426 9.62329C12.4426 9.62329 12.5651 9.67723 12.5949 9.76826C12.5949 9.76826 12.3698 9.67386 12.3301 9.62329" fill="#448127"/>
<path d="M12.4426 9.62329C12.4759 9.63654 12.5072 9.65471 12.5353 9.67723L12.5717 9.71769L12.5982 9.76826V9.775H12.5916C12.5123 9.73749 12.4349 9.69586 12.3599 9.65026L12.3301 9.62329L12.3599 9.64689L12.393 9.66712C12.457 9.70724 12.5246 9.7411 12.5949 9.76826H12.5916C12.5871 9.75252 12.5783 9.73791 12.5651 9.72443L12.532 9.68397C12.5053 9.65936 12.4752 9.63891 12.4426 9.62329Z" fill="#34541F"/>
<path d="M12.2539 9.7211C12.2539 9.7211 12.4724 9.87955 12.5385 9.87955C12.5385 9.87955 12.4724 9.7683 12.3598 9.7211" fill="#448127"/>
<path d="M12.2539 9.7211L12.4988 9.86606L12.5385 9.87618L12.5352 9.88292C12.5147 9.84771 12.489 9.81588 12.4591 9.78853C12.4293 9.76146 12.3958 9.73877 12.3598 9.7211C12.4165 9.74407 12.4665 9.78117 12.5054 9.82898L12.5385 9.87955L12.5452 9.88292H12.5385C12.5231 9.88292 12.5088 9.87955 12.4955 9.87281L12.4624 9.85595C12.3881 9.81918 12.3182 9.77394 12.2539 9.7211Z" fill="#34541F"/>
<path d="M12.2539 9.768C12.2539 9.768 12.3659 9.86865 12.4318 9.86865C12.4318 9.86865 12.3659 9.75793 12.2539 9.70761" fill="#448127"/>
<path d="M12.2539 9.768L12.3857 9.85187L12.4054 9.85858L12.4318 9.86529L12.4285 9.86865C12.4078 9.8348 12.3822 9.80427 12.3527 9.77807C12.323 9.75113 12.2897 9.72855 12.2539 9.71097C12.3099 9.73288 12.3597 9.76861 12.3988 9.81497L12.4318 9.86529L12.4384 9.872H12.4318L12.3791 9.85858C12.3482 9.84343 12.3194 9.82426 12.2934 9.80155L12.2539 9.768Z" fill="#34541F"/>
<path d="M12.1943 9.54907C12.1943 9.54907 12.4326 9.72101 12.4591 9.8154C12.4591 9.8154 12.2473 9.71426 12.2076 9.6637" fill="#448127"/>
<path d="M12.1943 9.54907C12.2839 9.61495 12.367 9.68946 12.4426 9.77158L12.4657 9.81203V9.82214L12.4591 9.81877L12.2341 9.68729L12.2672 9.70752C12.3302 9.74729 12.3967 9.78114 12.4657 9.80866L12.4591 9.8154L12.4359 9.77495C12.3877 9.71209 12.3322 9.65549 12.2705 9.60638L12.1943 9.54907Z" fill="#34541F"/>
<path d="M10.8699 14.4095C10.6617 14.5207 10.4293 14.5764 10.1943 14.5714C10.5255 14.2948 10.8467 14.288 10.8699 14.4095ZM13.1812 14.5612C13.3534 14.7198 13.8766 14.8311 13.9594 14.8108C13.6084 14.4499 13.2276 14.4128 13.1812 14.5612Z" fill="#406325" stroke="#24420E" stroke-width="0.006684"/>
<path d="M10.8699 14.4095C10.8467 14.2847 10.5222 14.2948 10.1943 14.5714C10.4103 14.4832 10.638 14.4286 10.8699 14.4095ZM13.1845 14.5579C13.2309 14.4095 13.6084 14.4466 13.9594 14.8108C13.7147 14.6883 13.4536 14.6031 13.1845 14.5579Z" fill="#67923D" stroke="#24420E" stroke-width="0.006684"/>
</g>
<defs>
<radialGradient id="paint0_radial_720_53515" cx="0" cy="0" r="1" gradientUnits="userSpaceOnUse" gradientTransform="translate(10.9494 12.3181) scale(0.546113 0.556258)">
<stop offset="0.2" stop-color="#F9F0AA"/>
<stop offset="1" stop-color="#B07E09"/>
</radialGradient>
<radialGradient id="paint1_radial_720_53515" cx="0" cy="0" r="1" gradientUnits="userSpaceOnUse" gradientTransform="translate(11.0885 12.4766) scale(0.360766 0.367467)">
<stop offset="0.2" stop-color="#F9F0AA"/>
<stop offset="1" stop-color="#B07E09"/>
</radialGradient>
<radialGradient id="paint2_radial_720_53515" cx="0" cy="0" r="1" gradientUnits="userSpaceOnUse" gradientTransform="translate(11.1713 12.3282) scale(0.324359 0.330384)">
<stop offset="0.2" stop-color="#F9F0AA"/>
<stop offset="1" stop-color="#B07E09"/>
</radialGradient>
<radialGradient id="paint3_radial_720_53515" cx="0" cy="0" r="1" gradientUnits="userSpaceOnUse" gradientTransform="translate(11.3138 12.2776) scale(0.575901 0.586599)">
<stop offset="0.2" stop-color="#F9F0AA"/>
<stop offset="1" stop-color="#B07E09"/>
</radialGradient>
<linearGradient id="paint4_linear_720_53515" x1="11.8272" y1="10.6621" x2="11.7757" y2="9.74479" gradientUnits="userSpaceOnUse">
<stop offset="0.2" stop-color="#B07E09" stop-opacity="0"/>
<stop offset="1" stop-color="#B07E09"/>
</linearGradient>
<linearGradient id="paint5_linear_720_53515" x1="12.1316" y1="11.9269" x2="12.214" y2="12.9352" gradientUnits="userSpaceOnUse">
<stop offset="0.2" stop-color="#B07E09" stop-opacity="0"/>
<stop offset="1" stop-color="#B07E09"/>
</linearGradient>
<radialGradient id="paint6_radial_720_53515" cx="0" cy="0" r="1" gradientUnits="userSpaceOnUse" gradientTransform="translate(10.9033 10.4326) scale(0.430272 0.438264)">
<stop offset="0.2" stop-color="#F9F0AA"/>
<stop offset="1" stop-color="#B07E09"/>
</radialGradient>
<linearGradient id="paint7_linear_720_53515" x1="11.0854" y1="10.3348" x2="11.2185" y2="10.0366" gradientUnits="userSpaceOnUse">
<stop offset="0.2" stop-color="#F9F0AA"/>
<stop offset="1" stop-color="#B07E09"/>
</linearGradient>
<linearGradient id="paint8_linear_720_53515" x1="11.8069" y1="9.92017" x2="11.8962" y2="11.0392" gradientUnits="userSpaceOnUse">
<stop offset="0.2" stop-color="#F9F0AA"/>
<stop offset="1" stop-color="#B07E09"/>
</linearGradient>
<radialGradient id="paint9_radial_720_53515" cx="0" cy="0" r="1" gradientUnits="userSpaceOnUse" gradientTransform="translate(11.9593 9.18136) scale(0.00992933 0.0101138)">
<stop offset="0.3" stop-color="#A50A0A"/>
<stop offset="1" stop-color="#4C0505"/>
</radialGradient>
<radialGradient id="paint10_radial_720_53515" cx="0" cy="0" r="1" gradientUnits="userSpaceOnUse" gradientTransform="translate(11.9596 9.1794) scale(0.00989013 0.0105521)">
<stop stop-color="white"/>
<stop offset="1" stop-color="white" stop-opacity="0"/>
</radialGradient>
<clipPath id="clip0_720_53515">
<rect width="24.0044" height="24.0044" fill="white" transform="translate(0.026123 0.0349121)"/>
</clipPath>
</defs>
</svg>
