<svg width="25" height="25" viewBox="0 0 25 25" fill="none" xmlns="http://www.w3.org/2000/svg">
<g clip-path="url(#clip0_720_53404)">
<path d="M0.0351562 0.0349426H7.53652V24.0393H0.0351562V0.0349426Z" fill="#CE1126"/>
<path d="M7.53638 0.0348816H24.0394V12.0371H7.53638V0.0348816Z" fill="#FCD116"/>
<path d="M7.53638 12.037H24.0394V24.0392H7.53638V12.037Z" fill="#009E49"/>
<path d="M3.78491 9.36371L2.87091 12.1767L4.27742 12.6337" fill="#000001"/>
<path d="M3.78491 9.36371L4.69892 12.1767L3.29241 12.6337" fill="#000001"/>
<path d="M6.5979 11.4074H3.64011V12.8863" fill="#000001"/>
<path d="M6.5979 11.4074L4.205 13.146L3.33573 11.9495" fill="#000001"/>
<path d="M5.52344 14.7143L4.60943 11.9013L3.20292 12.3583" fill="#000001"/>
<path d="M5.52344 14.7143L3.13054 12.9757L3.99981 11.7793" fill="#000001"/>
<path d="M2.04565 14.7143L4.43856 12.9757L3.56928 11.7793" fill="#000001"/>
<path d="M2.04565 14.7143L2.95966 11.9013L4.36617 12.3583" fill="#000001"/>
<path d="M0.971436 11.4074L3.36434 13.146L4.23361 11.9495" fill="#000001"/>
<path d="M0.971436 11.4074H3.92922V12.8863" fill="#000001"/>
</g>
<defs>
<clipPath id="clip0_720_53404">
<rect width="24.0044" height="24.0044" fill="white" transform="translate(0.0349121 0.0349121)"/>
</clipPath>
</defs>
</svg>
