<svg width="24" height="25" viewBox="0 0 24 25" fill="none" xmlns="http://www.w3.org/2000/svg">
<g clip-path="url(#clip0_720_53469)">
<path d="M-0.000244141 0.0393066H24.0041V24.0437H-0.000244141V0.0393066Z" fill="#D21034"/>
<path d="M-0.000244141 0.0393066H24.0041V12.0415H-0.000244141V0.0393066Z" fill="#00209F"/>
<path d="M8.21338 9.02222H15.7898V15.0514H8.21338V9.02222Z" fill="white"/>
<path d="M13.5253 13.3824L11.9781 13.4293L10.4403 13.4433C10.4403 13.4433 9.6527 13.7387 9.32921 13.8043C9.00571 13.87 9.04791 13.9731 8.79942 14.0294C8.59782 14.0763 8.57438 14.0903 8.45717 14.095C8.38685 14.0997 8.30246 14.156 8.21338 14.2169V15.0514H15.7898V14.2544C15.7115 14.2145 15.63 14.1816 15.546 14.156C15.4381 14.1185 15.3584 14.0763 15.1615 14.0294C14.913 13.9731 14.9552 13.87 14.6317 13.8043C14.3082 13.7387 13.5253 13.3824 13.5253 13.3824Z" fill="#016A16" stroke="#016A16" stroke-width="0.0140651"/>
<path d="M11.5601 11.5214H11.672L11.88 12.3772L11.832 12.6491L11.5601 11.5214Z" fill="#F1B517" stroke="black" stroke-width="0.0160029"/>
<path d="M11.4399 10.9454L11.5199 11.6092H11.5999L11.4399 10.9534V10.9454Z" fill="white" stroke="black" stroke-width="0.0160029"/>
<path d="M11.6559 12.4092L11.312 11.4894L11.44 11.4814L11.8399 12.6011L11.6559 12.4092Z" fill="#F1B517" stroke="black" stroke-width="0.0160029"/>
<path d="M11.1519 10.9614L11.2958 11.6012H11.4078L11.1519 10.9614Z" fill="white" stroke="black" stroke-width="0.0160029"/>
<path d="M11.3518 12.0893L11.1519 11.6495L11.2318 11.6335L11.6077 12.3533L11.3518 12.0893Z" fill="#F1B517" stroke="black" stroke-width="0.0160029"/>
<path d="M10.8799 11.1454L11.1118 11.7532H11.2238L10.8879 11.1454H10.8799Z" fill="white" stroke="black" stroke-width="0.0160029"/>
<path d="M11.3833 12.1531L10.4636 11.1534C10.1757 11.3773 10.2317 11.7932 10.2317 11.7932L11.2714 12.6089L11.3833 12.1531Z" fill="#0A328C" stroke="black" stroke-width="0.0160029"/>
<path d="M11.9115 12.6973L11.2317 12.0095C10.9438 12.0255 11.1677 12.4494 11.1837 12.5054L11.9035 13.1212L11.9115 12.6973Z" fill="#D20014" stroke="black" stroke-width="0.0160029"/>
<path d="M11.8479 12.5856L10.4477 11.0813L10.3917 11.1213L11.8799 12.7697L11.8479 12.5856ZM10.3677 10.9853L10.3357 10.9453V10.8733L10.0476 10.6893L10.1756 10.9853L10.2796 11.0013L10.3037 11.0333L10.3677 10.9853Z" fill="#F1B517" stroke="black" stroke-width="0.0160029"/>
<path d="M10.2158 11.0893C10.274 11.0155 10.3477 10.9554 10.4318 10.9133L10.5117 11.0333L10.3358 11.1773L10.2158 11.0973V11.0893Z" fill="#F1B517" stroke="black" stroke-width="0.0160029"/>
<path d="M10.0635 11.3451L10.1115 11.4251C10.1435 11.4171 10.4314 11.1452 10.4314 11.1452H10.6473L10.7033 11.0732C10.5433 10.9132 10.4074 11.0972 10.4074 11.0972L10.0635 11.3451Z" fill="#0A328C" stroke="#0A328C" stroke-width="0.0160029"/>
<path d="M10.2395 11.4811C10.2395 11.4011 10.3835 11.2251 10.3995 11.2171C10.5035 11.2491 10.5994 11.3131 10.7114 11.0732C10.6154 11.1851 10.4315 11.0732 10.4315 11.0732L10.3515 11.1372V11.1692L10.1116 11.3931L10.2395 11.4811Z" fill="#D20014" stroke="#D20014" stroke-width="0.0160029"/>
<path d="M10.9833 12.4172L9.83163 11.5054C9.63169 11.7054 9.79964 12.3212 9.79964 12.3212L10.9193 12.929L10.9753 12.4172H10.9833Z" fill="#0A328C" stroke="black" stroke-width="0.0160029"/>
<path d="M11.9354 13.1614L10.9837 12.3936C10.6638 12.4416 10.9198 12.9135 10.9357 12.9694L11.9354 13.5133V13.1614Z" fill="#D20014" stroke="black" stroke-width="0.0160029"/>
<path d="M11.896 13.0015L9.84763 11.4652L9.80762 11.5132L11.952 13.1935L11.896 13.0015ZM9.75161 11.3852L9.71961 11.3532L9.7036 11.2892L9.38354 11.1531L9.56758 11.4172H9.6716L9.7036 11.4492L9.75161 11.3852Z" fill="#F1B517" stroke="black" stroke-width="0.0160029"/>
<path d="M9.62354 11.5134C9.66889 11.4314 9.73169 11.3604 9.80748 11.3054L9.90345 11.4094L9.75949 11.5773L9.62354 11.5134Z" fill="#F1B517" stroke="black" stroke-width="0.0160029"/>
<path d="M9.51953 11.7693V11.8573C9.55152 11.8413 9.81544 11.5614 9.81544 11.5614L10.0154 11.5214L10.0634 11.4574C9.91941 11.2895 9.76746 11.5134 9.76746 11.5134L9.51953 11.7693Z" fill="#0A328C" stroke="#0A328C" stroke-width="0.0160029"/>
<path d="M9.67954 11.9213C9.66355 11.8413 9.77551 11.6174 9.79151 11.6014C9.91947 11.6414 10.0314 11.6974 10.0714 11.4415C9.99145 11.5694 9.79151 11.4735 9.79151 11.4735L9.72753 11.5534V11.5934L9.52759 11.8573L9.67954 11.9213Z" fill="#D20014" stroke="#D20014" stroke-width="0.0160029"/>
<path d="M10.8952 12.9773L9.41567 12.1376C9.3117 12.3215 9.40767 12.5774 9.45565 12.6174C9.45565 12.7374 9.40767 12.8014 9.51164 13.0573C9.54363 13.2279 9.61561 13.3612 9.72757 13.4572C9.85553 13.969 10.3834 14.009 10.5833 13.5851L10.8952 12.9773Z" fill="#0A328C" stroke="black" stroke-width="0.0160029"/>
<path d="M11.8634 13.5216L10.8637 12.9377C10.5438 12.9777 10.8637 13.5776 10.8877 13.6335L11.8634 13.9774V13.5216Z" fill="#D20014" stroke="black" stroke-width="0.0160029"/>
<path d="M11.696 13.3058L9.43158 12.1056L9.39157 12.1536L11.792 13.4898L11.696 13.3058ZM9.31956 12.0416L9.27955 12.0176L9.25555 11.9535L8.92749 11.8735L9.14353 12.1056L9.23955 12.0896L9.28756 12.1136L9.31956 12.0416Z" fill="#F1B517" stroke="black" stroke-width="0.0160029"/>
<path d="M9.21558 12.1855C9.2369 12.1108 9.28489 12.0309 9.35953 11.9456L9.4715 12.0335L9.35953 12.2255L9.21558 12.1855Z" fill="#F1B517" stroke="black" stroke-width="0.0160029"/>
<path d="M9.12744 12.4574L9.17543 12.5534L9.41535 12.1855L9.61529 12.1135L9.65528 12.0336C9.49533 11.8896 9.37537 12.1455 9.37537 12.1455L9.12744 12.4574Z" fill="#0A328C" stroke="#0A328C" stroke-width="0.0160029"/>
<path d="M9.34355 12.5854C9.32755 12.5054 9.38353 12.2495 9.39953 12.2415C9.51949 12.2815 9.62346 12.2895 9.65545 12.0336C9.57548 12.1535 9.39153 12.1135 9.39153 12.1135L9.33555 12.1935L9.34355 12.2255L9.18359 12.5454L9.34355 12.5854Z" fill="#D20014" stroke="#D20014" stroke-width="0.0160029"/>
<path d="M12.4326 11.5214H12.3207L12.1127 12.3772L12.1607 12.6491L12.4326 11.5214Z" fill="#F1B517" stroke="black" stroke-width="0.0160029"/>
<path d="M12.5527 10.9454L12.4728 11.6092H12.3928L12.5527 10.9534V10.9454Z" fill="white" stroke="black" stroke-width="0.0160029"/>
<path d="M12.3368 12.4092L12.6807 11.4894L12.5527 11.4814L12.1528 12.6011L12.3368 12.4092Z" fill="#F1B517" stroke="black" stroke-width="0.0160029"/>
<path d="M12.8406 10.9614L12.6966 11.6012H12.5847L12.8406 10.9614Z" fill="white" stroke="black" stroke-width="0.0160029"/>
<path d="M12.6406 12.0893L12.8406 11.6495L12.7606 11.6335L12.3847 12.3533L12.6406 12.0893Z" fill="#F1B517" stroke="black" stroke-width="0.0160029"/>
<path d="M13.1128 11.1454L12.8809 11.7532H12.7689L13.1048 11.1454H13.1128Z" fill="white" stroke="black" stroke-width="0.0160029"/>
<path d="M12.6093 12.1528L13.5291 11.1531C13.817 11.3771 13.761 11.7929 13.761 11.7929L12.7213 12.6087L12.6093 12.1528Z" fill="#0A328C" stroke="black" stroke-width="0.0160029"/>
<path d="M12.0809 12.6973L12.7607 12.0095C13.0486 12.0255 12.8247 12.4494 12.8087 12.5054L12.0889 13.1212L12.0809 12.6973Z" fill="#D20014" stroke="black" stroke-width="0.0160029"/>
<path d="M12.1447 12.5856L13.545 11.0813L13.601 11.1213L12.1127 12.7697L12.1447 12.5856ZM13.625 10.9853L13.657 10.9453V10.8733L13.9451 10.6893L13.817 10.9853L13.713 11.0013L13.689 11.0333L13.625 10.9853Z" fill="#F1B517" stroke="black" stroke-width="0.0160029"/>
<path d="M13.7771 11.0892C13.7189 11.0154 13.6452 10.9553 13.5612 10.9132L13.4812 11.0332L13.6571 11.1771L13.7771 11.0972V11.0892Z" fill="#F1B517" stroke="black" stroke-width="0.0160029"/>
<path d="M13.929 11.3451L13.881 11.4251C13.849 11.4171 13.5611 11.1452 13.5611 11.1452H13.3451L13.2891 11.0732C13.4491 10.9132 13.5851 11.0972 13.5851 11.0972L13.929 11.3451Z" fill="#0A328C" stroke="#0A328C" stroke-width="0.0160029"/>
<path d="M13.7531 11.4811C13.7531 11.4011 13.6092 11.2251 13.5932 11.2171C13.4892 11.2491 13.3933 11.3131 13.2813 11.0732C13.3773 11.1851 13.5612 11.0732 13.5612 11.0732L13.6412 11.1372V11.1692L13.8811 11.3931L13.7531 11.4811Z" fill="#D20014" stroke="#D20014" stroke-width="0.0160029"/>
<path d="M13.0094 12.4172L14.161 11.5054C14.361 11.7054 14.193 12.3212 14.193 12.3212L13.0734 12.929L13.0174 12.4172H13.0094Z" fill="#0A328C" stroke="black" stroke-width="0.0160029"/>
<path d="M12.057 13.1614L13.0087 12.3936C13.3286 12.4416 13.0727 12.9135 13.0567 12.9694L12.057 13.5133V13.1614Z" fill="#D20014" stroke="black" stroke-width="0.0160029"/>
<path d="M12.0964 13.0015L14.1448 11.4652L14.1848 11.5132L12.0404 13.1935L12.0964 13.0015ZM14.2408 11.3852L14.2728 11.3532L14.2888 11.2892L14.6089 11.1531L14.4249 11.4172H14.3208L14.2888 11.4492L14.2408 11.3852Z" fill="#F1B517" stroke="black" stroke-width="0.0160029"/>
<path d="M14.3689 11.5134C14.3235 11.4314 14.2607 11.3604 14.185 11.3054L14.089 11.4094L14.2329 11.5773L14.3689 11.5134Z" fill="#F1B517" stroke="black" stroke-width="0.0160029"/>
<path d="M14.4729 11.7693V11.8573C14.4409 11.8413 14.177 11.5614 14.177 11.5614L13.9771 11.5214L13.9291 11.4574C14.073 11.2895 14.225 11.5134 14.225 11.5134L14.4729 11.7693Z" fill="#0A328C" stroke="#0A328C" stroke-width="0.0160029"/>
<path d="M14.3131 11.9213C14.3291 11.8413 14.2172 11.6174 14.2012 11.6014C14.0732 11.6414 13.9612 11.6974 13.9213 11.4415C14.0012 11.5694 14.2012 11.4735 14.2012 11.4735L14.2651 11.5534V11.5934L14.4651 11.8573L14.3131 11.9213Z" fill="#D20014" stroke="#D20014" stroke-width="0.0160029"/>
<path d="M13.0975 12.9773L14.577 12.1376C14.681 12.3215 14.585 12.5774 14.537 12.6174C14.537 12.7374 14.585 12.8014 14.481 13.0573C14.449 13.2279 14.3771 13.3612 14.2651 13.4572C14.1371 13.969 13.6093 14.009 13.4094 13.5851L13.0975 12.9773Z" fill="#0A328C" stroke="black" stroke-width="0.0160029"/>
<path d="M12.129 13.5216L13.1287 12.9377C13.4486 12.9777 13.1287 13.5776 13.1047 13.6335L12.129 13.9774V13.5216Z" fill="#D20014" stroke="black" stroke-width="0.0160029"/>
<path d="M12.2967 13.3058L14.5611 12.1056L14.6011 12.1536L12.2007 13.4898L12.2967 13.3058ZM14.6731 12.0416L14.7131 12.0176L14.7371 11.9535L15.0652 11.8735L14.8491 12.1056L14.7531 12.0896L14.7051 12.1136L14.6731 12.0416Z" fill="#F1B517" stroke="black" stroke-width="0.0160029"/>
<path d="M14.7771 12.1855C14.7558 12.1108 14.7078 12.0309 14.6331 11.9456L14.5212 12.0335L14.6331 12.2255L14.7771 12.1855Z" fill="#F1B517" stroke="black" stroke-width="0.0160029"/>
<path d="M14.865 12.4574L14.817 12.5534L14.5771 12.1855L14.3771 12.1135L14.3372 12.0336C14.4971 11.8896 14.6171 12.1455 14.6171 12.1455L14.865 12.4574Z" fill="#0A328C" stroke="#0A328C" stroke-width="0.0160029"/>
<path d="M14.6491 12.5854C14.6651 12.5054 14.6091 12.2495 14.5931 12.2415C14.4732 12.2815 14.3692 12.2895 14.3372 12.0336C14.4172 12.1535 14.6011 12.1135 14.6011 12.1135L14.6571 12.1935L14.6491 12.2255L14.8091 12.5454L14.6491 12.5854Z" fill="#D20014" stroke="#D20014" stroke-width="0.0160029"/>
<path d="M11.9041 10.0891L11.8641 10.8089H12.0961L12.0641 10.0891L12.304 10.0651L12.28 9.77716L11.6802 9.80115V10.0571L11.9041 10.0891Z" fill="#016A16" stroke="#016A16" stroke-width="0.0160029"/>
<path d="M11.9839 9.79291C11.3601 9.1691 10.8722 9.47301 10.7603 9.56098C10.8402 9.57698 10.9042 9.52899 10.9442 9.52099L10.8642 9.61697C10.8642 9.61697 11.0642 9.53699 11.0882 9.53699C11.0562 9.56098 11.0242 9.61697 11.0242 9.61697C11.0402 9.61697 11.1521 9.52899 11.1681 9.52899C11.1361 9.56098 11.1281 9.64896 11.1281 9.64896L11.2241 9.60897C11.2481 9.62496 11.2161 9.65695 11.2321 9.65695C11.3921 9.64096 11.608 9.79291 11.632 9.8409" fill="#016A16"/>
<path d="M11.9839 9.79291C11.3601 9.1691 10.8722 9.47301 10.7603 9.56098C10.8402 9.57698 10.9042 9.52899 10.9442 9.52099L10.8642 9.61697C10.8642 9.61697 11.0642 9.53699 11.0882 9.53699C11.0562 9.56098 11.0242 9.61697 11.0242 9.61697C11.0402 9.61697 11.1521 9.52899 11.1681 9.52899C11.1361 9.56098 11.1281 9.64896 11.1281 9.64896L11.2241 9.60897C11.2481 9.62496 11.2161 9.65695 11.2321 9.65695C11.3921 9.64096 11.608 9.79291 11.632 9.8409" stroke="black" stroke-width="0.0160029"/>
<path d="M11.8318 9.90504C11.7678 9.76109 10.5842 9.50516 10.3442 9.92903C10.4402 9.95303 10.5282 9.84906 10.5282 9.84906V9.94503L10.6801 9.81707L10.6242 9.94503L10.7441 9.84106V9.94503L10.9041 9.78508L10.8801 9.87305L11.016 9.81707L11 9.89704" fill="#016A16"/>
<path d="M11.8318 9.90504C11.7678 9.76109 10.5842 9.50516 10.3442 9.92903C10.4402 9.95303 10.5282 9.84906 10.5282 9.84906V9.94503L10.6801 9.81707L10.6242 9.94503L10.7441 9.84106V9.94503L10.9041 9.78508L10.8801 9.87305L11.016 9.81707L11 9.89704" stroke="black" stroke-width="0.0160029"/>
<path d="M11.7758 9.92908C11.4719 9.72914 11.0081 9.8651 11.0081 9.8651C10.7042 10.025 10.5442 10.0011 10.5122 10.313C10.5362 10.305 10.6162 10.201 10.6162 10.201L10.6802 10.321L10.6962 10.153L10.7441 10.289L10.8241 10.065L10.8401 10.217L10.9521 10.065L11.0001 10.113L11.048 9.99306L11.096 10.073C11.096 10.073 11.176 10.025 11.216 10.049L11.296 9.95307L11.32 10.025L11.3999 9.94507L11.4239 10.0011L11.4959 9.93707V9.98506H11.7358" fill="#016A16"/>
<path d="M11.7758 9.92908C11.4719 9.72914 11.0081 9.8651 11.0081 9.8651C10.7042 10.025 10.5442 10.0011 10.5122 10.313C10.5362 10.305 10.6162 10.201 10.6162 10.201L10.6802 10.321L10.6962 10.153L10.7441 10.289L10.8241 10.065L10.8401 10.217L10.9521 10.065L11.0001 10.113L11.048 9.99306L11.096 10.073C11.096 10.073 11.176 10.025 11.216 10.049L11.296 9.95307L11.32 10.025L11.3999 9.94507L11.4239 10.0011L11.4959 9.93707V9.98506H11.7358" stroke="black" stroke-width="0.0160029"/>
<path d="M11.712 9.96118C11.4961 9.96118 10.8883 10.1931 10.7363 10.425L10.8403 10.3771L10.8643 10.473L10.9043 10.3771L10.9123 10.457C10.9336 10.3931 10.9656 10.3904 11.0082 10.449L11.0242 10.3611L11.0482 10.441L11.0882 10.3531C11.0882 10.3531 11.1122 10.449 11.1282 10.449C11.1282 10.449 11.1922 10.2731 11.2242 10.2651L11.2322 10.3771L11.2722 10.2651L11.3122 10.3451V10.2331L11.3601 10.3131C11.3601 10.3131 11.3761 10.2331 11.4081 10.2171L11.4721 10.2731L11.744 10.0731" fill="#016A16"/>
<path d="M11.712 9.96118C11.4961 9.96118 10.8883 10.1931 10.7363 10.425L10.8403 10.3771L10.8643 10.473L10.9043 10.3771L10.9123 10.457C10.9336 10.3931 10.9656 10.3904 11.0082 10.449L11.0242 10.3611L11.0482 10.441L11.0882 10.3531C11.0882 10.3531 11.1122 10.449 11.1282 10.449C11.1282 10.449 11.1922 10.2731 11.2242 10.2651L11.2322 10.3771L11.2722 10.2651L11.3122 10.3451V10.2331L11.3601 10.3131C11.3601 10.3131 11.3761 10.2331 11.4081 10.2171L11.4721 10.2731L11.744 10.0731" stroke="black" stroke-width="0.0160029"/>
<path d="M11.7522 10.0172C11.4723 10.1211 11.2163 10.513 11.2403 10.673C11.3603 10.513 11.3363 10.537 11.3923 10.7209C11.3923 10.7209 11.4083 10.561 11.4323 10.545L11.4723 10.657L11.4803 10.505H11.5202L11.5123 10.417L11.5682 10.457C11.5522 10.401 11.5442 10.385 11.6002 10.3371C11.6002 10.3371 11.5202 10.3451 11.5842 10.2171L11.6402 10.2651C11.6402 10.2651 11.6242 10.2091 11.6402 10.1851L11.8481 10.1211" fill="#016A16"/>
<path d="M11.7522 10.0172C11.4723 10.1211 11.2163 10.513 11.2403 10.673C11.3603 10.513 11.3363 10.537 11.3923 10.7209C11.3923 10.7209 11.4083 10.561 11.4323 10.545L11.4723 10.657L11.4803 10.505H11.5202L11.5123 10.417L11.5682 10.457C11.5522 10.401 11.5442 10.385 11.6002 10.3371C11.6002 10.3371 11.5202 10.3451 11.5842 10.2171L11.6402 10.2651C11.6402 10.2651 11.6242 10.2091 11.6402 10.1851L11.8481 10.1211" stroke="black" stroke-width="0.0160029"/>
<path d="M11.7762 10.0412L11.6723 10.2491L11.7283 10.2651L11.6003 10.3531L11.7043 10.3451C11.7043 10.3451 11.5443 10.4011 11.5283 10.561L11.6883 10.4811C11.6883 10.4811 11.5523 10.625 11.5283 10.713L11.6323 10.633C11.6323 10.633 11.5363 10.729 11.5523 10.8729L11.6243 10.793C11.6083 10.9769 11.6083 10.9929 11.6883 11.1289C11.6883 11.1289 11.6723 10.9209 11.6883 10.8889L11.8722 11.0809L11.7762 10.817C11.7762 10.817 11.8882 10.9769 11.9522 10.9689L11.8082 10.753L11.9522 10.865L11.7922 10.625L11.9362 10.673C11.9362 10.673 11.8322 10.537 11.8402 10.4491L11.9442 10.561C11.9442 10.561 11.9042 10.4411 11.9122 10.4011L11.9682 10.4091L11.8642 10.2971L11.9362 10.2811L11.9282 10.2012L11.9762 10.1932V10.1052M11.8882 10.1052C11.7123 10.3451 11.8002 10.705 11.6963 10.8969L11.8882 10.1052Z" fill="#016A16"/>
<path d="M11.7762 10.0412L11.6723 10.2491L11.7283 10.2651L11.6003 10.3531L11.7043 10.3451C11.7043 10.3451 11.5443 10.4011 11.5283 10.561L11.6883 10.4811C11.6883 10.4811 11.5523 10.625 11.5283 10.713L11.6323 10.633C11.6323 10.633 11.5363 10.729 11.5523 10.8729L11.6243 10.793C11.6083 10.9769 11.6083 10.9929 11.6883 11.1289C11.6883 11.1289 11.6723 10.9209 11.6883 10.8889L11.8722 11.0809L11.7762 10.817C11.7762 10.817 11.8882 10.9769 11.9522 10.9689L11.8082 10.753L11.9522 10.865L11.7922 10.625L11.9362 10.673C11.9362 10.673 11.8322 10.537 11.8402 10.4491L11.9442 10.561C11.9442 10.561 11.9042 10.4411 11.9122 10.4011L11.9682 10.4091L11.8642 10.2971L11.9362 10.2811L11.9282 10.2012L11.9762 10.1932V10.1052M11.8882 10.1052C11.7123 10.3451 11.8002 10.705 11.6963 10.8969" stroke="black" stroke-width="0.0160029"/>
<path d="M12.009 9.79291C12.6328 9.1691 13.1207 9.47301 13.2327 9.56098C13.1527 9.57698 13.0887 9.52899 13.0487 9.52099L13.1287 9.61697C13.1287 9.61697 12.9288 9.53699 12.9048 9.53699C12.9368 9.56098 12.9687 9.61697 12.9687 9.61697C12.9528 9.61697 12.8408 9.52899 12.8248 9.52899C12.8568 9.56098 12.8648 9.64896 12.8648 9.64896L12.7688 9.60897C12.7448 9.62496 12.7768 9.65695 12.7608 9.65695C12.6009 9.64096 12.3849 9.79291 12.3609 9.8409" fill="#016A16"/>
<path d="M12.009 9.79291C12.6328 9.1691 13.1207 9.47301 13.2327 9.56098C13.1527 9.57698 13.0887 9.52899 13.0487 9.52099L13.1287 9.61697C13.1287 9.61697 12.9288 9.53699 12.9048 9.53699C12.9368 9.56098 12.9687 9.61697 12.9687 9.61697C12.9528 9.61697 12.8408 9.52899 12.8248 9.52899C12.8568 9.56098 12.8648 9.64896 12.8648 9.64896L12.7688 9.60897C12.7448 9.62496 12.7768 9.65695 12.7608 9.65695C12.6009 9.64096 12.3849 9.79291 12.3609 9.8409" stroke="black" stroke-width="0.0160029"/>
<path d="M12.1614 9.90504C12.2254 9.76109 13.409 9.50516 13.6489 9.92903C13.553 9.95303 13.465 9.84906 13.465 9.84906V9.94503L13.313 9.81707L13.369 9.94503L13.249 9.84106V9.94503L13.0891 9.78508L13.1131 9.87305L12.9771 9.81707L12.9931 9.89704" fill="#016A16"/>
<path d="M12.1614 9.90504C12.2254 9.76109 13.409 9.50516 13.6489 9.92903C13.553 9.95303 13.465 9.84906 13.465 9.84906V9.94503L13.313 9.81707L13.369 9.94503L13.249 9.84106V9.94503L13.0891 9.78508L13.1131 9.87305L12.9771 9.81707L12.9931 9.89704" stroke="black" stroke-width="0.0160029"/>
<path d="M12.2171 9.92908C12.521 9.72914 12.9849 9.8651 12.9849 9.8651C13.2888 10.025 13.4487 10.0011 13.4807 10.313C13.4567 10.305 13.3767 10.201 13.3767 10.201L13.3128 10.321L13.2968 10.153L13.2488 10.289L13.1688 10.065L13.1528 10.217L13.0408 10.065L12.9929 10.113L12.9449 9.99306L12.8969 10.073C12.8969 10.073 12.8169 10.025 12.7769 10.049L12.6969 9.95307L12.673 10.025L12.593 9.94507L12.569 10.0011L12.497 9.93707V9.98506H12.2571" fill="#016A16"/>
<path d="M12.2171 9.92908C12.521 9.72914 12.9849 9.8651 12.9849 9.8651C13.2888 10.025 13.4487 10.0011 13.4807 10.313C13.4567 10.305 13.3767 10.201 13.3767 10.201L13.3128 10.321L13.2968 10.153L13.2488 10.289L13.1688 10.065L13.1528 10.217L13.0408 10.065L12.9929 10.113L12.9449 9.99306L12.8969 10.073C12.8969 10.073 12.8169 10.025 12.7769 10.049L12.6969 9.95307L12.673 10.025L12.593 9.94507L12.569 10.0011L12.497 9.93707V9.98506H12.2571" stroke="black" stroke-width="0.0160029"/>
<path d="M12.2811 9.96118C12.4971 9.96118 13.1049 10.1931 13.2568 10.425L13.1529 10.3771L13.1289 10.473L13.0889 10.3771L13.0809 10.457C13.0596 10.3931 13.0276 10.3904 12.9849 10.449L12.9689 10.3611L12.9449 10.441L12.9049 10.3531C12.9049 10.3531 12.8809 10.449 12.865 10.449C12.865 10.449 12.801 10.2731 12.769 10.2651L12.761 10.3771L12.721 10.2651L12.681 10.3451V10.2331L12.633 10.3131C12.633 10.3131 12.617 10.2331 12.585 10.2171L12.5211 10.2731L12.2491 10.0731" fill="#016A16"/>
<path d="M12.2811 9.96118C12.4971 9.96118 13.1049 10.1931 13.2568 10.425L13.1529 10.3771L13.1289 10.473L13.0889 10.3771L13.0809 10.457C13.0596 10.3931 13.0276 10.3904 12.9849 10.449L12.9689 10.3611L12.9449 10.441L12.9049 10.3531C12.9049 10.3531 12.8809 10.449 12.865 10.449C12.865 10.449 12.801 10.2731 12.769 10.2651L12.761 10.3771L12.721 10.2651L12.681 10.3451V10.2331L12.633 10.3131C12.633 10.3131 12.617 10.2331 12.585 10.2171L12.5211 10.2731L12.2491 10.0731" stroke="black" stroke-width="0.0160029"/>
<path d="M12.2407 10.0172C12.5207 10.1211 12.7766 10.513 12.7526 10.673C12.6326 10.513 12.6566 10.537 12.6006 10.7209C12.6006 10.7209 12.5846 10.561 12.5606 10.545L12.5207 10.657L12.5127 10.505H12.4727L12.4807 10.417L12.4247 10.457C12.4407 10.401 12.4487 10.385 12.3927 10.3371C12.3927 10.3371 12.4727 10.3451 12.4087 10.2171L12.3527 10.2651C12.3527 10.2651 12.3687 10.2091 12.3527 10.1851L12.1448 10.1211" fill="#016A16"/>
<path d="M12.2407 10.0172C12.5207 10.1211 12.7766 10.513 12.7526 10.673C12.6326 10.513 12.6566 10.537 12.6006 10.7209C12.6006 10.7209 12.5846 10.561 12.5606 10.545L12.5207 10.657L12.5127 10.505H12.4727L12.4807 10.417L12.4247 10.457C12.4407 10.401 12.4487 10.385 12.3927 10.3371C12.3927 10.3371 12.4727 10.3451 12.4087 10.2171L12.3527 10.2651C12.3527 10.2651 12.3687 10.2091 12.3527 10.1851L12.1448 10.1211" stroke="black" stroke-width="0.0160029"/>
<path d="M12.2167 10.0412L12.3206 10.2491L12.2647 10.2651L12.3926 10.3531L12.2887 10.3451C12.2887 10.3451 12.4486 10.4011 12.4646 10.561L12.3046 10.4811C12.3046 10.4811 12.4406 10.625 12.4646 10.713L12.3606 10.633C12.3606 10.633 12.4566 10.729 12.4406 10.8729L12.3686 10.793C12.3846 10.9769 12.3846 10.9929 12.3046 11.1289C12.3046 11.1289 12.3206 10.9209 12.3046 10.8889L12.1207 11.0809L12.2167 10.817C12.2167 10.817 12.1047 10.9769 12.0407 10.9689L12.1847 10.753L12.0407 10.865L12.2007 10.625L12.0567 10.673C12.0567 10.673 12.1607 10.537 12.1527 10.4491L12.0487 10.561C12.0487 10.561 12.0887 10.4411 12.0807 10.4011L12.0247 10.4091L12.1287 10.2971L12.0567 10.2811L12.0647 10.2012L12.0167 10.1932V10.1052M12.1047 10.1052C12.2807 10.3451 12.1927 10.705 12.2967 10.8969L12.1047 10.1052Z" fill="#016A16"/>
<path d="M12.2167 10.0412L12.3206 10.2491L12.2647 10.2651L12.3926 10.3531L12.2887 10.3451C12.2887 10.3451 12.4486 10.4011 12.4646 10.561L12.3046 10.4811C12.3046 10.4811 12.4406 10.625 12.4646 10.713L12.3606 10.633C12.3606 10.633 12.4566 10.729 12.4406 10.8729L12.3686 10.793C12.3846 10.9769 12.3846 10.9929 12.3046 11.1289C12.3046 11.1289 12.3206 10.9209 12.3046 10.8889L12.1207 11.0809L12.2167 10.817C12.2167 10.817 12.1047 10.9769 12.0407 10.9689L12.1847 10.753L12.0407 10.865L12.2007 10.625L12.0567 10.673C12.0567 10.673 12.1607 10.537 12.1527 10.4491L12.0487 10.561C12.0487 10.561 12.0887 10.4411 12.0807 10.4011L12.0247 10.4091L12.1287 10.2971L12.0567 10.2811L12.0647 10.2012L12.0167 10.1932V10.1052M12.1047 10.1052C12.2807 10.3451 12.1927 10.705 12.2967 10.8969" stroke="black" stroke-width="0.0160029"/>
<path d="M12.0801 13.3609C12.0801 13.3609 12.1681 12.5611 12.1681 12.2253C12.1681 11.9533 12.1041 11.3615 12.1041 11.3615H11.8402C11.8402 11.3615 11.8002 11.9533 11.8082 12.2253C11.8082 12.5611 11.8962 13.3609 11.8962 13.3609H12.0801Z" fill="#F1B517" stroke="black" stroke-width="0.0160029"/>
<path d="M11.8162 11.4014H12.1361L12.0961 11.1854H11.8641L11.8162 11.4014Z" fill="#F1B517" stroke="black" stroke-width="0.0160029"/>
<path d="M11.8403 11.2253H12.1202L12.0643 11.0094H11.8883L11.8403 11.2253Z" fill="#F1B517" stroke="black" stroke-width="0.0160029"/>
<path d="M11.8562 11.0573H12.0961L12.0481 10.8414H11.8962L11.8562 11.0573Z" fill="#F1B517" stroke="black" stroke-width="0.0160029"/>
<path d="M12.0563 10.8174H11.8963L11.8723 10.8974H12.0723L12.0563 10.8174ZM12.0883 13.1938H11.8803H12.0883ZM12.1043 13.0338H11.8643H12.1043ZM12.1363 12.8738H11.8322H12.1363ZM12.1523 12.7057H11.8322H12.1523ZM12.1523 12.5297H11.8242H12.1523ZM12.1603 12.3697H11.8082H12.1603ZM12.1603 12.2336H11.7922H12.1603ZM12.1603 12.0576H11.7922H12.1603ZM12.1523 11.8896H11.7922H12.1523ZM12.1363 11.7135H11.8082H12.1363ZM12.1203 11.5535H11.8242H12.1203Z" fill="#F1B517"/>
<path d="M12.0883 13.1938H11.8803M12.1043 13.0338H11.8643M12.1363 12.8738H11.8322M12.1523 12.7057H11.8322M12.1523 12.5297H11.8242M12.1603 12.3697H11.8082M12.1603 12.2336H11.7922M12.1603 12.0576H11.7922M12.1523 11.8896H11.7922M12.1363 11.7135H11.8082M12.1203 11.5535H11.8242M12.0563 10.8174H11.8963L11.8723 10.8974H12.0723L12.0563 10.8174Z" stroke="black" stroke-width="0.0160029"/>
<path d="M12.0003 9.56094C11.9363 9.53695 11.8164 9.45697 11.8483 9.40899L11.9043 9.31302C11.9843 9.13707 11.9043 9.20105 11.9043 9.15307C11.8883 9.08909 12.2082 9.13707 12.2082 9.25703C12.2082 9.29702 12.1842 9.27303 12.1922 9.46497L12.1283 9.58494L12.0003 9.56094Z" fill="#0A328C" stroke="#0A328C" stroke-width="0.0160029"/>
<path d="M12.0324 10.0409L11.9524 9.96895L11.9764 9.40112L12.0564 9.42512L12.0324 10.0329V10.0409Z" fill="#F1B517" stroke="black" stroke-width="0.0160029"/>
<path d="M12.136 9.58503C12.184 9.55304 12.216 9.46507 12.184 9.41708C12.1041 9.31311 12.0481 9.3531 11.9121 9.30511C11.8881 9.33711 11.8321 9.38509 11.8401 9.43308C12.0241 9.51305 11.9521 9.44907 12.0161 9.45707C12.0481 9.45707 12.0641 9.49706 12.136 9.57703V9.58503Z" fill="#D20014" stroke="#D20014" stroke-width="0.0160029"/>
<path d="M11.0799 12.8657C11.0586 12.823 11.0053 12.799 10.92 12.7937C10.792 12.7857 10.784 12.8257 10.76 12.8657V12.8337C10.7707 12.775 10.824 12.743 10.92 12.7377C11.0266 12.7377 11.0826 12.7697 11.0879 12.8337L11.0799 12.8657Z" fill="#016A16" stroke="white" stroke-width="0.0160029" stroke-linecap="round"/>
<path d="M11.072 12.9857C11.072 13.0817 11.0001 13.1696 10.9201 13.1696C10.8401 13.1696 10.7761 13.0897 10.7761 12.9777V12.8817H11.072V12.9857Z" fill="#016A16" stroke="white" stroke-width="0.0160029" stroke-linecap="round"/>
<path d="M10.9201 12.9217C10.9996 12.9217 11.064 12.8894 11.064 12.8497C11.064 12.8099 10.9996 12.7777 10.9201 12.7777C10.8406 12.7777 10.7761 12.8099 10.7761 12.8497C10.7761 12.8894 10.8406 12.9217 10.9201 12.9217Z" fill="white"/>
<path d="M10.888 12.9216L10.864 12.6656H10.976L10.96 12.9296H10.888V12.9216Z" fill="#016A16" stroke="#F1B517" stroke-width="0.0160029"/>
<path d="M11.0799 12.8497C11.0586 12.8923 11.0053 12.9163 10.92 12.9216C10.792 12.9296 10.784 12.8897 10.76 12.8497V12.8817C10.7707 12.9403 10.824 12.9723 10.92 12.9776C11.0266 12.9776 11.0826 12.9456 11.0879 12.8817L11.0799 12.8497Z" fill="#016A16" stroke="white" stroke-width="0.0160029" stroke-linecap="round"/>
<path d="M11.6797 13.8656L11.1199 13.6896L10.872 13.2658L10.0002 13.2258L10.0322 13.5457L10.776 13.6816L10.84 13.8096L11.6957 14.0495L11.6797 13.8656Z" fill="#F1B517" stroke="black" stroke-width="0.0160029"/>
<path d="M11.0959 13.9853L10.2001 12.6656L10.1602 12.7056L11.0399 14.0172L11.0959 13.9853Z" fill="#503200" stroke="black" stroke-width="0.0160029"/>
<path d="M10.2882 12.7216L10.1922 12.5616C10.1709 12.5296 10.1416 12.5243 10.1042 12.5456C10.0722 12.567 10.0669 12.5963 10.0882 12.6336L10.1682 12.7856L10.2882 12.7216Z" fill="white" stroke="black" stroke-width="0.0160029"/>
<path d="M11.1995 13.1697L9.40004 12.9857L9.35205 13.2496L11.1435 13.4336L11.1995 13.1697Z" fill="#F1B517" stroke="black" stroke-width="0.0160029"/>
<path d="M9.36008 12.9217L9.32007 13.2818H9.40008L9.44809 12.9537L9.36008 12.9217ZM9.66413 12.9777L9.64813 13.3058H9.69614L9.73614 13.0257L9.66413 12.9777ZM10.8884 13.1217L10.8403 13.4258H10.9284L10.9684 13.1217H10.8884ZM11.1524 13.1297L11.0964 13.4818L11.1924 13.4978L11.2244 13.3138C11.2298 13.3564 11.2564 13.3778 11.3044 13.3778C11.3578 13.3724 11.3844 13.3458 11.3844 13.2978C11.3844 13.2498 11.3578 13.2231 11.3044 13.2177C11.2878 13.2164 11.2711 13.2203 11.2567 13.2289C11.2423 13.2375 11.2311 13.2504 11.2244 13.2658L11.2484 13.1377L11.1524 13.1297ZM10.5123 13.1857L10.2562 13.4658L10.2882 13.4978L10.6083 13.2818L10.5123 13.1857ZM9.92018 13.8819L10.1682 13.6018L10.1442 13.5698L9.82416 13.7859L9.92018 13.8819ZM10.5683 13.8099L10.2722 13.5778L10.2402 13.6018L10.4803 13.9059L10.5683 13.8099ZM9.82416 13.2738L10.1362 13.4978L10.1682 13.4738L9.92818 13.1697L9.82416 13.2738ZM10.1602 13.0897L10.1922 13.4578H10.2322L10.3283 13.0977L10.1602 13.0897ZM10.2562 13.9699L10.2322 13.6098H10.1842L10.1282 13.9779L10.2562 13.9699ZM10.6643 13.4898L10.2802 13.5218V13.5618L10.6643 13.6098V13.4898ZM9.75215 13.6098L10.1282 13.5538V13.5218L9.74415 13.4818V13.6098H9.75215Z" fill="#F1B517" stroke="black" stroke-width="0.0160029"/>
<path d="M10.216 13.6257C10.2734 13.6257 10.32 13.5828 10.32 13.5297C10.32 13.4767 10.2734 13.4338 10.216 13.4338C10.1586 13.4338 10.1121 13.4767 10.1121 13.5297C10.1121 13.5828 10.1586 13.6257 10.216 13.6257Z" fill="#F1B517" stroke="black" stroke-width="0.0160029"/>
<path fill-rule="evenodd" clip-rule="evenodd" d="M10.7519 13.5295C10.7519 13.8095 10.5119 14.0494 10.216 14.0494C10.1467 14.0504 10.0778 14.0378 10.0134 14.0123C9.94895 13.9867 9.89017 13.9487 9.84041 13.9005C9.79066 13.8522 9.75089 13.7946 9.7234 13.7309C9.69591 13.6673 9.68122 13.5989 9.68018 13.5295C9.68018 13.2416 9.9201 13.0097 10.216 13.0097C10.2853 13.0086 10.3542 13.0213 10.4186 13.0468C10.4831 13.0724 10.5419 13.1104 10.5916 13.1586C10.6414 13.2069 10.6811 13.2645 10.7086 13.3282C10.7361 13.3918 10.7508 13.4602 10.7519 13.5295ZM10.6479 13.5295C10.6468 13.5852 10.6348 13.6401 10.6126 13.6912C10.5903 13.7422 10.5582 13.7883 10.5181 13.827C10.478 13.8656 10.4307 13.8959 10.3788 13.9162C10.327 13.9366 10.2717 13.9465 10.216 13.9454C10.1597 13.9465 10.1037 13.9363 10.0513 13.9155C9.99899 13.8947 9.95132 13.8636 9.91111 13.8241C9.8709 13.7847 9.83896 13.7376 9.81716 13.6856C9.79536 13.6337 9.78413 13.5779 9.78414 13.5216C9.78832 13.4105 9.83591 13.3056 9.91668 13.2293C9.99745 13.153 10.1049 13.1115 10.216 13.1137C10.2717 13.1126 10.327 13.1225 10.3788 13.1429C10.4307 13.1632 10.478 13.1935 10.5181 13.2321C10.5582 13.2708 10.5903 13.3169 10.6126 13.3679C10.6348 13.419 10.6468 13.4739 10.6479 13.5295Z" fill="#F1B517" stroke="black" stroke-width="0.0160029" stroke-linecap="round"/>
<path d="M9.88002 13.2656L9.80005 13.2016L9.88002 13.2656ZM10.4798 13.2016L10.5598 13.1217L10.4798 13.2016ZM10.6398 13.8574L10.5518 13.7855L10.6398 13.8574ZM9.88002 13.9374L9.96 13.8574L9.88002 13.9374ZM11.6955 13.0097L11.7835 13.4896L11.7115 13.5215L11.6315 13.0177L11.6955 13.0097Z" fill="#F1B517"/>
<path d="M9.88002 13.2656L9.80005 13.2016M10.4798 13.2016L10.5598 13.1217M10.6398 13.8574L10.5518 13.7855M9.88002 13.9374L9.96 13.8574M11.6955 13.0097L11.7835 13.4896L11.7115 13.5215L11.6315 13.0177L11.6955 13.0097Z" stroke="black" stroke-width="0.0160029"/>
<path d="M11.6483 12.9536C11.6083 12.9296 11.5523 12.9616 11.4564 12.8497C11.3044 12.9856 11.4564 13.0096 11.4724 13.1456C11.5123 13.1616 11.5443 13.0336 11.6563 13.0256L11.8402 13.0096L11.8003 12.9536H11.6483Z" fill="white" stroke="black" stroke-width="0.0160029"/>
<path d="M11.712 13.0409L11.696 12.9056C11.6722 12.8499 11.6165 12.8976 11.6165 12.9215L11.6324 13.0568L11.712 13.0409Z" fill="white" stroke="black" stroke-width="0.0160029"/>
<path fill-rule="evenodd" clip-rule="evenodd" d="M11.2644 13.4338V13.5617C11.2164 13.5777 11.2244 13.6097 11.2244 13.6577V14.0336C11.2084 14.0603 11.1818 14.0763 11.1444 14.0816C11.1124 14.1136 11.1391 14.1402 11.2244 14.1616L11.3044 14.1696C11.4217 14.1376 11.4483 14.1109 11.3844 14.0896C11.347 14.0736 11.3204 14.0576 11.3044 14.0416V13.9456H11.3844C11.4004 13.9456 11.4403 13.8976 11.4403 13.8576V13.6577C11.4403 13.5457 11.3604 13.5297 11.3284 13.5377V13.4338H11.2644ZM11.3924 13.6497C11.3924 13.6177 11.3444 13.5857 11.3284 13.5857C11.3017 13.5964 11.2831 13.6204 11.2724 13.6577V13.7377C11.2724 13.7697 11.2964 13.8656 11.3444 13.8736C11.3657 13.8683 11.3817 13.847 11.3924 13.8097V13.6497Z" fill="#F1B517" stroke="black" stroke-width="0.0160029"/>
<path d="M10.7443 13.8258C10.6883 13.8098 10.6883 13.9218 10.6883 13.9218H10.7683C10.8109 13.9431 10.8269 13.9751 10.8163 14.0178C10.7923 14.0338 10.6403 13.9778 10.6323 14.0178C10.6563 14.1697 10.8643 14.2257 10.9362 14.1617C11.0082 14.0978 11.0242 13.9218 10.7923 13.8658L10.7443 13.8258ZM10.7923 13.8738L10.7683 13.9218L10.7923 13.8738Z" fill="white"/>
<path d="M10.7683 13.9218H10.6883C10.6883 13.9218 10.6883 13.8098 10.7443 13.8258L10.7923 13.8658C11.0242 13.9218 11.0082 14.0978 10.9362 14.1617C10.8643 14.2257 10.6563 14.1697 10.6323 14.0178C10.6403 13.9778 10.7923 14.0338 10.8163 14.0178C10.8269 13.9751 10.8109 13.9431 10.7683 13.9218ZM10.7683 13.9218L10.7923 13.8738" stroke="black" stroke-width="0.0160029"/>
<path d="M9.20003 13.8817L9.12006 13.5618L9.20003 13.8817ZM9.28801 13.8657L9.16804 13.6178L9.28801 13.8657ZM9.48795 13.8018L9.22403 13.6578L9.48795 13.8018ZM9.60791 13.7698L9.11206 13.5538L9.60791 13.7698Z" fill="#F1B517"/>
<path d="M9.20003 13.8817L9.12006 13.5618M9.28801 13.8657L9.16804 13.6178M9.48795 13.8018L9.22403 13.6578M9.60791 13.7698L9.11206 13.5538" stroke="black" stroke-width="0.0160029"/>
<path d="M8.81554 13.3217L8.60761 13.3297C8.59161 13.3377 8.6476 13.4017 8.6396 13.4177C8.59161 13.5056 8.2877 13.4976 8.26371 13.4816C8.22372 13.4417 8.54363 13.4177 8.55162 13.4017C8.55162 13.3697 8.50364 13.3057 8.51164 13.2657C8.51164 13.2097 8.6476 13.1857 8.6476 13.1857L8.81554 13.3217Z" fill="#D20014" stroke="#D20014" stroke-width="0.0160029"/>
<path d="M9.05586 13.4816L8.65598 13.1457C8.65598 13.1457 8.63199 13.1297 8.616 13.1457C8.6 13.1617 8.616 13.1777 8.616 13.1777L9.04787 13.5296L9.05586 13.4896V13.4816Z" fill="#503200" stroke="black" stroke-width="0.0160029"/>
<path d="M9.45574 13.8177L9.11985 13.5298L9.09585 13.4498L9.03187 13.4978C9.00788 13.5138 8.98389 13.5618 8.98389 13.5618H9.07186L9.35977 13.8337L9.44775 13.8177H9.45574Z" fill="#F1B517" stroke="black" stroke-width="0.0160029"/>
<path d="M10.5999 14.2654C10.6307 14.2654 10.6556 14.2404 10.6556 14.2096C10.6556 14.1789 10.6307 14.1539 10.5999 14.1539C10.5691 14.1539 10.5442 14.1789 10.5442 14.2096C10.5442 14.2404 10.5691 14.2654 10.5999 14.2654Z" fill="#F1B517" stroke="black" stroke-width="0.0160029"/>
<path d="M10.448 14.1534C10.4788 14.1534 10.5038 14.1284 10.5038 14.0976C10.5038 14.0669 10.4788 14.0419 10.448 14.0419C10.4173 14.0419 10.3923 14.0669 10.3923 14.0976C10.3923 14.1284 10.4173 14.1534 10.448 14.1534Z" fill="#F1B517" stroke="black" stroke-width="0.0160029"/>
<path d="M10.2479 14.2254C10.2786 14.2254 10.3036 14.2004 10.3036 14.1697C10.3036 14.1389 10.2786 14.114 10.2479 14.114C10.2171 14.114 10.1921 14.1389 10.1921 14.1697C10.1921 14.2004 10.2171 14.2254 10.2479 14.2254Z" fill="#F1B517" stroke="black" stroke-width="0.0160029"/>
<path d="M9.93584 14.2893C9.96661 14.2893 9.99155 14.2644 9.99155 14.2336C9.99155 14.2029 9.96661 14.1779 9.93584 14.1779C9.90507 14.1779 9.88013 14.2029 9.88013 14.2336C9.88013 14.2644 9.90507 14.2893 9.93584 14.2893Z" fill="#F1B517" stroke="black" stroke-width="0.0160029"/>
<path d="M9.79985 14.3054C9.83062 14.3054 9.85556 14.2805 9.85556 14.2497C9.85556 14.2189 9.83062 14.194 9.79985 14.194C9.76908 14.194 9.74414 14.2189 9.74414 14.2497C9.74414 14.2805 9.76908 14.3054 9.79985 14.3054Z" fill="#F1B517" stroke="black" stroke-width="0.0160029"/>
<path d="M9.66387 14.3054C9.69463 14.3054 9.71958 14.2805 9.71958 14.2497C9.71958 14.2189 9.69463 14.194 9.66387 14.194C9.6331 14.194 9.60815 14.2189 9.60815 14.2497C9.60815 14.2805 9.6331 14.3054 9.66387 14.3054Z" fill="#F1B517" stroke="black" stroke-width="0.0160029"/>
<path d="M9.53569 14.3054C9.56646 14.3054 9.5914 14.2805 9.5914 14.2497C9.5914 14.2189 9.56646 14.194 9.53569 14.194C9.50492 14.194 9.47998 14.2189 9.47998 14.2497C9.47998 14.2805 9.50492 14.3054 9.53569 14.3054Z" fill="#F1B517" stroke="black" stroke-width="0.0160029"/>
<path d="M9.59966 14.2013C9.63042 14.2013 9.65537 14.1764 9.65537 14.1456C9.65537 14.1148 9.63042 14.0899 9.59966 14.0899C9.56889 14.0899 9.54395 14.1148 9.54395 14.1456C9.54395 14.1764 9.56889 14.2013 9.59966 14.2013Z" fill="#F1B517" stroke="black" stroke-width="0.0160029"/>
<path d="M9.72783 14.2093C9.7586 14.2093 9.78354 14.1844 9.78354 14.1536C9.78354 14.1228 9.7586 14.0979 9.72783 14.0979C9.69706 14.0979 9.67212 14.1228 9.67212 14.1536C9.67212 14.1844 9.69706 14.2093 9.72783 14.2093Z" fill="#F1B517" stroke="black" stroke-width="0.0160029"/>
<path d="M9.8477 14.1933C9.87847 14.1933 9.90342 14.1684 9.90342 14.1376C9.90342 14.1069 9.87847 14.0819 9.8477 14.0819C9.81694 14.0819 9.79199 14.1069 9.79199 14.1376C9.79199 14.1684 9.81694 14.1933 9.8477 14.1933Z" fill="#F1B517" stroke="black" stroke-width="0.0160029"/>
<path d="M9.7918 14.0973C9.82256 14.0973 9.84751 14.0724 9.84751 14.0416C9.84751 14.0108 9.82256 13.9859 9.7918 13.9859C9.76103 13.9859 9.73608 14.0108 9.73608 14.0416C9.73608 14.0724 9.76103 14.0973 9.7918 14.0973Z" fill="#F1B517" stroke="black" stroke-width="0.0160029"/>
<path d="M9.66387 14.0893C9.69463 14.0893 9.71958 14.0644 9.71958 14.0336C9.71958 14.0028 9.69463 13.9779 9.66387 13.9779C9.6331 13.9779 9.60815 14.0028 9.60815 14.0336C9.60815 14.0644 9.6331 14.0893 9.66387 14.0893Z" fill="#F1B517" stroke="black" stroke-width="0.0160029"/>
<path fill-rule="evenodd" clip-rule="evenodd" d="M10.9202 14.2819C10.9202 14.2579 10.8562 14.2659 10.8562 14.2339C10.8562 14.2019 10.9522 14.2339 10.9602 14.2579C11.0162 14.2099 11.0401 14.2419 11.0721 14.2579C11.1255 14.1939 11.1788 14.1886 11.2321 14.2419C11.2641 14.2099 11.3441 14.2179 11.368 14.2579C11.4214 14.2153 11.4667 14.2153 11.504 14.2579C11.52 14.2313 11.5387 14.2313 11.56 14.2579C11.584 14.2019 11.656 14.2179 11.688 14.2579C11.7119 14.2259 11.7439 14.2499 11.7759 14.2659C11.8079 14.2499 11.8292 14.2499 11.8399 14.2659C11.8399 14.2979 11.7919 14.2899 11.7919 14.3139C11.7919 14.3379 11.8239 14.3139 11.8239 14.3459C11.8239 14.3699 11.7759 14.3779 11.7679 14.3459C11.7439 14.3779 11.68 14.3619 11.672 14.3299C11.6581 14.3403 11.6413 14.3459 11.624 14.3459C11.6067 14.3459 11.5898 14.3403 11.576 14.3299C11.5493 14.3459 11.528 14.3459 11.512 14.3299C11.472 14.3699 11.4 14.3619 11.376 14.3139H11.3521C11.3445 14.3224 11.3353 14.3292 11.325 14.3339C11.3146 14.3386 11.3034 14.341 11.2921 14.341C11.2807 14.341 11.2695 14.3386 11.2592 14.3339C11.2488 14.3292 11.2396 14.3224 11.2321 14.3139C11.1681 14.3566 11.1175 14.3566 11.0801 14.3139C11.0401 14.3699 10.9682 14.3699 10.9602 14.3139C10.9282 14.3379 10.8642 14.3459 10.8642 14.3139C10.8642 14.2979 10.9202 14.3059 10.9202 14.2819ZM11.0481 14.2899C11.0481 14.3059 11.0375 14.3139 11.0162 14.3139C10.9948 14.3139 10.9842 14.3059 10.9842 14.2899C10.9842 14.2739 10.9948 14.2686 11.0162 14.2739L11.0481 14.2899ZM11.2001 14.2739C11.2001 14.2899 11.1841 14.2979 11.1521 14.2979C11.1201 14.2979 11.1068 14.2899 11.1121 14.2739C11.1121 14.2632 11.1255 14.2552 11.1521 14.2499C11.1788 14.2446 11.1921 14.2526 11.1921 14.2739H11.2001ZM11.48 14.2899C11.48 14.3059 11.4667 14.3139 11.44 14.3139C11.4134 14.3139 11.4027 14.3059 11.408 14.2899C11.408 14.2792 11.4187 14.2712 11.44 14.2659C11.472 14.2659 11.4853 14.2739 11.48 14.2899ZM11.3281 14.2899C11.3281 14.3059 11.3147 14.3139 11.2881 14.3139C11.2614 14.3139 11.2507 14.3032 11.2561 14.2819C11.2614 14.2606 11.2721 14.2499 11.2881 14.2499C11.3147 14.2499 11.3281 14.2606 11.3281 14.2819V14.2899ZM11.648 14.2899C11.648 14.3006 11.64 14.3086 11.624 14.3139C11.5973 14.3139 11.584 14.3032 11.584 14.2819C11.584 14.2606 11.5973 14.2526 11.624 14.2579C11.64 14.2579 11.6506 14.2659 11.656 14.2819L11.648 14.2899ZM11.552 14.2899C11.552 14.3059 11.5467 14.3139 11.536 14.3139C11.5253 14.3139 11.5173 14.3059 11.512 14.2899C11.512 14.2739 11.52 14.2686 11.536 14.2739L11.552 14.2899ZM11.7439 14.2979C11.7439 14.3139 11.7359 14.3246 11.7199 14.3299C11.7093 14.3299 11.7013 14.3192 11.6959 14.2979C11.6906 14.2766 11.6986 14.2686 11.7199 14.2739C11.7359 14.2739 11.7439 14.2819 11.7439 14.2979Z" fill="#F1B517" stroke="black" stroke-width="0.0160029"/>
<path d="M12.3132 13.8656L12.873 13.6896L13.1209 13.2658L13.9927 13.2258L13.9607 13.5457L13.2169 13.6816L13.1529 13.8096L12.2972 14.0495L12.3132 13.8656Z" fill="#F1B517" stroke="black" stroke-width="0.0160029"/>
<path d="M12.8968 13.9853L13.7925 12.6656L13.8325 12.7056L12.9528 14.0172L12.8968 13.9853Z" fill="#503200" stroke="black" stroke-width="0.0160029"/>
<path d="M13.7047 12.7216L13.8007 12.5616C13.822 12.5296 13.8514 12.5243 13.8887 12.5456C13.9207 12.567 13.926 12.5963 13.9047 12.6336L13.8247 12.7856L13.7047 12.7216Z" fill="white" stroke="black" stroke-width="0.0160029"/>
<path d="M12.7934 13.1697L14.5929 12.9857L14.6409 13.2496L12.8494 13.4336L12.7934 13.1697Z" fill="#F1B517" stroke="black" stroke-width="0.0160029"/>
<path d="M14.6328 12.9217L14.6729 13.2818H14.5928L14.5448 12.9537L14.6328 12.9217ZM14.3288 12.9777L14.3448 13.3058H14.2968L14.2568 13.0257L14.3288 12.9777ZM13.1046 13.1217L13.1526 13.4258H13.0646L13.0245 13.1217H13.1046ZM12.8405 13.1297L12.8965 13.4818L12.8005 13.4978L12.7685 13.3138C12.7632 13.3564 12.7365 13.3778 12.6885 13.3778C12.6351 13.3724 12.6085 13.3458 12.6085 13.2978C12.6085 13.2498 12.6351 13.2231 12.6885 13.2177C12.7052 13.2164 12.7219 13.2203 12.7362 13.2289C12.7506 13.2375 12.7619 13.2504 12.7685 13.2658L12.7445 13.1377L12.8405 13.1297ZM13.4806 13.1857L13.7367 13.4658L13.7047 13.4978L13.3846 13.2818L13.4806 13.1857ZM14.0727 13.8819L13.8247 13.6018L13.8487 13.5698L14.1688 13.7859L14.0727 13.8819ZM13.4246 13.8099L13.7207 13.5778L13.7527 13.6018L13.5126 13.9059L13.4246 13.8099ZM14.1688 13.2738L13.8567 13.4978L13.8247 13.4738L14.0647 13.1697L14.1688 13.2738ZM13.8327 13.0897L13.8007 13.4578H13.7607L13.6647 13.0977L13.8327 13.0897ZM13.7367 13.9699L13.7607 13.6098H13.8087L13.8647 13.9779L13.7367 13.9699ZM13.3286 13.4898L13.7127 13.5218V13.5618L13.3286 13.6098V13.4898ZM14.2408 13.6098L13.8647 13.5538V13.5218L14.2488 13.4818V13.6098H14.2408Z" fill="#F1B517" stroke="black" stroke-width="0.0160029"/>
<path d="M13.7766 13.6257C13.7192 13.6257 13.6727 13.5828 13.6727 13.5297C13.6727 13.4767 13.7192 13.4338 13.7766 13.4338C13.8341 13.4338 13.8806 13.4767 13.8806 13.5297C13.8806 13.5828 13.8341 13.6257 13.7766 13.6257Z" fill="#F1B517" stroke="black" stroke-width="0.0160029"/>
<path fill-rule="evenodd" clip-rule="evenodd" d="M13.2411 13.5295C13.2411 13.8095 13.481 14.0494 13.7769 14.0494C13.8462 14.0504 13.9151 14.0378 13.9795 14.0123C14.044 13.9867 14.1027 13.9487 14.1525 13.9005C14.2023 13.8522 14.242 13.7946 14.2695 13.7309C14.297 13.6673 14.3117 13.5989 14.3127 13.5295C14.3127 13.2416 14.0728 13.0097 13.7769 13.0097C13.7076 13.0086 13.6387 13.0213 13.5743 13.0468C13.5098 13.0724 13.4511 13.1104 13.4013 13.1586C13.3515 13.2069 13.3118 13.2645 13.2843 13.3282C13.2568 13.3918 13.2421 13.4602 13.2411 13.5295ZM13.345 13.5295C13.3461 13.5852 13.3581 13.6401 13.3803 13.6912C13.4026 13.7422 13.4347 13.7883 13.4748 13.827C13.5149 13.8656 13.5622 13.8959 13.6141 13.9162C13.6659 13.9366 13.7212 13.9465 13.7769 13.9454C13.8332 13.9465 13.8892 13.9363 13.9416 13.9155C13.9939 13.8947 14.0416 13.8636 14.0818 13.8241C14.122 13.7847 14.154 13.7376 14.1758 13.6856C14.1976 13.6337 14.2088 13.5779 14.2088 13.5216C14.2046 13.4105 14.157 13.3056 14.0762 13.2293C13.9955 13.153 13.888 13.1115 13.7769 13.1137C13.7212 13.1126 13.6659 13.1225 13.6141 13.1429C13.5622 13.1632 13.5149 13.1935 13.4748 13.2321C13.4347 13.2708 13.4026 13.3169 13.3803 13.3679C13.3581 13.419 13.3461 13.4739 13.345 13.5295Z" fill="#F1B517" stroke="black" stroke-width="0.0160029" stroke-linecap="round"/>
<path d="M14.1127 13.2656L14.1926 13.2016L14.1127 13.2656ZM13.5128 13.2016L13.4329 13.1217L13.5128 13.2016ZM13.3529 13.8574L13.4409 13.7855L13.3529 13.8574ZM14.1127 13.9374L14.0327 13.8574L14.1127 13.9374ZM12.2972 13.0097L12.2092 13.4896L12.2812 13.5215L12.3612 13.0177L12.2972 13.0097Z" fill="#F1B517"/>
<path d="M14.1127 13.2656L14.1926 13.2016M13.5128 13.2016L13.4329 13.1217M13.3529 13.8574L13.4409 13.7855M14.1127 13.9374L14.0327 13.8574M12.2972 13.0097L12.2092 13.4896L12.2812 13.5215L12.3612 13.0177L12.2972 13.0097Z" stroke="black" stroke-width="0.0160029"/>
<path d="M12.3444 12.9536C12.3844 12.9296 12.4403 12.9616 12.5363 12.8497C12.6883 12.9856 12.5363 13.0096 12.5203 13.1456C12.4803 13.1616 12.4483 13.0336 12.3364 13.0256L12.1524 13.0096L12.1924 12.9536H12.3444Z" fill="white" stroke="black" stroke-width="0.0160029"/>
<path d="M12.281 13.0409L12.2969 12.9056C12.3208 12.8499 12.3765 12.8976 12.3765 12.9215L12.3605 13.0568L12.281 13.0409Z" fill="white" stroke="black" stroke-width="0.0160029"/>
<path fill-rule="evenodd" clip-rule="evenodd" d="M12.7285 13.4338V13.5617C12.7765 13.5777 12.7685 13.6097 12.7685 13.6577V14.0336C12.7845 14.0603 12.8112 14.0763 12.8485 14.0816C12.8805 14.1136 12.8538 14.1402 12.7685 14.1616L12.6885 14.1696C12.5712 14.1376 12.5446 14.1109 12.6086 14.0896C12.6459 14.0736 12.6725 14.0576 12.6885 14.0416V13.9456H12.6086C12.5926 13.9456 12.5526 13.8976 12.5526 13.8576V13.6577C12.5526 13.5457 12.6326 13.5297 12.6645 13.5377V13.4338H12.7285ZM12.6006 13.6497C12.6006 13.6177 12.6485 13.5857 12.6645 13.5857C12.6912 13.5964 12.7099 13.6204 12.7205 13.6577V13.7377C12.7205 13.7697 12.6965 13.8656 12.6485 13.8736C12.6272 13.8683 12.6112 13.847 12.6006 13.8097V13.6497Z" fill="#F1B517" stroke="black" stroke-width="0.0160029"/>
<path d="M13.2486 13.8258C13.3046 13.8098 13.3046 13.9218 13.3046 13.9218H13.2246C13.182 13.9431 13.166 13.9751 13.1767 14.0178C13.2006 14.0338 13.3526 13.9778 13.3606 14.0178C13.3366 14.1697 13.1287 14.2257 13.0567 14.1617C12.9847 14.0978 12.9687 13.9218 13.2006 13.8658L13.2486 13.8258ZM13.2006 13.8738L13.2246 13.9218L13.2006 13.8738Z" fill="white"/>
<path d="M13.2246 13.9218H13.3046C13.3046 13.9218 13.3046 13.8098 13.2486 13.8258L13.2006 13.8658C12.9687 13.9218 12.9847 14.0978 13.0567 14.1617C13.1287 14.2257 13.3366 14.1697 13.3606 14.0178C13.3526 13.9778 13.2006 14.0338 13.1767 14.0178C13.166 13.9751 13.182 13.9431 13.2246 13.9218ZM13.2246 13.9218L13.2006 13.8738" stroke="black" stroke-width="0.0160029"/>
<path d="M14.7929 13.8817L14.8729 13.5618L14.7929 13.8817ZM14.7049 13.8657L14.8249 13.6178L14.7049 13.8657ZM14.505 13.8018L14.7689 13.6578L14.505 13.8018ZM14.385 13.7698L14.8809 13.5538L14.385 13.7698Z" fill="#F1B517"/>
<path d="M14.7929 13.8817L14.8729 13.5618M14.7049 13.8657L14.8249 13.6178M14.505 13.8018L14.7689 13.6578M14.385 13.7698L14.8809 13.5538" stroke="black" stroke-width="0.0160029"/>
<path d="M15.1771 13.3217L15.3851 13.3297C15.4011 13.3377 15.3451 13.4017 15.3531 13.4177C15.4011 13.5056 15.705 13.4976 15.729 13.4816C15.769 13.4417 15.449 13.4177 15.4411 13.4017C15.4411 13.3697 15.489 13.3057 15.481 13.2657C15.481 13.2097 15.3451 13.1857 15.3451 13.1857L15.1771 13.3217Z" fill="#D20014" stroke="#D20014" stroke-width="0.0160029"/>
<path d="M14.9371 13.4816L15.3369 13.1457C15.3369 13.1457 15.3609 13.1297 15.3769 13.1457C15.3929 13.1617 15.3769 13.1777 15.3769 13.1777L14.9451 13.5296L14.9371 13.4896V13.4816Z" fill="#503200" stroke="black" stroke-width="0.0160029"/>
<path d="M14.5369 13.8177L14.8728 13.5298L14.8968 13.4498L14.9608 13.4978C14.9848 13.5138 15.0088 13.5618 15.0088 13.5618H14.9208L14.6329 13.8337L14.5449 13.8177H14.5369Z" fill="#F1B517" stroke="black" stroke-width="0.0160029"/>
<path d="M13.3928 14.2654C13.362 14.2654 13.3371 14.2404 13.3371 14.2096C13.3371 14.1789 13.362 14.1539 13.3928 14.1539C13.4235 14.1539 13.4485 14.1789 13.4485 14.2096C13.4485 14.2404 13.4235 14.2654 13.3928 14.2654Z" fill="#F1B517" stroke="black" stroke-width="0.0160029"/>
<path d="M13.5449 14.1534C13.5141 14.1534 13.4892 14.1284 13.4892 14.0976C13.4892 14.0669 13.5141 14.0419 13.5449 14.0419C13.5756 14.0419 13.6006 14.0669 13.6006 14.0976C13.6006 14.1284 13.5756 14.1534 13.5449 14.1534Z" fill="#F1B517" stroke="black" stroke-width="0.0160029"/>
<path d="M13.7448 14.2254C13.7141 14.2254 13.6891 14.2004 13.6891 14.1697C13.6891 14.1389 13.7141 14.114 13.7448 14.114C13.7756 14.114 13.8005 14.1389 13.8005 14.1697C13.8005 14.2004 13.7756 14.2254 13.7448 14.2254Z" fill="#F1B517" stroke="black" stroke-width="0.0160029"/>
<path d="M14.0571 14.2893C14.0263 14.2893 14.0014 14.2644 14.0014 14.2336C14.0014 14.2029 14.0263 14.1779 14.0571 14.1779C14.0879 14.1779 14.1128 14.2029 14.1128 14.2336C14.1128 14.2644 14.0879 14.2893 14.0571 14.2893Z" fill="#F1B517" stroke="black" stroke-width="0.0160029"/>
<path d="M14.1931 14.3054C14.1623 14.3054 14.1374 14.2805 14.1374 14.2497C14.1374 14.2189 14.1623 14.194 14.1931 14.194C14.2238 14.194 14.2488 14.2189 14.2488 14.2497C14.2488 14.2805 14.2238 14.3054 14.1931 14.3054Z" fill="#F1B517" stroke="black" stroke-width="0.0160029"/>
<path d="M14.3291 14.3054C14.2983 14.3054 14.2733 14.2805 14.2733 14.2497C14.2733 14.2189 14.2983 14.194 14.3291 14.194C14.3598 14.194 14.3848 14.2189 14.3848 14.2497C14.3848 14.2805 14.3598 14.3054 14.3291 14.3054Z" fill="#F1B517" stroke="black" stroke-width="0.0160029"/>
<path d="M14.457 14.3054C14.4262 14.3054 14.4013 14.2805 14.4013 14.2497C14.4013 14.2189 14.4262 14.194 14.457 14.194C14.4878 14.194 14.5127 14.2189 14.5127 14.2497C14.5127 14.2805 14.4878 14.3054 14.457 14.3054Z" fill="#F1B517" stroke="black" stroke-width="0.0160029"/>
<path d="M14.393 14.2013C14.3623 14.2013 14.3373 14.1764 14.3373 14.1456C14.3373 14.1148 14.3623 14.0899 14.393 14.0899C14.4238 14.0899 14.4487 14.1148 14.4487 14.1456C14.4487 14.1764 14.4238 14.2013 14.393 14.2013Z" fill="#F1B517" stroke="black" stroke-width="0.0160029"/>
<path d="M14.2651 14.2093C14.2343 14.2093 14.2094 14.1844 14.2094 14.1536C14.2094 14.1228 14.2343 14.0979 14.2651 14.0979C14.2959 14.0979 14.3208 14.1228 14.3208 14.1536C14.3208 14.1844 14.2959 14.2093 14.2651 14.2093Z" fill="#F1B517" stroke="black" stroke-width="0.0160029"/>
<path d="M14.145 14.1933C14.1142 14.1933 14.0893 14.1684 14.0893 14.1376C14.0893 14.1069 14.1142 14.0819 14.145 14.0819C14.1757 14.0819 14.2007 14.1069 14.2007 14.1376C14.2007 14.1684 14.1757 14.1933 14.145 14.1933Z" fill="#F1B517" stroke="black" stroke-width="0.0160029"/>
<path d="M14.2009 14.0973C14.1701 14.0973 14.1452 14.0724 14.1452 14.0416C14.1452 14.0108 14.1701 13.9859 14.2009 13.9859C14.2316 13.9859 14.2566 14.0108 14.2566 14.0416C14.2566 14.0724 14.2316 14.0973 14.2009 14.0973Z" fill="#F1B517" stroke="black" stroke-width="0.0160029"/>
<path d="M14.3291 14.0893C14.2983 14.0893 14.2733 14.0644 14.2733 14.0336C14.2733 14.0028 14.2983 13.9779 14.3291 13.9779C14.3598 13.9779 14.3848 14.0028 14.3848 14.0336C14.3848 14.0644 14.3598 14.0893 14.3291 14.0893Z" fill="#F1B517" stroke="black" stroke-width="0.0160029"/>
<path fill-rule="evenodd" clip-rule="evenodd" d="M13.0725 14.2819C13.0725 14.2579 13.1365 14.2659 13.1365 14.2339C13.1365 14.2019 13.0405 14.2339 13.0325 14.2579C12.9765 14.2099 12.9525 14.2419 12.9205 14.2579C12.8672 14.1939 12.8139 14.1886 12.7606 14.2419C12.7286 14.2099 12.6486 14.2179 12.6246 14.2579C12.5713 14.2153 12.526 14.2153 12.4887 14.2579C12.4727 14.2313 12.454 14.2313 12.4327 14.2579C12.4087 14.2019 12.3367 14.2179 12.3047 14.2579C12.2807 14.2259 12.2487 14.2499 12.2168 14.2659C12.1848 14.2499 12.1634 14.2499 12.1528 14.2659C12.1528 14.2979 12.2008 14.2899 12.2008 14.3139C12.2008 14.3379 12.1688 14.3139 12.1688 14.3459C12.1688 14.3699 12.2168 14.3779 12.2247 14.3459C12.2487 14.3779 12.3127 14.3619 12.3207 14.3299C12.3346 14.3403 12.3514 14.3459 12.3687 14.3459C12.386 14.3459 12.4028 14.3403 12.4167 14.3299C12.4434 14.3459 12.4647 14.3459 12.4807 14.3299C12.5207 14.3699 12.5926 14.3619 12.6166 14.3139H12.6406C12.6481 14.3224 12.6574 14.3292 12.6677 14.3339C12.678 14.3386 12.6893 14.341 12.7006 14.341C12.712 14.341 12.7232 14.3386 12.7335 14.3339C12.7439 14.3292 12.7531 14.3224 12.7606 14.3139C12.8246 14.3566 12.8752 14.3566 12.9125 14.3139C12.9525 14.3699 13.0245 14.3699 13.0325 14.3139C13.0645 14.3379 13.1285 14.3459 13.1285 14.3139C13.1285 14.2979 13.0725 14.3059 13.0725 14.2819ZM12.9445 14.2899C12.9445 14.3059 12.9552 14.3139 12.9765 14.3139C12.9978 14.3139 13.0085 14.3059 13.0085 14.2899C13.0085 14.2739 12.9978 14.2686 12.9765 14.2739L12.9445 14.2899ZM12.7926 14.2739C12.7926 14.2899 12.8086 14.2979 12.8406 14.2979C12.8726 14.2979 12.8859 14.2899 12.8806 14.2739C12.8806 14.2632 12.8672 14.2552 12.8406 14.2499C12.8139 14.2446 12.8006 14.2526 12.8006 14.2739H12.7926ZM12.5127 14.2899C12.5127 14.3059 12.526 14.3139 12.5527 14.3139C12.5793 14.3139 12.59 14.3059 12.5846 14.2899C12.5846 14.2792 12.574 14.2712 12.5527 14.2659C12.5207 14.2659 12.5073 14.2739 12.5127 14.2899ZM12.6646 14.2899C12.6646 14.3059 12.6779 14.3139 12.7046 14.3139C12.7313 14.3139 12.7419 14.3032 12.7366 14.2819C12.7313 14.2606 12.7206 14.2499 12.7046 14.2499C12.6779 14.2499 12.6646 14.2606 12.6646 14.2819V14.2899ZM12.3447 14.2899C12.3447 14.3006 12.3527 14.3086 12.3687 14.3139C12.3954 14.3139 12.4087 14.3032 12.4087 14.2819C12.4087 14.2606 12.3954 14.2526 12.3687 14.2579C12.3527 14.2579 12.342 14.2659 12.3367 14.2819L12.3447 14.2899ZM12.4407 14.2899C12.4407 14.3059 12.446 14.3139 12.4567 14.3139C12.4673 14.3139 12.4753 14.3059 12.4807 14.2899C12.4807 14.2739 12.4727 14.2686 12.4567 14.2739L12.4407 14.2899ZM12.2487 14.2979C12.2487 14.3139 12.2567 14.3246 12.2727 14.3299C12.2834 14.3299 12.2914 14.3192 12.2967 14.2979C12.3021 14.2766 12.2941 14.2686 12.2727 14.2739C12.2567 14.2739 12.2487 14.2819 12.2487 14.2979Z" fill="#F1B517" stroke="black" stroke-width="0.0160029"/>
<path d="M11.9842 13.2978C11.7842 13.2978 11.6243 13.3778 11.6243 13.4657L11.6403 13.5137C11.6803 13.5617 11.8242 13.5937 11.9922 13.5937C12.1628 13.5937 12.2747 13.5697 12.3281 13.5217C12.3441 13.5057 12.352 13.4871 12.352 13.4657C12.352 13.3778 12.1921 13.3058 11.9842 13.3058V13.2978Z" fill="#0A328C" stroke="#0A328C" stroke-width="0.0160029"/>
<path d="M12.352 13.4818V14.0416C12.352 14.1136 12.1921 14.1616 11.9922 14.1616C11.7922 14.1616 11.6243 14.1136 11.6243 14.0416V13.4818C11.6243 13.5458 11.7842 13.6018 11.9842 13.6018C12.1921 13.6018 12.352 13.5458 12.352 13.4818Z" fill="#F1B517" stroke="black" stroke-width="0.0160029"/>
<path d="M11.6243 13.4818V13.5618L11.8002 14.1216L11.9442 13.6897L12.1041 14.1296L12.2081 13.7137L12.352 13.9937V13.8417L12.2241 13.5698L12.1761 13.5858L12.0961 13.8897L11.9762 13.6018H11.9202L11.8002 13.8897L11.6723 13.5378C11.6403 13.5218 11.6243 13.5031 11.6243 13.4818Z" fill="#D20014" stroke="#D20014" stroke-width="0.0160029"/>
<path d="M12.352 13.9379V14.0419C12.352 14.1139 12.1921 14.1619 11.9922 14.1619C11.7922 14.1619 11.6243 14.1139 11.6243 14.0419V13.9379C11.6243 14.0099 11.7842 14.0579 11.9842 14.0579C12.1921 14.0579 12.352 14.0099 12.352 13.9379Z" fill="#0A328C" stroke="#0A328C" stroke-width="0.0160029"/>
<path d="M12.1361 14.0419L12.0481 14.0579V14.1619L12.1441 14.1539L12.1361 14.0419ZM11.7522 14.0339V14.1379L11.8402 14.1539V14.0499L11.7522 14.0339ZM11.6243 13.9379V14.0419C11.6243 14.0632 11.6376 14.0819 11.6643 14.0979V13.9939C11.6376 13.9779 11.6243 13.9593 11.6243 13.9379ZM12.352 13.9539C12.3467 13.9699 12.3254 13.9886 12.2881 14.0099V14.1139C12.3307 14.0979 12.352 14.0739 12.352 14.0419V13.9539Z" fill="#F1B517" stroke="black" stroke-width="0.0160029"/>
<path d="M12.352 13.4818V14.0416C12.352 14.1136 12.1921 14.1616 11.9922 14.1616C11.7922 14.1616 11.6243 14.1136 11.6243 14.0416V13.4818" stroke="black" stroke-width="0.0160029"/>
<path d="M12.2719 13.4418C12.2719 13.4818 12.144 13.5218 11.992 13.5218C11.8321 13.5218 11.7041 13.4818 11.7041 13.4418C11.7041 13.4018 11.8321 13.3698 11.984 13.3698C12.144 13.3698 12.2719 13.4018 12.2719 13.4498V13.4418Z" fill="white" stroke="white" stroke-width="0.0160029"/>
<path d="M11.8961 13.4975L11.9121 13.5934H11.9921L12.0001 13.4975H11.8961ZM12.224 13.4735L12.1441 13.4895L12.152 13.5855L12.232 13.5695L12.224 13.4735ZM11.7922 13.3135L11.7362 13.3375L11.7442 13.4175L11.7922 13.4015V13.3135ZM11.9841 13.2895H11.9601L11.9761 13.3855H12.0241L12.0401 13.2895H11.9841ZM12.2 13.3215L12.192 13.4015L12.248 13.4255V13.3455L12.2 13.3215ZM11.6802 13.5455L11.6962 13.4415L11.6162 13.4015V13.5215L11.6802 13.5455ZM12.352 13.5215V13.4175L12.288 13.4415L12.352 13.5215ZM13.0958 12.8417C13.1597 12.8417 13.2557 12.9217 13.2637 13.0416C13.2637 13.1216 13.1278 13.1216 13.1278 13.1216C13.1278 13.1616 13.0478 13.1936 12.9838 13.2016C12.9198 13.2096 12.9998 13.0816 12.9998 13.0816C12.9598 12.9776 13.0158 12.8657 13.0158 12.8657L13.0958 12.8417Z" fill="#F1B517" stroke="black" stroke-width="0.0160029"/>
<path d="M13.0005 13.0817H13.0645C13.0645 13.0817 13.0645 13.1057 13.0805 13.1057C13.0965 13.1057 13.1045 13.0737 13.1045 13.0737H13.2005" fill="#F1B517"/>
<path d="M13.0005 13.0817H13.0645C13.0645 13.0817 13.0645 13.1057 13.0805 13.1057C13.0965 13.1057 13.1045 13.0737 13.1045 13.0737H13.2005" stroke="black" stroke-width="0.0160029"/>
<path d="M13.1285 12.9137C13.1845 12.8737 13.1365 12.7937 13.0965 12.7937H13.0165C12.9685 12.7937 12.9046 12.8417 12.9125 12.8737C12.9179 12.9163 12.9392 12.9323 12.9765 12.9217C12.9925 12.9217 13.0245 12.8737 13.0405 12.8737C13.0565 12.8737 13.1205 12.9217 13.1285 12.9137Z" fill="#D20014" stroke="#F1B517" stroke-width="0.0160029"/>
<path fill-rule="evenodd" clip-rule="evenodd" d="M9.13544 14.0259C9.09279 14.0419 9.07946 14.0819 9.09546 14.1459L8.50363 14.3378C8.49564 14.2979 8.59961 14.1939 8.59961 14.1939C8.6236 14.2019 8.64759 14.2659 8.64759 14.2659C8.64759 14.1379 8.77555 14.0579 8.77555 14.0579C8.69558 14.0419 8.47964 14.1379 8.45565 14.1699C8.45565 14.1699 8.53562 14.1539 8.55162 14.1699C8.55162 14.1699 8.37567 14.3538 8.36768 14.4098C8.39967 14.4658 8.68758 14.5138 8.68758 14.5138C8.68758 14.5298 8.6076 14.5938 8.6076 14.5938C8.72757 14.6098 8.90351 14.5298 8.9515 14.4818C8.9515 14.4818 8.81554 14.4658 8.71157 14.3778C8.71157 14.3778 8.72757 14.4338 8.71157 14.4578C8.71157 14.4578 8.55162 14.4098 8.52763 14.3778C8.52763 14.3778 8.92751 14.2819 9.11945 14.2179C9.12745 14.2579 9.16743 14.3219 9.21542 14.3059C9.23675 14.2899 9.23675 14.2525 9.21542 14.1939L9.26341 14.2099C9.30073 14.2099 9.31939 14.1912 9.31939 14.1539C9.31939 14.1166 9.30073 14.0979 9.26341 14.0979L9.20742 14.1379C9.19943 14.0979 9.17543 14.0259 9.14344 14.0339L9.13544 14.0259ZM9.2954 14.1539C9.2954 14.1699 9.28473 14.1779 9.26341 14.1779C9.25967 14.1792 9.25567 14.1796 9.25176 14.179C9.24785 14.1784 9.24414 14.1769 9.24097 14.1745C9.2378 14.1721 9.23527 14.169 9.23361 14.1654C9.23194 14.1618 9.23119 14.1579 9.23141 14.1539C9.23141 14.1379 9.24208 14.1272 9.26341 14.1219C9.28473 14.1219 9.29273 14.1326 9.2874 14.1539H9.2954Z" fill="#F1B517" stroke="black" stroke-width="0.0160029"/>
<path d="M15.4405 14.2737C15.4565 14.2417 15.4405 14.0978 15.4405 14.0978C15.4005 14.0978 15.3605 14.1538 15.3605 14.1538C15.4005 14.0258 15.2966 13.8339 15.2966 13.8339C15.3685 13.8419 15.6085 14.0738 15.6165 14.1218C15.6165 14.1218 15.5125 14.0818 15.4965 14.0898C15.5205 14.2097 15.6005 14.2657 15.6325 14.3297C15.6325 14.3297 15.4965 14.3537 15.5045 14.4737H15.4165C15.3845 14.4337 15.4245 14.3697 15.4245 14.3697L14.8087 14.1138C14.7687 14.0978 14.6808 14.0498 14.6967 14.0018C14.7047 13.9618 14.8567 14.0258 14.8887 14.0418L15.4405 14.2737Z" fill="#F1B517" stroke="black" stroke-width="0.0160029"/>
<path d="M14.8487 14.1619L14.9287 14.0339C14.9527 13.9939 14.8967 13.9539 14.8567 14.0019L14.7768 14.1219C14.7448 14.1939 14.8168 14.2098 14.8567 14.1619H14.8487Z" fill="#F1B517" stroke="black" stroke-width="0.0160029"/>
<path d="M10.5106 14.4701L10.5059 14.3294L10.3277 14.3341L10.3184 14.4935L10.5106 14.4701Z" fill="white" stroke="black" stroke-width="0.0140651"/>
<path d="M9.22153 14.6764L8.98711 14.5451C9.9576 14.6342 10.1592 14.292 10.3936 14.2732C10.5343 14.2638 10.5577 14.4326 10.2811 14.3529L10.3514 14.5311C10.3514 14.5311 9.65754 14.9202 8.98242 14.7655L9.21684 14.6717L9.22153 14.6764ZM13.4645 14.4701V14.3295H13.6848L13.6942 14.4889L13.4598 14.4701H13.4645Z" fill="white" stroke="black" stroke-width="0.0140651"/>
<path d="M14.7951 14.6386L15.02 14.5168C13.9047 14.5543 14.1577 14.334 13.6001 14.2731C13.4595 14.259 13.3471 14.4465 13.7126 14.3528L13.6423 14.5308H13.8157C14.1851 14.7547 14.628 14.8237 15.0481 14.723L14.7951 14.6386Z" fill="white" stroke="black" stroke-width="0.0140651"/>
<path d="M10.2761 14.3528V14.606C10.2761 14.606 10.895 14.8404 11.9967 14.8404C13.0985 14.8404 13.7174 14.606 13.7174 14.606V14.3528C13.7174 14.3528 13.2485 14.5685 11.9967 14.5685C10.7496 14.5685 10.2761 14.3528 10.2761 14.3528Z" fill="white" stroke="black" stroke-width="0.0140651"/>
<path d="M10.3652 14.6108L10.4215 14.4232L10.4449 14.4326L10.3981 14.592L10.4918 14.6201L10.4871 14.6436L10.3652 14.6061V14.6108ZM10.5481 14.5264V14.4889L10.5575 14.4607L10.5856 14.4654L10.5762 14.4982L10.5621 14.5311L10.5481 14.5264ZM10.8106 14.5123L10.8388 14.5217L10.8153 14.6295C10.8153 14.6483 10.8091 14.6639 10.7966 14.6764L10.7684 14.6951H10.7215L10.6747 14.6764L10.6606 14.6483V14.6014L10.684 14.4889L10.7122 14.4935L10.6887 14.6014C10.6825 14.6201 10.6825 14.6326 10.6887 14.6389C10.6887 14.6483 10.6919 14.6561 10.6981 14.6623L10.7215 14.6717H10.7684C10.7778 14.6623 10.7841 14.6467 10.7872 14.6248L10.8106 14.5123ZM10.8388 14.7139L10.8716 14.5264H10.8997L10.9794 14.6951L11.0028 14.5451L11.0263 14.5498L10.9935 14.7373H10.97L10.8903 14.5686L10.8669 14.7186H10.8388V14.7139ZM11.045 14.7467L11.0732 14.5592H11.0966L11.0685 14.7467H11.045ZM11.1201 14.6623C11.1202 14.6489 11.1232 14.6357 11.1289 14.6236C11.1345 14.6115 11.1427 14.6007 11.1529 14.592C11.1633 14.5837 11.1754 14.5778 11.1884 14.5745C11.2013 14.5713 11.2148 14.5709 11.2279 14.5732C11.2466 14.5732 11.2623 14.5779 11.2748 14.5873C11.2904 14.5998 11.2998 14.6139 11.3029 14.6295C11.3092 14.6451 11.3107 14.6623 11.3076 14.6811L11.2888 14.728C11.2795 14.7467 11.267 14.7577 11.2513 14.7608L11.2044 14.7702L11.1576 14.7514C11.1388 14.742 11.1279 14.728 11.1247 14.7092L11.1201 14.6623ZM11.1482 14.6623C11.1451 14.6905 11.1482 14.7108 11.1576 14.7233C11.1669 14.7358 11.1826 14.7436 11.2044 14.7467C11.2263 14.7498 11.2435 14.7452 11.256 14.7326C11.2716 14.7201 11.2795 14.7014 11.2795 14.6764V14.6342L11.256 14.6061L11.2232 14.592C11.2044 14.592 11.1888 14.5967 11.1763 14.6061C11.1576 14.6154 11.1482 14.6358 11.1482 14.667V14.6623ZM11.331 14.7795L11.3451 14.5873H11.3732L11.467 14.7467L11.4764 14.5967H11.5045L11.4858 14.7936H11.4623L11.3685 14.6295L11.3545 14.7795H11.331ZM11.6123 14.7983L11.617 14.6061L11.7577 14.6108L11.753 14.6342H11.6452V14.6905H11.7389L11.7342 14.7139H11.6405V14.7983H11.6123ZM11.753 14.803L11.8374 14.6154H11.8655L11.9452 14.8077H11.9124L11.8889 14.7467H11.8139L11.7905 14.8077H11.7624L11.753 14.803ZM11.8139 14.728H11.8843L11.8655 14.6764L11.8514 14.6342C11.8514 14.6467 11.8468 14.6592 11.8374 14.6717L11.8139 14.728ZM11.9687 14.8077V14.6154H11.9968V14.8077H11.9687ZM12.0905 14.8077V14.6389H12.0249V14.6154H12.1796V14.6342H12.114L12.1187 14.8077H12.0905ZM12.2875 14.803L12.2781 14.6108H12.3062L12.3109 14.7795L12.4094 14.7748V14.7983H12.2875V14.803ZM12.4234 14.7983L12.4844 14.6014H12.5125L12.6063 14.7842H12.5781L12.55 14.728L12.4656 14.7373L12.4516 14.7936H12.4234V14.7983ZM12.4703 14.7139H12.5406L12.5172 14.6576L12.4984 14.6201L12.4891 14.6576L12.4703 14.7139ZM12.7047 14.7748L12.686 14.5873L12.8172 14.5686V14.592L12.7141 14.6061L12.7188 14.6623L12.8126 14.6529V14.6764L12.7235 14.6858L12.7329 14.7702L12.7094 14.7748H12.7047ZM12.8548 14.667C12.8516 14.6358 12.8563 14.6092 12.8688 14.5873C12.8766 14.5768 12.8864 14.5681 12.8977 14.5616C12.909 14.5552 12.9215 14.5512 12.9345 14.5498L12.9813 14.5592C13.0001 14.5592 13.0142 14.5686 13.0235 14.5873C13.0412 14.6186 13.0463 14.6555 13.0376 14.6905L13.0095 14.728L12.9626 14.7467L12.911 14.742L12.8735 14.7092L12.8548 14.6623V14.667ZM12.8782 14.6623C12.8813 14.6873 12.8907 14.703 12.9063 14.7092C12.9219 14.7217 12.9391 14.728 12.9579 14.728C12.9766 14.728 12.9923 14.7186 13.0048 14.6998C13.0142 14.6873 13.0173 14.667 13.0142 14.6389L13.0001 14.6014L12.972 14.5779L12.9345 14.5732C12.9252 14.572 12.9158 14.5736 12.9074 14.5778C12.8991 14.582 12.8922 14.5886 12.8876 14.5967C12.8782 14.6123 12.8766 14.6342 12.8829 14.6623H12.8782ZM13.0892 14.728L13.0517 14.5404L13.1407 14.5217H13.1829C13.1923 14.5217 13.2001 14.5264 13.2064 14.5357C13.2158 14.5389 13.2204 14.5482 13.2204 14.5639L13.2111 14.5967C13.2048 14.6061 13.1923 14.6139 13.1736 14.6201L13.1923 14.6295L13.2204 14.6483L13.2626 14.6951L13.2298 14.6998L13.197 14.667L13.1736 14.6436L13.1595 14.6342H13.0985L13.1173 14.7233H13.0892V14.728ZM13.0939 14.6154L13.1501 14.6061C13.1626 14.6061 13.172 14.6029 13.1782 14.5967L13.1923 14.5686L13.1782 14.5451H13.1454L13.0845 14.5545L13.0939 14.6154ZM13.408 14.5967H13.4361C13.4361 14.6154 13.4299 14.6326 13.4174 14.6483C13.4049 14.6608 13.3892 14.6701 13.3705 14.6764H13.3189L13.2767 14.6436L13.2579 14.5967V14.5451C13.2579 14.5264 13.2658 14.5123 13.2814 14.5029L13.3283 14.4842H13.3752C13.3939 14.4935 13.408 14.506 13.4174 14.5217L13.3939 14.5311L13.3658 14.5076H13.333C13.3173 14.5076 13.3048 14.5123 13.2955 14.5217L13.2814 14.5545C13.2805 14.5808 13.287 14.6067 13.3001 14.6295C13.3095 14.642 13.3189 14.6498 13.3283 14.6529H13.3658C13.3783 14.6529 13.3892 14.6467 13.3986 14.6342C13.408 14.6217 13.4111 14.6092 13.408 14.5967ZM13.483 14.6436L13.4314 14.4607L13.5721 14.4232V14.4467L13.4595 14.4795L13.4783 14.5357L13.5814 14.5076L13.5908 14.5264L13.483 14.5545L13.5017 14.6201L13.619 14.5873L13.6283 14.6108L13.483 14.6436Z" fill="#000001"/>
</g>
<defs>
<clipPath id="clip0_720_53469">
<rect width="24.0044" height="24.0044" fill="white" transform="translate(0 0.0393066)"/>
</clipPath>
</defs>
</svg>
