<svg width="25" height="25" viewBox="0 0 25 25" fill="none" xmlns="http://www.w3.org/2000/svg">
<g clip-path="url(#clip0_720_53398)">
<path d="M0.00878906 0.0393066H24.0132V24.0437H0.00878906V0.0393066Z" fill="#18C3DF"/>
<path d="M0.00878906 8.04236H24.0132V16.0407H0.00878906V8.04236Z" fill="white"/>
<path d="M12.0102 10.7078L11.6104 12.0408L12.2768 12.174L12.0102 10.7078Z" fill="#18C3DF"/>
<path d="M12.0108 10.7079L12.4106 12.0408L11.7442 12.1741L12.0108 10.7079Z" fill="#18C3DF"/>
<path d="M13.2798 11.6297L11.8886 11.6613L11.9677 12.3363L13.2798 11.6297Z" fill="#18C3DF"/>
<path d="M13.28 11.6301L12.1359 12.4223L11.8032 11.8296L13.28 11.6301Z" fill="#18C3DF"/>
<path d="M10.7427 11.6295L11.8868 12.4217L12.2196 11.8291L10.7427 11.6295Z" fill="#18C3DF"/>
<path d="M10.7429 11.6291L12.1341 11.6607L12.055 12.3358L10.7429 11.6291Z" fill="#18C3DF"/>
<path d="M12.7954 13.1202L12.3354 11.8068L11.7179 12.0907L12.7954 13.1202Z" fill="#18C3DF"/>
<path d="M12.7952 13.1205L11.6882 12.2772L12.149 11.7776L12.7952 13.1205Z" fill="#18C3DF"/>
<path d="M11.2273 13.1205L12.3343 12.2772L11.8734 11.7776L11.2273 13.1205Z" fill="#18C3DF"/>
<path d="M11.2271 13.1202L11.687 11.8068L12.3046 12.0907L11.2271 13.1202Z" fill="#18C3DF"/>
<path d="M18.678 8.57489L18.2781 9.90782L18.9445 10.0411L18.678 8.57489Z" fill="#18C3DF"/>
<path d="M18.6782 8.57489L19.0781 9.90782L18.4117 10.0411L18.6782 8.57489Z" fill="#18C3DF"/>
<path d="M19.9461 9.49609L18.5548 9.52768L18.634 10.2027L19.9461 9.49609Z" fill="#18C3DF"/>
<path d="M19.9463 9.49646L18.8021 10.2887L18.4694 9.69601L19.9463 9.49646Z" fill="#18C3DF"/>
<path d="M17.409 9.4964L18.5531 10.2886L18.8858 9.69595L17.409 9.4964Z" fill="#18C3DF"/>
<path d="M17.4091 9.49609L18.8004 9.52768L18.7212 10.2027L17.4091 9.49609Z" fill="#18C3DF"/>
<path d="M19.4619 10.9872L19.0019 9.67377L18.3844 9.95768L19.4619 10.9872Z" fill="#18C3DF"/>
<path d="M19.4617 10.9874L18.3547 10.144L18.8155 9.64447L19.4617 10.9874Z" fill="#18C3DF"/>
<path d="M17.894 10.9873L19.001 10.144L18.5402 9.64441L17.894 10.9873Z" fill="#18C3DF"/>
<path d="M17.8936 10.9871L18.3535 9.67371L18.9711 9.95761L17.8936 10.9871Z" fill="#18C3DF"/>
<path d="M18.678 12.574L18.2781 13.907L18.9445 14.0403L18.678 12.574Z" fill="#18C3DF"/>
<path d="M18.6782 12.574L19.0781 13.907L18.4117 14.0403L18.6782 12.574Z" fill="#18C3DF"/>
<path d="M19.9461 13.4952L18.5548 13.5268L18.634 14.2019L19.9461 13.4952Z" fill="#18C3DF"/>
<path d="M19.9463 13.4956L18.8021 14.2878L18.4694 13.6952L19.9463 13.4956Z" fill="#18C3DF"/>
<path d="M17.409 13.4956L18.5531 14.2878L18.8858 13.6952L17.409 13.4956Z" fill="#18C3DF"/>
<path d="M17.4091 13.4952L18.8004 13.5268L18.7212 14.2019L17.4091 13.4952Z" fill="#18C3DF"/>
<path d="M19.4619 14.9863L19.0019 13.6729L18.3844 13.9568L19.4619 14.9863Z" fill="#18C3DF"/>
<path d="M19.4617 14.9865L18.3547 14.1432L18.8155 13.6436L19.4617 14.9865Z" fill="#18C3DF"/>
<path d="M17.894 14.9865L19.001 14.1431L18.5402 13.6436L17.894 14.9865Z" fill="#18C3DF"/>
<path d="M17.8936 14.9863L18.3535 13.6729L18.9711 13.9568L17.8936 14.9863Z" fill="#18C3DF"/>
<path d="M5.34373 8.57489L4.94385 9.90782L5.61031 10.0411L5.34373 8.57489Z" fill="#18C3DF"/>
<path d="M5.34402 8.57489L5.7439 9.90782L5.07743 10.0411L5.34402 8.57489Z" fill="#18C3DF"/>
<path d="M6.61185 9.49609L5.22059 9.52768L5.29977 10.2027L6.61185 9.49609Z" fill="#18C3DF"/>
<path d="M6.61203 9.49646L5.4679 10.2887L5.13519 9.69601L6.61203 9.49646Z" fill="#18C3DF"/>
<path d="M4.07572 9.49646L5.21984 10.2887L5.55256 9.69601L4.07572 9.49646Z" fill="#18C3DF"/>
<path d="M4.07589 9.49609L5.46715 9.52768L5.38797 10.2027L4.07589 9.49609Z" fill="#18C3DF"/>
<path d="M6.12766 10.9872L5.6677 9.67377L5.05017 9.95768L6.12766 10.9872Z" fill="#18C3DF"/>
<path d="M6.12746 10.9874L5.02048 10.144L5.48131 9.64447L6.12746 10.9874Z" fill="#18C3DF"/>
<path d="M4.56101 10.9873L5.668 10.144L5.20716 9.64441L4.56101 10.9873Z" fill="#18C3DF"/>
<path d="M4.56033 10.9871L5.02029 9.67371L5.63782 9.95761L4.56033 10.9871Z" fill="#18C3DF"/>
<path d="M5.34373 12.574L4.94385 13.907L5.61031 14.0403L5.34373 12.574Z" fill="#18C3DF"/>
<path d="M5.34402 12.5739L5.7439 13.9068L5.07743 14.0401L5.34402 12.5739Z" fill="#18C3DF"/>
<path d="M6.61185 13.4952L5.22059 13.5268L5.29977 14.2019L6.61185 13.4952Z" fill="#18C3DF"/>
<path d="M6.61203 13.4956L5.4679 14.2878L5.13519 13.6952L6.61203 13.4956Z" fill="#18C3DF"/>
<path d="M4.07572 13.4956L5.21984 14.2878L5.55256 13.6952L4.07572 13.4956Z" fill="#18C3DF"/>
<path d="M4.07589 13.4952L5.46715 13.5268L5.38797 14.2019L4.07589 13.4952Z" fill="#18C3DF"/>
<path d="M6.12766 14.9863L5.6677 13.6729L5.05017 13.9568L6.12766 14.9863Z" fill="#18C3DF"/>
<path d="M6.12746 14.9865L5.02048 14.1432L5.48131 13.6436L6.12746 14.9865Z" fill="#18C3DF"/>
<path d="M4.56101 14.9864L5.668 14.1431L5.20716 13.6435L4.56101 14.9864Z" fill="#18C3DF"/>
<path d="M4.56033 14.9863L5.02029 13.6729L5.63782 13.9568L4.56033 14.9863Z" fill="#18C3DF"/>
</g>
<defs>
<clipPath id="clip0_720_53398">
<rect width="24.0044" height="24.0044" fill="white" transform="translate(0.00878906 0.0393066)"/>
</clipPath>
</defs>
</svg>
