<svg width="25" height="25" viewBox="0 0 25 25" fill="none" xmlns="http://www.w3.org/2000/svg">
<g clip-path="url(#clip0_720_53482)">
<path d="M0.0131836 0.0393066H24.0176V24.0437H0.0131836" fill="#EC1B2E"/>
<path d="M13.2484 5.62784C9.53052 5.38405 7.82396 10.2599 11.3402 12.0603C10.1213 11.0101 10.3744 9.46291 10.8667 8.66589L10.9558 8.71278C10.3088 9.81923 10.4307 11.1882 11.4715 12.0415C10.8808 11.4695 11.0308 10.213 12.0435 9.75359C13.0562 9.29413 13.1499 7.91107 12.8124 7.45161C12.3529 6.65146 12.4982 6.04198 13.2484 5.62315V5.62784ZM11.4481 8.47836L11.2277 8.8253L11.1433 8.4221L10.7401 8.31427L11.1058 8.11267L11.0777 7.69071L11.3824 7.98139L11.7716 7.82668L11.5981 8.20175L11.8606 8.52524L11.4481 8.47836Z" fill="white"/>
<path d="M18.4092 11.6801C17.4921 8.06886 12.3275 7.95255 11.7019 11.8531C12.324 10.3692 13.8737 10.1319 14.7838 10.3538L14.7668 10.453C13.5145 10.1796 12.2502 10.7186 11.7603 11.9721C12.1218 11.2335 13.3631 10.9879 14.113 11.8091C14.8629 12.6302 16.2073 12.292 16.5399 11.829C17.1589 11.1448 17.7835 11.0946 18.4136 11.6786L18.4092 11.6801ZM15.1418 10.8487L14.7438 10.7464L15.1012 10.5415L15.0791 10.1247L15.3839 10.4102L15.7765 10.2531L15.5942 10.6327L15.8616 10.955L15.4513 10.9059L15.2247 11.2556L15.1418 10.8487Z" fill="white"/>
<path d="M14.248 18.4586C17.3991 16.4705 15.9138 11.5227 12.0108 12.133C13.6143 12.2662 14.3189 13.6666 14.3891 14.6008L14.2895 14.6152C14.1625 13.3398 13.2592 12.3039 11.9157 12.2254C12.7298 12.3409 13.3469 13.4456 12.7977 14.4125C12.2485 15.3795 12.9856 16.5535 13.5288 16.7268C14.3708 17.1041 14.6114 17.6826 14.2507 18.4624L14.248 18.4586ZM14.029 15.0942L14.0033 14.684L14.3086 14.9606L14.6982 14.8109L14.5208 15.1889L14.7916 15.5137L14.3742 15.4577L14.1503 15.8116L14.0702 15.4062L13.6677 15.2988L14.029 15.0942Z" fill="white"/>
<path d="M6.5152 16.5957C9.37972 18.9782 13.6263 16.0367 11.8398 12.5134C12.2087 14.0795 11.0945 15.1823 10.2277 15.5378L10.1832 15.4475C11.357 14.9327 12.0631 13.7535 11.7226 12.4514C11.8643 13.2613 11.0044 14.1897 9.91504 13.9661C8.8257 13.7426 7.9369 14.8064 7.93993 15.3765C7.84132 16.2939 7.3655 16.7016 6.51244 16.5995L6.5152 16.5957ZM9.64719 15.3478L10.0294 15.1966L9.86066 15.5724L10.1235 15.8967L9.70912 15.8448L9.48387 16.2027L9.40818 15.7884L9.00242 15.6849L9.36322 15.4834L9.34096 15.0674L9.64719 15.3478Z" fill="white"/>
<path d="M5.89762 8.66587C4.51687 12.1264 8.62676 15.2562 11.4256 12.4684C10.0501 13.3032 8.65689 12.5843 8.051 11.8698L8.12311 11.7996C8.97548 12.7568 10.3151 13.0639 11.4483 12.3377C10.7218 12.7228 9.57314 12.1918 9.44911 11.0867C9.32507 9.98163 8.03867 9.46507 7.49739 9.64413C6.59443 9.83384 6.05968 9.50727 5.89316 8.66443L5.89762 8.66587ZM8.05229 11.2589L8.31416 11.5757L7.90462 11.5314L7.67747 11.8815L7.59874 11.4714L7.18875 11.3678L7.55937 11.1678L7.53247 10.7499L7.83558 11.0308L8.22437 10.8811L8.05229 11.2589Z" fill="white"/>
</g>
<defs>
<clipPath id="clip0_720_53482">
<rect width="24.0044" height="24.0044" fill="white" transform="translate(0.0131836 0.0393066)"/>
</clipPath>
</defs>
</svg>
