<svg width="25" height="25" viewBox="0 0 25 25" fill="none" xmlns="http://www.w3.org/2000/svg">
<g clip-path="url(#clip0_720_53438)">
<path d="M0.0263672 0.0393066H24.0307V8.04233H0.0263672V0.0393066Z" fill="#FF9933"/>
<path d="M0.0263672 8.04236H24.0307V16.0407H0.0263672V8.04236Z" fill="white"/>
<path d="M0.0263672 16.0407H24.0307V24.0437H0.0263672V16.0407Z" fill="#128807"/>
<path d="M12.028 15.242C13.7956 15.242 15.2286 13.8091 15.2286 12.0415C15.2286 10.2738 13.7956 8.84088 12.028 8.84088C10.2603 8.84088 8.82739 10.2738 8.82739 12.0415C8.82739 13.8091 10.2603 15.242 12.028 15.242Z" fill="#000088"/>
<path d="M12.0278 14.842C13.5745 14.842 14.8283 13.5882 14.8283 12.0415C14.8283 10.4948 13.5745 9.24097 12.0278 9.24097C10.4811 9.24097 9.22729 10.4948 9.22729 12.0415C9.22729 13.5882 10.4811 14.842 12.0278 14.842Z" fill="white"/>
<path d="M12.0276 12.601C12.3368 12.601 12.5874 12.3504 12.5874 12.0412C12.5874 11.732 12.3368 11.4814 12.0276 11.4814C11.7184 11.4814 11.4678 11.732 11.4678 12.0412C11.4678 12.3504 11.7184 12.601 12.0276 12.601Z" fill="#000088"/>
<path d="M14.7865 12.5506C14.8654 12.561 14.9377 12.5055 14.9481 12.4267C14.9584 12.3479 14.9029 12.2756 14.8241 12.2652C14.7453 12.2548 14.673 12.3103 14.6626 12.3891C14.6522 12.4679 14.7077 12.5403 14.7865 12.5506Z" fill="#000088"/>
<path d="M12.0289 14.8419L12.1249 13.1616L12.0289 12.3615L11.9329 13.1616L12.0289 14.8419Z" fill="#000088"/>
<path d="M14.5609 13.247C14.6344 13.2774 14.7186 13.2425 14.749 13.1691C14.7794 13.0956 14.7445 13.0114 14.6711 12.981C14.5976 12.9506 14.5134 12.9854 14.483 13.0589C14.4526 13.1324 14.4875 13.2166 14.5609 13.247Z" fill="#000088"/>
<path d="M11.3043 14.7465L11.8319 13.1483L11.9463 12.3506L11.6464 13.0986L11.3043 14.7465Z" fill="#000088"/>
<path d="M14.1616 13.8616C14.2247 13.91 14.315 13.8981 14.3634 13.835C14.4118 13.7719 14.3999 13.6816 14.3369 13.6332C14.2738 13.5848 14.1834 13.5967 14.135 13.6597C14.0866 13.7228 14.0985 13.8132 14.1616 13.8616Z" fill="#000088"/>
<path d="M10.6278 14.467L11.5511 13.0598L11.8681 12.3189L11.3848 12.9638L10.6278 14.467Z" fill="#000088"/>
<path d="M13.6183 14.3517C13.6667 14.4148 13.757 14.4267 13.8201 14.3783C13.8832 14.3299 13.8951 14.2395 13.8467 14.1765C13.7983 14.1134 13.7079 14.1015 13.6448 14.1499C13.5817 14.1983 13.5699 14.2887 13.6183 14.3517Z" fill="#000088"/>
<path d="M10.0481 14.022L11.3041 12.9017L11.802 12.268L11.1683 12.7659L10.0481 14.022Z" fill="#000088"/>
<path d="M12.9661 14.6842C12.9965 14.7577 13.0807 14.7926 13.1542 14.7621C13.2276 14.7317 13.2625 14.6475 13.2321 14.574C13.2017 14.5006 13.1175 14.4657 13.044 14.4961C12.9706 14.5266 12.9357 14.6108 12.9661 14.6842Z" fill="#000088"/>
<path d="M9.603 13.4417L11.1062 12.6847L11.7511 12.2014L11.0102 12.5184L9.603 13.4417Z" fill="#000088"/>
<path d="M12.2507 14.8369C12.2611 14.9157 12.3334 14.9712 12.4122 14.9609C12.491 14.9505 12.5465 14.8782 12.5361 14.7993C12.5257 14.7205 12.4534 14.665 12.3746 14.6754C12.2958 14.6858 12.2403 14.7581 12.2507 14.8369Z" fill="#000088"/>
<path d="M9.32375 12.7663L10.9716 12.4241L11.7197 12.1243L10.9219 12.2386L9.32375 12.7663Z" fill="#000088"/>
<path d="M11.5188 14.7989C11.5084 14.8778 11.5639 14.9501 11.6427 14.9604C11.7215 14.9708 11.7938 14.9153 11.8042 14.8365C11.8146 14.7577 11.7591 14.6854 11.6803 14.675C11.6014 14.6646 11.5291 14.7201 11.5188 14.7989Z" fill="#000088"/>
<path d="M9.22756 12.0413L10.9079 12.1373L11.708 12.0413L10.9079 11.9453L9.22756 12.0413Z" fill="#000088"/>
<path d="M10.823 14.5732C10.7925 14.6467 10.8274 14.7309 10.9009 14.7613C10.9743 14.7917 11.0585 14.7569 11.089 14.6834C11.1194 14.61 11.0845 14.5258 11.011 14.4953C10.9376 14.4649 10.8534 14.4998 10.823 14.5732Z" fill="#000088"/>
<path d="M9.32336 11.3165L10.9216 11.8441L11.7193 11.9585L10.9713 11.6586L9.32336 11.3165Z" fill="#000088"/>
<path d="M10.2079 14.1751C10.1595 14.2382 10.1714 14.3286 10.2344 14.377C10.2975 14.4254 10.3879 14.4135 10.4363 14.3504C10.4847 14.2873 10.4728 14.197 10.4097 14.1486C10.3466 14.1002 10.2563 14.1121 10.2079 14.1751Z" fill="#000088"/>
<path d="M9.60244 10.6413L11.0096 11.5646L11.7506 11.8816L11.1056 11.3983L9.60244 10.6413Z" fill="#000088"/>
<path d="M9.71736 13.6313C9.65428 13.6797 9.64239 13.77 9.69078 13.8331C9.73918 13.8962 9.82955 13.9081 9.89263 13.8597C9.9557 13.8113 9.9676 13.7209 9.9192 13.6578C9.8708 13.5948 9.78043 13.5829 9.71736 13.6313Z" fill="#000088"/>
<path d="M10.0471 10.0611L11.1673 11.3172L11.801 11.8151L11.3031 11.1814L10.0471 10.0611Z" fill="#000088"/>
<path d="M9.38378 12.9793C9.31032 13.0098 9.27544 13.094 9.30587 13.1674C9.33629 13.2409 9.4205 13.2758 9.49395 13.2453C9.56741 13.2149 9.60229 13.1307 9.57186 13.0572C9.54144 12.9838 9.45723 12.9489 9.38378 12.9793Z" fill="#000088"/>
<path d="M10.6263 9.61619L11.3833 11.1194L11.8666 11.7643L11.5496 11.0234L10.6263 9.61619Z" fill="#000088"/>
<path d="M9.23156 12.2633C9.15274 12.2737 9.09725 12.346 9.10763 12.4248C9.118 12.5036 9.19032 12.5591 9.26914 12.5488C9.34797 12.5384 9.40345 12.4661 9.39308 12.3872C9.3827 12.3084 9.31039 12.2529 9.23156 12.2633Z" fill="#000088"/>
<path d="M11.3024 9.33638L11.6445 10.9843L11.9444 11.7323L11.83 10.9346L11.3024 9.33638Z" fill="#000088"/>
<path d="M9.26912 11.5322C9.1903 11.5219 9.11799 11.5774 9.10761 11.6562C9.09723 11.735 9.15272 11.8073 9.23154 11.8177C9.31037 11.8281 9.38268 11.7726 9.39306 11.6938C9.40344 11.6149 9.34795 11.5426 9.26912 11.5322Z" fill="#000088"/>
<path d="M12.0268 9.24099L11.9308 10.9213L12.0268 11.7214L12.1228 10.9213L12.0268 9.24099Z" fill="#000088"/>
<path d="M9.49476 10.8358C9.42131 10.8054 9.3371 10.8403 9.30667 10.9137C9.27625 10.9872 9.31113 11.0714 9.38458 11.1018C9.45803 11.1323 9.54224 11.0974 9.57267 11.0239C9.60309 10.9505 9.56821 10.8663 9.49476 10.8358Z" fill="#000088"/>
<path d="M12.7514 9.33642L12.2237 10.9346L12.1094 11.7324L12.4092 10.9843L12.7514 9.33642Z" fill="#000088"/>
<path d="M9.89358 10.2218C9.83051 10.1734 9.74014 10.1853 9.69174 10.2484C9.64334 10.3114 9.65524 10.4018 9.71831 10.4502C9.78139 10.4986 9.87176 10.4867 9.92015 10.4236C9.96855 10.3606 9.95666 10.2702 9.89358 10.2218Z" fill="#000088"/>
<path d="M13.4273 9.6163L12.504 11.0235L12.1871 11.7644L12.6703 11.1195L13.4273 9.6163Z" fill="#000088"/>
<path d="M10.4379 9.73152C10.3895 9.66844 10.2991 9.65655 10.2361 9.70494C10.173 9.75334 10.1611 9.84371 10.2095 9.90679C10.2579 9.96986 10.3483 9.98176 10.4113 9.93336C10.4744 9.88496 10.4863 9.79459 10.4379 9.73152Z" fill="#000088"/>
<path d="M14.0081 10.0611L12.752 11.1814L12.2541 11.815L12.8878 11.3171L14.0081 10.0611Z" fill="#000088"/>
<path d="M11.0901 9.39861C11.0596 9.32515 10.9754 9.29027 10.902 9.3207C10.8285 9.35112 10.7936 9.43533 10.8241 9.50879C10.8545 9.58224 10.9387 9.61712 11.0121 9.5867C11.0856 9.55627 11.1205 9.47206 11.0901 9.39861Z" fill="#000088"/>
<path d="M14.4532 10.6412L12.95 11.3982L12.305 11.8814L13.046 11.5645L14.4532 10.6412Z" fill="#000088"/>
<path d="M11.8052 9.24603C11.7949 9.1672 11.7225 9.11171 11.6437 9.12209C11.5649 9.13247 11.5094 9.20478 11.5198 9.28361C11.5302 9.36243 11.6025 9.41792 11.6813 9.40754C11.7601 9.39716 11.8156 9.32485 11.8052 9.24603Z" fill="#000088"/>
<path d="M14.7322 11.3167L13.0843 11.6588L12.3362 11.9586L13.134 11.8443L14.7322 11.3167Z" fill="#000088"/>
<path d="M12.5369 9.28365C12.5473 9.20482 12.4918 9.13251 12.413 9.12213C12.3341 9.11176 12.2618 9.16724 12.2515 9.24607C12.2411 9.32489 12.2966 9.39721 12.3754 9.40758C12.4542 9.41796 12.5265 9.36247 12.5369 9.28365Z" fill="#000088"/>
<path d="M14.8283 12.0413L13.148 11.9453L12.3479 12.0413L13.148 12.1373L14.8283 12.0413Z" fill="#000088"/>
<path d="M13.233 9.50941C13.2634 9.43595 13.2285 9.35175 13.155 9.32132C13.0816 9.29089 12.9974 9.32578 12.967 9.39923C12.9365 9.47268 12.9714 9.55689 13.0449 9.58732C13.1183 9.61774 13.2025 9.58286 13.233 9.50941Z" fill="#000088"/>
<path d="M14.7325 12.7662L13.1344 12.2385L12.3366 12.1242L13.0846 12.424L14.7325 12.7662Z" fill="#000088"/>
<path d="M13.8483 9.90792C13.8967 9.84485 13.8848 9.75448 13.8217 9.70608C13.7586 9.65768 13.6683 9.66958 13.6199 9.73265C13.5715 9.79573 13.5834 9.8861 13.6464 9.9345C13.7095 9.9829 13.7999 9.971 13.8483 9.90792Z" fill="#000088"/>
<path d="M14.454 13.442L13.0468 12.5187L12.3058 12.2018L12.9508 12.685L14.454 13.442Z" fill="#000088"/>
<path d="M14.3388 10.4516C14.4019 10.4032 14.4138 10.3128 14.3654 10.2497C14.317 10.1867 14.2266 10.1748 14.1635 10.2232C14.1004 10.2716 14.0886 10.3619 14.137 10.425C14.1854 10.4881 14.2757 10.5 14.3388 10.4516Z" fill="#000088"/>
<path d="M14.0086 14.0217L12.8883 12.7657L12.2547 12.2678L12.7526 12.9015L14.0086 14.0217Z" fill="#000088"/>
<path d="M14.6714 11.1036C14.7449 11.0732 14.7797 10.989 14.7493 10.9155C14.7189 10.8421 14.6347 10.8072 14.5612 10.8376C14.4878 10.868 14.4529 10.9522 14.4833 11.0257C14.5137 11.0992 14.5979 11.134 14.6714 11.1036Z" fill="#000088"/>
<path d="M13.4288 14.4668L12.6718 12.9636L12.1886 12.3186L12.5055 13.0596L13.4288 14.4668Z" fill="#000088"/>
<path d="M14.8234 11.8196C14.9022 11.8093 14.9577 11.7369 14.9473 11.6581C14.9369 11.5793 14.8646 11.5238 14.7858 11.5342C14.707 11.5446 14.6515 11.6169 14.6619 11.6957C14.6722 11.7745 14.7445 11.83 14.8234 11.8196Z" fill="#000088"/>
<path d="M12.7528 14.7465L12.4107 13.0986L12.1108 12.3506L12.2252 13.1483L12.7528 14.7465Z" fill="#000088"/>
</g>
<defs>
<clipPath id="clip0_720_53438">
<rect width="24.0044" height="24.0044" fill="white" transform="translate(0.026123 0.0393066)"/>
</clipPath>
</defs>
</svg>
