<svg width="25" height="25" viewBox="0 0 25 25" fill="none" xmlns="http://www.w3.org/2000/svg">
<g clip-path="url(#clip0_720_53379)">
<mask id="mask0_720_53379" style="mask-type:luminance" maskUnits="userSpaceOnUse" x="0" y="0" width="25" height="25">
<path d="M0.0344238 0.0393066H24.0351V24.04H0.0344238V0.0393066Z" fill="white"/>
</mask>
<g mask="url(#mask0_720_53379)">
<path fill-rule="evenodd" clip-rule="evenodd" d="M-8.96606 0.0393066H33.04V24.04H-8.96606V0.0393066Z" fill="white"/>
<path fill-rule="evenodd" clip-rule="evenodd" d="M-8.96606 16.1575H33.04V24.0449H-8.96606V16.1575Z" fill="#DA0000"/>
<path fill-rule="evenodd" clip-rule="evenodd" d="M-0.981934 16.4915H1.32136V16.6511H-0.981934V16.4915ZM-0.638375 17.285H-0.478694V17.4399H-0.643214L-0.638375 17.285ZM1.3262 17.2802V17.4399H0.866507V17.2802H1.3262ZM1.57298 16.4915H1.73266V17.4399H1.57298V16.4915Z" fill="white"/>
<path fill-rule="evenodd" clip-rule="evenodd" d="M2.48668 17.28V17.4396H1.61611V17.28H2.48668ZM0.866455 16.9124H1.02606V17.4396H0.866455V16.9124Z" fill="white"/>
<path fill-rule="evenodd" clip-rule="evenodd" d="M2.35687 16.4915H2.51655V17.4399H2.36171L2.35687 16.4915ZM1.96493 16.4915H2.11977V17.4399H1.96976L1.96493 16.4915ZM-0.135135 16.8689V17.0286H-0.981934V16.8689H-0.135135ZM1.70363 16.8689V17.0286H0.866507V16.8689H1.70363Z" fill="white"/>
<path fill-rule="evenodd" clip-rule="evenodd" d="M0.866455 16.9076H1.02606V17.4396H0.866455V16.9076Z" fill="white"/>
<path fill-rule="evenodd" clip-rule="evenodd" d="M0.866455 16.9076H1.02606V17.4396H0.866455V16.9076Z" fill="white"/>
<path fill-rule="evenodd" clip-rule="evenodd" d="M0.86561 16.9074H1.02521V17.4394H0.86561V16.9074ZM-0.972261 16.9074H-0.817493V17.4394H-0.981934L-0.972261 16.9074ZM0.372287 16.9074H0.531891V17.4394H0.372287V16.9074ZM-0.295151 16.9074H-0.135546V17.4394H-0.295151V16.9074Z" fill="white"/>
<path fill-rule="evenodd" clip-rule="evenodd" d="M0.483671 17.2798V17.4394H-0.227295V17.2798H0.483671ZM0.532036 16.8687V17.0283H0.0822408V16.8687H0.532036Z" fill="white"/>
<path fill-rule="evenodd" clip-rule="evenodd" d="M2.76782 16.4914H5.06628V16.6511H2.76782V16.4914ZM3.10654 17.285H3.26622V17.4398H3.11138L3.10654 17.285ZM5.07111 17.2801V17.4398H4.61142V17.2801H5.07111ZM5.3179 16.4914H5.47758V17.4398H5.3179V16.4914Z" fill="white"/>
<path fill-rule="evenodd" clip-rule="evenodd" d="M6.23664 17.28V17.4396H5.36607V17.28H6.23664ZM4.61157 16.9124H4.77118V17.4396H4.61157V16.9124Z" fill="white"/>
<path fill-rule="evenodd" clip-rule="evenodd" d="M6.10667 16.4914H6.26635V17.4398H6.10667V16.4914ZM5.70989 16.4914H5.86957V17.4398H5.70989V16.4914ZM3.60983 16.8688V17.0285H2.77271V16.8688H3.60983ZM5.44859 16.8688V17.0285H4.61147V16.8688H5.44859Z" fill="white"/>
<path fill-rule="evenodd" clip-rule="evenodd" d="M4.61157 16.9076H4.77118V17.4396H4.61157V16.9076Z" fill="white"/>
<path fill-rule="evenodd" clip-rule="evenodd" d="M4.61157 16.9076H4.77118V17.4396H4.61157V16.9076Z" fill="white"/>
<path fill-rule="evenodd" clip-rule="evenodd" d="M4.61058 16.9073H4.77018V17.4394H4.61058V16.9073ZM2.77271 16.9073H2.92747V17.4394H2.77271V16.9073ZM4.12209 16.9073H4.27686V17.4394H4.12209V16.9073ZM3.44982 16.9073H3.60942V17.4394H3.44982V16.9073Z" fill="white"/>
<path fill-rule="evenodd" clip-rule="evenodd" d="M4.23387 17.2799V17.4395H3.51807V17.2799H4.23387ZM4.28223 16.8688V17.0284H3.8276V16.8688H4.28223Z" fill="white"/>
<path fill-rule="evenodd" clip-rule="evenodd" d="M6.5376 16.4914H8.83605V16.6511H6.5376V16.4914ZM6.88116 17.285H7.04084V17.4398H6.88116V17.285ZM8.84573 17.2801V17.4398H8.38604V17.2801H8.84573ZM9.08767 16.4914H9.24735V17.4398H9.09251L9.08767 16.4914Z" fill="white"/>
<path fill-rule="evenodd" clip-rule="evenodd" d="M10.0062 17.28V17.4396H9.13564V17.28H10.0062ZM8.38599 16.9124H8.54075V17.4396H8.38599V16.9124Z" fill="white"/>
<path fill-rule="evenodd" clip-rule="evenodd" d="M9.87645 16.4914H10.0361V17.4398H9.87645V16.4914ZM9.4845 16.4914H9.63934V17.4398H9.47966L9.4845 16.4914ZM7.3796 16.8688V17.0285H6.54248V16.8688H7.3796ZM9.2232 16.8688V17.0285H8.38608V16.8688H9.2232Z" fill="white"/>
<path fill-rule="evenodd" clip-rule="evenodd" d="M8.38599 16.9076H8.54075V17.4396H8.38599V16.9076Z" fill="white"/>
<path fill-rule="evenodd" clip-rule="evenodd" d="M8.38599 16.9076H8.54075V17.4396H8.38599V16.9076Z" fill="white"/>
<path fill-rule="evenodd" clip-rule="evenodd" d="M8.38519 16.9073H8.53995V17.4394H8.38519V16.9073ZM6.54248 16.9073H6.70208V17.4394H6.54248V16.9073ZM7.89186 16.9073H8.05147V17.4394H7.89186V16.9073ZM7.22443 16.9073H7.38403V17.4394H7.22443V16.9073Z" fill="white"/>
<path fill-rule="evenodd" clip-rule="evenodd" d="M8.0032 17.2799V17.4395H7.29224V17.2799H8.0032ZM8.05157 16.8688V17.0284H7.60177V16.8688H8.05157Z" fill="white"/>
<path fill-rule="evenodd" clip-rule="evenodd" d="M10.3213 16.4915H12.6246V16.6511H10.3213V16.4915ZM10.6648 17.285H10.8245V17.4399H10.6648V17.285ZM12.6294 17.2802V17.4399H12.1697V17.2802H12.6294ZM12.8762 16.4915H13.0359V17.4399H12.8762V16.4915Z" fill="white"/>
<path fill-rule="evenodd" clip-rule="evenodd" d="M13.7899 17.28V17.4396H12.9193V17.28H13.7899ZM12.1697 16.9124H12.3293V17.4396H12.1697V16.9124Z" fill="white"/>
<path fill-rule="evenodd" clip-rule="evenodd" d="M13.6601 16.4915H13.8198V17.4399H13.6601V16.4915ZM13.2682 16.4915H13.423V17.4399H13.2682V16.4915ZM11.1681 16.8689V17.0286H10.3262V16.8689H11.1681ZM13.0069 16.8689V17.0286H12.1698V16.8689H13.0069Z" fill="white"/>
<path fill-rule="evenodd" clip-rule="evenodd" d="M12.1697 16.9076H12.3293V17.4396H12.1697V16.9076Z" fill="white"/>
<path fill-rule="evenodd" clip-rule="evenodd" d="M12.1697 16.9076H12.3293V17.4396H12.1697V16.9076Z" fill="white"/>
<path fill-rule="evenodd" clip-rule="evenodd" d="M12.1689 16.9076H12.3285V17.4396H12.1689V16.9076ZM10.331 16.9076H10.4858V17.4396H10.3262L10.331 16.9076ZM11.6756 16.9076H11.8352V17.4396H11.6756V16.9076ZM11.0081 16.9076H11.1677V17.4396H11.0081V16.9076Z" fill="white"/>
<path fill-rule="evenodd" clip-rule="evenodd" d="M11.7918 17.2798V17.4394H11.0808V17.2798H11.7918ZM11.8353 16.8687V17.0283H11.3855V16.8687H11.8353Z" fill="white"/>
<path fill-rule="evenodd" clip-rule="evenodd" d="M-8.96606 0.0393066H33.04V7.92663H-8.96606V0.0393066Z" fill="#239F40"/>
<path fill-rule="evenodd" clip-rule="evenodd" d="M14.1296 16.4915H16.4281V16.6511H14.1296V16.4915ZM14.4732 17.285H14.6329V17.4399H14.4732V17.285ZM16.4378 17.2802V17.4399H15.9781V17.2802H16.4378ZM16.6797 16.4915H16.8442V17.4399H16.6797V16.4915Z" fill="white"/>
<path fill-rule="evenodd" clip-rule="evenodd" d="M17.5985 17.28V17.4396H16.7279V17.28H17.5985ZM15.9783 16.9124H16.133V17.4396H15.9783V16.9124Z" fill="white"/>
<path fill-rule="evenodd" clip-rule="evenodd" d="M17.4685 16.4915H17.6282V17.4399H17.4685V16.4915ZM17.0765 16.4915H17.2314V17.4399H17.0765V16.4915ZM14.9765 16.8689V17.0286H14.1345V16.8689H14.9765ZM16.8152 16.8689V17.0286H15.9781V16.8689H16.8152Z" fill="white"/>
<path fill-rule="evenodd" clip-rule="evenodd" d="M15.9783 16.9076H16.133V17.4396H15.9783V16.9076Z" fill="white"/>
<path fill-rule="evenodd" clip-rule="evenodd" d="M15.9783 16.9076H16.133V17.4396H15.9783V16.9076Z" fill="white"/>
<path fill-rule="evenodd" clip-rule="evenodd" d="M15.9772 16.9074H16.132V17.4394H15.9772V16.9074ZM14.1345 16.9074H14.2941V17.4394H14.1345V16.9074ZM15.4839 16.9074H15.6435V17.4394H15.4839V16.9074ZM14.8165 16.9074H14.9761V17.4394H14.8165V16.9074Z" fill="white"/>
<path fill-rule="evenodd" clip-rule="evenodd" d="M15.5957 17.2799V17.4395H14.8848V17.2799H15.5957ZM15.6441 16.8688V17.0284H15.1943V16.8688H15.6441Z" fill="white"/>
<path fill-rule="evenodd" clip-rule="evenodd" d="M17.9138 16.4915H20.2171V16.6511H17.9138V16.4915ZM18.2574 17.285H18.4171V17.4399H18.2574V17.285ZM20.222 17.2802V17.4399H19.7623V17.2802H20.222ZM20.4687 16.4915H20.6284V17.4399H20.4687V16.4915Z" fill="white"/>
<path fill-rule="evenodd" clip-rule="evenodd" d="M21.3822 17.28V17.4396H20.5116V17.28H21.3822ZM19.762 16.9124H19.9216V17.4396H19.762V16.9124Z" fill="white"/>
<path fill-rule="evenodd" clip-rule="evenodd" d="M21.2575 16.4915H21.4124V17.4399H21.2575V16.4915ZM20.8607 16.4915H21.0204V17.4399H20.8607V16.4915ZM18.7607 16.8689V17.0286H17.9187V16.8689H18.7607ZM20.5994 16.8689V17.0286H19.7623V16.8689H20.5994Z" fill="white"/>
<path fill-rule="evenodd" clip-rule="evenodd" d="M19.762 16.9076H19.9216V17.4396H19.762V16.9076Z" fill="white"/>
<path fill-rule="evenodd" clip-rule="evenodd" d="M19.762 16.9076H19.9216V17.4396H19.762V16.9076Z" fill="white"/>
<path fill-rule="evenodd" clip-rule="evenodd" d="M19.7614 16.9074H19.921V17.4394H19.7614V16.9074ZM17.9235 16.9074H18.0783V17.4394H17.9187L17.9235 16.9074ZM19.2681 16.9074H19.4277V17.4394H19.2681V16.9074ZM18.6006 16.9074H18.7603V17.4394H18.6006V16.9074Z" fill="white"/>
<path fill-rule="evenodd" clip-rule="evenodd" d="M19.3795 17.2798V17.4394H18.6733V17.2798H19.3795ZM19.4278 16.8687V17.0283H18.978V16.8687H19.4278Z" fill="white"/>
<path fill-rule="evenodd" clip-rule="evenodd" d="M21.7021 16.4915H24.0006V16.6511H21.7021V16.4915ZM22.0409 17.285H22.2005V17.4399H22.0409V17.285ZM24.0054 17.2802V17.4399H23.5506V17.2802H24.0054ZM24.2522 16.4915H24.4119V17.4399H24.2522V16.4915Z" fill="white"/>
<path fill-rule="evenodd" clip-rule="evenodd" d="M25.1707 17.2798V17.4394H24.3001V17.2798H25.1707ZM23.5457 16.9122H23.7053V17.4394H23.5457V16.9122Z" fill="white"/>
<path fill-rule="evenodd" clip-rule="evenodd" d="M25.041 16.4915H25.2006V17.4399H25.041V16.4915ZM24.6442 16.4915H24.8039V17.4399H24.6442V16.4915ZM22.5441 16.8689V17.0286H21.7021V16.8689H22.5441ZM24.3829 16.8689V17.0286H23.5506V16.8689H24.3829Z" fill="white"/>
<path fill-rule="evenodd" clip-rule="evenodd" d="M23.5505 16.9074H23.7053V17.4394H23.5457L23.5505 16.9074Z" fill="white"/>
<path fill-rule="evenodd" clip-rule="evenodd" d="M23.5505 16.9074H23.7053V17.4394H23.5457L23.5505 16.9074Z" fill="white"/>
<path fill-rule="evenodd" clip-rule="evenodd" d="M23.5497 16.9076H23.7045V17.4396H23.5449L23.5497 16.9076ZM21.7021 16.9076H21.8618V17.4396H21.7021V16.9076ZM23.0564 16.9076H23.2111V17.4396H23.0515L23.0564 16.9076ZM22.3841 16.9076H22.5437V17.4396H22.3841V16.9076Z" fill="white"/>
<path fill-rule="evenodd" clip-rule="evenodd" d="M23.1632 17.2799V17.4395H22.457V17.2799H23.1632ZM23.2115 16.8688V17.0284H22.7617V16.8688H23.2115Z" fill="white"/>
<path fill-rule="evenodd" clip-rule="evenodd" d="M-0.981934 6.76526H1.32136V6.9201H-0.981934V6.76526ZM-0.638375 7.55399H-0.478694V7.70883H-0.643214L-0.638375 7.55399ZM1.3262 7.55399V7.70883H0.866507V7.54915L1.3262 7.55399ZM1.57298 6.76526H1.73266V7.70883H1.57298V6.76526Z" fill="white"/>
<path fill-rule="evenodd" clip-rule="evenodd" d="M2.48668 7.54897V7.70857H1.61611V7.54897H2.48668ZM0.866455 7.1814H1.02606V7.71341H0.866455V7.1814Z" fill="white"/>
<path fill-rule="evenodd" clip-rule="evenodd" d="M2.35687 6.76526H2.51655V7.70883H2.36171L2.35687 6.76526ZM1.96493 6.76526H2.11977V7.70883H1.96976L1.96493 6.76526ZM-0.135135 7.13785V7.29753H-0.981934V7.14269L-0.135135 7.13785ZM1.70363 7.13785V7.29753H0.866507V7.14269L1.70363 7.13785Z" fill="white"/>
<path fill-rule="evenodd" clip-rule="evenodd" d="M0.866455 7.1814H1.02606V7.71341H0.866455V7.1814Z" fill="white"/>
<path fill-rule="evenodd" clip-rule="evenodd" d="M0.866455 7.1814H1.02606V7.71341H0.866455V7.1814Z" fill="white"/>
<path fill-rule="evenodd" clip-rule="evenodd" d="M0.86561 7.18121H1.02521V7.71323H0.86561V7.18121ZM-0.972261 7.18121H-0.817493V7.71323H-0.981934L-0.972261 7.18121ZM0.372287 7.18121H0.531891V7.71323H0.372287V7.18121ZM-0.295151 7.18121H-0.135546V7.71323H-0.295151V7.18121Z" fill="white"/>
<path fill-rule="evenodd" clip-rule="evenodd" d="M0.483671 7.54878V7.70839H-0.227295V7.54878H0.483671ZM0.532036 7.14252V7.29728H0.0822408V7.14252H0.532036Z" fill="white"/>
<path fill-rule="evenodd" clip-rule="evenodd" d="M2.76782 6.76532H5.06628V6.92016H2.76782V6.76532ZM3.10654 7.55405H3.26622V7.7089H3.11138L3.10654 7.55405ZM5.07111 7.55405V7.7089H4.61142V7.54921L5.07111 7.55405ZM5.3179 6.76532H5.47758V7.7089H5.3179V6.76532Z" fill="white"/>
<path fill-rule="evenodd" clip-rule="evenodd" d="M6.23664 7.54897V7.70857H5.36607V7.54897H6.23664ZM4.61157 7.1814H4.77118V7.71341H4.61157V7.1814Z" fill="white"/>
<path fill-rule="evenodd" clip-rule="evenodd" d="M6.10667 6.76532H6.26635V7.7089H6.10667V6.76532ZM5.70989 6.76532H5.86957V7.7089H5.70989V6.76532ZM3.60983 7.13791V7.29759H2.77271V7.14275L3.60983 7.13791ZM5.44859 7.13791V7.29759H4.61147V7.14275L5.44859 7.13791Z" fill="white"/>
<path fill-rule="evenodd" clip-rule="evenodd" d="M4.61157 7.1814H4.77118V7.71341H4.61157V7.1814Z" fill="white"/>
<path fill-rule="evenodd" clip-rule="evenodd" d="M4.61157 7.1814H4.77118V7.71341H4.61157V7.1814Z" fill="white"/>
<path fill-rule="evenodd" clip-rule="evenodd" d="M4.61058 7.18127H4.77018V7.71329H4.61058V7.18127ZM2.77271 7.18127H2.92747V7.71329H2.77271V7.18127ZM4.12209 7.18127H4.27686V7.71329H4.12209V7.18127ZM3.44982 7.18127H3.60942V7.71329H3.44982V7.18127Z" fill="white"/>
<path fill-rule="evenodd" clip-rule="evenodd" d="M4.23387 7.54897V7.70857H3.51807V7.54897H4.23387ZM4.28223 7.1427V7.29747H3.8276V7.1427H4.28223Z" fill="white"/>
<path fill-rule="evenodd" clip-rule="evenodd" d="M6.5376 6.76532H8.83605V6.92016H6.5376V6.76532ZM6.88116 7.55405H7.04084V7.7089H6.88116V7.55405ZM8.84573 7.55405V7.7089H8.38604V7.54921L8.84573 7.55405ZM9.08767 6.76532H9.24735V7.7089H9.09251L9.08767 6.76532Z" fill="white"/>
<path fill-rule="evenodd" clip-rule="evenodd" d="M10.0062 7.54897V7.70857H9.13564V7.54897H10.0062ZM8.38599 7.1814H8.54075V7.71341H8.38599V7.1814Z" fill="white"/>
<path fill-rule="evenodd" clip-rule="evenodd" d="M9.87645 6.76532H10.0361V7.7089H9.87645V6.76532ZM9.4845 6.76532H9.63934V7.7089H9.47966L9.4845 6.76532ZM7.3796 7.13791V7.29759H6.54248V7.14275L7.3796 7.13791ZM9.2232 7.13791V7.29759H8.38608V7.14275L9.2232 7.13791Z" fill="white"/>
<path fill-rule="evenodd" clip-rule="evenodd" d="M8.38599 7.1814H8.54075V7.71341H8.38599V7.1814Z" fill="white"/>
<path fill-rule="evenodd" clip-rule="evenodd" d="M8.38599 7.1814H8.54075V7.71341H8.38599V7.1814Z" fill="white"/>
<path fill-rule="evenodd" clip-rule="evenodd" d="M8.38519 7.18127H8.53995V7.71329H8.38519V7.18127ZM6.54248 7.18127H6.70208V7.71329H6.54248V7.18127ZM7.89186 7.18127H8.05147V7.71329H7.89186V7.18127ZM7.22443 7.18127H7.38403V7.71329H7.22443V7.18127Z" fill="white"/>
<path fill-rule="evenodd" clip-rule="evenodd" d="M8.0032 7.54897V7.70857H7.29224V7.54897H8.0032ZM8.05157 7.1427V7.29747H7.60177V7.1427H8.05157Z" fill="white"/>
<path fill-rule="evenodd" clip-rule="evenodd" d="M10.3213 6.76526H12.6246V6.9201H10.3213V6.76526ZM10.6648 7.55399H10.8245V7.70883H10.6648V7.55399ZM12.6294 7.55399V7.70883H12.1697V7.54915L12.6294 7.55399ZM12.8762 6.76526H13.0359V7.70883H12.8762V6.76526Z" fill="white"/>
<path fill-rule="evenodd" clip-rule="evenodd" d="M13.7899 7.54897V7.70857H12.9193V7.54897H13.7899ZM12.1697 7.1814H12.3293V7.71341H12.1697V7.1814Z" fill="white"/>
<path fill-rule="evenodd" clip-rule="evenodd" d="M13.6601 6.76526H13.8198V7.70883H13.6601V6.76526ZM13.2682 6.76526H13.423V7.70883H13.2682V6.76526ZM11.1681 7.13785V7.29753H10.3262V7.14269L11.1681 7.13785ZM13.0069 7.13785V7.29753H12.1698V7.14269L13.0069 7.13785Z" fill="white"/>
<path fill-rule="evenodd" clip-rule="evenodd" d="M12.1697 7.1814H12.3293V7.71341H12.1697V7.1814Z" fill="white"/>
<path fill-rule="evenodd" clip-rule="evenodd" d="M12.1697 7.1814H12.3293V7.71341H12.1697V7.1814Z" fill="white"/>
<path fill-rule="evenodd" clip-rule="evenodd" d="M12.1689 7.1814H12.3285V7.71341H12.1689V7.1814ZM10.331 7.1814H10.4858V7.71341H10.3262L10.331 7.1814ZM11.6756 7.1814H11.8352V7.71341H11.6756V7.1814ZM11.0081 7.1814H11.1677V7.71341H11.0081V7.1814Z" fill="white"/>
<path fill-rule="evenodd" clip-rule="evenodd" d="M11.7918 7.54884V7.70845H11.0808V7.54884H11.7918ZM11.8353 7.14258V7.29735H11.3855V7.14258H11.8353Z" fill="white"/>
<path fill-rule="evenodd" clip-rule="evenodd" d="M14.1296 6.76526H16.4281V6.9201H14.1296V6.76526ZM14.4732 7.55399H14.6329V7.70883H14.4732V7.55399ZM16.4378 7.55399V7.70883H15.9781V7.54915L16.4378 7.55399ZM16.6797 6.76526H16.8442V7.70883H16.6797V6.76526Z" fill="white"/>
<path fill-rule="evenodd" clip-rule="evenodd" d="M17.5985 7.54897V7.70857H16.7279V7.54897H17.5985ZM15.9783 7.1814H16.133V7.71341H15.9783V7.1814Z" fill="white"/>
<path fill-rule="evenodd" clip-rule="evenodd" d="M17.4685 6.76526H17.6282V7.70883H17.4685V6.76526ZM17.0765 6.76526H17.2314V7.70883H17.0765V6.76526ZM14.9765 7.13785V7.29753H14.1345V7.14269L14.9765 7.13785ZM16.8152 7.13785V7.29753H15.9781V7.14269L16.8152 7.13785Z" fill="white"/>
<path fill-rule="evenodd" clip-rule="evenodd" d="M15.9783 7.1814H16.133V7.71341H15.9783V7.1814Z" fill="white"/>
<path fill-rule="evenodd" clip-rule="evenodd" d="M15.9783 7.1814H16.133V7.71341H15.9783V7.1814Z" fill="white"/>
<path fill-rule="evenodd" clip-rule="evenodd" d="M15.9772 7.18121H16.132V7.71323H15.9772V7.18121ZM14.1345 7.18121H14.2941V7.71323H14.1345V7.18121ZM15.4839 7.18121H15.6435V7.71323H15.4839V7.18121ZM14.8165 7.18121H14.9761V7.71323H14.8165V7.18121Z" fill="white"/>
<path fill-rule="evenodd" clip-rule="evenodd" d="M15.5957 7.54897V7.70857H14.8848V7.54897H15.5957ZM15.6441 7.1427V7.29747H15.1943V7.1427H15.6441Z" fill="white"/>
<path fill-rule="evenodd" clip-rule="evenodd" d="M17.9138 6.76526H20.2171V6.9201H17.9138V6.76526ZM18.2574 7.55399H18.4171V7.70883H18.2574V7.55399ZM20.222 7.55399V7.70883H19.7623V7.54915L20.222 7.55399ZM20.4687 6.76526H20.6284V7.70883H20.4687V6.76526Z" fill="white"/>
<path fill-rule="evenodd" clip-rule="evenodd" d="M21.3822 7.54897V7.70857H20.5116V7.54897H21.3822ZM19.762 7.1814H19.9216V7.71341H19.762V7.1814Z" fill="white"/>
<path fill-rule="evenodd" clip-rule="evenodd" d="M21.2575 6.76526H21.4124V7.70883H21.2575V6.76526ZM20.8607 6.76526H21.0204V7.70883H20.8607V6.76526ZM18.7607 7.13785V7.29753H17.9187V7.14269L18.7607 7.13785ZM20.5994 7.13785V7.29753H19.7623V7.14269L20.5994 7.13785Z" fill="white"/>
<path fill-rule="evenodd" clip-rule="evenodd" d="M19.762 7.1814H19.9216V7.71341H19.762V7.1814Z" fill="white"/>
<path fill-rule="evenodd" clip-rule="evenodd" d="M19.762 7.1814H19.9216V7.71341H19.762V7.1814Z" fill="white"/>
<path fill-rule="evenodd" clip-rule="evenodd" d="M19.7614 7.18121H19.921V7.71323H19.7614V7.18121ZM17.9235 7.18121H18.0783V7.71323H17.9187L17.9235 7.18121ZM19.2681 7.18121H19.4277V7.71323H19.2681V7.18121ZM18.6006 7.18121H18.7603V7.71323H18.6006V7.18121Z" fill="white"/>
<path fill-rule="evenodd" clip-rule="evenodd" d="M19.3795 7.54878V7.70839H18.6733V7.54878H19.3795ZM19.4278 7.14252V7.29728H18.978V7.14252H19.4278Z" fill="white"/>
<path fill-rule="evenodd" clip-rule="evenodd" d="M21.7021 6.76526H24.0006V6.9201H21.7021V6.76526ZM22.0409 7.55399H22.2005V7.70883H22.0409V7.55399ZM24.0054 7.55399V7.70883H23.5506V7.54915L24.0054 7.55399ZM24.2522 6.76526H24.4119V7.70883H24.2522V6.76526Z" fill="white"/>
<path fill-rule="evenodd" clip-rule="evenodd" d="M25.1707 7.54879V7.70839H24.3001V7.54879H25.1707ZM23.5457 7.18121H23.7053V7.71323H23.5457V7.18121Z" fill="white"/>
<path fill-rule="evenodd" clip-rule="evenodd" d="M25.041 6.76526H25.2006V7.70883H25.041V6.76526ZM24.6442 6.76526H24.8039V7.70883H24.6442V6.76526ZM22.5441 7.13785V7.29753H21.7021V7.14269L22.5441 7.13785ZM24.3829 7.13785V7.29753H23.5506V7.14269L24.3829 7.13785Z" fill="white"/>
<path fill-rule="evenodd" clip-rule="evenodd" d="M23.5505 7.18121H23.7053V7.71323H23.5457L23.5505 7.18121Z" fill="white"/>
<path fill-rule="evenodd" clip-rule="evenodd" d="M23.5505 7.18121H23.7053V7.71323H23.5457L23.5505 7.18121Z" fill="white"/>
<path fill-rule="evenodd" clip-rule="evenodd" d="M23.5497 7.1814H23.7045V7.71341H23.5449L23.5497 7.1814ZM21.7021 7.1814H21.8618V7.71341H21.7021V7.1814ZM23.0564 7.1814H23.2111V7.71341H23.0515L23.0564 7.1814ZM22.3841 7.1814H22.5437V7.71341H22.3841V7.1814Z" fill="white"/>
<path fill-rule="evenodd" clip-rule="evenodd" d="M23.1632 7.54897V7.70857H22.457V7.54897H23.1632ZM23.2115 7.1427V7.29747H22.7617V7.1427H23.2115Z" fill="white"/>
<path fill-rule="evenodd" clip-rule="evenodd" d="M-3.19332 15.9592H-2.90783V16.4431H-3.19332V15.9592ZM4.33109 15.9592H4.61659V16.4431H4.33109V15.9592ZM-8.96606 15.9592H-8.68541V16.4431H-8.96606V15.9592ZM-5.14821 15.9592H-4.86272V16.4431H-5.14821V15.9592ZM-1.35455 15.9592H-1.0739V16.4431H-1.35455V15.9592ZM0.52292 15.9592H0.803572V16.4431H0.52292V15.9592ZM2.43426 15.9592H2.7246V16.4431H2.43426V15.9592ZM6.20857 15.9592H6.49406V16.4431H6.20857V15.9592ZM15.7314 15.9592H16.0121V16.4431H15.7314V15.9592ZM8.12475 15.9592H8.41024V16.4431H8.12475V15.9592ZM10.0022 15.9592H10.2877V16.4431H10.0022V15.9592ZM11.8991 15.9592H12.1797V16.4431H11.8991V15.9592ZM13.7959 15.9592H14.0765V16.4431H13.7959V15.9592ZM28.9415 15.9592H29.2318V16.4431H28.9415V15.9592ZM17.5702 15.9592H17.8508V16.4431H17.5653L17.5702 15.9592ZM19.4815 15.9592H19.767V16.4431H19.4815V15.9592ZM21.4171 15.9592H21.7026V16.4431H21.4171V15.9592ZM23.2365 15.9592H23.522V16.4431H23.2365V15.9592ZM25.172 15.9592H25.4575V16.4431H25.1672L25.172 15.9592ZM27.0688 15.9592H27.3495V16.4431H27.0688V15.9592ZM32.6819 15.9592H32.9626V16.4431H32.6771L32.6819 15.9592ZM30.8625 15.9592H31.1432V16.4431H30.8625V15.9592ZM-7.0644 15.9592H-6.7789V16.4431H-7.0644V15.9592Z" fill="#D90000"/>
<path fill-rule="evenodd" clip-rule="evenodd" d="M-3.19332 7.66534H-2.90783V8.15407H-3.19332V7.66534ZM4.33109 7.66534H4.61659V8.15407H4.33109V7.66534ZM-8.96606 7.66534H-8.68541V8.15407H-8.96606V7.66534ZM-5.14821 7.66534H-4.86272V8.15407H-5.14821V7.66534ZM-1.35455 7.66534H-1.0739V8.15407H-1.35455V7.66534ZM0.52292 7.66534H0.803572V8.15407H0.52292V7.66534ZM2.43426 7.66534H2.7246V8.15407H2.43426V7.66534ZM6.20857 7.66534H6.49406V8.15407H6.20857V7.66534ZM15.7314 7.66534H16.0121V8.15407H15.7314V7.66534ZM8.12475 7.66534H8.41024V8.15407H8.12475V7.66534ZM10.0022 7.66534H10.2877V8.15407H10.0022V7.66534ZM11.8991 7.66534H12.1797V8.15407H11.8991V7.66534ZM13.7959 7.66534H14.0765V8.15407H13.7959V7.66534ZM28.9415 7.66534H29.2318V8.15407H28.9415V7.66534ZM17.5702 7.66534H17.8508V8.15407H17.5653L17.5702 7.66534ZM19.4815 7.66534H19.767V8.15407H19.4815V7.66534ZM21.4171 7.66534H21.7026V8.15407H21.4171V7.66534ZM23.2365 7.66534H23.522V8.15407H23.2365V7.66534ZM25.172 7.66534H25.4575V8.15407H25.1672L25.172 7.66534ZM27.0688 7.66534H27.3495V8.15407H27.0688V7.66534ZM32.6819 7.66534H32.9626V8.15407H32.6771L32.6819 7.66534ZM30.8625 7.66534H31.1432V8.15407H30.8625V7.66534ZM-7.0644 7.66534H-6.7789V8.15407H-7.0644V7.66534Z" fill="#239E3F"/>
<path fill-rule="evenodd" clip-rule="evenodd" d="M13.1468 9.30084C13.5484 9.78473 14.7678 12.4703 12.4113 14.2316C11.3032 15.0639 11.9903 15.1026 12.0242 15.2478C13.8049 14.2994 14.3856 13.0219 14.3711 11.8703C14.3565 10.7186 13.7517 9.71214 13.1517 9.30084H13.1468Z" fill="#DA0000"/>
<path fill-rule="evenodd" clip-rule="evenodd" d="M13.3888 9.17505C13.8223 9.44058 14.1915 9.79902 14.4698 10.2245C14.748 10.65 14.9284 11.132 14.9978 11.6356C15.0672 12.1392 15.024 12.652 14.8713 13.1369C14.7186 13.6218 14.4601 14.0668 14.1146 14.4397C15.3921 14.1591 17.0179 10.3896 13.3791 9.17505H13.3888ZM10.6839 9.17505C10.2503 9.44058 9.88111 9.79902 9.60287 10.2245C9.32463 10.65 9.14428 11.132 9.07485 11.6356C9.00541 12.1392 9.04862 12.652 9.20135 13.1369C9.35407 13.6218 9.61252 14.0668 9.95804 14.4397C8.67574 14.1591 7.04989 10.3896 10.6839 9.17505Z" fill="#DA0000"/>
<path fill-rule="evenodd" clip-rule="evenodd" d="M10.921 9.30084C10.5242 9.78473 9.30001 12.4703 11.6565 14.2316C12.7646 15.0639 12.0775 15.1026 12.0436 15.2478C10.2678 14.2994 9.68228 13.0219 9.6968 11.8703C9.71131 10.7186 10.321 9.71214 10.921 9.30084Z" fill="#DA0000"/>
<path fill-rule="evenodd" clip-rule="evenodd" d="M14.2938 15.001C13.5281 15.0306 12.766 14.8815 12.0679 14.5655C12.1744 14.7735 12.2615 14.9042 12.3728 15.1171C12.9921 15.1703 13.8486 15.2429 14.2938 15.001ZM9.84204 15.001C10.5388 15.0107 11.4195 14.9042 12.0679 14.5655C11.9615 14.7735 11.8744 14.9042 11.7631 15.1171C11.1437 15.1703 10.2872 15.2429 9.84204 15.001ZM11.1195 8.49756C11.2647 8.87015 11.6324 8.92822 12.0292 8.70563C12.3195 8.87983 12.7647 8.88951 12.9195 8.51208C13.0357 9.44113 12.0582 9.22339 12.0244 9.04435C11.6614 9.39275 10.984 9.18951 11.1195 8.49756Z" fill="#DA0000"/>
<path fill-rule="evenodd" clip-rule="evenodd" d="M12.0532 15.5865L12.421 15.1655L12.4694 9.5331L12.0339 9.146L11.5984 9.51375L11.6855 15.1849L12.0532 15.5865Z" fill="#DA0000"/>
</g>
</g>
<defs>
<clipPath id="clip0_720_53379">
<rect width="24.0044" height="24.0044" fill="white" transform="translate(0.0349121 0.0393066)"/>
</clipPath>
</defs>
</svg>
