<svg width="25" height="25" viewBox="0 0 25 25" fill="none" xmlns="http://www.w3.org/2000/svg">
<g clip-path="url(#clip0_720_53338)">
<path d="M0.0390625 8.04236H24.0434V16.0407H0.0390625V8.04236Z" fill="white"/>
<path d="M0.0390625 0.0393066H24.0434V8.04233H0.0390625V0.0393066Z" fill="#CE1126"/>
<path d="M0.0390625 16.0407H24.0434V24.0437H0.0390625V16.0407Z" fill="#000001"/>
<path d="M15.5872 10.5714L15.4646 10.4838C15.4295 10.4429 15.4646 10.4371 15.5697 10.4663C15.7624 10.5247 15.9172 10.5013 16.034 10.3962L16.1479 10.2998L16.2793 10.3611C16.3669 10.4079 16.4253 10.4283 16.4545 10.4225C16.5159 10.4049 16.6385 10.2472 16.6297 10.1947C16.6297 10.1334 16.6823 10.1509 16.7174 10.221C16.7699 10.3611 16.6911 10.5276 16.5421 10.5626C16.4837 10.5801 16.4078 10.5714 16.3144 10.5363C16.1917 10.4925 16.1654 10.4925 16.1041 10.5363C16.0329 10.5964 15.9444 10.6322 15.8514 10.6385C15.7585 10.6448 15.6659 10.6213 15.5872 10.5714ZM16.0953 10.1071C16.036 9.99992 16.0058 9.8791 16.0077 9.75664C16.0136 9.70408 16.0369 9.68656 16.0778 9.70408C16.1654 9.73036 16.183 9.79169 16.1654 9.9669C16.1654 10.1246 16.1421 10.1713 16.0953 10.1071ZM10.1731 9.94062C10.1644 10.0545 10.3834 10.3436 10.4798 10.3962C10.4097 10.4225 10.3308 10.4137 10.2695 10.44C9.91908 10.7904 8.65755 12.0169 8.42977 12.3148C9.1131 12.3323 9.86652 12.306 10.506 12.2797C10.506 11.8154 10.9441 11.7891 11.2419 11.6227C11.3909 11.8592 11.7676 11.8417 11.8201 12.2009V13.7427H5.99431C5.97227 13.8597 5.92593 13.9706 5.85829 14.0685C5.79065 14.1664 5.70321 14.2489 5.60163 14.3109C5.50006 14.3728 5.38661 14.4127 5.26863 14.4281C5.15065 14.4434 5.03077 14.4337 4.91675 14.3998C5.09196 14.2246 5.38982 14.1545 5.49495 13.9004C5.58256 13.3398 5.31974 12.9981 5.14453 12.6739C5.36491 12.6033 5.57211 12.4967 5.75777 12.3586C5.55628 12.9718 6.30093 12.9105 6.84409 12.893C6.86161 12.6827 6.85285 12.4374 6.69516 12.4024C6.89666 12.3235 6.9317 12.2972 7.27337 12.0169V12.8579L11.312 12.8492C11.312 12.5863 11.3821 12.1571 11.1719 12.1571C10.9791 12.1571 11.1719 12.7002 11.0142 12.7002H7.88661V12.1746C8.01802 12.0344 8.0005 12.0432 8.90285 11.1408C8.99045 11.0532 9.62998 10.475 10.1819 9.94062H10.1731ZM17.9789 9.91434C18.1979 10.037 18.3731 10.1947 18.6359 10.2648C18.6097 10.3787 18.5045 10.4225 18.4782 10.5363V12.9017C18.7761 12.963 18.8462 12.7878 18.9864 12.7002C19.0214 13.0769 19.2667 13.4449 19.2492 13.7515H17.9789V9.91434ZM16.2793 11.1846C16.2793 11.1846 16.7436 10.7904 16.7436 10.7729V12.8316H17.0765L17.0678 10.5276C17.1992 10.3874 17.4708 10.1947 17.5321 10.0545V13.734H14.606C14.5622 12.9718 14.5535 12.1833 15.4471 12.3498V12.0432C15.4208 11.9906 15.3682 12.0519 15.3595 11.9819C15.4996 11.8417 15.5434 11.8066 15.9289 11.4737L15.9377 12.8316H16.2793V11.1846ZM15.1755 12.8141C15.2368 12.9017 15.4558 12.9017 15.4383 12.744C15.412 12.6126 15.1317 12.6564 15.1755 12.8141Z" fill="#007A3D"/>
<path d="M6.6949 14.3558C6.79162 14.3558 6.87003 14.2774 6.87003 14.1807C6.87003 14.084 6.79162 14.0056 6.6949 14.0056C6.59818 14.0056 6.51978 14.084 6.51978 14.1807C6.51978 14.2774 6.59818 14.3558 6.6949 14.3558Z" fill="#007A3D"/>
<path d="M12.2144 9.9231C12.4334 10.037 12.6086 10.2034 12.8802 10.2735C12.8451 10.3786 12.7488 10.4225 12.7225 10.5363V12.9017C13.0203 12.963 13.0817 12.7966 13.2218 12.7002C13.2656 13.0769 13.5022 13.4536 13.4934 13.7515H12.2144V9.9231Z" fill="#007A3D"/>
</g>
<defs>
<clipPath id="clip0_720_53338">
<rect width="24.0044" height="24.0044" fill="white" transform="translate(0.0393066 0.0393066)"/>
</clipPath>
</defs>
</svg>
