<svg width="25" height="25" viewBox="0 0 25 25" fill="none" xmlns="http://www.w3.org/2000/svg">
<g clip-path="url(#clip0_720_53312)">
<path d="M0.026123 0.0437012H24.0305V24.0481H0.026123V0.0437012Z" fill="#00ABC2"/>
<path d="M12.9983 13.3546C14.7827 13.3546 16.2293 11.908 16.2293 10.1236C16.2293 8.33914 14.7827 6.89258 12.9983 6.89258C11.2139 6.89258 9.76733 8.33914 9.76733 10.1236C9.76733 11.908 11.2139 13.3546 12.9983 13.3546Z" fill="#FFEC2D"/>
<path d="M12.9981 6.45258C13.19 6.45018 13.262 6.33022 13.262 6.18626C13.262 5.99432 12.9981 5.0802 12.9981 5.0802C12.9981 5.0802 12.7341 5.99432 12.7341 6.18626C12.7341 6.33022 12.8061 6.45258 12.9981 6.45258Z" fill="#FFEC2D"/>
<path d="M16.6691 10.1234C16.6715 10.3153 16.7915 10.3873 16.9354 10.3873C17.1274 10.3873 18.0415 10.1234 18.0415 10.1234C18.0415 10.1234 17.1274 9.85944 16.9354 9.85944C16.7915 9.85944 16.6691 9.93141 16.6691 10.1234Z" fill="#FFEC2D"/>
<path d="M12.9983 13.7944C12.8063 13.7968 12.7344 13.9168 12.7344 14.0607C12.7344 14.2527 12.9983 15.1668 12.9983 15.1668C12.9983 15.1668 13.2622 14.2527 13.2622 14.0607C13.2622 13.9168 13.1902 13.7944 12.9983 13.7944Z" fill="#FFEC2D"/>
<path d="M9.32722 10.1237C9.32482 9.93171 9.20485 9.85973 9.0609 9.85973C8.86896 9.85973 7.95483 10.1237 7.95483 10.1237C7.95483 10.1237 8.86896 10.3876 9.0609 10.3876C9.20485 10.3876 9.32722 10.3156 9.32722 10.1237Z" fill="#FFEC2D"/>
<path d="M14.4035 6.73201C14.5817 6.80325 14.6941 6.71996 14.7492 6.58696C14.8227 6.40963 14.9286 5.4641 14.9286 5.4641C14.9286 5.4641 14.335 6.20764 14.2615 6.38497C14.2065 6.51797 14.2261 6.65856 14.4035 6.73201Z" fill="#FFEC2D"/>
<path d="M16.3904 11.5283C16.3191 11.7065 16.4024 11.8189 16.5354 11.874C16.7127 11.9475 17.6583 12.0535 17.6583 12.0535C17.6583 12.0535 16.9147 11.4598 16.7374 11.3864C16.6044 11.3313 16.4638 11.3509 16.3904 11.5283Z" fill="#FFEC2D"/>
<path d="M11.5941 13.5151C11.4159 13.4439 11.3034 13.5272 11.2484 13.6602C11.1749 13.8375 11.0689 14.783 11.0689 14.783C11.0689 14.783 11.6626 14.0395 11.736 13.8622C11.7911 13.7292 11.7714 13.5886 11.5941 13.5151Z" fill="#FFEC2D"/>
<path d="M9.6072 8.71886C9.67843 8.54061 9.59515 8.4282 9.46215 8.37311C9.28482 8.29966 8.33928 8.19367 8.33928 8.19367C8.33928 8.19367 9.08282 8.78732 9.26015 8.86077C9.39315 8.91586 9.53374 8.89619 9.6072 8.71886Z" fill="#FFEC2D"/>
<path d="M15.5941 7.52759C15.7315 7.66161 15.8673 7.62768 15.9691 7.52589C16.1048 7.39017 16.5645 6.55716 16.5645 6.55716C16.5645 6.55716 15.7315 7.01693 15.5958 7.15265C15.494 7.25444 15.4584 7.39186 15.5941 7.52759Z" fill="#FFEC2D"/>
<path d="M15.5944 12.7191C15.4604 12.8565 15.4943 12.9922 15.5961 13.094C15.7318 13.2297 16.5648 13.6895 16.5648 13.6895C16.5648 13.6895 16.1051 12.8565 15.9694 12.7208C15.8676 12.619 15.7301 12.5833 15.5944 12.7191Z" fill="#FFEC2D"/>
<path d="M10.4029 12.7192C10.2655 12.5852 10.1298 12.6191 10.028 12.7209C9.89228 12.8567 9.43252 13.6897 9.43252 13.6897C9.43252 13.6897 10.2655 13.2299 10.4012 13.0942C10.503 12.9924 10.5387 12.855 10.4029 12.7192Z" fill="#FFEC2D"/>
<path d="M10.4026 7.52776C10.5367 7.39034 10.5027 7.25462 10.401 7.15282C10.2652 7.0171 9.43223 6.55734 9.43223 6.55734C9.43223 6.55734 9.89199 7.39034 10.0277 7.52606C10.1295 7.62786 10.2669 7.66348 10.4026 7.52776Z" fill="#FFEC2D"/>
<path d="M16.39 8.71866C16.4656 8.89508 16.604 8.91567 16.737 8.86058C16.9143 8.78713 17.6579 8.19348 17.6579 8.19348C17.6579 8.19348 16.7123 8.29947 16.535 8.37292C16.402 8.42801 16.3165 8.54133 16.39 8.71866Z" fill="#FFEC2D"/>
<path d="M14.4033 13.515C14.2269 13.5907 14.2063 13.7291 14.2614 13.8621C14.3349 14.0394 14.9285 14.7829 14.9285 14.7829C14.9285 14.7829 14.8225 13.8374 14.7491 13.6601C14.694 13.5271 14.5807 13.4416 14.4033 13.515Z" fill="#FFEC2D"/>
<path d="M9.60686 11.5285C9.53119 11.3521 9.39281 11.3315 9.25982 11.3866C9.08249 11.46 8.33894 12.0537 8.33894 12.0537C8.33894 12.0537 9.28448 11.9477 9.46181 11.8742C9.59481 11.8191 9.68031 11.7058 9.60686 11.5285Z" fill="#FFEC2D"/>
<path d="M11.5935 6.73211C11.7699 6.65644 11.7905 6.51806 11.7354 6.38506C11.6619 6.20773 11.0683 5.46419 11.0683 5.46419C11.0683 5.46419 11.1743 6.40972 11.2477 6.58706C11.3028 6.72005 11.4162 6.80556 11.5935 6.73211Z" fill="#FFEC2D"/>
<path d="M13.7172 6.52378C13.9059 6.55903 14 6.4555 14.0282 6.31433C14.0658 6.12611 13.9861 5.178 13.9861 5.178C13.9861 5.178 13.5482 6.02268 13.5106 6.2109C13.4824 6.35207 13.529 6.48617 13.7172 6.52378Z" fill="#FFEC2D"/>
<path d="M16.5979 10.8427C16.5626 11.0314 16.6661 11.1255 16.8073 11.1537C16.9955 11.1913 17.9436 11.1116 17.9436 11.1116C17.9436 11.1116 17.099 10.6737 16.9107 10.6361C16.7696 10.6079 16.6355 10.6545 16.5979 10.8427Z" fill="#FFEC2D"/>
<path d="M12.2789 13.7234C12.0902 13.6881 11.9961 13.7916 11.9679 13.9328C11.9303 14.121 12.01 15.0691 12.01 15.0691C12.01 15.0691 12.4479 14.2244 12.4855 14.0362C12.5137 13.8951 12.4671 13.761 12.2789 13.7234Z" fill="#FFEC2D"/>
<path d="M9.39823 9.4044C9.43348 9.21571 9.32995 9.12162 9.18878 9.09341C9.00056 9.0558 8.05245 9.13548 8.05245 9.13548C8.05245 9.13548 8.89713 9.57341 9.08536 9.61102C9.22652 9.63922 9.36062 9.59262 9.39823 9.4044Z" fill="#FFEC2D"/>
<path d="M15.0418 7.07277C15.2026 7.17755 15.3292 7.11791 15.4093 6.99828C15.516 6.83878 15.8053 5.93234 15.8053 5.93234C15.8053 5.93234 15.0774 6.54514 14.9706 6.70464C14.8906 6.82427 14.8823 6.96599 15.0418 7.07277Z" fill="#FFEC2D"/>
<path d="M16.0502 12.1653C15.9454 12.3262 16.005 12.4527 16.1246 12.5328C16.2841 12.6396 17.1906 12.9288 17.1906 12.9288C17.1906 12.9288 16.5778 12.201 16.4183 12.0942C16.2987 12.0141 16.1569 12.0058 16.0502 12.1653Z" fill="#FFEC2D"/>
<path d="M10.9577 13.1739C10.7969 13.0691 10.6703 13.1287 10.5902 13.2484C10.4835 13.4079 10.1943 14.3143 10.1943 14.3143C10.1943 14.3143 10.9221 13.7015 11.0289 13.542C11.109 13.4224 11.1172 13.2806 10.9577 13.1739Z" fill="#FFEC2D"/>
<path d="M9.94911 8.08131C10.0539 7.92047 9.99425 7.79392 9.87462 7.71384C9.71512 7.60707 8.80868 7.31786 8.80868 7.31786C8.80868 7.31786 9.42149 8.04569 9.58099 8.15247C9.70061 8.23255 9.84234 8.24081 9.94911 8.08131Z" fill="#FFEC2D"/>
<path d="M16.0525 8.08668C16.161 8.24504 16.3008 8.23836 16.4205 8.15848C16.5802 8.05199 17.1943 7.32522 17.1943 7.32522C17.1943 7.32522 16.2873 7.61285 16.1277 7.71935C16.0079 7.79922 15.946 7.92699 16.0525 8.08668Z" fill="#FFEC2D"/>
<path d="M15.0353 13.1775C14.877 13.286 14.8837 13.4258 14.9635 13.5455C15.07 13.7052 15.7968 14.3193 15.7968 14.3193C15.7968 14.3193 15.5092 13.4123 15.4027 13.2527C15.3228 13.1329 15.195 13.071 15.0353 13.1775Z" fill="#FFEC2D"/>
<path d="M9.94454 12.1605C9.83605 12.0021 9.69631 12.0088 9.57654 12.0886C9.41686 12.1951 8.80278 12.9219 8.80278 12.9219C8.80278 12.9219 9.70973 12.6343 9.86941 12.5278C9.98918 12.4479 10.051 12.3201 9.94454 12.1605Z" fill="#FFEC2D"/>
<path d="M10.9615 7.06961C11.1199 6.96111 11.1132 6.82137 11.0333 6.70161C10.9268 6.54192 10.2 5.92785 10.2 5.92785C10.2 5.92785 10.4877 6.83479 10.5942 6.99447C10.674 7.11424 10.8018 7.1761 10.9615 7.06961Z" fill="#FFEC2D"/>
<path d="M16.5991 9.41035C16.6387 9.59817 16.7704 9.64547 16.9116 9.61751C17.0999 9.58023 17.9453 9.14378 17.9453 9.14378C17.9453 9.14378 16.9973 9.06244 16.809 9.09972C16.6678 9.12768 16.5618 9.22206 16.5991 9.41035Z" fill="#FFEC2D"/>
<path d="M13.7114 13.7245C13.5235 13.7641 13.4762 13.8958 13.5042 14.037C13.5415 14.2253 13.9779 15.0707 13.9779 15.0707C13.9779 15.0707 14.0593 14.1228 14.022 13.9345C13.994 13.7933 13.8996 13.6872 13.7114 13.7245Z" fill="#FFEC2D"/>
<path d="M9.39704 10.8367C9.3574 10.6488 9.22574 10.6015 9.08453 10.6295C8.89624 10.6668 8.05079 11.1032 8.05079 11.1032C8.05079 11.1032 8.99876 11.1846 9.18705 11.1473C9.32827 11.1193 9.43432 11.025 9.39704 10.8367Z" fill="#FFEC2D"/>
<path d="M12.285 6.52252C12.4728 6.48289 12.5201 6.35123 12.4921 6.21001C12.4549 6.02173 12.0184 5.17628 12.0184 5.17628C12.0184 5.17628 11.9371 6.12425 11.9744 6.31254C12.0023 6.45375 12.0967 6.55981 12.285 6.52252Z" fill="#FFEC2D"/>
<path d="M12.8858 15.7665C12.8018 15.9177 12.7514 16.0929 12.6458 16.2298C12.3193 15.9345 11.8488 15.9417 11.436 15.9249C11.0951 15.9057 10.7254 15.8745 10.4614 15.632C10.1853 15.404 9.95729 15.1112 9.65003 14.9263C9.36123 14.8643 9.08984 14.7389 8.85549 14.5591C8.3706 14.163 8.09215 13.5749 7.61686 13.1668C7.52805 13.0804 7.42003 13.0108 7.31921 12.9364C7.22319 12.9604 7.2664 13.1668 7.14878 13.0612C7.08397 13.0132 6.92314 13.0108 6.90873 13.0756C7.05276 13.2676 7.19919 13.4837 7.22079 13.7285C7.11997 13.7381 6.94474 13.7069 6.89673 13.7429C7.02853 13.9409 7.19431 14.114 7.38642 14.2542C7.2952 14.2686 7.11517 14.2614 7.07917 14.2974C7.25888 14.4695 7.48077 14.5912 7.72248 14.6503C7.77049 14.7175 7.64807 14.8471 7.75369 14.9047C7.8137 14.9287 8.01533 14.9719 7.87611 15.0415C7.78009 15.104 7.8161 15.2552 7.93852 15.2504C8.01534 15.2912 8.18817 15.2984 8.20257 15.3704C8.13296 15.4376 7.92172 15.5192 8.10175 15.5864C8.27148 15.6826 8.46139 15.7377 8.65625 15.7473C8.56023 15.8289 8.44021 15.8745 8.34179 15.9513C8.78588 16.213 9.27797 16.3834 9.76765 16.5514C9.95969 16.6138 10.1589 16.6738 10.3606 16.7122C9.77485 16.6786 9.20835 16.5058 8.67546 16.2682C8.40021 16.1465 8.12175 16.0329 7.8401 15.9273C7.96252 15.8625 8.10655 15.8457 8.23617 15.7905C7.96733 15.7377 7.67687 15.7185 7.44403 15.5744C7.47764 15.5072 7.61206 15.5048 7.68888 15.4712C7.8329 15.4376 7.91932 15.3992 7.72008 15.3848C7.51844 15.3296 7.288 15.3536 7.10797 15.2336C7.11997 15.1616 7.30721 15.1856 7.38162 15.1544C7.47764 15.1376 7.58326 15.1232 7.66007 15.0583C7.34801 14.9311 6.93994 15.0223 6.6951 14.7463C6.63989 14.6407 6.87033 14.7247 6.93514 14.7079C7.10317 14.7079 7.2832 14.7607 7.44403 14.6935C6.98795 14.4942 6.50066 14.3094 6.155 13.9397C6.11659 13.8797 6.00137 13.7165 6.09499 13.6973C6.36384 13.7333 6.55827 14.0262 6.84872 13.9805C6.88713 13.9301 6.68069 13.8461 6.62788 13.7717C6.19355 13.4229 5.81475 13.0101 5.50448 12.5475C5.48527 12.3867 5.73252 12.3627 5.79733 12.4851C6.11899 12.7971 6.40944 13.1572 6.81032 13.3684C6.95434 13.438 6.7287 13.2868 6.6999 13.2316C6.31868 12.8089 5.98911 12.3423 5.71812 11.8418C5.67011 11.7505 5.5957 11.5849 5.73492 11.5369C5.87175 11.4673 6.01097 11.5609 6.08058 11.6809C6.35183 12.0242 6.55347 12.4323 6.89193 12.7179C6.60388 12.1586 6.29422 11.5657 6.28702 10.9224C6.29422 10.7976 6.30142 10.6103 6.47185 10.6127C6.61588 10.5911 6.59188 10.7736 6.63988 10.86C6.77911 11.3353 6.83912 11.849 7.11997 12.2666C7.05996 11.9162 6.96634 11.5537 7.02876 11.196C7.04316 11.076 7.17278 11.0424 7.2616 11.1144C7.33121 11.2825 7.34561 11.4961 7.40802 11.6785C7.78214 12.9211 8.56983 13.9985 9.64043 14.7319C10.5172 15.3314 11.54 15.6823 12.6002 15.7473C12.6962 15.7553 12.7914 15.7609 12.8858 15.7641M16.16 17.9509C15.9872 18.0565 15.8528 17.8693 15.7087 17.814C15.6031 17.8717 15.5935 18.0589 15.4975 18.1501C15.3823 18.2821 15.2383 18.1117 15.2503 17.9821C15.111 18.0997 15.0414 18.3661 14.8182 18.3277C14.7102 18.2413 14.6309 18.0589 14.5493 18.2677C14.4845 18.3685 14.3093 18.5126 14.2157 18.3589C14.1869 18.2245 14.1196 18.0661 14.0476 18.2797C13.9948 18.4334 13.8316 18.5438 13.678 18.4766C13.5916 18.407 13.7452 18.1477 13.6372 18.1645C13.4739 18.2749 13.3779 18.5414 13.1499 18.5198C13.0611 18.4238 13.2051 18.2533 13.1067 18.1429C12.9938 18.2893 12.8666 18.5054 12.6674 18.5198C12.5714 18.443 12.6722 18.2197 12.6098 18.1885C12.4081 18.3085 12.1921 18.527 11.9377 18.4598C12.0361 18.0757 12.4537 17.9437 12.8018 17.9149C13.4043 17.8405 14.038 17.9773 14.6189 17.7588C14.7126 17.7012 14.9382 17.622 14.859 17.49C14.787 17.3844 15.0438 17.4252 15.0678 17.3028C15.0534 17.1491 15.1878 17.1707 15.3175 17.1587C15.9032 17.1323 16.4817 17.2547 17.065 17.2763C17.1082 17.5596 16.7937 17.7588 16.5369 17.6724C16.4169 17.6916 16.2368 17.394 16.2728 17.61C16.2488 17.7252 16.2632 17.8741 16.16 17.9509ZM11.1815 17.37C11.3159 17.4924 11.412 17.346 11.5392 17.2908C11.9546 17.1281 12.345 16.9075 12.6986 16.6354C12.9194 16.453 13.1115 16.2154 13.4091 16.1553C13.99 15.9801 14.6069 16.0017 15.1878 15.8385C15.6319 15.2336 16.3833 15.0151 17.0146 14.6671C17.1562 14.6239 17.2114 14.5062 17.2546 14.379C17.4947 13.9974 17.8235 13.6613 18.2124 13.4308C18.3958 13.322 18.6122 13.2828 18.8221 13.3204C18.794 13.5656 18.677 13.7919 18.4932 13.9565C18.6349 13.9541 18.7573 13.8653 18.8965 13.8701C18.9445 14.1246 18.6709 14.2566 18.5244 14.415C18.6061 14.4342 18.9181 14.4582 18.7477 14.5399C18.5316 14.6887 18.2844 14.7919 18.0852 14.9671C18.27 15.0007 18.2916 15.0391 18.1044 15.1064C18.0012 15.1736 17.8067 15.1976 17.7875 15.332C17.9267 15.4184 17.7251 15.5 17.6459 15.5288C17.4971 15.5648 17.3386 15.6296 17.5379 15.7449C17.4635 15.8577 17.3002 15.8817 17.1682 15.8697C17.209 15.9993 17.2666 16.1433 17.101 16.201C16.7293 16.4943 16.2843 16.6803 15.8144 16.7386C16.4025 16.7819 17.0098 16.6738 17.5115 16.3546C17.5787 16.2754 17.9267 16.189 17.7323 16.1241C17.6411 16.0857 17.4443 16.0425 17.4298 15.9729C17.7035 15.8049 18.0468 15.8649 18.3396 15.7665C18.3468 15.6705 18.1164 15.6969 18.03 15.6753C17.8259 15.6585 17.8379 15.6056 18.0348 15.5864C18.2844 15.5192 18.5677 15.5072 18.7789 15.3464C18.6085 15.2648 18.3924 15.3344 18.21 15.2696C18.5196 15.1352 18.8845 15.1208 19.163 14.9167C19.2902 14.7751 18.9997 14.8207 18.9157 14.8231C18.7453 14.8543 18.6661 14.7703 18.8605 14.7007C19.1942 14.4534 19.6142 14.295 19.8495 13.9397C19.9047 13.8605 19.9791 13.6205 19.8015 13.7045C19.571 13.7837 19.367 14.043 19.1006 13.9637C19.6238 13.5581 20.1183 13.0996 20.476 12.5403C20.4952 12.3771 20.2408 12.3603 20.1759 12.4875C19.8399 12.8091 19.5374 13.1908 19.1078 13.3948C19.5127 12.9898 19.8644 12.5349 20.1543 12.041C20.2192 11.897 20.3896 11.7217 20.2984 11.5609C20.1471 11.4361 19.9599 11.5513 19.8831 11.6977C19.6214 12.0386 19.4246 12.4347 19.091 12.7131C19.3814 12.1538 19.6863 11.5561 19.6911 10.9128C19.6911 10.7784 19.6671 10.5815 19.4846 10.6079C19.3406 10.6319 19.3766 10.848 19.3166 10.956C19.187 11.3977 19.1246 11.8754 18.8605 12.2594C18.9205 11.9018 19.0237 11.5273 18.9445 11.1672C18.9061 11.004 18.6445 11.0736 18.6805 11.2344C18.3684 12.8163 17.305 14.199 15.92 14.9983C15.2839 15.3584 14.5757 15.5888 13.8508 15.6945C13.6588 15.7353 13.4475 15.7113 13.2627 15.7785C12.8114 16.1217 12.5402 16.7002 11.9713 16.8803C11.7144 17.0075 11.3831 17.0339 11.2007 17.2691C11.1863 17.3007 11.1797 17.3353 11.1815 17.37ZM12.4225 17.1227C12.3361 17.1259 12.2513 17.1395 12.1681 17.1635C12.0553 17.1803 11.9472 17.2187 11.8368 17.2355L11.7912 17.2451L11.7168 17.2523C11.7264 17.2926 11.7264 17.3345 11.7168 17.3748C11.709 17.3929 11.6976 17.4092 11.6832 17.4228C11.6688 17.442 11.6512 17.4564 11.6304 17.466C11.6109 17.4756 11.5897 17.4813 11.568 17.4828C11.5472 17.4844 11.5256 17.4812 11.5032 17.4732C11.4824 17.4668 11.4624 17.4548 11.4432 17.4372L11.3759 17.4492H11.3135L11.2463 17.4252L11.1839 17.394C11.1023 17.442 11.0111 17.4876 10.9607 17.5716C10.9372 17.61 10.924 17.6538 10.9223 17.6988C10.9191 17.7564 10.9303 17.8124 10.9559 17.8669C10.9655 17.8813 10.9727 17.8116 10.9991 17.802C11.0471 17.7636 11.1007 17.7372 11.1599 17.7228C11.2079 17.6988 11.2007 17.7228 11.1815 17.7612C11.1767 17.7828 11.1503 17.8573 11.1863 17.8188C11.3523 17.7568 11.5276 17.7236 11.7048 17.7204C11.9593 17.6964 12.2137 17.6844 12.4681 17.6844L13.1883 17.6988C13.3035 17.7036 13.4187 17.7276 13.5315 17.7084C13.5579 17.7012 13.6012 17.7012 13.618 17.6844C13.5651 17.6556 13.5051 17.6532 13.4499 17.646H12.9914C12.8642 17.634 12.7322 17.6316 12.6122 17.5836C12.5786 17.5716 12.5498 17.5404 12.5186 17.574C12.4728 17.5903 12.4253 17.6008 12.3769 17.6052C12.2921 17.6084 12.2105 17.594 12.1321 17.562C12.1897 17.4868 12.2513 17.4148 12.3169 17.346L12.1681 17.3148L12.4225 17.1227Z" fill="#FFEC2D"/>
<path d="M11.5461 17.4054C11.5777 17.4054 11.6034 17.3798 11.6034 17.3481C11.6034 17.3165 11.5777 17.2908 11.5461 17.2908C11.5144 17.2908 11.4888 17.3165 11.4888 17.3481C11.4888 17.3798 11.5144 17.4054 11.5461 17.4054Z" fill="#FFEC2D"/>
<path d="M11.5415 17.3626C11.5546 17.3626 11.5653 17.3519 11.5653 17.3387C11.5653 17.3255 11.5546 17.3148 11.5415 17.3148C11.5283 17.3148 11.5176 17.3255 11.5176 17.3387C11.5176 17.3519 11.5283 17.3626 11.5415 17.3626Z" fill="#FFEC2D" stroke="#FFEC2D" stroke-width="0.00960175"/>
<path d="M2.90569 1.79597C2.90569 1.79597 2.67525 1.59913 2.59603 1.69755C2.47121 1.85358 2.9849 2.63372 2.9849 2.90737C2.9849 3.35865 2.68245 3.48108 2.31278 3.54349C2.06314 3.5867 1.65746 3.52669 1.65746 3.52669C1.73428 3.42347 1.78469 3.39226 1.91191 3.38506C1.76788 3.31305 1.62386 3.14982 1.62386 2.89777C1.62386 2.5113 1.78228 2.35047 1.78228 1.91359C1.78228 1.67595 1.58545 1.36389 1.58545 1.36389C1.93591 1.3999 2.10874 1.72396 2.01033 1.9832C2.03734 1.98858 2.06526 1.98723 2.09163 1.97928C2.118 1.97132 2.14202 1.95701 2.16155 1.9376C2.18556 2.00961 2.14715 2.09362 2.09194 2.16564C2.13515 2.18964 2.16876 2.17524 2.23597 2.16084C2.23117 2.23285 2.18796 2.31446 2.07754 2.38888C2.3944 2.30726 2.58643 2.5257 2.58643 2.75614C2.58643 2.93138 2.46641 3.0562 2.34639 3.0562C2.30798 3.0562 2.25037 3.0394 2.21916 3.01539C2.19516 3.0634 2.20956 3.12821 2.23117 3.17622C2.14475 3.15222 2.08714 3.09941 2.12795 2.99139C2.06074 2.98659 2.00873 2.96258 1.97192 2.91937C2.00873 2.87137 2.06074 2.84736 2.12795 2.84736C2.07994 2.74654 2.13515 2.69133 2.21436 2.64572C2.21436 2.64572 2.16395 2.84736 2.29118 2.84736C2.34879 2.84736 2.4016 2.83056 2.4016 2.74414C2.4016 2.66973 2.33679 2.56651 2.18556 2.57371C2.03433 2.58091 1.91431 2.67693 1.91431 2.91697C1.91431 3.13781 2.09434 3.24823 2.32958 3.25304C2.54082 3.26264 2.70165 3.14742 2.70165 2.92898C2.70165 2.63612 2.28158 1.9736 2.28158 1.71436C2.28158 1.51992 2.45441 1.4095 2.62724 1.4095C2.84808 1.4095 3.03531 1.63034 3.03531 1.63034L2.90569 1.79357V1.79597Z" fill="#FFEC2D"/>
<path d="M2.9536 7.05537C2.9536 7.54265 2.51672 7.7923 2.17346 7.7923C1.71258 7.7923 1.46533 7.51625 1.46533 7.15378C1.46533 6.94975 1.50374 6.82012 1.59736 6.62569L2.65835 4.42449C2.69679 4.3319 2.71322 4.23165 2.70636 4.13163C2.70636 3.9348 2.51432 3.77397 2.31509 3.77157C2.13265 3.76437 1.93102 3.9396 1.93102 4.13884C1.93102 4.38128 2.05824 4.4893 2.18786 4.4893C2.34629 4.4893 2.4087 4.42449 2.4087 4.31167C2.4055 4.23645 2.3751 4.19965 2.31749 4.20125C2.18066 4.20125 2.22147 4.38368 2.22147 4.38368C2.2034 4.38034 2.1863 4.37305 2.17137 4.36233C2.15645 4.35162 2.14407 4.33774 2.13513 4.32169C2.12619 4.30564 2.1209 4.28781 2.11964 4.26948C2.11838 4.25115 2.12119 4.23277 2.12785 4.21565C2.07634 4.20446 2.02994 4.17662 1.99583 4.13643C2.03103 4.09963 2.07504 4.07562 2.12785 4.06442C2.09665 3.9588 2.13985 3.90839 2.23107 3.88439C2.21531 3.92064 2.21111 3.96088 2.21907 3.99961C2.3631 3.9564 2.58634 4.02361 2.58634 4.27326C2.58634 4.52291 2.4135 4.73174 2.08945 4.68133C2.16626 4.71734 2.20467 4.79175 2.21427 4.87577C2.15426 4.85177 2.08945 4.85177 2.08945 4.85177C2.12785 4.91658 2.18066 4.97179 2.17826 5.10621C2.11825 5.07741 2.06064 5.027 1.98623 5.0582C2.10625 5.29825 1.95742 5.62471 1.57815 5.70152C1.71578 5.53669 1.78459 5.36626 1.78459 5.19023C1.78459 4.62612 1.62856 4.53251 1.62856 4.13884C1.63103 4.04753 1.65517 3.95813 1.699 3.87799C1.74282 3.79786 1.80507 3.72929 1.88061 3.67795V3.68515C1.83416 3.67561 1.79025 3.65635 1.75177 3.62863C1.7133 3.60091 1.68112 3.56536 1.65737 3.52432C1.92477 3.45062 2.20745 3.45312 2.47352 3.53152C2.56251 3.54412 2.64754 3.57654 2.72233 3.62639C2.79711 3.67625 2.85974 3.74227 2.90559 3.81958C2.95352 3.92894 2.97826 4.04704 2.97826 4.16644C2.97826 4.28584 2.95352 4.40394 2.90559 4.5133C2.75437 4.82536 2.04864 6.32803 1.8278 6.79852C1.77979 6.89934 1.75498 7.00656 1.75338 7.12018C1.75338 7.40823 2.01743 7.50905 2.16626 7.50905C2.34629 7.50905 2.53113 7.37222 2.53113 7.20179C2.53113 7.09377 2.47112 7.02656 2.3871 7.02656C2.18306 7.02656 2.19506 7.19939 2.23587 7.30981C2.10865 7.2522 2.03664 7.15138 2.05584 7.04576C1.97707 7.03254 1.90559 6.99169 1.8542 6.93054C1.90221 6.86813 1.96462 6.82012 2.05584 6.81772C2.01503 6.65209 2.12785 6.58248 2.23587 6.54407C2.20227 6.66409 2.17826 6.80572 2.3871 6.80572C2.53833 6.80572 2.65595 6.82972 2.72556 6.93054L2.74236 6.28243C2.75197 6.08799 2.48312 6.09039 2.31029 6.1504C2.3751 5.92716 2.50712 5.80474 2.81438 5.83594C2.7673 5.81784 2.72713 5.78537 2.69955 5.74315C2.67197 5.70092 2.6584 5.65108 2.66075 5.6007C2.66075 5.41827 2.80958 5.21663 2.90559 5.15662L2.9536 7.05297V7.05537Z" fill="#FFEC2D"/>
<path d="M2.9536 8.51482C2.9536 8.02754 2.51672 7.77789 2.17346 7.77789C1.71258 7.77789 1.46533 8.05394 1.46533 8.41641C1.46533 8.62044 1.50374 8.75007 1.59736 8.9445L2.65835 11.1457C2.69679 11.2383 2.71322 11.3385 2.70636 11.4386C2.70636 11.6354 2.51432 11.7962 2.31509 11.7986C2.13265 11.8058 1.93102 11.6306 1.93102 11.4314C1.93102 11.1889 2.05824 11.0809 2.18786 11.0809C2.34629 11.0809 2.4087 11.1457 2.4087 11.2585C2.4055 11.3337 2.3751 11.3705 2.31749 11.3689C2.18066 11.3689 2.22147 11.1865 2.22147 11.1865C2.2034 11.1899 2.1863 11.1971 2.17137 11.2079C2.15645 11.2186 2.14407 11.2325 2.13513 11.2485C2.12619 11.2646 2.1209 11.2824 2.11964 11.3007C2.11838 11.319 2.12119 11.3374 2.12785 11.3545C2.07634 11.3657 2.02994 11.3936 1.99583 11.4338C2.03103 11.4706 2.07504 11.4946 2.12785 11.5058C2.09665 11.6114 2.13985 11.6618 2.23107 11.6858C2.21531 11.6495 2.21111 11.6093 2.21907 11.5706C2.3631 11.6138 2.58634 11.5466 2.58634 11.2969C2.58634 11.0473 2.4135 10.8384 2.08945 10.8889C2.16626 10.8528 2.20467 10.7784 2.21427 10.6944C2.15426 10.7184 2.08945 10.7184 2.08945 10.7184C2.12785 10.6536 2.18066 10.5984 2.17826 10.464C2.11825 10.4928 2.06064 10.5432 1.98623 10.512C2.10625 10.2719 1.95742 9.94548 1.57815 9.86867C1.71578 10.0335 1.78459 10.2039 1.78459 10.38C1.78459 10.9441 1.62856 11.0377 1.62856 11.4314C1.63103 11.5227 1.65517 11.6121 1.699 11.6922C1.74282 11.7723 1.80507 11.8409 1.88061 11.8922V11.885C1.83416 11.8946 1.79025 11.9138 1.75177 11.9416C1.7133 11.9693 1.68112 12.0048 1.65737 12.0459C1.92477 12.1196 2.20745 12.1171 2.47352 12.0387C2.56251 12.0261 2.64754 11.9937 2.72233 11.9438C2.79711 11.8939 2.85974 11.8279 2.90559 11.7506C2.95352 11.6413 2.97826 11.5231 2.97826 11.4038C2.97826 11.2844 2.95352 11.1662 2.90559 11.0569C2.75437 10.7448 2.04864 9.24216 1.8278 8.77167C1.77979 8.67085 1.75498 8.56363 1.75338 8.45001C1.75338 8.16196 2.01743 8.06114 2.16626 8.06114C2.34629 8.06114 2.53113 8.19797 2.53113 8.3684C2.53113 8.47642 2.47112 8.54363 2.3871 8.54363C2.18306 8.54363 2.19506 8.3708 2.23587 8.26038C2.10865 8.31799 2.03664 8.41881 2.05584 8.52443C1.97707 8.53765 1.90559 8.5785 1.8542 8.63965C1.90221 8.70206 1.96462 8.75007 2.05584 8.75247C2.01503 8.9181 2.12785 8.98771 2.23587 9.02612C2.20227 8.9061 2.17826 8.76447 2.3871 8.76447C2.53833 8.76447 2.65595 8.74047 2.72556 8.63965L2.74236 9.28777C2.75197 9.4822 2.48312 9.4798 2.31029 9.41979C2.3751 9.64303 2.50712 9.76545 2.81438 9.73425C2.7673 9.75235 2.72713 9.78482 2.69955 9.82704C2.67197 9.86927 2.6584 9.91911 2.66075 9.96949C2.66075 10.1519 2.80958 10.3536 2.90559 10.4136L2.9536 8.51723V8.51482Z" fill="#FFEC2D"/>
<path d="M2.90632 1.79597C2.90632 1.79597 3.13676 1.59913 3.21598 1.69755C3.3408 1.85358 2.82711 2.63372 2.82711 2.90737C2.82711 3.35865 3.12956 3.48108 3.49923 3.54349C3.74888 3.5867 4.15455 3.52669 4.15455 3.52669C4.07774 3.42347 4.02733 3.39226 3.9001 3.38506C4.04413 3.31305 4.18816 3.14982 4.18816 2.89777C4.18816 2.5113 4.02973 2.35047 4.02973 1.91359C4.02973 1.67595 4.22656 1.36389 4.22656 1.36389C3.8761 1.3999 3.70327 1.72396 3.80169 1.9832C3.77467 1.98858 3.74675 1.98723 3.72038 1.97928C3.69401 1.97132 3.67 1.95701 3.65046 1.9376C3.62645 2.00961 3.66486 2.09362 3.72007 2.16564C3.67686 2.18964 3.64326 2.17524 3.57604 2.16084C3.58085 2.23285 3.62405 2.31446 3.73447 2.38888C3.41762 2.30726 3.22558 2.5257 3.22558 2.75614C3.22558 2.93138 3.3456 3.0562 3.46562 3.0562C3.50403 3.0562 3.56164 3.0394 3.59285 3.01539C3.61685 3.0634 3.60245 3.12821 3.58084 3.17622C3.66726 3.15222 3.72487 3.09941 3.68406 2.99139C3.75128 2.98659 3.80329 2.96258 3.84009 2.91937C3.80329 2.87137 3.75128 2.84736 3.68406 2.84736C3.73207 2.74654 3.67686 2.69133 3.59765 2.64572C3.59765 2.64572 3.64806 2.84736 3.52083 2.84736C3.46322 2.84736 3.41041 2.83056 3.41041 2.74414C3.41041 2.66973 3.47523 2.56651 3.62645 2.57371C3.77768 2.58091 3.8977 2.67693 3.8977 2.91697C3.8977 3.13781 3.71767 3.24823 3.48243 3.25304C3.27119 3.26264 3.11036 3.14742 3.11036 2.92898C3.11036 2.63612 3.53044 1.9736 3.53044 1.71436C3.53044 1.51992 3.3576 1.4095 3.18477 1.4095C2.96393 1.4095 2.7767 1.63034 2.7767 1.63034L2.90632 1.79357V1.79597Z" fill="#FFEC2D"/>
<path d="M2.85841 7.05537C2.85841 7.54265 3.29529 7.7923 3.63855 7.7923C4.09943 7.7923 4.34668 7.51625 4.34668 7.15378C4.34668 6.94975 4.30827 6.82012 4.21466 6.62569L3.15366 4.42449C3.11523 4.3319 3.09879 4.23165 3.10565 4.13163C3.10565 3.9348 3.29769 3.77397 3.49692 3.77157C3.67936 3.76437 3.88099 3.9396 3.88099 4.13884C3.88099 4.38128 3.75377 4.4893 3.62415 4.4893C3.46572 4.4893 3.40331 4.42449 3.40331 4.31167C3.40651 4.23645 3.43691 4.19965 3.49452 4.20125C3.63135 4.20125 3.59054 4.38368 3.59054 4.38368C3.60861 4.38034 3.62572 4.37305 3.64064 4.36233C3.65557 4.35162 3.66794 4.33774 3.67688 4.32169C3.68583 4.30564 3.69111 4.28781 3.69237 4.26948C3.69363 4.25115 3.69083 4.23277 3.68416 4.21565C3.73567 4.20446 3.78207 4.17662 3.81618 4.13643C3.78098 4.09963 3.73697 4.07562 3.68416 4.06442C3.71536 3.9588 3.67216 3.90839 3.58094 3.88439C3.59671 3.92064 3.6009 3.96088 3.59294 3.99961C3.44892 3.9564 3.22568 4.02361 3.22568 4.27326C3.22568 4.52291 3.39851 4.73174 3.72257 4.68133C3.64575 4.71734 3.60735 4.79175 3.59774 4.87577C3.65775 4.85177 3.72257 4.85177 3.72257 4.85177C3.68416 4.91658 3.63135 4.97179 3.63375 5.10621C3.69376 5.07741 3.75137 5.027 3.82578 5.0582C3.70576 5.29825 3.85459 5.62471 4.23386 5.70152C4.09623 5.53669 4.02742 5.36626 4.02742 5.19023C4.02742 4.62612 4.18345 4.53251 4.18345 4.13884C4.18098 4.04753 4.15684 3.95813 4.11301 3.87799C4.06919 3.79786 4.00694 3.72929 3.9314 3.67795V3.68515C3.97786 3.67561 4.02176 3.65635 4.06024 3.62863C4.09871 3.60091 4.13089 3.56536 4.15464 3.52432C3.88724 3.45062 3.60456 3.45312 3.3385 3.53152C3.2495 3.54412 3.16447 3.57654 3.08969 3.62639C3.0149 3.67625 2.95227 3.74227 2.90642 3.81958C2.85849 3.92894 2.83375 4.04704 2.83375 4.16644C2.83375 4.28584 2.85849 4.40394 2.90642 4.5133C3.05765 4.82536 3.76337 6.32803 3.98421 6.79852C4.03222 6.89934 4.05703 7.00656 4.05863 7.12018C4.05863 7.40823 3.79458 7.50905 3.64575 7.50905C3.46572 7.50905 3.28089 7.37222 3.28089 7.20179C3.28089 7.09377 3.3409 7.02656 3.42491 7.02656C3.62895 7.02656 3.61695 7.19939 3.57614 7.30981C3.70336 7.2522 3.77538 7.15138 3.75617 7.04576C3.83494 7.03254 3.90642 6.99169 3.95781 6.93054C3.9098 6.86813 3.84739 6.82012 3.75617 6.81772C3.79698 6.65209 3.68416 6.58248 3.57614 6.54407C3.60975 6.66409 3.63375 6.80572 3.42491 6.80572C3.27368 6.80572 3.15606 6.82972 3.08645 6.93054L3.06965 6.28243C3.06005 6.08799 3.32889 6.09039 3.50173 6.1504C3.43691 5.92716 3.30489 5.80474 2.99763 5.83594C3.04471 5.81784 3.08488 5.78537 3.11246 5.74315C3.14004 5.70092 3.15361 5.65108 3.15126 5.6007C3.15126 5.41827 3.00244 5.21663 2.90642 5.15662L2.85841 7.05297V7.05537Z" fill="#FFEC2D"/>
<path d="M2.85841 8.51482C2.85841 8.02754 3.29529 7.77789 3.63855 7.77789C4.09943 7.77789 4.34668 8.05394 4.34668 8.41641C4.34668 8.62044 4.30827 8.75007 4.21466 8.9445L3.15366 11.1457C3.11523 11.2383 3.09879 11.3385 3.10565 11.4386C3.10565 11.6354 3.29769 11.7962 3.49692 11.7986C3.67936 11.8058 3.88099 11.6306 3.88099 11.4314C3.88099 11.1889 3.75377 11.0809 3.62415 11.0809C3.46572 11.0809 3.40331 11.1457 3.40331 11.2585C3.40651 11.3337 3.43691 11.3705 3.49452 11.3689C3.63135 11.3689 3.59054 11.1865 3.59054 11.1865C3.60861 11.1899 3.62572 11.1971 3.64064 11.2079C3.65557 11.2186 3.66794 11.2325 3.67688 11.2485C3.68583 11.2646 3.69111 11.2824 3.69237 11.3007C3.69363 11.319 3.69083 11.3374 3.68416 11.3545C3.73567 11.3657 3.78207 11.3936 3.81618 11.4338C3.78098 11.4706 3.73697 11.4946 3.68416 11.5058C3.71536 11.6114 3.67216 11.6618 3.58094 11.6858C3.59671 11.6495 3.6009 11.6093 3.59294 11.5706C3.44892 11.6138 3.22568 11.5466 3.22568 11.2969C3.22568 11.0473 3.39851 10.8384 3.72257 10.8889C3.64575 10.8528 3.60735 10.7784 3.59774 10.6944C3.65775 10.7184 3.72257 10.7184 3.72257 10.7184C3.68416 10.6536 3.63135 10.5984 3.63375 10.464C3.69376 10.4928 3.75137 10.5432 3.82578 10.512C3.70576 10.2719 3.85459 9.94548 4.23386 9.86867C4.09623 10.0335 4.02742 10.2039 4.02742 10.38C4.02742 10.9441 4.18345 11.0377 4.18345 11.4314C4.18098 11.5227 4.15684 11.6121 4.11301 11.6922C4.06919 11.7723 4.00694 11.8409 3.9314 11.8922V11.885C3.97786 11.8946 4.02176 11.9138 4.06024 11.9416C4.09871 11.9693 4.13089 12.0048 4.15464 12.0459C3.88724 12.1196 3.60456 12.1171 3.3385 12.0387C3.2495 12.0261 3.16447 11.9937 3.08969 11.9438C3.0149 11.8939 2.95227 11.8279 2.90642 11.7506C2.85849 11.6413 2.83375 11.5231 2.83375 11.4038C2.83375 11.2844 2.85849 11.1662 2.90642 11.0569C3.05765 10.7448 3.76337 9.24216 3.98421 8.77167C4.03222 8.67085 4.05703 8.56363 4.05863 8.45001C4.05863 8.16196 3.79458 8.06114 3.64575 8.06114C3.46572 8.06114 3.28089 8.19797 3.28089 8.3684C3.28089 8.47642 3.3409 8.54363 3.42491 8.54363C3.62895 8.54363 3.61695 8.3708 3.57614 8.26038C3.70336 8.31799 3.77538 8.41881 3.75617 8.52443C3.83494 8.53765 3.90642 8.5785 3.95781 8.63965C3.9098 8.70206 3.84739 8.75007 3.75617 8.75247C3.79698 8.9181 3.68416 8.98771 3.57614 9.02612C3.60975 8.9061 3.63375 8.76447 3.42491 8.76447C3.27368 8.76447 3.15606 8.74047 3.08645 8.63965L3.06965 9.28777C3.06005 9.4822 3.32889 9.4798 3.50173 9.41979C3.43691 9.64303 3.30489 9.76545 2.99763 9.73425C3.04471 9.75235 3.08488 9.78482 3.11246 9.82704C3.14004 9.86927 3.15361 9.91911 3.15126 9.96949C3.15126 10.1519 3.00244 10.3536 2.90642 10.4136L2.85841 8.51723V8.51482Z" fill="#FFEC2D"/>
<path d="M2.90569 22.2957C2.90569 22.2957 2.67525 22.4925 2.59603 22.3941C2.47121 22.2381 2.9849 21.458 2.9849 21.1843C2.9849 20.733 2.68245 20.6106 2.31278 20.5482C2.06314 20.505 1.65746 20.565 1.65746 20.565C1.73428 20.6682 1.78469 20.6994 1.91191 20.7066C1.76788 20.7786 1.62386 20.9419 1.62386 21.1939C1.62386 21.5804 1.78228 21.7412 1.78228 22.1781C1.78228 22.4157 1.58545 22.7278 1.58545 22.7278C1.93591 22.6918 2.10874 22.3677 2.01033 22.1085C2.03734 22.1031 2.06526 22.1044 2.09163 22.1124C2.118 22.1204 2.14202 22.1347 2.16155 22.1541C2.18556 22.0821 2.14715 21.9981 2.09194 21.926C2.13515 21.902 2.16876 21.9164 2.23597 21.9308C2.23117 21.8588 2.18796 21.7772 2.07754 21.7028C2.3944 21.7844 2.58643 21.566 2.58643 21.3355C2.58643 21.1603 2.46641 21.0355 2.34639 21.0355C2.30798 21.0355 2.25037 21.0523 2.21916 21.0763C2.19516 21.0283 2.20956 20.9635 2.23117 20.9155C2.14475 20.9395 2.08714 20.9923 2.12795 21.1003C2.06074 21.1051 2.00873 21.1291 1.97192 21.1723C2.00873 21.2203 2.06074 21.2443 2.12795 21.2443C2.07994 21.3451 2.13515 21.4003 2.21436 21.446C2.21436 21.446 2.16395 21.2443 2.29118 21.2443C2.34879 21.2443 2.4016 21.2611 2.4016 21.3475C2.4016 21.4219 2.33679 21.5252 2.18556 21.518C2.03433 21.5108 1.91431 21.4147 1.91431 21.1747C1.91431 20.9539 2.09434 20.8434 2.32958 20.8386C2.54082 20.829 2.70165 20.9443 2.70165 21.1627C2.70165 21.4556 2.28158 22.1181 2.28158 22.3773C2.28158 22.5718 2.45441 22.6822 2.62724 22.6822C2.84808 22.6822 3.03531 22.4613 3.03531 22.4613L2.90569 22.2981V22.2957Z" fill="#FFEC2D"/>
<path d="M2.9536 17.0364C2.9536 16.5491 2.51672 16.2994 2.17346 16.2994C1.71258 16.2994 1.46533 16.5755 1.46533 16.938C1.46533 17.142 1.50374 17.2716 1.59736 17.466L2.65835 19.6672C2.69679 19.7598 2.71322 19.8601 2.70636 19.9601C2.70636 20.1569 2.51432 20.3178 2.31509 20.3202C2.13265 20.3274 1.93102 20.1521 1.93102 19.9529C1.93102 19.7105 2.05824 19.6024 2.18786 19.6024C2.34629 19.6024 2.4087 19.6672 2.4087 19.7801C2.4055 19.8553 2.3751 19.8921 2.31749 19.8905C2.18066 19.8905 2.22147 19.7081 2.22147 19.7081C2.2034 19.7114 2.1863 19.7187 2.17137 19.7294C2.15645 19.7401 2.14407 19.754 2.13513 19.77C2.12619 19.7861 2.1209 19.8039 2.11964 19.8223C2.11838 19.8406 2.12119 19.859 2.12785 19.8761C2.07634 19.8873 2.02994 19.9151 1.99583 19.9553C2.03103 19.9921 2.07504 20.0161 2.12785 20.0273C2.09665 20.1329 2.13985 20.1833 2.23107 20.2073C2.21531 20.1711 2.21111 20.1309 2.21907 20.0921C2.3631 20.1353 2.58634 20.0681 2.58634 19.8185C2.58634 19.5688 2.4135 19.36 2.08945 19.4104C2.16626 19.3744 2.20467 19.3 2.21427 19.216C2.15426 19.24 2.08945 19.24 2.08945 19.24C2.12785 19.1752 2.18066 19.1199 2.17826 18.9855C2.11825 19.0143 2.06064 19.0647 1.98623 19.0335C2.10625 18.7935 1.95742 18.467 1.57815 18.3902C1.71578 18.555 1.78459 18.7255 1.78459 18.9015C1.78459 19.4656 1.62856 19.5592 1.62856 19.9529C1.63103 20.0442 1.65517 20.1336 1.699 20.2137C1.74282 20.2939 1.80507 20.3624 1.88061 20.4138V20.4066C1.83416 20.4161 1.79025 20.4354 1.75177 20.4631C1.7133 20.4908 1.68112 20.5264 1.65737 20.5674C1.92477 20.6411 2.20745 20.6386 2.47352 20.5602C2.56251 20.5476 2.64754 20.5152 2.72233 20.4653C2.79711 20.4155 2.85974 20.3495 2.90559 20.2722C2.95352 20.1628 2.97826 20.0447 2.97826 19.9253C2.97826 19.8059 2.95352 19.6878 2.90559 19.5784C2.75437 19.2664 2.04864 17.7637 1.8278 17.2932C1.77979 17.1924 1.75498 17.0852 1.75338 16.9716C1.75338 16.6835 2.01743 16.5827 2.16626 16.5827C2.34629 16.5827 2.53113 16.7195 2.53113 16.8899C2.53113 16.998 2.47112 17.0652 2.3871 17.0652C2.18306 17.0652 2.19506 16.8923 2.23587 16.7819C2.10865 16.8395 2.03664 16.9404 2.05584 17.046C1.97707 17.0592 1.90559 17.1 1.8542 17.1612C1.90221 17.2236 1.96462 17.2716 2.05584 17.274C2.01503 17.4396 2.12785 17.5093 2.23587 17.5477C2.20227 17.4276 2.17826 17.286 2.3871 17.286C2.53833 17.286 2.65595 17.262 2.72556 17.1612L2.74236 17.8093C2.75197 18.0037 2.48312 18.0013 2.31029 17.9413C2.3751 18.1646 2.50712 18.287 2.81438 18.2558C2.7673 18.2739 2.72713 18.3064 2.69955 18.3486C2.67197 18.3908 2.6584 18.4407 2.66075 18.491C2.66075 18.6735 2.80958 18.8751 2.90559 18.9351L2.9536 17.0388V17.0364Z" fill="#FFEC2D"/>
<path d="M2.9536 15.5769C2.9536 16.0642 2.51672 16.3138 2.17346 16.3138C1.71258 16.3138 1.46533 16.0378 1.46533 15.6753C1.46533 15.4713 1.50374 15.3417 1.59736 15.1472L2.65835 12.946C2.69679 12.8534 2.71322 12.7532 2.70636 12.6532C2.70636 12.4563 2.51432 12.2955 2.31509 12.2931C2.13265 12.2859 1.93102 12.4611 1.93102 12.6604C1.93102 12.9028 2.05824 13.0108 2.18786 13.0108C2.34629 13.0108 2.4087 12.946 2.4087 12.8332C2.4055 12.758 2.3751 12.7212 2.31749 12.7228C2.18066 12.7228 2.22147 12.9052 2.22147 12.9052C2.2034 12.9019 2.1863 12.8946 2.17137 12.8839C2.15645 12.8732 2.14407 12.8593 2.13513 12.8432C2.12619 12.8272 2.1209 12.8094 2.11964 12.791C2.11838 12.7727 2.12119 12.7543 2.12785 12.7372C2.07634 12.726 2.02994 12.6982 1.99583 12.658C2.03103 12.6212 2.07504 12.5972 2.12785 12.586C2.09665 12.4803 2.13985 12.4299 2.23107 12.4059C2.21531 12.4422 2.21111 12.4824 2.21907 12.5212C2.3631 12.4779 2.58634 12.5452 2.58634 12.7948C2.58634 13.0445 2.4135 13.2533 2.08945 13.2029C2.16626 13.2389 2.20467 13.3133 2.21427 13.3973C2.15426 13.3733 2.08945 13.3733 2.08945 13.3733C2.12785 13.4381 2.18066 13.4933 2.17826 13.6278C2.11825 13.599 2.06064 13.5485 1.98623 13.5797C2.10625 13.8198 1.95742 14.1463 1.57815 14.2231C1.71578 14.0582 1.78459 13.8878 1.78459 13.7118C1.78459 13.1477 1.62856 13.0541 1.62856 12.6604C1.63103 12.5691 1.65517 12.4797 1.699 12.3995C1.74282 12.3194 1.80507 12.2508 1.88061 12.1995V12.2067C1.83416 12.1972 1.79025 12.1779 1.75177 12.1502C1.7133 12.1225 1.68112 12.0869 1.65737 12.0459C1.92477 11.9722 2.20745 11.9747 2.47352 12.0531C2.56251 12.0657 2.64754 12.0981 2.72233 12.1479C2.79711 12.1978 2.85974 12.2638 2.90559 12.3411C2.95352 12.4505 2.97826 12.5686 2.97826 12.688C2.97826 12.8074 2.95352 12.9255 2.90559 13.0348C2.75437 13.3469 2.04864 14.8496 1.8278 15.3201C1.77979 15.4209 1.75498 15.5281 1.75338 15.6417C1.75338 15.9298 2.01743 16.0306 2.16626 16.0306C2.34629 16.0306 2.53113 15.8938 2.53113 15.7233C2.53113 15.6153 2.47112 15.5481 2.3871 15.5481C2.18306 15.5481 2.19506 15.7209 2.23587 15.8314C2.10865 15.7737 2.03664 15.6729 2.05584 15.5673C1.97707 15.5541 1.90559 15.5132 1.8542 15.4521C1.90221 15.3897 1.96462 15.3417 2.05584 15.3393C2.01503 15.1736 2.12785 15.104 2.23587 15.0656C2.20227 15.1856 2.17826 15.3273 2.3871 15.3273C2.53833 15.3273 2.65595 15.3513 2.72556 15.4521L2.74236 14.804C2.75197 14.6095 2.48312 14.6119 2.31029 14.6719C2.3751 14.4487 2.50712 14.3263 2.81438 14.3575C2.7673 14.3394 2.72713 14.3069 2.69955 14.2647C2.67197 14.2225 2.6584 14.1726 2.66075 14.1222C2.66075 13.9398 2.80958 13.7382 2.90559 13.6782L2.9536 15.5745V15.5769Z" fill="#FFEC2D"/>
<path d="M2.90632 22.2957C2.90632 22.2957 3.13676 22.4925 3.21598 22.3941C3.3408 22.2381 2.82711 21.458 2.82711 21.1843C2.82711 20.733 3.12956 20.6106 3.49923 20.5482C3.74888 20.505 4.15455 20.565 4.15455 20.565C4.07774 20.6682 4.02733 20.6994 3.9001 20.7066C4.04413 20.7786 4.18816 20.9419 4.18816 21.1939C4.18816 21.5804 4.02973 21.7412 4.02973 22.1781C4.02973 22.4157 4.22656 22.7278 4.22656 22.7278C3.8761 22.6918 3.70327 22.3677 3.80169 22.1085C3.77467 22.1031 3.74675 22.1044 3.72038 22.1124C3.69401 22.1204 3.67 22.1347 3.65046 22.1541C3.62645 22.0821 3.66486 21.9981 3.72007 21.926C3.67686 21.902 3.64326 21.9164 3.57604 21.9308C3.58085 21.8588 3.62405 21.7772 3.73447 21.7028C3.41762 21.7844 3.22558 21.566 3.22558 21.3355C3.22558 21.1603 3.3456 21.0355 3.46562 21.0355C3.50403 21.0355 3.56164 21.0523 3.59285 21.0763C3.61685 21.0283 3.60245 20.9635 3.58084 20.9155C3.66726 20.9395 3.72487 20.9923 3.68406 21.1003C3.75128 21.1051 3.80329 21.1291 3.84009 21.1723C3.80329 21.2203 3.75128 21.2443 3.68406 21.2443C3.73207 21.3451 3.67686 21.4003 3.59765 21.446C3.59765 21.446 3.64806 21.2443 3.52083 21.2443C3.46322 21.2443 3.41041 21.2611 3.41041 21.3475C3.41041 21.4219 3.47523 21.5252 3.62645 21.518C3.77768 21.5108 3.8977 21.4147 3.8977 21.1747C3.8977 20.9539 3.71767 20.8434 3.48243 20.8386C3.27119 20.829 3.11036 20.9443 3.11036 21.1627C3.11036 21.4556 3.53044 22.1181 3.53044 22.3773C3.53044 22.5718 3.3576 22.6822 3.18477 22.6822C2.96393 22.6822 2.7767 22.4613 2.7767 22.4613L2.90632 22.2981V22.2957Z" fill="#FFEC2D"/>
<path d="M2.85841 17.0364C2.85841 16.5491 3.29529 16.2994 3.63855 16.2994C4.09943 16.2994 4.34668 16.5755 4.34668 16.938C4.34668 17.142 4.30827 17.2716 4.21466 17.466L3.15366 19.6672C3.11523 19.7598 3.09879 19.8601 3.10565 19.9601C3.10565 20.1569 3.29769 20.3178 3.49692 20.3202C3.67936 20.3274 3.88099 20.1521 3.88099 19.9529C3.88099 19.7105 3.75377 19.6024 3.62415 19.6024C3.46572 19.6024 3.40331 19.6672 3.40331 19.7801C3.40651 19.8553 3.43691 19.8921 3.49452 19.8905C3.63135 19.8905 3.59054 19.7081 3.59054 19.7081C3.60861 19.7114 3.62572 19.7187 3.64064 19.7294C3.65557 19.7401 3.66794 19.754 3.67688 19.77C3.68583 19.7861 3.69111 19.8039 3.69237 19.8223C3.69363 19.8406 3.69083 19.859 3.68416 19.8761C3.73567 19.8873 3.78207 19.9151 3.81618 19.9553C3.78098 19.9921 3.73697 20.0161 3.68416 20.0273C3.71536 20.1329 3.67216 20.1833 3.58094 20.2073C3.59671 20.1711 3.6009 20.1309 3.59294 20.0921C3.44892 20.1353 3.22568 20.0681 3.22568 19.8185C3.22568 19.5688 3.39851 19.36 3.72257 19.4104C3.64575 19.3744 3.60735 19.3 3.59774 19.216C3.65775 19.24 3.72257 19.24 3.72257 19.24C3.68416 19.1752 3.63135 19.1199 3.63375 18.9855C3.69376 19.0143 3.75137 19.0647 3.82578 19.0335C3.70576 18.7935 3.85459 18.467 4.23386 18.3902C4.09623 18.555 4.02742 18.7255 4.02742 18.9015C4.02742 19.4656 4.18345 19.5592 4.18345 19.9529C4.18098 20.0442 4.15684 20.1336 4.11301 20.2137C4.06919 20.2939 4.00694 20.3624 3.9314 20.4138V20.4066C3.97786 20.4161 4.02176 20.4354 4.06024 20.4631C4.09871 20.4908 4.13089 20.5264 4.15464 20.5674C3.88724 20.6411 3.60456 20.6386 3.3385 20.5602C3.2495 20.5476 3.16447 20.5152 3.08969 20.4653C3.0149 20.4155 2.95227 20.3495 2.90642 20.2722C2.85849 20.1628 2.83375 20.0447 2.83375 19.9253C2.83375 19.8059 2.85849 19.6878 2.90642 19.5784C3.05765 19.2664 3.76337 17.7637 3.98421 17.2932C4.03222 17.1924 4.05703 17.0852 4.05863 16.9716C4.05863 16.6835 3.79458 16.5827 3.64575 16.5827C3.46572 16.5827 3.28089 16.7195 3.28089 16.8899C3.28089 16.998 3.3409 17.0652 3.42491 17.0652C3.62895 17.0652 3.61695 16.8923 3.57614 16.7819C3.70336 16.8395 3.77538 16.9404 3.75617 17.046C3.83494 17.0592 3.90642 17.1 3.95781 17.1612C3.9098 17.2236 3.84739 17.2716 3.75617 17.274C3.79698 17.4396 3.68416 17.5093 3.57614 17.5477C3.60975 17.4276 3.63375 17.286 3.42491 17.286C3.27368 17.286 3.15606 17.262 3.08645 17.1612L3.06965 17.8093C3.06005 18.0037 3.32889 18.0013 3.50173 17.9413C3.43691 18.1646 3.30489 18.287 2.99763 18.2558C3.04471 18.2739 3.08488 18.3064 3.11246 18.3486C3.14004 18.3908 3.15361 18.4407 3.15126 18.491C3.15126 18.6735 3.00244 18.8751 2.90642 18.9351L2.85841 17.0388V17.0364Z" fill="#FFEC2D"/>
<path d="M2.85841 15.5769C2.85841 16.0642 3.29529 16.3138 3.63855 16.3138C4.09943 16.3138 4.34668 16.0378 4.34668 15.6753C4.34668 15.4713 4.30827 15.3417 4.21466 15.1472L3.15366 12.946C3.11523 12.8534 3.09879 12.7532 3.10565 12.6532C3.10565 12.4563 3.29769 12.2955 3.49692 12.2931C3.67936 12.2859 3.88099 12.4611 3.88099 12.6604C3.88099 12.9028 3.75377 13.0108 3.62415 13.0108C3.46572 13.0108 3.40331 12.946 3.40331 12.8332C3.40651 12.758 3.43691 12.7212 3.49452 12.7228C3.63135 12.7228 3.59054 12.9052 3.59054 12.9052C3.60861 12.9019 3.62572 12.8946 3.64064 12.8839C3.65557 12.8732 3.66794 12.8593 3.67688 12.8432C3.68583 12.8272 3.69111 12.8094 3.69237 12.791C3.69363 12.7727 3.69083 12.7543 3.68416 12.7372C3.73567 12.726 3.78207 12.6982 3.81618 12.658C3.78098 12.6212 3.73697 12.5972 3.68416 12.586C3.71536 12.4803 3.67216 12.4299 3.58094 12.4059C3.59671 12.4422 3.6009 12.4824 3.59294 12.5212C3.44892 12.4779 3.22568 12.5452 3.22568 12.7948C3.22568 13.0445 3.39851 13.2533 3.72257 13.2029C3.64575 13.2389 3.60735 13.3133 3.59774 13.3973C3.65775 13.3733 3.72257 13.3733 3.72257 13.3733C3.68416 13.4381 3.63135 13.4933 3.63375 13.6278C3.69376 13.599 3.75137 13.5485 3.82578 13.5797C3.70576 13.8198 3.85459 14.1463 4.23386 14.2231C4.09623 14.0582 4.02742 13.8878 4.02742 13.7118C4.02742 13.1477 4.18345 13.0541 4.18345 12.6604C4.18098 12.5691 4.15684 12.4797 4.11301 12.3995C4.06919 12.3194 4.00694 12.2508 3.9314 12.1995V12.2067C3.97786 12.1972 4.02176 12.1779 4.06024 12.1502C4.09871 12.1225 4.13089 12.0869 4.15464 12.0459C3.88724 11.9722 3.60456 11.9747 3.3385 12.0531C3.2495 12.0657 3.16447 12.0981 3.08969 12.1479C3.0149 12.1978 2.95227 12.2638 2.90642 12.3411C2.85849 12.4505 2.83375 12.5686 2.83375 12.688C2.83375 12.8074 2.85849 12.9255 2.90642 13.0348C3.05765 13.3469 3.76337 14.8496 3.98421 15.3201C4.03222 15.4209 4.05703 15.5281 4.05863 15.6417C4.05863 15.9298 3.79458 16.0306 3.64575 16.0306C3.46572 16.0306 3.28089 15.8938 3.28089 15.7233C3.28089 15.6153 3.3409 15.5481 3.42491 15.5481C3.62895 15.5481 3.61695 15.7209 3.57614 15.8314C3.70336 15.7737 3.77538 15.6729 3.75617 15.5673C3.83494 15.5541 3.90642 15.5132 3.95781 15.4521C3.9098 15.3897 3.84739 15.3417 3.75617 15.3393C3.79698 15.1736 3.68416 15.104 3.57614 15.0656C3.60975 15.1856 3.63375 15.3273 3.42491 15.3273C3.27368 15.3273 3.15606 15.3513 3.08645 15.4521L3.06965 14.804C3.06005 14.6095 3.32889 14.6119 3.50173 14.6719C3.43691 14.4487 3.30489 14.3263 2.99763 14.3575C3.04471 14.3394 3.08488 14.3069 3.11246 14.2647C3.14004 14.2225 3.15361 14.1726 3.15126 14.1222C3.15126 13.9398 3.00244 13.7382 2.90642 13.6782L2.85841 15.5745V15.5769Z" fill="#FFEC2D"/>
</g>
<defs>
<clipPath id="clip0_720_53312">
<rect width="24.0044" height="24.0044" fill="white" transform="translate(0.026123 0.0437012)"/>
</clipPath>
</defs>
</svg>
