<svg width="25" height="25" viewBox="0 0 25 25" fill="none" xmlns="http://www.w3.org/2000/svg">
<g clip-path="url(#clip0_720_53396)">
<path d="M0.0305176 0.0437622H24.0349V24.0481H0.0305176V0.0437622Z" fill="white"/>
<path d="M0.0305176 0.0437622H24.0349V7.24507H0.0305176V0.0437622Z" fill="#000001"/>
<path d="M0.0302734 16.8467H24.0346V24.0481H0.0302734V16.8467Z" fill="#006600"/>
<path d="M7.73193 19.1721L8.00198 19.3221L15.0083 7.16993C15.4133 7.07991 15.6384 6.68984 15.8634 6.29977C16.0134 6.02972 16.6135 4.99453 16.8686 3.64429C16.1568 4.27679 15.5537 5.02182 15.0833 5.84969C14.8582 6.23976 14.6332 6.62983 14.7382 7.0349L7.73193 19.1721Z" fill="black" stroke="black" stroke-width="0.150027"/>
<path d="M7.73193 19.1721L8.00198 19.3221L15.0083 7.16993C15.4133 7.07991 15.6384 6.68984 15.8634 6.29977C16.0134 6.02972 16.6135 4.99453 16.8686 3.64429C16.1568 4.27679 15.5537 5.02182 15.0833 5.84969C14.8582 6.23976 14.6332 6.62983 14.7382 7.0349L7.73193 19.1721Z" fill="white"/>
<path d="M16.3186 19.1722L16.0486 19.3223L9.04228 7.17005C8.63721 7.08003 8.41217 6.68996 8.18712 6.29989C8.0371 6.02984 7.43699 4.99465 7.18194 3.64441C7.89371 4.27691 8.49683 5.02195 8.96727 5.84981C9.19231 6.23988 9.41735 6.62995 9.31233 7.03503L16.3186 19.1722Z" fill="black" stroke="black" stroke-width="0.150027"/>
<path d="M16.3186 19.1722L16.0486 19.3223L9.04228 7.17005C8.63721 7.08003 8.41217 6.68996 8.18712 6.29989C8.0371 6.02984 7.43699 4.99465 7.18194 3.64441C7.89371 4.27691 8.49683 5.02195 8.96727 5.84981C9.19231 6.23988 9.41735 6.62995 9.31233 7.03503L16.3186 19.1722Z" fill="white"/>
<path d="M12.0231 4.84454C11.1229 4.84454 9.62264 7.24498 9.17256 8.4452H0.0302734V15.6465H9.17256C9.62733 16.8467 11.1276 19.2472 12.0278 19.2472C12.9279 19.2472 14.4282 16.8467 14.8783 15.6465H24.0346V8.4452H14.8736C14.4235 7.24498 12.9232 4.84454 12.0231 4.84454Z" fill="#BB0000"/>
<path d="M14.8734 15.6465C15.3372 14.5009 15.5913 13.2813 15.6236 12.0458C15.5913 10.8104 15.3372 9.59077 14.8734 8.44519C14.4097 9.59077 14.1556 10.8104 14.1233 12.0458C14.1556 13.2813 14.4097 14.5009 14.8734 15.6465Z" fill="black"/>
<path d="M9.17711 15.6465C8.71336 14.5009 8.45928 13.2813 8.42697 12.0458C8.45928 10.8104 8.71336 9.59077 9.17711 8.44519C9.64085 9.59077 9.89494 10.8104 9.92725 12.0458C9.89494 13.2813 9.64085 14.5009 9.17711 15.6465Z" fill="black"/>
<path d="M12.0229 12.9452C12.3542 12.9452 12.6227 12.5424 12.6227 12.0455C12.6227 11.5486 12.3542 11.1458 12.0229 11.1458C11.6916 11.1458 11.4231 11.5486 11.4231 12.0455C11.4231 12.5424 11.6916 12.9452 12.0229 12.9452Z" fill="white"/>
<path d="M12.1733 12.9161C12.1733 12.9161 12.7734 14.1163 12.7734 16.0666C12.7734 18.017 12.1733 19.2172 12.1733 19.2172V12.9161Z" fill="white"/>
<path d="M11.8733 11.1758C11.8733 11.1758 11.2732 9.97556 11.2732 8.02521C11.2732 6.07485 11.8733 4.87464 11.8733 4.87464V11.1758Z" fill="white"/>
<path d="M11.8733 12.9161C11.8733 12.9161 11.2732 14.1163 11.2732 16.0666C11.2732 18.017 11.8733 19.2172 11.8733 19.2172V12.9161Z" fill="white"/>
<path d="M12.1733 11.1758C12.1733 11.1758 12.7734 9.97556 12.7734 8.02521C12.7734 6.07485 12.1733 4.87464 12.1733 4.87464V11.1758Z" fill="white"/>
</g>
<defs>
<clipPath id="clip0_720_53396">
<rect width="24.0044" height="24.0044" fill="white" transform="translate(0.0305176 0.0437012)"/>
</clipPath>
</defs>
</svg>
