<svg width="25" height="25" viewBox="0 0 25 25" fill="none" xmlns="http://www.w3.org/2000/svg">
<g clip-path="url(#clip0_720_53378)">
<mask id="mask0_720_53378" style="mask-type:luminance" maskUnits="userSpaceOnUse" x="0" y="0" width="25" height="25">
<path d="M0.0332031 0.0455322H24.0379V24.0454H0.0332031V0.0455322Z" fill="white"/>
</mask>
<g mask="url(#mask0_720_53378)">
<path fill-rule="evenodd" clip-rule="evenodd" d="M-7.67041 0.0455933H31.5124V14.4084H-7.67041V0.0455933Z" fill="#E73E2D"/>
<path fill-rule="evenodd" clip-rule="evenodd" d="M9.61181 13.2659C8.69888 12.5581 6.99995 12.7973 6.72168 10.864C8.02029 11.8697 7.78595 10.8054 9.72898 11.7672L9.61181 13.2659Z" fill="#FEC74A" stroke="#D8AA3F" stroke-width="0.0781117"/>
<path fill-rule="evenodd" clip-rule="evenodd" d="M9.85595 12.3872C9.20177 11.4303 7.5126 11.1423 7.83969 9.21387C8.76727 10.5711 8.86979 9.48726 10.4271 10.9958L9.85107 12.3872H9.85595Z" fill="#FEC74A" stroke="#D8AA3F" stroke-width="0.0781117"/>
<path fill-rule="evenodd" clip-rule="evenodd" d="M10.1488 11.7623C9.91444 10.6346 8.46449 9.71676 9.50435 8.06177C9.84609 9.67282 10.3489 8.70619 11.213 10.698L10.1488 11.7623Z" fill="#FEC74A" stroke="#D8AA3F" stroke-width="0.0781117"/>
<path fill-rule="evenodd" clip-rule="evenodd" d="M10.8324 11.1862C10.9545 10.034 9.85601 8.72079 11.3499 7.46124C11.179 9.09671 11.9601 8.34 12.1701 10.4881L10.8275 11.1862H10.8324Z" fill="#FEC74A" stroke="#D8AA3F" stroke-width="0.0781117"/>
<path fill-rule="evenodd" clip-rule="evenodd" d="M11.4377 10.7175C12.0236 9.72161 11.5549 8.0715 13.4345 7.53448C12.6094 8.95514 13.6298 8.57923 12.9414 10.6345L11.4377 10.7175Z" fill="#FEC74A" stroke="#D8AA3F" stroke-width="0.0781117"/>
<path fill-rule="evenodd" clip-rule="evenodd" d="M12.3213 10.8396C13.1903 10.078 13.2733 8.36931 15.2261 8.45718C13.9909 9.54098 15.0796 9.51169 13.7761 11.2399L12.3213 10.8396Z" fill="#FEC74A" stroke="#D8AA3F" stroke-width="0.0781117"/>
<path fill-rule="evenodd" clip-rule="evenodd" d="M13.0977 11.2838C14.1522 10.8152 14.7331 9.20412 16.5736 9.86319C15.0749 10.5369 16.1245 10.8298 14.367 12.0943L13.0977 11.2887V11.2838Z" fill="#FEC74A" stroke="#D8AA3F" stroke-width="0.0781117"/>
<path fill-rule="evenodd" clip-rule="evenodd" d="M13.7419 11.9966C14.8892 11.8404 15.8998 10.4539 17.4815 11.6061C15.851 11.8307 16.7785 12.4067 14.7379 13.1293L13.7419 11.9966Z" fill="#FEC74A" stroke="#D8AA3F" stroke-width="0.0781117"/>
<path fill-rule="evenodd" clip-rule="evenodd" d="M17.8233 12.2114L12.5703 12.3286L12.79 13.7444L17.8233 12.2114Z" fill="#FEC74A" stroke="#D8AA3F" stroke-width="0.0781117"/>
<path fill-rule="evenodd" clip-rule="evenodd" d="M17.0519 10.283L12.1846 12.1528L12.9999 13.7151L17.0519 10.283Z" fill="#FEC74A" stroke="#D8AA3F" stroke-width="0.0781117"/>
<path fill-rule="evenodd" clip-rule="evenodd" d="M13.1856 13.2025L15.7047 8.62805L11.843 12.2212L13.1856 13.2025Z" fill="#FEC74A" stroke="#D8AA3F" stroke-width="0.0781117"/>
<path fill-rule="evenodd" clip-rule="evenodd" d="M13.1397 12.8237L13.95 7.69157L11.4262 12.2567L13.1397 12.8237Z" fill="#FEC74A" stroke="#D8AA3F" stroke-width="0.080939"/>
<path fill-rule="evenodd" clip-rule="evenodd" d="M12.8339 12.4067L11.9845 7.23669L11.0471 12.4311L12.8339 12.4067Z" fill="#FEC74A" stroke="#D8AA3F" stroke-width="0.0781117"/>
<path fill-rule="evenodd" clip-rule="evenodd" d="M12.391 11.9684L9.93786 7.65457L10.8798 12.8983L12.391 11.9684Z" fill="#FEC74A" stroke="#D8AA3F" stroke-width="0.0810187"/>
<path fill-rule="evenodd" clip-rule="evenodd" d="M12.0138 11.9332L8.21069 8.72083L10.9153 13.3148L12.0138 11.9332Z" fill="#FEC74A" stroke="#D8AA3F" stroke-width="0.0781117"/>
<path fill-rule="evenodd" clip-rule="evenodd" d="M6.87793 10.3074L10.9544 13.676L11.5842 11.9136L6.87305 10.3026L6.87793 10.3074Z" fill="#FEC74A" stroke="#D8AA3F" stroke-width="0.0781117"/>
<path fill-rule="evenodd" clip-rule="evenodd" d="M10.9154 12.2749L6.11646 12.2065L10.8959 13.7981L10.9106 12.2749H10.9154Z" fill="#FEC74A" stroke="#D8AA3F" stroke-width="0.0781117"/>
<path fill-rule="evenodd" clip-rule="evenodd" d="M14.8061 13.139C14.8221 13.5269 14.7595 13.9141 14.6221 14.2772C14.4847 14.6403 14.2753 14.9718 14.0064 15.252C13.7376 15.5321 13.415 15.755 13.0578 15.9072C12.7007 16.0595 12.3165 16.138 11.9282 16.138C11.54 16.138 11.1558 16.0595 10.7986 15.9072C10.4415 15.755 10.1188 15.5321 9.85 15.252C9.58118 14.9718 9.37177 14.6403 9.23434 14.2772C9.09692 13.9141 9.03431 13.5269 9.05029 13.139C9.05029 12.3751 9.35376 11.6425 9.89393 11.1023C10.4341 10.5621 11.1667 10.2587 11.9307 10.2587C12.6946 10.2587 13.4272 10.5621 13.9674 11.1023C14.5076 11.6425 14.811 12.3751 14.811 13.139H14.8061Z" fill="#FEC74A" stroke="#D8AA3F" stroke-width="0.0781117"/>
<path fill-rule="evenodd" clip-rule="evenodd" d="M-7.70947 14.2667H31.6686V24.0453H-7.70947V14.2667Z" fill="#005989"/>
<path fill-rule="evenodd" clip-rule="evenodd" d="M-7.72901 21.3261C-6.99671 21.6678 -5.95197 22.5124 -4.82911 22.5124C-2.94955 22.5027 -2.90073 21.2285 -0.996753 21.2919C0.90722 21.3407 0.565481 22.6784 3.13829 22.6686C5.26195 22.6686 5.95031 21.0429 7.78593 21.2382C9.14313 21.1699 9.69967 22.7712 11.7892 22.7907C13.9519 22.8395 14.7428 21.0429 16.0999 21.1943C17.5499 21.1943 18.0235 22.6394 20.0544 22.6491C22.6418 22.6638 23.0909 21.1455 24.7069 21.2431C25.859 21.2187 26.7671 22.3562 28.4562 22.3806C29.7988 22.405 30.9265 21.3896 31.6881 21.0234L31.7272 19.2952C30.9265 19.593 29.7402 20.5645 28.549 20.5792C26.8403 20.6426 25.7809 19.4563 24.5897 19.4661C23.1642 19.4807 22.5979 20.9307 20.1813 20.9307C17.9697 20.9307 17.462 19.4661 16.0365 19.4661C14.6451 19.4758 14.2204 21.0625 11.8087 21.0283C9.84125 21.0088 9.07478 19.5149 7.67853 19.5295C6.20417 19.5295 4.67611 20.9795 3.04065 20.9062C0.785171 20.8086 0.296972 19.5295 -1.18227 19.5295C-2.2856 19.5295 -3.4768 20.7305 -4.8047 20.75C-6.12284 20.7744 -7.61184 19.5539 -7.74854 19.5295L-7.72901 21.3261ZM-7.72901 17.9087C-6.99671 18.2505 -5.95197 19.095 -4.82911 19.095C-2.94955 19.0804 -2.90073 17.8062 -0.996753 17.8697C0.90722 17.9185 0.565481 19.2561 3.13829 19.2513C5.26195 19.2464 5.95031 17.6256 7.78593 17.8208C9.14313 17.7476 9.69967 19.3538 11.7892 19.3733C13.9519 19.4221 14.7428 17.6256 16.0999 17.772C17.5499 17.772 18.0235 19.2171 20.0544 19.2317C22.6418 19.2415 23.0909 17.7281 24.7069 17.8208C25.859 17.7964 26.7671 18.9339 28.4562 18.9632C29.7988 18.9876 30.9265 17.9673 31.6881 17.606L31.7272 15.8778C30.9265 16.1707 29.7402 17.1471 28.549 17.1569C26.8403 17.2204 25.7809 16.034 24.5897 16.0438C23.1642 16.0584 22.5979 17.5084 20.1813 17.5084C17.9697 17.5084 17.462 16.0438 16.0365 16.0438C14.6451 16.0584 14.2204 17.6402 11.8087 17.6109C9.84125 17.5865 9.07478 16.0975 7.67853 16.1121C6.20417 16.1121 4.67611 17.5572 3.04065 17.4889C0.785171 17.3912 0.296972 16.1121 -1.18227 16.1121C-2.2856 16.1121 -3.4768 17.3131 -4.8047 17.3326C-6.12284 17.3522 -7.61184 16.1366 -7.74854 16.1121L-7.72901 17.9087Z" fill="white"/>
<path fill-rule="evenodd" clip-rule="evenodd" d="M-7.72901 14.5255C-6.99671 14.8672 -5.95197 15.7118 -4.82911 15.7118C-2.95443 15.6971 -2.90561 14.4278 -1.00652 14.4864C0.897455 14.5352 0.555716 15.8729 3.12852 15.868C5.25218 15.868 5.94054 14.2423 7.7664 14.4376C9.12848 14.3692 9.68014 15.9705 11.7696 15.9901C13.9275 16.0389 14.7232 14.2423 16.0804 14.3937C17.5255 14.3937 17.999 15.8387 20.0251 15.8485C22.6125 15.8583 23.0616 14.3448 24.6776 14.4425C25.8297 14.4181 26.7329 15.5507 28.4221 15.58C29.7646 15.6044 30.8923 14.5841 31.6491 14.2228L31.6881 12.4946C30.8923 12.7924 29.7011 13.7639 28.5148 13.7736C26.8061 13.8371 25.7467 12.6508 24.5604 12.6654C23.1349 12.6752 22.5686 14.13 20.152 14.13C17.9453 14.13 17.4376 12.6654 16.017 12.6654C14.6256 12.6752 14.196 14.257 11.7892 14.2277C9.82172 14.2081 9.05525 12.7143 7.66388 12.7289C6.18952 12.7289 4.66634 14.174 3.03088 14.1056C0.775405 14.008 0.287208 12.7289 -1.18715 12.7289C-2.29048 12.7289 -3.48168 13.9299 -4.80958 13.9494C-6.12772 13.9689 -7.61184 12.7533 -7.74854 12.7289L-7.72901 14.5255Z" fill="white"/>
<path fill-rule="evenodd" clip-rule="evenodd" d="M6.44824 3.60451C9.30908 3.40923 8.78671 3.16513 9.93886 2.97961C11.3888 3.17489 11.5548 4.05365 12.3652 4.59555C12.3652 4.59555 12.0625 5.62077 11.0666 5.47919C10.9348 5.0691 11.5499 4.94217 9.77775 3.85837C8.74765 3.79979 6.90715 4.039 6.44824 3.60451ZM15.3188 5.19603L13.2586 5.27903V5.79164C14.65 5.83557 14.899 5.64518 15.3188 5.19603Z" fill="#FFC84B" stroke="#D8AA3F" stroke-width="0.0829937"/>
<path fill-rule="evenodd" clip-rule="evenodd" d="M8.23022 5.10816C8.59149 4.92264 8.76724 5.00075 9.07969 4.98611C9.2945 5.37667 9.49466 5.41084 9.96333 5.45966C10.1722 5.76535 10.4506 6.0172 10.7756 6.19456C11.1006 6.37191 11.463 6.46973 11.8331 6.47999C13.2343 6.44094 13.6785 5.45966 14.6207 5.35226H15.6167C15.4507 5.0691 15.3237 4.90799 14.9625 4.89335C14.1127 4.83485 13.2588 4.89068 12.4238 5.05934L11.2522 5.35226C10.9104 5.18627 10.0658 4.30263 9.52883 4.32216C9.2115 4.40515 9.2115 4.51744 9.05528 4.6346C8.7526 4.76642 8.44991 4.70295 8.22534 5.10816H8.23022Z" fill="#FFC84B" stroke="#D8AA3F" stroke-width="0.0781117" stroke-linejoin="round"/>
<path fill-rule="evenodd" clip-rule="evenodd" d="M9.6458 4.67849C9.6458 4.71732 9.63038 4.75455 9.60293 4.78201C9.57547 4.80946 9.53824 4.82488 9.49942 4.82488C9.46059 4.82488 9.42336 4.80946 9.3959 4.78201C9.36845 4.75455 9.35303 4.71732 9.35303 4.67849C9.35303 4.63967 9.36845 4.60243 9.3959 4.57498C9.42336 4.54753 9.46059 4.5321 9.49942 4.5321C9.53824 4.5321 9.57547 4.54753 9.60293 4.57498C9.63038 4.60243 9.6458 4.63967 9.6458 4.67849Z" fill="#FFC84B" stroke="#D8AA3F" stroke-width="0.0781117"/>
<path fill-rule="evenodd" clip-rule="evenodd" d="M10.6079 5.09841C12.712 2.55978 14.5525 2.86734 16.9544 2.69647C17.0325 2.98939 17.0033 3.42877 15.8609 3.81933C14.2986 4.05366 11.4915 5.70377 11.4817 5.70377C10.9594 5.67936 10.5932 5.13258 10.603 5.09841H10.6079Z" fill="#FFC84B" stroke="#D8AA3F" stroke-width="0.0829937"/>
<path d="M14.933 3.44336L16.4847 3.51167M14.7671 3.6971L15.8992 3.78981" stroke="#D9A43E" stroke-width="0.0829937" stroke-linecap="round"/>
</g>
</g>
<defs>
<clipPath id="clip0_720_53378">
<rect width="24.0044" height="24.0044" fill="white" transform="translate(0.0349121 0.0437012)"/>
</clipPath>
</defs>
</svg>
