<svg width="24" height="25" viewBox="0 0 24 25" fill="none" xmlns="http://www.w3.org/2000/svg">
<g clip-path="url(#clip0_720_53375)">
<path d="M0.00439453 0.0480957H24.0088V24.0525H0.00439453V0.0480957Z" fill="#244AA5"/>
<path d="M9.48889 11.5673L9.54984 11.5345L9.62485 11.5111C9.62485 11.5111 9.66236 11.4923 9.68111 11.4923C9.69987 11.4923 9.74206 11.5158 9.75144 11.5345C9.7655 11.5533 9.83114 11.5814 9.83114 11.5814C9.83114 11.5814 9.87803 11.6002 9.88271 11.5814C9.89209 11.5689 9.90772 11.5611 9.9296 11.558C9.96242 11.5533 9.95773 11.5392 9.95773 11.5251C9.95773 11.5095 9.96554 11.4923 9.98117 11.4736C9.99523 11.4548 10.0281 11.4454 10.0281 11.4454C10.0281 11.4454 10.0749 11.4267 10.0749 11.3986C10.0749 11.3704 10.1265 11.3517 10.1546 11.3517C10.1781 11.347 10.1546 11.3329 10.2156 11.3423C10.2812 11.347 10.2906 11.3282 10.2953 11.3095C10.2953 11.286 10.2953 11.2673 10.3375 11.272C10.3781 11.2814 10.3984 11.2751 10.3984 11.2532C10.3984 11.2345 10.4359 11.2204 10.3703 11.2063C10.3047 11.1829 10.3094 11.197 10.3047 11.1688C10.3 11.1407 10.3047 11.1407 10.2578 11.136C10.2109 11.1313 10.239 11.1126 10.2343 11.0891C10.2312 11.0704 10.2234 11.0547 10.2109 11.0422C10.2015 11.0235 10.1781 11.0235 10.1781 11.0047C10.1843 10.9797 10.175 10.9672 10.1499 10.9672C10.1124 10.9672 10.1171 10.9672 10.1171 10.9485C10.1171 10.9235 10.1265 10.9094 10.1453 10.9063C10.1734 10.9 10.1843 10.886 10.1781 10.8641V10.7938L10.2062 10.7563L10.314 10.6625C10.3234 10.6484 10.3562 10.6344 10.3703 10.6625C10.3828 10.6906 10.3953 10.7094 10.4078 10.7187C10.4172 10.7328 10.4547 10.7187 10.4641 10.7094C10.4734 10.6906 10.4734 10.639 10.4969 10.6062C10.5219 10.5781 10.536 10.5562 10.5391 10.5406C10.5391 10.5125 10.5531 10.4968 10.5813 10.4937C10.6235 10.489 10.6235 10.4609 10.6235 10.4421C10.6235 10.4234 10.6329 10.3999 10.6704 10.3953C10.6985 10.3953 10.7172 10.3718 10.7266 10.3999C10.736 10.4281 10.7454 10.4328 10.7688 10.4421C10.7907 10.4578 10.8126 10.4609 10.8344 10.4515C10.8532 10.4374 10.8579 10.414 10.8813 10.4281C10.9063 10.4406 10.922 10.4312 10.9282 10.3999L10.9376 10.3296C10.9376 10.3296 10.9423 10.3109 10.9845 10.3109C11.0267 10.3109 10.9939 10.2874 11.0126 10.2734C11.036 10.2546 11.036 10.2405 11.0595 10.2499C11.0829 10.2593 11.1298 10.2405 11.1064 10.2171C11.0876 10.189 11.0407 10.1515 11.0642 10.1233C11.0923 10.0952 11.1017 10.0436 11.0782 10.0389C11.0548 10.0342 11.0126 10.0436 11.0079 10.0155C11.0032 9.98737 10.9939 9.96861 11.022 9.95924C11.0548 9.95924 11.1111 9.95924 11.1251 9.94048C11.1392 9.92173 11.1955 9.91704 11.1955 9.87485C11.1955 9.82796 11.2095 9.82796 11.2142 9.79983C11.2189 9.77639 11.2189 9.72482 11.2001 9.70138L11.1392 9.62636C11.1334 9.61517 11.1255 9.60526 11.1158 9.5972C11.1062 9.58915 11.095 9.58312 11.0829 9.57948C11.0454 9.57323 11.0251 9.56073 11.022 9.54197C11.022 9.51384 11.0454 9.54197 11.0454 9.48102C11.0454 9.42007 10.9985 9.40601 10.9985 9.40601L10.9376 9.3685C10.9376 9.3685 10.8251 9.34037 10.7969 9.34037C10.7688 9.34037 10.7313 9.30755 10.7641 9.2888C10.8016 9.2638 10.8126 9.23567 10.7969 9.20441C10.7735 9.15753 10.7735 9.15753 10.7266 9.14346C10.6797 9.13409 10.6657 9.11689 10.6844 9.09189C10.7079 9.06376 10.7126 9.04501 10.7407 9.06376C10.7688 9.08564 10.8032 9.08876 10.8438 9.07314C10.8751 9.05438 10.897 9.05126 10.9095 9.06376C10.9235 9.07783 10.947 9.09658 10.9751 9.07314C10.9985 9.04501 11.0454 9.04501 11.0689 9.05438C11.0923 9.06845 11.1439 9.06376 11.1626 9.05438C11.1814 9.04501 11.2095 9.01688 11.2095 9.00281C11.2095 8.98875 11.233 8.95593 11.2564 8.94655C11.2752 8.93249 11.3033 8.89498 11.3267 8.89498C11.3502 8.89498 11.3549 8.87154 11.3549 8.85278C11.3549 8.83403 11.3736 8.8059 11.3783 8.79652C11.3783 8.78246 11.4252 8.76371 11.4533 8.79184C11.4814 8.81997 11.5236 8.82465 11.5236 8.82465H11.5893C11.6143 8.81215 11.6424 8.81215 11.6737 8.82465C11.7018 8.8481 11.7487 8.8481 11.7487 8.8481L11.7534 8.80121C11.7596 8.77933 11.7581 8.76058 11.7487 8.74495C11.7299 8.73089 11.7065 8.71682 11.744 8.68869C11.7768 8.66525 11.7768 8.66994 11.8096 8.66994L11.894 8.67463C11.9221 8.67463 11.9643 8.69807 11.9643 8.72151C11.9643 8.74495 11.9831 8.76371 12.0018 8.77308C12.03 8.78558 12.044 8.80121 12.044 8.81997C12.0315 8.83872 12.0362 8.84966 12.0581 8.85278C12.0862 8.85278 12.0987 8.86216 12.0956 8.88091C12.0894 8.90279 12.1003 8.91686 12.1284 8.92311C12.1566 8.92936 12.1691 8.94499 12.1659 8.96999L12.1706 9.01688C12.1753 9.03563 12.2081 9.06845 12.2081 9.06845C12.2081 9.06845 12.255 9.12471 12.1941 9.09658C12.1331 9.06845 12.1191 9.05907 12.1003 9.06376L12.0628 9.07783L12.0159 9.0872C11.9878 9.0872 11.969 9.13409 12.0018 9.13877C12.0362 9.1419 12.0519 9.15753 12.0487 9.18566C12.044 9.22785 12.0394 9.20441 12.0206 9.22316C12.0018 9.24192 11.9878 9.23254 11.9597 9.23254C11.9284 9.23567 11.9159 9.25129 11.9221 9.27942C11.9315 9.32162 11.9315 9.29818 11.9456 9.31693C11.9612 9.33881 11.98 9.34037 12.0018 9.32162C12.0253 9.30287 12.044 9.2888 12.0534 9.32631C12.0628 9.36381 12.0862 9.36381 12.1097 9.36381C12.1347 9.36381 12.1534 9.35913 12.1659 9.34975C12.1909 9.34037 12.2097 9.35131 12.2222 9.38257C12.2253 9.4107 12.241 9.42633 12.2691 9.42945C12.2878 9.44195 12.3003 9.45602 12.3066 9.47165C12.3128 9.49353 12.3253 9.49821 12.3441 9.48571C12.3722 9.47321 12.3957 9.47321 12.4144 9.48571L12.4519 9.5326V9.5701L12.5363 9.59823L12.5457 9.63574C12.5457 9.65449 12.5566 9.66074 12.5785 9.65449H12.6395C12.6395 9.65449 12.6723 9.64043 12.6723 9.61699C12.6723 9.59354 12.6863 9.58886 12.7051 9.58886C12.7285 9.58886 12.7754 9.60292 12.7895 9.57948C12.8082 9.55447 12.8348 9.54822 12.8692 9.56073L12.9817 9.60292C12.9817 9.60292 12.9723 9.60292 12.9958 9.6498C13.0239 9.68731 13.0708 9.68731 13.0708 9.68731L13.0849 9.73888C13.0942 9.75295 13.1317 9.76232 13.1552 9.74826C13.1739 9.72638 13.1989 9.71388 13.2302 9.71075C13.2615 9.71075 13.2771 9.70606 13.2771 9.69669C13.2771 9.68262 13.249 9.66856 13.249 9.64043C13.249 9.6123 13.2771 9.61699 13.2818 9.59354C13.2865 9.5701 13.3099 9.59354 13.3287 9.60761C13.3474 9.62011 13.3599 9.63574 13.3662 9.65449C13.3755 9.68262 13.4037 9.72482 13.4224 9.73419C13.4459 9.74357 13.5021 9.74826 13.5162 9.72482C13.5303 9.70138 13.5771 9.69669 13.5771 9.74826C13.5724 9.79514 13.5631 9.79514 13.5912 9.8139C13.6193 9.83265 13.6287 9.88891 13.6006 9.90298C13.5787 9.91235 13.5678 9.92798 13.5678 9.94986C13.5615 9.98424 13.5646 10.0092 13.5771 10.0249C13.6021 10.0405 13.6146 10.0561 13.6146 10.0718C13.6146 10.0952 13.6381 10.1608 13.6381 10.1608C13.6381 10.1608 13.6521 10.2312 13.6475 10.2452C13.6428 10.2593 13.6381 10.2921 13.6756 10.2874C13.71 10.278 13.7256 10.2874 13.7225 10.3156C13.7178 10.3577 13.7365 10.3624 13.7131 10.3718C13.6897 10.3812 13.6803 10.4187 13.699 10.4328C13.724 10.439 13.7397 10.4499 13.7459 10.4656C13.7459 10.4843 13.7834 10.5125 13.8069 10.4937C13.8194 10.4781 13.8334 10.4687 13.8491 10.4656C13.8709 10.4656 13.8756 10.4546 13.8631 10.4328C13.8444 10.4109 13.8428 10.3921 13.8584 10.3765C13.8772 10.3671 13.8819 10.3296 13.8819 10.3296C13.8819 10.3296 13.91 10.2921 13.9381 10.3296C13.971 10.3624 13.9756 10.3484 13.9944 10.3484C14.0163 10.3515 14.0272 10.3656 14.0272 10.3906C14.0272 10.4281 14.0741 10.4046 14.0741 10.4374L14.0788 10.5453C14.0788 10.5453 14.0788 10.5922 14.1069 10.6062C14.135 10.6203 14.1257 10.625 14.1116 10.6484C14.1054 10.6703 14.1038 10.6922 14.1069 10.7141C14.1116 10.7469 14.1116 10.7375 14.0929 10.7563C14.0679 10.7719 14.0616 10.7906 14.0741 10.8125C14.0882 10.8406 14.0835 10.8547 14.121 10.8828C14.1538 10.911 14.1491 10.925 14.1491 10.9438C14.1491 10.9625 14.1819 10.9907 14.1819 11.0094C14.1819 11.0329 14.2101 11.0563 14.2288 11.0563C14.2476 11.0563 14.2757 11.0985 14.2757 11.1173L14.2851 11.1923C14.2851 11.1923 14.2804 11.2016 14.3038 11.2016C14.3273 11.2016 14.3507 11.2298 14.3554 11.2016C14.371 11.1735 14.3882 11.1579 14.407 11.1548C14.4257 11.1454 14.4632 11.1313 14.4773 11.1407C14.4992 11.1532 14.5179 11.1579 14.5336 11.1548H14.6367C14.6367 11.1548 14.6555 11.1548 14.6695 11.1876C14.6836 11.2204 14.7211 11.2532 14.7023 11.272C14.6789 11.286 14.6789 11.3189 14.7023 11.3189C14.7336 11.3157 14.7524 11.322 14.7586 11.3376C14.7555 11.3626 14.7633 11.3704 14.782 11.3611C14.807 11.3486 14.8227 11.3486 14.8289 11.3611C14.8352 11.3736 14.8508 11.3829 14.8758 11.3892C14.8914 11.4017 14.9055 11.3986 14.918 11.3798C14.9321 11.3611 14.9836 11.347 14.9836 11.347C14.9836 11.347 15.054 11.3329 15.0774 11.3376L15.1384 11.3611C15.1384 11.3611 15.1571 11.4032 15.1477 11.4267C15.1384 11.4501 15.129 11.4454 15.1384 11.4829C15.1415 11.5142 15.1337 11.5267 15.1149 11.5205C15.093 11.5111 15.0805 11.5205 15.0774 11.5486C15.0727 11.5908 15.0587 11.5861 15.0587 11.6142C15.0587 11.6424 15.0587 11.6377 15.0446 11.6517C15.0227 11.6674 15.0227 11.6799 15.0446 11.6892C15.0727 11.6892 15.0633 11.7174 15.0633 11.7361V11.783C15.0633 11.783 15.0633 11.8064 15.0352 11.8064C15.0008 11.8033 14.9805 11.8096 14.9743 11.8252C14.9649 11.8486 14.9368 11.8721 14.9649 11.8955C14.993 11.9143 14.9946 11.9268 14.9696 11.933C14.9508 11.9424 14.9414 11.9799 14.9696 11.994C15.0008 12.0065 15.0055 12.0205 14.9836 12.0362C14.9602 12.0502 14.918 12.0643 14.918 12.0831C14.918 12.1049 14.9055 12.1159 14.8805 12.1159C14.843 12.119 14.8414 12.144 14.8758 12.1909C14.9039 12.2331 14.9133 12.2237 14.9368 12.2237C14.9602 12.2237 14.9555 12.1909 14.9555 12.1909H15.0493C15.0774 12.1909 15.1009 12.1878 15.1196 12.1815C15.1384 12.1721 15.1852 12.1487 15.1852 12.1862C15.1852 12.2237 15.1946 12.219 15.2181 12.2331C15.2415 12.2472 15.2415 12.2378 15.2649 12.2612C15.2774 12.28 15.2868 12.2722 15.2931 12.2378C15.3071 12.2096 15.3353 12.1815 15.354 12.2143C15.3728 12.2472 15.3775 12.2378 15.4009 12.2378C15.429 12.2378 15.4415 12.2487 15.4384 12.2706C15.4337 12.3034 15.4665 12.2893 15.4947 12.2847C15.5228 12.28 15.5275 12.3034 15.5416 12.3222C15.5509 12.3378 15.5634 12.344 15.5791 12.3409C15.5947 12.344 15.6103 12.3378 15.6259 12.3222C15.64 12.3081 15.6541 12.2847 15.6728 12.3128C15.6916 12.3409 15.7244 12.3315 15.7338 12.3034C15.7432 12.2753 15.7807 12.2518 15.8041 12.2847C15.8229 12.3065 15.8432 12.3175 15.8651 12.3175C15.8869 12.3175 15.9088 12.3253 15.9307 12.3409C15.9448 12.3644 15.9869 12.3972 15.9541 12.4206C15.9213 12.4441 15.8885 12.4769 15.9166 12.4816C15.9448 12.4878 15.9651 12.5003 15.9776 12.5191C15.9963 12.5378 16.0526 12.5472 16.076 12.5519C16.0995 12.5566 16.1229 12.5613 16.1557 12.5331C16.1839 12.5097 16.2167 12.5097 16.212 12.5425C16.2073 12.5753 16.2261 12.6128 16.2261 12.6128C16.2261 12.6128 16.2448 12.6597 16.2448 12.6832C16.2386 12.6957 16.2511 12.7113 16.2823 12.7301C16.3292 12.7582 16.3151 12.7722 16.348 12.7488C16.3761 12.7238 16.3886 12.705 16.3855 12.6925V12.6269C16.3855 12.6269 16.4323 12.6175 16.4464 12.6082C16.4605 12.5988 16.5355 12.5613 16.5496 12.5753C16.5636 12.5894 16.5917 12.5847 16.6058 12.5753H16.6761C16.6949 12.5816 16.723 12.5722 16.7605 12.5472C16.7933 12.5191 16.7933 12.5285 16.8168 12.5472C16.8402 12.566 16.8355 12.5941 16.8262 12.6082C16.8168 12.6222 16.8262 12.655 16.8543 12.655C16.8856 12.655 16.8981 12.6691 16.8918 12.6972L16.9012 12.7582C16.9059 12.7769 16.9059 12.7816 16.9528 12.7957C16.9996 12.8051 16.9949 12.8332 16.9996 12.8566C17.0121 12.8754 17.0074 12.8863 16.9856 12.8895C16.9574 12.8895 16.9449 12.9004 16.9481 12.9223C16.9434 12.941 16.9012 12.9504 16.9012 12.9504L16.8637 12.941C16.8637 12.941 16.8355 12.941 16.8262 12.9598C16.8121 12.9738 16.784 13.0067 16.8027 13.0348C16.8215 13.0629 16.8215 13.0817 16.8027 13.0911C16.784 13.1051 16.7746 13.1614 16.7558 13.152C16.7371 13.1426 16.7183 13.152 16.7043 13.1614C16.6902 13.1708 16.6902 13.227 16.723 13.2458C16.7574 13.2739 16.773 13.2895 16.7699 13.2927L16.8074 13.3536L16.784 13.3864C16.7746 13.4052 16.7512 13.4474 16.7746 13.4567C16.798 13.4661 16.7887 13.5036 16.7652 13.5036C16.7418 13.5036 16.709 13.4943 16.7043 13.5271C16.6996 13.5599 16.6855 13.5505 16.6574 13.5458C16.6293 13.5411 16.5636 13.5271 16.5496 13.5599C16.5402 13.5911 16.5245 13.6036 16.5027 13.5974C16.4698 13.5974 16.4792 13.6443 16.4886 13.6677C16.498 13.6912 16.5308 13.7146 16.5308 13.7146C16.5308 13.7146 16.5542 13.7334 16.5542 13.7756C16.5542 13.8177 16.5355 13.8131 16.5214 13.7849C16.5074 13.7568 16.4699 13.7615 16.4652 13.7896C16.4605 13.8178 16.4558 13.8693 16.423 13.8693C16.398 13.8693 16.3792 13.8787 16.3667 13.8975C16.3573 13.9115 16.3339 13.9396 16.3339 13.9537C16.3339 13.9678 16.3292 13.9865 16.3058 13.9912C16.287 13.9912 16.2823 14.0381 16.2823 14.0381C16.2823 14.0381 16.2307 14.0475 16.2261 14.0662C16.2214 14.085 16.2261 14.1178 16.1839 14.1225C16.1432 14.1319 16.1167 14.1491 16.1042 14.1741C16.0885 14.1959 16.0885 14.2147 16.1042 14.2303C16.1229 14.2491 16.1323 14.3147 16.151 14.3241C16.1823 14.3335 16.1948 14.3491 16.1885 14.371C16.1885 14.4085 16.1604 14.4319 16.1932 14.4319C16.2307 14.4319 16.2464 14.4444 16.2401 14.4694C16.2261 14.4976 16.2261 14.4976 16.1979 14.5116C16.1745 14.5257 16.1604 14.5257 16.1604 14.5585C16.1604 14.5913 16.1698 14.5866 16.1464 14.6007C16.1276 14.6132 16.1198 14.6288 16.1229 14.6476C16.1229 14.6757 16.1182 14.6663 16.0901 14.6945C16.062 14.7226 16.0291 14.7226 16.0057 14.7132C15.9901 14.7132 15.9807 14.7038 15.9776 14.6851C15.9729 14.657 15.9307 14.657 15.9119 14.6617C15.8885 14.6663 15.8604 14.6898 15.8604 14.6898C15.8604 14.6898 15.8229 14.7132 15.8369 14.7367C15.8526 14.7617 15.8463 14.7773 15.8182 14.7836C15.7853 14.7836 15.715 14.8164 15.6963 14.7836C15.6728 14.7414 15.6119 14.7179 15.6025 14.7695C15.5931 14.8211 15.6306 14.8117 15.6259 14.8633C15.6213 14.9101 15.6119 14.9101 15.5931 14.9242C15.5806 14.9367 15.5744 14.9523 15.5744 14.9711C15.5697 14.9898 15.565 15.0367 15.5931 15.0508C15.6213 15.0649 15.64 15.1117 15.64 15.1352C15.64 15.1586 15.64 15.1821 15.6681 15.1821C15.7025 15.1883 15.7228 15.1774 15.7291 15.1492C15.7338 15.1211 15.7947 15.107 15.7994 15.1633C15.8041 15.2196 15.7994 15.2477 15.8275 15.2711L15.8838 15.3415C15.9119 15.3696 15.9307 15.454 15.9307 15.454C15.8838 15.4634 15.8744 15.5196 15.8463 15.529L15.7994 15.5384L15.776 15.5712C15.7432 15.5853 15.7525 15.5337 15.7103 15.5524C15.6775 15.5665 15.6728 15.6087 15.6259 15.5899C15.5978 15.5806 15.5791 15.4821 15.5744 15.4587C15.5744 15.4446 15.5416 15.4024 15.5322 15.3883C15.504 15.3415 15.4478 15.3883 15.429 15.3743C15.3962 15.3555 15.4103 15.318 15.3681 15.318C15.2743 15.3086 15.34 15.3696 15.3024 15.3837C15.2321 15.4118 15.2321 15.318 15.1759 15.3602C15.1571 15.3743 15.2087 15.3883 15.1946 15.4165C15.1852 15.4352 15.129 15.4727 15.1337 15.5009C15.1384 15.5384 15.1806 15.5478 15.1899 15.5806C15.2227 15.6603 15.1712 15.7212 15.0868 15.6556C15.0399 15.6181 15.0352 15.5524 14.9649 15.5571L14.9227 15.5759C14.9102 15.5696 14.8946 15.5665 14.8758 15.5665C14.8524 15.5759 14.8758 15.5946 14.8711 15.6087L14.8289 15.6462C14.8102 15.6697 14.8149 15.6931 14.7867 15.7165C14.7633 15.7306 14.7445 15.7212 14.7211 15.7494C14.693 15.7775 14.6883 15.8197 14.6555 15.8478C14.6367 15.8619 14.6273 15.8056 14.6086 15.8478C14.6023 15.8478 14.5976 15.8509 14.5945 15.8572V15.8853C14.6414 15.9791 14.5476 16.0072 14.5148 16.0728C14.5007 16.0963 14.5382 16.1197 14.5242 16.1385L14.4679 16.2041C14.4679 16.2166 14.4632 16.2291 14.4539 16.2416C14.4445 16.251 14.421 16.2416 14.4164 16.2557C14.4164 16.2698 14.4445 16.2838 14.4539 16.2932C14.4632 16.3026 14.4492 16.3166 14.4539 16.3213C14.5007 16.3682 14.4726 16.3541 14.4961 16.3963C14.4961 16.4057 14.5148 16.3963 14.5195 16.4104L14.5148 16.4385L14.5523 16.4901C14.5523 16.5042 14.482 16.537 14.4679 16.537C14.4257 16.537 14.5054 16.4526 14.4351 16.4526C14.407 16.4526 14.407 16.5182 14.3976 16.5276H14.3601C14.3179 16.5276 14.2898 16.5792 14.271 16.5839H14.2194C14.2007 16.5839 14.1819 16.6026 14.1632 16.6026C14.1569 16.6026 14.1491 16.5979 14.1397 16.5886L14.0647 16.5651C14.0507 16.5651 14.0272 16.5839 14.0178 16.5745C14.0085 16.5698 14.0319 16.5417 13.9991 16.5276L13.971 16.462C13.9835 16.4245 13.9897 16.3854 13.9897 16.3448C13.9803 16.2979 13.9194 16.2651 13.8959 16.2323C13.8866 16.2088 13.8772 16.1385 13.8491 16.1244C13.8215 16.1031 13.7991 16.0758 13.7834 16.0447C13.7897 16.0353 13.7897 16.0228 13.7834 16.0072C13.7678 15.9978 13.7553 15.9853 13.7459 15.9697C13.7412 15.951 13.7459 15.8994 13.7272 15.89C13.7084 15.8759 13.5724 15.8619 13.5396 15.8572C13.524 15.8572 13.5099 15.8525 13.4974 15.8431L13.4787 15.8197L13.4365 15.8244H13.4037C13.3568 15.8525 13.3521 15.89 13.3099 15.9181C13.2677 15.9556 13.2255 15.951 13.1833 15.9885C13.1552 16.0119 13.1364 16.0682 13.113 16.0916C13.1036 16.1057 13.0849 16.0916 13.0802 16.0963L13.0052 16.1666C13.0052 16.1666 13.0052 16.1807 12.9958 16.1854L12.9489 16.1947H12.902C12.8833 16.2041 12.8833 16.2276 12.8082 16.2416L12.7942 16.251L12.7661 16.2744H12.7379C12.7192 16.2776 12.7035 16.2838 12.691 16.2932C12.6488 16.2932 12.5879 16.2744 12.5598 16.2885C12.541 16.2932 12.4894 16.3495 12.466 16.3541H12.4379C12.4285 16.3541 12.4144 16.4198 12.4097 16.4339L12.316 16.5136L12.2925 16.5511C12.2832 16.5636 12.2706 16.5698 12.255 16.5698C12.2331 16.5667 12.2128 16.5604 12.1941 16.5511C12.1613 16.5511 12.0675 16.5417 12.0394 16.5511C12.0112 16.5511 12.0206 16.6401 11.9456 16.6448L11.819 16.6636C11.819 16.6636 11.7909 16.6448 11.7627 16.6542C11.7534 16.6542 11.7252 16.687 11.7252 16.7011V16.7152L11.7299 16.7292C11.7159 16.7527 11.6784 16.7761 11.6643 16.8042L11.6549 16.8183C11.6455 16.8277 11.594 16.8464 11.5893 16.8558C11.5752 16.8839 11.6221 16.9121 11.6174 16.9261C11.608 16.9636 11.5518 17.0011 11.5377 17.0386C11.533 17.0527 11.5565 17.0996 11.5518 17.1184L11.533 17.2731L11.5424 17.334L11.5705 17.3528C11.5752 17.3621 11.6362 17.4747 11.6362 17.4887C11.6455 17.5684 11.5283 17.5403 11.5987 17.6247L11.6268 17.6622L11.7346 17.7466C11.7346 17.7607 11.6596 17.7747 11.6502 17.7841C11.6127 17.8216 11.5846 17.8826 11.5518 17.9201C11.5283 17.9388 11.5096 17.9201 11.4861 17.9669C11.4768 17.9857 11.4861 18.0279 11.4721 18.042C11.4533 18.0607 11.4392 18.0326 11.4252 18.042C11.4158 18.042 11.4111 18.0701 11.4064 18.0748C11.383 18.0888 11.2095 18.1826 11.1955 18.1732C11.1861 18.1732 11.1767 18.1404 11.1767 18.131L11.1533 18.0935C11.1064 18.056 11.0407 18.0466 10.9985 18.0935L10.9704 18.1404L10.8954 18.1967C10.8954 18.1967 10.8813 18.2154 10.872 18.2107C10.8579 18.2107 10.8157 18.1639 10.8016 18.1498C10.7829 18.1263 10.7266 18.0701 10.7219 18.0466C10.7219 17.9529 10.6516 17.8638 10.6235 17.7747H10.6704C10.7172 17.7466 10.7032 17.6622 10.7876 17.695C10.8016 17.681 10.7969 17.6669 10.8204 17.6528C10.8329 17.6528 10.8407 17.6481 10.8438 17.6388C10.8766 17.5919 10.9095 17.4231 10.8813 17.3762C10.8532 17.3387 10.8251 17.3387 10.8016 17.2731V17.2168C10.8016 17.1981 10.7688 17.1043 10.7641 17.0949L10.7407 17.0715C10.7407 17.0668 10.7313 16.9636 10.736 16.9543C10.7079 16.8746 10.6047 16.823 10.6 16.8136L10.5625 16.748L10.5391 16.687C10.5391 16.6776 10.5203 16.6683 10.5203 16.6542C10.5203 16.6355 10.5766 16.5886 10.5766 16.5557C10.5766 16.5417 10.5391 16.5089 10.5438 16.4854C10.5485 16.462 10.5907 16.4198 10.5907 16.3917C10.5907 16.3635 10.5297 16.2979 10.5203 16.2651C10.5203 16.2463 10.5438 16.2323 10.5391 16.2229L10.4594 16.1385C10.4547 16.1244 10.4828 16.1104 10.4594 16.0916C10.4359 16.0728 10.4594 16.0775 10.4547 16.0588L10.4172 16.0025L10.3562 15.7869L10.3281 15.7494L10.3094 15.7025C10.3094 15.7025 10.2484 15.6837 10.239 15.665C10.2297 15.6509 10.2297 15.6087 10.2109 15.5853C10.2046 15.5759 10.1953 15.5696 10.1828 15.5665L10.1734 15.5431C10.1546 15.5196 10.1218 15.5431 10.0984 15.4493L10.0046 15.3837L9.99523 15.3696C9.9671 15.3665 9.9421 15.3571 9.92022 15.3415L9.84521 15.3368L9.82645 15.3086C9.79832 15.2993 9.74675 15.304 9.72331 15.2805C9.69987 15.2571 9.69518 15.1774 9.66236 15.1867H9.64361C9.62017 15.1539 9.54046 15.1492 9.50296 15.1305C9.49358 15.1258 9.46545 15.1305 9.46545 15.1211L9.47014 15.0742L9.42325 15.0227C9.39512 15.0133 9.40919 15.0086 9.38575 14.9992C9.33418 14.9945 9.32949 14.9992 9.29198 15.0367L9.25447 15.0508C9.23572 15.0602 9.23103 15.0977 9.20759 15.0789L9.18415 15.0602C9.17008 15.0461 9.16071 15.0555 9.15602 15.032C9.10914 15.0086 8.98724 15.0883 8.95911 15.032C8.93567 15.018 8.9216 15.032 8.90285 15.018C8.89347 15.0086 8.92629 14.9054 8.83721 14.8679L8.90285 14.8211V14.7836C8.90285 14.7695 8.91222 14.7367 8.90754 14.7226L8.88878 14.6851L8.87941 14.6382L8.85128 14.6241C8.82627 14.6085 8.80439 14.5913 8.78564 14.5726L8.77157 14.5538C8.75751 14.5444 8.70125 14.5257 8.70594 14.5022C8.70594 14.496 8.71063 14.4897 8.72 14.4835L8.72938 14.4507C8.75282 14.4179 8.80908 14.4319 8.7997 14.371C8.7997 14.3428 8.77626 14.3194 8.77157 14.2866L8.75282 14.2631C8.69656 14.2585 8.70594 14.2022 8.68718 14.1881C8.62624 14.1506 8.58404 14.1741 8.64968 14.0944C8.65905 14.0709 8.59342 14.0287 8.57935 14.0193C8.55591 13.9959 8.56997 13.949 8.5606 13.9256C8.55591 13.9115 8.51371 13.8928 8.50434 13.8787L8.48558 13.8412V13.8318C8.49809 13.8224 8.49809 13.8099 8.48558 13.7943C8.47933 13.7881 8.47152 13.7849 8.46214 13.7849C8.40588 13.7412 8.34337 13.7099 8.27461 13.6912C8.25585 13.6818 8.26523 13.6677 8.24648 13.6583L8.13865 13.6115C8.12458 13.6115 8.11989 13.5693 8.11052 13.5599L8.0777 13.5224C8.0777 13.4849 8.05426 13.4802 8.03081 13.4614L8.02144 13.438L8.04488 13.3583L8.06832 13.3114L8.04957 13.227C8.02144 13.152 7.98862 13.1614 8.00268 13.0582C8.00268 13.0395 8.00737 13.0223 8.01675 13.0067L8.02613 12.9926L8.07301 12.9598C8.08707 12.941 8.09645 12.8895 8.11989 12.8754C8.12927 12.8613 8.17615 12.8379 8.18084 12.8285C8.19334 12.816 8.19803 12.8004 8.19491 12.7816H8.14802C8.14333 12.7816 8.12458 12.7629 8.10583 12.7629L8.09645 12.7441L8.08707 12.7347L8.04019 12.7207L7.96987 12.6972C7.93705 12.6785 7.89954 12.6222 7.86203 12.6175H7.74483C7.71669 12.6222 7.71669 12.6082 7.69794 12.5988C7.66512 12.5894 7.68856 12.6175 7.61824 12.5941C7.61199 12.5785 7.61355 12.5644 7.62293 12.5519H7.58542C7.52916 12.5378 7.54791 12.4863 7.53854 12.4581C7.52603 12.4488 7.51041 12.4456 7.49165 12.4488V12.4347C7.50572 12.4206 7.4729 12.3831 7.4729 12.3784C7.4729 12.3644 7.54323 12.355 7.5526 12.355L7.54791 12.3269L7.56198 12.2612L7.5151 12.2143C7.52447 12.2081 7.53072 12.2003 7.53385 12.1909C7.56667 12.0971 7.61824 12.1721 7.66512 12.0877L7.68856 12.0409H7.69794L7.72607 12.0502C7.73232 12.0409 7.7417 12.0346 7.7542 12.0315L7.77295 12.0362C7.85735 12.0174 7.83859 11.9893 7.88548 11.9518C7.89954 11.9424 7.93705 11.9424 7.9558 11.933L8.0355 11.9846C8.05894 11.994 8.14333 12.0127 8.1574 12.0221L8.1996 12.0643C8.24648 12.0877 8.21835 12.0456 8.26523 12.0549C8.31212 12.0643 8.34962 12.1018 8.39651 12.1206H8.42932C8.44339 12.1206 8.52309 12.1018 8.52778 12.1065L8.5606 12.1206C8.56997 12.1206 8.57935 12.0971 8.58404 12.0971C8.61686 12.1018 8.62155 12.1159 8.66374 12.1112C8.66374 12.1112 8.68718 11.9893 8.71063 11.9846C8.72 11.9846 8.75282 12.0127 8.75751 12.0174C8.77626 12.0174 8.75751 11.9893 8.75751 11.9893C8.75751 11.9799 8.72938 11.9049 8.73407 11.8955H8.7622C8.79345 11.8955 8.81846 11.8861 8.83721 11.8674L8.87941 11.8111L8.87472 11.7736L8.90754 11.7502C8.91691 11.7314 8.92942 11.7158 8.94504 11.7033C9.02474 11.6939 9.04819 11.633 9.11851 11.6236H9.14195L9.15602 11.647C9.16071 11.6517 9.2029 11.6799 9.21697 11.6799L9.23103 11.6658C9.2451 11.6658 9.2826 11.6424 9.28729 11.6283C9.28104 11.6283 9.28104 11.622 9.28729 11.6095C9.28729 11.6048 9.33418 11.5627 9.34355 11.5627H9.39513L9.41857 11.5861H9.46076L9.4842 11.5627L9.48889 11.5673Z" fill="#D0A650"/>
<path d="M13.1974 5.88507L13.8022 7.74635L12.2175 6.5977H14.1726L12.5926 7.74635L13.1974 5.88507ZM15.5509 6.30233L16.1557 8.16361L14.5711 7.01496H16.5308L14.9462 8.15892L15.5509 6.30233ZM17.7967 7.11811L18.4062 8.97938L16.8215 7.83074H18.7765L17.1919 8.97938L17.7967 7.11811ZM10.8063 5.88507L10.1968 7.74635L11.7815 6.5977H9.82647L11.4111 7.74635L10.8016 5.88507H10.8063ZM8.45278 6.30233L7.8433 8.16361L9.42796 7.01496H7.47292L9.05289 8.15892L8.44341 6.29765L8.45278 6.30233ZM6.21644 7.11811L6.82124 8.97938L5.23657 7.83074H7.19162L5.61164 8.97938L6.21644 7.11811Z" fill="white"/>
</g>
<defs>
<clipPath id="clip0_720_53375">
<rect width="24.0044" height="24.0044" fill="white" transform="translate(0.00439453 0.0480957)"/>
</clipPath>
</defs>
</svg>
