<svg width="25" height="25" viewBox="0 0 25 25" fill="none" xmlns="http://www.w3.org/2000/svg">
<g clip-path="url(#clip0_720_53364)">
<path d="M0.0129395 0.0480957H24.0173V24.0525H0.0129395V0.0480957Z" fill="#FF0000"/>
<path fill-rule="evenodd" clip-rule="evenodd" d="M13.0512 7.38068L13.1872 4.77865C13.1872 4.76302 13.1809 4.75521 13.1684 4.75521C13.1559 4.75521 13.1465 4.76146 13.1403 4.77396L12.4745 7.27754L12.4698 7.30567C12.4594 7.34622 12.4576 7.38853 12.4648 7.4298C12.4719 7.47107 12.4877 7.51035 12.5112 7.54503C12.5347 7.57971 12.5653 7.60901 12.6009 7.63098C12.6366 7.65294 12.6765 7.66707 12.718 7.67243C12.7596 7.67779 12.8018 7.67425 12.8418 7.66206C12.8819 7.64987 12.9189 7.62929 12.9504 7.6017C12.9819 7.57411 13.0072 7.54014 13.0246 7.50203C13.042 7.46393 13.051 7.42256 13.0512 7.38068ZM13.7685 7.60104L14.3124 5.05057C14.3124 5.03807 14.3077 5.02869 14.2983 5.02244C14.2858 5.02244 14.2764 5.02713 14.2702 5.03651L13.2153 7.40881L13.2059 7.43225C13.1898 7.47045 13.182 7.51161 13.1829 7.55304C13.1838 7.59447 13.1933 7.63525 13.211 7.67274C13.2287 7.71022 13.2541 7.74357 13.2855 7.7706C13.3169 7.79764 13.3536 7.81777 13.3933 7.82968C13.433 7.84159 13.4747 7.84501 13.5158 7.83972C13.557 7.83444 13.5965 7.82056 13.6319 7.79899C13.6673 7.77743 13.6977 7.74866 13.7213 7.71455C13.7448 7.68045 13.7609 7.64177 13.7685 7.60104ZM14.4436 7.92922L15.3813 5.50065C15.3844 5.49506 15.3852 5.48846 15.3834 5.4823C15.3817 5.47615 15.3775 5.47094 15.3719 5.46783C15.3663 5.46473 15.3597 5.46397 15.3536 5.46573C15.3474 5.46748 15.3422 5.47162 15.3391 5.47721L13.9279 7.65261L13.9138 7.67605C13.8919 7.71132 13.8777 7.75082 13.8721 7.79196C13.8665 7.8331 13.8696 7.87496 13.8813 7.91481C13.893 7.95466 13.9129 7.99161 13.9398 8.02323C13.9667 8.05486 14 8.08046 14.0374 8.09837C14.0749 8.11627 14.1157 8.12607 14.1572 8.12713C14.1987 8.1282 14.24 8.1205 14.2783 8.10454C14.3166 8.08858 14.3512 8.06471 14.3797 8.03451C14.4081 8.0043 14.4299 7.96842 14.4436 7.92922ZM15.0578 8.36055L16.3659 6.11014C16.3696 6.10517 16.3712 6.09891 16.3703 6.09276C16.3694 6.0866 16.3661 6.08105 16.3612 6.07732C16.3562 6.07359 16.3499 6.07199 16.3438 6.07287C16.3376 6.07375 16.3321 6.07704 16.3284 6.08201L14.5937 8.00423L14.5749 8.02768C14.5473 8.05899 14.5266 8.0958 14.5142 8.13569C14.5019 8.17558 14.4981 8.21764 14.5032 8.2591C14.5083 8.30055 14.5221 8.34045 14.5437 8.37617C14.5654 8.41189 14.5943 8.44261 14.6287 8.46631C14.6631 8.49002 14.7021 8.50616 14.7432 8.51367C14.7843 8.52119 14.8265 8.5199 14.867 8.50991C14.9076 8.49991 14.9456 8.48143 14.9784 8.45569C15.0113 8.42994 15.0384 8.39752 15.0578 8.36055ZM15.597 8.88096L17.2379 6.86028C17.2473 6.8509 17.2473 6.83996 17.2379 6.82746H17.2051L15.1891 8.459L15.1703 8.47776C15.1386 8.50459 15.1128 8.53782 15.0948 8.57529C15.0768 8.61275 15.0668 8.6536 15.0657 8.69516C15.0645 8.73673 15.0722 8.77806 15.0881 8.81647C15.104 8.85489 15.1278 8.8895 15.1581 8.91806C15.1883 8.94662 15.2242 8.96848 15.2634 8.9822C15.3027 8.99593 15.3444 9.00121 15.3858 8.99771C15.4272 8.9942 15.4675 8.98199 15.5039 8.96188C15.5402 8.94176 15.572 8.91418 15.597 8.88096ZM16.0517 9.48106L17.988 7.737C17.9943 7.73075 17.9943 7.72137 17.988 7.70887L17.9599 7.69949L15.7095 9.00285L15.6907 9.01692C15.656 9.03896 15.6262 9.06804 15.6033 9.10227C15.5804 9.13651 15.565 9.17515 15.5579 9.21572C15.5508 9.25629 15.5523 9.29788 15.5623 9.33783C15.5722 9.37779 15.5905 9.41522 15.6157 9.44772C15.641 9.48022 15.6728 9.50708 15.7091 9.52657C15.7453 9.54606 15.7853 9.55775 15.8264 9.56089C15.8674 9.56403 15.9087 9.55855 15.9475 9.5448C15.9863 9.53106 16.0218 9.50935 16.0517 9.48106ZM16.4034 10.1421L18.5881 8.72624C18.5937 8.72313 18.5979 8.71793 18.5996 8.71177C18.6014 8.70562 18.6006 8.69902 18.5975 8.69342C18.5944 8.68783 18.5892 8.68369 18.583 8.68194C18.5769 8.68018 18.5703 8.68094 18.5647 8.68404L16.1455 9.61703L16.1221 9.6264C16.0838 9.6423 16.0494 9.66605 16.0209 9.69613C15.9924 9.72621 15.9706 9.76193 15.9568 9.80099C15.9431 9.84005 15.9377 9.88156 15.941 9.92284C15.9443 9.96412 15.9563 10.0042 15.9761 10.0406C15.9959 10.0769 16.0232 10.1087 16.0561 10.1339C16.089 10.159 16.1268 10.1769 16.1671 10.1865C16.2074 10.1961 16.2493 10.1971 16.29 10.1894C16.3307 10.1818 16.3693 10.1657 16.4034 10.1421ZM16.6472 10.8548L19.0288 9.79518C19.0328 9.79223 19.0357 9.78812 19.0372 9.78342C19.0386 9.77872 19.0386 9.77369 19.037 9.76902C19.0355 9.76435 19.0325 9.76029 19.0285 9.75741C19.0245 9.75454 19.0197 9.75299 19.0148 9.75299L16.469 10.2922L16.4456 10.3015C16.4052 10.3111 16.3673 10.3291 16.3343 10.3543C16.3013 10.3795 16.2741 10.4114 16.2542 10.4478C16.2344 10.4843 16.2225 10.5245 16.2193 10.5659C16.216 10.6073 16.2216 10.6489 16.2355 10.688C16.2494 10.7271 16.2714 10.7628 16.3 10.7928C16.3287 10.8228 16.3633 10.8465 16.4017 10.8622C16.4401 10.878 16.4814 10.8854 16.5229 10.8841C16.5644 10.8829 16.6051 10.8728 16.6425 10.8548M16.7737 11.5955L19.2914 10.9251C19.3039 10.9251 19.3086 10.9157 19.3055 10.8969C19.3023 10.8876 19.2945 10.8813 19.282 10.8782L16.6894 11.0142H16.6659C16.5888 11.0285 16.5206 11.0728 16.4762 11.1374C16.4318 11.202 16.4149 11.2817 16.4291 11.3588C16.4434 11.4358 16.4878 11.5041 16.5524 11.5485C16.617 11.5929 16.6967 11.6098 16.7737 11.5955ZM16.7831 12.3456L19.3758 12.0737C19.382 12.0737 19.388 12.0713 19.3924 12.0669C19.3968 12.0625 19.3992 12.0565 19.3992 12.0503C19.3992 12.0441 19.3968 12.0381 19.3924 12.0337C19.388 12.0293 19.382 12.0268 19.3758 12.0268L16.7972 11.7596H16.7691C16.7274 11.7554 16.6853 11.7602 16.6456 11.7735C16.6059 11.7868 16.5695 11.8084 16.5388 11.8369C16.5081 11.8653 16.4838 11.9 16.4675 11.9386C16.4513 11.9771 16.4433 12.0187 16.4444 12.0606C16.4454 12.1024 16.4552 12.1436 16.4734 12.1813C16.4915 12.2191 16.5174 12.2525 16.5495 12.2795C16.5815 12.3065 16.6189 12.3263 16.6592 12.3377C16.6995 12.3491 16.7417 12.3518 16.7831 12.3456ZM16.68 13.0864L19.282 13.2224C19.2882 13.223 19.2944 13.2211 19.2993 13.2172C19.3041 13.2132 19.3072 13.2075 19.3078 13.2013C19.3084 13.1951 19.3065 13.1888 19.3026 13.184C19.2986 13.1792 19.2929 13.1761 19.2867 13.1755L16.7831 12.5097L16.755 12.5051C16.7144 12.4946 16.6721 12.4929 16.6309 12.5C16.5896 12.5071 16.5503 12.523 16.5156 12.5464C16.4809 12.5699 16.4516 12.6005 16.4297 12.6361C16.4077 12.6718 16.3936 12.7117 16.3882 12.7532C16.3829 12.7948 16.3864 12.837 16.3986 12.877C16.4108 12.9171 16.4314 12.9541 16.459 12.9856C16.4865 13.0171 16.5205 13.0424 16.5586 13.0598C16.5967 13.0772 16.6381 13.0862 16.68 13.0864ZM16.4596 13.8037L19.0101 14.3476C19.0226 14.3476 19.032 14.3429 19.0382 14.3335C19.0382 14.3179 19.0335 14.3085 19.0242 14.3054L16.6565 13.2505L16.6331 13.2411C16.5949 13.2251 16.5537 13.2172 16.5123 13.2181C16.4709 13.219 16.4301 13.2286 16.3926 13.2462C16.3551 13.2639 16.3218 13.2893 16.2947 13.3207C16.2677 13.3521 16.2476 13.3888 16.2357 13.4285C16.2238 13.4682 16.2203 13.51 16.2256 13.5511C16.2309 13.5922 16.2448 13.6317 16.2664 13.6671C16.2879 13.7025 16.3167 13.7329 16.3508 13.7565C16.3849 13.78 16.4236 13.7961 16.4643 13.8037M16.1361 14.4788L18.5647 15.4165C18.5772 15.4196 18.5881 15.4165 18.5975 15.4071C18.5975 15.3946 18.5944 15.3837 18.5881 15.3743L16.4127 13.9631L16.3893 13.9491C16.354 13.9272 16.3145 13.9129 16.2734 13.9073C16.2322 13.9017 16.1904 13.9048 16.1505 13.9165C16.1107 13.9282 16.0737 13.9481 16.0421 13.975C16.0105 14.0019 15.9849 14.0352 15.967 14.0726C15.9491 14.1101 15.9393 14.1509 15.9382 14.1924C15.9372 14.2339 15.9448 14.2752 15.9608 14.3135C15.9768 14.3519 16.0006 14.3864 16.0308 14.4149C16.0611 14.4434 16.0969 14.4652 16.1361 14.4788ZM15.7048 15.093L17.9552 16.4011C17.9602 16.4048 17.9664 16.4064 17.9726 16.4055C17.9787 16.4046 17.9843 16.4014 17.988 16.3964C17.9918 16.3914 17.9934 16.3852 17.9925 16.379C17.9916 16.3729 17.9883 16.3673 17.9833 16.3636L16.0611 14.6289L16.0377 14.6101C16.0064 14.5825 15.9695 14.5618 15.9297 14.5494C15.8898 14.5371 15.8477 14.5333 15.8063 14.5384C15.7648 14.5435 15.7249 14.5573 15.6892 14.5789C15.6535 14.6006 15.6227 14.6296 15.599 14.6639C15.5753 14.6983 15.5592 14.7373 15.5517 14.7784C15.5442 14.8195 15.5454 14.8617 15.5554 14.9023C15.5654 14.9428 15.5839 14.9808 15.6097 15.0137C15.6354 15.0465 15.6678 15.0736 15.7048 15.093ZM15.1844 15.6322L17.2051 17.2731C17.2096 17.2765 17.2152 17.2781 17.2208 17.2777C17.2264 17.2773 17.2317 17.2749 17.2357 17.2709C17.2397 17.2669 17.2421 17.2616 17.2425 17.256C17.2429 17.2504 17.2413 17.2448 17.2379 17.2403L15.6063 15.2243L15.5876 15.2055C15.5608 15.1738 15.5275 15.148 15.4901 15.13C15.4526 15.112 15.4117 15.1021 15.3702 15.1009C15.3286 15.0997 15.2873 15.1074 15.2489 15.1233C15.2105 15.1392 15.1758 15.1631 15.1473 15.1933C15.1187 15.2235 15.0969 15.2594 15.0831 15.2986C15.0694 15.3379 15.0641 15.3796 15.0676 15.421C15.0711 15.4625 15.0834 15.5027 15.1035 15.5391C15.1236 15.5755 15.1512 15.6072 15.1844 15.6322ZM14.5843 16.087L16.3284 18.0232C16.3302 18.0257 16.3325 18.0278 16.3352 18.0294C16.3378 18.0309 16.3407 18.0319 16.3438 18.0324C16.3468 18.0328 16.3499 18.0327 16.3529 18.0319C16.3559 18.0311 16.3587 18.0298 16.3612 18.0279C16.3636 18.0261 16.3657 18.0238 16.3673 18.0211C16.3688 18.0185 16.3699 18.0155 16.3703 18.0125C16.3707 18.0094 16.3706 18.0063 16.3698 18.0034C16.369 18.0004 16.3677 17.9976 16.3659 17.9951L15.0625 15.7447L15.0484 15.726C15.0264 15.6912 14.9973 15.6614 14.9631 15.6385C14.9288 15.6156 14.8902 15.6002 14.8496 15.5931C14.8091 15.586 14.7675 15.5875 14.7275 15.5975C14.6876 15.6075 14.6501 15.6257 14.6176 15.6509C14.5851 15.6762 14.5583 15.708 14.5388 15.7443C14.5193 15.7806 14.5076 15.8205 14.5045 15.8616C14.5013 15.9026 14.5068 15.9439 14.5205 15.9827C14.5343 16.0215 14.556 16.057 14.5843 16.087ZM13.9232 16.4386L15.3391 18.6234C15.3485 18.6327 15.3594 18.6359 15.3719 18.6327C15.3813 18.6234 15.3844 18.6124 15.3813 18.5999L14.4483 16.1807L14.4389 16.1573C14.4231 16.119 14.3993 16.0846 14.3692 16.0561C14.3391 16.0276 14.3034 16.0058 14.2644 15.9921C14.2253 15.9783 14.1838 15.9729 14.1425 15.9762C14.1012 15.9795 14.0611 15.9915 14.0248 16.0113C13.9884 16.0312 13.9566 16.0584 13.9315 16.0913C13.9063 16.1242 13.8884 16.1621 13.8788 16.2023C13.8693 16.2426 13.8683 16.2845 13.8759 16.3252C13.8836 16.3659 13.8997 16.4045 13.9232 16.4386ZM13.2106 16.6824L14.2702 19.0641C14.2702 19.0734 14.2795 19.0781 14.2983 19.0781C14.3108 19.0719 14.3155 19.0625 14.3124 19.05L13.7732 16.5042L13.7638 16.4808C13.7542 16.4404 13.7363 16.4025 13.7111 16.3695C13.6858 16.3366 13.654 16.3093 13.6175 16.2895C13.581 16.2696 13.5408 16.2577 13.4994 16.2545C13.4581 16.2512 13.4165 16.2568 13.3774 16.2707C13.3383 16.2846 13.3026 16.3066 13.2725 16.3352C13.2425 16.3639 13.2189 16.3985 13.2031 16.4369C13.1874 16.4753 13.1799 16.5166 13.1812 16.5581C13.1825 16.5996 13.1925 16.6403 13.2106 16.6777M12.4698 16.809L13.1403 19.3266C13.1403 19.3391 13.1496 19.3438 13.1684 19.3407C13.1809 19.3375 13.1872 19.3297 13.1872 19.3172L13.0512 16.7246V16.7011C13.0441 16.663 13.0296 16.6266 13.0084 16.594C12.9873 16.5614 12.9599 16.5334 12.9279 16.5114C12.8959 16.4894 12.8599 16.4739 12.8219 16.4659C12.784 16.4578 12.7448 16.4573 12.7066 16.4644C12.6684 16.4714 12.632 16.486 12.5995 16.5071C12.5669 16.5283 12.5388 16.5556 12.5168 16.5876C12.4949 16.6196 12.4794 16.6556 12.4713 16.6936C12.4633 16.7316 12.4628 16.7708 12.4698 16.809ZM11.7197 16.8183L11.9916 19.411C11.9916 19.4172 11.9941 19.4232 11.9985 19.4276C12.0029 19.432 12.0088 19.4344 12.0151 19.4344C12.0213 19.4344 12.0272 19.432 12.0316 19.4276C12.036 19.4232 12.0385 19.4172 12.0385 19.411L12.3057 16.8324V16.8043C12.3099 16.7626 12.3052 16.7205 12.2919 16.6809C12.2785 16.6412 12.2569 16.6048 12.2285 16.5741C12.2 16.5434 12.1653 16.519 12.1268 16.5028C12.0882 16.4865 12.0466 16.4786 12.0048 16.4796C11.9629 16.4806 11.9217 16.4905 11.884 16.5086C11.8463 16.5267 11.8128 16.5526 11.7858 16.5847C11.7589 16.6167 11.7391 16.6541 11.7276 16.6944C11.7162 16.7347 11.7135 16.7769 11.7197 16.8183ZM10.9789 16.7152L10.843 19.3172C10.8424 19.3234 10.8442 19.3297 10.8482 19.3345C10.8521 19.3393 10.8579 19.3424 10.8641 19.343C10.8703 19.3436 10.8765 19.3418 10.8813 19.3378C10.8862 19.3339 10.8892 19.3281 10.8899 19.3219L11.5556 16.8183L11.5603 16.7902C11.5708 16.7497 11.5725 16.7073 11.5654 16.6661C11.5582 16.6248 11.5424 16.5855 11.5189 16.5508C11.4955 16.5162 11.4649 16.4869 11.4292 16.4649C11.3936 16.4429 11.3536 16.4288 11.3121 16.4234C11.2706 16.4181 11.2284 16.4216 11.1883 16.4338C11.1482 16.446 11.1112 16.4666 11.0797 16.4942C11.0482 16.5218 11.0229 16.5557 11.0056 16.5938C10.9882 16.6319 10.9791 16.6733 10.9789 16.7152ZM10.2616 16.4948L9.71777 19.05C9.71591 19.0562 9.71659 19.0629 9.71967 19.0686C9.72274 19.0743 9.72796 19.0786 9.73418 19.0805C9.7404 19.0823 9.7471 19.0817 9.75282 19.0786C9.75853 19.0755 9.76279 19.0703 9.76466 19.0641L10.8148 16.6918L10.8242 16.6683C10.8403 16.6301 10.8481 16.589 10.8473 16.5475C10.8464 16.5061 10.8368 16.4653 10.8191 16.4278C10.8014 16.3903 10.7761 16.357 10.7447 16.33C10.7133 16.3029 10.6765 16.2828 10.6368 16.2709C10.5971 16.259 10.5554 16.2556 10.5143 16.2608C10.4732 16.2661 10.4336 16.28 10.3983 16.3016C10.3629 16.3231 10.3324 16.3519 10.3089 16.386C10.2853 16.4201 10.2692 16.4588 10.2616 16.4995M9.5865 16.1713L8.64883 18.5999C8.6457 18.6124 8.64883 18.6234 8.6582 18.6327C8.67071 18.6327 8.68165 18.6296 8.69102 18.6234L10.1022 16.448L10.1163 16.4245C10.1382 16.3892 10.1524 16.3497 10.158 16.3086C10.1636 16.2675 10.1605 16.2256 10.1488 16.1858C10.1372 16.1459 10.1172 16.109 10.0903 16.0773C10.0634 16.0457 10.0302 16.0201 9.99271 16.0022C9.95525 15.9843 9.91443 15.9745 9.87292 15.9734C9.83142 15.9724 9.79015 15.9801 9.75182 15.996C9.71349 16.012 9.67895 16.0359 9.65047 16.0661C9.62198 16.0963 9.60018 16.1321 9.5865 16.1713ZM8.97232 15.74L7.66427 17.9904C7.66054 17.9954 7.65894 18.0017 7.65982 18.0078C7.6607 18.014 7.66399 18.0195 7.66896 18.0232C7.67394 18.027 7.68019 18.0286 7.68634 18.0277C7.6925 18.0268 7.69805 18.0235 7.70178 18.0186L9.43647 16.0963L9.45522 16.0729C9.48286 16.0416 9.50354 16.0048 9.5159 15.9649C9.52827 15.925 9.53203 15.8829 9.52694 15.8415C9.52186 15.8 9.50804 15.7601 9.4864 15.7244C9.46476 15.6887 9.43579 15.658 9.40141 15.6343C9.36702 15.6105 9.328 15.5944 9.28692 15.5869C9.24584 15.5794 9.20363 15.5807 9.16309 15.5907C9.12254 15.6007 9.08457 15.6191 9.05169 15.6449C9.0188 15.6706 8.99175 15.703 8.97232 15.74ZM8.43316 15.2196L6.79224 17.2403C6.78286 17.2497 6.78286 17.2606 6.79224 17.2731C6.80162 17.2856 6.81256 17.2856 6.82506 17.2731L8.84105 15.6416L8.8598 15.6228C8.89157 15.596 8.91731 15.5627 8.93534 15.5253C8.95337 15.4878 8.96329 15.447 8.96445 15.4054C8.96561 15.3638 8.95798 15.3225 8.94206 15.2841C8.92614 15.2457 8.90229 15.2111 8.87207 15.1825C8.84185 15.1539 8.80594 15.1321 8.7667 15.1184C8.72745 15.1046 8.68575 15.0994 8.64432 15.1029C8.60289 15.1064 8.56266 15.1186 8.52627 15.1387C8.48989 15.1588 8.45816 15.1864 8.43316 15.2196ZM7.97839 14.6195L6.0421 16.3636C6.03713 16.3673 6.03384 16.3729 6.03296 16.379C6.03208 16.3852 6.03368 16.3914 6.03741 16.3964C6.04115 16.4014 6.0467 16.4046 6.05285 16.4055C6.05901 16.4064 6.06526 16.4048 6.07023 16.4011L8.32064 15.0977L8.3394 15.0836C8.37417 15.0616 8.40396 15.0325 8.42683 14.9983C8.44971 14.9641 8.46518 14.9254 8.47224 14.8848C8.4793 14.8443 8.47781 14.8027 8.46785 14.7627C8.45789 14.7228 8.43968 14.6853 8.4144 14.6528C8.38912 14.6203 8.35732 14.5935 8.32105 14.574C8.28478 14.5545 8.24483 14.5428 8.20378 14.5397C8.16272 14.5365 8.12146 14.542 8.08265 14.5558C8.04383 14.5695 8.00832 14.5912 7.97839 14.6195ZM7.62677 13.9584L5.44199 15.3743C5.4364 15.3774 5.43227 15.3826 5.43051 15.3888C5.42875 15.3949 5.42951 15.4015 5.43262 15.4071C5.43573 15.4127 5.44093 15.4169 5.44708 15.4186C5.45324 15.4204 5.45984 15.4196 5.46544 15.4165L7.88463 14.4835L7.90807 14.4742C7.94631 14.4583 7.98078 14.4345 8.00925 14.4044C8.03771 14.3744 8.05953 14.3386 8.0733 14.2996C8.08706 14.2605 8.09245 14.219 8.08913 14.1777C8.08581 14.1364 8.07385 14.0963 8.05402 14.06C8.03419 14.0236 8.00694 13.9918 7.97403 13.9667C7.94112 13.9416 7.9033 13.9236 7.86301 13.914C7.82272 13.9045 7.78087 13.9035 7.74017 13.9111C7.69947 13.9188 7.66083 13.9349 7.62677 13.9584ZM7.38297 13.2458L5.00129 14.3054C4.99191 14.3054 4.98722 14.3148 4.98722 14.3335C4.99347 14.346 5.00285 14.3507 5.01535 14.3476L7.55644 13.8084L7.57988 13.799C7.62026 13.7895 7.65817 13.7715 7.69113 13.7463C7.7241 13.7211 7.75138 13.6892 7.7712 13.6527C7.79103 13.6163 7.80294 13.576 7.80618 13.5347C7.80941 13.4933 7.80389 13.4517 7.78997 13.4126C7.77606 13.3735 7.75406 13.3378 7.72541 13.3078C7.69676 13.2777 7.66211 13.2541 7.62371 13.2383C7.58531 13.2226 7.54402 13.2151 7.50255 13.2164C7.46107 13.2177 7.42032 13.2277 7.38297 13.2458ZM7.2517 12.5051L4.73405 13.1755C4.72784 13.1767 4.72237 13.1804 4.71885 13.1857C4.71533 13.1909 4.71406 13.1974 4.7153 13.2036C4.71654 13.2098 4.72021 13.2153 4.72548 13.2188C4.73076 13.2223 4.73721 13.2236 4.74343 13.2224L7.33609 13.0864H7.35953C7.3977 13.0793 7.43411 13.0648 7.46666 13.0436C7.49922 13.0225 7.52729 12.9951 7.54928 12.9631C7.57126 12.9311 7.58673 12.8951 7.5948 12.8572C7.60287 12.8192 7.60337 12.78 7.59629 12.7418C7.58921 12.7036 7.57468 12.6672 7.55353 12.6347C7.53238 12.6021 7.50503 12.5741 7.47303 12.5521C7.44103 12.5301 7.40502 12.5146 7.36704 12.5065C7.32906 12.4985 7.28987 12.498 7.2517 12.5051ZM7.24232 11.7549L4.64966 12.0268C4.64345 12.0268 4.63748 12.0293 4.63309 12.0337C4.62869 12.0381 4.62622 12.0441 4.62622 12.0503C4.62622 12.0565 4.62869 12.0625 4.63309 12.0669C4.63748 12.0713 4.64345 12.0737 4.64966 12.0737L7.22826 12.341H7.25639C7.29805 12.3451 7.34011 12.3404 7.3798 12.3271C7.41949 12.3138 7.4559 12.2921 7.4866 12.2637C7.51731 12.2352 7.54161 12.2006 7.5579 12.162C7.57419 12.1234 7.5821 12.0818 7.58109 12.04C7.58009 11.9981 7.5702 11.957 7.55207 11.9192C7.53395 11.8815 7.50802 11.848 7.47598 11.8211C7.44395 11.7941 7.40655 11.7743 7.36626 11.7629C7.32598 11.7515 7.28373 11.7488 7.24232 11.7549ZM7.34547 11.0142L4.74343 10.8782C4.73721 10.8776 4.731 10.8794 4.72617 10.8834C4.72133 10.8874 4.71827 10.8931 4.71764 10.8993C4.71702 10.9055 4.7189 10.9117 4.72285 10.9166C4.72681 10.9214 4.73252 10.9245 4.73874 10.9251L7.24232 11.5908L7.27045 11.5955C7.311 11.606 7.35331 11.6077 7.39458 11.6006C7.43585 11.5934 7.47513 11.5776 7.50981 11.5541C7.5445 11.5307 7.57379 11.5001 7.59576 11.4644C7.61772 11.4288 7.63185 11.3889 7.63721 11.3473C7.64257 11.3058 7.63904 11.2636 7.62684 11.2235C7.61465 11.1835 7.59407 11.1464 7.56648 11.1149C7.53889 11.0834 7.50492 11.0581 7.46681 11.0408C7.42871 11.0234 7.38734 11.0143 7.34547 11.0142ZM7.56582 10.2968L5.01535 9.75299C5.00285 9.75299 4.99347 9.75768 4.98722 9.76705C4.98722 9.77956 4.99191 9.78893 5.00129 9.79518L7.3736 10.8501L7.39704 10.8594C7.43524 10.8755 7.47639 10.8834 7.51782 10.8825C7.55925 10.8816 7.60004 10.872 7.63752 10.8543C7.675 10.8367 7.70835 10.8113 7.73539 10.7799C7.76243 10.7485 7.78255 10.7117 7.79446 10.6721C7.80637 10.6324 7.80979 10.5906 7.8045 10.5495C7.79922 10.5084 7.78534 10.4689 7.76378 10.4335C7.74221 10.3981 7.71344 10.3676 7.67934 10.3441C7.64523 10.3206 7.60655 10.3045 7.56582 10.2968ZM7.894 9.62172L5.46544 8.68404C5.45984 8.68094 5.45324 8.68018 5.44708 8.68194C5.44093 8.68369 5.43573 8.68783 5.43262 8.69342C5.42951 8.69902 5.42875 8.70562 5.43051 8.71177C5.43227 8.71793 5.4364 8.72313 5.44199 8.72624L7.61739 10.1374L7.64083 10.1515C7.67611 10.1734 7.7156 10.1876 7.75674 10.1932C7.79788 10.1988 7.83974 10.1957 7.87959 10.1841C7.91945 10.1724 7.95639 10.1525 7.98802 10.1256C8.01964 10.0987 8.04525 10.0654 8.06315 10.0279C8.08105 9.99047 8.09085 9.94965 8.09192 9.90814C8.09298 9.86663 8.08528 9.82537 8.06932 9.78704C8.05336 9.74871 8.0295 9.71417 7.99929 9.68568C7.96908 9.6572 7.9332 9.6354 7.894 9.62172ZM8.32533 9.00754L6.07492 7.69949L6.0421 7.70887C6.03585 7.72137 6.03585 7.73075 6.0421 7.737L7.9737 9.47169L7.99246 9.49044C8.02377 9.51808 8.06059 9.53876 8.10048 9.55112C8.14037 9.56348 8.18243 9.56725 8.22388 9.56216C8.26533 9.55707 8.30523 9.54326 8.34095 9.52162C8.37667 9.49998 8.40739 9.47101 8.4311 9.43663C8.4548 9.40224 8.47094 9.36322 8.47845 9.32214C8.48597 9.28106 8.48469 9.23885 8.47469 9.1983C8.4647 9.15775 8.44622 9.11979 8.42047 9.0869C8.39473 9.05402 8.3623 9.02697 8.32533 9.00754ZM8.84574 8.46838L6.82506 6.82746C6.82054 6.82407 6.81496 6.82243 6.80933 6.82283C6.8037 6.82323 6.79841 6.82564 6.79442 6.82963C6.79043 6.83363 6.78801 6.83892 6.78761 6.84455C6.78721 6.85018 6.78885 6.85576 6.79224 6.86028L8.42379 8.87627L8.44254 8.89502C8.46937 8.92678 8.50261 8.95252 8.54007 8.97056C8.57754 8.98859 8.61838 8.99851 8.65995 8.99967C8.70151 9.00082 8.74285 8.99319 8.78126 8.97727C8.81967 8.96136 8.85428 8.93751 8.88284 8.90729C8.9114 8.87707 8.93326 8.84116 8.94698 8.80191C8.96071 8.76267 8.96599 8.72096 8.96249 8.67953C8.95899 8.6381 8.94678 8.59788 8.92666 8.56149C8.90654 8.52511 8.87896 8.49338 8.84574 8.46838ZM9.44585 8.01361L7.70178 6.07732H7.67365C7.66115 6.08357 7.65802 6.09295 7.66427 6.10545L8.96764 8.35586L8.9817 8.37461C9.00375 8.40939 9.03282 8.43917 9.06706 8.46205C9.10129 8.48493 9.13994 8.5004 9.1805 8.50746C9.22107 8.51452 9.26266 8.51302 9.30262 8.50306C9.34257 8.4931 9.38 8.4749 9.4125 8.44962C9.445 8.42434 9.47186 8.39254 9.49135 8.35627C9.51084 8.32 9.52253 8.28005 9.52567 8.23899C9.52881 8.19794 9.52333 8.15668 9.50958 8.11786C9.49584 8.07905 9.47413 8.04354 9.44585 8.01361ZM10.1069 7.66198L8.69102 5.47721C8.68791 5.47162 8.68271 5.46748 8.67656 5.46573C8.6704 5.46397 8.6638 5.46473 8.6582 5.46783C8.65261 5.47094 8.64848 5.47615 8.64672 5.4823C8.64496 5.48846 8.64572 5.49506 8.64883 5.50065L9.58181 7.91984L9.59119 7.94328C9.60708 7.98153 9.63083 8.016 9.66091 8.04446C9.69099 8.07293 9.72672 8.09475 9.76577 8.10851C9.80483 8.12228 9.84635 8.12767 9.88762 8.12435C9.9289 8.12103 9.96902 8.10907 10.0054 8.08924C10.0417 8.06941 10.0735 8.04215 10.0986 8.00925C10.1238 7.97634 10.1417 7.93851 10.1513 7.89822C10.1609 7.85793 10.1619 7.81608 10.1542 7.77538C10.1466 7.73468 10.1305 7.69605 10.1069 7.66198ZM10.8195 7.41819L9.75997 5.03651C9.75701 5.03257 9.7529 5.02966 9.7482 5.0282C9.74351 5.02673 9.73847 5.02678 9.7338 5.02833C9.72913 5.02989 9.72507 5.03287 9.7222 5.03686C9.71932 5.04086 9.71777 5.04565 9.71777 5.05057L10.2569 7.59166L10.2663 7.6151C10.2759 7.65548 10.2939 7.69339 10.3191 7.72635C10.3443 7.75932 10.3762 7.7866 10.4126 7.80642C10.4491 7.82624 10.4893 7.83816 10.5307 7.84139C10.5721 7.84463 10.6136 7.83911 10.6527 7.82519C10.6918 7.81128 10.7276 7.78928 10.7576 7.76063C10.7876 7.73198 10.8113 7.69733 10.827 7.65893C10.8427 7.62053 10.8502 7.57924 10.8489 7.53776C10.8476 7.49628 10.8376 7.45554 10.8195 7.41819ZM11.5603 7.28692L10.8899 4.76927C10.8899 4.75677 10.8805 4.75208 10.8617 4.75521C10.8524 4.75833 10.8461 4.76614 10.843 4.77865L10.9789 7.37131V7.39475C10.9932 7.47184 11.0376 7.5401 11.1022 7.5845C11.1342 7.60648 11.1702 7.62195 11.2082 7.63002C11.2462 7.63808 11.2854 7.63859 11.3235 7.63151C11.3617 7.62443 11.3981 7.6099 11.4307 7.58875C11.4632 7.5676 11.4913 7.54025 11.5133 7.50825C11.5353 7.47625 11.5507 7.44023 11.5588 7.40226C11.5669 7.36428 11.5674 7.32509 11.5603 7.28692ZM12.3104 7.27754L12.0385 4.68488C12.0385 4.67866 12.036 4.6727 12.0316 4.6683C12.0272 4.66391 12.0213 4.66144 12.0151 4.66144C12.0088 4.66144 12.0029 4.66391 11.9985 4.6683C11.9941 4.6727 11.9916 4.67866 11.9916 4.68488L11.7244 7.26347V7.2916C11.7202 7.33326 11.7249 7.37533 11.7383 7.41502C11.7516 7.45471 11.7732 7.49112 11.8017 7.52182C11.8301 7.55253 11.8648 7.57683 11.9034 7.59312C11.9419 7.60941 11.9835 7.61731 12.0254 7.61631C12.0672 7.6153 12.1084 7.60541 12.1461 7.58729C12.1839 7.56917 12.2173 7.54323 12.2443 7.5112C12.2712 7.47916 12.2911 7.44176 12.3025 7.40148C12.3139 7.3612 12.3166 7.31895 12.3104 7.27754ZM12.0151 7.58697C12.6012 7.58697 13.1816 7.70242 13.7231 7.92672C14.2646 8.15102 14.7566 8.47979 15.1711 8.89424C15.5856 9.3087 15.9143 9.80073 16.1386 10.3422C16.3629 10.8838 16.4784 11.4642 16.4784 12.0503C16.4784 12.6364 16.3629 13.2168 16.1386 13.7583C15.9143 14.2998 15.5856 14.7919 15.1711 15.2063C14.7566 15.6208 14.2646 15.9495 13.7231 16.1738C13.1816 16.3981 12.6012 16.5136 12.0151 16.5136C10.8313 16.5136 9.69606 16.0434 8.85903 15.2063C8.02199 14.3693 7.55175 13.234 7.55175 12.0503C7.55175 10.8665 8.02199 9.73128 8.85903 8.89424C9.69606 8.05721 10.8313 7.58697 12.0151 7.58697ZM12.0151 8.12144C12.531 8.12144 13.0419 8.22306 13.5186 8.42051C13.9952 8.61795 14.4283 8.90735 14.7932 9.27217C15.158 9.637 15.4474 10.0701 15.6448 10.5468C15.8423 11.0234 15.9439 11.5343 15.9439 12.0503C15.9439 12.5662 15.8423 13.0771 15.6448 13.5538C15.4474 14.0305 15.158 14.4636 14.7932 14.8284C14.4283 15.1932 13.9952 15.4826 13.5186 15.6801C13.0419 15.8775 12.531 15.9791 12.0151 15.9791C10.9731 15.9791 9.97376 15.5652 9.23696 14.8284C8.50016 14.0916 8.08623 13.0923 8.08623 12.0503C8.08623 11.0083 8.50016 10.009 9.23696 9.27217C9.97376 8.53537 10.9731 8.12144 12.0151 8.12144ZM8.73322 13.2317C9.13642 12.3878 9.69433 11.6471 10.3319 11.0235C10.4351 11.086 10.5351 11.1548 10.632 11.2298C9.9132 11.9174 9.33376 12.7373 8.92544 13.6443C8.85355 13.513 8.79104 13.374 8.73791 13.2271M12.2917 11.2017L12.5636 11.4361L12.8449 11.2158L12.5777 10.9813C12.4839 11.0501 12.3901 11.1236 12.2964 11.2017M11.7197 10.7657L12.0151 10.9813C12.1088 10.9063 12.2073 10.8344 12.3104 10.7657L12.0151 10.55L11.7197 10.7657ZM11.7478 11.6799C11.8416 11.758 11.9307 11.8424 12.0151 11.9331L12.2823 11.6799L12.0151 11.4361C11.9213 11.5111 11.8322 11.5924 11.7478 11.6799ZM11.1852 11.2111L11.4665 11.4408C11.5572 11.3564 11.6478 11.2783 11.7385 11.2064C11.6447 11.1251 11.5494 11.0501 11.4525 10.9813L11.1852 11.2111ZM12.9434 10.3672C12.8496 10.289 12.7511 10.2171 12.648 10.1515C12.5355 10.214 12.423 10.2812 12.3104 10.3531L12.6152 10.5641C12.7214 10.4953 12.8308 10.4297 12.9434 10.3672ZM13.4638 10.7985L13.1965 10.5641L12.8824 10.7657L13.1543 10.9954L13.4638 10.7985ZM11.6681 9.96397L12.0198 9.75299L12.3714 9.96397L12.0198 10.1703L11.6681 9.96397ZM11.0961 10.3672C11.1899 10.289 11.2884 10.2171 11.3915 10.1515C11.504 10.214 11.6166 10.2812 11.7291 10.3531L11.4243 10.5641L11.0961 10.3672ZM10.5757 10.7985L10.843 10.5641L11.1571 10.7657L10.8852 10.9954L10.5757 10.7985ZM8.93482 10.2828C9.30051 10.4297 9.65995 10.6078 10.0131 10.8172C9.47398 11.333 8.9817 11.9565 8.58319 12.6879C8.41219 11.8693 8.53852 11.0166 8.93951 10.2828M9.23487 9.828C9.6662 9.96865 10.0928 10.1531 10.5148 10.3812L10.2476 10.6063C9.86744 10.3966 9.47257 10.2148 9.06609 10.0624L9.23487 9.828ZM9.60994 9.41074C10.0975 9.53889 10.5836 9.72642 11.068 9.97334L10.768 10.189C10.329 9.9652 9.87277 9.77706 9.40365 9.6264L9.60994 9.41074ZM10.1585 8.98879L10.1866 9.00285L10.2288 9.01223C10.7437 9.14787 11.2421 9.33968 11.715 9.58421L11.3399 9.79987C10.8545 9.56274 10.3494 9.36823 9.83029 9.21852C9.93344 9.13725 10.0428 9.06068 10.1585 8.98879ZM13.581 8.82001L13.5482 8.83407C13.0208 8.98552 12.5077 9.18319 12.0151 9.4248C11.5326 9.18818 11.0307 8.99367 10.5148 8.84345L10.4867 8.83407C10.4742 8.83407 10.4617 8.82938 10.4492 8.82001C10.9357 8.57802 11.4717 8.45208 12.0151 8.45208C12.5585 8.45208 13.0944 8.57802 13.581 8.82001ZM14.2045 9.22321L14.1717 9.23258C13.6716 9.37323 13.1793 9.56233 12.6949 9.79987L12.3198 9.58421C12.8156 9.3276 13.3395 9.12936 13.881 8.99348C13.9947 9.06375 14.1043 9.14045 14.2092 9.22321M14.6312 9.6264C14.1686 9.77018 13.7154 9.95771 13.2715 10.189L12.9668 9.97334C13.4544 9.72642 13.9404 9.53889 14.4249 9.41074L14.6312 9.6264ZM14.9687 10.0624C14.5655 10.2093 14.1717 10.3906 13.7873 10.6063L13.52 10.3812C13.9451 10.1468 14.3717 9.9624 14.7999 9.828L14.9687 10.0624ZM15.4516 12.6879C15.0531 11.9565 14.5608 11.3377 14.017 10.8126C14.3733 10.6063 14.7327 10.4297 15.0953 10.2828C15.4963 11.0166 15.6226 11.8693 15.4516 12.6879ZM15.1094 13.6443C14.7011 12.7373 14.1216 11.9174 13.4028 11.2298C13.4997 11.1579 13.5997 11.0892 13.7029 11.0235C14.3594 11.6588 14.899 12.4047 15.2969 13.2271C15.2438 13.3708 15.1813 13.5115 15.1094 13.649M14.5608 14.3991C14.1342 13.2927 13.5294 12.4019 12.8261 11.6846L13.1075 11.4502C13.8388 12.1722 14.453 13.0442 14.8562 14.0428C14.7624 14.1679 14.664 14.2851 14.5608 14.3945M13.8904 14.9383L13.8435 14.8117C13.4939 13.8478 12.9605 12.961 12.2729 12.2003L12.5402 11.9378C13.2991 12.7199 13.8797 13.6572 14.242 14.6851C14.1295 14.7789 14.0123 14.8633 13.8904 14.9383ZM10.496 15.1399L10.5429 14.9993C10.8608 14.0703 11.3613 13.2142 12.0151 12.4816C12.6684 13.2153 13.1703 14.0709 13.4919 14.9993L13.5388 15.1399C13.0634 15.3685 12.5426 15.4872 12.0151 15.4872C11.4875 15.4872 10.9668 15.3685 10.4914 15.1399M9.7881 14.6851C10.1504 13.6572 10.731 12.7199 11.49 11.9378C11.5837 12.0222 11.6728 12.1097 11.7572 12.2003C11.068 12.9606 10.533 13.8475 10.1819 14.8117L10.135 14.9383C10.0163 14.8633 9.90062 14.7789 9.7881 14.6851ZM9.17861 14.0428C9.57732 13.0679 10.1744 12.1866 10.9321 11.4549C11.0258 11.5267 11.1196 11.6049 11.2134 11.6893C10.451 12.4588 9.8599 13.3806 9.47867 14.3945C9.37104 14.284 9.27081 14.1665 9.17861 14.0428Z" fill="#FFFF00"/>
</g>
<defs>
<clipPath id="clip0_720_53364">
<rect width="24.0044" height="24.0044" fill="white" transform="translate(0.0131836 0.0480957)"/>
</clipPath>
</defs>
</svg>
