<svg width="25" height="25" viewBox="0 0 25 25" fill="none" xmlns="http://www.w3.org/2000/svg">
<g clip-path="url(#clip0_720_53360)">
<mask id="mask0_720_53360" style="mask-type:luminance" maskUnits="userSpaceOnUse" x="0" y="0" width="25" height="25">
<path d="M0.0266113 0.0482788H24.0273V24.049H0.0266113V0.0482788Z" fill="white"/>
</mask>
<g mask="url(#mask0_720_53360)">
<path fill-rule="evenodd" clip-rule="evenodd" d="M-5.97437 18.0487H30.0267V24.0488H-5.97437V18.0487ZM-5.97437 0.0481567H30.0267V6.04833H-5.97437V0.0481567Z" fill="#EE161F"/>
<path fill-rule="evenodd" clip-rule="evenodd" d="M-5.97437 6.04834H30.0267V18.0487H-5.97437V6.04834Z" fill="white"/>
<path d="M11.8472 6.14026C11.4794 6.87093 11.2326 6.87093 10.623 7.35965C10.381 7.60159 10.0133 7.72256 10.502 7.96934C10.0181 8.21129 9.77131 8.33226 9.52453 8.82098L9.65034 8.94195C9.65034 8.94195 10.11 8.71453 10.1342 8.82098C10.2165 8.91776 9.52453 9.29035 9.43743 9.35325C9.35033 9.41616 8.91484 9.67262 8.91484 9.67262C8.30514 10.1613 7.93739 10.0404 7.57447 10.771L8.79387 10.6501C9.03581 11.5017 8.18417 11.6227 7.57447 11.9904L6.59703 12.6001C6.83897 13.4518 7.57448 12.963 8.18417 12.7211L8.30514 12.8421V13.084L7.09059 13.6937C7.09059 13.6937 5.64861 14.5163 5.62442 14.5453C5.61474 14.5937 5.62442 14.7873 5.62442 14.7873C6.11314 14.9131 6.84381 15.0341 7.33253 14.7873C7.94223 14.5453 8.06804 14.3034 8.7987 14.3034C8.09405 14.8556 7.24617 15.1947 6.35508 15.2808V15.7647C7.09059 15.7647 7.57931 15.7647 8.18901 15.6438L9.77615 15.1599C10.1391 15.1599 10.5068 15.5228 10.3858 15.8857C10.0181 17.2261 8.55676 16.9841 8.0632 18.0825L10.0181 17.3519C10.5068 17.1099 10.9955 16.8631 11.6052 16.9841C12.3359 17.2261 12.3359 17.7148 13.3133 17.9567L13.0714 17.3519C13.3133 17.4728 13.5553 17.4728 13.8021 17.5938C14.4118 17.8358 14.5327 18.0777 15.2682 17.9567C14.6585 17.2309 14.5327 17.3519 14.0489 16.8631C13.5601 16.1325 13.3133 15.0341 14.0489 14.9131L14.9005 15.155C15.757 15.2808 15.757 15.0341 16.9764 15.5228C17.707 15.7647 17.9538 16.1325 18.8054 15.8857C18.4425 15.0341 17.0973 14.4244 16.2409 14.1824C17.2183 13.5727 16.9764 14.4244 18.3216 14.0615V13.8195C17.3441 13.084 16.9764 12.4743 15.6312 12.4743L17.7119 12.2324V11.9904C17.7119 11.9904 15.6554 11.4533 15.607 11.434C15.6184 11.3842 15.6427 11.3382 15.6776 11.3009C15.7124 11.2635 15.7565 11.2359 15.8054 11.2211C16.1925 11.4727 17.3683 11.4436 17.436 11.4388C17.4022 11.1388 16.8457 10.892 16.357 10.6501C16.357 10.6501 14.2666 9.35809 14.2569 9.2468C14.2956 8.91776 15.1134 9.29519 15.9892 9.55165C15.7473 9.06776 15.2586 8.82098 14.7698 8.70001L15.5005 8.57904C15.0166 7.48062 13.7924 7.60159 13.0617 7.11287C12.573 6.74995 12.573 6.50317 11.8423 6.14026H11.8472Z" fill="#00A850"/>
<path fill-rule="evenodd" clip-rule="evenodd" d="M10.5262 14.255C10.6181 13.9647 10.7342 13.7082 10.1923 13.4614C9.65033 13.2147 10.4633 14.4534 10.531 14.255H10.5262ZM11.1697 13.6744C11.0584 13.6889 11.0052 14.0905 11.2181 14.197C11.4649 14.2357 11.2665 13.6792 11.1697 13.6744ZM11.8036 13.6308C11.6923 13.6647 11.6875 14.2308 12.0843 14.1292C12.4859 14.0324 12.0843 13.5873 11.8036 13.6356V13.6308ZM12.544 12.1888C12.6311 12.0533 12.5391 11.4872 12.1956 11.7243C11.852 11.9614 12.4375 12.2275 12.544 12.1888ZM11.7939 11.7195C11.9004 11.6807 11.9101 11.3324 11.6101 11.4291C11.3101 11.5162 11.7165 11.792 11.7939 11.7195ZM11.1165 11.8598C11.1165 11.8598 10.9084 11.5695 10.7439 11.6275C10.5407 11.8211 11.131 11.8646 11.1165 11.8598ZM8.79385 12.784C8.88095 12.7937 9.54387 12.6776 9.7713 12.4211C10.0036 12.1646 8.59546 12.5275 8.59546 12.5324C8.59546 12.5372 8.72611 12.7598 8.78901 12.784H8.79385ZM15.4086 11.1485C15.4424 11.0856 15.0553 10.8098 14.8279 10.9211C14.7698 11.1243 15.4086 11.1872 15.4086 11.1485ZM14.1069 10.4904C14.1795 10.3888 13.9375 9.95812 13.4633 10.2001C12.9891 10.442 13.9617 10.6598 14.1069 10.4904ZM12.602 10.2388C12.602 10.2388 12.7182 9.85166 13.0085 9.92909C13.3279 10.1759 12.6165 10.2533 12.602 10.2388ZM12.3214 9.94844C12.273 9.84199 11.9778 9.90489 11.6343 10.1323C11.2907 10.3549 12.423 10.1952 12.3214 9.94844ZM13.1924 8.91293C13.1924 8.91293 13.5021 8.7726 13.594 8.91293C13.7198 9.11616 13.1924 8.91293 13.1972 8.91293H13.1924ZM12.9407 8.77744C12.8778 8.65647 12.5391 8.64195 12.5488 8.82583C12.4907 8.96132 12.9843 8.93712 12.9359 8.77744H12.9407ZM12.1327 8.77744C12.0988 8.70486 11.6197 8.77744 11.4746 9.06777C11.7068 9.17906 12.2391 8.96132 12.1327 8.77744ZM11.102 9.07261C11.102 9.07261 10.4729 9.45972 10.4294 9.74521C10.4487 9.98715 11.2181 9.30004 11.2181 9.30004C11.2181 9.30004 11.2859 9.02906 11.102 9.07261ZM10.4003 8.71937C10.4197 8.64195 10.7149 8.45808 10.7391 8.47743C10.7633 8.55485 10.4971 8.76776 10.4003 8.71937ZM10.6036 10.2001C10.6181 10.0888 9.84872 10.0984 10.1391 10.4468C10.381 10.742 10.6568 10.2533 10.6036 10.2049V10.2001ZM9.89711 10.7081C9.8584 10.6307 9.80033 10.4226 9.69388 10.4033C9.61162 10.4033 9.14709 10.5001 9.11322 10.5727C9.09386 10.6356 9.30677 11.0178 9.37451 11.0275C9.45677 11.0565 9.88259 10.7469 9.89711 10.7081ZM14.0392 13.2921C14.0634 13.2098 14.8473 12.9389 15.1182 13.1953C15.4376 13.6308 14.0198 13.4276 14.0392 13.2921ZM16.1973 13.805C16.3667 13.5147 15.665 13.1663 15.3747 13.5002C15.4715 13.8969 16.057 14.0421 16.1973 13.805Z" fill="white" stroke="white" stroke-width="0.150004" stroke-linecap="round" stroke-linejoin="round"/>
</g>
</g>
<defs>
<clipPath id="clip0_720_53360">
<rect width="24.0044" height="24.0044" fill="white" transform="translate(0.026123 0.0480957)"/>
</clipPath>
</defs>
</svg>
