<svg width="25" height="25" viewBox="0 0 25 25" fill="none" xmlns="http://www.w3.org/2000/svg">
<g clip-path="url(#clip0_720_53470)">
<path d="M0.0305176 0.0480957H24.0349V24.0525H0.0305176V0.0480957Z" fill="white"/>
<path d="M0.0305176 16.8511H24.0349V24.0524H0.0305176V16.8511Z" fill="#009543"/>
<path d="M0.0305176 0.0480957H24.0349V7.24941H0.0305176V0.0480957Z" fill="#00209F"/>
<path d="M12.1077 7.69476C11.967 7.69476 11.8357 7.84948 11.8357 7.84948L11.8498 9.46696L11.3341 10.0061H11.756L11.7467 10.9297L9.29935 14.2303L8.93835 14.1037L8.30542 15.454C8.30542 15.454 9.87133 16.4339 12.1405 16.4057C14.6347 16.3729 15.9849 15.4071 15.9849 15.4071L15.3333 14.0756L15.0145 14.2163L12.5296 10.9344V9.97799H12.9422L12.3796 9.44821L12.3843 7.83541C12.3843 7.83541 12.2436 7.69476 12.1077 7.69476Z" fill="black" stroke="black" stroke-width="0.079702"/>
<path d="M12.9608 11.572H11.2683C11.2683 11.572 10.6542 10.2781 10.7526 9.36851C10.8558 8.44959 11.3809 8.01358 12.0841 8.00889C12.9093 7.99482 13.3406 8.41209 13.4719 9.33569C13.6032 10.2499 12.9608 11.572 12.9608 11.572Z" stroke="black" stroke-width="0.39851"/>
<path d="M9.14921 14.657C9.12108 14.6945 8.91479 15.0977 8.91479 15.0977L9.26642 15.0227L9.14921 14.657ZM9.35081 15.1821L8.98043 15.304L9.42583 15.4775L9.35081 15.1821ZM9.51959 14.6664L9.70244 15.2102L10.1525 15.079L10.0353 14.8211L9.51959 14.6664ZM9.80089 15.4025L9.86653 15.6228L10.4666 15.7728L10.2322 15.2665L9.80558 15.4071L9.80089 15.4025ZM10.4666 14.943L10.6776 15.4493L11.1324 15.2759L10.9824 15.0508L10.4666 14.943ZM10.762 15.6322L10.837 15.8291L11.5403 15.9276L11.2402 15.4681L10.762 15.6322ZM11.4371 15.0883L11.695 15.5431L12.3514 15.304L12.2763 15.1258L11.4324 15.0883H11.4371ZM11.8122 15.7072L11.9528 15.9463L12.7639 15.9182L12.4592 15.4681L11.8122 15.7072ZM12.6702 15.1071L12.8952 15.4822L13.4109 15.2384L13.2703 15.0368L12.6702 15.1071ZM13.5188 15.3931L13.003 15.6509L13.1437 15.876L13.8329 15.7635L13.5188 15.3931ZM13.6875 14.9993L13.9548 15.3274L14.3861 14.9899L14.2408 14.8305L13.6875 14.9993ZM14.4799 15.1727L14.0626 15.4868L14.1751 15.6791L14.7471 15.5337L14.4799 15.1727ZM15.0518 14.5164L15.155 14.6664L14.869 15.0883L14.5736 14.7133L15.0518 14.5164ZM15.2441 14.8867L15.4222 15.2384L15.0706 15.3556L15.0425 15.1915L15.2441 14.8867Z" fill="white"/>
</g>
<defs>
<clipPath id="clip0_720_53470">
<rect width="24.0044" height="24.0044" fill="white" transform="translate(0.0305176 0.0480957)"/>
</clipPath>
</defs>
</svg>
