<svg width="25" height="25" viewBox="0 0 25 25" fill="none" xmlns="http://www.w3.org/2000/svg">
<g clip-path="url(#clip0_720_53491)">
<mask id="mask0_720_53491" style="mask-type:luminance" maskUnits="userSpaceOnUse" x="0" y="0" width="25" height="25">
<path d="M0.0407715 0.0476074H24.0451V24.052H0.0407715V0.0476074Z" fill="white"/>
</mask>
<g mask="url(#mask0_720_53491)">
<path d="M-11.9617 0.0475464H36.0471V24.0519H-11.9617V0.0475464Z" fill="#239E46"/>
<path d="M-11.9617 0.0475464H36.0471V18.0508H-11.9617V0.0475464Z" fill="#000001"/>
<path d="M-11.9617 0.0475464H36.0471V6.04864H-11.9617V0.0475464Z" fill="#E70013"/>
<path d="M14.1647 9.92776C13.7749 9.64959 13.316 9.48417 12.8384 9.44965C12.3607 9.41513 11.8828 9.51284 11.4571 9.73206C11.0313 9.95129 10.6742 10.2835 10.4248 10.6924C10.1755 11.1012 10.0436 11.5709 10.0436 12.0497C10.0436 12.5286 10.1755 12.9982 10.4248 13.4071C10.6742 13.8159 11.0313 14.1482 11.4571 14.3674C11.8828 14.5866 12.3607 14.6844 12.8384 14.6498C13.316 14.6153 13.7749 14.4499 14.1647 14.1717C13.745 14.5913 13.2104 14.877 12.6284 14.9927C12.0463 15.1084 11.4431 15.0489 10.8948 14.8218C10.3466 14.5947 9.87802 14.2101 9.54835 13.7167C9.21868 13.2233 9.04272 12.6432 9.04272 12.0497C9.04272 11.4563 9.21868 10.8762 9.54835 10.3828C9.87802 9.88939 10.3466 9.5048 10.8948 9.27767C11.4431 9.05055 12.0463 8.99108 12.6284 9.10679C13.2104 9.2225 13.745 9.5082 14.1647 9.92776ZM13.5022 12.0497L17.5397 10.7391L15.0433 14.1717V9.92776L17.5397 13.3604L13.5022 12.0497Z" fill="white"/>
</g>
</g>
<defs>
<clipPath id="clip0_720_53491">
<rect width="24.0044" height="24.0044" fill="white" transform="translate(0.0393066 0.0480957)"/>
</clipPath>
</defs>
</svg>
