<svg width="24" height="25" viewBox="0 0 24 25" fill="none" xmlns="http://www.w3.org/2000/svg">
<g clip-path="url(#clip0_720_53332)">
<path d="M0.000488281 0.0524902H24.0095V12.0547H0.000488281V0.0524902Z" fill="#002B7F"/>
<path d="M0.000244141 12.0547H24.0093V24.0569H0.000244141V12.0547Z" fill="#CE1126"/>
<path d="M6.12563 4.94515L6.04962 7.4456H3.51317C3.20111 6.83749 2.94507 6.3254 2.94507 5.62527C2.94507 5.04117 3.40515 4.57709 4.06527 4.57709C4.76539 4.57709 5.53753 4.81313 6.12563 4.94515Z" fill="#FFD83D"/>
<path d="M3.24951 5.06121V6.50147V5.06121ZM3.44955 4.91319V6.83353V4.91319ZM3.65758 4.81317V7.10158V4.81317ZM3.85762 4.76516V6.56148V4.76516ZM4.06166 4.75716V6.56948V4.75716ZM4.26569 4.68915V6.56948V4.68915ZM4.46973 4.68915V6.56948V4.68915ZM4.67377 4.70915V6.58949V4.70915ZM4.8778 4.72916V6.60549V4.72916ZM5.08184 4.84518V6.72551V4.84518ZM5.28187 4.86518V6.98156V4.86518ZM5.48991 4.86518V6.74551V4.86518ZM5.68995 4.86518V6.74551V4.86518Z" fill="#FFD83D"/>
<path d="M3.24951 5.06121V6.50147M3.44955 4.91319V6.83353M3.65758 4.81317V7.10158M3.85762 4.76516V6.56148M4.06166 4.75716V6.56948M4.26569 4.68915V6.56948M4.46973 4.68915V6.56948M4.67377 4.70915V6.58949M4.8778 4.72916V6.60549M5.08184 4.84518V6.72551M5.28187 4.86518V6.98156M5.48991 4.86518V6.74551M5.68995 4.86518V6.74551" stroke="black" stroke-width="0.0600107" stroke-linecap="round" stroke-linejoin="round"/>
<path d="M4.5258 4.77338C4.95788 4.84139 5.90205 5.28547 5.79403 5.88157C5.642 6.72972 5.14591 6.38966 4.48979 6.26964L3.99371 6.43367C3.81367 6.6137 3.55363 6.78173 3.3776 6.56169H3.08154V7.7139H6.33812V4.9334L4.5258 4.77338Z" fill="#000001" stroke="black" stroke-width="0.0600107" stroke-linecap="round" stroke-linejoin="round"/>
<path d="M5.98158 4.76914C6.0898 4.76914 6.17752 4.68141 6.17752 4.5732C6.17752 4.46498 6.0898 4.37726 5.98158 4.37726C5.87337 4.37726 5.78564 4.46498 5.78564 4.5732C5.78564 4.68141 5.87337 4.76914 5.98158 4.76914Z" fill="#FFD83D" stroke="black" stroke-width="0.0800142" stroke-linecap="round" stroke-linejoin="round"/>
<path d="M5.53749 4.66111C5.64571 4.66111 5.73343 4.57338 5.73343 4.46517C5.73343 4.35695 5.64571 4.26923 5.53749 4.26923C5.42928 4.26923 5.34155 4.35695 5.34155 4.46517C5.34155 4.57338 5.42928 4.66111 5.53749 4.66111Z" fill="#FFD83D" stroke="black" stroke-width="0.0800142" stroke-linecap="round" stroke-linejoin="round"/>
<path d="M5.08534 4.54911C5.19356 4.54911 5.28128 4.46138 5.28128 4.35317C5.28128 4.24495 5.19356 4.15723 5.08534 4.15723C4.97713 4.15723 4.8894 4.24495 4.8894 4.35317C4.8894 4.46138 4.97713 4.54911 5.08534 4.54911Z" fill="#FFD83D" stroke="black" stroke-width="0.0800142" stroke-linecap="round" stroke-linejoin="round"/>
<path d="M4.6332 4.47306C4.74141 4.47306 4.82914 4.38533 4.82914 4.27712C4.82914 4.1689 4.74141 4.08118 4.6332 4.08118C4.52498 4.08118 4.43726 4.1689 4.43726 4.27712C4.43726 4.38533 4.52498 4.47306 4.6332 4.47306Z" fill="#FFD83D" stroke="black" stroke-width="0.0800142" stroke-linecap="round" stroke-linejoin="round"/>
<path d="M4.18105 4.42905C4.28926 4.42905 4.37699 4.34132 4.37699 4.23311C4.37699 4.1249 4.28926 4.03717 4.18105 4.03717C4.07283 4.03717 3.98511 4.1249 3.98511 4.23311C3.98511 4.34132 4.07283 4.42905 4.18105 4.42905Z" fill="#FFD83D" stroke="black" stroke-width="0.0800142" stroke-linecap="round" stroke-linejoin="round"/>
<path d="M3.74111 4.45304C3.84932 4.45304 3.93705 4.36531 3.93705 4.2571C3.93705 4.14888 3.84932 4.06116 3.74111 4.06116C3.63289 4.06116 3.54517 4.14888 3.54517 4.2571C3.54517 4.36531 3.63289 4.45304 3.74111 4.45304Z" fill="#FFD83D" stroke="black" stroke-width="0.0800142" stroke-linecap="round" stroke-linejoin="round"/>
<path d="M3.31679 4.59708C3.425 4.59708 3.51273 4.50935 3.51273 4.40114C3.51273 4.29293 3.425 4.2052 3.31679 4.2052C3.20857 4.2052 3.12085 4.29293 3.12085 4.40114C3.12085 4.50935 3.20857 4.59708 3.31679 4.59708Z" fill="#FFD83D" stroke="black" stroke-width="0.0800142" stroke-linecap="round" stroke-linejoin="round"/>
<path d="M2.96108 4.861C3.06929 4.861 3.15702 4.77327 3.15702 4.66506C3.15702 4.55684 3.06929 4.46912 2.96108 4.46912C2.85286 4.46912 2.76514 4.55684 2.76514 4.66506C2.76514 4.77327 2.85286 4.861 2.96108 4.861Z" fill="#FFD83D" stroke="black" stroke-width="0.0800142" stroke-linecap="round" stroke-linejoin="round"/>
<path d="M2.70888 5.22519C2.81709 5.22519 2.90482 5.13747 2.90482 5.02925C2.90482 4.92104 2.81709 4.83331 2.70888 4.83331C2.60066 4.83331 2.51294 4.92104 2.51294 5.02925C2.51294 5.13747 2.60066 5.22519 2.70888 5.22519Z" fill="#FFD83D" stroke="black" stroke-width="0.0800142" stroke-linecap="round" stroke-linejoin="round"/>
<path d="M2.58486 5.65726C2.69307 5.65726 2.7808 5.56953 2.7808 5.46132C2.7808 5.35311 2.69307 5.26538 2.58486 5.26538C2.47664 5.26538 2.38892 5.35311 2.38892 5.46132C2.38892 5.56953 2.47664 5.65726 2.58486 5.65726Z" fill="#FFD83D" stroke="black" stroke-width="0.0800142" stroke-linecap="round" stroke-linejoin="round"/>
<path d="M2.58876 6.10135C2.69698 6.10135 2.7847 6.01363 2.7847 5.90541C2.7847 5.7972 2.69698 5.70947 2.58876 5.70947C2.48055 5.70947 2.39282 5.7972 2.39282 5.90541C2.39282 6.01363 2.48055 6.10135 2.58876 6.10135Z" fill="#FFD83D" stroke="black" stroke-width="0.0800142" stroke-linecap="round" stroke-linejoin="round"/>
<path d="M2.6769 6.53745C2.78511 6.53745 2.87284 6.44972 2.87284 6.34151C2.87284 6.23329 2.78511 6.14557 2.6769 6.14557C2.56868 6.14557 2.48096 6.23329 2.48096 6.34151C2.48096 6.44972 2.56868 6.53745 2.6769 6.53745Z" fill="#FFD83D" stroke="black" stroke-width="0.0800142" stroke-linecap="round" stroke-linejoin="round"/>
<path d="M6.06957 4.83321L6.04956 5.09326C5.55748 5.01325 4.86135 4.7412 4.20924 4.7412C3.60913 4.7412 3.14505 4.98124 3.14505 5.58935C3.14505 6.18545 3.39709 6.72955 3.73315 7.28165L3.38509 7.44168C3.07303 6.84157 2.81299 6.32148 2.81299 5.62536C2.81299 5.04125 3.27307 4.46515 4.06521 4.46515C4.76534 4.46515 5.48146 4.70519 6.06957 4.83321Z" fill="#FFD83D" stroke="black" stroke-width="0.0800142" stroke-linecap="round" stroke-linejoin="round"/>
<path d="M6.57407 4.94534L6.65009 7.44578H9.18654C9.49859 6.83767 9.75464 6.32558 9.75464 5.62546C9.75464 5.04135 9.29456 4.57727 8.63444 4.57727C7.93431 4.57727 7.16218 4.81331 6.57407 4.94534Z" fill="#FFD83D"/>
<path d="M9.4502 5.06134V6.50159V5.06134ZM9.25016 4.91331V6.83365V4.91331ZM9.04212 4.81329V7.1017V4.81329ZM8.84209 4.76528V6.5616V4.76528ZM8.63805 4.75728V6.5696V4.75728ZM8.43401 4.68927V6.5696V4.68927ZM8.22998 4.68927V6.5696V4.68927ZM8.02594 4.70927V6.58961V4.70927ZM7.82191 4.72928V6.60561V4.72928ZM7.61787 4.8453V6.72563V4.8453ZM7.41783 4.8653V6.98168V4.8653ZM7.2098 4.8653V6.74564V4.8653ZM7.00976 4.8653V6.74564V4.8653Z" fill="#FFD83D"/>
<path d="M9.4502 5.06134V6.50159M9.25016 4.91331V6.83365M9.04212 4.81329V7.1017M8.84209 4.76528V6.5616M8.63805 4.75728V6.5696M8.43401 4.68927V6.5696M8.22998 4.68927V6.5696M8.02594 4.70927V6.58961M7.82191 4.72928V6.60561M7.61787 4.8453V6.72563M7.41783 4.8653V6.98168M7.2098 4.8653V6.74564M7.00976 4.8653V6.74564" stroke="black" stroke-width="0.0600107" stroke-linecap="round" stroke-linejoin="round"/>
<path d="M8.17391 4.77332C7.74183 4.84133 6.79766 5.28541 6.90568 5.88151C7.05771 6.72966 7.5538 6.3896 8.20991 6.26958L8.706 6.43361C8.88603 6.61364 9.14608 6.78167 9.32211 6.56163H9.61816V7.71384H6.36158V4.93334L8.17391 4.77332Z" fill="#000001" stroke="black" stroke-width="0.0600107" stroke-linecap="round" stroke-linejoin="round"/>
<path d="M6.71837 4.76914C6.61015 4.76914 6.52243 4.68141 6.52243 4.5732C6.52243 4.46498 6.61015 4.37726 6.71837 4.37726C6.82658 4.37726 6.91431 4.46498 6.91431 4.5732C6.91431 4.68141 6.82658 4.76914 6.71837 4.76914Z" fill="#FFD83D" stroke="black" stroke-width="0.0800142" stroke-linecap="round" stroke-linejoin="round"/>
<path d="M7.16246 4.66111C7.05424 4.66111 6.96652 4.57338 6.96652 4.46517C6.96652 4.35695 7.05424 4.26923 7.16246 4.26923C7.27067 4.26923 7.3584 4.35695 7.3584 4.46517C7.3584 4.57338 7.27067 4.66111 7.16246 4.66111Z" fill="#FFD83D" stroke="black" stroke-width="0.0800142" stroke-linecap="round" stroke-linejoin="round"/>
<path d="M7.61436 4.54911C7.50615 4.54911 7.41842 4.46138 7.41842 4.35317C7.41842 4.24495 7.50615 4.15723 7.61436 4.15723C7.72258 4.15723 7.8103 4.24495 7.8103 4.35317C7.8103 4.46138 7.72258 4.54911 7.61436 4.54911Z" fill="#FFD83D" stroke="black" stroke-width="0.0800142" stroke-linecap="round" stroke-linejoin="round"/>
<path d="M8.06651 4.47306C7.9583 4.47306 7.87057 4.38533 7.87057 4.27712C7.87057 4.1689 7.9583 4.08118 8.06651 4.08118C8.17473 4.08118 8.26245 4.1689 8.26245 4.27712C8.26245 4.38533 8.17473 4.47306 8.06651 4.47306Z" fill="#FFD83D" stroke="black" stroke-width="0.0800142" stroke-linecap="round" stroke-linejoin="round"/>
<path d="M8.51866 4.42905C8.41044 4.42905 8.32272 4.34132 8.32272 4.23311C8.32272 4.1249 8.41044 4.03717 8.51866 4.03717C8.62687 4.03717 8.7146 4.1249 8.7146 4.23311C8.7146 4.34132 8.62687 4.42905 8.51866 4.42905Z" fill="#FFD83D" stroke="black" stroke-width="0.0800142" stroke-linecap="round" stroke-linejoin="round"/>
<path d="M8.9586 4.45304C8.85039 4.45304 8.76266 4.36531 8.76266 4.2571C8.76266 4.14888 8.85039 4.06116 8.9586 4.06116C9.06682 4.06116 9.15454 4.14888 9.15454 4.2571C9.15454 4.36531 9.06682 4.45304 8.9586 4.45304Z" fill="#FFD83D" stroke="black" stroke-width="0.0800142" stroke-linecap="round" stroke-linejoin="round"/>
<path d="M9.38267 4.59708C9.27446 4.59708 9.18673 4.50935 9.18673 4.40114C9.18673 4.29293 9.27446 4.2052 9.38267 4.2052C9.49089 4.2052 9.57861 4.29293 9.57861 4.40114C9.57861 4.50935 9.49089 4.59708 9.38267 4.59708Z" fill="#FFD83D" stroke="black" stroke-width="0.0800142" stroke-linecap="round" stroke-linejoin="round"/>
<path d="M9.73887 4.86112C9.63066 4.86112 9.54293 4.77339 9.54293 4.66518C9.54293 4.55696 9.63066 4.46924 9.73887 4.46924C9.84709 4.46924 9.93481 4.55696 9.93481 4.66518C9.93481 4.77339 9.84709 4.86112 9.73887 4.86112Z" fill="#FFD83D" stroke="black" stroke-width="0.0800142" stroke-linecap="round" stroke-linejoin="round"/>
<path d="M9.99083 5.22519C9.88261 5.22519 9.79489 5.13747 9.79489 5.02925C9.79489 4.92104 9.88261 4.83331 9.99083 4.83331C10.099 4.83331 10.1868 4.92104 10.1868 5.02925C10.1868 5.13747 10.099 5.22519 9.99083 5.22519Z" fill="#FFD83D" stroke="black" stroke-width="0.0800142" stroke-linecap="round" stroke-linejoin="round"/>
<path d="M10.1149 5.65726C10.0066 5.65726 9.91891 5.56953 9.91891 5.46132C9.91891 5.35311 10.0066 5.26538 10.1149 5.26538C10.2231 5.26538 10.3108 5.35311 10.3108 5.46132C10.3108 5.56953 10.2231 5.65726 10.1149 5.65726Z" fill="#FFD83D" stroke="black" stroke-width="0.0800142" stroke-linecap="round" stroke-linejoin="round"/>
<path d="M10.1109 6.10135C10.0027 6.10135 9.91501 6.01363 9.91501 5.90541C9.91501 5.7972 10.0027 5.70947 10.1109 5.70947C10.2192 5.70947 10.3069 5.7972 10.3069 5.90541C10.3069 6.01363 10.2192 6.10135 10.1109 6.10135Z" fill="#FFD83D" stroke="black" stroke-width="0.0800142" stroke-linecap="round" stroke-linejoin="round"/>
<path d="M10.0228 6.53745C9.9146 6.53745 9.82687 6.44972 9.82687 6.34151C9.82687 6.23329 9.9146 6.14557 10.0228 6.14557C10.131 6.14557 10.2188 6.23329 10.2188 6.34151C10.2188 6.44972 10.131 6.53745 10.0228 6.53745Z" fill="#FFD83D" stroke="black" stroke-width="0.0800142" stroke-linecap="round" stroke-linejoin="round"/>
<path d="M6.63014 4.83334L6.65014 5.09338C7.14223 5.01337 7.83835 4.74132 8.49047 4.74132C9.09058 4.74132 9.55466 4.98136 9.55466 5.58947C9.55466 6.18558 9.30261 6.72967 8.96655 7.28177L9.31462 7.4418C9.62667 6.84169 9.88672 6.3216 9.88672 5.62548C9.88672 5.04137 9.42664 4.46527 8.6345 4.46527C7.93437 4.46527 7.21824 4.70531 6.63014 4.83334Z" fill="#FFD83D" stroke="black" stroke-width="0.0800142" stroke-linecap="round" stroke-linejoin="round"/>
<path d="M6.34954 2.17685L6.14161 2.56473L6.34954 2.94861L6.55348 2.56473L6.34954 2.17285V2.17685ZM6.34954 3.15255L6.14161 3.53643L6.34954 3.92431L6.54948 3.53243L6.34954 3.15255ZM5.61377 3.05258L5.93767 3.25652L6.26157 3.05258L5.94167 2.84465L5.61377 3.05258ZM6.43352 3.05258L6.75742 3.25652L7.08532 3.05258L6.75742 2.84465L6.43352 3.05258Z" fill="#FFD83D" stroke="black" stroke-width="0.0800142" stroke-linecap="round" stroke-linejoin="round"/>
<path d="M6.3498 3.21291C6.43593 3.21291 6.50575 3.14308 6.50575 3.05695C6.50575 2.97082 6.43593 2.901 6.3498 2.901C6.26367 2.901 6.19385 2.97082 6.19385 3.05695C6.19385 3.14308 6.26367 3.21291 6.3498 3.21291Z" fill="#FFD83D" stroke="black" stroke-width="0.0800142" stroke-linecap="round" stroke-linejoin="round"/>
<path d="M6.34956 4.47286C6.58145 4.47286 6.76943 4.28488 6.76943 4.05299C6.76943 3.8211 6.58145 3.63312 6.34956 3.63312C6.11767 3.63312 5.92969 3.8211 5.92969 4.05299C5.92969 4.28488 6.11767 4.47286 6.34956 4.47286Z" fill="#FFD83D" stroke="black" stroke-width="0.0800142" stroke-linecap="round" stroke-linejoin="round"/>
<path d="M6.2418 3.64911V3.91303C6.14262 3.91785 6.04381 3.92853 5.94589 3.94502M6.75365 3.94502C6.65442 3.92828 6.55426 3.91759 6.45374 3.91303V3.64911M5.94189 4.15695C6.0766 4.13355 6.21304 4.12151 6.34977 4.12096C6.48839 4.12096 6.62169 4.13296 6.74965 4.15695" stroke="black" stroke-width="0.0600107" stroke-linecap="round" stroke-linejoin="round"/>
<path d="M5.94159 4.76129C5.9016 5.44108 5.82163 6.14087 5.55371 6.64471L5.98558 6.46877C6.13753 5.89694 6.16952 5.15717 6.21351 4.80528L5.94159 4.76129ZM6.75734 4.76129L6.48143 4.80528C6.52941 5.15717 6.5614 5.89694 6.70936 6.46877L7.14122 6.64471C6.8773 6.14087 6.79733 5.44508 6.75734 4.76129Z" fill="#FFD83D" stroke="black" stroke-width="0.0800142" stroke-linecap="round" stroke-linejoin="round"/>
<path d="M6.34986 6.24158C5.82977 6.24158 5.4497 6.48162 5.4297 7.10573C5.30168 6.88169 4.76958 6.18557 4.26949 6.27758C3.97344 6.33359 3.70939 6.74567 3.7574 7.21375C3.50936 6.50962 2.79323 6.3936 2.26514 6.81368C2.73322 7.19375 2.94126 8.32595 3.33333 8.81404H9.3624C9.75447 8.32595 9.96251 7.19375 10.4306 6.81368C9.9065 6.3936 9.18637 6.50962 8.94233 7.21375C8.98233 6.74567 8.72229 6.33359 8.42223 6.27758C7.92614 6.18557 7.39405 6.88169 7.26603 7.10573C7.24602 6.48562 6.86596 6.24158 6.34586 6.24158H6.34986Z" fill="#FFD83D" stroke="black" stroke-width="0.0800142" stroke-linecap="round" stroke-linejoin="round"/>
<path d="M9.35414 8.814C9.35414 9.03804 8.0099 9.28208 6.3496 9.28208C4.6893 9.28208 3.34106 9.04204 3.34106 8.814C3.34106 8.59396 4.6893 8.47394 6.3496 8.47394C8.0059 8.47394 9.35414 8.59396 9.35414 8.814Z" fill="#000001" stroke="black" stroke-width="0.0600107" stroke-linecap="round" stroke-linejoin="round"/>
<path d="M6.34967 4.76911C6.42697 4.76911 6.48963 4.70645 6.48963 4.62915C6.48963 4.55186 6.42697 4.4892 6.34967 4.4892C6.27238 4.4892 6.20972 4.55186 6.20972 4.62915C6.20972 4.70645 6.27238 4.76911 6.34967 4.76911Z" fill="#FFD83D" stroke="black" stroke-width="0.0600107" stroke-linecap="round" stroke-linejoin="round"/>
<path d="M6.34961 5.08119C6.43133 5.08119 6.49757 5.01495 6.49757 4.93323C6.49757 4.85152 6.43133 4.78528 6.34961 4.78528C6.2679 4.78528 6.20166 4.85152 6.20166 4.93323C6.20166 5.01495 6.2679 5.08119 6.34961 5.08119Z" fill="#FFD83D" stroke="black" stroke-width="0.0600107" stroke-linecap="round" stroke-linejoin="round"/>
<path d="M6.3495 5.42519C6.44004 5.42519 6.51345 5.35179 6.51345 5.26124C6.51345 5.17069 6.44004 5.09729 6.3495 5.09729C6.25895 5.09729 6.18555 5.17069 6.18555 5.26124C6.18555 5.35179 6.25895 5.42519 6.3495 5.42519Z" fill="#FFD83D" stroke="black" stroke-width="0.0600107" stroke-linecap="round" stroke-linejoin="round"/>
<path d="M6.34956 5.81326C6.45336 5.81326 6.53751 5.72912 6.53751 5.62532C6.53751 5.52152 6.45336 5.43738 6.34956 5.43738C6.24577 5.43738 6.16162 5.52152 6.16162 5.62532C6.16162 5.72912 6.24577 5.81326 6.34956 5.81326Z" fill="#FFD83D" stroke="black" stroke-width="0.0600107" stroke-linecap="round" stroke-linejoin="round"/>
<path d="M6.34945 6.23331C6.46208 6.23331 6.55338 6.14201 6.55338 6.02938C6.55338 5.91674 6.46208 5.82544 6.34945 5.82544C6.23681 5.82544 6.14551 5.91674 6.14551 6.02938C6.14551 6.14201 6.23681 6.23331 6.34945 6.23331Z" fill="#FFD83D" stroke="black" stroke-width="0.0600107" stroke-linecap="round" stroke-linejoin="round"/>
<path d="M6.26963 6.42157C6.24296 6.42157 6.22962 6.44024 6.22962 6.47758L6.25363 6.64961C6.26163 6.70962 6.29363 6.68962 6.30564 6.64961C6.31364 6.6016 6.30964 6.5696 6.31364 6.48558C6.3083 6.44291 6.2923 6.42157 6.26563 6.42157H6.26963ZM6.42966 6.42157C6.40299 6.42157 6.38832 6.44291 6.38565 6.48558C6.38565 6.5696 6.38565 6.6016 6.39365 6.64561C6.40165 6.68962 6.43366 6.70962 6.44566 6.64561L6.46567 6.47758C6.47367 6.43757 6.44966 6.42157 6.42966 6.42157ZM6.1216 6.44557C6.11099 6.44557 6.10082 6.44979 6.09331 6.45729C6.08581 6.46479 6.0816 6.47497 6.0816 6.48558L6.0976 6.63761C6.1056 6.69762 6.14961 6.67762 6.15361 6.63761C6.15894 6.60294 6.15894 6.55093 6.15361 6.48158C6.15361 6.45758 6.14561 6.44424 6.12961 6.44157H6.1216V6.44557ZM6.56568 6.44557C6.55235 6.44557 6.54301 6.45891 6.53768 6.48558L6.54568 6.63761C6.54568 6.67762 6.59369 6.69762 6.59769 6.63761C6.59769 6.5776 6.61369 6.52959 6.61369 6.48958C6.61102 6.46291 6.59769 6.44824 6.57368 6.44557H6.56568ZM5.94957 6.51359C5.9229 6.52159 5.91223 6.53892 5.91757 6.5656C5.9309 6.61894 5.93891 6.67228 5.94157 6.72562C5.94157 6.76963 5.97758 6.75363 5.98158 6.72562L5.98558 6.5656C5.98291 6.52559 5.96958 6.50825 5.94557 6.51359H5.94957ZM6.73371 6.51359C6.72038 6.51625 6.71238 6.53359 6.70971 6.5656L6.71771 6.72562C6.71771 6.75363 6.75772 6.76963 6.75772 6.72562C6.75772 6.67228 6.76439 6.61894 6.77772 6.5656C6.78039 6.53892 6.77105 6.52159 6.74972 6.51359H6.73371ZM4.37329 6.52159C4.34662 6.52425 4.33862 6.54426 4.34929 6.5816C4.37329 6.63761 4.4013 6.66961 4.4253 6.72562C4.44931 6.78163 4.48131 6.74563 4.46931 6.70962L4.4133 6.56159C4.39996 6.53492 4.38663 6.52159 4.37329 6.52159ZM8.326 6.52159C8.30999 6.52159 8.29666 6.53492 8.28599 6.56159C8.24998 6.63761 8.23798 6.67361 8.22598 6.70962C8.21798 6.74963 8.24998 6.77763 8.27399 6.72562L8.346 6.5816C8.35667 6.54426 8.35 6.52425 8.326 6.52159ZM4.53332 6.52159C4.51198 6.52959 4.50532 6.54693 4.51332 6.5736C4.53999 6.62161 4.56399 6.67228 4.58533 6.72562C4.60133 6.76963 4.64134 6.75763 4.62534 6.71762L4.58533 6.5696C4.56666 6.53226 4.54932 6.51625 4.53332 6.52159ZM8.15397 6.52159C8.13796 6.52425 8.12463 6.54026 8.11396 6.5696C8.08595 6.64961 8.08195 6.67362 8.06995 6.71762C8.05395 6.75763 8.09396 6.76963 8.10996 6.72562L8.18197 6.5736C8.18997 6.54693 8.18464 6.52959 8.16597 6.52159H8.15397ZM4.73336 6.56159C4.70669 6.5696 4.69868 6.59493 4.70935 6.63761L4.77336 6.78563C4.79737 6.84164 4.83337 6.82964 4.82537 6.79364L4.77736 6.6136C4.76403 6.5736 4.74936 6.55626 4.73336 6.56159ZM7.96593 6.56159C7.94726 6.55893 7.93126 6.57626 7.91792 6.6136C7.89125 6.69895 7.87658 6.75896 7.87392 6.79364C7.86191 6.83364 7.90192 6.84164 7.92192 6.78563C7.9486 6.73229 7.96993 6.68295 7.98594 6.63761C7.9966 6.59493 7.98994 6.5696 7.96593 6.56159ZM4.23727 6.5896C4.21326 6.5896 4.19726 6.62961 4.20926 6.65761C4.22927 6.69762 4.24527 6.71362 4.26527 6.76163C4.28928 6.80964 4.31328 6.77363 4.30528 6.74163C4.29194 6.70962 4.28128 6.67228 4.27328 6.62961C4.26527 6.60027 4.25194 6.58693 4.23327 6.5896H4.23727ZM8.46202 6.5896C8.44602 6.58693 8.43268 6.60027 8.42201 6.62961L8.39401 6.74163C8.38601 6.77363 8.41001 6.80964 8.43402 6.76163L8.49003 6.65761C8.50203 6.62961 8.48202 6.5936 8.46202 6.5896ZM5.78154 6.70162C5.75354 6.70162 5.72953 6.73363 5.74154 6.76163L5.78554 6.90966C5.80155 6.96167 5.83755 6.93766 5.83355 6.90166L5.81355 6.74163C5.80555 6.71496 5.79355 6.70162 5.77754 6.70162H5.78154ZM6.91775 6.70162C6.90174 6.70162 6.89107 6.71496 6.88574 6.74163L6.86174 6.90166C6.86174 6.93766 6.89774 6.96167 6.90974 6.90966L6.95775 6.76163C6.96575 6.73363 6.94175 6.70162 6.91775 6.70162ZM6.34964 6.74963C6.31764 6.74963 6.31364 6.78964 6.31364 6.81764C6.31184 6.90886 6.28408 6.99767 6.23362 7.07369C6.19362 7.12169 6.14161 7.10969 6.0936 7.08169L5.96158 6.99367C5.90557 6.95366 5.86556 6.97767 5.92957 7.06969C6.1136 7.33373 6.31364 7.55777 6.31364 7.98985C6.31364 8.03786 6.32564 8.06053 6.34964 8.05786C6.38565 8.05386 6.38165 8.04186 6.38165 7.98585C6.38165 7.55777 6.58169 7.33373 6.76572 7.06568C6.82973 6.97767 6.78972 6.95366 6.73771 6.99367L6.60569 7.08169C6.55368 7.10969 6.50167 7.12169 6.46567 7.07369C6.41521 6.99767 6.38745 6.90886 6.38565 6.81764C6.38165 6.78964 6.37765 6.74963 6.34564 6.74963H6.34964ZM4.93739 6.68562H4.92939C4.91872 6.68828 4.91472 6.70162 4.91739 6.72562L4.9614 6.88165C4.9734 6.92166 5.01741 6.90966 5.00941 6.86165L4.9854 6.73763C4.97473 6.70562 4.95873 6.68828 4.93739 6.68562ZM7.7619 6.68562C7.74056 6.68562 7.72456 6.70295 7.71389 6.73763C7.69789 6.79364 7.69788 6.80964 7.68988 6.85765C7.67788 6.90966 7.72589 6.91766 7.73389 6.88165L7.7819 6.72162C7.7819 6.70029 7.77657 6.68828 7.7659 6.68562H7.7619ZM4.09724 6.70162C4.06791 6.70695 4.06257 6.73096 4.08124 6.77363C4.10525 6.82164 4.14925 6.87765 4.16926 6.91366C4.18926 6.94966 4.22527 6.92166 4.20126 6.88165C4.17726 6.84164 4.16926 6.78964 4.13725 6.72962C4.13461 6.72119 4.12925 6.71388 4.12202 6.70881C4.11478 6.70374 4.10607 6.70122 4.09724 6.70162ZM8.59805 6.70162C8.58471 6.70162 8.57137 6.71095 8.55804 6.72962L8.49803 6.88165C8.47402 6.92166 8.50603 6.94566 8.52603 6.91366C8.54604 6.88165 8.59004 6.82164 8.61405 6.77363C8.63805 6.73363 8.62205 6.70162 8.59805 6.70162ZM2.82902 6.83364C2.80501 6.83364 2.79701 6.88165 2.82102 6.91366L2.92503 7.02168C2.95704 7.05368 2.96504 7.01368 2.94904 6.98167L2.87703 6.87365C2.85836 6.84698 2.84235 6.83364 2.82902 6.83364ZM9.86627 6.83364C9.85293 6.83364 9.83827 6.84698 9.82226 6.87365L9.74625 6.98167C9.73025 7.01368 9.73825 7.05368 9.77425 7.02168L9.87827 6.91366C9.90228 6.88165 9.89428 6.83364 9.86627 6.83364ZM3.03305 6.87365C3.00638 6.87365 2.99972 6.89099 3.01305 6.92566L3.08906 7.07769C3.10907 7.11769 3.16908 7.1297 3.14507 7.06969L3.09307 6.91766C3.07706 6.89099 3.05706 6.87765 3.03305 6.87765V6.87365ZM9.66623 6.87365C9.63956 6.87365 9.61823 6.88832 9.60222 6.91766L9.55422 7.06969C9.53021 7.1297 9.59022 7.11769 9.61023 7.07769L9.68224 6.92566C9.69824 6.89099 9.69291 6.87365 9.66623 6.87365ZM2.64098 6.88965C2.60898 6.88965 2.60898 6.91766 2.63698 6.93766L2.75701 7.02968C2.80901 7.06969 2.82502 7.02968 2.79701 6.99767C2.76901 6.96567 2.749 6.93366 2.68099 6.89765L2.64098 6.88965ZM10.0543 6.88965L10.0143 6.89765C9.95029 6.93366 9.92228 6.96567 9.89428 6.99767C9.87027 7.03368 9.89028 7.06969 9.93828 7.02968L10.0583 6.93766C10.0903 6.91766 10.0863 6.88965 10.0583 6.88965H10.0543ZM5.66952 6.91766C5.64819 6.91766 5.63885 6.93366 5.64152 6.96567L5.68153 7.10969C5.68953 7.1537 5.74154 7.1537 5.73354 7.10969L5.70553 6.95366C5.7002 6.92966 5.68953 6.91632 5.67352 6.91366H5.66952V6.91766ZM7.02176 6.91766C7.00843 6.91766 6.99776 6.93099 6.98976 6.95767L6.96175 7.11369C6.95375 7.1537 7.00576 7.1537 7.01376 7.10969L7.05377 6.96567C7.0591 6.93633 7.0511 6.92033 7.02977 6.91766H7.02176ZM4.46131 6.83764C4.44531 6.84031 4.44264 6.86298 4.45331 6.90566C4.49574 7.02096 4.51741 7.14286 4.51732 7.26572C4.50398 7.30839 4.47865 7.32173 4.44131 7.30573L4.32929 7.23772C4.29728 7.21771 4.26127 7.24172 4.30928 7.28172C4.54932 7.48176 4.72135 7.7098 4.78937 7.98585C4.79737 8.04186 4.83337 8.04986 4.82537 7.98585C4.76936 7.63779 4.75736 7.34974 4.84138 7.1737C4.87338 7.10569 4.84138 7.04168 4.79337 7.1497C4.75736 7.22171 4.70535 7.24972 4.66134 7.18971C4.59881 7.09206 4.54525 6.98896 4.50132 6.88165C4.49331 6.85498 4.48265 6.84031 4.46931 6.83764H4.46131ZM8.22598 6.83764C8.21264 6.83764 8.20197 6.85098 8.19397 6.87765C8.16597 6.95767 8.07795 7.1257 8.03394 7.18971C7.98994 7.25372 7.93793 7.22171 7.90592 7.1497C7.85391 7.04168 7.82591 7.10569 7.85391 7.1737C7.93793 7.34974 7.92593 7.63779 7.87392 7.98585C7.86191 8.04986 7.89792 8.04186 7.91392 7.98585C7.98675 7.70434 8.15325 7.45601 8.38601 7.28172C8.43402 7.24172 8.39801 7.21771 8.366 7.24172L8.25398 7.30173C8.21398 7.32306 8.18864 7.30973 8.17797 7.26172C8.16997 7.21371 8.18597 7.10569 8.24598 6.90166C8.25132 6.86698 8.24732 6.84565 8.23398 6.83764H8.22598ZM3.24509 6.93366C3.22509 6.93366 3.20508 6.94966 3.21709 6.98167C3.23309 7.03768 3.2651 7.09369 3.2771 7.1257C3.2891 7.1577 3.32511 7.1457 3.3171 7.09769L3.2971 6.97367C3.29177 6.947 3.27443 6.93366 3.24509 6.93366ZM9.4502 6.93366C9.42353 6.93366 9.40619 6.947 9.39819 6.97367L9.38218 7.09769C9.37418 7.1457 9.41019 7.1617 9.42219 7.1257C9.43019 7.09369 9.4622 7.03768 9.4782 6.98167C9.4862 6.94966 9.47687 6.93366 9.4502 6.93366ZM3.99723 6.86565C3.97322 6.86165 3.96922 6.92566 3.98922 6.95366L4.10124 7.07769C4.13325 7.11769 4.15325 7.08169 4.13325 7.04968L4.02923 6.89765C4.0159 6.87632 4.00523 6.86565 3.99723 6.86565ZM8.69806 6.86565C8.69006 6.86565 8.67939 6.87632 8.66606 6.89765L8.56204 7.04968C8.54203 7.08169 8.56204 7.11769 8.59805 7.07769L8.70606 6.95366C8.72607 6.92566 8.72607 6.86165 8.69806 6.86565ZM3.41712 7.02568C3.39845 7.02301 3.39178 7.03635 3.39712 7.06568C3.40512 7.10836 3.41579 7.1497 3.42912 7.18971C3.44113 7.22971 3.46913 7.22571 3.46913 7.18571L3.45713 7.05768C3.45613 7.04778 3.45148 7.0386 3.44409 7.03195C3.43669 7.02529 3.42707 7.02163 3.41712 7.02168V7.02568ZM9.27817 7.02568C9.26881 7.02549 9.25968 7.02859 9.25237 7.03444C9.24506 7.04028 9.24003 7.04851 9.23816 7.05768L9.22616 7.18571C9.22616 7.22571 9.25816 7.23371 9.26616 7.18971L9.30217 7.06969C9.30484 7.03501 9.29684 7.01901 9.27817 7.02168V7.02568ZM3.94122 7.08169C3.91721 7.08169 3.89721 7.10969 3.92521 7.1457C3.96922 7.20571 4.02123 7.24572 4.04123 7.26572C4.06124 7.28572 4.10124 7.28172 4.07324 7.23772L3.98122 7.09769C3.97322 7.08169 3.95989 7.07635 3.94122 7.08169ZM8.74207 7.08169C8.7314 7.08169 8.7234 7.08702 8.71807 7.09769L8.62205 7.23772C8.59404 7.28172 8.63805 7.28972 8.65806 7.26972C8.67806 7.24972 8.72607 7.20571 8.77408 7.1457C8.80208 7.10569 8.77808 7.08169 8.75407 7.08169H8.74207ZM3.11307 7.24572C3.0944 7.24572 3.0944 7.26305 3.11307 7.29773C3.17485 7.37267 3.21987 7.45998 3.24509 7.55377C3.24909 7.60978 3.22509 7.60978 3.20108 7.60978C3.12507 7.60978 3.08906 7.55377 3.02505 7.53777C2.95704 7.52577 2.94504 7.55777 2.99305 7.59378C3.2226 7.73848 3.42225 7.92591 3.58115 8.14588C3.62116 8.22189 3.67317 8.2459 3.64516 8.17788C3.56802 8.02168 3.53483 7.84742 3.54915 7.67379C3.56915 7.56177 3.59715 7.48976 3.59315 7.42575C3.59315 7.36574 3.55315 7.36974 3.54114 7.42575L3.50114 7.53777C3.48513 7.55777 3.42912 7.56977 3.38112 7.50176C3.31308 7.41827 3.23813 7.34065 3.15708 7.26972C3.14374 7.25639 3.1304 7.24838 3.11707 7.24572H3.11307ZM9.58222 7.24572C9.56888 7.24572 9.55422 7.25372 9.53821 7.26972C9.45854 7.34082 9.38494 7.41843 9.31817 7.50176C9.26616 7.56977 9.21015 7.55777 9.19815 7.54177L9.15814 7.42575C9.14214 7.36974 9.10613 7.36574 9.10213 7.42575C9.10213 7.48976 9.12614 7.56177 9.14614 7.67379C9.16615 7.78581 9.14614 7.96184 9.05413 8.17788C9.02212 8.2459 9.07813 8.21789 9.11814 8.14588C9.27586 7.92629 9.47412 7.73889 9.70224 7.59378C9.75025 7.55777 9.74225 7.52577 9.67424 7.53777C9.60622 7.54977 9.57022 7.60978 9.49821 7.60978C9.4742 7.60978 9.4462 7.60978 9.4502 7.55377C9.4542 7.49776 9.52221 7.37774 9.58222 7.29773C9.60356 7.26039 9.60356 7.24305 9.58222 7.24572Z" fill="#000001"/>
<path d="M3.47314 8.56192L3.55316 8.80596L3.47314 8.56192ZM3.63317 8.51391L3.70519 8.76195L3.63317 8.51391ZM3.8092 8.4819L3.85721 8.73795L3.8092 8.4819ZM3.96923 8.4539L4.02124 8.70594L3.96923 8.4539ZM4.17327 8.43389L4.21328 8.68994L4.17327 8.43389ZM4.39331 8.43389L4.43732 8.68594L4.39331 8.43389ZM4.60935 8.36188L4.64135 8.61793L4.60935 8.36188ZM4.80938 8.37388L4.84139 8.62993L4.80938 8.37388ZM5.00542 8.34988L5.03742 8.60592L5.00542 8.34988ZM5.19745 8.32587L5.21745 8.58592L5.19745 8.32587ZM5.40949 8.32587L5.42549 8.58592L5.40949 8.32587ZM5.60152 8.31387L5.61353 8.57392L5.60152 8.31387ZM5.80956 8.30187L5.82156 8.55792L5.80956 8.30187ZM6.0496 8.29387L6.06161 8.55391L6.0496 8.29387ZM9.22217 8.56192L9.14215 8.80596L9.22217 8.56192ZM9.06214 8.51391L8.99413 8.76195L9.06214 8.51391ZM8.89011 8.4819L8.8421 8.73795L8.89011 8.4819ZM8.73008 8.4539L8.67807 8.70594L8.73008 8.4539ZM8.51804 8.43389L8.47804 8.68994L8.51804 8.43389ZM8.302 8.43389L8.258 8.68994L8.302 8.43389ZM8.08997 8.36188L8.05796 8.61793L8.08997 8.36188ZM7.88593 8.37388L7.85392 8.62993L7.88593 8.37388ZM7.6939 8.34988L7.65789 8.60592L7.6939 8.34988ZM7.49786 8.32587L7.47786 8.58592L7.49786 8.32587ZM7.28582 8.32587L7.26982 8.58592L7.28582 8.32587ZM7.09779 8.31387L7.08579 8.57392L7.09779 8.31387ZM6.88575 8.30187L6.87775 8.55792L6.88575 8.30187ZM6.64571 8.29387L6.63771 8.55391L6.64571 8.29387ZM6.34966 8.27386V8.56192V8.27386Z" fill="#FFD83D"/>
<path d="M3.47314 8.56192L3.55316 8.80596M3.63317 8.51391L3.70519 8.76195M3.8092 8.4819L3.85721 8.73795M3.96923 8.4539L4.02124 8.70594M4.17327 8.43389L4.21328 8.68994M4.39331 8.43389L4.43732 8.68594M4.60935 8.36188L4.64135 8.61793M4.80938 8.37388L4.84139 8.62993M5.00542 8.34988L5.03742 8.60592M5.19745 8.32587L5.21745 8.58592M5.40949 8.32587L5.42549 8.58592M5.60152 8.31387L5.61353 8.57392M5.80956 8.30187L5.82156 8.55792M6.0496 8.29387L6.06161 8.55391M9.22217 8.56192L9.14215 8.80596M9.06214 8.51391L8.99413 8.76195M8.89011 8.4819L8.8421 8.73795M8.73008 8.4539L8.67807 8.70594M8.51804 8.43389L8.47804 8.68994M8.302 8.43389L8.258 8.68994M8.08997 8.36188L8.05796 8.61793M7.88593 8.37388L7.85392 8.62993M7.6939 8.34988L7.65789 8.60592M7.49786 8.32587L7.47786 8.58592M7.28582 8.32587L7.26982 8.58592M7.09779 8.31387L7.08579 8.57392M6.88575 8.30187L6.87775 8.55792M6.64571 8.29387L6.63771 8.55391M6.34966 8.27386V8.56192" stroke="black" stroke-width="0.0600107" stroke-linecap="round" stroke-linejoin="round"/>
</g>
<defs>
<clipPath id="clip0_720_53332">
<rect width="24.0044" height="24.0044" fill="white" transform="translate(0 0.0524902)"/>
</clipPath>
</defs>
</svg>
