<svg width="25" height="25" viewBox="0 0 25 25" fill="none" xmlns="http://www.w3.org/2000/svg">
<g clip-path="url(#clip0_720_53436)">
<path d="M0.0129395 0.0525513H24.0173V24.0569H0.0129395V0.0525513Z" fill="#00785E"/>
<path d="M12.7886 6.96315L12.015 4.57678L11.2414 6.96784L13.2715 5.49101H10.7585L12.7886 6.96315Z" fill="#FBD116"/>
<path d="M12.0145 16.6352H6.89011L6.70258 16.4383H12.0145C12.0351 16.4436 12.0533 16.4558 12.0661 16.4729C12.0789 16.4899 12.0855 16.5108 12.0848 16.5321C12.0848 16.5821 12.0614 16.6165 12.0145 16.6352ZM12.0145 15.0693C12.0426 15.0084 12.1036 14.8677 12.0754 14.6943C12.0659 14.6272 12.0453 14.5623 12.0145 14.502C11.5535 14.9402 10.9963 15.2646 10.3876 15.4491C10.0076 15.5643 9.61264 15.6228 9.21554 15.6226H6.05559L6.35095 16.0258H9.39838C10.3563 16.0278 11.2838 15.6888 12.0145 15.0693ZM6.5338 13.8363C6.37917 13.8955 6.21625 13.9303 6.0509 13.9394C6.43004 14.3718 6.89729 14.7181 7.42128 14.955C7.94527 15.1919 8.51388 15.314 9.08895 15.3131C9.63567 15.3145 10.1769 15.2046 10.6799 14.9902C11.1828 14.7758 11.6369 14.4614 12.0145 14.066C12.1555 13.0892 12.2306 12.104 12.2395 11.117C12.2516 9.98461 12.1764 8.85293 12.0145 7.73206C11.6863 8.02742 11.0674 8.66973 10.7768 9.64959C10.6656 10.024 10.6087 10.4124 10.608 10.8029C10.6065 11.606 10.8448 12.3913 11.2925 13.058C10.743 12.3483 10.446 11.4755 10.4486 10.5779C10.4461 9.97826 10.5775 9.38564 10.833 8.8432C10.6599 8.65927 10.5315 8.43786 10.4579 8.1962C10.1125 8.80508 9.93154 9.4934 9.93285 10.1934C9.93217 11.0616 10.2117 11.9067 10.7299 12.6033C10.2607 12.1069 9.68969 11.7179 9.05604 11.463C8.42239 11.2081 7.74109 11.0933 7.05889 11.1264C7.19605 11.2545 7.31023 11.4051 7.39646 11.5718C8.0392 11.5711 8.67536 11.7013 9.26617 11.9544C9.85699 12.2075 10.3901 12.5782 10.833 13.044C9.97658 12.326 8.89379 11.934 7.77621 11.9375C7.12297 11.9375 6.51348 12.0594 5.94775 12.3032C6.26251 13.1244 6.83427 13.8219 7.57777 14.2917C8.32127 14.7614 9.1967 14.9783 10.0735 14.9099C9.83526 14.9532 9.59364 14.9752 9.3515 14.9756C8.29961 14.9779 7.28846 14.5691 6.5338 13.8363ZM12.0145 18.2762H9.36087C10.2054 18.6115 11.1059 18.7833 12.0145 18.7825C12.0536 18.7055 12.0745 18.6204 12.0754 18.534C12.0759 18.4444 12.055 18.356 12.0145 18.2762ZM12.0145 17.0478H7.33082L7.72464 17.3619H12.0145C12.0547 17.3202 12.0781 17.2651 12.0801 17.2072C12.0801 17.1135 12.0239 17.0619 12.0145 17.0478ZM12.0145 17.6761H8.17941C8.41224 17.8226 8.6533 17.9557 8.90142 18.0746H12.0145C12.0537 18.0114 12.0733 17.9379 12.0707 17.8636C12.0689 17.7972 12.0495 17.7325 12.0145 17.6761Z" fill="white"/>
<path d="M7.30741 9.97779L6.97922 8.27123L6.24315 9.84652L7.76218 9.00261L6.03687 8.79164L7.30741 9.97779ZM9.61877 7.22104L8.23101 6.17554L8.73736 7.83521L9.30465 6.19429L7.88408 7.19291L9.61877 7.22104Z" fill="#FBD116"/>
<path d="M12.0153 16.6352H17.1397L17.3272 16.4383H12.0153C11.9947 16.4436 11.9765 16.4558 11.9637 16.4729C11.9509 16.4899 11.9443 16.5108 11.945 16.5321C11.945 16.5821 11.9684 16.6165 12.0153 16.6352ZM12.0153 15.0693C11.9872 15.0084 11.9262 14.8677 11.9544 14.6943C11.9639 14.6272 11.9845 14.5623 12.0153 14.502C12.4763 14.9402 13.0335 15.2646 13.6422 15.4491C14.0222 15.5643 14.4171 15.6228 14.8142 15.6226H17.9742L17.6788 16.0258H14.6314C13.6734 16.0278 12.746 15.6888 12.0153 15.0693ZM17.496 13.8363C17.6506 13.8955 17.8135 13.9303 17.9789 13.9394C17.5997 14.3718 17.1325 14.7181 16.6085 14.955C16.0845 15.1919 15.5159 15.314 14.9408 15.3131C14.3941 15.3145 13.8528 15.2046 13.3499 14.9902C12.847 14.7758 12.3929 14.4614 12.0153 14.066C11.8743 13.0892 11.7991 12.104 11.7903 11.117C11.7782 9.98461 11.8534 8.85293 12.0153 7.73206C12.3435 8.02742 12.9623 8.66973 13.253 9.64959C13.3642 10.024 13.4211 10.4124 13.4218 10.8029C13.4233 11.606 13.185 12.3913 12.7373 13.058C13.2868 12.3483 13.5838 11.4755 13.5812 10.5779C13.5836 9.97826 13.4523 9.38564 13.1968 8.8432C13.3699 8.65927 13.4983 8.43786 13.5718 8.1962C13.9173 8.80508 14.0982 9.4934 14.0969 10.1934C14.0976 11.0616 13.8181 11.9067 13.2999 12.6033C13.7691 12.1069 14.3401 11.7179 14.9737 11.463C15.6074 11.2081 16.2887 11.0933 16.9709 11.1264C16.8337 11.2545 16.7196 11.4051 16.6333 11.5718C15.9906 11.5711 15.3544 11.7013 14.7636 11.9544C14.1728 12.2075 13.6397 12.5782 13.1968 13.044C14.0532 12.326 15.136 11.934 16.2536 11.9375C16.9068 11.9375 17.5163 12.0594 18.082 12.3032C17.7673 13.1244 17.1955 13.8219 16.452 14.2917C15.7085 14.7614 14.8331 14.9783 13.9563 14.9099C14.1945 14.9532 14.4361 14.9752 14.6783 14.9756C15.7302 14.9779 16.7413 14.5691 17.496 13.8363ZM12.0153 18.2762H14.6689C13.8244 18.6115 12.9239 18.7833 12.0153 18.7825C11.9762 18.7055 11.9553 18.6204 11.9544 18.534C11.9539 18.4444 11.9747 18.356 12.0153 18.2762ZM12.0153 17.0478H16.699L16.3051 17.3619H12.0153C11.9751 17.3202 11.9517 17.2651 11.9497 17.2072C11.9497 17.1135 12.0059 17.0619 12.0153 17.0478ZM12.0153 17.6761H15.8504C15.6175 17.8226 15.3765 17.9557 15.1284 18.0746H12.0153C11.976 18.0114 11.9565 17.9379 11.959 17.8636C11.9609 17.7972 11.9803 17.7325 12.0153 17.6761Z" fill="white"/>
<path d="M16.7224 9.97779L17.0506 8.27123L17.7866 9.84652L16.2676 9.00261L17.9929 8.79164L16.7224 9.97779ZM14.411 7.22104L15.7988 6.17554L15.2924 7.83521L14.7251 6.19429L16.1457 7.19291L14.411 7.22104Z" fill="#FBD116"/>
</g>
<defs>
<clipPath id="clip0_720_53436">
<rect width="24.0044" height="24.0044" fill="white" transform="translate(0.0131836 0.0524902)"/>
</clipPath>
</defs>
</svg>
