<svg width="25" height="25" viewBox="0 0 25 25" fill="none" xmlns="http://www.w3.org/2000/svg">
<g clip-path="url(#clip0_720_53357)">
<path d="M0.0170898 0.0525513H24.0215V24.0569H0.0170898V0.0525513Z" fill="#D20000"/>
<path d="M0.0170898 0.0525513H4.08658L12.0193 11.6281L19.952 0.0525513H24.0215L0.0170898 24.0569H4.08658L12.0193 12.4814L19.952 24.0569H24.0215L0.0170898 0.0525513ZM24.0215 9.6543V14.4552L0.0170898 9.6543V14.4552L24.0215 9.6543ZM9.61884 0.0525513L12.0193 10.3388L14.4197 0.0525513H9.61884ZM9.61884 24.0569L12.0193 13.7707L14.4197 24.0569H9.61884Z" fill="#FFE600"/>
<path d="M12.0194 15.9133C14.1504 15.9133 15.8779 14.1857 15.8779 12.0547C15.8779 9.92374 14.1504 8.19623 12.0194 8.19623C9.8884 8.19623 8.16089 9.92374 8.16089 12.0547C8.16089 14.1857 9.8884 15.9133 12.0194 15.9133Z" fill="#FFE600" stroke="#D20000" stroke-width="0.857969"/>
</g>
<defs>
<clipPath id="clip0_720_53357">
<rect width="24.0044" height="24.0044" fill="white" transform="translate(0.0175781 0.0524902)"/>
</clipPath>
</defs>
</svg>
