<svg width="25" height="25" viewBox="0 0 25 25" fill="none" xmlns="http://www.w3.org/2000/svg">
<g clip-path="url(#clip0_720_53480)">
<path d="M0.0305176 0.0525513H24.0349V1.76849H0.0305176V0.0525513Z" fill="#CC0000"/>
<path d="M0.0305176 1.76849H24.0349V3.47505H0.0305176V1.76849Z" fill="white"/>
<path d="M0.0305176 3.47974H24.0349V5.19567H0.0305176V3.47974Z" fill="#CC0000"/>
<path d="M0.0305176 5.19568H24.0349V6.91162H0.0305176V5.19568Z" fill="white"/>
<path d="M0.0305176 6.91162H24.0349V8.62756H0.0305176V6.91162Z" fill="#CC0000"/>
<path d="M0.0305176 8.62756H24.0349V10.3388H0.0305176V8.62756Z" fill="white"/>
<path d="M0.0305176 10.3388H24.0349V12.0547H0.0305176V10.3388Z" fill="#CC0000"/>
<path d="M0.0305176 12.0547H24.0349V13.7707H0.0305176V12.0547Z" fill="white"/>
<path d="M0.0305176 13.7706H24.0349V15.4772H0.0305176V13.7706Z" fill="#CC0000"/>
<path d="M0.0305176 15.4819H24.0349V17.1979H0.0305176V15.4819Z" fill="white"/>
<path d="M0.0305176 17.1978H24.0349V18.9138H0.0305176V17.1978Z" fill="#CC0000"/>
<path d="M0.0305176 18.9138H24.0349V20.6297H0.0305176V18.9138Z" fill="white"/>
<path d="M0.0305176 20.6297H24.0349V22.3409H0.0305176V20.6297Z" fill="#CC0000"/>
<path d="M0.0305176 22.3409H24.0349V24.0569H0.0305176V22.3409Z" fill="white"/>
<path d="M0.0305176 0.0525513H12.0327V13.7707H0.0305176V0.0525513Z" fill="#000066"/>
<path d="M7.81306 4.41273L8.0381 5.93644L8.90076 4.66121L8.43192 6.12866L9.76811 5.3504L8.71323 6.4756L10.251 6.3537L8.81168 6.91162L10.251 7.46016L8.71323 7.34295L9.76811 8.46815L8.43661 7.6852L8.89607 9.16203L8.03341 7.88211L7.80837 9.40582L7.58802 7.88211L6.72536 9.15734L7.18951 7.6852L5.85802 8.46815L6.90821 7.34295L5.37043 7.46016L6.80975 6.90693L5.37512 6.34902L6.9129 6.47091L5.85802 5.34571L7.18951 6.12398L6.72068 4.65183L7.58802 5.93175L7.81306 4.40335V4.41273ZM6.56127 4.47368C5.94828 4.20405 5.2564 4.1744 4.62258 4.39059C3.98877 4.60678 3.45923 5.05305 3.13877 5.64107C2.92871 6.03174 2.81919 6.46854 2.8201 6.9121C2.821 7.35565 2.93229 7.79201 3.14394 8.18181C3.35559 8.57162 3.66093 8.90261 4.03244 9.14494C4.40395 9.38727 4.82993 9.53332 5.27197 9.56991C5.71336 9.6044 6.15639 9.52868 6.56127 9.34956C6.11289 9.67127 5.58448 9.86309 5.03414 9.90394C4.4838 9.94478 3.93286 9.83306 3.4419 9.58106C2.95095 9.32906 2.539 8.94655 2.25135 8.47559C1.96371 8.00463 1.81152 7.46347 1.81152 6.91162C1.81152 6.35977 1.96371 5.8186 2.25135 5.34765C2.539 4.87669 2.95095 4.49417 3.4419 4.24218C3.93286 3.99018 4.4838 3.87846 5.03414 3.9193C5.58448 3.96014 6.11289 4.15197 6.56127 4.47368Z" fill="#FFCC00"/>
</g>
<defs>
<clipPath id="clip0_720_53480">
<rect width="24.0044" height="24.0044" fill="white" transform="translate(0.0305176 0.0524902)"/>
</clipPath>
</defs>
</svg>
