<svg width="25" height="25" viewBox="0 0 25 25" fill="none" xmlns="http://www.w3.org/2000/svg">
<g clip-path="url(#clip0_720_53354)">
<mask id="mask0_720_53354" style="mask-type:luminance" maskUnits="userSpaceOnUse" x="0" y="0" width="25" height="25">
<path d="M0.0273438 0.0530396H24.0331V24.0588H0.0273438V0.0530396Z" fill="white"/>
</mask>
<g mask="url(#mask0_720_53354)">
<path fill-rule="evenodd" clip-rule="evenodd" d="M-6.05957 0.0529785H29.9473V24.0587H-6.05957V0.0529785Z" fill="#F41408"/>
<path fill-rule="evenodd" clip-rule="evenodd" d="M-6.05957 16.0546H29.9473V24.0587H-6.05957V16.0546Z" fill="#21873B"/>
<path fill-rule="evenodd" clip-rule="evenodd" d="M-6.05957 0.0529785H29.9473V8.05375H-6.05957V0.0529785Z" fill="#000001"/>
<path fill-rule="evenodd" clip-rule="evenodd" d="M7.53683 7.3018C8.03954 6.07783 9.00783 5.10367 10.2287 4.59358C11.4496 4.08349 12.8232 4.07926 14.0472 4.5818C14.6627 4.82403 15.2216 5.1906 15.689 5.6586C16.1565 6.12661 16.5223 6.68599 16.7638 7.3018H7.53683ZM6.31741 7.63375C5.48851 7.57027 4.66677 7.43426 3.86162 7.22728C3.67193 7.15953 3.66177 7.04436 3.68548 6.95629C3.70492 6.89891 3.74558 6.85115 3.79912 6.8228C3.85266 6.79446 3.91502 6.78768 3.9734 6.80386C4.241 6.87161 5.32493 7.15953 6.32079 7.63375H6.31741ZM12.1639 3.18963C11.9674 2.1057 11.9166 0.909983 11.9369 0.710133C11.9572 0.510283 12.0656 0.473022 12.1571 0.473022C12.217 0.477312 12.273 0.504175 12.3139 0.548185C12.3548 0.592196 12.3774 0.650074 12.3773 0.710133C12.3773 0.98789 12.3705 2.10908 12.1639 3.18963ZM12.7058 3.21673C12.6286 2.38774 12.6229 1.55364 12.6889 0.723682C12.7262 0.523832 12.8379 0.496733 12.9294 0.506895C13.0208 0.517057 13.1428 0.618676 13.1292 0.764329C13.1055 1.03531 13.0039 2.15312 12.7058 3.21673ZM13.1936 3.28447C13.1801 2.18022 13.3291 0.994665 13.3867 0.798202C13.4375 0.601739 13.5527 0.584803 13.6441 0.601739C13.7023 0.61626 13.7528 0.65229 13.7855 0.702572C13.8182 0.752854 13.8306 0.813652 13.8203 0.872723C13.7728 1.14371 13.5798 2.24796 13.1936 3.28108V3.28447ZM13.7119 3.39625C13.7965 2.29877 14.0506 1.13016 14.1183 0.940468C14.1861 0.75078 14.3046 0.744006 14.3927 0.767717C14.4493 0.787136 14.4965 0.827263 14.5248 0.880041C14.5531 0.932819 14.5603 0.994339 14.5451 1.05225C14.474 1.31984 14.1861 2.40378 13.7119 3.39625ZM14.2199 3.55884C14.356 2.73842 14.5634 1.93145 14.8398 1.14709C14.9279 0.964179 15.0431 0.967567 15.1311 0.998052C15.1867 1.02268 15.2306 1.06769 15.2539 1.12378C15.2773 1.17988 15.2782 1.24278 15.2565 1.29952C15.1616 1.55695 14.7755 2.6104 14.2166 3.55884H14.2199ZM14.6942 3.75869C14.9652 2.68831 15.4191 1.58405 15.5241 1.40791C15.6257 1.23178 15.7408 1.24532 15.8221 1.28597C15.8743 1.31475 15.9136 1.36208 15.9325 1.41856C15.9513 1.47504 15.9482 1.53653 15.9238 1.59083C15.8052 1.84487 15.3344 2.86106 14.6942 3.75869ZM15.1616 4.00258C15.4397 3.21818 15.7842 2.45893 16.1914 1.73309C16.3065 1.56712 16.4217 1.59083 16.503 1.63825C16.5519 1.67257 16.586 1.72408 16.5986 1.78248C16.6111 1.84089 16.6012 1.90188 16.5707 1.95327C16.4352 2.19038 15.8763 3.16253 15.1616 4.00258ZM15.602 4.28372C15.9465 3.52664 16.3568 2.80124 16.8282 2.11586C16.9569 1.96004 17.0687 1.99391 17.1432 2.04811C17.1892 2.08596 17.2192 2.13972 17.2274 2.19871C17.2355 2.25771 17.2212 2.31761 17.1872 2.36652C17.028 2.59347 16.3878 3.51142 15.602 4.28372ZM16.0152 4.60551C16.5572 3.64352 17.2821 2.69508 17.4277 2.54943C17.57 2.40716 17.6784 2.44781 17.7495 2.50878C17.8206 2.56975 17.8579 2.72218 17.7631 2.83396C17.5869 3.04397 16.8688 3.90435 16.0152 4.60551ZM16.4048 4.96118C16.8753 4.27525 17.4046 3.63151 17.9866 3.0372C18.1424 2.90848 18.2474 2.95929 18.3118 3.02365C18.3515 3.06935 18.3721 3.12848 18.3696 3.18893C18.3671 3.24939 18.3416 3.30659 18.2982 3.34883C17.7155 3.94198 17.0806 4.4816 16.4014 4.96118H16.4048ZM16.757 5.35072C17.4582 4.50051 18.3389 3.69095 18.5049 3.57578C18.6742 3.46061 18.7691 3.52158 18.83 3.58933C18.8654 3.63809 18.8809 3.69849 18.8734 3.75826C18.8658 3.81803 18.8358 3.87268 18.7894 3.91112C18.1551 4.4492 17.4751 4.9309 16.757 5.35072ZM17.0619 5.75042C17.6434 5.15444 18.2758 4.6104 18.952 4.12452C19.1281 4.0229 19.223 4.09403 19.2738 4.17194C19.328 4.24646 19.328 4.40228 19.206 4.48696C18.5311 4.97035 17.8147 5.39315 17.0653 5.75042H17.0619ZM17.3396 6.18399C17.97 5.64053 18.6467 5.15317 19.3619 4.72746C19.5448 4.64277 19.6328 4.72068 19.6803 4.79859C19.7243 4.8765 19.7141 5.0357 19.5854 5.11022C19.3483 5.24571 18.3795 5.81478 17.3396 6.18399ZM17.5971 6.67853C18.2757 6.19709 18.9942 5.77441 19.7446 5.41508C19.9343 5.34733 20.0156 5.43201 20.0529 5.5167C20.0738 5.57261 20.0729 5.63436 20.0503 5.68962C20.0277 5.74487 19.985 5.78957 19.9309 5.81478C19.1798 6.17064 18.3989 6.45967 17.5971 6.67853ZM17.7935 7.15614C18.5087 6.7322 19.2603 6.37285 20.0393 6.08237C20.2358 6.03156 20.3103 6.12302 20.3408 6.2077C20.3713 6.29238 20.3306 6.44481 20.1917 6.49562C19.4135 6.78657 18.611 7.00762 17.7935 7.15614ZM17.9494 7.66424C18.7014 7.3052 19.4835 7.01277 20.2866 6.79032C20.483 6.75644 20.5474 6.85129 20.5711 6.94274C20.5817 7.0009 20.5703 7.06092 20.5389 7.11105C20.5076 7.16118 20.4587 7.1978 20.4018 7.21373C20.1308 7.28825 19.0502 7.57617 17.9494 7.66085V7.66424ZM11.6354 3.20656C11.4123 2.40734 11.2592 1.59016 11.1782 0.764329C11.1782 0.561092 11.2832 0.517057 11.3746 0.506895C11.4353 0.505875 11.494 0.52813 11.5387 0.569083C11.5835 0.610036 11.6108 0.666575 11.6151 0.727069C11.6422 0.998052 11.7405 2.11586 11.6354 3.21334V3.20656ZM11.1138 3.27431C10.8216 2.496 10.5983 1.69351 10.4465 0.87611C10.4296 0.672872 10.5312 0.618676 10.6193 0.601739C10.6796 0.594831 10.7403 0.611362 10.7889 0.647919C10.8374 0.684477 10.8701 0.738272 10.8801 0.798202C10.9275 1.06919 11.124 2.17344 11.1138 3.27431ZM10.5956 3.38948C10.2357 2.63857 9.94215 1.85765 9.71824 1.05564C9.68437 0.855786 9.7826 0.791428 9.87067 0.767717C9.92928 0.75723 9.98969 0.769177 10.0399 0.801182C10.0901 0.833188 10.1264 0.88291 10.1417 0.940468C10.2162 1.20806 10.5075 2.28861 10.5956 3.38948ZM10.1078 3.54191C9.68591 2.82492 9.32775 2.07232 9.0374 1.29275C8.98659 1.09628 9.07805 1.02176 9.16273 0.991278C9.22067 0.974922 9.28267 0.981222 9.33614 1.0089C9.38961 1.03658 9.43055 1.08356 9.45065 1.14032C9.54549 1.40114 9.92826 2.4512 10.1078 3.54191ZM9.63356 3.73498C9.15058 3.05854 8.72781 2.34108 8.3701 1.59083C8.30236 1.39775 8.38365 1.31984 8.46833 1.28258C8.52466 1.26066 8.58723 1.26107 8.64327 1.28373C8.6993 1.3064 8.74456 1.34961 8.7698 1.40453C8.88497 1.65519 9.3558 2.67137 9.63018 3.74176L9.63356 3.73498ZM9.15257 3.98564C8.61086 3.35305 8.12574 2.67411 7.70281 1.95665C7.61812 1.77374 7.69265 1.68567 7.77055 1.64164C7.82478 1.61465 7.88728 1.60944 7.94523 1.62708C8.00318 1.64471 8.05218 1.68386 8.08218 1.73648C8.22106 1.97359 8.78335 2.94574 9.15257 3.98564ZM8.71222 4.2634C8.11828 3.67948 7.57651 3.04477 7.0931 2.36652C6.99148 2.19038 7.05922 2.09553 7.13713 2.04472C7.18882 2.01325 7.2506 2.00273 7.3098 2.01532C7.36899 2.02792 7.42113 2.06267 7.45554 2.11247C7.61474 2.33942 8.25494 3.25737 8.71222 4.2634ZM8.30236 4.56825C7.66063 4.03879 7.06669 3.45392 6.52742 2.82041C6.41225 2.65444 6.47322 2.5562 6.54436 2.49862C6.59312 2.46325 6.65352 2.44777 6.71329 2.45532C6.77306 2.46287 6.82771 2.49288 6.86615 2.53927C7.04229 2.74928 7.76039 3.60965 8.30236 4.57164V4.56825ZM7.90266 4.93069C7.21639 4.45932 6.57261 3.92888 5.97868 3.34544C5.84996 3.18963 5.90077 3.08462 5.96513 3.02026C6.01083 2.98061 6.06996 2.95992 6.13041 2.96244C6.19086 2.96496 6.24807 2.99049 6.29031 3.03381C6.48677 3.23028 7.2794 4.01951 7.90266 4.93069ZM7.55715 5.29991C6.83406 4.88862 6.14834 4.41485 5.50785 3.88402C5.36558 3.74176 5.40961 3.63336 5.47058 3.56223C5.51266 3.51987 5.56917 3.49495 5.62883 3.49243C5.68848 3.48992 5.74689 3.51001 5.79238 3.54868C6.00578 3.72482 6.85937 4.44631 7.55715 5.29991ZM7.22859 5.72332C6.47147 5.37751 5.74607 4.96608 5.06072 4.49373C4.90491 4.36163 4.93878 4.24985 4.99298 4.17533C5.03094 4.12842 5.08536 4.09775 5.14515 4.08956C5.20494 4.08138 5.2656 4.09631 5.31477 4.13129C5.99769 4.60544 6.63804 5.13813 7.22859 5.72332ZM6.93389 6.17722C6.14891 5.90195 5.38952 5.55852 4.66441 5.15087C4.49505 5.03231 4.51876 4.92053 4.56618 4.83924C4.59999 4.78978 4.65127 4.75494 4.70971 4.74175C4.76815 4.72855 4.82942 4.73797 4.8812 4.7681C5.12169 4.9036 6.09385 5.4625 6.93389 6.17722ZM6.68662 6.64127C5.61962 6.37029 4.51198 5.9164 4.33584 5.81478C4.16309 5.71316 4.17325 5.59799 4.2139 5.5167C4.24273 5.46374 4.29065 5.42376 4.34791 5.40488C4.40517 5.386 4.46747 5.38965 4.52214 5.41508C4.7728 5.53024 5.78899 6.00446 6.69001 6.64127H6.68662ZM6.49016 7.10872C5.66917 6.97054 4.86208 6.7597 4.07841 6.47868C3.8955 6.394 3.89888 6.27545 3.92937 6.19077C3.96324 6.10608 4.09196 6.01463 4.23084 6.06544C4.48827 6.16028 5.54172 6.54643 6.49016 7.10872Z" fill="#F31509"/>
<path fill-rule="evenodd" clip-rule="evenodd" d="M6.32079 7.63379C5.21993 7.54911 4.05131 7.29845 3.86162 7.22732C3.67193 7.15618 3.66177 7.0444 3.68548 6.95633C3.70492 6.89895 3.74558 6.85119 3.79912 6.82284C3.85266 6.7945 3.91502 6.78772 3.9734 6.80391C4.241 6.87165 5.32493 7.15957 6.32079 7.63379Z" fill="#F31509"/>
<path fill-rule="evenodd" clip-rule="evenodd" d="M3.26562 7.32556H21.1403V7.97931H3.26562V7.32556Z" fill="black"/>
</g>
</g>
<defs>
<clipPath id="clip0_720_53354">
<rect width="24.0044" height="24.0044" fill="white" transform="translate(0.026123 0.0524902)"/>
</clipPath>
</defs>
</svg>
