<svg width="25" height="25" viewBox="0 0 25 25" fill="none" xmlns="http://www.w3.org/2000/svg">
<g clip-path="url(#clip0_720_53353)">
<path d="M0.034668 0.0525513H24.039V24.0569H0.034668V0.0525513Z" fill="#D21034"/>
<path d="M6.03589 6.05365H18.0381V18.0558H6.03589V6.05365Z" fill="#007E3A"/>
<path d="M13.5373 16.0539C15.7459 16.0539 17.5364 14.2634 17.5364 12.0547C17.5364 9.84603 15.7459 8.05554 13.5373 8.05554C11.3286 8.05554 9.53809 9.84603 9.53809 12.0547C9.53809 14.2634 11.3286 16.0539 13.5373 16.0539Z" fill="white"/>
<path d="M14.503 16.0539C16.4165 16.0539 17.9677 14.2634 17.9677 12.0547C17.9677 9.84603 16.4165 8.05554 14.503 8.05554C12.5895 8.05554 11.0383 9.84603 11.0383 12.0547C11.0383 14.2634 12.5895 16.0539 14.503 16.0539Z" fill="#007E3A"/>
</g>
<defs>
<clipPath id="clip0_720_53353">
<rect width="24.0044" height="24.0044" fill="white" transform="translate(0.0349121 0.0524902)"/>
</clipPath>
</defs>
</svg>
