<svg width="24" height="25" viewBox="0 0 24 25" fill="none" xmlns="http://www.w3.org/2000/svg">
<g clip-path="url(#clip0_720_53373)">
<path d="M0.000244141 0.0568848H24.0046V24.0613H0.000244141V0.0568848Z" fill="white"/>
<path d="M12.0027 0.0569458H24.0049V24.0613H12.0027V0.0569458Z" fill="#CF142B"/>
<path d="M4.22846 2.57587H5.99326V4.25226C6.06024 4.2475 6.12938 4.25851 6.19531 4.28443C6.26124 4.31036 6.32218 4.35049 6.37341 4.40172C6.42464 4.45295 6.46478 4.5139 6.4907 4.57983C6.51662 4.64575 6.52763 4.71489 6.52288 4.78187H8.19926V6.54667H6.52288C6.52763 6.61364 6.51662 6.68278 6.4907 6.74871C6.46478 6.81464 6.42464 6.87559 6.37341 6.92682C6.32218 6.97805 6.26124 7.01818 6.19531 7.0441C6.12938 7.07003 6.06024 7.08104 5.99326 7.07628V8.75267H4.22846V7.07628C4.16149 7.08104 4.09235 7.07003 4.02642 7.0441C3.96049 7.01818 3.89954 6.97805 3.84831 6.92682C3.79708 6.87559 3.75695 6.81464 3.73103 6.74871C3.70511 6.68278 3.69409 6.61364 3.69885 6.54667H2.02246V4.78187H3.69885C3.69409 4.71489 3.70511 4.64575 3.73103 4.57983C3.75695 4.5139 3.79708 4.45295 3.84831 4.40172C3.89954 4.35049 3.96049 4.31036 4.02642 4.28443C4.09235 4.25851 4.16149 4.2475 4.22846 4.25226V2.57587Z" stroke="#CF142B" stroke-width="0.2206"/>
<path d="M5.98291 4.25304C6.05129 4.2465 6.12231 4.25655 6.19018 4.28238C6.25804 4.3082 6.32082 4.34907 6.37339 4.40164C6.42596 4.45421 6.46683 4.51699 6.49266 4.58486C6.51848 4.65272 6.52854 4.72375 6.522 4.79213V6.53625C6.52854 6.60463 6.51848 6.67566 6.49266 6.74352C6.46683 6.81139 6.42596 6.87417 6.37339 6.92674C6.32082 6.97931 6.25804 7.02017 6.19018 7.046C6.12231 7.07183 6.05129 7.08188 5.98291 7.07534H4.23879C4.1704 7.08188 4.09938 7.07183 4.03151 7.046C3.96365 7.02017 3.90087 6.97931 3.8483 6.92674C3.79573 6.87417 3.75486 6.81139 3.72903 6.74352C3.70321 6.67566 3.69315 6.60463 3.69969 6.53625V4.79213C3.69315 4.72375 3.70321 4.65272 3.72903 4.58486C3.75486 4.51699 3.79573 4.45421 3.8483 4.40164C3.90087 4.34907 3.96365 4.3082 4.03151 4.28238C4.09938 4.25655 4.1704 4.2465 4.23879 4.25304H5.98291Z" fill="white"/>
<path d="M4.23872 2.58618H5.98284V8.7423H4.23872V2.58618ZM2.03271 4.79218H8.18884V6.5363H2.03271V4.79218Z" fill="white" stroke="black" stroke-width="0.0206813"/>
<path d="M4.33857 2.6861H5.88277V8.6423H4.33857V2.6861ZM2.13257 4.8921H8.08877V6.4363H2.13257V4.8921Z" fill="white" stroke="black" stroke-width="0.0413625"/>
<path d="M5.11068 7.04296C5.87215 7.04296 6.48944 6.42568 6.48944 5.66421C6.48944 4.90275 5.87215 4.28546 5.11068 4.28546C4.34922 4.28546 3.73193 4.90275 3.73193 5.66421C3.73193 6.42568 4.34922 7.04296 5.11068 7.04296Z" fill="white" stroke="black" stroke-width="0.0413625"/>
<path d="M5.11036 6.68348C5.67357 6.68348 6.13014 6.22691 6.13014 5.6637C6.13014 5.10049 5.67357 4.64392 5.11036 4.64392C4.54715 4.64392 4.09058 5.10049 4.09058 5.6637C4.09058 6.22691 4.54715 6.68348 5.11036 6.68348Z" fill="white" stroke="black" stroke-width="0.0413625"/>
<path d="M6.43966 4.55893C6.39186 4.59554 6.30099 4.68899 6.24587 4.75746L6.19462 4.72559C6.26482 4.66487 6.36214 4.57486 6.41598 4.5107L6.43966 4.55893ZM6.39617 4.47926C6.30961 4.50467 6.14424 4.55333 6.07361 4.59812L6.05811 4.57573C6.08782 4.53309 6.12141 4.35782 6.12012 4.30786L6.17395 4.31992C6.15629 4.36298 6.13907 4.45514 6.13433 4.515C6.18988 4.5051 6.32166 4.46203 6.35913 4.4349L6.39617 4.47926Z" fill="white" stroke="black" stroke-width="0.0206813" stroke-linejoin="round"/>
<path d="M6.50715 4.67651H6.43885C6.44495 4.64045 6.43515 4.59528 6.41104 4.54832C6.38692 4.50136 6.3499 4.45536 6.30597 4.41778C6.26204 4.3802 6.21378 4.35324 6.169 4.34127C6.12423 4.3293 6.08557 4.33301 6.05928 4.35181C6.03299 4.37061 6.02062 4.4034 6.02417 4.44486C6.02772 4.48632 6.04698 4.53402 6.07883 4.58024C6.11068 4.62645 6.15326 4.66848 6.19966 4.6995C6.24607 4.73052 6.29358 4.74872 6.3345 4.75115L6.38278 4.69357L6.44225 4.75304L6.37571 4.81953C6.31366 4.81031 6.2526 4.78802 6.19665 4.75417C6.1407 4.72032 6.09117 4.6757 6.0514 4.62332C6.01164 4.57094 5.98256 4.51203 5.96614 4.45056C5.94972 4.38909 5.94633 4.3265 5.95622 4.26701C6.0149 4.25726 6.07661 4.26042 6.13729 4.27628C6.19798 4.29213 6.25626 4.32033 6.3083 4.35901C6.36034 4.3977 6.40497 4.44599 6.43924 4.50071C6.47351 4.55543 6.49666 4.61535 6.50715 4.67651Z" fill="white" stroke="black" stroke-width="0.0206813" stroke-linejoin="round"/>
<path d="M6.21597 6.99276C6.17937 6.94496 6.08592 6.85409 6.01744 6.79897L6.04931 6.74772C6.11003 6.81792 6.20004 6.91525 6.2642 6.96908L6.21597 6.99276ZM6.29564 6.94927C6.27023 6.86271 6.22157 6.69734 6.17678 6.62671L6.19918 6.61121C6.24181 6.64092 6.41709 6.67451 6.46704 6.67322L6.45498 6.72705C6.41192 6.70939 6.31976 6.69217 6.2599 6.68743C6.2698 6.74299 6.31287 6.87476 6.34 6.91223L6.29564 6.94927Z" fill="white" stroke="black" stroke-width="0.0206813" stroke-linejoin="round"/>
<path d="M6.09839 7.06025V6.99195C6.13445 6.99805 6.17963 6.98825 6.22659 6.96414C6.27355 6.94002 6.31954 6.903 6.35712 6.85907C6.3947 6.81514 6.42166 6.76688 6.43363 6.7221C6.44561 6.67733 6.44189 6.63867 6.42309 6.61238C6.40429 6.58609 6.3715 6.57372 6.33004 6.57727C6.28858 6.58082 6.24088 6.60008 6.19466 6.63193C6.14845 6.66378 6.10643 6.70636 6.07541 6.75276C6.04439 6.79917 6.02619 6.84668 6.02376 6.8876L6.08133 6.93588L6.02186 6.99535L5.95537 6.92881C5.96459 6.86676 5.98688 6.8057 6.02073 6.74975C6.05458 6.6938 6.0992 6.64427 6.15158 6.6045C6.20396 6.56474 6.26287 6.53566 6.32434 6.51924C6.38581 6.50282 6.4484 6.49943 6.50789 6.50932C6.51764 6.568 6.51448 6.62971 6.49863 6.6904C6.48277 6.75108 6.45457 6.80936 6.41589 6.8614C6.37721 6.91344 6.32892 6.95807 6.27419 6.99234C6.21947 7.02661 6.15955 7.04976 6.09839 7.06025Z" fill="white" stroke="black" stroke-width="0.0206813" stroke-linejoin="round"/>
<path d="M3.78202 6.76956C3.82982 6.73296 3.92069 6.6395 3.97581 6.57103L4.02706 6.6029C3.95686 6.66362 3.85953 6.75363 3.8057 6.81779L3.78202 6.76956ZM3.82551 6.84923C3.91207 6.82382 4.07744 6.77516 4.14807 6.73037L4.16357 6.75277C4.13386 6.7954 4.10027 6.97067 4.10156 7.02063L4.04773 7.00857C4.06539 6.96551 4.08261 6.87335 4.08735 6.81349C4.0318 6.82339 3.90002 6.86646 3.86255 6.89359L3.82551 6.84923Z" fill="white" stroke="black" stroke-width="0.0206813" stroke-linejoin="round"/>
<path d="M3.71453 6.65198H3.78283C3.77673 6.68804 3.78653 6.73321 3.81064 6.78017C3.83476 6.82713 3.87178 6.87313 3.91571 6.91071C3.95964 6.94829 4.0079 6.97525 4.05268 6.98722C4.09745 6.99919 4.13611 6.99548 4.1624 6.97668C4.18869 6.95788 4.20106 6.92509 4.19751 6.88363C4.19396 6.84217 4.1747 6.79447 4.14285 6.74825C4.111 6.70204 4.06842 6.66001 4.02202 6.62899C3.97561 6.59798 3.9281 6.57978 3.88718 6.57735L3.8389 6.63492L3.77943 6.57545L3.84597 6.50896C3.90802 6.51818 3.96908 6.54047 4.02503 6.57432C4.08098 6.60817 4.13051 6.65279 4.17028 6.70517C4.21004 6.75755 4.23912 6.81646 4.25554 6.87793C4.27196 6.9394 4.27535 7.00199 4.26546 7.06148C4.20678 7.07123 4.14507 7.06807 4.08438 7.05222C4.0237 7.03636 3.96542 7.00816 3.91338 6.96948C3.86134 6.9308 3.81671 6.8825 3.78244 6.82778C3.74817 6.77306 3.72502 6.71314 3.71453 6.65198Z" fill="white" stroke="black" stroke-width="0.0206813" stroke-linejoin="round"/>
<path d="M4.00546 4.33561C4.04207 4.38341 4.13552 4.47428 4.20399 4.5294L4.17213 4.58065C4.1114 4.51045 4.0214 4.41312 3.95723 4.35929L4.00546 4.33561ZM3.92579 4.3791C3.9512 4.46566 3.99987 4.63103 4.04465 4.70166L4.02226 4.71716C3.97962 4.68745 3.80435 4.65386 3.75439 4.65515L3.76645 4.60132C3.80952 4.61897 3.90168 4.6362 3.96154 4.64094C3.95163 4.58538 3.90857 4.4536 3.88144 4.41614L3.92579 4.3791Z" fill="white" stroke="black" stroke-width="0.0206813" stroke-linejoin="round"/>
<path d="M4.12305 4.26812V4.33642C4.08698 4.33032 4.04181 4.34011 3.99485 4.36423C3.94789 4.38835 3.90189 4.42537 3.86432 4.4693C3.82674 4.51323 3.79978 4.56149 3.7878 4.60626C3.77583 4.65104 3.77954 4.6897 3.79835 4.71599C3.81715 4.74228 3.84993 4.75465 3.89139 4.7511C3.93285 4.74755 3.98055 4.72829 4.02677 4.69644C4.07299 4.66459 4.11501 4.62201 4.14603 4.5756C4.17705 4.5292 4.19525 4.48169 4.19768 4.44077L4.1401 4.39249L4.19957 4.33302L4.26607 4.39956C4.25684 4.46161 4.23455 4.52267 4.2007 4.57862C4.16685 4.63457 4.12223 4.6841 4.06985 4.72386C4.01748 4.76363 3.95856 4.79271 3.89709 4.80913C3.83563 4.82555 3.77303 4.82893 3.71354 4.81905C3.70379 4.76037 3.70695 4.69866 3.72281 4.63797C3.73867 4.57729 3.76686 4.51901 3.80555 4.46697C3.84423 4.41493 3.89252 4.3703 3.94724 4.33603C4.00197 4.30176 4.06188 4.27861 4.12305 4.26812Z" fill="white" stroke="black" stroke-width="0.0206813" stroke-linejoin="round"/>
<path d="M4.01541 6.43536C3.98439 6.38107 3.94345 6.3117 3.92105 6.29361C3.93484 6.28413 3.95336 6.27034 3.96284 6.26775C3.96241 6.30222 4.01455 6.37374 4.01455 6.37374L4.09124 6.32333C4.0697 6.29016 4.05074 6.26474 4.03523 6.25483C4.05419 6.24104 4.07444 6.22941 4.08004 6.22811C4.08047 6.24492 4.09038 6.27292 4.11968 6.30739C4.11968 6.30739 4.1912 6.26948 4.21447 6.24018L4.24463 6.2893C4.21102 6.29576 4.06022 6.38969 4.01541 6.43536ZM3.90899 5.78174C3.82841 5.79639 3.78748 5.8649 3.80127 5.94202C3.81506 6.02001 3.88486 6.07344 3.96155 6.06051C4.03824 6.04715 4.08176 5.97649 4.06711 5.89463C4.05246 5.81277 3.98956 5.76709 3.90899 5.78174ZM3.92062 5.82828C3.98525 5.81664 4.03954 5.8481 4.04858 5.89808C4.05763 5.94806 4.01756 5.9976 3.9525 6.00924C3.88744 6.02087 3.83574 5.97951 3.82841 5.93772C3.82066 5.89506 3.85556 5.83991 3.92062 5.82828ZM4.07831 5.35433C4.0516 5.39656 3.99257 5.43533 3.94044 5.47109C3.93311 5.43404 3.90554 5.41034 3.87366 5.40819C3.83962 5.40647 3.80472 5.43361 3.79869 5.45171C3.79007 5.4767 3.7793 5.58398 3.7793 5.58398C3.84651 5.57881 3.99343 5.59044 4.04384 5.60897L4.04988 5.5521C4.0167 5.56071 3.94173 5.5452 3.94173 5.5452L3.94345 5.52021L4.02101 5.45903C4.03092 5.45127 4.08908 5.39699 4.09081 5.35821C4.09124 5.34614 4.0809 5.34916 4.07831 5.35433ZM3.92277 5.54434C3.89218 5.5452 3.82841 5.54176 3.81075 5.534C3.81764 5.47239 3.8366 5.45041 3.86935 5.45343C3.89951 5.45644 3.93139 5.47368 3.92277 5.54434ZM4.21662 4.78086C4.15802 4.7856 4.08478 4.84075 4.0865 4.88814C4.08693 4.91313 4.09555 4.9476 4.12872 4.97259C4.16147 4.99758 4.19551 5.0049 4.22265 4.99973C4.24893 4.99499 4.29245 4.95837 4.29202 4.93812C4.29202 4.9183 4.24549 4.86315 4.21619 4.86315L4.26488 4.81102C4.27737 4.84118 4.32735 4.88512 4.34588 4.89073C4.32477 4.94114 4.29848 4.9937 4.24333 5.01912C4.18818 5.04497 4.13088 5.04368 4.07874 4.99456C4.02963 4.94803 4.04858 4.85841 4.07961 4.82351C4.11364 4.78517 4.17698 4.76879 4.17827 4.73906L4.21662 4.78086ZM4.49151 4.49089L4.50185 4.6865C4.50185 4.6865 4.50573 4.75587 4.48978 4.79895L4.55054 4.7563C4.52684 4.73734 4.53158 4.67917 4.53158 4.67917L4.62981 4.62661C4.62981 4.62661 4.67635 4.65634 4.67161 4.69253L4.75519 4.65849C4.70651 4.63997 4.64619 4.59731 4.64619 4.59731L4.49151 4.49089ZM4.52296 4.55164L4.61258 4.6111L4.52511 4.65806L4.52296 4.55164ZM4.96158 4.34741C4.95037 4.39524 4.96244 4.4896 4.9801 4.56801C5.04085 4.56241 5.08739 4.55638 5.10807 4.53053L5.11367 4.59516C5.05378 4.59516 4.98786 4.60205 4.92754 4.61153C4.9284 4.5232 4.91935 4.4073 4.89436 4.35732L4.96158 4.34741ZM5.41786 4.37628C5.38985 4.41678 5.36658 4.50898 5.35452 4.58826C5.41312 4.6055 5.45879 4.6167 5.48766 4.5999L5.46913 4.66237C5.41355 4.64083 5.34935 4.62273 5.28989 4.60937C5.32264 4.52794 5.35667 4.41635 5.35193 4.3612L5.41786 4.37628ZM5.87931 4.58525L5.70869 4.68219C5.70869 4.68219 5.64837 4.71709 5.60269 4.72226L5.66775 4.75673C5.67422 4.72743 5.72851 4.70546 5.72851 4.70546L5.81985 4.76965C5.81985 4.76965 5.81382 4.82524 5.77935 4.83687L5.84699 4.89633C5.84225 4.84462 5.85302 4.77095 5.85302 4.77095L5.87931 4.58525ZM5.83881 4.6404L5.82545 4.74768L5.74402 4.69038L5.83881 4.6404ZM5.96979 5.04196L5.94307 4.99155C5.98702 4.9881 6.1193 4.91055 6.18005 4.87091L6.18953 4.88814L6.13265 5.14795C6.18349 5.1277 6.26406 5.08547 6.28604 5.06221L6.3162 5.11951C6.25976 5.11133 6.15506 5.16303 6.07578 5.21129L6.06802 5.1975L6.11671 4.94458C6.11671 4.94458 5.9853 5.00404 5.96979 5.04196ZM6.37049 5.41767C6.36532 5.37932 6.36445 5.35304 6.34593 5.34442L6.34377 5.32848L6.39074 5.32072C6.41013 5.37113 6.4321 5.51159 6.42908 5.54779L6.38083 5.55554L6.37867 5.54219C6.39461 5.52409 6.37867 5.45774 6.37867 5.45774C6.30715 5.46506 6.18263 5.48531 6.16497 5.50987L6.15376 5.44352C6.17918 5.45214 6.30457 5.43878 6.37049 5.41767ZM6.13912 5.98813C6.16583 5.9459 6.22572 5.90755 6.27785 5.87222C6.28518 5.90928 6.31232 5.93341 6.34464 5.93513C6.37867 5.93728 6.41357 5.911 6.4196 5.89247C6.42865 5.86748 6.43986 5.76063 6.43986 5.76063C6.37264 5.76494 6.22615 5.75245 6.17574 5.73349L6.16928 5.79036C6.20245 5.78217 6.27742 5.79769 6.27742 5.79769L6.2757 5.82268L6.19771 5.88343C6.18737 5.89118 6.12877 5.94504 6.12662 5.98382C6.12619 5.99588 6.13653 5.99243 6.13912 5.98813ZM6.29638 5.79898C6.32697 5.79855 6.39074 5.80243 6.4084 5.81018C6.40108 5.87179 6.38169 5.89377 6.34894 5.89032C6.31878 5.88687 6.28733 5.86964 6.29638 5.79898ZM6.05251 6.15918L6.01244 6.22811C6.04346 6.22338 6.08655 6.24793 6.12145 6.27077C6.13308 6.30179 6.17875 6.38107 6.17531 6.45862L6.22701 6.36987C6.20417 6.35953 6.17746 6.34832 6.16023 6.26517C6.2283 6.23975 6.27914 6.23156 6.30069 6.24363L6.34636 6.16607C6.29336 6.19795 6.16884 6.2307 6.14816 6.22381C6.12662 6.21131 6.06544 6.19235 6.05251 6.15918Z" fill="black"/>
<path d="M5.74546 6.7347C5.77505 6.7347 5.79903 6.71072 5.79903 6.68113C5.79903 6.65155 5.77505 6.62756 5.74546 6.62756C5.71588 6.62756 5.69189 6.65155 5.69189 6.68113C5.69189 6.71072 5.71588 6.7347 5.74546 6.7347Z" fill="black"/>
<path d="M4.47447 6.7347C4.50405 6.7347 4.52804 6.71072 4.52804 6.68113C4.52804 6.65155 4.50405 6.62756 4.47447 6.62756C4.44488 6.62756 4.4209 6.65155 4.4209 6.68113C4.4209 6.71072 4.44488 6.7347 4.47447 6.7347Z" fill="black"/>
<path d="M5.19432 6.97982C5.18872 6.9837 5.17365 6.97595 5.1702 6.96389C5.1702 6.96776 5.16934 6.97982 5.16202 6.98671C5.14437 7.00351 5.12542 6.99533 5.11034 6.99533C5.09527 6.99533 5.07632 7.00351 5.05867 6.98671C5.05135 6.97982 5.05048 6.96776 5.05048 6.96389C5.04704 6.97595 5.03197 6.9837 5.02637 6.97982C5.0212 6.97595 5.02378 6.95915 5.03412 6.95226C5.03067 6.95312 5.01862 6.95614 5.01 6.9514C4.98847 6.93977 4.99062 6.9191 4.98589 6.90489C4.98115 6.89068 4.96737 6.87517 4.97813 6.85321C4.98244 6.84417 4.99364 6.83943 4.99708 6.83814C4.98459 6.83857 4.97297 6.82651 4.97469 6.82048C4.97684 6.81402 4.99364 6.81144 5.00354 6.81919C5.00096 6.81618 4.99493 6.80584 4.99665 6.79593C5.00096 6.77182 5.0212 6.76751 5.03326 6.75847C5.04575 6.74942 5.05608 6.73177 5.0802 6.73521C5.0901 6.7365 5.09786 6.74555 5.10044 6.74856C5.09613 6.73694 5.10388 6.72186 5.11034 6.72186C5.1168 6.72186 5.12456 6.73694 5.12025 6.74856C5.12283 6.74555 5.13058 6.7365 5.14049 6.73521C5.16461 6.73177 5.17494 6.74942 5.18743 6.75847C5.19949 6.76751 5.21973 6.77182 5.22404 6.79593C5.22576 6.80584 5.21973 6.81618 5.21715 6.81919C5.22705 6.81144 5.24385 6.81402 5.246 6.82048C5.24772 6.82651 5.23609 6.83857 5.22361 6.83814C5.22705 6.83943 5.23825 6.84417 5.24255 6.85321C5.25332 6.87517 5.23954 6.89068 5.2348 6.90489C5.23007 6.9191 5.23222 6.93977 5.21069 6.9514C5.20207 6.95614 5.19001 6.95312 5.18657 6.95226C5.19691 6.95915 5.19949 6.97595 5.19432 6.97982ZM5.07029 6.91953C5.07718 6.9247 5.05867 6.9402 5.06599 6.95958C5.07417 6.98241 5.09699 6.97552 5.11034 6.97552C5.12369 6.97552 5.14652 6.98241 5.1547 6.95958C5.16202 6.9402 5.1435 6.9247 5.15039 6.91953C5.15729 6.91436 5.16676 6.93676 5.187 6.93633C5.21155 6.93503 5.21198 6.91178 5.21585 6.89886C5.22016 6.88594 5.23394 6.86656 5.21456 6.85149C5.19863 6.83857 5.17753 6.85149 5.17494 6.84331C5.17236 6.83512 5.19647 6.8334 5.2025 6.81359C5.20896 6.78991 5.18657 6.78258 5.1758 6.7744C5.16461 6.76665 5.15039 6.7477 5.13015 6.76105C5.11336 6.77268 5.11896 6.79637 5.11034 6.79637C5.10173 6.79637 5.10733 6.77268 5.09053 6.76105C5.07029 6.7477 5.05608 6.76665 5.04489 6.7744C5.03412 6.78258 5.01173 6.78991 5.01819 6.81359C5.02421 6.8334 5.04833 6.83512 5.04575 6.84331C5.04316 6.85149 5.02206 6.83857 5.00613 6.85149C4.98675 6.86656 5.00053 6.88594 5.00483 6.89886C5.00871 6.91178 5.00914 6.93503 5.03369 6.93633C5.05393 6.93676 5.0634 6.91436 5.07029 6.91953Z" fill="black"/>
<path d="M5.10983 6.9493C5.10597 6.9493 5.10126 6.9403 5.10383 6.93301C5.10254 6.93515 5.09783 6.9403 5.09183 6.94115C5.07726 6.9433 5.07126 6.93258 5.06397 6.92744C5.05669 6.92187 5.04469 6.9193 5.04212 6.90515C5.04083 6.89915 5.04469 6.89273 5.04597 6.89101C5.03997 6.89573 5.03012 6.89401 5.02883 6.89015C5.02754 6.88673 5.03483 6.87944 5.04212 6.87944C5.03997 6.87901 5.03354 6.87601 5.03097 6.87087C5.02454 6.85758 5.03269 6.84858 5.03569 6.84001C5.03826 6.83144 5.03697 6.81901 5.04983 6.81216C5.05497 6.80916 5.06226 6.81087 5.0644 6.81173C5.05797 6.80744 5.05669 6.79759 5.05969 6.79501C5.06311 6.79287 5.07211 6.79759 5.07426 6.80444C5.07426 6.8023 5.07469 6.79501 5.07897 6.79116C5.08969 6.78087 5.10083 6.78601 5.10983 6.78601C5.11883 6.78601 5.12997 6.78087 5.14068 6.79116C5.14497 6.79501 5.1454 6.8023 5.1454 6.80444C5.14754 6.79759 5.15654 6.79287 5.15997 6.79501C5.16297 6.79759 5.16168 6.80744 5.15526 6.81173C5.1574 6.81087 5.16468 6.80916 5.16983 6.81216C5.18268 6.81901 5.1814 6.83144 5.18397 6.84001C5.18697 6.84858 5.19511 6.85758 5.18868 6.87087C5.18611 6.87601 5.17968 6.87901 5.17754 6.87944C5.18483 6.87944 5.19211 6.88673 5.19083 6.89015C5.18954 6.89401 5.17968 6.89573 5.17368 6.89101C5.17497 6.89273 5.17883 6.89915 5.17754 6.90515C5.17497 6.9193 5.16297 6.92187 5.15568 6.92744C5.1484 6.93258 5.1424 6.9433 5.12783 6.94115C5.12183 6.9403 5.11711 6.93515 5.11583 6.93301C5.1184 6.9403 5.11368 6.9493 5.10983 6.9493ZM5.10983 6.90044C5.11454 6.90044 5.11154 6.9133 5.12054 6.9193C5.13126 6.92658 5.13897 6.91673 5.14497 6.91244C5.15097 6.90815 5.16297 6.90387 5.15911 6.89144C5.15611 6.88073 5.14326 6.87987 5.14454 6.87516C5.14583 6.87087 5.15697 6.87773 5.16597 6.87087C5.17625 6.86273 5.16897 6.85244 5.16683 6.84558C5.16425 6.83873 5.16425 6.82587 5.15097 6.82544C5.13983 6.82501 5.13511 6.83701 5.13126 6.83444C5.1274 6.83187 5.13768 6.8233 5.13383 6.81301C5.12911 6.80059 5.11711 6.80444 5.10983 6.80444C5.10254 6.80444 5.09054 6.80059 5.08583 6.81301C5.08197 6.8233 5.09226 6.83187 5.0884 6.83444C5.08454 6.83701 5.07983 6.82501 5.06869 6.82544C5.0554 6.82587 5.0554 6.83873 5.05283 6.84558C5.05069 6.85244 5.0434 6.86273 5.05369 6.87087C5.06269 6.87773 5.07383 6.87087 5.07511 6.87516C5.0764 6.87987 5.06354 6.88073 5.06054 6.89144C5.05669 6.90387 5.06869 6.90815 5.07469 6.91244C5.08069 6.91673 5.0884 6.92658 5.09911 6.9193C5.10811 6.9133 5.10511 6.90044 5.10983 6.90044Z" fill="black"/>
<path d="M5.11041 6.88489C5.12178 6.88489 5.13099 6.87568 5.13099 6.86432C5.13099 6.85296 5.12178 6.84375 5.11041 6.84375C5.09905 6.84375 5.08984 6.85296 5.08984 6.86432C5.08984 6.87568 5.09905 6.88489 5.11041 6.88489Z" fill="black"/>
<path d="M4.40698 6.40498C4.87384 6.386 5.34127 6.386 5.80812 6.40498" stroke="black" stroke-width="0.0187534" stroke-linecap="round" stroke-linejoin="round"/>
<path d="M5.05371 5.15771L5.0912 5.20458M5.14743 5.7669L5.15212 5.86063M5.0584 5.7669C5.07246 5.78565 5.0912 5.8372 5.0912 5.86063" stroke="black" stroke-width="0.00937671" stroke-linecap="round" stroke-linejoin="round"/>
<path d="M5.34901 6.39999C5.33495 6.40467 5.30215 6.42342 5.30215 6.43748C5.30215 6.45154 5.33964 6.45154 5.34901 6.45622C5.33027 6.46559 5.27403 6.47497 5.24592 6.46091C5.22717 6.47497 5.09128 6.44216 5.06316 6.44216C5.05241 6.43997 5.04278 6.43408 5.03593 6.42552C5.02908 6.41696 5.02545 6.40627 5.02567 6.3953C5.02567 6.38281 5.03348 6.37187 5.0491 6.3625C5.03973 6.34844 5.0819 6.31564 5.11939 6.29689C5.05847 6.30158 4.97881 6.27815 4.96007 6.25472C4.91945 6.2391 4.89134 6.25316 4.87572 6.29689C4.86947 6.36875 4.83979 6.39999 4.78668 6.39062C4.75856 6.39374 4.74294 6.39999 4.73982 6.40936L4.83354 6.43748C4.89915 6.4984 4.86166 6.54526 4.8476 6.55463C4.82886 6.564 4.80542 6.56556 4.77731 6.55931C4.76169 6.55931 4.75232 6.564 4.74919 6.57337C4.73045 6.57962 4.71795 6.57962 4.7117 6.57337C4.7117 6.56869 4.72108 6.52651 4.74919 6.52651C4.76325 6.52183 4.79137 6.51245 4.79605 6.4984C4.80074 6.48434 4.73982 6.48902 4.70233 6.47028C4.66484 6.46716 4.65235 6.43904 4.66484 6.38593C4.67421 6.3297 4.74451 6.32033 4.77731 6.32033C4.77731 6.29689 4.77731 6.25003 4.81011 6.2266C4.85697 6.17974 4.92726 6.1938 4.98818 6.19849C5.03853 6.17047 5.09465 6.15444 5.15219 6.15163C5.20843 6.14694 5.46148 6.08134 5.57394 6.09539C5.55051 6.05322 5.5552 5.96418 5.60206 5.93607C5.66298 5.90326 5.72858 5.99699 5.74264 5.98293C5.75201 5.96418 5.73014 5.9345 5.67704 5.89389L5.67235 5.87046L5.67704 5.83297C5.68172 5.83297 5.71921 5.84234 5.7239 5.8564C5.73639 5.87515 5.75045 5.87983 5.76607 5.87046C5.78013 5.86109 5.76138 5.86578 5.75201 5.83766L5.73795 5.80486C5.74733 5.79548 5.78482 5.76737 5.80825 5.758L5.83168 5.79548C5.85511 5.82829 5.87854 5.81891 5.88791 5.84235C5.88791 5.85484 5.89259 5.87046 5.90197 5.88921C5.926 5.93376 5.96162 5.97099 6.00506 5.99699C6.01443 6.00323 6.02068 6.01104 6.02381 6.02042L6.01443 6.04853H5.96757C5.93633 6.02979 5.91603 6.02198 5.90665 6.0251C5.85979 6.02979 5.83636 6.09539 5.78013 6.09539C5.7239 6.08602 5.68641 6.01104 5.65829 6.03447C5.63017 6.0579 5.73327 6.12351 5.71921 6.15163C5.73171 6.161 5.73795 6.17662 5.73795 6.19849C5.79419 6.18911 5.83168 6.15163 5.85042 6.12351C5.87541 6.0829 5.89728 6.05947 5.91603 6.05322C5.93789 6.05009 5.95039 6.05634 5.95351 6.07196L5.98163 6.07665C5.99413 6.08602 5.99413 6.09696 5.98163 6.10945L5.96757 6.10008C5.9582 6.10008 5.94727 6.10477 5.93477 6.11414L5.90197 6.16568L5.84105 6.2266L5.84573 6.27346L5.86448 6.27815V6.30158C5.86448 6.31564 5.81293 6.37656 5.79419 6.37656C5.77076 6.37656 5.7567 6.34844 5.7567 6.33907C5.73327 6.34844 5.71921 6.32032 5.71921 6.31095C5.70984 6.32501 5.67235 6.34376 5.65829 6.34844C5.64579 6.35781 5.63798 6.35469 5.63486 6.33907C5.63017 6.35313 5.59269 6.3625 5.588 6.36719L5.44742 6.3953L5.34901 6.39999Z" fill="white" stroke="black" stroke-width="0.0140651" stroke-linecap="round" stroke-linejoin="round"/>
<path d="M5.50387 5.98293C5.50387 6.00167 5.48044 6.04385 5.51793 6.07665C5.54917 6.09227 5.57416 6.11101 5.59291 6.13288C5.59603 6.15788 5.59291 6.17193 5.58354 6.17506C5.56011 6.16569 5.5273 6.20786 5.51793 6.23598C5.50387 6.19849 5.47576 6.20786 5.44295 6.21255C5.4492 6.17193 5.42421 6.14694 5.36798 6.13757C5.36798 6.1282 5.36173 6.11726 5.34923 6.10477C5.33517 6.09539 5.293 6.10477 5.293 6.09539C5.28831 6.08602 5.31174 6.06728 5.29769 6.04853C5.28831 6.02979 5.23677 6.03916 5.22271 6.03448C5.22583 6.01261 5.22427 5.99386 5.21802 5.97824C5.20396 5.95481 5.15242 5.96418 5.1243 5.9595C5.14929 5.94075 5.15554 5.91889 5.14305 5.89389C5.13367 5.87046 5.07275 5.89858 5.07275 5.86578C5.07275 5.85172 5.14305 5.84235 5.16648 5.84235L5.3586 5.87983C5.37735 5.89389 5.50387 5.93138 5.50387 5.98293Z" fill="white" stroke="black" stroke-width="0.00937671" stroke-linecap="round" stroke-linejoin="round"/>
<path d="M5.71949 6.31114C5.7601 6.29239 5.80071 6.26427 5.84133 6.22679M5.09155 6.19867C5.12436 6.19867 5.20402 6.21273 5.22745 6.24084C5.25088 6.26896 5.26494 6.32051 5.1103 6.358C5.15716 6.358 5.22276 6.34862 5.25088 6.358C5.26962 6.34862 5.32117 6.33457 5.3446 6.33925C5.33523 6.34394 5.30711 6.35331 5.30711 6.36737C5.30711 6.38143 5.31648 6.38611 5.33992 6.3908M5.48987 6.2877C5.5461 6.29708 5.62108 6.28302 5.63045 6.33925" stroke="black" stroke-width="0.0140651" stroke-linecap="round" stroke-linejoin="round"/>
<path d="M5.67254 5.84699L5.7522 5.90791C5.78344 5.92665 5.78969 5.91259 5.77095 5.86573M5.29297 6.09535C5.34451 6.08129 5.42418 6.07192 5.47104 6.07192M5.22268 6.03443C5.30702 6.011 5.40075 6.02037 5.46167 6.02037M5.44761 6.20782C5.46323 6.18595 5.48978 6.16252 5.52727 6.13753M5.36794 6.13753L5.4851 6.10004M5.35857 5.87979C5.40543 5.83293 5.46166 5.83762 5.51321 5.81419C5.54133 5.78919 5.57101 5.75795 5.60225 5.72047C5.61162 5.70797 5.63193 5.70172 5.66317 5.70172C5.71003 5.70485 5.7069 5.71266 5.65379 5.72515C5.62099 5.72515 5.62099 5.7439 5.60693 5.77201C5.60069 5.79388 5.60225 5.81575 5.61162 5.83762L5.58819 5.90322L5.60225 5.93134M5.12427 5.95946C5.24611 5.93134 5.41949 5.9782 5.45229 5.9782" stroke="black" stroke-width="0.00937671" stroke-linecap="round" stroke-linejoin="round"/>
<path d="M5.86042 6.15159C5.90259 6.12816 5.90259 6.08599 5.95414 6.07193M5.75732 6.33904C5.80887 6.31561 5.81824 6.29217 5.85105 6.27343M5.88385 5.96415C5.86042 5.96415 5.85573 5.9454 5.8323 5.94072C5.80731 5.94072 5.79325 5.95009 5.79013 5.96884C5.787 5.98758 5.79794 5.99695 5.82293 5.99695L5.88385 5.99227M5.7667 5.77671C5.79169 5.77983 5.81043 5.77671 5.82293 5.76733M5.86979 5.87043C5.86979 5.87043 5.85573 5.87043 5.85105 5.86106C5.84167 5.85481 5.84011 5.847 5.84636 5.83763L5.8651 5.84231C5.8776 5.85481 5.87916 5.86418 5.86979 5.87043Z" stroke="black" stroke-width="0.00468835" stroke-linecap="round" stroke-linejoin="round"/>
<path d="M5.13367 5.37798C5.13297 5.37858 5.13217 5.37886 5.13129 5.37882C5.13042 5.37878 5.12949 5.37841 5.12856 5.37774C5.12764 5.37707 5.12673 5.37611 5.1259 5.37492C5.12507 5.37372 5.12432 5.37231 5.1237 5.37078C5.12309 5.36924 5.12262 5.3676 5.12231 5.36595C5.12201 5.3643 5.12188 5.36268 5.12194 5.36117C5.12199 5.35967 5.12223 5.35831 5.12263 5.35717C5.12304 5.35603 5.1236 5.35515 5.1243 5.35455C5.12181 5.35455 5.11943 5.35357 5.11767 5.35181C5.11591 5.35005 5.11492 5.34767 5.11492 5.34518C5.11492 5.3427 5.11591 5.34031 5.11767 5.33855C5.11943 5.3368 5.12181 5.33581 5.1243 5.33581C5.12327 5.33738 5.1218 5.33791 5.1202 5.33726C5.11859 5.33662 5.117 5.33486 5.11575 5.33237C5.11451 5.32989 5.11372 5.32688 5.11357 5.32401C5.11341 5.32114 5.1139 5.31864 5.11492 5.31706C5.11337 5.3174 5.11164 5.31649 5.11011 5.31453C5.10857 5.31257 5.10736 5.30972 5.10674 5.30662C5.10643 5.30508 5.10628 5.30352 5.10629 5.30204C5.1063 5.30055 5.10647 5.29917 5.10679 5.29796C5.10745 5.29553 5.10869 5.29397 5.11024 5.29363C5.10904 5.29421 5.10765 5.29378 5.10636 5.29243C5.10508 5.29108 5.10401 5.28892 5.10339 5.28644C5.10276 5.28395 5.10264 5.28134 5.10305 5.27917C5.10346 5.27701 5.10436 5.27547 5.10555 5.27489C5.10391 5.27425 5.10233 5.2724 5.10117 5.26975C5.10001 5.26709 5.09935 5.26386 5.09935 5.26075C5.09935 5.25765 5.10001 5.25492 5.10117 5.25318C5.10233 5.25144 5.10391 5.25082 5.10555 5.25146C5.10448 5.25347 5.10296 5.2544 5.10132 5.25407C5.09968 5.25373 5.09806 5.25214 5.09682 5.24965C5.09558 5.24717 5.09481 5.24399 5.09469 5.24081C5.09457 5.23763 5.09511 5.23472 5.09618 5.23272C5.09539 5.23252 5.09461 5.23201 5.09389 5.23124C5.09316 5.23047 5.0925 5.22943 5.09194 5.22821C5.09139 5.22698 5.09095 5.22557 5.09064 5.22407C5.09034 5.22258 5.09019 5.22101 5.09019 5.21947C5.09019 5.21794 5.09034 5.21645 5.09064 5.21511C5.09095 5.21376 5.09139 5.21258 5.09194 5.21164C5.0925 5.21069 5.09316 5.21 5.09389 5.20959C5.09461 5.20919 5.09539 5.20908 5.09618 5.20929C5.0954 5.20916 5.09464 5.20874 5.09392 5.20804C5.0932 5.20734 5.09255 5.20638 5.092 5.2052C5.0909 5.20284 5.09027 5.19976 5.09027 5.19665C5.09027 5.19354 5.0909 5.19066 5.092 5.18864C5.09311 5.18661 5.09461 5.18561 5.09618 5.18585C5.09495 5.18703 5.09353 5.18717 5.09222 5.18625C5.09091 5.18532 5.08983 5.18341 5.08921 5.18092C5.08859 5.17844 5.08848 5.17558 5.08891 5.17299C5.08933 5.1704 5.09027 5.16829 5.09149 5.16711C5.08994 5.16719 5.08845 5.16604 5.08735 5.1639C5.08625 5.16176 5.08563 5.15881 5.08563 5.1557C5.08563 5.15259 5.08625 5.14958 5.08735 5.14733C5.08845 5.14507 5.08994 5.14376 5.09149 5.14368C5.09071 5.14384 5.08994 5.1437 5.08922 5.14326C5.0885 5.14282 5.08784 5.14209 5.08729 5.14111C5.08618 5.13915 5.08555 5.13629 5.08555 5.13319C5.08555 5.13008 5.08618 5.12697 5.08729 5.12455C5.08841 5.12212 5.08992 5.12057 5.09149 5.12025C5.09021 5.12064 5.08898 5.12002 5.08807 5.11854C5.08716 5.11705 5.08665 5.11482 5.08665 5.11234C5.08665 5.10985 5.08716 5.10732 5.08807 5.10528C5.08898 5.10325 5.09021 5.10189 5.09149 5.10151C5.08983 5.10223 5.08823 5.10168 5.08705 5.09999C5.08587 5.09831 5.08521 5.09561 5.08521 5.09251C5.08521 5.0894 5.08587 5.08613 5.08705 5.08343C5.08823 5.08072 5.08983 5.07879 5.09149 5.07807C5.09072 5.07795 5.09001 5.07752 5.08941 5.07682C5.08881 5.07611 5.08834 5.07514 5.08801 5.07396C5.08734 5.07159 5.08731 5.06851 5.08793 5.0654C5.08824 5.06386 5.0887 5.06236 5.08928 5.06099C5.08986 5.05962 5.09055 5.0584 5.09132 5.0574C5.09287 5.05538 5.09461 5.05439 5.09618 5.05464C5.09537 5.05464 5.09463 5.05433 5.094 5.05373C5.09337 5.05313 5.09287 5.05227 5.09251 5.05117C5.09216 5.05008 5.09196 5.04878 5.09194 5.04736C5.09191 5.04594 5.09206 5.04441 5.09237 5.04287C5.09267 5.04133 5.09314 5.03981 5.09373 5.03839C5.09432 5.03697 5.09504 5.03569 5.09583 5.0346C5.09661 5.03352 5.09747 5.03267 5.09833 5.03208C5.0992 5.0315 5.10006 5.03121 5.10087 5.03121C5.0998 5.03007 5.09927 5.02799 5.0994 5.02543C5.09953 5.02286 5.1003 5.02003 5.10154 5.01754C5.10278 5.01506 5.1044 5.01313 5.10603 5.01217C5.10766 5.01122 5.10917 5.01133 5.11024 5.01247C5.10831 5.01305 5.1067 5.01236 5.10578 5.01057C5.10485 5.00878 5.10468 5.00603 5.1053 5.00293C5.10593 4.99982 5.10729 4.99661 5.10909 4.99401C5.1109 4.9914 5.11299 4.98961 5.11492 4.98904C5.11506 4.98767 5.11542 4.98607 5.11598 4.98435C5.11654 4.98263 5.11728 4.98082 5.11817 4.97905C5.11905 4.97728 5.12006 4.97559 5.12111 4.97408C5.12217 4.97257 5.12325 4.97128 5.1243 4.9703C5.12292 4.97053 5.12207 4.96974 5.1219 4.96807C5.12173 4.96639 5.12225 4.96394 5.12337 4.96114C5.12449 4.95834 5.12614 4.95538 5.12802 4.95277C5.1299 4.95015 5.1319 4.94806 5.13367 4.94686C5.13401 4.94532 5.13471 4.94349 5.13569 4.94156C5.13668 4.93962 5.13793 4.93763 5.13932 4.93577C5.14072 4.93391 5.14222 4.93224 5.14368 4.9309C5.14515 4.92957 5.14654 4.92861 5.14773 4.92812C5.14777 4.92694 5.14822 4.92541 5.14905 4.92368C5.14987 4.92194 5.15104 4.92005 5.15244 4.91818C5.15384 4.91631 5.15543 4.91453 5.15707 4.91299C5.1587 4.91145 5.16032 4.91021 5.16178 4.90938C5.16182 4.90804 5.16253 4.90622 5.16382 4.90414C5.1651 4.90207 5.16689 4.89985 5.16895 4.89779C5.171 4.89574 5.17322 4.89395 5.17529 4.89266C5.17737 4.89138 5.1792 4.89067 5.18053 4.89063C5.18003 4.88972 5.18031 4.8882 5.18133 4.88631C5.18234 4.88441 5.18403 4.88224 5.18615 4.88013C5.18826 4.87801 5.19069 4.87606 5.19306 4.87458C5.19542 4.87309 5.19761 4.87215 5.19927 4.87189" fill="white"/>
<path d="M5.13367 5.37798C5.13297 5.37858 5.13217 5.37886 5.13129 5.37882C5.13042 5.37878 5.12949 5.37841 5.12856 5.37774C5.12764 5.37707 5.12673 5.37611 5.1259 5.37492C5.12507 5.37372 5.12432 5.37232 5.1237 5.37078C5.12309 5.36924 5.12262 5.3676 5.12231 5.36595C5.12201 5.3643 5.12188 5.36268 5.12194 5.36117C5.12199 5.35967 5.12223 5.35831 5.12263 5.35717C5.12304 5.35603 5.1236 5.35515 5.1243 5.35455C5.12181 5.35455 5.11943 5.35357 5.11767 5.35181C5.11591 5.35005 5.11492 5.34767 5.11492 5.34518C5.11492 5.3427 5.11591 5.34031 5.11767 5.33855C5.11943 5.3368 5.12181 5.33581 5.1243 5.33581C5.12327 5.33738 5.1218 5.33791 5.1202 5.33726C5.11859 5.33662 5.117 5.33486 5.11575 5.33237C5.11451 5.32989 5.11372 5.32688 5.11357 5.32401C5.11341 5.32114 5.1139 5.31864 5.11492 5.31706C5.11337 5.3174 5.11164 5.31649 5.11011 5.31453C5.10857 5.31257 5.10736 5.30972 5.10674 5.30662C5.10643 5.30508 5.10628 5.30352 5.10629 5.30204C5.1063 5.30055 5.10647 5.29917 5.10679 5.29796C5.10745 5.29553 5.10869 5.29397 5.11024 5.29363C5.10904 5.29421 5.10765 5.29378 5.10636 5.29243C5.10508 5.29108 5.10401 5.28892 5.10339 5.28644C5.10276 5.28395 5.10264 5.28134 5.10305 5.27917C5.10346 5.27701 5.10436 5.27547 5.10555 5.27489C5.10391 5.27425 5.10233 5.2724 5.10117 5.26975C5.10001 5.2671 5.09935 5.26386 5.09935 5.26075C5.09935 5.25765 5.10001 5.25492 5.10117 5.25318C5.10233 5.25144 5.10391 5.25082 5.10555 5.25146C5.10448 5.25347 5.10296 5.2544 5.10132 5.25407C5.09968 5.25373 5.09806 5.25214 5.09682 5.24965C5.09558 5.24717 5.09481 5.24399 5.09469 5.24081C5.09457 5.23763 5.09511 5.23472 5.09618 5.23272C5.09539 5.23252 5.09461 5.23201 5.09389 5.23124C5.09316 5.23047 5.0925 5.22943 5.09194 5.22821C5.09139 5.22698 5.09095 5.22557 5.09064 5.22407C5.09034 5.22258 5.09019 5.22101 5.09019 5.21947C5.09019 5.21794 5.09034 5.21645 5.09064 5.21511C5.09095 5.21376 5.09139 5.21258 5.09194 5.21164C5.0925 5.21069 5.09316 5.21 5.09389 5.20959C5.09461 5.20919 5.09539 5.20908 5.09618 5.20929C5.0954 5.20916 5.09464 5.20874 5.09392 5.20804C5.0932 5.20734 5.09255 5.20638 5.092 5.2052C5.0909 5.20284 5.09027 5.19976 5.09027 5.19665C5.09027 5.19354 5.0909 5.19066 5.092 5.18864C5.09311 5.18661 5.09461 5.18561 5.09618 5.18585C5.09495 5.18703 5.09353 5.18717 5.09222 5.18625C5.09091 5.18532 5.08983 5.18341 5.08921 5.18092C5.08859 5.17844 5.08848 5.17558 5.08891 5.17299C5.08933 5.1704 5.09027 5.16829 5.09149 5.16711C5.08994 5.16719 5.08845 5.16604 5.08735 5.1639C5.08625 5.16176 5.08563 5.15881 5.08563 5.1557C5.08563 5.15259 5.08625 5.14958 5.08735 5.14733C5.08845 5.14507 5.08994 5.14376 5.09149 5.14368C5.09071 5.14384 5.08994 5.1437 5.08922 5.14326C5.0885 5.14282 5.08784 5.14209 5.08729 5.14111C5.08618 5.13915 5.08555 5.13629 5.08555 5.13319C5.08555 5.13008 5.08618 5.12697 5.08729 5.12455C5.08841 5.12212 5.08992 5.12057 5.09149 5.12025C5.09021 5.12064 5.08898 5.12002 5.08807 5.11854C5.08716 5.11705 5.08665 5.11482 5.08665 5.11234C5.08665 5.10985 5.08716 5.10732 5.08807 5.10528C5.08898 5.10325 5.09021 5.10189 5.09149 5.10151C5.08983 5.10223 5.08823 5.10168 5.08705 5.09999C5.08587 5.09831 5.08521 5.09561 5.08521 5.09251C5.08521 5.0894 5.08587 5.08613 5.08705 5.08343C5.08823 5.08072 5.08983 5.07879 5.09149 5.07807C5.09072 5.07795 5.09001 5.07752 5.08941 5.07682C5.08881 5.07611 5.08834 5.07514 5.08801 5.07396C5.08734 5.07159 5.08731 5.06851 5.08793 5.0654C5.08824 5.06386 5.0887 5.06236 5.08928 5.06099C5.08986 5.05962 5.09055 5.0584 5.09132 5.0574C5.09287 5.05538 5.09461 5.05439 5.09618 5.05464C5.09537 5.05464 5.09463 5.05433 5.094 5.05373C5.09337 5.05313 5.09287 5.05227 5.09251 5.05117C5.09216 5.05008 5.09196 5.04878 5.09194 5.04736C5.09191 5.04594 5.09206 5.04441 5.09237 5.04287C5.09267 5.04133 5.09314 5.03981 5.09373 5.03839C5.09432 5.03697 5.09504 5.03569 5.09583 5.0346C5.09661 5.03352 5.09747 5.03267 5.09833 5.03208C5.0992 5.0315 5.10006 5.03121 5.10087 5.03121C5.0998 5.03007 5.09927 5.02799 5.0994 5.02543C5.09953 5.02286 5.1003 5.02003 5.10154 5.01754C5.10278 5.01506 5.1044 5.01313 5.10603 5.01217C5.10766 5.01122 5.10917 5.01133 5.11024 5.01247C5.10831 5.01305 5.1067 5.01236 5.10578 5.01057C5.10485 5.00878 5.10468 5.00603 5.1053 5.00293C5.10593 4.99982 5.10729 4.99661 5.10909 4.99401C5.1109 4.9914 5.11299 4.98961 5.11492 4.98904C5.11506 4.98767 5.11542 4.98607 5.11598 4.98435C5.11654 4.98263 5.11728 4.98082 5.11817 4.97905C5.11905 4.97728 5.12006 4.97559 5.12111 4.97408C5.12217 4.97257 5.12325 4.97128 5.1243 4.9703C5.12292 4.97053 5.12207 4.96974 5.1219 4.96807C5.12173 4.96639 5.12225 4.96394 5.12337 4.96114C5.12449 4.95834 5.12614 4.95538 5.12802 4.95277C5.1299 4.95015 5.1319 4.94806 5.13367 4.94686C5.13401 4.94532 5.13471 4.94349 5.13569 4.94156C5.13668 4.93962 5.13793 4.93763 5.13932 4.93577C5.14072 4.93391 5.14222 4.93224 5.14368 4.9309C5.14515 4.92957 5.14654 4.92861 5.14773 4.92812C5.14777 4.92694 5.14822 4.92541 5.14905 4.92368C5.14987 4.92194 5.15104 4.92005 5.15244 4.91818C5.15384 4.91631 5.15543 4.91453 5.15707 4.91299C5.1587 4.91145 5.16032 4.91021 5.16178 4.90938C5.16182 4.90804 5.16253 4.90622 5.16382 4.90414C5.1651 4.90207 5.16689 4.89985 5.16895 4.89779C5.171 4.89574 5.17322 4.89395 5.17529 4.89266C5.17737 4.89138 5.1792 4.89067 5.18053 4.89063C5.18003 4.88972 5.18031 4.8882 5.18133 4.88631C5.18234 4.88441 5.18403 4.88224 5.18615 4.88013C5.18826 4.87801 5.19069 4.87606 5.19306 4.87458C5.19542 4.87309 5.19761 4.87215 5.19927 4.87189" stroke="black" stroke-width="0.00468835" stroke-linecap="round" stroke-linejoin="round"/>
<path d="M5.15716 5.36861L5.13373 5.37798M5.15247 5.34987L5.12436 5.35455M5.14779 5.33112L5.11967 5.33581M5.14779 5.30769L5.11498 5.31706M5.1431 5.28895L5.1103 5.29363M5.13841 5.2702H5.10561M5.13841 5.24677L5.10093 5.25146M5.13373 5.22803H5.09624M5.13373 5.2046L5.09624 5.20929M5.13373 5.18585H5.09155M5.13841 5.16711H5.09155M5.13841 5.14368H5.09155M5.13841 5.12494H5.09155M5.13841 5.10619L5.09155 5.10151M5.1431 5.08745L5.09624 5.07807M5.14779 5.0687L5.10093 5.05464M5.15247 5.04527L5.10561 5.03121M5.16184 5.03121L5.1103 5.01247M5.16653 5.01247L5.11967 4.98904M5.1759 4.99373L5.12904 4.9703M5.18996 4.97967L5.13373 4.94686M5.19933 4.96561L5.15247 4.92812M5.21339 4.94686L5.16653 4.90938M5.22745 4.93281L5.18059 4.88595M5.24151 4.92343L5.19465 4.87189" stroke="black" stroke-width="0.00468835" stroke-linecap="round" stroke-linejoin="round"/>
<path d="M5.42867 5.08271L5.35838 5.09208L5.35369 5.16238C5.42398 5.22798 5.48959 5.31233 5.49427 5.39668C5.51614 5.40918 5.53176 5.43104 5.54113 5.46229C5.58799 5.43417 5.63954 5.39199 5.68172 5.38262C5.70983 5.37794 5.76138 5.37325 5.78481 5.38731L5.94882 5.4904C5.98006 5.51227 6.00506 5.5357 6.0238 5.56069C6.04254 5.58881 6.04254 5.63098 6.03786 5.64504L5.93945 5.61693C5.9332 5.59818 5.93476 5.57944 5.94414 5.56069C5.95351 5.55132 5.95195 5.54351 5.93945 5.53726C5.92695 5.53101 5.91602 5.52945 5.90665 5.53258L5.87385 5.51383C5.86447 5.49977 5.75669 5.4576 5.74263 5.45291C5.72077 5.44979 5.6989 5.45604 5.67703 5.47166C5.66766 5.48572 5.63017 5.54195 5.60205 5.56538C5.5958 5.57475 5.5958 5.58256 5.60205 5.58881L5.70515 5.5935C5.74732 5.59818 5.79887 5.64036 5.81761 5.66847L5.991 5.84186C6.00662 5.85748 6.01443 5.87466 6.01443 5.8934H5.92071L5.90665 5.81374C5.89103 5.80124 5.87697 5.79812 5.86447 5.80437C5.85822 5.80437 5.84885 5.79343 5.83636 5.77157C5.81138 5.73842 5.77937 5.71121 5.74263 5.6919C5.72701 5.68253 5.70983 5.67941 5.69109 5.68253C5.66922 5.67628 5.64423 5.67628 5.61611 5.68253C5.58799 5.6919 5.5177 5.71533 5.44741 5.72002C5.41617 5.73252 5.35838 5.74814 5.27403 5.76688L5.05378 5.79968C5.03846 5.86068 5.00593 5.91598 4.96006 5.95901C4.94132 5.98713 4.93975 6.00743 4.95537 6.01993C4.96943 6.03399 5.06784 6.03399 5.09596 6.03399H5.17562C5.19436 6.04023 5.21623 6.05273 5.24122 6.07148C5.25684 6.08397 5.26778 6.09803 5.27403 6.11365L5.29746 6.14645H5.18031C5.18031 6.11521 5.16937 6.09959 5.1475 6.09959C5.13501 6.11209 5.11626 6.11677 5.09127 6.11365L4.85697 6.10896C4.82885 6.10896 4.81011 6.07148 4.81948 6.03867V5.95901L4.75856 6.02461C4.72576 6.05742 4.7445 6.09491 4.75856 6.11365L4.8804 6.25423L4.97412 6.32921C4.98661 6.3542 5.00223 6.37451 5.02098 6.39013H4.87571L4.88508 6.35264C4.88508 6.33702 4.87415 6.32921 4.85228 6.32921C4.83354 6.32296 4.81948 6.31047 4.81011 6.29172C4.78622 6.24456 4.75454 6.20178 4.71638 6.1652C4.69764 6.14645 4.64141 6.08553 4.62735 6.08085C4.61798 6.0746 4.61798 6.0621 4.62735 6.04336C4.64141 6.0293 4.67421 5.97307 4.68827 5.93558C4.69764 5.90746 4.68827 5.90746 4.68358 5.89809C4.61485 5.84811 4.56174 5.79031 4.52425 5.72471C4.51488 5.72939 4.43991 5.72939 4.4071 5.71065C4.37586 5.69815 4.34775 5.70284 4.32275 5.72471C4.31026 5.7497 4.31338 5.77313 4.33213 5.795C4.36337 5.81686 4.39461 5.84811 4.42585 5.88872C4.45865 5.93558 4.43053 5.95901 4.38836 5.99181C4.39773 6.01056 4.38836 6.00587 4.39773 6.03399C4.41179 6.05273 4.41179 6.09959 4.39773 6.11365C4.37274 6.1199 4.35087 6.13552 4.33213 6.16051C4.31026 6.17925 4.30401 6.16363 4.31338 6.11365C4.31026 6.08866 4.29932 6.06835 4.28058 6.05273C4.26183 6.0293 4.27121 5.97307 4.28058 5.95901C4.29932 5.93714 4.29932 5.91059 4.28058 5.87935C4.25246 5.85592 4.2056 5.80437 4.21029 5.73408C4.21966 5.64036 4.31338 5.61224 4.36493 5.64036C4.44928 5.66847 4.50395 5.67472 4.52894 5.6591C4.55081 5.61849 4.58674 5.58256 4.63672 5.55132C4.68358 5.5232 4.78667 5.48103 4.8804 5.46697L5.11939 5.38262C5.1475 5.367 5.15688 5.34826 5.1475 5.32639C5.11939 5.16706 5.12876 4.99836 5.25528 4.90933L5.28809 4.83435C5.28809 4.84841 5.3162 4.88121 5.32557 4.89996L5.52239 4.97493L5.57394 4.98899C5.58643 4.99212 5.5958 5.00149 5.60205 5.01711C5.6083 5.03898 5.60518 5.0546 5.59268 5.06397C5.58331 5.06397 5.53645 5.04991 5.52239 5.06397C5.52239 5.07334 5.53645 5.08271 5.56456 5.09208C5.56769 5.10458 5.56144 5.11395 5.54582 5.1202L5.5177 5.11552L5.42867 5.08271Z" fill="white" stroke="black" stroke-width="0.0140651" stroke-linecap="round" stroke-linejoin="round"/>
<path d="M5.2692 4.97961C5.2692 5.07334 5.29732 5.13582 5.35355 5.16706M5.54099 5.46228C5.54922 5.5009 5.54922 5.54081 5.54099 5.57943M4.81934 5.959C4.89431 5.9262 4.95992 5.84185 4.95523 5.79031M4.95523 5.79031C4.95523 5.76219 4.9318 5.71533 4.86151 5.71064M4.95523 5.79031C4.97398 5.79968 5.02084 5.79031 5.05364 5.79968M5.42853 5.556C5.48007 5.556 5.55974 5.59349 5.59722 5.5888M5.39572 5.67315C5.44258 5.68253 5.44258 5.70596 5.55036 5.70127M5.37229 5.34513C5.42853 5.34513 5.46601 5.37324 5.49413 5.39199" stroke="black" stroke-width="0.0140651" stroke-linecap="round" stroke-linejoin="round"/>
<path d="M4.94604 5.83717C4.98666 5.84341 5.01477 5.82936 5.03039 5.79499M5.2647 4.97961C5.2647 5.05928 5.2975 5.08271 5.35842 5.09208" stroke="black" stroke-width="0.00937671" stroke-linecap="round" stroke-linejoin="round"/>
<path d="M5.57858 4.99366C5.57233 5.01553 5.5817 5.02646 5.60669 5.02646M5.42862 4.93274C5.40519 5.00303 5.5364 5.0124 5.54109 5.05458M4.81006 5.4857C4.87098 5.51381 4.86629 5.64034 4.86629 5.71063" stroke="black" stroke-width="0.00468835" stroke-linecap="round" stroke-linejoin="round"/>
<path d="M5.5086 5.05464C5.48111 5.10736 5.44279 5.15367 5.39614 5.19053C5.32594 5.24161 5.2463 5.27824 5.16183 5.29831H5.11497C5.0931 5.29831 5.07748 5.28582 5.06811 5.26083C5.05874 5.24677 5.05874 5.18585 5.08217 5.17648L5.15715 5.16242C5.17277 5.16242 5.18214 5.17023 5.18526 5.18585C5.18839 5.20147 5.17902 5.20772 5.15715 5.20459C5.1384 5.20459 5.11029 5.19053 5.09623 5.20459C5.08217 5.20459 5.07748 5.23739 5.08217 5.25145C5.09467 5.26707 5.10716 5.27645 5.11966 5.27957H5.15715C5.24462 5.25458 5.3196 5.21865 5.38208 5.17179C5.42894 5.13899 5.4758 5.07338 5.48986 5.04058L5.5086 5.05464ZM5.15715 5.18116C5.13372 5.17179 5.08686 5.18116 5.08686 5.19053C5.1056 5.18116 5.12903 5.18116 5.15715 5.19053C5.16964 5.18741 5.16964 5.18429 5.15715 5.18116ZM5.33053 4.96092L5.34459 4.94217C5.34459 4.93749 5.33522 4.89062 5.38676 4.91406C5.43363 4.94217 5.39614 4.96092 5.39145 4.9656L5.38208 4.98903" fill="white"/>
<path d="M5.33053 4.96092L5.34459 4.94217C5.34459 4.93749 5.33522 4.89062 5.38676 4.91406C5.43363 4.94217 5.39614 4.96092 5.39145 4.9656L5.38208 4.98903M5.5086 5.05464C5.48111 5.10736 5.44279 5.15367 5.39614 5.19053C5.32594 5.24161 5.2463 5.27824 5.16183 5.29831H5.11497C5.0931 5.29831 5.07748 5.28582 5.06811 5.26083C5.05874 5.24677 5.05874 5.18585 5.08217 5.17648L5.15715 5.16242C5.17277 5.16242 5.18214 5.17023 5.18526 5.18585C5.18839 5.20147 5.17902 5.20772 5.15715 5.20459C5.1384 5.20459 5.11029 5.19053 5.09623 5.20459C5.08217 5.20459 5.07748 5.23739 5.08217 5.25145C5.09467 5.26707 5.10716 5.27645 5.11966 5.27957H5.15715C5.24462 5.25458 5.3196 5.21865 5.38208 5.17179C5.42894 5.13899 5.4758 5.07338 5.48986 5.04058L5.5086 5.05464ZM5.15715 5.18116C5.13372 5.17179 5.08686 5.18116 5.08686 5.19053C5.1056 5.18116 5.12903 5.18116 5.15715 5.19053C5.16964 5.18741 5.16964 5.18429 5.15715 5.18116Z" stroke="black" stroke-width="0.00468835" stroke-linecap="round" stroke-linejoin="round"/>
<path d="M5.25098 4.91876L5.52746 5.05934" stroke="black" stroke-width="0.00937671" stroke-linecap="round" stroke-linejoin="round"/>
<path d="M4.89887 4.93281L4.71143 4.91406C4.68331 4.91406 4.6177 5.00778 4.5849 5.01247C4.5521 5.01716 4.51461 4.94218 4.46306 4.96561C4.43963 4.97967 4.46306 5.07808 4.44901 5.08745C4.43495 5.09682 4.38809 5.04059 4.35528 5.05933C4.33185 5.07808 4.3834 5.20929 4.36934 5.22334C4.35528 5.2374 4.29436 5.16711 4.27562 5.17648C4.25219 5.19054 4.29436 5.39204 4.27562 5.40141C4.25688 5.41079 4.16784 5.34987 4.15378 5.3733C4.14441 5.40141 4.28031 5.46702 4.3178 5.46702L4.35997 5.45296L4.49118 5.46702L4.55678 5.4061C4.65051 5.27958 4.75829 5.15774 4.89887 5.16711V4.93281Z" fill="white" stroke="black" stroke-width="0.00937671" stroke-linecap="round" stroke-linejoin="round"/>
<path d="M4.47246 4.96091L4.65991 4.95154M4.36 5.05932L4.45372 5.02652M4.27565 5.17647L4.36 5.13898M4.15381 5.37329L4.27096 5.27019M4.36 5.44826C4.40686 5.36391 4.50526 5.27019 4.58961 5.21864M4.27565 5.4014C4.34594 5.31705 4.54275 5.17647 4.60367 5.1671M4.44903 5.08743C4.52869 5.04995 4.65053 5.04526 4.73957 5.04057M4.58024 5.01246C4.5943 5.01246 4.73488 4.99371 4.7958 4.9984M4.36937 5.22333C4.47559 5.15773 4.58805 5.10618 4.70677 5.06869" stroke="black" stroke-width="0.00937671" stroke-linecap="round" stroke-linejoin="round"/>
<path d="M5.29728 6.56354L5.31134 6.58697L5.28322 6.59166L4.42567 6.33392C4.39755 6.32924 4.40692 6.28706 4.43504 6.29643L5.29728 6.56354ZM4.47253 5.35922C4.46316 5.34047 4.45222 5.32954 4.43973 5.32642C4.42411 5.33266 4.41473 5.34047 4.41161 5.34985C4.41161 5.35922 4.43973 5.37796 4.4491 5.38265L4.47253 5.35922ZM4.55219 5.39202L4.4819 5.46231C4.47878 5.47793 4.48346 5.48418 4.49596 5.48106L4.56625 5.40608C4.5725 5.39046 4.56781 5.38577 4.55219 5.39202ZM4.5147 5.46231L4.73964 5.69662H4.7865L4.78181 5.64976L4.54751 5.42951L4.5147 5.46231Z" fill="white" stroke="black" stroke-width="0.0140651" stroke-linecap="round" stroke-linejoin="round"/>
<path d="M4.75369 5.66878L4.53345 5.44385" stroke="black" stroke-width="0.00468835" stroke-linecap="round" stroke-linejoin="round"/>
<path d="M5.05362 5.02177C5.05362 5.00927 5.05831 4.9999 5.06768 4.99365C5.07705 4.9874 5.0833 4.9874 5.08642 4.99365C5.08955 4.9999 5.09579 5.00458 5.10517 5.00771H5.11922L5.1286 4.98428L5.13328 4.97959L5.14265 4.97022L5.14734 4.95616C5.15984 4.96241 5.16608 4.96241 5.16608 4.95616L5.17546 4.9093C5.1942 4.91399 5.18483 4.89524 5.1942 4.89055C5.21295 4.89993 5.21763 4.86712 5.20826 4.85775C5.20826 4.83588 5.22388 4.82651 5.25512 4.82964L5.21763 4.78746C5.19889 4.76247 5.1614 4.74685 5.10517 4.7406C5.05831 4.7406 5.01144 4.78746 4.9927 4.81089C4.97396 4.83432 4.93647 4.83901 4.92709 4.83901L4.89429 4.82495H4.84743C4.83494 4.8312 4.81932 4.83432 4.80057 4.83432L4.73028 4.83901C4.71622 4.84369 4.73028 4.8765 4.74434 4.8765C4.7584 4.8765 4.7912 4.8765 4.80057 4.88587C4.82612 4.89509 4.85378 4.89672 4.88023 4.89055C4.91772 4.8765 4.94115 4.90461 4.98333 4.91399H4.99739C4.99739 4.93898 4.99426 4.95147 4.98801 4.95147H4.95053L4.91304 4.93273C4.89429 4.92961 4.8818 4.93117 4.87555 4.93742C4.78613 4.98845 4.70413 5.05152 4.63187 5.12486C4.61313 5.16235 4.58501 5.18109 4.55689 5.23732C4.54284 5.26544 4.51003 5.29824 4.49598 5.34979C4.46317 5.35916 4.43506 5.38728 4.43037 5.39665C4.42725 5.40602 4.43037 5.41227 4.43974 5.4154L4.45849 5.42945C4.45849 5.4357 4.46317 5.44039 4.47255 5.44351C4.46942 5.44976 4.47255 5.45601 4.48192 5.46226L4.55689 5.38728C4.56002 5.35604 4.56783 5.32948 4.58033 5.30762C4.6225 5.26076 4.67405 5.18578 4.68342 5.16703C4.69279 5.14829 4.77714 5.12017 4.79588 5.09674L4.80057 5.23732L4.84743 5.37791C4.85368 5.42477 4.85368 5.45913 4.84743 5.481C4.84743 5.49662 4.85524 5.50756 4.87086 5.5138C4.88961 5.52318 4.95521 5.5138 4.97864 5.51849L5.07236 5.53723C5.10786 5.52996 5.14479 5.53668 5.17546 5.55598C5.18952 5.57004 5.22232 5.64033 5.23169 5.66844C5.24575 5.69656 5.31135 5.73405 5.32541 5.75279C5.33478 5.76685 5.34884 5.80903 5.34416 5.82777C5.34103 5.84651 5.34728 5.85589 5.3629 5.85589L5.44725 5.86995L5.49411 5.89338L5.55972 5.89806C5.57846 5.89806 5.57846 5.86526 5.56909 5.86526L5.51285 5.8512C5.48942 5.8512 5.44725 5.80903 5.43319 5.79028L5.3957 5.7153L5.30198 5.58409L5.25512 5.47631C5.24887 5.45757 5.23638 5.4482 5.21763 5.4482C5.16609 5.43414 5.14734 5.42477 5.09111 5.4154C5.04893 5.40602 5.04425 5.40602 5.03956 5.37791C5.03956 5.35448 5.02082 5.3123 5.03019 5.28419L5.03956 5.22795L5.05362 5.18109L5.05831 5.08737L5.05362 5.02177ZM5.09111 5.26544H5.04893V5.25138C5.04893 5.25138 5.04425 5.24201 5.04893 5.24201V5.21389L5.09111 5.20921V5.26544Z" fill="white" stroke="black" stroke-width="0.0140651" stroke-linecap="round" stroke-linejoin="round"/>
<path d="M4.9974 4.91867C5.00052 4.92492 5.01146 4.92336 5.0302 4.91399C5.05519 4.91086 5.06457 4.92023 5.05832 4.9421C5.05207 4.96397 5.05832 4.97647 5.07706 4.97959C5.09581 4.97334 5.10674 4.96397 5.10987 4.95147L5.1333 4.92804C5.13954 4.9093 5.15516 4.90461 5.18016 4.91399M5.20827 4.85775C5.18953 4.86088 5.17391 4.84994 5.16141 4.82495C5.16141 4.79996 5.14579 4.7859 5.11455 4.78278C5.08175 4.78278 5.02083 4.80152 5.01146 4.83432L5.00677 4.88118C4.99428 4.88118 4.98647 4.88431 4.98334 4.89056V4.91399M4.7959 5.10143L4.85682 5.07331" stroke="black" stroke-width="0.0140651" stroke-linecap="round" stroke-linejoin="round"/>
<path d="M4.85703 5.07336C4.87265 5.11398 4.88983 5.14366 4.90858 5.1624M4.94138 5.17646C4.96637 5.18895 4.9898 5.18895 5.01167 5.17646M4.8664 5.45762C4.92732 5.45762 4.95075 5.49043 5.00698 5.50448C5.05384 5.51854 5.12413 5.50917 5.19443 5.54197M4.84766 5.26081C4.86328 5.2733 4.88202 5.27955 4.90389 5.27955M4.92732 5.27955C4.96481 5.2858 4.98824 5.2983 4.99761 5.31704M4.91795 5.34984C4.94606 5.37796 5.0023 5.40139 5.03979 5.40608" stroke="black" stroke-width="0.00937671" stroke-linecap="round" stroke-linejoin="round"/>
<path d="M4.95985 4.9468C4.98797 5.04052 4.99265 5.07801 5.05826 5.08738C5.00203 5.08426 4.96141 5.0374 4.93642 4.9468M4.91299 4.93274C4.93798 5.02958 4.98641 5.08269 5.05826 5.09207M5.39566 5.81372C5.38629 5.80747 5.37848 5.79498 5.37223 5.77623L5.3488 5.72937L5.33005 5.73874C5.33005 5.73874 5.32068 5.72937 5.33005 5.72937L5.33942 5.72L5.32068 5.6872C5.31443 5.6872 5.31756 5.68407 5.33005 5.67783C5.33942 5.6747 5.34255 5.6747 5.33942 5.67783L5.35817 5.71063H5.36754C5.37691 5.70438 5.38004 5.7075 5.37691 5.72L5.36285 5.72469L5.38629 5.77155C5.39566 5.78717 5.39878 5.80279 5.39566 5.81841M5.39566 5.71531L5.32537 5.7528M5.25976 5.70126L5.35348 5.6544M5.2457 5.6872L5.33942 5.64034M4.4725 5.44352L4.50062 5.41072M4.45376 5.42946L4.48656 5.40135M4.4397 5.41541L4.4725 5.38729M5.04889 5.25139H5.08169M5.04889 5.22796H5.077M5.04889 5.24202L5.077 5.23733M5.11449 4.97023L5.13324 4.9796" stroke="black" stroke-width="0.00468835" stroke-linecap="round" stroke-linejoin="round"/>
</g>
<defs>
<clipPath id="clip0_720_53373">
<rect width="24.0044" height="24.0044" fill="white" transform="translate(0 0.0568848)"/>
</clipPath>
</defs>
</svg>
