<svg width="24" height="25" viewBox="0 0 24 25" fill="none" xmlns="http://www.w3.org/2000/svg">
<g clip-path="url(#clip0_720_53350)">
<path fill-rule="evenodd" clip-rule="evenodd" d="M0.00512695 0.0568848H24.0048V24.0613H0.00512695V0.0568848Z" fill="#3B5AA3"/>
<path fill-rule="evenodd" clip-rule="evenodd" d="M6.52193 0.113159L6.27345 4.23891L5.18575 1.60874L5.6077 4.40769L3.92458 2.1479L5.02634 4.7265L2.82282 3.01525L4.53876 5.1672L2.04455 4.06075L4.22932 5.71574L1.51008 5.35474L4.08399 6.37211L0.052002 6.74249L4.08399 7.00973L1.52883 8.05992L4.22464 7.69891L2.04924 9.30233L4.57157 8.19588L2.85095 10.3619L5.04041 8.70222L3.94334 11.2339L5.69678 9.03978L5.22794 11.7731L6.32502 9.21794L6.57819 13.2546L6.96263 9.22732L7.91437 11.8012L7.55337 9.03041L9.29743 11.2246L8.14879 8.66003L10.3382 10.4228L8.60356 8.21932L11.2009 9.30233L8.89892 7.6239L11.7026 8.09274L9.01613 7.0613L13.1888 6.80344L9.01613 6.41431L11.7729 5.49539L8.92705 5.8517L11.2806 4.21078L8.627 5.27504L10.4555 3.05744L8.22849 4.79682L9.30681 2.13384L7.57212 4.39831L7.94719 1.57124L6.91575 4.23891L6.53131 0.113159H6.52193Z" fill="white"/>
<path fill-rule="evenodd" clip-rule="evenodd" d="M0.00512695 23.4143L24.0095 0.0568848V4.40299L0.00512695 24.0613V23.4143Z" fill="#E2AE57"/>
<path fill-rule="evenodd" clip-rule="evenodd" d="M0.84908 24.0613L24.0095 9.02108L24.0049 4.24365L0.000488281 24.0613H0.844392H0.84908Z" fill="white"/>
</g>
<defs>
<clipPath id="clip0_720_53350">
<rect width="24.0044" height="24.0044" fill="white" transform="translate(0.00439453 0.0568848)"/>
</clipPath>
</defs>
</svg>
