<svg width="25" height="25" viewBox="0 0 25 25" fill="none" xmlns="http://www.w3.org/2000/svg">
<g clip-path="url(#clip0_720_53349)">
<path d="M0.0131836 0.0568848H24.0176V24.0613H0.0131836V0.0568848Z" fill="#CD2A3E"/>
<path d="M0.0131836 3.65759H24.0176V20.4607H0.0131836V3.65759Z" fill="#006233"/>
<path d="M19.5167 7.78802C19.5167 9.77751 18.7263 11.6855 17.3196 13.0923C15.9128 14.4991 14.0048 15.2894 12.0153 15.2894C10.0258 15.2894 8.1178 14.4991 6.71102 13.0923C5.30424 11.6855 4.51392 9.77751 4.51392 7.78802C4.3461 8.42776 4.26102 9.08638 4.26075 9.74776C4.2593 10.8502 4.49292 11.9403 4.94605 12.9453C5.39917 13.9503 6.06137 14.8471 6.88849 15.576C7.71561 16.3048 8.68863 16.8489 9.74265 17.172C10.7967 17.4951 11.9075 17.5897 13.001 17.4496C14.0944 17.3095 15.1455 16.9378 16.084 16.3594C17.0225 15.7809 17.8269 15.0091 18.4435 14.0952C19.0601 13.1813 19.4747 12.1465 19.6598 11.0597C19.8448 9.97291 19.796 8.85915 19.5167 7.79271V7.78802Z" fill="#FFC400"/>
<path d="M12.0154 4.7453L11.3402 6.82224H9.16016L10.923 8.10216L10.2525 10.1744L12.0154 8.89449L13.7782 10.1744L13.1031 8.10216L14.8706 6.82224H12.6905L12.0154 4.7453Z" fill="#FFC400"/>
</g>
<defs>
<clipPath id="clip0_720_53349">
<rect width="24.0044" height="24.0044" fill="white" transform="translate(0.0131836 0.0568848)"/>
</clipPath>
</defs>
</svg>
