<svg width="25" height="25" viewBox="0 0 25 25" fill="none" xmlns="http://www.w3.org/2000/svg">
<g clip-path="url(#clip0_720_53495)">
<mask id="mask0_720_53495" style="mask-type:luminance" maskUnits="userSpaceOnUse" x="0" y="0" width="25" height="25">
<path d="M0.0307617 0.0568848H24.0291V24.0553H0.0307617V0.0568848Z" fill="white"/>
</mask>
<g mask="url(#mask0_720_53495)">
<path fill-rule="evenodd" clip-rule="evenodd" d="M-11.7844 0.0568237H36.2171V24.0552H-11.7844V0.0568237Z" fill="#6797D6"/>
<path fill-rule="evenodd" clip-rule="evenodd" d="M12.7895 4.1453H14.6668L13.1427 5.18072L13.7234 6.86447L12.2089 5.82422L10.6848 6.86447L11.2655 5.18072L9.7462 4.14047H11.6332L12.2138 2.46155M12.7944 20.0249H14.6717L13.1476 18.9846L13.7282 17.3009L12.2138 18.3411L10.6897 17.3009L11.2703 18.9846L9.75104 20.0249H11.6332L12.2138 21.7038M4.95621 11.19L6.75608 10.6384L5.59971 12.0802L6.64964 13.5172L4.89331 12.9657L3.74177 14.4075L3.80951 12.627L2.04834 12.0754L3.84822 11.5287L3.91112 9.74815M19.4423 11.19L17.6473 10.6384L18.7988 12.0754L17.7489 13.5172L19.5101 12.9657L20.6567 14.4075L20.5939 12.627L22.355 12.0754L20.5551 11.5287L20.4922 9.74815" fill="white"/>
</g>
</g>
<defs>
<clipPath id="clip0_720_53495">
<rect width="24.0044" height="24.0044" fill="white" transform="translate(0.0305176 0.0568848)"/>
</clipPath>
</defs>
</svg>
