<svg width="24" height="25" viewBox="0 0 24 25" fill="none" xmlns="http://www.w3.org/2000/svg">
<g clip-path="url(#clip0_720_53345)">
<path d="M-0.000488281 0.0612793H24.0039V24.0656H-0.000488281V0.0612793Z" fill="#DA2032"/>
<path d="M8.00269 0.0612793H16.001V24.0656H8.00269V0.0612793Z" fill="#0066B3"/>
<path d="M3.99859 10.9195C4.90485 10.9195 5.63951 10.1848 5.63951 9.27856C5.63951 8.3723 4.90485 7.63763 3.99859 7.63763C3.09233 7.63763 2.35767 8.3723 2.35767 9.27856C2.35767 10.1848 3.09233 10.9195 3.99859 10.9195Z" fill="#FFD900"/>
<path d="M3.99871 10.3241C4.98783 10.3241 5.78967 9.52225 5.78967 8.53314C5.78967 7.54402 4.98783 6.74219 3.99871 6.74219C3.0096 6.74219 2.20776 7.54402 2.20776 8.53314C2.20776 9.52225 3.0096 10.3241 3.99871 10.3241Z" fill="#DA2032"/>
<path d="M3.99875 10.0241C4.65903 10.0241 5.19428 9.4888 5.19428 8.82853C5.19428 8.16825 4.65903 7.633 3.99875 7.633C3.33848 7.633 2.80322 8.16825 2.80322 8.82853C2.80322 9.4888 3.33848 10.0241 3.99875 10.0241Z" fill="#FFD900"/>
<path d="M4.12523 4.95123C4.06516 4.97917 4.01355 5.02252 3.97567 5.07687C3.93779 5.13122 3.91498 5.19464 3.90957 5.26066C3.90019 5.36381 3.94707 5.47633 3.95176 5.57478C3.95176 5.74825 3.7736 5.80451 3.7736 6.04831C3.7736 6.1327 3.8533 6.22647 3.8533 6.44213C3.83924 6.55934 3.7736 6.58278 3.70328 6.59216C3.68322 6.59354 3.66309 6.59062 3.64426 6.58357C3.62543 6.57652 3.60833 6.56551 3.59411 6.5513C3.57989 6.53708 3.56889 6.51998 3.56184 6.50115C3.55479 6.48231 3.55186 6.46219 3.55325 6.44213C3.55289 6.42297 3.55644 6.40394 3.5637 6.3862C3.57095 6.36846 3.58176 6.3524 3.59545 6.33898L3.60951 6.32492C3.64233 6.2921 3.68921 6.27804 3.68921 6.18427C3.68921 6.13739 3.66108 6.09988 3.63295 6.01549C3.6189 5.96602 3.61667 5.91394 3.62644 5.86345C3.63621 5.81295 3.65772 5.76547 3.68921 5.72481C3.58607 5.76232 3.52043 5.86546 3.48761 5.95454C3.4548 6.06237 3.48293 6.12801 3.43604 6.22178C3.40791 6.27804 3.3704 6.30148 3.34227 6.35305C3.30008 6.40931 3.25788 6.53121 3.25788 6.59216C3.27847 6.77545 3.36587 6.94474 3.50339 7.06767C3.6409 7.1906 3.81888 7.25856 4.00333 7.25856C4.18778 7.25856 4.36577 7.1906 4.50328 7.06767C4.64079 6.94474 4.72819 6.77545 4.74878 6.59216C4.74878 6.53121 4.7019 6.40462 4.66439 6.35305C4.63157 6.30617 4.59406 6.27804 4.57062 6.22178C4.52374 6.12801 4.55187 6.06237 4.51436 5.95454C4.48154 5.86077 4.4206 5.76701 4.31276 5.72012C4.3458 5.7609 4.36857 5.809 4.37918 5.86039C4.38978 5.91178 4.38791 5.96497 4.37371 6.01549C4.34089 6.09988 4.31276 6.14207 4.31276 6.18896C4.31276 6.27804 4.35965 6.2921 4.39247 6.32961L4.40653 6.33898C4.42107 6.35199 4.43275 6.36787 4.44082 6.38563C4.44889 6.40338 4.45318 6.42263 4.45341 6.44213C4.45489 6.46262 4.45186 6.48318 4.44454 6.50237C4.43722 6.52157 4.42579 6.53892 4.41104 6.55322C4.39629 6.56752 4.3786 6.57842 4.35919 6.58514C4.33978 6.59187 4.31913 6.59426 4.2987 6.59216C4.21431 6.58903 4.1643 6.53902 4.14867 6.44213C4.14867 6.15614 4.27526 6.13739 4.27526 5.92641C4.27526 5.62167 4.00333 5.47633 4.00333 5.25598C4.00333 5.18096 4.0174 5.05438 4.12523 4.95123ZM0.716797 11.2149H2.21238V18.3787H0.716797V11.2149ZM5.78959 11.2149H7.28049V18.3787H5.78959V11.2149ZM2.50775 11.2149H5.49423L3.99864 12.1103L2.50775 11.2149ZM2.50775 12.4104H5.49423V13.0011H2.50775V12.4104ZM2.50775 16.583H5.49423V17.1831H2.50775V16.583ZM2.50775 17.4832H5.49423L3.99864 18.374L2.50775 17.4832Z" fill="#FFD900"/>
<path d="M3.99871 16.2876C4.82211 16.2876 5.4896 15.6201 5.4896 14.7967C5.4896 13.9733 4.82211 13.3058 3.99871 13.3058C3.17531 13.3058 2.50781 13.9733 2.50781 14.7967C2.50781 15.6201 3.17531 16.2876 3.99871 16.2876Z" fill="#FFD900"/>
<path d="M3.99718 14.3031C4.16187 14.3031 4.29538 14.1696 4.29538 14.0049C4.29538 13.8402 4.16187 13.7067 3.99718 13.7067C3.83248 13.7067 3.69897 13.8402 3.69897 14.0049C3.69897 14.1696 3.83248 14.3031 3.99718 14.3031Z" fill="#DA2032"/>
<path d="M3.99718 15.8846C4.16187 15.8846 4.29538 15.751 4.29538 15.5864C4.29538 15.4217 4.16187 15.2881 3.99718 15.2881C3.83248 15.2881 3.69897 15.4217 3.69897 15.5864C3.69897 15.751 3.83248 15.8846 3.99718 15.8846Z" fill="#DA2032"/>
<path d="M3.99756 13.1251C4.23098 13.1251 4.45485 13.2178 4.6199 13.3829C4.78496 13.548 4.87768 13.7718 4.87768 14.0052C4.87768 14.2387 4.78496 14.4625 4.6199 14.6276C4.45485 14.7926 4.23098 14.8854 3.99756 14.8854C3.81161 14.8854 3.63328 14.9592 3.50179 15.0907C3.37031 15.2222 3.29644 15.4005 3.29644 15.5865C3.29644 15.7724 3.37031 15.9508 3.50179 16.0823C3.63328 16.2137 3.81161 16.2876 3.99756 16.2876V16.4666C3.76413 16.4666 3.54027 16.3739 3.37521 16.2088C3.21016 16.0438 3.11743 15.8199 3.11743 15.5865C3.11743 15.3531 3.21016 15.1292 3.37521 14.9641C3.54027 14.7991 3.76413 14.7064 3.99756 14.7064C4.18351 14.7064 4.36184 14.6325 4.49332 14.501C4.62481 14.3695 4.69868 14.1912 4.69868 14.0052C4.69868 13.8193 4.62481 13.641 4.49332 13.5095C4.36184 13.378 4.18351 13.3041 3.99756 13.3041V13.1251Z" fill="#DA2032"/>
</g>
<defs>
<clipPath id="clip0_720_53345">
<rect width="24.0044" height="24.0044" fill="white" transform="translate(0 0.0612793)"/>
</clipPath>
</defs>
</svg>
