<svg width="25" height="25" viewBox="0 0 25 25" fill="none" xmlns="http://www.w3.org/2000/svg">
<g clip-path="url(#clip0_720_53339)">
<path d="M0.0183105 0.0612793H24.0227V24.0656H0.0183105V0.0612793Z" fill="#012169"/>
<path d="M13.2114 6.0155H22.8413L22.8272 12.8746C22.9069 15.6266 21.1863 17.3379 18.031 18.1115C15.7853 17.5489 13.1973 16.4002 13.1926 12.9543L13.2067 6.0155H13.2114Z" fill="white"/>
<path d="M13.4225 6.2218H22.6304L22.621 12.7949C22.696 15.4344 21.0551 17.0707 18.0358 17.8114C15.8885 17.2769 13.4131 16.1705 13.4131 12.8699L13.4225 6.2218Z" fill="#00A2BD" stroke="black" stroke-width="0.0843903"/>
<path d="M22.5601 13.5731C22.2225 16.0908 20.2815 17.1925 18.0311 17.7786C16.0432 17.2441 13.9054 16.3908 13.4834 13.5825L22.5601 13.5731Z" fill="#A53D08"/>
<path d="M17.6699 7.44545L17.6558 6.6203L18.3122 6.62499L18.3169 7.44545H20.1079L20.1125 8.08775L18.3169 8.09713L18.3028 15.6641L17.6652 15.6688L17.6558 8.08775L15.8743 8.09713V7.44076L17.6699 7.44545Z" fill="black"/>
<path fill-rule="evenodd" clip-rule="evenodd" d="M16.2213 13.8825L17.8623 15.5844C18.4249 14.9608 18.031 12.6307 17.2856 12.2041C17.1965 12.4807 17.0465 12.8136 16.8824 12.9167C16.5261 13.1605 15.6587 13.4418 15.9447 13.62C16.0151 13.5309 16.1885 13.4465 16.2729 13.6481C16.3667 13.9716 15.9072 13.9904 15.9072 13.9904C15.9072 13.9904 15.6165 13.9528 15.565 13.6622C15.5181 13.3621 16.001 13.0902 16.0385 13.0714C16.0854 13.0574 16.7136 12.8839 16.8214 12.326C16.9527 11.7728 17.0934 11.8572 17.1168 11.8478C17.9467 11.9275 18.4858 13.409 18.5186 14.4498C18.5515 15.4906 18.0967 16.1845 18.0123 16.2314C17.9279 16.2783 16.0432 13.9857 16.0432 13.9857L16.2213 13.8825Z" fill="#FF9A08" stroke="black" stroke-width="0.0375068"/>
<path d="M17.4122 12.2979L17.4263 15.3687L17.4122 12.2979ZM17.2294 12.3588L17.2387 15.1437L17.2294 12.3588ZM17.0278 12.762L17.0418 14.9749L17.0278 12.762ZM16.8684 12.9167L16.8777 14.7499L16.8684 12.9167ZM16.6949 13.0011V14.5483V13.0011ZM16.5074 13.123V14.3467V13.123ZM16.3433 13.2215V14.1591V13.2215Z" fill="#FF9A08"/>
<path d="M17.4122 12.2979L17.4263 15.3687M17.2294 12.3588L17.2387 15.1437M17.0278 12.762L17.0418 14.9749M16.8684 12.9167L16.8777 14.7499M16.6949 13.0011V14.5483M16.5074 13.123V14.3467M16.3433 13.2215V14.1591" stroke="black" stroke-width="0.0375068"/>
<path d="M16.1931 14.0795L17.8801 16.0101" stroke="#FFDF00" stroke-width="0.0468835" stroke-linecap="round"/>
<path d="M17.9654 12.8605C17.9654 12.8605 18.7296 14.5342 18.0216 15.9079M15.9963 13.7231C15.9963 13.7231 16.0525 13.5778 16.1229 13.6387M15.8603 13.2965C15.8603 13.2965 15.5556 13.5684 15.7197 13.7419" stroke="#FFDF00" stroke-width="0.0656369" stroke-linecap="round"/>
<path d="M18.3216 9.03479C18.4342 8.94103 18.4951 8.88008 18.5654 8.89414C18.6358 8.90821 18.7295 8.89414 18.7998 8.87539C18.9844 8.83253 19.1755 8.82616 19.3624 8.85664C19.4093 8.86601 19.475 8.88945 19.5781 8.97384C19.6813 9.05823 19.8219 9.20826 19.775 9.61146C19.7281 10.0147 19.7422 10.1881 19.7188 10.4179C19.6813 10.8164 19.5922 11.1446 19.4375 11.1211C19.6484 11.4962 19.6719 11.8244 19.8125 12.0822C19.9532 12.3401 20.0376 12.8699 19.986 13.4418C19.9297 14.0185 19.7797 15.3031 20.2345 16.1705C20.1595 16.222 19.9766 16.1705 19.8125 15.997C19.6484 15.8235 19.5781 15.8282 19.4422 15.9314C19.0343 16.2455 18.6451 16.6252 18.0825 16.2455C17.9513 16.1611 17.9091 16.0579 18.0075 15.7907C18.2419 15.1343 18.3591 14.2248 18.3216 13.8028V9.03479Z" fill="#008021" stroke="black" stroke-width="0.0140651"/>
<path d="M18.7155 8.63159C18.7436 8.72536 18.7577 8.84257 18.7108 8.9504C18.6639 9.05823 18.6499 9.18482 18.7296 9.34422C18.8609 9.16138 19.0437 9.20357 19.1515 9.09105C19.2594 8.98322 19.2828 8.88008 19.3625 8.85663C19.2828 8.78631 19.1562 8.71598 19.1844 8.50501C19.2125 8.30341 19.4985 8.12994 19.2406 7.82051C19.1798 7.74506 19.0921 7.69608 18.996 7.68384C18.8998 7.67161 18.8027 7.69706 18.7249 7.75487C18.6788 7.7866 18.6403 7.82825 18.6124 7.87677C18.5983 7.91428 18.6171 7.99398 18.5796 8.04086L18.4858 8.13463C18.4514 8.15026 18.4452 8.1737 18.467 8.20495C18.4795 8.21433 18.4967 8.22058 18.5186 8.22371L18.4811 8.29403C18.4686 8.30653 18.4702 8.32216 18.4858 8.34092C18.467 8.40186 18.5045 8.41124 18.4811 8.45812C18.4577 8.50501 18.4248 8.55189 18.5092 8.59878C18.5374 8.61284 18.6499 8.64097 18.7108 8.63159H18.7155ZM17.6606 9.70523C17.5106 9.74742 17.2668 9.68178 17.0793 9.70523C16.9996 9.70991 16.9386 9.66772 16.948 9.58802C16.9574 9.50832 16.9668 9.38173 16.948 9.26921C16.9246 9.09105 17.009 8.84726 17.1309 8.57533C17.2235 8.40671 17.284 8.22227 17.309 8.03148C17.309 7.94709 17.3184 7.85333 17.3934 7.80644C17.4497 7.76894 17.459 7.73612 17.4778 7.70799C17.5247 7.63766 17.5716 7.6236 17.5716 7.6611C17.5778 7.68298 17.57 7.70955 17.5481 7.74081C17.595 7.69861 17.6794 7.65173 17.6981 7.63766C17.7169 7.62829 17.8107 7.55796 17.8154 7.6236C17.856 7.60484 17.881 7.60484 17.8904 7.6236C17.8966 7.64548 17.8919 7.6611 17.8763 7.67048C17.8997 7.67048 17.9326 7.71736 17.8763 7.75487C17.9091 7.74549 17.9373 7.79238 17.8857 7.83926C17.8341 7.88614 17.7732 7.91428 17.7544 7.94709C17.7357 7.9846 17.6091 8.08306 17.5575 8.10181C17.5059 8.12525 17.5012 8.15338 17.5012 8.22839C17.5012 9.06292 17.4028 8.99728 17.4028 9.1942C17.4028 9.25046 17.3934 9.29734 17.4497 9.28327C17.4965 9.26452 17.5809 9.24108 17.6606 9.24108V9.70991V9.70523ZM17.6935 11.5009C17.9373 11.379 18.2186 11.3368 18.3639 11.2993C18.5045 11.2618 18.739 11.1446 18.8562 11.0883C18.9687 11.0273 19.0625 10.9476 19.1234 10.9242C19.189 10.9008 19.2641 10.8586 19.3016 10.7789C19.5125 10.3663 19.6297 10.0381 19.6297 9.74742C19.6297 9.55989 19.5829 9.34891 19.3953 9.50363C19.2219 9.64428 19.0343 9.92089 18.9828 10.1178C18.9077 10.4225 18.8421 10.4882 18.828 10.5444C18.8093 10.6054 18.7483 10.6054 18.678 10.6195C18.443 10.6579 18.2236 10.7619 18.0451 10.9195C17.8308 11.0771 17.6069 11.2212 17.3746 11.3508C17.2012 11.4446 17.1684 11.4587 17.1309 11.5384C17.103 11.6008 17.0667 11.6592 17.023 11.7118C17.0091 11.7277 16.999 11.7464 16.9933 11.7667C16.9876 11.787 16.9865 11.8083 16.9902 11.8291L16.9761 12.0822C16.9761 12.1291 16.9871 12.1525 17.009 12.1525C17.0277 12.1525 17.0558 12.1432 17.0699 12.0775C17.0605 12.1432 17.1496 12.1244 17.1543 12.0775C17.1543 12.1432 17.2481 12.101 17.2481 12.04C17.2481 12.0869 17.3231 12.0541 17.3278 12.0306L17.3793 11.8712C17.4122 11.8103 17.445 11.7306 17.5106 11.6837C17.5809 11.6368 17.5481 11.5759 17.6935 11.5009ZM19.4422 15.9314L19.5032 16.1001C19.5125 16.1423 19.4938 16.1517 19.4844 16.1752C19.4215 16.3058 19.3773 16.4447 19.3531 16.5877C19.3531 16.644 19.3063 16.7049 19.2922 16.7378C19.2672 16.7753 19.2781 16.8112 19.325 16.8456C19.3484 16.8597 19.4188 16.8362 19.4328 16.7987C19.4563 16.8268 19.5078 16.8175 19.5266 16.7753C19.5579 16.7971 19.5891 16.7862 19.6204 16.7424C19.6438 16.7612 19.6813 16.7284 19.6954 16.7049C19.7391 16.7268 19.7657 16.7002 19.7751 16.6252L19.7938 16.569C19.8032 16.5471 19.8079 16.5205 19.8079 16.4893C19.8079 16.4565 19.8267 16.3955 19.8501 16.358C19.8735 16.3111 19.9204 16.2408 19.897 16.1705C19.8829 16.1048 19.8548 16.1095 19.8313 16.0157C19.7704 15.9548 19.6907 15.8657 19.6063 15.861C19.5219 15.8563 19.475 15.9126 19.4422 15.9314ZM17.9044 16.3955C17.9794 16.4705 18.1529 16.4752 18.2701 16.3486C18.2232 16.3299 18.1295 16.2877 18.092 16.2549C18.031 16.3111 17.9607 16.3768 17.9044 16.3955Z" fill="#FFE1CF" stroke="black" stroke-width="0.0140651"/>
<path d="M18.6687 7.79699C18.7015 7.60954 18.8374 7.60954 18.9217 7.63297C18.9592 7.63766 19.0436 7.64703 19.1233 7.6236C19.2873 7.58143 19.4044 7.63766 19.3904 7.7923C19.4372 7.8251 19.4794 7.90008 19.47 7.96569C19.4575 8.02817 19.4794 8.06097 19.5356 8.06409C19.5965 8.07347 19.7231 8.14844 19.6387 8.25154C19.7184 8.2984 19.7793 8.42492 19.7371 8.50459C19.695 8.58425 19.5637 8.60299 19.5122 8.52802C19.4513 8.55613 19.3529 8.56082 19.2966 8.4999C19.2545 8.54676 19.1561 8.54207 19.1326 8.4999C19.1139 8.45616 19.0842 8.42961 19.0436 8.42024C18.9967 8.40618 18.9967 8.28903 19.0623 8.27497C19.053 8.23435 19.0561 8.20311 19.0717 8.18125C19.0873 8.15938 19.0764 8.13126 19.0389 8.0969C19.0014 8.06409 18.9686 7.95631 19.0061 7.89071C18.9405 7.91414 18.7999 7.84853 18.7718 7.80636C18.7343 7.76262 18.7015 7.7595 18.6734 7.79699H18.6687Z" fill="#870F00" stroke="black" stroke-width="0.0140651"/>
<path d="M18.7155 8.63114C18.8186 8.61708 18.856 8.55148 18.931 8.55616M18.4858 8.33592L18.514 8.35466C18.5358 8.36403 18.5577 8.36872 18.5796 8.36872M18.5186 8.22345L18.5655 8.25157M18.7623 7.79702C18.7014 7.74079 18.8701 7.61895 19.0435 7.79233C19.0763 7.82045 19.1606 7.82513 19.1841 7.81576M19.006 7.89074C19.0857 7.872 19.2075 7.872 19.2403 7.96103C19.2778 8.05475 19.3481 7.99383 19.4043 8.10161C19.4605 8.21408 19.5543 8.33592 19.6386 8.25157M19.2965 8.49993C19.2825 8.47701 19.2736 8.45133 19.2703 8.42465C19.2671 8.39797 19.2696 8.3709 19.2778 8.34529C19.245 8.3078 19.259 8.23282 19.2778 8.19534M19.0622 8.275C19.0622 8.3078 19.1091 8.36872 19.1747 8.37809M19.5121 8.52805C19.4809 8.48431 19.473 8.43432 19.4887 8.37809" stroke="black" stroke-width="0.0140651"/>
<path d="M19.1188 7.98929C19.1188 8.03617 19.1422 8.10181 19.1938 8.12994C19.2078 8.15338 19.2594 8.2284 19.3672 8.21902M19.3907 7.79707C19.3205 7.73455 19.2346 7.6924 19.1422 7.67517M18.7296 9.34422C18.6359 9.47081 18.5796 9.64428 18.6218 9.88807C18.664 10.1319 18.7343 10.4882 18.5562 10.6476M19.4329 11.1211C19.311 11.093 19.1328 11.093 19.0344 11.1633C18.9795 11.1983 18.9166 11.2184 18.8517 11.2217C18.7867 11.2249 18.7221 11.2113 18.664 11.1821" stroke="black" stroke-width="0.0140651"/>
<path d="M19.1703 11.1117C19.0624 11.1305 19.0109 11.2055 19.0109 11.4071C19.0109 11.6087 18.9687 11.8994 19.0062 12.1854M18.9734 11.1961C18.903 11.2149 18.8327 11.2149 18.8421 11.4071M18.6077 11.4071C18.6077 11.2946 18.6546 11.1867 18.7296 11.2055M19.3859 11.4305C19.3953 11.1774 19.3391 11.1024 19.2594 11.1024C19.3625 11.107 19.4328 11.1211 19.475 11.5431C19.5078 11.8525 19.5735 11.965 19.6485 12.2135C19.8454 12.8511 19.7469 13.8357 19.8454 14.1826M19.2406 11.5102C19.505 12.2594 19.4967 13.0779 19.2172 13.8216C19.4422 14.4498 19.6719 14.9046 19.7141 15.1625M18.5889 12.9121C18.6264 12.7808 18.4952 12.762 18.6124 12.2885C18.6624 12.0885 18.6718 11.9556 18.6405 11.89" stroke="black" stroke-width="0.0140651"/>
<path d="M18.6404 12.1713C18.5935 12.3822 18.7951 12.7808 18.6919 13.0621M18.4341 13.1183C18.4341 13.3058 18.481 13.5403 18.4716 13.7278C18.4622 13.9106 18.5372 13.995 18.6216 14.1685C18.9357 14.7967 19.1514 15.2468 19.1186 15.8329C19.1186 15.9407 19.1514 16.1704 19.0389 16.2361M18.4481 16.3955C18.481 16.3955 18.5138 16.3814 18.556 16.283C18.5935 16.1892 18.7248 15.6031 18.6732 15.2046M18.7341 15.6547C18.7595 15.8506 18.7386 16.0497 18.6732 16.2361" stroke="black" stroke-width="0.0140651"/>
<path d="M18.9405 15.2844C18.9874 15.5469 18.9874 15.786 18.9452 15.9548M18.8327 15.9548C18.8374 16.0626 18.8889 16.3299 18.8045 16.3533M19.2406 14.6983C19.4375 15.0124 19.5969 15.786 19.761 15.9501M19.414 15.8235C19.4046 15.7391 19.4 15.6172 19.3531 15.5657M17.2527 12.04C17.2527 11.9791 17.2433 11.9228 17.309 11.829M17.1542 12.0728C17.1636 11.8665 17.1589 11.8478 17.2199 11.7915M17.0745 12.0775C17.0745 11.9322 17.0558 11.8806 17.112 11.7822M17.8153 7.6189L17.5996 7.7783M17.8716 7.66578C17.8528 7.67203 17.7762 7.72829 17.6418 7.83456M17.8809 7.75017C17.834 7.76892 17.759 7.84394 17.684 7.9002M17.5434 7.73611L17.4684 7.81112M19.4328 16.7987C19.4171 16.7799 19.4203 16.7424 19.4422 16.6862M19.5265 16.7753C19.5125 16.7612 19.5265 16.6955 19.5453 16.6534M19.6203 16.7424C19.5984 16.7299 19.5984 16.6987 19.6203 16.6487M19.6953 16.7049C19.6797 16.7049 19.6797 16.6768 19.6953 16.6205" stroke="black" stroke-width="0.0140651"/>
<path d="M18.6309 7.97052C18.6684 8.01738 18.7106 8.01738 18.7153 8.05018L18.734 8.09704H18.7059L18.6403 8.09236C18.6216 8.09236 18.5981 8.06893 18.6122 8.06424C18.6247 8.06424 18.6278 8.05955 18.6216 8.05018L18.6356 8.02207C18.6388 8.02207 18.6388 8.01582 18.6356 8.00332C18.6263 7.98926 18.6216 7.95646 18.6309 7.97052ZM18.6544 7.92366C18.7136 7.92964 18.7694 7.95425 18.8137 7.99395C18.8465 8.03144 18.8184 8.02207 18.8043 8.02207C18.7825 8.02207 18.7606 8.01269 18.7387 7.99395C18.7247 7.97521 18.6731 7.94709 18.645 7.9424C18.6356 7.93772 18.6216 7.91897 18.6544 7.92366Z" fill="black"/>
<path d="M0.0183105 0.0612793H12.0205V12.0635H0.0183105V0.0612793Z" fill="#012169"/>
<path d="M12.0205 0.0612793V1.56155L7.56656 6.06237L12.0205 10.446V12.0635H10.4499L5.97252 7.65641L1.61235 12.0635H0.0183105V10.4694L4.37848 6.08581L0.0183105 1.79597V0.0612793H1.4717L5.97252 4.46833L10.3327 0.0612793H12.0205Z" fill="white"/>
<path d="M4.3316 7.65641L4.58945 8.45343L1.00286 12.0635H0.0183105V11.9931L4.3316 7.65641ZM7.23837 7.37511L8.50423 7.56264L12.0205 11.0086V12.0635L7.23837 7.37511ZM12.0205 0.0612793L7.51968 4.65587L7.42591 3.62443L10.9422 0.0612793H12.0205ZM0.0183105 0.0847211L4.54257 4.51521L3.15951 4.32768L0.0183105 1.20993V0.0847211Z" fill="#C8102E"/>
<path d="M4.14406 0.0612793V12.0635H7.89474V0.0612793H4.14406ZM0.0183105 4.18703V7.93771H12.0205V4.18703H0.0183105Z" fill="white"/>
<path d="M0.0183105 4.93717V7.18758H12.0205V4.93717H0.0183105ZM4.8942 0.0612793V12.0635H7.14461V0.0612793H4.8942Z" fill="#C8102E"/>
</g>
<defs>
<clipPath id="clip0_720_53339">
<rect width="24.0044" height="24.0044" fill="white" transform="translate(0.00878906 0.0612793)"/>
</clipPath>
</defs>
</svg>
