<svg width="25" height="25" viewBox="0 0 25 25" fill="none" xmlns="http://www.w3.org/2000/svg">
<g clip-path="url(#clip0_720_53432)">
<mask id="mask0_720_53432" style="mask-type:luminance" maskUnits="userSpaceOnUse" x="0" y="0" width="25" height="25">
<path d="M0.0168457 0.0614624H24.0175V24.0622H0.0168457V0.0614624Z" fill="white"/>
</mask>
<g mask="url(#mask0_720_53432)">
<path fill-rule="evenodd" clip-rule="evenodd" d="M0.0168457 0.0614624H36.0179V7.56168H0.0168457V0.0614624Z" fill="#009A00"/>
<path fill-rule="evenodd" clip-rule="evenodd" d="M0.0168457 7.56158H36.0179V8.31161H0.0168457V7.56158Z" fill="white"/>
<path fill-rule="evenodd" clip-rule="evenodd" d="M0.0168457 8.31165H36.0179V15.8119H0.0168457V8.31165Z" fill="#000001"/>
<path fill-rule="evenodd" clip-rule="evenodd" d="M0.0168457 15.8118H36.0179V16.5619H0.0168457V15.8118Z" fill="white"/>
<path fill-rule="evenodd" clip-rule="evenodd" d="M0.0168457 16.5619H36.0179V24.0621H0.0168457V16.5619Z" fill="#FFCA00"/>
<path fill-rule="evenodd" clip-rule="evenodd" d="M0.0168457 0.0614624V24.0622L15.7721 12.0618L0.0168457 0.0614624Z" fill="#FF0000"/>
<path fill-rule="evenodd" clip-rule="evenodd" d="M9.32204 15.6715L6.92197 13.915L4.52674 15.6715L5.4558 12.8456L3.03638 11.1036L6.01711 11.1181L6.92197 8.28741L7.83168 11.1181L10.8076 11.1036L8.38814 12.8456L9.32204 15.6715Z" fill="#FFCA00"/>
<path fill-rule="evenodd" clip-rule="evenodd" d="M4.83643 13.7021H6.56873C6.70906 13.8569 7.01875 13.9198 7.31392 13.7021C7.85587 13.4021 8.9059 13.7021 8.9059 13.7021L9.11397 13.4795L8.61073 11.8295L8.42685 11.6359C8.42685 11.6359 8.03974 11.4036 7.30424 11.4811C6.56873 11.5585 6.31228 11.452 6.31228 11.452C6.31228 11.452 5.66387 11.5294 5.48483 11.6262L5.27676 11.8343L4.84126 13.7069L4.83643 13.7021Z" fill="white" stroke="black" stroke-width="0.0532273" stroke-linecap="round" stroke-linejoin="round"/>
<path d="M5.18481 13.2715C5.18481 13.2715 6.8397 13.0682 7.31391 13.7021C7.04777 13.886 6.81067 13.8957 6.55421 13.7118C6.59776 13.6441 7.14939 13.0682 8.55749 13.2618" stroke="black" stroke-width="0.0532273" stroke-linecap="round" stroke-linejoin="round"/>
<path d="M6.95592 11.6214L6.94141 13.4399M8.42621 11.6504L8.73575 13.0917" stroke="black" stroke-width="0.0532273"/>
<path d="M5.49911 11.6262L5.32983 12.371" stroke="black" stroke-width="0.0532273" stroke-linecap="round" stroke-linejoin="round"/>
<path fill-rule="evenodd" clip-rule="evenodd" d="M3.71387 13.9005L4.12033 14.3747C4.16872 14.4037 4.21388 14.4037 4.25582 14.3747L4.85584 13.6489L5.11229 13.3392C5.1298 13.3195 5.14312 13.2965 5.15144 13.2716C5.15976 13.2466 5.16291 13.2202 5.16068 13.194L5.64457 12.7585C5.67683 12.7682 5.70909 12.773 5.74135 12.773C5.6978 12.7585 5.66392 12.7392 5.70263 12.6859L5.80909 12.6037L5.89619 12.7101C5.89619 12.7101 5.77522 12.8698 5.7607 12.8698H5.63005L5.37359 13.0972L5.48489 13.194L5.65425 13.6537L5.85748 13.5085L5.72683 13.0392L6.01716 12.7246L5.90587 12.5553L5.97845 12.4585C5.97845 12.4585 6.98009 13.0876 7.3672 12.9182C7.37688 12.923 7.39139 12.4682 7.39139 12.4682C7.39139 12.4682 6.35104 12.3617 6.32685 12.1585C6.30265 11.9553 6.55911 11.9262 6.55911 11.9262L6.44782 11.7714L6.47201 11.6843L6.65589 11.9166L7.06235 11.5633L9.47694 14.3166C9.60759 14.2634 9.63662 14.2295 9.6463 14.0989L7.27526 11.3843L7.45914 11.1907C7.49301 11.152 7.50752 11.1327 7.50752 11.0698L7.78334 10.8278C7.85815 10.8538 7.9215 10.9051 7.96238 10.973L8.72691 10.3294C8.74627 10.3488 8.80918 10.3681 8.84789 10.3439L10.106 9.13422L8.73659 10.102L8.6882 10.0681C8.6882 10.0294 8.73659 10.0197 8.6882 9.94714C8.63498 9.88424 8.55272 10.01 8.54304 10.01C8.53336 10.01 8.34465 9.9423 8.3011 9.86004L8.29142 10.0826L7.93818 10.4068L7.67205 10.3972L7.28494 10.7697L7.23655 10.9149L7.29945 11.0359C7.29945 11.0359 7.09622 11.2149 7.09622 11.2052C7.09622 11.1956 7.05267 11.152 7.04783 11.1423L7.22687 10.9875L7.25107 10.8762L7.193 10.7843C7.17364 10.7988 6.95106 11.0359 6.93654 11.0117L6.29297 10.2713L6.32685 10.1359L5.91554 9.69068C5.77038 9.6423 5.52844 9.63262 5.48005 9.95682C5.44618 10.0342 5.13165 9.9665 5.13165 9.9665L4.96713 10.0052L4.01388 11.3552L4.54615 11.994L5.63005 10.6197L5.65908 10.2326L5.88651 10.4843C5.96393 10.4972 6.03651 10.4891 6.10426 10.4601L6.74783 11.1762L6.64137 11.2827L6.73815 11.3891L6.8446 11.3117L6.89299 11.3746L6.74783 11.4714C6.65589 11.4182 6.57363 11.3456 6.5833 11.2343L6.22039 11.5343L6.20587 11.5972L5.13165 12.4875L5.03487 12.5021L5.01068 12.7779L5.71231 12.1972V12.1149L5.78489 12.173L6.32685 11.7375C6.32685 11.7375 6.36556 11.7859 6.35104 11.7859C6.33652 11.7859 5.86716 12.2214 5.86716 12.2214L5.85748 12.2698L5.77522 12.3424L5.72683 12.3085L5.07358 12.8892H4.97681L4.61389 13.2472C4.52195 13.2569 4.43969 13.2666 4.36227 13.3198L3.71387 13.9005Z" fill="black" stroke="black" stroke-width="0.0532273" stroke-linecap="round" stroke-linejoin="round"/>
</g>
</g>
<defs>
<clipPath id="clip0_720_53432">
<rect width="24.0044" height="24.0044" fill="white" transform="translate(0.0175781 0.0612793)"/>
</clipPath>
</defs>
</svg>
