<svg width="25" height="25" viewBox="0 0 25 25" fill="none" xmlns="http://www.w3.org/2000/svg">
<g clip-path="url(#clip0_720_53474)">
<path d="M0.0214844 0.0612793H24.0259V24.0656H0.0214844V0.0612793Z" fill="#FECB00"/>
<path d="M0.0214844 8.06427H24.0259V24.0656H0.0214844V8.06427Z" fill="#34B233"/>
<path d="M0.0214844 16.0626H24.0259V24.0656H0.0214844V16.0626Z" fill="#EA2839"/>
<path d="M14.6771 12.9073H9.36987L12.0235 4.06042L14.6771 12.9073Z" fill="white"/>
<path d="M9.87668 11.3476L14.1703 14.4671L6.8234 20.0647L9.87668 11.3476Z" fill="white"/>
<path d="M12.8435 10.3837L11.2035 15.4311L3.60956 10.1735L12.8435 10.3837Z" fill="white"/>
<path d="M12.8435 15.4311L11.2035 10.3836L20.4374 10.1735L12.8435 15.4311Z" fill="white"/>
<path d="M9.87664 14.4671L14.1703 11.3476L17.2235 20.0647L9.87664 14.4671Z" fill="white"/>
</g>
<defs>
<clipPath id="clip0_720_53474">
<rect width="24.0044" height="24.0044" fill="white" transform="translate(0.0217285 0.0612793)"/>
</clipPath>
</defs>
</svg>
