<svg width="25" height="25" viewBox="0 0 25 25" fill="none" xmlns="http://www.w3.org/2000/svg">
<g clip-path="url(#clip0_720_53414)">
<mask id="mask0_720_53414" style="mask-type:luminance" maskUnits="userSpaceOnUse" x="0" y="0" width="25" height="25">
<path d="M0.03125 0.0614624H24.0356V24.0658H0.03125V0.0614624Z" fill="white"/>
</mask>
<g mask="url(#mask0_720_53414)">
<mask id="mask1_720_53414" style="mask-type:luminance" maskUnits="userSpaceOnUse" x="0" y="0" width="25" height="25">
<path d="M0.0317383 0.0615845H24.0361V24.066H0.0317383V0.0615845Z" fill="white"/>
</mask>
<g mask="url(#mask1_720_53414)">
<path fill-rule="evenodd" clip-rule="evenodd" d="M0.33667 23.761H18.0962L6.47372 11.9745L18.5369 11.9886L0.341358 0.36615V23.761H0.33667Z" fill="#CE0000" stroke="#000063" stroke-width="0.609486"/>
<path fill-rule="evenodd" clip-rule="evenodd" d="M8.50385 17.4928L7.238 17.9147L8.23193 18.843L6.89575 18.7586L7.44429 19.987L6.24876 19.4103L6.2722 20.7512L5.39079 19.7713L4.88913 21.0184L4.45781 19.7854L3.50607 20.7512L3.59046 19.4525L2.32929 19.987L2.92003 18.8149L1.54634 18.843L2.55433 17.985L1.27441 17.4928L2.54027 17.0708L1.54165 16.1425L2.87314 16.2269L2.32929 14.9985L3.52951 15.5752L3.50607 14.2343L4.38748 15.2142L4.88913 13.9671L5.31577 15.2001L6.2722 14.2343L6.18312 15.533L7.44898 14.9985L6.85355 16.1706L8.23193 16.1425L7.22393 17.0005L8.50385 17.4928ZM6.98483 8.83336L6.45504 9.22719L6.71759 9.44285C7.33342 9.01217 7.82889 8.43116 8.15692 7.75504C8.24131 8.75366 7.32708 10.99 4.93602 11.0134C4.49899 11.019 4.06518 10.938 3.65964 10.775C3.25409 10.6121 2.88483 10.3704 2.57318 10.064C2.26152 9.75755 2.01364 9.39243 1.84383 8.9897C1.67403 8.58697 1.58567 8.1546 1.58385 7.71754C2.05268 8.57082 2.34336 8.98339 3.08412 9.42879L3.30447 9.2225L2.80751 8.80523L3.44981 8.63645L3.10287 8.0551L3.77799 8.10198L3.6936 7.42686L4.28434 7.7738L4.47187 7.14087L4.89382 7.64721L5.29233 7.16431L5.508 7.82068L6.06122 7.43624L5.9909 8.10667L6.65664 8.02697L6.34252 8.64583L6.98483 8.83336Z" fill="white"/>
</g>
</g>
</g>
<defs>
<clipPath id="clip0_720_53414">
<rect width="24.0044" height="24.0044" fill="white" transform="translate(0.0305176 0.0612793)"/>
</clipPath>
</defs>
</svg>
