<svg width="24" height="25" viewBox="0 0 24 25" fill="none" xmlns="http://www.w3.org/2000/svg">
<g clip-path="url(#clip0_720_53331)">
<path fill-rule="evenodd" clip-rule="evenodd" d="M-0.000244141 0.0656128H24.0041V24.07H-0.000244141V0.0656128Z" fill="#00247D"/>
<path d="M18.584 7.32928V7.97355L19.8725 7.32928H18.584Z" fill="white"/>
<path d="M18.8417 8.1024L18.584 7.58699L19.8725 7.32928L18.8417 8.1024Z" fill="white"/>
<path d="M18.584 7.32928V7.97355L17.2955 7.32928H18.584Z" fill="white"/>
<path d="M18.3263 8.1024L18.584 7.58699L17.2955 7.32928L18.3263 8.1024Z" fill="white"/>
<path d="M18.9514 7.59662L18.3387 7.79571L19.3496 8.82208L18.9514 7.59662Z" fill="white"/>
<path d="M18.2958 8.08062L18.7063 7.67625L19.3496 8.82208L18.2958 8.08062Z" fill="white"/>
<path d="M18.2163 7.5965L18.829 7.79559L18.6145 6.37103L18.2163 7.5965Z" fill="white"/>
<path d="M19.0312 7.59031L18.4614 7.67613L18.6145 6.37103L19.0312 7.59031Z" fill="white"/>
<path d="M18.2163 7.5965L18.829 7.79559L17.8181 8.82196L18.2163 7.5965Z" fill="white"/>
<path d="M18.872 8.0805L18.4614 7.67613L17.8181 8.82196L18.872 8.0805Z" fill="white"/>
<path d="M18.5837 7.46045V7.88617L19.4352 7.46045H18.5837Z" fill="#CC142B"/>
<path d="M18.754 7.97132L18.5837 7.63074L19.4352 7.46045L18.754 7.97132Z" fill="#CC142B"/>
<path d="M18.5837 7.46045V7.88617L17.7323 7.46045H18.5837Z" fill="#CC142B"/>
<path d="M18.4135 7.97132L18.5837 7.63074L17.7323 7.46045L18.4135 7.97132Z" fill="#CC142B"/>
<path d="M18.8267 7.63702L18.4218 7.76858L19.0898 8.4468L18.8267 7.63702Z" fill="#CC142B"/>
<path d="M18.3934 7.95685L18.6647 7.68965L19.0898 8.4468L18.3934 7.95685Z" fill="#CC142B"/>
<path d="M18.3406 7.63702L18.7455 7.76858L18.6037 6.82725L18.3406 7.63702Z" fill="#CC142B"/>
<path d="M18.8791 7.63294L18.5025 7.68965L18.6037 6.82725L18.8791 7.63294Z" fill="#CC142B"/>
<path d="M18.3406 7.63702L18.7455 7.76858L18.0775 8.4468L18.3406 7.63702Z" fill="#CC142B"/>
<path d="M18.7738 7.95685L18.5025 7.68965L18.0775 8.4468L18.7738 7.95685Z" fill="#CC142B"/>
<path d="M21.9614 10.3057L21.9614 10.879L23.108 10.3057L21.9614 10.3057Z" fill="white"/>
<path d="M22.1907 10.9936L21.9614 10.535L23.108 10.3057L22.1907 10.9936Z" fill="white"/>
<path d="M21.9614 10.3057L21.9614 10.879L20.8148 10.3057L21.9614 10.3057Z" fill="white"/>
<path d="M21.7321 10.9936L21.9614 10.535L20.8148 10.3057L21.7321 10.9936Z" fill="white"/>
<path d="M22.2888 10.5434L21.7436 10.7206L22.6431 11.6339L22.2888 10.5434Z" fill="white"/>
<path d="M21.7054 10.9741L22.0707 10.6143L22.6431 11.6339L21.7054 10.9741Z" fill="white"/>
<path d="M21.634 10.5435L22.1793 10.7206L21.9884 9.45296L21.634 10.5435Z" fill="white"/>
<path d="M22.3592 10.538L21.8521 10.6143L21.9884 9.45296L22.3592 10.538Z" fill="white"/>
<path d="M21.634 10.5435L22.1793 10.7206L21.2797 11.634L21.634 10.5435Z" fill="white"/>
<path d="M22.2175 10.9742L21.8521 10.6143L21.2797 11.634L22.2175 10.9742Z" fill="white"/>
<path d="M21.9622 10.4369L21.9622 10.7917L22.6717 10.4369L21.9622 10.4369Z" fill="#CC142B"/>
<path d="M22.1041 10.8626L21.9622 10.5788L22.6717 10.4369L22.1041 10.8626Z" fill="#CC142B"/>
<path d="M21.9622 10.4369L21.9622 10.7917L21.2526 10.4369L21.9622 10.4369Z" fill="#CC142B"/>
<path d="M21.8202 10.8626L21.9622 10.5788L21.2526 10.4369L21.8202 10.8626Z" fill="#CC142B"/>
<path d="M22.1641 10.584L21.8267 10.6936L22.3833 11.2588L22.1641 10.584Z" fill="#CC142B"/>
<path d="M21.803 10.8505L22.0291 10.6278L22.3833 11.2588L21.803 10.8505Z" fill="#CC142B"/>
<path d="M21.759 10.5842L22.0964 10.6938L21.9783 9.90935L21.759 10.5842Z" fill="#CC142B"/>
<path d="M22.2078 10.5808L21.894 10.628L21.9783 9.90935L22.2078 10.5808Z" fill="#CC142B"/>
<path d="M21.759 10.5842L22.0964 10.6938L21.5398 11.259L21.759 10.5842Z" fill="#CC142B"/>
<path d="M22.1201 10.8507L21.894 10.628L21.5398 11.259L22.1201 10.8507Z" fill="#CC142B"/>
<path d="M14.6492 11.2921L14.6492 11.9364L15.9377 11.2921L14.6492 11.2921Z" fill="white"/>
<path d="M14.9069 12.0652L14.6492 11.5498L15.9377 11.2921L14.9069 12.0652Z" fill="white"/>
<path d="M14.6492 11.2921L14.6492 11.9364L13.3606 11.2921L14.6492 11.2921Z" fill="white"/>
<path d="M14.3915 12.0652L14.6492 11.5498L13.3606 11.2921L14.3915 12.0652Z" fill="white"/>
<path d="M15.0178 11.5593L14.4051 11.7584L15.416 12.7848L15.0178 11.5593Z" fill="white"/>
<path d="M14.3622 12.0433L14.7727 11.639L15.416 12.7848L14.3622 12.0433Z" fill="white"/>
<path d="M14.2817 11.5594L14.8945 11.7585L14.6799 10.334L14.2817 11.5594Z" fill="white"/>
<path d="M15.0967 11.5533L14.5268 11.6391L14.6799 10.334L15.0967 11.5533Z" fill="white"/>
<path d="M14.2817 11.5594L14.8945 11.7585L13.8836 12.7849L14.2817 11.5594Z" fill="white"/>
<path d="M14.9374 12.0434L14.5268 11.6391L13.8836 12.7849L14.9374 12.0434Z" fill="white"/>
<path d="M14.6497 11.4231L14.6497 11.8488L15.5011 11.4231L14.6497 11.4231Z" fill="#CC142B"/>
<path d="M14.8199 11.934L14.6497 11.5934L15.5011 11.4231L14.8199 11.934Z" fill="#CC142B"/>
<path d="M14.6497 11.4231L14.6497 11.8488L13.7982 11.4231L14.6497 11.4231Z" fill="#CC142B"/>
<path d="M14.4794 11.934L14.6497 11.5934L13.7982 11.4231L14.4794 11.934Z" fill="#CC142B"/>
<path d="M14.8928 11.5999L14.4879 11.7315L15.1559 12.4097L14.8928 11.5999Z" fill="#CC142B"/>
<path d="M14.4596 11.9197L14.7309 11.6525L15.1559 12.4097L14.4596 11.9197Z" fill="#CC142B"/>
<path d="M14.406 11.5999L14.8109 11.7315L14.6691 10.7901L14.406 11.5999Z" fill="#CC142B"/>
<path d="M14.9445 11.5958L14.568 11.6525L14.6691 10.7901L14.9445 11.5958Z" fill="#CC142B"/>
<path d="M14.406 11.5999L14.8109 11.7315L14.1429 12.4097L14.406 11.5999Z" fill="#CC142B"/>
<path d="M14.8393 11.9197L14.568 11.6525L14.1429 12.4097L14.8393 11.9197Z" fill="#CC142B"/>
<path d="M18.585 17.5092V18.2244L20.0154 17.5092H18.585Z" fill="white"/>
<path d="M18.871 18.3675L18.585 17.7953L20.0154 17.5092L18.871 18.3675Z" fill="white"/>
<path d="M18.585 17.5092V18.2244L17.1545 17.5092H18.585Z" fill="white"/>
<path d="M18.2989 18.3675L18.585 17.7953L17.1545 17.5092L18.2989 18.3675Z" fill="white"/>
<path d="M18.9934 17.8066L18.3132 18.0276L19.4354 19.167L18.9934 17.8066Z" fill="white"/>
<path d="M18.2656 18.3439L18.7213 17.895L19.4354 19.167L18.2656 18.3439Z" fill="white"/>
<path d="M18.176 17.8056L18.8562 18.0266L18.6181 16.4452L18.176 17.8056Z" fill="white"/>
<path d="M19.0807 17.7987L18.4481 17.894L18.6181 16.4452L19.0807 17.7987Z" fill="white"/>
<path d="M18.176 17.8056L18.8562 18.0266L17.734 19.166L18.176 17.8056Z" fill="white"/>
<path d="M18.9039 18.3429L18.4481 17.894L17.734 19.166L18.9039 18.3429Z" fill="white"/>
<path d="M18.585 17.6401V18.1368L19.5783 17.6401H18.585Z" fill="#CC142B"/>
<path d="M18.7836 18.2362L18.585 17.8388L19.5783 17.6401L18.7836 18.2362Z" fill="#CC142B"/>
<path d="M18.585 17.6401V18.1368L17.5916 17.6401H18.585Z" fill="#CC142B"/>
<path d="M18.3863 18.2362L18.585 17.8388L17.5916 17.6401L18.3863 18.2362Z" fill="#CC142B"/>
<path d="M18.8687 17.8461L18.3963 17.9996L19.1756 18.7909L18.8687 17.8461Z" fill="#CC142B"/>
<path d="M18.3632 18.2193L18.6797 17.9075L19.1756 18.7909L18.3632 18.2193Z" fill="#CC142B"/>
<path d="M18.3005 17.8461L18.7729 17.9996L18.6075 16.9014L18.3005 17.8461Z" fill="#CC142B"/>
<path d="M18.9288 17.8414L18.4895 17.9075L18.6075 16.9014L18.9288 17.8414Z" fill="#CC142B"/>
<path d="M18.3005 17.8461L18.7729 17.9996L17.9936 18.7909L18.3005 17.8461Z" fill="#CC142B"/>
<path d="M18.806 18.2193L18.4895 17.9075L17.9936 18.7909L18.806 18.2193Z" fill="#CC142B"/>
<path d="M-0.000244141 0.0656128H12.0019V12.0678H-0.000244141V0.0656128Z" fill="#012169"/>
<path d="M12.0019 0.0656128V1.56589L7.548 6.0667L12.0019 10.4503V12.0678H10.4313L5.95396 7.66074L1.5938 12.0678H-0.000244141V10.4738L4.35992 6.09015L-0.000244141 1.8003V0.0656128H1.45315L5.95396 4.47266L10.3141 0.0656128H12.0019Z" fill="white"/>
<path d="M4.31304 7.66074L4.5709 8.45776L0.98431 12.0678H-0.000244141V11.9975L4.31304 7.66074ZM7.21982 7.37944L8.48567 7.56698L12.0019 11.0129V12.0678L7.21982 7.37944ZM12.0019 0.0656128L7.50112 4.6602L7.40735 3.62876L10.9236 0.0656128H12.0019ZM-0.000244141 0.0890546L4.52402 4.51955L3.14095 4.33201L-0.000244141 1.21426V0.0890546Z" fill="#C8102E"/>
<path d="M4.12551 0.0656128V12.0678H7.87619V0.0656128H4.12551ZM-0.000244141 4.19136V7.94205H12.0019V4.19136H-0.000244141Z" fill="white"/>
<path d="M-0.000244141 4.9415V7.19191H12.0019V4.9415H-0.000244141ZM4.87564 0.0656128V12.0678H7.12605V0.0656128H4.87564Z" fill="#C8102E"/>
</g>
<defs>
<clipPath id="clip0_720_53331">
<rect width="24.0044" height="24.0044" fill="white" transform="translate(0 0.0656738)"/>
</clipPath>
</defs>
</svg>
