<svg width="25" height="25" viewBox="0 0 25 25" fill="none" xmlns="http://www.w3.org/2000/svg">
<g clip-path="url(#clip0_720_53371)">
<path d="M0.0393066 0.0612183H24.0437V24.0656H0.0393066V0.0612183Z" fill="#009543"/>
<path d="M0.0393066 0.0612183H24.0437V16.0626H0.0393066V0.0612183Z" fill="#ED4135"/>
<path d="M0.0393066 0.0612183H24.0437V8.06424H0.0393066V0.0612183Z" fill="#0035AD"/>
<path d="M10.6161 19.9305C14.9609 19.9305 18.4831 16.4083 18.4831 12.0635C18.4831 7.71861 14.9609 4.19641 10.6161 4.19641C6.27122 4.19641 2.74902 7.71861 2.74902 12.0635C2.74902 16.4083 6.27122 19.9305 10.6161 19.9305Z" fill="#FAE600" stroke="black" stroke-width="0.267236"/>
<path d="M9.28467 13.2355H11.9523H9.28467ZM9.28467 11.2664H11.9523H9.28467ZM10.6162 4.21515V17.6613V4.21515Z" fill="black"/>
<path d="M9.28467 13.2355H11.9523M9.28467 11.2664H11.9523M10.6162 4.21515V17.6613" stroke="black" stroke-width="0.318808"/>
<path d="M7.44692 19.2835C10.6631 20.5962 13.6731 19.3679 13.6731 19.3679C13.6731 19.3679 12.5338 18.1395 11.9524 17.6566C11.3851 17.1878 9.71139 17.2066 9.13942 17.6566C8.67058 18.0317 7.30158 19.4148 7.45161 19.2882L7.44692 19.2835Z" fill="#000001"/>
<path d="M10.6163 16.9722C11.1031 16.9722 11.4977 16.3992 11.4977 15.6923C11.4977 14.9854 11.1031 14.4124 10.6163 14.4124C10.1295 14.4124 9.73486 14.9854 9.73486 15.6923C9.73486 16.3992 10.1295 16.9722 10.6163 16.9722Z" fill="#000001"/>
<path d="M10.6161 12.9261C11.2064 12.9261 11.685 12.6238 11.685 12.251C11.685 11.8781 11.2064 11.5759 10.6161 11.5759C10.0257 11.5759 9.54712 11.8781 9.54712 12.251C9.54712 12.6238 10.0257 12.9261 10.6161 12.9261Z" fill="#000001"/>
<path d="M10.6161 10.1975C11.2064 10.1975 11.685 9.71894 11.685 9.12858C11.685 8.53821 11.2064 8.05963 10.6161 8.05963C10.0257 8.05963 9.54712 8.53821 9.54712 9.12858C9.54712 9.71894 10.0257 10.1975 10.6161 10.1975Z" fill="#000001"/>
<path d="M11.9008 5.15752C11.9008 5.15752 11.9946 5.30755 11.7977 5.65917C10.8647 7.33292 9.9364 7.37042 9.75824 7.51107C9.56133 7.67048 9.47694 7.6611 9.47694 7.6611C9.49569 7.52045 9.50507 6.92972 9.51445 6.87346C9.6551 6.09519 10.8412 6.10457 11.7649 5.30286C11.9055 5.17627 11.8961 5.15283 11.8961 5.15283L11.9008 5.15752ZM8.77837 8.75818C8.77837 8.75818 8.98935 9.3536 9.01748 9.95839C9.06905 10.9148 9.98797 10.9429 10.6162 10.9429V10.4085C10.1474 10.4085 9.73011 10.3428 9.39255 9.6349C9.21373 9.32534 9.00822 9.03198 8.77837 8.75818ZM8.75024 16.494C8.75024 16.494 9.08781 16.072 9.48163 15.1062C9.57199 14.8765 9.72753 14.6782 9.92911 14.5358C10.1307 14.3934 10.3695 14.313 10.6162 14.3045V13.5544C9.60352 13.5544 9.11594 13.9294 9.06905 14.4873C8.95653 15.6125 8.75024 16.4893 8.75024 16.4893V16.494ZM12.4634 8.75818C12.4634 8.75818 12.2478 9.3536 12.2196 9.95839C12.1681 10.9195 11.2491 10.9429 10.6209 10.9429V10.4132C11.0944 10.4132 11.507 10.3428 11.8492 9.63959C12.0305 9.32703 12.2337 9.03323 12.4587 8.75818H12.4634ZM12.4869 16.494C12.4869 16.494 12.154 16.0767 11.7555 15.1062C11.6644 14.8774 11.5085 14.6801 11.307 14.5385C11.1055 14.397 10.867 14.3173 10.6209 14.3092V13.559C11.6336 13.559 12.1212 13.9341 12.1727 14.4873C12.236 15.162 12.3409 15.8322 12.4869 16.494Z" fill="#000001"/>
</g>
<defs>
<clipPath id="clip0_720_53371">
<rect width="24.0044" height="24.0044" fill="white" transform="translate(0.0393066 0.0612793)"/>
</clipPath>
</defs>
</svg>
