<svg width="24" height="25" viewBox="0 0 24 25" fill="none" xmlns="http://www.w3.org/2000/svg">
<g clip-path="url(#clip0_720_53416)">
<path d="M0.00488281 0.0656128H24.0093V24.07H0.00488281V0.0656128Z" fill="#0067C6"/>
<path d="M0.00488281 8.06866H24.0093V16.067H0.00488281V8.06866Z" fill="white"/>
<path d="M8.40625 12.0397L8.80476 12.0678L8.80945 12.0069L8.65004 11.9975L8.66411 11.81L8.83289 11.6881V11.613L8.65942 11.7396C8.65317 11.6928 8.62973 11.6599 8.5891 11.6412C8.54846 11.6224 8.51096 11.6256 8.47658 11.6506C8.43907 11.6787 8.42969 11.7349 8.425 11.7771L8.40625 12.0397ZM8.4672 11.9881L8.48126 11.7912C8.48126 11.7537 8.49377 11.7224 8.51877 11.6974C8.5251 11.6925 8.5326 11.6892 8.54056 11.688C8.54851 11.6868 8.55665 11.6876 8.56419 11.6904C8.57172 11.6932 8.5784 11.698 8.58359 11.7041C8.58877 11.7103 8.59228 11.7177 8.59378 11.7256C8.61254 11.7756 8.61566 11.8271 8.60316 11.8803L8.59378 11.9975L8.4672 11.9881ZM8.45782 11.4255L8.84696 11.5193L8.94072 11.1395L8.87977 11.1255L8.80476 11.4536L8.68755 11.4208L8.75319 11.1301L8.70162 11.1161L8.63129 11.4068L8.52815 11.3833L8.59847 11.0739L8.54221 11.0598L8.45782 11.4255ZM8.59847 10.9051L8.97354 11.0364L8.99698 10.9801L8.84696 10.9332L8.9079 10.7598C8.91728 10.7129 8.92666 10.6566 8.89853 10.6144C8.88648 10.5996 8.87154 10.5874 8.85461 10.5785C8.83768 10.5696 8.81913 10.5643 8.80007 10.5629C8.75319 10.566 8.72037 10.5894 8.70162 10.6332C8.67661 10.6863 8.65473 10.7426 8.63598 10.802L8.59847 10.9051ZM8.67349 10.8676L8.73443 10.6988C8.74381 10.6613 8.76413 10.6363 8.79538 10.6238C8.82976 10.6176 8.85008 10.6332 8.85633 10.6707C8.85946 10.7207 8.84852 10.7707 8.82351 10.8207L8.79538 10.9145L8.67349 10.8676ZM8.80945 10.4222L9.02042 10.5441C9.06418 10.5754 9.1095 10.5785 9.15639 10.5535C9.21265 10.5254 9.25015 10.4597 9.27828 10.4081C9.29704 10.3613 9.31579 10.3003 9.28766 10.2487C9.25015 10.2081 9.20483 10.1737 9.1517 10.1456L9.01105 10.0659L8.98761 10.1128C9.05637 10.1597 9.12357 10.2003 9.1892 10.2347C9.22671 10.2566 9.2439 10.2878 9.24078 10.3284C9.23287 10.3747 9.21353 10.4182 9.18452 10.455C9.15951 10.4925 9.12669 10.5082 9.08606 10.5019C9.04543 10.4925 9.00792 10.4753 8.97354 10.4503L8.83289 10.3706L8.80945 10.4222ZM9.09544 9.95337L9.41425 10.1925L9.55959 10.0003C9.58772 9.95806 9.61585 9.90649 9.59709 9.8596C9.58703 9.83986 9.57244 9.82277 9.55451 9.80973C9.53659 9.7967 9.51583 9.78808 9.49395 9.78459C9.47207 9.78459 9.45332 9.79084 9.43769 9.80334C9.44081 9.75333 9.4205 9.72208 9.37674 9.70958C9.32986 9.69082 9.28297 9.72364 9.25015 9.75646C9.21265 9.79709 9.17827 9.83929 9.14701 9.88305L9.09544 9.95337ZM9.17514 9.93931L9.28766 9.79866C9.30954 9.7674 9.33454 9.75646 9.36267 9.76584C9.3908 9.78459 9.39706 9.80647 9.38143 9.83147C9.35955 9.87523 9.33454 9.91274 9.30641 9.94399L9.25953 10.0049L9.17514 9.93931ZM9.30641 10.0331L9.41893 9.89242C9.44081 9.86117 9.46738 9.84554 9.49864 9.84554C9.52989 9.85804 9.54396 9.87992 9.54083 9.91118C9.51895 9.96119 9.48926 10.0081 9.45175 10.0518L9.40487 10.1128L9.30641 10.0378V10.0331ZM9.45644 9.52673L9.72837 9.81741L9.96278 9.59237L9.92528 9.55486L9.73774 9.73302H9.72837L9.49395 9.48454L9.45644 9.52673ZM9.80807 9.2173L10.0519 9.53611L10.0987 9.4986L9.85495 9.17979L9.80807 9.2173ZM10.1644 8.97351C10.1275 8.99668 10.0957 9.02697 10.0706 9.06258C10.048 9.09274 10.0351 9.129 10.0334 9.16663C10.0317 9.20426 10.0414 9.24152 10.0612 9.27356C10.0798 9.30593 10.1075 9.33205 10.1409 9.34857C10.1722 9.3642 10.2066 9.37045 10.2441 9.36733C10.3393 9.34806 10.4234 9.2926 10.4785 9.21261C10.4957 9.17607 10.5006 9.13497 10.4926 9.0954L10.4363 9.11884C10.4504 9.19855 10.3988 9.23605 10.3425 9.27356C10.2456 9.32982 10.1675 9.31888 10.1081 9.24074C10.0566 9.14697 10.1175 9.07196 10.1925 9.02039C10.2488 8.98757 10.3003 8.96413 10.3519 8.99695L10.3988 8.95944C10.3695 8.93685 10.3324 8.92675 10.2957 8.93131C10.255 8.93131 10.2113 8.94694 10.1644 8.97819V8.97351ZM10.6379 8.73909L10.5957 9.18448L10.6613 9.16104L10.6707 9.02039L10.877 8.94069L10.9802 9.03445L11.0411 9.00632L10.7035 8.71096L10.6379 8.73909ZM10.6942 8.78597L10.8254 8.89849L10.6754 8.95944L10.6942 8.78597ZM11.5146 8.4906L11.5428 8.88911L11.7584 8.87505C11.8209 8.87505 11.8725 8.85317 11.9131 8.80941C11.935 8.7803 11.9497 8.7465 11.9562 8.7107C11.9628 8.67489 11.9608 8.63806 11.9506 8.60313C11.9392 8.5732 11.9202 8.54671 11.8956 8.52619C11.871 8.50567 11.8415 8.49181 11.81 8.48592C11.7537 8.47654 11.6928 8.47654 11.6271 8.48592L11.5146 8.4906ZM11.5756 8.54218L11.749 8.5328C11.7827 8.53065 11.8159 8.54063 11.8428 8.56093C11.8623 8.57538 11.8777 8.59463 11.8876 8.61682C11.8975 8.639 11.9014 8.66335 11.8991 8.68752C11.897 8.71474 11.887 8.74077 11.8703 8.76242C11.8537 8.78406 11.8311 8.80039 11.8053 8.80941L11.7115 8.82348L11.5943 8.82817L11.5756 8.54218ZM12.0725 8.46716L12.0491 8.86567L12.4382 8.88911V8.83285L12.11 8.8141L12.1194 8.6922L12.4148 8.71096L12.4195 8.6547L12.1241 8.63594V8.52811L12.4476 8.54686V8.4906L12.0725 8.46716ZM13.118 8.63594L12.9774 9.01101L13.0243 9.02508L13.1415 8.72971V8.71565L13.1509 8.7344L13.2915 9.12822L13.3572 9.15635L13.4978 8.78128L13.4509 8.76253L13.3337 9.0579V9.07196L13.3243 9.0579L13.1837 8.65939L13.118 8.63594ZM13.6572 8.86567L13.4697 9.22199L13.4228 9.19386L13.6009 8.83754L13.6572 8.86567ZM13.9573 9.04383C13.922 9.01911 13.8821 9.00159 13.8401 8.99226C13.803 8.98407 13.7644 8.98731 13.7292 9.00154C13.6941 9.01577 13.6641 9.04032 13.6431 9.07196C13.6215 9.10052 13.6085 9.13469 13.6056 9.17042C13.6056 9.20792 13.615 9.24387 13.6338 9.27825C13.661 9.31653 13.6962 9.34851 13.7369 9.37202C13.7838 9.40327 13.8275 9.42046 13.8682 9.42359C13.9119 9.42359 13.951 9.41265 13.9854 9.39077L13.9385 9.34388C13.8729 9.39077 13.8166 9.36264 13.7603 9.32513C13.6666 9.26262 13.6431 9.18917 13.69 9.10478C13.751 9.01101 13.8494 9.03445 13.9244 9.08603C13.987 9.11728 14.0182 9.1626 14.0182 9.22199L14.0651 9.24543C14.07 9.22742 14.0713 9.20861 14.0689 9.1901C14.0665 9.17159 14.0604 9.15374 14.051 9.1376C14.0277 9.09932 13.9955 9.06717 13.9573 9.04383ZM14.337 9.32513L13.9198 9.49391L13.9666 9.5408L14.0979 9.48922L14.2667 9.62987L14.2339 9.77053L14.2808 9.81272L14.3886 9.37202L14.3417 9.32513H14.337ZM14.323 9.40015L14.2761 9.56893L14.1589 9.46578L14.323 9.40015ZM14.6418 9.60643L14.3323 9.8596L14.3698 9.90649L14.4917 9.80803L14.6136 9.95337L14.5761 10.155L14.623 10.2159L14.6605 10.0003C14.7043 10.0346 14.7465 10.0409 14.7871 10.019C14.8309 10.0034 14.8543 9.97369 14.8574 9.92993C14.8621 9.87367 14.8246 9.83147 14.7918 9.78928L14.6418 9.60643ZM14.6324 9.68613C14.6824 9.7424 14.7261 9.79709 14.7637 9.85023C14.7824 9.87836 14.8105 9.91586 14.7824 9.94868C14.7683 9.97681 14.7262 9.97681 14.7027 9.95806C14.659 9.92055 14.6183 9.87836 14.5808 9.83147L14.5339 9.77053L14.6324 9.68613ZM15.1059 10.244L14.6558 10.2628L14.6933 10.3238L14.834 10.3144L14.9418 10.5019L14.8621 10.6238L14.8996 10.6801L15.1434 10.305L15.1106 10.244H15.1059ZM15.0684 10.305L14.9746 10.4503L14.8949 10.3097L15.0684 10.305ZM15.3638 10.7738C15.3403 10.7035 15.2981 10.6332 15.2325 10.6004C15.1951 10.5821 15.1527 10.5768 15.1119 10.5853C15.0712 10.5938 15.0344 10.6156 15.0075 10.6472C14.9668 10.7098 14.9543 10.7754 14.9699 10.8442C14.9837 10.9228 15.0194 10.996 15.0731 11.0551L15.045 11.0645L15.0637 11.1161L15.2512 11.0504L15.1762 10.8488L15.134 10.8629L15.1903 11.0129L15.1247 11.0364C15.0728 10.9852 15.037 10.92 15.0215 10.8488C15.0075 10.7926 15.0075 10.7269 15.0496 10.6894C15.0965 10.6426 15.1762 10.6238 15.2372 10.666C15.2874 10.7094 15.3206 10.7692 15.3309 10.8348C15.3466 10.8817 15.3403 10.9239 15.3122 10.9614C15.3059 10.9676 15.3075 10.9754 15.3169 10.9848L15.3356 11.0083C15.3522 10.9947 15.3655 10.9775 15.3745 10.958C15.3834 10.9385 15.3878 10.9172 15.3872 10.8957C15.3872 10.852 15.3794 10.8113 15.3638 10.7738ZM15.481 11.088L15.2559 11.1301C15.2153 11.1395 15.184 11.152 15.1622 11.1677C15.1403 11.1833 15.1262 11.2083 15.12 11.2427C15.1139 11.2832 15.1155 11.3246 15.1247 11.3646C15.134 11.4114 15.1497 11.449 15.1715 11.4771C15.1872 11.5052 15.2075 11.524 15.2325 11.5333C15.2575 11.5427 15.2919 11.5427 15.3356 11.5333L15.556 11.4865L15.5466 11.4302L15.3309 11.4771C15.2325 11.4912 15.1997 11.4396 15.1809 11.3552C15.1622 11.2614 15.1762 11.2052 15.2747 11.1864L15.4904 11.1395L15.481 11.088ZM15.6029 11.7678L15.1903 11.5896V11.6552L15.3216 11.7115L15.3356 11.9272L15.2184 12.0022L15.2231 12.0678L15.6076 11.8334L15.6029 11.7678ZM15.5419 11.8053L15.3919 11.899L15.3778 11.7349L15.5419 11.8053ZM8.71568 12.8039L8.65942 12.818L8.72037 13.0617L8.78132 13.0477L8.71568 12.8039ZM15.2981 12.8039L15.3544 12.818L15.2934 13.0617L15.2325 13.0477L15.2981 12.8039ZM9.33454 13.826L8.88915 13.8775L8.92666 13.9338L9.06731 13.9197L9.18452 14.1026L9.11888 14.2245L9.15639 14.2807L9.37205 13.8822L9.33454 13.826ZM9.30173 13.8916L9.21734 14.0463L9.12357 13.9103L9.30173 13.8916ZM9.50801 14.0744L9.22202 14.337L9.25953 14.3839L9.49864 14.1541L9.37205 14.5011L9.41893 14.548L9.76118 14.4448L9.52677 14.6652L9.56427 14.7027L9.84557 14.4401L9.78931 14.3745L9.44238 14.4823L9.57365 14.1401L9.50801 14.0744ZM9.92059 14.4964L9.68148 14.8152L9.99091 15.0496L10.0237 15.0027L9.76118 14.8058L9.8362 14.712L10.0706 14.8855L10.1081 14.8386L9.86902 14.6605L9.93465 14.5761L10.1878 14.7683L10.2206 14.7214L9.92059 14.4964ZM10.3144 14.7824L10.1269 15.134L10.1738 15.1621L10.2488 15.0215L10.4222 15.1152L10.4597 15.3168L10.5254 15.3497L10.4832 15.1387C10.5332 15.1543 10.5754 15.1449 10.6098 15.1106C10.6379 15.0793 10.6473 15.0434 10.6379 15.0027C10.6238 14.9512 10.5723 14.923 10.5301 14.8996L10.3144 14.7824ZM10.3379 14.8621L10.5207 14.9558C10.5441 14.9793 10.5816 15.0027 10.577 15.0402C10.577 15.0731 10.5395 15.0871 10.5113 15.0871C10.4551 15.0684 10.4019 15.0434 10.3519 15.0121L10.2769 14.9746L10.3379 14.8621ZM10.7645 15.0168L10.6145 15.3919L10.6707 15.4106L10.8208 15.0402L10.7645 15.0168ZM11.1255 15.1434C11.0849 15.1289 11.0419 15.1225 10.9989 15.1246C10.9613 15.1264 10.9251 15.1394 10.895 15.1619C10.8649 15.1845 10.8423 15.2156 10.8301 15.2512C10.8165 15.2855 10.8132 15.323 10.8208 15.359C10.8301 15.3965 10.8489 15.4278 10.877 15.4528C10.9121 15.4848 10.9537 15.5088 10.9989 15.5231C11.052 15.5388 11.0989 15.5435 11.1396 15.5372C11.1803 15.5275 11.2166 15.5043 11.2427 15.4716L11.1911 15.4434C11.1349 15.5044 11.0739 15.4903 11.0083 15.4716C10.9051 15.4341 10.8645 15.3669 10.8864 15.27C10.9192 15.1668 11.0177 15.1668 11.1067 15.195C11.1724 15.2106 11.213 15.2465 11.2286 15.3028L11.2849 15.3075C11.2819 15.2713 11.2651 15.2377 11.238 15.2137C11.2067 15.1816 11.1681 15.1575 11.1255 15.1434ZM11.5287 15.2371L11.2661 15.5981L11.3318 15.6075L11.4115 15.495L11.6271 15.5278L11.674 15.6591L11.7397 15.6685L11.5943 15.2465L11.5287 15.2325V15.2371ZM11.5521 15.3028L11.6084 15.4669L11.449 15.4434L11.5521 15.3028ZM12.4664 15.2371C12.423 15.2444 12.3815 15.2604 12.3445 15.284C12.3128 15.304 12.2879 15.333 12.2729 15.3672C12.2578 15.4015 12.2534 15.4394 12.2601 15.4763C12.2665 15.5113 12.2827 15.5439 12.307 15.57C12.332 15.6013 12.3632 15.6216 12.4007 15.631C12.4382 15.6403 12.4851 15.6403 12.5414 15.631C12.588 15.6217 12.6316 15.6007 12.668 15.57C12.699 15.5432 12.7204 15.507 12.7289 15.4669H12.6633C12.6492 15.5466 12.5883 15.5606 12.5226 15.5794C12.4101 15.5981 12.3413 15.5606 12.3163 15.4669C12.2976 15.359 12.382 15.3075 12.4711 15.2887C12.5367 15.27 12.5883 15.2809 12.6258 15.3215L12.682 15.3028C12.6627 15.2724 12.6325 15.2506 12.5976 15.2418C12.5519 15.2284 12.5035 15.2268 12.457 15.2371H12.4664ZM12.7336 15.1903L12.8461 15.5747L13.2212 15.4622L13.2024 15.4059L12.8883 15.4997L12.8508 15.3872L13.1368 15.2981L13.1227 15.2465L12.8367 15.3309L12.8039 15.2278L13.1087 15.134L13.0946 15.0824L12.7336 15.1903ZM13.1649 15.0496L13.3337 15.4153L13.3806 15.3919L13.2399 15.0918L13.6291 15.27H13.6572L13.7041 15.2418L13.54 14.8808L13.4931 14.9043L13.6291 15.2043L13.2306 15.0215L13.1649 15.0496ZM13.6056 14.848L13.6385 14.8949L13.7791 14.8011L13.7838 14.7964L13.9713 15.0824L14.0182 15.0496L13.8354 14.7683V14.7589L13.9807 14.6652L13.9526 14.6183L13.6056 14.848ZM14.0088 14.5667L14.2808 14.8668L14.323 14.8246L14.2151 14.712L14.3558 14.5808L14.5621 14.6042L14.6136 14.5573L14.398 14.5292C14.4292 14.4854 14.4339 14.4417 14.412 14.3979C14.3933 14.3604 14.362 14.3401 14.3183 14.337C14.2651 14.3432 14.2182 14.3682 14.1776 14.412L14.0088 14.5667ZM14.0885 14.5714L14.2433 14.4307C14.2667 14.412 14.3089 14.3839 14.3417 14.4073C14.3698 14.4292 14.373 14.4573 14.3511 14.4917C14.3198 14.5355 14.2808 14.5776 14.2339 14.6183L14.1776 14.6652L14.0885 14.5714ZM14.473 14.1026L14.6511 14.5198L14.698 14.4683L14.6371 14.337L14.7777 14.1682L14.9137 14.201L14.9559 14.1448L14.5152 14.051L14.473 14.1026ZM14.5433 14.1213L14.7168 14.1541L14.6136 14.2807L14.5433 14.1213ZM14.6464 13.8775L14.984 14.0979L15.1575 13.826L15.1106 13.7931L14.9699 14.0088V14.0182L14.9606 14.0135L14.6793 13.826L14.6464 13.8775Z" fill="#C8A400"/>
<mask id="mask0_720_53416" style="mask-type:luminance" maskUnits="userSpaceOnUse" x="9" y="9" width="6" height="5">
<path d="M12.0062 9.12323L9.45776 13.536H14.5547L12.0062 9.12323Z" fill="white"/>
</mask>
<g mask="url(#mask0_720_53416)">
<path d="M12.0052 9.12317L10.745 11.3036L10.1289 12.3717H13.8816L13.2935 11.3556L12.0052 9.12317Z" fill="white"/>
<path opacity="0.6" d="M12.005 9.12311L11.9089 9.28314L12.005 11.4835L12.101 9.28314L12.005 9.12311Z" fill="#17C0EB" stroke="#17C0EB" stroke-width="0.00400071"/>
<path d="M12.005 11.1674H12.001L12.005 11.2868L12.0089 11.1674H12.005Z" fill="white"/>
<path opacity="0.6" d="M14.2543 10.757L14.0724 10.7151L12.0094 11.4864L14.1318 10.8977L14.2543 10.757Z" fill="#17C0EB" stroke="#17C0EB" stroke-width="0.00400071"/>
<path d="M12.3098 11.3887L12.3086 11.3849L12.1963 11.4256L12.3111 11.3925L12.3098 11.3887Z" fill="white"/>
<path opacity="0.6" d="M13.3947 13.4003L13.3783 13.2144L12.0073 11.4907L13.223 13.3273L13.3947 13.4003Z" fill="#17C0EB" stroke="#17C0EB" stroke-width="0.00400071"/>
<path d="M12.1931 11.7464L12.1963 11.744L12.1229 11.6498L12.1898 11.7487L12.1931 11.7464Z" fill="white"/>
<path opacity="0.6" d="M10.6159 13.4005L10.7877 13.3274L12.0033 11.4909L10.6323 13.2146L10.6159 13.4005Z" fill="#17C0EB" stroke="#17C0EB" stroke-width="0.00400071"/>
<path d="M11.8176 11.7466L11.8208 11.7489L11.8878 11.65L11.8144 11.7442L11.8176 11.7466Z" fill="white"/>
<path opacity="0.6" d="M9.75648 10.7569L9.879 10.8977L12.0014 11.4863L9.93834 10.715L9.75648 10.7569Z" fill="#17C0EB" stroke="#17C0EB" stroke-width="0.00400071"/>
<path d="M11.7007 11.3887L11.6995 11.3925L11.8142 11.4256L11.7019 11.3849L11.7007 11.3887Z" fill="white"/>
<path opacity="0.6" d="M12.3334 9.14624L12.216 9.29134L12.0049 11.4837L12.4062 9.31807L12.3334 9.14624Z" fill="#17C0EB" stroke="#17C0EB" stroke-width="0.00400071"/>
<path d="M12.0489 11.1707L12.0449 11.1701L12.0322 11.2889L12.0528 11.1712L12.0489 11.1707Z" fill="white"/>
<path opacity="0.6" d="M14.3336 11.0771L14.1593 11.0103L12.009 11.487L14.1926 11.1994L14.3336 11.0771Z" fill="#17C0EB" stroke="#17C0EB" stroke-width="0.00400071"/>
<path d="M12.3203 11.4321L12.3196 11.4282L12.2027 11.4528L12.321 11.436L12.3203 11.4321Z" fill="white"/>
<path opacity="0.6" d="M13.1154 13.5752L13.1251 13.3889L12.0073 11.4911L12.9555 13.479L13.1154 13.5752Z" fill="#17C0EB" stroke="#17C0EB" stroke-width="0.00400071"/>
<path d="M12.1557 11.7702L12.1592 11.7683L12.0996 11.6648L12.1522 11.772L12.1557 11.7702Z" fill="white"/>
<path opacity="0.6" d="M10.3621 13.1886L10.5423 13.1401L12.0018 11.4906L10.4042 13.0067L10.3621 13.1886Z" fill="#17C0EB" stroke="#17C0EB" stroke-width="0.00400071"/>
<path d="M11.7823 11.7179L11.7852 11.7207L11.8652 11.6321L11.7794 11.7152L11.7823 11.7179Z" fill="white"/>
<path opacity="0.6" d="M9.87949 10.4512L9.98123 10.6077L12.001 11.486L10.0654 10.4351L9.87949 10.4512Z" fill="#17C0EB" stroke="#17C0EB" stroke-width="0.00400071"/>
<path d="M11.7168 11.3474L11.7151 11.351L11.8241 11.3997L11.7186 11.3438L11.7168 11.3474Z" fill="white"/>
<path opacity="0.6" d="M12.656 9.21476L12.5196 9.34212L12.0054 11.4837L12.7042 9.39505L12.656 9.21476Z" fill="#17C0EB" stroke="#17C0EB" stroke-width="0.00400071"/>
<path d="M12.0927 11.1799L12.0889 11.1788L12.0598 11.2947L12.0965 11.181L12.0927 11.1799Z" fill="white"/>
<path opacity="0.6" d="M14.3681 11.4051L14.2048 11.3147L12.0091 11.4875L14.2115 11.5066L14.3681 11.4051Z" fill="#17C0EB" stroke="#17C0EB" stroke-width="0.00400071"/>
<path d="M12.3248 11.4764L12.3247 11.4724L12.2055 11.4806L12.325 11.4804L12.3248 11.4764Z" fill="white"/>
<path opacity="0.6" d="M12.8141 13.7094L12.8496 13.5262L12.0068 11.4913L12.6691 13.5919L12.8141 13.7094Z" fill="#17C0EB" stroke="#17C0EB" stroke-width="0.00400071"/>
<path d="M12.1149 11.7883L12.1187 11.787L12.0741 11.6762L12.1112 11.7897L12.1149 11.7883Z" fill="white"/>
<path opacity="0.6" d="M10.1411 12.9432L10.3263 12.9203L12.0011 11.49L10.2081 12.769L10.1411 12.9432Z" fill="#17C0EB" stroke="#17C0EB" stroke-width="0.00400071"/>
<path d="M11.7522 11.6846L11.7546 11.6877L11.8463 11.6111L11.7497 11.6815L11.7522 11.6846Z" fill="white"/>
<path opacity="0.6" d="M10.0444 10.1655L10.1234 10.3345L12.0013 11.4854L10.2308 10.1753L10.0444 10.1655Z" fill="#17C0EB" stroke="#17C0EB" stroke-width="0.00400071"/>
<path d="M11.7393 11.3086L11.7371 11.3119L11.8383 11.3753L11.7415 11.3053L11.7393 11.3086Z" fill="white"/>
<path opacity="0.6" d="M12.9671 9.32763L12.8143 9.43477L12.007 11.484L12.9897 9.51287L12.9671 9.32763Z" fill="#17C0EB" stroke="#17C0EB" stroke-width="0.00400071"/>
<path d="M12.1355 11.1953L12.1318 11.1937L12.0869 11.3043L12.1391 11.1969L12.1355 11.1953Z" fill="white"/>
<path opacity="0.6" d="M14.3572 11.7348L14.208 11.6226L12.0097 11.488L14.188 11.8135L14.3572 11.7348Z" fill="#17C0EB" stroke="#17C0EB" stroke-width="0.00400071"/>
<path d="M12.3238 11.5211L12.3242 11.5172L12.2051 11.5086L12.3234 11.5251L12.3238 11.5211Z" fill="white"/>
<path opacity="0.6" d="M12.4964 13.8005L12.5571 13.624L12.0057 11.4916L12.3692 13.6639L12.4964 13.8005Z" fill="#17C0EB" stroke="#17C0EB" stroke-width="0.00400071"/>
<path d="M12.0713 11.8008L12.0752 11.7999L12.0465 11.684L12.0674 11.8016L12.0713 11.8008Z" fill="white"/>
<path opacity="0.6" d="M9.95785 12.6698L10.1444 12.673L12.002 11.4896L10.0484 12.5067L9.95785 12.6698Z" fill="#17C0EB" stroke="#17C0EB" stroke-width="0.00400071"/>
<path d="M11.7285 11.6476L11.7305 11.6511L11.8319 11.5879L11.7265 11.6442L11.7285 11.6476Z" fill="white"/>
<path opacity="0.6" d="M10.2481 9.90551L10.3028 10.0839L12.0022 11.4849L10.4313 9.94124L10.2481 9.90551Z" fill="#17C0EB" stroke="#17C0EB" stroke-width="0.00400071"/>
<path d="M11.7676 11.2735L11.7649 11.2764L11.8563 11.3534L11.7702 11.2705L11.7676 11.2735Z" fill="white"/>
<path opacity="0.6" d="M13.2582 9.48246L13.092 9.56729L12.0074 11.4842L13.2548 9.66905L13.2582 9.48246Z" fill="#17C0EB" stroke="#17C0EB" stroke-width="0.00400071"/>
<path d="M12.175 11.2162L12.1716 11.2141L12.1117 11.3174L12.1784 11.2183L12.175 11.2162Z" fill="white"/>
<path opacity="0.6" d="M14.3 12.0597L14.168 11.9278L12.0097 11.4886L14.1215 12.1141L14.3 12.0597Z" fill="#17C0EB" stroke="#17C0EB" stroke-width="0.00400071"/>
<path d="M12.3164 11.565L12.3174 11.5611L12.2006 11.5361L12.3155 11.5688L12.3164 11.565Z" fill="white"/>
<path opacity="0.6" d="M12.1706 13.8462L12.2552 13.6799L12.0059 11.4916L12.0636 13.6933L12.1706 13.8462Z" fill="#17C0EB" stroke="#17C0EB" stroke-width="0.00400071"/>
<path d="M12.028 11.8069L12.032 11.8066L12.0197 11.6878L12.024 11.8072L12.028 11.8069Z" fill="white"/>
<path opacity="0.6" d="M9.8134 12.3734L9.99774 12.4025L12.0019 11.4891L9.9258 12.2244L9.8134 12.3734Z" fill="#17C0EB" stroke="#17C0EB" stroke-width="0.00400071"/>
<path d="M11.709 11.6076L11.7104 11.6113L11.8196 11.5629L11.7075 11.6039L11.709 11.6076Z" fill="white"/>
<path opacity="0.6" d="M10.4862 9.67632L10.5155 9.86063L12.0034 11.4845L10.6626 9.73719L10.4862 9.67632Z" fill="#17C0EB" stroke="#17C0EB" stroke-width="0.00400071"/>
<path d="M11.8004 11.2424L11.7974 11.245L11.8771 11.3339L11.8035 11.2399L11.8004 11.2424Z" fill="white"/>
<path opacity="0.6" d="M13.5247 9.6764L13.3483 9.73727L12.0075 11.4846L13.4954 9.86071L13.5247 9.6764Z" fill="#17C0EB" stroke="#17C0EB" stroke-width="0.00400071"/>
<path d="M12.2106 11.2425L12.2075 11.2399L12.1338 11.3339L12.2136 11.245L12.2106 11.2425Z" fill="white"/>
<path opacity="0.6" d="M14.1969 12.3733L14.0845 12.2244L12.0084 11.4891L14.0126 12.4024L14.1969 12.3733Z" fill="#17C0EB" stroke="#17C0EB" stroke-width="0.00400071"/>
<path d="M12.3015 11.6075L12.303 11.6038L12.1908 11.5628L12.3 11.6112L12.3015 11.6075Z" fill="white"/>
<path opacity="0.6" d="M11.8403 13.8463L11.9472 13.6933L12.0049 11.4916L11.7556 13.6799L11.8403 13.8463Z" fill="#17C0EB" stroke="#17C0EB" stroke-width="0.00400071"/>
<path d="M11.9828 11.8068L11.9868 11.8071L11.9912 11.6877L11.9789 11.8065L11.9828 11.8068Z" fill="white"/>
<path opacity="0.6" d="M9.71041 12.0596L9.88892 12.1141L12.0007 11.4886L9.84246 11.9277L9.71041 12.0596Z" fill="#17C0EB" stroke="#17C0EB" stroke-width="0.00400071"/>
<path d="M11.6941 11.565L11.6951 11.5689L11.8099 11.5362L11.6931 11.5612L11.6941 11.565Z" fill="white"/>
<path opacity="0.6" d="M10.7516 9.48238L10.755 9.66898L12.0024 11.4841L10.9178 9.56721L10.7516 9.48238Z" fill="#17C0EB" stroke="#17C0EB" stroke-width="0.00400071"/>
<path d="M11.8349 11.2161L11.8315 11.2182L11.8982 11.3173L11.8383 11.214L11.8349 11.2161Z" fill="white"/>
<path opacity="0.6" d="M13.763 9.9054L13.5798 9.94113L12.0088 11.4848L13.7083 10.0838L13.763 9.9054Z" fill="#17C0EB" stroke="#17C0EB" stroke-width="0.00400071"/>
<path d="M12.2436 11.2733L12.241 11.2704L12.1549 11.3532L12.2463 11.2763L12.2436 11.2733Z" fill="white"/>
<path opacity="0.6" d="M14.0531 12.6699L13.9625 12.5067L12.0089 11.4897L13.8665 12.673L14.0531 12.6699Z" fill="#17C0EB" stroke="#17C0EB" stroke-width="0.00400071"/>
<path d="M12.2824 11.6476L12.2844 11.6442L12.179 11.5879L12.2804 11.6511L12.2824 11.6476Z" fill="white"/>
<path opacity="0.6" d="M11.5137 13.8003L11.6409 13.6637L12.0045 11.4914L11.4531 13.6238L11.5137 13.8003Z" fill="#17C0EB" stroke="#17C0EB" stroke-width="0.00400071"/>
<path d="M11.9385 11.8007L11.9424 11.8015L11.9633 11.6839L11.9346 11.7999L11.9385 11.8007Z" fill="white"/>
<path opacity="0.6" d="M9.65451 11.7347L9.8237 11.8135L12.002 11.488L9.80363 11.6225L9.65451 11.7347Z" fill="#17C0EB" stroke="#17C0EB" stroke-width="0.00400071"/>
<path d="M11.6876 11.521L11.688 11.525L11.8063 11.5085L11.6872 11.517L11.6876 11.521Z" fill="white"/>
<path opacity="0.6" d="M11.0443 9.32752L11.0216 9.51277L12.0043 11.4839L11.1971 9.43466L11.0443 9.32752Z" fill="#17C0EB" stroke="#17C0EB" stroke-width="0.00400071"/>
<path d="M11.8757 11.1952L11.8721 11.1968L11.9243 11.3042L11.8793 11.1935L11.8757 11.1952Z" fill="white"/>
<path opacity="0.6" d="M13.9656 10.1654L13.7792 10.1752L12.0087 11.4853L13.8866 10.3344L13.9656 10.1654Z" fill="#17C0EB" stroke="#17C0EB" stroke-width="0.00400071"/>
<path d="M12.2705 11.3085L12.2683 11.3052L12.1716 11.3753L12.2728 11.3118L12.2705 11.3085Z" fill="white"/>
<path opacity="0.6" d="M13.8686 12.9433L13.8016 12.7691L12.0086 11.4901L13.6834 12.9204L13.8686 12.9433Z" fill="#17C0EB" stroke="#17C0EB" stroke-width="0.00400071"/>
<path d="M12.2576 11.6846L12.26 11.6815L12.1635 11.6111L12.2551 11.6877L12.2576 11.6846Z" fill="white"/>
<path opacity="0.6" d="M11.1964 13.7095L11.3414 13.5919L12.0037 11.4914L11.1609 13.5263L11.1964 13.7095Z" fill="#17C0EB" stroke="#17C0EB" stroke-width="0.00400071"/>
<path d="M11.8957 11.7884L11.8994 11.7898L11.9365 11.6763L11.8919 11.7871L11.8957 11.7884Z" fill="white"/>
<path opacity="0.6" d="M9.64178 11.4051L9.79836 11.5066L12.0008 11.4875L9.80506 11.3147L9.64178 11.4051Z" fill="#17C0EB" stroke="#17C0EB" stroke-width="0.00400071"/>
<path d="M11.6847 11.4764L11.6846 11.4804L11.804 11.4806L11.6848 11.4725L11.6847 11.4764Z" fill="white"/>
<path opacity="0.6" d="M11.353 9.21475L11.3049 9.39504L12.0037 11.4837L11.4894 9.34211L11.353 9.21475Z" fill="#17C0EB" stroke="#17C0EB" stroke-width="0.00400071"/>
<path d="M11.9167 11.1799L11.9128 11.181L11.9496 11.2947L11.9205 11.1788L11.9167 11.1799Z" fill="white"/>
<path opacity="0.6" d="M14.1307 10.4512L13.9448 10.435L12.0092 11.4859L14.029 10.6076L14.1307 10.4512Z" fill="#17C0EB" stroke="#17C0EB" stroke-width="0.00400071"/>
<path d="M12.2932 11.3473L12.2915 11.3438L12.1859 11.3997L12.295 11.3509L12.2932 11.3473Z" fill="white"/>
<path opacity="0.6" d="M13.6475 13.1884L13.6054 13.0066L12.0078 11.4905L13.4673 13.14L13.6475 13.1884Z" fill="#17C0EB" stroke="#17C0EB" stroke-width="0.00400071"/>
<path d="M12.2274 11.7178L12.2302 11.715L12.1444 11.6319L12.2245 11.7206L12.2274 11.7178Z" fill="white"/>
<path opacity="0.6" d="M10.8954 13.5753L11.0554 13.4791L12.0036 11.4912L10.8858 13.389L10.8954 13.5753Z" fill="#17C0EB" stroke="#17C0EB" stroke-width="0.00400071"/>
<path d="M11.8554 11.7703L11.8589 11.7722L11.9114 11.6649L11.8519 11.7684L11.8554 11.7703Z" fill="white"/>
<path opacity="0.6" d="M9.67659 11.0771L9.81751 11.1995L12.0011 11.487L9.85086 11.0104L9.67659 11.0771Z" fill="#17C0EB" stroke="#17C0EB" stroke-width="0.00400071"/>
<path d="M11.6899 11.4321L11.6892 11.436L11.8075 11.4528L11.6906 11.4282L11.6899 11.4321Z" fill="white"/>
<path opacity="0.6" d="M11.6764 9.14618L11.6036 9.31802L12.0049 11.4836L11.7937 9.29129L11.6764 9.14618Z" fill="#17C0EB" stroke="#17C0EB" stroke-width="0.00400071"/>
<path d="M11.9607 11.1708L11.9568 11.1713L11.9773 11.289L11.9647 11.1702L11.9607 11.1708Z" fill="white"/>
<path d="M12.0051 10.6995C11.5788 10.6983 11.1665 10.8518 10.8449 11.1315L10.2608 12.1477C10.2398 12.2572 10.2291 12.3683 10.2288 12.4798H10.4288C10.4492 12.076 10.6239 11.6955 10.9169 11.4169C11.2099 11.1383 11.5988 10.9829 12.0031 10.9829C12.4074 10.9829 12.7962 11.1383 13.0892 11.4169C13.3822 11.6955 13.557 12.076 13.5774 12.4798H13.7774C13.7783 12.3685 13.769 12.2573 13.7494 12.1477L13.1653 11.1315C12.8436 10.8518 12.4314 10.6983 12.0051 10.6995Z" fill="#FF0000"/>
<path d="M12.0053 10.7355C11.5536 10.7366 11.1196 10.9114 10.7931 11.2236L10.313 12.0597C10.2791 12.1958 10.2617 12.3355 10.261 12.4758H10.433C10.4614 12.0782 10.6394 11.7061 10.9311 11.4344C11.2228 11.1628 11.6067 11.0117 12.0053 11.0117C12.4039 11.0117 12.7877 11.1628 13.0795 11.4344C13.3712 11.7061 13.5492 12.0782 13.5776 12.4758H13.7496C13.7492 12.3342 13.7318 12.1931 13.6976 12.0557L13.2175 11.2236C12.891 10.9114 12.457 10.7366 12.0053 10.7355Z" fill="#FF6600"/>
<path d="M12.0051 10.7675C11.7635 10.7676 11.5246 10.8186 11.304 10.9171C11.0834 11.0157 10.8861 11.1596 10.7248 11.3396L10.3768 11.9397C10.3215 12.1143 10.2945 12.2966 10.2968 12.4798H10.4288C10.4491 12.076 10.6239 11.6954 10.9169 11.4168C11.2099 11.1382 11.5988 10.9829 12.0031 10.9829C12.4074 10.9829 12.7962 11.1382 13.0892 11.4168C13.3822 11.6954 13.557 12.076 13.5773 12.4798H13.7174C13.7174 12.2931 13.6894 12.1144 13.6334 11.9437L13.2813 11.3396C13.1205 11.1601 12.9238 11.0165 12.7039 10.918C12.4841 10.8194 12.246 10.7681 12.0051 10.7675Z" fill="#FFFF00"/>
<path d="M12.0053 10.7995C11.7293 10.7993 11.4576 10.8671 11.2141 10.9969C10.9705 11.1267 10.7627 11.3145 10.609 11.5436L10.497 11.7396C10.3839 11.97 10.325 12.2232 10.325 12.4798H10.433C10.4614 12.0822 10.6393 11.7101 10.9311 11.4384C11.2228 11.1668 11.6066 11.0157 12.0053 11.0157C12.4039 11.0157 12.7877 11.1668 13.0794 11.4384C13.3712 11.7101 13.5491 12.0822 13.5775 12.4798H13.6855C13.6855 12.2232 13.6266 11.97 13.5135 11.7396L13.4015 11.5396C13.2478 11.3105 13.04 11.1227 12.7964 10.9929C12.5529 10.8631 12.2812 10.7953 12.0053 10.7955V10.7995Z" fill="#00FF00"/>
<path d="M12.0053 10.8275C11.7882 10.8264 11.573 10.8684 11.3723 10.9512C11.1716 11.0339 10.9893 11.1556 10.836 11.3093C10.6826 11.463 10.5613 11.6456 10.4791 11.8465C10.3969 12.0474 10.3554 12.2627 10.357 12.4798H10.433C10.4614 12.0822 10.6394 11.7101 10.9311 11.4384C11.2228 11.1668 11.6066 11.0157 12.0053 11.0157C12.4039 11.0157 12.7877 11.1668 13.0795 11.4384C13.3712 11.7101 13.5492 12.0822 13.5776 12.4798H13.6536C13.6552 12.2627 13.6136 12.0474 13.5314 11.8465C13.4492 11.6456 13.3279 11.463 13.1746 11.3093C13.0213 11.1556 12.839 11.0339 12.6382 10.9512C12.4375 10.8684 12.2224 10.8264 12.0053 10.8275Z" fill="#00CCFF"/>
<path d="M12.0052 10.8595C11.5765 10.8595 11.1654 11.0298 10.8623 11.3329C10.5592 11.636 10.3889 12.0471 10.3889 12.4758H10.4449C10.4449 12.062 10.6093 11.6651 10.9019 11.3725C11.1945 11.0799 11.5914 10.9155 12.0052 10.9155C12.419 10.9155 12.8159 11.0799 13.1085 11.3725C13.4011 11.6651 13.5655 12.062 13.5655 12.4758H13.6215C13.6194 12.0485 13.4482 11.6395 13.1453 11.3381C12.8424 11.0367 12.4325 10.8675 12.0052 10.8675V10.8595Z" fill="#0000FF"/>
<path d="M12.0052 10.8955C11.7948 10.8954 11.5864 10.9373 11.3924 11.0187C11.1983 11.1001 11.0224 11.2193 10.8749 11.3694C10.7274 11.5195 10.6113 11.6974 10.5334 11.8929C10.4554 12.0883 10.4172 12.2974 10.4209 12.5078H10.4529V12.4758C10.4572 12.0641 10.6248 11.6709 10.9189 11.3828C11.213 11.0947 11.6095 10.9352 12.0212 10.9395C12.4329 10.9437 12.826 11.1113 13.1141 11.4055C13.4022 11.6996 13.5617 12.0961 13.5575 12.5078H13.5895V12.4758C13.5895 12.2677 13.5485 12.0617 13.4689 11.8695C13.3893 11.6773 13.2726 11.5026 13.1254 11.3555C12.9783 11.2084 12.8037 11.0917 12.6115 11.0121C12.4192 10.9325 12.2132 10.8915 12.0052 10.8915V10.8955Z" fill="#800080"/>
<path d="M12.0212 11.5916C11.9932 11.5916 11.9732 11.5716 11.9492 11.5676C11.9368 11.5773 11.9275 11.5905 11.9226 11.6054C11.9176 11.6203 11.9171 11.6364 11.9212 11.6516C11.9332 11.6556 11.9332 11.6676 11.9572 11.6876C11.9812 11.7076 11.9772 11.7156 11.9732 11.7676C11.9732 11.7836 11.9772 11.8275 11.9972 11.8315C12.0212 11.8342 12.0359 11.8182 12.0412 11.7836C12.0465 11.7569 12.0559 11.7356 12.0692 11.7196C12.0812 11.6436 12.0612 11.6156 12.0212 11.5916Z" fill="#510000"/>
<path d="M11.8931 11.4075C11.8692 11.4075 11.8292 11.4475 11.8132 11.4275C11.8025 11.4115 11.8025 11.3928 11.8132 11.3715C11.8317 11.3321 11.8626 11.2998 11.9011 11.2795C11.9918 11.2262 12.0584 11.2396 12.1011 11.3195C12.1451 11.3915 12.1891 11.4715 12.1931 11.5355C12.1931 11.5555 12.2051 11.5915 12.1851 11.6114C12.1331 11.6674 12.0011 11.5515 11.9251 11.5715C11.9011 11.5755 11.8692 11.5955 11.8452 11.5795C11.8292 11.5675 11.8452 11.5395 11.8572 11.5275C11.8812 11.5075 11.9171 11.4315 11.9131 11.3995C11.9131 11.3835 11.9131 11.4075 11.8931 11.4075Z" fill="#FF0000"/>
<path d="M11.8851 11.3716C11.8371 11.3876 11.8451 11.4115 11.8211 11.4315C11.8291 11.4355 11.8531 11.4435 11.8771 11.4195C11.8851 11.4115 11.8944 11.4075 11.9051 11.4075L11.8771 11.4355C11.8531 11.4549 11.834 11.4795 11.8211 11.5075C11.8091 11.5395 11.8051 11.5755 11.8091 11.5795C11.8091 11.5795 11.8251 11.6115 11.8691 11.6275C11.9491 11.6595 11.9651 11.7275 12.049 11.7275C12.113 11.7275 12.105 11.6835 12.157 11.6915C12.197 11.6995 12.225 11.6635 12.181 11.6435C12.1097 11.6295 12.0364 11.6295 11.9651 11.6435C11.9491 11.4835 11.9651 11.5395 11.9611 11.4675C11.9571 11.3996 11.9331 11.3956 11.9611 11.3356C11.9411 11.3756 11.9131 11.3676 11.8811 11.3676L11.8851 11.3716Z" fill="url(#paint0_linear_720_53416)"/>
<path d="M12.0452 11.2595L12.0413 11.2834L12.0532 11.3232L12.0612 11.363C12.0638 11.3736 12.0731 11.3816 12.089 11.3869C12.1049 11.3988 12.089 11.4267 12.101 11.4306C12.1089 11.4306 12.1208 11.3908 12.1208 11.3829V11.355L12.101 11.3192L12.093 11.3073L12.0612 11.2715L12.0492 11.2635L12.0413 11.2595H12.0452Z" fill="#FF2A2A"/>
<path d="M12.0571 11.5635L11.9771 11.5356C11.9251 11.5196 11.8731 11.4876 11.8371 11.5036C11.8265 11.5062 11.8211 11.5182 11.8211 11.5396C11.8211 11.5595 11.8011 11.5915 11.8211 11.5795C11.8411 11.5675 11.9171 11.6115 11.9411 11.6235C11.9531 11.6315 11.9811 11.6475 11.9851 11.6635C11.9931 11.6875 11.9851 11.7355 11.9851 11.7595C11.9851 11.7835 11.9931 11.8315 12.0131 11.8395C12.0397 11.8421 12.0571 11.8248 12.0651 11.7875C12.0731 11.7555 12.0837 11.7302 12.0971 11.7115C12.1131 11.6875 12.1304 11.6755 12.149 11.6755C12.173 11.6755 12.205 11.6955 12.205 11.6675C12.205 11.6515 12.189 11.6355 12.197 11.6115C12.201 11.5915 12.181 11.5955 12.161 11.5875L12.0571 11.5635Z" fill="url(#paint1_linear_720_53416)"/>
<path d="M11.9405 11.6229C11.9246 11.6149 11.8489 11.5632 11.8211 11.5831C11.8105 11.5831 11.8052 11.5791 11.8052 11.5711L11.8131 11.5353C11.8131 11.5194 11.8198 11.5062 11.833 11.4955C11.8609 11.4717 11.9246 11.5154 11.9564 11.5274L11.9405 11.6229Z" fill="#910000"/>
<path d="M12.0768 11.7232C12.1126 11.6595 12.1365 11.6674 12.1802 11.6674C12.1962 11.6674 12.2015 11.6582 12.1962 11.6396C12.1842 11.6635 12.1285 11.6396 12.0967 11.6515C12.037 11.6794 12.0489 11.7988 12.0171 11.8107C12.0489 11.8386 12.0609 11.7431 12.0768 11.7232Z" fill="#FF3A3A"/>
<path d="M10.1288 12.3718L9.72876 13.0639H14.2856L13.8855 12.3758H10.1328L10.1288 12.3718Z" fill="white"/>
<path d="M9.99295 12.9237L9.80492 12.9357L9.78491 12.9717C9.87826 12.9557 9.97428 12.9464 10.073 12.9437C10.201 12.9437 10.321 12.9757 10.461 12.9757H10.6451C10.7851 12.9757 10.9011 12.9437 11.0331 12.9437C11.1652 12.9437 11.2852 12.9757 11.4252 12.9757H11.6092C11.7493 12.9757 11.8653 12.9437 11.9973 12.9437C12.1293 12.9437 12.2494 12.9757 12.3894 12.9757H12.5694C12.7094 12.9757 12.8295 12.9437 12.9615 12.9437C13.0935 12.9437 13.2135 12.9757 13.3535 12.9757H13.5336C13.6736 12.9757 13.7936 12.9437 13.9256 12.9437C14.027 12.949 14.127 12.9584 14.2257 12.9717L14.2057 12.9317L14.0297 12.9237H13.8496C13.7096 12.9237 13.5896 12.9517 13.4576 12.9557C13.3255 12.9557 13.2055 12.9237 13.0655 12.9237H12.8855C12.7454 12.9237 12.6254 12.9517 12.4934 12.9557C12.3614 12.9557 12.2413 12.9237 12.1013 12.9237H11.9253C11.7853 12.9237 11.6652 12.9517 11.5332 12.9557C11.4012 12.9557 11.2812 12.9237 11.1412 12.9237H10.9611C10.8211 12.9237 10.7011 12.9517 10.5691 12.9557C10.437 12.9557 10.321 12.9237 10.181 12.9237H9.99295Z" fill="url(#paint2_linear_720_53416)"/>
<path d="M9.99295 12.8798L9.80492 12.8918L9.78491 12.9278C9.87826 12.9118 9.97428 12.9024 10.073 12.8998C10.201 12.8998 10.321 12.9318 10.461 12.9318H10.6451C10.7851 12.9318 10.9011 12.8998 11.0331 12.8998C11.1652 12.8998 11.2852 12.9318 11.4252 12.9318H11.6092C11.7493 12.9318 11.8653 12.8998 11.9973 12.8998C12.1293 12.8998 12.2494 12.9318 12.3894 12.9318H12.5694C12.7094 12.9318 12.8295 12.8998 12.9615 12.8998C13.0935 12.8998 13.2135 12.9318 13.3535 12.9318H13.5336C13.6736 12.9318 13.7936 12.8998 13.9256 12.8998C14.027 12.9051 14.127 12.9144 14.2257 12.9278L14.2057 12.8878L14.0297 12.8798H13.8496C13.7096 12.8798 13.5896 12.9078 13.4576 12.9118C13.3255 12.9118 13.2055 12.8798 13.0655 12.8798H12.8855C12.7454 12.8798 12.6254 12.9078 12.4934 12.9118C12.3614 12.9118 12.2413 12.8798 12.1013 12.8798H11.9253C11.7853 12.8798 11.6652 12.9078 11.5332 12.9118C11.4012 12.9118 11.2812 12.8798 11.1412 12.8798H10.9611C10.8211 12.8798 10.7011 12.9078 10.5691 12.9118C10.437 12.9118 10.321 12.8798 10.181 12.8798H9.99295Z" fill="url(#paint3_linear_720_53416)"/>
<path d="M9.99295 12.8358L9.80492 12.8478L9.78491 12.8838C9.87826 12.8678 9.97428 12.8584 10.073 12.8558C10.201 12.8558 10.321 12.8878 10.461 12.8878H10.6451C10.7851 12.8878 10.9011 12.8558 11.0331 12.8558C11.1652 12.8558 11.2852 12.8878 11.4252 12.8878H11.6092C11.7493 12.8878 11.8653 12.8558 11.9973 12.8558C12.1293 12.8558 12.2494 12.8878 12.3894 12.8878H12.5694C12.7094 12.8878 12.8295 12.8558 12.9615 12.8558C13.0935 12.8558 13.2135 12.8878 13.3535 12.8878H13.5336C13.6736 12.8878 13.7936 12.8558 13.9256 12.8558C14.027 12.8611 14.127 12.8704 14.2257 12.8838L14.2057 12.8438L14.0297 12.8358H13.8496C13.7096 12.8358 13.5896 12.8638 13.4576 12.8678C13.3255 12.8678 13.2055 12.8358 13.0655 12.8358H12.8855C12.7454 12.8358 12.6254 12.8638 12.4934 12.8678C12.3614 12.8678 12.2413 12.8358 12.1013 12.8358H11.9253C11.7853 12.8358 11.6652 12.8638 11.5332 12.8678C11.4012 12.8678 11.2812 12.8358 11.1412 12.8358H10.9611C10.8211 12.8358 10.7011 12.8638 10.5691 12.8678C10.437 12.8678 10.321 12.8358 10.181 12.8358H9.99295Z" fill="url(#paint4_linear_720_53416)"/>
<path d="M9.99295 12.7917L9.80492 12.8038L9.78491 12.8398C9.87826 12.8238 9.97428 12.8144 10.073 12.8118C10.201 12.8118 10.321 12.8438 10.461 12.8438H10.6451C10.7851 12.8438 10.9011 12.8118 11.0331 12.8118C11.1652 12.8118 11.2852 12.8438 11.4252 12.8438H11.6092C11.7493 12.8438 11.8653 12.8118 11.9973 12.8118C12.1293 12.8118 12.2494 12.8438 12.3894 12.8438H12.5694C12.7094 12.8438 12.8295 12.8118 12.9615 12.8118C13.0935 12.8118 13.2135 12.8438 13.3535 12.8438H13.5336C13.6736 12.8438 13.7936 12.8118 13.9256 12.8118C14.027 12.8171 14.127 12.8264 14.2257 12.8398L14.2057 12.7997L14.0297 12.7917H13.8496C13.7096 12.7917 13.5896 12.8198 13.4576 12.8238C13.3255 12.8238 13.2055 12.7917 13.0655 12.7917H12.8855C12.7454 12.7917 12.6254 12.8198 12.4934 12.8238C12.3614 12.8238 12.2413 12.7917 12.1013 12.7917H11.9253C11.7853 12.7917 11.6652 12.8198 11.5332 12.8238C11.4012 12.8238 11.2812 12.7917 11.1412 12.7917H10.9611C10.8211 12.7917 10.7011 12.8198 10.5691 12.8238C10.437 12.8238 10.321 12.7917 10.181 12.7917H9.99295Z" fill="url(#paint5_linear_720_53416)"/>
<path d="M9.99295 12.7477L9.80492 12.7597L9.78491 12.7958C9.87826 12.7797 9.97428 12.7704 10.073 12.7677C10.201 12.7677 10.321 12.7998 10.461 12.7998H10.6451C10.7851 12.7998 10.9011 12.7677 11.0331 12.7677C11.1652 12.7677 11.2852 12.7998 11.4252 12.7998H11.6092C11.7493 12.7998 11.8653 12.7677 11.9973 12.7677C12.1293 12.7677 12.2494 12.7998 12.3894 12.7998H12.5694C12.7094 12.7998 12.8295 12.7677 12.9615 12.7677C13.0935 12.7677 13.2135 12.7998 13.3535 12.7998H13.5336C13.6736 12.7998 13.7936 12.7677 13.9256 12.7677C14.027 12.7731 14.127 12.7824 14.2257 12.7958L14.2057 12.7557L14.0297 12.7477H13.8496C13.7096 12.7477 13.5896 12.7757 13.4576 12.7797C13.3255 12.7797 13.2055 12.7477 13.0655 12.7477H12.8855C12.7454 12.7477 12.6254 12.7757 12.4934 12.7797C12.3614 12.7797 12.2413 12.7477 12.1013 12.7477H11.9253C11.7853 12.7477 11.6652 12.7757 11.5332 12.7797C11.4012 12.7797 11.2812 12.7477 11.1412 12.7477H10.9611C10.8211 12.7477 10.7011 12.7757 10.5691 12.7797C10.437 12.7797 10.321 12.7477 10.181 12.7477H9.99295Z" fill="url(#paint6_linear_720_53416)"/>
<path d="M9.99295 12.7038L9.80492 12.7158L9.78491 12.7518C9.87826 12.7358 9.97428 12.7265 10.073 12.7238C10.201 12.7238 10.321 12.7558 10.461 12.7558H10.6451C10.7851 12.7558 10.9011 12.7238 11.0331 12.7238C11.1652 12.7238 11.2852 12.7558 11.4252 12.7558H11.6092C11.7493 12.7558 11.8653 12.7238 11.9973 12.7238C12.1293 12.7238 12.2494 12.7558 12.3894 12.7558H12.5694C12.7094 12.7558 12.8295 12.7238 12.9615 12.7238C13.0935 12.7238 13.2135 12.7558 13.3535 12.7558H13.5336C13.6736 12.7558 13.7936 12.7238 13.9256 12.7238C14.027 12.7291 14.127 12.7385 14.2257 12.7518L14.2057 12.7118L14.0297 12.7038H13.8496C13.7096 12.7038 13.5896 12.7318 13.4576 12.7358C13.3255 12.7358 13.2055 12.7038 13.0655 12.7038H12.8855C12.7454 12.7038 12.6254 12.7318 12.4934 12.7358C12.3614 12.7358 12.2413 12.7038 12.1013 12.7038H11.9253C11.7853 12.7038 11.6652 12.7318 11.5332 12.7358C11.4012 12.7358 11.2812 12.7038 11.1412 12.7038H10.9611C10.8211 12.7038 10.7011 12.7318 10.5691 12.7358C10.437 12.7358 10.321 12.7038 10.181 12.7038H9.99295Z" fill="url(#paint7_linear_720_53416)"/>
<path d="M9.99295 12.6558L9.80492 12.6678L9.78491 12.7038C9.87826 12.6878 9.97428 12.6784 10.073 12.6758C10.201 12.6758 10.321 12.7078 10.461 12.7078H10.6451C10.7851 12.7078 10.9011 12.6758 11.0331 12.6758C11.1652 12.6758 11.2852 12.7078 11.4252 12.7078H11.6092C11.7493 12.7078 11.8653 12.6758 11.9973 12.6758C12.1293 12.6758 12.2494 12.7078 12.3894 12.7078H12.5694C12.7094 12.7078 12.8295 12.6758 12.9615 12.6758C13.0935 12.6758 13.2135 12.7078 13.3535 12.7078H13.5336C13.6736 12.7078 13.7936 12.6758 13.9256 12.6758C14.027 12.6811 14.127 12.6904 14.2257 12.7038L14.2057 12.6638L14.0297 12.6558H13.8496C13.7096 12.6558 13.5896 12.6838 13.4576 12.6878C13.3255 12.6878 13.2055 12.6558 13.0655 12.6558H12.8855C12.7454 12.6558 12.6254 12.6838 12.4934 12.6878C12.3614 12.6878 12.2413 12.6558 12.1013 12.6558H11.9253C11.7853 12.6558 11.6652 12.6838 11.5332 12.6878C11.4012 12.6878 11.2812 12.6558 11.1412 12.6558H10.9611C10.8211 12.6558 10.7011 12.6838 10.5691 12.6878C10.437 12.6878 10.321 12.6558 10.181 12.6558H9.99295Z" fill="url(#paint8_linear_720_53416)"/>
<path d="M9.99295 12.6118L9.80492 12.6238L9.78491 12.6598C9.87826 12.6438 9.97428 12.6345 10.073 12.6318C10.201 12.6318 10.321 12.6638 10.461 12.6638H10.6451C10.7851 12.6638 10.9011 12.6318 11.0331 12.6318C11.1652 12.6318 11.2852 12.6638 11.4252 12.6638H11.6092C11.7493 12.6638 11.8653 12.6318 11.9973 12.6318C12.1293 12.6318 12.2494 12.6638 12.3894 12.6638H12.5694C12.7094 12.6638 12.8295 12.6318 12.9615 12.6318C13.0935 12.6318 13.2135 12.6638 13.3535 12.6638H13.5336C13.6736 12.6638 13.7936 12.6318 13.9256 12.6318C14.027 12.6372 14.127 12.6465 14.2257 12.6598L14.2057 12.6198L14.0297 12.6118H13.8496C13.7096 12.6118 13.5896 12.6398 13.4576 12.6438C13.3255 12.6438 13.2055 12.6118 13.0655 12.6118H12.8855C12.7454 12.6118 12.6254 12.6398 12.4934 12.6438C12.3614 12.6438 12.2413 12.6118 12.1013 12.6118H11.9253C11.7853 12.6118 11.6652 12.6398 11.5332 12.6438C11.4012 12.6438 11.2812 12.6118 11.1412 12.6118H10.9611C10.8211 12.6118 10.7011 12.6398 10.5691 12.6438C10.437 12.6438 10.321 12.6118 10.181 12.6118H9.99295Z" fill="url(#paint9_linear_720_53416)"/>
<path d="M9.99295 12.5678L9.80492 12.5798L9.78491 12.6158C9.87826 12.5998 9.97428 12.5905 10.073 12.5878C10.201 12.5878 10.321 12.6198 10.461 12.6198H10.6451C10.7851 12.6198 10.9011 12.5878 11.0331 12.5878C11.1652 12.5878 11.2852 12.6198 11.4252 12.6198H11.6092C11.7493 12.6198 11.8653 12.5878 11.9973 12.5878C12.1293 12.5878 12.2494 12.6198 12.3894 12.6198H12.5694C12.7094 12.6198 12.8295 12.5878 12.9615 12.5878C13.0935 12.5878 13.2135 12.6198 13.3535 12.6198H13.5336C13.6736 12.6198 13.7936 12.5878 13.9256 12.5878C14.027 12.5931 14.127 12.6025 14.2257 12.6158L14.2057 12.5758L14.0297 12.5678H13.8496C13.7096 12.5678 13.5896 12.5958 13.4576 12.5998C13.3255 12.5998 13.2055 12.5678 13.0655 12.5678H12.8855C12.7454 12.5678 12.6254 12.5958 12.4934 12.5998C12.3614 12.5998 12.2413 12.5678 12.1013 12.5678H11.9253C11.7853 12.5678 11.6652 12.5958 11.5332 12.5998C11.4012 12.5998 11.2812 12.5678 11.1412 12.5678H10.9611C10.8211 12.5678 10.7011 12.5958 10.5691 12.5998C10.437 12.5998 10.321 12.5678 10.181 12.5678H9.99295Z" fill="url(#paint10_linear_720_53416)"/>
<path d="M10.1326 12.3678V12.3758H13.8813L13.8772 12.3678H10.1326ZM10.1246 12.3798L10.1206 12.3918H13.8853L13.8813 12.3798H10.1206H10.1246ZM10.1166 12.3958L10.1086 12.4078H13.9013L13.8933 12.3958H10.1166ZM10.1046 12.4158L10.0926 12.4358H13.9173L13.9053 12.4158H10.1046ZM10.0886 12.4438L10.0766 12.4638H13.9333L13.9213 12.4438H10.0886ZM10.0726 12.4718L10.0646 12.4878H13.9453L13.9373 12.4718H10.0726ZM10.0566 12.4998L10.0486 12.5158H13.9653L13.9533 12.4998H10.0566ZM10.0406 12.5278L10.0286 12.5518H13.9813L13.9693 12.5278H10.0446H10.0406Z" fill="url(#paint11_linear_720_53416)"/>
<path d="M10.3005 12.5598C10.4366 12.5878 10.4486 12.5598 10.4486 12.5598H10.3005ZM13.5611 12.5598C13.5611 12.5598 13.5731 12.5878 13.7091 12.5598H13.5611Z" fill="url(#paint12_linear_720_53416)"/>
<path d="M13.229 11.9476C13.161 11.9476 13.141 11.9836 13.141 11.9836C13.0329 12.4077 12.6689 12.8358 12.2368 12.8358H11.9167V13.2679H14.3732L14.1251 12.8278C13.7371 12.7718 13.421 12.3757 13.321 11.9836C13.321 11.9836 13.297 11.9476 13.229 11.9476Z" fill="url(#paint13_linear_720_53416)"/>
<path d="M13.2289 11.9676C13.1996 11.9676 13.1796 11.9716 13.1689 11.9796L13.1569 11.9916C13.0963 12.2129 12.9807 12.4152 12.8209 12.5798C12.6608 12.7438 12.4608 12.8558 12.2368 12.8558H11.9287V13.2519H14.3651L14.1371 12.8518C13.9451 12.8198 13.7797 12.7291 13.641 12.5798C13.4812 12.4152 13.3656 12.2129 13.305 11.9916L13.293 11.9796C13.2731 11.9698 13.251 11.9657 13.2289 11.9676Z" fill="#97C924"/>
<path d="M13.2282 11.9677H13.2442V12.3995C13.2404 12.4904 13.2128 12.5786 13.1642 12.6554C13.1442 12.7194 13.1243 12.6954 13.0723 12.7714C13.0049 12.7948 12.9352 12.8109 12.8643 12.8194C12.7644 12.8354 12.5444 12.8514 12.4285 12.8234C12.5773 12.7779 12.7121 12.6953 12.8203 12.5835L12.9043 12.4835C12.9488 12.4281 12.989 12.3692 13.0243 12.3075L13.0643 12.2276L13.1163 12.1116L13.1562 11.9916L13.1682 11.9796L13.1922 11.9717L13.2282 11.9677Z" fill="#EDE71F"/>
<path d="M13.2045 12.0237C13.1845 12.2636 13.1125 12.5515 12.9366 12.7355C12.8726 12.7874 12.7886 12.8394 12.7126 12.8274C12.9806 12.6075 13.1445 12.2676 13.2005 12.0237H13.2045Z" fill="#C6CB24"/>
<path d="M12.9845 12.4395C12.9445 12.5475 12.7925 12.7074 12.6326 12.8394H12.5166C12.6166 12.8314 12.8485 12.6395 12.9845 12.4395Z" fill="#9ECB34"/>
<path d="M12.6169 11.9477C12.5489 11.9477 12.5289 11.9837 12.5289 11.9837C12.4209 12.4078 12.0568 12.8359 11.6247 12.8359H11.3047V13.2679H13.7611L13.5131 12.8278C13.125 12.7718 12.809 12.3758 12.7089 11.9837C12.7089 11.9837 12.6849 11.9477 12.6169 11.9477Z" fill="url(#paint14_linear_720_53416)"/>
<path d="M12.6169 11.9677C12.5875 11.9677 12.5675 11.9717 12.5569 11.9797L12.5449 11.9917C12.4842 12.2129 12.3686 12.4153 12.2088 12.5798C12.0488 12.7438 11.8487 12.8559 11.6247 12.8559H11.3167V13.2519H13.7531L13.525 12.8519C13.333 12.8199 13.1676 12.7292 13.029 12.5798C12.8691 12.4153 12.7535 12.2129 12.6929 11.9917L12.6809 11.9797C12.6611 11.9699 12.6389 11.9657 12.6169 11.9677Z" fill="#97C924"/>
<path d="M12.6166 11.9677H12.6326V12.3995C12.6288 12.4904 12.6012 12.5786 12.5527 12.6554C12.5327 12.7194 12.5127 12.6954 12.4607 12.7714C12.3933 12.7948 12.3236 12.8109 12.2528 12.8194C12.1528 12.8354 11.9329 12.8514 11.8169 12.8234C11.9657 12.7779 12.1006 12.6953 12.2088 12.5835L12.2927 12.4835C12.3373 12.4281 12.3774 12.3692 12.4127 12.3075L12.4527 12.2276L12.5047 12.1116L12.5447 11.9916L12.5567 11.9796L12.5807 11.9717L12.6166 11.9677Z" fill="#EDE71F"/>
<path d="M12.5927 12.0236C12.5727 12.2635 12.5007 12.5515 12.3248 12.7354C12.2608 12.7874 12.1768 12.8394 12.1008 12.8274C12.3687 12.6074 12.5327 12.2675 12.5887 12.0236H12.5927Z" fill="#C6CB24"/>
<path d="M12.3729 12.4395C12.3329 12.5475 12.1809 12.7074 12.021 12.8394H11.905C12.005 12.8314 12.2369 12.6395 12.3729 12.4395Z" fill="#9ECB34"/>
<path d="M12.0932 11.9876C12.2052 12.4077 12.5653 12.8358 12.9974 12.8358H13.3214V13.2678H10.689V12.8358H11.009C11.4411 12.8358 11.8052 12.4077 11.9132 11.9836C11.9132 11.9836 11.9372 11.9516 12.0052 11.9516C12.0732 11.9516 12.0932 11.9836 12.0932 11.9836V11.9876Z" fill="url(#paint15_linear_720_53416)"/>
<path d="M12.0051 11.9676C12.0344 11.9676 12.0544 11.9716 12.0651 11.9796L12.0771 11.9916C12.1377 12.2129 12.2533 12.4152 12.4131 12.5798C12.5732 12.7438 12.7732 12.8558 12.9972 12.8558H13.3053V13.2519H10.7048V12.8518H11.0129C11.2329 12.8518 11.437 12.7438 11.597 12.5798C11.7554 12.4147 11.8696 12.2125 11.9291 11.9916L11.9411 11.9796C11.9609 11.9698 11.983 11.9657 12.0051 11.9676Z" fill="#97C924"/>
<path d="M11.9766 11.9676H11.9646L11.9406 11.9796L11.9286 11.9916L11.8886 12.1115L11.8406 12.2315L11.8007 12.3075C11.7653 12.3692 11.7252 12.428 11.6807 12.4834L11.5967 12.5794C11.4889 12.6927 11.3541 12.7767 11.2048 12.8233C11.3168 12.8513 11.3648 12.8233 11.4648 12.8073C11.5474 12.7967 11.6274 12.7807 11.7047 12.7593C11.7647 12.6794 11.7447 12.7074 11.7647 12.6434C11.8126 12.5554 11.8846 12.4754 11.9006 12.3755C11.9646 12.2555 11.9766 12.0316 11.9766 11.9676Z" fill="#EDE71F"/>
<path d="M11.977 12.0236C11.961 12.2635 11.885 12.5515 11.709 12.7354C11.6451 12.7874 11.5651 12.8394 11.4851 12.8274C11.757 12.6074 11.921 12.2675 11.977 12.0236Z" fill="#C6CB24"/>
<path d="M11.7568 12.4397C11.6699 12.5969 11.5498 12.7334 11.4049 12.8396H11.293C11.3929 12.8316 11.6209 12.6396 11.7568 12.4397Z" fill="#9ECB34"/>
<path d="M12.0452 11.9716L12.0652 11.9796L12.0812 11.9916L12.1212 12.1116L12.1692 12.2315L12.2092 12.3075C12.2445 12.3692 12.2846 12.428 12.3291 12.4835L12.4131 12.5794C12.5201 12.6972 12.6548 12.7865 12.805 12.8394C12.5131 12.8394 12.3891 12.8154 12.2851 12.6794C12.2095 12.5994 12.1522 12.5039 12.1172 12.3995C12.0972 12.3195 12.0372 12.1396 12.0412 11.9716H12.0452Z" fill="#EDE71F"/>
<path d="M12.0652 12.0236C12.0812 12.2635 12.1532 12.5035 12.3291 12.6874C12.3931 12.7434 12.4731 12.7914 12.553 12.7794C12.3015 12.5974 12.1274 12.3277 12.0652 12.0236Z" fill="#C6CB24"/>
<path d="M11.3966 11.9477C11.3246 11.9477 11.3046 11.9837 11.3046 11.9837C11.2046 12.3756 10.8328 12.8754 10.4449 12.9354L10.2529 13.2673H12.2123V12.8154C11.8604 12.7195 11.5765 12.3476 11.4846 11.9837C11.4846 11.9837 11.4646 11.9517 11.3926 11.9517L11.3966 11.9477Z" fill="url(#paint16_linear_720_53416)"/>
<path d="M11.3965 11.9677C11.3646 11.9677 11.3432 11.9717 11.3326 11.9797L11.3206 11.9917C11.2537 12.2113 11.1436 12.4152 10.9967 12.5915C10.8607 12.7635 10.6088 12.9354 10.4368 12.9514L10.2649 13.2513H12.1843V12.8234C12.0398 12.7761 11.9093 12.6937 11.8044 12.5835C11.6441 12.4179 11.5285 12.2143 11.4685 11.9917L11.4565 11.9797L11.3965 11.9677Z" fill="#97C924"/>
<path d="M11.3409 12.0236C11.3169 12.3835 11.117 12.8434 10.889 12.9193C10.8131 12.9473 10.6851 12.9553 10.6411 12.9593C10.8174 12.8614 10.9712 12.7275 11.0924 12.5663C11.2137 12.4051 11.2997 12.2202 11.3449 12.0236H11.3409Z" fill="#93BC30"/>
<path d="M11.3972 11.9676H11.3772V12.3995C11.3825 12.4874 11.4092 12.5727 11.4572 12.6554L11.4652 12.6754C11.4852 12.7194 11.4972 12.7354 11.5571 12.7833C11.7289 12.9059 11.9389 12.9627 12.149 12.9433C12.1036 12.906 12.0583 12.874 12.013 12.8473L12.1929 12.8273C12.0447 12.7789 11.9113 12.6936 11.8051 12.5794L11.7491 12.5194L11.7251 12.4874C11.6778 12.4309 11.635 12.3707 11.5971 12.3075L11.5571 12.2275L11.4932 12.0716L11.4692 11.9916L11.4572 11.9796L11.4332 11.9716L11.3932 11.9676H11.3972Z" fill="#EDE71F"/>
<path d="M11.4211 12.0236C11.4411 12.2635 11.5131 12.5515 11.6891 12.7354C11.753 12.7874 11.833 12.8394 11.913 12.8274C11.6701 12.6166 11.4983 12.3358 11.4211 12.0236Z" fill="#CCD11E"/>
<path d="M11.5894 12.3597C11.7189 12.613 11.9225 12.8209 12.1732 12.9555H12.2731C12.0972 12.8596 11.8133 12.7236 11.5934 12.3557L11.5894 12.3597Z" fill="#9ECB34"/>
<path d="M10.7799 11.9477C10.7079 11.9477 10.6879 11.9837 10.6879 11.9837C10.5879 12.3756 10.2161 12.8754 9.82817 12.9354L9.63623 13.2673H11.5956V12.8154C11.2437 12.7195 10.9598 12.3476 10.8679 11.9837C10.8679 11.9837 10.8479 11.9517 10.7759 11.9517L10.7799 11.9477Z" fill="url(#paint17_linear_720_53416)"/>
<path d="M10.7798 11.9677C10.7479 11.9677 10.7265 11.9717 10.7159 11.9797L10.7039 11.9917C10.637 12.2113 10.5269 12.4152 10.38 12.5915C10.244 12.7635 9.99209 12.9354 9.82014 12.9514L9.64819 13.2513H11.5676V12.8234C11.4231 12.7761 11.2926 12.6937 11.1877 12.5835C11.0274 12.4179 10.9118 12.2143 10.8518 11.9917L10.8398 11.9797L10.7798 11.9677Z" fill="#97C924"/>
<path d="M10.724 12.0237C10.7 12.3836 10.5 12.8434 10.2721 12.9194C10.1961 12.9474 10.0682 12.9554 10.0242 12.9594C10.2005 12.8614 10.3542 12.7275 10.4755 12.5663C10.5967 12.4051 10.6827 12.2203 10.728 12.0237H10.724Z" fill="#93BC30"/>
<path d="M10.7805 11.9676H10.7605V12.3995C10.7658 12.4874 10.7925 12.5727 10.8405 12.6554L10.8485 12.6754C10.8685 12.7194 10.8805 12.7354 10.9404 12.7833C11.1122 12.9059 11.3222 12.9627 11.5323 12.9433C11.4869 12.906 11.4416 12.874 11.3963 12.8473L11.5762 12.8273C11.428 12.7789 11.2946 12.6936 11.1884 12.5794L11.1324 12.5194L11.1084 12.4874C11.0611 12.4309 11.0183 12.3707 10.9804 12.3075L10.9404 12.2275L10.8765 12.0716L10.8525 11.9916L10.8405 11.9796L10.8165 11.9716L10.7765 11.9676H10.7805Z" fill="#EDE71F"/>
<path d="M10.8044 12.0236C10.8244 12.2635 10.8964 12.5515 11.0724 12.7354C11.1363 12.7874 11.2163 12.8394 11.2963 12.8274C11.0534 12.6166 10.8816 12.3358 10.8044 12.0236Z" fill="#C6CB24"/>
<path d="M10.9724 12.3597C11.1019 12.613 11.3056 12.8209 11.5562 12.9555H11.6562C11.4803 12.8596 11.1963 12.7236 10.9764 12.3557L10.9724 12.3597Z" fill="#9ECB34"/>
<path d="M14.2656 13.0559C14.2416 13.0639 14.0896 13.0479 14.0096 13.0559L13.9576 13.0679H13.8256C13.6815 13.0679 13.5575 13.1079 13.4215 13.1079C13.2855 13.1079 13.1614 13.0679 13.0214 13.0679H12.8854C12.7414 13.0679 12.6174 13.1079 12.4813 13.1079C12.3453 13.1079 12.2213 13.0679 12.0813 13.0679H11.9452C11.8012 13.0679 11.6772 13.1079 11.5452 13.1079C11.4051 13.1079 11.2851 13.0679 11.1411 13.0679H11.0051C10.861 13.0679 10.741 13.1079 10.605 13.1079C10.469 13.1079 10.3449 13.0679 10.2009 13.0679H10.0649C9.95288 13.0679 9.81685 13.0919 9.70883 13.0999L9.45679 13.536H14.5537L14.2656 13.0559Z" fill="white"/>
<path d="M13.9255 12.9919H13.9015C13.7735 12.9959 13.6774 13.0359 13.4534 13.0359C13.2294 13.0359 13.2054 12.9959 12.9493 13.0039C12.7093 13.0039 12.6132 13.0519 12.4812 13.0519C12.3492 13.0519 12.1452 13.0239 11.9811 13.0399C11.8171 13.0559 11.6291 13.0919 11.5011 13.0919C11.345 13.0919 11.189 13.0639 11.029 13.0799C10.8689 13.0959 10.7889 13.1399 10.5849 13.1399C10.4089 13.1399 10.2248 13.1119 10.0728 13.1119C9.93677 13.1119 9.78475 13.1519 9.67273 13.1679L9.63672 13.2279C9.72874 13.2159 9.98078 13.1759 10.0688 13.1759C10.1648 13.1759 10.4969 13.1959 10.6809 13.1879C10.8689 13.1839 10.8889 13.1399 11.109 13.1399C11.261 13.1399 11.373 13.1559 11.5291 13.1559C11.6291 13.1559 11.7171 13.1079 11.8651 13.1079L11.9771 13.1039C12.1012 13.0839 12.3132 13.1039 12.4572 13.1119C12.5892 13.1199 12.6773 13.0879 12.8173 13.0839L12.9933 13.0799C13.1333 13.0719 13.2494 13.1039 13.3814 13.1039C13.5094 13.0959 13.6374 13.0639 13.7735 13.0639L13.9535 13.0559C14.0455 13.0559 14.1895 13.0559 14.2855 13.0759L14.2535 13.0199C14.1575 13.0159 14.0415 12.9919 13.9255 12.9919Z" fill="url(#paint18_linear_720_53416)"/>
<path d="M10.0166 13.4599C9.88058 13.4599 9.76056 13.4919 9.63254 13.4959L9.48851 13.4839L9.46851 13.5159H9.70855C9.84857 13.5159 9.96459 13.4839 10.0926 13.4799C10.2246 13.4839 10.3407 13.5199 10.4807 13.5199H10.6607C10.7967 13.5199 10.9168 13.4839 11.0448 13.4799C11.1768 13.4839 11.2968 13.5199 11.4329 13.5199H11.6129C11.7529 13.5199 11.8689 13.4839 12.001 13.4799C12.129 13.4839 12.245 13.5199 12.385 13.5199H12.5651C12.7011 13.5199 12.8211 13.4839 12.9531 13.4799C13.0811 13.4839 13.2012 13.5199 13.3372 13.5199H13.5172C13.6573 13.5199 13.7733 13.4839 13.9013 13.4799C14.0333 13.4839 14.1493 13.5199 14.2894 13.5199H14.4694L14.5414 13.5159L14.5214 13.4839L14.3934 13.4959C14.2614 13.4959 14.1453 13.4559 14.0053 13.4559H13.8253C13.6893 13.4559 13.5692 13.4959 13.4412 13.4959C13.3092 13.4919 13.1932 13.4559 13.0531 13.4559H12.8731C12.7371 13.4559 12.6171 13.4959 12.489 13.4959C12.357 13.4919 12.241 13.4559 12.101 13.4559H11.9209C11.7809 13.4559 11.6649 13.4959 11.5369 13.4959C11.4049 13.4919 11.2888 13.4559 11.1488 13.4559H10.9688C10.8327 13.4559 10.7127 13.4959 10.5847 13.4959C10.4527 13.4919 10.3367 13.4559 10.1966 13.4559H10.0166V13.4599Z" fill="url(#paint19_linear_720_53416)"/>
<path d="M10.0166 13.4079C9.88058 13.4079 9.76056 13.4399 9.63254 13.4439L9.48851 13.4319L9.46851 13.4639H9.70855C9.84857 13.4639 9.96459 13.4319 10.0926 13.4279C10.2246 13.4319 10.3407 13.4679 10.4807 13.4679H10.6607C10.7967 13.4679 10.9168 13.4319 11.0448 13.4279C11.1768 13.4319 11.2968 13.4679 11.4329 13.4679H11.6129C11.7529 13.4679 11.8689 13.4319 12.001 13.4279C12.129 13.4319 12.245 13.4679 12.385 13.4679H12.5651C12.7011 13.4679 12.8211 13.4319 12.9531 13.4279C13.0811 13.4319 13.2012 13.4679 13.3372 13.4679H13.5172C13.6573 13.4679 13.7733 13.4319 13.9013 13.4279C14.0333 13.4319 14.1493 13.4679 14.2894 13.4679H14.4694L14.5414 13.4639L14.5214 13.4319L14.3934 13.4439C14.2614 13.4439 14.1453 13.4039 14.0053 13.4039H13.8253C13.6893 13.4039 13.5692 13.4439 13.4412 13.4439C13.3092 13.4399 13.1932 13.4039 13.0531 13.4039H12.8731C12.7371 13.4039 12.6171 13.4439 12.489 13.4439C12.357 13.4399 12.241 13.4039 12.101 13.4039H11.9209C11.7809 13.4039 11.6649 13.4439 11.5369 13.4439C11.4049 13.4399 11.2888 13.4039 11.1488 13.4039H10.9688C10.8327 13.4039 10.7127 13.4439 10.5847 13.4439C10.4527 13.4399 10.3367 13.4039 10.1966 13.4039H10.0166V13.4079Z" fill="url(#paint20_linear_720_53416)"/>
<path d="M10.0166 13.3559C9.88058 13.3559 9.76056 13.3879 9.63254 13.3919L9.48851 13.3799L9.46851 13.4119H9.70855C9.84857 13.4119 9.96459 13.3799 10.0926 13.3759C10.2246 13.3799 10.3407 13.4159 10.4807 13.4159H10.6607C10.7967 13.4159 10.9168 13.3799 11.0448 13.3759C11.1768 13.3799 11.2968 13.4159 11.4329 13.4159H11.6129C11.7529 13.4159 11.8689 13.3799 12.001 13.3759C12.129 13.3799 12.245 13.4159 12.385 13.4159H12.5651C12.7011 13.4159 12.8211 13.3799 12.9531 13.3759C13.0811 13.3799 13.2012 13.4159 13.3372 13.4159H13.5172C13.6573 13.4159 13.7733 13.3799 13.9013 13.3759C14.0333 13.3799 14.1493 13.4159 14.2894 13.4159H14.4694L14.5414 13.4119L14.5214 13.3799L14.3934 13.3919C14.2614 13.3919 14.1453 13.3519 14.0053 13.3519H13.8253C13.6893 13.3519 13.5692 13.3919 13.4412 13.3919C13.3092 13.3879 13.1932 13.3519 13.0531 13.3519H12.8731C12.7371 13.3519 12.6171 13.3919 12.489 13.3919C12.357 13.3879 12.241 13.3519 12.101 13.3519H11.9209C11.7809 13.3519 11.6649 13.3919 11.5369 13.3919C11.4049 13.3879 11.2888 13.3519 11.1488 13.3519H10.9688C10.8327 13.3519 10.7127 13.3919 10.5847 13.3919C10.4527 13.3879 10.3367 13.3519 10.1966 13.3519H10.0166V13.3559Z" fill="url(#paint21_linear_720_53416)"/>
<path d="M10.0166 13.304C9.88058 13.304 9.76056 13.336 9.63254 13.34L9.48851 13.328L9.46851 13.36H9.70855C9.84857 13.36 9.96459 13.328 10.0926 13.324C10.2246 13.328 10.3407 13.364 10.4807 13.364H10.6607C10.7967 13.364 10.9168 13.328 11.0448 13.324C11.1768 13.328 11.2968 13.364 11.4329 13.364H11.6129C11.7529 13.364 11.8689 13.328 12.001 13.324C12.129 13.328 12.245 13.364 12.385 13.364H12.5651C12.7011 13.364 12.8211 13.328 12.9531 13.324C13.0811 13.328 13.2012 13.364 13.3372 13.364H13.5172C13.6573 13.364 13.7733 13.328 13.9013 13.324C14.0333 13.328 14.1493 13.364 14.2894 13.364H14.4694L14.5414 13.36L14.5214 13.328L14.3934 13.34C14.2614 13.34 14.1453 13.3 14.0053 13.3H13.8253C13.6893 13.3 13.5692 13.34 13.4412 13.34C13.3092 13.336 13.1932 13.3 13.0531 13.3H12.8731C12.7371 13.3 12.6171 13.34 12.489 13.34C12.357 13.336 12.241 13.3 12.101 13.3H11.9209C11.7809 13.3 11.6649 13.34 11.5369 13.34C11.4049 13.336 11.2888 13.3 11.1488 13.3H10.9688C10.8327 13.3 10.7127 13.34 10.5847 13.34C10.4527 13.336 10.3367 13.3 10.1966 13.3H10.0166V13.304Z" fill="url(#paint22_linear_720_53416)"/>
<path d="M10.0166 13.252C9.88058 13.252 9.76056 13.2841 9.63254 13.2881L9.48851 13.2761L9.46851 13.3081H9.70855C9.84857 13.3081 9.96459 13.2761 10.0926 13.2721C10.2246 13.2761 10.3407 13.3121 10.4807 13.3121H10.6607C10.7967 13.3121 10.9168 13.2761 11.0448 13.2721C11.1768 13.2761 11.2968 13.3121 11.4329 13.3121H11.6129C11.7529 13.3121 11.8689 13.2761 12.001 13.2721C12.129 13.2761 12.245 13.3121 12.385 13.3121H12.5651C12.7011 13.3121 12.8211 13.2761 12.9531 13.2721C13.0811 13.2761 13.2012 13.3121 13.3372 13.3121H13.5172C13.6573 13.3121 13.7733 13.2761 13.9013 13.2721C14.0333 13.2761 14.1493 13.3121 14.2894 13.3121H14.4694L14.5414 13.3081L14.5214 13.2761L14.3934 13.2881C14.2614 13.2881 14.1453 13.248 14.0053 13.248H13.8253C13.6893 13.248 13.5692 13.2881 13.4412 13.2881C13.3092 13.2841 13.1932 13.248 13.0531 13.248H12.8731C12.7371 13.248 12.6171 13.2881 12.489 13.2881C12.357 13.2841 12.241 13.248 12.101 13.248H11.9209C11.7809 13.248 11.6649 13.2881 11.5369 13.2881C11.4049 13.2841 11.2888 13.248 11.1488 13.248H10.9688C10.8327 13.248 10.7127 13.2881 10.5847 13.2881C10.4527 13.2841 10.3367 13.248 10.1966 13.248H10.0166V13.252Z" fill="url(#paint23_linear_720_53416)"/>
<path d="M10.0166 13.2C9.88058 13.2 9.76056 13.2321 9.63254 13.2361L9.48851 13.224L9.46851 13.2561H9.70855C9.84857 13.2561 9.96459 13.224 10.0926 13.22C10.2246 13.224 10.3407 13.2601 10.4807 13.2601H10.6607C10.7967 13.2601 10.9168 13.224 11.0448 13.22C11.1768 13.224 11.2968 13.2601 11.4329 13.2601H11.6129C11.7529 13.2601 11.8689 13.224 12.001 13.22C12.129 13.224 12.245 13.2601 12.385 13.2601H12.5651C12.7011 13.2601 12.8211 13.224 12.9531 13.22C13.0811 13.224 13.2012 13.2601 13.3372 13.2601H13.5172C13.6573 13.2601 13.7733 13.224 13.9013 13.22C14.0333 13.224 14.1493 13.2601 14.2894 13.2601H14.4694L14.5414 13.2561L14.5214 13.224L14.3934 13.2361C14.2614 13.2361 14.1453 13.196 14.0053 13.196H13.8253C13.6893 13.196 13.5692 13.2361 13.4412 13.2361C13.3092 13.2321 13.1932 13.196 13.0531 13.196H12.8731C12.7371 13.196 12.6171 13.2361 12.489 13.2361C12.357 13.2321 12.241 13.196 12.101 13.196H11.9209C11.7809 13.196 11.6649 13.2361 11.5369 13.2361C11.4049 13.2321 11.2888 13.196 11.1488 13.196H10.9688C10.8327 13.196 10.7127 13.2361 10.5847 13.2361C10.4527 13.2321 10.3367 13.196 10.1966 13.196H10.0166V13.2Z" fill="url(#paint24_linear_720_53416)"/>
<path d="M10.0166 13.1519C9.88058 13.1519 9.76056 13.184 9.63254 13.188L9.48851 13.176L9.46851 13.208H9.70855C9.84857 13.208 9.96459 13.176 10.0926 13.172C10.2246 13.176 10.3407 13.212 10.4807 13.212H10.6607C10.7967 13.212 10.9168 13.176 11.0448 13.172C11.1768 13.176 11.2968 13.212 11.4329 13.212H11.6129C11.7529 13.212 11.8689 13.176 12.001 13.172C12.129 13.176 12.245 13.212 12.385 13.212H12.5651C12.7011 13.212 12.8211 13.176 12.9531 13.172C13.0811 13.176 13.2012 13.212 13.3372 13.212H13.5172C13.6573 13.212 13.7733 13.176 13.9013 13.172C14.0333 13.176 14.1493 13.212 14.2894 13.212H14.4694L14.5414 13.208L14.5214 13.176L14.3934 13.188C14.2614 13.188 14.1453 13.1479 14.0053 13.1479H13.8253C13.6893 13.1479 13.5692 13.188 13.4412 13.188C13.3092 13.184 13.1932 13.1479 13.0531 13.1479H12.8731C12.7371 13.1479 12.6171 13.188 12.489 13.188C12.357 13.184 12.241 13.1479 12.101 13.1479H11.9209C11.7809 13.1479 11.6649 13.188 11.5369 13.188C11.4049 13.184 11.2888 13.1479 11.1488 13.1479H10.9688C10.8327 13.1479 10.7127 13.188 10.5847 13.188C10.4527 13.184 10.3367 13.1479 10.1966 13.1479H10.0166V13.1519Z" fill="url(#paint25_linear_720_53416)"/>
<path d="M10.0166 13.1C9.88058 13.1 9.76056 13.132 9.63254 13.136L9.48851 13.124L9.46851 13.156H9.70855C9.84857 13.156 9.96459 13.124 10.0926 13.12C10.2246 13.124 10.3407 13.16 10.4807 13.16H10.6607C10.7967 13.16 10.9168 13.124 11.0448 13.12C11.1768 13.124 11.2968 13.16 11.4329 13.16H11.6129C11.7529 13.16 11.8689 13.124 12.001 13.12C12.129 13.124 12.245 13.16 12.385 13.16H12.5651C12.7011 13.16 12.8211 13.124 12.9531 13.12C13.0811 13.124 13.2012 13.16 13.3372 13.16H13.5172C13.6573 13.16 13.7733 13.124 13.9013 13.12C14.0333 13.124 14.1493 13.16 14.2894 13.16H14.4694L14.5414 13.156L14.5214 13.124L14.3934 13.136C14.2614 13.136 14.1453 13.096 14.0053 13.096H13.8253C13.6893 13.096 13.5692 13.136 13.4412 13.136C13.3092 13.132 13.1932 13.096 13.0531 13.096H12.8731C12.7371 13.096 12.6171 13.136 12.489 13.136C12.357 13.132 12.241 13.096 12.101 13.096H11.9209C11.7809 13.096 11.6649 13.136 11.5369 13.136C11.4049 13.132 11.2888 13.096 11.1488 13.096H10.9688C10.8327 13.096 10.7127 13.136 10.5847 13.136C10.4527 13.132 10.3367 13.096 10.1966 13.096H10.0166V13.1Z" fill="url(#paint26_linear_720_53416)"/>
<path d="M10.0166 13.048C9.88058 13.048 9.76056 13.08 9.63254 13.084L9.48851 13.072L9.46851 13.104H9.70855C9.84857 13.104 9.96459 13.072 10.0926 13.068C10.2246 13.072 10.3407 13.108 10.4807 13.108H10.6607C10.7967 13.108 10.9168 13.072 11.0448 13.068C11.1768 13.072 11.2968 13.108 11.4329 13.108H11.6129C11.7529 13.108 11.8689 13.072 12.001 13.068C12.129 13.072 12.245 13.108 12.385 13.108H12.5651C12.7011 13.108 12.8211 13.072 12.9531 13.068C13.0811 13.072 13.2012 13.108 13.3372 13.108H13.5172C13.6573 13.108 13.7733 13.072 13.9013 13.068C14.0333 13.072 14.1493 13.108 14.2894 13.108H14.4694L14.5414 13.104L14.5214 13.072L14.3934 13.084C14.2614 13.084 14.1453 13.044 14.0053 13.044H13.8253C13.6893 13.044 13.5692 13.084 13.4412 13.084C13.3092 13.08 13.1932 13.044 13.0531 13.044H12.8731C12.7371 13.044 12.6171 13.084 12.489 13.084C12.357 13.08 12.241 13.044 12.101 13.044H11.9209C11.7809 13.044 11.6649 13.084 11.5369 13.084C11.4049 13.08 11.2888 13.044 11.1488 13.044H10.9688C10.8327 13.044 10.7127 13.084 10.5847 13.084C10.4527 13.08 10.3367 13.044 10.1966 13.044H10.0166V13.048Z" fill="url(#paint27_linear_720_53416)"/>
<path d="M9.76091 13.0559L9.66089 13.2239C9.77691 13.2039 9.94494 13.1559 10.089 13.1559C10.233 13.1559 10.409 13.1919 10.5851 13.1959C10.7851 13.1959 10.8651 13.1479 11.0251 13.1319C11.1852 13.1159 11.3452 13.1519 11.5052 13.1559C11.6292 13.1559 11.8213 13.1119 11.9853 13.0959C12.1453 13.0759 12.2934 13.1079 12.4854 13.1079C12.6814 13.1119 12.7134 13.0599 12.9495 13.0559C13.2055 13.0519 13.2295 13.0919 13.4536 13.0919C13.6216 13.0999 13.7696 13.0559 13.9216 13.0479C14.0737 13.0399 14.1417 13.0479 14.2537 13.0479L14.1777 12.9199L10.125 13.0119L9.76091 13.0559Z" fill="#97C924"/>
<path d="M14.0056 13.0519L14.1656 13.0639L14.2815 13.0759L14.2655 13.0559C14.2415 13.0639 14.0896 13.0479 14.0096 13.0559L14.0056 13.0519Z" fill="white"/>
</g>
<path d="M12.007 9.06256L10.7224 11.2895L9.40967 13.5681H14.6044L13.3198 11.3411L12.007 9.06256ZM12.007 9.17977L13.2729 11.3692L14.5059 13.5071H9.51281L10.774 11.3223L12.007 9.17977Z" fill="#C8A400"/>
</g>
<defs>
<linearGradient id="paint0_linear_720_53416" x1="11.9531" y1="11.6315" x2="12.029" y2="11.4036" gradientUnits="userSpaceOnUse">
<stop stop-color="#510000"/>
<stop offset="0.3" stop-color="#8A0000"/>
<stop offset="1" stop-color="#AA0000"/>
</linearGradient>
<linearGradient id="paint1_linear_720_53416" x1="12.0611" y1="11.7235" x2="12.121" y2="11.5635" gradientUnits="userSpaceOnUse">
<stop stop-color="#FF2A2A"/>
<stop offset="1" stop-color="#FF0000"/>
</linearGradient>
<linearGradient id="paint2_linear_720_53416" x1="9.78491" y1="12.7677" x2="17.3823" y2="12.7677" gradientUnits="userSpaceOnUse">
<stop stop-color="#002255"/>
<stop offset="0.5" stop-color="#0044AA"/>
<stop offset="1" stop-color="#002255"/>
</linearGradient>
<linearGradient id="paint3_linear_720_53416" x1="9.78491" y1="12.7237" x2="17.3823" y2="12.7237" gradientUnits="userSpaceOnUse">
<stop stop-color="#002255"/>
<stop offset="0.5" stop-color="#0044AA"/>
<stop offset="1" stop-color="#002255"/>
</linearGradient>
<linearGradient id="paint4_linear_720_53416" x1="9.78491" y1="12.6797" x2="17.3823" y2="12.6797" gradientUnits="userSpaceOnUse">
<stop stop-color="#002255"/>
<stop offset="0.5" stop-color="#0044AA"/>
<stop offset="1" stop-color="#002255"/>
</linearGradient>
<linearGradient id="paint5_linear_720_53416" x1="9.78491" y1="12.6357" x2="17.3823" y2="12.6357" gradientUnits="userSpaceOnUse">
<stop stop-color="#002255"/>
<stop offset="0.5" stop-color="#0044AA"/>
<stop offset="1" stop-color="#002255"/>
</linearGradient>
<linearGradient id="paint6_linear_720_53416" x1="9.78491" y1="12.5917" x2="17.3823" y2="12.5917" gradientUnits="userSpaceOnUse">
<stop stop-color="#002255"/>
<stop offset="0.5" stop-color="#0044AA"/>
<stop offset="1" stop-color="#002255"/>
</linearGradient>
<linearGradient id="paint7_linear_720_53416" x1="9.78491" y1="12.5478" x2="17.3823" y2="12.5478" gradientUnits="userSpaceOnUse">
<stop stop-color="#002255"/>
<stop offset="0.5" stop-color="#0044AA"/>
<stop offset="1" stop-color="#002255"/>
</linearGradient>
<linearGradient id="paint8_linear_720_53416" x1="9.78491" y1="12.4997" x2="17.3823" y2="12.4997" gradientUnits="userSpaceOnUse">
<stop stop-color="#002255"/>
<stop offset="0.5" stop-color="#0044AA"/>
<stop offset="1" stop-color="#002255"/>
</linearGradient>
<linearGradient id="paint9_linear_720_53416" x1="9.78491" y1="12.4558" x2="17.3823" y2="12.4558" gradientUnits="userSpaceOnUse">
<stop stop-color="#002255"/>
<stop offset="0.5" stop-color="#0044AA"/>
<stop offset="1" stop-color="#002255"/>
</linearGradient>
<linearGradient id="paint10_linear_720_53416" x1="9.78491" y1="12.4118" x2="17.3823" y2="12.4118" gradientUnits="userSpaceOnUse">
<stop stop-color="#002255"/>
<stop offset="0.5" stop-color="#0044AA"/>
<stop offset="1" stop-color="#002255"/>
</linearGradient>
<linearGradient id="paint11_linear_720_53416" x1="9.78452" y1="12.7679" x2="17.3819" y2="12.7679" gradientUnits="userSpaceOnUse">
<stop stop-color="#002255"/>
<stop offset="0.5" stop-color="#0044AA"/>
<stop offset="1" stop-color="#002255"/>
</linearGradient>
<linearGradient id="paint12_linear_720_53416" x1="9.78445" y1="12.7678" x2="17.3818" y2="12.7678" gradientUnits="userSpaceOnUse">
<stop stop-color="#002255"/>
<stop offset="0.5" stop-color="#0044AA"/>
<stop offset="1" stop-color="#002255"/>
</linearGradient>
<linearGradient id="paint13_linear_720_53416" x1="11.3967" y1="12.5357" x2="11.3967" y2="12.7718" gradientUnits="userSpaceOnUse">
<stop stop-color="#F5F549"/>
<stop offset="1" stop-color="#97C924"/>
</linearGradient>
<linearGradient id="paint14_linear_720_53416" x1="10.7846" y1="12.5358" x2="10.7846" y2="12.7718" gradientUnits="userSpaceOnUse">
<stop stop-color="#F5F549"/>
<stop offset="1" stop-color="#97C924"/>
</linearGradient>
<linearGradient id="paint15_linear_720_53416" x1="11.3971" y1="12.5357" x2="11.3971" y2="12.7717" gradientUnits="userSpaceOnUse">
<stop stop-color="#F5F549"/>
<stop offset="1" stop-color="#97C924"/>
</linearGradient>
<linearGradient id="paint16_linear_720_53416" x1="11.3966" y1="12.5355" x2="11.3966" y2="12.7714" gradientUnits="userSpaceOnUse">
<stop stop-color="#F5F549"/>
<stop offset="1" stop-color="#97C924"/>
</linearGradient>
<linearGradient id="paint17_linear_720_53416" x1="10.7799" y1="12.5355" x2="10.7799" y2="12.7714" gradientUnits="userSpaceOnUse">
<stop stop-color="#F5F549"/>
<stop offset="1" stop-color="#97C924"/>
</linearGradient>
<linearGradient id="paint18_linear_720_53416" x1="9.6372" y1="12.9928" x2="14.2913" y2="12.9928" gradientUnits="userSpaceOnUse">
<stop stop-color="#002255"/>
<stop offset="0.5" stop-color="#0044AA"/>
<stop offset="1" stop-color="#002255"/>
</linearGradient>
<linearGradient id="paint19_linear_720_53416" x1="9.48619" y1="13.4575" x2="14.5236" y2="13.4575" gradientUnits="userSpaceOnUse">
<stop stop-color="#002255"/>
<stop offset="0.5" stop-color="#0044AA"/>
<stop offset="1" stop-color="#002255"/>
</linearGradient>
<linearGradient id="paint20_linear_720_53416" x1="9.48619" y1="13.4055" x2="14.5236" y2="13.4055" gradientUnits="userSpaceOnUse">
<stop stop-color="#002255"/>
<stop offset="0.5" stop-color="#0044AA"/>
<stop offset="1" stop-color="#002255"/>
</linearGradient>
<linearGradient id="paint21_linear_720_53416" x1="9.48619" y1="13.3535" x2="14.5236" y2="13.3535" gradientUnits="userSpaceOnUse">
<stop stop-color="#002255"/>
<stop offset="0.5" stop-color="#0044AA"/>
<stop offset="1" stop-color="#002255"/>
</linearGradient>
<linearGradient id="paint22_linear_720_53416" x1="9.48619" y1="13.3016" x2="14.5236" y2="13.3016" gradientUnits="userSpaceOnUse">
<stop stop-color="#002255"/>
<stop offset="0.5" stop-color="#0044AA"/>
<stop offset="1" stop-color="#002255"/>
</linearGradient>
<linearGradient id="paint23_linear_720_53416" x1="9.48619" y1="13.2497" x2="14.5236" y2="13.2497" gradientUnits="userSpaceOnUse">
<stop stop-color="#002255"/>
<stop offset="0.5" stop-color="#0044AA"/>
<stop offset="1" stop-color="#002255"/>
</linearGradient>
<linearGradient id="paint24_linear_720_53416" x1="9.48619" y1="13.1977" x2="14.5236" y2="13.1977" gradientUnits="userSpaceOnUse">
<stop stop-color="#002255"/>
<stop offset="0.5" stop-color="#0044AA"/>
<stop offset="1" stop-color="#002255"/>
</linearGradient>
<linearGradient id="paint25_linear_720_53416" x1="9.48619" y1="13.1496" x2="14.5236" y2="13.1496" gradientUnits="userSpaceOnUse">
<stop stop-color="#002255"/>
<stop offset="0.5" stop-color="#0044AA"/>
<stop offset="1" stop-color="#002255"/>
</linearGradient>
<linearGradient id="paint26_linear_720_53416" x1="9.48619" y1="13.0976" x2="14.5236" y2="13.0976" gradientUnits="userSpaceOnUse">
<stop stop-color="#002255"/>
<stop offset="0.5" stop-color="#0044AA"/>
<stop offset="1" stop-color="#002255"/>
</linearGradient>
<linearGradient id="paint27_linear_720_53416" x1="9.48619" y1="13.0456" x2="14.5236" y2="13.0456" gradientUnits="userSpaceOnUse">
<stop stop-color="#002255"/>
<stop offset="0.5" stop-color="#0044AA"/>
<stop offset="1" stop-color="#002255"/>
</linearGradient>
<clipPath id="clip0_720_53416">
<rect width="24.0044" height="24.0044" fill="white" transform="translate(0.00439453 0.0656738)"/>
</clipPath>
</defs>
</svg>
