<svg width="25" height="25" viewBox="0 0 25 25" fill="none" xmlns="http://www.w3.org/2000/svg">
<g clip-path="url(#clip0_720_53327)">
<path d="M0.0175781 0.0656128H24.0219V24.07H0.0175781V0.0656128Z" fill="#FEDD00"/>
<path d="M0.0175781 0.0656128H12.0198V12.0678H0.0175781V0.0656128Z" fill="#012169"/>
<path d="M12.0198 0.0656128V1.56589L7.56583 6.0667L12.0198 10.4503V12.0678H10.4492L5.97179 7.66074L1.61162 12.0678H0.0175781V10.4738L4.37775 6.09015L0.0175781 1.8003V0.0656128H1.47097L5.97179 4.47266L10.332 0.0656128H12.0198Z" fill="white"/>
<path d="M4.33086 7.66074L4.58872 8.45776L1.00213 12.0678H0.0175781V11.9975L4.33086 7.66074ZM7.23764 7.37944L8.5035 7.56698L12.0198 11.0129V12.0678L7.23764 7.37944ZM12.0198 0.0656128L7.51894 4.6602L7.42518 3.62876L10.9414 0.0656128H12.0198ZM0.0175781 0.0890546L4.54184 4.51955L3.15877 4.33201L0.0175781 1.21426V0.0890546Z" fill="#C8102E"/>
<path d="M4.14333 0.0656128V12.0678H7.89401V0.0656128H4.14333ZM0.0175781 4.19136V7.94205H12.0198V4.19136H0.0175781Z" fill="white"/>
<path d="M0.0175781 4.9415V7.19191H12.0198V4.9415H0.0175781ZM4.89347 0.0656128V12.0678H7.14387V0.0656128H4.89347Z" fill="#C8102E"/>
<path d="M6.01849 8.11083C7.14742 8.11083 8.06261 7.19564 8.06261 6.0667C8.06261 4.93777 7.14742 4.02258 6.01849 4.02258C4.88955 4.02258 3.97437 4.93777 3.97437 6.0667C3.97437 7.19564 4.88955 8.11083 6.01849 8.11083Z" fill="#012169"/>
<path d="M6.01867 4.0226L7.21889 7.71702L4.07769 5.43379H7.95964L4.81845 7.71702M2.51647 4.98371L3.21972 7.15442L1.3772 5.81355H3.66043L1.81321 7.15442M9.52087 4.98371L10.2241 7.15442L8.37691 5.81355H10.6601L8.81293 7.15442M6.01867 8.98288L6.72192 11.1536L4.8794 9.81272H7.15794L5.31541 11.1536M6.01867 0.979858L6.72192 3.15994L4.8794 1.81439H7.15794L5.31541 3.15994" fill="#FEDD00"/>
</g>
<defs>
<clipPath id="clip0_720_53327">
<rect width="24.0044" height="24.0044" fill="white" transform="translate(0.0175781 0.0656738)"/>
</clipPath>
</defs>
</svg>
