<svg width="25" height="25" viewBox="0 0 25 25" fill="none" xmlns="http://www.w3.org/2000/svg">
<g clip-path="url(#clip0_720_53467)">
<mask id="mask0_720_53467" style="mask-type:luminance" maskUnits="userSpaceOnUse" x="0" y="0" width="25" height="25">
<path d="M0.019043 0.0654907H24.0197V24.0662H0.019043V0.0654907Z" fill="white"/>
</mask>
<g mask="url(#mask0_720_53467)">
<path fill-rule="evenodd" clip-rule="evenodd" d="M-11.981 0.0654907H36.0253V24.0662H-11.981V0.0654907Z" fill="#0071BC"/>
<path fill-rule="evenodd" clip-rule="evenodd" d="M14.7972 19.0531C14.7972 19.0531 15.644 18.1579 16.4569 18.3273C16.6989 17.3886 17.6231 17.3111 17.6231 17.3111C17.6231 17.3111 17.5312 16.2708 18.7118 16.0434C18.7457 15.3369 19.4619 14.7465 19.4619 14.7465C19.4619 14.7465 19.3167 13.653 20.0667 13.3965C19.607 12.5255 20.2216 11.8965 20.2119 11.8771C20.2022 11.8577 19.4377 10.498 20.12 10.1109C19.3941 9.50123 19.6361 8.80443 19.6361 8.80443C19.6361 8.80443 18.8425 8.60604 19.128 7.65763C18.4796 7.54633 18.3489 6.4963 18.3489 6.4963C18.3489 6.4963 17.3425 6.6947 17.2263 5.8237C16.5634 5.93016 16.4908 5.27691 16.4811 5.27691C16.4763 5.27691 15.1746 5.63015 14.9133 4.64786C14.4101 4.90432 14.1875 4.43979 14.1875 4.43979C14.1875 4.43979 13.4617 4.79787 13.031 4.10591C12.1697 4.64302 11.6907 4.08172 11.6907 4.08172C11.6907 4.08172 10.5584 4.83174 10.1858 4.25108C9.51803 4.92852 8.92285 4.63818 8.92285 4.63818C8.92285 4.63818 8.41961 5.52853 7.60185 5.30111C7.41797 6.13339 6.47924 6.14791 6.47924 6.14791C6.47924 6.14791 6.57601 6.88341 5.4534 7.07696C5.30823 7.93828 4.72273 8.08828 4.72273 8.08828C4.72273 8.08828 4.7808 8.92541 4.24853 9.19154C4.44208 9.66575 3.94852 10.2416 3.94852 10.2416C3.94852 10.2416 4.47111 10.9045 3.7598 11.6303C4.44692 11.8094 3.95336 12.99 3.95336 12.99C3.95336 12.99 4.89209 13.4159 4.29691 14.1998C4.97435 14.4127 4.76144 14.9546 4.77112 15.2691C5.20662 15.4627 5.58405 15.3659 5.40017 16.2369C6.72602 16.3821 6.09697 17.1176 6.09697 17.1176C6.09697 17.1176 6.71634 17.1418 6.4744 17.6305C7.60185 17.6063 7.76637 18.4773 7.76637 18.4773C7.76637 18.4773 8.8164 18.2015 8.95673 18.6079C9.09221 19.0144 8.49704 21.7532 8.49704 21.7532C8.49704 21.7532 7.61153 21.7532 6.9486 21.0467C5.40501 21.008 5.74857 19.9919 5.72437 19.9919C5.70018 19.9919 5.21146 20.1757 4.95984 19.3289C3.92432 19.5418 3.9582 18.6708 3.94852 18.6612C3.93884 18.6563 3.48399 18.4531 3.65819 18.0224C2.59364 18.1192 2.67106 17.0789 2.67106 17.0789C2.4388 16.9821 2.3517 16.7643 2.38557 16.5466C2.25008 16.4982 1.30167 16.4837 1.79039 15.2401C0.890365 14.6933 1.45167 14.0643 1.45167 14.0643C1.45167 14.0643 0.203248 13.4207 1.16134 12.6804C0.454868 11.6303 1.22908 11.098 1.22908 11.098C1.22908 11.098 0.237119 10.0916 1.2436 9.37542C1.07908 7.8415 1.99362 7.47859 1.99362 7.47859C1.99362 7.47859 1.50974 6.235 2.81623 5.71241C2.89849 4.45431 3.80819 4.4156 3.80819 4.4156C3.80819 4.4156 3.83238 3.41396 5.25984 3.51557C5.5405 2.62038 6.51795 2.79942 6.51795 2.79942C6.51795 2.79942 6.81795 1.71552 8.1438 2.23812C8.82124 0.91711 9.82288 1.59455 9.82288 1.59455C9.82288 1.59455 10.4568 1.17841 10.7761 1.30422C11.1778 0.617101 12.0342 1.28002 12.5907 1.41551C12.7939 1.33809 13.5101 0.796138 14.0617 1.47842C14.7972 0.994531 15.4214 1.86552 15.4214 1.86552C15.4214 1.86552 16.4327 1.34777 16.9021 2.52361C19.0457 2.33005 18.736 3.72848 18.736 3.72848C18.736 3.72848 20.42 3.34137 20.0522 5.02045C21.5861 5.12691 21.4313 6.13339 21.4313 6.13339C21.4313 6.13339 22.399 6.86889 21.9732 7.52698C22.8345 7.56569 22.52 8.39797 22.52 8.39797C22.52 8.39797 23.1781 8.64959 22.6313 9.67543C23.8943 10.6867 22.8733 11.6835 22.8733 11.6787C22.8587 11.669 23.5459 12.4916 22.9265 13.4352C23.1152 14.9353 22.3555 15.3175 22.3555 15.3175C22.3555 15.3175 22.5491 16.2853 21.7071 16.5611C21.6877 17.6982 20.6135 17.8386 20.6135 17.8386C20.6135 17.8386 20.9038 18.3321 19.8345 18.8547C19.7909 19.6193 18.678 19.6773 18.678 19.6773C18.678 19.6773 18.5715 21.0806 17.1537 20.7032C16.815 21.8258 15.1553 21.4919 15.1214 21.4774C15.0875 21.4629 14.8021 19.0676 14.8021 19.058L14.7972 19.0531Z" fill="white" stroke="black" stroke-width="0.0919381"/>
<path fill-rule="evenodd" clip-rule="evenodd" d="M4.51467 5.62048C4.51467 5.62048 4.87275 5.93017 4.805 6.3947C4.73726 6.85923 4.47112 7.5028 4.52435 7.98184C4.55822 8.1754 4.5437 8.51895 4.5437 8.51895C4.5437 8.51895 4.22434 8.0641 4.2195 7.57538C4.21466 7.08666 4.5679 6.62213 4.5679 6.25921C4.5679 5.8963 4.50499 5.61565 4.51467 5.62048ZM4.33563 5.76081C4.33563 5.76081 3.8711 6.20598 3.81304 6.63664C3.76465 6.85923 3.75013 7.89474 3.74529 8.35927L3.66303 9.2593C3.64852 9.46253 4.00175 8.9109 4.02595 8.46573C4.00651 7.93808 4.01782 7.40975 4.05982 6.88342C4.10337 6.68987 4.09369 6.4818 4.1566 6.29308L4.33563 5.76081Z" fill="#217900" stroke="black" stroke-width="0.0919381" stroke-linejoin="round"/>
<path fill-rule="evenodd" clip-rule="evenodd" d="M14.5797 4.30864C14.5797 4.30864 15.1842 4.02812 15.3535 3.51062C15.5228 2.99311 14.8312 2.98827 14.7393 3.15272C14.6474 3.31716 14.8167 3.72826 14.7731 3.83466C14.7296 3.9459 14.4829 4.20707 14.5797 4.30864Z" fill="#FFD200" stroke="#EF8A10" stroke-width="0.0919381"/>
<path fill-rule="evenodd" clip-rule="evenodd" d="M9.22801 4.49793C9.22801 4.49793 9.61996 3.96082 9.51834 3.42371C9.41673 2.8866 8.80703 3.22048 8.80703 3.40919C8.80703 3.59791 9.15543 3.87372 9.16995 3.98985C9.18446 4.10599 9.09736 4.45438 9.22801 4.49793ZM8.1683 4.8173C8.1683 4.8173 8.56025 4.28018 8.45863 3.74307C8.35702 3.20596 7.74732 3.53984 7.74732 3.72856C7.74732 3.91727 8.09572 4.19308 8.11024 4.30922C8.12475 4.42535 8.03765 4.77375 8.1683 4.8173ZM6.99246 5.18021C6.99246 5.18021 7.38441 4.6431 7.28279 4.10599C7.18118 3.56887 6.57148 3.90275 6.57148 4.09147C6.57148 4.28018 6.91988 4.556 6.9344 4.67213C6.94891 4.78826 6.86181 5.13666 6.99246 5.18021ZM6.16986 6.00281C6.16986 6.00281 6.55697 5.47054 6.46019 4.93343C6.35374 4.39632 5.74404 4.7302 5.74404 4.91891C5.74404 5.10763 6.09244 5.38344 6.10695 5.49957C6.12147 5.61571 6.03437 5.9641 6.16502 6.00765L6.16986 6.00281ZM5.29887 6.80606C5.29887 6.80606 5.68597 6.26895 5.5892 5.73184C5.48274 5.19473 4.87305 5.52861 4.87305 5.71732C4.87305 5.90604 5.22144 6.18185 5.23596 6.29798C5.25048 6.41412 5.16338 6.76251 5.29403 6.80606H5.29887Z" fill="#FFD200" stroke="#EF8A10" stroke-width="0.12581"/>
<path fill-rule="evenodd" clip-rule="evenodd" d="M7.2971 2.1559C7.2971 2.1559 6.77451 2.56721 6.73096 3.10916C6.68257 3.65595 7.36001 3.49626 7.4084 3.31723C7.45679 3.13819 7.20033 2.77528 7.21484 2.65914C7.2342 2.54301 7.4084 2.23333 7.2971 2.1559ZM9.03909 1.61879C9.03909 1.61879 8.51649 2.03009 8.46811 2.57204C8.41972 3.11883 9.09716 2.95915 9.15038 2.78012C9.20361 2.60108 8.94231 2.23816 8.95683 2.12203C8.97618 2.0059 9.15038 1.69621 9.03909 1.61879ZM2.55019 6.31731C2.55019 6.31731 2.65665 6.9754 3.1115 7.27541C3.56635 7.57541 3.75507 6.91249 3.61958 6.777C3.48409 6.64152 3.04376 6.70442 2.95182 6.63184C2.85504 6.5641 2.67116 6.25441 2.55019 6.31731ZM1.6792 8.54318C1.6792 8.54318 1.68404 9.21095 2.08566 9.5787C2.48729 9.95129 2.77762 9.32224 2.66633 9.1674C2.55503 9.01255 2.10986 9.00287 2.0276 8.92061C1.94534 8.83352 1.80985 8.50447 1.6792 8.54318ZM3.68732 11.0304C3.68732 11.0304 3.44538 10.411 2.94214 10.2077C2.4389 9.99968 2.38567 10.6916 2.54535 10.7884C2.7002 10.8949 3.12602 10.7545 3.22763 10.8029C3.33409 10.8513 3.57603 11.1175 3.68732 11.0304ZM3.26634 9.95613C3.26634 9.95613 3.67281 9.42385 3.58087 8.89158C3.48893 8.34963 2.8744 8.67383 2.86956 8.86255C2.86472 9.05126 3.20828 9.33192 3.22279 9.44805C3.23731 9.56418 3.14053 9.91258 3.27118 9.95613H3.26634ZM15.8183 4.8463C15.8183 4.8463 16.4183 4.56565 16.5925 4.04789C16.7667 3.53014 16.0699 3.5253 15.978 3.68982C15.8861 3.85434 16.0554 4.26564 16.0119 4.3721C15.9683 4.48339 15.7215 4.74469 15.8183 4.8463ZM17.6426 5.75601C17.6426 5.75601 17.9958 5.1947 17.8603 4.66243C17.7248 4.13499 17.1345 4.50758 17.149 4.6963C17.1635 4.88501 17.5264 5.13663 17.5506 5.25277C17.5748 5.3689 17.5071 5.72214 17.6426 5.75601ZM22.6266 10.9287C22.6266 10.9287 22.3846 10.3094 21.8814 10.1013C21.3782 9.89322 21.3249 10.5852 21.4798 10.6916C21.6395 10.7884 22.0604 10.6481 22.1669 10.7013C22.2733 10.7497 22.5153 11.0158 22.6266 10.9287ZM20.1878 11.3158C20.1878 11.3158 20.2023 10.6481 20.6088 10.2852C21.0152 9.92226 21.2959 10.5513 21.1846 10.7013C21.0685 10.8513 20.6233 10.861 20.541 10.9433C20.4588 11.0255 20.3184 11.3594 20.1878 11.3158ZM19.7959 4.26564C19.7959 4.26564 19.1765 4.02854 18.6829 4.26564C18.1894 4.50275 18.6732 5.01082 18.8571 4.9576C19.041 4.90437 19.2104 4.50275 19.3216 4.45436C19.4329 4.40597 19.7862 4.40597 19.7959 4.26564ZM18.3732 3.07529C18.3732 3.07529 17.7539 2.83818 17.2603 3.07529C16.7667 3.31239 17.2506 3.82047 17.4345 3.76724C17.6184 3.71401 17.7926 3.31239 17.899 3.264C18.0055 3.21561 18.3684 3.21561 18.3732 3.07529ZM16.2538 1.93816C16.2538 1.93816 15.7264 2.34462 15.6732 2.89141C15.6199 3.4382 16.3022 3.28336 16.3506 3.10432C16.4038 2.92044 16.1474 2.56237 16.1667 2.44623C16.1861 2.3301 16.3651 2.02042 16.2538 1.94299V1.93816ZM14.8699 1.61395C14.8699 1.61395 14.628 2.23333 14.8651 2.72689C15.1022 3.22045 15.6054 2.73657 15.557 2.55753C15.5086 2.37849 15.0973 2.19945 15.0538 2.08816C15.0102 1.97687 15.0054 1.62363 14.8699 1.61395ZM10.9504 3.99951C10.9504 3.99951 11.3811 3.49626 11.3182 2.94947C11.2553 2.40268 10.6214 2.69785 10.6069 2.88657C10.5924 3.07528 10.9214 3.37045 10.9311 3.49143C10.9311 3.60756 10.8246 3.94628 10.9504 3.99951Z" fill="#FFD200" stroke="#EF8A10" stroke-width="0.0919381"/>
<path fill-rule="evenodd" clip-rule="evenodd" d="M13.2875 5.08335C13.2875 5.08335 14.3182 5.1511 14.3714 5.74144C14.4246 6.33178 14.1246 6.68985 14.1246 6.68985C14.1246 6.68985 14.2553 7.96731 13.2439 8.3399C12.1649 8.47055 10.4713 8.36893 10.4713 8.36893C10.4713 8.36893 9.97771 8.49474 9.77448 7.46407C9.57125 6.43339 9.51318 5.70273 9.51318 5.70273C9.51318 5.70273 9.6148 5.1269 10.3406 5.09303C11.0665 5.05432 13.2826 5.09787 13.2923 5.08335H13.2875Z" fill="#8C8A8C" stroke="black" stroke-width="0.0919381"/>
<path d="M14.1196 6.68506C14.1196 6.68506 13.5634 7.37668 13.6214 7.65236" stroke="black" stroke-width="0.0919381" stroke-linecap="round"/>
<path fill-rule="evenodd" clip-rule="evenodd" d="M13.3747 8.30605C13.5102 8.42218 13.6409 8.54799 13.6699 8.97381L13.728 9.82545L14.4489 16.3095L15.0828 20.9984L15.1264 21.7242C15.1264 21.7242 14.9764 22.2565 14.5457 22.3048C14.2409 22.9484 12.5618 23.1371 12.3973 23.1274C12.2473 23.1226 11.7102 22.9 11.386 22.929C11.0617 22.9581 10.5004 23.171 10.2488 23.1371C9.9972 23.1032 9.42622 22.9049 9.32944 22.4936C8.62297 22.271 8.50684 21.7339 8.50684 21.7339L9.27138 16.3095L10.0117 9.44802C10.0117 9.44802 10.0988 8.53347 10.4666 8.39799C10.8488 8.36411 12.8231 8.4367 13.3747 8.30121V8.30605Z" fill="#8C8A8C" stroke="black" stroke-width="0.0919381"/>
<path d="M9.48423 17.6934L9.33423 22.4887M14.1489 18.3273L14.5699 22.2807" stroke="black" stroke-width="0.0919381"/>
<path d="M1.82429 15.1966L1.80493 15.2546M21.7507 15.0272L21.7652 15.0756" stroke="black" stroke-width="0.0483885"/>
<path d="M1.28713 8.72218C1.28713 8.72218 1.60649 9.15768 1.65972 9.4093C1.71295 9.66092 1.82424 10.1545 1.95973 10.3577C2.10005 10.5561 2.87911 11.6836 2.9275 12.1529C2.9275 12.4578 2.59846 12.9852 2.10489 12.9949C1.80005 12.9852 1.00647 12.782 0.972603 12.1045C0.938731 11.4271 1.21454 11.4077 1.24842 10.9916C1.28229 10.5755 1.28713 8.73186 1.28713 8.71735V8.72218Z" stroke="#6B18B5" stroke-width="0.0919381" stroke-linejoin="round"/>
<path d="M6.71148 2.77523C6.71148 2.77523 6.38244 2.79458 6.13082 2.93007C5.93726 3.05104 5.60822 3.2204 5.37596 3.5446C4.79046 3.99945 3.90495 4.21236 3.62913 4.59463C3.45977 4.85109 3.46945 5.4753 3.89043 5.7366C4.15657 5.89144 4.94046 6.12855 5.31789 5.56724C5.705 5.0011 5.47273 4.84141 5.65661 4.47366C5.97114 3.62686 6.70664 2.78006 6.71148 2.77039V2.77523ZM14.6327 1.94294C14.6327 1.94294 14.3907 1.72036 14.1149 1.6381C13.8923 1.58003 13.5246 1.60422 13.1423 1.56551C12.402 1.4639 11.6423 0.931624 11.1777 0.994529C10.8777 1.05743 10.4374 1.49777 10.539 1.97682C10.6116 2.27682 10.9455 2.88168 11.6181 2.76071C12.2858 2.64458 12.281 2.49457 12.6778 2.3736C13.6407 1.83165 14.623 1.9381 14.6327 1.9381V1.94294ZM22.491 9.57865C22.549 9.45284 22.4426 9.22057 22.3748 8.93992C22.3023 8.72217 22.2006 8.38345 21.9442 8.08344C21.6393 7.406 21.6926 6.47211 21.3925 6.11403C21.1796 5.88661 20.5699 5.74628 20.2167 6.08984C20.0038 6.31242 19.5877 7.01406 20.0425 7.52214C20.4974 8.03022 20.6958 7.83666 21.0103 8.1028C21.7603 8.60604 22.1232 9.48671 22.491 9.57865ZM22.2297 15.5208C22.3264 15.3756 22.5152 15.1095 22.491 14.882C22.4765 14.6981 22.5732 14.1562 22.5877 13.9143C22.6555 13.1788 23.12 12.5739 22.9894 11.9303C22.9168 11.6352 22.4764 11.2045 22.0022 11.3303C21.7071 11.4222 21.0538 11.7803 21.2038 12.4432C21.3538 13.111 21.5667 13.0965 21.7119 13.4884C22.1184 14.2917 21.8571 15.2449 22.2297 15.5208Z" stroke="#6B18B5" stroke-width="0.0483885" stroke-linejoin="round"/>
<path d="M16.7764 20.2338C16.7764 20.2338 16.6506 20.4757 17.1538 20.6838M17.7829 19.6628C17.7829 19.6628 18.3393 19.5273 18.7168 19.6628M19.4523 18.2499C19.4523 18.2595 19.3749 18.5015 19.82 18.8499M19.7716 17.6208C19.7716 17.6208 20.1007 17.8628 20.6523 17.8531M16.457 18.3273C16.457 18.3273 16.4764 18.966 16.1473 19.266M17.5603 17.3402C17.5603 17.3402 18.0974 17.4756 18.5426 17.2531M21.0249 16.4063C21.0249 16.4063 21.141 16.5708 21.7411 16.5417M18.6926 16.0288C18.7071 16.0385 19.3942 16.2611 19.8297 16.0579M20.062 13.3965C20.062 13.3965 20.091 13.3626 20.3039 14.1078M20.5943 11.3013C20.5943 11.3013 20.5652 11.6981 20.2459 11.8723M22.6314 9.68026C22.6314 9.68026 22.1669 10.0577 22.254 10.2125M20.3184 9.40928C20.3184 9.40928 20.5604 9.81575 20.1684 10.0964M19.1523 7.67214C19.1523 7.67214 19.5684 7.65278 19.7523 8.01086M18.3684 6.49146H18.6877M20.0233 5.0398C20.0233 5.05432 20.1104 5.13174 19.9458 5.29626M17.0571 5.08335C17.0571 5.08335 17.2796 5.43175 17.2409 5.85757M18.3393 3.90267C18.4361 3.893 18.7652 3.74783 18.7652 3.74783M16.9119 2.51876C16.9022 2.51876 16.7861 2.95426 16.999 3.1091M16.3748 4.50269C16.3748 4.96722 16.7425 4.85109 16.4909 5.29626M15.4748 4.11558C15.2605 4.26536 15.0655 4.44088 14.8941 4.63818M13.9892 3.87364C13.9892 3.87364 14.2312 4.11558 14.1731 4.44463M13.2828 3.68009C13.2828 3.68009 13.1569 4.04784 12.9924 4.14462M11.9956 3.58331C11.9859 3.60267 11.7924 4.01881 11.6569 4.09623M10.2391 3.59299C10.2488 3.59299 10.4327 3.9801 10.1907 4.26075M9.83265 1.59454C9.84233 1.60422 9.87136 1.89455 9.68749 2.14617M8.09067 2.25263C8.09067 2.2623 8.17293 2.58167 7.65517 2.68812M7.11806 5.19465C7.12774 5.214 7.61162 5.29142 7.61162 5.29142M5.91318 6.31242L6.49868 6.12855M4.97445 7.03825C4.9938 7.03825 5.38091 7.10599 5.47769 7.0576M4.70347 7.39632C4.70347 7.39632 4.82928 7.46407 4.72283 8.11247M2.81632 5.69305L3.05342 6.04145M2.02759 7.48342C2.02759 7.47375 2.25985 7.83182 2.56954 7.89956M3.85183 9.30283C3.86151 9.30283 4.22926 9.22057 4.28733 9.18186M3.68731 10.6142C3.69699 10.6142 3.67763 10.3722 3.97764 10.2077M3.29053 11.2142C3.29053 11.2239 3.57118 11.5723 3.76473 11.6206M3.12601 11.8771C3.15504 11.8674 3.45505 11.6061 3.80345 11.6255M3.02923 12.7771C3.02923 12.7771 3.03891 13.0771 3.92926 12.9997M3.11633 13.8368C3.11633 13.8272 3.37763 13.2368 3.9099 13.0142M3.83248 14.5917C3.83248 14.5917 3.9099 14.3401 4.35507 14.1659M4.32604 15.5837C4.32604 15.5837 4.64541 15.3224 4.76154 15.2836M4.72283 16.3579C4.72283 16.3579 4.91638 16.5611 5.40027 16.2127M2.3905 16.5176C2.44857 16.5079 3.1502 16.3434 3.39214 16.7111M2.66632 17.0982C2.66632 17.0982 3.4115 17.0014 3.50828 17.0789M5.32768 17.2531C5.32768 17.2531 5.23091 17.4563 6.15029 17.1176M6.46481 17.6208C6.30029 17.8966 6.50352 18.1192 6.29061 18.2499M3.67764 18.0079C3.70183 17.9837 4.01636 17.8773 3.96797 17.4369M3.95345 18.6708C3.99216 18.6612 4.50508 18.4386 4.61153 18.5547M4.95509 19.3241C4.95509 19.3241 5.02284 18.8692 5.168 18.8208M5.72447 20.0112C5.72447 20.0112 6.15029 20.0015 6.33416 19.866M6.54707 18.4724C6.55675 18.4821 6.94386 18.6854 7.76646 18.4821M6.85676 20.3209C6.85676 20.3209 6.97289 20.9064 6.96321 21.0467" stroke="black" stroke-width="0.0919381"/>
<path fill-rule="evenodd" clip-rule="evenodd" d="M21.6978 11.2514C21.6748 11.0672 21.5803 10.8919 21.4614 10.8132C21.318 10.7313 21.1928 10.7469 21.0859 10.8601C20.9255 11.0299 20.9327 11.1599 20.9557 11.3442C20.987 11.5461 21.0662 11.6953 21.1933 11.7917C21.3426 11.8728 21.4678 11.8572 21.5688 11.7447C21.7203 11.5761 21.731 11.4438 21.699 11.2606L21.6978 11.2514Z" fill="#DE2010" stroke="black" stroke-width="0.122014"/>
<path fill-rule="evenodd" clip-rule="evenodd" d="M21.6156 10.2691C21.5925 10.0849 21.498 9.90958 21.3792 9.83087C21.2357 9.74899 21.1106 9.76464 21.0036 9.87781C20.8432 10.0476 20.8504 10.1776 20.8734 10.3619C20.9047 10.5638 20.9839 10.713 21.111 10.8094C21.2604 10.8905 21.3856 10.8749 21.4865 10.7624C21.638 10.5938 21.6487 10.4615 21.6167 10.2783L21.6156 10.2691Z" fill="#DE2010" stroke="black" stroke-width="0.122014"/>
<path fill-rule="evenodd" clip-rule="evenodd" d="M21.4132 9.22497C21.3741 9.04345 21.2645 8.87713 21.1392 8.80917C20.9891 8.74021 20.8658 8.7668 20.7692 8.88893C20.6244 9.07212 20.643 9.20108 20.6821 9.38259C20.731 9.58099 20.823 9.72261 20.9581 9.80747C21.114 9.87515 21.2373 9.84857 21.328 9.72771C21.4641 9.54641 21.4631 9.41366 21.4152 9.23404L21.4132 9.22497Z" fill="#DE2010" stroke="black" stroke-width="0.122014"/>
<path fill-rule="evenodd" clip-rule="evenodd" d="M21.0513 8.13059C20.9672 7.96505 20.8188 7.83217 20.6804 7.79838C20.5177 7.76996 20.4052 7.8271 20.343 7.96982C20.2496 8.18388 20.3004 8.30384 20.3845 8.46938C20.4824 8.64876 20.6075 8.76225 20.7597 8.80987C20.9277 8.83557 21.0402 8.77843 21.0971 8.63844C21.1825 8.42845 21.1477 8.30032 21.0555 8.13887L21.0513 8.13059Z" fill="#DE2010" stroke="black" stroke-width="0.122014"/>
<path fill-rule="evenodd" clip-rule="evenodd" d="M20.6641 7.24991C20.58 7.08437 20.4316 6.95149 20.2932 6.9177C20.1305 6.88928 20.018 6.94643 19.9558 7.08914C19.8624 7.30321 19.9132 7.42317 19.9973 7.58871C20.0952 7.76808 20.2203 7.88158 20.3725 7.9292C20.5405 7.9549 20.653 7.89775 20.7099 7.75776C20.7953 7.54777 20.7605 7.41965 20.6683 7.25819L20.6641 7.24991Z" fill="#DE2010" stroke="black" stroke-width="0.122014"/>
<path fill-rule="evenodd" clip-rule="evenodd" d="M20.115 6.36766C20.0171 6.20984 19.858 6.08999 19.7172 6.06805C19.5527 6.05351 19.4455 6.11997 19.3955 6.26745C19.3206 6.48866 19.3814 6.60388 19.4793 6.7617C19.592 6.93214 19.7262 7.03464 19.8819 7.0692C20.0515 7.08058 20.1587 7.01411 20.2036 6.8698C20.2708 6.65334 20.2253 6.52862 20.1199 6.37555L20.115 6.36766Z" fill="#DE2010" stroke="black" stroke-width="0.122014"/>
<path fill-rule="evenodd" clip-rule="evenodd" d="M19.4999 5.51529C19.3872 5.36767 19.2173 5.26377 19.075 5.25554C18.9099 5.25697 18.8096 5.33349 18.7741 5.4851C18.7209 5.71252 18.7926 5.82132 18.9052 5.96895C19.0339 6.12769 19.1774 6.21673 19.3357 6.23608C19.5056 6.231 19.6059 6.15448 19.6366 6.00652C19.6826 5.78457 19.6253 5.66483 19.5055 5.52267L19.4999 5.51529Z" fill="#DE2010" stroke="black" stroke-width="0.122014"/>
<path fill-rule="evenodd" clip-rule="evenodd" d="M18.7684 4.72589C18.6356 4.59615 18.4524 4.51798 18.3104 4.53047C18.1472 4.55582 18.0591 4.64607 18.046 4.80122C18.0263 5.03395 18.113 5.13121 18.2458 5.26095C18.3961 5.39937 18.551 5.46667 18.7105 5.46286C18.8779 5.4332 18.966 5.34295 18.9749 5.1921C18.9883 4.96582 18.9142 4.85567 18.7751 4.73237L18.7684 4.72589Z" fill="#DE2010" stroke="black" stroke-width="0.122014"/>
<path fill-rule="evenodd" clip-rule="evenodd" d="M17.9438 3.99206C17.7996 3.87509 17.61 3.8141 17.4697 3.8396C17.3096 3.87986 17.2301 3.97783 17.2313 4.13353C17.2332 4.36707 17.3284 4.45595 17.4726 4.57292C17.6351 4.69692 17.7955 4.74969 17.9539 4.73123C18.1179 4.6863 18.1973 4.58833 18.1923 4.4373C18.1848 4.21075 18.1009 4.10788 17.951 3.99791L17.9438 3.99206Z" fill="#DE2010" stroke="black" stroke-width="0.122014"/>
<path fill-rule="evenodd" clip-rule="evenodd" d="M17.0688 3.40978C16.9072 3.31837 16.7101 3.28971 16.576 3.33813C16.4248 3.40442 16.3627 3.51423 16.3897 3.66756C16.4303 3.89756 16.539 3.96939 16.7006 4.0608C16.8814 4.15612 17.0484 4.18152 17.2015 4.13702C17.3557 4.0655 17.4178 3.95569 17.3878 3.80759C17.3428 3.58543 17.243 3.49791 17.0769 3.41435L17.0688 3.40978Z" fill="#DE2010" stroke="black" stroke-width="0.122014"/>
<path fill-rule="evenodd" clip-rule="evenodd" d="M16.0896 2.89533C15.9203 2.81901 15.7214 2.80841 15.5923 2.86883C15.4477 2.94861 15.3959 3.06362 15.4367 3.21385C15.4981 3.4392 15.6129 3.50084 15.7822 3.57715C15.9708 3.65563 16.1394 3.66573 16.2879 3.60747C16.4349 3.52221 16.4868 3.4072 16.4434 3.26245C16.3784 3.04531 16.271 2.96724 16.098 2.89914L16.0896 2.89533Z" fill="#DE2010" stroke="black" stroke-width="0.122014"/>
<path fill-rule="evenodd" clip-rule="evenodd" d="M15.1323 2.50667C14.9583 2.44187 14.7592 2.44463 14.6344 2.51356C14.4955 2.60286 14.4515 2.72108 14.5023 2.86824C14.5787 3.08897 14.6973 3.14277 14.8713 3.20757C15.0648 3.27321 15.2337 3.27199 15.3779 3.20391C15.519 3.10898 15.563 2.99076 15.51 2.84924C15.4306 2.63695 15.3182 2.56626 15.141 2.50991L15.1323 2.50667Z" fill="#DE2010" stroke="black" stroke-width="0.122014"/>
<path fill-rule="evenodd" clip-rule="evenodd" d="M14.1593 2.20003C13.9809 2.1487 13.7825 2.16665 13.6634 2.24491C13.5317 2.34455 13.4968 2.46579 13.5587 2.60863C13.6517 2.82289 13.7741 2.86748 13.9526 2.91881C14.1505 2.9695 14.3188 2.9554 14.4574 2.8765C14.5908 2.77109 14.6257 2.64985 14.562 2.51278C14.4666 2.30718 14.3492 2.24527 14.1682 2.2026L14.1593 2.20003Z" fill="#DE2010" stroke="black" stroke-width="0.122014"/>
<path fill-rule="evenodd" clip-rule="evenodd" d="M13.0841 2.01845C12.8999 1.99522 12.7067 2.04351 12.601 2.13917C12.4862 2.2579 12.4704 2.38307 12.5537 2.51466C12.6785 2.71206 12.8063 2.73726 12.9905 2.7605C13.1939 2.78009 13.3581 2.74024 13.4829 2.64094C13.5984 2.51625 13.6142 2.39108 13.5302 2.26545C13.4043 2.07699 13.2787 2.03391 13.0933 2.01961L13.0841 2.01845Z" fill="#DE2010" stroke="black" stroke-width="0.122014"/>
<path fill-rule="evenodd" clip-rule="evenodd" d="M12.0266 1.96136C11.841 1.95391 11.6526 2.01849 11.5555 2.12281C11.4512 2.25089 11.4462 2.37695 11.5403 2.50097C11.6815 2.68701 11.811 2.70123 11.9965 2.70868C12.2009 2.71087 12.361 2.65718 12.4769 2.5476C12.5814 2.41351 12.5864 2.28746 12.4921 2.16944C12.3505 1.9924 12.2217 1.96018 12.0358 1.96173L12.0266 1.96136Z" fill="#DE2010" stroke="black" stroke-width="0.122014"/>
<path fill-rule="evenodd" clip-rule="evenodd" d="M11.0539 1.99041C10.8684 1.98296 10.6799 2.04754 10.5828 2.15186C10.4786 2.27994 10.4735 2.406 10.5676 2.53002C10.7088 2.71606 10.8384 2.73028 11.0239 2.73773C11.2282 2.73992 11.3883 2.68623 11.5042 2.57665C11.6087 2.44257 11.6138 2.31651 11.5194 2.19849C11.3779 2.02146 11.2491 1.98923 11.0632 1.99078L11.0539 1.99041Z" fill="#DE2010" stroke="black" stroke-width="0.122014"/>
<path fill-rule="evenodd" clip-rule="evenodd" d="M9.92077 2.13039C9.73976 2.17176 9.57481 2.28342 9.5084 2.40952C9.44131 2.56043 9.46942 2.68341 9.59274 2.77847C9.77771 2.92105 9.90643 2.90088 10.0874 2.8595C10.2852 2.80813 10.4257 2.71439 10.5089 2.5783C10.5746 2.42153 10.5465 2.29855 10.4245 2.20935C10.2416 2.07554 10.1088 2.07815 9.92982 2.12832L9.92077 2.13039Z" fill="#DE2010" stroke="black" stroke-width="0.122014"/>
<path fill-rule="evenodd" clip-rule="evenodd" d="M8.88517 2.38766C8.70818 2.44383 8.553 2.56871 8.49722 2.69986C8.4428 2.85578 8.48096 2.97603 8.6117 3.06059C8.8078 3.18744 8.93442 3.15671 9.1114 3.10054C9.30427 3.03303 9.43654 2.92803 9.5082 2.78554C9.5608 2.62388 9.52264 2.50364 9.39372 2.4248C9.20034 2.30655 9.06828 2.3201 8.89402 2.38485L8.88517 2.38766Z" fill="#DE2010" stroke="black" stroke-width="0.122014"/>
<path fill-rule="evenodd" clip-rule="evenodd" d="M7.94239 2.79562C7.77335 2.87247 7.63415 3.01495 7.59438 3.15181C7.55893 3.3131 7.61114 3.42795 7.75102 3.49634C7.96083 3.59892 8.08288 3.55333 8.25192 3.47648C8.43537 3.38648 8.55419 3.26647 8.60837 3.11646C8.64134 2.94969 8.58913 2.83485 8.45174 2.77193C8.24565 2.67755 8.11614 2.70673 7.95084 2.79178L7.94239 2.79562Z" fill="#DE2010" stroke="black" stroke-width="0.122014"/>
<path fill-rule="evenodd" clip-rule="evenodd" d="M7.00086 3.2774C6.839 3.36839 6.71246 3.52222 6.68452 3.66197C6.66295 3.82571 6.72477 3.93568 6.86997 3.99189C7.08777 4.0762 7.20549 4.02036 7.36735 3.92937C7.54245 3.82405 7.6506 3.69434 7.69178 3.54025C7.7104 3.37128 7.64859 3.26131 7.50633 3.21034C7.29295 3.13388 7.1664 3.17401 7.00895 3.27285L7.00086 3.2774Z" fill="#DE2010" stroke="black" stroke-width="0.122013"/>
<path fill-rule="evenodd" clip-rule="evenodd" d="M6.1119 3.88028C5.96089 3.98832 5.85182 4.15499 5.83922 4.29695C5.83558 4.46206 5.90898 4.56466 6.05943 4.60476C6.28511 4.66491 6.39606 4.59661 6.54708 4.48857C6.7097 4.36484 6.80311 4.22415 6.82731 4.0665C6.82745 3.8965 6.75405 3.7939 6.6071 3.75869C6.38667 3.70588 6.26523 3.75952 6.11945 3.87488L6.1119 3.88028Z" fill="#DE2010" stroke="black" stroke-width="0.122014"/>
<path fill-rule="evenodd" clip-rule="evenodd" d="M5.2866 4.50348C5.14526 4.62391 5.05069 4.79921 5.05015 4.94172C5.06049 5.10655 5.14231 5.20257 5.29562 5.22979C5.52557 5.27062 5.63035 5.19318 5.77168 5.07275C5.92325 4.93571 6.00442 4.78762 6.01519 4.62849C6.00095 4.45909 5.91913 4.36307 5.76973 4.34042C5.54562 4.30645 5.42915 4.37017 5.29366 4.49746L5.2866 4.50348Z" fill="#DE2010" stroke="black" stroke-width="0.122013"/>
<path fill-rule="evenodd" clip-rule="evenodd" d="M4.56004 5.26483C4.42771 5.39509 4.34594 5.57672 4.35563 5.71891C4.37776 5.88257 4.46626 5.97247 4.62112 5.98863C4.85341 6.01287 4.95236 5.92812 5.0847 5.79787C5.22605 5.65031 5.29639 5.49678 5.29573 5.33728C5.26938 5.16934 5.18089 5.07943 5.03024 5.06755C4.80427 5.04974 4.69267 5.12165 4.56666 5.25832L4.56004 5.26483Z" fill="#DE2010" stroke="black" stroke-width="0.122014"/>
<path fill-rule="evenodd" clip-rule="evenodd" d="M3.93621 6.11087C3.81524 6.25175 3.74897 6.43958 3.77052 6.58046C3.80627 6.7417 3.90198 6.82388 4.05765 6.82702C4.29116 6.83173 4.38267 6.73899 4.50364 6.59812C4.63214 6.43924 4.68939 6.28037 4.67537 6.12148C4.63506 5.95634 4.53935 5.87415 4.38824 5.87492C4.16157 5.87608 4.05638 5.95708 3.94225 6.10383L3.93621 6.11087Z" fill="#DE2010" stroke="black" stroke-width="0.122014"/>
<path fill-rule="evenodd" clip-rule="evenodd" d="M3.36584 6.97319C3.26059 7.12616 3.21472 7.31999 3.25118 7.45777C3.30392 7.61427 3.40785 7.68578 3.56296 7.6723C3.79564 7.65209 3.87674 7.55012 3.982 7.39715C4.09283 7.22548 4.1328 7.0614 4.10193 6.90492C4.04423 6.74501 3.9403 6.6735 3.79014 6.69038C3.56489 6.71571 3.46894 6.80746 3.3711 6.96554L3.36584 6.97319Z" fill="#DE2010" stroke="black" stroke-width="0.122014"/>
<path fill-rule="evenodd" clip-rule="evenodd" d="M2.88843 7.95489C2.81102 8.12367 2.79913 8.3225 2.85871 8.45197C2.93755 8.59709 3.05222 8.64968 3.20271 8.60976C3.42845 8.54988 3.49083 8.43549 3.56825 8.26671C3.64794 8.07855 3.65914 7.91005 3.60184 7.7612C3.51754 7.61358 3.40287 7.56098 3.25784 7.60341C3.04028 7.66705 2.96152 7.77392 2.8923 7.94646L2.88843 7.95489Z" fill="#DE2010" stroke="black" stroke-width="0.122014"/>
<path fill-rule="evenodd" clip-rule="evenodd" d="M2.50687 8.98123C2.44508 9.15633 2.45127 9.35542 2.52234 9.47895C2.61401 9.61632 2.73298 9.6583 2.87923 9.6049C3.09861 9.5248 3.15037 9.40523 3.21216 9.23013C3.27447 9.03552 3.27034 8.8667 3.19978 8.72365C3.10245 8.58428 2.98348 8.5423 2.84289 8.5977C2.63201 8.68081 2.56326 8.79438 2.50996 8.97248L2.50687 8.98123Z" fill="#DE2010" stroke="black" stroke-width="0.122013"/>
<path fill-rule="evenodd" clip-rule="evenodd" d="M2.18294 10.9167C2.16579 11.0649 2.22042 11.2184 2.31952 11.3005C2.44197 11.3894 2.56758 11.3987 2.69637 11.3286C2.88954 11.2233 2.91052 11.1202 2.92767 10.972C2.94055 10.8085 2.89531 10.6781 2.79195 10.5807C2.66351 10.4915 2.5379 10.4821 2.4151 10.5527C2.2309 10.6586 2.19198 10.7604 2.1838 10.9092L2.18294 10.9167Z" fill="#DE2010" stroke="black" stroke-width="0.109291"/>
<path fill-rule="evenodd" clip-rule="evenodd" d="M2.26839 10.0137C2.22712 10.1947 2.25614 10.3918 2.34094 10.5063C2.44779 10.6322 2.57078 10.6603 2.70994 10.5904C2.91866 10.4856 2.95634 10.3609 2.9976 10.1799C3.03714 9.9794 3.01364 9.81217 2.92712 9.67817C2.81441 9.55091 2.69141 9.52287 2.55812 9.59406C2.35818 9.70084 2.30293 9.82156 2.27045 10.0046L2.26839 10.0137Z" fill="#DE2010" stroke="black" stroke-width="0.122014"/>
<path fill-rule="evenodd" clip-rule="evenodd" d="M20.9233 9.54966C21.033 9.42063 21.1555 9.3803 21.291 9.42869C21.2426 9.08997 21.1362 8.97868 21.0007 9.01739C20.8749 9.0561 20.8168 9.2303 20.9184 9.54966H20.9233ZM21.1023 10.5658C21.233 10.4448 21.3443 10.4207 21.4797 10.469C21.4556 10.1303 21.3588 10.0094 21.2281 10.0432C21.0975 10.0771 21.0249 10.2368 21.1023 10.561V10.5658ZM20.6668 8.61576C20.7539 8.46092 20.8507 8.39802 21.0007 8.40769C20.8652 8.09801 20.7346 8.01091 20.6184 8.08349C20.5023 8.15607 20.4878 8.33995 20.6668 8.61576ZM20.2168 7.69638C20.2942 7.54154 20.4039 7.47057 20.5459 7.48347C20.4152 7.16895 20.2797 7.08669 20.1636 7.15927C20.0523 7.23185 20.0378 7.41573 20.2168 7.69154V7.69638ZM19.1329 5.99311C19.1877 5.83181 19.2845 5.74471 19.4232 5.73181C19.2442 5.44148 19.099 5.38341 18.9974 5.47535C18.8958 5.56729 18.9103 5.74633 19.1329 5.99311ZM18.4216 5.25276C18.4668 5.09147 18.5619 5.00276 18.7071 4.98663C18.5135 4.70597 18.3684 4.64791 18.2716 4.74468C18.17 4.83662 18.1893 5.01566 18.4216 5.25276ZM16.9312 3.99466C16.9248 3.82369 16.9861 3.71078 17.1151 3.65594C16.849 3.44303 16.6893 3.43819 16.6264 3.55917C16.5586 3.6753 16.6409 3.83982 16.9312 3.99466ZM17.7054 4.57532C17.7345 4.40113 17.8022 4.30919 17.9474 4.27048C17.72 4.01886 17.5651 3.98498 17.4829 4.09144C17.3958 4.19789 17.4441 4.37209 17.7103 4.57532H17.7054ZM16.0457 3.50594C16.0231 3.33819 16.0715 3.21883 16.1909 3.14786C15.9006 2.96883 15.7505 2.97367 15.6973 3.09948C15.6441 3.22529 15.7409 3.38497 16.0457 3.50594ZM15.1409 3.11399C15.0925 2.94463 15.1215 2.83334 15.2376 2.73656C14.9231 2.60107 14.7731 2.63495 14.7392 2.76559C14.7054 2.89624 14.8215 3.03657 15.1409 3.11399ZM14.1682 2.81398C14.1053 2.64946 14.1247 2.53333 14.2312 2.42688C13.9069 2.32042 13.7569 2.36397 13.7328 2.49946C13.7086 2.63495 13.8392 2.76559 14.1682 2.81398ZM13.2102 2.63011C13.136 2.47849 13.1472 2.34945 13.244 2.243C12.915 2.1559 12.7698 2.20913 12.7553 2.34461C12.7408 2.4801 12.8763 2.60107 13.2102 2.62527V2.63011ZM12.194 2.55269C12.1037 2.40429 12.1037 2.27526 12.194 2.16558C11.8553 2.11235 11.7101 2.18009 11.7101 2.31558C11.7149 2.45107 11.865 2.55752 12.194 2.55269ZM10.2101 2.69785C10.0891 2.57204 10.0552 2.46075 10.1133 2.32526C9.77457 2.35429 9.6536 2.45591 9.68747 2.58656C9.72134 2.71721 9.8907 2.78979 10.2101 2.69785ZM11.1875 2.57204C11.0811 2.42688 11.0665 2.31558 11.1391 2.18493C10.8004 2.17042 10.6649 2.25268 10.6843 2.38816C10.6988 2.52365 10.8585 2.61559 11.1875 2.57204ZM9.25197 2.91076C9.10681 2.79947 9.06326 2.69301 9.09713 2.54785C8.76809 2.63011 8.66164 2.74624 8.71486 2.87205C8.76809 2.99786 8.94713 3.04141 9.24714 2.90592L9.25197 2.91076ZM7.41321 3.75272C7.26159 3.6753 7.18901 3.56723 7.19546 3.42852C6.88578 3.57368 6.80836 3.70433 6.88094 3.81562C6.95836 3.93176 7.14224 3.94143 7.41321 3.75272ZM8.29872 3.29787C8.15678 3.20754 8.09872 3.09302 8.12452 2.95431C7.80032 3.05593 7.70354 3.18174 7.76645 3.30271C7.82935 3.42368 8.00839 3.45271 8.29872 3.30271V3.29787ZM5.768 4.89469C5.60348 4.8592 5.50993 4.77049 5.48735 4.62855C5.21637 4.83178 5.16315 4.98179 5.25992 5.07373C5.3567 5.1705 5.54058 5.13663 5.768 4.89953V4.89469ZM6.5519 4.2608C6.3906 4.20918 6.30512 4.11241 6.29544 3.97047C6.00511 4.14951 5.94704 4.29467 6.03414 4.39629C6.12608 4.4979 6.30512 4.48339 6.5519 4.2608ZM5.06637 5.5818C4.90185 5.556 4.80185 5.47535 4.76636 5.33986C4.5099 5.56245 4.47603 5.71729 4.58249 5.79955C4.6841 5.88665 4.86314 5.8431 5.06637 5.5818ZM4.44216 6.39473C4.27441 6.38505 4.16635 6.31247 4.11796 6.17698C3.88569 6.4286 3.86634 6.58345 3.97763 6.66087C4.08892 6.73829 4.26312 6.67055 4.44216 6.39473ZM3.91956 7.22701C3.75182 7.24637 3.63407 7.19153 3.56633 7.06249C3.37277 7.34799 3.37277 7.50283 3.49858 7.56089C3.62439 7.61896 3.78408 7.53186 3.91956 7.22701ZM3.45987 8.11736C3.28567 8.15123 3.17438 8.11736 3.08728 8.00123C2.93728 8.30124 2.95663 8.45608 3.08728 8.49963C3.21793 8.53834 3.3631 8.43189 3.45987 8.11252V8.11736ZM3.09212 9.02707C2.93405 9.09158 2.80502 9.07223 2.70501 8.969C2.60824 9.2932 2.65179 9.44321 2.78243 9.46256C2.91308 9.48192 3.04857 9.35127 3.09212 9.02707ZM2.84534 10.0432C2.69372 10.1142 2.56469 10.1029 2.45823 10.0094C2.37597 10.3384 2.43404 10.4836 2.56952 10.4932C2.70501 10.5078 2.82598 10.3674 2.84534 10.0384V10.0432ZM2.74856 10.8852C2.60017 10.9626 2.47113 10.9723 2.36145 10.9142C2.31307 11.1804 2.38565 11.2868 2.52114 11.2771C2.65662 11.2675 2.76308 11.1465 2.74372 10.8852H2.74856ZM19.8152 6.86894C19.87 6.70764 19.9668 6.62216 20.1055 6.61248C19.9313 6.32215 19.7862 6.25924 19.6845 6.34634C19.5829 6.43828 19.5974 6.61732 19.8152 6.86894ZM21.2136 11.5917C21.3443 11.4755 21.4556 11.4465 21.591 11.5046C21.5668 11.1658 21.4701 11.04 21.3394 11.0691C21.2039 11.1029 21.1362 11.2723 21.2136 11.5917Z" fill="#FFE300"/>
<path fill-rule="evenodd" clip-rule="evenodd" d="M19.8828 6.06568C19.878 6.06568 19.4957 6.44311 19.5635 6.90764C19.6264 7.37217 19.9215 7.94316 19.8683 8.4222C19.8151 8.90125 19.7231 9.22061 19.7231 9.22061C19.7231 9.22061 20.1732 8.71253 20.178 8.22381C20.1828 7.73993 19.8731 7.09152 19.8731 6.73345C19.8731 6.37537 19.8877 6.05601 19.8828 6.06085V6.06568ZM20.5845 7.61412C20.5845 7.61412 20.2845 7.8367 20.3135 8.33994C20.3425 8.84318 20.8651 9.77224 20.8651 9.77224C20.8651 9.77224 21.2474 10.5561 21.2329 10.7594C21.2232 10.9626 21.3054 10.5658 21.2667 10.1158C21.228 9.67063 20.6522 8.6835 20.6522 8.6835C20.6522 8.6835 20.5312 8.48027 20.5409 8.14639C20.5554 7.80767 20.5893 7.61895 20.5845 7.61412Z" fill="#217900" stroke="black" stroke-width="0.0919381" stroke-linejoin="round"/>
<path fill-rule="evenodd" clip-rule="evenodd" d="M11.6326 1.36232C11.6326 1.25586 11.5116 1.16876 11.3665 1.16876C11.2213 1.16876 11.1052 1.25586 11.1052 1.36232C11.1052 1.46393 11.2213 1.55103 11.3665 1.55103C11.5116 1.55103 11.6278 1.46393 11.6278 1.35748L11.6326 1.36232ZM11.7439 1.79781C11.7439 1.70104 11.6181 1.61878 11.4729 1.61878C11.3229 1.61878 11.202 1.70104 11.202 1.80265C11.202 1.90427 11.3229 1.98169 11.4729 1.98169C11.6229 1.98169 11.7439 1.89943 11.7439 1.79781ZM12.0778 1.28006C12.0778 1.28006 11.7681 1.51232 11.8939 1.60426C12.0197 1.6962 12.3778 1.40103 12.3778 1.40103L12.0778 1.28006ZM21.1603 6.58343C21.1605 6.55215 21.1532 6.52128 21.1388 6.49347C21.1245 6.46566 21.1036 6.44174 21.0781 6.42375C21.0538 6.40711 21.0252 6.3982 20.9958 6.3982C20.9664 6.3982 20.9377 6.40711 20.9135 6.42375C20.8888 6.44227 20.8689 6.46642 20.8554 6.4942C20.842 6.52198 20.8353 6.55257 20.8361 6.58343C20.8359 6.61472 20.8433 6.64559 20.8576 6.6734C20.8719 6.70121 20.8928 6.72513 20.9184 6.74312C20.9421 6.75873 20.9698 6.76704 20.9982 6.76704C21.0266 6.76704 21.0543 6.75873 21.0781 6.74312C21.1036 6.72513 21.1245 6.70121 21.1388 6.6734C21.1532 6.64559 21.1605 6.61472 21.1603 6.58343ZM21.0393 6.1431C21.0393 6.03181 20.9668 5.94471 20.87 5.94471C20.7732 5.94471 20.7006 6.03181 20.7006 6.1431C20.7006 6.25439 20.778 6.34149 20.87 6.34149C20.9619 6.34149 21.0393 6.25439 21.0393 6.1431ZM21.1216 7.04312C21.1216 6.98506 21.0926 6.93667 21.0539 6.93667C21.0151 6.93667 20.991 6.98506 20.991 7.04312C20.991 7.10119 21.02 7.14474 21.0539 7.14474C21.0877 7.14474 21.1216 7.09635 21.1216 7.04312ZM21.3926 6.23988C21.3926 6.17213 21.3635 6.1189 21.3297 6.1189C21.2958 6.1189 21.2619 6.17213 21.2619 6.23988C21.2619 6.30762 21.291 6.35601 21.3297 6.35601C21.3684 6.34956 21.3894 6.31085 21.3926 6.23988ZM20.6522 6.3173C20.6522 6.26891 20.6232 6.22052 20.5845 6.22052C20.5458 6.22052 20.5167 6.26891 20.5167 6.3173C20.5167 6.36569 20.5458 6.41407 20.5845 6.41407C20.6264 6.40762 20.649 6.37536 20.6522 6.3173ZM20.7684 6.95603C20.7684 6.86893 20.7055 6.79634 20.628 6.79634C20.5506 6.79634 20.4877 6.86893 20.4877 6.95603C20.4877 7.04312 20.5506 7.10603 20.6329 7.10603C20.7151 7.10603 20.7684 7.03829 20.7684 6.95119V6.95603ZM20.4006 6.67537C20.4006 6.60279 20.3474 6.53988 20.2796 6.53988C20.2119 6.53988 20.1635 6.59795 20.1635 6.67537C20.1635 6.75279 20.2167 6.80602 20.2796 6.80602C20.3474 6.80602 20.4006 6.74796 20.4006 6.67537ZM20.3425 6.29794C20.3425 6.25601 20.3264 6.22375 20.2942 6.20117C20.2784 6.19076 20.2599 6.18521 20.2409 6.18521C20.222 6.18521 20.2035 6.19076 20.1877 6.20117C20.1709 6.21064 20.1573 6.22492 20.1487 6.24216C20.1401 6.2594 20.1368 6.27883 20.1393 6.29794C20.1393 6.33988 20.1554 6.37214 20.1877 6.39472C20.203 6.40414 20.2206 6.40913 20.2385 6.40913C20.2565 6.40913 20.274 6.40414 20.2893 6.39472C20.3061 6.38524 20.3197 6.37097 20.3283 6.35372C20.3369 6.33648 20.3402 6.31706 20.3377 6.29794H20.3425ZM22.0216 8.20929C21.8668 8.00606 21.6248 7.91896 21.4748 8.01573C21.3297 8.11251 21.3297 8.35445 21.4845 8.55768C21.6345 8.76092 21.8813 8.84318 22.0265 8.7464C22.1765 8.64962 22.1716 8.40768 22.0216 8.20929ZM22.4571 11.9158C22.4813 11.6691 22.3603 11.4513 22.1861 11.432C22.0071 11.4078 21.8377 11.5916 21.8087 11.8384C21.7797 12.0804 21.9007 12.303 22.0797 12.3223C22.2587 12.3417 22.4232 12.1626 22.4523 11.9158H22.4571ZM22.5442 14.0691C22.5926 13.8272 22.4958 13.6046 22.3216 13.5659C22.1426 13.5272 21.9636 13.6965 21.9103 13.9385C21.8571 14.1804 21.9587 14.4079 22.1378 14.4466C22.312 14.4804 22.4958 14.3159 22.5442 14.074V14.0691ZM22.9604 12.0513C22.9604 11.9546 22.8926 11.8771 22.8152 11.8771C22.7378 11.8771 22.67 11.9546 22.67 12.0513C22.67 12.1481 22.7329 12.2304 22.8152 12.2304C22.8975 12.2304 22.9604 12.1481 22.9604 12.0513ZM22.5974 12.4578L22.2974 12.7965C22.2974 12.7965 22.0119 12.8062 22.0265 12.8981C22.041 12.9901 22.4184 13.2707 22.4136 13.382C22.4087 13.4933 22.6652 13.353 22.6652 13.353L22.8684 12.7336C22.8684 12.7336 22.8587 12.3078 22.7475 12.3126C22.6362 12.3175 22.6071 12.4481 22.6023 12.4578H22.5974ZM2.72913 12.3223C2.72913 12.2838 2.71384 12.2469 2.68662 12.2197C2.65939 12.1924 2.62247 12.1771 2.58397 12.1771C2.54547 12.1771 2.50855 12.1924 2.48132 12.2197C2.4541 12.2469 2.4388 12.2838 2.4388 12.3223C2.4388 12.3608 2.4541 12.3977 2.48132 12.425C2.50855 12.4522 2.54547 12.4675 2.58397 12.4675C2.62247 12.4675 2.65939 12.4522 2.68662 12.425C2.71384 12.3977 2.72913 12.3608 2.72913 12.3223ZM2.86462 11.8868C2.86462 11.7997 2.79688 11.732 2.71946 11.732C2.64203 11.732 2.57429 11.7997 2.57429 11.882C2.57429 11.9642 2.64203 12.0368 2.71946 12.0368C2.79688 12.0368 2.86462 11.9691 2.86462 11.882V11.8868ZM1.68394 9.79159C1.63072 9.67062 1.51458 9.60288 1.43232 9.64643C1.34522 9.6803 1.32103 9.81095 1.37426 9.93192C1.43232 10.0529 1.54362 10.1206 1.62588 10.0771C1.71298 10.0432 1.73717 9.91256 1.68394 9.79159ZM2.03718 11.0981C1.9646 10.9384 1.80975 10.8513 1.69846 10.9045C1.58717 10.9578 1.54362 11.1174 1.6162 11.2723C1.68878 11.4271 1.84846 11.5142 1.9646 11.4658C2.08073 11.4174 2.10976 11.2529 2.03718 11.0932V11.0981ZM2.42429 12.0513C2.44364 11.8578 2.36622 11.6739 2.24041 11.6497C2.1146 11.6255 1.99847 11.761 1.97427 11.9546C1.95008 12.1481 2.0275 12.332 2.15331 12.3562C2.27428 12.3804 2.39525 12.2449 2.41945 12.0513H2.42429ZM1.80975 12.1868C1.88234 12.0078 1.85814 11.8142 1.74201 11.7513C1.62588 11.6884 1.48071 11.7949 1.40329 11.9739C1.32587 12.1529 1.3549 12.3513 1.46619 12.4094C1.57749 12.4675 1.73233 12.3707 1.80491 12.1917L1.80975 12.1868Z" fill="#6B18B5"/>
<path fill-rule="evenodd" clip-rule="evenodd" d="M1.52918 11.7755C1.52918 11.6836 1.45659 11.611 1.3695 11.611C1.2824 11.611 1.20981 11.6884 1.20981 11.7804C1.20981 11.8723 1.2824 11.9449 1.3695 11.9449C1.45659 11.9449 1.52918 11.8723 1.52918 11.7804V11.7755ZM1.40337 11.3642C1.4047 11.3444 1.40192 11.3244 1.39522 11.3057C1.38853 11.2869 1.37804 11.2698 1.36443 11.2553C1.35081 11.2407 1.33436 11.2292 1.31608 11.2213C1.29781 11.2134 1.27811 11.2093 1.2582 11.2094C1.17594 11.2094 1.11304 11.2771 1.11304 11.3642C1.11304 11.4513 1.17594 11.5142 1.2582 11.5142C1.34046 11.5142 1.40337 11.4465 1.40337 11.3642ZM1.53886 10.5658C1.53886 10.4206 1.47595 10.3093 1.39369 10.3093C1.32111 10.3093 1.2582 10.4255 1.2582 10.5658C1.2582 10.7061 1.32111 10.8223 1.39853 10.8223C1.47595 10.8223 1.53886 10.7061 1.53886 10.5658ZM1.96951 10.5029C1.98403 10.3626 1.94048 10.2416 1.86306 10.2319C1.78564 10.2222 1.70822 10.3287 1.68886 10.4642C1.6695 10.6094 1.71789 10.7255 1.79532 10.74C1.87274 10.7545 1.95016 10.6432 1.96951 10.5029ZM5.03251 4.3866C5.09057 4.19304 5.0325 3.98981 4.90186 3.94142C4.77121 3.89303 4.6212 4.01884 4.56314 4.21724C4.50507 4.41563 4.56314 4.61402 4.69379 4.66241C4.82443 4.7108 4.97444 4.58499 5.03251 4.3866ZM4.45184 5.27211C4.6212 5.12694 4.69379 4.92371 4.61152 4.82209C4.5341 4.72048 4.33087 4.75435 4.15667 4.89952C3.98247 5.04468 3.91473 5.24307 3.99699 5.34953C4.07441 5.4463 4.27764 5.41727 4.45184 5.27211ZM4.11312 4.77854C4.27764 4.65757 4.35507 4.48337 4.27281 4.39144C4.19054 4.2995 3.99215 4.33821 3.82279 4.45918C3.65343 4.58499 3.58085 4.75919 3.65827 4.84629C3.73569 4.93339 3.94376 4.90435 4.11312 4.77854ZM5.41961 3.91723C5.53575 3.83497 5.58413 3.714 5.53091 3.65109C5.47768 3.58819 5.33735 3.61238 5.22606 3.69948C5.11477 3.78658 5.06154 3.90271 5.11476 3.96562C5.16799 4.02852 5.30832 4.00917 5.41961 3.91723Z" fill="#6B18B5"/>
<path fill-rule="evenodd" clip-rule="evenodd" d="M4.73731 4.75436C4.81473 4.63339 4.81957 4.50274 4.74699 4.46403C4.67924 4.42532 4.55343 4.48823 4.48085 4.6092C4.40827 4.73017 4.39375 4.86082 4.46633 4.89953C4.53891 4.93824 4.65989 4.87533 4.73731 4.75436ZM5.72443 4.23661C5.8454 4.13499 5.89379 3.99466 5.83089 3.93176C5.76314 3.86885 5.61314 3.89789 5.49217 3.9995C5.3712 4.10112 5.32281 4.24145 5.38571 4.30919C5.44862 4.37209 5.59862 4.34306 5.72443 4.23661ZM3.9389 5.44148C4.05019 5.43664 4.13729 5.37858 4.13245 5.31567C4.12277 5.24793 4.02116 5.19954 3.90986 5.20922C3.79373 5.20922 3.70663 5.27212 3.71631 5.33503C3.72599 5.39793 3.82277 5.44632 3.9389 5.44148ZM6.09219 3.60272C6.16961 3.47691 6.17445 3.3511 6.10186 3.31239C6.03412 3.26884 5.90831 3.33658 5.83573 3.45755C5.76314 3.57852 5.75347 3.70433 5.82121 3.74788C5.89379 3.78659 6.01476 3.71885 6.09219 3.60272Z" fill="#6B18B5"/>
<path fill-rule="evenodd" clip-rule="evenodd" d="M19.0746 7.2505C19.0746 7.2505 19.4277 6.68946 19.2923 6.15745C19.1569 5.63027 18.5668 6.00268 18.5813 6.1913C18.5958 6.37993 18.9586 6.63142 18.9827 6.7475C19.0069 6.86358 18.9441 7.21664 19.0746 7.2505Z" fill="#FFD200" stroke="#EF8A10" stroke-width="0.0483885"/>
<path fill-rule="evenodd" clip-rule="evenodd" d="M12.2957 2.57674C12.2957 2.57674 13.5725 2.62511 13.5822 3.45215C13.5773 3.58273 13.5822 3.73266 13.5338 4.10508C13.6587 4.02185 13.7599 3.90776 13.8277 3.77387C13.8955 3.63997 13.9276 3.49083 13.9207 3.34091C13.9304 2.49936 12.7841 1.92865 12.2957 2.57674Z" fill="#217900" stroke="black" stroke-width="0.116132" stroke-linejoin="round"/>
<path fill-rule="evenodd" clip-rule="evenodd" d="M11.4827 2.53796C11.4827 2.53796 12.5128 2.32516 12.5225 3.1522C12.5322 3.97441 12.1936 4.10983 12.1936 4.10983C12.1936 4.10983 12.9868 3.94055 12.9868 3.10384C12.9917 2.26228 11.9712 1.88987 11.4827 2.53796Z" fill="#217900" stroke="black" stroke-width="0.116132" stroke-linejoin="round"/>
<path fill-rule="evenodd" clip-rule="evenodd" d="M14.986 20.4032C14.986 20.4032 19.8104 19.0435 21.262 13.1207C20.4152 19.1983 15.136 21.1242 15.136 21.1242L14.9812 20.4032H14.986Z" fill="#F7DF73" stroke="black" stroke-width="0.12581" stroke-linejoin="round"/>
<path fill-rule="evenodd" clip-rule="evenodd" d="M15.4795 20.7754C15.6294 20.7754 15.997 20.3643 16.2098 20.3208C16.4226 20.2772 16.4468 20.0596 16.2001 20.0499C15.9583 20.0451 15.7455 20.3256 15.7455 20.3256C15.7455 20.3256 15.5375 20.5094 15.315 20.5287C15.0974 20.5529 15.2376 20.8286 15.4795 20.7706V20.7754Z" fill="#8C1800"/>
<path fill-rule="evenodd" clip-rule="evenodd" d="M18.2616 18.6999C18.2616 18.6999 17.7586 18.99 17.8263 19.0626C17.8989 19.1303 18.3438 18.7869 18.3535 18.7772C18.3632 18.7724 18.5421 18.5499 18.2568 18.6999H18.2616Z" fill="#8C1800" stroke="#8C1800" stroke-width="0.12581"/>
<path fill-rule="evenodd" clip-rule="evenodd" d="M16.5102 20.0205C16.5102 20.0205 16.3603 19.9673 16.7423 19.8174C17.1244 19.6675 17.1051 19.4933 17.226 19.4256C17.3566 19.3531 17.6226 19.1645 17.6758 19.2757C17.729 19.3869 17.3953 19.6046 17.3179 19.6288C17.2405 19.6529 16.8536 20.006 16.7423 20.035C16.6359 20.0689 16.5537 20.0495 16.5102 20.0205Z" fill="#8C1800"/>
<path d="M19.0069 17.9644C18.678 18.332 18.678 18.3223 18.678 18.3223" stroke="#8C1800" stroke-width="0.150004" stroke-linecap="round"/>
<path d="M19.5004 17.3596L19.186 17.7465" stroke="#8C1800" stroke-width="0.140327" stroke-linecap="round"/>
<path d="M19.9939 16.5756L19.6409 17.1367" stroke="#8C1800" stroke-width="0.12581" stroke-linecap="round"/>
<path d="M20.4103 15.7722L20.1201 16.3526M20.5989 15.3466L20.5022 15.5545" stroke="#8C1800" stroke-width="0.116132" stroke-linecap="round"/>
<path d="M20.812 14.7901L20.7346 15.0319" stroke="#8C1800" stroke-width="0.0677439" stroke-linecap="round"/>
<path fill-rule="evenodd" clip-rule="evenodd" d="M8.65649 20.2826C8.65649 20.2826 3.87043 18.8925 2.43461 12.8596C3.27217 19.0533 8.50923 21.0107 8.50923 21.0107L8.65649 20.2826Z" fill="#F7DF73" stroke="black" stroke-width="0.124389" stroke-linejoin="round"/>
<path fill-rule="evenodd" clip-rule="evenodd" d="M8.16755 20.6545C8.02245 20.6545 7.65488 20.2385 7.44207 20.1901C7.2341 20.1418 7.21476 19.9241 7.45175 19.9193C7.69357 19.9096 7.90638 20.1998 7.90638 20.1998C7.90638 20.1998 8.11434 20.3836 8.33199 20.4078C8.54963 20.432 8.40937 20.7077 8.16755 20.6496V20.6545Z" fill="#8C1800"/>
<path fill-rule="evenodd" clip-rule="evenodd" d="M5.4168 18.5426C5.4168 18.5426 5.91357 18.8451 5.83997 18.9207C5.77558 18.9868 5.334 18.6371 5.3248 18.6277C5.3156 18.6182 5.14081 18.3914 5.4168 18.5426Z" fill="#8C1800" stroke="#8C1800" stroke-width="0.124389"/>
<path fill-rule="evenodd" clip-rule="evenodd" d="M7.1513 19.885C7.1513 19.885 7.29639 19.8318 6.91431 19.6771C6.53706 19.5271 6.55641 19.353 6.43066 19.2805C6.30491 19.2079 6.04374 19.0145 5.99537 19.1257C5.94701 19.2369 6.27105 19.4643 6.34844 19.4884C6.42582 19.5126 6.80791 19.8705 6.91431 19.9044C7.02394 19.9302 7.10293 19.9237 7.1513 19.885Z" fill="#8C1800"/>
<path d="M4.68046 17.7956L5.00244 18.1642" stroke="#8C1800" stroke-width="0.149267" stroke-linecap="round"/>
<path d="M4.18356 17.181L4.49634 17.5685" stroke="#8C1800" stroke-width="0.139938" stroke-linecap="round"/>
<path d="M3.69583 16.3772L4.04541 16.9537" stroke="#8C1800" stroke-width="0.130608" stroke-linecap="round"/>
<path d="M3.28154 15.5637L3.57593 16.1592M3.09755 15.129L3.18955 15.3369" stroke="#8C1800" stroke-width="0.121279" stroke-linecap="round"/>
<path d="M2.88571 14.5616L2.96851 14.8168" stroke="#8C1800" stroke-width="0.0746334" stroke-linecap="round"/>
<path fill-rule="evenodd" clip-rule="evenodd" d="M21.4991 12.0272C21.5233 12.3998 21.8862 12.753 21.7411 13.4062C21.562 14.1369 20.9185 15.8886 21.0346 16.1934C20.841 15.9321 20.8749 15.6902 20.8604 15.3224C20.8459 14.9547 21.3878 13.6095 21.4362 13.1498C21.4362 12.7385 21.4749 12.182 21.4991 12.0272Z" fill="#217900" stroke="black" stroke-width="0.116132" stroke-linejoin="round"/>
<path fill-rule="evenodd" clip-rule="evenodd" d="M21.4991 12.0368C21.4991 12.0368 22.0895 12.7868 22.0604 13.382C22.0266 13.9723 21.6975 14.6691 21.8088 14.9788C21.6153 14.7175 21.5669 14.5482 21.5524 14.1853C21.5378 13.8223 21.8427 13.4207 21.7846 13.0239C21.7266 12.6271 21.4943 12.0368 21.4943 12.0368H21.4991ZM2.07599 12.2013C2.0518 12.5739 1.77598 12.9078 1.91631 13.5562C2.10019 14.2869 2.74859 15.2208 2.64214 16.2902C2.82277 16.0181 2.91566 15.6972 2.90828 15.3708C2.92279 15.0079 2.18729 13.7836 2.1389 13.3239C2.1389 12.9126 2.10019 12.3562 2.07599 12.2013Z" fill="#217900" stroke="black" stroke-width="0.116132" stroke-linejoin="round"/>
<path fill-rule="evenodd" clip-rule="evenodd" d="M2.07605 12.211C2.07605 12.211 1.49539 12.9368 1.52926 13.532C1.53894 13.924 2.26476 15.5788 2.15831 15.8885C2.34702 15.6272 2.40025 15.6563 2.39057 15.2595C2.17766 14.2482 1.80023 13.5997 1.86314 13.2078C1.92604 12.8159 2.08573 12.211 2.07605 12.211Z" fill="#217900" stroke="black" stroke-width="0.116132" stroke-linejoin="round"/>
<path d="M11.9369 5.56042L13.3623 9.97958H18.0269L14.2693 12.714L15.7011 17.1332L11.9434 14.4052L8.18575 17.1332L9.61107 12.714L5.84692 9.97958H10.4987L11.9369 5.56042Z" fill="white" stroke="black" stroke-width="0.0971883" stroke-linecap="square" stroke-linejoin="round"/>
</g>
</g>
<defs>
<clipPath id="clip0_720_53467">
<rect width="24.0044" height="24.0044" fill="white" transform="translate(0.0217285 0.0656738)"/>
</clipPath>
</defs>
</svg>
