<svg width="25" height="25" viewBox="0 0 25 25" fill="none" xmlns="http://www.w3.org/2000/svg">
<g clip-path="url(#clip0_720_53320)">
<mask id="mask0_720_53320" style="mask-type:luminance" maskUnits="userSpaceOnUse" x="0" y="0" width="25" height="25">
<path d="M0.03125 0.0654907H24.0356V24.0699H0.03125V0.0654907Z" fill="white"/>
</mask>
<g mask="url(#mask0_720_53320)">
<path fill-rule="evenodd" clip-rule="evenodd" d="M-1.06177 -0.947144H24.9445V24.9794H-1.06177V-0.947144Z" fill="#EF2D29"/>
<path fill-rule="evenodd" clip-rule="evenodd" d="M7.74756 16.0668H25.3945V25.8045H7.74756V16.0668Z" fill="#009025"/>
<path fill-rule="evenodd" clip-rule="evenodd" d="M7.74756 -0.844055H25.3945V8.06382H7.74756V-0.844055Z" fill="white"/>
<path d="M6.47024 3.6427H5.41669C5.35861 3.6427 5.31152 3.68699 5.31152 3.74163V4.23872C5.31152 4.29335 5.35861 4.33764 5.41669 4.33764H6.47024C6.52832 4.33764 6.57541 4.29335 6.57541 4.23872V3.74163C6.57541 3.68699 6.52832 3.6427 6.47024 3.6427Z" fill="white" stroke="#EF2D28" stroke-width="0.0121117"/>
<path d="M6.44375 3.67212H5.44417C5.38911 3.67212 5.34448 3.71275 5.34448 3.76287V4.21908C5.34448 4.2692 5.38911 4.30983 5.44417 4.30983H6.44375C6.49881 4.30983 6.54344 4.2692 6.54344 4.21908V3.76287C6.54344 3.71275 6.49881 3.67212 6.44375 3.67212Z" fill="white" stroke="#EF2D28" stroke-width="0.0115349"/>
<path fill-rule="evenodd" clip-rule="evenodd" d="M5.90261 3.84497L5.96303 3.84736L5.96552 3.87511L6.01535 3.90047L6.05397 3.86841L6.10069 3.89377L6.05709 3.92152L6.06767 3.9598L6.12249 3.95741V4.00764L6.07889 4.00573L6.05646 4.03731L6.10629 4.07319L6.06767 4.10285L6.02594 4.07128L5.96552 4.08372L5.96864 4.13013L5.90261 4.13491L5.89389 4.08994L5.83908 4.06697L5.80856 4.09855L5.76184 4.0751L5.78925 4.03922L5.75624 4.01625H5.70952L5.70703 3.95071L5.75375 3.95501L5.78676 3.91674L5.74814 3.88707L5.79797 3.85358L5.83347 3.88085L5.89389 3.87224L5.90261 3.84497Z" fill="white" stroke="#EF2D28" stroke-width="0.00728226"/>
<path d="M5.91927 4.03921C5.956 4.03921 5.98576 4.01389 5.98576 3.98265C5.98576 3.95141 5.956 3.92609 5.91927 3.92609C5.88255 3.92609 5.85278 3.95141 5.85278 3.98265C5.85278 4.01389 5.88255 4.03921 5.91927 4.03921Z" fill="white" stroke="#EF2D28" stroke-width="0.00784212"/>
<path fill-rule="evenodd" clip-rule="evenodd" d="M5.50648 3.70074L5.40863 3.78741L5.50648 3.70074ZM5.57142 3.70074L5.47356 3.78741L5.57142 3.70074ZM5.63543 3.70074L5.53849 3.78741L5.63543 3.70074ZM5.70037 3.70074L5.60343 3.78741L5.70037 3.70074ZM5.7653 3.70074L5.66836 3.78741L5.7653 3.70074ZM5.83023 3.70074L5.73329 3.78741L5.83023 3.70074ZM5.89516 3.70074L5.79822 3.78741L5.89516 3.70074ZM5.96009 3.70074L5.86315 3.78741L5.96009 3.70074ZM6.02503 3.70074L5.92717 3.78741L6.02503 3.70074ZM6.08996 3.70074L5.99119 3.78741L6.08996 3.70074ZM6.15306 3.70074L6.05612 3.78741L6.15306 3.70074ZM6.21799 3.70074L6.12105 3.78741L6.21799 3.70074ZM5.95918 3.70074L5.86315 3.78741L5.95918 3.70074ZM6.28384 3.70074L6.1869 3.78741L6.28384 3.70074ZM6.34877 3.70074L6.25183 3.78741L6.34877 3.70074ZM6.4137 3.70074L6.31676 3.78741L6.4137 3.70074ZM6.47864 3.70074L6.38169 3.78741L6.47864 3.70074ZM6.38169 3.70074L6.47864 3.78741L6.38169 3.70074ZM6.31676 3.70074L6.4137 3.78741L6.31676 3.70074ZM6.25183 3.70074L6.34877 3.78741L6.25183 3.70074ZM6.1869 3.70074L6.28384 3.78741L6.1869 3.70074ZM6.12197 3.70074L6.21891 3.78741L6.12197 3.70074ZM6.05703 3.70074L6.15398 3.78741L6.05703 3.70074ZM5.9921 3.70074L6.08996 3.78741L5.9921 3.70074ZM5.92717 3.70074L6.02411 3.78741L5.92717 3.70074ZM5.86132 3.70074L5.95918 3.78741L5.86132 3.70074ZM5.79731 3.70074L5.89425 3.78741L5.79731 3.70074ZM5.73237 3.70074L5.82932 3.78741L5.73237 3.70074ZM5.66744 3.70074L5.76438 3.78741L5.66744 3.70074ZM5.92717 3.70074L6.02411 3.78741L5.92717 3.70074ZM5.60343 3.70074L5.69945 3.78741L5.60343 3.70074ZM5.53758 3.70074L5.63543 3.78741L5.53758 3.70074ZM5.47265 3.70074L5.5705 3.78741L5.47265 3.70074ZM5.40771 3.70074L5.50648 3.78741L5.40771 3.70074ZM5.50648 4.19293L5.40954 4.28041L5.50648 4.19293ZM5.5705 4.19293L5.47265 4.28041L5.5705 4.19293ZM5.63635 4.19293L5.53849 4.28041L5.63635 4.19293ZM5.70037 4.19293L5.60343 4.28041L5.70037 4.19293ZM5.7653 4.19293L5.66836 4.28041L5.7653 4.19293ZM5.83023 4.19293L5.73329 4.28041L5.83023 4.19293ZM5.89516 4.19293L5.79914 4.28041L5.89516 4.19293ZM5.96009 4.19293L5.86315 4.28041L5.96009 4.19293ZM6.02503 4.19293L5.92717 4.28041L6.02503 4.19293ZM6.08904 4.19293L5.99119 4.28041L6.08904 4.19293ZM6.1558 4.19293L6.05795 4.28041L6.1558 4.19293ZM6.21982 4.19293L6.12288 4.28041L6.21982 4.19293ZM5.96009 4.19293L5.86315 4.28041L5.96009 4.19293ZM6.28384 4.19293L6.1869 4.28041L6.28384 4.19293ZM6.34877 4.19293L6.25183 4.28041L6.34877 4.19293ZM6.4137 4.19293L6.31676 4.28041L6.4137 4.19293ZM6.47864 4.19293L6.38169 4.28041L6.47864 4.19293ZM6.38169 4.19293L6.47864 4.28041L6.38169 4.19293ZM6.31676 4.19293L6.4137 4.28041L6.31676 4.19293ZM6.25183 4.19293L6.34877 4.28041L6.25183 4.19293ZM6.1869 4.19293L6.28384 4.28041L6.1869 4.19293ZM6.12197 4.19293L6.21891 4.28041L6.12197 4.19293ZM6.05703 4.19293L6.15489 4.28041L6.05703 4.19293ZM5.99119 4.19293L6.08904 4.28041L5.99119 4.19293ZM5.92717 4.19293L6.02411 4.28041L5.92717 4.19293ZM5.86315 4.19293L5.96009 4.28041L5.86315 4.19293ZM5.79822 4.19293L5.89516 4.28041L5.79822 4.19293ZM5.73329 4.19293L5.83023 4.28041L5.73329 4.19293ZM5.66836 4.19293L5.7653 4.28041L5.66836 4.19293ZM5.92809 4.19293L6.02503 4.28041L5.92809 4.19293ZM5.60434 4.19293L5.70037 4.28041L5.60434 4.19293ZM5.53849 4.19293L5.63635 4.28041L5.53849 4.19293ZM5.47356 4.19293L5.57142 4.28041L5.47356 4.19293ZM5.40954 4.19293L5.50648 4.28041L5.40954 4.19293Z" fill="white"/>
<path d="M5.50648 3.70074L5.40863 3.78741M5.57142 3.70074L5.47356 3.78741M5.63543 3.70074L5.53849 3.78741M5.70037 3.70074L5.60343 3.78741M5.7653 3.70074L5.66836 3.78741M5.83023 3.70074L5.73329 3.78741M5.89516 3.70074L5.79822 3.78741M5.96009 3.70074L5.86315 3.78741L5.95918 3.70074M6.02503 3.70074L5.92717 3.78741M6.08996 3.70074L5.99119 3.78741M6.15306 3.70074L6.05612 3.78741M6.21799 3.70074L6.12105 3.78741M6.28384 3.70074L6.1869 3.78741M6.34877 3.70074L6.25183 3.78741M6.4137 3.70074L6.31676 3.78741M6.47864 3.70074L6.38169 3.78741M6.38169 3.70074L6.47864 3.78741M6.31676 3.70074L6.4137 3.78741M6.25183 3.70074L6.34877 3.78741M6.1869 3.70074L6.28384 3.78741M6.12197 3.70074L6.21891 3.78741M6.05703 3.70074L6.15398 3.78741M5.9921 3.70074L6.08996 3.78741M5.92717 3.70074L6.02411 3.78741M5.86132 3.70074L5.95918 3.78741M5.79731 3.70074L5.89425 3.78741M5.73237 3.70074L5.82932 3.78741M5.66744 3.70074L5.76438 3.78741M5.60343 3.70074L5.69945 3.78741M5.53758 3.70074L5.63543 3.78741M5.47265 3.70074L5.5705 3.78741M5.40771 3.70074L5.50648 3.78741M5.50648 4.19293L5.40954 4.28041M5.5705 4.19293L5.47265 4.28041M5.63635 4.19293L5.53849 4.28041M5.70037 4.19293L5.60343 4.28041M5.7653 4.19293L5.66836 4.28041M5.83023 4.19293L5.73329 4.28041M5.89516 4.19293L5.79914 4.28041M5.96009 4.19293L5.86315 4.28041M6.02503 4.19293L5.92717 4.28041M6.08904 4.19293L5.99119 4.28041M6.1558 4.19293L6.05795 4.28041M6.21982 4.19293L6.12288 4.28041M6.28384 4.19293L6.1869 4.28041M6.34877 4.19293L6.25183 4.28041M6.4137 4.19293L6.31676 4.28041M6.47864 4.19293L6.38169 4.28041M6.38169 4.19293L6.47864 4.28041M6.31676 4.19293L6.4137 4.28041M6.25183 4.19293L6.34877 4.28041M6.1869 4.19293L6.28384 4.28041M6.12197 4.19293L6.21891 4.28041M6.05703 4.19293L6.15489 4.28041M5.99119 4.19293L6.08904 4.28041M5.92717 4.19293L6.02411 4.28041M5.86315 4.19293L5.96009 4.28041M5.79822 4.19293L5.89516 4.28041M5.73329 4.19293L5.83023 4.28041M5.66836 4.19293L5.7653 4.28041M5.92809 4.19293L6.02503 4.28041M5.60434 4.19293L5.70037 4.28041M5.53849 4.19293L5.63635 4.28041M5.47356 4.19293L5.57142 4.28041M5.40954 4.19293L5.50648 4.28041" stroke="#EF2D28" stroke-width="0.0115349"/>
<path d="M2.22341 3.60986H1.16987C1.11178 3.60986 1.0647 3.65415 1.0647 3.70879V4.20588C1.0647 4.26051 1.11178 4.30481 1.16987 4.30481H2.22341C2.2815 4.30481 2.32858 4.26051 2.32858 4.20588V3.70879C2.32858 3.65415 2.2815 3.60986 2.22341 3.60986Z" fill="white" stroke="#EF2D28" stroke-width="0.0121117"/>
<path d="M2.19668 3.6394H1.1971C1.14204 3.6394 1.09741 3.68004 1.09741 3.73016V4.18637C1.09741 4.23649 1.14204 4.27712 1.1971 4.27712H2.19668C2.25174 4.27712 2.29637 4.23649 2.29637 4.18637V3.73016C2.29637 3.68004 2.25174 3.6394 2.19668 3.6394Z" fill="white" stroke="#EF2D28" stroke-width="0.0115349"/>
<path fill-rule="evenodd" clip-rule="evenodd" d="M1.65505 3.81207L1.71547 3.81446L1.71796 3.84221L1.76779 3.86757L1.80641 3.83552L1.85313 3.86087L1.80953 3.88862L1.82012 3.9269L1.87493 3.92451V3.97475L1.83133 3.97283L1.8089 4.00441L1.85873 4.04029L1.82012 4.06996L1.77838 4.03838L1.71796 4.05082L1.72108 4.09723L1.65505 4.10201L1.64633 4.05704L1.59152 4.03407L1.561 4.06565L1.51429 4.04221L1.54169 4.00632L1.50868 3.98336H1.46196L1.45947 3.91781L1.50619 3.92212L1.5392 3.88384L1.50058 3.85418L1.55041 3.82068L1.58592 3.84796L1.64633 3.83934L1.65505 3.81207Z" fill="white" stroke="#EF2D28" stroke-width="0.00728226"/>
<path d="M1.67172 4.00632C1.70844 4.00632 1.73821 3.98099 1.73821 3.94975C1.73821 3.91851 1.70844 3.89319 1.67172 3.89319C1.63499 3.89319 1.60522 3.91851 1.60522 3.94975C1.60522 3.98099 1.63499 4.00632 1.67172 4.00632Z" fill="white" stroke="#EF2D28" stroke-width="0.00784212"/>
<path fill-rule="evenodd" clip-rule="evenodd" d="M1.25917 3.66785L1.16131 3.75451L1.25917 3.66785ZM1.3241 3.66785L1.22625 3.75451L1.3241 3.66785ZM1.38812 3.66785L1.29118 3.75451L1.38812 3.66785ZM1.45305 3.66785L1.35611 3.75451L1.45305 3.66785ZM1.51798 3.66785L1.42104 3.75451L1.51798 3.66785ZM1.58292 3.66785L1.48597 3.75451L1.58292 3.66785ZM1.64785 3.66785L1.55091 3.75451L1.64785 3.66785ZM1.71278 3.66785L1.61584 3.75451L1.71278 3.66785ZM1.77771 3.66785L1.67986 3.75451L1.77771 3.66785ZM1.84264 3.66785L1.74387 3.75451L1.84264 3.66785ZM1.90575 3.66785L1.80881 3.75451L1.90575 3.66785ZM1.97068 3.66785L1.87374 3.75451L1.97068 3.66785ZM1.71187 3.66785L1.61584 3.75451L1.71187 3.66785ZM2.03652 3.66785L1.93958 3.75451L2.03652 3.66785ZM2.10146 3.66785L2.00452 3.75451L2.10146 3.66785ZM2.16639 3.66785L2.06945 3.75451L2.16639 3.66785ZM2.23132 3.66785L2.13438 3.75451L2.23132 3.66785ZM2.13438 3.66785L2.23132 3.75451L2.13438 3.66785ZM2.06945 3.66785L2.16639 3.75451L2.06945 3.66785ZM2.00452 3.66785L2.10146 3.75451L2.00452 3.66785ZM1.93958 3.66785L2.03652 3.75451L1.93958 3.66785ZM1.87465 3.66785L1.97159 3.75451L1.87465 3.66785ZM1.80972 3.66785L1.90666 3.75451L1.80972 3.66785ZM1.74479 3.66785L1.84264 3.75451L1.74479 3.66785ZM1.67986 3.66785L1.7768 3.75451L1.67986 3.66785ZM1.61401 3.66785L1.71187 3.75451L1.61401 3.66785ZM1.54999 3.66785L1.64693 3.75451L1.54999 3.66785ZM1.48506 3.66785L1.582 3.75451L1.48506 3.66785ZM1.42013 3.66785L1.51707 3.75451L1.42013 3.66785ZM1.67986 3.66785L1.7768 3.75451L1.67986 3.66785ZM1.35611 3.66785L1.45214 3.75451L1.35611 3.66785ZM1.29026 3.66785L1.38812 3.75451L1.29026 3.66785ZM1.22533 3.66785L1.32319 3.75451L1.22533 3.66785ZM1.1604 3.66785L1.25917 3.75451L1.1604 3.66785ZM1.25917 4.16003L1.16223 4.24751L1.25917 4.16003ZM1.32319 4.16003L1.22533 4.24751L1.32319 4.16003ZM1.38903 4.16003L1.29118 4.24751L1.38903 4.16003ZM1.45305 4.16003L1.35611 4.24751L1.45305 4.16003ZM1.51798 4.16003L1.42104 4.24751L1.51798 4.16003ZM1.58292 4.16003L1.48597 4.24751L1.58292 4.16003ZM1.64785 4.16003L1.55182 4.24751L1.64785 4.16003ZM1.71278 4.16003L1.61584 4.24751L1.71278 4.16003ZM1.77771 4.16003L1.67986 4.24751L1.77771 4.16003ZM1.84173 4.16003L1.74387 4.24751L1.84173 4.16003ZM1.90849 4.16003L1.81063 4.24751L1.90849 4.16003ZM1.97251 4.16003L1.87557 4.24751L1.97251 4.16003ZM1.71278 4.16003L1.61584 4.24751L1.71278 4.16003ZM2.03652 4.16003L1.93958 4.24751L2.03652 4.16003ZM2.10146 4.16003L2.00452 4.24751L2.10146 4.16003ZM2.16639 4.16003L2.06945 4.24751L2.16639 4.16003ZM2.23132 4.16003L2.13438 4.24751L2.23132 4.16003ZM2.13438 4.16003L2.23132 4.24751L2.13438 4.16003ZM2.06945 4.16003L2.16639 4.24751L2.06945 4.16003ZM2.00452 4.16003L2.10146 4.24751L2.00452 4.16003ZM1.93958 4.16003L2.03652 4.24751L1.93958 4.16003ZM1.87465 4.16003L1.97159 4.24751L1.87465 4.16003ZM1.80972 4.16003L1.90758 4.24751L1.80972 4.16003ZM1.74387 4.16003L1.84173 4.24751L1.74387 4.16003ZM1.67986 4.16003L1.7768 4.24751L1.67986 4.16003ZM1.61584 4.16003L1.71278 4.24751L1.61584 4.16003ZM1.55091 4.16003L1.64785 4.24751L1.55091 4.16003ZM1.48597 4.16003L1.58292 4.24751L1.48597 4.16003ZM1.42104 4.16003L1.51798 4.24751L1.42104 4.16003ZM1.68077 4.16003L1.77771 4.24751L1.68077 4.16003ZM1.35703 4.16003L1.45305 4.24751L1.35703 4.16003ZM1.29118 4.16003L1.38903 4.24751L1.29118 4.16003ZM1.22625 4.16003L1.3241 4.24751L1.22625 4.16003ZM1.16223 4.16003L1.25917 4.24751L1.16223 4.16003Z" fill="white"/>
<path d="M1.25917 3.66785L1.16131 3.75451M1.3241 3.66785L1.22625 3.75451M1.38812 3.66785L1.29118 3.75451M1.45305 3.66785L1.35611 3.75451M1.51798 3.66785L1.42104 3.75451M1.58292 3.66785L1.48597 3.75451M1.64785 3.66785L1.55091 3.75451M1.71278 3.66785L1.61584 3.75451L1.71187 3.66785M1.77771 3.66785L1.67986 3.75451M1.84264 3.66785L1.74387 3.75451M1.90575 3.66785L1.80881 3.75451M1.97068 3.66785L1.87374 3.75451M2.03652 3.66785L1.93958 3.75451M2.10146 3.66785L2.00452 3.75451M2.16639 3.66785L2.06945 3.75451M2.23132 3.66785L2.13438 3.75451M2.13438 3.66785L2.23132 3.75451M2.06945 3.66785L2.16639 3.75451M2.00452 3.66785L2.10146 3.75451M1.93958 3.66785L2.03652 3.75451M1.87465 3.66785L1.97159 3.75451M1.80972 3.66785L1.90666 3.75451M1.74479 3.66785L1.84264 3.75451M1.67986 3.66785L1.7768 3.75451M1.61401 3.66785L1.71187 3.75451M1.54999 3.66785L1.64693 3.75451M1.48506 3.66785L1.582 3.75451M1.42013 3.66785L1.51707 3.75451M1.35611 3.66785L1.45214 3.75451M1.29026 3.66785L1.38812 3.75451M1.22533 3.66785L1.32319 3.75451M1.1604 3.66785L1.25917 3.75451M1.25917 4.16003L1.16223 4.24751M1.32319 4.16003L1.22533 4.24751M1.38903 4.16003L1.29118 4.24751M1.45305 4.16003L1.35611 4.24751M1.51798 4.16003L1.42104 4.24751M1.58292 4.16003L1.48597 4.24751M1.64785 4.16003L1.55182 4.24751M1.71278 4.16003L1.61584 4.24751M1.77771 4.16003L1.67986 4.24751M1.84173 4.16003L1.74387 4.24751M1.90849 4.16003L1.81063 4.24751M1.97251 4.16003L1.87557 4.24751M2.03652 4.16003L1.93958 4.24751M2.10146 4.16003L2.00452 4.24751M2.16639 4.16003L2.06945 4.24751M2.23132 4.16003L2.13438 4.24751M2.13438 4.16003L2.23132 4.24751M2.06945 4.16003L2.16639 4.24751M2.00452 4.16003L2.10146 4.24751M1.93958 4.16003L2.03652 4.24751M1.87465 4.16003L1.97159 4.24751M1.80972 4.16003L1.90758 4.24751M1.74387 4.16003L1.84173 4.24751M1.67986 4.16003L1.7768 4.24751M1.61584 4.16003L1.71278 4.24751M1.55091 4.16003L1.64785 4.24751M1.48597 4.16003L1.58292 4.24751M1.42104 4.16003L1.51798 4.24751M1.68077 4.16003L1.77771 4.24751M1.35703 4.16003L1.45305 4.24751M1.29118 4.16003L1.38903 4.24751M1.22625 4.16003L1.3241 4.24751M1.16223 4.16003L1.25917 4.24751" stroke="#EF2D28" stroke-width="0.0115349"/>
<path fill-rule="evenodd" clip-rule="evenodd" d="M3.05295 5.06815C1.47967 6.61123 0.808512 6.80615 1.12406 6.9307C1.4396 7.05525 2.45245 6.25869 3.5062 5.20159C4.55995 4.14449 5.20541 3.20292 4.88987 3.07837C4.57432 2.95382 4.72677 3.42836 3.05295 5.06815Z" fill="white" stroke="#EF2D28" stroke-width="0.0193047"/>
<path fill-rule="evenodd" clip-rule="evenodd" d="M1.72319 6.19312L2.27466 6.33783C1.75612 6.83083 1.17264 7.03277 1.01077 6.94611C0.848898 6.85944 1.30251 6.65668 1.72411 6.19393L1.72319 6.19312Z" fill="white" stroke="#EF2D28" stroke-width="0.0112466"/>
<path fill-rule="evenodd" clip-rule="evenodd" d="M1.72586 6.24994L2.18018 6.3655C1.67508 6.83954 1.17533 6.97397 1.04616 6.9158C0.916097 6.85841 1.31608 6.69568 1.72586 6.24994Z" fill="white" stroke="#EF2D28" stroke-width="0.0108843"/>
<path d="M3.4187 5.00281C3.41741 5.01024 3.41355 5.04342 3.41033 5.05658C3.41033 5.07488 3.4084 5.08861 3.40646 5.10291C3.40131 5.11549 3.40196 5.12693 3.3865 5.13151C3.37932 5.14292 3.36795 5.1518 3.35429 5.15667C3.3419 5.16547 3.32826 5.17278 3.31372 5.17841C3.29845 5.18412 3.28151 5.18533 3.26541 5.18184L3.22934 5.15667C3.22677 5.14523 3.22419 5.12865 3.22097 5.11721C3.22597 5.13247 3.22879 5.14823 3.22934 5.16411C3.22806 5.18127 3.22097 5.18928 3.21324 5.20301" stroke="#EF2D28" stroke-width="0.0109304"/>
<path d="M3.26914 5.24182L3.26528 5.23839C3.27494 5.24697 3.27107 5.24296 3.24918 5.23095C3.23415 5.22485 3.21676 5.22027 3.19701 5.21722H3.14033C3.11843 5.21722 3.10362 5.22008 3.08816 5.22409C3.07657 5.23438 3.05982 5.2401 3.04759 5.24926C3.03671 5.25655 3.02844 5.26648 3.02376 5.27785C3.01281 5.28758 3.00572 5.30245 2.99542 5.30989C2.99091 5.32647 2.98189 5.3259 2.97545 5.33848C2.99477 5.33963 3.00959 5.34192 3.01989 5.35278C3.03664 5.36022 3.00572 5.34535 2.99928 5.33848C2.9864 5.33505 2.98318 5.33162 2.96322 5.33162C2.94518 5.3259 2.93359 5.33562 2.91491 5.33848C2.90396 5.3442 2.90074 5.34592 2.88657 5.34592" stroke="#EF2D28" stroke-width="0.0109304"/>
<path d="M3.05396 5.42337C3.04558 5.42337 3.00823 5.42966 2.99341 5.42337C2.97667 5.41936 2.96765 5.41193 2.95735 5.3982C2.95219 5.38848 2.95735 5.41536 2.95735 5.4268C2.95541 5.44796 2.94833 5.44796 2.93674 5.46226C2.92514 5.46912 2.91291 5.47828 2.90067 5.484C2.88994 5.49177 2.87772 5.49778 2.8646 5.50173C2.85086 5.50668 2.83884 5.5126 2.82854 5.51946C2.81501 5.52804 2.81565 5.53833 2.80793 5.55206C2.80986 5.56922 2.81308 5.57952 2.82403 5.58752C2.82918 5.59954 2.83948 5.61155 2.8485 5.61956C2.85816 5.63672 2.86976 5.64415 2.84464 5.64816C2.83047 5.65388 2.82274 5.6493 2.80793 5.64816" stroke="#EF2D28" stroke-width="0.0109304"/>
<path d="M2.79419 5.67246C2.78388 5.67017 2.74911 5.65987 2.73365 5.65472H2.67697C2.65572 5.65644 2.65121 5.66216 2.63318 5.66902C2.62094 5.67989 2.61321 5.68733 2.59646 5.69419C2.58809 5.70391 2.5707 5.72107 2.56426 5.73366C2.55901 5.74846 2.55641 5.7639 2.55653 5.77942C2.55653 5.80058 2.56297 5.80458 2.56426 5.82289C2.56871 5.83863 2.57707 5.85329 2.58874 5.86579C2.59002 5.8696 2.5926 5.87189 2.59646 5.87265" stroke="#EF2D28" stroke-width="0.0109304"/>
<path d="M2.604 5.91723C2.60217 5.91723 2.59852 5.92626 2.59257 5.93393C2.57931 5.94748 2.57794 5.94838 2.55828 5.94838C2.53999 5.94748 2.54227 5.94116 2.52947 5.93709C2.52352 5.92806 2.51621 5.92084 2.50935 5.90865C2.50478 5.90142 2.50066 5.89014 2.49563 5.88336C2.49014 5.87479 2.48374 5.86846 2.47826 5.86079C2.47277 5.85853 2.47094 5.85627 2.46362 5.85492C2.48008 5.85763 2.48191 5.8635 2.49243 5.87208L2.50661 5.89736C2.50843 5.90955 2.51209 5.91903 2.51255 5.93393C2.51255 5.94974 2.51255 5.96057 2.50661 5.97366C2.49975 5.98044 2.49517 5.98766 2.48649 5.99353C2.47926 6.00046 2.47268 6.00802 2.46682 6.01611L2.44076 6.03281C2.43253 6.03778 2.42293 6.04274 2.40967 6.0441C2.39275 6.04274 2.38772 6.03823 2.37537 6.03281C2.3644 6.02514 2.35616 6.02017 2.34656 6.01295C2.33868 6.00653 2.33189 5.9989 2.32644 5.99037C2.31135 5.98676 2.30129 5.98811 2.29215 5.99624C2.28442 6.00163 2.27776 6.00836 2.27248 6.01611C2.26791 6.01836 2.25968 6.02514 2.25511 6.02739" stroke="#EF2D28" stroke-width="0.0109103"/>
<path d="M2.28936 6.03528C2.2939 6.03697 2.31096 6.0488 2.31778 6.05275C2.32233 6.06796 2.32972 6.07585 2.332 6.09219C2.33541 6.10721 2.33673 6.12355 2.33597 6.14121C2.332 6.15924 2.3246 6.1722 2.31778 6.18628C2.30641 6.19417 2.30073 6.19981 2.28595 6.2077C2.2723 6.21032 2.25695 6.21164 2.2399 6.21164C2.22853 6.21502 2.20806 6.21671 2.19726 6.21164C2.18134 6.20939 2.1694 6.20319 2.15803 6.19755C2.14495 6.19023 2.13699 6.1829 2.12278 6.17614C2.11482 6.16638 2.10535 6.15586 2.09436 6.14459C2.08526 6.13276 2.07901 6.12599 2.07275 6.11304C2.0792 6.12731 2.08507 6.1414 2.09038 6.15529C2.0989 6.16994 2.10345 6.17558 2.10459 6.19361C2.11027 6.20826 2.10857 6.22629 2.10857 6.24319C2.10686 6.25446 2.10629 6.27587 2.10118 6.28545V6.29616" stroke="#EF2D28" stroke-width="0.0107588"/>
<path d="M1.76345 6.3543V6.36002C1.76223 6.34585 1.76436 6.35266 1.76985 6.38046C1.77991 6.39191 1.80643 6.39518 1.82655 6.39027C1.84484 6.37637 1.84484 6.36575 1.87777 6.36002C1.91069 6.36166 1.92349 6.36983 1.94178 6.38046C1.96103 6.38722 1.97715 6.39961 1.98751 6.41562C1.99391 6.43279 1.99757 6.44505 1.97562 6.45159C1.95654 6.4631 1.93452 6.47013 1.9116 6.47203C1.886 6.47203 1.86679 6.46958 1.8549 6.48266C1.83661 6.49901 1.83844 6.50882 1.83844 6.53825C1.83204 6.54725 1.83113 6.57423 1.82655 6.58486C1.81075 6.59211 1.79308 6.5955 1.77534 6.59467C1.76894 6.57832 1.76254 6.55052 1.75796 6.53335C1.75339 6.51536 1.75248 6.4892 1.74059 6.47694C1.73003 6.46291 1.71671 6.45072 1.70126 6.44096C1.69201 6.43159 1.67995 6.42478 1.66651 6.42134C1.68937 6.43115 1.69212 6.4426 1.69486 6.46712C1.67565 6.4753 1.67017 6.48184 1.63816 6.48266C1.60615 6.48021 1.59883 6.47285 1.58694 6.4565C1.5842 6.48266 1.57506 6.49083 1.56865 6.51373C1.55768 6.52844 1.55311 6.54398 1.54122 6.56442C1.54579 6.58894 1.55676 6.58976 1.55768 6.62001C1.565 6.64045 1.565 6.65926 1.58054 6.67152C1.58786 6.6797 1.59335 6.68051 1.60981 6.68133C1.57688 6.68133 1.55676 6.67806 1.53482 6.66661L1.48909 6.63555C1.46845 6.62166 1.44523 6.61115 1.4205 6.60448C1.39398 6.60448 1.37477 6.60203 1.3638 6.61511C1.34795 6.62601 1.33636 6.64318 1.32905 6.66661C1.32447 6.69278 1.32173 6.71076 1.33545 6.72793C1.34459 6.74755 1.34734 6.75491 1.33545 6.77862C1.32173 6.79497 1.30252 6.79743 1.27143 6.80397C1.24948 6.80288 1.23058 6.79961 1.21473 6.79416" stroke="#EF2D28" stroke-width="0.0112466"/>
<path fill-rule="evenodd" clip-rule="evenodd" d="M4.84189 3.67893C5.53963 2.4712 6.00239 1.44207 5.87622 1.38381C5.74874 1.32495 5.07917 2.2586 4.38143 3.46632L4.84189 3.67893Z" fill="white" stroke="#EF2D28" stroke-width="0.0146644"/>
<path fill-rule="evenodd" clip-rule="evenodd" d="M4.79594 3.65851C5.46906 2.49341 5.93262 1.5085 5.83168 1.46189C5.7297 1.41481 5.10069 2.32332 4.42756 3.48842" fill="white"/>
<path d="M4.79594 3.65851C5.46906 2.49341 5.93262 1.5085 5.83168 1.46189C5.7297 1.41481 5.10069 2.32332 4.42756 3.48842" stroke="#EF2D28" stroke-width="0.0128828"/>
<path fill-rule="evenodd" clip-rule="evenodd" d="M4.6804 3.05091C4.59848 3.187 4.51169 3.34292 4.42775 3.48821L4.79698 3.65869C4.88092 3.51341 4.97291 3.35988 5.04963 3.22139L4.6804 3.05091Z" fill="white" stroke="#EF2D28" stroke-width="0.0146212"/>
<path fill-rule="evenodd" clip-rule="evenodd" d="M4.71248 3.09791C4.63014 3.23473 4.57357 3.33835 4.48922 3.48436L4.76484 3.61163C4.84877 3.46634 4.91138 3.36367 4.9881 3.22517L4.71248 3.09791Z" fill="white" stroke="#EF2D28" stroke-width="0.0146212"/>
<path fill-rule="evenodd" clip-rule="evenodd" d="M4.91347 3.25486L4.72885 3.16962L4.56518 3.45292L4.74979 3.53816L4.91347 3.25486ZM4.91347 3.25486L4.56518 3.45292L4.91347 3.25486ZM4.74979 3.53816L4.72885 3.16962L4.74979 3.53816ZM5.74609 1.81366L5.56148 1.72842L5.74609 1.81366Z" fill="white"/>
<path d="M4.91347 3.25486L4.72885 3.16962M4.91347 3.25486L4.74979 3.53816M4.91347 3.25486L4.56518 3.45292M4.72885 3.16962L4.56518 3.45292M4.72885 3.16962L4.74979 3.53816M4.56518 3.45292L4.74979 3.53816M5.74609 1.81366L5.56148 1.72842" stroke="#EF2D28" stroke-width="0.0146212"/>
<path d="M5.74515 1.67907C5.71692 1.6862 5.68888 1.67186 5.68251 1.64703C5.67613 1.6222 5.69385 1.59629 5.72208 1.58915C5.75031 1.58202 5.77836 1.59636 5.78473 1.62119C5.7911 1.64602 5.77338 1.67193 5.74515 1.67907Z" fill="#EF0000" stroke="#EF2D28" stroke-width="0.0189451"/>
<path fill-rule="evenodd" clip-rule="evenodd" d="M4.57009 5.04002C6.14338 6.5831 6.81454 6.77802 6.49899 6.90256C6.18345 7.02711 5.17059 6.23055 4.11685 5.17345C3.0631 4.11636 2.41764 3.17478 2.73318 3.05023C3.04873 2.92569 2.89628 3.40023 4.57009 5.04002Z" fill="white" stroke="#EF2D28" stroke-width="0.0193047"/>
<path fill-rule="evenodd" clip-rule="evenodd" d="M5.89521 6.16034L5.34375 6.30505C5.86229 6.79805 6.44576 6.99999 6.60764 6.91333C6.76951 6.82667 6.3159 6.62391 5.8943 6.16116L5.89521 6.16034Z" fill="white" stroke="#EF2D28" stroke-width="0.0112466"/>
<path fill-rule="evenodd" clip-rule="evenodd" d="M5.89255 6.2218L5.43823 6.33736C5.94333 6.8114 6.44308 6.94583 6.57225 6.88766C6.70231 6.83027 6.30233 6.66754 5.89255 6.2218Z" fill="white" stroke="#EF2D28" stroke-width="0.0108843"/>
<path d="M4.20459 4.97467C4.20588 4.98211 4.20974 5.01528 4.21296 5.02844C4.21296 5.04674 4.21489 5.06047 4.21683 5.07477C4.22198 5.08735 4.22134 5.09879 4.23679 5.10337C4.24397 5.11478 4.25534 5.12366 4.269 5.12854C4.28139 5.13734 4.29503 5.14464 4.30957 5.15027C4.32484 5.15599 4.34178 5.15719 4.35788 5.15371L4.39395 5.12854C4.39652 5.1171 4.3991 5.10051 4.40232 5.08907C4.39732 5.10433 4.3945 5.12009 4.39395 5.13597C4.39523 5.15313 4.40232 5.16114 4.41005 5.17487" stroke="#EF2D28" stroke-width="0.0109304"/>
<path d="M4.35391 5.21368L4.35777 5.21025C4.34811 5.21883 4.35197 5.21483 4.37387 5.20281C4.3889 5.19671 4.40629 5.19214 4.42604 5.18909H4.48272C4.50461 5.18909 4.51943 5.19195 4.53488 5.19595C4.54648 5.20625 4.56322 5.21197 4.57546 5.22112C4.58634 5.22842 4.59461 5.23835 4.59929 5.24972C4.61024 5.25944 4.61732 5.27431 4.62763 5.28175C4.63214 5.29834 4.64115 5.29776 4.64759 5.31035C4.62827 5.31149 4.61346 5.31378 4.60315 5.32465C4.58641 5.33208 4.61732 5.31721 4.62376 5.31035C4.63665 5.30692 4.63987 5.30348 4.65983 5.30348C4.67786 5.29776 4.68946 5.30749 4.70814 5.31035C4.71908 5.31607 4.7223 5.31778 4.73647 5.31778" stroke="#EF2D28" stroke-width="0.0109304"/>
<path d="M4.56934 5.39059C4.57771 5.39059 4.61506 5.39688 4.62988 5.39059C4.64662 5.38659 4.65564 5.37915 4.66594 5.36542C4.6711 5.3557 4.66594 5.38258 4.66594 5.39402C4.66788 5.41519 4.67496 5.41519 4.68655 5.42948C4.69815 5.43635 4.71038 5.4455 4.72262 5.45122C4.73335 5.459 4.74557 5.465 4.75869 5.46895C4.77243 5.47391 4.78445 5.47982 4.79476 5.48668C4.80828 5.49526 4.80764 5.50556 4.81536 5.51929C4.81343 5.53645 4.81021 5.54674 4.79926 5.55475C4.79411 5.56676 4.78381 5.57877 4.77479 5.58678C4.76513 5.60394 4.75354 5.61138 4.77865 5.61538C4.79282 5.6211 4.80055 5.61652 4.81536 5.61538" stroke="#EF2D28" stroke-width="0.0109304"/>
<path d="M4.82446 5.64432C4.83477 5.64203 4.86955 5.63173 4.885 5.62659H4.94168C4.96293 5.6283 4.96744 5.63402 4.98548 5.64089C4.99771 5.65175 5.00544 5.65919 5.02219 5.66605C5.03056 5.67578 5.04795 5.69294 5.05439 5.70552C5.05964 5.72032 5.06225 5.73576 5.06212 5.75128C5.06212 5.77244 5.05568 5.77645 5.05439 5.79475C5.04994 5.81049 5.04158 5.82515 5.02992 5.83765C5.02863 5.84146 5.02605 5.84375 5.02219 5.84451" stroke="#EF2D28" stroke-width="0.0109304"/>
<path d="M5.01465 5.88909C5.01648 5.88909 5.02014 5.89812 5.02608 5.9058C5.03934 5.91934 5.04071 5.92024 5.06038 5.92024C5.07867 5.91934 5.07638 5.91302 5.08918 5.90896C5.09513 5.89993 5.10244 5.8927 5.1093 5.88051C5.11388 5.87329 5.11799 5.862 5.12302 5.85523C5.12851 5.84665 5.13491 5.84033 5.1404 5.83265C5.14588 5.83039 5.14771 5.82814 5.15503 5.82678C5.13857 5.82949 5.13674 5.83536 5.12622 5.84394L5.11205 5.86922C5.11022 5.88141 5.10656 5.8909 5.1061 5.9058C5.1061 5.9216 5.1061 5.93243 5.11205 5.94553C5.11891 5.9523 5.12348 5.95952 5.13217 5.96539C5.13939 5.97233 5.14597 5.97988 5.15183 5.98797L5.17789 6.00467C5.18612 6.00964 5.19573 6.01461 5.20899 6.01596C5.22591 6.01461 5.23094 6.01009 5.24328 6.00467C5.25426 5.997 5.26249 5.99203 5.27209 5.98481C5.27997 5.97839 5.28676 5.97077 5.29221 5.96223C5.3073 5.95862 5.31736 5.95998 5.3265 5.9681C5.33423 5.97349 5.34089 5.98022 5.34617 5.98797C5.35074 5.99023 5.35897 5.997 5.36354 5.99926" stroke="#EF2D28" stroke-width="0.0109103"/>
<path d="M5.33393 6.00714C5.32939 6.00883 5.31233 6.02066 5.30551 6.02461C5.30096 6.03982 5.29357 6.04771 5.2913 6.06405C5.28788 6.07908 5.28656 6.09542 5.28732 6.11307C5.2913 6.1311 5.29869 6.14406 5.30551 6.15815C5.31688 6.16604 5.32256 6.17167 5.33735 6.17956C5.35099 6.18219 5.36634 6.1835 5.3834 6.1835C5.39477 6.18688 5.41523 6.18857 5.42603 6.1835C5.44195 6.18125 5.45389 6.17505 5.46526 6.16942C5.47834 6.16209 5.4863 6.15477 5.50051 6.148C5.50847 6.13824 5.51794 6.12772 5.52893 6.11645C5.53803 6.10462 5.54428 6.09786 5.55054 6.0849C5.5441 6.09917 5.53822 6.11326 5.53291 6.12716C5.52439 6.14181 5.51984 6.14744 5.5187 6.16547C5.51302 6.18012 5.51472 6.19815 5.51472 6.21506C5.51643 6.22632 5.517 6.24774 5.52211 6.25731V6.26802" stroke="#EF2D28" stroke-width="0.0107588"/>
<path d="M5.8552 6.32146V6.32719C5.85642 6.31301 5.85429 6.31983 5.8488 6.34762C5.83874 6.35907 5.81222 6.36234 5.7921 6.35744C5.77381 6.34354 5.77381 6.33291 5.74089 6.32719C5.70796 6.32882 5.69516 6.337 5.67687 6.34762C5.65762 6.35438 5.6415 6.36678 5.63114 6.38278C5.62474 6.39995 5.62108 6.41221 5.64303 6.41875C5.66211 6.43026 5.68413 6.43729 5.70705 6.43919C5.73265 6.43919 5.75186 6.43674 5.76375 6.44982C5.78204 6.46617 5.78021 6.47598 5.78021 6.50542C5.78661 6.51441 5.78753 6.54139 5.7921 6.55202C5.8079 6.55928 5.82557 6.56266 5.84331 6.56183C5.84972 6.54548 5.85612 6.51768 5.86069 6.50051C5.86526 6.48252 5.86618 6.45636 5.87807 6.4441C5.88862 6.43007 5.90194 6.41788 5.91739 6.40813C5.92664 6.39875 5.9387 6.39194 5.95214 6.3885C5.92928 6.39831 5.92654 6.40976 5.92379 6.43429C5.943 6.44246 5.94849 6.449 5.98049 6.44982C6.0125 6.44737 6.01982 6.44001 6.03171 6.42366C6.03445 6.44982 6.0436 6.458 6.05 6.48089C6.06097 6.49561 6.06555 6.51114 6.07743 6.53158C6.07286 6.55611 6.06189 6.55692 6.06097 6.58718C6.05366 6.60761 6.05366 6.62642 6.03811 6.63868C6.03079 6.64686 6.02531 6.64768 6.00884 6.64849C6.04177 6.64849 6.06189 6.64522 6.08384 6.63378L6.12956 6.60271C6.1502 6.58883 6.17342 6.57831 6.19815 6.57164C6.22467 6.57164 6.24388 6.56919 6.25485 6.58227C6.27071 6.59317 6.28229 6.61034 6.28961 6.63378C6.29418 6.65994 6.29692 6.67793 6.2832 6.6951C6.27406 6.71472 6.27132 6.72208 6.2832 6.74579C6.29692 6.76214 6.31613 6.76459 6.34722 6.77113C6.36917 6.77004 6.38807 6.76677 6.40392 6.76132" stroke="#EF2D28" stroke-width="0.0112466"/>
<path fill-rule="evenodd" clip-rule="evenodd" d="M2.77579 3.64609C2.07804 2.43837 1.61529 1.40923 1.74146 1.35097C1.86893 1.29211 2.5385 2.22576 3.23625 3.43348L2.77579 3.64609Z" fill="white" stroke="#EF2D28" stroke-width="0.0146644"/>
<path fill-rule="evenodd" clip-rule="evenodd" d="M2.82174 3.62561C2.14862 2.46051 1.68506 1.4756 1.78599 1.42899C1.88797 1.38191 2.51699 2.29042 3.19011 3.45552" fill="white"/>
<path d="M2.82174 3.62561C2.14862 2.46051 1.68506 1.4756 1.78599 1.42899C1.88797 1.38191 2.51699 2.29042 3.19011 3.45552" stroke="#EF2D28" stroke-width="0.0128828"/>
<path fill-rule="evenodd" clip-rule="evenodd" d="M2.93752 3.01807C3.01944 3.15416 3.10623 3.31009 3.19017 3.45537L2.82094 3.62585C2.737 3.48057 2.64501 3.32705 2.56829 3.18855L2.93752 3.01807Z" fill="white" stroke="#EF2D28" stroke-width="0.0146212"/>
<path fill-rule="evenodd" clip-rule="evenodd" d="M2.9052 3.06514C2.98753 3.20195 3.04411 3.30558 3.12846 3.45159L2.85284 3.57885C2.7689 3.43357 2.70629 3.33089 2.62957 3.1924L2.9052 3.06514Z" fill="white" stroke="#EF2D28" stroke-width="0.0146212"/>
<path fill-rule="evenodd" clip-rule="evenodd" d="M2.7047 3.22227L2.88931 3.13703L3.05298 3.42033L2.86837 3.50557L2.7047 3.22227ZM2.7047 3.22227L3.05298 3.42033L2.7047 3.22227ZM2.86837 3.50557L2.88931 3.13703L2.86837 3.50557ZM1.87207 1.78107L2.05669 1.69583L1.87207 1.78107Z" fill="white"/>
<path d="M2.7047 3.22227L2.88931 3.13703M2.7047 3.22227L2.86837 3.50557M2.7047 3.22227L3.05298 3.42033M2.88931 3.13703L3.05298 3.42033M2.88931 3.13703L2.86837 3.50557M3.05298 3.42033L2.86837 3.50557M1.87207 1.78107L2.05669 1.69583" stroke="#EF2D28" stroke-width="0.0146212"/>
<path d="M1.87301 1.64641C1.90124 1.65355 1.92929 1.63921 1.93566 1.61438C1.94203 1.58955 1.92431 1.56364 1.89608 1.5565C1.86785 1.54936 1.83981 1.56371 1.83344 1.58853C1.82706 1.61336 1.84478 1.63928 1.87301 1.64641Z" fill="#EF0000" stroke="#EF2D28" stroke-width="0.0189451"/>
<path fill-rule="evenodd" clip-rule="evenodd" d="M3.33389 3.03082C3.33389 4.04511 3.33999 4.42711 3.26557 4.47946C3.19482 4.5359 1.22705 4.47946 1.22705 4.76902C1.22705 5.05859 2.84713 5.34979 3.33389 5.34979C3.9829 5.34979 4.307 5.05968 4.30618 4.47946V3.03164H3.33389V3.03082Z" fill="white" stroke="#EF2D28" stroke-width="0.0133192"/>
<path fill-rule="evenodd" clip-rule="evenodd" d="M3.33423 3.32031V3.46502C3.65573 3.51323 3.98396 3.51323 4.30546 3.46502V3.32031C3.98396 3.36852 3.65573 3.36852 3.33423 3.32031Z" fill="white" stroke="#EF2D28" stroke-width="0.0115349"/>
<path fill-rule="evenodd" clip-rule="evenodd" d="M3.33423 3.03076V3.17547C3.65573 3.22368 3.98396 3.22368 4.30546 3.17547V3.03076C3.98396 3.07897 3.65573 3.07897 3.33423 3.03076Z" fill="white" stroke="#EF2D28" stroke-width="0.0115349"/>
<path fill-rule="evenodd" clip-rule="evenodd" d="M3.33423 3.17554V3.32025C3.65573 3.36846 3.98396 3.36846 4.30546 3.32025V3.17554C3.98396 3.22375 3.65573 3.22375 3.33423 3.17554Z" fill="white" stroke="#EF2D28" stroke-width="0.0115349"/>
<path fill-rule="evenodd" clip-rule="evenodd" d="M3.33423 3.46515V3.60986C3.65573 3.65807 3.98396 3.65807 4.30546 3.60986V3.46515C3.98396 3.51336 3.65573 3.51336 3.33423 3.46515Z" fill="white" stroke="#EF2D28" stroke-width="0.0115349"/>
<path d="M3.37816 3.28851C3.40257 3.28851 3.42235 3.27458 3.42235 3.25739C3.42235 3.24019 3.40257 3.22626 3.37816 3.22626C3.35376 3.22626 3.33398 3.24019 3.33398 3.25739C3.33398 3.27458 3.35376 3.28851 3.37816 3.28851Z" fill="white" stroke="#EF2D28" stroke-width="0.0109041"/>
<path d="M3.55492 3.30408C3.57932 3.30408 3.5991 3.29014 3.5991 3.27295C3.5991 3.25576 3.57932 3.24182 3.55492 3.24182C3.53052 3.24182 3.51074 3.25576 3.51074 3.27295C3.51074 3.29014 3.53052 3.30408 3.55492 3.30408Z" fill="white" stroke="#EF2D28" stroke-width="0.0109041"/>
<path d="M3.73217 3.32001C3.75657 3.32001 3.77635 3.30607 3.77635 3.28888C3.77635 3.27169 3.75657 3.25775 3.73217 3.25775C3.70777 3.25775 3.68799 3.27169 3.68799 3.28888C3.68799 3.30607 3.70777 3.32001 3.73217 3.32001Z" fill="white" stroke="#EF2D28" stroke-width="0.0109041"/>
<path d="M3.90868 3.32001C3.93308 3.32001 3.95286 3.30607 3.95286 3.28888C3.95286 3.27169 3.93308 3.25775 3.90868 3.25775C3.88428 3.25775 3.8645 3.27169 3.8645 3.28888C3.8645 3.30607 3.88428 3.32001 3.90868 3.32001Z" fill="white" stroke="#EF2D28" stroke-width="0.0109041"/>
<path d="M4.08544 3.30408C4.10984 3.30408 4.12962 3.29014 4.12962 3.27295C4.12962 3.25576 4.10984 3.24182 4.08544 3.24182C4.06104 3.24182 4.04126 3.25576 4.04126 3.27295C4.04126 3.29014 4.06104 3.30408 4.08544 3.30408Z" fill="white" stroke="#EF2D28" stroke-width="0.0109041"/>
<path d="M4.26269 3.28851C4.28709 3.28851 4.30687 3.27458 4.30687 3.25739C4.30687 3.24019 4.28709 3.22626 4.26269 3.22626C4.23829 3.22626 4.21851 3.24019 4.21851 3.25739C4.21851 3.27458 4.23829 3.28851 4.26269 3.28851Z" fill="white" stroke="#EF2D28" stroke-width="0.0109041"/>
<path fill-rule="evenodd" clip-rule="evenodd" d="M3.33437 3.7547L4.3056 4.53712L3.33437 3.7547ZM3.43131 3.7547L4.30652 4.44964L3.43131 3.7547ZM3.56026 3.78413L4.30652 4.3638L3.56026 3.78413ZM3.6572 3.78332L4.30652 4.27632L3.6572 3.78332ZM3.75505 3.78413L4.3056 4.18965L3.75505 3.78413ZM3.85199 3.78413L4.3056 4.10299L3.85199 3.78413ZM3.94893 3.78413L4.3056 4.01551L3.94893 3.78413ZM4.0477 3.78413L4.30743 3.95746L4.0477 3.78413ZM4.14373 3.78413L4.30652 3.90023L4.14373 3.78413ZM4.24158 3.78413L4.3056 3.84136L4.24158 3.78413ZM3.33437 3.84136L4.3056 4.6246L3.33437 3.84136ZM4.3056 3.75552L3.2356 4.62379L4.3056 3.75552ZM4.20775 3.7547L3.26852 4.50851L4.20775 3.7547ZM4.0788 3.78413L3.33345 4.36298L4.0788 3.78413ZM3.98094 3.78413L3.33345 4.27632L3.98094 3.78413ZM3.88492 3.78413L3.33437 4.18965L3.88492 3.78413ZM3.78797 3.78413L3.33437 4.10299L3.78797 3.78413ZM3.69103 3.78413L3.33437 4.01551L3.69103 3.78413ZM3.59226 3.78413L3.33345 3.95746L3.59226 3.78413ZM3.49532 3.78413L3.33345 3.90023L3.49532 3.78413ZM3.39747 3.78413L3.33345 3.84136L3.39747 3.78413ZM4.3056 3.84136L3.2356 4.71209L4.3056 3.84136ZM4.3056 3.92966L3.2356 4.79793L4.3056 3.92966ZM4.3056 4.01551L3.2356 4.8846L4.3056 4.01551ZM4.3056 4.10217L3.2356 4.97289L4.3056 4.10217ZM4.3056 4.19047L3.2356 5.05874L4.3056 4.19047ZM4.3056 4.27632L3.2356 5.1454L4.3056 4.27632ZM4.3056 4.36298L3.2356 5.23207L4.3056 4.36298ZM4.3056 4.45046L3.2356 5.31955L4.3056 4.45046ZM4.3056 4.53712L3.30053 5.34816L4.3056 4.53712ZM4.3056 4.62379L3.39838 5.34816L4.3056 4.62379ZM4.27268 4.73988L3.55934 5.31955L4.27268 4.73988ZM4.24158 4.85516L3.65811 5.31873L4.24158 4.85516ZM4.17665 4.99987L3.884 5.23125L4.17665 4.99987ZM3.33437 3.92803L4.27359 4.68102L3.33437 3.92803ZM3.33437 4.01469L4.27359 4.7685L3.33437 4.01469ZM3.33437 4.10299L4.24158 4.82655L3.33437 4.10299ZM3.33437 4.18883L4.24158 4.91403L3.33437 4.18883ZM3.33437 4.27632L4.20866 4.97126L3.33437 4.27632ZM3.30144 4.33436L4.17665 5.02931L3.30144 4.33436ZM3.30144 4.42185L4.11172 5.05956L3.30144 4.42185ZM3.26943 4.47908L4.07971 5.11679L3.26943 4.47908ZM3.2356 4.53631L4.01295 5.14459L3.2356 4.53631ZM3.2356 4.62297L3.98094 5.20263L3.2356 4.62297ZM3.2356 4.71045L3.88492 5.23125L3.2356 4.71045Z" fill="white"/>
<path d="M3.33437 3.7547L4.3056 4.53712L3.30053 5.34816M3.43131 3.7547L4.30652 4.44964M3.56026 3.78413L4.30652 4.3638M3.6572 3.78332L4.30652 4.27632M3.75505 3.78413L4.3056 4.18965M3.85199 3.78413L4.3056 4.10299M3.94893 3.78413L4.3056 4.01551L3.2356 4.8846M4.0477 3.78413L4.30743 3.95746M4.14373 3.78413L4.30652 3.90023M4.24158 3.78413L4.3056 3.84136L3.2356 4.71209M3.33437 3.84136L4.3056 4.6246M4.3056 3.75552L3.2356 4.62379M4.20775 3.7547L3.26852 4.50851M4.0788 3.78413L3.33345 4.36298M3.98094 3.78413L3.33345 4.27632M3.88492 3.78413L3.33437 4.18965M3.78797 3.78413L3.33437 4.10299L4.24158 4.82655M3.69103 3.78413L3.33437 4.01551M3.59226 3.78413L3.33345 3.95746M3.49532 3.78413L3.33345 3.90023M3.39747 3.78413L3.33345 3.84136M4.3056 3.92966L3.2356 4.79793M4.3056 4.10217L3.2356 4.97289M4.3056 4.19047L3.2356 5.05874M4.3056 4.27632L3.2356 5.1454M4.3056 4.36298L3.2356 5.23207M4.3056 4.45046L3.2356 5.31955M4.3056 4.62379L3.39838 5.34816M4.27268 4.73988L3.55934 5.31955M4.24158 4.85516L3.65811 5.31873M4.17665 4.99987L3.884 5.23125M3.33437 3.92803L4.27359 4.68102M3.33437 4.01469L4.27359 4.7685M3.33437 4.18883L4.24158 4.91403M3.33437 4.27632L4.20866 4.97126M3.30144 4.33436L4.17665 5.02931M3.30144 4.42185L4.11172 5.05956M3.26943 4.47908L4.07971 5.11679M3.2356 4.53631L4.01295 5.14459M3.2356 4.62297L3.98094 5.20263M3.2356 4.71045L3.88492 5.23125" stroke="#EF2D28" stroke-width="0.0115349"/>
<path fill-rule="evenodd" clip-rule="evenodd" d="M3.33423 3.61072V3.75543C3.65573 3.80364 3.98396 3.80364 4.30546 3.75543V3.61072C3.98396 3.65893 3.65573 3.65893 3.33423 3.61072Z" fill="white" stroke="#EF2D28" stroke-width="0.0115349"/>
<path fill-rule="evenodd" clip-rule="evenodd" d="M3.23651 4.79846L3.81998 5.26203L3.23651 4.79846ZM3.23651 4.88594L3.75505 5.29065L3.23651 4.88594ZM3.23651 4.97179L3.69012 5.32008L3.23651 4.97179ZM3.23651 5.05845L3.56117 5.32008L3.23651 5.05845ZM3.2356 5.14593L3.49532 5.34869L3.2356 5.14593ZM3.2356 5.2326L3.39747 5.34869L3.2356 5.2326Z" fill="white"/>
<path d="M3.23651 4.79846L3.81998 5.26203M3.23651 4.88594L3.75505 5.29065M3.23651 4.97179L3.69012 5.32008M3.23651 5.05845L3.56117 5.32008M3.2356 5.14593L3.49532 5.34869M3.2356 5.2326L3.39747 5.34869" stroke="#EF2D28" stroke-width="0.0115349"/>
<path d="M3.37816 3.72369C3.40257 3.72369 3.42235 3.70976 3.42235 3.69257C3.42235 3.67537 3.40257 3.66144 3.37816 3.66144C3.35376 3.66144 3.33398 3.67537 3.33398 3.69257C3.33398 3.70976 3.35376 3.72369 3.37816 3.72369Z" fill="white" stroke="#EF2D28" stroke-width="0.0109041"/>
<path d="M3.55492 3.73926C3.57932 3.73926 3.5991 3.72532 3.5991 3.70813C3.5991 3.69094 3.57932 3.677 3.55492 3.677C3.53052 3.677 3.51074 3.69094 3.51074 3.70813C3.51074 3.72532 3.53052 3.73926 3.55492 3.73926Z" fill="white" stroke="#EF2D28" stroke-width="0.0109041"/>
<path d="M3.73217 3.75433C3.75657 3.75433 3.77635 3.7404 3.77635 3.72321C3.77635 3.70601 3.75657 3.69208 3.73217 3.69208C3.70777 3.69208 3.68799 3.70601 3.68799 3.72321C3.68799 3.7404 3.70777 3.75433 3.73217 3.75433Z" fill="white" stroke="#EF2D28" stroke-width="0.0109041"/>
<path d="M3.90868 3.75433C3.93308 3.75433 3.95286 3.7404 3.95286 3.72321C3.95286 3.70601 3.93308 3.69208 3.90868 3.69208C3.88428 3.69208 3.8645 3.70601 3.8645 3.72321C3.8645 3.7404 3.88428 3.75433 3.90868 3.75433Z" fill="white" stroke="#EF2D28" stroke-width="0.0109041"/>
<path d="M4.08544 3.73926C4.10984 3.73926 4.12962 3.72532 4.12962 3.70813C4.12962 3.69094 4.10984 3.677 4.08544 3.677C4.06104 3.677 4.04126 3.69094 4.04126 3.70813C4.04126 3.72532 4.06104 3.73926 4.08544 3.73926Z" fill="white" stroke="#EF2D28" stroke-width="0.0109041"/>
<path d="M4.26269 3.72369C4.28709 3.72369 4.30687 3.70976 4.30687 3.69257C4.30687 3.67537 4.28709 3.66144 4.26269 3.66144C4.23829 3.66144 4.21851 3.67537 4.21851 3.69257C4.21851 3.70976 4.23829 3.72369 4.26269 3.72369Z" fill="white" stroke="#EF2D28" stroke-width="0.0109041"/>
<path fill-rule="evenodd" clip-rule="evenodd" d="M1.93985 5.11719L3.10588 4.50891L1.93985 5.11719ZM1.87492 5.08776L2.97693 4.50891L1.87492 5.08776ZM1.84291 5.02971L2.84707 4.50891L1.84291 5.02971ZM1.80999 4.97248L2.6852 4.50891L1.80999 4.97248ZM1.74414 4.91443L2.55442 4.50891L1.74414 4.91443ZM1.77706 4.82777L2.32761 4.53753L1.77706 4.82777ZM1.74414 4.7689L2.16483 4.53753L1.74414 4.7689ZM1.74414 4.68224L2.03679 4.53753L1.74414 4.68224ZM2.03679 5.14581L3.13789 4.56614L2.03679 5.14581ZM2.13465 5.17442L3.17082 4.62419L2.13465 5.17442ZM2.23159 5.20385L3.20374 4.68224L2.23159 5.20385ZM2.32853 5.23247L3.13881 4.79833L2.32853 5.23247ZM2.45748 5.23247L3.17082 4.85638L2.45748 5.23247ZM2.55442 5.2619L3.1699 4.94305L2.55442 5.2619ZM2.65136 5.29052L3.13789 5.02971L2.65136 5.29052ZM2.78122 5.29134L3.1699 5.08776L2.78122 5.29134ZM2.91109 5.31995L3.17082 5.17442L2.91109 5.31995ZM3.04278 5.31995L3.20465 5.23329L3.04278 5.31995Z" fill="white"/>
<path d="M1.93985 5.11719L3.10588 4.50891M1.87492 5.08776L2.97693 4.50891M1.84291 5.02971L2.84707 4.50891M1.80999 4.97248L2.6852 4.50891M1.74414 4.91443L2.55442 4.50891M1.77706 4.82777L2.32761 4.53753M1.74414 4.7689L2.16483 4.53753M1.74414 4.68224L2.03679 4.53753M2.03679 5.14581L3.13789 4.56614M2.13465 5.17442L3.17082 4.62419M2.23159 5.20385L3.20374 4.68224M2.32853 5.23247L3.13881 4.79833M2.45748 5.23247L3.17082 4.85638M2.55442 5.2619L3.1699 4.94305M2.65136 5.29052L3.13789 5.02971M2.78122 5.29134L3.1699 5.08776M2.91109 5.31995L3.17082 5.17442M3.04278 5.31995L3.20465 5.23329" stroke="#EF2D28" stroke-width="0.0115349"/>
<path fill-rule="evenodd" clip-rule="evenodd" d="M3.26855 4.48029H3.10668C3.05276 4.7677 3.05276 5.06114 3.10668 5.34856H3.26855C3.21463 5.06114 3.21463 4.7677 3.26855 4.48029Z" fill="white" stroke="#EF2D28" stroke-width="0.0115349"/>
<path fill-rule="evenodd" clip-rule="evenodd" d="M1.3562 4.885L1.74488 4.59558L1.3562 4.885ZM1.3562 4.68224L1.74488 5.02972L1.3562 4.68224Z" fill="white"/>
<path d="M1.3562 4.885L1.74488 4.59558M1.3562 4.68224L1.74488 5.02972" stroke="#EF2D28" stroke-width="0.0115349"/>
<path fill-rule="evenodd" clip-rule="evenodd" d="M1.93994 4.53693L1.74533 4.56592C1.70216 4.74974 1.70216 4.90405 1.74533 5.08786L1.93994 5.14534C1.89678 4.96204 1.89678 4.72074 1.93994 4.53693Z" fill="white" stroke="#EF2D28" stroke-width="0.0082106"/>
<path fill-rule="evenodd" clip-rule="evenodd" d="M4.30573 3.08792V2.94158C4.15912 2.94321 4.06183 2.85573 4.06183 2.76825L3.57676 2.76907C3.57676 2.85573 3.48085 2.94321 3.33423 2.94321V3.08792H4.30573Z" fill="white" stroke="#EF2D28" stroke-width="0.0141193"/>
<path fill-rule="evenodd" clip-rule="evenodd" d="M3.6106 2.59529H4.02762V2.76943H3.6106V2.59529ZM3.64626 2.42115H3.99287V2.59529H3.64535L3.64626 2.42115ZM3.64626 2.24782H3.99287V2.42115H3.64535L3.64626 2.24782ZM3.68102 2.01563H3.95812V2.24782H3.68102V2.01563ZM3.66913 1.81287H3.97092V2.01563H3.66913V1.81287Z" fill="white"/>
<path d="M3.99287 2.42115H3.64626L3.64535 2.59529H3.99287V2.42115ZM3.99287 2.42115V2.24782H3.64626L3.64535 2.42115H3.99287ZM3.6106 2.59529H4.02762V2.76943H3.6106V2.59529ZM3.68102 2.01563H3.95812V2.24782H3.68102V2.01563ZM3.66913 1.81287H3.97092V2.01563H3.66913V1.81287Z" stroke="#EF2D28" stroke-width="0.0121117"/>
<path d="M3.83546 1.90011C4.05727 1.90011 4.23708 1.77675 4.23708 1.62458C4.23708 1.47242 4.05727 1.34906 3.83546 1.34906C3.61365 1.34906 3.43384 1.47242 3.43384 1.62458C3.43384 1.77675 3.61365 1.90011 3.83546 1.90011Z" fill="white" stroke="#EF2D28" stroke-width="0.0117254"/>
<path fill-rule="evenodd" clip-rule="evenodd" d="M4.03691 1.60984C4.03691 1.68588 4.13708 1.8126 4.13708 1.8126C4.06432 1.86329 3.94619 1.90008 3.83563 1.90008C3.72507 1.90008 3.5871 1.87883 3.53418 1.8126C3.53418 1.8126 3.63435 1.6867 3.63435 1.61066C3.63435 1.53463 3.53418 1.43652 3.53418 1.43652C3.62201 1.38096 3.72778 1.35065 3.83658 1.34985C3.94619 1.34985 4.06337 1.38664 4.13708 1.43652C4.13708 1.43652 4.03691 1.53463 4.03691 1.61066V1.60984Z" fill="white" stroke="#EF2D28" stroke-width="0.0117254"/>
<path fill-rule="evenodd" clip-rule="evenodd" d="M3.96986 1.60984C3.96986 1.68588 4.07003 1.84204 4.07003 1.84204C3.99727 1.89109 3.94718 1.89927 3.83568 1.89927C3.72417 1.89927 3.65424 1.90826 3.60132 1.84204C3.60132 1.84204 3.70149 1.6867 3.70149 1.60984C3.70149 1.53299 3.60132 1.40708 3.60132 1.40708C3.67408 1.35803 3.72417 1.34985 3.83568 1.34985C3.94624 1.34985 3.99727 1.35803 4.07003 1.40708C4.07003 1.40708 3.96986 1.53381 3.96986 1.60984Z" fill="white" stroke="#EF2D28" stroke-width="0.0117254"/>
<path d="M3.43396 1.72529C3.48931 1.72529 3.53418 1.68647 3.53418 1.63859C3.53418 1.5907 3.48931 1.55188 3.43396 1.55188C3.37861 1.55188 3.33374 1.5907 3.33374 1.63859C3.33374 1.68647 3.37861 1.72529 3.43396 1.72529Z" fill="white" stroke="#EF2D28" stroke-width="0.0117254"/>
<path d="M4.23816 1.72529C4.29351 1.72529 4.33837 1.68647 4.33837 1.63859C4.33837 1.5907 4.29351 1.55188 4.23816 1.55188C4.18281 1.55188 4.13794 1.5907 4.13794 1.63859C4.13794 1.68647 4.18281 1.72529 4.23816 1.72529Z" fill="white" stroke="#EF2D28" stroke-width="0.0117254"/>
<path d="M3.83655 1.72529C3.89189 1.72529 3.93676 1.68647 3.93676 1.63859C3.93676 1.5907 3.89189 1.55188 3.83655 1.55188C3.7812 1.55188 3.73633 1.5907 3.73633 1.63859C3.73633 1.68647 3.7812 1.72529 3.83655 1.72529Z" fill="white" stroke="#EF2D28" stroke-width="0.0117254"/>
<path d="M3.83655 1.43574C3.89189 1.43574 3.93676 1.39692 3.93676 1.34903C3.93676 1.30115 3.89189 1.26233 3.83655 1.26233C3.7812 1.26233 3.73633 1.30115 3.73633 1.34903C3.73633 1.39692 3.7812 1.43574 3.83655 1.43574Z" fill="white" stroke="#EF2D28" stroke-width="0.0117254"/>
<path d="M3.54271 3.088C3.60001 3.088 3.64646 3.0492 3.64646 3.00134C3.64646 2.95347 3.60001 2.91467 3.54271 2.91467C3.48541 2.91467 3.43896 2.95347 3.43896 3.00134C3.43896 3.0492 3.48541 3.088 3.54271 3.088Z" fill="white" stroke="#EF2D28" stroke-width="0.0119329"/>
<path d="M4.09715 3.088C4.15445 3.088 4.2009 3.0492 4.2009 3.00134C4.2009 2.95347 4.15445 2.91467 4.09715 2.91467C4.03986 2.91467 3.99341 2.95347 3.99341 3.00134C3.99341 3.0492 4.03986 3.088 4.09715 3.088Z" fill="white" stroke="#EF2D28" stroke-width="0.0119329"/>
<path fill-rule="evenodd" clip-rule="evenodd" d="M3.5769 2.76904H4.06236L3.81963 3.02985L3.5769 2.76904Z" fill="white" stroke="#EF2D28" stroke-width="0.0119329"/>
<path d="M3.81924 3.08736C3.89564 3.08736 3.95758 3.03563 3.95758 2.97181C3.95758 2.908 3.89564 2.85626 3.81924 2.85626C3.74284 2.85626 3.68091 2.908 3.68091 2.97181C3.68091 3.03563 3.74284 3.08736 3.81924 3.08736Z" fill="white" stroke="#EF2D28" stroke-width="0.0159108"/>
<path d="M3.99319 3.84387H3.32833C3.3061 3.84387 3.28809 3.85778 3.28809 3.87494V3.98695C3.28809 4.00411 3.3061 4.01802 3.32833 4.01802H3.99319C4.01542 4.01802 4.03343 4.00411 4.03343 3.98695V3.87494C4.03343 3.85778 4.01542 3.84387 3.99319 3.84387Z" fill="white" stroke="#EF2D28" stroke-width="0.0112466"/>
<path fill-rule="evenodd" clip-rule="evenodd" d="M4.26008 3.69905C4.17046 3.69905 4.09821 3.76691 4.09821 3.8503V3.98193C4.0976 4.00139 4.10132 4.02077 4.10915 4.03894C4.11698 4.05711 4.12876 4.07371 4.14382 4.08778C4.15887 4.10184 4.1769 4.1131 4.19686 4.1209C4.21682 4.12869 4.23831 4.13287 4.26008 4.13318C4.28186 4.13287 4.30335 4.12869 4.32331 4.1209C4.34326 4.1131 4.36129 4.10184 4.37635 4.08778C4.3914 4.07371 4.40319 4.05711 4.41102 4.03894C4.41885 4.02077 4.42256 4.00139 4.42196 3.98193V3.85112C4.42269 3.83159 4.41906 3.81212 4.41129 3.79386C4.40351 3.7756 4.39175 3.7589 4.37668 3.74475C4.36161 3.73059 4.34354 3.71926 4.32352 3.71141C4.3035 3.70357 4.28194 3.69936 4.26008 3.69905ZM4.26008 3.75628C4.20613 3.75628 4.16314 3.81106 4.16314 3.8781V3.95413C4.16314 4.02118 4.20613 4.07514 4.26008 4.07514C4.31404 4.07514 4.35702 4.02118 4.35702 3.95413V3.8781C4.35702 3.81106 4.31404 3.7571 4.26008 3.7571V3.75628ZM3.4178 3.72766C3.36292 3.72766 3.32086 3.78162 3.32086 3.84948V3.98357C3.32086 4.05061 3.36384 4.10457 3.4178 4.10457C3.47175 4.10457 3.51474 4.05061 3.51474 3.98357V3.84867C3.51474 3.78081 3.47175 3.72685 3.4178 3.72685V3.72766ZM3.4178 3.67043C3.39602 3.67075 3.37453 3.67493 3.35457 3.68272C3.33462 3.69052 3.31659 3.70177 3.30153 3.71584C3.28647 3.72991 3.27469 3.74651 3.26686 3.76468C3.25903 3.78285 3.25532 3.80222 3.25592 3.82169V4.01137C3.25532 4.03083 3.25903 4.0502 3.26686 4.06837C3.27469 4.08654 3.28647 4.10314 3.30153 4.11721C3.31659 4.13128 3.33462 4.14253 3.35457 4.15033C3.37453 4.15812 3.39602 4.1623 3.4178 4.16262C3.50742 4.16262 3.57967 4.09476 3.57967 4.01137V3.82169C3.5804 3.80216 3.57677 3.78269 3.569 3.76443C3.56123 3.74616 3.54946 3.72947 3.5344 3.71531C3.51933 3.70116 3.50126 3.68983 3.48124 3.68198C3.46122 3.67413 3.43965 3.66993 3.4178 3.66962V3.67043Z" fill="white" stroke="#EF2D28" stroke-width="0.0112466"/>
<path fill-rule="evenodd" clip-rule="evenodd" d="M3.15803 3.78577C3.10407 3.78577 3.06109 3.83973 3.06109 3.90677V3.93866C3.06109 4.0057 3.10407 4.05966 3.15803 4.05966C3.2129 4.05966 3.25589 4.0057 3.25589 3.93866V3.90677C3.25589 3.83973 3.21199 3.78577 3.15803 3.78577ZM3.15803 3.72854C3.13625 3.72886 3.11477 3.73303 3.09481 3.74083C3.07485 3.74862 3.05682 3.75988 3.04177 3.77395C3.02671 3.78802 3.01493 3.80462 3.0071 3.82278C2.99927 3.84095 2.99555 3.86033 2.99616 3.87979V3.96646C2.99555 3.98592 2.99927 4.00529 3.0071 4.02346C3.01493 4.04163 3.02671 4.05823 3.04177 4.0723C3.05682 4.08637 3.07485 4.09762 3.09481 4.10542C3.11477 4.11321 3.13625 4.11739 3.15803 4.11771C3.24766 4.11771 3.32082 4.04985 3.32082 3.96646V3.87979C3.32155 3.86019 3.31789 3.84066 3.31006 3.82235C3.30223 3.80403 3.29039 3.7873 3.27522 3.77313C3.26006 3.75896 3.24188 3.74765 3.22175 3.73985C3.20163 3.73205 3.17996 3.72793 3.15803 3.72772V3.72854Z" fill="white" stroke="#EF2D28" stroke-width="0.0112466"/>
<path fill-rule="evenodd" clip-rule="evenodd" d="M2.77023 3.70574C2.67146 3.70574 2.59409 3.76605 2.59409 3.84098V3.99174C2.59409 4.06575 2.67311 4.12697 2.77023 4.12697C2.86736 4.12697 2.94473 4.06667 2.94473 3.99083V3.84098C2.94473 3.76605 2.86571 3.70574 2.77023 3.70574ZM2.77023 3.64178C2.73104 3.64202 2.69232 3.64657 2.65632 3.65517C2.62031 3.66377 2.58774 3.67625 2.56049 3.69189C2.53323 3.70753 2.51184 3.72601 2.49755 3.74627C2.48325 3.76653 2.47634 3.78816 2.47722 3.80991V4.02189C2.4759 4.04372 2.48243 4.06547 2.49642 4.08589C2.51041 4.1063 2.53159 4.12496 2.55871 4.14078C2.58583 4.1566 2.61836 4.16926 2.65439 4.17803C2.69043 4.1868 2.72925 4.1915 2.76859 4.19185C2.93156 4.19185 3.0616 4.11601 3.0616 4.02189V3.80991C3.0627 3.78816 3.05601 3.7665 3.04191 3.7462C3.02782 3.72589 3.00661 3.70734 2.97951 3.69162C2.95241 3.6759 2.91996 3.66331 2.88403 3.6546C2.84811 3.64589 2.80943 3.64122 2.77023 3.64087V3.64178Z" fill="white" stroke="#EF2D28" stroke-width="0.0110433"/>
<path fill-rule="evenodd" clip-rule="evenodd" d="M4.87741 3.73437C4.77864 3.73437 4.70127 3.79468 4.70127 3.8696V4.02037C4.70127 4.09438 4.78029 4.1556 4.87741 4.1556C4.97453 4.1556 5.0519 4.09529 5.0519 4.01945V3.8696C5.0519 3.79468 4.97289 3.73437 4.87741 3.73437ZM4.87741 3.67041C4.83822 3.67064 4.7995 3.6752 4.76349 3.6838C4.72749 3.6924 4.69492 3.70488 4.66766 3.72051C4.64041 3.73615 4.61902 3.75463 4.60472 3.77489C4.59043 3.79515 4.58352 3.81678 4.58439 3.83853V4.05052C4.58308 4.07235 4.58961 4.0941 4.6036 4.11451C4.61759 4.13492 4.63876 4.15358 4.66589 4.1694C4.69301 4.18522 4.72554 4.19789 4.76157 4.20666C4.79761 4.21542 4.83643 4.22012 4.87577 4.22047C5.03874 4.22047 5.16878 4.14463 5.16878 4.05052V3.83853C5.16988 3.81678 5.16318 3.79513 5.14909 3.77482C5.135 3.75452 5.11379 3.73597 5.08669 3.72024C5.05959 3.70452 5.02714 3.69194 4.99121 3.68323C4.95529 3.67452 4.91661 3.66985 4.87741 3.66949V3.67041Z" fill="white" stroke="#EF2D28" stroke-width="0.0110433"/>
<path d="M4.69333 3.84387H4.34672C4.3351 3.84387 4.32568 3.85778 4.32568 3.87494V3.98695C4.32568 4.00411 4.3351 4.01802 4.34672 4.01802H4.69333C4.70494 4.01802 4.71436 4.00411 4.71436 3.98695V3.87494C4.71436 3.85778 4.70494 3.84387 4.69333 3.84387Z" fill="white" stroke="#EF2D28" stroke-width="0.0112466"/>
<path d="M4.18275 3.81525H3.98155C3.97448 3.81525 3.96875 3.83355 3.96875 3.85613V4.00656C3.96875 4.02914 3.97448 4.04744 3.98155 4.04744H4.18275C4.18982 4.04744 4.19555 4.02914 4.19555 4.00656V3.85613C4.19555 3.83355 4.18982 3.81525 4.18275 3.81525Z" fill="white" stroke="#EF2D28" stroke-width="0.0112466"/>
<path d="M3.11317 3.81525H2.91197C2.9049 3.81525 2.89917 3.83355 2.89917 3.85613V4.00656C2.89917 4.02914 2.9049 4.04744 2.91197 4.04744H3.11317C3.12024 4.04744 3.12597 4.02914 3.12597 4.00656V3.85613C3.12597 3.83355 3.12024 3.81525 3.11317 3.81525Z" fill="white" stroke="#EF2D28" stroke-width="0.0112466"/>
<path d="M2.61446 3.78583H2.21024C2.1966 3.78583 2.18555 3.80889 2.18555 3.83734V4.02374C2.18555 4.05219 2.1966 4.07525 2.21024 4.07525H2.61446C2.6281 4.07525 2.63916 4.05219 2.63916 4.02374V3.83734C2.63916 3.80889 2.6281 3.78583 2.61446 3.78583Z" fill="white" stroke="#EF2D28" stroke-width="0.0112466"/>
<path d="M5.40508 3.81525H5.02921C5.01658 3.81525 5.00635 3.83831 5.00635 3.86675V4.05316C5.00635 4.08161 5.01658 4.10467 5.02921 4.10467H5.40508C5.41771 4.10467 5.42795 4.08161 5.42795 4.05316V3.86675C5.42795 3.83831 5.41771 3.81525 5.40508 3.81525Z" fill="white" stroke="#EF2D28" stroke-width="0.0112466"/>
</g>
</g>
<defs>
<clipPath id="clip0_720_53320">
<rect width="24.0044" height="24.0044" fill="white" transform="translate(0.0305176 0.0656738)"/>
</clipPath>
</defs>
</svg>
