<svg width="25" height="25" viewBox="0 0 25 25" fill="none" xmlns="http://www.w3.org/2000/svg">
<g clip-path="url(#clip0_720_53399)">
<mask id="mask0_720_53399" style="mask-type:luminance" maskUnits="userSpaceOnUse" x="0" y="0" width="25" height="25">
<path d="M0.0349121 0.0654907H24.0393V24.0699H0.0349121V0.0654907Z" fill="white"/>
</mask>
<g mask="url(#mask0_720_53399)">
<path fill-rule="evenodd" clip-rule="evenodd" d="M-4.4187 0.0654907H31.5878V24.0699H-4.4187V0.0654907Z" fill="#0C590B"/>
<path fill-rule="evenodd" clip-rule="evenodd" d="M-4.4187 0.0654907H4.60638V24.0699H-4.4187V0.0654907Z" fill="white"/>
<path fill-rule="evenodd" clip-rule="evenodd" d="M18.9626 10.6331L17.4998 10.3237L16.731 11.6036L16.5716 10.1221L15.1182 9.78454L16.4778 9.17505L16.3512 7.68884L17.3545 8.79529L18.7282 8.21394L17.9827 9.50792L18.9673 10.6331H18.9626Z" fill="white"/>
<path fill-rule="evenodd" clip-rule="evenodd" d="M19.5111 14.4119C19.2001 15.0936 18.7571 15.7069 18.2078 16.2164C17.6584 16.7259 17.0135 17.1216 16.3104 17.3805C15.6073 17.6395 14.8598 17.7565 14.1112 17.725C13.3626 17.6935 12.6277 17.5139 11.9488 17.1968C11.2662 16.8814 10.6525 16.4346 10.1428 15.8818C9.63305 15.329 9.23732 14.6811 8.97822 13.9753C8.71913 13.2694 8.60175 12.5194 8.63281 11.7681C8.66387 11.0168 8.84276 10.279 9.15923 9.59695C9.47699 8.88937 9.9388 8.25582 10.5152 7.73676C11.0916 7.2177 11.7698 6.82452 12.5067 6.58234C12.3137 6.74307 12.129 6.91364 11.9535 7.09337C11.0388 8.10637 10.5532 9.43499 10.5992 10.7991C10.6451 12.1632 11.219 13.4561 12.1997 14.4053C13.1805 15.3544 14.4916 15.8856 15.8564 15.8869C17.2213 15.8881 18.5333 15.3593 19.5158 14.4119H19.5111Z" fill="white"/>
</g>
</g>
<defs>
<clipPath id="clip0_720_53399">
<rect width="24.0044" height="24.0044" fill="white" transform="translate(0.0349121 0.0656738)"/>
</clipPath>
</defs>
</svg>
