<svg width="25" height="25" viewBox="0 0 25 25" fill="none" xmlns="http://www.w3.org/2000/svg">
<g clip-path="url(#clip0_720_53318)">
<mask id="mask0_720_53318" style="mask-type:luminance" maskUnits="userSpaceOnUse" x="0" y="0" width="25" height="25">
<path d="M0.0090332 0.0698853H24.0097V24.0706H0.0090332V0.0698853Z" fill="white"/>
</mask>
<g mask="url(#mask0_720_53318)">
<path fill-rule="evenodd" clip-rule="evenodd" d="M-3.90623 0.0698242L-3.93042 24.0705H27.9576L-3.90623 0.0698242Z" fill="#000001"/>
<path fill-rule="evenodd" clip-rule="evenodd" d="M27.9334 24.0705L27.9576 0.0698242H-3.93042L27.9334 24.0705Z" fill="#FF0000"/>
<path d="M15.7595 6.041L15.3336 6.02165C15.203 5.71196 14.8352 5.59583 14.6078 5.73131C14.4046 5.74583 13.3255 5.71196 13.3255 5.71196L14.1143 6.05552C14.3078 6.58295 14.9852 6.70876 14.9852 6.70876C14.9272 7.67653 14.003 6.58295 13.2287 7.13458C12.6771 7.46846 12.6674 7.86041 12.3674 8.50398C12.221 8.7262 12.0593 8.938 11.8835 9.13786L12.5368 9.08948L12.3287 9.36045L13.1029 9.24916C13.1029 9.24916 13.0013 9.33626 12.9384 9.404C13.0545 9.4282 13.8239 9.22496 13.8239 9.22496L13.7707 9.47175C14.1626 9.31206 14.6514 9.15238 14.6514 9.15238C14.6514 9.15238 14.8256 9.29755 14.9852 9.36045L15.0965 8.92012L15.5369 9.03141L15.6482 8.58624C16.3111 9.47175 16.5337 10.3573 17.7482 10.5798L17.6369 10.1347C17.9757 10.2798 18.6047 10.5895 18.6047 10.5895L18.7015 10.3863C19.2289 10.7637 19.6693 10.7589 19.9596 10.7976L19.7418 10.246L19.9644 10.3573L19.6305 9.47175L19.9644 9.58304L19.5192 8.92012L19.6838 8.80882L19.6354 8.47494C20.2935 8.69753 21.1838 9.03141 21.2903 9.80563C21.4016 11.0202 20.0709 11.3541 19.1902 11.2428C19.8531 11.7944 21.0677 11.5718 21.6241 11.0202C21.8341 10.7609 21.9844 10.4586 22.0645 10.1347C22.1758 10.4685 22.3984 10.9089 22.3984 11.3541C22.2871 12.346 20.9564 12.6799 20.0757 12.7912C21.0677 13.3428 22.8387 12.6799 22.95 11.2428C22.95 10.0234 22.1758 9.47175 21.8419 8.92012L21.7306 8.32494C21.779 8.33462 22.0645 8.47978 22.0645 8.47978C22.0645 8.47978 21.8709 8.11203 21.8419 8.03461C21.8419 8.03461 21.4983 7.09587 21.3725 6.8878C21.3919 6.87328 21.6241 6.92651 21.6241 6.92651L20.7144 5.78938L20.9709 5.76035C20.9709 5.76035 19.9257 4.9329 19.6354 4.82645L19.9693 4.71516C19.3015 4.38611 18.5273 4.60386 17.8644 5.04904L17.9757 4.71516L17.7724 4.73451V4.35708L17.9757 4.05223L17.6466 3.94094L17.8644 3.38931L17.5353 3.50061L17.6466 2.94414C17.6466 2.94414 17.395 3.06027 17.245 3.04091C17.2498 3.05543 17.424 2.66832 17.424 2.66832C17.3176 2.5038 17.424 2.16992 17.424 2.16992C16.6498 2.28122 16.5385 2.39251 16.0982 3.05543C15.4304 4.27482 15.653 4.82645 15.7643 6.041H15.7595Z" fill="#FFCC00" stroke="#FFCC00" stroke-width="0.111294"/>
<path fill-rule="evenodd" clip-rule="evenodd" d="M19.9401 7.86041C19.9982 7.95714 20.6221 8.25701 21.0961 8.52785C20.9703 8.01518 20.0465 7.90394 19.9353 7.86041H19.9401Z" fill="#FF0000" stroke="#FF0000" stroke-width="0.145165"/>
<path fill-rule="evenodd" clip-rule="evenodd" d="M4.73163 20.0253L4.02516 19.5753L3.08158 20.0301L3.29449 19.2221L2.56867 18.4624L3.40579 18.414L3.90419 17.4946L4.20904 18.2688L5.23487 18.4575L4.5913 18.9898L4.73163 20.0253ZM6.53652 16.0768L6.20748 15.922L5.89779 16.101L5.94618 15.7429L5.67521 15.501L6.03328 15.4332L6.17845 15.1042L6.35265 15.4236L6.71072 15.4623L6.4591 15.7236L6.53652 16.0768ZM8.1285 13.8122L7.41235 13.4638L6.71556 13.8509L6.82685 13.067L6.24135 12.5251L7.02525 12.3896L7.35429 11.6638L7.73172 12.3702L8.52045 12.4573L7.97366 13.038L8.1285 13.8122ZM4.8526 10.667L4.01064 10.2412L3.18804 10.696L3.32353 9.76695L2.63641 9.11854L3.56547 8.96854L3.96709 8.11206L4.40259 8.94918L5.33649 9.06531L4.67356 9.74275L4.8526 10.667ZM1.82832 13.9332L0.976684 13.43L0.129886 13.9477L0.347634 12.9799L-0.407227 12.3364L0.579898 12.2396L0.962168 11.3251L1.34928 12.2348L2.34124 12.317L1.6009 12.9703L1.82832 13.9332Z" fill="white"/>
</g>
</g>
<defs>
<clipPath id="clip0_720_53318">
<rect width="24.0044" height="24.0044" fill="white" transform="translate(0.00878906 0.0700684)"/>
</clipPath>
</defs>
</svg>
