<svg width="25" height="25" viewBox="0 0 25 25" fill="none" xmlns="http://www.w3.org/2000/svg">
<g clip-path="url(#clip0_720_53315)">
<path d="M0.0131836 16.0573H24.0176V24.0744H0.0131836V16.0573Z" fill="#0038A8"/>
<path d="M0.0131836 8.07306H24.0176V16.0714H0.0131836V8.07306Z" fill="white"/>
<path d="M0.0134277 0.0700073H24.0178V8.07303H0.0134277V0.0700073Z" fill="#D52B1E"/>
<path d="M12.0372 15.1419C13.7325 15.1419 15.1068 13.7675 15.1068 12.0722C15.1068 10.3769 13.7325 9.00256 12.0372 9.00256C10.3419 9.00256 8.96753 10.3769 8.96753 12.0722C8.96753 13.7675 10.3419 15.1419 12.0372 15.1419Z" stroke="black" stroke-width="0.0800148"/>
<path d="M12.0368 14.5964C13.4308 14.5964 14.5609 13.4663 14.5609 12.0723C14.5609 10.6782 13.4308 9.54816 12.0368 9.54816C10.6428 9.54816 9.5127 10.6782 9.5127 12.0723C9.5127 13.4663 10.6428 14.5964 12.0368 14.5964Z" stroke="black" stroke-width="0.0363704"/>
<path d="M12.037 14.0071C13.1056 14.0071 13.9719 13.1409 13.9719 12.0722C13.9719 11.0036 13.1056 10.1373 12.037 10.1373C10.9683 10.1373 10.1021 11.0036 10.1021 12.0722C10.1021 13.1409 10.9683 14.0071 12.037 14.0071Z" stroke="black" stroke-width="0.0290963"/>
<path d="M10.4027 13.2584L10.0464 13.4693L9.93854 13.2818L9.90103 13.2021C9.89719 13.1813 9.9005 13.1598 9.91041 13.1411C9.91978 13.1193 9.93541 13.1021 9.95729 13.0896C9.97301 13.0767 9.99248 13.0693 10.0128 13.0685C10.0331 13.0676 10.0531 13.0734 10.0698 13.0849L10.1073 13.113V13.0802L10.112 13.0521L10.1261 13.0192L10.1964 12.9067L10.2714 13.0286L10.1964 13.1552L10.1823 13.1927L10.187 13.2208L10.1964 13.2302L10.337 13.1458L10.4027 13.2584ZM10.1261 13.2724L10.0979 13.2255L10.0792 13.1974L10.0557 13.188L10.0323 13.1927C10.0198 13.199 10.012 13.2083 10.0089 13.2208L10.0276 13.2677L10.0557 13.3146L10.1261 13.2724ZM9.7932 12.9958L9.68537 12.6676L9.76976 12.6442L9.83539 12.8458L9.89634 12.827L9.83539 12.6395L9.91509 12.6114L9.97604 12.7989L10.0557 12.7755L9.98542 12.5645L10.0792 12.5363L10.187 12.8645L9.7932 12.9958ZM9.65255 12.5129L9.62442 12.3019C9.62129 12.255 9.62911 12.2191 9.64786 12.1941C9.66661 12.1691 9.6963 12.1535 9.73694 12.1472C9.77757 12.1472 9.81195 12.1566 9.84008 12.1753C9.86509 12.2003 9.88071 12.2379 9.88696 12.2879L9.89634 12.3535L10.0464 12.3394L10.0604 12.466L9.65255 12.5129ZM9.81195 12.3676L9.80726 12.3347C9.80726 12.3097 9.80101 12.2941 9.78851 12.2879L9.75569 12.2738L9.72287 12.2879C9.71662 12.2972 9.7135 12.3144 9.7135 12.3394L9.71818 12.3769L9.81195 12.3676ZM9.63848 11.7346L9.65255 11.6081L9.89634 11.6362C9.92135 11.6362 9.94322 11.6424 9.96198 11.6549C9.98698 11.6643 10.0057 11.6784 10.0182 11.6971L10.0464 11.7534C10.0535 11.7827 10.0535 11.8132 10.0464 11.8425L10.037 11.9081C10.037 11.9331 10.0292 11.9519 10.0136 11.9644L9.97604 12.0019L9.92447 12.0253C9.89947 12.0316 9.87602 12.0331 9.85415 12.03L9.61035 12.0019L9.62442 11.8753L9.8729 11.9034C9.8979 11.9034 9.91666 11.8987 9.92916 11.8894C9.94166 11.88 9.94948 11.8643 9.9526 11.8425L9.93854 11.7862C9.92916 11.7737 9.91353 11.7659 9.89165 11.7628L9.63848 11.7346ZM9.69005 11.4346L9.76976 11.2049C9.78226 11.1673 9.80257 11.1423 9.8307 11.1298C9.84283 11.1232 9.85625 11.1194 9.87003 11.1186C9.88381 11.1178 9.8976 11.12 9.91041 11.1252C9.92929 11.1322 9.94541 11.1451 9.95639 11.162C9.96737 11.1788 9.97261 11.1988 9.97135 11.2189C9.99011 11.1877 10.0089 11.172 10.0276 11.172C10.0502 11.1629 10.0754 11.1629 10.0979 11.172C10.1179 11.176 10.136 11.1864 10.1496 11.2017C10.1631 11.2169 10.1713 11.2361 10.173 11.2564V11.3033L10.1542 11.3596L10.0839 11.5705L9.69005 11.4346ZM9.88696 11.3643L9.90572 11.3127C9.91509 11.2939 9.91666 11.2783 9.91041 11.2658C9.91041 11.2596 9.90259 11.2533 9.88696 11.247H9.85415L9.8307 11.2846L9.81195 11.3408L9.88696 11.3643ZM10.0417 11.4205L10.0651 11.3549V11.308L10.0417 11.2846H10.0089C9.99948 11.2939 9.99167 11.3096 9.98542 11.3314L9.96198 11.3924L10.0417 11.4205ZM9.88696 10.9376L9.9526 10.8251L10.2198 10.9845L10.323 10.8157L10.4121 10.8673L10.2433 11.1486L9.88696 10.9376ZM10.1401 10.5579L10.2198 10.4594L10.5386 10.722L10.4543 10.8204L10.1401 10.5579ZM10.6934 10.3422L10.8012 10.2953C10.8168 10.3234 10.8246 10.3516 10.8246 10.3797C10.827 10.4055 10.8221 10.4315 10.8106 10.4547L10.7543 10.525C10.727 10.5497 10.6952 10.5689 10.6605 10.5813C10.6293 10.5907 10.5949 10.5907 10.5574 10.5813C10.5145 10.5658 10.477 10.5381 10.4496 10.5016C10.4027 10.4516 10.3824 10.4 10.3886 10.3469C10.3886 10.2937 10.4152 10.2469 10.4683 10.2062C10.5 10.1776 10.5389 10.1581 10.5808 10.15C10.6219 10.1462 10.6631 10.1561 10.698 10.1781L10.6277 10.2719L10.5996 10.2578H10.5668L10.534 10.2766C10.5121 10.2953 10.5027 10.3188 10.5058 10.3469C10.5058 10.3688 10.5199 10.3922 10.548 10.4172C10.5793 10.4547 10.6043 10.475 10.623 10.4782C10.6418 10.4813 10.6621 10.475 10.684 10.4594C10.7059 10.4438 10.7152 10.4266 10.7121 10.4078C10.7121 10.3891 10.7059 10.3672 10.6934 10.3422ZM11.1341 10.1828L11.0075 10.2531L11.0215 10.3234L10.9043 10.3844L10.8481 9.94369L10.97 9.87805L11.3028 10.1734L11.1856 10.2344L11.1341 10.1828ZM11.0684 10.1172L10.9606 10.0093L10.9887 10.1593L11.0684 10.1172ZM11.4623 9.6952L11.6498 9.66238C11.6807 9.65607 11.7126 9.65607 11.7436 9.66238C11.7654 9.66551 11.7857 9.67645 11.8045 9.6952C11.8233 9.70771 11.8389 9.72646 11.8514 9.75146L11.8701 9.83117C11.8795 9.87805 11.8795 9.91243 11.8701 9.93431L11.842 10.0046L11.7951 10.0468L11.7201 10.0703L11.5326 10.1031L11.4623 9.6952ZM11.6029 9.76553L11.6404 9.98588H11.6732C11.6982 9.97963 11.7154 9.97182 11.7248 9.96244C11.7342 9.95306 11.742 9.94212 11.7482 9.92962V9.85461C11.7389 9.81085 11.7264 9.78272 11.7107 9.77022C11.6889 9.75459 11.6639 9.75146 11.6357 9.76084L11.6029 9.76553ZM11.992 9.62488L12.3343 9.63425V9.72802L12.1186 9.71864L12.1139 9.78428L12.3108 9.78897V9.87336L12.1092 9.86867V9.94837L12.3296 9.95775L12.3249 10.0515L11.9733 10.0375L11.992 9.62488ZM12.489 9.66238L12.6156 9.69051L12.5406 9.99526L12.7328 10.0421L12.7094 10.1406L12.3905 10.0656L12.489 9.66238ZM13.1547 9.88274L13.3376 9.99057C13.3782 10.0124 13.4032 10.039 13.4126 10.0703C13.4189 10.1015 13.4126 10.1343 13.3939 10.1687C13.3755 10.2009 13.3451 10.2244 13.3095 10.2344C13.2782 10.2437 13.2391 10.2344 13.1923 10.2062L13.1313 10.1734L13.0563 10.3047L12.9438 10.2391L13.1547 9.88274ZM13.1782 10.0984L13.2016 10.1172L13.2532 10.1312L13.2813 10.1125L13.2907 10.075C13.2876 10.0625 13.2751 10.05 13.2532 10.0375L13.2251 10.0187L13.1782 10.0984ZM13.5345 10.5813L13.4267 10.4828L13.3657 10.5204L13.272 10.4266L13.6658 10.2344L13.7689 10.3281L13.6001 10.736L13.5064 10.6423L13.5345 10.5813ZM13.5767 10.4969L13.6423 10.3563L13.5111 10.436L13.5767 10.4969ZM13.6236 10.7735L13.9658 10.5391L14.0877 10.7126L14.1346 10.797L14.1299 10.8579C14.1205 10.8767 14.1049 10.8939 14.083 10.9095C14.0674 10.9233 14.0476 10.9316 14.0268 10.9329L13.9705 10.9236L13.933 10.8954V10.9611L13.9189 10.9892L13.8533 11.1064L13.7736 10.9892L13.8392 10.8626L13.8533 10.8251L13.8439 10.7923L13.8346 10.7829L13.6939 10.8767L13.6236 10.7735ZM13.9049 10.7407L13.933 10.7876L13.9565 10.8063L13.9799 10.8204L14.0033 10.811L14.0221 10.7829L14.0033 10.736L13.9705 10.6891L13.9049 10.7407ZM14.0315 11.3596L13.9752 11.2236L13.9049 11.2283L13.858 11.1111L14.2987 11.1017L14.3456 11.2283L14.0221 11.5283L13.9752 11.4018L14.0315 11.3596ZM14.1018 11.3033L14.2237 11.2049L14.069 11.2142L14.1018 11.3033ZM14.2096 11.7534L14.294 11.7393L14.3268 11.9362L14.1487 11.9644L14.083 11.8706C14.0488 11.8007 14.0405 11.721 14.0596 11.6456C14.0721 11.6143 14.094 11.5877 14.1252 11.5659C14.1571 11.543 14.1942 11.5285 14.2331 11.5237C14.2738 11.5159 14.3159 11.5192 14.355 11.533C14.3912 11.5467 14.4223 11.5713 14.444 11.6034C14.4597 11.6315 14.4706 11.6674 14.4769 11.7112V11.8143L14.4534 11.8753L14.3925 11.9222L14.3503 11.8003C14.3628 11.794 14.3737 11.7846 14.3831 11.7721C14.3893 11.7565 14.3909 11.7409 14.3878 11.7253C14.3864 11.7123 14.3824 11.6998 14.3759 11.6885C14.3695 11.6772 14.3607 11.6674 14.3503 11.6596C14.3253 11.6471 14.294 11.644 14.2565 11.6502C14.2096 11.6565 14.1784 11.669 14.1627 11.6878C14.1545 11.6982 14.1485 11.7103 14.1453 11.7232C14.142 11.7362 14.1416 11.7496 14.144 11.7628L14.1581 11.805L14.1862 11.8425H14.2237L14.2096 11.7534ZM14.4816 12.3535L14.4675 12.4801L14.2237 12.4613L14.1581 12.4426L14.1018 12.4004L14.0737 12.3488L14.069 12.255L14.0784 12.1894L14.0971 12.1331L14.1393 12.091L14.1862 12.0675H14.2612L14.505 12.0863L14.4956 12.2128L14.2424 12.1894C14.2206 12.1894 14.2018 12.1941 14.1862 12.2035C14.1737 12.216 14.1659 12.2332 14.1627 12.255C14.1596 12.2769 14.1643 12.2941 14.1768 12.3066C14.1893 12.3222 14.2065 12.3301 14.2284 12.3301L14.4816 12.3535ZM14.0221 12.7942L14.069 12.6536L14.0127 12.6114L14.0502 12.4895L14.3972 12.7661L14.3503 12.8973L13.9096 12.9161L13.9565 12.7895L14.0221 12.7942ZM14.1159 12.7942H14.2706L14.144 12.7098L14.1159 12.7942ZM14.2659 13.1318L14.1909 13.2537H14.0315L14.1065 13.3943L14.0315 13.5162L13.9096 13.2537L13.7595 13.1693L13.8252 13.0568L13.9752 13.1458L14.2659 13.1318Z" fill="black"/>
<path d="M12.4468 10.6375C12.4468 10.6375 13.6142 11.1439 13.4079 12.1847C13.2016 13.2255 12.5546 13.2161 12.3014 13.3286C12.0436 13.4458 11.8701 13.6099 11.767 13.5865C11.6685 13.563 11.5325 13.4833 11.5325 13.4833C11.5325 13.4833 11.5232 13.6568 11.7294 13.6849C11.9357 13.7178 12.1983 13.4177 12.3342 13.3849C12.4702 13.3521 13.2532 13.263 13.4501 12.2081C13.6751 11.0782 12.4515 10.6703 12.4468 10.6375Z" fill="#009B3A" stroke="black" stroke-width="0.00468835"/>
<path d="M13.0326 10.8624C13.0388 10.8956 13.0413 10.9249 13.0397 10.9458C13.0382 10.9668 13.0327 10.9782 13.0241 10.9782C13.0155 10.9782 13.0043 10.9668 12.9923 10.9458C12.9803 10.9249 12.9681 10.8956 12.9576 10.8624C12.9505 10.8396 12.9443 10.8158 12.9398 10.7927C12.9352 10.7697 12.9322 10.748 12.9312 10.7294C12.9302 10.7108 12.931 10.6957 12.9337 10.6854C12.9365 10.675 12.9409 10.6696 12.9468 10.6696C12.9528 10.6696 12.9599 10.675 12.9678 10.6854C12.9757 10.6957 12.9841 10.7108 12.9924 10.7294C13.0007 10.748 13.0086 10.7697 13.0156 10.7927C13.0226 10.8158 13.0284 10.8396 13.0326 10.8624ZM12.9951 10.8718C13.0068 10.8929 13.0176 10.915 13.0269 10.9367C13.0361 10.9584 13.0435 10.9791 13.0485 10.9972C13.0536 11.0153 13.0561 11.0304 13.0559 11.0414C13.0557 11.0524 13.0528 11.0591 13.0475 11.0609C13.0421 11.0626 13.0345 11.0595 13.025 11.0517C13.0155 11.0439 13.0045 11.0316 12.9927 11.0158C12.981 10.9999 12.9688 10.9808 12.957 10.96C12.9453 10.9391 12.9343 10.917 12.9248 10.8952C12.9102 10.8617 12.9001 10.8306 12.896 10.8072C12.8919 10.7839 12.8942 10.7696 12.9024 10.7669C12.9106 10.7641 12.9244 10.773 12.9412 10.7921C12.9581 10.8113 12.9771 10.8394 12.9951 10.8718ZM12.878 10.9468C12.8985 10.9528 12.9187 10.9598 12.9374 10.9674C12.9561 10.975 12.973 10.983 12.987 10.9909C13.0011 10.9989 13.0121 11.0067 13.0194 11.0138C13.0266 11.021 13.0301 11.0273 13.0295 11.0326C13.0288 11.0378 13.0242 11.0418 13.0158 11.0443C13.0074 11.0468 12.9953 11.0478 12.9804 11.0473C12.9655 11.0467 12.9479 11.0446 12.9287 11.041C12.9095 11.0374 12.8891 11.0325 12.8686 11.0265C12.8272 11.0143 12.7879 10.9984 12.7595 10.9823C12.7311 10.9662 12.7159 10.9513 12.7171 10.9407C12.7184 10.9301 12.736 10.9248 12.7662 10.926C12.7963 10.9271 12.8366 10.9346 12.878 10.9468Z" fill="#009B3A" stroke="black" stroke-width="0.00468835"/>
<path d="M12.8968 10.9047C12.9147 10.9168 12.932 10.9296 12.9476 10.9425C12.9633 10.9553 12.977 10.9678 12.9879 10.9794C12.9989 10.991 13.0069 11.0014 13.0115 11.01C13.0161 11.0186 13.0172 11.0253 13.0147 11.0296C13.0122 11.0339 13.0063 11.0358 12.9971 11.0351C12.988 11.0345 12.9758 11.0313 12.9614 11.0258C12.947 11.0203 12.9305 11.0126 12.913 11.0031C12.8955 10.9935 12.8772 10.9824 12.8593 10.9703C12.8386 10.9581 12.8176 10.9442 12.7978 10.9296C12.7781 10.9149 12.7602 10.9 12.7455 10.8859C12.7307 10.8718 12.7195 10.859 12.7128 10.8483C12.706 10.8376 12.7038 10.8293 12.7064 10.8242C12.7089 10.819 12.7162 10.8171 12.7276 10.8186C12.739 10.8201 12.7542 10.8248 12.7721 10.8326C12.79 10.8404 12.8101 10.8509 12.8309 10.8634C12.8517 10.8759 12.8726 10.89 12.8921 10.9047H12.8968Z" fill="#009B3A" stroke="black" stroke-width="0.00468835"/>
<path d="M12.9438 10.886C12.9638 10.9024 12.9848 10.9221 13.0048 10.9432C13.0248 10.9643 13.0432 10.986 13.0581 11.0064C13.073 11.0267 13.0839 11.0449 13.0899 11.0592C13.0958 11.0735 13.0965 11.0834 13.092 11.088C13.0874 11.0926 13.0777 11.0916 13.0638 11.0853C13.0499 11.0789 13.0323 11.0674 13.0126 11.0518C12.993 11.0362 12.9721 11.017 12.9518 10.9962C12.9315 10.9753 12.9126 10.9535 12.8969 10.9328C12.8804 10.9111 12.8681 10.8913 12.8613 10.8758C12.8544 10.8603 12.8534 10.8495 12.8582 10.8447C12.863 10.8399 12.8735 10.8412 12.8886 10.8485C12.9037 10.8557 12.9228 10.8687 12.9438 10.886Z" fill="#009B3A" stroke="black" stroke-width="0.00468835"/>
<path d="M13.0233 11.0312L12.9718 11.0594C12.9577 11.064 12.9437 11.0453 12.9156 11.0594C12.8874 11.0812 12.8687 11.1015 12.8593 11.1203C12.85 11.139 12.8656 11.1421 12.9062 11.1296C12.9374 11.1078 12.9577 11.089 12.9671 11.0734C12.9812 11.0594 13.014 11.0453 13.028 11.0406L13.0749 10.9703C13.0843 10.9516 13.1311 10.9235 13.1499 10.8813C13.1639 10.8532 13.1592 10.825 13.1358 10.8344C13.1122 10.8516 13.093 10.8741 13.0796 10.9C13.0655 10.9235 13.0796 10.9469 13.0655 10.9703L13.0233 11.0312ZM13.3889 11.1531C13.3899 11.2217 13.3849 11.286 13.3751 11.3319C13.3653 11.3778 13.3514 11.4015 13.3365 11.3978C13.3216 11.3941 13.3069 11.3632 13.2956 11.3121C13.2843 11.2609 13.2774 11.1936 13.2764 11.125C13.2759 11.091 13.2768 11.0577 13.2792 11.027C13.2815 10.9963 13.2853 10.9688 13.2901 10.9461C13.295 10.9234 13.3009 10.9058 13.3075 10.8945C13.3142 10.8832 13.3214 10.8784 13.3288 10.8802C13.3361 10.8821 13.3436 10.8906 13.3506 10.9053C13.3576 10.92 13.3641 10.9406 13.3697 10.966C13.3752 10.9913 13.3798 11.0209 13.3831 11.053C13.3864 11.0851 13.3883 11.1191 13.3889 11.1531Z" fill="#009B3A" stroke="black" stroke-width="0.00468835"/>
<path d="M13.3281 11.1484C13.3423 11.2148 13.3502 11.2787 13.3501 11.3261C13.3501 11.3735 13.342 11.4004 13.3277 11.4011C13.3134 11.4017 13.2941 11.3759 13.2739 11.3294C13.2538 11.2829 13.2345 11.2195 13.2203 11.1531C13.2134 11.1205 13.208 11.0883 13.2043 11.0582C13.2007 11.0281 13.1989 11.0008 13.199 10.9777C13.1991 10.9547 13.2012 10.9364 13.2051 10.924C13.209 10.9115 13.2146 10.9051 13.2217 10.9051C13.2288 10.9051 13.2372 10.9115 13.2463 10.924C13.2555 10.9364 13.2653 10.9547 13.2752 10.9777C13.2851 11.0008 13.2948 11.0281 13.3039 11.0582C13.313 11.0883 13.3212 11.1205 13.3281 11.1531V11.1484Z" fill="#009B3A" stroke="black" stroke-width="0.00468835"/>
<path d="M13.1407 11.2094C13.1695 11.2268 13.1986 11.2466 13.226 11.2675C13.2533 11.2884 13.2782 11.3098 13.2988 11.3301C13.3194 11.3504 13.3352 11.3691 13.345 11.3849C13.3548 11.4007 13.3584 11.4131 13.3556 11.4213C13.3527 11.4295 13.3435 11.4332 13.3285 11.4323C13.3135 11.4313 13.2932 11.4256 13.269 11.4156C13.2449 11.4056 13.2174 11.3916 13.1887 11.3746C13.16 11.3576 13.1308 11.338 13.1032 11.3172C13.0774 11.2998 13.0524 11.2811 13.0295 11.2622C13.0067 11.2433 12.9864 11.2246 12.9699 11.2071C12.9534 11.1895 12.9411 11.1736 12.9335 11.1601C12.9259 11.1466 12.9232 11.1359 12.9257 11.1285C12.9282 11.1211 12.9357 11.1172 12.9478 11.1171C12.9599 11.1169 12.9765 11.1205 12.9964 11.1275C13.0164 11.1346 13.0394 11.1451 13.0642 11.1583C13.0889 11.1716 13.1149 11.1873 13.1407 11.2047V11.2094Z" fill="#009B3A" stroke="black" stroke-width="0.00468835"/>
<path d="M13.1781 11.1532C13.2207 11.2048 13.2578 11.2586 13.2814 11.3026C13.3049 11.3466 13.3129 11.3772 13.3036 11.3878C13.2942 11.3983 13.2684 11.3879 13.2317 11.3589C13.195 11.3298 13.1504 11.2845 13.1078 11.2328C13.0867 11.2073 13.0667 11.1809 13.049 11.1553C13.0313 11.1296 13.0162 11.1052 13.0045 11.0834C12.9929 11.0617 12.9849 11.0429 12.9811 11.0283C12.9773 11.0137 12.9777 11.0035 12.9823 10.9982C12.9869 10.993 12.9957 10.9929 13.008 10.9978C13.0203 11.0028 13.036 11.0127 13.0542 11.0271C13.0724 11.0415 13.0927 11.06 13.1139 11.0817C13.1352 11.1033 13.157 11.1276 13.1781 11.1532Z" fill="#009B3A" stroke="black" stroke-width="0.00468835"/>
<path d="M13.2531 11.1484C13.2699 11.1799 13.2855 11.2116 13.2988 11.2418C13.3121 11.2721 13.323 11.3002 13.3308 11.3246C13.3385 11.349 13.3431 11.3692 13.3441 11.3841C13.3452 11.399 13.3427 11.4082 13.3369 11.4113C13.331 11.4144 13.3219 11.4112 13.3101 11.402C13.2982 11.3928 13.2839 11.3778 13.2678 11.3577C13.2518 11.3377 13.2343 11.313 13.2165 11.2851C13.1987 11.2573 13.1809 11.2267 13.164 11.1953C13.1472 11.1638 13.1317 11.1321 13.1183 11.1019C13.105 11.0716 13.0941 11.0435 13.0864 11.0191C13.0786 10.9947 13.074 10.9745 13.073 10.9596C13.0719 10.9447 13.0744 10.9355 13.0803 10.9324C13.0861 10.9293 13.0952 10.9325 13.1071 10.9417C13.1189 10.9509 13.1333 10.9659 13.1493 10.986C13.1654 11.006 13.1828 11.0307 13.2006 11.0586C13.2184 11.0865 13.2362 11.117 13.2531 11.1484Z" fill="#009B3A" stroke="black" stroke-width="0.00468835"/>
<path d="M13.3187 11.3922L13.2297 11.4109C13.2156 11.4109 13.2016 11.3781 13.1547 11.3875C13.1078 11.3969 13.0704 11.4297 13.061 11.4484C13.0422 11.4734 13.061 11.4828 13.1172 11.4765C13.1735 11.4672 13.1922 11.4297 13.2203 11.425L13.3187 11.4062L13.4031 11.3266C13.4265 11.3032 13.4968 11.2797 13.5343 11.2329C13.5671 11.1954 13.5671 11.1579 13.5343 11.1626C13.4964 11.1757 13.4625 11.1982 13.4359 11.2282C13.4124 11.2563 13.4171 11.2985 13.389 11.3219L13.3187 11.3922ZM13.5765 11.6359C13.5709 11.6692 13.5641 11.7017 13.5564 11.7313C13.5487 11.761 13.5402 11.7873 13.5315 11.8087C13.5228 11.8302 13.514 11.8463 13.5057 11.8562C13.4973 11.8662 13.4895 11.8697 13.4827 11.8666C13.476 11.8635 13.4703 11.8539 13.4662 11.8383C13.4621 11.8227 13.4595 11.8014 13.4586 11.7756C13.4578 11.7498 13.4586 11.7201 13.4611 11.6881C13.4637 11.656 13.4678 11.6224 13.4734 11.589C13.4789 11.5556 13.4857 11.5232 13.4934 11.4935C13.5011 11.4639 13.5096 11.4376 13.5183 11.4161C13.527 11.3947 13.5358 11.3786 13.5442 11.3686C13.5525 11.3587 13.5603 11.3552 13.5671 11.3583C13.5739 11.3613 13.5795 11.371 13.5836 11.3866C13.5877 11.4022 13.5903 11.4235 13.5912 11.4493C13.5921 11.4751 13.5912 11.5048 13.5887 11.5368C13.5861 11.5688 13.582 11.6025 13.5765 11.6359Z" fill="#009B3A" stroke="black" stroke-width="0.00468835"/>
<path d="M13.5156 11.6219C13.5192 11.6602 13.521 11.7007 13.5208 11.7401C13.5206 11.7794 13.5185 11.8164 13.5146 11.8481C13.5107 11.8798 13.5051 11.9053 13.4983 11.9224C13.4915 11.9396 13.4837 11.9479 13.4755 11.9467C13.4673 11.9456 13.459 11.9349 13.4512 11.9157C13.4434 11.8965 13.4364 11.8692 13.4307 11.8361C13.425 11.803 13.4208 11.7651 13.4184 11.7254C13.4161 11.6857 13.4157 11.6454 13.4172 11.6078C13.4155 11.5726 13.4153 11.5373 13.4167 11.5041C13.418 11.4709 13.4208 11.4407 13.425 11.4152C13.4291 11.3897 13.4344 11.3696 13.4406 11.3563C13.4468 11.3429 13.4538 11.3365 13.461 11.3374C13.4682 11.3384 13.4756 11.3468 13.4826 11.362C13.4896 11.3772 13.4961 11.3989 13.5017 11.4256C13.5073 11.4524 13.5118 11.4837 13.515 11.5175C13.5182 11.5513 13.52 11.5869 13.5203 11.6219H13.5156Z" fill="#009B3A" stroke="black" stroke-width="0.00468835"/>
<path d="M13.3281 11.6407C13.3505 11.6627 13.372 11.686 13.3915 11.7092C13.4109 11.7324 13.4279 11.7552 13.4413 11.776C13.4547 11.7968 13.4643 11.8153 13.4695 11.8304C13.4747 11.8455 13.4755 11.8569 13.4717 11.8638C13.4679 11.8707 13.4597 11.8731 13.4475 11.8708C13.4353 11.8685 13.4194 11.8615 13.4007 11.8503C13.382 11.8391 13.361 11.8239 13.3389 11.8056C13.3167 11.7873 13.2939 11.7663 13.2718 11.7438C13.2464 11.7215 13.2209 11.6963 13.1971 11.6701C13.1733 11.644 13.1519 11.6175 13.1345 11.5928C13.1171 11.5681 13.1043 11.5458 13.0968 11.5276C13.0894 11.5093 13.0877 11.4956 13.0917 11.4876C13.0958 11.4795 13.1055 11.4772 13.1202 11.4809C13.1348 11.4846 13.1541 11.4943 13.1764 11.509C13.1988 11.5238 13.2236 11.5433 13.2491 11.5662C13.2745 11.589 13.3 11.6145 13.3234 11.6407H13.3281Z" fill="#009B3A" stroke="black" stroke-width="0.00468835"/>
<path d="M13.3749 11.5985C13.3912 11.6283 13.4062 11.6587 13.4191 11.6879C13.432 11.717 13.4425 11.7445 13.4501 11.7686C13.4577 11.7927 13.4622 11.8131 13.4633 11.8285C13.4644 11.8438 13.4621 11.854 13.4566 11.8583C13.451 11.8626 13.4423 11.861 13.431 11.8536C13.4197 11.8461 13.4059 11.833 13.3905 11.815C13.3751 11.797 13.3583 11.7744 13.3412 11.7485C13.324 11.7226 13.3069 11.6939 13.2906 11.6641C13.272 11.6329 13.2541 11.5998 13.2383 11.5669C13.2225 11.5341 13.2092 11.5025 13.1992 11.4742C13.1893 11.4459 13.183 11.4218 13.1808 11.4034C13.1786 11.3851 13.1806 11.3731 13.1865 11.3682C13.1925 11.3632 13.2023 11.3656 13.2153 11.375C13.2283 11.3845 13.2441 11.4008 13.2617 11.4228C13.2792 11.4448 13.298 11.4719 13.3168 11.5023C13.3356 11.5327 13.3538 11.5655 13.3703 11.5985H13.3749Z" fill="#009B3A" stroke="black" stroke-width="0.00468835"/>
<path d="M13.4454 11.6032C13.4565 11.6378 13.4662 11.6726 13.474 11.7056C13.4818 11.7385 13.4876 11.769 13.491 11.7952C13.4945 11.8214 13.4955 11.8429 13.494 11.8585C13.4926 11.874 13.4886 11.8833 13.4825 11.8857C13.4763 11.8882 13.4681 11.8838 13.4582 11.8728C13.4483 11.8618 13.4369 11.8445 13.4248 11.8217C13.4126 11.799 13.3999 11.7713 13.3874 11.7402C13.3749 11.7091 13.3627 11.6753 13.3517 11.6407C13.3407 11.606 13.331 11.5713 13.3232 11.5383C13.3154 11.5054 13.3096 11.4749 13.3061 11.4487C13.3027 11.4224 13.3017 11.4009 13.3031 11.3854C13.3046 11.3699 13.3085 11.3606 13.3147 11.3581C13.3208 11.3557 13.3291 11.3601 13.339 11.3711C13.3489 11.382 13.3603 11.3994 13.3724 11.4222C13.3845 11.4449 13.3972 11.4726 13.4098 11.5037C13.4223 11.5347 13.4344 11.5686 13.4454 11.6032Z" fill="#009B3A" stroke="black" stroke-width="0.00468835"/>
<path d="M13.4688 11.8611H13.3751C13.361 11.8611 13.3563 11.8236 13.3095 11.8236C13.2563 11.8267 13.2204 11.8408 13.2017 11.8658C13.1829 11.8845 13.2001 11.897 13.2532 11.9033C13.3095 11.9033 13.3376 11.8752 13.3657 11.8705H13.4641L13.5578 11.8095C13.5859 11.7908 13.6656 11.7814 13.7078 11.7439C13.7453 11.7158 13.7546 11.6737 13.7218 11.6783C13.6809 11.6838 13.6421 11.6999 13.6094 11.7252C13.5812 11.7439 13.5812 11.7861 13.5484 11.8049L13.4641 11.8611M13.5906 12.1751C13.5547 12.2324 13.5163 12.2829 13.4838 12.3155C13.4514 12.3481 13.4276 12.3601 13.4177 12.349C13.4077 12.3378 13.4124 12.3043 13.4308 12.2559C13.4492 12.2074 13.4797 12.148 13.5156 12.0907C13.5516 12.0334 13.59 11.9829 13.6224 11.9503C13.6548 11.9177 13.6787 11.9056 13.6886 11.9168C13.6985 11.928 13.6938 11.9615 13.6754 12.0099C13.6571 12.0584 13.6265 12.1178 13.5906 12.1751Z" fill="#009B3A"/>
<path d="M13.4688 11.8611H13.3751C13.361 11.8611 13.3563 11.8236 13.3095 11.8236C13.2563 11.8267 13.2204 11.8408 13.2017 11.8658C13.1829 11.8845 13.2001 11.897 13.2532 11.9033C13.3095 11.9033 13.3376 11.8752 13.3657 11.8705H13.4641L13.5578 11.8095C13.5859 11.7908 13.6656 11.7814 13.7078 11.7439C13.7453 11.7158 13.7546 11.6737 13.7218 11.6783C13.6809 11.6838 13.6421 11.6999 13.6094 11.7252C13.5812 11.7439 13.5812 11.7861 13.5484 11.8049L13.4641 11.8611M13.5906 12.1751C13.5547 12.2324 13.5163 12.2829 13.4838 12.3155C13.4514 12.3481 13.4276 12.3601 13.4177 12.349C13.4077 12.3378 13.4124 12.3043 13.4308 12.2559C13.4492 12.2074 13.4797 12.148 13.5156 12.0907C13.5516 12.0334 13.59 11.9829 13.6224 11.9503C13.6548 11.9177 13.6787 11.9056 13.6886 11.9168C13.6985 11.928 13.6938 11.9615 13.6754 12.0099C13.6571 12.0584 13.6265 12.1178 13.5906 12.1751Z" stroke="black" stroke-width="0.00468835"/>
<path d="M13.5438 12.1376C13.5307 12.1717 13.5165 12.2048 13.5022 12.2349C13.4879 12.2651 13.4736 12.2916 13.4602 12.3132C13.4468 12.3347 13.4345 12.3508 13.4241 12.3604C13.4137 12.3701 13.4053 12.3731 13.3995 12.3694C13.3936 12.3657 13.3904 12.3554 13.39 12.3389C13.3896 12.3224 13.3921 12.3002 13.3972 12.2734C13.4023 12.2467 13.4101 12.2159 13.4199 12.183C13.4298 12.15 13.4416 12.1155 13.4548 12.0814C13.4812 12.0124 13.5113 11.9493 13.5384 11.9058C13.5654 11.8623 13.5873 11.8421 13.5991 11.8495C13.6109 11.857 13.6117 11.8915 13.6013 11.9456C13.591 11.9996 13.5703 12.0687 13.5438 12.1376ZM13.361 12.0767C13.3837 12.1353 13.4004 12.1955 13.4077 12.244C13.4149 12.2924 13.412 12.3253 13.3995 12.3352C13.3871 12.3452 13.3662 12.3314 13.3414 12.297C13.3166 12.2626 13.2899 12.2103 13.2673 12.1517C13.2447 12.093 13.2279 12.0329 13.2207 11.9844C13.2135 11.9359 13.2164 11.9031 13.2288 11.8931C13.2412 11.8832 13.2622 11.8969 13.287 11.9314C13.3117 11.9658 13.3384 12.0181 13.361 12.0767Z" fill="#009B3A" stroke="black" stroke-width="0.00468835"/>
<path d="M13.422 12.0579C13.429 12.1343 13.4303 12.209 13.4256 12.2656C13.4209 12.3222 13.4105 12.3561 13.3969 12.3598C13.3832 12.3636 13.3673 12.3368 13.3527 12.2855C13.338 12.2341 13.3259 12.1624 13.3189 12.086C13.3154 12.0482 13.3133 12.0104 13.3127 11.9748C13.3121 11.9392 13.313 11.9064 13.3153 11.8784C13.3176 11.8503 13.3214 11.8276 13.3263 11.8114C13.3312 11.7952 13.3372 11.7859 13.344 11.7841C13.3508 11.7822 13.3582 11.7879 13.3657 11.8006C13.3733 11.8134 13.3809 11.833 13.3882 11.8585C13.3954 11.8839 13.4021 11.9146 13.4079 11.9488C13.4137 11.983 13.4185 12.0201 13.422 12.0579Z" fill="#009B3A" stroke="black" stroke-width="0.00468835"/>
<path d="M13.4875 12.0955C13.484 12.1327 13.4791 12.1694 13.4732 12.2035C13.4673 12.2377 13.4605 12.2686 13.4532 12.2945C13.4459 12.3203 13.4382 12.3407 13.4306 12.3544C13.4229 12.368 13.4155 12.3748 13.4088 12.3741C13.402 12.3735 13.396 12.3656 13.3911 12.3508C13.3862 12.336 13.3825 12.3146 13.3803 12.2878C13.378 12.2611 13.3772 12.2295 13.3779 12.1949C13.3787 12.1603 13.3809 12.1233 13.3844 12.0861C13.388 12.0489 13.3929 12.0122 13.3988 11.978C13.4047 11.9439 13.4115 11.913 13.4188 11.8871C13.4261 11.8612 13.4338 11.8409 13.4414 11.8272C13.449 11.8135 13.4565 11.8068 13.4632 11.8074C13.47 11.808 13.476 11.816 13.4809 11.8308C13.4858 11.8456 13.4894 11.867 13.4917 11.8937C13.4939 11.9205 13.4947 11.9521 13.494 11.9867C13.4933 12.0213 13.4911 12.0583 13.4875 12.0955Z" fill="#009B3A" stroke="black" stroke-width="0.00468835"/>
<path d="M13.4032 12.3393L13.3235 12.3018C13.3094 12.2925 13.3188 12.2597 13.2766 12.2409C13.2235 12.2222 13.186 12.2191 13.1642 12.2316C13.1392 12.2441 13.1501 12.2644 13.197 12.2925C13.2438 12.3159 13.2813 12.2972 13.3094 12.3112L13.4032 12.3487L13.5062 12.33C13.539 12.33 13.614 12.3487 13.6656 12.33C13.7124 12.3206 13.7359 12.2831 13.7077 12.2737C13.6683 12.2614 13.6262 12.2598 13.5859 12.269C13.5531 12.2784 13.5344 12.3159 13.5016 12.3253C13.4781 12.3253 13.4078 12.344 13.4032 12.3393ZM13.45 12.7236C13.421 12.7486 13.3915 12.7717 13.3632 12.7917C13.335 12.8117 13.3085 12.8281 13.2853 12.8401C13.2622 12.8521 13.2428 12.8594 13.2283 12.8616C13.2137 12.8637 13.2044 12.8607 13.2007 12.8527C13.197 12.8447 13.199 12.8319 13.2067 12.8149C13.2145 12.798 13.2276 12.7773 13.2456 12.754C13.2635 12.7307 13.2858 12.7052 13.3113 12.6791C13.3367 12.653 13.3647 12.6267 13.3938 12.6018C13.4222 12.5775 13.451 12.555 13.4785 12.5356C13.506 12.5162 13.5317 12.5003 13.5542 12.4887C13.5767 12.4772 13.5955 12.4703 13.6094 12.4684C13.6234 12.4665 13.6324 12.4696 13.6358 12.4776C13.6391 12.4856 13.6369 12.4983 13.6292 12.515C13.6214 12.5317 13.6083 12.552 13.5907 12.5749C13.573 12.5977 13.551 12.6226 13.5261 12.6481C13.5012 12.6736 13.4737 12.6993 13.4453 12.7236" fill="#009B3A"/>
<path d="M13.45 12.7236C13.421 12.7486 13.3915 12.7717 13.3632 12.7917C13.335 12.8117 13.3085 12.8281 13.2853 12.8401C13.2622 12.8521 13.2428 12.8594 13.2283 12.8616C13.2137 12.8637 13.2044 12.8607 13.2007 12.8527C13.197 12.8447 13.199 12.8319 13.2067 12.8149C13.2145 12.798 13.2276 12.7773 13.2456 12.754C13.2635 12.7307 13.2858 12.7052 13.3113 12.6791C13.3367 12.653 13.3647 12.6267 13.3938 12.6018C13.4222 12.5775 13.451 12.555 13.4785 12.5356C13.506 12.5162 13.5317 12.5003 13.5542 12.4887C13.5767 12.4772 13.5955 12.4703 13.6094 12.4684C13.6234 12.4665 13.6324 12.4696 13.6358 12.4776C13.6391 12.4856 13.6369 12.4983 13.6292 12.515C13.6214 12.5317 13.6083 12.552 13.5907 12.5749C13.573 12.5977 13.551 12.6226 13.5261 12.6481C13.5012 12.6736 13.4737 12.6993 13.4453 12.7236M13.4032 12.3393L13.3235 12.3018C13.3094 12.2925 13.3188 12.2597 13.2766 12.2409C13.2235 12.2222 13.186 12.2191 13.1642 12.2316C13.1392 12.2441 13.1501 12.2644 13.197 12.2925C13.2438 12.3159 13.2813 12.2972 13.3094 12.3112L13.4032 12.3487L13.5062 12.33C13.539 12.33 13.614 12.3487 13.6656 12.33C13.7124 12.3206 13.7359 12.2831 13.7077 12.2737C13.6683 12.2614 13.6262 12.2598 13.5859 12.269C13.5531 12.2784 13.5344 12.3159 13.5016 12.3253C13.4781 12.3253 13.4078 12.344 13.4032 12.3393Z" stroke="black" stroke-width="0.00468835"/>
<path d="M13.4032 12.6674C13.3782 12.7037 13.3503 12.7401 13.3218 12.7738C13.2932 12.8076 13.2648 12.8377 13.2387 12.8617C13.2127 12.8857 13.1897 12.9029 13.1717 12.9121C13.1537 12.9213 13.1412 12.9221 13.1351 12.9144C13.129 12.9068 13.1295 12.891 13.1366 12.8682C13.1437 12.8454 13.1571 12.8162 13.1759 12.7831C13.1947 12.75 13.2182 12.7138 13.2447 12.6775C13.2711 12.6411 13.2997 12.6055 13.3282 12.5737C13.3532 12.5374 13.3811 12.5009 13.4097 12.4672C13.4382 12.4334 13.4667 12.4034 13.4927 12.3794C13.5188 12.3554 13.5417 12.3381 13.5597 12.3289C13.5777 12.3198 13.5902 12.319 13.5963 12.3266C13.6024 12.3342 13.6019 12.3501 13.5949 12.3729C13.5878 12.3957 13.5743 12.4248 13.5555 12.4579C13.5368 12.491 13.5132 12.5272 13.4868 12.5636C13.4603 12.5999 13.4317 12.6355 13.4032 12.6674Z" fill="#009B3A" stroke="black" stroke-width="0.00468835"/>
<path d="M13.225 12.5315C13.2278 12.5691 13.2291 12.607 13.2287 12.6429C13.2283 12.6788 13.2262 12.7121 13.2225 12.7409C13.2189 12.7697 13.2138 12.7934 13.2075 12.8106C13.2012 12.8278 13.1939 12.8383 13.1859 12.8414C13.1779 12.8444 13.1694 12.8401 13.1609 12.8285C13.1524 12.817 13.1441 12.7985 13.1364 12.774C13.1287 12.7496 13.1218 12.7198 13.1161 12.6862C13.1104 12.6526 13.106 12.616 13.1031 12.5784C13.1003 12.5407 13.099 12.5029 13.0994 12.4669C13.0999 12.431 13.1019 12.3977 13.1056 12.3689C13.1092 12.3402 13.1143 12.3165 13.1206 12.2992C13.1269 12.282 13.1343 12.2716 13.1423 12.2685C13.1503 12.2654 13.1588 12.2698 13.1672 12.2813C13.1757 12.2929 13.1841 12.3114 13.1917 12.3358C13.1994 12.3602 13.2063 12.3901 13.212 12.4237C13.2177 12.4572 13.2221 12.4939 13.225 12.5315Z" fill="#009B3A" stroke="black" stroke-width="0.00468835"/>
<path d="M13.2953 12.5314C13.2796 12.5907 13.2614 12.6423 13.2435 12.6786C13.2255 12.7149 13.2087 12.7339 13.1955 12.7329C13.1824 12.7318 13.1736 12.7107 13.1705 12.6728C13.1673 12.6348 13.17 12.5819 13.1781 12.5221C13.184 12.4786 13.1926 12.4329 13.2031 12.3886C13.2136 12.3443 13.2259 12.3026 13.2388 12.2668C13.2517 12.2311 13.265 12.2022 13.2776 12.1827C13.2901 12.1631 13.3017 12.1533 13.3112 12.154C13.3207 12.1548 13.328 12.1661 13.3325 12.1871C13.337 12.208 13.3385 12.238 13.337 12.2747C13.3354 12.3113 13.3308 12.3537 13.3236 12.3982C13.3164 12.4428 13.3067 12.4884 13.2953 12.5314Z" fill="#009B3A" stroke="black" stroke-width="0.00468835"/>
<path d="M13.3563 12.5924C13.3411 12.63 13.3246 12.6666 13.3079 12.7002C13.2911 12.7339 13.2743 12.7639 13.2585 12.7885C13.2428 12.8131 13.2283 12.8318 13.2159 12.8436C13.2036 12.8554 13.1935 12.8601 13.1865 12.8573C13.1722 12.8517 13.1707 12.8162 13.1823 12.7586C13.194 12.701 13.2178 12.6261 13.2486 12.5502C13.2641 12.5121 13.2808 12.475 13.2979 12.441C13.3149 12.4069 13.3319 12.3767 13.3479 12.3519C13.3638 12.3271 13.3785 12.3083 13.391 12.2966C13.4034 12.2849 13.4135 12.2804 13.4206 12.2835C13.4276 12.2866 13.4316 12.2971 13.4322 12.3145C13.4328 12.332 13.43 12.3559 13.4241 12.385C13.4181 12.4142 13.4091 12.4479 13.3974 12.4843C13.3858 12.5206 13.3718 12.559 13.3563 12.5971" fill="#009B3A"/>
<path d="M13.3563 12.5924C13.3411 12.63 13.3246 12.6666 13.3079 12.7002C13.2911 12.7339 13.2743 12.7639 13.2585 12.7885C13.2428 12.8131 13.2283 12.8318 13.2159 12.8436C13.2036 12.8554 13.1935 12.8601 13.1865 12.8573C13.1722 12.8517 13.1707 12.8162 13.1823 12.7586C13.194 12.701 13.2178 12.6261 13.2486 12.5502C13.2641 12.5121 13.2808 12.475 13.2979 12.441C13.3149 12.4069 13.3319 12.3767 13.3479 12.3519C13.3638 12.3271 13.3785 12.3083 13.391 12.2966C13.4034 12.2849 13.4135 12.2804 13.4206 12.2835C13.4276 12.2866 13.4316 12.2971 13.4322 12.3145C13.4328 12.332 13.43 12.3559 13.4241 12.385C13.4181 12.4142 13.4091 12.4479 13.3974 12.4843C13.3858 12.5206 13.3718 12.559 13.3563 12.5971" stroke="black" stroke-width="0.00468835"/>
<path d="M13.1874 12.8363L13.1077 12.766C13.0984 12.7519 13.1171 12.7191 13.0749 12.6816C13.0413 12.6519 12.998 12.6353 12.9531 12.6348C12.9219 12.6348 12.9281 12.6598 12.9718 12.7097C13.0374 12.7847 13.0656 12.7472 13.089 12.7707L13.178 12.8456L13.3046 12.8644C13.3374 12.8691 13.4123 12.9253 13.4779 12.9253C13.5342 12.9253 13.5717 12.8972 13.5389 12.8738C13.5011 12.8481 13.4577 12.832 13.4123 12.8269C13.3702 12.8269 13.3374 12.8597 13.2952 12.855L13.1827 12.8363M13.0703 13.2018C13.0257 13.2118 12.9793 13.2197 12.9347 13.2248C12.8902 13.2299 12.8486 13.2321 12.8131 13.2313C12.7776 13.2305 12.7493 13.2266 12.7301 13.2199C12.711 13.2133 12.7016 13.2041 12.7027 13.193C12.7038 13.182 12.7154 13.1693 12.7365 13.1561C12.7576 13.1428 12.7877 13.1293 12.8246 13.1166C12.8614 13.1039 12.9039 13.0923 12.949 13.0827C12.994 13.0731 13.0403 13.0657 13.0843 13.0612C13.1289 13.0512 13.1752 13.0433 13.2198 13.0382C13.2644 13.0331 13.306 13.0308 13.3415 13.0317C13.3769 13.0325 13.4053 13.0364 13.4244 13.043C13.4436 13.0497 13.4529 13.0589 13.4518 13.07C13.4507 13.081 13.4392 13.0937 13.4181 13.1069C13.3969 13.1201 13.3668 13.1336 13.33 13.1464C13.2932 13.1591 13.2506 13.1707 13.2056 13.1803C13.1606 13.1899 13.1143 13.1973 13.0703 13.2018Z" fill="#009B3A"/>
<path d="M13.1874 12.8363L13.1077 12.766C13.0984 12.7519 13.1171 12.7191 13.0749 12.6816C13.0413 12.6519 12.998 12.6353 12.9531 12.6348C12.9219 12.6348 12.9281 12.6598 12.9718 12.7097C13.0374 12.7847 13.0656 12.7472 13.089 12.7707L13.178 12.8456L13.3046 12.8644C13.3374 12.8691 13.4123 12.9253 13.4779 12.9253C13.5342 12.9253 13.5717 12.8972 13.5389 12.8738C13.5011 12.8481 13.4577 12.832 13.4123 12.8269C13.3702 12.8269 13.3374 12.8597 13.2952 12.855L13.1827 12.8363M13.0703 13.2018C13.0257 13.2118 12.9793 13.2197 12.9347 13.2248C12.8902 13.2299 12.8486 13.2321 12.8131 13.2313C12.7776 13.2305 12.7493 13.2266 12.7301 13.2199C12.711 13.2133 12.7016 13.2041 12.7027 13.193C12.7038 13.182 12.7154 13.1693 12.7365 13.1561C12.7576 13.1428 12.7877 13.1293 12.8246 13.1166C12.8614 13.1039 12.9039 13.0923 12.949 13.0827C12.994 13.0731 13.0403 13.0657 13.0843 13.0612C13.1289 13.0512 13.1752 13.0433 13.2198 13.0382C13.2644 13.0331 13.306 13.0308 13.3415 13.0317C13.3769 13.0325 13.4053 13.0364 13.4244 13.043C13.4436 13.0497 13.4529 13.0589 13.4518 13.07C13.4507 13.081 13.4392 13.0937 13.4181 13.1069C13.3969 13.1201 13.3668 13.1336 13.33 13.1464C13.2932 13.1591 13.2506 13.1707 13.2056 13.1803C13.1606 13.1899 13.1143 13.1973 13.0703 13.2018Z" stroke="black" stroke-width="0.00468835"/>
<path d="M13.0654 13.1222C12.9907 13.1495 12.92 13.1686 12.8672 13.1759C12.8144 13.1832 12.7835 13.1781 12.7805 13.1615C12.7776 13.145 12.8028 13.1183 12.8513 13.0867C12.8997 13.0551 12.9678 13.0209 13.042 12.991C13.1166 12.9638 13.1874 12.9446 13.2401 12.9373C13.2929 12.93 13.3239 12.9352 13.3268 12.9517C13.3298 12.9682 13.3045 12.995 13.2561 13.0266C13.2076 13.0581 13.1396 13.0923 13.0654 13.1222Z" fill="#009B3A" stroke="black" stroke-width="0.00468835"/>
<path d="M12.9577 12.8924C12.9244 12.9564 12.888 13.0134 12.855 13.0532C12.822 13.093 12.7946 13.113 12.7777 13.1096C12.7608 13.1062 12.7554 13.0797 12.7627 13.0347C12.7699 12.9898 12.7892 12.9294 12.8171 12.8643C12.8341 12.8247 12.8538 12.7847 12.8747 12.747C12.8957 12.7093 12.9174 12.6748 12.9385 12.6459C12.9595 12.617 12.9793 12.5943 12.9966 12.5796C13.0139 12.5648 13.0281 12.5582 13.0384 12.5602C13.0487 12.5623 13.0548 12.573 13.0563 12.5915C13.0577 12.61 13.0545 12.636 13.0468 12.6676C13.0391 12.6991 13.0272 12.7356 13.0118 12.7744C12.9964 12.8133 12.978 12.8535 12.9577 12.8924Z" fill="#009B3A" stroke="black" stroke-width="0.00468835"/>
<path d="M13.0327 12.9347C13.004 12.9671 12.9742 12.9983 12.9448 13.0264C12.9155 13.0545 12.8873 13.0789 12.8618 13.0984C12.8363 13.1179 12.814 13.1319 12.7962 13.1398C12.7784 13.1477 12.7655 13.1492 12.7581 13.1443C12.7507 13.1394 12.7491 13.1281 12.7532 13.1111C12.7574 13.0942 12.7672 13.0718 12.7823 13.0454C12.7973 13.019 12.8173 12.989 12.8409 12.9571C12.8646 12.9252 12.8915 12.8921 12.9202 12.8597C12.9781 12.7941 13.0396 12.7352 13.0911 12.6959C13.1426 12.6566 13.1799 12.6401 13.1948 12.65C13.2097 12.66 13.201 12.6956 13.1706 12.7489C13.1402 12.8023 13.0906 12.8691 13.0327 12.9347Z" fill="#009B3A" stroke="black" stroke-width="0.00468835"/>
<path d="M13.0515 13.0284C13.0156 13.0572 12.9779 13.0848 12.9411 13.1095C12.9042 13.1341 12.8689 13.1552 12.8376 13.1713C12.8062 13.1875 12.7795 13.1983 12.7592 13.2031C12.739 13.208 12.7255 13.2067 12.7199 13.1993C12.7142 13.192 12.7164 13.1788 12.7263 13.1606C12.7363 13.1424 12.7537 13.1195 12.7776 13.0937C12.8014 13.0678 12.831 13.0394 12.8645 13.0104C12.898 12.9814 12.9346 12.9524 12.9719 12.9253C13.042 12.8718 13.1137 12.8258 13.1712 12.7976C13.2287 12.7693 13.2673 12.7612 13.2785 12.7748C13.2897 12.7885 13.2725 12.8229 13.2309 12.8705C13.1892 12.918 13.1264 12.9748 13.0562 13.0284" fill="#009B3A"/>
<path d="M13.0515 13.0284C13.0156 13.0572 12.9779 13.0848 12.9411 13.1095C12.9042 13.1341 12.8689 13.1552 12.8376 13.1713C12.8062 13.1875 12.7795 13.1983 12.7592 13.2031C12.739 13.208 12.7255 13.2067 12.7199 13.1993C12.7142 13.192 12.7164 13.1788 12.7263 13.1606C12.7363 13.1424 12.7537 13.1195 12.7776 13.0937C12.8014 13.0678 12.831 13.0394 12.8645 13.0104C12.898 12.9814 12.9346 12.9524 12.9719 12.9253C13.042 12.8718 13.1137 12.8258 13.1712 12.7976C13.2287 12.7693 13.2673 12.7612 13.2785 12.7748C13.2897 12.7885 13.2725 12.8229 13.2309 12.8705C13.1892 12.918 13.1264 12.9748 13.0562 13.0284" stroke="black" stroke-width="0.00468835"/>
<path d="M12.7562 13.1597L12.7234 13.0519C12.7187 13.0285 12.7562 13.005 12.7375 12.9488C12.7199 12.9005 12.687 12.8594 12.6437 12.8316C12.6203 12.8176 12.5969 12.8457 12.6203 12.916C12.6437 12.9863 12.6906 13.0097 12.7047 13.0425L12.7421 13.1644C12.7703 13.1784 12.8218 13.23 12.8546 13.2581C12.8874 13.2815 12.9296 13.3752 12.9952 13.4127C13.042 13.4455 13.0889 13.4408 13.0795 13.3987C13.0564 13.3524 13.0227 13.3122 12.9811 13.2815C12.9436 13.2534 12.8874 13.2674 12.8546 13.2393C12.8312 13.2206 12.7562 13.1644 12.7609 13.1597" fill="#009B3A"/>
<path d="M12.7562 13.1597L12.7234 13.0519C12.7187 13.0285 12.7562 13.005 12.7375 12.9488C12.7199 12.9005 12.687 12.8594 12.6437 12.8316C12.6203 12.8176 12.5969 12.8457 12.6203 12.916C12.6437 12.9863 12.6906 13.0097 12.7047 13.0425L12.7421 13.1643C12.7703 13.1784 12.8218 13.23 12.8546 13.2581C12.8874 13.2815 12.9296 13.3752 12.9952 13.4127C13.042 13.4455 13.0889 13.4408 13.0795 13.3987C13.0564 13.3524 13.0227 13.3122 12.9811 13.2815C12.9436 13.2534 12.8874 13.2674 12.8546 13.2393C12.8312 13.2206 12.7562 13.1644 12.7609 13.1597" stroke="black" stroke-width="0.00468835"/>
<path d="M12.578 13.4738C12.4982 13.4747 12.422 13.4664 12.366 13.4506C12.31 13.4349 12.2786 13.413 12.2786 13.3896C12.2786 13.3662 12.31 13.3433 12.366 13.3258C12.422 13.3082 12.4982 13.2974 12.578 13.2958C12.6579 13.2949 12.7341 13.3032 12.7901 13.319C12.8461 13.3348 12.8775 13.3567 12.8775 13.38C12.8775 13.4034 12.8461 13.4263 12.7901 13.4439C12.7341 13.4614 12.6579 13.4722 12.578 13.4738Z" fill="#009B3A" stroke="black" stroke-width="0.00468835"/>
<path d="M12.5357 13.1972C12.4827 13.2655 12.425 13.325 12.3752 13.3628C12.3254 13.4005 12.2877 13.4134 12.2703 13.3985C12.2529 13.3836 12.2572 13.3421 12.2824 13.2833C12.3076 13.2244 12.3515 13.153 12.4045 13.0847C12.4575 13.0164 12.5152 12.9568 12.565 12.9191C12.6148 12.8813 12.6525 12.8685 12.6699 12.8834C12.6873 12.8983 12.683 12.9397 12.6578 12.9986C12.6326 13.0574 12.5887 13.1289 12.5357 13.1972Z" fill="#009B3A" stroke="black" stroke-width="0.00468835"/>
<path d="M12.578 13.338C12.512 13.362 12.45 13.3768 12.4025 13.3798C12.3551 13.3828 12.3253 13.3738 12.3181 13.3545C12.3109 13.3351 12.3268 13.3065 12.3631 13.2735C12.3994 13.2406 12.4538 13.2054 12.517 13.1739C12.5831 13.1499 12.6451 13.1351 12.6925 13.1321C12.7399 13.1291 12.7697 13.138 12.7769 13.1574C12.7841 13.1768 12.7682 13.2054 12.7319 13.2383C12.6957 13.2713 12.6412 13.3065 12.578 13.338ZM12.6624 10.6656C12.6962 10.6971 12.7243 10.7282 12.7412 10.7527C12.7581 10.7773 12.7626 10.7935 12.7537 10.7982C12.7449 10.8029 12.7235 10.7957 12.6935 10.7781C12.6636 10.7606 12.6274 10.7338 12.5921 10.7031C12.5724 10.6861 12.5536 10.6683 12.5368 10.651C12.5201 10.6337 12.5058 10.6172 12.4949 10.6026C12.4839 10.5881 12.4765 10.5757 12.4732 10.5663C12.4699 10.5569 12.4708 10.5507 12.4757 10.548C12.4806 10.5454 12.4894 10.5465 12.5017 10.5511C12.514 10.5557 12.5294 10.5638 12.547 10.5748C12.5645 10.5859 12.5839 10.5997 12.6038 10.6153C12.6236 10.6309 12.6436 10.6481 12.6624 10.6656ZM12.5686 10.7453C12.6204 10.7521 12.6709 10.7628 12.7088 10.7751C12.7468 10.7874 12.7691 10.8003 12.771 10.8108C12.7729 10.8214 12.7541 10.8288 12.7188 10.8315C12.6834 10.8341 12.6345 10.8318 12.5827 10.825C12.5309 10.8182 12.4804 10.8075 12.4425 10.7952C12.4045 10.7829 12.3822 10.7701 12.3803 10.7595C12.3784 10.7489 12.3972 10.7415 12.4325 10.7388C12.4679 10.7362 12.5168 10.7385 12.5686 10.7453Z" fill="#009B3A" stroke="black" stroke-width="0.00468835"/>
<path d="M12.6062 10.6938C12.6542 10.7181 12.6982 10.7449 12.7287 10.7683C12.7591 10.7917 12.7734 10.8097 12.7684 10.8184C12.7634 10.8271 12.7396 10.8258 12.7021 10.8147C12.6647 10.8036 12.6167 10.7838 12.5687 10.7594C12.5449 10.7473 12.5219 10.7346 12.5009 10.7218C12.4799 10.709 12.4613 10.6964 12.4462 10.6849C12.4158 10.6615 12.4015 10.6435 12.4065 10.6348C12.4115 10.6261 12.4353 10.6274 12.4728 10.6385C12.5102 10.6495 12.5582 10.6694 12.6062 10.6938ZM11.2231 13.1739C11.2231 13.1739 11.481 13.2302 11.706 13.3099C11.9264 13.3896 12.2686 13.6709 12.3624 13.6849C12.4609 13.6896 12.6015 13.6568 12.6578 13.5068C12.4984 13.5537 12.4046 13.6146 12.2546 13.5302C12.203 13.5115 12.0295 13.3521 11.8326 13.2677C11.6459 13.1949 11.4549 13.1338 11.2607 13.0848L11.2231 13.1739ZM11.4998 10.8485L11.7951 10.6891L11.4669 10.7735L11.4294 10.8297L11.4998 10.8485Z" fill="#009B3A" stroke="black" stroke-width="0.00468835"/>
<path d="M11.7807 10.9186C11.6636 10.8999 11.4855 10.8577 11.373 10.8483C11.4527 10.764 11.5605 10.6187 11.6261 10.5297C11.5792 10.614 11.5136 10.7265 11.4855 10.8108C11.5652 10.853 11.6917 10.8858 11.7807 10.9186Z" fill="#009B3A" stroke="black" stroke-width="0.00468835"/>
<path d="M11.4433 10.8671L11.7058 10.6609L11.4012 10.8015L11.373 10.8625H11.4433" fill="#009B3A"/>
<path d="M11.4433 10.8671L11.7058 10.6609L11.4012 10.8015L11.373 10.8625H11.4433" stroke="black" stroke-width="0.00468835"/>
<path d="M11.7245 10.9139C11.6074 10.8952 11.434 10.853 11.3215 10.8437C11.3965 10.7546 11.4996 10.6093 11.5652 10.5156C11.5183 10.6 11.4574 10.7171 11.4293 10.8015C11.509 10.8483 11.6355 10.8811 11.7245 10.9139Z" fill="#009B3A" stroke="black" stroke-width="0.00468835"/>
<path d="M11.4013 10.8812L11.7106 10.7547L11.3779 10.8062L11.3311 10.8625L11.4013 10.8812Z" fill="#009B3A" stroke="black" stroke-width="0.00468835"/>
<path d="M11.687 10.9186C11.5745 10.9092 11.3918 10.8858 11.2793 10.8905C11.3449 10.7921 11.4293 10.6281 11.4855 10.5297C11.4527 10.6234 11.4011 10.7452 11.3871 10.8343C11.4714 10.8717 11.598 10.8952 11.6917 10.9186" fill="#009B3A"/>
<path d="M11.687 10.9186C11.5745 10.9092 11.3918 10.8858 11.2793 10.8905C11.3449 10.7921 11.4293 10.6281 11.4855 10.5297C11.4527 10.6234 11.4011 10.7452 11.3871 10.8343C11.4714 10.8717 11.598 10.8952 11.6917 10.9186" stroke="black" stroke-width="0.00468835"/>
<path d="M11.3683 10.8858L11.5792 10.6281L11.3121 10.8249L11.3027 10.8952L11.3683 10.8812" fill="#009B3A"/>
<path d="M11.3683 10.8858L11.5792 10.6281L11.3121 10.8249L11.3027 10.8952L11.3683 10.8812" stroke="black" stroke-width="0.00468835"/>
<path d="M11.687 10.9373C11.5652 10.9373 11.3684 10.9233 11.2512 10.9373C11.3121 10.8202 11.3824 10.6374 11.4293 10.525C11.4059 10.6281 11.3637 10.7686 11.3543 10.867C11.448 10.8998 11.5886 10.9139 11.687 10.9373Z" fill="#009B3A" stroke="black" stroke-width="0.00468835"/>
<path d="M11.3262 10.9468L11.5792 10.6984L11.2747 10.8718L11.2512 10.9421H11.3262" fill="#009B3A"/>
<path d="M11.3262 10.9468L11.5792 10.6984L11.2747 10.8718L11.2512 10.9421H11.3262" stroke="black" stroke-width="0.00468835"/>
<path d="M11.6307 10.9467C11.4995 10.9467 11.2933 10.9373 11.1621 10.9514C11.2465 10.8249 11.3683 10.6234 11.4433 10.4968C11.3964 10.6093 11.3167 10.7686 11.2886 10.8717C11.3824 10.9092 11.5276 10.9186 11.6307 10.942" fill="#009B3A"/>
<path d="M11.6307 10.9467C11.4995 10.9467 11.2933 10.9373 11.1621 10.9514C11.2465 10.8249 11.3683 10.6234 11.4433 10.4968C11.3964 10.6093 11.3167 10.7686 11.2886 10.8717C11.3824 10.9092 11.5276 10.9186 11.6307 10.942" stroke="black" stroke-width="0.00468835"/>
<path d="M11.2418 10.9609L11.5698 10.6844L11.1949 10.8812L11.1621 10.9609H11.2418Z" fill="#009B3A" stroke="black" stroke-width="0.00468835"/>
<path d="M11.5838 10.9515C11.4526 10.9702 11.2464 10.9936 11.1152 11.0264C11.1925 10.8687 11.2629 10.7076 11.3261 10.5438C11.298 10.6609 11.2464 10.8249 11.2324 10.9327C11.3308 10.9515 11.4761 10.9468 11.5838 10.9515Z" fill="#009B3A" stroke="black" stroke-width="0.00468835"/>
<path d="M11.1998 11.0171L11.4481 10.6703L11.1342 10.9515L11.1201 11.0405L11.1951 11.0171" fill="#009B3A"/>
<path d="M11.1998 11.0171L11.4481 10.6703L11.1342 10.9515L11.1201 11.0405L11.1951 11.0171" stroke="black" stroke-width="0.00468835"/>
<path d="M11.5089 10.9936C11.3777 11.0076 11.1715 11.017 11.0403 11.0404C11.1153 10.9139 11.2184 10.703 11.2746 10.5718C11.2418 10.689 11.1809 10.8483 11.1621 10.9561C11.2558 10.9795 11.4058 10.9795 11.5089 10.9936Z" fill="#009B3A" stroke="black" stroke-width="0.00468835"/>
<path d="M11.1529 11.0546L11.4716 10.7734L11.1107 10.9703L11.0732 11.0546H11.1529Z" fill="#009B3A" stroke="black" stroke-width="0.00468835"/>
<path d="M11.4713 11.0077C11.3354 11.0358 11.1292 11.0686 11.0027 11.1108C11.0636 10.9749 11.1433 10.7547 11.1901 10.6188C11.1667 10.7406 11.1245 10.8999 11.1152 11.0124C11.2136 11.0265 11.3635 11.0077 11.4713 11.0077Z" fill="#009B3A" stroke="black" stroke-width="0.00468835"/>
<path d="M11.1013 11.0687L11.3028 10.6891L11.0264 11.0171V11.1015L11.1013 11.0687Z" fill="#009B3A" stroke="black" stroke-width="0.00468835"/>
<path d="M11.4714 11.0311C11.3308 11.0639 11.1059 11.1155 10.97 11.167C11.0215 11.0124 11.0824 10.764 11.1199 10.6094C11.1059 10.7453 11.0731 10.928 11.0824 11.0499C11.1902 11.0592 11.3542 11.0358 11.4714 11.0311Z" fill="#009B3A" stroke="black" stroke-width="0.00468835"/>
<path d="M11.059 11.153L11.3167 10.7781L10.9887 11.0827L10.9746 11.1765L11.059 11.153Z" fill="#009B3A" stroke="black" stroke-width="0.00468835"/>
<path d="M11.4151 11.0733C11.2746 11.1202 11.0543 11.1764 10.9231 11.2326C10.97 11.078 11.0168 10.8296 11.0449 10.675C11.0356 10.8109 11.0168 10.9936 11.0262 11.1108C11.1387 11.1155 11.298 11.0827 11.4151 11.0733Z" fill="#009B3A" stroke="black" stroke-width="0.00468835"/>
<path d="M11.0074 11.2093L11.2043 10.7875L10.9231 11.1531V11.2468L11.0074 11.2093Z" fill="#009B3A" stroke="black" stroke-width="0.00468835"/>
<path d="M11.3589 11.1296C11.2183 11.1624 10.9934 11.2045 10.8528 11.2514C10.9137 11.1014 10.984 10.8531 11.0262 10.7031C11.0074 10.839 10.9699 11.0171 10.9699 11.1389C11.0824 11.153 11.2417 11.1296 11.3589 11.1296Z" fill="#009B3A" stroke="black" stroke-width="0.00468835"/>
<path d="M10.9606 11.2515L11.2793 10.9235L10.9044 11.1671L10.8716 11.2609L10.9653 11.2515" fill="#009B3A"/>
<path d="M10.9606 11.2515L11.2793 10.9235L10.9044 11.1671L10.8716 11.2609L10.9653 11.2515" stroke="black" stroke-width="0.00468835"/>
<path d="M11.2978 11.1858C11.1572 11.2045 10.9323 11.2233 10.7964 11.2608C10.862 11.1108 10.9463 10.8718 10.9979 10.7219C10.9698 10.8531 10.9229 11.0358 10.9135 11.1577C11.0213 11.1811 11.1806 11.1764 11.2978 11.1858Z" fill="#009B3A" stroke="black" stroke-width="0.00468835"/>
<path d="M10.8995 11.2186L11.115 10.8063L10.8198 11.153V11.2468L10.8995 11.2186Z" fill="#009B3A" stroke="black" stroke-width="0.00468835"/>
<path d="M11.3118 11.1343C11.1572 11.1999 10.9182 11.2889 10.7729 11.3686C10.8198 11.1811 10.8667 10.8906 10.8995 10.7125C10.8948 10.8672 10.8714 11.0827 10.8854 11.2186C11.0119 11.2186 11.1853 11.1624 11.3165 11.139" fill="#009B3A"/>
<path d="M11.3118 11.1343C11.1572 11.1999 10.9182 11.2889 10.7729 11.3686C10.8198 11.1811 10.8667 10.8906 10.8995 10.7125C10.8948 10.8672 10.8714 11.0827 10.8854 11.2186C11.0119 11.2186 11.1853 11.1624 11.3165 11.139" stroke="black" stroke-width="0.00468835"/>
<path d="M10.8669 11.3405L11.1293 10.8719L10.7872 11.2702L10.7778 11.3827L10.8716 11.3405" fill="#009B3A"/>
<path d="M10.8669 11.3405L11.1293 10.8719L10.7872 11.2702L10.7778 11.3827L10.8716 11.3405" stroke="black" stroke-width="0.00468835"/>
<path d="M11.2556 11.1952C11.101 11.2655 10.862 11.3686 10.7214 11.4529C10.7589 11.2655 10.7964 10.9796 10.8198 10.7969C10.8198 10.9515 10.8105 11.1671 10.8292 11.2983C10.9557 11.2889 11.1244 11.228 11.251 11.1952" fill="#009B3A"/>
<path d="M11.2556 11.1952C11.101 11.2655 10.862 11.3686 10.7214 11.4529C10.7589 11.2655 10.7964 10.9796 10.8198 10.7969C10.8198 10.9515 10.8105 11.1671 10.8292 11.2983C10.9557 11.2889 11.1244 11.228 11.251 11.1952" stroke="black" stroke-width="0.00468835"/>
<path d="M10.8152 11.4155L11.0026 10.9094L10.7214 11.3593L10.7261 11.4671L10.8152 11.4155Z" fill="#009B3A" stroke="black" stroke-width="0.00468835"/>
<path d="M11.1853 11.2374C11.0353 11.3124 10.7963 11.4155 10.6558 11.4999C10.6933 11.3124 10.7307 11.0266 10.7495 10.8438C10.7542 10.9985 10.7448 11.2093 10.7635 11.3452C10.8854 11.3312 11.0588 11.2702 11.1853 11.2374Z" fill="#009B3A" stroke="black" stroke-width="0.00468835"/>
<path d="M10.7729 11.4765L11.0635 11.0266L10.6933 11.3921L10.6792 11.5046L10.7729 11.4765Z" fill="#009B3A" stroke="black" stroke-width="0.00468835"/>
<path d="M11.1712 11.2141C11.04 11.3218 10.8244 11.4812 10.7026 11.603C10.7026 11.4156 10.6745 11.125 10.6604 10.947C10.6979 11.0969 10.7307 11.3031 10.7776 11.4249C10.8947 11.3828 11.054 11.2797 11.1759 11.2141" fill="#009B3A"/>
<path d="M11.1712 11.2141C11.04 11.3218 10.8244 11.4812 10.7026 11.603C10.7026 11.4156 10.6745 11.125 10.6604 10.947C10.6979 11.0969 10.7307 11.3031 10.7776 11.4249C10.8947 11.3828 11.054 11.2797 11.1759 11.2141" stroke="black" stroke-width="0.00468835"/>
<path d="M10.787 11.4952L10.8198 10.961L10.6792 11.4765L10.7167 11.5796L10.787 11.4952Z" fill="#009B3A" stroke="black" stroke-width="0.00468835"/>
<path d="M11.1338 11.2656C10.9979 11.3734 10.7824 11.528 10.6652 11.6452C10.6652 11.4578 10.6371 11.1766 10.623 10.9938C10.6558 11.1438 10.6887 11.35 10.7355 11.4718C10.8574 11.4296 11.0167 11.3265 11.1338 11.2656Z" fill="#009B3A" stroke="black" stroke-width="0.00468835"/>
<path d="M10.7495 11.5843L10.8901 11.0641L10.6558 11.5421L10.6698 11.6499L10.7542 11.5843" fill="#009B3A"/>
<path d="M10.7495 11.5843L10.8901 11.0641L10.6558 11.5421L10.6698 11.6499L10.7542 11.5843" stroke="black" stroke-width="0.00468835"/>
<path d="M11.1197 11.275C10.9931 11.4015 10.7869 11.589 10.6745 11.7249C10.651 11.5374 10.5948 11.2422 10.562 11.0641C10.6089 11.2094 10.6698 11.4156 10.7307 11.5374C10.8525 11.4812 11.0025 11.3547 11.1197 11.275Z" fill="#009B3A" stroke="black" stroke-width="0.00468835"/>
<path d="M10.7496 11.6499L10.7777 11.097L10.6418 11.6359L10.684 11.739L10.7543 11.6546" fill="#009B3A"/>
<path d="M10.7496 11.6499L10.7777 11.097L10.6418 11.6359L10.684 11.739L10.7543 11.6546" stroke="black" stroke-width="0.00468835"/>
<path d="M11.0774 11.3688C10.9415 11.4812 10.726 11.6499 10.5994 11.7765C10.5994 11.5797 10.562 11.2844 10.5432 11.097C10.5854 11.2516 10.6229 11.4625 10.6744 11.589C10.7963 11.5422 10.9556 11.4344 11.0774 11.3688Z" fill="#009B3A" stroke="black" stroke-width="0.00468835"/>
<path d="M10.7119 11.7156L10.9041 11.1907L10.6135 11.6593L10.6229 11.7718L10.7119 11.7156Z" fill="#009B3A" stroke="black" stroke-width="0.00468835"/>
<path d="M11.0776 11.3688C10.9558 11.5 10.7637 11.6921 10.6559 11.828C10.6371 11.6359 10.5809 11.3407 10.5481 11.1579C10.595 11.3032 10.6512 11.514 10.7121 11.6359C10.8246 11.5796 10.9652 11.4484 11.0776 11.3688Z" fill="#009B3A" stroke="black" stroke-width="0.00468835"/>
<path d="M10.7214 11.7437L10.698 11.1907L10.6042 11.739L10.6605 11.8327L10.7214 11.739" fill="#009B3A"/>
<path d="M10.7214 11.7437L10.698 11.1907L10.6042 11.739L10.6605 11.8327L10.7214 11.739" stroke="black" stroke-width="0.00468835"/>
<path d="M11.0166 11.4156C10.8995 11.5422 10.712 11.7343 10.6089 11.8749C10.5855 11.6781 10.5199 11.3828 10.4824 11.2001C10.534 11.35 10.5949 11.5609 10.6605 11.6827C10.7683 11.6218 10.9089 11.4953 11.0166 11.4109" fill="#009B3A"/>
<path d="M11.0166 11.4156C10.8995 11.5422 10.712 11.7343 10.6089 11.8749C10.5855 11.6781 10.5199 11.3828 10.4824 11.2001C10.534 11.35 10.5949 11.5609 10.6605 11.6827C10.7683 11.6218 10.9089 11.4953 11.0166 11.4109" stroke="black" stroke-width="0.00468835"/>
<path d="M10.6885 11.7999L10.7495 11.2376L10.5854 11.7671L10.6183 11.8749L10.6885 11.7999Z" fill="#009B3A" stroke="black" stroke-width="0.00468835"/>
<path d="M10.9931 11.4344C10.8853 11.575 10.7119 11.7859 10.6182 11.9311C10.5807 11.7437 10.4964 11.4532 10.4448 11.2751C10.5057 11.4157 10.5854 11.6219 10.6557 11.739C10.7588 11.6687 10.89 11.5234 10.9931 11.4344Z" fill="#009B3A" stroke="black" stroke-width="0.00468835"/>
<path d="M10.6839 11.8515L10.6511 11.2892L10.5808 11.8468L10.6277 11.9405L10.6839 11.8468" fill="#009B3A"/>
<path d="M10.6839 11.8515L10.6511 11.2892L10.5808 11.8468L10.6277 11.9405L10.6839 11.8468" stroke="black" stroke-width="0.00468835"/>
<path d="M10.9837 11.4626C10.8806 11.6125 10.7166 11.8375 10.6323 11.9874C10.5854 11.8 10.4823 11.5141 10.4214 11.3361C10.4917 11.4766 10.5807 11.6781 10.6557 11.7906C10.7588 11.7156 10.8806 11.5657 10.9837 11.4626Z" fill="#009B3A" stroke="black" stroke-width="0.00468835"/>
<path d="M10.7215 11.9031L10.7777 11.3408L10.6184 11.8703L10.6512 11.9828L10.7215 11.9031Z" fill="#009B3A" stroke="black" stroke-width="0.00468835"/>
<path d="M10.9603 11.5189C10.8713 11.6782 10.7307 11.9219 10.6604 12.0859C10.5948 11.9032 10.473 11.636 10.3933 11.4673C10.4777 11.5986 10.5808 11.786 10.6698 11.8891C10.7635 11.7954 10.8713 11.6314 10.9603 11.5142" fill="#009B3A"/>
<path d="M10.9603 11.5189C10.8713 11.6782 10.7307 11.9219 10.6604 12.0859C10.5948 11.9032 10.473 11.636 10.3933 11.4673C10.4777 11.5986 10.5808 11.786 10.6698 11.8891C10.7635 11.7954 10.8713 11.6314 10.9603 11.5142" stroke="black" stroke-width="0.00468835"/>
<path d="M10.7025 11.95L10.5432 11.4158L10.5948 11.9781L10.6697 12.0578L10.7025 11.95Z" fill="#009B3A" stroke="black" stroke-width="0.00468835"/>
<path d="M10.9556 11.5798C10.8619 11.7391 10.7213 11.9828 10.6463 12.1468C10.576 11.9641 10.4542 11.697 10.3745 11.5283C10.4589 11.6595 10.562 11.8469 10.6557 11.95C10.7494 11.8563 10.8665 11.6923 10.9556 11.5798Z" fill="#009B3A" stroke="black" stroke-width="0.00468835"/>
<path d="M10.7074 12.0531L10.6512 11.4908L10.5996 12.0531L10.6558 12.1468L10.7074 12.0531Z" fill="#009B3A" stroke="black" stroke-width="0.00468835"/>
<path d="M10.9651 11.6314C10.8714 11.7907 10.7214 12.025 10.6465 12.189C10.5808 12.0063 10.459 11.7345 10.384 11.5658C10.4684 11.697 10.5715 11.8844 10.6558 11.9875C10.7589 11.9032 10.8714 11.7392 10.9651 11.6314Z" fill="#009B3A" stroke="black" stroke-width="0.00468835"/>
<path d="M10.7028 12.0953L10.5997 11.5424L10.595 12.1094L10.6559 12.1984L10.7028 12.0953Z" fill="#009B3A" stroke="black" stroke-width="0.00468835"/>
<path d="M10.9275 11.7111C10.8244 11.861 10.6651 12.086 10.5807 12.2453C10.5245 12.0578 10.4167 11.7767 10.3464 11.608C10.4261 11.7439 10.5198 11.936 10.5995 12.0485C10.7026 11.9641 10.8291 11.8142 10.9275 11.7111Z" fill="#009B3A" stroke="black" stroke-width="0.00468835"/>
<path d="M10.6559 12.1563L10.7027 11.5939L10.5481 12.1281L10.5856 12.2359L10.6559 12.1563Z" fill="#009B3A" stroke="black" stroke-width="0.00468835"/>
<path d="M10.9322 11.7252C10.8478 11.8892 10.7073 12.1376 10.637 12.3016C10.5667 12.1235 10.4308 11.8611 10.3464 11.6971C10.4402 11.8236 10.5479 12.0064 10.6417 12.1001C10.7354 12.0064 10.8432 11.8377 10.9322 11.7252Z" fill="#009B3A" stroke="black" stroke-width="0.00468835"/>
<path d="M10.637 12.2032L10.4636 11.6783L10.5292 12.2407L10.6042 12.3157L10.637 12.2032Z" fill="#009B3A" stroke="black" stroke-width="0.00468835"/>
<path d="M10.9087 11.7674C10.8478 11.9455 10.7494 12.2219 10.7025 12.4C10.6088 12.2407 10.4354 12.0111 10.3276 11.8705C10.4354 11.9736 10.5713 12.1282 10.6791 12.1985C10.7588 12.0907 10.8384 11.8986 10.9087 11.7674Z" fill="#009B3A" stroke="black" stroke-width="0.00468835"/>
<path d="M10.7917 12.25L10.6042 11.7299L10.6839 12.2875L10.7589 12.3578L10.7917 12.2453" fill="#009B3A"/>
<path d="M10.7917 12.25L10.6042 11.7299L10.6839 12.2875L10.7589 12.3578L10.7917 12.2453" stroke="black" stroke-width="0.00468835"/>
<path d="M10.9087 11.8237C10.8477 12.0017 10.7493 12.2782 10.7072 12.4563C10.6134 12.297 10.4354 12.072 10.3323 11.9314C10.4354 12.0345 10.5713 12.1845 10.679 12.2595C10.7587 12.147 10.8384 11.9549 10.9087 11.8237Z" fill="#009B3A" stroke="black" stroke-width="0.00468835"/>
<path d="M10.7918 12.3345L10.5481 11.8518L10.6887 12.3907L10.773 12.4516L10.7918 12.3345Z" fill="#009B3A" stroke="black" stroke-width="0.00468835"/>
<path d="M10.89 11.8658C10.8525 12.0533 10.7869 12.3391 10.7634 12.5219C10.6463 12.3813 10.4495 12.1798 10.3276 12.0533C10.4448 12.147 10.5994 12.2735 10.7119 12.3345C10.7775 12.2079 10.8337 12.0064 10.89 11.8658Z" fill="#009B3A" stroke="black" stroke-width="0.00468835"/>
<path d="M10.8057 12.4141L10.6792 11.8658L10.6979 12.4329L10.7682 12.5172L10.8057 12.4141Z" fill="#009B3A" stroke="black" stroke-width="0.00468835"/>
<path d="M10.89 11.9268C10.8712 12.1143 10.8291 12.4095 10.8291 12.5969C10.6978 12.4704 10.4823 12.297 10.3511 12.1892C10.4776 12.2595 10.6416 12.372 10.7588 12.4142C10.8103 12.283 10.8525 12.0721 10.89 11.9268Z" fill="#009B3A" stroke="black" stroke-width="0.00468835"/>
<path d="M10.815 12.4517L10.4683 12.058L10.7307 12.536L10.8244 12.5688L10.815 12.4517Z" fill="#009B3A" stroke="black" stroke-width="0.00468835"/>
<path d="M10.8993 11.9924C10.8759 12.1799 10.8337 12.4751 10.8337 12.6625C10.7025 12.536 10.4869 12.3626 10.3557 12.2549C10.4822 12.3251 10.6462 12.4376 10.7634 12.4798C10.8196 12.3486 10.8571 12.1424 10.8993 11.9924Z" fill="#009B3A" stroke="black" stroke-width="0.00468835"/>
<path d="M10.8526 12.5408L10.5854 12.0721L10.7541 12.6017L10.8432 12.6579L10.8526 12.5454" fill="#009B3A"/>
<path d="M10.8526 12.5408L10.5854 12.0721L10.7541 12.6017L10.8432 12.6579L10.8526 12.5454" stroke="black" stroke-width="0.00468835"/>
<path d="M10.9136 12.0721C10.8995 12.2596 10.8714 12.5595 10.8761 12.7469C10.7402 12.6251 10.5199 12.4658 10.384 12.3674C10.5106 12.4283 10.6793 12.5314 10.8011 12.5642C10.848 12.4283 10.8761 12.2221 10.9136 12.0721Z" fill="#009B3A" stroke="black" stroke-width="0.00468835"/>
<path d="M10.89 12.6345C10.8807 12.6345 10.562 12.2128 10.562 12.2128L10.7963 12.7095L10.89 12.747V12.6345Z" fill="#009B3A" stroke="black" stroke-width="0.00468835"/>
<path d="M10.9182 12.1612C10.9041 12.3486 10.8807 12.6485 10.8854 12.836C10.7264 12.7025 10.5606 12.5774 10.3887 12.4611C10.5152 12.522 10.6886 12.6204 10.8104 12.6532C10.8573 12.5173 10.8807 12.3111 10.9182 12.1612Z" fill="#009B3A" stroke="black" stroke-width="0.00468835"/>
<path d="M10.9184 12.7002L10.6841 12.2034L10.8153 12.747L10.895 12.8173L10.9184 12.7002Z" fill="#009B3A" stroke="black" stroke-width="0.00468835"/>
<path d="M10.9276 12.2128C10.9276 12.4096 10.9323 12.7095 10.9557 12.8922C10.8152 12.7985 10.5762 12.6626 10.4309 12.583C10.5621 12.6298 10.7402 12.7095 10.862 12.7236C10.8948 12.583 10.9089 12.3721 10.9229 12.2175" fill="#009B3A"/>
<path d="M10.9276 12.2128C10.9276 12.4096 10.9323 12.7095 10.9557 12.8922C10.8152 12.7985 10.5762 12.6626 10.4309 12.583C10.5621 12.6298 10.7402 12.7095 10.862 12.7236C10.8948 12.583 10.9089 12.3721 10.9229 12.2175" stroke="black" stroke-width="0.00468835"/>
<path d="M10.9557 12.6815L10.5339 12.3956L10.8901 12.7846L10.9885 12.7939L10.9557 12.6815Z" fill="#009B3A" stroke="black" stroke-width="0.00468835"/>
<path d="M10.9369 12.2362C10.9557 12.4283 10.9697 12.7282 11.0025 12.911C10.8279 12.8066 10.648 12.7112 10.4636 12.6251C10.5948 12.6626 10.7776 12.7329 10.8994 12.747C10.9275 12.6064 10.9275 12.3908 10.9369 12.2362Z" fill="#009B3A" stroke="black" stroke-width="0.00468835"/>
<path d="M11.0026 12.7892L10.6511 12.3862L10.9182 12.8689L11.012 12.9064L11.0026 12.7892Z" fill="#009B3A" stroke="black" stroke-width="0.00468835"/>
<path d="M10.9697 12.3066C10.9932 12.5034 11.0213 12.7986 11.0635 12.9814C10.9088 12.897 10.6651 12.7939 10.5105 12.7236C10.6511 12.7564 10.8292 12.8174 10.9557 12.822C10.9744 12.6815 10.965 12.4659 10.9697 12.3066Z" fill="#009B3A" stroke="black" stroke-width="0.00468835"/>
<path d="M11.0681 12.8549L10.6558 12.5644L11.0072 12.9627H11.1009L11.0681 12.8549Z" fill="#009B3A" stroke="black" stroke-width="0.00468835"/>
<path d="M10.9838 12.3909C11.0213 12.5784 11.0682 12.8736 11.1197 13.0564C10.9604 12.9814 10.712 12.9017 10.5574 12.8502C10.6933 12.8689 10.8807 12.9111 11.0026 12.9064C11.0119 12.7611 10.9885 12.5503 10.9838 12.3909Z" fill="#009B3A" stroke="black" stroke-width="0.00468835"/>
<path d="M11.115 12.9159L10.7729 12.5082L11.0307 12.9955L11.1244 13.033L11.115 12.9159Z" fill="#009B3A" stroke="black" stroke-width="0.00468835"/>
<path d="M11.0026 12.4472C11.0588 12.6299 11.1338 12.9158 11.2041 13.0892C11.0401 13.0423 10.7823 12.9908 10.6277 12.958C10.7636 12.958 10.951 12.9767 11.0729 12.958C11.0729 12.808 11.026 12.6018 11.0026 12.4425" fill="#009B3A"/>
<path d="M11.0026 12.4472C11.0588 12.6299 11.1338 12.9158 11.2041 13.0892C11.0401 13.0423 10.7823 12.9908 10.6277 12.958C10.7636 12.958 10.951 12.9767 11.0729 12.958C11.0729 12.808 11.026 12.6018 11.0026 12.4425" stroke="black" stroke-width="0.00468835"/>
<path d="M11.1337 12.916L10.6558 12.8129L11.1103 13.0378L11.204 13.005L11.1337 12.916Z" fill="#009B3A" stroke="black" stroke-width="0.00468835"/>
<path d="M11.0353 12.5035C11.0916 12.6862 11.1665 12.9721 11.2321 13.1455C11.0681 13.0986 10.8104 13.0471 10.6558 13.0142C10.7917 13.0142 10.9838 13.033 11.1009 13.0142C11.1009 12.8643 11.0541 12.6581 11.0353 12.4988" fill="#009B3A"/>
<path d="M11.0353 12.5035C11.0916 12.6862 11.1665 12.9721 11.2321 13.1455C11.0681 13.0986 10.8104 13.0471 10.6558 13.0142C10.7917 13.0142 10.9838 13.033 11.1009 13.0142C11.1009 12.8643 11.0541 12.6581 11.0353 12.4988" stroke="black" stroke-width="0.00468835"/>
<path d="M11.2136 12.9628C11.2136 12.9722 10.7544 12.7426 10.7544 12.7426L11.1668 13.08L11.2605 13.0706L11.2136 12.9675" fill="#009B3A"/>
<path d="M11.2136 12.9628C11.2136 12.9722 10.7544 12.7426 10.7544 12.7426L11.1668 13.08L11.2605 13.0706L11.2136 12.9675" stroke="black" stroke-width="0.00468835"/>
<path d="M11.0119 12.5363C11.1057 12.7003 11.2369 12.9674 11.34 13.122C11.1713 13.108 10.9088 13.1173 10.7495 13.122C10.8807 13.0892 11.0682 13.0658 11.1806 13.0189C11.1525 12.8783 11.0635 12.6815 11.0119 12.5363Z" fill="#009B3A" stroke="black" stroke-width="0.00468835"/>
<path d="M11.2839 13.0145L10.8059 12.8832L11.2558 13.1363L11.3495 13.1082L11.2839 13.0145Z" fill="#009B3A" stroke="black" stroke-width="0.00468835"/>
<path d="M11.0637 12.6066C11.1574 12.7706 11.2886 13.0377 11.3917 13.1877C11.223 13.1783 10.9606 13.1877 10.8013 13.1971C10.9372 13.1643 11.1246 13.1362 11.2371 13.0893C11.1996 12.9487 11.1152 12.7519 11.059 12.6066" fill="#009B3A"/>
<path d="M11.0637 12.6066C11.1574 12.7706 11.2886 13.0377 11.3917 13.1877C11.223 13.1783 10.9606 13.1877 10.8013 13.1971C10.9372 13.1643 11.1246 13.1362 11.2371 13.0893C11.1996 12.9487 11.1152 12.7519 11.059 12.6066" stroke="black" stroke-width="0.00468835"/>
<path d="M11.3448 13.0565L10.8997 12.7894L11.2886 13.1643H11.3917L11.3448 13.0565Z" fill="#009B3A" stroke="black" stroke-width="0.00468835"/>
<path d="M11.0965 12.6488C11.2043 12.8034 11.3636 13.0518 11.4807 13.1924C11.312 13.2018 11.059 13.2486 10.8997 13.2767C11.0309 13.2299 11.2089 13.1736 11.3167 13.108C11.2699 12.9675 11.1621 12.7894 11.0965 12.6488Z" fill="#009B3A" stroke="black" stroke-width="0.00468835"/>
<path d="M11.3779 13.0942L10.8997 13.0848L11.3732 13.2255L11.4576 13.1739L11.3779 13.0942ZM11.6592 10.7688L12.0014 10.7078L11.6592 10.7172L11.5982 10.75L11.6592 10.7688Z" fill="#009B3A" stroke="black" stroke-width="0.00468835"/>
<path d="M11.8466 10.839C11.7482 10.8109 11.5936 10.7593 11.4905 10.7359L11.8654 10.5672C11.7857 10.6141 11.6779 10.6797 11.617 10.7265C11.6732 10.764 11.7763 10.8062 11.8513 10.839" fill="#009B3A"/>
<path d="M11.8466 10.839C11.7482 10.8109 11.5936 10.7593 11.4905 10.7359L11.8654 10.5672C11.7857 10.6141 11.6779 10.6797 11.617 10.7265C11.6732 10.764 11.7763 10.8062 11.8513 10.839" stroke="black" stroke-width="0.00468835"/>
<path d="M11.6403 10.7781L11.9777 10.6844L11.6309 10.7312L11.5793 10.7687L11.6403 10.7781Z" fill="#009B3A" stroke="black" stroke-width="0.00468835"/>
<path d="M11.8653 10.8671C11.7481 10.853 11.5653 10.8296 11.4529 10.8296C11.5372 10.7546 11.6591 10.6234 11.734 10.5484C11.6872 10.6187 11.6028 10.7171 11.57 10.7874C11.6497 10.8202 11.7762 10.8389 11.8653 10.8671Z" fill="#009B3A" stroke="black" stroke-width="0.00468835"/>
<path d="M11.5184 10.8062L11.8652 10.7594L11.5278 10.7547L11.4622 10.7828L11.5184 10.8016" fill="#009B3A"/>
<path d="M11.5184 10.8062L11.8652 10.7594L11.5278 10.7547L11.4622 10.7828L11.5184 10.8016" stroke="black" stroke-width="0.00468835"/>
<path d="M11.7763 10.8765C11.6685 10.8577 11.5091 10.8202 11.4014 10.8109C11.4998 10.764 11.6497 10.6703 11.7435 10.6234C11.6732 10.6703 11.5748 10.7406 11.5232 10.7874C11.5888 10.8202 11.6966 10.8483 11.7763 10.8811" fill="#009B3A"/>
<path d="M11.7763 10.8765C11.6685 10.8577 11.5091 10.8202 11.4014 10.8109C11.4998 10.764 11.6497 10.6703 11.7435 10.6234C11.6732 10.6703 11.5748 10.7406 11.5232 10.7874C11.5888 10.8202 11.6966 10.8483 11.7763 10.8811" stroke="black" stroke-width="0.00468835"/>
<path d="M11.4902 10.7969L11.7948 10.6656L11.4574 10.7594L11.4199 10.7969H11.4902Z" fill="#009B3A" stroke="black" stroke-width="0.00468835"/>
<path d="M11.7668 10.9186C11.6731 10.8811 11.5419 10.8202 11.4529 10.7921C11.5232 10.7312 11.6169 10.6187 11.6778 10.5531C11.631 10.6187 11.57 10.7077 11.5466 10.7733C11.6028 10.8202 11.6966 10.8718 11.7668 10.9139" fill="#009B3A"/>
<path d="M11.7668 10.9186C11.6731 10.8811 11.5419 10.8202 11.4529 10.7921C11.5232 10.7312 11.6169 10.6187 11.6778 10.5531C11.631 10.6187 11.57 10.7077 11.5466 10.7733C11.6028 10.8202 11.6966 10.8718 11.7668 10.9139" stroke="black" stroke-width="0.00468835"/>
<path d="M11.5044 10.8204L11.7435 10.7172L11.4856 10.7547L11.4528 10.8016L11.5044 10.8204ZM11.3122 13.0567H10.8152L11.3168 13.1833L11.4012 13.127L11.3075 13.0567" fill="#009B3A"/>
<path d="M11.3122 13.0567H10.8152L11.3168 13.1833L11.4012 13.127L11.3075 13.0567M11.5044 10.8204L11.7435 10.7172L11.4856 10.7547L11.4528 10.8016L11.5044 10.8204Z" stroke="black" stroke-width="0.00468835"/>
<path d="M11.3965 13.0848L10.8904 12.963L11.373 13.1973L11.4668 13.1691L11.3918 13.0754" fill="#009B3A"/>
<path d="M11.3965 13.0848L10.8904 12.963L11.373 13.1973L11.4668 13.1691L11.3918 13.0754" stroke="black" stroke-width="0.00468835"/>
<path d="M11.476 13.1177L10.9792 13.0895L11.476 13.2442L11.5603 13.1973L11.476 13.1177Z" fill="#009B3A" stroke="black" stroke-width="0.00468835"/>
<path d="M11.1623 12.766C11.2888 12.9066 11.4856 13.1362 11.6215 13.2627C11.4528 13.2861 11.1998 13.3564 11.0498 13.3939C11.1716 13.3377 11.345 13.2674 11.4434 13.1971C11.3778 13.0659 11.2466 12.8972 11.1623 12.766Z" fill="#009B3A" stroke="black" stroke-width="0.00468835"/>
<path d="M11.5465 13.141L11.0498 12.977L11.5184 13.2582L11.6121 13.2347L11.5465 13.141Z" fill="#009B3A" stroke="black" stroke-width="0.00468835"/>
<path d="M11.209 12.7988C11.3496 12.9254 11.5604 13.1315 11.7057 13.244C11.5464 13.2909 11.3074 13.3893 11.1621 13.4502C11.2746 13.3752 11.4433 13.2862 11.5276 13.2018C11.4526 13.0753 11.3027 12.9207 11.209 12.7988Z" fill="#009B3A" stroke="black" stroke-width="0.00468835"/>
<path d="M11.5838 13.1739L11.1152 13.2676L11.612 13.3004L11.6822 13.2301L11.5885 13.1739" fill="#009B3A"/>
<path d="M11.5838 13.1739L11.1152 13.2676L11.612 13.3004L11.6822 13.2301L11.5885 13.1739" stroke="black" stroke-width="0.00468835"/>
<path d="M11.4901 13.1411L10.998 13.1785L11.5041 13.2676L11.5838 13.2067L11.4901 13.1411Z" fill="#009B3A" stroke="black" stroke-width="0.00468835"/>
<path d="M11.5791 13.1692L11.0684 13.0895L11.5698 13.291L11.6635 13.2536L11.5791 13.1692Z" fill="#009B3A" stroke="black" stroke-width="0.00468835"/>
<path d="M11.6637 13.1973L11.167 13.2067L11.6731 13.3192L11.7528 13.2676L11.6637 13.1973Z" fill="#009B3A" stroke="black" stroke-width="0.00468835"/>
<path d="M11.3215 12.8691C11.462 13.0004 11.6729 13.2159 11.8182 13.3284C11.6495 13.3659 11.4058 13.4502 11.2559 13.5018C11.373 13.4362 11.5417 13.3612 11.6354 13.2815C11.5605 13.1503 11.4152 12.991 11.3215 12.8691Z" fill="#009B3A" stroke="black" stroke-width="0.00468835"/>
<path d="M11.7339 13.2161L11.2278 13.0895L11.7151 13.3332L11.8089 13.3051L11.7339 13.2161Z" fill="#009B3A" stroke="black" stroke-width="0.00468835"/>
<path d="M11.3684 12.8973C11.523 13.0144 11.748 13.2066 11.9026 13.305C11.7232 13.3796 11.5465 13.4609 11.3731 13.5486C11.4809 13.469 11.6402 13.3659 11.7199 13.2769C11.6355 13.155 11.4762 13.0144 11.3684 12.8973Z" fill="#009B3A" stroke="black" stroke-width="0.00468835"/>
<path d="M11.7809 13.2442L11.3123 13.3707H11.8137L11.8746 13.2957L11.7809 13.2442Z" fill="#009B3A" stroke="black" stroke-width="0.00468835"/>
<path d="M12.4183 12.5452L12.0387 12.2828L11.6638 12.5452L11.8044 12.1235L11.4717 11.8657H11.8934L12.0387 11.444L12.1793 11.8657H12.6057L12.2777 12.1281L12.4183 12.5499V12.5452Z" fill="#FEDF00" stroke="black" stroke-width="0.0234418"/>
</g>
<defs>
<clipPath id="clip0_720_53315">
<rect width="24.0044" height="24.0044" fill="white" transform="translate(0.0131836 0.0700684)"/>
</clipPath>
</defs>
</svg>
