<svg width="25" height="25" viewBox="0 0 25 25" fill="none" xmlns="http://www.w3.org/2000/svg">
<g clip-path="url(#clip0_720_53351)">
<path d="M0.0214844 0.0700073H24.0259V12.0722H0.0214844V0.0700073Z" fill="#0038A8"/>
<path d="M0.0212402 12.0723H24.0256V24.0744H0.0212402V12.0723Z" fill="#CE1126"/>
<path d="M20.8096 12.0722L0.0214844 24.0744V0.0700073" fill="white"/>
<path d="M1.20285 2.15173L1.92486 2.77528L2.76407 2.31583L2.389 3.19255L3.09226 3.84892L2.13115 3.76922L1.72795 4.63187L1.50759 3.70358L0.560547 3.58168L1.38101 3.0894L1.20285 2.15173ZM17.4667 10.8064L17.4855 11.7582L18.3904 12.0723L17.4855 12.3864L17.4667 13.3381L16.8901 12.5786L15.9759 12.8599L16.5244 12.0723L15.9759 11.2893L16.8901 11.5659L17.4667 10.8064ZM1.73264 19.5127L2.13583 20.3754L3.08757 20.2957L2.39369 20.952L2.76407 21.8288L1.92486 21.3693L1.20285 21.9928L1.3857 21.0552L0.565235 20.5629L1.51228 20.441L1.73264 19.5127ZM7.47118 7.00887L7.16175 7.3183L7.31177 9.67654L7.15706 9.6906L6.87576 7.53865L6.6179 7.79182L7.00234 9.71405C6.69383 9.77643 6.40068 9.89911 6.13969 10.0751L5.0473 8.4435H4.6863L6.00841 10.1688L5.8912 10.2673L4.32998 8.4857H3.88928V8.93109L5.67085 10.4923L5.56771 10.6095L3.84239 9.28741V9.64841L5.47394 10.7408C5.29965 11.0022 5.17858 11.2953 5.11763 11.6035L3.1954 11.219L2.93754 11.4769L5.09418 11.7582L5.07543 11.9176L2.71719 11.7629L2.40307 12.0723L2.71719 12.3817L5.07543 12.2317L5.0895 12.3864L2.93754 12.6677L3.19071 12.9256L5.11294 12.5411C5.17532 12.8496 5.298 13.1428 5.47394 13.4038L3.84239 14.4962V14.8572L5.56771 13.5351L5.66616 13.6523L3.88459 15.2135V15.6542H4.33467L5.89589 13.8726L6.0131 13.9758L4.69099 15.7011H5.05199L6.14438 14.0695C6.40573 14.2438 6.69887 14.3649 7.00703 14.4258L6.62259 16.3481L6.88045 16.6059L7.16175 14.4493L7.31646 14.468L7.16644 16.8263L7.47587 17.1404L7.7853 16.8263L7.63527 14.468L7.78999 14.454L8.07129 16.6059L8.32915 16.3528L7.9447 14.4305C8.25321 14.3681 8.54637 14.2455 8.80736 14.0695L9.89974 15.7011H10.2607L8.92926 13.9758L9.04646 13.8773L10.6077 15.6589H11.0484V15.2135L9.26682 13.6523L9.36996 13.5351L11.0953 14.8572V14.4962L9.46373 13.4038C9.63801 13.1424 9.75909 12.8493 9.82004 12.5411L11.7423 12.9256L12.0001 12.6677L9.84348 12.3864L9.86224 12.2317L12.2205 12.3817L12.5346 12.0723L12.2205 11.7629L9.86224 11.9176C9.86224 11.8613 9.85755 11.8082 9.84817 11.7582L12.0001 11.4769L11.747 11.219L9.82473 11.6035C9.76235 11.2949 9.63967 11.0018 9.46373 10.7408L11.0953 9.64841V9.28741L9.36996 10.6095L9.27151 10.4923L11.0531 8.93109V8.49039H10.6077L9.04646 10.272L8.92926 10.1688L10.2514 8.4435H9.89037L8.79798 10.0751C8.53663 9.90076 8.24349 9.77969 7.93533 9.71874L8.31977 7.79651L8.06191 7.53865L7.78061 9.69529L7.62589 9.67654L7.77592 7.3183L7.47118 7.00887Z" fill="#FCD116"/>
</g>
<defs>
<clipPath id="clip0_720_53351">
<rect width="24.0044" height="24.0044" fill="white" transform="translate(0.0217285 0.0700684)"/>
</clipPath>
</defs>
</svg>
