<svg width="25" height="25" viewBox="0 0 25 25" fill="none" xmlns="http://www.w3.org/2000/svg">
<g clip-path="url(#clip0_720_53510)">
<path d="M9.63237 0.0700684H24.035V24.0744H9.62769L9.63237 0.0700684Z" fill="#FF0000"/>
<path d="M0.0305673 0.0700684H9.63231V24.0744H0.0258789L0.0305673 0.0700684Z" fill="#006600"/>
<path fill-rule="evenodd" clip-rule="evenodd" d="M13.8046 15.3823C12.1918 15.3354 4.80299 10.722 4.7561 9.98596L5.1593 9.30615C5.89068 10.3704 13.4483 14.8572 14.1891 14.6978L13.8046 15.3823Z" fill="#FFFF00" stroke="black" stroke-width="0.0328185" stroke-linecap="round" stroke-linejoin="round"/>
<path fill-rule="evenodd" clip-rule="evenodd" d="M5.07505 9.2124C4.92971 9.60153 7.00196 10.8815 9.49616 12.4005C11.9904 13.9148 14.1376 14.8525 14.3017 14.7212L14.3721 14.5853C14.3408 14.6353 14.2689 14.6446 14.1564 14.6134C13.4813 14.4165 11.7231 13.6101 9.54774 12.2926C7.37234 10.9752 5.47825 9.75625 5.18757 9.24053C5.16418 9.19241 5.15291 9.13929 5.15475 9.08582H5.14537L5.08442 9.19365L5.07505 9.2124ZM13.8423 15.401C13.8141 15.4526 13.7626 15.4526 13.6688 15.4479C13.064 15.3776 11.2309 14.4868 9.07421 13.1928C6.55188 11.6832 4.47025 10.3095 4.69998 9.95316L4.76093 9.84064L4.7703 9.84533C4.5687 10.4548 8.8773 12.9162 9.13047 13.0756C11.62 14.6228 13.7251 15.5229 13.9126 15.2885L13.8423 15.401Z" fill="#FFFF00" stroke="black" stroke-width="0.0328185" stroke-linecap="round" stroke-linejoin="round"/>
<path fill-rule="evenodd" clip-rule="evenodd" d="M9.64139 10.4313C11.2495 10.4173 13.242 10.211 14.386 9.75622L14.1422 9.35302C13.4624 9.72809 11.4652 9.97657 9.62732 10.0094C7.45193 9.99063 5.91883 9.78903 5.14994 9.27332L4.91553 9.69996C6.33141 10.2954 7.77542 10.4267 9.64139 10.4313Z" fill="#FFFF00" stroke="black" stroke-width="0.0328185" stroke-linecap="round" stroke-linejoin="round"/>
<path fill-rule="evenodd" clip-rule="evenodd" d="M14.4563 9.76559C14.4141 9.82654 13.6687 10.0844 12.5669 10.2719C11.5955 10.4176 10.6144 10.4897 9.63202 10.4876C8.6914 10.4918 7.75157 10.4323 6.81901 10.3094C5.67036 10.1266 5.07025 9.87342 4.8499 9.78434L4.90616 9.67651C5.52963 9.92225 6.17935 10.0953 6.84245 10.1922C7.7673 10.3132 8.6993 10.3712 9.63202 10.3657C10.6065 10.3663 11.5797 10.2942 12.5435 10.15C13.6687 9.96719 14.2876 9.73277 14.3719 9.62494L14.4563 9.76559ZM14.236 9.35301C14.1141 9.44678 13.5046 9.66713 12.4357 9.83592C11.5117 9.96854 10.5795 10.0343 9.64608 10.0328C8.74604 10.0397 7.84668 9.98168 6.95497 9.85936C5.86258 9.71871 5.28591 9.46085 5.07963 9.38583L5.14058 9.278C5.29998 9.36239 5.86258 9.58743 6.96903 9.74684C7.85666 9.86188 8.75105 9.9167 9.64608 9.91093C10.5717 9.91214 11.4961 9.84633 12.4122 9.71402C13.4905 9.56399 14.0719 9.29207 14.161 9.22174L14.236 9.35301ZM4.34356 12.3723C5.33749 12.9068 7.53632 13.1787 9.62264 13.1975C11.5214 13.1975 13.9969 12.9021 14.9205 12.4098L14.8924 11.8753C14.6064 12.3301 11.9574 12.7661 9.60389 12.7474C7.25033 12.7286 5.06556 12.3629 4.33887 11.8941V12.3723" fill="#FFFF00"/>
<path d="M4.34356 12.3723C5.33749 12.9068 7.53632 13.1787 9.62264 13.1975C11.5214 13.1975 13.9969 12.9021 14.9205 12.4098L14.8924 11.8753C14.6064 12.3301 11.9574 12.7661 9.60389 12.7474C7.25033 12.7286 5.06556 12.3629 4.33887 11.8941V12.3723M14.4563 9.76559C14.4141 9.82654 13.6687 10.0844 12.5669 10.2719C11.5955 10.4176 10.6144 10.4897 9.63202 10.4876C8.6914 10.4918 7.75157 10.4323 6.81901 10.3094C5.67036 10.1266 5.07025 9.87342 4.8499 9.78434L4.90616 9.67651C5.52963 9.92225 6.17935 10.0953 6.84245 10.1922C7.7673 10.3132 8.6993 10.3712 9.63202 10.3657C10.6065 10.3663 11.5797 10.2942 12.5435 10.15C13.6687 9.96719 14.2876 9.73277 14.3719 9.62494L14.4563 9.76559ZM14.236 9.35301C14.1141 9.44678 13.5046 9.66713 12.4357 9.83592C11.5117 9.96854 10.5795 10.0343 9.64608 10.0328C8.74604 10.0397 7.84668 9.98168 6.95497 9.85936C5.86258 9.71871 5.28591 9.46085 5.07963 9.38583L5.14058 9.278C5.29998 9.36239 5.86258 9.58743 6.96903 9.74684C7.85666 9.86188 8.75105 9.9167 9.64608 9.91093C10.5717 9.91214 11.4961 9.84633 12.4122 9.71402C13.4905 9.56399 14.0719 9.29207 14.161 9.22174L14.236 9.35301Z" stroke="black" stroke-width="0.0328185" stroke-linecap="round" stroke-linejoin="round"/>
<path fill-rule="evenodd" clip-rule="evenodd" d="M14.9722 12.2973V12.4239C14.8316 12.5927 13.9595 12.8459 12.8671 13.0193C11.7851 13.1765 10.6927 13.2518 9.59936 13.2444C8.31475 13.2444 7.29269 13.1506 6.49567 13.0287C5.73097 12.9417 4.98354 12.741 4.27808 12.4333V12.2833C4.76566 12.6068 6.07372 12.8412 6.51442 12.9115C7.30206 13.0334 8.31944 13.1225 9.59936 13.1225C10.9449 13.1225 12.0232 13.0287 12.8484 12.9021C13.636 12.7896 14.7519 12.4942 14.9722 12.2973ZM14.9722 11.8426V11.9738C14.8316 12.1379 13.9595 12.3911 12.8671 12.5646C11.7851 12.7218 10.6927 12.797 9.59936 12.7896C8.31475 12.7896 7.29269 12.6958 6.50036 12.5786C5.73381 12.4905 4.98476 12.2883 4.27808 11.9785V11.8285C4.76566 12.152 6.07372 12.3911 6.51442 12.4567C7.30675 12.5786 8.32413 12.6724 9.59936 12.6724C10.9449 12.6724 12.0232 12.5786 12.8484 12.4474C13.636 12.3348 14.7519 12.0395 14.9722 11.8426ZM9.61811 15.2885C7.33957 15.2744 5.38453 14.6696 4.97195 14.5665L5.27201 15.0353C5.9987 15.3448 7.90686 15.8042 9.64155 15.7526C11.3762 15.7011 12.8906 15.5651 13.9548 15.0494L14.2643 14.5571C13.5376 14.8994 11.0621 15.2885 9.6228 15.2885" fill="#FFFF00"/>
<path d="M9.61811 15.2885C7.33957 15.2744 5.38453 14.6696 4.97195 14.5665L5.27201 15.0353C5.9987 15.3448 7.90686 15.8042 9.64155 15.7526C11.3762 15.7011 12.8906 15.5651 13.9548 15.0494L14.2643 14.5571C13.5376 14.8994 11.0621 15.2885 9.6228 15.2885M14.9722 12.2973V12.4239C14.8316 12.5927 13.9595 12.8459 12.8671 13.0193C11.7851 13.1765 10.6927 13.2518 9.59936 13.2444C8.31475 13.2444 7.29269 13.1506 6.49567 13.0287C5.73097 12.9417 4.98354 12.741 4.27808 12.4333V12.2833C4.76566 12.6068 6.07372 12.8412 6.51442 12.9115C7.30206 13.0334 8.31944 13.1225 9.59936 13.1225C10.9449 13.1225 12.0232 13.0287 12.8484 12.9021C13.636 12.7896 14.7519 12.4942 14.9722 12.2973ZM14.9722 11.8426V11.9738C14.8316 12.1379 13.9595 12.3911 12.8671 12.5646C11.7851 12.7218 10.6927 12.797 9.59936 12.7896C8.31475 12.7896 7.29269 12.6958 6.50036 12.5786C5.73381 12.4905 4.98476 12.2883 4.27808 11.9785V11.8285C4.76566 12.152 6.07372 12.3911 6.51442 12.4567C7.30675 12.5786 8.32413 12.6724 9.59936 12.6724C10.9449 12.6724 12.0232 12.5786 12.8484 12.4474C13.636 12.3348 14.7519 12.0395 14.9722 11.8426Z" stroke="black" stroke-width="0.0328185" stroke-linecap="round" stroke-linejoin="round"/>
<path fill-rule="evenodd" clip-rule="evenodd" d="M14.072 14.9369L13.9314 15.1431C13.3994 15.3196 12.8558 15.459 12.3045 15.5604C11.4199 15.7232 10.5223 15.8048 9.62279 15.8042C7.60211 15.7761 5.94712 15.3823 5.16885 15.0447L5.10321 14.9369L5.11728 14.9181L5.22042 14.9603C6.64399 15.4316 8.13264 15.6768 9.63216 15.687C10.5698 15.6917 11.5075 15.5792 12.2623 15.4479C13.425 15.2135 13.8939 15.04 14.0392 14.9603L14.072 14.9369ZM14.3393 14.4962H14.344L14.2408 14.6743C13.9736 14.7681 13.2422 14.9837 12.1779 15.1338C11.4747 15.2275 11.0387 15.3213 9.64623 15.3494C8.05081 15.3322 6.46534 15.0956 4.93443 14.6462L4.87817 14.529C6.43312 14.9559 8.03424 15.1921 9.64623 15.2322C10.9215 15.2041 11.4653 15.1103 12.1592 15.0119C13.4016 14.8243 14.0252 14.6181 14.2127 14.5571L14.208 14.5477L14.3393 14.4962Z" fill="#FFFF00" stroke="black" stroke-width="0.0281301" stroke-linecap="round" stroke-linejoin="round"/>
<path fill-rule="evenodd" clip-rule="evenodd" d="M14.3673 11.9504C14.3767 13.4507 13.6078 14.8009 12.9889 15.3963C12.0799 16.2805 10.8672 16.7836 9.59925 16.8028C8.08491 16.831 6.65965 15.8417 6.27521 15.4104C5.52507 14.5618 4.91558 13.4882 4.89683 12.0348C4.9906 10.3939 5.6329 9.25458 6.56588 8.47163C7.46809 7.72798 8.60359 7.32624 9.77272 7.33705C10.9636 7.36986 12.3607 7.95591 13.3218 9.11862C13.95 9.87813 14.2267 10.7033 14.3673 11.9551V11.9504ZM9.61331 6.81195C12.5201 6.81195 14.9112 9.17957 14.9112 12.077C14.9025 13.4764 14.3405 14.8155 13.3479 15.8019C12.3553 16.7884 11.0127 17.342 9.61331 17.342C6.70653 17.342 4.33423 14.9791 4.33423 12.077C4.33423 9.17488 6.70653 6.81195 9.61331 6.81195Z" fill="#FFFF00" stroke="black" stroke-width="0.0328185" stroke-linecap="round" stroke-linejoin="round"/>
<path fill-rule="evenodd" clip-rule="evenodd" d="M9.62728 6.7932C12.5341 6.7932 14.9064 9.1702 14.9064 12.077C14.9064 14.9838 12.5341 17.3607 9.62728 17.3607C8.22627 17.357 6.88377 16.7985 5.89354 15.8074C4.90331 14.8163 4.34598 13.4733 4.34351 12.0723C4.34722 10.6721 4.90509 9.33029 5.89519 8.3402C6.88528 7.3501 8.22708 6.79223 9.62728 6.78851V6.7932ZM4.46071 12.077C4.46071 14.9181 6.79551 17.2435 9.62728 17.2435C12.459 17.2435 14.7892 14.9181 14.7892 12.077C14.7892 9.23583 12.459 6.9151 9.62728 6.9151C8.25935 6.92003 6.94879 7.46531 5.98107 8.43215C5.01335 9.39898 4.46689 10.7091 4.46071 12.077Z" fill="#FFFF00" stroke="black" stroke-width="0.0328185" stroke-linecap="round" stroke-linejoin="round"/>
<path fill-rule="evenodd" clip-rule="evenodd" d="M9.63213 7.23389C12.2811 7.23389 14.4658 9.41397 14.4658 12.0723C14.4658 14.7306 12.2811 16.9106 9.63213 16.9106C8.34962 16.9069 7.12063 16.3961 6.21331 15.4897C5.306 14.5833 4.79401 13.3548 4.78906 12.0723C4.78906 9.41397 6.97383 7.23389 9.62744 7.23389H9.63213ZM4.90627 12.0723C4.90627 14.6696 7.03947 16.7934 9.63213 16.7934C12.2248 16.7934 14.3533 14.6696 14.3533 12.0723C14.3533 9.47492 12.2201 7.3511 9.62744 7.3511C7.03478 7.3511 4.90627 9.47492 4.90627 12.0723Z" fill="#FFFF00" stroke="black" stroke-width="0.0328185" stroke-linecap="round" stroke-linejoin="round"/>
<path fill-rule="evenodd" clip-rule="evenodd" d="M9.84295 6.77441H9.38818V17.3888H9.84295V6.77441Z" fill="#FFFF00" stroke="black" stroke-width="0.0328185" stroke-linecap="round" stroke-linejoin="round"/>
<path fill-rule="evenodd" clip-rule="evenodd" d="M9.79627 6.7135H9.91348V17.4498H9.79627V6.7135ZM9.34619 6.7135H9.4634V17.4498H9.34619V6.7135Z" fill="#FFFF00" stroke="black" stroke-width="0.0328185" stroke-linecap="round" stroke-linejoin="round"/>
<path fill-rule="evenodd" clip-rule="evenodd" d="M14.9113 12.2832V11.8847L14.5924 11.5894L12.7781 11.1065L10.162 10.8392L7.02075 10.9986L4.77503 11.5331L4.32495 11.8707V12.2598L5.46891 11.7441L8.18815 11.3221H10.8043L12.7265 11.5331L14.058 11.8566L14.9113 12.2832Z" fill="#FFFF00" stroke="black" stroke-width="0.0328185" stroke-linecap="round" stroke-linejoin="round"/>
<path fill-rule="evenodd" clip-rule="evenodd" d="M9.62749 11.2612C10.7737 11.2565 11.9179 11.3585 13.0453 11.5659C14.0345 11.7628 14.7331 12.0113 14.9675 12.2879V12.4286C14.6862 12.0816 13.7485 11.8285 13.0219 11.6784C12.0701 11.4956 10.8652 11.3784 9.62749 11.3784C8.31475 11.3784 7.09578 11.505 6.15811 11.6878C5.40797 11.8378 4.40466 12.1332 4.27808 12.4286V12.2879C4.3484 12.0816 5.09385 11.7769 6.14404 11.5659C7.29334 11.3574 8.45944 11.2554 9.62749 11.2612ZM9.62749 10.8064C10.7753 10.802 11.921 10.904 13.05 11.1111C14.0345 11.308 14.7378 11.5565 14.9722 11.8378V11.9738C14.6862 11.6269 13.7439 11.3737 13.0219 11.2283C12.0701 11.0408 10.8652 10.9236 9.62749 10.9236C8.46709 10.92 7.30883 11.0236 6.16748 11.233C5.44079 11.3737 4.39528 11.6831 4.27808 11.9738V11.8331C4.3484 11.6315 5.1126 11.3174 6.14404 11.1158C7.2932 10.9057 8.45929 10.8022 9.62749 10.8064ZM9.60405 8.49504C11.5685 8.48566 13.2844 8.77165 14.0674 9.17485L14.3533 9.66712C13.6735 9.30143 11.8216 8.91699 9.60405 8.97794C7.79903 8.98731 5.87212 9.17485 4.90163 9.69057L5.24388 9.11859C6.0409 8.70601 7.91624 8.49972 9.60405 8.49504Z" fill="#FFFF00" stroke="black" stroke-width="0.0328185" stroke-linecap="round" stroke-linejoin="round"/>
<path fill-rule="evenodd" clip-rule="evenodd" d="M9.62733 8.90292C10.7525 8.90292 11.8309 8.96387 12.6935 9.11858C13.4952 9.26861 14.2641 9.49365 14.3719 9.61555L14.4563 9.76558C14.1891 9.59211 13.528 9.3952 12.6748 9.23579C11.6672 9.07526 10.6474 9.00465 9.62733 9.02482C8.36148 9.02482 7.37692 9.08576 6.53302 9.23579C5.64223 9.39988 5.02337 9.63899 4.86865 9.75151L4.95304 9.59679C5.24841 9.44208 5.72193 9.25923 6.51426 9.11858C7.3863 8.95918 8.37554 8.91229 9.62733 8.90292ZM9.62733 8.45284C10.6175 8.43726 11.6072 8.50627 12.5857 8.65912C13.2374 8.78571 13.8797 8.98262 14.1188 9.15609L14.2407 9.353C14.0297 9.11858 13.2374 8.89823 12.5341 8.77633C11.7183 8.63568 10.701 8.57942 9.62733 8.57005C8.50213 8.57005 7.46131 8.64037 6.65492 8.78571C5.88603 8.93574 5.38906 9.10921 5.17808 9.24517L5.28592 9.07639C5.57659 8.92636 6.04543 8.78571 6.63616 8.6685C7.44725 8.52316 8.49744 8.45284 9.62733 8.45284ZM12.2528 14.2711C11.386 14.1215 10.5068 14.0556 9.62733 14.0742C6.35017 14.1117 5.29529 14.7446 5.16402 14.9368L4.92022 14.5383C5.75006 13.9335 7.53164 13.596 9.6414 13.6288C10.7353 13.6444 11.6793 13.7257 12.4732 13.8726L12.2481 14.2711" fill="#FFFF00"/>
<path d="M12.2528 14.2711C11.386 14.1215 10.5068 14.0556 9.62733 14.0742C6.35017 14.1117 5.29529 14.7446 5.16402 14.9368L4.92022 14.5383C5.75006 13.9335 7.53164 13.596 9.6414 13.6288C10.7353 13.6444 11.6793 13.7257 12.4732 13.8726L12.2481 14.2711M9.62733 8.90292C10.7525 8.90292 11.8309 8.96387 12.6935 9.11858C13.4952 9.26861 14.2641 9.49365 14.3719 9.61555L14.4563 9.76558C14.1891 9.59211 13.528 9.3952 12.6748 9.23579C11.6672 9.07526 10.6474 9.00465 9.62733 9.02482C8.36148 9.02482 7.37692 9.08576 6.53302 9.23579C5.64223 9.39988 5.02337 9.63899 4.86865 9.75151L4.95304 9.59679C5.24841 9.44208 5.72193 9.25923 6.51426 9.11858C7.3863 8.95918 8.37554 8.91229 9.62733 8.90292ZM9.62733 8.45284C10.6175 8.43726 11.6072 8.50627 12.5857 8.65912C13.2374 8.78571 13.8797 8.98262 14.1188 9.15609L14.2407 9.353C14.0297 9.11858 13.2374 8.89823 12.5341 8.77633C11.7183 8.63568 10.701 8.57942 9.62733 8.57005C8.50213 8.57005 7.46131 8.64037 6.65492 8.78571C5.88603 8.93574 5.38906 9.10921 5.17808 9.24517L5.28592 9.07639C5.57659 8.92636 6.04543 8.78571 6.63616 8.6685C7.44725 8.52316 8.49744 8.45284 9.62733 8.45284Z" stroke="black" stroke-width="0.0328185" stroke-linecap="round" stroke-linejoin="round"/>
<path fill-rule="evenodd" clip-rule="evenodd" d="M9.60877 14.018C10.5183 14.032 11.4138 14.0648 12.2811 14.2289L12.2155 14.3414C11.3563 14.1932 10.4852 14.1257 9.61346 14.1398C8.40386 14.1305 7.17552 14.243 6.11595 14.5477C5.77839 14.6415 5.22516 14.8572 5.16421 15.0353L5.10326 14.9322C5.12202 14.829 5.45958 14.6087 6.08782 14.4352C7.30679 14.0836 8.44606 14.0273 9.60408 14.0133L9.60877 14.018ZM9.65097 13.5585C10.6112 13.5576 11.5698 13.6407 12.5156 13.807L12.4499 13.9242C11.5282 13.7556 10.5927 13.6739 9.65566 13.6804C8.44137 13.6804 7.15676 13.7695 5.98467 14.107C5.60961 14.2196 4.95324 14.454 4.93448 14.6415L4.87354 14.5337C4.8876 14.3649 5.4502 14.1398 5.96123 13.9898C7.16506 13.6749 8.40697 13.5298 9.65097 13.5585Z" fill="#FFFF00" stroke="black" stroke-width="0.0281301" stroke-linecap="round" stroke-linejoin="round"/>
<path fill-rule="evenodd" clip-rule="evenodd" d="M14.3017 14.5993L13.9079 15.2088L12.778 14.2055L9.84305 12.2364L6.53776 10.4173L4.81714 9.83126L5.18283 9.15145L5.30942 9.08582L6.37836 9.35305L9.89462 11.1674L11.9247 12.4474L13.6266 13.6663L14.3204 14.468L14.3017 14.5993Z" fill="#FFFF00" stroke="black" stroke-width="0.0328185" stroke-linecap="round" stroke-linejoin="round"/>
<path fill-rule="evenodd" clip-rule="evenodd" d="M4.75631 9.84533C5.06105 9.64373 7.27396 10.6283 9.58531 12.0254C11.8967 13.4225 14.1049 15.0072 13.908 15.3073L13.8423 15.4057L13.8095 15.4292C13.8189 15.4292 13.8517 15.3823 13.8095 15.2744C13.7064 14.9509 12.1452 13.7038 9.54312 12.1332C7.01141 10.6236 4.90165 9.71405 4.69067 9.9766L4.75631 9.84533ZM14.3815 14.5899C14.569 14.2149 12.5202 12.6677 9.97445 11.1628C7.37241 9.68592 5.49238 8.81858 5.15013 9.07644L5.07512 9.21709L5.09387 9.19365C5.15482 9.14208 5.25796 9.14676 5.30485 9.14676C5.89558 9.15145 7.58339 9.92503 9.94632 11.2847C10.9824 11.8848 14.3252 14.032 14.3112 14.6321C14.3112 14.6837 14.3159 14.6931 14.2971 14.7212L14.3815 14.5899Z" fill="#FFFF00" stroke="black" stroke-width="0.0328185" stroke-linecap="round" stroke-linejoin="round"/>
<path d="M6.46216 12.657C6.46383 13.0709 6.54714 13.4805 6.70733 13.8622C6.86751 14.2439 7.10142 14.5902 7.39566 14.8814C7.68702 15.1772 8.03404 15.4125 8.41672 15.5736C8.7994 15.7348 9.21019 15.8186 9.62541 15.8202C10.0417 15.8214 10.454 15.7399 10.8386 15.5806C11.2232 15.4213 11.5723 15.1873 11.8658 14.8921C12.1597 14.5998 12.393 14.2524 12.5523 13.8698C12.7116 13.4871 12.7937 13.0768 12.794 12.6623V8.43755L6.46216 8.42688V12.657Z" fill="white" stroke="black" stroke-width="0.0373402"/>
<path d="M6.59033 12.6623C6.59028 13.0597 6.66951 13.4531 6.82339 13.8195C6.97727 14.1859 7.20271 14.5179 7.4865 14.796C8.05442 15.3669 8.82562 15.6892 9.63089 15.6922C10.4346 15.6921 11.2056 15.3737 11.7753 14.8067C12.0581 14.5281 12.2826 14.1959 12.4355 13.8295C12.5885 13.4632 12.6669 13.07 12.6661 12.673V8.56555H6.59033V12.6623ZM11.4446 9.79778V12.4063L11.4392 12.6783C11.4416 12.9167 11.3956 13.1531 11.3039 13.3732C11.2122 13.5932 11.0768 13.7924 10.9058 13.9585C10.5666 14.2989 10.1061 14.4908 9.62556 14.492C9.12413 14.492 8.68138 14.2786 8.35066 13.9479C8.01026 13.6087 7.8184 13.1482 7.81722 12.6676V9.78711L11.4446 9.79778Z" fill="#FF0000" stroke="black" stroke-width="0.0266716"/>
<path d="M6.97485 9.63746C6.98019 9.34421 7.18812 9.2749 7.18812 9.2749C7.19345 9.2749 7.41739 9.34955 7.41739 9.64279L6.97485 9.63746Z" fill="#FFFF00"/>
<path d="M6.79332 9.28023L6.75599 9.61613H6.97993C6.97993 9.33888 7.1932 9.29623 7.1932 9.29623C7.19853 9.29623 7.40646 9.35488 7.4118 9.61613H7.63573L7.59307 9.2749L6.79332 9.28023ZM6.74 9.62146H7.64639C7.66416 9.62146 7.67483 9.63391 7.67838 9.65879C7.67838 9.68722 7.66772 9.70144 7.64639 9.70144H6.74C6.72223 9.70144 6.71156 9.68722 6.70801 9.65879C6.70801 9.63391 6.72045 9.62146 6.74533 9.62146H6.74Z" fill="#FFFF00" stroke="black" stroke-width="0.0266716"/>
<path d="M7.07072 9.61582C7.07072 9.43987 7.19335 9.39189 7.19335 9.39189C7.19335 9.39189 7.31598 9.44521 7.31598 9.61582H7.07072ZM6.76148 9.13597H7.63055C7.64833 9.13952 7.65899 9.15374 7.66254 9.17862C7.66254 9.19639 7.65188 9.20705 7.63055 9.21061H6.76148C6.74371 9.21061 6.73305 9.19817 6.72949 9.17329C6.72949 9.15551 6.74016 9.14485 6.76148 9.1413V9.13597ZM6.78281 9.21594H7.60389C7.62167 9.21594 7.63233 9.22838 7.63589 9.25326C7.63944 9.27814 7.62878 9.29059 7.60389 9.29059H6.77748C6.75615 9.29059 6.74549 9.27814 6.74549 9.25326C6.74549 9.22838 6.75615 9.21594 6.77748 9.21594H6.78281ZM7.0494 8.65078H7.11338V8.69343H7.16136V8.65078H7.23067V8.69876H7.27866V8.64545H7.34264V8.75208C7.34264 8.77341 7.33375 8.78407 7.31598 8.78407H7.08139C7.06361 8.78407 7.05295 8.77518 7.0494 8.75741V8.65078ZM7.29465 8.79474L7.31065 9.13597H7.08139L7.09738 8.7894H7.29465" fill="#FFFF00"/>
<path d="M7.29465 8.79474L7.31065 9.13597H7.08139L7.09738 8.7894H7.29465M7.07072 9.61582C7.07072 9.43987 7.19335 9.39189 7.19335 9.39189C7.19335 9.39189 7.31598 9.44521 7.31598 9.61582H7.07072ZM6.76148 9.13597H7.63055C7.64833 9.13952 7.65899 9.15374 7.66254 9.17862C7.66254 9.19639 7.65188 9.20705 7.63055 9.21061H6.76148C6.74371 9.21061 6.73305 9.19817 6.72949 9.17329C6.72949 9.15551 6.74016 9.14485 6.76148 9.1413V9.13597ZM6.78281 9.21594H7.60389C7.62167 9.21594 7.63233 9.22838 7.63589 9.25326C7.63944 9.27814 7.62878 9.29059 7.60389 9.29059H6.77748C6.75615 9.29059 6.74549 9.27814 6.74549 9.25326C6.74549 9.22838 6.75615 9.21594 6.77748 9.21594H6.78281ZM7.0494 8.65078H7.11338V8.69343H7.16136V8.65078H7.23067V8.69876H7.27866V8.64545H7.34264V8.75208C7.34264 8.77341 7.33375 8.78407 7.31598 8.78407H7.08139C7.06361 8.78407 7.05295 8.77518 7.0494 8.75741V8.65078Z" stroke="black" stroke-width="0.0266716"/>
<path d="M7.01747 8.95483V9.13611H6.8042V8.95483H7.01747Z" fill="#FFFF00" stroke="black" stroke-width="0.0266716"/>
<path d="M7.5829 8.95483V9.13611H7.36963V8.95483H7.5829Z" fill="#FFFF00" stroke="black" stroke-width="0.0266716"/>
<path d="M6.76685 8.81616H6.83083V8.86948H6.87881V8.81616H6.94279V8.86948H6.99078V8.81616H7.05476V8.9228C7.05476 8.94412 7.04587 8.95479 7.0281 8.95479H6.79884L6.76685 8.9228V8.81616Z" fill="#FFFF00" stroke="black" stroke-width="0.0266716"/>
<path d="M7.33228 8.81616H7.39626V8.86948H7.44424V8.81616H7.50822V8.86948H7.55621V8.81616H7.62019V8.9228C7.62019 8.94412 7.6113 8.95479 7.59353 8.95479H7.36427L7.33228 8.9228V8.81616Z" fill="#FFFF00" stroke="black" stroke-width="0.0266716"/>
<path d="M7.17212 8.90138C7.17212 8.86954 7.21987 8.86954 7.21987 8.90138V8.98627H7.17212V8.90138Z" fill="#000001"/>
<path d="M6.8894 9.01875C6.8894 8.98691 6.93185 8.98691 6.93185 9.01875V9.08242H6.8894V9.01875Z" fill="#000001"/>
<path d="M7.45483 9.01875C7.45483 8.98691 7.49728 8.98691 7.49728 9.01875V9.08242H7.45483V9.01875Z" fill="#000001"/>
<path d="M6.97485 12.1073C6.98019 11.8141 7.18812 11.7448 7.18812 11.7448C7.19345 11.7448 7.41739 11.8194 7.41739 12.1126L6.97485 12.1073Z" fill="#FFFF00"/>
<path d="M6.79332 11.7501L6.75599 12.086H6.97993C6.97993 11.8087 7.1932 11.7661 7.1932 11.7661C7.19853 11.7661 7.40646 11.8247 7.4118 12.086H7.63573L7.59307 11.7448L6.79332 11.7501ZM6.74 12.0913H7.64639C7.66416 12.0913 7.67483 12.1038 7.67838 12.1286C7.67838 12.1571 7.66772 12.1713 7.64639 12.1713H6.74C6.72223 12.1713 6.71156 12.1571 6.70801 12.1286C6.70801 12.1038 6.72045 12.0913 6.74533 12.0913H6.74Z" fill="#FFFF00" stroke="black" stroke-width="0.0266716"/>
<path d="M7.07072 12.0857C7.07072 11.9097 7.19335 11.8617 7.19335 11.8617C7.19335 11.8617 7.31598 11.9151 7.31598 12.0857H7.07072ZM6.76148 11.6058H7.63055C7.64833 11.6094 7.65899 11.6236 7.66254 11.6485C7.66254 11.6662 7.65188 11.6769 7.63055 11.6805H6.76148C6.74371 11.6805 6.73305 11.668 6.72949 11.6431C6.72949 11.6254 6.74016 11.6147 6.76148 11.6111V11.6058ZM6.78281 11.6858H7.60389C7.62167 11.6858 7.63233 11.6982 7.63589 11.7231C7.63944 11.748 7.62878 11.7604 7.60389 11.7604H6.77748C6.75615 11.7604 6.74549 11.748 6.74549 11.7231C6.74549 11.6982 6.75615 11.6858 6.77748 11.6858H6.78281ZM7.0494 11.1206H7.11338V11.1633H7.16136V11.1206H7.23067V11.1686H7.27866V11.1153H7.34264V11.2219C7.34264 11.2433 7.33375 11.2539 7.31598 11.2539H7.08139C7.06361 11.2539 7.05295 11.245 7.0494 11.2273V11.1206ZM7.29465 11.2646L7.31065 11.6058H7.08139L7.09738 11.2593H7.29465" fill="#FFFF00"/>
<path d="M7.29465 11.2646L7.31065 11.6058H7.08139L7.09738 11.2593H7.29465M7.07072 12.0857C7.07072 11.9097 7.19335 11.8617 7.19335 11.8617C7.19335 11.8617 7.31598 11.9151 7.31598 12.0857H7.07072ZM6.76148 11.6058H7.63055C7.64833 11.6094 7.65899 11.6236 7.66254 11.6485C7.66254 11.6662 7.65188 11.6769 7.63055 11.6805H6.76148C6.74371 11.6805 6.73305 11.668 6.72949 11.6431C6.72949 11.6254 6.74016 11.6147 6.76148 11.6111V11.6058ZM6.78281 11.6858H7.60389C7.62167 11.6858 7.63233 11.6982 7.63589 11.7231C7.63944 11.748 7.62878 11.7604 7.60389 11.7604H6.77748C6.75615 11.7604 6.74549 11.748 6.74549 11.7231C6.74549 11.6982 6.75615 11.6858 6.77748 11.6858H6.78281ZM7.0494 11.1206H7.11338V11.1633H7.16136V11.1206H7.23067V11.1686H7.27866V11.1153H7.34264V11.2219C7.34264 11.2433 7.33375 11.2539 7.31598 11.2539H7.08139C7.06361 11.2539 7.05295 11.245 7.0494 11.2273V11.1206Z" stroke="black" stroke-width="0.0266716"/>
<path d="M7.01747 11.4247V11.606H6.8042V11.4247H7.01747Z" fill="#FFFF00" stroke="black" stroke-width="0.0266716"/>
<path d="M7.5829 11.4247V11.606H7.36963V11.4247H7.5829Z" fill="#FFFF00" stroke="black" stroke-width="0.0266716"/>
<path d="M6.76685 11.286H6.83083V11.3393H6.87881V11.286H6.94279V11.3393H6.99078V11.286H7.05476V11.3926C7.05476 11.414 7.04587 11.4246 7.0281 11.4246H6.79884L6.76685 11.3926V11.286Z" fill="#FFFF00" stroke="black" stroke-width="0.0266716"/>
<path d="M7.33228 11.286H7.39626V11.3393H7.44424V11.286H7.50822V11.3393H7.55621V11.286H7.62019V11.3926C7.62019 11.414 7.6113 11.4246 7.59353 11.4246H7.36427L7.33228 11.3926V11.286Z" fill="#FFFF00" stroke="black" stroke-width="0.0266716"/>
<path d="M7.17212 11.3712C7.17212 11.3394 7.21987 11.3394 7.21987 11.3712V11.4561H7.17212V11.3712Z" fill="#000001"/>
<path d="M6.8894 11.4886C6.8894 11.4568 6.93185 11.4568 6.93185 11.4886V11.5523H6.8894V11.4886Z" fill="#000001"/>
<path d="M7.45483 11.4886C7.45483 11.4568 7.49728 11.4568 7.49728 11.4886V11.5523H7.45483V11.4886Z" fill="#000001"/>
<path d="M7.93695 14.6814C7.73263 14.471 7.82996 14.2746 7.82996 14.2746C7.83372 14.2709 8.04448 14.1646 8.25255 14.3712L7.93695 14.6814Z" fill="#FFFF00"/>
<path d="M7.55559 14.5585L7.76764 14.8216L7.92543 14.6627C7.7287 14.4674 7.84871 14.286 7.84871 14.286C7.85247 14.2822 8.0406 14.176 8.22974 14.3563L8.38753 14.1974L8.11535 13.9872L7.55559 14.5585ZM7.76015 14.8367L8.39883 14.1936C8.41135 14.181 8.42769 14.1822 8.44785 14.1972C8.46803 14.2172 8.4706 14.2348 8.45558 14.2499L7.8169 14.8931C7.80438 14.9057 7.78677 14.9032 7.76409 14.8857C7.74644 14.8682 7.74638 14.8506 7.76391 14.833L7.76015 14.8367Z" fill="#FFFF00" stroke="black" stroke-width="0.0266716"/>
<path d="M7.98905 14.5982C7.8642 14.4742 7.91656 14.3534 7.91656 14.3534C7.91656 14.3534 8.0408 14.3039 8.16187 14.4242L7.98905 14.5982ZM7.43066 14.4795L8.04303 13.8628C8.05808 13.8527 8.07568 13.8552 8.09584 13.8702C8.10845 13.8827 8.10851 13.8978 8.096 13.9154L7.48362 14.5321C7.4711 14.5447 7.45476 14.5435 7.4346 14.5285C7.42199 14.516 7.42194 14.5009 7.43444 14.4832L7.43066 14.4795ZM7.50243 14.5207L8.081 13.9381C8.09352 13.9255 8.10986 13.9267 8.13002 13.9417C8.15018 13.9567 8.1515 13.973 8.13396 13.9907L7.55164 14.5771C7.53661 14.5922 7.52027 14.591 7.50262 14.5735C7.48496 14.556 7.48365 14.5396 7.49868 14.5245L7.50243 14.5207ZM7.28926 13.9333L7.33434 13.8879L7.36461 13.918L7.39842 13.8839L7.36815 13.8539L7.41699 13.8047L7.45104 13.8385L7.48485 13.8045L7.44702 13.7669L7.4921 13.7215L7.56777 13.7966C7.5829 13.8116 7.58421 13.8255 7.57168 13.8381L7.40638 14.0045C7.39386 14.0172 7.38004 14.0185 7.36492 14.0085L7.28926 13.9333ZM7.56422 13.8607L7.81762 14.0898L7.65607 14.2525L7.42143 13.9969L7.56044 13.857" fill="#FFFF00"/>
<path d="M7.56422 13.8607L7.81762 14.0898L7.65607 14.2525L7.42143 13.9969L7.56044 13.857M7.98905 14.5982C7.8642 14.4742 7.91656 14.3534 7.91656 14.3534C7.91656 14.3534 8.0408 14.3039 8.16187 14.4242L7.98905 14.5982ZM7.43066 14.4795L8.04303 13.8628C8.05808 13.8527 8.07568 13.8552 8.09584 13.8702C8.10845 13.8827 8.10851 13.8978 8.096 13.9154L7.48362 14.5321C7.4711 14.5447 7.45476 14.5435 7.4346 14.5285C7.42199 14.516 7.42194 14.5009 7.43444 14.4832L7.43066 14.4795ZM7.50243 14.5207L8.081 13.9381C8.09352 13.9255 8.10986 13.9267 8.13002 13.9417C8.15018 13.9567 8.1515 13.973 8.13396 13.9907L7.55164 14.5771C7.53661 14.5922 7.52027 14.591 7.50262 14.5735C7.48496 14.556 7.48365 14.5396 7.49868 14.5245L7.50243 14.5207ZM7.28926 13.9333L7.33434 13.8879L7.36461 13.918L7.39842 13.8839L7.36815 13.8539L7.41699 13.8047L7.45104 13.8385L7.48485 13.8045L7.44702 13.7669L7.4921 13.7215L7.56777 13.7966C7.5829 13.8116 7.58421 13.8255 7.57168 13.8381L7.40638 14.0045C7.39386 14.0172 7.38004 14.0185 7.36492 14.0085L7.28926 13.9333Z" stroke="black" stroke-width="0.0266716"/>
<path d="M7.48255 14.1702L7.61118 14.2979L7.46091 14.4493L7.33228 14.3215L7.48255 14.1702Z" fill="#FFFF00" stroke="black" stroke-width="0.0266716"/>
<path d="M7.88099 13.769L8.00962 13.8968L7.85934 14.0481L7.73071 13.9203L7.88099 13.769Z" fill="#FFFF00" stroke="black" stroke-width="0.0266716"/>
<path d="M7.20752 14.2503L7.2526 14.2049L7.29043 14.2425L7.32425 14.2084L7.28641 14.1709L7.3315 14.1255L7.36933 14.163L7.40314 14.129L7.36531 14.0914L7.41039 14.046L7.48606 14.1211C7.50119 14.1362 7.5025 14.15 7.48997 14.1626L7.32843 14.3253L7.28318 14.3254L7.20752 14.2503Z" fill="#FFFF00" stroke="black" stroke-width="0.0266716"/>
<path d="M7.60596 13.8491L7.65104 13.8037L7.68887 13.8413L7.72268 13.8072L7.68485 13.7697L7.72994 13.7243L7.76777 13.7618L7.80158 13.7278L7.76375 13.6902L7.80883 13.6448L7.8845 13.72C7.89963 13.735 7.90093 13.7488 7.88841 13.7614L7.72686 13.9241L7.68162 13.9243L7.60596 13.8491Z" fill="#FFFF00" stroke="black" stroke-width="0.0266716"/>
<path d="M7.55381 14.0227C7.53122 14.0003 7.56487 13.9664 7.58746 13.9888L7.64769 14.0486L7.61404 14.0825L7.55381 14.0227Z" fill="#000001"/>
<path d="M7.43784 14.306C7.41525 14.2836 7.44516 14.2535 7.46775 14.2759L7.51293 14.3208L7.48302 14.3509L7.43784 14.306Z" fill="#000001"/>
<path d="M7.83628 13.9048C7.81369 13.8823 7.8436 13.8522 7.86619 13.8746L7.91137 13.9195L7.88146 13.9496L7.83628 13.9048Z" fill="#000001"/>
<path d="M9.41187 9.63728C9.4172 9.34403 9.62513 9.27472 9.62513 9.27472C9.63047 9.27472 9.8544 9.34936 9.8544 9.64261L9.41187 9.63728Z" fill="#FFFF00"/>
<path d="M9.23008 9.28029L9.19276 9.61619H9.41669C9.41669 9.33894 9.62996 9.29629 9.62996 9.29629C9.63529 9.29629 9.84323 9.35494 9.84856 9.61619H10.0725L10.0298 9.27496L9.23008 9.28029ZM9.17677 9.62153H10.0832C10.1009 9.62153 10.1116 9.63397 10.1151 9.65885C10.1151 9.68728 10.1045 9.7015 10.0832 9.7015H9.17677C9.15899 9.7015 9.14833 9.68728 9.14478 9.65885C9.14478 9.63397 9.15722 9.62153 9.1821 9.62153H9.17677Z" fill="#FFFF00" stroke="black" stroke-width="0.0266716"/>
<path d="M9.50749 9.61594C9.50749 9.44 9.63012 9.39201 9.63012 9.39201C9.63012 9.39201 9.75275 9.44533 9.75275 9.61594H9.50749ZM9.19825 9.13609H10.0673C10.0851 9.13964 10.0958 9.15386 10.0993 9.17874C10.0993 9.19651 10.0886 9.20718 10.0673 9.21073H9.19825C9.18048 9.21073 9.16981 9.19829 9.16626 9.17341C9.16626 9.15564 9.17692 9.14497 9.19825 9.14142V9.13609ZM9.21958 9.21606H10.0407C10.0584 9.21606 10.0691 9.2285 10.0727 9.25339C10.0762 9.27827 10.0655 9.29071 10.0407 9.29071H9.21424C9.19292 9.29071 9.18225 9.27827 9.18225 9.25339C9.18225 9.2285 9.19292 9.21606 9.21424 9.21606H9.21958ZM9.48616 8.6509H9.55014V8.69355H9.59813V8.6509H9.66744V8.69889H9.71543V8.64557H9.77941V8.7522C9.77941 8.77353 9.77052 8.78419 9.75275 8.78419H9.51815C9.50038 8.78419 9.48972 8.77531 9.48616 8.75753V8.6509ZM9.73142 8.79486L9.74742 9.13609H9.51815L9.53415 8.78953H9.73142" fill="#FFFF00"/>
<path d="M9.73142 8.79486L9.74742 9.13609H9.51815L9.53415 8.78953H9.73142M9.50749 9.61594C9.50749 9.44 9.63012 9.39201 9.63012 9.39201C9.63012 9.39201 9.75275 9.44533 9.75275 9.61594H9.50749ZM9.19825 9.13609H10.0673C10.0851 9.13964 10.0958 9.15386 10.0993 9.17874C10.0993 9.19651 10.0886 9.20718 10.0673 9.21073H9.19825C9.18048 9.21073 9.16981 9.19829 9.16626 9.17341C9.16626 9.15564 9.17692 9.14497 9.19825 9.14142V9.13609ZM9.21958 9.21606H10.0407C10.0584 9.21606 10.0691 9.2285 10.0727 9.25339C10.0762 9.27827 10.0655 9.29071 10.0407 9.29071H9.21424C9.19292 9.29071 9.18225 9.27827 9.18225 9.25339C9.18225 9.2285 9.19292 9.21606 9.21424 9.21606H9.21958ZM9.48616 8.6509H9.55014V8.69355H9.59813V8.6509H9.66744V8.69889H9.71543V8.64557H9.77941V8.7522C9.77941 8.77353 9.77052 8.78419 9.75275 8.78419H9.51815C9.50038 8.78419 9.48972 8.77531 9.48616 8.75753V8.6509Z" stroke="black" stroke-width="0.0266716"/>
<path d="M9.45448 8.95483V9.13611H9.24121V8.95483H9.45448Z" fill="#FFFF00" stroke="black" stroke-width="0.0266716"/>
<path d="M10.0197 8.95483V9.13611H9.8064V8.95483H10.0197Z" fill="#FFFF00" stroke="black" stroke-width="0.0266716"/>
<path d="M9.20361 8.81622H9.26759V8.86954H9.31558V8.81622H9.37956V8.86954H9.42755V8.81622H9.49153V8.92286C9.49153 8.94418 9.48264 8.95485 9.46487 8.95485H9.2356L9.20361 8.92286V8.81622Z" fill="#FFFF00" stroke="black" stroke-width="0.0266716"/>
<path d="M9.76904 8.81622H9.83302V8.86954H9.88101V8.81622H9.94499V8.86954H9.99298V8.81622H10.057V8.92286C10.057 8.94418 10.0481 8.95485 10.0303 8.95485H9.80103L9.76904 8.92286V8.81622Z" fill="#FFFF00" stroke="black" stroke-width="0.0266716"/>
<path d="M9.60913 8.90138C9.60913 8.86954 9.65688 8.86954 9.65688 8.90138V8.98627H9.60913V8.90138Z" fill="#000001"/>
<path d="M9.32642 9.01869C9.32642 8.98685 9.36886 8.98685 9.36886 9.01869V9.08236H9.32642V9.01869Z" fill="#000001"/>
<path d="M9.8916 9.01869C9.8916 8.98685 9.93405 8.98685 9.93405 9.01869V9.08236H9.8916V9.01869Z" fill="#000001"/>
<path d="M12.2766 9.63734C12.2713 9.34409 12.0633 9.27478 12.0633 9.27478C12.058 9.27478 11.8341 9.34942 11.8341 9.64267L12.2766 9.63734Z" fill="#FFFF00"/>
<path d="M12.4579 9.28011L12.4952 9.61601H12.2713C12.2713 9.33876 12.058 9.29611 12.058 9.29611C12.0527 9.29611 11.8448 9.35476 11.8394 9.61601H11.6155L11.6581 9.27478L12.4579 9.28011ZM12.5112 9.62134H11.6048C11.5871 9.62134 11.5764 9.63378 11.5728 9.65866C11.5728 9.6871 11.5835 9.70132 11.6048 9.70132H12.5112C12.529 9.70132 12.5397 9.6871 12.5432 9.65866C12.5432 9.63378 12.5308 9.62134 12.5059 9.62134H12.5112Z" fill="#FFFF00" stroke="black" stroke-width="0.0266716"/>
<path d="M12.1805 9.61594C12.1805 9.44 12.0579 9.39201 12.0579 9.39201C12.0579 9.39201 11.9352 9.44533 11.9352 9.61594H12.1805ZM12.4897 9.13609H11.6207C11.6029 9.13964 11.5922 9.15386 11.5887 9.17874C11.5887 9.19651 11.5993 9.20718 11.6207 9.21073H12.4897C12.5075 9.21073 12.5182 9.19829 12.5217 9.17341C12.5217 9.15564 12.5111 9.14497 12.4897 9.14142V9.13609ZM12.4684 9.21606H11.6473C11.6296 9.21606 11.6189 9.2285 11.6153 9.25339C11.6118 9.27827 11.6224 9.29071 11.6473 9.29071H12.4737C12.4951 9.29071 12.5057 9.27827 12.5057 9.25339C12.5057 9.2285 12.4951 9.21606 12.4737 9.21606H12.4684ZM12.2018 8.6509H12.1378V8.69355H12.0899V8.6509H12.0205V8.69889H11.9726V8.64557H11.9086V8.7522C11.9086 8.77353 11.9175 8.78419 11.9352 8.78419H12.1698C12.1876 8.78419 12.1983 8.77531 12.2018 8.75753V8.6509ZM11.9566 8.79486L11.9406 9.13609H12.1698L12.1538 8.78953H11.9566" fill="#FFFF00"/>
<path d="M11.9566 8.79486L11.9406 9.13609H12.1698L12.1538 8.78953H11.9566M12.1805 9.61594C12.1805 9.44 12.0579 9.39201 12.0579 9.39201C12.0579 9.39201 11.9352 9.44533 11.9352 9.61594H12.1805ZM12.4897 9.13609H11.6207C11.6029 9.13964 11.5922 9.15386 11.5887 9.17874C11.5887 9.19651 11.5993 9.20718 11.6207 9.21073H12.4897C12.5075 9.21073 12.5182 9.19829 12.5217 9.17341C12.5217 9.15564 12.5111 9.14497 12.4897 9.14142V9.13609ZM12.4684 9.21606H11.6473C11.6296 9.21606 11.6189 9.2285 11.6153 9.25339C11.6118 9.27827 11.6224 9.29071 11.6473 9.29071H12.4737C12.4951 9.29071 12.5057 9.27827 12.5057 9.25339C12.5057 9.2285 12.4951 9.21606 12.4737 9.21606H12.4684ZM12.2018 8.6509H12.1378V8.69355H12.0899V8.6509H12.0205V8.69889H11.9726V8.64557H11.9086V8.7522C11.9086 8.77353 11.9175 8.78419 11.9352 8.78419H12.1698C12.1876 8.78419 12.1983 8.77531 12.2018 8.75753V8.6509Z" stroke="black" stroke-width="0.0266716"/>
<path d="M12.234 8.95483V9.13611H12.4473V8.95483H12.234Z" fill="#FFFF00" stroke="black" stroke-width="0.0266716"/>
<path d="M11.6688 8.95483V9.13611H11.8821V8.95483H11.6688Z" fill="#FFFF00" stroke="black" stroke-width="0.0266716"/>
<path d="M12.4846 8.81622H12.4206V8.86954H12.3727V8.81622H12.3087V8.86954H12.2607V8.81622H12.1967V8.92286C12.1967 8.94418 12.2056 8.95485 12.2234 8.95485H12.4526L12.4846 8.92286V8.81622Z" fill="#FFFF00" stroke="black" stroke-width="0.0266716"/>
<path d="M11.9194 8.81622H11.8555V8.86954H11.8075V8.81622H11.7435V8.86954H11.6955V8.81622H11.6315V8.92286C11.6315 8.94418 11.6404 8.95485 11.6582 8.95485H11.8874L11.9194 8.92286V8.81622Z" fill="#FFFF00" stroke="black" stroke-width="0.0266716"/>
<path d="M12.0793 8.90138C12.0793 8.86954 12.0316 8.86954 12.0316 8.90138V8.98627H12.0793V8.90138Z" fill="#000001"/>
<path d="M12.3621 9.01869C12.3621 8.98685 12.3196 8.98685 12.3196 9.01869V9.08236H12.3621V9.01869Z" fill="#000001"/>
<path d="M11.7966 9.01881C11.7966 8.98698 11.7542 8.98698 11.7542 9.01881V9.08248H11.7966V9.01881Z" fill="#000001"/>
<path d="M12.2766 12.1071C12.2713 11.8138 12.0633 11.7445 12.0633 11.7445C12.058 11.7445 11.8341 11.8192 11.8341 12.1124L12.2766 12.1071Z" fill="#FFFF00"/>
<path d="M12.4579 11.7498L12.4952 12.0857H12.2713C12.2713 11.8085 12.058 11.7658 12.058 11.7658C12.0527 11.7658 11.8448 11.8245 11.8394 12.0857H11.6155L11.6581 11.7445L12.4579 11.7498ZM12.5112 12.0911H11.6048C11.5871 12.0911 11.5764 12.1035 11.5728 12.1284C11.5728 12.1568 11.5835 12.171 11.6048 12.171H12.5112C12.529 12.171 12.5397 12.1568 12.5432 12.1284C12.5432 12.1035 12.5308 12.0911 12.5059 12.0911H12.5112Z" fill="#FFFF00" stroke="black" stroke-width="0.0266716"/>
<path d="M12.1805 12.0856C12.1805 11.9097 12.0579 11.8617 12.0579 11.8617C12.0579 11.8617 11.9352 11.915 11.9352 12.0856H12.1805ZM12.4897 11.6058H11.6207C11.6029 11.6093 11.5922 11.6235 11.5887 11.6484C11.5887 11.6662 11.5993 11.6768 11.6207 11.6804H12.4897C12.5075 11.6804 12.5182 11.668 12.5217 11.6431C12.5217 11.6253 12.5111 11.6146 12.4897 11.6111V11.6058ZM12.4684 11.6857H11.6473C11.6296 11.6857 11.6189 11.6982 11.6153 11.7231C11.6118 11.7479 11.6224 11.7604 11.6473 11.7604H12.4737C12.4951 11.7604 12.5057 11.7479 12.5057 11.7231C12.5057 11.6982 12.4951 11.6857 12.4737 11.6857H12.4684ZM12.2018 11.1206H12.1378V11.1632H12.0899V11.1206H12.0205V11.1686H11.9726V11.1152H11.9086V11.2219C11.9086 11.2432 11.9175 11.2539 11.9352 11.2539H12.1698C12.1876 11.2539 12.1983 11.245 12.2018 11.2272V11.1206ZM11.9566 11.2645L11.9406 11.6058H12.1698L12.1538 11.2592H11.9566" fill="#FFFF00"/>
<path d="M11.9566 11.2645L11.9406 11.6058H12.1698L12.1538 11.2592H11.9566M12.1805 12.0856C12.1805 11.9097 12.0579 11.8617 12.0579 11.8617C12.0579 11.8617 11.9352 11.915 11.9352 12.0856H12.1805ZM12.4897 11.6058H11.6207C11.6029 11.6093 11.5922 11.6235 11.5887 11.6484C11.5887 11.6662 11.5993 11.6768 11.6207 11.6804H12.4897C12.5075 11.6804 12.5182 11.668 12.5217 11.6431C12.5217 11.6253 12.5111 11.6146 12.4897 11.6111V11.6058ZM12.4684 11.6857H11.6473C11.6296 11.6857 11.6189 11.6982 11.6153 11.7231C11.6118 11.7479 11.6224 11.7604 11.6473 11.7604H12.4737C12.4951 11.7604 12.5057 11.7479 12.5057 11.7231C12.5057 11.6982 12.4951 11.6857 12.4737 11.6857H12.4684ZM12.2018 11.1206H12.1378V11.1632H12.0899V11.1206H12.0205V11.1686H11.9726V11.1152H11.9086V11.2219C11.9086 11.2432 11.9175 11.2539 11.9352 11.2539H12.1698C12.1876 11.2539 12.1983 11.245 12.2018 11.2272V11.1206Z" stroke="black" stroke-width="0.0266716"/>
<path d="M12.234 11.4246V11.6058H12.4473V11.4246H12.234Z" fill="#FFFF00" stroke="black" stroke-width="0.0266716"/>
<path d="M11.6688 11.4246V11.6058H11.8821V11.4246H11.6688Z" fill="#FFFF00" stroke="black" stroke-width="0.0266716"/>
<path d="M12.4846 11.2859H12.4206V11.3393H12.3727V11.2859H12.3087V11.3393H12.2607V11.2859H12.1967V11.3926C12.1967 11.4139 12.2056 11.4246 12.2234 11.4246H12.4526L12.4846 11.3926V11.2859Z" fill="#FFFF00" stroke="black" stroke-width="0.0266716"/>
<path d="M11.9194 11.2859H11.8555V11.3393H11.8075V11.2859H11.7435V11.3393H11.6955V11.2859H11.6315V11.3926C11.6315 11.4139 11.6404 11.4246 11.6582 11.4246H11.8874L11.9194 11.3926V11.2859Z" fill="#FFFF00" stroke="black" stroke-width="0.0266716"/>
<path d="M12.0793 11.3712C12.0793 11.3393 12.0316 11.3393 12.0316 11.3712V11.4561H12.0793V11.3712Z" fill="#000001"/>
<path d="M12.3621 11.4885C12.3621 11.4566 12.3196 11.4566 12.3196 11.4885V11.5521H12.3621V11.4885Z" fill="#000001"/>
<path d="M11.7966 11.4886C11.7966 11.4568 11.7542 11.4568 11.7542 11.4886V11.5523H11.7966V11.4886Z" fill="#000001"/>
<path d="M11.3138 14.6814C11.5181 14.471 11.4208 14.2746 11.4208 14.2746C11.417 14.2709 11.2063 14.1646 10.9982 14.3712L11.3138 14.6814Z" fill="#FFFF00"/>
<path d="M11.6951 14.5585L11.4831 14.8216L11.3253 14.6627C11.522 14.4674 11.402 14.286 11.402 14.286C11.3983 14.2822 11.2101 14.176 11.021 14.3563L10.8632 14.1974L11.1354 13.9872L11.6951 14.5585ZM11.4906 14.8367L10.8519 14.1936C10.8394 14.181 10.823 14.1822 10.8029 14.1972C10.7827 14.2172 10.7801 14.2348 10.7952 14.2499L11.4338 14.8931C11.4464 14.9057 11.464 14.9032 11.4866 14.8857C11.5043 14.8682 11.5044 14.8506 11.4868 14.833L11.4906 14.8367Z" fill="#FFFF00" stroke="black" stroke-width="0.0266716"/>
<path d="M11.2614 14.5982C11.3863 14.4742 11.3339 14.3534 11.3339 14.3534C11.3339 14.3534 11.2097 14.3039 11.0886 14.4242L11.2614 14.5982ZM11.8198 14.4795L11.2075 13.8628C11.1924 13.8527 11.1748 13.8552 11.1546 13.8702C11.142 13.8827 11.142 13.8978 11.1545 13.9154L11.7669 14.5321C11.7794 14.5447 11.7957 14.5435 11.8159 14.5285C11.8285 14.516 11.8286 14.5009 11.816 14.4832L11.8198 14.4795ZM11.7481 14.5207L11.1695 13.9381C11.157 13.9255 11.1406 13.9267 11.1205 13.9417C11.1003 13.9567 11.099 13.973 11.1165 13.9907L11.6988 14.5771C11.7139 14.5922 11.7302 14.591 11.7479 14.5735C11.7655 14.556 11.7668 14.5396 11.7518 14.5245L11.7481 14.5207ZM11.9612 13.9333L11.9161 13.8879L11.8859 13.918L11.8521 13.8839L11.8823 13.8539L11.8335 13.8047L11.7994 13.8385L11.7656 13.8045L11.8035 13.7669L11.7584 13.7215L11.6827 13.7966C11.6676 13.8116 11.6663 13.8255 11.6788 13.8381L11.8441 14.0045C11.8566 14.0172 11.8705 14.0185 11.8856 14.0085L11.9612 13.9333ZM11.6863 13.8607L11.4329 14.0898L11.5944 14.2525L11.8291 13.9969L11.69 13.857" fill="#FFFF00"/>
<path d="M11.6863 13.8607L11.4329 14.0898L11.5944 14.2525L11.8291 13.9969L11.69 13.857M11.2614 14.5982C11.3863 14.4742 11.3339 14.3534 11.3339 14.3534C11.3339 14.3534 11.2097 14.3039 11.0886 14.4242L11.2614 14.5982ZM11.8198 14.4795L11.2075 13.8628C11.1924 13.8527 11.1748 13.8552 11.1546 13.8702C11.142 13.8827 11.142 13.8978 11.1545 13.9154L11.7669 14.5321C11.7794 14.5447 11.7957 14.5435 11.8159 14.5285C11.8285 14.516 11.8286 14.5009 11.816 14.4832L11.8198 14.4795ZM11.7481 14.5207L11.1695 13.9381C11.157 13.9255 11.1406 13.9267 11.1205 13.9417C11.1003 13.9567 11.099 13.973 11.1165 13.9907L11.6988 14.5771C11.7139 14.5922 11.7302 14.591 11.7479 14.5735C11.7655 14.556 11.7668 14.5396 11.7518 14.5245L11.7481 14.5207ZM11.9612 13.9333L11.9161 13.8879L11.8859 13.918L11.8521 13.8839L11.8823 13.8539L11.8335 13.8047L11.7994 13.8385L11.7656 13.8045L11.8035 13.7669L11.7584 13.7215L11.6827 13.7966C11.6676 13.8116 11.6663 13.8255 11.6788 13.8381L11.8441 14.0045C11.8566 14.0172 11.8705 14.0185 11.8856 14.0085L11.9612 13.9333Z" stroke="black" stroke-width="0.0266716"/>
<path d="M11.7682 14.1702L11.6396 14.2979L11.7898 14.4493L11.9185 14.3215L11.7682 14.1702Z" fill="#FFFF00" stroke="black" stroke-width="0.0266716"/>
<path d="M11.3697 13.769L11.2411 13.8968L11.3914 14.0481L11.52 13.9203L11.3697 13.769Z" fill="#FFFF00" stroke="black" stroke-width="0.0266716"/>
<path d="M12.043 14.2503L11.9979 14.2049L11.9601 14.2425L11.9262 14.2084L11.9641 14.1709L11.919 14.1255L11.8812 14.163L11.8473 14.129L11.8852 14.0914L11.8401 14.046L11.7644 14.1211C11.7493 14.1362 11.748 14.15 11.7605 14.1626L11.9221 14.3253L11.9673 14.3254L12.043 14.2503Z" fill="#FFFF00" stroke="black" stroke-width="0.0266716"/>
<path d="M11.6448 13.8491L11.5997 13.8037L11.5619 13.8413L11.528 13.8072L11.5659 13.7697L11.5208 13.7243L11.483 13.7618L11.4492 13.7278L11.487 13.6902L11.4419 13.6448L11.3662 13.72C11.3511 13.735 11.3498 13.7488 11.3623 13.7614L11.5239 13.9241L11.5691 13.9243L11.6448 13.8491Z" fill="#FFFF00" stroke="black" stroke-width="0.0266716"/>
<path d="M11.6969 14.0227C11.7195 14.0003 11.6859 13.9664 11.6633 13.9888L11.603 14.0486L11.6367 14.0825L11.6969 14.0227Z" fill="#000001"/>
<path d="M11.8129 14.306C11.8355 14.2836 11.8056 14.2535 11.783 14.2759L11.7378 14.3208L11.7677 14.3509L11.8129 14.306Z" fill="#000001"/>
<path d="M11.4145 13.9048C11.437 13.8823 11.4071 13.8522 11.3845 13.8746L11.3394 13.9195L11.3693 13.9496L11.4145 13.9048Z" fill="#000001"/>
<path d="M9.2362 12.198C9.23355 12.3108 9.27573 12.4201 9.3535 12.5019C9.38867 12.5423 9.43211 12.5746 9.48087 12.5967C9.52962 12.6187 9.58256 12.6301 9.63608 12.6299C9.74982 12.6228 9.84402 12.5801 9.91866 12.5019C9.99643 12.4201 10.0386 12.3108 10.036 12.198V11.6222H9.2362V12.198Z" fill="#003399"/>
<path d="M9.42261 11.92C9.46656 11.92 9.50219 11.8844 9.50219 11.8405C9.50219 11.7965 9.46656 11.7609 9.42261 11.7609C9.37865 11.7609 9.34302 11.7965 9.34302 11.8405C9.34302 11.8844 9.37865 11.92 9.42261 11.92Z" fill="white"/>
<path d="M9.86523 11.92C9.90919 11.92 9.94482 11.8844 9.94482 11.8405C9.94482 11.7965 9.90919 11.7609 9.86523 11.7609C9.82128 11.7609 9.78564 11.7965 9.78564 11.8405C9.78564 11.8844 9.82128 11.92 9.86523 11.92Z" fill="white"/>
<path d="M9.64136 12.1334C9.68531 12.1334 9.72094 12.0978 9.72094 12.0538C9.72094 12.0099 9.68531 11.9742 9.64136 11.9742C9.5974 11.9742 9.56177 12.0099 9.56177 12.0538C9.56177 12.0978 9.5974 12.1334 9.64136 12.1334Z" fill="white"/>
<path d="M9.42261 12.3575C9.46656 12.3575 9.50219 12.3218 9.50219 12.2779C9.50219 12.2339 9.46656 12.1983 9.42261 12.1983C9.37865 12.1983 9.34302 12.2339 9.34302 12.2779C9.34302 12.3218 9.37865 12.3575 9.42261 12.3575Z" fill="white"/>
<path d="M9.86523 12.3575C9.90919 12.3575 9.94482 12.3218 9.94482 12.2779C9.94482 12.2339 9.90919 12.1983 9.86523 12.1983C9.82128 12.1983 9.78564 12.2339 9.78564 12.2779C9.78564 12.3218 9.82128 12.3575 9.86523 12.3575Z" fill="white"/>
<path d="M9.2362 10.8111C9.23355 10.9239 9.27573 11.0332 9.3535 11.115C9.38867 11.1553 9.43211 11.1876 9.48087 11.2097C9.52962 11.2318 9.58256 11.2431 9.63608 11.2429C9.74982 11.2358 9.84402 11.1932 9.91866 11.115C9.99643 11.0332 10.0386 10.9239 10.036 10.8111V10.2352H9.2362V10.8111Z" fill="#003399"/>
<path d="M9.42261 10.5331C9.46656 10.5331 9.50219 10.4974 9.50219 10.4535C9.50219 10.4095 9.46656 10.3739 9.42261 10.3739C9.37865 10.3739 9.34302 10.4095 9.34302 10.4535C9.34302 10.4974 9.37865 10.5331 9.42261 10.5331Z" fill="white"/>
<path d="M9.86523 10.5331C9.90919 10.5331 9.94482 10.4974 9.94482 10.4535C9.94482 10.4095 9.90919 10.3739 9.86523 10.3739C9.82128 10.3739 9.78564 10.4095 9.78564 10.4535C9.78564 10.4974 9.82128 10.5331 9.86523 10.5331Z" fill="white"/>
<path d="M9.64136 10.7465C9.68531 10.7465 9.72094 10.7108 9.72094 10.6669C9.72094 10.6229 9.68531 10.5873 9.64136 10.5873C9.5974 10.5873 9.56177 10.6229 9.56177 10.6669C9.56177 10.7108 9.5974 10.7465 9.64136 10.7465Z" fill="white"/>
<path d="M9.42261 10.9705C9.46656 10.9705 9.50219 10.9348 9.50219 10.8909C9.50219 10.8469 9.46656 10.8113 9.42261 10.8113C9.37865 10.8113 9.34302 10.8469 9.34302 10.8909C9.34302 10.9348 9.37865 10.9705 9.42261 10.9705Z" fill="white"/>
<path d="M9.86523 10.9705C9.90919 10.9705 9.94482 10.9348 9.94482 10.8909C9.94482 10.8469 9.90919 10.8113 9.86523 10.8113C9.82128 10.8113 9.78564 10.8469 9.78564 10.8909C9.78564 10.9348 9.82128 10.9705 9.86523 10.9705Z" fill="white"/>
<path d="M8.12658 12.198C8.12393 12.3108 8.16611 12.4201 8.24388 12.5019C8.27905 12.5422 8.32249 12.5745 8.37125 12.5966C8.42 12.6187 8.47294 12.63 8.52646 12.6298C8.64021 12.6227 8.7344 12.5801 8.80904 12.5019C8.88681 12.4201 8.92899 12.3108 8.92634 12.198V11.6221H8.12658V12.198Z" fill="#003399"/>
<path d="M8.31299 11.92C8.35694 11.92 8.39257 11.8844 8.39257 11.8405C8.39257 11.7965 8.35694 11.7609 8.31299 11.7609C8.26903 11.7609 8.2334 11.7965 8.2334 11.8405C8.2334 11.8844 8.26903 11.92 8.31299 11.92Z" fill="white"/>
<path d="M8.75586 11.92C8.79981 11.92 8.83544 11.8844 8.83544 11.8405C8.83544 11.7965 8.79981 11.7609 8.75586 11.7609C8.7119 11.7609 8.67627 11.7965 8.67627 11.8405C8.67627 11.8844 8.7119 11.92 8.75586 11.92Z" fill="white"/>
<path d="M8.53174 12.1334C8.57569 12.1334 8.61132 12.0978 8.61132 12.0538C8.61132 12.0099 8.57569 11.9742 8.53174 11.9742C8.48778 11.9742 8.45215 12.0099 8.45215 12.0538C8.45215 12.0978 8.48778 12.1334 8.53174 12.1334Z" fill="white"/>
<path d="M8.31299 12.3575C8.35694 12.3575 8.39257 12.3218 8.39257 12.2779C8.39257 12.2339 8.35694 12.1983 8.31299 12.1983C8.26903 12.1983 8.2334 12.2339 8.2334 12.2779C8.2334 12.3218 8.26903 12.3575 8.31299 12.3575Z" fill="white"/>
<path d="M8.75586 12.3575C8.79981 12.3575 8.83544 12.3218 8.83544 12.2779C8.83544 12.2339 8.79981 12.1983 8.75586 12.1983C8.7119 12.1983 8.67627 12.2339 8.67627 12.2779C8.67627 12.3218 8.7119 12.3575 8.75586 12.3575Z" fill="white"/>
<path d="M10.3451 12.198C10.3424 12.3108 10.3846 12.4201 10.4624 12.5019C10.4976 12.5423 10.541 12.5746 10.5898 12.5967C10.6385 12.6187 10.6914 12.6301 10.745 12.6299C10.8587 12.6228 10.9529 12.5801 11.0275 12.5019C11.1053 12.4201 11.1475 12.3108 11.1448 12.198V11.6222H10.3451V12.198Z" fill="#003399"/>
<path d="M10.5315 11.92C10.5754 11.92 10.6111 11.8844 10.6111 11.8405C10.6111 11.7965 10.5754 11.7609 10.5315 11.7609C10.4875 11.7609 10.4519 11.7965 10.4519 11.8405C10.4519 11.8844 10.4875 11.92 10.5315 11.92Z" fill="white"/>
<path d="M10.9741 11.92C11.0181 11.92 11.0537 11.8844 11.0537 11.8405C11.0537 11.7965 11.0181 11.7609 10.9741 11.7609C10.9302 11.7609 10.8945 11.7965 10.8945 11.8405C10.8945 11.8844 10.9302 11.92 10.9741 11.92Z" fill="white"/>
<path d="M10.75 12.1334C10.794 12.1334 10.8296 12.0978 10.8296 12.0538C10.8296 12.0099 10.794 11.9742 10.75 11.9742C10.706 11.9742 10.6704 12.0099 10.6704 12.0538C10.6704 12.0978 10.706 12.1334 10.75 12.1334Z" fill="white"/>
<path d="M10.5315 12.3575C10.5754 12.3575 10.6111 12.3218 10.6111 12.2779C10.6111 12.2339 10.5754 12.1983 10.5315 12.1983C10.4875 12.1983 10.4519 12.2339 10.4519 12.2779C10.4519 12.3218 10.4875 12.3575 10.5315 12.3575Z" fill="white"/>
<path d="M10.9741 12.3575C11.0181 12.3575 11.0537 12.3218 11.0537 12.2779C11.0537 12.2339 11.0181 12.1983 10.9741 12.1983C10.9302 12.1983 10.8945 12.2339 10.8945 12.2779C10.8945 12.3218 10.9302 12.3575 10.9741 12.3575Z" fill="white"/>
<path d="M9.2362 13.5741C9.23355 13.6869 9.27573 13.7962 9.3535 13.878C9.38867 13.9184 9.43211 13.9507 9.48087 13.9728C9.52962 13.9948 9.58256 14.0062 9.63608 14.006C9.74982 13.9989 9.84402 13.9562 9.91866 13.878C9.99643 13.7962 10.0386 13.6869 10.036 13.5741V12.9983H9.2362V13.5741Z" fill="#003399"/>
<path d="M9.42261 13.2962C9.46656 13.2962 9.50219 13.2606 9.50219 13.2166C9.50219 13.1727 9.46656 13.137 9.42261 13.137C9.37865 13.137 9.34302 13.1727 9.34302 13.2166C9.34302 13.2606 9.37865 13.2962 9.42261 13.2962Z" fill="white"/>
<path d="M9.86523 13.2962C9.90919 13.2962 9.94482 13.2606 9.94482 13.2166C9.94482 13.1727 9.90919 13.137 9.86523 13.137C9.82128 13.137 9.78564 13.1727 9.78564 13.2166C9.78564 13.2606 9.82128 13.2962 9.86523 13.2962Z" fill="white"/>
<path d="M9.64136 13.5096C9.68531 13.5096 9.72094 13.4739 9.72094 13.43C9.72094 13.386 9.68531 13.3504 9.64136 13.3504C9.5974 13.3504 9.56177 13.386 9.56177 13.43C9.56177 13.4739 9.5974 13.5096 9.64136 13.5096Z" fill="white"/>
<path d="M9.42261 13.7336C9.46656 13.7336 9.50219 13.6979 9.50219 13.654C9.50219 13.61 9.46656 13.5744 9.42261 13.5744C9.37865 13.5744 9.34302 13.61 9.34302 13.654C9.34302 13.6979 9.37865 13.7336 9.42261 13.7336Z" fill="white"/>
<path d="M9.86523 13.7336C9.90919 13.7336 9.94482 13.6979 9.94482 13.654C9.94482 13.61 9.90919 13.5744 9.86523 13.5744C9.82128 13.5744 9.78564 13.61 9.78564 13.654C9.78564 13.6979 9.82128 13.7336 9.86523 13.7336Z" fill="white"/>
</g>
<defs>
<clipPath id="clip0_720_53510">
<rect width="24.0044" height="24.0044" fill="white" transform="translate(0.0305176 0.0700684)"/>
</clipPath>
</defs>
</svg>
