<svg width="25" height="25" viewBox="0 0 25 25" fill="none" xmlns="http://www.w3.org/2000/svg">
<g clip-path="url(#clip0_720_53368)">
<path fill-rule="evenodd" clip-rule="evenodd" d="M0.0349121 0.0568848H8.03793V24.0613H0.0349121V0.0568848Z" fill="#00319C"/>
<path fill-rule="evenodd" clip-rule="evenodd" d="M8.03784 0.0568848H16.0362V24.0613H8.03784V0.0568848Z" fill="#FFDE00"/>
<path fill-rule="evenodd" clip-rule="evenodd" d="M16.0361 0.0568848H24.0392V24.0613H16.0361V0.0568848Z" fill="#DE2110"/>
<path fill-rule="evenodd" clip-rule="evenodd" d="M13.6151 15.131L14.5387 16.4636C14.5909 16.5389 14.6416 16.6121 14.565 16.6606C14.4862 16.7105 14.5111 16.9054 14.5633 16.9807C14.6662 17.1292 14.795 17.156 14.8717 17.1075L15.5722 16.6642C15.6488 16.6157 15.6733 16.4919 15.5703 16.3434C15.5123 16.2687 15.34 16.1701 15.2634 16.2186C15.1846 16.2685 15.1338 16.1953 15.0831 16.122L14.1566 14.7853" fill="#FF1900"/>
<path d="M13.6151 15.131L14.5387 16.4636C14.5909 16.5389 14.6416 16.6121 14.565 16.6606C14.4862 16.7105 14.5111 16.9054 14.5633 16.9807C14.6662 17.1292 14.795 17.156 14.8717 17.1075L15.5722 16.6642C15.6488 16.6157 15.6733 16.4919 15.5703 16.3434C15.5123 16.2687 15.34 16.1701 15.2634 16.2186C15.1846 16.2685 15.1338 16.1953 15.0831 16.122L14.1566 14.7853" stroke="black" stroke-width="0.0342394"/>
<path fill-rule="evenodd" clip-rule="evenodd" d="M13.973 14.1882C14.3854 14.6567 14.5289 15.1938 14.2938 15.3828C14.0587 15.5718 13.5295 15.3448 13.117 14.8763C12.7046 14.4078 12.5631 13.869 12.7982 13.68C13.0333 13.4911 13.5608 13.7162 13.975 14.1866L13.973 14.1882Z" fill="#A77B3B" stroke="black" stroke-width="0.0796105"/>
<path fill-rule="evenodd" clip-rule="evenodd" d="M9.86333 14.5852L9.04796 15.9807C9.00188 16.0596 8.95708 16.1363 8.87683 16.0935C8.7943 16.0494 8.62445 16.16 8.57837 16.2388C8.48749 16.3944 8.52165 16.5161 8.6019 16.5589L9.33556 16.9503C9.41581 16.9931 9.54213 16.957 9.63301 16.8015C9.67579 16.718 9.68845 16.5265 9.6082 16.4837C9.52567 16.4396 9.57047 16.3629 9.61527 16.2863L10.4332 14.8864" fill="#FF1900"/>
<path d="M9.86333 14.5852L9.04796 15.9807C9.00188 16.0596 8.95708 16.1363 8.87683 16.0935C8.7943 16.0494 8.62445 16.16 8.57837 16.2388C8.48749 16.3944 8.52165 16.5161 8.6019 16.5589L9.33556 16.9503C9.41581 16.9931 9.54213 16.957 9.63301 16.8015C9.67579 16.718 9.68845 16.5265 9.6082 16.4837C9.52567 16.4396 9.57047 16.3629 9.61527 16.2863L10.4332 14.8864" stroke="black" stroke-width="0.0342367"/>
<path fill-rule="evenodd" clip-rule="evenodd" d="M12.4977 13.6147H11.7546C11.7283 13.6398 11.5182 14.9697 11.2898 15.4815C11.0115 16.1038 10.1738 16.6533 10.1738 16.6533C10.1738 16.6533 10.6727 16.8038 10.825 16.9042C10.8618 16.8942 11.66 16.726 11.7546 15.75C11.8465 16.726 11.1953 17.1702 11.1953 17.1702C11.1953 17.1702 12.1274 17.4361 12.1274 18.0609C12.1274 17.4386 13.057 17.1702 13.057 17.1702C13.057 17.1702 12.5896 16.726 12.4977 15.7475C12.6815 16.726 13.3904 16.8942 13.4298 16.9017C13.5795 16.8038 14.0784 16.6508 14.0784 16.6508C14.0784 16.6508 13.2434 16.1063 12.9651 15.4815C12.7366 14.9722 12.5239 13.6373 12.5003 13.6147H12.4977Z" fill="#A77B3B" stroke="black" stroke-width="0.0795707"/>
<path fill-rule="evenodd" clip-rule="evenodd" d="M9.33276 9.16652L10.7297 9.61064C10.971 9.59533 11.1982 9.49684 11.3692 9.33347C11.5401 9.17009 11.6432 8.95295 11.6592 8.72241C11.675 7.73382 11.2864 7.38756 11.1945 7.38756L11.3783 7.21192L11.1026 6.94094C11.1026 6.94094 11.1971 6.47926 12.1266 6.49683C13.0562 6.51439 13.0562 6.94094 13.0562 7.38505C13.0562 7.83168 12.5914 7.83167 12.5914 8.7199C12.6075 8.95084 12.7109 9.16831 12.8824 9.33174C13.0539 9.49517 13.2818 9.59341 13.5236 9.60813L14.9179 9.16401V13.6152H9.33276V9.16652Z" fill="#A77B3B" stroke="black" stroke-width="0.0795707"/>
<path d="M11.4714 9.34399L11.5641 9.61123L11.6575 9.34399L11.7502 9.61123L11.9362 9.34399L12.027 9.62548L12.1223 9.34399L12.2594 9.62548L12.401 9.34399L12.4937 9.61123L12.5871 9.34399" stroke="black" stroke-width="0.00638463"/>
<path d="M11.845 8.36609L11.6587 9.34417M11.9369 8.36609V9.34417M12.1232 8.36609V9.34417M12.3096 8.36609L12.4014 9.34417M12.4959 8.36609L12.5878 9.34417" stroke="black" stroke-width="0.00770039"/>
<path fill-rule="evenodd" clip-rule="evenodd" d="M8.40341 6.49927C7.47388 6.94338 7.47388 7.83412 7.47388 8.27823C7.50539 8.6822 7.47388 17.168 7.47388 17.168C7.47388 17.168 7.53427 16.6662 7.93865 16.2798L8.40079 15.8357L8.86556 15.3916C9.20691 15.0955 9.33032 14.5008 9.33032 14.0567V7.83412C9.33032 7.83412 9.33032 7.38749 8.40079 6.49927H8.40341Z" fill="#A77B3B" stroke="black" stroke-width="0.0795707"/>
<path d="M9.33301 8.27965C9.32251 8.27965 8.86847 7.83575 8.86847 7.83575L8.40392 8.27965L7.93938 7.83575L7.47484 8.27965" stroke="black" stroke-width="0.0795707"/>
<path d="M9.33301 8.72145C9.32251 8.72145 8.86847 9.16534 8.86847 9.16534L8.40392 8.72145L7.93938 9.16534L7.47484 8.72145" stroke="black" stroke-width="0.0795707"/>
<path d="M9.33301 10.0519C9.32251 10.0519 8.86847 9.60797 8.86847 9.60797L8.40392 10.0519L7.93938 9.60797L7.47484 10.0519" stroke="black" stroke-width="0.0795707"/>
<path d="M8.86291 7.83557L8.86816 15.3945" stroke="black" stroke-width="0.109597"/>
<path d="M8.40344 8.28192L8.40869 15.8225" stroke="black" stroke-width="0.10383"/>
<path d="M7.93933 7.83563L7.94458 16.2827" stroke="black" stroke-width="0.109894"/>
<path fill-rule="evenodd" clip-rule="evenodd" d="M15.8488 6.49933C16.7783 6.94344 16.7783 7.83418 16.7783 8.27829C16.7468 8.68226 16.7783 17.1681 16.7783 17.1681C16.7783 17.1681 16.7179 16.6663 16.3136 16.2799L15.8514 15.8357L15.3866 15.3916C15.0453 15.0955 14.9219 14.5009 14.9219 14.0568V7.83418C14.9219 7.83418 14.9219 7.38755 15.8514 6.49933H15.8488Z" fill="#A77B3B" stroke="black" stroke-width="0.0795707"/>
<path d="M14.9192 8.27965C14.9297 8.27965 15.3837 7.83575 15.3837 7.83575L15.8483 8.27965L16.3128 7.83575L16.7774 8.27965" stroke="black" stroke-width="0.0795707"/>
<path d="M14.9192 8.72145C14.9297 8.72145 15.3837 9.16534 15.3837 9.16534L15.8483 8.72145L16.3128 9.16534L16.7774 8.72145" stroke="black" stroke-width="0.0795707"/>
<path d="M14.9192 10.0519C14.9297 10.0519 15.3837 9.60797 15.3837 9.60797L15.8483 10.0519L16.3128 9.60797L16.7774 10.0519" stroke="black" stroke-width="0.0795707"/>
<path d="M15.389 7.83557L15.3838 15.3945" stroke="black" stroke-width="0.109597"/>
<path d="M15.8485 8.28192L15.8433 15.8225" stroke="black" stroke-width="0.10383"/>
<path d="M16.3129 7.83563L16.3076 16.2827" stroke="black" stroke-width="0.109894"/>
<path fill-rule="evenodd" clip-rule="evenodd" d="M10.9033 14.462C10.6569 15.0272 10.2232 15.3954 9.9396 15.2825C9.65602 15.1696 9.6243 14.6161 9.87072 14.0509C10.1171 13.4858 10.5532 13.1185 10.8368 13.2314C11.1204 13.3443 11.1531 13.8956 10.9057 14.463L10.9033 14.462Z" fill="#A77B3B" stroke="black" stroke-width="0.0795914"/>
<path fill-rule="evenodd" clip-rule="evenodd" d="M9.33643 9.61176H14.9156V12.2794H9.33643V9.61176Z" fill="#FF0000"/>
<path fill-rule="evenodd" clip-rule="evenodd" d="M9.33643 12.2794H14.9156V13.6062C14.9156 14.497 13.5231 14.497 12.126 15.3878C10.7289 14.497 9.33643 14.497 9.33643 13.6062V12.2794Z" fill="#564DFF"/>
<path d="M9.33276 9.61066H14.9152V13.6152C14.9152 14.5034 13.5209 14.5034 12.124 15.3942C10.7297 14.5034 9.33276 14.5034 9.33276 13.6127V9.61317V9.61066Z" stroke="#FFFF00" stroke-width="0.0641699"/>
<path fill-rule="evenodd" clip-rule="evenodd" d="M11.1029 9.79193C11.1029 9.79193 10.1729 10.4458 10.1729 11.0714C10.1729 11.6971 11.1489 11.9068 11.1489 11.9068C11.1489 11.9068 10.8235 11.9068 10.8235 12.7409C10.8235 13.1592 11.7995 12.9506 11.7995 13.1592C11.7995 13.3677 11.7867 13.872 11.7995 14.203C11.7995 14.4116 11.1489 14.203 11.1489 14.4116C11.1489 14.5153 11.6378 15.0372 12.1267 15.0372C12.6156 15.0372 13.1027 14.5153 13.1027 14.4116C13.1027 14.203 12.4521 14.4116 12.4521 14.203V13.1592C12.4521 12.9506 13.4281 13.1592 13.4281 12.7409C13.4281 11.9068 13.1027 11.9068 13.1027 11.9068C13.1027 11.9068 14.0806 11.6982 14.0806 11.0714C14.0806 10.4446 13.1487 9.79193 13.1487 9.79193C13.1487 9.79193 13.6725 10.6544 13.6725 11.0714C13.6725 11.28 13.4281 11.6982 12.7774 11.6982C12.7774 11.6982 12.612 11.4885 12.4521 11.6982C12.4521 11.6982 12.2646 11.4885 12.1267 11.6982C12.0789 11.7689 11.9944 11.4885 11.7995 11.6982C11.7187 11.7536 11.6525 11.4885 11.4742 11.6982C11.1489 11.6982 10.4982 11.4885 10.4982 11.0714C10.4982 10.6544 11.1029 9.79193 11.1029 9.79193Z" fill="#FFFF00" stroke="black" stroke-width="0.0441477"/>
<path fill-rule="evenodd" clip-rule="evenodd" d="M11.1198 13.5276C11.0537 13.5699 11.2043 14.2494 11.2484 14.2789C11.3146 14.3201 11.7059 14.3201 11.7702 14.2789C11.8161 14.2494 11.7702 13.6112 11.7059 13.5699C11.6397 13.5276 11.1657 13.4993 11.118 13.5276H11.1198Z" fill="#FFFF00" stroke="black" stroke-width="0.0441477"/>
<path fill-rule="evenodd" clip-rule="evenodd" d="M13.1324 13.5276C13.1985 13.5699 13.0479 14.2494 13.0038 14.2789C12.9376 14.3201 12.5463 14.3201 12.482 14.2789C12.4361 14.2494 12.482 13.6112 12.5463 13.5699C12.6125 13.5276 13.0865 13.4993 13.1342 13.5276H13.1324Z" fill="#FFFF00" stroke="black" stroke-width="0.0441477"/>
<path fill-rule="evenodd" clip-rule="evenodd" d="M11.7898 13.2771C11.7898 13.3394 11.7542 13.3992 11.6908 13.4432C11.6274 13.4873 11.5415 13.512 11.4519 13.512C11.3623 13.512 11.2763 13.4873 11.213 13.4432C11.1496 13.3992 11.114 13.3394 11.114 13.2771C11.114 13.2148 11.1496 13.1551 11.213 13.111C11.2763 13.067 11.3623 13.0422 11.4519 13.0422C11.5415 13.0422 11.6274 13.067 11.6908 13.111C11.7542 13.1551 11.7898 13.2148 11.7898 13.2771Z" fill="#FFFF00" stroke="black" stroke-width="0.0528459"/>
<path fill-rule="evenodd" clip-rule="evenodd" d="M13.1352 13.2772C13.1352 13.3395 13.0996 13.3992 13.0363 13.4433C12.9729 13.4873 12.887 13.5121 12.7973 13.5121C12.7077 13.5121 12.6218 13.4873 12.5584 13.4433C12.4951 13.3992 12.4595 13.3395 12.4595 13.2772C12.4595 13.2149 12.4951 13.1551 12.5584 13.1111C12.6218 13.067 12.7077 13.0423 12.7973 13.0423C12.887 13.0423 12.9729 13.067 13.0363 13.1111C13.0996 13.1551 13.1352 13.2149 13.1352 13.2772Z" fill="#FFFF00" stroke="black" stroke-width="0.0528467"/>
<path fill-rule="evenodd" clip-rule="evenodd" d="M12.7116 14.6376C12.7116 14.6939 12.6366 14.7407 12.5475 14.7407C12.4585 14.7407 12.3882 14.6939 12.3882 14.6376C12.3882 14.5814 12.4585 14.5345 12.5475 14.5345C12.6366 14.5345 12.7116 14.5814 12.7116 14.6376ZM11.8681 14.6376C11.8681 14.6939 11.7931 14.7407 11.7041 14.7407C11.615 14.7407 11.54 14.6939 11.54 14.6376C11.54 14.5814 11.615 14.5345 11.7041 14.5345C11.7931 14.5345 11.8634 14.5814 11.8634 14.6376H11.8681Z" fill="black"/>
<path fill-rule="evenodd" clip-rule="evenodd" d="M12.1255 11.3022L11.9258 11.0502L11.598 11.0918L11.6441 10.7786L11.3804 10.5902L11.6441 10.3994L11.598 10.0862L11.9258 10.1302L12.1255 9.87823L12.3252 10.1302L12.6504 10.0862L12.6069 10.3994L12.868 10.5902L12.6069 10.7811L12.6504 11.0918L12.3226 11.0502L12.1255 11.3022Z" fill="#FFFF00" stroke="black" stroke-width="0.0333893"/>
<path fill-rule="evenodd" clip-rule="evenodd" d="M13.5183 12.2777L14.0773 12.546L14.6364 12.2777L14.0773 12.0118L13.5183 12.2777Z" fill="#FFFF00" stroke="black" stroke-width="0.034224"/>
<path fill-rule="evenodd" clip-rule="evenodd" d="M9.51904 12.2777L10.0781 12.546L10.6371 12.2777L10.0781 12.0118L9.51904 12.2777Z" fill="#FFFF00" stroke="black" stroke-width="0.034224"/>
<path fill-rule="evenodd" clip-rule="evenodd" d="M14.3874 13.8713C14.2163 13.7628 13.928 13.8169 13.7664 13.9055C13.6048 13.9942 13.4432 14.0829 13.4215 14.4043C13.2359 14.0955 13.382 13.8099 13.6278 13.675C13.7585 13.6154 13.9072 13.6026 14.0469 13.6391C14.1866 13.6755 14.3079 13.7587 14.3887 13.8735L14.3874 13.8713Z" fill="#FFFF00" stroke="black" stroke-width="0.0342374"/>
<path fill-rule="evenodd" clip-rule="evenodd" d="M10.5458 13.3453C10.5458 13.3922 10.5263 13.4372 10.4916 13.4703C10.4569 13.5035 10.4099 13.5221 10.3608 13.5221C10.3117 13.5221 10.2647 13.5035 10.23 13.4703C10.1953 13.4372 10.1758 13.3922 10.1758 13.3453C10.1758 13.2984 10.1953 13.2535 10.23 13.2203C10.2647 13.1871 10.3117 13.1685 10.3608 13.1685C10.4099 13.1685 10.4569 13.1871 10.4916 13.2203C10.5263 13.2535 10.5458 13.2984 10.5458 13.3453Z" fill="#FFFF00" stroke="black" stroke-width="0.034224"/>
<path fill-rule="evenodd" clip-rule="evenodd" d="M10.3583 13.9689C10.3583 14.0158 10.3388 14.0608 10.3041 14.0939C10.2694 14.1271 10.2224 14.1457 10.1733 14.1457C10.1242 14.1457 10.0772 14.1271 10.0425 14.0939C10.0078 14.0608 9.98828 14.0158 9.98828 13.9689C9.98828 13.922 10.0078 13.8771 10.0425 13.8439C10.0772 13.8107 10.1242 13.7921 10.1733 13.7921C10.2224 13.7921 10.2694 13.8107 10.3041 13.8439C10.3388 13.8771 10.3583 13.922 10.3583 13.9689Z" fill="#FFFF00" stroke="black" stroke-width="0.034224"/>
<path fill-rule="evenodd" clip-rule="evenodd" d="M10.2646 13.6126C10.2646 13.6595 10.2451 13.7045 10.2104 13.7376C10.1757 13.7708 10.1286 13.7894 10.0796 13.7894C10.0305 13.7894 9.98342 13.7708 9.94872 13.7376C9.91402 13.7045 9.89453 13.6595 9.89453 13.6126C9.89453 13.5657 9.91402 13.5207 9.94872 13.4876C9.98342 13.4544 10.0305 13.4358 10.0796 13.4358C10.1286 13.4358 10.1757 13.4544 10.2104 13.4876C10.2451 13.5207 10.2646 13.5657 10.2646 13.6126Z" fill="#FFFF00" stroke="black" stroke-width="0.034224"/>
<path fill-rule="evenodd" clip-rule="evenodd" d="M10.7287 13.9689C10.7287 14.0158 10.7092 14.0608 10.6745 14.0939C10.6398 14.1271 10.5927 14.1457 10.5437 14.1457C10.4946 14.1457 10.4475 14.1271 10.4128 14.0939C10.3781 14.0608 10.3586 14.0158 10.3586 13.9689C10.3586 13.922 10.3781 13.8771 10.4128 13.8439C10.4475 13.8107 10.4946 13.7921 10.5437 13.7921C10.5927 13.7921 10.6398 13.8107 10.6745 13.8439C10.7092 13.8771 10.7287 13.922 10.7287 13.9689Z" fill="#FFFF00" stroke="black" stroke-width="0.034224"/>
<path fill-rule="evenodd" clip-rule="evenodd" d="M10.8225 13.6126C10.8225 13.6595 10.803 13.7045 10.7683 13.7376C10.7336 13.7708 10.6865 13.7894 10.6374 13.7894C10.5883 13.7894 10.5413 13.7708 10.5066 13.7376C10.4719 13.7045 10.4524 13.6595 10.4524 13.6126C10.4524 13.5657 10.4719 13.5207 10.5066 13.4876C10.5413 13.4544 10.5883 13.4358 10.6374 13.4358C10.6865 13.4358 10.7336 13.4544 10.7683 13.4876C10.803 13.5207 10.8225 13.5657 10.8225 13.6126Z" fill="#FFFF00" stroke="black" stroke-width="0.034224"/>
<path fill-rule="evenodd" clip-rule="evenodd" d="M10.5458 13.7016C10.5458 13.7485 10.5263 13.7935 10.4916 13.8267C10.4569 13.8598 10.4099 13.8785 10.3608 13.8785C10.3117 13.8785 10.2647 13.8598 10.23 13.8267C10.1953 13.7935 10.1758 13.7485 10.1758 13.7016C10.1758 13.6548 10.1953 13.6098 10.23 13.5766C10.2647 13.5435 10.3117 13.5248 10.3608 13.5248C10.4099 13.5248 10.4569 13.5435 10.4916 13.5766C10.5263 13.6098 10.5458 13.6548 10.5458 13.7016Z" fill="#FFFF00" stroke="black" stroke-width="0.034224"/>
<path fill-rule="evenodd" clip-rule="evenodd" d="M11.2253 7.51127C10.7567 7.51127 10.6957 7.58156 10.4849 7.65186C10.4849 7.45035 11.005 7.21136 11.4736 7.21136C11.4736 7.36132 11.3518 7.50659 11.2253 7.50659V7.51127Z" fill="#DA4500"/>
<path fill-rule="evenodd" clip-rule="evenodd" d="M11.9428 7.03311C11.9428 7.13152 11.8584 7.21118 11.7553 7.21118C11.6522 7.21118 11.5679 7.13152 11.5679 7.03311C11.5679 6.9347 11.6522 6.85504 11.7553 6.85504C11.8584 6.85504 11.9428 6.9347 11.9428 7.03311Z" fill="#CAC9C7"/>
<path fill-rule="evenodd" clip-rule="evenodd" d="M9.98389 6.4113V6.67713H10.4484V8.00883H10.7293V6.67713H11.1938V6.4113H10.7293V6.05518H10.4458V6.4113H9.98389Z" fill="#FFFF00" stroke="black" stroke-width="0.034224"/>
<path fill-rule="evenodd" clip-rule="evenodd" d="M11.4737 7.21117C11.0958 7.19033 10.7174 7.24121 10.3584 7.36112C10.3584 7.08464 10.6771 6.76599 11.2253 6.76599C11.3518 6.76599 11.4737 7.06121 11.4737 7.21117Z" fill="#DA4500"/>
<path fill-rule="evenodd" clip-rule="evenodd" d="M6.63642 11.9309C6.50251 11.6422 6.50562 11.5501 6.74385 11.8804L9.61345 17.3207L9.52562 17.3454L6.6379 11.932L6.63642 11.9309Z" fill="#008500" stroke="black" stroke-width="0.0125834"/>
<path fill-rule="evenodd" clip-rule="evenodd" d="M8.58142 15.5097C8.61424 15.1065 7.87817 14.6705 7.84535 14.6986C7.81253 14.7267 7.89224 14.9611 8.03289 15.083C7.76096 14.9471 7.47966 14.8627 7.47028 14.9236C7.45153 15.0033 7.89223 15.1956 7.92974 15.2706C7.92974 15.3221 7.60156 15.3174 7.61093 15.369C7.61562 15.4253 8.53454 15.8847 8.58142 15.5097ZM7.84535 14.3376C7.87348 13.9344 7.13741 13.4937 7.10459 13.5265C7.07646 13.5546 7.15148 13.789 7.29213 13.9109C7.02489 13.7703 6.74359 13.6859 6.73421 13.7469C6.71546 13.8266 7.15616 14.0188 7.18898 14.0938C7.19367 14.15 6.86549 14.1407 6.87486 14.1969C6.87955 14.2485 7.79847 14.7127 7.84535 14.3376ZM7.28275 13.2686C7.31088 12.8654 6.57012 12.4294 6.54199 12.4576C6.51386 12.4857 6.58887 12.7201 6.72952 12.842C6.4576 12.7013 6.1763 12.6216 6.17161 12.6826C6.14817 12.7623 6.59356 12.9545 6.62638 13.0295C6.63107 13.0811 6.30288 13.0764 6.30757 13.128C6.31226 13.1796 7.23118 13.6437 7.27806 13.2686H7.28275ZM6.72015 12.1153C6.75297 11.7121 6.01689 11.2714 5.98408 11.3042C5.95126 11.337 6.03096 11.5668 6.17161 11.6887C5.89968 11.548 5.61838 11.4636 5.6137 11.5246C5.59025 11.6043 6.03096 11.7965 6.06847 11.8715C6.07315 11.9278 5.74497 11.9184 5.74966 11.9747C5.75435 12.0215 6.67326 12.4904 6.72015 12.1153Z" fill="#008F00"/>
<path fill-rule="evenodd" clip-rule="evenodd" d="M6.91225 12.059C7.27325 11.8434 7.20292 11.0182 7.16073 11.0135C7.11853 11.0088 6.96382 11.2011 6.94506 11.3839C6.89818 11.0932 6.80441 10.826 6.75753 10.8588C6.67314 10.8916 6.7716 11.3417 6.7294 11.4167C6.68721 11.4496 6.49498 11.1964 6.45748 11.2292C6.41528 11.2667 6.57 12.2466 6.91225 12.059ZM7.42797 13.0764C7.84523 12.9826 8.06558 12.1856 8.03276 12.1669C7.99526 12.1481 7.77959 12.2841 7.69989 12.4482C7.76084 12.1622 7.76084 11.8809 7.69989 11.8903C7.6155 11.8949 7.54517 12.3497 7.48423 12.406C7.43265 12.4294 7.34358 12.1247 7.292 12.1481C7.24043 12.1716 7.04352 13.142 7.43265 13.0764H7.42797ZM8.05152 14.1125C8.42658 13.925 8.43596 13.0999 8.39377 13.0905C8.35157 13.0811 8.18279 13.2639 8.14528 13.4421C8.12653 13.1514 8.06089 12.8795 8.00463 12.9029C7.92024 12.9264 7.97181 13.3858 7.92493 13.4562C7.87805 13.4843 7.71864 13.2124 7.67176 13.2452C7.62488 13.278 7.69051 14.2719 8.04683 14.1125H8.05152ZM8.71726 15.4722C9.11108 15.3221 9.20954 14.497 9.16734 14.4876C9.12984 14.4688 8.93762 14.6329 8.88604 14.8064C8.90011 14.5157 8.85791 14.2391 8.80165 14.2579C8.71257 14.2766 8.72195 14.7361 8.66569 14.8017C8.61881 14.8299 8.48284 14.5439 8.43596 14.5673C8.38908 14.6001 8.34219 15.5894 8.71726 15.4675V15.4722Z" fill="#008F00"/>
<path fill-rule="evenodd" clip-rule="evenodd" d="M9.58657 16.8799C9.48677 17.0507 9.17115 17.0661 8.87783 16.9097C8.58451 16.7532 8.43264 16.4883 8.53244 16.3175C8.63223 16.1467 8.95014 16.1325 9.24118 16.2878C9.53221 16.443 9.68636 16.7091 9.58657 16.8799Z" fill="#FF1900" stroke="black" stroke-width="0.0342367"/>
<path fill-rule="evenodd" clip-rule="evenodd" d="M17.1627 11.1564L17.2121 11.0289L17.3451 11.0708L17.3946 10.9433L17.5276 10.9852L17.4789 11.1109L17.6158 11.154L17.5657 11.2833L17.4288 11.2402L17.3057 11.5581L17.1726 11.5162L17.2957 11.1983L17.1627 11.1564ZM16.8768 12.2795L17.0099 12.3214L15.58 16.0122L15.4469 15.9703L16.8768 12.2795Z" fill="#FFFF00" stroke="black" stroke-width="0.011756"/>
<path fill-rule="evenodd" clip-rule="evenodd" d="M15.4027 15.8859L15.6726 15.9709L15.2781 16.9892L15.0081 16.9042L15.4027 15.8859ZM16.99 11.6018L17.3949 11.7293C17.663 11.8137 17.0551 12.4082 17.0551 12.4082L16.7871 12.3238C16.7871 12.3238 16.72 11.5168 16.99 11.6018ZM17.3622 11.6102C17.3413 11.6641 17.2657 11.6886 17.1915 11.6653C17.1174 11.6419 17.0732 11.5796 17.0934 11.5276C17.1136 11.4755 17.1899 11.4491 17.2641 11.4725C17.3382 11.4958 17.3823 11.5581 17.3615 11.612L17.3622 11.6102Z" fill="#FFFF00" stroke="black" stroke-width="0.011756"/>
<path fill-rule="evenodd" clip-rule="evenodd" d="M15.622 16.4188C15.7351 16.5819 15.6046 16.857 15.3245 17.0342C15.0444 17.2115 14.7285 17.2189 14.6155 17.0558C14.5024 16.8927 14.635 16.6163 14.9129 16.4404C15.1908 16.2645 15.509 16.2557 15.622 16.4188Z" fill="#FF1900" stroke="black" stroke-width="0.0342394"/>
</g>
<defs>
<clipPath id="clip0_720_53368">
<rect width="24.0044" height="24.0044" fill="white" transform="translate(0.0349121 0.0568848)"/>
</clipPath>
</defs>
</svg>
