<svg width="24" height="25" viewBox="0 0 24 25" fill="none" xmlns="http://www.w3.org/2000/svg">
<g clip-path="url(#clip0_720_53427)">
<path fill-rule="evenodd" clip-rule="evenodd" d="M0.000244141 0.0480957H24.0046V24.0525H0.000244141V0.0480957Z" fill="white"/>
<path fill-rule="evenodd" clip-rule="evenodd" d="M1.03076 7.90326L3.95723 3.5152L4.68857 4.00295L1.7621 8.391L1.03076 7.90326ZM2.12778 8.63488L5.05425 4.24682L5.78559 4.73457L2.85912 9.12262L2.12778 8.63488ZM3.22479 9.36649L6.15126 4.97844L6.8826 5.46618L3.95613 9.85424L3.22479 9.36649Z" fill="#000001"/>
<path fill-rule="evenodd" clip-rule="evenodd" d="M17.1199 18.6336L20.0463 14.2455L20.7777 14.7333L17.8512 19.1214L17.1199 18.6336ZM18.2169 19.3652L21.1434 14.9772L21.8747 15.4649L18.9482 19.853L18.2169 19.3652ZM19.3139 20.0968L22.2404 15.7088L22.9717 16.1965L20.0452 20.5846L19.3139 20.0968Z" fill="#000001"/>
<path fill-rule="evenodd" clip-rule="evenodd" d="M18.2175 16.1957L21.8742 18.6344L18.2175 16.1957Z" fill="black"/>
<path d="M18.2175 16.1957L21.8742 18.6344" stroke="white" stroke-width="0.439533"/>
<path fill-rule="evenodd" clip-rule="evenodd" d="M7.61304 9.12341C8.38919 7.95963 9.59586 7.15183 10.9676 6.87773C12.3393 6.60363 13.7638 6.88568 14.9276 7.66183C16.0913 8.43797 16.8991 9.64465 17.1732 11.0164C17.4473 12.3881 17.1653 13.8126 16.3892 14.9764L7.61304 9.12341Z" fill="#CD2E3A"/>
<path fill-rule="evenodd" clip-rule="evenodd" d="M7.61299 9.12342C6.83685 10.2872 6.5548 11.7116 6.8289 13.0834C7.103 14.4551 7.9108 15.6618 9.07458 16.4379C10.2384 17.2141 11.6628 17.4961 13.0345 17.222C14.4063 16.9479 15.613 16.1401 16.3891 14.9764C16.7772 14.3945 16.9182 13.6822 16.7812 12.9964C16.6441 12.3105 16.2402 11.7072 15.6583 11.3191C15.0764 10.931 14.3642 10.79 13.6783 10.927C12.9925 11.0641 12.3891 11.468 12.0011 12.0499L7.61299 9.12342Z" fill="#0047A0"/>
<path d="M12.0009 12.0499C12.8091 10.8382 12.4819 9.20074 11.2702 8.39262C10.0584 7.5845 8.42102 7.91169 7.61289 9.12342C6.80477 10.3351 7.13196 11.9726 8.34369 12.7807C9.55541 13.5888 11.1928 13.2616 12.0009 12.0499Z" fill="#CD2E3A"/>
<path fill-rule="evenodd" clip-rule="evenodd" d="M3.95996 20.5846L1.03349 16.1965L1.76483 15.7088L4.6913 20.0968L3.95996 20.5846ZM5.05697 19.853L2.1305 15.4649L2.86185 14.9772L5.78832 19.3652L5.05697 19.853ZM6.15399 19.1214L3.22752 14.7333L3.95886 14.2456L6.88533 18.6336L6.15399 19.1214Z" fill="#000001"/>
<path fill-rule="evenodd" clip-rule="evenodd" d="M20.0496 9.85425L17.1231 5.46619L17.8544 4.97845L20.7809 9.3665L20.0496 9.85425ZM21.1466 9.12263L18.2201 4.73457L18.9514 4.24683L21.8779 8.63489L21.1466 9.12263ZM22.2436 8.39101L19.3171 4.00296L20.0485 3.51521L22.9749 7.90327L22.2436 8.39101Z" fill="#000001"/>
<path fill-rule="evenodd" clip-rule="evenodd" d="M3.41089 17.7809L4.5079 17.0493L3.41089 17.7809ZM18.2206 7.90405L19.5004 7.05049L18.2206 7.90405ZM20.5974 6.31888L21.6945 5.58726L20.5974 6.31888Z" fill="black"/>
<path d="M3.41089 17.7809L4.5079 17.0493M18.2206 7.90405L19.5004 7.05049M20.5974 6.31888L21.6945 5.58726" stroke="white" stroke-width="0.439533"/>
</g>
<defs>
<clipPath id="clip0_720_53427">
<rect width="24.0044" height="24.0044" fill="white" transform="translate(0 0.0480957)"/>
</clipPath>
</defs>
</svg>
