<svg width="25" height="25" viewBox="0 0 25 25" fill="none" xmlns="http://www.w3.org/2000/svg">
<g clip-path="url(#clip0_720_53403)">
<path d="M0.0131836 0.0744629H24.0176V24.0788H0.0131836V0.0744629Z" fill="#20603D"/>
<path d="M0.0131836 0.0744629H24.0176V18.0777H0.0131836V0.0744629Z" fill="#FAD201"/>
<path d="M0.0131836 0.0744629H24.0176V12.0766H0.0131836V0.0744629Z" fill="#00A1DE"/>
<path d="M21.4374 6.34761L18.757 6.5043L21.3041 7.35111L18.677 6.80769L20.9207 8.28126L18.5203 7.0744L20.3006 9.08473L18.2969 7.3011L19.5038 9.7015L18.0269 7.45779L18.567 10.0816L17.7235 7.53781L17.5668 10.2183L17.5334 6.31427L21.4374 6.34761Z" fill="#E5BE01"/>
<path d="M21.4374 6.34764L18.757 6.19095L21.3041 5.34414L18.677 5.88757L20.9207 4.41399L18.5203 5.62086L20.3006 3.61052L18.2969 5.39415L19.5038 2.99375L18.0269 5.23746L18.567 2.61369L17.7235 5.15744L17.5668 2.477L17.5334 6.38098L21.4374 6.34764Z" fill="#E5BE01"/>
<path d="M13.6954 6.34761L16.3758 6.5043L13.8287 7.35111L16.4558 6.80769L14.2121 8.28126L16.6125 7.0744L14.8322 9.08473L16.8359 7.3011L15.629 9.7015L17.1059 7.45779L16.5659 10.0816L17.4093 7.53781L17.566 10.2183L17.5994 6.31427L13.6954 6.34761Z" fill="#E5BE01"/>
<path d="M13.6954 6.34764L16.3758 6.19095L13.8287 5.34414L16.4558 5.88757L14.2121 4.41399L16.6125 5.62086L14.8322 3.61052L16.8359 5.39415L15.629 2.99375L17.1059 5.23746L16.5659 2.61369L17.4093 5.15744L17.566 2.477L17.5994 6.38098L13.6954 6.34764Z" fill="#E5BE01"/>
<path d="M17.5664 7.49109C18.1979 7.49109 18.7099 6.97911 18.7099 6.34756C18.7099 5.71601 18.1979 5.20404 17.5664 5.20404C16.9348 5.20404 16.4229 5.71601 16.4229 6.34756C16.4229 6.97911 16.9348 7.49109 17.5664 7.49109Z" fill="#E5BE01" stroke="#00A1DE" stroke-width="0.113352"/>
</g>
<defs>
<clipPath id="clip0_720_53403">
<rect width="24.0044" height="24.0044" fill="white" transform="translate(0.0131836 0.0744629)"/>
</clipPath>
</defs>
</svg>
