<svg width="25" height="25" viewBox="0 0 25 25" fill="none" xmlns="http://www.w3.org/2000/svg">
<g clip-path="url(#clip0_720_53310)">
<path d="M23.9958 0.5H-0.00415039V24.5H23.9958V0.5Z" fill="#012169"/>
<path d="M-0.00415039 0.5L11.9958 12.5L-0.00415039 0.5ZM11.9958 0.5L-0.00415039 12.5L11.9958 0.5Z" fill="black"/>
<path d="M-0.00415039 0.5L11.9958 12.5M11.9958 0.5L-0.00415039 12.5" stroke="white" stroke-width="1.2"/>
<mask id="mask0_720_53310" style="mask-type:luminance" maskUnits="userSpaceOnUse" x="-1" y="0" width="15" height="15">
<path d="M-0.00415039 0.5V6.5H13.9958V12.5H11.9958L-0.00415039 0.5ZM11.9958 0.5H5.99585V14.5H-0.00415039V12.5L11.9958 0.5Z" fill="white"/>
</mask>
<g mask="url(#mask0_720_53310)">
<path d="M-0.00415039 0.5L11.9958 12.5L-0.00415039 0.5ZM11.9958 0.5L-0.00415039 12.5L11.9958 0.5Z" fill="black"/>
<path d="M-0.00415039 0.5L11.9958 12.5M11.9958 0.5L-0.00415039 12.5" stroke="#C8102E" stroke-width="0.8"/>
</g>
<path d="M5.99585 0.5V14.5V0.5ZM-0.00415039 6.5H13.9958H-0.00415039Z" fill="black"/>
<path d="M5.99585 0.5V14.5M-0.00415039 6.5H13.9958" stroke="white" stroke-width="2"/>
<path d="M5.99585 0.5V14.5V0.5ZM-0.00415039 6.5H13.9958H-0.00415039Z" fill="black"/>
<path d="M5.99585 0.5V14.5M-0.00415039 6.5H13.9958" stroke="#C8102E" stroke-width="1.2"/>
<path d="M-0.00415039 12.5H11.9958V0.5H23.9958V24.5H-0.00415039V12.5Z" fill="#012169"/>
<path d="M19.9854 10.7804C19.9815 13.4944 19.7658 16.4182 17.9959 17.8109C16.2259 16.4182 16.0102 13.4944 16.0063 10.7804H19.9854Z" fill="#5F7DBD"/>
<path d="M19.9854 10.7804C19.9869 9.75806 19.9583 8.76549 19.9713 7.89574C19.31 7.30831 18.4397 7.1875 17.9959 7.1875C17.5521 7.1875 16.6818 7.30831 16.0205 7.89574C16.0335 8.76549 16.005 9.75806 16.0064 10.7804H19.9854Z" fill="#F2D049"/>
<path d="M17.9959 17.8109C18.7982 17.1796 19.2812 16.2334 19.5698 15.1348C19.5266 15.1381 19.4361 15.133 19.397 15.1277C19.3534 15.122 17.6999 14.7923 17.5041 14.6498C17.3337 14.5258 16.6838 14.7551 16.3804 14.9703C16.6634 16.1388 17.1537 17.1482 17.9959 17.8109Z" fill="#E8ECE9"/>
<path d="M16.9517 16.1959C17.0038 16.1872 17.1453 16.1051 17.1605 16.0792C17.1953 16.1267 17.2562 16.1916 17.2823 16.1916C17.2323 16.2132 17.1996 16.2002 17.1866 16.1829C17.1931 16.2132 17.2105 16.2607 17.2214 16.265C17.1735 16.2607 17.1192 16.2391 17.1018 16.2045C17.0604 16.2391 16.9908 16.2477 16.9517 16.1959Z" fill="#9CB8C5"/>
<path d="M17.0452 16.3255C17.0637 16.3363 17.1561 16.3665 17.1681 16.3665C17.1376 16.4182 17.1637 16.4679 17.2149 16.4593C17.1898 16.4658 17.1625 16.4845 17.1811 16.4917C17.2257 16.509 17.3465 16.4441 17.3704 16.4182C17.3291 16.5241 17.1279 16.6213 17.0452 16.3255Z" fill="#9CB8C5"/>
<path d="M17.1279 16.5889C17.1529 16.563 17.2149 16.5716 17.2443 16.5997C17.2116 16.6235 17.1475 16.6235 17.1279 16.5889Z" fill="#9CB8C5"/>
<path d="M17.2214 16.5846C17.2661 16.5694 17.3922 16.6299 17.4368 16.5759C17.4216 16.6559 17.3422 16.6667 17.3149 16.6494C17.2878 16.6321 17.2617 16.6105 17.2432 16.6127C17.253 16.6019 17.2367 16.5997 17.2214 16.5846Z" fill="#9CB8C5"/>
<path d="M17.2671 16.7077C17.3008 16.7183 17.4215 16.6882 17.4586 16.6602C17.4976 16.6861 17.5749 16.727 17.5923 16.7226C17.5553 16.768 17.4846 16.7421 17.4618 16.7226C17.3965 16.7658 17.3432 16.7788 17.2671 16.7077Z" fill="#9CB8C5"/>
<path d="M17.3247 16.7481C17.373 16.7697 17.4142 16.7542 17.4618 16.7227C17.4766 16.7353 17.5115 16.7507 17.5443 16.7476C17.5662 16.7723 17.5956 16.8069 17.6239 16.8112C17.5945 16.835 17.4867 16.8112 17.4651 16.7875C17.4106 16.7896 17.317 16.8134 17.2943 16.8501C17.2932 16.8199 17.3031 16.7778 17.3247 16.7481Z" fill="#9CB8C5"/>
<path d="M17.267 16.2607C17.3046 16.2857 17.441 16.2737 17.5106 16.2089C17.538 16.1833 17.555 16.2262 17.5236 16.2478C17.4105 16.3255 17.3213 16.3558 17.2561 16.2867C17.2303 16.2594 17.2278 16.2348 17.267 16.2607Z" fill="#9CB8C5"/>
<path d="M17.9349 15.8936C17.7674 16.049 17.6564 16.0965 17.4236 15.9541C17.4019 15.9408 17.3866 15.9541 17.4106 15.9843C17.4345 16.0144 17.5628 16.0836 17.5933 16.0879C17.6238 16.0922 17.6129 16.1203 17.5944 16.1311C17.5759 16.1419 17.5705 16.1678 17.5955 16.1484C17.6205 16.1289 17.7603 16.1216 17.8174 16.1808C17.8424 16.2067 17.8489 16.2024 17.8467 16.1829C17.8446 16.1635 17.8576 16.1505 17.8761 16.1462C17.8946 16.1419 17.9055 16.1289 17.8914 16.1181C17.8772 16.1073 17.875 16.1008 17.8859 16.09C17.8968 16.0792 17.8979 16.0684 17.8816 16.062C17.8652 16.0555 17.8544 16.0468 17.8696 16.0317C17.8848 16.0168 17.9077 16.0058 17.9251 16.0016C17.9294 15.9779 17.9218 15.9152 17.9349 15.8936Z" fill="#9CB8C5"/>
<path d="M17.6564 15.9325C17.7522 15.9459 17.9284 15.859 18.022 15.6777C18.0546 15.7165 18.1003 15.7597 18.1242 15.7683C18.1482 15.7769 18.17 15.8201 18.1329 15.8201C18.0959 15.8201 18.0437 15.7899 18.0198 15.7683C17.8958 15.9195 17.7506 15.9692 17.6586 15.9541C17.6326 15.9498 17.626 15.9282 17.6564 15.9325Z" fill="#9CB8C5"/>
<path d="M17.3736 14.8961C17.4063 14.9415 17.4639 15.0169 17.539 15.0061C17.576 15.0645 17.6336 15.1141 17.6598 15.1249C17.6097 15.166 17.5553 15.2006 17.5411 15.233C17.5183 15.1897 17.489 15.1962 17.4814 15.1746C17.4596 15.2092 17.4629 15.2308 17.477 15.2481C17.4912 15.2654 17.601 15.3021 17.6282 15.287C17.6554 15.2718 17.6627 15.3165 17.6402 15.3322C17.5814 15.3732 17.4672 15.3343 17.428 15.2092C17.3889 15.0839 17.3551 15.0364 17.2485 15.1509C17.2366 15.0904 17.2366 15.0753 17.2159 15.0753C17.1952 15.0753 17.1571 15.0212 17.1865 15.0234C17.2159 15.0256 17.303 14.9996 17.3736 14.8961Z" fill="#9CB8C5"/>
<path d="M17.3997 15.1746C17.3815 15.1836 17.33 15.2394 17.3116 15.2437C17.2931 15.248 17.2604 15.2999 17.2942 15.302C17.3278 15.3042 17.3714 15.2307 17.3953 15.2243C17.4193 15.2178 17.4214 15.1638 17.3997 15.1746Z" fill="#9CB8C5"/>
<path d="M17.5053 15.3926C17.4924 15.3971 17.4368 15.4229 17.4215 15.4207C17.4063 15.4185 17.3911 15.4272 17.3922 15.4488C17.3932 15.4704 17.3976 15.4834 17.3747 15.479C17.3519 15.4747 17.3323 15.492 17.3269 15.505C17.3214 15.5179 17.3171 15.5309 17.3399 15.5352C17.3628 15.5395 17.3747 15.5438 17.4009 15.5201C17.427 15.4963 17.452 15.4596 17.4803 15.4574C17.5085 15.4553 17.5368 15.3818 17.5053 15.3926Z" fill="#9CB8C5"/>
<path d="M17.427 15.5265C17.4508 15.5571 17.5684 15.6367 17.6108 15.6302C17.6533 15.6238 17.6453 15.664 17.613 15.6778C17.5466 15.7057 17.4656 15.6483 17.4107 15.5611C17.3835 15.5179 17.4085 15.5028 17.427 15.5265Z" fill="#9CB8C5"/>
<path d="M17.984 15.6411C17.894 15.698 17.8023 15.6778 17.7653 15.6583C17.7283 15.6389 17.6946 15.6346 17.7196 15.6821C17.7446 15.7295 17.8252 15.7619 17.8708 15.7381C17.7087 15.8115 17.6663 15.8051 17.6261 15.7921C17.5858 15.7791 17.5102 15.782 17.4782 15.7878C17.4542 15.7921 17.4216 15.7856 17.4074 15.7683C17.3933 15.7511 17.3889 15.7187 17.4314 15.7273C17.4737 15.7359 17.4792 15.7187 17.4422 15.7079C17.4052 15.6971 17.3541 15.7273 17.4041 15.7899C17.4542 15.8526 17.564 15.7856 17.6337 15.8245C17.7033 15.8634 17.8512 15.8915 17.9916 15.6668C17.9988 15.6553 18.0112 15.6238 17.984 15.6411Z" fill="#9CB8C5"/>
<path d="M17.5423 15.3775C17.5456 15.3991 17.5456 15.4228 17.5423 15.438C17.539 15.4531 17.539 15.4725 17.5532 15.4509C17.5673 15.4293 17.576 15.4034 17.5902 15.4185C17.6043 15.4336 17.6403 15.4315 17.6565 15.4272C17.6729 15.4228 17.6783 15.4164 17.6544 15.3969C17.6305 15.3775 17.6065 15.371 17.5935 15.3732C17.5804 15.3753 17.5641 15.3688 17.5532 15.3602C17.5423 15.3515 17.539 15.3559 17.5423 15.3775Z" fill="#9CB8C5"/>
<path d="M17.774 15.4618C17.7555 15.4639 17.7228 15.4402 17.7054 15.425C17.688 15.4099 17.6631 15.4077 17.6816 15.4574C17.7 15.5071 17.7805 15.5352 17.8088 15.5114C17.8371 15.4877 17.8251 15.4618 17.8534 15.4963C17.8817 15.5309 17.911 15.5546 17.9317 15.5546C17.9524 15.5546 17.96 15.5546 17.9372 15.5287C17.9143 15.5028 17.9034 15.4963 17.9012 15.4747C17.8991 15.4531 17.8958 15.4402 17.9165 15.4531C17.9372 15.4661 17.9611 15.4898 17.9774 15.4726C17.9938 15.4553 18.0241 15.4164 18.0514 15.4164L18.0579 15.384C18.0187 15.3775 17.9938 15.4013 17.9829 15.4099C17.972 15.4185 17.9524 15.4229 17.9317 15.4164C17.911 15.4099 17.8838 15.4056 17.8773 15.3948C17.8708 15.384 17.8708 15.3753 17.8882 15.3689C17.9056 15.3624 17.911 15.3386 17.8871 15.3473C17.8632 15.3559 17.799 15.3516 17.7653 15.33C17.7316 15.3085 17.7174 15.3064 17.7033 15.317C17.6891 15.3278 17.6913 15.3581 17.712 15.3602C17.7326 15.3624 17.7794 15.371 17.7958 15.4013C17.8121 15.4315 17.8099 15.4337 17.7914 15.4186C17.7729 15.4034 17.7392 15.4121 17.774 15.4618Z" fill="#9CB8C5"/>
<path d="M18.0578 15.3839L18.0513 15.4163C18.0915 15.4142 18.1895 15.4336 18.221 15.4725C18.2514 15.425 18.246 15.4099 18.2678 15.4185C18.2895 15.4271 18.3167 15.4423 18.3287 15.4293C18.3407 15.4163 18.3494 15.4185 18.3624 15.4228C18.3754 15.4271 18.4037 15.4163 18.42 15.3969C18.4364 15.3775 18.4701 15.3515 18.4897 15.3515C18.5093 15.3515 18.5331 15.3429 18.4973 15.3321C18.4614 15.3213 18.407 15.3429 18.3885 15.3559C18.3701 15.3688 18.3146 15.3775 18.2819 15.3775C18.2493 15.3775 18.2047 15.4099 18.1677 15.3904C18.1307 15.371 18.0796 15.3839 18.0578 15.3839Z" fill="#9CB8C5"/>
<path d="M18.5615 15.3451C18.4963 15.4401 18.4179 15.4617 18.3244 15.4747C18.2972 15.4785 18.3056 15.4938 18.3287 15.4985C18.4266 15.5179 18.5398 15.4466 18.5767 15.3688C18.5874 15.3464 18.5863 15.3092 18.5615 15.3451Z" fill="#9CB8C5"/>
<path d="M18.1167 15.5654C18.145 15.5676 18.2429 15.6173 18.2744 15.6389C18.2984 15.6346 18.3049 15.6238 18.3005 15.6065C18.2962 15.5892 18.2929 15.5698 18.3365 15.5741C18.3799 15.5784 18.48 15.5762 18.4985 15.5762C18.5138 15.5633 18.5474 15.5114 18.5627 15.5093C18.5236 15.5136 18.3604 15.5309 18.3397 15.5266C18.319 15.5222 18.3082 15.5266 18.2951 15.5417C18.282 15.5568 18.2744 15.5633 18.2581 15.5503C18.2418 15.5374 18.2124 15.5201 18.1961 15.5395C18.1798 15.559 18.1461 15.5417 18.1167 15.5654Z" fill="#9CB8C5"/>
<path d="M18.4985 15.5762C18.5138 15.5632 18.5474 15.5114 18.5627 15.5092C18.591 15.5049 18.6236 15.5287 18.6388 15.533C18.6541 15.5373 18.6704 15.5308 18.6595 15.5071C18.6486 15.4833 18.6584 15.4423 18.7031 15.4531C18.7476 15.4639 18.7704 15.479 18.814 15.4704C18.8575 15.4617 18.8771 15.5265 18.9597 15.4617C18.9532 15.5265 18.9684 15.5308 18.9837 15.5179C18.9989 15.5049 19.0163 15.5092 19.0424 15.5481C19.0686 15.587 19.2274 15.5913 19.2644 15.5784C19.3013 15.5654 19.3209 15.6043 19.2926 15.6216C19.2644 15.6389 19.2578 15.6648 19.2644 15.6821C19.2708 15.6992 19.2774 15.7208 19.2426 15.7121C19.2078 15.7035 19.2013 15.7251 19.1838 15.751C19.1664 15.7769 19.1621 15.7856 19.1142 15.7683C19.0664 15.751 19.0577 15.764 19.0316 15.7726C19.0054 15.7813 18.9989 15.7813 18.9728 15.764C18.9467 15.7467 18.8902 15.7294 18.8553 15.751C18.8205 15.7726 18.7944 15.7942 18.7639 15.7769C18.7334 15.7597 18.7313 15.7683 18.7509 15.7294C18.7704 15.6905 18.7748 15.6949 18.8118 15.6862C18.8488 15.6777 18.8771 15.6561 18.851 15.6259C18.8249 15.5956 18.8162 15.6 18.7813 15.6345C18.7465 15.6691 18.7291 15.6905 18.69 15.6475C18.6508 15.6043 18.6312 15.6129 18.6051 15.6259C18.579 15.6389 18.5355 15.6086 18.4985 15.5762Z" fill="#9CB8C5"/>
<path d="M18.6289 15.7057C18.579 15.7198 18.5656 15.6561 18.5136 15.6691C18.4962 15.6734 18.4668 15.7165 18.507 15.71C18.5472 15.7035 18.5908 15.7467 18.6299 15.7402C18.6691 15.7338 18.6517 15.6992 18.6289 15.7057Z" fill="#9CB8C5"/>
<path d="M18.5712 15.7813C18.5975 15.7623 18.6518 15.7985 18.6746 15.7899C18.6975 15.7813 18.7193 15.8093 18.6953 15.8245C18.6714 15.8396 18.6137 15.7964 18.5876 15.8115C18.5615 15.8266 18.5354 15.8072 18.5712 15.7813Z" fill="#9CB8C5"/>
<path d="M18.0513 16.0598C18.0872 16.0622 18.2166 16.0512 18.2678 15.8353C18.2717 15.8187 18.2754 15.8116 18.2917 15.8332C18.308 15.8548 18.3679 15.9261 18.4799 15.9455C18.5113 15.951 18.5452 15.9822 18.4821 15.9736C18.419 15.9649 18.3189 15.9304 18.2852 15.8893C18.2286 16.0663 18.127 16.0872 18.0513 16.0836C18.0056 16.0814 18.0165 16.0577 18.0513 16.0598Z" fill="#9CB8C5"/>
<path d="M18.331 15.7662C18.3136 15.8137 18.2538 15.8958 18.2266 15.9001C18.1994 15.9044 18.1178 15.8893 18.0971 15.8742C18.0765 15.8591 18.0514 15.8634 18.0808 15.9044C18.1102 15.9455 18.1831 15.9736 18.2124 15.9606C18.2418 15.9476 18.2755 15.9282 18.2984 15.9563C18.3212 15.9844 18.3637 16.0382 18.3886 16.0274C18.4137 16.0168 18.4648 16.0168 18.4811 16.0317C18.4975 16.0468 18.5258 16.0922 18.4833 16.0663C18.4409 16.0404 18.4061 16.062 18.3865 16.0447C18.4082 16.1052 18.4576 16.2024 18.4996 16.2024C18.5094 16.2024 18.516 16.2369 18.4953 16.2564C18.516 16.2758 18.5638 16.291 18.5888 16.2456C18.5823 16.2629 18.5855 16.2737 18.5964 16.2845C18.6073 16.2953 18.6204 16.3104 18.6008 16.3147C18.5812 16.319 18.5367 16.3298 18.5236 16.319C18.566 16.3729 18.6759 16.4593 18.7879 16.4161C18.8092 16.4079 18.8205 16.3903 18.7857 16.3923C18.7139 16.3966 18.7096 16.3945 18.6966 16.3795C18.6835 16.3642 18.6857 16.3514 18.7063 16.3385C18.7269 16.3255 18.7792 16.3104 18.8009 16.3104C18.8227 16.3104 18.8445 16.2931 18.7999 16.2931C18.7552 16.2931 18.7009 16.2931 18.6791 16.278C18.6574 16.2629 18.641 16.2434 18.6639 16.2132C18.6868 16.1829 18.7107 16.1916 18.7216 16.1635C18.6498 16.1613 18.5616 16.0857 18.6106 16.0168C18.622 16.0006 18.6182 15.9995 18.5997 15.9952C18.5812 15.9908 18.5269 15.9606 18.504 15.9347C18.4811 15.9088 18.4964 15.8871 18.5149 15.8807C18.4724 15.8958 18.3875 15.8504 18.331 15.7662Z" fill="#9CB8C5"/>
<path d="M18.9693 15.7618C18.9301 15.8202 18.8562 15.8439 18.8247 15.8439C18.7931 15.8439 18.7887 15.8655 18.8138 15.872C18.8388 15.8785 18.866 15.885 18.8769 15.8785C18.8878 15.872 18.8943 15.8699 18.9106 15.885C18.9269 15.9001 18.9617 15.9087 18.9922 15.8893C19.0226 15.8699 19.0726 15.8612 19.0933 15.8634C19.114 15.8655 19.1368 15.8677 19.0955 15.8439C19.0542 15.8202 18.9867 15.8375 18.9704 15.8461C18.9541 15.8547 18.9095 15.8482 18.9334 15.8331C18.9573 15.818 18.978 15.7942 18.99 15.7748C18.9813 15.7705 18.9758 15.7662 18.9693 15.7618Z" fill="#9CB8C5"/>
<path d="M18.9489 15.9304C18.9151 15.98 18.8662 16.0274 18.8162 16.0317C18.8619 16.0641 18.9 16.157 18.9293 16.1527C18.9151 16.17 18.8978 16.1959 18.8793 16.2002C18.9076 16.2153 18.9554 16.1981 18.9946 16.1549C19.0599 16.1916 19.1447 16.1678 19.173 16.1203C19.1305 16.1203 19.0795 16.0901 19.0566 16.0512C19.0773 16.0512 19.0968 16.0252 19.1066 16.0016C19.0577 16.0188 18.9739 15.9714 18.9489 15.9304Z" fill="#9CB8C5"/>
<path d="M18.8792 16.2002C18.8977 16.1959 18.9151 16.17 18.9292 16.1527C18.8934 16.1765 18.7367 16.1268 18.6899 16.0447C18.6431 15.9628 18.6431 16.0253 18.6758 16.0836C18.7084 16.1419 18.766 16.2305 18.8792 16.2002Z" fill="#9CB8C5"/>
<path d="M18.9946 16.3988C18.975 16.4204 18.8815 16.4334 18.851 16.4204C18.8205 16.4074 18.8075 16.4139 18.8151 16.4377C18.8227 16.4615 18.826 16.4831 18.8009 16.4766C18.7759 16.4701 18.7313 16.4809 18.7129 16.4939C18.6944 16.5068 18.6715 16.5392 18.7107 16.5263C18.7498 16.5133 18.7857 16.4982 18.8151 16.5133C18.8445 16.5284 18.9489 16.5327 18.9696 16.5155C18.9902 16.4982 18.9761 16.4982 18.9663 16.4982C18.9565 16.4982 18.9521 16.4852 18.9663 16.4723C18.9804 16.4593 18.9913 16.4226 18.9946 16.3988Z" fill="#9CB8C5"/>
<path d="M18.0894 16.1484C18.0502 16.1829 17.9197 16.2521 17.8849 16.2564C17.8413 16.2953 17.8066 16.3169 17.7848 16.3169C17.8001 16.3428 17.8588 16.3685 17.8827 16.3558C17.8696 16.3815 17.8392 16.4118 17.8284 16.4247C17.8631 16.4161 17.9045 16.4334 17.9219 16.4377C17.8762 16.4895 17.8131 16.5068 17.7805 16.4982C17.7914 16.5284 17.8066 16.5586 17.8262 16.5586C17.7848 16.5803 17.7348 16.5803 17.7086 16.563C17.7195 16.6062 17.7304 16.6321 17.7456 16.6364C17.7108 16.6451 17.6673 16.658 17.6304 16.6148C17.6586 16.6883 17.7217 16.714 17.8153 16.6926C17.9088 16.671 17.9872 16.5889 18.0089 16.5543C17.9698 16.563 17.9175 16.5673 17.8914 16.5586C17.9436 16.5327 18.0567 16.4377 18.0763 16.3988C18.0546 16.3988 18.0329 16.3858 18.0176 16.3642C18.048 16.3729 18.1547 16.3471 18.1873 16.3212C18.1482 16.3039 18.1242 16.2564 18.1133 16.2261C18.2504 16.3125 18.4029 16.2843 18.4767 16.2477C18.4941 16.2391 18.4962 16.1952 18.4614 16.2002C18.4005 16.2089 18.283 16.1743 18.2526 16.144C18.2809 16.1872 18.3157 16.2132 18.3396 16.2218C18.283 16.2521 18.2048 16.2737 18.0894 16.1484Z" fill="#9CB8C5"/>
<path d="M17.8284 16.4247C17.8393 16.4117 17.8697 16.3815 17.8827 16.3557C17.8588 16.3685 17.8001 16.3428 17.7849 16.3168C17.8066 16.3168 17.8414 16.2952 17.8849 16.2564C17.8066 16.252 17.7522 16.252 17.7239 16.2218C17.6956 16.1915 17.6435 16.2002 17.6239 16.2088C17.6043 16.2175 17.6108 16.2823 17.6934 16.265C17.6586 16.3125 17.5651 16.3298 17.5303 16.3125C17.539 16.3685 17.5455 16.4247 17.5368 16.4549C17.5825 16.5068 17.7021 16.5716 17.7609 16.5629C17.7087 16.5241 17.6804 16.4809 17.7239 16.4722C17.7674 16.4636 17.7914 16.4463 17.8284 16.4247Z" fill="#9CB8C5"/>
<path d="M17.6935 16.7055C17.7977 16.6883 17.9371 16.6846 18.0481 16.4982C18.0764 16.4506 18.0954 16.4666 18.0677 16.5154C18.009 16.6191 17.8632 16.7615 17.724 16.7659C17.6673 16.7677 17.6414 16.714 17.6935 16.7055Z" fill="#9CB8C5"/>
<path d="M18.4733 16.3642C18.4472 16.3836 18.3743 16.4074 18.3526 16.4009C18.3308 16.3944 18.2993 16.3923 18.2819 16.4139C18.2645 16.4355 18.2634 16.4484 18.2873 16.4528C18.3113 16.4571 18.3417 16.4614 18.357 16.4592C18.3374 16.4809 18.3243 16.5111 18.32 16.5241C18.3548 16.5068 18.4189 16.537 18.4374 16.5586C18.4233 16.5673 18.4069 16.5565 18.395 16.5435C18.4537 16.6666 18.6278 16.6666 18.6561 16.645C18.643 16.6645 18.6311 16.6839 18.618 16.6904C18.667 16.7077 18.7235 16.7055 18.779 16.6407C18.7605 16.6472 18.7051 16.6364 18.6909 16.6342C18.7018 16.6126 18.718 16.5932 18.7333 16.5845C18.7116 16.5759 18.643 16.5802 18.6267 16.5975C18.6332 16.5716 18.6452 16.5392 18.6583 16.5284C18.5723 16.5284 18.4679 16.5262 18.4298 16.4852C18.4907 16.4981 18.5582 16.4268 18.5864 16.4268C18.5386 16.4247 18.4864 16.4031 18.4733 16.3642Z" fill="#9CB8C5"/>
<path d="M18.2547 16.4593C18.2123 16.4766 18.1482 16.5111 18.1308 16.5306C18.1133 16.55 18.0948 16.5608 18.1329 16.5608C18.171 16.5608 18.2743 16.5695 18.2972 16.5759C18.2395 16.5587 18.1612 16.5543 18.146 16.5543C18.1308 16.5543 18.1133 16.5522 18.1416 16.5349C18.1699 16.5176 18.2069 16.4787 18.2547 16.4593Z" fill="#9CB8C5"/>
<path d="M18.1689 16.6602C18.1841 16.6602 18.2505 16.6602 18.2766 16.6148C18.3038 16.6559 18.3561 16.714 18.3897 16.714C18.4234 16.714 18.4202 16.7313 18.3908 16.7378C18.3615 16.7443 18.3038 16.7099 18.2744 16.6667C18.2352 16.6947 18.2027 16.671 18.1689 16.6602Z" fill="#9CB8C5"/>
<path d="M17.6653 17.241C17.7327 17.2928 17.8219 17.3317 17.8871 17.2885C17.9241 17.3533 18.0003 17.3576 18.0416 17.3403C18.0829 17.3231 18.12 17.3144 18.1657 17.3447C18.2113 17.3749 18.3049 17.3771 18.331 17.4201C18.3071 17.4224 18.2559 17.4201 18.2439 17.4267C18.232 17.4331 18.2385 17.4482 18.2603 17.4719C18.1863 17.4633 18.059 17.526 18.0199 17.5929C18.034 17.526 18.0775 17.4352 18.1461 17.4352C18.1069 17.4073 17.9818 17.4051 17.9416 17.4547C17.9296 17.4287 17.9154 17.3857 17.9143 17.3684C17.848 17.4439 17.7174 17.336 17.6653 17.241Z" fill="#9CB8C5"/>
<path d="M17.4922 16.9992C17.5725 16.9764 17.6272 16.9258 17.6511 16.8782C17.6653 16.9042 17.724 16.9301 17.7882 16.8912C17.7751 16.9106 17.774 16.9474 17.7795 16.9668C17.737 16.969 17.6565 17.01 17.6294 17.0381C17.6022 17.066 17.5227 17.0855 17.4967 17.0574C17.4706 17.0295 17.4695 17.0057 17.4922 16.9992Z" fill="#9CB8C5"/>
<path d="M17.7795 16.9668C17.7371 16.969 17.6565 17.01 17.6294 17.0381C17.6348 17.0597 17.6381 17.0941 17.6392 17.1179C17.7175 17.0617 17.897 17.0273 17.9655 17.0489C17.9329 17.0532 17.8708 17.12 17.8361 17.1287C17.9209 17.1157 18.0036 17.1503 18.0253 17.1611C18.0471 17.1719 18.0514 17.2043 18.0351 17.2345C18.0188 17.2648 18.0112 17.2691 18.046 17.2712C18.0808 17.2734 18.1526 17.2648 18.1853 17.2021C18.1722 17.174 18.1385 17.1848 18.1287 17.1654C18.1515 17.1503 18.1777 17.1179 18.1875 17.0941C18.1287 17.0919 18.1069 17.0898 18.0873 17.0811C18.0677 17.0727 18.0536 17.0617 18.0775 17.0359C18.1015 17.01 18.1124 16.9884 18.12 16.9711C18.0775 16.9949 18.0112 17.0143 17.9557 16.9279C17.9764 16.9387 18.0253 16.9322 18.0427 16.9171C18.0242 16.8977 18.0091 16.8825 17.9938 16.8825C18.0384 16.8393 18.1265 16.8005 18.2353 16.8869C18.2897 16.8782 18.3484 16.8825 18.3897 16.9042C18.4071 16.8696 18.4441 16.7875 18.4637 16.7659C18.3354 16.7875 18.1047 16.74 18.1091 16.6062C18.0677 16.714 17.9721 16.7745 17.9307 16.7573C17.9263 16.7961 17.9438 16.8437 17.959 16.8696C17.9155 16.8869 17.8415 16.8998 17.8067 16.8869C17.8263 16.9258 17.8632 16.9603 17.885 16.956C17.8394 16.956 17.8154 16.9733 17.7795 16.9668Z" fill="#9CB8C5"/>
<path d="M18.0459 17.2712C18.0807 17.2733 18.1526 17.2647 18.1852 17.2021C18.1721 17.174 18.1384 17.1848 18.1286 17.1653C18.1515 17.1502 18.1776 17.1178 18.1874 17.094C18.2787 17.0791 18.3603 17.0877 18.3994 17.064C18.4386 17.0402 18.5387 17.0532 18.5583 17.0424C18.4713 17.0703 18.4539 17.0854 18.4495 17.1135C18.4451 17.1416 18.4778 17.1653 18.4985 17.1653C18.4593 17.161 18.4103 17.2431 18.406 17.2755C18.3538 17.215 18.3288 17.2863 18.3233 17.3101C18.3016 17.2928 18.2297 17.2971 18.1927 17.3598C18.1449 17.3317 18.1134 17.3165 18.0655 17.3317C18.0949 17.3187 18.0894 17.2798 18.0459 17.2712Z" fill="#9CB8C5"/>
<path d="M18.4637 16.7659C18.493 16.7637 18.5572 16.7702 18.58 16.7637C18.5648 16.7789 18.5453 16.8069 18.5409 16.8199C18.6148 16.8026 18.716 16.7918 18.7454 16.8005C18.7095 16.7897 18.6725 16.835 18.654 16.8588C18.6355 16.8825 18.6464 16.8977 18.6714 16.9042C18.6965 16.9106 18.7302 16.9495 18.6845 16.9366C18.6388 16.9236 18.5485 16.9236 18.5268 16.9301C18.505 16.9366 18.493 16.915 18.5246 16.9063C18.5562 16.8977 18.5778 16.8761 18.5931 16.8588C18.567 16.8717 18.517 16.8717 18.5017 16.8631C18.4865 16.8545 18.4767 16.8372 18.4941 16.8285C18.5115 16.8199 18.4996 16.8069 18.4811 16.8113C18.4626 16.8156 18.4158 16.8545 18.3896 16.9042C18.4179 16.8458 18.443 16.794 18.4637 16.7659Z" fill="#9CB8C5"/>
<path d="M18.1318 16.8631C18.1677 16.9431 18.2101 16.9884 18.2776 16.9927C18.2917 16.9936 18.3181 17.0313 18.2841 17.0338C18.1927 17.0403 18.1471 16.9971 18.1068 16.8804C18.0985 16.8565 18.1138 16.8231 18.1318 16.8631Z" fill="#9CB8C5"/>
<path d="M18.6768 15.3537C18.7248 15.3987 18.8214 15.4379 18.8965 15.4315C18.9096 15.4303 18.9359 15.4581 18.903 15.4639C18.8182 15.479 18.742 15.4554 18.6713 15.3775C18.6517 15.3559 18.6583 15.3364 18.6768 15.3537Z" fill="#9CB8C5"/>
<path d="M18.7259 15.3516C18.7998 15.3473 18.8553 15.3494 18.8782 15.3926C18.9206 15.3667 18.9967 15.3516 19.0142 15.3581C19.0316 15.3645 19.0512 15.3494 19.0109 15.33C18.9706 15.3107 18.8771 15.3042 18.8477 15.315C18.8183 15.3257 18.7269 15.3321 18.6965 15.3257C18.7096 15.33 18.7182 15.3343 18.7259 15.3516Z" fill="#9CB8C5"/>
<path d="M19.0129 15.4099C19.0478 15.3732 19.1478 15.4078 19.1783 15.3818C19.1565 15.4337 19.2479 15.438 19.3273 15.397C19.2968 15.4358 19.2316 15.4423 19.2033 15.4661C19.175 15.4898 19.1598 15.4726 19.138 15.4531C19.1162 15.4337 19.0608 15.3948 19.0129 15.4099Z" fill="#9CB8C5"/>
<path d="M19.3273 15.397C19.2479 15.438 19.1565 15.4337 19.1783 15.3818C19.1478 15.4078 19.0478 15.3732 19.0129 15.4099C19.0489 15.3667 19.0761 15.4013 19.1021 15.3127C19.1184 15.3193 19.1565 15.3237 19.1696 15.2891C19.1924 15.2999 19.2327 15.3193 19.2447 15.3429C19.2566 15.3667 19.2751 15.3365 19.2598 15.2999C19.2957 15.274 19.273 15.3307 19.3567 15.2891C19.3741 15.2805 19.4165 15.2653 19.4307 15.2632C19.4024 15.3085 19.3687 15.3581 19.3273 15.397Z" fill="#9CB8C5"/>
<path d="M19.2914 15.8807C19.2643 15.9174 19.2283 15.9822 19.2522 16.0728C19.255 16.0698 19.2577 16.0663 19.2605 16.0631C19.3669 15.8075 19.458 15.5388 19.536 15.2597C19.5369 15.25 19.5378 15.2409 19.5383 15.2329C19.5079 15.2848 19.46 15.3364 19.4404 15.3494C19.4535 15.4185 19.3926 15.5093 19.3599 15.5352C19.373 15.5784 19.3686 15.6432 19.3404 15.6562C19.3469 15.6949 19.3251 15.6949 19.299 15.7165C19.2729 15.7381 19.2598 15.7554 19.2512 15.7813C19.2653 15.7662 19.2848 15.7532 19.2957 15.7597C19.3066 15.7662 19.3088 15.7986 19.2892 15.8072C19.2696 15.8159 19.2566 15.8375 19.25 15.8547C19.2783 15.8331 19.3186 15.8439 19.2914 15.8807Z" fill="#9CB8C5"/>
<path d="M16.7589 16.1284C16.7859 16.111 16.8376 16.1151 16.8579 16.1224C16.8818 16.1311 16.8862 16.1354 16.8949 16.0835C16.9036 16.0317 16.9232 16.0446 16.9384 16.0706C16.9537 16.0965 16.9928 16.0835 17.008 16.0403C17.0232 15.9973 17.0276 16.0016 17.0428 16.0317C17.0581 16.0619 17.0646 16.0533 17.0798 16.0446C17.0951 16.0362 17.1212 16.0016 17.1343 15.9541C17.1473 15.9066 17.1668 15.8893 17.1777 15.9152C17.1886 15.9411 17.1995 15.9541 17.2147 15.9498C17.2299 15.9454 17.2343 15.9757 17.2321 16.0144C17.2299 16.0533 17.2387 16.0619 17.2757 16.0016C17.3083 16.0663 17.3191 16.0403 17.3191 15.9714C17.3191 15.9022 17.3105 15.6475 17.2974 15.6129C17.2844 15.5784 17.2713 15.479 17.2691 15.4012C17.265 15.2545 17.2648 15.2458 17.1755 15.1551C17.1755 15.1033 17.169 15.0817 17.106 15.0903C17.1081 15.073 17.0973 15.0212 17.0842 14.9996C17.0711 14.978 17.069 14.9693 17.0755 14.909C17.1016 14.9133 17.1299 14.9047 17.1451 14.8615C17.1603 14.8183 17.2104 14.8269 17.2408 14.8528C17.2713 14.8788 17.3105 14.8831 17.3692 14.8658C17.3909 14.8312 17.4279 14.7924 17.4671 14.7491C17.5062 14.7059 17.5171 14.6887 17.5193 14.6282C17.5249 14.4731 17.4975 14.2957 17.4757 14.2137C17.4541 14.1316 17.4475 14.028 17.4171 13.8983C17.3839 13.7573 17.3844 13.7214 17.3474 13.6349C17.3373 13.6112 17.3256 13.5917 17.3235 13.5444C17.3213 13.4969 17.3126 13.432 17.2865 13.3845C17.2207 13.2647 17.1951 12.8792 17.169 12.5942C17.154 12.4308 17.1646 12.0458 17.1299 11.9853C17.0711 11.8903 17.0428 11.9076 17.0037 11.8773C16.9754 11.7995 16.9624 11.6442 16.9363 11.5059C16.8949 11.5189 16.8666 11.6053 16.8383 11.6355C16.81 11.6658 16.8057 11.6658 16.8057 11.7435C16.8057 11.8212 16.7839 11.9292 16.7448 12.0501C16.7056 12.1709 16.6403 12.1366 16.586 12.3178C16.4663 12.0285 16.4641 11.9464 16.4554 11.8644C16.4467 11.7824 16.4271 11.7652 16.3597 11.6485C16.3597 11.6139 16.351 11.4758 16.3575 11.3981C16.3075 11.316 16.2705 11.3289 16.2466 11.3894C16.2227 11.4499 16.2052 11.5405 16.1682 11.575C16.1461 11.631 16.0792 11.7723 16.0244 11.9405C16.0742 13.4433 16.2451 14.9353 16.7589 16.1284Z" fill="#9B7463"/>
<path d="M16.114 11.9636C16.1358 12.0328 16.175 12.1516 16.1793 12.2162C16.1946 12.1536 16.2065 12.1257 16.2098 12.0868C16.2131 12.0479 16.2359 11.9723 16.2272 11.9312C16.2185 11.8902 16.212 11.8578 16.2359 11.888C16.2598 11.9183 16.2552 11.9706 16.25 12.0479C16.2359 12.2594 16.1913 12.3026 16.1848 12.4452C16.249 12.7453 16.2011 12.8533 16.2706 13.147C16.2815 13.1599 16.3106 13.1368 16.3193 13.1412C16.3562 13.0893 16.3838 13.1081 16.436 13.1297C16.4882 13.1513 16.5165 13.2246 16.5165 13.2894C16.5165 13.3542 16.5165 13.3715 16.5274 13.4104C16.5383 13.4492 16.5601 13.5097 16.5557 13.5529C16.5514 13.596 16.5601 13.6219 16.5666 13.6435C16.5731 13.6651 16.5644 13.7126 16.5579 13.7429C16.5514 13.7731 16.5535 13.812 16.5797 13.8768C16.6058 13.9415 16.6666 14.2136 16.6666 14.3733C16.6666 14.5332 16.671 14.6066 16.7036 14.6367C16.7363 14.667 16.7472 14.6929 16.7428 14.762C16.7385 14.8312 16.7581 15.1896 16.7624 15.2458C16.7668 15.3019 16.7776 15.289 16.7907 15.3192C16.8037 15.3493 16.8124 15.3838 16.8559 15.3838C16.8995 15.3838 16.9415 15.3724 16.9698 15.381C17.009 15.489 17.0329 15.6358 17.0416 15.7265C17.0503 15.8172 17.0496 15.941 17.0648 15.941C17.08 15.941 17.0953 15.9454 17.0909 15.833C17.0866 15.7207 17.0822 15.7034 17.0626 15.6474C17.043 15.5912 17.0321 15.5653 17.043 15.5307C17.0539 15.4962 17.0561 15.44 17.0517 15.3968C17.0474 15.3536 17.0409 15.289 17.0779 15.3752C17.1149 15.4616 17.1257 15.4832 17.1366 15.5135C17.1475 15.5437 17.1518 15.5999 17.1497 15.6517C17.1475 15.7034 17.1518 15.725 17.167 15.6991C17.1822 15.6733 17.2018 15.7164 17.1931 15.7725C17.1844 15.8287 17.1953 15.8633 17.2214 15.8805C17.2475 15.8978 17.2584 15.9108 17.265 15.9497C17.2715 15.9886 17.2933 16.0057 17.2933 15.9281C17.2933 15.8503 17.278 15.6861 17.2671 15.6344C17.2563 15.5826 17.2475 15.4703 17.2454 15.4055C17.2432 15.3406 17.2367 15.3235 17.2214 15.3106C17.2062 15.2976 17.1931 15.276 17.191 15.2458C17.1888 15.2155 17.1757 15.2047 17.1659 15.2047C17.1561 15.2047 17.1475 15.1896 17.1421 15.168C17.1366 15.1464 17.1312 15.1442 17.1203 15.1421C17.1094 15.1399 17.092 15.1529 17.0866 15.1183C17.0811 15.0837 17.0735 15.034 17.0626 15.006C17.0517 14.9779 17.0419 14.9692 17.0409 14.8722C17.0398 14.775 17.0387 14.762 17.0234 14.7275C17.0082 14.6929 16.9821 14.6023 16.9712 14.5634C16.9604 14.5246 16.9495 14.4857 16.9495 14.5678C16.9495 14.6497 16.9495 14.6929 16.9756 14.7231C17.0017 14.7534 17.0082 14.7534 16.9973 14.7966C16.9864 14.8398 16.9973 14.87 17.0017 14.9003C17.006 14.9305 17.0147 14.9608 17.0017 14.9908C16.9886 15.0211 16.9756 15.0124 16.9777 14.9651C16.9799 14.9176 16.9712 14.8614 16.9604 14.8225C16.9495 14.7836 16.9408 14.7577 16.9277 14.7793C16.9147 14.8009 16.9038 14.775 16.9125 14.7577C16.9212 14.7404 16.919 14.7275 16.9125 14.7145C16.906 14.7015 16.9038 14.6886 16.9147 14.6627C16.9256 14.6367 16.9256 14.6238 16.919 14.5634C16.9125 14.503 16.8646 14.2007 16.8429 14.1316C16.8211 14.0624 16.8233 14.0106 16.8516 14.0797C16.8799 14.1488 16.9038 14.2093 16.906 14.2653C16.9082 14.3215 16.9147 14.3561 16.9234 14.3777C16.9321 14.3993 16.9386 14.3906 16.943 14.3431C16.9473 14.2956 16.9648 14.3129 16.9343 14.2223C16.9038 14.1316 16.8472 13.9803 16.8254 13.7083C16.8037 13.4363 16.795 13.2548 16.7732 13.1815C16.7515 13.1081 16.745 13.0908 16.7428 13.0217C16.7406 12.9525 16.7428 12.8834 16.7276 12.8317C16.7123 12.7799 16.7015 12.7712 16.6993 12.849C16.6971 12.9266 16.7015 13.0994 16.7123 13.1297C16.7232 13.1599 16.7167 13.2375 16.7145 13.2807C16.7123 13.3239 16.6781 13.3667 16.7493 13.4536C16.7776 13.4881 16.7732 13.5357 16.7689 13.5659C16.7646 13.596 16.7602 13.5917 16.745 13.5443C16.7298 13.4968 16.7145 13.4579 16.6993 13.432C16.684 13.406 16.6819 13.3888 16.684 13.3283C16.6862 13.2678 16.6928 13.2246 16.684 13.2031C16.6753 13.1815 16.671 13.1988 16.6666 13.2332C16.6623 13.2678 16.6579 13.3628 16.6492 13.3888C16.6405 13.4147 16.6362 13.3974 16.6296 13.3412C16.6231 13.2851 16.6318 13.1988 16.647 13.0994C16.6623 13.0001 16.671 12.8964 16.6579 12.7669C16.6449 12.6373 16.6514 12.5984 16.6013 12.4906C16.5514 12.3826 16.4948 12.2789 16.4708 12.1451C16.4469 12.0112 16.4425 11.8945 16.4164 11.834C16.3904 11.7737 16.3534 11.6959 16.3294 11.6743C16.3294 11.5706 16.3294 11.5231 16.3294 11.4757C16.3294 11.4282 16.3185 11.398 16.2902 11.4066C16.2619 11.4153 16.2445 11.4628 16.2272 11.5274C16.2098 11.5922 16.1967 11.562 16.1728 11.6743C16.1488 11.7867 16.114 11.8427 16.114 11.9636Z" fill="#B38C79"/>
<path d="M16.2706 13.2289C16.288 13.2505 16.3046 13.265 16.3308 13.2391C16.3569 13.2131 16.3881 13.1384 16.4229 13.2118C16.4577 13.2851 16.4773 13.4061 16.4773 13.5011C16.4773 13.596 16.4773 13.7731 16.5317 13.8725C16.5861 13.9717 16.6143 14.0754 16.6165 14.205C16.6187 14.3345 16.6426 14.5332 16.6491 14.5851C16.6557 14.6368 16.6709 14.6972 16.6883 14.7318C16.7057 14.7664 16.7188 14.8657 16.721 14.9693C16.7231 15.073 16.7144 15.1464 16.721 15.1983C16.7275 15.2501 16.721 15.2933 16.7014 15.2674C16.6818 15.2415 16.6774 15.2285 16.6665 15.1853C16.6557 15.1421 16.6426 15.1507 16.6535 15.2155C16.6644 15.2803 16.697 15.3407 16.7253 15.3407C16.7536 15.3407 16.7623 15.3493 16.7797 15.3839C16.7971 15.4184 16.7992 15.4357 16.8297 15.4357C16.8602 15.4357 16.8645 15.4357 16.8928 15.453C16.9211 15.4703 16.9211 15.4616 16.9364 15.453C16.9516 15.4444 16.9668 15.4703 16.9776 15.5265C16.9885 15.5826 17.0146 15.738 17.0146 15.7812C17.0146 15.8244 17.0146 15.8676 17.0299 15.9108C17.0451 15.954 17.0408 15.9972 17.0233 15.9713C17.0059 15.9454 17.0059 15.954 16.9929 15.9583C16.9798 15.9627 16.9711 15.9497 16.9538 15.9281C16.9364 15.9065 16.9472 15.9108 16.9298 15.859C16.9124 15.8071 16.9015 15.7898 16.9015 15.8287C16.9015 15.8676 16.8994 15.9151 16.8863 15.8935C16.8732 15.8719 16.8667 15.8719 16.8558 15.8935C16.8449 15.9151 16.8406 15.9324 16.8275 15.8892C16.8145 15.846 16.7992 15.846 16.7862 15.8374C16.7731 15.8287 16.7731 15.8287 16.7667 15.7898C16.7601 15.751 16.7405 15.7423 16.7231 15.7423C16.7057 15.7423 16.697 15.725 16.6948 15.6991C16.6927 15.6734 16.6818 15.6561 16.6731 15.6431C16.6644 15.6301 16.6687 15.5999 16.6665 15.5697C16.6644 15.5394 16.6513 15.5524 16.6426 15.5437C16.6339 15.5351 16.6274 15.5394 16.6274 15.4962C16.6274 15.453 16.6187 15.44 16.6121 15.4098C16.6057 15.3796 16.6121 15.3493 16.6165 15.3149C16.6208 15.2803 16.6187 15.2587 16.6057 15.2285C16.5926 15.1983 16.6035 15.168 16.5687 15.1075C16.5339 15.047 16.5164 15.0989 16.5056 14.9565C16.4947 14.8139 16.4729 14.5203 16.4533 14.4727C16.4337 14.4252 16.4207 14.3907 16.4012 14.3777C16.3816 14.3647 16.3685 14.3734 16.3663 14.2913C16.3642 14.2094 16.3511 14.1057 16.325 14.0538C16.2989 14.002 16.288 13.9847 16.2749 13.9631C16.2619 13.9415 16.2575 13.9026 16.2749 13.8293C16.2923 13.7559 16.2858 13.6565 16.2836 13.609C16.2814 13.5616 16.2749 13.5011 16.2793 13.4493C16.2836 13.3974 16.2814 13.3326 16.2749 13.2981C16.2684 13.2635 16.2597 13.2548 16.2706 13.2289Z" fill="#B38C79"/>
<path d="M16.7948 12.001C16.7653 12.0763 16.734 12.1393 16.6933 12.1968C16.6527 12.2544 16.6005 12.3005 16.6295 12.3984C16.6585 12.4962 16.6817 12.5079 16.6875 12.5826C16.6933 12.6574 16.7021 12.7209 16.731 12.7382C16.7601 12.7553 16.7716 12.7438 16.7716 12.8648C16.7716 12.9858 16.7716 13.0318 16.7977 13.0778C16.8239 13.1239 16.8209 13.1699 16.8326 13.2794C16.8441 13.3888 16.8441 13.6249 16.879 13.7861C16.9138 13.9473 16.9921 14.2525 16.9834 14.3158C16.9747 14.3792 16.9631 14.4252 16.9979 14.5C17.0327 14.5749 17.0559 14.6843 17.0589 14.7476C17.0617 14.811 17.0676 14.834 17.1023 14.811C17.1371 14.7879 17.1545 14.7648 17.1662 14.7361C17.1777 14.7073 17.2009 14.7132 17.2329 14.7476C17.2648 14.7821 17.3141 14.8167 17.3431 14.7821C17.3721 14.7476 17.3866 14.6959 17.4127 14.6959C17.4533 14.6382 17.4678 14.5172 17.4765 14.4828C17.4852 14.4483 17.4795 14.4483 17.462 14.4137C17.4446 14.3792 17.4533 14.3215 17.4504 14.264C17.4476 14.2063 17.4359 14.1201 17.4011 13.9933C17.3664 13.8667 17.346 13.7111 17.3228 13.6709C17.2996 13.6305 17.288 13.5327 17.2851 13.4866C17.2822 13.4406 17.2561 13.4002 17.2387 13.3657C17.2213 13.3313 17.2039 13.2794 17.1836 13.0778C17.1633 12.8763 17.1488 12.7324 17.1488 12.6978C17.1488 12.6632 17.1458 12.6574 17.1284 12.646C17.111 12.6345 17.1023 12.5768 17.1082 12.5481C17.1139 12.5193 17.1023 12.4906 17.0965 12.456C17.0908 12.4215 17.0965 12.3581 17.1082 12.3236C17.1197 12.289 17.1169 12.1911 17.1052 12.1105C17.0936 12.0299 17.082 11.9608 17.0356 11.9492C16.9892 11.9377 16.9805 11.9148 16.9631 11.8398C16.9457 11.7651 16.9283 11.6326 16.9225 11.6037C16.9167 11.575 16.908 11.5691 16.8732 11.6268C16.8383 11.6843 16.8268 11.7034 16.8268 11.8111C16.8268 11.8802 16.8326 11.9032 16.8441 11.9435C16.8558 11.9837 16.8587 11.9954 16.8674 12.1047C16.8761 12.2141 16.9254 12.3869 16.8615 12.4848C16.7977 12.5826 16.8065 12.6057 16.8094 12.6747C16.8122 12.7438 16.792 12.7899 16.7803 12.692C16.7688 12.5941 16.7803 12.5366 16.8152 12.4906C16.85 12.4444 16.8819 12.3869 16.8587 12.3236C16.8354 12.2603 16.8268 12.1105 16.8239 12.0414C16.8209 11.9723 16.8152 11.9492 16.7948 12.001Z" fill="#B38C79"/>
<path d="M16.2781 13.4692C16.2765 13.5161 16.2818 13.5676 16.2836 13.609C16.2858 13.6565 16.2923 13.7559 16.2749 13.8293C16.2575 13.9026 16.2619 13.9415 16.2749 13.9631C16.2757 13.9643 16.2763 13.9654 16.277 13.9666C16.3125 13.943 16.3171 13.8644 16.3076 13.8263C16.2974 13.7861 16.3004 13.7371 16.3119 13.6969C16.3236 13.6565 16.3236 13.6336 16.3134 13.6046C16.3032 13.5759 16.3032 13.5759 16.3148 13.4953C16.3251 13.4243 16.2993 13.4248 16.2781 13.4692ZM16.6491 14.5851C16.6426 14.5332 16.6187 14.3345 16.6165 14.205C16.6143 14.0754 16.5861 13.9717 16.5317 13.8725C16.4892 13.7949 16.4799 13.6703 16.4779 13.5741C16.446 13.5354 16.4326 13.553 16.4352 13.6249C16.4381 13.7025 16.4773 13.7401 16.4715 13.8522C16.4657 13.9646 16.4657 13.9358 16.4932 13.9905C16.5208 14.0452 16.5309 14.097 16.5164 14.1201C16.502 14.1431 16.5004 14.1834 16.5208 14.1977C16.5411 14.2122 16.5426 14.2554 16.5396 14.2956C16.5367 14.336 16.5556 14.3446 16.5672 14.3734C16.5788 14.4021 16.5802 14.4713 16.5687 14.5116C16.557 14.5518 16.5556 14.6152 16.5759 14.5808C16.5962 14.5462 16.6049 14.5778 16.6208 14.6324C16.6346 14.6796 16.6462 14.6648 16.6612 14.6506C16.656 14.6288 16.6518 14.6062 16.6491 14.5851ZM16.932 15.5913C16.919 15.6431 16.9037 15.6258 16.8907 15.5999C16.8776 15.574 16.8624 15.574 16.8689 15.5265C16.8754 15.4789 16.8732 15.4703 16.8558 15.4444C16.8538 15.4414 16.8518 15.4387 16.8498 15.4361C16.8444 15.4357 16.838 15.4357 16.8297 15.4357C16.7992 15.4357 16.7971 15.4184 16.7797 15.3839C16.7758 15.3762 16.7724 15.3699 16.769 15.3646C16.7687 15.3729 16.7688 15.3839 16.7688 15.3968C16.7688 15.4444 16.7688 15.4357 16.7449 15.4487C16.721 15.4617 16.7253 15.4012 16.721 15.3623C16.7198 15.3523 16.7184 15.345 16.7172 15.339C16.691 15.329 16.6634 15.2742 16.6535 15.2155C16.6426 15.1507 16.6557 15.1421 16.6665 15.1853C16.6774 15.2285 16.6818 15.2415 16.7014 15.2674C16.721 15.2933 16.7275 15.2501 16.721 15.1983C16.7189 15.1816 16.7184 15.1624 16.7186 15.1409C16.7139 15.1242 16.7076 15.1105 16.6992 15.1032C16.6644 15.073 16.6753 15.0643 16.6774 15.0082C16.6796 14.9522 16.6731 14.9522 16.6513 14.9822C16.6295 15.0125 16.6274 14.9779 16.6274 14.8917C16.6274 14.8053 16.5991 14.8053 16.5926 14.8657C16.5861 14.9262 16.5752 14.8874 16.5621 14.8009C16.5491 14.7145 16.5317 14.6929 16.5295 14.775C16.5277 14.8445 16.5179 14.8611 16.4952 14.8225C16.4992 14.8727 16.5027 14.9196 16.5056 14.9565C16.5164 15.0989 16.5339 15.047 16.5687 15.1075C16.6035 15.168 16.5926 15.1983 16.6057 15.2285C16.6187 15.2588 16.6208 15.2804 16.6165 15.3149C16.6121 15.3493 16.6057 15.3796 16.6121 15.4098C16.6187 15.44 16.6274 15.453 16.6274 15.4962C16.6274 15.5394 16.6339 15.5351 16.6426 15.5437C16.648 15.5491 16.6551 15.5461 16.6602 15.5504C16.6658 15.5358 16.6709 15.5178 16.6774 15.5049C16.7035 15.453 16.7427 15.5092 16.7558 15.574C16.7688 15.6388 16.784 15.6561 16.8036 15.6042C16.8232 15.5524 16.8166 15.561 16.8384 15.6086C16.8602 15.6561 16.8689 15.6474 16.8689 15.6474C16.8689 15.6474 16.8907 15.6302 16.9059 15.6561C16.9211 15.682 16.9298 15.6777 16.958 15.5956C16.9863 15.5135 16.9451 15.5394 16.932 15.5913Z" fill="#DABCB0"/>
<path d="M16.4795 12.1868C16.4579 12.1899 16.4432 12.2273 16.4555 12.3581C16.4632 12.439 16.4323 12.4214 16.4208 12.381C16.4091 12.3408 16.4004 12.2544 16.3772 12.1795C16.354 12.1047 16.3656 12.2313 16.3628 12.3005C16.3598 12.3696 16.383 12.3696 16.4034 12.4271C16.4236 12.4847 16.4062 12.5078 16.383 12.5078C16.3598 12.5078 16.3715 12.5999 16.3772 12.6632C16.383 12.7265 16.3715 12.7382 16.354 12.6863C16.3366 12.6345 16.3482 12.5539 16.3511 12.456C16.354 12.3581 16.3569 12.3811 16.325 12.3581C16.2931 12.335 16.2989 12.3236 16.3105 12.2659C16.3221 12.2084 16.3337 12.1795 16.3192 12.1507C16.3047 12.122 16.3076 12.1047 16.3308 12.0989C16.354 12.0932 16.3453 12.0587 16.3656 12.047C16.386 12.0356 16.3947 12.0529 16.3975 11.9781C16.3999 11.9156 16.4105 11.8772 16.4341 11.8962C16.4483 11.9924 16.4668 12.1421 16.4795 12.1868Z" fill="#DABCB0"/>
<path d="M17.0096 13.2218C17.0182 13.0951 17.0124 12.9685 17.0385 12.9223C17.0647 12.8763 17.0966 12.7842 17.0936 12.98C17.0908 13.1757 17.0878 13.1643 17.0676 13.2103C17.0472 13.2563 17.0298 13.2678 17.0502 13.3427C17.0704 13.4175 17.0734 13.4233 17.0704 13.5385C17.0676 13.6536 17.0676 13.6997 17.0908 13.7573C17.114 13.8148 17.1197 13.8206 17.1256 13.884C17.1314 13.9473 17.1516 14.0337 17.1778 14.0797C17.2039 14.1257 17.2329 14.2582 17.2358 14.3504C17.2387 14.4425 17.2793 14.4656 17.317 14.5289C17.3547 14.5922 17.3084 14.6382 17.2793 14.6095C17.2503 14.5807 17.2619 14.6095 17.2445 14.6497C17.2271 14.6901 17.2213 14.6959 17.2068 14.6268C17.1923 14.5576 17.1429 14.5116 17.1197 14.4943C17.0966 14.477 17.0763 14.4021 17.056 14.3273C17.0385 14.263 17.004 14.216 16.9726 14.2112C16.9813 14.2597 16.986 14.2977 16.9835 14.3158C16.9747 14.3792 16.9631 14.4252 16.9979 14.5C17.0328 14.5749 17.056 14.6843 17.0589 14.7476C17.0617 14.811 17.0676 14.834 17.1023 14.811C17.1372 14.788 17.1546 14.7649 17.1662 14.7361C17.1778 14.7074 17.2009 14.7132 17.2329 14.7476C17.2648 14.7821 17.3141 14.8167 17.3431 14.7821C17.3722 14.7476 17.3866 14.6959 17.4128 14.6959C17.4534 14.6382 17.4678 14.5173 17.4765 14.4829C17.4853 14.4483 17.4795 14.4483 17.4621 14.4137C17.4447 14.3792 17.4534 14.3215 17.4504 14.264C17.4476 14.2063 17.4359 14.1201 17.4011 13.9933C17.3664 13.8667 17.346 13.7111 17.3228 13.6709C17.2997 13.6305 17.288 13.5327 17.2851 13.4866C17.2822 13.4406 17.2561 13.4002 17.2387 13.3657C17.2213 13.3313 17.2039 13.2794 17.1836 13.0778C17.1677 12.9203 17.1554 12.7982 17.1508 12.7357C17.13 12.8017 17.1157 12.8178 17.1082 12.7726C17.0995 12.7209 17.0878 12.692 17.0763 12.7266C17.0647 12.7611 17.0617 12.6978 17.0617 12.6691C17.0617 12.6401 17.0589 12.6345 17.0443 12.6345C17.0298 12.6345 17.0415 12.5885 17.0356 12.5021C17.0298 12.4156 17.0211 12.4042 17.0153 12.5079C17.0096 12.6114 16.9805 12.6747 16.9922 12.6978C17.0037 12.7209 16.9979 12.7669 16.9863 12.8361C16.9747 12.905 16.9805 12.9454 16.9892 12.9914C16.9979 13.0375 16.9835 13.1239 16.9776 13.1988C16.9718 13.2736 17.0009 13.3484 17.0096 13.2218ZM16.7716 12.8648C16.7716 12.9858 16.7716 13.0318 16.7978 13.0778C16.8239 13.1239 16.821 13.1699 16.8326 13.2794C16.8441 13.3888 16.8441 13.6249 16.879 13.7861C16.8894 13.8341 16.9037 13.8951 16.9183 13.9586C16.9376 13.9285 16.9543 13.8768 16.9603 13.8494C16.9689 13.809 16.9428 13.7284 16.9225 13.6595C16.9022 13.5903 16.9254 13.5672 16.9457 13.4808C16.966 13.3946 16.9428 13.3888 16.911 13.3657C16.879 13.3427 16.879 13.2851 16.8616 13.193C16.8441 13.1009 16.8471 13.0606 16.8587 13.0087C16.8703 12.9569 16.8616 12.9167 16.8384 12.905C16.8152 12.8936 16.821 12.859 16.8297 12.8015C16.8384 12.7438 16.8441 12.7324 16.8094 12.7497C16.783 12.7626 16.7767 12.7724 16.7688 12.7914C16.7707 12.808 16.7716 12.8311 16.7716 12.8648Z" fill="#DABCB0"/>
<path d="M17.1052 13.1066C17.1021 13.1757 17.1023 13.2103 17.0936 13.2332C17.085 13.2563 17.0908 13.2909 17.0995 13.3254C17.1082 13.36 17.114 13.406 17.1052 13.4694C17.0965 13.5327 17.111 13.5845 17.1284 13.6018C17.1458 13.6191 17.1546 13.6018 17.1488 13.6824C17.1429 13.763 17.1662 13.8494 17.1865 13.884C17.2068 13.9185 17.2213 13.976 17.2183 14.0106C17.2155 14.0451 17.2329 14.0797 17.2532 14.097C17.2735 14.1143 17.2706 14.1201 17.2706 14.143C17.2706 14.1661 17.2793 14.1661 17.3025 14.1776C17.3257 14.1891 17.3431 14.218 17.3692 14.2813C17.3953 14.3446 17.433 14.3792 17.4272 14.31C17.4214 14.2409 17.4272 14.1949 17.3924 14.1603C17.3577 14.1257 17.3315 13.9587 17.317 13.8436C17.3025 13.7284 17.2561 13.573 17.23 13.5443C17.2271 13.4635 17.2329 13.4233 17.2068 13.3829C17.1807 13.3427 17.172 13.2909 17.172 13.2505C17.172 13.2103 17.1575 13.1584 17.1458 13.147C17.1343 13.1353 17.1284 13.1066 17.1284 13.072C17.1284 13.0375 17.1082 13.0433 17.1052 13.1066Z" fill="#B38C79"/>
<path d="M17.7826 14.6728C17.7812 14.3461 17.7653 11.6115 17.7653 10.9794C17.7653 10.8282 17.7261 10.8584 17.7261 10.9794C17.7261 11.0939 17.7261 14.3145 17.7261 14.6555C17.7441 14.662 17.7684 14.6685 17.7826 14.6728Z" fill="#F2D049" stroke="black" stroke-width="0.010426"/>
<path d="M18.3879 10.7805L18.4558 14.6791L18.444 14.7104L18.4045 14.7115L18.3616 10.7805H18.3879Z" fill="#F2D049" stroke="black" stroke-width="0.010426"/>
<path d="M18.9608 14.0726C18.9553 13.6756 18.9302 11.8378 18.9205 10.9318C18.9192 10.811 18.883 10.8321 18.8836 10.9362C18.8875 11.6658 18.9093 13.7066 18.9134 14.0747C18.9276 14.0747 18.9521 14.0719 18.9608 14.0726Z" fill="#F2D049" stroke="black" stroke-width="0.010426"/>
<path d="M18.0546 11.4285L17.4759 11.4113C17.4433 11.6444 17.5891 11.6401 17.6435 11.5796C17.7065 11.6746 17.7544 11.666 17.7892 11.5882C17.8393 11.6703 17.9023 11.6487 17.9285 11.5969C17.9981 11.7006 18.0699 11.5969 18.0546 11.4285Z" fill="#F2D049" stroke="black" stroke-width="0.010426"/>
<path d="M18.0981 12.0072L17.5063 12.0029C17.4041 12.1971 17.5368 12.2922 17.65 12.1582C17.6652 12.2231 17.7348 12.2619 17.7892 12.2101C17.8393 12.2879 17.9023 12.2317 17.935 12.1669C17.9959 12.223 18.0676 12.2403 18.0981 12.0072Z" fill="#F2D049" stroke="black" stroke-width="0.010426"/>
<path d="M18.0808 12.7413L17.5107 12.7327C17.4998 12.9356 17.6152 12.9096 17.6608 12.858C17.7044 12.9917 17.8001 12.9615 17.8371 12.8837C17.8915 12.9572 17.9415 12.9399 17.9698 12.8708C18.033 12.9788 18.0851 12.8407 18.0808 12.7413Z" fill="#F2D049" stroke="black" stroke-width="0.010426"/>
<path d="M18.1089 13.4755L17.4715 13.4539C17.4366 13.6697 17.5345 13.7086 17.5802 13.6568C17.5954 13.7821 17.6802 13.7388 17.702 13.6481C17.7347 13.7129 17.776 13.6784 17.7956 13.6352C17.8043 13.7518 17.8782 13.7561 17.9348 13.6568C18.0501 13.8166 18.1589 13.6308 18.1089 13.4755Z" fill="#F2D049" stroke="black" stroke-width="0.010426"/>
<path d="M18.6747 13.1733L18.1438 13.1646C18.1677 13.3805 18.2199 13.4366 18.3048 13.3113C18.3679 13.441 18.4723 13.3934 18.4984 13.3286C18.6137 13.5144 18.6768 13.2984 18.6747 13.1733Z" fill="#F2D049" stroke="black" stroke-width="0.010426"/>
<path d="M18.6201 12.452L18.1067 12.4218C18.1154 12.6808 18.2394 12.6722 18.3025 12.5598C18.3504 12.6808 18.4352 12.6463 18.4657 12.5598C18.531 12.6895 18.6375 12.6117 18.6201 12.452Z" fill="#F2D049" stroke="black" stroke-width="0.010426"/>
<path d="M18.6876 11.6401H18.135C18.1415 11.8214 18.2633 11.9251 18.3569 11.7524C18.383 11.9596 18.4831 11.8948 18.5266 11.8127C18.5897 11.9726 18.7354 11.7913 18.6876 11.6401Z" fill="#F2D049" stroke="black" stroke-width="0.010426"/>
<path d="M18.655 11.0874L18.1611 11.1004C18.1524 11.2601 18.2699 11.3292 18.3134 11.1996C18.3373 11.2817 18.42 11.273 18.4439 11.1953C18.4831 11.3162 18.531 11.2341 18.5461 11.1953C18.6027 11.2773 18.6637 11.2385 18.655 11.0874Z" fill="#F2D049" stroke="black" stroke-width="0.010426"/>
<path d="M19.2338 11.4458L18.629 11.4329C18.6268 11.558 18.6921 11.6098 18.7312 11.558C18.7312 11.679 18.8161 11.7179 18.8705 11.6228C18.9075 11.7265 19.0162 11.7567 19.0598 11.6142C19.1489 11.7611 19.2447 11.6574 19.2338 11.4458Z" fill="#F2D049" stroke="black" stroke-width="0.010426"/>
<path d="M19.2251 12.4304L18.6333 12.4261C18.6377 12.5901 18.7333 12.6463 18.7878 12.5599C18.8008 12.6981 18.8748 12.7068 18.9183 12.6376C18.9705 12.7543 19.0576 12.7629 19.1054 12.6333C19.1772 12.6852 19.2316 12.5642 19.2251 12.4304Z" fill="#F2D049" stroke="black" stroke-width="0.010426"/>
<path d="M19.1946 13.3156L18.7268 13.3027C18.7268 13.4669 18.8248 13.4885 18.8683 13.402C18.9139 13.5101 18.9836 13.5101 19.0227 13.4236C19.0858 13.5317 19.1816 13.5014 19.1946 13.3156Z" fill="#F2D049" stroke="black" stroke-width="0.010426"/>
<path d="M18.1123 13.4651C18.12 13.4653 18.121 13.4783 18.1123 13.4781L17.4695 13.4623C17.4608 13.4621 17.4619 13.4492 17.4696 13.4493L18.1123 13.4651Z" fill="black" stroke="black" stroke-width="0.010426"/>
<path d="M18.6173 12.4443C18.6249 12.4448 18.6258 12.4578 18.6171 12.4573L18.1079 12.4295C18.0991 12.429 18.1004 12.4161 18.108 12.4166L18.6173 12.4443Z" fill="black" stroke="black" stroke-width="0.010426"/>
<path d="M18.0803 12.7352C18.0879 12.7354 18.0889 12.7484 18.0802 12.7482L17.5102 12.7399C17.5015 12.7399 17.5027 12.7269 17.5102 12.7269L18.0803 12.7352Z" fill="black" stroke="black" stroke-width="0.010426"/>
<path d="M18.0971 12.0011C18.1047 12.0011 18.1058 12.0141 18.0971 12.0141L17.501 12.0079C17.4923 12.0079 17.4934 11.995 17.501 11.9951L18.0971 12.0011Z" fill="black" stroke="black" stroke-width="0.010426"/>
<path d="M18.0556 11.4218C18.0632 11.422 18.0642 11.4351 18.0555 11.4348L17.4763 11.4175C17.4676 11.4172 17.4688 11.4042 17.4764 11.4045L18.0556 11.4218Z" fill="black" stroke="black" stroke-width="0.010426"/>
<path d="M18.6555 11.0822C18.6632 11.082 18.6643 11.095 18.6556 11.0952L18.1585 11.1046C18.1498 11.1048 18.1508 11.0919 18.1584 11.0917L18.6555 11.0822Z" fill="black" stroke="black" stroke-width="0.010426"/>
<path d="M18.6861 11.6344C18.6937 11.6344 18.6948 11.6474 18.6861 11.6474H18.1367C18.128 11.6474 18.1291 11.6344 18.1367 11.6344H18.6861Z" fill="black" stroke="black" stroke-width="0.010426"/>
<path d="M19.2256 12.4205C19.2332 12.4205 19.2343 12.4335 19.2256 12.4335H18.6336C18.6249 12.4335 18.626 12.4205 18.6336 12.4205H19.2256Z" fill="black" stroke="black" stroke-width="0.010426"/>
<path d="M19.2338 11.4379C19.2415 11.4381 19.2425 11.4511 19.2338 11.4509L18.6289 11.4391C18.6202 11.4389 18.6214 11.426 18.629 11.4261L19.2338 11.4379Z" fill="black" stroke="black" stroke-width="0.010426"/>
<path d="M18.6748 13.165C18.6824 13.1652 18.6834 13.1781 18.6747 13.178L18.1426 13.171C18.1339 13.1708 18.135 13.1579 18.1426 13.158L18.6748 13.165Z" fill="black" stroke="black" stroke-width="0.010426"/>
<path d="M19.1946 13.3083C19.2022 13.3084 19.2032 13.3214 19.1945 13.3212L18.7268 13.3089C18.718 13.3088 18.7193 13.2958 18.7269 13.296L19.1946 13.3083Z" fill="black" stroke="black" stroke-width="0.010426"/>
<path d="M18.4439 14.7104C18.1916 14.719 17.9348 14.719 17.7608 14.6672C17.5867 14.6153 17.5319 14.5668 17.4127 14.4254C17.2343 14.2138 17.1907 14.162 16.9384 13.8684C16.8997 13.8233 16.8578 13.8792 16.9123 13.9503C17.1668 14.2828 17.2632 14.4061 17.3844 14.5636C17.5105 14.7277 17.5919 14.8734 17.6694 15.0472C17.7695 15.2719 17.8434 15.2762 17.8891 15.2416C17.9348 15.2071 18.0067 15.1595 18.0784 15.1941C18.1502 15.2287 18.2459 15.233 18.296 15.2157C18.3417 15.2978 18.4461 15.2805 18.5049 15.2546C18.5635 15.2287 18.6071 15.2157 18.6484 15.233C18.6898 15.2503 18.7528 15.2373 18.7942 15.2244C18.8355 15.2114 18.9443 15.1898 19.0205 15.2114C19.0966 15.233 19.1749 15.22 19.225 15.1898C19.275 15.1595 19.3664 15.1682 19.3969 15.1855C19.4403 15.1207 19.4621 15.0386 19.473 14.9523C19.5241 14.9394 19.5411 14.9267 19.5524 14.8681C19.5731 14.7601 19.5926 14.6542 19.5992 14.6069H19.6198L19.6263 14.5096L19.584 14.4124L19.5992 14.2268L19.6448 14.2052C19.647 14.149 19.634 14.0626 19.6252 14.0281C19.3512 14.0497 19.0824 14.067 18.89 14.0756C18.8682 14.1102 18.8442 14.2009 18.8399 14.2571C18.7224 14.2958 18.6528 14.3131 18.6223 14.326C18.5918 14.339 18.5748 14.3438 18.5506 14.4081C18.5114 14.5118 18.4744 14.6326 18.4439 14.7104Z" fill="#7E7B80" stroke="black" stroke-width="0.010426"/>
<path d="M17.7 15.017C17.7674 14.9307 17.8827 14.948 17.9415 15.0342C18.0111 14.9566 18.1373 14.9781 18.1961 15.0818C18.2852 14.961 18.3614 14.9437 18.4484 15.0602C18.5159 14.9653 18.6203 14.9566 18.7008 15.0688C18.7791 14.9953 18.8661 14.935 18.9422 15.0947C18.8966 15.0299 18.7987 14.9737 18.7008 15.125C18.6246 14.9737 18.4919 15.0299 18.4484 15.1336C18.3918 14.9997 18.2722 14.9781 18.2003 15.1422C18.1221 15.0126 18.0046 15.0083 17.9415 15.1077C17.8914 15.0299 17.8175 14.9653 17.7 15.017Z" fill="#5C5568"/>
<path d="M18.889 14.8313C18.5431 14.95 17.7892 14.8659 17.6238 14.7838C17.567 14.7556 17.5825 14.7147 17.6304 14.7363C17.8209 14.8222 18.2275 14.8227 18.4516 14.8011C18.4952 14.6866 18.5637 14.4924 18.5843 14.4383C18.605 14.3843 18.6141 14.3794 18.6572 14.3649C18.7344 14.339 18.7786 14.325 18.8454 14.3022C18.8465 14.3195 18.8465 14.3411 18.8465 14.3541C18.8411 14.3627 18.8357 14.3779 18.8313 14.3822C18.8313 14.4707 18.84 14.6866 18.8487 14.7644C18.8574 14.7622 18.8683 14.7557 18.8737 14.7536C18.889 14.7449 18.9041 14.8227 18.889 14.8313Z" fill="#5C5568"/>
<path d="M19.4556 14.8642C19.4681 14.8636 19.4941 14.8624 19.5013 14.8621C19.5155 14.8614 19.5353 14.8421 19.544 14.7989C19.5527 14.7557 19.5797 14.596 19.5895 14.529L19.5546 14.4249C19.5623 14.3389 19.5721 14.2225 19.5731 14.1987C19.5906 14.1857 19.609 14.1728 19.6177 14.1663C19.6199 14.1468 19.6156 14.094 19.6068 14.0767C19.4578 14.088 19.0118 14.1188 18.9302 14.1209C18.9106 14.1209 18.9018 14.1193 18.8944 14.1749C18.853 14.4815 18.9102 14.9117 19.0662 15.1595C19.0771 15.1768 19.0908 15.1623 19.0727 15.1293C19.0466 15.0817 19.0064 14.9845 18.9792 14.8885C19.0096 14.8875 19.0714 14.8855 19.0899 14.884C19.0988 14.9566 19.1266 15.1098 19.132 15.1358C19.1375 15.1617 19.1509 15.1653 19.1445 15.1266C19.1295 15.0359 19.1217 14.9325 19.1151 14.8828C19.1434 14.8815 19.1968 14.8825 19.2294 14.8788C19.231 14.9609 19.2353 15.0709 19.2364 15.1012C19.2375 15.1314 19.2506 15.1336 19.2508 15.099C19.2512 15.0645 19.2515 14.9184 19.2513 14.8754C19.2881 14.8734 19.3351 14.8702 19.3525 14.8702C19.3501 14.9169 19.3456 15.068 19.3439 15.0919C19.3414 15.1271 19.3507 15.1437 19.3551 15.094C19.3594 15.0444 19.3681 14.9282 19.3705 14.8694C19.3853 14.8685 19.424 14.8654 19.4404 14.8646C19.4388 14.9106 19.417 15.0505 19.4105 15.0872C19.404 15.124 19.4145 15.1251 19.4219 15.0904C19.4296 15.0548 19.4534 14.9144 19.4556 14.8642Z" fill="#5C5568"/>
<path d="M18.9156 14.182C18.9095 14.2441 18.9085 14.3769 18.9101 14.4336C18.9482 14.4351 19.042 14.4306 19.055 14.4284C19.0518 14.3639 19.0467 14.2473 19.0434 14.1745C19.0124 14.1772 18.9363 14.1808 18.9156 14.182ZM19.0711 14.1737C19.0722 14.2342 19.079 14.382 19.0812 14.4272C19.1141 14.4254 19.1946 14.4221 19.2218 14.4203C19.2204 14.3649 19.216 14.1866 19.2154 14.165C19.1717 14.1673 19.0988 14.1728 19.0711 14.1737ZM19.2439 14.1634C19.2453 14.2195 19.2489 14.3781 19.2478 14.4191C19.2827 14.4173 19.3494 14.4159 19.3701 14.4126C19.3717 14.3563 19.3763 14.1953 19.3741 14.1542C19.3349 14.1572 19.2725 14.1614 19.2439 14.1634ZM19.398 14.1526C19.398 14.2001 19.395 14.3671 19.3939 14.4125C19.4285 14.4098 19.507 14.4043 19.5275 14.4033C19.5329 14.3476 19.5438 14.2031 19.5471 14.1421C19.5144 14.1442 19.4219 14.1512 19.398 14.1526Z" fill="#7E7B80"/>
<path d="M18.9619 14.8292C18.9499 14.7817 18.9129 14.6127 18.9097 14.4897C18.9412 14.4885 19.0202 14.4856 19.0583 14.4839C19.0639 14.5766 19.0783 14.7764 19.0859 14.8237C19.0414 14.8259 18.9869 14.8287 18.9619 14.8292ZM19.0844 14.4829C19.0885 14.5537 19.1072 14.7968 19.1102 14.8249C19.1425 14.8211 19.2173 14.8206 19.2303 14.8184C19.229 14.7536 19.2237 14.5105 19.2231 14.4759C19.1893 14.4777 19.1014 14.4821 19.0844 14.4829ZM19.2486 14.4748C19.2486 14.5136 19.2521 14.792 19.2529 14.8157C19.2784 14.8141 19.3447 14.8123 19.3545 14.8101C19.3595 14.7017 19.3669 14.4942 19.3683 14.4683C19.3231 14.4708 19.2787 14.4734 19.2486 14.4748ZM19.533 14.4588C19.4884 14.4616 19.4167 14.4654 19.3924 14.4673C19.3886 14.5766 19.3818 14.7656 19.3785 14.8088C19.4177 14.8071 19.4971 14.8021 19.5145 14.8011C19.5276 14.7493 19.5559 14.5874 19.5624 14.5377C19.5526 14.5075 19.545 14.4902 19.533 14.4588Z" fill="#7E7B80"/>
<path d="M18.6715 14.4081L18.6148 14.428C18.5887 14.5118 18.492 14.7708 18.48 14.8011C18.5474 14.7973 18.6528 14.7933 18.6781 14.7885C18.6763 14.719 18.6716 14.4425 18.6715 14.4081ZM18.6966 14.3988C18.6979 14.4874 18.7022 14.7233 18.7033 14.786C18.7367 14.7821 18.7982 14.7742 18.8232 14.7698C18.8174 14.6585 18.8069 14.3926 18.8047 14.3602C18.7767 14.3704 18.7216 14.3896 18.6966 14.3988Z" fill="#7E7B80"/>
<path d="M19.3248 14.0506C19.3381 13.9591 19.3737 13.7125 19.4381 13.2464C19.4489 13.1686 19.4109 13.1379 19.3969 13.2377C19.3202 13.7819 19.2912 13.986 19.2815 14.054C19.2962 14.0535 19.3173 14.0503 19.3248 14.0506Z" fill="#5C5568" stroke="black" stroke-width="0.010426"/>
<path d="M19.7495 13.1385C19.657 13.2334 19.6124 13.2702 19.57 13.2378C19.531 13.208 19.4736 13.1912 19.4401 13.224C19.44 13.2309 19.4395 13.2384 19.4383 13.2464C19.3986 13.5334 19.3699 13.7369 19.3506 13.8725C19.4191 13.9206 19.537 13.927 19.5646 13.8684C19.5928 13.8079 19.6701 13.8209 19.7092 13.8252C19.7343 13.7604 19.7441 13.6804 19.7375 13.6416C19.731 13.6027 19.7332 13.5337 19.743 13.4797C19.7528 13.4257 19.7658 13.2507 19.7495 13.1385Z" fill="white" stroke="black" stroke-width="0.010426"/>
<path d="M19.6166 13.4862C19.6298 13.4282 19.6316 13.2949 19.6241 13.2444C19.6038 13.2526 19.5866 13.2507 19.5699 13.2378C19.5611 13.2311 19.5515 13.2251 19.5413 13.2202C19.5395 13.287 19.5273 13.4571 19.5122 13.5229C19.4859 13.5377 19.4329 13.5204 19.4028 13.5017C19.3948 13.5583 19.3876 13.6103 19.3809 13.6582C19.4183 13.6753 19.4652 13.6738 19.5024 13.6567C19.4995 13.7566 19.4929 13.8475 19.4657 13.9103C19.5101 13.9123 19.5499 13.8993 19.5645 13.8684C19.5658 13.8654 19.5673 13.8629 19.5689 13.8604C19.5894 13.7923 19.59 13.7036 19.5949 13.6437C19.6101 13.6459 19.6297 13.6373 19.6384 13.62C19.6471 13.6027 19.6612 13.594 19.6754 13.5962C19.6883 13.5982 19.7084 13.5929 19.7339 13.5724C19.7346 13.5419 19.7376 13.5086 19.7429 13.4797C19.7457 13.4639 19.7488 13.4377 19.7514 13.4059C19.719 13.4367 19.6467 13.488 19.6166 13.4862Z" fill="#EF072D" stroke="black" stroke-width="0.010426"/>
<path d="M17.6433 11.5794C17.541 12.1667 17.1864 13.4839 16.9724 13.9082" stroke="black" stroke-width="0.010426"/>
<path d="M17.1367 14.0998C17.3796 13.7269 17.9937 12.5164 18.098 12.007" stroke="black" stroke-width="0.010426"/>
<path d="M17.5106 12.7325C17.4824 13.1773 17.4176 13.9708 17.3828 14.3897" stroke="black" stroke-width="0.010426"/>
<path d="M17.6057 13.7241C17.5231 13.8839 17.4059 14.1629 17.3188 14.3141" stroke="black" stroke-width="0.010426"/>
<path d="M18.4241 12.8578C18.4853 12.9872 18.5723 13.1335 18.6441 13.1724M18.3841 12.8362C18.3145 12.97 18.2351 13.126 18.1655 13.1649" stroke="black" stroke-width="0.010426"/>
<path d="M18.4121 12.1667C18.4665 12.2574 18.5245 12.3897 18.594 12.4502M18.3765 12.1409C18.3134 12.2488 18.2198 12.3757 18.135 12.4233" stroke="black" stroke-width="0.010426"/>
<path d="M18.3981 11.3679C18.4571 11.5016 18.5702 11.6096 18.6268 11.6399M18.1482 11.6399C18.2156 11.601 18.316 11.4973 18.3682 11.3895" stroke="black" stroke-width="0.010426"/>
<path d="M18.3888 10.8323C18.4474 10.9317 18.5506 11.0753 18.618 11.0882M18.1611 11.1002C18.2307 11.07 18.3169 10.9965 18.3626 10.8669" stroke="black" stroke-width="0.010426"/>
<path d="M18.9238 11.2123C18.951 11.2988 19.0196 11.431 19.0588 11.4418M18.8855 11.2188C18.8477 11.2966 18.7552 11.4363 18.6965 11.4342" stroke="black" stroke-width="0.010426"/>
<path d="M18.9352 12.1323C18.9574 12.2121 19.0423 12.3924 19.0902 12.4291M18.6572 12.4259C18.7333 12.3741 18.84 12.2504 18.8933 12.123" stroke="black" stroke-width="0.010426"/>
<path d="M18.9466 13.024C18.9826 13.1126 19.0706 13.2744 19.125 13.3133M18.7476 13.303C18.7824 13.288 18.8771 13.1946 18.9031 13.0845" stroke="black" stroke-width="0.010426"/>
<path d="M17.7748 13.1946C17.8639 13.3198 17.9676 13.445 18.0469 13.4731M17.5498 13.4563C17.6564 13.3894 17.8718 13.1298 17.9784 12.8835" stroke="black" stroke-width="0.010426"/>
<path d="M17.771 12.4583C17.7949 12.5251 17.9709 12.7385 18.0459 12.7406M17.5303 12.733C17.589 12.6833 17.6662 12.5986 17.7261 12.4756" stroke="black" stroke-width="0.010426"/>
<path d="M17.7676 11.7739C17.8285 11.8579 17.949 12.0065 18.0316 12.0065M17.726 11.7695C17.6803 11.8428 17.5704 11.9746 17.5171 12.0027" stroke="black" stroke-width="0.010426"/>
<path d="M17.7655 11.1194C17.8036 11.2404 17.9055 11.4039 17.9719 11.4255M17.726 11.0937C17.6771 11.2037 17.5944 11.3737 17.5259 11.4126" stroke="black" stroke-width="0.010426"/>
<path d="M18.646 11.8461C18.7985 12.4043 19.0814 13.0866 19.3675 13.4451" stroke="black" stroke-width="0.010426"/>
<path d="M18.1885 11.2275C18.4201 11.8882 18.8749 13.3371 19.3075 13.872" stroke="black" stroke-width="0.010426"/>
<path d="M19.3873 13.3068C19.3176 13.4991 19.1925 13.7992 18.9858 14.0724" stroke="black" stroke-width="0.010426"/>
<path d="M19.3613 13.4892C19.2156 13.0273 19.1403 12.4432 19.0312 11.674" stroke="black" stroke-width="0.010426"/>
<path d="M17.726 14.6553V13.6782M17.726 13.7408H17.6322M17.726 13.7992H17.6246M17.726 13.8726H17.6159M17.726 13.9567H17.6058M17.726 14.0431H17.5947M17.726 14.1274H17.5844M17.726 14.2246H17.5722M17.726 14.313H17.5615M17.726 14.3994H17.5507M17.726 14.4901H17.5398M17.726 14.5787H17.5651M17.7155 13.6696L17.6645 14.6339M17.6859 13.689L17.6157 14.6111M17.6627 13.7204L17.5758 14.5862M17.6331 13.7342L17.532 14.5538" stroke="black" stroke-width="0.010426"/>
<path d="M17.7731 13.7327H17.8504M17.7777 13.7862H17.8607M17.7862 13.8494H17.8716M17.7936 13.9173H17.8838M17.8019 13.9913H17.8969M17.8099 14.0626H17.9105M17.8188 14.1425H17.9247M17.827 14.2159H17.9385M17.9532 14.2942H17.8357M17.9695 14.3848H17.846M17.9847 14.468H17.8553M17.9994 14.5499H17.8653M17.8762 14.6563H18.0184M17.7666 13.6749L17.8804 14.6932M17.7815 13.6588L17.9288 14.6993M17.8157 13.7049L17.9744 14.7048M17.849 13.7279L18.0285 14.7081" stroke="black" stroke-width="0.010426"/>
<path d="M18.3171 13.398H18.2568M18.3101 13.4521H18.2431M18.3025 13.512H18.2282M18.2948 13.5704H18.2138M18.2872 13.6285H18.1991M18.2788 13.6945H18.1831M18.2703 13.7591H18.1659M18.2614 13.8283H18.1485M18.2483 13.9293H18.1237M18.2369 14.0179H18.1015M18.2219 14.1339H18.0723M18.2067 14.2332H18.0479M18.198 14.3195H18.0261M18.1809 14.4275H17.9992M18.1711 14.5269H17.9736M18.1548 14.6498H17.9427M18.3242 13.3435L18.147 14.7125M18.3093 13.3199L18.0815 14.713M18.2887 13.3337L18.0016 14.7053M18.2675 13.3563L17.9302 14.699" stroke="black" stroke-width="0.010426"/>
<path d="M18.6302 13.4229H18.5438M18.6616 13.5331H18.5617M18.693 13.6433H18.5792M18.7244 13.7533H18.5964M18.7558 13.8635H18.6145M18.7872 13.9736H18.6322M18.8186 14.0836H18.6496M18.85 14.1938H18.6665M18.8502 14.1945L18.6188 13.3822M18.59 13.3995L18.7998 14.2698M18.5645 13.3973L18.7436 14.2872M18.5364 13.3782L18.684 14.3055" stroke="black" stroke-width="0.010426"/>
<path d="M18.818 13.4612H18.904M18.8 13.568H18.9045M18.782 13.6751H18.8933M18.764 13.7819H18.8821M18.746 13.8888H18.8709M18.728 13.9956H18.8596M18.71 14.1025H18.8482M18.692 14.2095H18.837M18.9146 13.4708L18.8319 14.2602M18.7911 14.2721L18.8894 13.4426M18.863 13.4103L18.729 14.2916M18.8197 13.4492L18.6753 14.3088" stroke="black" stroke-width="0.010426"/>
<path d="M19.0844 13.4914H18.9825M19.1006 13.5778H18.9931M19.1167 13.6642H19.003M19.1328 13.7505H19.0131M19.1489 13.8369H19.0241M19.1651 13.9233H19.0348M19.1812 14.0097H19.0441M19.0839 13.4829L19.1908 14.0607M19.04 13.4484L19.1467 14.0635M19.0068 13.4515L19.1047 14.0659M18.9805 13.4786L19.0513 14.068" stroke="black" stroke-width="0.010426"/>
<path d="M17.5404 7.85967C17.4742 7.86349 17.33 7.86615 17.2997 7.89989C17.2695 7.93379 17.2562 7.94874 17.3091 7.96752C17.3621 7.9863 17.4518 8.03632 17.5009 8.09647C17.5501 8.15646 17.5913 8.26281 17.5777 8.41453C17.5371 8.87035 17.6572 9.30872 17.8311 9.47406C17.848 9.49001 17.852 9.50214 17.8482 9.56413C17.8444 9.62611 17.8331 9.72947 17.8236 9.75573C17.8141 9.78215 17.8094 9.82535 17.8397 9.80458C17.8189 9.88169 17.7725 10.0357 17.7584 10.0751C17.6193 10.0414 17.5059 10.0789 17.4954 10.3681C17.4944 10.3963 17.4993 10.4414 17.521 10.3701C17.5427 10.2986 17.5673 10.231 17.6269 10.2122C17.5919 10.3192 17.5806 10.4151 17.5863 10.4771C17.5919 10.5391 17.6004 10.5766 17.6156 10.4977C17.6307 10.4189 17.6586 10.3451 17.6884 10.3004C17.6997 10.2837 17.7073 10.2798 17.6988 10.3287C17.6902 10.3776 17.7025 10.4827 17.7196 10.5185C17.7366 10.554 17.7451 10.5391 17.7404 10.4809C17.7357 10.4226 17.7431 10.3008 17.7791 10.2629C17.8311 10.2086 17.8756 10.2366 17.8964 10.3081C17.9172 10.3794 17.9352 10.3117 17.9125 10.231C17.8898 10.1502 17.8661 10.0939 17.8283 10.0882C17.8614 9.97175 17.9002 9.83084 17.9087 9.80275C17.9172 9.7745 17.9305 9.76138 17.9418 9.77833C17.9532 9.79528 17.9607 9.79328 17.9721 9.74642C17.9834 9.69939 18.0032 9.56047 18.0316 9.50414C18.0459 9.49649 18.0685 9.48536 18.077 9.47024C18.1139 9.57725 18.147 9.69574 18.1555 9.72199C18.164 9.74825 18.1735 9.75955 18.165 9.81405C18.1565 9.86856 18.1272 10.0414 18.1225 10.0789C18.0193 10.0864 17.9721 10.0901 17.939 10.2047C17.9245 10.2547 17.9475 10.2742 17.9721 10.2479C17.9966 10.2217 18.0316 10.1991 18.0496 10.2047C18.0675 10.2104 18.076 10.2287 18.0581 10.2461C17.9948 10.3081 17.9552 10.3869 17.9579 10.4959C17.9588 10.5353 17.967 10.5549 17.9825 10.5015C18.0043 10.4264 18.0439 10.3513 18.0922 10.3305C18.0893 10.4226 18.0998 10.5579 18.1281 10.5861C18.1565 10.6142 18.1585 10.5856 18.1479 10.5316C18.1309 10.4452 18.1486 10.3583 18.1697 10.3117C18.2141 10.214 18.3153 10.3493 18.3343 10.3832C18.3532 10.4169 18.3704 10.4311 18.3598 10.3437C18.3456 10.2273 18.2624 10.1597 18.1914 10.1409C18.2113 9.95115 18.2643 9.56795 18.2927 9.4365C18.3343 9.48154 18.3667 9.36272 18.4364 9.4139C18.5536 9.50032 18.7295 9.71817 18.7598 9.76703C18.79 9.81588 18.8014 9.80458 18.8166 9.77833C18.8316 9.75207 18.8582 9.77833 18.8789 9.7858C18.8998 9.79328 18.9187 9.80458 18.8922 9.69939C18.8657 9.5942 18.8014 9.41008 18.6936 9.26734C18.7579 9.27864 18.8449 9.27864 18.8449 9.2449C18.8449 9.21101 18.7446 9.14719 18.703 9.13972C18.7428 9.12094 18.8033 9.07574 18.8316 9.01193C18.8485 8.97421 18.8283 8.9654 18.7693 8.96307C18.5877 8.95559 18.4969 8.95842 18.4023 8.85041C18.2511 8.67758 18.1645 8.49562 18.0902 8.41835C18.0505 8.37697 18.0264 8.28159 18.011 8.19917C17.9619 7.93611 17.9643 7.8178 17.849 7.73139C17.7336 7.64497 17.6009 7.75083 17.5404 7.85967Z" fill="black"/>
<path d="M17.9131 7.88271C17.8912 7.83552 17.8522 7.79198 17.8327 7.77902C17.8131 7.76606 17.8109 7.80494 17.8218 7.82438C17.8131 7.85031 17.8098 7.91296 17.825 7.93024C17.8403 7.94752 17.8404 7.97211 17.8261 7.98624C17.8044 8.00784 17.8117 8.1225 17.8445 8.08993C17.8554 8.07913 17.8641 8.08345 17.862 8.10073C17.8598 8.11802 17.8641 8.13962 17.8739 8.14394C17.8837 8.14826 17.8826 8.17634 17.8805 8.18714C17.8783 8.19795 17.8815 8.20227 17.8924 8.20443C17.9033 8.20659 17.9044 8.25843 17.8848 8.27571C17.9088 8.27571 17.9153 8.26708 17.9218 8.30596C17.9283 8.34468 17.9545 8.35332 17.9545 8.40085C17.9545 8.44837 17.9501 8.45701 17.9218 8.44837C17.8935 8.43973 17.8826 8.45701 17.8739 8.47862C17.8652 8.50022 17.863 8.52182 17.8848 8.52398C17.9066 8.52614 17.9109 8.54558 17.8892 8.56503C17.8674 8.58447 17.8316 8.57151 17.8261 8.61255C17.8207 8.65343 17.8261 8.67287 17.8424 8.65775C17.8587 8.6428 17.8924 8.61471 17.9055 8.59959C17.9186 8.58447 17.9305 8.58231 17.9414 8.61687C17.9523 8.65144 17.9436 8.69015 17.9251 8.66008C17.9066 8.62983 17.8979 8.65775 17.887 8.67503C17.8761 8.69232 17.8598 8.70312 17.8424 8.70312C17.825 8.70312 17.8131 8.7076 17.8152 8.78521C17.8218 9.01852 17.9131 9.19117 18.0806 9.18685C18.2481 9.18253 18.3309 9.17821 18.3559 9.18469C18.3004 9.1242 18.2656 9.0918 18.246 9.09612C18.2264 9.10044 18.2101 9.10692 18.2188 9.07668C18.2275 9.04643 18.2177 9.04643 18.209 9.03347C18.2003 9.02051 18.1895 9.00323 18.172 9.03995C18.1546 9.07668 18.1133 9.11772 18.0926 9.12636C18.0719 9.13501 18.0469 9.13284 18.0665 9.09396C18.0861 9.05508 18.1296 9.04211 18.1427 9.02483C18.1557 9.00755 18.1557 8.99691 18.1557 8.98395C18.1557 8.97099 18.1525 8.93427 18.1775 8.96235C18.2275 9.01852 18.3058 9.1026 18.3265 9.10044C18.3472 9.09828 18.3613 9.081 18.3428 9.05724C18.3243 9.03347 18.3189 8.99907 18.3243 8.98611C18.3298 8.97315 18.333 8.96019 18.3657 8.99691C18.3983 9.03347 18.4516 9.081 18.4712 9.09828C18.4908 9.11556 18.5169 9.10908 18.4766 9.05076C18.4363 8.99259 18.3113 8.82841 18.2764 8.77657C18.2416 8.72472 18.2569 8.78737 18.2601 8.80681C18.2634 8.82625 18.2362 8.85001 18.222 8.82625C18.2079 8.80249 18.1981 8.77657 18.2177 8.75496C18.2373 8.73336 18.2416 8.7312 18.2122 8.67935C18.1829 8.62767 18.1742 8.63199 18.1808 8.67503C18.1873 8.71824 18.1895 8.76576 18.159 8.742C18.1285 8.71824 18.1133 8.69016 18.1329 8.66639C18.1525 8.6428 18.1775 8.62983 18.1448 8.57583C18.1122 8.52182 18.122 8.57583 18.1144 8.60607C18.1067 8.63632 18.0817 8.63631 18.0676 8.61255C18.0534 8.58879 18.0469 8.56503 18.0567 8.54558C18.0665 8.52614 18.0654 8.51534 18.0795 8.53046C18.0937 8.54558 18.1155 8.53694 18.0893 8.49158C18.0632 8.44621 18.0534 8.46565 18.0589 8.49158C18.0643 8.5175 18.0436 8.56287 18.0111 8.50238C17.9956 8.4738 17.9958 8.43541 18.0121 8.42893C18.0284 8.42245 18.03 8.40566 18.0186 8.37276C17.9523 8.18066 17.9795 8.02512 17.9131 7.88271ZM17.5476 7.91944C17.5182 7.91728 17.4605 7.90348 17.4127 7.91296C17.4018 7.91512 17.3888 7.92592 17.4149 7.9324C17.441 7.93888 17.5117 7.97328 17.5367 7.99056C17.5617 8.00784 17.5509 8.03377 17.5291 8.02296C17.5073 8.01216 17.4993 8.02812 17.5171 8.05321C17.6096 8.18282 17.6194 8.23251 17.5955 8.67719C17.6129 8.70096 17.627 8.71824 17.6423 8.73336C17.6575 8.74848 17.6532 8.77009 17.6368 8.76144C17.6205 8.7528 17.6053 8.77225 17.6314 8.78305C17.6575 8.79385 17.6694 8.81761 17.6445 8.81545C17.6194 8.81329 17.59 8.8565 17.639 8.8457C17.6879 8.83489 17.7075 8.88026 17.6499 8.88242C17.5922 8.88458 17.614 8.9213 17.6445 8.9213C17.6988 8.9213 17.6825 8.95155 17.6684 8.95155C17.6543 8.95155 17.6477 8.98827 17.6836 8.98179C17.7195 8.97531 17.7336 8.97315 17.7467 8.97747C17.7597 8.98179 17.7652 9.00323 17.7456 9.00556C17.726 9.00755 17.7271 9.03563 17.7565 9.03563C17.7859 9.03563 17.7981 9.05325 17.7717 9.06372C17.7608 9.06804 17.7458 9.07884 17.7772 9.08748C17.8316 9.1026 17.8337 9.12852 17.8163 9.13284C17.7989 9.13717 17.7967 9.15661 17.8218 9.16093C17.8467 9.16525 17.8685 9.18037 17.8479 9.19117C17.8272 9.20197 17.8163 9.22574 17.8424 9.23006C17.8685 9.23438 17.8903 9.25382 17.8707 9.26678C17.8511 9.27974 17.8467 9.30351 17.8718 9.30135C17.8968 9.29919 17.9066 9.32727 17.8892 9.34655C17.8718 9.36599 17.8598 9.37895 17.8489 9.34455C17.8381 9.30999 17.8316 9.29918 17.8283 9.32511C17.825 9.35086 17.8174 9.33375 17.8087 9.29486C17.8 9.25598 17.7848 9.24518 17.7891 9.27542C17.7935 9.30567 17.7739 9.30999 17.7554 9.29486C17.824 9.43296 17.9251 9.55825 18.0861 9.42863C18.0998 9.41767 18.1024 9.42863 18.1133 9.474C18.1242 9.51937 18.1546 9.61874 18.1655 9.65546C18.1764 9.69219 18.185 9.65912 18.1905 9.62306C18.2122 9.48048 18.2286 9.37463 18.2351 9.33591C18.2416 9.29703 18.2721 9.25814 18.2623 9.39407C18.2862 9.36167 18.3923 9.33109 18.4744 9.39191C18.5647 9.45888 18.6554 9.56274 18.7018 9.6317C18.7105 9.64466 18.7214 9.65978 18.7431 9.65546C18.7649 9.65114 18.7703 9.64466 18.7289 9.56905C18.6877 9.49344 18.7051 9.45672 18.7311 9.49344C18.7572 9.53017 18.7714 9.50856 18.7518 9.4632C18.7322 9.41783 18.6855 9.32943 18.6703 9.30783C18.655 9.28622 18.6528 9.27758 18.618 9.27326C18.5832 9.26894 18.5093 9.26894 18.4875 9.26894C18.4657 9.26894 18.4592 9.27326 18.5071 9.30783C18.5549 9.34222 18.6528 9.46752 18.6746 9.49776C18.6964 9.52801 18.7116 9.59714 18.6637 9.53665C18.6158 9.47616 18.4657 9.29054 18.3657 9.22142C18.1372 9.25166 17.9566 9.31215 17.8218 9.01852C17.7571 8.87793 17.7543 8.55638 17.863 8.42245C17.8413 8.38572 17.8445 8.36412 17.8533 8.35548C17.862 8.34684 17.8652 8.3382 17.8565 8.31659C17.8479 8.29499 17.8489 8.27571 17.8565 8.26707C17.8327 8.24115 17.8218 8.21091 17.8229 8.1785C17.7935 8.16554 17.7804 8.09641 17.7412 8.11801C17.7021 8.13962 17.6825 8.12234 17.6706 8.10289C17.6585 8.08345 17.6488 8.07481 17.627 8.07913C17.6053 8.08345 17.5879 8.06617 17.5868 8.04457C17.5857 8.02296 17.6052 8.01249 17.6347 8.03808C17.6966 8.09209 17.7467 8.11801 17.7848 8.01648C17.8229 7.91512 17.7739 7.82006 17.701 7.79198C17.6281 7.7639 17.5748 7.86975 17.5476 7.91944Z" fill="white" stroke="black" stroke-width="0.010426"/>
<path d="M17.885 9.5116C17.9011 9.5209 17.9569 9.5322 17.9759 9.53403C17.9664 9.57358 17.9579 9.59984 17.9522 9.62809C17.9465 9.65617 17.9437 9.65816 17.9427 9.61496C17.9418 9.57159 17.9295 9.5435 17.9182 9.58854C17.9068 9.63374 17.9011 9.65052 17.8955 9.6693C17.8898 9.68808 17.8813 9.69572 17.8841 9.64869C17.887 9.60166 17.886 9.55281 17.885 9.5116Z" fill="white"/>
<path d="M18.2121 8.80586C18.2148 8.8125 18.2182 8.81981 18.222 8.8263C18.2362 8.85006 18.2634 8.8263 18.2601 8.80685C18.2568 8.78741 18.2416 8.72476 18.2764 8.77661C18.3113 8.82846 18.4363 8.99264 18.4766 9.0508C18.5169 9.10913 18.4907 9.11561 18.4712 9.09832C18.4516 9.08104 18.3982 9.03352 18.3657 8.99696C18.333 8.96023 18.3298 8.97319 18.3243 8.98616C18.3197 8.99696 18.3234 9.02305 18.3354 9.04515C18.3159 9.0508 18.2844 9.04232 18.2753 9.00128C18.2645 8.95159 18.2383 8.8911 18.2198 8.84358C18.213 8.82596 18.211 8.815 18.2121 8.80586ZM17.8319 8.3419C17.8246 8.29304 17.8174 8.28141 17.8043 8.2844C17.7913 8.28722 17.7855 8.28141 17.7709 8.26994C17.7565 8.25848 17.7376 8.27277 17.7347 8.32461C17.7318 8.37646 17.7159 8.40238 17.6941 8.43396C17.6723 8.4657 17.6593 8.49162 17.6593 8.54347C17.6593 8.59531 17.6535 8.6096 17.639 8.64716C17.6326 8.66378 17.6234 8.68272 17.6149 8.70266C17.6243 8.71429 17.6331 8.72443 17.6423 8.7334C17.6575 8.74853 17.6532 8.77013 17.6368 8.76149C17.6205 8.75285 17.6053 8.77229 17.6314 8.78309C17.6575 8.79389 17.6694 8.81765 17.6444 8.81549C17.6194 8.81333 17.59 8.85654 17.639 8.84574C17.6879 8.83494 17.7075 8.8803 17.6499 8.88246C17.5922 8.88462 17.614 8.92135 17.6444 8.92135C17.6988 8.92135 17.6825 8.95159 17.6684 8.95159C17.6542 8.95159 17.6477 8.98832 17.6836 8.98184C17.6841 8.98168 17.6845 8.98152 17.6851 8.98152C17.6903 8.97088 17.6942 8.95759 17.697 8.9408C17.7028 8.90624 17.7086 8.80537 17.7289 8.77662C17.7492 8.74787 17.7594 8.70749 17.7594 8.67875C17.7594 8.65 17.7898 8.52337 17.8101 8.49163C17.8305 8.45989 17.8392 8.39092 17.8319 8.3419ZM18.0861 9.42868C17.9672 9.5244 17.8814 9.48186 17.8169 9.39694C17.8436 9.37883 17.8737 9.39428 17.8837 9.39628C17.8946 9.39844 17.9283 9.41356 17.9468 9.433C17.9653 9.45244 17.9773 9.41788 17.9697 9.37899C17.986 9.42004 17.998 9.44812 18.0175 9.44596C18.0371 9.4438 18.0697 9.43732 18.0861 9.42868ZM17.9624 8.69319C17.9553 8.7251 17.9551 8.72194 17.9319 8.72476C17.9087 8.72775 17.8795 8.73556 17.8667 8.76232C17.8598 8.77661 17.8197 8.78043 17.8196 8.81549C17.8194 8.85072 17.8196 8.8803 17.837 8.88246C17.8543 8.88462 17.8565 8.88894 17.8501 8.91487C17.8434 8.94079 17.8392 8.984 17.8696 8.98832C17.9 8.99264 17.9218 8.97319 17.9294 9.00759C17.937 9.04216 17.9288 9.09733 17.9349 9.11777C17.9409 9.13821 17.9615 9.15133 17.9934 9.17094C18.0146 9.18407 18.0949 9.19155 18.1196 9.1859C18.1442 9.18008 18.135 9.15083 18.1103 9.14651C18.0857 9.14219 18.0676 9.13505 18.0618 9.09915C18.056 9.06309 18.0509 9.04432 18.0647 9.01424C18.0784 8.984 18.0922 8.9609 18.0843 8.91055C18.0763 8.8602 18.0632 8.80104 18.0342 8.78525C18.0052 8.76946 18.0144 8.6907 17.9856 8.68305C17.9747 8.68023 17.9653 8.68023 17.9624 8.69319Z" fill="#F2D049"/>
<path d="M17.6783 9.05294C17.6633 9.05676 17.6537 9.09914 17.6725 9.10778C17.6913 9.11642 17.6957 9.11925 17.6957 9.148C17.6957 9.17674 17.7015 9.21712 17.7218 9.21995C17.7421 9.22294 17.7596 9.17674 17.7421 9.16245C17.7247 9.148 17.7087 9.13653 17.7073 9.10479C17.7059 9.07322 17.6899 9.05012 17.6783 9.05294ZM17.8219 9.16096C17.8469 9.16528 17.8686 9.1804 17.848 9.1912C17.8274 9.202 17.8165 9.22577 17.8425 9.23009C17.8686 9.23441 17.8904 9.25385 17.8708 9.26681C17.8512 9.27977 17.8469 9.30354 17.8719 9.30138C17.8969 9.29922 17.9067 9.3273 17.8893 9.34658C17.8719 9.36602 17.8599 9.37898 17.8491 9.34458C17.8383 9.31002 17.8317 9.29921 17.8285 9.32514C17.8252 9.35089 17.8176 9.33378 17.8089 9.29489C17.8002 9.25601 17.7849 9.24521 17.7893 9.27545C17.7936 9.3057 17.774 9.31002 17.7555 9.29489C17.7738 9.33162 17.7943 9.36735 17.8177 9.39759C17.8444 9.37948 17.8738 9.39427 17.8839 9.39626C17.8948 9.39842 17.9285 9.41354 17.947 9.43299C17.9655 9.45243 17.9775 9.41787 17.9699 9.37898C17.9622 9.34026 17.9611 9.35322 17.9514 9.37466C17.9416 9.39626 17.9394 9.36602 17.9405 9.32082C17.9414 9.2826 17.9285 9.29273 17.9241 9.3165C17.9198 9.34026 17.91 9.30138 17.9154 9.27761C17.9209 9.25385 17.9144 9.24521 17.9046 9.25169C17.8948 9.25817 17.8937 9.25169 17.8926 9.20848C17.8915 9.16528 17.8817 9.17176 17.8784 9.18904C17.8752 9.20632 17.8665 9.18256 17.8534 9.148C17.842 9.11775 17.8289 9.13553 17.8061 9.15348C17.809 9.15681 17.8141 9.15963 17.8219 9.16096ZM17.7899 8.34471C17.7694 8.31746 17.7493 8.33324 17.7493 8.38509C17.7493 8.43693 17.7363 8.45123 17.7189 8.46851C17.7015 8.48579 17.6856 8.529 17.6826 8.56938C17.6798 8.60959 17.6856 8.63551 17.6711 8.66725C17.6565 8.69883 17.6551 8.72475 17.6653 8.74203C17.6754 8.75931 17.6754 8.7623 17.6798 8.78806C17.6841 8.81398 17.7087 8.78524 17.7087 8.75649C17.7087 8.72774 17.7146 8.72774 17.7305 8.71046C17.7465 8.69318 17.7726 8.60959 17.7668 8.58666C17.761 8.56356 17.7465 8.54345 17.7653 8.51171C17.7842 8.48014 17.8045 8.47715 17.8045 8.44558C17.8045 8.41384 17.8103 8.40237 17.8161 8.3909C17.8219 8.37927 17.803 8.36199 17.7899 8.34471ZM17.951 8.24118C17.935 8.20662 17.9452 8.18933 17.9626 8.17205C17.9668 8.1679 17.9698 8.16258 17.9719 8.15627C17.9669 8.11821 17.963 8.08165 17.9578 8.04609C17.9487 8.05124 17.938 8.09162 17.935 8.11156C17.9307 8.14031 17.9263 8.1576 17.9118 8.14895C17.8989 8.14131 17.8861 8.17006 17.8834 8.2008C17.8854 8.20246 17.8885 8.20362 17.8926 8.20446C17.8986 8.20562 17.9016 8.2219 17.8998 8.23919C17.939 8.2367 17.9457 8.29054 17.9524 8.32743C17.9597 8.36781 17.9684 8.36199 17.9742 8.33906C17.98 8.31596 17.9669 8.27575 17.951 8.24118ZM17.8263 7.98627C17.8045 8.00787 17.8119 8.12253 17.8447 8.08996C17.8556 8.07916 17.8643 8.08348 17.8621 8.10076C17.8609 8.1099 17.8617 8.12037 17.8641 8.12868C17.8771 8.11788 17.8901 8.09993 17.9002 8.077C17.9205 8.03097 17.9016 8.0338 17.8712 8.0338C17.8408 8.0338 17.8321 8.02233 17.861 7.98776C17.887 7.95686 17.8701 7.93542 17.8342 7.94539C17.8393 7.96001 17.8367 7.97597 17.8263 7.98627ZM17.8563 7.79999C17.8395 7.83222 17.8366 7.84668 17.8451 7.84668C17.8552 7.84668 17.8509 7.84951 17.8436 7.8726C17.8364 7.8957 17.8582 7.90717 17.8669 7.88989C17.8756 7.8726 17.877 7.86679 17.8814 7.88989C17.8849 7.90866 17.8992 7.89088 17.9082 7.87277C17.8934 7.84436 17.8735 7.8181 17.8563 7.79999ZM17.9243 7.90866C17.9186 7.92562 17.9165 7.92495 17.906 7.93891C17.893 7.95602 17.8901 8.00505 17.9118 7.99923C17.9269 7.99524 17.9357 7.97746 17.9416 7.963C17.9369 7.94472 17.9312 7.92661 17.9243 7.90866Z" fill="#A89078"/>
<path d="M17.6903 8.69016C17.6755 8.70495 17.6848 8.74417 17.7066 8.71608C17.7284 8.688 17.7273 8.65343 17.6903 8.69016ZM17.6881 8.65144C17.6733 8.66606 17.6827 8.70528 17.7044 8.6772C17.7262 8.64911 17.7251 8.61472 17.6881 8.65144ZM17.7136 8.62685C17.6986 8.64164 17.7081 8.68085 17.7298 8.65277C17.7516 8.62469 17.7505 8.59012 17.7136 8.62685ZM17.6968 8.58514C17.682 8.59993 17.6914 8.63914 17.7131 8.61106C17.7349 8.58298 17.7338 8.54841 17.6968 8.58514ZM17.7229 8.56935C17.7081 8.58414 17.7175 8.62336 17.7393 8.59527C17.761 8.56719 17.7599 8.53263 17.7229 8.56935ZM17.7041 8.53329C17.6893 8.54808 17.6986 8.5873 17.7204 8.55921C17.7422 8.53113 17.7411 8.49657 17.7041 8.53329ZM17.7346 8.50604C17.7197 8.52066 17.7226 8.55988 17.7444 8.53196C17.7661 8.50388 17.7716 8.46931 17.7346 8.50604ZM17.7578 8.44621C17.7429 8.461 17.7458 8.50022 17.7675 8.47214C17.7893 8.44405 17.7948 8.40949 17.7578 8.44621ZM17.786 8.37493C17.7716 8.37841 17.7556 8.41597 17.7795 8.40949C17.8035 8.40301 17.8133 8.36844 17.786 8.37493ZM17.79 8.30164C17.7764 8.29117 17.7683 8.34767 17.7871 8.35631C17.806 8.36495 17.8089 8.31593 17.79 8.30164Z" fill="black"/>
<path d="M18.0013 8.72694C17.9692 8.67127 17.961 8.70533 17.9741 8.7399C17.9872 8.77446 17.9774 8.79174 17.9491 8.80039C17.9208 8.80903 17.8783 8.81983 17.8609 8.81983C17.8435 8.81983 17.8229 8.86735 17.8642 8.86303C17.9055 8.85871 17.9752 8.83063 17.9937 8.81551C18.0122 8.80039 18.0274 8.7723 18.0013 8.72694Z" fill="black" stroke="black" stroke-width="0.010426"/>
<path d="M18.0643 8.82412C18.0378 8.77676 18.0284 8.78956 18.035 8.82412C18.0415 8.85868 18.0295 8.86516 18.0122 8.87597C17.9948 8.88677 17.9262 8.93213 17.8968 8.93861C17.8674 8.94509 17.8609 8.98614 17.9044 8.98398C17.948 8.98182 18.0317 8.91269 18.0415 8.89973C18.0513 8.88677 18.0546 8.86084 18.0654 8.87381C18.0763 8.88677 18.0861 8.863 18.0643 8.82412Z" fill="black" stroke="black" stroke-width="0.010426"/>
<path d="M18.0839 8.96237C18.0646 8.98514 18.0165 9.02701 17.9969 9.03781C17.9773 9.04861 17.961 9.09182 18.0023 9.08534C18.0436 9.07886 18.0926 9.00325 18.1056 8.98829C18.1187 8.97317 18.1252 8.96237 18.1361 8.96453C18.147 8.96669 18.1666 8.93645 18.1307 8.89756C18.0947 8.85868 18.073 8.87812 18.0904 8.90836C18.1078 8.93861 18.0947 8.94941 18.0839 8.96237Z" fill="black" stroke="black" stroke-width="0.010426"/>
<path d="M17.7151 7.85719C17.6732 7.85825 17.6421 7.96626 17.6899 8.03094C17.7414 8.10073 17.7958 7.94169 17.7449 7.87539C17.735 7.8624 17.7247 7.85694 17.7151 7.85719ZM17.6788 7.9389L17.6946 7.94101C17.6913 7.97325 17.7076 8.02196 17.7326 8.01C17.7125 8.04024 17.6734 8.00571 17.6788 7.9389Z" fill="black"/>
<path d="M19.9854 10.7804C19.9815 13.4944 19.7658 16.4182 17.9959 17.8109C16.2259 16.4182 16.0102 13.4944 16.0063 10.7804H19.9854Z" stroke="black" stroke-width="0.02085"/>
<path d="M19.9854 10.7804C19.9869 9.75806 19.9583 8.76549 19.9713 7.89574C19.31 7.30831 18.4397 7.1875 17.9959 7.1875C17.5521 7.1875 16.6818 7.30831 16.0205 7.89574C16.0335 8.76549 16.005 9.75806 16.0064 10.7804H19.9854Z" stroke="black" stroke-width="0.02085"/>
</g>
<defs>
<clipPath id="clip0_720_53310">
<rect width="24.0044" height="24.0044" fill="white" transform="translate(0.0175781 0.0744629)"/>
</clipPath>
</defs>
</svg>
