<svg width="25" height="25" viewBox="0 0 25 25" fill="none" xmlns="http://www.w3.org/2000/svg">
<g clip-path="url(#clip0_720_53400)">
<path fill-rule="evenodd" clip-rule="evenodd" d="M0.0402832 0.0743408H24.0447V24.0787H0.0402832V0.0743408Z" fill="#CE1126"/>
<path fill-rule="evenodd" clip-rule="evenodd" d="M0.0402832 0.0743408H12.0425V12.0765H0.0402832V0.0743408Z" fill="#002B7F"/>
<path fill-rule="evenodd" clip-rule="evenodd" d="M6.93212 10.9232L6.0132 10.2997L5.1271 10.9326L5.4084 9.83083L4.5645 9.14164L5.6522 9.08069L6.0132 8.0305L6.41171 9.09944L7.48065 9.12289L6.62737 9.84958L6.93212 10.9232ZM6.77271 3.57188L6.04133 3.10304L5.31932 3.57188L5.51623 2.68109L4.87393 2.1138L5.7319 2.03878L6.05071 1.21832L6.38358 2.04816L7.22748 2.1138L6.57111 2.69984L6.77271 3.57188ZM3.52368 6.21611L2.81105 5.70976L2.08905 6.19735L2.30471 5.33939L1.63428 4.77209L2.48756 4.73459L2.80168 3.886L3.11111 4.72052L3.96908 4.77209L3.29864 5.3347L3.52368 6.21611ZM10.0405 5.62069L9.35131 5.17529L8.68087 5.63006L8.86841 4.81429L8.25892 4.28919L9.07001 4.22356L9.35131 3.45467L9.66074 4.23293L10.4484 4.27982L9.82952 4.82367L10.0405 5.62069ZM8.11358 7.55698L7.65881 7.2663L7.20873 7.55698L7.32594 7.01313L6.91805 6.65212L7.45252 6.60524L7.65881 6.08952L7.86979 6.60524L8.39488 6.65212L7.99637 7.01313L8.11358 7.55698Z" fill="white"/>
</g>
<defs>
<clipPath id="clip0_720_53400">
<rect width="24.0044" height="24.0044" fill="white" transform="translate(0.0393066 0.0744629)"/>
</clipPath>
</defs>
</svg>
