<svg width="24" height="25" viewBox="0 0 24 25" fill="none" xmlns="http://www.w3.org/2000/svg">
<g clip-path="url(#clip0_720_53308)">
<path fill-rule="evenodd" clip-rule="evenodd" d="M0.000732422 12.0811H24.0051V24.0832H0.000732422V12.0811Z" fill="#19B6EF"/>
<path fill-rule="evenodd" clip-rule="evenodd" d="M0.000976562 0.0788574H24.0053V12.081H0.000976562V0.0788574Z" fill="white"/>
<path fill-rule="evenodd" clip-rule="evenodd" d="M11.8571 17.0413C14.4779 15.0816 17.3003 11.0777 13.995 8.97263C13.3761 8.85073 12.6869 8.88824 12.3541 9.15079C12.1806 9.04764 12.0446 9.05702 11.8665 9.24455C11.7446 9.09453 11.6227 9.0242 11.3648 9.1039C11.1257 8.9749 10.8634 8.8944 10.5931 8.86705C10.3227 8.83969 10.0497 8.86601 9.78954 8.9445C6.9062 10.6792 8.66902 14.7862 11.8524 17.0413H11.8571Z" fill="#FFDD00" stroke="#7D6C00" stroke-width="0.11252"/>
<path fill-rule="evenodd" clip-rule="evenodd" d="M16.7054 12.5874C16.7054 12.5874 17.0008 12.1889 17.0101 12.1889C17.3055 12.0154 17.3383 11.7904 17.3383 11.7904C17.6337 11.6966 17.5399 11.4575 17.5634 11.4247C17.6089 11.3788 17.6398 11.3205 17.6523 11.2571C17.6648 11.1938 17.6584 11.1281 17.6337 11.0684C17.6337 11.0262 17.7368 10.6511 17.5915 10.5995C17.6009 10.201 17.3524 10.2385 17.1555 10.5011C16.9445 10.562 16.8976 10.7355 16.968 10.923C16.696 10.923 16.6867 11.3215 16.7664 11.5466C16.4007 11.5372 16.6069 11.9451 16.5929 11.9685C16.471 12.0248 16.6867 12.6061 16.7054 12.5874ZM14.394 15.9958L14.5816 16.1083C14.6144 16.249 14.7457 16.3334 14.8441 16.3099C14.891 16.5256 15.1254 16.4975 15.2895 16.3709C15.4302 16.5678 15.5943 16.5725 15.8193 16.5069C16.0256 16.6569 16.2881 16.5912 16.4616 16.4318C16.6491 16.5866 16.7757 16.4787 16.8695 16.3099C17.0148 16.3475 17.132 16.324 17.1836 16.1787C17.4696 16.1552 17.3243 15.888 17.0898 15.7708C17.2774 15.6114 17.4884 15.2738 17.193 15.2222C17.0992 15.1566 16.9304 15.1707 16.7992 15.2316C16.7664 15.0816 16.5554 15.0441 16.3303 15.2129C16.2506 15.0441 15.9787 15.1238 15.8521 15.241C15.688 15.1004 15.4958 15.1004 15.2098 15.2644L14.394 15.9958ZM14.394 15.5598C14.4269 15.3723 14.3003 15.0347 14.4972 14.9972C14.4597 14.6878 14.5159 14.3362 14.8723 14.369C14.9332 14.0736 14.9191 13.797 15.2614 13.7595C15.2614 13.7595 15.538 12.7984 15.824 13.4641C15.9318 13.6517 15.9131 13.9705 15.688 13.9095C15.7349 14.1439 15.6552 14.3549 15.3927 14.3455C15.5099 14.5143 15.4724 14.7393 15.3458 14.8472L14.394 15.5598ZM16.0537 14.369L16.3491 14.308C16.6538 14.1017 16.7757 14.022 16.9304 14.2471C17.1836 14.1908 17.4274 14.2189 17.418 14.4205C17.7228 14.4393 17.7181 14.6315 17.6853 14.7862C17.7322 15.0535 17.6149 15.4051 17.4274 14.9785C16.8367 14.6175 16.5038 14.6643 15.5661 14.8753L16.0537 14.369ZM16.2084 14.0736C16.2178 14.0642 17.0852 13.8392 16.9914 13.5719C17.2352 13.5344 17.2868 13.2906 17.2961 13.2906C17.8072 13.1266 17.7743 12.8312 17.7743 12.8312C17.9197 12.6718 18.1775 12.5171 18.1213 12.2405C18.14 11.9263 18.1682 11.7294 17.7462 11.9357C17.4274 11.9029 17.3196 12.0857 17.2258 12.3577C17.0758 12.1842 16.8367 12.4655 16.8085 12.7187C16.8085 12.7187 16.4194 13.0937 16.4194 13.1031L16.0959 13.7032L16.2084 14.0736Z" fill="#4FD46B" stroke="#3A9D4F" stroke-width="0.11252" stroke-linejoin="round"/>
<path fill-rule="evenodd" clip-rule="evenodd" d="M16.2272 13.3985C16.0209 13.2438 15.9037 13.0562 15.9459 12.8687C15.8053 12.6858 15.7115 12.5733 15.8428 12.4139L15.7396 12.0389C15.4724 11.9357 15.5849 11.7107 15.6599 11.631C15.5349 11.4528 15.5302 11.2793 15.6459 11.1106C15.6459 10.7824 15.8756 10.9043 16.0678 11.1106C16.0678 11.1106 16.3819 11.3356 16.1475 11.5372C16.3819 11.6169 16.4523 11.8185 16.321 11.9029C16.5226 11.9967 16.5554 12.1795 16.4429 12.3014C16.6492 12.4655 16.5695 12.6765 16.6351 12.864L16.2272 13.3985Z" fill="#4FD46B" stroke="#3A9D4F" stroke-width="0.11252" stroke-linejoin="round"/>
<path fill-rule="evenodd" clip-rule="evenodd" d="M16.5976 11.8841C16.5835 11.8748 16.2459 11.4434 16.3397 11.4153C16.321 11.284 16.2178 11.1387 16.2788 11.0074C16.1147 10.8433 16.11 10.6464 16.2366 10.4917C16.124 10.337 16.1756 10.1307 16.3303 9.99942C16.2834 9.75093 16.4569 9.68999 16.6116 9.6431C16.7288 9.2399 16.9164 9.34305 17.0242 9.65248C17.1836 9.79313 17.1602 10.0041 17.1039 10.1635C17.2914 10.2901 17.1789 10.4495 17.0945 10.5198L16.5976 11.8841Z" fill="#4FD46B" stroke="#3A9D4F" stroke-width="0.11252" stroke-linejoin="round"/>
<path fill-rule="evenodd" clip-rule="evenodd" d="M16.546 9.73687L16.26 9.45088C16.3304 9.30085 16.3913 9.02893 16.1756 8.91172C16.0584 8.62104 15.4724 8.26473 15.3739 8.94923C15.2802 8.74294 15.0926 8.54134 14.952 8.78044C14.6472 8.51321 14.4831 8.59291 14.6425 8.93047C14.6425 8.93047 14.5019 9.15551 14.877 9.32898C14.9051 9.35711 14.7504 9.73687 15.2005 9.74625C15.1161 9.87283 15.2567 10.0557 15.4349 10.0416C15.3036 10.201 15.524 10.3698 15.6599 10.3042C15.599 10.4823 15.6037 10.5667 15.8475 10.5901L16.1288 10.9043L16.3491 11.2137L16.5413 9.73687H16.546Z" fill="#4FD46B" stroke="#3A9D4F" stroke-width="0.11252" stroke-linejoin="round"/>
<path d="M16.7194 12.4092C16.7288 12.3905 17.2633 11.1668 17.3336 10.7918M16.771 10.2292C16.771 10.2292 16.8648 11.2278 16.6163 11.9638M15.1348 9.22116C15.1348 9.22116 16.2271 10.2714 16.3303 10.7027M15.8943 9.10864C15.8943 9.10864 15.9693 9.9713 16.2693 10.8199M17.8259 12.2452C17.8259 12.2452 16.7335 13.1641 16.199 13.9705M16.7897 15.4707C16.7897 15.4707 15.3504 15.6676 14.7175 15.6817M16.3115 16.0896C16.3115 16.0896 14.53 16.0427 14.3987 15.9161M15.4254 13.7689C15.4254 13.7829 14.5206 15.2785 14.4878 15.7708" stroke="#3A9D4F" stroke-width="0.103144" stroke-linecap="round"/>
<path fill-rule="evenodd" clip-rule="evenodd" d="M11.8478 16.7553C9.95839 14.9737 8.0221 11.6262 9.94901 9.93844C10.2866 10.1307 10.6945 9.9572 11.2477 9.74153C11.4165 9.92438 11.6321 9.97126 11.8431 9.8353C12.0869 9.93375 12.2651 9.85405 12.3823 9.72278C12.9261 10.0416 13.6247 10.2057 13.7888 9.89156C15.6829 11.6919 13.7653 15.0487 11.8431 16.7553H11.8478Z" fill="#65C7FF" stroke="#7D6C00" stroke-width="0.11252"/>
<path fill-rule="evenodd" clip-rule="evenodd" d="M11.8572 16.7037C10.9931 15.8691 10.2766 14.8942 9.73804 13.8204C9.8318 13.736 9.87869 13.7125 9.93026 13.5672C10.2052 13.6163 10.487 13.6115 10.7601 13.5531C10.8351 13.8391 10.8539 14.0782 11.032 14.3173L11.4165 13.5672C11.6873 13.6355 11.9708 13.6355 12.2416 13.5672C12.401 13.7829 12.3448 14.1064 12.6261 14.3501C12.7948 13.8532 12.9636 13.8204 13.1324 13.5531C13.3809 13.6422 13.5403 13.6 13.7419 13.5391C13.8497 13.661 13.7982 13.6563 13.9951 13.8391C13.4664 14.917 12.7414 15.8869 11.8572 16.699V16.7037Z" fill="#8FC753"/>
<path fill-rule="evenodd" clip-rule="evenodd" d="M9.63477 8.29756C9.63477 8.34232 9.61699 8.38525 9.58534 8.4169C9.55369 8.44855 9.51076 8.46634 9.46599 8.46634C9.42123 8.46634 9.3783 8.44855 9.34665 8.4169C9.315 8.38525 9.29721 8.34232 9.29721 8.29756C9.29721 8.25279 9.315 8.20986 9.34665 8.17821C9.3783 8.14656 9.42123 8.12877 9.46599 8.12877C9.51076 8.12877 9.55369 8.14656 9.58534 8.17821C9.61699 8.20986 9.63477 8.25279 9.63477 8.29756ZM9.46131 7.90842C9.46131 7.95319 9.44352 7.99612 9.41187 8.02777C9.38022 8.05942 9.33729 8.0772 9.29252 8.0772C9.24776 8.0772 9.20483 8.05942 9.17318 8.02777C9.14153 7.99612 9.12374 7.95319 9.12374 7.90842C9.12374 7.86366 9.14153 7.82073 9.17318 7.78908C9.20483 7.75742 9.24776 7.73964 9.29252 7.73964C9.33729 7.73964 9.38022 7.75742 9.41187 7.78908C9.44352 7.82073 9.46131 7.86366 9.46131 7.90842ZM9.25502 7.55211C9.25909 7.5763 9.25784 7.6011 9.25136 7.62476C9.24487 7.64842 9.2333 7.67039 9.21746 7.68913C9.20161 7.70786 9.18188 7.72292 9.15962 7.73324C9.13736 7.74357 9.11312 7.74892 9.08858 7.74892C9.06405 7.74892 9.0398 7.74357 9.01755 7.73324C8.99529 7.72292 8.97555 7.70786 8.95971 7.68913C8.94386 7.67039 8.93229 7.64842 8.92581 7.62476C8.91932 7.6011 8.91807 7.5763 8.92215 7.55211C8.92877 7.51276 8.94913 7.47703 8.9796 7.45126C9.01007 7.4255 9.04868 7.41136 9.08858 7.41136C9.12849 7.41136 9.1671 7.4255 9.19757 7.45126C9.22804 7.47703 9.24839 7.51276 9.25502 7.55211ZM9.11437 7.20517C9.12034 7.22999 9.12061 7.25583 9.11515 7.28077C9.10969 7.3057 9.09865 7.32907 9.08285 7.34912C9.06706 7.36917 9.04692 7.38538 9.02396 7.39652C9.00099 7.40767 8.9758 7.41345 8.95027 7.41345C8.92475 7.41345 8.89956 7.40767 8.87659 7.39652C8.85363 7.38538 8.83349 7.36917 8.8177 7.34912C8.8019 7.32907 8.79086 7.3057 8.7854 7.28077C8.77994 7.25583 8.78021 7.22999 8.78618 7.20517C8.79505 7.16833 8.81606 7.13554 8.84583 7.11209C8.87559 7.08864 8.91238 7.07589 8.95027 7.07589C8.98817 7.07589 9.02496 7.08864 9.05472 7.11209C9.08449 7.13554 9.1055 7.16833 9.11437 7.20517ZM9.13781 6.82541C9.14188 6.84961 9.14064 6.8744 9.13415 6.89807C9.12766 6.92173 9.11609 6.94369 9.10025 6.96243C9.08441 6.98117 9.06467 6.99622 9.04241 7.00655C9.02015 7.01688 8.99591 7.02223 8.97137 7.02223C8.94684 7.02223 8.92259 7.01688 8.90034 7.00655C8.87808 6.99622 8.85834 6.98117 8.8425 6.96243C8.82665 6.94369 8.81508 6.92173 8.8086 6.89807C8.80211 6.8744 8.80086 6.84961 8.80494 6.82541C8.81156 6.78606 8.83192 6.75034 8.86239 6.72457C8.89286 6.6988 8.93147 6.68466 8.97137 6.68466C9.01128 6.68466 9.04989 6.6988 9.08036 6.72457C9.11083 6.75034 9.13118 6.78606 9.13781 6.82541ZM10.0239 6.20186C10.0239 6.22403 10.0195 6.24597 10.0111 6.26645C10.0026 6.28693 9.99015 6.30553 9.97447 6.32121C9.9588 6.33688 9.94019 6.34931 9.91972 6.35779C9.89924 6.36628 9.87729 6.37064 9.85513 6.37064C9.83296 6.37064 9.81102 6.36628 9.79054 6.35779C9.77006 6.34931 9.75145 6.33688 9.73578 6.32121C9.72011 6.30553 9.70768 6.28693 9.69919 6.26645C9.69071 6.24597 9.68635 6.22403 9.68635 6.20186C9.68635 6.1571 9.70413 6.11417 9.73578 6.08252C9.76743 6.05086 9.81036 6.03308 9.85513 6.03308C9.89989 6.03308 9.94282 6.05086 9.97447 6.08252C10.0061 6.11417 10.0239 6.1571 10.0239 6.20186ZM9.69103 6.25812C9.69511 6.28232 9.69386 6.30711 9.68737 6.33078C9.68089 6.35444 9.66932 6.3764 9.65347 6.39514C9.63763 6.41387 9.61789 6.42893 9.59563 6.43926C9.57338 6.44958 9.54913 6.45493 9.5246 6.45493C9.50006 6.45493 9.47582 6.44958 9.45356 6.43926C9.4313 6.42893 9.41157 6.41387 9.39572 6.39514C9.37988 6.3764 9.36831 6.35444 9.36182 6.33078C9.35534 6.30711 9.35409 6.28232 9.35816 6.25812C9.36479 6.21877 9.38514 6.18304 9.41561 6.15728C9.44608 6.13151 9.48469 6.11737 9.5246 6.11737C9.5645 6.11737 9.60311 6.13151 9.63358 6.15728C9.66405 6.18304 9.68441 6.21877 9.69103 6.25812ZM9.33003 6.47847C9.33003 6.50064 9.32567 6.52259 9.31718 6.54306C9.3087 6.56354 9.29627 6.58215 9.2806 6.59782C9.26492 6.61349 9.24632 6.62593 9.22584 6.63441C9.20536 6.64289 9.18342 6.64726 9.16125 6.64726C9.13909 6.64726 9.11714 6.64289 9.09666 6.63441C9.07618 6.62593 9.05758 6.61349 9.04191 6.59782C9.02623 6.58215 9.0138 6.56354 9.00532 6.54306C8.99684 6.52259 8.99247 6.50064 8.99247 6.47847C8.99247 6.43371 9.01025 6.39078 9.04191 6.35913C9.07356 6.32748 9.11649 6.30969 9.16125 6.30969C9.20601 6.30969 9.24894 6.32748 9.2806 6.35913C9.31225 6.39078 9.33003 6.43371 9.33003 6.47847ZM10.4505 6.20655C10.4505 6.25131 10.4328 6.29424 10.4011 6.3259C10.3695 6.35755 10.3265 6.37533 10.2818 6.37533C10.237 6.37533 10.1941 6.35755 10.1624 6.3259C10.1308 6.29424 10.113 6.25131 10.113 6.20655C10.113 6.16179 10.1308 6.11886 10.1624 6.0872C10.1941 6.05555 10.237 6.03777 10.2818 6.03777C10.3265 6.03777 10.3695 6.05555 10.4011 6.0872C10.4328 6.11886 10.4505 6.16179 10.4505 6.20655ZM10.9147 6.24406C10.9188 6.26825 10.9175 6.29305 10.911 6.31671C10.9045 6.34037 10.893 6.36234 10.8771 6.38107C10.8613 6.39981 10.8416 6.41487 10.8193 6.42519C10.797 6.43552 10.7728 6.44087 10.7483 6.44087C10.7237 6.44087 10.6995 6.43552 10.6772 6.42519C10.655 6.41487 10.6352 6.39981 10.6194 6.38107C10.6035 6.36234 10.592 6.34037 10.5855 6.31671C10.579 6.29305 10.5777 6.26825 10.5818 6.24406C10.5907 6.20722 10.6117 6.17443 10.6415 6.15098C10.6712 6.12753 10.708 6.11478 10.7459 6.11478C10.7838 6.11478 10.8206 6.12753 10.8504 6.15098C10.8801 6.17443 10.9011 6.20722 10.91 6.24406H10.9147ZM11.3273 6.22062C11.3313 6.24481 11.3301 6.2696 11.3236 6.29327C11.3171 6.31693 11.3056 6.3389 11.2897 6.35763C11.2739 6.37637 11.2541 6.39142 11.2319 6.40175C11.2096 6.41208 11.1854 6.41743 11.1608 6.41743C11.1363 6.41743 11.1121 6.41208 11.0898 6.40175C11.0675 6.39142 11.0478 6.37637 11.032 6.35763C11.0161 6.3389 11.0045 6.31693 10.9981 6.29327C10.9916 6.2696 10.9903 6.24481 10.9944 6.22062C11.001 6.18127 11.0214 6.14554 11.0518 6.11977C11.0823 6.094 11.1209 6.07987 11.1608 6.07987C11.2007 6.07987 11.2394 6.094 11.2698 6.11977C11.3003 6.14554 11.3206 6.18127 11.3273 6.22062Z" fill="white" stroke="black" stroke-width="0.0515719"/>
<path fill-rule="evenodd" clip-rule="evenodd" d="M12.2973 5.95313C12.2973 6.06747 12.2519 6.17712 12.171 6.25798C12.0902 6.33883 11.9805 6.38425 11.8662 6.38425C11.7518 6.38425 11.6422 6.33883 11.5613 6.25798C11.4805 6.17712 11.4351 6.06747 11.4351 5.95313C11.4462 5.84714 11.4961 5.74901 11.5753 5.67769C11.6545 5.60637 11.7573 5.56689 11.8638 5.56689C11.9704 5.56689 12.0732 5.60637 12.1524 5.67769C12.2316 5.74901 12.2815 5.84714 12.2926 5.95313H12.2973Z" fill="#FFDD00" stroke="#7D6C00" stroke-width="0.0515719"/>
<path fill-rule="evenodd" clip-rule="evenodd" d="M12.748 6.2159C12.748 6.26066 12.7302 6.30359 12.6985 6.33525C12.6669 6.3669 12.6239 6.38468 12.5792 6.38468C12.5344 6.38468 12.4915 6.3669 12.4598 6.33525C12.4282 6.30359 12.4104 6.26066 12.4104 6.2159C12.4104 6.17114 12.4282 6.12821 12.4598 6.09655C12.4915 6.0649 12.5344 6.04712 12.5792 6.04712C12.6239 6.04712 12.6669 6.0649 12.6985 6.09655C12.7302 6.12821 12.748 6.17114 12.748 6.2159ZM13.184 6.24872C13.1881 6.27291 13.1868 6.29771 13.1803 6.32137C13.1738 6.34504 13.1623 6.367 13.1464 6.38574C13.1306 6.40447 13.1108 6.41953 13.0886 6.42985C13.0663 6.44018 13.0421 6.44553 13.0175 6.44553C12.993 6.44553 12.9688 6.44018 12.9465 6.42985C12.9242 6.41953 12.9045 6.40447 12.8887 6.38574C12.8728 6.367 12.8613 6.34504 12.8548 6.32137C12.8483 6.29771 12.847 6.27291 12.8511 6.24872C12.8577 6.20937 12.8781 6.17364 12.9086 6.14787C12.939 6.12211 12.9776 6.10797 13.0175 6.10797C13.0574 6.10797 13.0961 6.12211 13.1265 6.14787C13.157 6.17364 13.1774 6.20937 13.184 6.24872ZM13.6059 6.22996C13.61 6.25416 13.6088 6.27895 13.6023 6.30262C13.5958 6.32628 13.5842 6.34825 13.5684 6.36698C13.5525 6.38572 13.5328 6.40077 13.5105 6.4111C13.4883 6.42143 13.464 6.42678 13.4395 6.42678C13.415 6.42678 13.3907 6.42143 13.3685 6.4111C13.3462 6.40077 13.3265 6.38572 13.3106 6.36698C13.2948 6.34825 13.2832 6.32628 13.2767 6.30262C13.2702 6.27895 13.269 6.25416 13.2731 6.22996C13.2797 6.19062 13.3 6.15489 13.3305 6.12912C13.361 6.10335 13.3996 6.08922 13.4395 6.08922C13.4794 6.08922 13.518 6.10335 13.5485 6.12912C13.5789 6.15489 13.5993 6.19062 13.6059 6.22996ZM13.9622 6.2159C13.9663 6.2401 13.9651 6.26489 13.9586 6.28855C13.9521 6.31222 13.9405 6.33418 13.9247 6.35292C13.9088 6.37165 13.8891 6.38671 13.8668 6.39704C13.8446 6.40736 13.8203 6.41271 13.7958 6.41271C13.7713 6.41271 13.747 6.40736 13.7248 6.39704C13.7025 6.38671 13.6828 6.37165 13.6669 6.35292C13.6511 6.33418 13.6395 6.31222 13.633 6.28855C13.6265 6.26489 13.6253 6.2401 13.6294 6.2159C13.636 6.17655 13.6564 6.14082 13.6868 6.11506C13.7173 6.08929 13.7559 6.07515 13.7958 6.07515C13.8357 6.07515 13.8743 6.08929 13.9048 6.11506C13.9353 6.14082 13.9556 6.17655 13.9622 6.2159ZM14.4076 6.26278C14.4076 6.30755 14.3899 6.35048 14.3582 6.38213C14.3266 6.41378 14.2836 6.43156 14.2389 6.43156C14.1941 6.43156 14.1512 6.41378 14.1195 6.38213C14.0879 6.35048 14.0701 6.30755 14.0701 6.26278C14.0701 6.21802 14.0879 6.17509 14.1195 6.14344C14.1512 6.11178 14.1941 6.094 14.2389 6.094C14.2836 6.094 14.3266 6.11178 14.3582 6.14344C14.3899 6.17509 14.4076 6.21802 14.4076 6.26278ZM14.7546 6.48314C14.7587 6.50733 14.7574 6.53213 14.7509 6.55579C14.7444 6.57945 14.7329 6.60142 14.717 6.62015C14.7012 6.63889 14.6814 6.65394 14.6592 6.66427C14.6369 6.6746 14.6127 6.67995 14.5881 6.67995C14.5636 6.67995 14.5394 6.6746 14.5171 6.66427C14.4948 6.65394 14.4751 6.63889 14.4593 6.62015C14.4434 6.60142 14.4319 6.57945 14.4254 6.55579C14.4189 6.53213 14.4176 6.50733 14.4217 6.48314C14.4283 6.44379 14.4487 6.40806 14.4792 6.38229C14.5096 6.35653 14.5482 6.34239 14.5881 6.34239C14.628 6.34239 14.6667 6.35653 14.6971 6.38229C14.7276 6.40806 14.7479 6.44379 14.7546 6.48314Z" fill="white" stroke="black" stroke-width="0.0515719"/>
<path fill-rule="evenodd" clip-rule="evenodd" d="M9.4707 7.66459L9.90203 8.48974H13.8637L14.3185 7.69272C14.0512 7.50987 13.8684 7.36922 13.4886 7.4583C13.2683 7.14418 13.0339 7.08323 12.6822 7.12074C12.5876 7.00874 12.4531 6.93809 12.3072 6.92383L11.4726 6.94727C11.257 6.96602 11.0882 7.1348 11.0788 7.1348C10.7225 7.08792 10.399 7.10199 10.3146 7.44424C9.99111 7.36453 9.76607 7.45361 9.4707 7.66459Z" fill="#E40000" stroke="#AC0000" stroke-width="0.11252"/>
<path fill-rule="evenodd" clip-rule="evenodd" d="M14.8998 6.84876C14.9039 6.87295 14.9026 6.89775 14.8962 6.92141C14.8897 6.94507 14.8781 6.96704 14.8623 6.98577C14.8464 7.00451 14.8267 7.01957 14.8044 7.02989C14.7822 7.04022 14.7579 7.04557 14.7334 7.04557C14.7088 7.04557 14.6846 7.04022 14.6624 7.02989C14.6401 7.01957 14.6204 7.00451 14.6045 6.98577C14.5887 6.96704 14.5771 6.94507 14.5706 6.92141C14.5641 6.89775 14.5629 6.87295 14.567 6.84876C14.5736 6.80941 14.5939 6.77368 14.6244 6.74791C14.6549 6.72215 14.6935 6.70801 14.7334 6.70801C14.7733 6.70801 14.8119 6.72215 14.8424 6.74791C14.8728 6.77368 14.8932 6.80941 14.8998 6.84876ZM14.928 7.23789C14.932 7.26209 14.9308 7.28688 14.9243 7.31054C14.9178 7.33421 14.9062 7.35617 14.8904 7.37491C14.8746 7.39364 14.8548 7.4087 14.8326 7.41903C14.8103 7.42935 14.7861 7.4347 14.7615 7.4347C14.737 7.4347 14.7127 7.42935 14.6905 7.41903C14.6682 7.4087 14.6485 7.39364 14.6326 7.37491C14.6168 7.35617 14.6052 7.33421 14.5987 7.31054C14.5923 7.28688 14.591 7.26209 14.5951 7.23789C14.6017 7.19854 14.6221 7.16281 14.6525 7.13705C14.683 7.11128 14.7216 7.09714 14.7615 7.09714C14.8014 7.09714 14.84 7.11128 14.8705 7.13705C14.901 7.16281 14.9213 7.19854 14.928 7.23789ZM14.8061 7.60358C14.8101 7.62778 14.8089 7.65257 14.8024 7.67623C14.7959 7.6999 14.7843 7.72186 14.7685 7.7406C14.7527 7.75933 14.7329 7.77439 14.7107 7.78472C14.6884 7.79504 14.6642 7.80039 14.6396 7.80039C14.6151 7.80039 14.5908 7.79504 14.5686 7.78472C14.5463 7.77439 14.5266 7.75933 14.5107 7.7406C14.4949 7.72186 14.4833 7.6999 14.4768 7.67623C14.4704 7.65257 14.4691 7.62778 14.4732 7.60358C14.4798 7.56423 14.5002 7.5285 14.5306 7.50274C14.5611 7.47697 14.5997 7.46283 14.6396 7.46283C14.6795 7.46283 14.7181 7.47697 14.7486 7.50274C14.7791 7.5285 14.7994 7.56423 14.8061 7.60358ZM14.6513 7.90364C14.6573 7.92845 14.6576 7.9543 14.6521 7.97923C14.6467 8.00417 14.6356 8.02754 14.6198 8.04759C14.604 8.06764 14.5839 8.08385 14.5609 8.09499C14.538 8.10613 14.5128 8.11192 14.4872 8.11192C14.4617 8.11192 14.4365 8.10613 14.4136 8.09499C14.3906 8.08385 14.3705 8.06764 14.3547 8.04759C14.3389 8.02754 14.3278 8.00417 14.3224 7.97923C14.3169 7.9543 14.3172 7.92845 14.3232 7.90364C14.332 7.86679 14.353 7.83401 14.3828 7.81056C14.4126 7.78711 14.4494 7.77436 14.4872 7.77436C14.5251 7.77436 14.5619 7.78711 14.5917 7.81056C14.6215 7.83401 14.6425 7.86679 14.6513 7.90364ZM14.4732 8.2787C14.4732 8.32347 14.4554 8.3664 14.4237 8.39805C14.3921 8.4297 14.3492 8.44748 14.3044 8.44748C14.2596 8.44748 14.2167 8.4297 14.1851 8.39805C14.1534 8.3664 14.1356 8.32347 14.1356 8.2787C14.1356 8.23394 14.1534 8.19101 14.1851 8.15936C14.2167 8.12771 14.2596 8.10992 14.3044 8.10992C14.3492 8.10992 14.3921 8.12771 14.4237 8.15936C14.4554 8.19101 14.4732 8.23394 14.4732 8.2787ZM12.129 7.80049C12.1339 7.83566 12.1311 7.87147 12.121 7.9055C12.1109 7.93953 12.0935 7.97099 12.0702 7.99776C12.0469 8.02454 12.0181 8.046 11.9858 8.06071C11.9535 8.07542 11.9184 8.08303 11.8829 8.08303C11.8474 8.08303 11.8123 8.07542 11.7799 8.06071C11.7476 8.046 11.7188 8.02454 11.6955 7.99776C11.6722 7.97099 11.6549 7.93953 11.6447 7.9055C11.6346 7.87147 11.6319 7.83566 11.6367 7.80049C11.645 7.74105 11.6744 7.6866 11.7196 7.64719C11.7649 7.60777 11.8229 7.58606 11.8829 7.58606C11.9429 7.58606 12.0008 7.60777 12.0461 7.64719C12.0913 7.6866 12.1208 7.74105 12.129 7.80049ZM12.1759 7.2332C12.1812 7.27543 12.1775 7.31831 12.1649 7.35899C12.1524 7.39966 12.1314 7.43721 12.1032 7.46913C12.075 7.50105 12.0404 7.52661 12.0016 7.54412C11.9628 7.56163 11.9207 7.57069 11.8782 7.57069C11.8356 7.57069 11.7935 7.56163 11.7547 7.54412C11.7159 7.52661 11.6813 7.50105 11.6532 7.46913C11.625 7.43721 11.604 7.39966 11.5914 7.35899C11.5789 7.31831 11.5752 7.27543 11.5805 7.2332C11.5805 7.15362 11.6121 7.0773 11.6684 7.02103C11.7246 6.96476 11.8009 6.93315 11.8805 6.93315C11.9601 6.93315 12.0364 6.96476 12.0927 7.02103C12.149 7.0773 12.1806 7.15362 12.1806 7.2332H12.1759Z" fill="white" stroke="black" stroke-width="0.0515719"/>
<path fill-rule="evenodd" clip-rule="evenodd" d="M12.138 6.67985C12.138 6.75131 12.1096 6.81985 12.0591 6.87038C12.0086 6.92091 11.94 6.9493 11.8686 6.9493C11.7971 6.9493 11.7286 6.92091 11.678 6.87038C11.6275 6.81985 11.5991 6.75131 11.5991 6.67985C11.5991 6.60839 11.6275 6.53985 11.678 6.48932C11.7286 6.43879 11.7971 6.4104 11.8686 6.4104C11.94 6.4104 12.0086 6.43879 12.0591 6.48932C12.1096 6.53985 12.138 6.60839 12.138 6.67985Z" fill="white" stroke="black" stroke-width="0.0515719"/>
<path fill-rule="evenodd" clip-rule="evenodd" d="M11.7772 5.53109V5.31553H11.5991L11.6038 5.15621H11.7584V5.01562H11.9787V5.14215H12.1521V5.31085H11.9693V5.53578L11.7772 5.53109Z" fill="#FFDD00" stroke="#7D6C00" stroke-width="0.0515719"/>
<path d="M9.87852 8.4897C9.5269 7.8849 9.0018 7.06912 9.3253 6.7175C9.77538 6.20647 10.8256 6.67061 11.496 6.37056C11.5429 6.94723 11.3835 7.89427 11.6413 8.09119L11.4022 8.30216C11.2569 8.11463 10.9803 7.86146 10.638 8.31154C10.4458 8.14276 10.2255 8.17089 10.1223 8.39593C10.0192 8.40999 10.0285 8.45219 9.87852 8.4897ZM13.8871 8.46625C14.2387 7.86614 14.7638 7.05037 14.4403 6.69406C13.9902 6.18771 12.94 6.64717 12.2696 6.35181C12.2227 6.92379 12.3821 7.87083 12.1242 8.07243L12.3633 8.27872C12.5978 7.95522 12.8791 7.94585 13.1229 8.29278C13.3198 8.11932 13.5214 8.14276 13.6433 8.37718C13.7464 8.39124 13.737 8.42875 13.8871 8.47094V8.46625Z" stroke="#FFDD00" stroke-width="0.154716"/>
<path fill-rule="evenodd" clip-rule="evenodd" d="M9.86924 8.93985C11.1871 8.81987 12.5131 8.81987 13.8309 8.93985L13.9856 8.48977C12.6026 8.2366 11.6461 8.20847 9.83643 8.45695L9.86924 8.93985Z" fill="#FFDD00" stroke="#7D6C00" stroke-width="0.11252"/>
<path fill-rule="evenodd" clip-rule="evenodd" d="M11.7068 16.5483L11.7396 16.3374C11.8802 16.3796 11.9879 16.3609 12.1051 16.3187L12.2269 16.1359L12.1332 16.0281C12.0535 16.0469 11.9926 16.1219 11.9364 16.1875C11.8567 16.1875 11.7864 16.15 11.7068 16.1359L11.6318 15.8126C11.5568 15.7235 11.3975 15.7329 11.4303 15.8922L11.449 16.0141C11.4772 16.0891 11.4912 16.1968 11.5428 16.2484V16.3796L11.7068 16.5483ZM11.7677 15.6345C11.6599 15.6861 11.5334 15.597 11.4022 15.5408C11.2803 15.5361 11.1819 15.6345 11.032 15.6064C11.0601 15.5267 11.1257 15.5127 11.1726 15.4658C11.1398 15.2596 11.2475 15.1893 11.2803 15.1893C11.3131 15.1893 11.4303 15.2221 11.4303 15.2221L11.5521 15.2362C11.6271 15.3674 11.7255 15.4892 11.7677 15.6345Z" fill="#C76E2E"/>
<path fill-rule="evenodd" clip-rule="evenodd" d="M11.0412 18.3868C11.3929 17.8102 13.8542 16.6615 16.1609 14.172C13.8167 16.4365 12.3446 16.9897 10.4224 18.3728L11.0412 18.3868Z" fill="#FFE100" stroke="#E9BF00" stroke-width="0.11252"/>
<path fill-rule="evenodd" clip-rule="evenodd" d="M14.4215 15.7379C14.4215 15.7852 14.4027 15.8305 14.3693 15.8639C14.3359 15.8973 14.2906 15.9161 14.2433 15.9161C14.1961 15.9161 14.1508 15.8973 14.1174 15.8639C14.084 15.8305 14.0652 15.7852 14.0652 15.7379C14.0652 15.6907 14.084 15.6453 14.1174 15.6119C14.1508 15.5785 14.1961 15.5597 14.2433 15.5597C14.2906 15.5597 14.3359 15.5785 14.3693 15.6119C14.4027 15.6453 14.4215 15.6907 14.4215 15.7379ZM16.1421 13.9985C16.1421 14.0526 16.1206 14.1045 16.0824 14.1427C16.0441 14.181 15.9923 14.2025 15.9382 14.2025C15.8841 14.2025 15.8322 14.181 15.794 14.1427C15.7557 14.1045 15.7342 14.0526 15.7342 13.9985C15.7342 13.9444 15.7557 13.8926 15.794 13.8543C15.8322 13.8161 15.8841 13.7946 15.9382 13.7946C15.9923 13.7946 16.0441 13.8161 16.0824 13.8543C16.1206 13.8926 16.1421 13.9444 16.1421 13.9985ZM16.7141 12.517C16.7141 12.5643 16.6953 12.6096 16.6619 12.643C16.6285 12.6764 16.5832 12.6952 16.5359 12.6952C16.4887 12.6952 16.4434 12.6764 16.41 12.643C16.3766 12.6096 16.3578 12.5643 16.3578 12.517C16.3578 12.4698 16.3766 12.4244 16.41 12.391C16.4434 12.3576 16.4887 12.3389 16.5359 12.3389C16.5832 12.3389 16.6285 12.3576 16.6619 12.391C16.6953 12.4244 16.7141 12.4698 16.7141 12.517ZM16.1515 10.5948C16.1515 10.642 16.1327 10.6873 16.0993 10.7208C16.0659 10.7542 16.0206 10.7729 15.9733 10.7729C15.9261 10.7729 15.8808 10.7542 15.8474 10.7208C15.814 10.6873 15.7952 10.642 15.7952 10.5948C15.7952 10.5475 15.814 10.5022 15.8474 10.4688C15.8808 10.4354 15.9261 10.4166 15.9733 10.4166C16.0206 10.4166 16.0659 10.4354 16.0993 10.4688C16.1327 10.5022 16.1515 10.5475 16.1515 10.5948Z" fill="#9D4916" stroke="#68300E" stroke-width="0.0515719"/>
<path fill-rule="evenodd" clip-rule="evenodd" d="M9.95836 13.5625V12.803L9.87866 12.7373V12.5592L10.0193 12.5451L10.0474 11.7012L9.95368 11.6496L9.9443 11.509C9.9443 11.509 10.0474 11.5465 10.0474 11.5184L10.0709 11.3543C10.0709 11.3543 10.0099 11.3402 10.0099 11.3121C10.0099 11.284 10.085 11.223 10.085 11.223C10.085 11.223 10.0474 11.1855 10.0381 11.1621L9.99587 11.0214L10.0334 10.8808L10.0099 10.8011L9.9443 10.6838L10.0381 10.5948L10.0099 10.4541C10.0099 10.4307 10.0709 10.3228 10.085 10.3135L10.2022 10.1587L10.4178 10.1072L10.6757 10.1447L10.8163 10.2385L10.8445 10.4682C10.8445 10.4682 10.8163 10.6088 10.807 10.6088L10.6897 10.6557C10.6897 10.6557 10.5632 10.6698 10.5491 10.6557C10.535 10.6417 10.5866 10.8104 10.5866 10.8104V10.9651L10.5725 11.1574C10.5725 11.1574 10.5725 11.2511 10.5632 11.2605L10.521 11.3121L10.5116 11.5043L10.7132 11.5559L10.7038 11.6731L10.5632 11.6872L10.5866 12.4701L10.7929 12.5076V12.728L10.6991 12.7749L10.6757 13.5625H9.95836ZM13.0761 13.5719V12.817L13.0011 12.7514V12.5733L13.1418 12.5592L13.1699 11.7153L13.0761 11.659L13.0667 11.5184C13.0667 11.5184 13.1699 11.5559 13.1699 11.5324L13.1933 11.3637C13.1933 11.3637 13.1277 11.3543 13.1277 11.3261C13.1277 11.298 13.2074 11.2371 13.2074 11.2371C13.2074 11.2371 13.1699 11.1996 13.1558 11.1714C13.1418 11.1433 13.1183 11.0308 13.1183 11.0308L13.1558 10.8901L13.1277 10.8151L13.0667 10.6979L13.1558 10.6041L13.1277 10.4635C13.1459 10.4123 13.1729 10.3648 13.2074 10.3228L13.3199 10.1728L13.5403 10.1212L13.7981 10.1587L13.9388 10.2525L13.9622 10.4776C13.9622 10.4776 13.9388 10.6182 13.9247 10.6182C13.9106 10.6182 13.8075 10.6745 13.8075 10.6745C13.8075 10.6745 13.6809 10.6838 13.6669 10.6745C13.6528 10.6651 13.709 10.8245 13.709 10.8245V10.9792L13.695 11.1714C13.695 11.1714 13.695 11.2652 13.6809 11.2746L13.6434 11.3261L13.6293 11.5184L13.8356 11.5699L13.8216 11.6872L13.6809 11.7012L13.709 12.4842L13.9106 12.5217V12.7373L13.8216 12.7889L13.7981 13.5719H13.0761ZM11.5008 13.6V12.8405L11.4211 12.7795V12.5967L11.5618 12.5873L11.5899 11.7387L11.4961 11.6872L11.4868 11.5465C11.4868 11.5465 11.5899 11.584 11.5899 11.5606L11.6134 11.3918C11.6134 11.3918 11.5477 11.3777 11.5477 11.3543C11.5477 11.3308 11.6274 11.2605 11.6274 11.2605L11.5758 11.1996C11.5618 11.1761 11.5383 11.0589 11.5383 11.0589L11.5758 10.9183L11.5477 10.8386L11.4868 10.726L11.5758 10.6323L11.5477 10.4916C11.5659 10.4405 11.5929 10.3929 11.6274 10.351L11.7446 10.1963L11.9603 10.1494L12.2182 10.1869L12.3588 10.276L12.3822 10.5057C12.3822 10.5057 12.3588 10.6463 12.3447 10.6463C12.3307 10.6463 12.2322 10.6979 12.2322 10.6979C12.2322 10.6979 12.1009 10.712 12.0916 10.6979C12.0822 10.6838 12.1291 10.8526 12.1291 10.8526V11.0073L12.115 11.1949C12.115 11.1949 12.115 11.2886 12.1009 11.3027L12.0634 11.3496L12.0494 11.5465L12.2557 11.5934L12.2416 11.7106L12.1009 11.7247L12.1291 12.5076L12.3354 12.5451V12.7655L12.2416 12.8124L12.2182 13.6H11.5008Z" fill="white" stroke="#A9A9A9" stroke-width="0.0515719"/>
<path fill-rule="evenodd" clip-rule="evenodd" d="M10.1458 13.5532V12.9577H10.4833V13.5813L10.1458 13.5532ZM11.721 13.6L11.7351 12.9906H12.0352V13.5907L11.7257 13.6047L11.721 13.6ZM13.2776 13.5907L13.2541 13.0187L13.5729 13.0046V13.6047L13.2776 13.5907ZM10.2301 11.7856H10.4177V12.0998H10.2301V11.7856ZM11.7492 11.7997H12.0117V12.0998H11.7492V11.7997ZM13.2963 11.8232H13.5307V12.1091H13.2963V11.8232Z" fill="black"/>
<path d="M10.3286 10.4307C10.5349 10.6604 10.549 10.6604 10.549 10.6604M11.8617 10.426C11.8945 10.5057 11.9602 10.6745 12.0399 10.6839M13.5026 10.4682C13.5026 10.4682 13.5636 10.6464 13.6573 10.6698" stroke="#A8A8A8" stroke-width="0.0515719"/>
<path fill-rule="evenodd" clip-rule="evenodd" d="M10.113 9.78375C10.7131 9.58683 9.97237 9.1977 9.85047 9.78375C9.65356 9.81188 9.63012 9.95721 9.20817 9.89158C8.19079 11.5513 8.94562 14.2189 11.918 16.9851C6.59207 12.4561 8.75808 9.10862 10.2302 9.23052C11.0319 9.28678 10.6287 10.2854 10.113 9.78375Z" fill="#B97700"/>
<path d="M10.2771 8.9304C10.2771 8.9304 10.7694 9.06168 10.7694 9.27265M10.7694 8.89758C10.7694 8.89758 11.1069 9.04292 11.182 9.17888M13.4371 8.95384C13.4371 8.95384 13.0057 9.00541 12.912 9.14138M12.7807 8.98666C12.7807 8.98666 12.5369 9.19764 12.5556 9.2539M12.7244 9.89151C12.6869 9.87276 12.5181 9.64772 12.5556 9.36642M11.0694 9.74149C11.0694 9.74149 11.182 9.61021 11.182 9.36642M11.8571 9.27265L11.8758 9.8165M12.3447 9.74149C12.3447 9.70398 12.4994 9.34766 12.3306 9.17888M11.3132 9.10387C11.3132 9.10387 11.182 9.46019 11.2757 9.76024M12.2743 9.42268C12.2743 9.42268 12.0681 9.47894 11.9743 9.57271M11.3882 9.47894C11.3882 9.46019 11.6133 9.42268 11.6883 9.55395" stroke="#7D6C00" stroke-width="0.11252"/>
<path fill-rule="evenodd" clip-rule="evenodd" d="M11.032 15.1754C11.0414 15.1754 11.2196 15.1426 11.2196 15.0535C11.3133 14.9972 11.243 14.8331 11.243 14.8331L11.0742 14.8003L10.8445 14.5378C10.8351 14.4581 10.8632 14.383 10.8117 14.3033C10.6523 14.3408 10.5632 14.4721 10.5069 14.6268C10.5491 14.6737 10.5538 14.7253 10.6241 14.7675C10.6991 14.7816 10.7507 14.7394 10.821 14.7534C10.8586 14.8144 10.8492 14.8706 10.8586 14.9269C10.9523 14.9972 10.9758 15.091 11.032 15.1754ZM10.8257 14.0642V13.7548L10.6054 13.7501C10.5773 13.797 10.5257 13.8158 10.4929 13.8579L10.3428 13.933C10.4038 14.0127 10.4835 14.0549 10.5304 14.0924C10.6429 14.1299 10.7413 14.1205 10.8257 14.0642ZM10.1319 14.519L10.0146 14.3174C10.0923 14.2969 10.1744 14.3018 10.2491 14.3315C10.2491 14.3315 10.3006 14.4581 10.2631 14.5049C10.2444 14.5518 10.1272 14.5284 10.1319 14.519ZM11.9603 14.7253C11.9943 14.7106 12.0244 14.6881 12.048 14.6596C12.0717 14.6311 12.0882 14.5973 12.0963 14.5612L11.8712 14.3033H11.6743C11.6274 14.2518 11.5524 14.2424 11.4915 14.2424C11.4915 14.2424 11.5571 14.3362 11.6368 14.3596C11.6978 14.4862 11.9462 14.7253 11.965 14.7253H11.9603ZM12.176 14.7581C12.2718 14.7151 12.3757 14.6928 12.4807 14.6925C12.4713 14.6128 12.6261 14.4252 12.6261 14.4252L12.9074 14.7909C12.8558 14.8331 12.7667 14.8191 12.6964 14.8331C12.6964 14.8331 12.5604 14.9644 12.5464 14.9691C12.5323 14.9738 12.2885 15.03 12.1713 14.9597C12.115 14.8566 12.1807 14.7394 12.176 14.7581ZM12.3354 14.1158C12.3682 13.9986 12.3823 13.8814 12.3354 13.7407C12.3354 13.7407 12.0166 13.7314 12.0166 13.7407L11.8056 13.8345C11.8056 13.8345 11.8759 14.0455 11.9556 14.022C11.9931 14.1346 12.101 14.1064 12.1525 14.1439L12.3354 14.1158ZM13.5778 13.797C13.5356 13.9283 13.5122 14.0689 13.5778 14.2002C13.6341 14.2096 13.6997 14.2471 13.7513 14.2377L14.0091 13.7782C13.8341 13.722 13.6903 13.7282 13.5778 13.797Z" fill="#C76E2E"/>
<path fill-rule="evenodd" clip-rule="evenodd" d="M13.6573 9.73682C13.0572 9.54929 13.798 9.15546 13.9199 9.73682C14.1168 9.76964 14.1402 9.91498 14.5622 9.85403C15.5748 11.509 14.8247 14.1814 11.8523 16.9428C17.1736 12.4139 15.0122 9.06639 13.5401 9.18828C12.7337 9.24454 13.1416 10.2432 13.6573 9.74151V9.73682Z" fill="#B97700"/>
<path fill-rule="evenodd" clip-rule="evenodd" d="M13.7177 14.3126C13.7083 14.3126 13.563 14.4204 13.563 14.4204L13.3569 14.5001L13.1366 14.5048L13.0898 14.3548L13.2585 14.2048C13.1179 14.1814 12.9726 14.2376 12.8601 14.3454C12.8601 14.3454 12.8601 14.5094 12.9539 14.5938C13.0234 14.6668 13.0986 14.7341 13.1788 14.7953C13.2913 14.814 13.3834 14.7969 13.4553 14.7437L13.7177 14.3126ZM12.5555 15.8215C12.6258 15.8403 13.1226 15.1842 13.1226 15.1842C13.0772 15.067 12.9905 14.9703 12.8789 14.9124C12.8789 14.9124 12.6352 15.1936 12.6305 15.292C12.593 15.3811 12.4852 15.7138 12.5321 15.7559C12.5274 15.7653 12.5087 15.8965 12.5555 15.8215Z" fill="#C76E2E"/>
<path fill-rule="evenodd" clip-rule="evenodd" d="M9.32064 15.9536C8.57988 15.3066 7.57657 14.9503 6.17944 15.4379C6.55451 15.5973 6.9624 15.6536 7.30934 15.8271L9.32064 15.9536Z" fill="#006800" stroke="#004100" stroke-width="0.11252" stroke-linejoin="round"/>
<path d="M7.17334 15.4941C8.6354 15.5223 9.06183 15.8878 8.98217 15.8269" stroke="#00A400" stroke-width="0.103144" stroke-linecap="round"/>
<path fill-rule="evenodd" clip-rule="evenodd" d="M9.34892 16.0285C8.9129 16.1129 8.3081 16.5349 8.12995 16.5161C7.65642 16.4599 7.20634 16.263 6.74688 16.1176C6.55466 16.0567 6.36244 16.1176 6.16553 16.1176C7.80645 15.3394 8.36905 15.4472 9.35361 16.0239L9.34892 16.0285Z" fill="#006800" stroke="#004100" stroke-width="0.103144" stroke-linejoin="round"/>
<path fill-rule="evenodd" clip-rule="evenodd" d="M8.2706 14.8846C8.2706 14.8846 7.72206 14.9597 7.47358 14.9784C7.23447 14.9597 6.87816 14.7346 6.48902 14.322C6.28273 14.097 5.81859 14.1251 5.81859 14.1251C6.85003 13.9048 7.64705 14.1111 8.2706 14.8846ZM7.52046 13.8204C6.77501 13.7735 5.84672 13.1031 5.63574 12.3107C5.63574 12.3248 5.90767 12.4842 5.86547 12.5264C7.08444 12.8358 7.16883 13.0843 7.52515 13.8204H7.52046ZM8.77225 15.1003C8.88008 14.4252 8.9129 13.9751 8.58472 13.5766C8.32686 13.2719 8.25653 13.089 8.069 12.6624C8.01743 13.5532 7.8252 14.2845 8.77225 15.1003ZM7.60016 13.225C8.15339 12.4186 8.24716 11.8091 8.16277 10.8527C8.10405 11.0404 8.03197 11.2237 7.9471 11.4012C7.12664 11.9169 7.49233 12.7233 7.60016 13.2297V13.225Z" fill="#006800" stroke="#004100" stroke-width="0.11252" stroke-linejoin="round"/>
<path fill-rule="evenodd" clip-rule="evenodd" d="M7.11245 9.32898C7.66568 10.1354 7.58129 10.8949 7.49221 11.856C7.43487 11.6684 7.36437 11.4851 7.28123 11.3075C6.45608 10.7917 7.00462 9.83063 7.11245 9.32898Z" fill="#006800" stroke="#004100" stroke-width="0.11252" stroke-linejoin="round"/>
<path fill-rule="evenodd" clip-rule="evenodd" d="M7.56714 10.5807C8.90801 9.90086 8.39229 9.04289 8.63608 8.38184C7.70779 9.07571 7.58589 9.81178 7.56714 10.576V10.5807Z" fill="#006800" stroke="#004100" stroke-width="0.11252" stroke-linejoin="round"/>
<path d="M7.75011 10.4073C7.91889 9.93848 8.25176 9.13208 8.28458 9.13208M7.35629 11.4012C7.32347 11.0637 7.15938 10.1635 7.14062 10.0744" stroke="#00A400" stroke-width="0.103144" stroke-linecap="round"/>
<path fill-rule="evenodd" clip-rule="evenodd" d="M7.41717 12.9062C6.66703 12.8593 5.86532 11.8419 5.64966 11.0496C5.64966 11.059 5.92627 11.2184 5.87939 11.2606C6.94833 11.7388 7.06085 12.1701 7.41717 12.9015V12.9062ZM7.19681 12.203C6.64359 11.3966 6.54513 10.7871 6.63421 9.83065C6.64828 9.90566 6.83112 10.3792 6.84519 10.3792C7.66565 10.8949 7.29996 11.7013 7.19681 12.2076V12.203ZM7.68909 10.7918C9.07684 10.1776 8.6502 9.53059 9.06278 8.85547C8.13449 9.54466 7.70316 10.0276 7.68909 10.7918Z" fill="#006800" stroke="#004100" stroke-width="0.11252" stroke-linejoin="round"/>
<path d="M7.75 10.6506C8.31233 10.0882 8.51383 9.61963 8.51383 9.61963" stroke="#00A400" stroke-width="0.103144" stroke-linecap="round"/>
<path fill-rule="evenodd" clip-rule="evenodd" d="M12.6776 18.4009L13.3527 18.415C11.1164 16.3146 6.82187 15.4004 7.42198 11.5419C6.79843 15.7286 10.9242 16.113 12.6776 18.4009Z" fill="#FFE100" stroke="#E9BF00" stroke-width="0.11252"/>
<path fill-rule="evenodd" clip-rule="evenodd" d="M7.77354 10.712C7.77354 10.7403 7.76796 10.7684 7.75712 10.7945C7.74628 10.8207 7.7304 10.8445 7.71037 10.8645C7.69034 10.8845 7.66657 10.9004 7.6404 10.9113C7.61424 10.9221 7.58619 10.9277 7.55787 10.9277C7.52955 10.9277 7.50151 10.9221 7.47534 10.9113C7.44917 10.9004 7.4254 10.8845 7.40537 10.8645C7.38535 10.8445 7.36946 10.8207 7.35862 10.7945C7.34779 10.7684 7.34221 10.7403 7.34221 10.712C7.34221 10.6548 7.36493 10.5999 7.40537 10.5595C7.44582 10.5191 7.50067 10.4963 7.55787 10.4963C7.61507 10.4963 7.66992 10.5191 7.71037 10.5595C7.75081 10.5999 7.77354 10.6548 7.77354 10.712ZM7.64226 11.8935C7.64226 11.9476 7.62078 11.9994 7.58253 12.0377C7.54428 12.0759 7.49241 12.0974 7.43832 12.0974C7.38423 12.0974 7.33236 12.0759 7.29411 12.0377C7.25586 11.9994 7.23438 11.9476 7.23438 11.8935C7.23438 11.8394 7.25586 11.7875 7.29411 11.7493C7.33236 11.711 7.38423 11.6895 7.43832 11.6895C7.49241 11.6895 7.54428 11.711 7.58253 11.7493C7.62078 11.7875 7.64226 11.8394 7.64226 11.8935ZM7.8298 13.5813C7.8298 13.6285 7.81103 13.6738 7.77761 13.7073C7.7442 13.7407 7.69889 13.7594 7.65164 13.7594C7.60439 13.7594 7.55907 13.7407 7.52566 13.7073C7.49225 13.6738 7.47348 13.6285 7.47348 13.5813C7.47348 13.534 7.49225 13.4887 7.52566 13.4553C7.55907 13.4219 7.60439 13.4031 7.65164 13.4031C7.69889 13.4031 7.7442 13.4219 7.77761 13.4553C7.81103 13.4887 7.8298 13.534 7.8298 13.5813ZM9.39571 15.4426C9.39571 15.4904 9.37669 15.5363 9.34284 15.5702C9.30899 15.604 9.26308 15.6231 9.2152 15.6231C9.16733 15.6231 9.12142 15.604 9.08757 15.5702C9.05372 15.5363 9.0347 15.4904 9.0347 15.4426C9.0347 15.3947 9.05372 15.3488 9.08757 15.3149C9.12142 15.2811 9.16733 15.262 9.2152 15.262C9.26308 15.262 9.30899 15.2811 9.34284 15.3149C9.37669 15.3488 9.39571 15.3947 9.39571 15.4426ZM9.62075 15.977C9.62075 16.0243 9.60198 16.0696 9.56857 16.103C9.53515 16.1364 9.48984 16.1552 9.44259 16.1552C9.39534 16.1552 9.35002 16.1364 9.31661 16.103C9.2832 16.0696 9.26443 16.0243 9.26443 15.977C9.26443 15.9298 9.2832 15.8845 9.31661 15.851C9.35002 15.8176 9.39534 15.7989 9.44259 15.7989C9.48984 15.7989 9.53515 15.8176 9.56857 15.851C9.60198 15.8845 9.62075 15.9298 9.62075 15.977Z" fill="#9D4916" stroke="#68300E" stroke-width="0.0515719"/>
<path fill-rule="evenodd" clip-rule="evenodd" d="M10.4087 17.5334C10.3087 17.4565 10.2284 17.3569 10.1744 17.2429L9.47153 17.1632L9.46216 17.5662L10.4134 17.5334H10.4087Z" fill="white" stroke="black" stroke-width="0.0515719"/>
<path fill-rule="evenodd" clip-rule="evenodd" d="M5.26593 17.0601C5.67381 17.1351 6.28799 17.0226 6.48959 17.2851C6.73338 17.557 5.73945 17.979 5.8801 18.2134C6.18484 18.5416 6.50365 18.4056 6.8459 18.2275C6.93029 18.0493 6.99124 17.7352 7.03344 17.6414C6.91154 17.3554 6.57398 17.2148 6.65837 16.7788C7.23035 16.5631 8.32273 16.5818 8.43994 16.6662C8.53371 16.8444 8.44932 16.9288 8.46807 17.0741C8.37431 17.2523 8.13051 17.5617 8.13051 17.7305C8.72593 17.9368 8.88065 17.693 9.41981 17.7071C10.048 17.7164 10.4325 17.8852 10.5685 17.6367C10.4747 17.4211 9.89802 17.5945 9.67767 17.4539C9.56984 17.4164 9.49951 17.332 9.40574 17.2335C9.31198 17.1351 9.04474 17.1304 9.00254 16.8913C9.11507 16.3802 9.85114 16.46 9.97303 16.3802L11.8953 16.5115C12.2422 16.5021 12.4391 17.1304 11.9703 17.3179C11.5014 17.5055 10.109 17.0366 9.50889 17.3648C9.47607 17.2288 9.04005 17.0319 9.01192 17.0226C8.82439 17.0788 8.46807 17.0601 8.46807 17.0601C8.37899 17.2242 8.28054 17.3414 8.19146 17.5055C7.79295 17.332 7.41788 17.6414 6.98186 17.5523L6.30205 17.6227L5.87072 17.5852L5.21436 17.7727L5.68319 17.3601L5.26593 17.0601Z" fill="white" stroke="black" stroke-width="0.0515719" stroke-linejoin="round"/>
<path fill-rule="evenodd" clip-rule="evenodd" d="M5.23781 16.9801C5.24204 17.0063 5.24054 17.033 5.23342 17.0585C5.22629 17.084 5.21372 17.1076 5.19656 17.1278C5.1794 17.1479 5.15807 17.1641 5.13405 17.1752C5.11002 17.1863 5.08387 17.1921 5.0574 17.1921C5.03093 17.1921 5.00478 17.1863 4.98075 17.1752C4.95673 17.1641 4.9354 17.1479 4.91824 17.1278C4.90108 17.1076 4.88851 17.084 4.88139 17.0585C4.87426 17.033 4.87276 17.0063 4.87699 16.9801C4.88392 16.9373 4.90588 16.8983 4.93893 16.8701C4.97199 16.842 5.01399 16.8265 5.0574 16.8265C5.10081 16.8265 5.14281 16.842 5.17587 16.8701C5.20892 16.8983 5.23088 16.9373 5.23781 16.9801ZM5.19095 17.8752C5.19095 17.9236 5.1717 17.9701 5.13743 18.0044C5.10315 18.0387 5.05667 18.0579 5.0082 18.0579C4.95973 18.0579 4.91324 18.0387 4.87897 18.0044C4.84469 17.9701 4.82544 17.9236 4.82544 17.8752C4.82544 17.8267 4.84469 17.7802 4.87897 17.7459C4.91324 17.7117 4.95973 17.6924 5.0082 17.6924C5.05667 17.6924 5.10315 17.7117 5.13743 17.7459C5.1717 17.7802 5.19095 17.8267 5.19095 17.8752Z" fill="white" stroke="black" stroke-width="0.0515719"/>
<path fill-rule="evenodd" clip-rule="evenodd" d="M13.3152 17.538C13.4323 17.4303 13.5026 17.36 13.5495 17.2428L14.2524 17.1678L14.2665 17.5708L13.3152 17.538Z" fill="white" stroke="black" stroke-width="0.0515719"/>
<path fill-rule="evenodd" clip-rule="evenodd" d="M18.4583 17.0647C18.0504 17.1397 17.4362 17.0272 17.2393 17.2897C16.9955 17.5617 17.9895 17.9836 17.8488 18.218C17.5394 18.5462 17.2253 18.4103 16.8783 18.2321C16.7986 18.0539 16.7377 17.7398 16.6908 17.6461C16.8174 17.3601 17.1549 17.2147 17.0659 16.7787C16.4986 16.5677 15.4062 16.5865 15.2843 16.6662C15.1905 16.849 15.2796 16.9334 15.2609 17.0741C15.3546 17.2616 15.5937 17.5664 15.5937 17.7304C14.9983 17.9414 14.8436 17.6976 14.3044 17.7117C13.6762 17.7211 13.2917 17.8898 13.1558 17.6367C13.2495 17.421 13.8262 17.5992 14.0466 17.4585C14.1544 17.421 14.2247 17.3319 14.3232 17.2382C14.4216 17.1444 14.6842 17.135 14.7217 16.8959C14.6092 16.3849 13.8731 16.4646 13.7512 16.3849L11.829 16.5162C11.482 16.5068 11.2898 17.135 11.7587 17.3226C12.2275 17.5101 13.6152 17.0413 14.22 17.3648C14.2529 17.2335 14.6842 17.0366 14.717 17.0272C14.8998 17.0835 15.2609 17.0647 15.2609 17.0647C15.3452 17.2241 15.4484 17.346 15.5375 17.5101C15.936 17.3319 16.311 17.6461 16.7471 17.557L17.4222 17.6273L17.8582 17.5898L18.5146 17.7773L18.0457 17.3648L18.4583 17.0647Z" fill="white" stroke="black" stroke-width="0.0515719" stroke-linejoin="round"/>
<path fill-rule="evenodd" clip-rule="evenodd" d="M18.491 16.9802C18.4868 17.0064 18.4883 17.0331 18.4954 17.0586C18.5025 17.0841 18.5151 17.1077 18.5323 17.1279C18.5494 17.148 18.5708 17.1642 18.5948 17.1753C18.6188 17.1864 18.645 17.1922 18.6714 17.1922C18.6979 17.1922 18.724 17.1864 18.7481 17.1753C18.7721 17.1642 18.7934 17.148 18.8106 17.1279C18.8277 17.1077 18.8403 17.0841 18.8474 17.0586C18.8546 17.0331 18.8561 17.0064 18.8518 16.9802C18.8518 16.9318 18.8326 16.8853 18.7983 16.851C18.764 16.8167 18.7176 16.7975 18.6691 16.7975C18.6206 16.7975 18.5741 16.8167 18.5399 16.851C18.5056 16.8853 18.4863 16.9318 18.4863 16.9802H18.491ZM18.5379 17.88C18.5337 17.9061 18.5352 17.9328 18.5423 17.9583C18.5494 17.9838 18.562 18.0075 18.5791 18.0276C18.5963 18.0478 18.6176 18.0639 18.6416 18.075C18.6657 18.0861 18.6918 18.0919 18.7183 18.0919C18.7448 18.0919 18.7709 18.0861 18.7949 18.075C18.819 18.0639 18.8403 18.0478 18.8575 18.0276C18.8746 18.0075 18.8872 17.9838 18.8943 17.9583C18.9014 17.9328 18.9029 17.9061 18.8987 17.88C18.8918 17.8371 18.8698 17.7981 18.8368 17.77C18.8037 17.7418 18.7617 17.7264 18.7183 17.7264C18.6749 17.7264 18.6329 17.7418 18.5998 17.77C18.5668 17.7981 18.5448 17.8371 18.5379 17.88Z" fill="white" stroke="black" stroke-width="0.0515719"/>
<path fill-rule="evenodd" clip-rule="evenodd" d="M11.8524 16.549C11.6883 16.5162 11.6321 16.5256 11.5243 16.5162L11.2666 17.3082C11.6602 17.341 12.0304 17.341 12.0304 17.341C11.7914 17.2941 11.8477 16.5537 11.8524 16.5444V16.549Z" fill="white"/>
<path d="M10.1743 17.0974V16.5585H10.268V17.0083H10.5211V17.0927L10.1743 17.0974Z" fill="black"/>
<path d="M10.5959 17.1208V16.5819H10.6897V17.1161L10.5959 17.1208Z" fill="black"/>
<path d="M11.0087 17.1583H10.8447V16.6288L11.0041 16.6194C11.0572 16.6194 11.0978 16.6303 11.1259 16.6522C11.1571 16.6803 11.1728 16.7162 11.1728 16.76C11.1728 16.8037 11.1524 16.8365 11.1118 16.8584C11.1774 16.8834 11.2102 16.9302 11.2102 16.999C11.2102 17.0521 11.1915 17.0927 11.154 17.1208C11.1196 17.1458 11.0728 17.1583 11.0134 17.1583H11.0087ZM10.9431 16.7037V16.8256H10.99C11.0494 16.8256 11.079 16.8037 11.079 16.76C11.079 16.7225 11.0509 16.7037 10.9947 16.7037H10.9431ZM10.9431 16.9005V17.0786H10.99C11.0306 17.0786 11.0603 17.0724 11.079 17.0599C11.1009 17.0505 11.1118 17.0286 11.1118 16.9943C11.1118 16.9599 11.1025 16.938 11.0837 16.9287C11.0681 16.9099 11.0369 16.9005 10.99 16.9005H10.9431Z" fill="black"/>
<path d="M11.4352 16.7365V16.8677H11.6086V16.952H11.4399V17.1114H11.6883V17.191H11.3462V16.6615H11.6836V16.7458L11.4352 16.7365Z" fill="black"/>
<path d="M12.1198 17.2005L11.9792 16.9755H11.9089V17.2005H11.8152V16.6756H11.8761L11.9605 16.6663C12.0979 16.6663 12.1666 16.7194 12.1666 16.8256C12.1666 16.8568 12.1588 16.8834 12.1432 16.9053C12.1213 16.9365 12.0963 16.9568 12.0682 16.9662L12.2369 17.2052L12.1198 17.2005ZM11.9089 16.7506V16.8912H11.9558L12.0354 16.8865C12.0573 16.874 12.0682 16.8521 12.0682 16.8209C12.0682 16.7897 12.0604 16.7694 12.0448 16.76C12.0229 16.7506 11.9886 16.7459 11.9417 16.7459H11.9089V16.7506Z" fill="black"/>
<path d="M12.4995 16.7364V17.1863H12.4058V16.7364H12.2371V16.6521H12.6776V16.7364H12.4995Z" fill="black"/>
<path d="M13.0432 17.1113L13.0011 17.0036H12.8136L12.7855 17.1113H12.6777L12.8933 16.5677H12.9355L13.151 17.1113H13.0432ZM12.9074 16.7271L12.8511 16.9286H12.9776L12.9074 16.7271Z" fill="black"/>
<path d="M13.2263 17.0692L13.2591 16.9848C13.2997 17.0067 13.3357 17.0176 13.3669 17.0176C13.4231 17.0176 13.4512 16.9989 13.4512 16.9614L13.4325 16.9145L13.3528 16.8536L13.2685 16.8021L13.2357 16.7552L13.2263 16.6943C13.2263 16.6506 13.2404 16.6146 13.2685 16.5865C13.2997 16.5646 13.3388 16.5537 13.3856 16.5537C13.4481 16.5537 13.495 16.5646 13.5262 16.5865L13.4934 16.6709C13.4622 16.6396 13.4263 16.624 13.3856 16.624C13.3638 16.624 13.3482 16.6302 13.3388 16.6427C13.3294 16.6552 13.3232 16.6709 13.32 16.6896C13.32 16.7208 13.3513 16.7521 13.4138 16.7833C13.4544 16.8021 13.4841 16.8193 13.5028 16.8349L13.5356 16.8817L13.5403 16.952C13.5403 16.9958 13.5247 17.0317 13.4934 17.0598C13.4622 17.0879 13.4169 17.102 13.3575 17.102C13.3044 17.102 13.2607 17.0879 13.2263 17.0598V17.0692Z" fill="black"/>
<path d="M7.56716 16.0098C8.07351 16.0708 8.77207 16.0286 9.07681 16.0098M6.80765 14.2892C7.2296 14.6268 8.16258 14.8237 8.14852 14.8237M8.6783 14.9175C8.54234 14.2142 8.39231 14.0501 8.27042 13.6047M6.09033 12.8124C6.80765 13.1359 6.91548 13.3469 7.37025 13.6657M7.62811 12.9624C7.68906 12.0998 7.81565 11.87 8.02662 11.6731M6.09033 11.5653L7.20147 12.7514M6.85453 10.7729C7.17334 11.0027 7.17334 11.8231 7.17334 11.8231" stroke="#00A400" stroke-width="0.103144" stroke-linecap="round"/>
</g>
<defs>
<clipPath id="clip0_720_53308">
<rect width="24.0044" height="24.0044" fill="white" transform="translate(0 0.0788574)"/>
</clipPath>
</defs>
</svg>
