<svg width="24" height="25" viewBox="0 0 24 25" fill="none" xmlns="http://www.w3.org/2000/svg">
<g clip-path="url(#clip0_720_53402)">
<path d="M0.00439453 0.0788574H24.0088V24.0832H0.00439453V0.0788574Z" fill="#12AD2B"/>
<path d="M0.00439453 6.93787H24.0088V17.2241H0.00439453V6.93787Z" fill="#FFCE00"/>
<path d="M0.00439453 0.0788574V24.0832L9.00603 12.081" fill="#D21034"/>
<path d="M12.9868 9.22888L12.0258 12.1866L13.5047 12.6672" fill="#000001"/>
<path d="M12.9868 9.22888L13.9479 12.1866L12.469 12.6672" fill="#000001"/>
<path d="M15.9448 11.3778H12.8349V12.9328" fill="#000001"/>
<path d="M15.9448 11.3778L13.4288 13.2058L12.5148 11.9478" fill="#000001"/>
<path d="M14.8142 14.8549L13.8532 11.8971L12.3743 12.3776" fill="#000001"/>
<path d="M14.8142 14.8549L12.2982 13.0269L13.2122 11.7689" fill="#000001"/>
<path d="M11.1584 14.8549L13.6745 13.0269L12.7605 11.7689" fill="#000001"/>
<path d="M11.1584 14.8549L12.1195 11.8971L13.5984 12.3776" fill="#000001"/>
<path d="M10.0288 11.3778L12.5448 13.2058L13.4588 11.9478" fill="#000001"/>
<path d="M10.0288 11.3778H13.1388V12.9328" fill="#000001"/>
<path d="M19.9773 9.22888L19.0163 12.1866L20.4951 12.6672" fill="#000001"/>
<path d="M19.9773 9.22888L20.9383 12.1866L19.4594 12.6672" fill="#000001"/>
<path d="M22.9341 11.3778H19.8241V12.9328" fill="#000001"/>
<path d="M22.9341 11.3778L20.4181 13.2058L19.5041 11.9478" fill="#000001"/>
<path d="M21.8047 14.8549L20.8437 11.8971L19.3648 12.3776" fill="#000001"/>
<path d="M21.8047 14.8549L19.2887 13.0269L20.2027 11.7689" fill="#000001"/>
<path d="M18.1489 14.8549L20.6649 13.0269L19.7509 11.7689" fill="#000001"/>
<path d="M18.1489 14.8549L19.11 11.8971L20.5888 12.3776" fill="#000001"/>
<path d="M17.019 11.3778L19.5351 13.2058L20.4491 11.9478" fill="#000001"/>
<path d="M17.019 11.3778H20.129V12.9328" fill="#000001"/>
</g>
<defs>
<clipPath id="clip0_720_53402">
<rect width="24.0044" height="24.0044" fill="white" transform="translate(0.00439453 0.0788574)"/>
</clipPath>
</defs>
</svg>
