<svg width="25" height="25" viewBox="0 0 25 25" fill="none" xmlns="http://www.w3.org/2000/svg">
<g clip-path="url(#clip0_720_53307)">
<mask id="mask0_720_53307" style="mask-type:luminance" maskUnits="userSpaceOnUse" x="0" y="0" width="25" height="25">
<path d="M0.0078125 0.0788574H24.0085V24.0795H0.0078125V0.0788574Z" fill="white"/>
</mask>
<g mask="url(#mask0_720_53307)">
<path fill-rule="evenodd" clip-rule="evenodd" d="M-5.99268 0.0788574H30.0084V24.0795H-5.99268V0.0788574Z" fill="#165D31"/>
<path fill-rule="evenodd" clip-rule="evenodd" d="M3.08016 6.88227C3.04145 7.44358 2.98823 8.4307 3.46727 8.53232C4.0431 8.58555 3.72373 7.55487 3.9318 7.371C3.97535 7.27422 4.04793 7.27422 4.05277 7.39519V8.26618C4.04793 8.55651 4.23181 8.63394 4.37698 8.69684C4.53182 8.68233 4.6286 8.68716 4.6915 8.83233L4.75924 10.3469C4.75924 10.3469 5.11248 10.4437 5.127 9.49525C5.14635 8.93878 5.0157 8.46942 5.09313 8.36296C5.09313 8.25651 5.22861 8.25167 5.32539 8.30006C5.47539 8.40651 5.54314 8.542 5.7754 8.48393C6.13348 8.38715 6.34639 8.21296 6.35607 7.94198C6.34376 7.6751 6.28819 7.41199 6.19154 7.16293C6.20606 7.11454 6.11896 6.99357 6.13832 6.94518C6.20122 7.04195 6.298 7.03712 6.32219 6.94518C6.25929 6.74195 6.16735 6.55323 6.01251 6.47097C5.8867 6.35968 5.70282 6.38387 5.63508 6.61614C5.62714 6.92115 5.73032 7.21865 5.92541 7.45326C5.98625 7.58474 6.01129 7.72997 5.99799 7.87424C5.89476 7.9323 5.79798 7.91456 5.70766 7.82101C5.70766 7.82101 5.42217 7.60326 5.42217 7.55971C5.49959 7.07583 5.44152 7.0226 5.39797 6.88711C5.36894 6.70324 5.28184 6.64517 5.20926 6.51936C5.13668 6.44194 5.04474 6.44194 4.99635 6.51936C4.87054 6.73711 4.92861 7.20164 5.02054 7.40971C5.08829 7.60326 5.18506 7.72423 5.13668 7.72423C5.09796 7.83069 5.02054 7.80649 4.96248 7.68068C4.89053 7.41419 4.85633 7.13892 4.86086 6.86292C4.83667 6.64517 4.81247 6.18548 4.66731 6.06935C4.58021 5.95321 4.44956 6.01128 4.40601 6.11773C4.39377 6.32746 4.39863 6.53784 4.42053 6.74679C4.5173 7.0855 4.54634 7.39519 4.59472 7.74843C4.60924 8.22263 4.31891 7.9565 4.33343 7.71939C4.40117 7.41455 4.38181 6.93066 4.32375 6.80969C4.27536 6.68872 4.22213 6.65969 4.11084 6.67904C4.01406 6.66936 3.78664 6.92098 3.72373 7.3468C3.72373 7.3468 3.66567 7.56455 3.64147 7.75327C3.6076 7.97101 3.46727 8.12586 3.36566 7.72423C3.27856 7.4339 3.22533 6.71291 3.08016 6.88227Z" fill="white"/>
<path fill-rule="evenodd" clip-rule="evenodd" d="M4.64726 9.18538L3.14795 9.90602C3.16246 9.56747 3.85891 8.94839 4.33289 8.93872C4.64243 8.94839 4.56504 9.05963 4.64726 9.18055V9.18538Z" fill="white"/>
<path fill-rule="evenodd" clip-rule="evenodd" d="M4.38669 9.65495C3.59312 11.6921 6.23513 11.9776 6.5303 9.73721C6.55933 9.64528 6.67547 9.55334 6.68998 9.70334C6.62708 11.7357 4.64799 11.8711 4.30927 11.2324C4.22701 11.0873 4.20282 10.7485 4.19314 10.5453C4.14475 10.1485 3.93184 10.3034 3.90281 10.7001C3.86894 10.9179 3.87377 10.9808 3.87377 11.1937C3.98023 12.7905 6.53514 12.1034 6.95128 10.7824C7.16903 10.0517 6.91257 9.50979 7.03354 9.50979C7.28516 9.7856 7.64324 9.5485 7.72066 9.45172C7.75453 9.40333 7.83679 9.3743 7.89486 9.4372C8.08841 9.58237 8.44165 9.50979 8.51423 9.26301C8.55617 9.01784 8.58359 8.76461 8.59649 8.50331C8.43681 8.5517 8.31584 8.58557 8.30616 8.64847L8.27229 8.87106C8.25777 8.9388 8.11744 8.94364 8.11261 8.8517C8.0497 8.57589 7.79808 8.53718 7.64324 8.96784C7.54162 9.05494 7.35291 9.06461 7.33355 8.94364C7.35775 8.65331 7.24161 8.6146 7.00935 8.75009L6.78192 7.05649C6.8787 7.05649 6.97064 7.12424 7.05774 7.01294C6.96096 6.70809 6.75289 6.09356 6.6416 6.04517C6.58353 5.97743 6.53998 6.02098 6.4674 6.03549C6.34159 6.0742 6.22546 6.18066 6.26417 6.38873L6.65127 8.81783C6.67063 8.91945 6.58353 9.05977 6.47224 9.04526C6.28352 8.91461 6.23513 8.65815 5.91577 8.66783C5.67867 8.66783 5.41253 8.92429 5.3835 9.17107C5.33995 9.36462 5.32543 9.57753 5.3835 9.74689C5.54318 9.94045 5.74157 9.92593 5.91577 9.87754C6.0561 9.81947 6.17223 9.67915 6.22545 9.71302C6.25933 9.75657 6.23029 10.2211 5.55286 10.584C5.14639 10.7679 4.81735 10.8066 4.64315 10.4727C4.5367 10.2646 4.65283 9.47108 4.38669 9.65011V9.65495Z" fill="white"/>
<path fill-rule="evenodd" clip-rule="evenodd" d="M7.73995 7.57905C7.89963 7.52583 8.64966 6.65967 8.64966 6.65967L8.53836 6.57257C8.49643 6.53386 8.49643 6.49677 8.53836 6.46128C8.72224 6.35483 8.66417 6.11288 8.5674 6.00643C8.50475 5.97338 8.43499 5.9561 8.36417 5.9561C8.29334 5.9561 8.22358 5.97338 8.16093 6.00643C8.03028 6.13708 8.00125 6.33547 8.10287 6.46128C8.19964 6.50967 8.3061 6.60645 8.23836 6.66451C7.92867 6.99355 7.08671 7.5597 7.18349 7.58389C7.20284 7.60809 7.72544 7.60809 7.73995 7.58389V7.57905ZM3.19627 10.6275C2.91562 11.0775 2.89143 11.7501 3.05111 11.9485C3.12853 12.0453 3.26402 12.084 3.36563 12.055C3.54467 11.9776 3.62209 11.6195 3.57854 11.4888C3.5237 11.3921 3.46886 11.3824 3.41402 11.4598C3.28821 11.7114 3.23498 11.5372 3.22531 11.3969C3.20595 11.1308 3.23015 10.8791 3.25918 10.6856C3.28821 10.492 3.25918 10.5453 3.19627 10.6275ZM15.2498 9.9017C14.9789 9.3162 14.6014 8.73554 14.4805 8.51295C14.1156 7.93509 13.7282 7.37174 13.3191 6.82419C13.0288 6.4758 13.7982 6.96936 13.2224 6.2774C13.0046 6.08385 12.9901 6.07901 12.8062 5.92417C12.7143 5.85642 12.4917 5.74029 12.453 5.93385C12.4343 6.07259 12.4409 6.21357 12.4723 6.34999C12.4917 6.44676 12.632 6.60645 12.7046 6.70322C13.624 7.93713 14.4418 9.19039 15.2257 10.7582C15.3515 10.7001 15.3224 10.0033 15.2498 9.9017Z" fill="white"/>
<path fill-rule="evenodd" clip-rule="evenodd" d="M14.0546 11.8711C14.0014 11.934 14.1853 12.1905 14.4272 12.1905C14.8337 12.1421 15.1869 11.9147 15.516 11.3195C15.6031 11.1743 15.7579 10.884 15.7628 10.6469C15.7966 9.29203 15.695 8.23716 15.4918 7.25971C15.4821 7.16294 15.4918 7.0468 15.5063 7.01777C15.5305 6.98874 15.6176 7.01777 15.666 6.94519C15.7337 6.8726 15.4821 6.2871 15.3418 6.06452C15.2885 5.9629 15.2692 5.89516 15.1869 6.0742C15.095 6.21936 15.0418 6.47582 15.0418 6.71292C15.2353 8.04845 15.2982 9.21945 15.424 10.5501C15.4337 10.6808 15.4144 10.8695 15.3273 10.9421C14.9731 11.3378 14.5395 11.6544 14.0546 11.8711ZM19.5129 11.8663C19.2225 12.0308 19.2225 12.2244 19.4596 12.234C19.8613 12.1857 20.3403 12.1518 20.6694 11.6534C20.7564 11.5131 20.8629 11.1356 20.8677 10.9082C20.8968 9.55333 20.8484 8.53717 20.6452 7.55972C20.6355 7.46294 20.5919 7.2452 20.6064 7.21616C20.6355 7.14842 20.7661 7.221 20.8145 7.14358C20.8823 7.07584 20.4758 6.5484 20.3306 6.32098C20.2774 6.2242 20.258 6.15646 20.1758 6.33549C20.0838 6.48066 20.0548 6.74196 20.0887 6.96938C20.3064 8.42104 20.4661 9.50978 20.4952 10.7921C20.4806 10.9179 20.4758 10.9856 20.4177 11.1356C20.2919 11.3002 20.1516 11.5034 20.0161 11.6002C19.8855 11.6969 19.6048 11.7937 19.5129 11.8663Z" fill="white"/>
<path fill-rule="evenodd" clip-rule="evenodd" d="M19.7306 10.5646V9.67907C19.7269 9.45842 19.6775 9.24093 19.5855 9.04034C19.4984 8.84679 19.5516 8.69678 19.5129 8.48871C19.4742 8.28548 19.4839 7.97579 19.4258 7.73385C19.4064 7.63707 19.3581 7.33707 19.3774 7.30803C19.3968 7.24029 19.4887 7.30803 19.5323 7.23061C19.6 7.15803 19.3 6.38381 19.15 6.16607C19.0951 6.06929 19.0032 6.10155 18.8742 6.26284C18.7629 6.36446 18.8064 6.6064 18.85 6.83383C19.1403 8.34839 19.3532 9.72262 19.3097 11.1598C19.2952 11.2856 19.7355 10.7968 19.7306 10.5646ZM17.587 8.6871C17.408 8.6871 17.0257 8.32903 16.9096 8.1258C16.8934 8.07671 16.8872 8.02487 16.8913 7.97335C16.8955 7.92182 16.9099 7.87165 16.9338 7.82579C17.0015 7.7774 17.108 7.72901 17.1854 7.7774C17.1854 7.7774 17.2628 7.89353 17.2483 7.90805C17.3451 7.95644 17.3935 7.92741 17.4032 7.88386C17.408 7.81611 17.3693 7.77256 17.3693 7.6903C17.4177 7.48223 17.6596 7.44836 17.7467 7.58385C17.8145 7.66611 17.8387 7.84031 17.8483 7.96128C17.8483 8.01934 17.7516 7.94676 17.6935 7.96128C17.6403 7.98063 17.6257 8.04354 17.6209 8.1016C17.6112 8.25645 17.5919 8.50323 17.587 8.68227V8.6871ZM14.2192 10.942C14.2676 10.4775 14.2047 9.65971 14.1998 9.38874C14.1805 8.74517 14.074 7.50159 14.0256 7.29836C13.9676 6.90641 14.1853 7.3419 14.1563 7.11448C14.0837 6.72737 13.866 6.4564 13.6143 6.09832C13.5321 5.98703 13.5369 5.96283 13.4063 6.12735C13.2708 6.44672 13.3918 6.66447 13.4256 6.91125C13.6095 7.71934 13.716 8.45968 13.7643 9.19518C13.8186 9.96019 13.8251 10.7278 13.7837 11.4936C13.924 11.5033 14.1466 11.2711 14.2192 10.942Z" fill="white"/>
<path fill-rule="evenodd" clip-rule="evenodd" d="M20.3548 10.2017C20.0306 9.66458 19.5467 9.07908 19.4161 8.86133C18.9828 8.25309 18.5277 7.66075 18.0515 7.08547C17.6499 6.66449 18.2354 7.01773 17.9741 6.69353C17.7515 6.45158 17.6838 6.37416 17.4999 6.229C17.4031 6.16609 17.3451 6.04996 17.316 6.24835C17.3015 6.42255 17.2918 6.62578 17.3015 6.77579C17.3015 6.85805 17.3886 7.00805 17.4612 7.09999C18.429 8.29519 19.4935 9.51941 20.35 11.0533C20.471 10.9856 20.4322 10.2985 20.35 10.2017H20.3548Z" fill="white"/>
<path fill-rule="evenodd" clip-rule="evenodd" d="M5.75604 9.2049C5.73185 9.24842 5.67865 9.30163 5.698 9.34999C5.73024 9.39513 5.77216 9.4177 5.82375 9.4177C5.87211 9.4177 5.9495 9.42737 5.96401 9.39836C5.98242 9.37758 5.99449 9.35195 5.99878 9.32451C6.00306 9.29708 5.99939 9.26899 5.98819 9.24359C5.93982 9.10816 5.78506 9.15653 5.75604 9.2049Z" fill="#165D31"/>
<path fill-rule="evenodd" clip-rule="evenodd" d="M16.6144 17.0777C17.045 17.0922 17.3257 17.097 17.708 17.1406L18.1531 17.0922C18.6515 17.0438 18.6757 17.8035 18.6757 17.8035C18.6709 18.2487 18.4967 18.268 18.2789 18.3164C18.1531 18.3357 18.0854 18.2438 18.0225 18.147C17.9418 18.1793 17.8305 18.1857 17.6886 18.1664L17.1563 18.1422C16.9628 18.1277 16.8612 18.1664 16.6724 18.147C16.6289 18.2099 16.5757 18.2922 16.4644 18.268C16.3676 18.2583 16.2515 17.9825 16.2853 17.7793C16.3531 17.6293 16.3337 17.6777 16.3289 17.6099C14.5675 17.5664 12.7965 17.489 11.0691 17.5131C9.71418 17.5131 8.3835 17.5712 7.05281 17.6293C6.3415 17.6196 5.79471 17.5035 5.42212 16.9518C5.45599 16.9518 7.23669 17.0583 7.75444 17.0244C8.72221 17.0099 9.59805 16.9325 10.5803 16.9035C12.5159 16.9373 14.4272 16.9373 16.3628 17.0728C16.1789 16.947 16.1692 16.647 16.4595 16.5744C16.4789 16.5599 16.4934 16.7196 16.537 16.7196C16.7595 16.7051 16.6628 17.0099 16.6144 17.0777ZM8.85286 6.41767C8.56253 7.25479 9.01738 8.16933 9.33675 8.08223C9.56901 8.17901 9.71418 7.73867 9.81096 7.25963C9.87386 7.12414 9.92225 7.10962 9.95612 7.17737C9.94644 7.81609 10.0045 7.95642 10.169 8.14997C10.2637 8.23448 10.3855 8.28239 10.5123 8.28505C10.6392 8.28771 10.7629 8.24496 10.861 8.16449L11.1465 7.87416C11.211 7.80964 11.29 7.80642 11.3836 7.86448C11.4707 7.94674 11.4562 8.08223 11.6449 8.17901C11.7997 8.24191 12.1384 8.19352 12.2159 8.05804C12.3175 7.879 12.3465 7.81609 12.3949 7.74835C12.4675 7.65157 12.5933 7.69028 12.5933 7.72416C12.5836 7.77738 12.511 7.83545 12.5594 7.93223C12.6465 7.99997 12.6707 7.95642 12.7239 7.9419C12.9078 7.8548 13.0481 7.44834 13.0481 7.44834C13.053 7.30318 12.9707 7.31285 12.9175 7.34189L12.7723 7.4435C12.6756 7.45802 12.5014 7.51608 12.4143 7.3806C12.3272 7.22091 12.3223 6.99349 12.2546 6.82897C12.2546 6.81929 12.1384 6.57251 12.2497 6.55799C12.303 6.56767 12.4239 6.5967 12.4433 6.49993C12.5014 6.40315 12.3175 6.12734 12.1917 5.98701C12.0852 5.87088 11.9304 5.85636 11.7852 5.97733C11.6884 6.07411 11.6981 6.17088 11.6788 6.2725C11.6635 6.34318 11.6643 6.41638 11.681 6.48672C11.6978 6.55706 11.7301 6.62275 11.7755 6.67896C11.8771 6.87736 12.0659 7.13382 12.003 7.50157C12.003 7.50157 11.8917 7.67093 11.7029 7.64673C11.6255 7.62738 11.4997 7.59835 11.432 7.09511C11.3836 6.71284 11.4416 6.18056 11.282 5.93378C11.2239 5.77894 11.1852 5.63377 11.04 5.89507C11.0013 5.99185 10.8368 6.14669 10.9529 6.46605C11.0636 6.7473 11.097 7.05305 11.0497 7.35156C10.982 7.45318 10.9674 7.49189 10.8755 7.59351C10.7545 7.72416 10.619 7.69028 10.5174 7.6419C10.4207 7.57899 10.3432 7.54512 10.2997 7.33705C10.3094 7.00801 10.3239 6.47089 10.2658 6.35476C10.1787 6.18056 10.0335 6.24347 9.97064 6.29669C9.6892 6.60763 9.50134 6.99175 9.42869 7.40479C9.34643 7.67093 9.25933 7.59835 9.19642 7.48705C9.04642 7.34189 9.03674 6.23379 8.85286 6.41767Z" fill="white"/>
<path fill-rule="evenodd" clip-rule="evenodd" d="M9.73354 8.24191C9.86903 8.14513 9.80613 8.08223 10.0045 8.28062C10.2596 8.72975 10.4085 9.23126 10.44 9.74679C10.4255 9.86776 10.5126 9.94035 10.5513 9.91615C10.5707 9.6355 11.2626 9.23871 11.8917 9.18065C11.9884 9.16129 11.9401 8.97742 11.9546 8.88064C11.9159 8.53224 12.1481 8.21288 12.482 8.18868C12.9272 8.25643 13.0772 8.49353 13.0869 8.85644C13.0385 9.55808 12.3078 9.67905 11.8965 9.72744C11.8336 9.75647 11.8094 9.7855 11.8965 9.81938L13.6143 9.82421L13.7014 9.8726C13.7111 9.92099 13.6772 9.88228 13.6046 9.99357C13.532 10.1049 13.4401 10.3662 13.4353 10.5355C12.9203 10.6858 12.392 10.7863 11.8578 10.8355C11.6675 10.9323 11.5868 11.0533 11.6159 11.1984C11.6788 11.3581 12.0949 11.513 12.0949 11.5227C12.1723 11.571 12.2643 11.6872 12.0707 11.9194C11.2336 11.8856 10.5852 11.5275 10.3626 11.0242C10.2949 10.9759 10.2174 11.0243 10.1739 11.092C9.88187 11.5392 9.46204 11.8882 8.96901 12.0936C8.63513 12.1759 8.29641 12.0452 8.13672 11.8275C8.03027 11.7017 8.03511 11.5662 7.99156 11.5372C7.81252 11.6146 6.26893 12.2727 6.46732 11.9678C6.83991 11.5614 7.49316 11.2662 8.06414 10.8694C8.11253 10.7388 8.18511 10.2887 8.41254 10.1436C8.42222 10.1436 8.37383 10.4049 8.37867 10.5162C8.37222 10.6097 8.37705 10.6436 8.39318 10.6178C8.43189 10.5936 9.12869 10.0468 9.18192 9.87744C9.24966 9.78067 9.20127 9.53872 9.20127 9.52905C9.07546 9.19033 8.89159 9.16613 8.82384 8.99677C8.76094 8.77418 8.78997 8.52256 8.91578 8.44998C9.03191 8.34998 9.1545 8.35643 9.28353 8.46934C9.4287 8.59515 9.54967 8.84193 9.58838 9.0258C9.56419 9.09839 9.4045 8.97742 9.34644 9.01613C9.43676 9.1129 9.49644 9.23388 9.52548 9.37904C9.62225 9.76615 9.58838 9.91131 9.50128 10.1629C9.19159 10.8113 8.79481 11.0097 8.44641 11.2468C8.43673 11.2517 8.43189 11.4162 8.56254 11.5033C8.61093 11.5517 8.78997 11.571 8.99804 11.5033C9.45026 11.2529 9.81627 10.8717 10.0481 10.4097C10.111 10.0613 10.0239 9.69357 9.93194 9.3742C9.82647 9.11947 9.72964 8.86125 9.64161 8.59999C9.63193 8.40643 9.64645 8.33869 9.73838 8.24191H9.73354ZM5.24309 6.43218C5.43665 6.52412 5.80924 6.48057 5.79472 6.16605L5.78504 6.01604C5.74633 5.91926 5.63504 5.94346 5.61085 6.04507C5.60117 6.07411 5.62536 6.12733 5.59633 6.14185C5.57697 6.15637 5.51407 6.14669 5.51891 6.05959C5.51568 6.02733 5.50439 6.00152 5.48504 5.98217C5.47536 5.97572 5.46084 5.97249 5.44149 5.97249C5.41245 5.97249 5.41729 5.98217 5.39794 6.00636L5.38342 6.07895C5.38342 6.1112 5.37052 6.12733 5.34471 6.12733C5.32051 6.12733 5.32535 6.12733 5.306 6.11766C5.28987 6.10798 5.28019 6.09346 5.27696 6.07411L5.26729 5.99669L5.2189 5.96765C5.1076 5.96765 5.10277 6.09346 5.1076 6.14185C5.09793 6.14669 5.09309 6.36928 5.24309 6.43218Z" fill="white"/>
<path fill-rule="evenodd" clip-rule="evenodd" d="M11.0305 8.88064C11.2241 8.97742 11.6983 8.91935 11.5822 8.6145L11.5725 8.46934C11.5338 8.37256 11.4273 8.39675 11.3983 8.49353C11.3934 8.52256 11.4128 8.57579 11.3838 8.59031C11.3693 8.60966 11.3064 8.59999 11.3064 8.51289C11.3031 8.48063 11.2918 8.45482 11.2725 8.43546C11.266 8.42901 11.2515 8.42579 11.2289 8.42579C11.1951 8.42579 11.2047 8.43063 11.1902 8.45482L11.1757 8.5274C11.1692 8.55966 11.1563 8.57579 11.137 8.57579C11.108 8.57579 11.1176 8.57579 11.0934 8.56611C11.0773 8.55644 11.0676 8.54192 11.0644 8.52256C11.0644 8.4903 11.0612 8.4645 11.0547 8.44514C11.0451 8.43224 11.0289 8.42417 11.0063 8.42095C10.8999 8.42095 10.8902 8.54192 10.895 8.59031C10.8902 8.59998 10.8854 8.81773 11.0305 8.88064ZM14.4081 7.86448C14.6016 7.96126 14.9742 7.91771 14.9597 7.60318L14.95 7.45318C14.9113 7.3564 14.8 7.3806 14.7758 7.47737C14.7661 7.51124 14.7903 7.55963 14.7613 7.57415C14.7419 7.5935 14.679 7.58383 14.6839 7.49673C14.6774 7.46447 14.6661 7.43866 14.65 7.41931C14.6403 7.41285 14.6242 7.40963 14.6016 7.40963C14.579 7.40963 14.5661 7.42092 14.5629 7.4435L14.5484 7.51608C14.5484 7.54512 14.5355 7.56125 14.5097 7.56447C14.4855 7.56447 14.4903 7.56447 14.471 7.54995C14.4548 7.5435 14.4452 7.5306 14.4419 7.51124C14.4419 7.47899 14.4371 7.45156 14.4274 7.42898C14.4177 7.41608 14.4016 7.40802 14.379 7.40479C14.2726 7.40479 14.2677 7.5306 14.2726 7.57415C14.2629 7.58383 14.258 7.80641 14.4081 7.86448ZM16.15 10.4146C15.8113 10.8017 15.9613 11.4404 16.0387 11.5759C16.1549 11.8081 16.242 11.9533 16.4646 12.0646C16.6678 12.2098 16.8226 12.1178 16.9097 12.0162C17.113 11.8081 17.113 11.271 17.2097 11.1646C17.2775 10.971 17.442 11.0049 17.5243 11.092C17.599 11.1972 17.6988 11.282 17.8146 11.3388C18.0082 11.5097 18.2195 11.5259 18.4485 11.3872C18.5985 11.3001 18.7001 11.1888 18.7872 10.971C18.884 10.7049 18.8356 9.48549 18.8114 8.76451C18.8066 8.70644 18.6179 7.7677 18.6179 7.75803C18.6179 7.74835 18.5888 7.27898 18.5695 7.16769C18.5695 7.12414 18.5549 7.10962 18.6033 7.1193C18.6517 7.15801 18.6614 7.16285 18.6904 7.17736C18.7388 7.18704 18.7872 7.09994 18.7582 7.01768L18.284 6.14669C18.2501 6.11282 18.2017 6.07411 18.1388 6.16121C18.1022 6.19313 18.0729 6.23255 18.0528 6.2768C18.0328 6.32105 18.0225 6.36909 18.0227 6.41766L18.0856 7.04188L18.2791 8.09674C18.3372 8.85161 18.3517 9.46614 18.4098 10.2258C18.4001 10.5404 18.3033 10.821 18.2066 10.8549C18.2066 10.8549 18.0662 10.942 17.9743 10.8549C17.9017 10.821 17.6259 10.3904 17.6259 10.3904C17.4807 10.2597 17.3936 10.2936 17.2872 10.3904C17.0162 10.6565 16.8904 11.1597 16.7017 11.5033C16.6533 11.5807 16.513 11.6485 16.3629 11.4985C15.9758 10.9662 16.2033 10.221 16.1549 10.4146H16.15ZM14.4952 6.01604C14.6742 6.08862 14.7952 6.45154 14.7564 6.62574C14.7226 6.83864 14.6258 7.07575 14.5629 7.04188C14.4855 7.01768 14.6113 6.82897 14.5387 6.63057C14.5 6.50476 14.258 6.26766 14.2822 6.19992C14.2339 6.05475 14.3887 5.99185 14.4952 6.01604Z" fill="white"/>
<path fill-rule="evenodd" clip-rule="evenodd" d="M16.7259 10.6275C16.7597 10.192 16.6968 9.93073 16.6871 9.67911C16.6775 9.42749 16.3968 7.50163 16.3484 7.30807C16.2758 6.94516 16.6146 7.25969 16.5758 7.04678C16.4597 6.78064 16.1742 6.39353 16.0823 6.16611C16.0291 6.06933 16.0484 5.97739 15.9274 6.13707C15.823 6.42485 15.7866 6.73289 15.821 7.0371C16.1113 8.55166 16.4065 9.80976 16.3581 11.2517C16.4984 11.2517 16.6581 10.9372 16.7259 10.6227V10.6275ZM19.7453 6.6258C19.9098 6.70806 20.0018 7.15807 19.9872 7.28388C19.9534 7.52098 19.8663 7.76776 19.8034 7.73873C19.7405 7.7097 19.8179 7.39033 19.784 7.29356C19.7501 7.15323 19.5324 6.90161 19.5517 6.82419C19.5082 6.66935 19.6485 6.6016 19.7453 6.63063V6.6258ZM7.75947 9.80976C7.91431 9.87266 8.00141 10.1969 7.98689 10.2936C7.95786 10.4678 7.8756 10.6517 7.81753 10.6324C7.75946 10.613 7.82721 10.3759 7.79818 10.3033C7.78366 10.1243 7.57075 10.0323 7.57559 9.95976C7.53688 9.8146 7.66753 9.7904 7.75947 9.8146V9.80976Z" fill="white"/>
<path fill-rule="evenodd" clip-rule="evenodd" d="M11.4897 10.3081C11.6832 10.3177 11.7847 10.4773 11.6009 10.5402C11.4172 10.6031 11.2382 10.6514 11.2382 10.9174C11.3059 11.2899 11.1415 11.1593 11.0447 11.1109C10.9335 11.0287 10.6143 10.8352 10.5708 10.4096C10.5659 10.3129 10.6433 10.2258 10.7691 10.2258C10.9625 10.2742 11.243 10.2839 11.4849 10.3081H11.4897Z" fill="#165D31"/>
<path fill-rule="evenodd" clip-rule="evenodd" d="M3.63669 5.90959C3.86412 5.97733 3.87863 6.31121 3.85928 6.41283C3.83025 6.59186 3.74799 6.78058 3.68992 6.75638C3.63185 6.73219 3.68992 6.49509 3.66089 6.41767C3.62701 6.31121 3.43346 6.11766 3.45765 6.05959C3.40927 5.94346 3.54475 5.89023 3.63669 5.91442V5.90959ZM8.13198 7.48705C7.95778 7.58383 7.89004 7.86448 7.99649 8.029C8.09811 8.17417 8.25779 8.12094 8.28199 8.12094C8.45135 8.1403 8.55296 7.79674 8.55296 7.79674C8.55296 7.79674 8.5578 7.69996 8.35941 7.88384C8.27231 7.89835 8.26263 7.86932 8.23844 7.82093C8.21888 7.72983 8.22905 7.63485 8.26747 7.54996C8.2965 7.46769 8.22876 7.42898 8.13198 7.48705ZM9.43847 5.77894C9.35621 5.84184 9.17717 6.02088 9.17233 6.22895C9.17233 6.34508 9.14814 6.34508 9.22072 6.4225C9.27879 6.49993 9.33686 6.49509 9.44815 6.43702C9.47585 6.41907 9.49958 6.39565 9.51789 6.36819C9.53619 6.34072 9.54869 6.30981 9.5546 6.27734C9.58364 6.14185 9.41428 6.34024 9.39492 6.19024C9.35621 6.05475 9.46267 5.99669 9.56428 5.8612C9.56428 5.76926 9.56428 5.70635 9.44331 5.77894H9.43847ZM10.4982 5.97249C10.456 6.14223 10.4301 6.3156 10.4208 6.49025C10.3917 6.6209 10.5562 6.67412 10.6337 6.50476C10.745 6.19992 10.745 6.06927 10.7546 5.93862C10.7208 5.74506 10.5853 5.74506 10.4982 5.96765V5.97249ZM17.1516 9.35485C17.171 9.33065 18.0903 8.67741 18.0903 8.67741C18.1823 8.64837 18.1629 9.01613 18.1194 9.01613C17.8356 9.29156 17.5087 9.51875 17.1516 9.68873C17.1032 9.71776 17.0597 9.43711 17.1516 9.35001V9.35485ZM17.9839 9.35001C18.1436 9.42743 18.2113 9.90164 18.1919 10.0274C18.1968 10.2791 18.0371 10.4775 17.9742 10.4436C17.9065 10.4146 17.979 10.1339 17.95 10.0371C17.9161 9.8968 17.7758 9.6355 17.8 9.56292C17.7516 9.40323 17.8871 9.32097 17.9839 9.35001ZM12.545 11.3823C12.6079 11.2855 12.8015 11.1549 12.8063 11.1549C12.8982 11.1065 12.9853 11.1888 12.9805 11.1839C12.995 11.2759 12.9224 11.3581 12.9466 11.4791C12.966 11.5275 12.9805 11.5807 13.0724 11.5614C13.2176 11.4501 13.3531 11.4404 13.4983 11.4307C13.6096 11.4404 13.6096 11.6243 13.5418 11.6291C13.2708 11.6872 13.1547 11.7598 12.9612 11.8323C12.8692 11.8856 12.7918 11.8178 12.7918 11.813C12.7918 11.8081 12.7434 11.7598 12.7773 11.6388C12.7805 11.542 12.7434 11.4968 12.666 11.5033C12.6031 11.5323 12.5499 11.5517 12.5208 11.4839C12.5015 11.442 12.5095 11.4081 12.545 11.3823ZM18.9468 11.6339C18.9855 11.6823 19.0146 11.7307 18.9468 11.813L18.7726 11.9581C18.7387 12.0162 18.7242 12.0936 18.8162 12.1178C18.9855 12.1662 19.3823 11.9098 19.3823 11.9049C19.4452 11.8565 19.4259 11.7646 19.4162 11.7646C19.3823 11.721 19.2952 11.7452 19.242 11.7404C19.2129 11.7404 19.1258 11.7259 19.1646 11.6485C19.2033 11.6001 19.2129 11.571 19.2371 11.5081C19.2694 11.4533 19.2388 11.4097 19.1452 11.3775C19.0484 11.363 19.0097 11.3726 18.9033 11.3775C18.8404 11.392 18.821 11.4162 18.8065 11.4888C18.8162 11.5952 18.8791 11.5904 18.9516 11.6339H18.9468Z" fill="white"/>
<path fill-rule="evenodd" clip-rule="evenodd" d="M12.579 8.97258C12.5548 9.02097 12.4677 9.01613 12.3854 8.97258C12.3031 8.92903 12.2644 8.85161 12.2886 8.80806C12.3128 8.76451 12.3999 8.76451 12.4822 8.80806C12.5644 8.85161 12.6031 8.92903 12.579 8.97258ZM8.40303 6.46606C8.35464 6.48057 8.29173 6.43703 8.2627 6.36928C8.23367 6.30154 8.24818 6.24831 8.29657 6.23379C8.34496 6.21928 8.40787 6.26767 8.4369 6.33057C8.46593 6.39348 8.45141 6.45638 8.40303 6.46606ZM16.6629 17.6583C17.0984 17.6777 17.5146 17.6632 17.9501 17.6873C18.0323 17.7503 17.9743 17.9196 17.921 17.9051L17.5533 17.8954C17.5533 17.7551 17.1904 17.7793 17.2049 17.9003C17.0113 17.9245 16.8371 17.8954 16.6436 17.8857C16.5855 17.8132 16.5952 17.6873 16.6629 17.6583Z" fill="#165D31"/>
</g>
</g>
<defs>
<clipPath id="clip0_720_53307">
<rect width="24.0044" height="24.0044" fill="white" transform="translate(0.00878906 0.0788574)"/>
</clipPath>
</defs>
</svg>
