<svg width="25" height="25" viewBox="0 0 25 25" fill="none" xmlns="http://www.w3.org/2000/svg">
<g clip-path="url(#clip0_720_53300)">
<mask id="mask0_720_53300" style="mask-type:luminance" maskUnits="userSpaceOnUse" x="0" y="0" width="25" height="25">
<path d="M0.0300293 0.0788574H24.0324V24.0846H0.0300293V0.0788574Z" fill="white"/>
</mask>
<g mask="url(#mask0_720_53300)">
<path fill-rule="evenodd" clip-rule="evenodd" d="M-0.907715 0.0788574H35.0992V24.0846H-0.907715V0.0788574Z" fill="white"/>
<path fill-rule="evenodd" clip-rule="evenodd" d="M-0.907715 0.0788574H35.0992V12.08H-0.907715V0.0788574Z" fill="#DF0000"/>
<path fill-rule="evenodd" clip-rule="evenodd" d="M7.39772 2.0909C6.45017 2.29392 5.60135 2.81683 4.99383 3.57179C4.3863 4.32676 4.05707 5.26779 4.06144 6.23683C4.06581 7.20587 4.40351 8.14389 5.01783 8.89334C5.63214 9.6428 6.48564 10.158 7.43498 10.3525C6.79578 10.5396 6.12186 10.5755 5.46638 10.4576C4.8109 10.3396 4.1918 10.071 3.65791 9.6728C3.12402 9.27464 2.68996 8.75787 2.38996 8.16325C2.08997 7.56864 1.93225 6.91244 1.92924 6.24644C1.92624 5.58044 2.07804 4.92285 2.37266 4.32555C2.66728 3.72826 3.09666 3.20759 3.62693 2.80463C4.15721 2.40167 4.77386 2.12744 5.42825 2.00358C6.08264 1.87972 6.75686 1.90961 7.39772 2.0909Z" fill="white"/>
<path fill-rule="evenodd" clip-rule="evenodd" d="M5.93439 5.57972L5.29419 5.11228L6.0902 5.1055L6.33409 4.35014L6.58813 5.1055H7.38076L6.74395 5.57972L6.98783 6.33509L6.34086 5.87103L5.69728 6.33848L5.93439 5.57972ZM6.81508 8.18455L6.1715 7.7171L6.96751 7.71033L7.21478 6.95496L7.46544 7.70694H8.26145L7.61787 8.18116L7.86514 8.93653L7.22156 8.47585L6.57797 8.9433L6.81508 8.18455ZM9.73831 8.16422L9.09473 7.69678L9.88735 7.69L10.1346 6.93464L10.3853 7.69H11.1847L10.5445 8.16422L10.7918 8.91959L10.1448 8.45553L9.5012 8.92298L9.73831 8.16422ZM10.6088 5.58311L9.96526 5.11566L10.7613 5.10889L11.0052 4.35352L11.2592 5.1055H12.0518L11.415 5.57972L11.6589 6.33509L11.0119 5.87442L10.3683 6.34186L10.6088 5.58311ZM8.29533 3.87253L7.65174 3.40508L8.44775 3.39831L8.69503 2.64294L8.94569 3.39831H9.7417L9.09811 3.87253L9.34539 4.62451L8.7018 4.16384L8.05822 4.63128L8.29533 3.87253Z" fill="white"/>
</g>
</g>
<defs>
<clipPath id="clip0_720_53300">
<rect width="24.0044" height="24.0044" fill="white" transform="translate(0.0305176 0.0788574)"/>
</clipPath>
</defs>
</svg>
