<svg width="25" height="25" viewBox="0 0 25 25" fill="none" xmlns="http://www.w3.org/2000/svg">
<g clip-path="url(#clip0_720_53340)">
<mask id="mask0_720_53340" style="mask-type:luminance" maskUnits="userSpaceOnUse" x="0" y="0" width="25" height="25">
<path d="M0.0341797 0.0788574H24.039V24.0837H0.0341797V0.0788574Z" fill="white"/>
</mask>
<g mask="url(#mask0_720_53340)">
<path fill-rule="evenodd" clip-rule="evenodd" d="M0.0341797 0.0788574H36.0414V12.0813H16.0374L0.0341797 0.0788574Z" fill="#ED2939"/>
<path fill-rule="evenodd" clip-rule="evenodd" d="M0.0341797 24.0837H36.0414V12.0813H16.0374L0.0341797 24.0837Z" fill="#002395"/>
<path fill-rule="evenodd" clip-rule="evenodd" d="M0.0341797 0.0788574L16.0374 12.0813L0.0341797 24.0837V0.0788574Z" fill="white"/>
<path d="M8.11053 9.1366L8.11587 8.95523C8.11587 8.95523 8.01452 8.7952 8.13187 8.6245C8.13187 8.6245 7.88649 8.49114 7.94517 8.28843C7.94517 8.28843 7.72112 8.23508 7.73713 7.9897C7.73713 7.9897 7.49708 7.9737 7.47041 7.76566C7.47041 7.76566 7.23036 7.80833 7.129 7.60562C7.129 7.60562 6.89429 7.65363 6.82494 7.48827C6.82494 7.48827 6.6009 7.56828 6.4622 7.37624C6.4622 7.37624 6.22215 7.47226 6.1208 7.29089C6.02478 7.47226 5.78473 7.37624 5.78473 7.37624C5.65137 7.56828 5.42199 7.48293 5.42199 7.48293C5.35798 7.65363 5.12327 7.60562 5.12327 7.60562C5.01658 7.803 4.77653 7.76566 4.77653 7.76566C4.75519 7.96836 4.50981 7.98437 4.50981 7.98437C4.52127 8.05059 4.50731 8.11871 4.47072 8.17508C4.43412 8.23146 4.37759 8.27194 4.31244 8.28843C4.36578 8.49114 4.12573 8.61916 4.12573 8.61916C4.24309 8.78986 4.14174 8.94989 4.14174 8.94989V9.1206L8.11053 9.1366Z" fill="#FFFF00"/>
<path d="M8.11209 9.13877V8.95069C8.11209 8.95069 8.01535 8.78947 8.13358 8.62826C8.13358 8.62826 7.88636 8.49391 7.94548 8.2897C7.94548 8.2897 7.71975 8.23596 7.73588 7.98877C7.73588 7.98877 7.49403 7.97264 7.46716 7.76843C7.46716 7.76843 7.23068 7.80605 7.12857 7.60722C7.12857 7.60722 6.89209 7.65021 6.8276 7.489C6.8276 7.489 6.5965 7.5696 6.46214 7.37614C6.46214 7.37614 6.22029 7.47287 6.12355 7.29016C6.02144 7.47287 5.77959 7.37614 5.77959 7.37614C5.6506 7.56423 5.4195 7.48362 5.4195 7.48362C5.35501 7.65021 5.12391 7.60722 5.12391 7.60722C5.01642 7.80605 4.77457 7.76843 4.77457 7.76843C4.75307 7.96727 4.51123 7.98339 4.51123 7.98339C4.52132 8.04928 4.50655 8.11657 4.4698 8.17218C4.43306 8.2278 4.37694 8.26777 4.31237 8.28433C4.36612 8.48854 4.12427 8.61751 4.12427 8.61751C4.2425 8.78948 4.14039 8.95069 4.14039 8.95069V9.12265L8.11209 9.13877Z" stroke="black" stroke-width="0.0161224"/>
<path d="M8.01993 8.90721C7.3958 8.8432 6.67566 8.69383 6.12088 9.00856C5.74747 8.78985 5.23004 8.80052 4.78728 8.84853C4.55257 8.88587 4.26984 8.88587 4.01912 8.92855L3.98178 8.93388C3.52302 8.96589 3.11228 8.8272 2.71753 8.65649C2.84556 9.36597 2.98425 10.0968 3.0536 10.8436C3.20296 11.9425 2.53083 12.8707 2.80288 13.9589C2.96825 14.4817 3.54436 14.7857 4.07247 14.8444C4.57856 14.8776 5.08142 14.9489 5.57677 15.0578C5.66652 15.0799 5.75402 15.1102 5.83816 15.1485C5.95315 15.1979 6.05667 15.2705 6.14222 15.3618C6.43028 15.0685 6.84636 14.9884 7.26244 14.9458C7.99859 14.8551 8.91611 14.9031 9.36954 14.2309V14.1936C9.61492 13.8202 9.58291 13.2548 9.47622 12.8333C9.46556 12.6893 9.42821 12.5613 9.40688 12.4173C8.95345 11.2223 9.34286 9.87807 9.5349 8.6725C9.30019 8.80052 9.03347 8.86454 8.76675 8.92855C8.54981 8.94989 8.32933 8.94989 8.10528 8.92855L8.01993 8.90721Z" fill="#FF0000"/>
<path d="M8.9533 12.3426C8.94797 12.4226 8.99064 12.4813 9.00664 12.556C9.09199 13.0787 9.17734 13.7722 8.63323 14.0976C8.04645 14.471 7.26229 14.311 6.57415 14.5137C6.43546 14.551 6.24342 14.6737 6.1474 14.7644C6.08339 14.7271 6.02471 14.6631 5.94469 14.6257C5.37391 14.327 4.63776 14.423 3.99763 14.263C3.67757 14.1563 3.3415 13.9109 3.25615 13.5802C3.04811 12.716 3.54954 11.9798 3.49087 11.1263C3.44982 10.4855 3.34982 9.84979 3.19214 9.22729C3.7091 9.45304 4.28433 9.50907 4.83514 9.38733C5.25122 9.33398 5.74199 9.33398 6.12606 9.50468C6.35054 9.4195 6.58569 9.36565 6.82487 9.34465C7.26763 9.38733 7.74239 9.46734 8.19581 9.46734C8.48829 9.44597 8.77417 9.36998 9.03865 9.2433C8.87862 10.2568 8.57989 11.3237 8.94797 12.3373" fill="#80CFE1"/>
<path d="M8.05181 12.5453L8.04647 11.5905H8.16383L6.7022 10.6463V10.1608H6.8409L6.11008 9.63806L5.3846 10.1608H5.5233V10.6463L4.08301 11.5905H4.1897L4.20036 12.54H8.04114" fill="white"/>
<path d="M8.04762 12.5458V11.5893H8.16048L6.70939 10.6488L6.70401 10.1652H6.84375L6.11283 9.63855L5.38728 10.1598H5.52702L5.53239 10.6488L4.0813 11.5893H4.19954V12.5404L8.04762 12.5458Z" stroke="black" stroke-width="0.0644898"/>
<path d="M8.49994 13.7935V14.0923H3.80566V13.7882H8.49994" fill="white"/>
<path d="M8.499 13.7979V14.0934H3.80176V13.7925H8.499V13.7979Z" stroke="black" stroke-width="0.0644898"/>
<path d="M4.11517 13.7776V12.7641H4.30188L4.29121 13.7883L4.30188 12.7747L4.03516 12.7694V12.556H8.228V12.7694H7.96661H8.15865V13.7829" fill="white"/>
<path d="M4.11358 13.7764V12.7661H4.30168L4.29093 13.7871L4.30168 12.7769L4.03296 12.7661V12.5511L8.225 12.5565V12.7715H7.96703L7.97241 13.7925L7.96166 12.7715H8.15514L8.16051 13.7818" stroke="black" stroke-width="0.0644898"/>
<path d="M5.01619 13.5288V12.8252H4.44678V13.5235L5.01082 13.5288" stroke="black" stroke-width="0.0644898"/>
<path d="M4.60791 12.9703V13.3787H4.86589V12.9703H4.60254M7.77344 13.5292L7.76807 12.8306H7.20913V13.5292H7.77344Z" stroke="black" stroke-width="0.0644898"/>
<path d="M7.35964 12.975V13.3832H7.61749V12.975H7.35964ZM7.7679 12.3842V11.6859H7.20386V12.3842H7.7679Z" stroke="black" stroke-width="0.0644898"/>
<path d="M7.35434 11.831V12.2394H7.61231V11.831H7.35434ZM5.01109 12.3845V11.6805H4.44678V12.3791H5.01109V12.3845Z" stroke="black" stroke-width="0.0644898"/>
<path d="M6.03144 12.3842V11.6805H5.4674V12.3788H6.03144M4.60254 11.8256V12.2338H4.86039V11.8256H4.60254Z" stroke="black" stroke-width="0.0644898"/>
<path d="M5.61841 11.8256V12.2338H5.87626V11.8256H5.61841ZM6.81632 12.3842V11.6859L6.25228 11.6805V12.3788L6.81632 12.3842Z" stroke="black" stroke-width="0.0644898"/>
<path d="M6.40308 11.8257V12.2339H6.66629V11.8257H6.40308Z" stroke="black" stroke-width="0.0644898"/>
<path d="M6.9575 12.172L6.96284 13.7928H5.33663L5.3313 12.1666H6.9575" fill="white"/>
<path d="M5.31728 12.6317H6.96185M5.52151 13.7925V12.6425M6.763 13.7925V12.6479M6.95648 12.1696L6.96185 13.7925H5.33341L5.32803 12.1696H6.95648ZM7.55304 11.4763L6.63939 10.81H5.60213L4.68848 11.4763H7.55304ZM5.68274 10.2511V10.6595H6.5534V10.2511H5.68274Z" stroke="black" stroke-width="0.0644898"/>
<path d="M6.11261 9.7782L6.59607 10.122H5.63452L6.11798 9.7782M5.91923 10.3529V10.557H6.31674V10.3529H5.91923Z" stroke="black" stroke-width="0.0644898"/>
<path d="M8.06744 9.55277C8.20606 9.55277 8.23805 10.1179 8.23805 10.4005C8.42866 10.4748 8.5987 10.5936 8.73391 10.7471H7.41162C7.54381 10.595 7.71005 10.4762 7.89682 10.4005C7.89682 10.1179 7.92881 9.54744 8.06744 9.55277Z" fill="white"/>
<path d="M6.47283 12.2126H6.59107L6.55345 12.2824C6.55345 12.2824 6.61257 12.3523 6.55345 12.4383L6.58569 12.492H6.4782L6.50508 12.4383C6.50508 12.4383 6.45133 12.3415 6.50508 12.277L6.47283 12.2179M8.06366 9.55249C8.20339 9.55249 8.23564 10.1167 8.23564 10.4016C8.35388 10.4338 8.61722 10.6004 8.73009 10.7455H7.40798C7.52084 10.6004 7.78419 10.4338 7.89705 10.4016C7.89705 10.1167 7.9293 9.55249 8.06366 9.55249ZM5.40332 12.2126H5.52156L5.48931 12.277C5.48931 12.277 5.54306 12.3523 5.48931 12.4383L5.52156 12.492H5.40332L5.43557 12.4383C5.43557 12.4383 5.38182 12.3415 5.43557 12.277L5.40332 12.2126ZM5.64517 12.2126H5.76341L5.73116 12.277C5.73116 12.277 5.7849 12.3523 5.73116 12.4383L5.76341 12.492H5.64517L5.67742 12.4383C5.67742 12.4383 5.62367 12.3415 5.67742 12.277L5.64517 12.2126ZM5.91389 12.2126H6.02675L5.99451 12.277C5.99451 12.277 6.04825 12.3523 5.99451 12.4383L6.02675 12.492H5.91389L5.94076 12.4383C5.94076 12.4383 5.88702 12.3415 5.94076 12.277L5.90852 12.2126H5.91389ZM6.20948 12.2126H6.32772L6.2901 12.2824C6.2901 12.2824 6.34922 12.3523 6.2901 12.4383L6.32235 12.492H6.20948L6.24173 12.4383C6.24173 12.4383 6.18799 12.3415 6.24173 12.277L6.20948 12.2126ZM6.73618 12.2179H6.85441L6.81679 12.2824C6.81679 12.2824 6.87591 12.3523 6.81679 12.4383L6.84904 12.492H6.74155L6.76842 12.4383C6.76842 12.4383 6.71468 12.3415 6.76842 12.277L6.73618 12.2179Z" stroke="black" stroke-width="0.0644898"/>
<path d="M6.15285 15.8686C6.73608 15.8839 7.31647 15.7823 7.85986 15.5699L8.63868 15.5006L8.64935 16.4394C7.99856 16.8022 6.48892 16.8822 6.15285 16.8769C5.82212 16.8769 4.29114 16.8022 3.63501 16.4394L3.64568 15.4952L4.41917 15.5646C4.97202 15.7774 5.56051 15.8824 6.15285 15.874" fill="#FFFF00"/>
<path d="M6.15049 15.8721C6.76317 15.8721 7.51021 15.7485 7.86492 15.5658L8.63346 15.5013L8.64959 16.4418C7.99928 16.8018 6.4837 16.8824 6.15586 16.8771C5.82802 16.8717 4.29094 16.8018 3.62988 16.4364L3.64063 15.496L4.41455 15.5658C4.76926 15.7485 5.54318 15.8721 6.15049 15.8721Z" stroke="black" stroke-width="0.0161224"/>
<path d="M1.64512 11.8518L2.32759 12.0651L2.11965 13.1688L1.47983 13.2701C1.47983 13.2701 1.3732 12.6889 1.64512 11.8518Z" fill="#FFFF00"/>
<path d="M1.64655 11.8525L2.3234 12.0674L2.11927 13.1685L1.47466 13.2706C1.47466 13.2706 1.36722 12.6905 1.64655 11.8525Z" stroke="black" stroke-width="0.0161224"/>
<path d="M2.11955 13.1585L1.47974 13.2705L1.88495 12.6893L2.11955 13.1585Z" fill="#7E7E7E"/>
<path d="M2.11923 13.1582L1.47461 13.2656L1.88287 12.6909L2.11923 13.1582Z" stroke="black" stroke-width="0.0161224"/>
<path d="M1.23973 12.6467L1.89586 12.6947C1.91186 13.2495 1.97588 15.3673 4.50972 15.4846L4.42971 16.2581C1.34642 16.2901 1.11704 13.6549 1.23973 12.6467Z" fill="#FFFF00"/>
<path d="M3.64598 16.4149L4.4199 16.2483M1.23824 12.6478L1.89392 12.6908C1.91005 13.2497 1.97454 15.367 4.51126 15.4852L4.43065 16.2591C1.34573 16.2913 1.11463 13.6581 1.23824 12.6478Z" stroke="black" stroke-width="0.0161224"/>
<path d="M10.6015 11.8572L9.92432 12.0705L10.1376 13.1741L10.7827 13.2808C10.7827 13.2808 10.8894 12.6943 10.6015 11.8572Z" fill="#FFFF00"/>
<path d="M10.6002 11.8579L9.92334 12.0728L10.1382 13.1739L10.7828 13.2813C10.7828 13.2813 10.8903 12.7012 10.6002 11.8579Z" stroke="black" stroke-width="0.0161224"/>
<path d="M10.1377 13.1639L10.7828 13.2759L10.3723 12.7001L10.1377 13.1639Z" fill="#7E7E7E"/>
<path d="M10.1382 13.1636L10.7828 13.2764L10.3692 12.7017L10.1382 13.1636Z" stroke="black" stroke-width="0.0161224"/>
<path d="M11.0177 12.652L10.3616 12.7C10.3509 13.2548 10.3029 15.3779 7.76904 15.4899L7.85439 16.258C10.9377 16.2954 11.1511 13.6602 11.0177 12.652Z" fill="#FFFF00"/>
<path d="M8.63872 16.4149L7.86481 16.2537M11.0142 12.6532L10.3585 12.6962C10.3478 13.2551 10.3048 15.3778 7.76807 15.4906L7.85406 16.2591C10.939 16.2967 11.1486 13.6635 11.0142 12.6586V12.6532Z" stroke="black" stroke-width="0.0161224"/>
<path d="M5.74197 16.3382C5.72419 16.3488 5.70107 16.3524 5.67262 16.3488L5.54993 16.3435L5.5606 16.1888L5.68329 16.1941C5.70819 16.1941 5.72597 16.1995 5.73664 16.2101C5.76509 16.2208 5.77575 16.2439 5.76864 16.2795C5.76864 16.3079 5.75975 16.3257 5.74197 16.3328M5.53393 16.5782L5.54993 16.3915L5.68863 16.4022C5.72687 16.4046 5.76473 16.3933 5.79531 16.3702C5.82021 16.3453 5.83265 16.315 5.83265 16.2795C5.83569 16.2621 5.83435 16.2442 5.82876 16.2274C5.82318 16.2107 5.81352 16.1956 5.80065 16.1835C5.77363 16.1608 5.73988 16.1476 5.70463 16.1461L5.50192 16.1354L5.47525 16.5729L5.53393 16.5782ZM5.98202 16.2155H6.13138L6.18473 16.2261C6.20251 16.2368 6.2114 16.2581 6.2114 16.2901C6.2114 16.3382 6.20606 16.3435 6.19006 16.3542C6.17228 16.3648 6.14916 16.3702 6.12071 16.3702H5.97668V16.2155M5.97668 16.6049V16.4182H6.11538C6.14383 16.4182 6.16339 16.4217 6.17406 16.4288C6.19539 16.4359 6.20606 16.4537 6.20606 16.4822V16.5569L6.2114 16.5942L6.21673 16.6102H6.29141V16.5995L6.27008 16.5729V16.4768C6.27008 16.4484 6.26296 16.4306 6.24874 16.4235L6.2114 16.3915L6.26474 16.3542L6.27541 16.2848C6.27541 16.235 6.25407 16.2012 6.2114 16.1835L6.12605 16.1675H5.91801V16.6049H5.97668ZM6.44611 16.5142C6.41757 16.4794 6.40076 16.4364 6.3981 16.3915C6.3981 16.331 6.41055 16.2848 6.43544 16.2528C6.46389 16.2172 6.50123 16.1995 6.54747 16.1995C6.5937 16.1995 6.63282 16.2137 6.66482 16.2421C6.69327 16.2706 6.71105 16.3115 6.71817 16.3648C6.71817 16.4146 6.7075 16.4573 6.68616 16.4929C6.66482 16.5284 6.6257 16.5498 6.5688 16.5569C6.51546 16.5569 6.47456 16.5426 6.44611 16.5142ZM6.37143 16.2368C6.34353 16.2834 6.3305 16.3373 6.33409 16.3915C6.33713 16.4505 6.35964 16.5067 6.3981 16.5515C6.42038 16.5715 6.44662 16.5866 6.47511 16.5958C6.5036 16.605 6.53371 16.6081 6.56347 16.6049C6.59615 16.6055 6.62854 16.5986 6.65814 16.5847C6.68773 16.5709 6.71375 16.5504 6.73417 16.5249C6.76614 16.4759 6.78113 16.4178 6.77685 16.3595C6.77892 16.3047 6.75981 16.2512 6.7235 16.2101C6.68083 16.1603 6.62037 16.139 6.54213 16.1461C6.46389 16.1461 6.40699 16.1763 6.37143 16.2368ZM8.43585 15.602C8.473 15.5938 8.51167 15.5956 8.54787 15.6073C8.59766 15.6251 8.63322 15.6607 8.65456 15.714L8.59054 15.7247C8.5864 15.711 8.57955 15.6983 8.57038 15.6873C8.56122 15.6763 8.54993 15.6672 8.5372 15.6607C8.50812 15.6502 8.47662 15.6483 8.44652 15.6553C8.40653 15.6614 8.37032 15.6824 8.34516 15.714C8.32382 15.7496 8.31849 15.7976 8.32916 15.8581C8.33627 15.9114 8.35405 15.9505 8.3825 15.9754C8.41451 16.0074 8.45541 16.0181 8.50519 16.0074C8.54249 16.0015 8.5765 15.9826 8.60121 15.9541C8.62611 15.9292 8.63322 15.8918 8.62255 15.8421L8.48386 15.8634L8.47319 15.8154L8.67056 15.7834L8.7079 16.0181H8.67056L8.64922 15.9647L8.59588 16.0181C8.56793 16.0401 8.53492 16.0548 8.49986 16.0608C8.44957 16.0676 8.39851 16.0562 8.35583 16.0288C8.30758 15.9879 8.27544 15.9311 8.26515 15.8687C8.25394 15.8064 8.26529 15.7421 8.29715 15.6874C8.33028 15.6417 8.38015 15.611 8.43585 15.602ZM8.88394 15.57L9.02263 15.5167L9.07598 15.5113C9.10087 15.5113 9.11865 15.5273 9.12932 15.5593C9.13999 15.5913 9.13999 15.6127 9.12932 15.6233L9.07064 15.6607L8.93728 15.714L8.88394 15.57ZM9.02263 15.9327L8.95328 15.7567L9.08664 15.7087L9.13999 15.698C9.16133 15.698 9.17911 15.7122 9.19333 15.7407L9.22 15.81L9.23601 15.8421L9.24668 15.8527L9.31602 15.826V15.8207C9.30536 15.8207 9.29469 15.8136 9.28402 15.7994L9.26801 15.7674L9.24668 15.714C9.23601 15.6891 9.22356 15.6714 9.20934 15.6607L9.16133 15.65C9.17911 15.6358 9.18978 15.618 9.19333 15.5967L9.188 15.5327C9.16666 15.4829 9.13288 15.458 9.08664 15.458L9.00129 15.4686L8.80392 15.5433L8.96395 15.9541L9.02263 15.9327ZM9.53473 15.7194L9.28402 15.346L9.56141 15.1699L9.59341 15.2179L9.36403 15.362L9.44405 15.4686L9.65209 15.3406L9.67876 15.3833L9.47072 15.5167L9.55607 15.6393L9.78545 15.49L9.81746 15.5327L9.53473 15.714M9.75878 15.0686L9.82813 14.9885C9.86369 14.953 9.89925 14.937 9.93482 14.9405C9.98102 14.9462 10.0241 14.9668 10.0575 14.9992C10.0881 15.0262 10.1103 15.0614 10.1215 15.1006C10.1286 15.129 10.1286 15.1539 10.1215 15.1753L10.0895 15.2126L10.0148 15.2926L9.75878 15.0686ZM10.1322 15.2393C10.1891 15.1859 10.2015 15.1237 10.1695 15.0526C10.1506 15.0118 10.1234 14.9754 10.0895 14.9459C10.049 14.9105 9.99885 14.8882 9.94548 14.8819C9.91714 14.8782 9.88834 14.8822 9.86207 14.8935C9.83581 14.9048 9.81303 14.9228 9.79612 14.9459L9.67343 15.0739L10.0148 15.3726L10.1322 15.2393ZM10.3936 14.8979L10.0042 14.6685L10.0362 14.6151L10.4256 14.8445L10.3936 14.8979ZM10.5483 14.6311L10.1215 14.4658L10.2495 14.167L10.3029 14.1884L10.1962 14.4338L10.3242 14.4818L10.4202 14.2577L10.4736 14.2791L10.3776 14.5031L10.5163 14.5565L10.623 14.3111L10.6763 14.3324L10.5483 14.6311ZM10.7403 14.1137L10.2976 14.0177L10.3136 13.9483L10.719 13.8096L10.3616 13.735L10.3722 13.6816L10.815 13.7723L10.8043 13.8416L10.3936 13.9803L10.751 14.0604L10.7403 14.1137ZM10.703 13.5536L10.7083 13.5002C10.7368 13.5002 10.7581 13.4949 10.7723 13.4842C10.8079 13.47 10.8257 13.438 10.8257 13.3882V13.3242C10.815 13.2886 10.7937 13.2691 10.7616 13.2655C10.7368 13.2655 10.719 13.2709 10.7083 13.2815C10.6941 13.2958 10.6834 13.3189 10.6763 13.3509L10.655 13.4042L10.6176 13.4896C10.5963 13.518 10.5661 13.5287 10.5269 13.5216C10.4896 13.5157 10.4556 13.4968 10.4309 13.4682C10.406 13.4433 10.3971 13.4042 10.4042 13.3509C10.4042 13.3082 10.4185 13.2709 10.4469 13.2389C10.4754 13.2104 10.5127 13.198 10.5589 13.2015V13.2549C10.5305 13.2549 10.5109 13.2602 10.5003 13.2709C10.4718 13.2851 10.4576 13.3153 10.4576 13.3616C10.454 13.39 10.4576 13.4149 10.4683 13.4362C10.4789 13.4576 10.4967 13.4665 10.5216 13.4629C10.5465 13.4665 10.5643 13.4594 10.5749 13.4416L10.607 13.3669L10.623 13.3082C10.6336 13.2762 10.6461 13.2531 10.6603 13.2389C10.6724 13.226 10.6875 13.2163 10.7043 13.2107C10.721 13.2052 10.7389 13.2038 10.7563 13.2069C10.8061 13.214 10.8417 13.2353 10.863 13.2709C10.8808 13.3064 10.8861 13.3491 10.879 13.3989C10.8795 13.422 10.875 13.4449 10.8658 13.4661C10.8566 13.4873 10.8429 13.5062 10.8257 13.5216C10.8085 13.535 10.7887 13.5448 10.7676 13.5503C10.7465 13.5558 10.7245 13.5569 10.703 13.5536ZM1.53846 13.5216L1.54913 13.5749C1.52423 13.582 1.50645 13.5927 1.49578 13.6069C1.46733 13.6247 1.45666 13.6603 1.46378 13.7136L1.48511 13.7723C1.50645 13.8079 1.53312 13.8221 1.56513 13.815C1.58647 13.8079 1.60247 13.7972 1.61314 13.783L1.62381 13.7083V13.6443L1.64515 13.5589C1.65581 13.5305 1.68071 13.5127 1.71983 13.5056C1.75742 13.5016 1.79522 13.511 1.82652 13.5323C1.86208 13.55 1.87986 13.5856 1.87986 13.6389C1.88627 13.6591 1.88863 13.6803 1.8868 13.7014C1.88497 13.7224 1.87898 13.7429 1.86919 13.7616C1.85497 13.7936 1.82296 13.815 1.77317 13.8256L1.7625 13.7723C1.78384 13.7652 1.80162 13.7545 1.81585 13.7403C1.83007 13.719 1.83541 13.687 1.83185 13.6443C1.82829 13.6123 1.81585 13.5892 1.79451 13.5749C1.78795 13.5676 1.7795 13.5622 1.77009 13.5594C1.76068 13.5566 1.75067 13.5564 1.74116 13.5589C1.73126 13.5605 1.722 13.5649 1.71445 13.5715C1.70691 13.5781 1.70137 13.5867 1.69849 13.5963L1.68782 13.6763V13.7403L1.66648 13.815C1.65825 13.8295 1.64672 13.8419 1.63283 13.8512C1.61893 13.8604 1.60305 13.8663 1.58647 13.8683C1.53312 13.879 1.494 13.8683 1.46911 13.8363C1.43965 13.8036 1.42102 13.7626 1.41577 13.719C1.40861 13.6969 1.40634 13.6735 1.4091 13.6505C1.41186 13.6275 1.4196 13.6053 1.43177 13.5856C1.44438 13.5683 1.46031 13.5538 1.47864 13.5428C1.49696 13.5318 1.5173 13.5246 1.53846 13.5216ZM1.51179 14.103L1.94387 13.9697L2.05056 14.2737L1.99722 14.2951L1.91187 14.0444L1.77851 14.0817L1.85319 14.3111L1.79984 14.3271L1.7305 14.0977L1.58113 14.1404L1.66648 14.3964L1.61314 14.4124L1.51179 14.103ZM1.70382 14.6311L2.1039 14.4178L2.14658 14.4924L1.86919 14.7805L2.26927 14.7165L2.31195 14.7858L1.91187 14.9992L1.88519 14.9459L2.11991 14.8232L2.16258 14.8018L2.22126 14.7698L1.82118 14.8392L1.79451 14.7858L2.06656 14.4978L2.05056 14.5085L2.00789 14.5298L1.96521 14.5565L1.7305 14.6792L1.70382 14.6258M2.44531 15.2126C2.42753 15.2126 2.40797 15.2019 2.38663 15.1806L2.30128 15.0952L2.4133 14.9885L2.49865 15.0739L2.53066 15.1219C2.54133 15.1504 2.53421 15.1735 2.50932 15.1913C2.48443 15.209 2.46309 15.2179 2.44531 15.2179M2.12524 15.2553L2.26394 15.1272L2.35996 15.2339C2.38764 15.2597 2.42354 15.2748 2.46131 15.2766C2.49533 15.2725 2.52712 15.2575 2.55199 15.2339C2.58044 15.209 2.59467 15.1788 2.59467 15.1432C2.59467 15.1077 2.58044 15.0775 2.55199 15.0526L2.4133 14.9085L2.08257 15.2126L2.12524 15.2553ZM2.52532 15.6073L2.76004 15.2339L3.04276 15.4046L3.01609 15.4526L2.78137 15.3139L2.71203 15.426L2.9254 15.554L2.8934 15.5967L2.68002 15.4686L2.6 15.5967L2.83472 15.7354L2.80805 15.7834L2.51999 15.6073M3.22946 15.538L3.37349 15.5807L3.41617 15.6073C3.43395 15.6251 3.43751 15.6482 3.42684 15.6767C3.41972 15.7016 3.4055 15.7194 3.38416 15.73L3.31481 15.7247L3.18145 15.682L3.22946 15.538ZM3.10677 15.9061L3.16012 15.7247L3.29881 15.7674L3.35216 15.794C3.36638 15.8083 3.36816 15.8296 3.35749 15.8581L3.34149 15.9221L3.33082 15.9594V15.9701L3.4055 15.9967V15.9861L3.39483 15.9541L3.4055 15.9167L3.4215 15.8634C3.42862 15.8385 3.42862 15.8207 3.4215 15.81L3.39483 15.7674C3.41617 15.7638 3.43573 15.7549 3.45351 15.7407L3.49085 15.6874C3.50508 15.6376 3.49618 15.5967 3.46418 15.5647L3.38416 15.5273L3.18679 15.4633L3.04809 15.8794L3.10144 15.9007" fill="#009FC5"/>
<path d="M3.71509 8.31514C3.76843 8.18711 4.24319 7.85104 5.81685 7.99507C5.81685 7.99507 6.08357 8.16044 6.23826 8.1391C6.32361 8.12843 6.18492 8.14444 6.06756 8.04842C5.95021 7.9524 5.92353 7.75503 6.19559 7.76036C6.46764 7.76569 7.47585 7.82437 7.49185 7.91506C7.50785 8.00574 6.95841 8.04308 6.7557 8.03775C6.54766 8.03775 6.57433 8.1391 6.77704 8.12843C7.41717 8.1071 8.11064 7.88305 8.85746 8.40582C8.94281 8.4645 8.62808 8.47517 8.38803 8.37382C8.38803 8.37382 7.73723 8.41116 7.45984 8.36315C7.45984 8.36315 7.24647 8.53918 6.95841 8.52318C6.99575 8.61387 6.85172 8.94993 5.97154 8.69922C5.82218 8.74189 5.29407 8.83258 5.34742 8.67254C5.20872 8.67254 4.96334 8.71522 4.926 8.6352C4.89399 8.56052 5.35809 8.43783 5.44344 8.35248C5.44344 8.35248 4.45124 8.36315 4.26453 8.29914C4.26453 8.29914 3.67775 8.42716 3.71509 8.31514Z" fill="#BC715F"/>
<path d="M4.03457 9.70205C4.05057 9.67539 4.06123 9.62207 4.10389 9.62207C4.20519 9.64873 4.26917 9.83002 4.39181 9.71272C4.43446 9.70205 4.44512 9.7607 4.48245 9.76603C4.50911 9.86734 4.58908 9.75004 4.6424 9.75537C4.78216 9.69653 4.93652 9.68165 5.08494 9.71272C5.08494 9.80869 5.0103 9.91532 4.91432 9.97397C4.91432 10.0699 5.00496 10.1339 5.00496 10.2352C4.98897 10.2726 5.00496 10.3312 4.95165 10.3419C4.877 10.3259 4.80769 10.3205 4.74904 10.2832C4.74193 10.2726 4.73304 10.2654 4.72238 10.2619C4.71172 10.2992 4.76503 10.3312 4.78636 10.3685C4.74904 10.4218 4.69039 10.3685 4.6424 10.3685C4.62641 10.4059 4.6424 10.4485 4.60508 10.4752C4.5411 10.4698 4.5251 10.4005 4.48778 10.3685C4.45046 10.4112 4.51977 10.4378 4.5251 10.4698C4.50377 10.5978 4.50377 10.7258 4.37581 10.8111L4.2905 10.8537C4.26917 10.7844 4.27984 10.6884 4.26384 10.6191C4.21052 10.7044 4.1732 10.7791 4.10389 10.8484C4.01325 10.8164 3.95993 10.7151 3.94393 10.6298C3.92392 10.5801 3.91932 10.5256 3.93073 10.4733C3.94214 10.421 3.96904 10.3733 4.00791 10.3365C3.98126 10.2832 3.88528 10.2992 3.87462 10.2246C3.73599 10.1339 3.66135 10.3845 3.57071 10.2512C3.55814 10.1887 3.55977 10.1241 3.57545 10.0623C3.59114 10.0005 3.62049 9.94298 3.66135 9.894C3.64535 9.84068 3.58137 9.85667 3.54405 9.83002C3.45341 9.75537 3.33077 9.68072 3.33611 9.54743C3.45399 9.50186 3.58274 9.49223 3.7061 9.51974C3.82945 9.54726 3.9419 9.6107 4.02924 9.70205" fill="#008737"/>
<path d="M4.15219 9.69145C4.15219 9.79809 4.22683 9.71811 4.28548 9.78209C4.23749 9.7661 4.2055 9.86207 4.16285 9.80875L4.13086 9.83541C4.14685 9.87274 4.18418 9.87807 4.14685 9.91539C4.09887 9.93672 4.09354 9.87274 4.06688 9.85141C4.07043 9.83719 4.06688 9.82475 4.05621 9.81409C4.03133 9.83541 3.99934 9.8443 3.96024 9.84075C3.94958 9.81942 3.92825 9.78743 3.94958 9.77676C3.9869 9.72345 4.04555 9.79276 4.07221 9.76077C4.07754 9.72878 4.05088 9.69145 4.0882 9.66479C4.10953 9.67013 4.14152 9.65946 4.15219 9.68612M4.44544 9.77676C4.44544 9.79809 4.43477 9.83008 4.46143 9.84075C4.50053 9.82653 4.53252 9.83719 4.5574 9.87274C4.56451 9.89762 4.5574 9.91539 4.53608 9.92605L4.48276 9.91539L4.46143 9.88873C4.43477 9.87807 4.42411 9.8994 4.40811 9.91006C4.41878 9.93139 4.45077 9.94738 4.4401 9.97404C4.40811 10.006 4.39212 9.94205 4.35479 9.95805C4.33347 9.94738 4.36546 9.8994 4.32814 9.8834C4.28015 9.8834 4.31214 9.95805 4.25349 9.93139C4.23216 9.90473 4.21084 9.87807 4.2375 9.84608C4.25108 9.83884 4.26657 9.83598 4.28184 9.83789C4.29711 9.8398 4.31142 9.84639 4.3228 9.85674C4.36013 9.81942 4.36013 9.6648 4.44544 9.77676ZM4.08287 9.93672C4.1042 9.96871 4.07754 10.0167 4.1042 10.054C4.15752 9.96338 4.20017 10.0753 4.25882 10.0647C4.27482 10.086 4.25882 10.118 4.26415 10.1393C4.19484 10.1607 4.10953 10.182 4.05088 10.1233L4.02955 10.1447C4.06688 10.1766 4.1042 10.2193 4.07221 10.278C4.01889 10.2886 3.93891 10.2886 3.91225 10.2353C3.90159 10.1873 3.94424 10.1553 3.89626 10.1233C3.86427 10.166 3.86427 10.2246 3.78962 10.182C3.7793 10.1769 3.77012 10.1698 3.76261 10.1611C3.75511 10.1524 3.74945 10.1422 3.74596 10.1313C3.74247 10.1203 3.74124 10.1088 3.74233 10.0973C3.74342 10.0859 3.74681 10.0748 3.7523 10.0647C3.80562 9.99004 3.88559 10.0647 3.93358 10.0274C3.94424 9.96338 3.91759 9.91006 3.97624 9.87274C4.02955 9.8674 4.05088 9.90473 4.08287 9.93672Z" fill="#FFFF00"/>
<path d="M4.28043 9.97417C4.25911 10.0808 4.1738 9.96884 4.13647 9.96351C4.18979 9.87287 4.22178 9.9955 4.28043 9.97417ZM4.53636 10.0915C4.48304 10.1075 4.48304 10.0382 4.45638 10.0115L4.48304 9.99017L4.53636 10.0915Z" fill="white"/>
<path d="M4.46164 10.0701C4.4723 10.1074 4.41898 10.1394 4.46697 10.1661L4.50429 10.1288C4.5505 10.1359 4.58782 10.1536 4.61626 10.1821C4.64825 10.2674 4.56294 10.2674 4.52029 10.2887H4.47763C4.4883 10.2621 4.45631 10.2514 4.44564 10.2354C4.43648 10.2345 4.42725 10.236 4.41884 10.2397C4.41043 10.2435 4.40313 10.2493 4.39766 10.2567C4.40832 10.31 4.4723 10.3474 4.40299 10.39C4.34967 10.39 4.26969 10.4113 4.27502 10.3367C4.2537 10.294 4.32834 10.2301 4.24836 10.2301C4.22171 10.2834 4.19505 10.3367 4.12573 10.2834L4.13106 10.2034C4.19505 10.2034 4.27502 10.2141 4.30701 10.1394C4.32301 10.0861 4.27502 10.0381 4.31768 9.99546C4.38699 9.97946 4.42431 10.0275 4.45631 10.0701" fill="#FFFF00"/>
<path d="M4.4079 10.1926C4.42912 10.2351 4.38137 10.2351 4.35484 10.2563C4.33007 10.2563 4.30885 10.2457 4.29116 10.2245C4.28055 10.1767 4.31769 10.1714 4.34422 10.1555C4.37075 10.1396 4.38667 10.1767 4.4079 10.1926Z" fill="black"/>
<path d="M4.37088 10.214C4.36381 10.2246 4.35496 10.2299 4.34435 10.2299L4.33374 10.1769C4.36204 10.1769 4.37442 10.191 4.37088 10.2193" fill="white"/>
</g>
</g>
<defs>
<clipPath id="clip0_720_53340">
<rect width="24.0044" height="24.0044" fill="white" transform="translate(0.0349121 0.0788574)"/>
</clipPath>
</defs>
</svg>
