<svg width="25" height="25" viewBox="0 0 25 25" fill="none" xmlns="http://www.w3.org/2000/svg">
<g clip-path="url(#clip0_720_53321)">
<path d="M0.0390625 0.0788574H24.0434V24.0832H0.0390625V0.0788574Z" fill="#EE1C25"/>
<path d="M0.0390625 0.0788574H24.0434V16.0802H0.0390625V0.0788574Z" fill="#0B4EA2"/>
<path d="M0.0390625 0.0788574H24.0434V8.08188H0.0390625V0.0788574Z" fill="white"/>
<path d="M9.56565 18.6213C7.41369 17.5898 4.33813 15.527 4.33813 11.4575C4.33813 7.38798 4.53036 5.54077 4.53036 5.54077H14.6009C14.6009 5.54077 14.7978 7.38798 14.7978 11.4575C14.7978 15.527 11.7129 17.5852 9.56565 18.6213Z" fill="white"/>
<path d="M9.56572 18.0821C7.59192 17.1304 4.76953 15.2457 4.76953 11.5091C4.76953 7.77245 4.94769 6.07996 4.94769 6.07996H14.1837C14.1837 6.07996 14.3619 7.77714 14.3619 11.5091C14.3619 15.241 11.5395 17.1351 9.56572 18.0821Z" fill="#EE1C25"/>
<path d="M9.98767 10.5338C10.5221 10.5432 11.5676 10.5619 12.4959 10.2525C12.4959 10.2525 12.4678 10.5807 12.4678 10.9698C12.4678 11.3589 12.4959 11.6871 12.4959 11.6871C11.6798 11.4623 10.8333 11.3673 9.98767 11.4058V13.4687H9.14377V11.4058C8.29809 11.3673 7.45164 11.4623 6.6355 11.6871C6.6355 11.6871 6.66363 11.3589 6.66363 10.9698C6.66363 10.5807 6.6355 10.2525 6.6355 10.2525C7.56848 10.5619 8.60929 10.5432 9.14377 10.5338V9.23511C8.47135 9.21863 7.80095 9.31531 7.16059 9.5211C7.16059 9.5211 7.18404 9.19292 7.18404 8.80379C7.18404 8.41465 7.16059 8.08178 7.16059 8.08178C7.95761 8.34901 8.65618 8.37246 9.13908 8.36308C9.11564 7.54731 8.87653 6.51587 8.87653 6.51587C8.87653 6.51587 9.36881 6.55338 9.56572 6.55338C9.76263 6.55338 10.2549 6.51587 10.2549 6.51587C10.2549 6.51587 10.0158 7.54731 9.98767 8.36777C10.6599 8.38758 11.3306 8.29244 11.9708 8.08647C11.9708 8.08647 11.9474 8.41465 11.9474 8.80379C11.9474 9.19292 11.9708 9.5211 11.9708 9.5211C11.1738 9.25387 10.4753 9.23511 9.98767 9.2398V10.5338Z" fill="white"/>
<path d="M9.56564 13.2438C8.57171 13.2438 8.03724 14.6222 8.03724 14.6222C8.03724 14.6222 7.74187 13.9658 6.93079 13.9658C6.38225 13.9658 5.97905 14.4581 5.72119 14.9128C6.71981 16.4975 8.31385 17.4774 9.56564 18.0822C10.8174 17.4774 12.4115 16.4975 13.4101 14.9081C13.1522 14.4581 12.749 13.9705 12.2005 13.9705C11.3894 13.9705 11.094 14.6268 11.094 14.6268C11.094 14.6268 10.5596 13.2438 9.56564 13.2438Z" fill="#0B4EA2"/>
</g>
<defs>
<clipPath id="clip0_720_53321">
<rect width="24.0044" height="24.0044" fill="white" transform="translate(0.0393066 0.0788574)"/>
</clipPath>
</defs>
</svg>
