<svg width="24" height="25" viewBox="0 0 24 25" fill="none" xmlns="http://www.w3.org/2000/svg">
<g clip-path="url(#clip0_720_53299)">
<mask id="mask0_720_53299" style="mask-type:luminance" maskUnits="userSpaceOnUse" x="-1" y="0" width="26" height="25">
<path d="M-0.000244141 0.083252H24.0027V24.0862H-0.000244141V0.083252Z" fill="white"/>
</mask>
<g mask="url(#mask0_720_53299)">
<path fill-rule="evenodd" clip-rule="evenodd" d="M-2.90601 0.083252H45.1048V24.0862H-2.90601V0.083252Z" fill="white"/>
<path fill-rule="evenodd" clip-rule="evenodd" d="M-2.90601 16.0884H45.1048V24.0862H-2.90601V16.0884Z" fill="#D50000"/>
<path fill-rule="evenodd" clip-rule="evenodd" d="M-2.90601 8.08582H45.1048V16.0884H-2.90601V8.08582Z" fill="#0000BF"/>
<path fill-rule="evenodd" clip-rule="evenodd" d="M10.7052 4.44172C10.517 7.33289 10.4108 8.91604 9.97155 9.64969C9.49371 10.4364 9.03035 11.0108 7.17209 11.7058C5.31865 11.0108 4.85529 10.4364 4.37745 9.64969C3.94305 8.91604 3.83204 7.33289 3.6438 4.44172L3.91892 4.35002C4.46916 4.18108 4.88425 4.04594 5.18833 3.98802C5.62273 3.89148 5.99438 3.79012 7.16726 3.76599C8.34014 3.7853 8.71179 3.89631 9.14619 3.98802C9.4551 4.05559 9.88306 4.17626 10.4301 4.35002L10.7052 4.44172Z" fill="#D50000"/>
<path fill-rule="evenodd" clip-rule="evenodd" d="M10.4347 4.34513C10.2561 7.23148 10.1113 8.55398 9.8748 9.18627C9.42592 10.2771 8.71157 10.8756 7.17187 11.4403C5.63699 10.8708 4.92265 10.2771 4.46894 9.18627C4.23726 8.55398 4.08763 7.2363 3.9187 4.34513C4.45929 4.17137 4.88242 4.05071 5.18811 3.98314C5.62251 3.89143 5.99416 3.78042 7.16704 3.76111C8.33992 3.78042 8.7164 3.89143 9.1508 3.98314C9.45971 4.05071 9.88767 4.17137 10.4347 4.34513Z" fill="#0000BF"/>
<path fill-rule="evenodd" clip-rule="evenodd" d="M7.17189 5.22839L7.24426 5.40689L7.56749 5.45031L7.36004 5.57574L7.56266 5.71083L7.26838 5.75907L7.17672 5.91827L7.08023 5.75424L6.79077 5.71565L6.98374 5.57574L6.79077 5.45031L7.09953 5.40207L7.17189 5.22839Z" fill="#FFDF00"/>
<path fill-rule="evenodd" clip-rule="evenodd" d="M9.76397 8.50572L9.58538 8.36093L9.45506 8.14855L9.20407 7.92653L9.06893 7.7045L8.81794 7.47765L8.69245 7.25562L8.5573 7.14461L8.4656 7.06255L8.23874 7.26045L8.11325 7.48247L7.95397 7.62245L7.78504 7.4873L7.65472 7.26045L7.17205 6.40613L6.68938 7.26045L6.56389 7.4873L6.39013 7.62245L6.23568 7.47765L6.11019 7.26045L5.88333 7.06255L5.79163 7.14461L5.65648 7.25562L5.53099 7.47765L5.28 7.7045L5.14485 7.92653L4.88904 8.14855L4.76355 8.36093L4.58496 8.50572C4.688 9.14955 4.99211 9.74426 5.45376 10.2047C5.76267 10.4991 6.39496 10.8997 7.16722 11.1652C7.80145 10.9644 8.38785 10.6359 8.89034 10.1999C9.35286 9.74138 9.65863 9.14842 9.76397 8.50572Z" fill="white"/>
<path fill-rule="evenodd" clip-rule="evenodd" d="M7.94415 4.01691L8.01655 4.19067L8.33993 4.23894L8.13239 4.3596L8.33511 4.49958L8.04068 4.54784L7.94897 4.70712L7.85244 4.54302L7.56767 4.5044L7.76074 4.3596L7.56284 4.23894L7.87175 4.19067L7.94415 4.01691ZM6.39962 4.01691L6.47202 4.18584L6.7954 4.23411L6.58786 4.3596L6.79058 4.49475L6.49615 4.54302L6.40444 4.7023L6.30308 4.53819L6.02314 4.49958L6.2162 4.3596L6.01831 4.23411L6.32722 4.18584L6.39962 4.01208V4.01691Z" fill="#FFDF00"/>
<path fill-rule="evenodd" clip-rule="evenodd" d="M9.36331 9.60145H9.01579L8.6924 9.57731L8.30144 9.38425L7.85739 9.38907L7.47608 9.57731L7.17683 9.60145L6.87275 9.57731L6.49145 9.38907H6.05222L5.66126 9.58214L5.33787 9.60145H4.9807L4.81177 9.31185L4.81659 9.30219L5.3427 9.38907L5.66126 9.36494L6.05222 9.17188H6.49627L6.8824 9.36494L7.18166 9.38907L7.48091 9.36011L7.86704 9.1767H8.30144L8.69723 9.36494L9.02062 9.38907L9.52741 9.29737L9.53707 9.31185L9.36331 9.60145ZM5.30891 10.0503L5.65643 10.0262L6.04739 9.83313H6.48662L6.87275 10.0214L7.172 10.0503L7.47126 10.0214L7.85739 9.83313H8.29662L8.68758 10.0262L9.03992 10.0503L9.26677 9.77038L9.25712 9.76073L9.01579 9.83313L8.6924 9.80899L8.30144 9.61593H7.86222L7.47608 9.80899L7.17683 9.83313L6.87758 9.80899L6.49145 9.61593H6.05222L5.66126 9.80899L5.33787 9.83313L5.09654 9.77521V9.78486L5.30891 10.0503Z" fill="#0000BF"/>
</g>
</g>
<defs>
<clipPath id="clip0_720_53299">
<rect width="24.0044" height="24.0044" fill="white" transform="translate(0 0.083252)"/>
</clipPath>
</defs>
</svg>
