<svg width="24" height="25" viewBox="0 0 24 25" fill="none" xmlns="http://www.w3.org/2000/svg">
<g clip-path="url(#clip0_720_53415)">
<mask id="mask0_720_53415" style="mask-type:luminance" maskUnits="userSpaceOnUse" x="0" y="0" width="25" height="25">
<path d="M0.00512695 0.083252H24.0058V24.0839H0.00512695V0.083252Z" fill="white"/>
</mask>
<g mask="url(#mask0_720_53415)">
<path fill-rule="evenodd" clip-rule="evenodd" d="M0.00512695 23.8614L46.2984 0.083252H0.00512695V23.8614Z" fill="#0000D6"/>
<path fill-rule="evenodd" clip-rule="evenodd" d="M48.0114 0.083252L1.27783 24.0839H48.0114V0.083252Z" fill="#006000"/>
<path fill-rule="evenodd" clip-rule="evenodd" d="M48.0162 0.083252H45.4419L0.00512695 22.8404V24.0839H2.57456L48.0113 1.37039V0.083252H48.0162Z" fill="#FFCC00"/>
<path fill-rule="evenodd" clip-rule="evenodd" d="M1.89221 4.73335L2.45352 3.12201L0.992188 2.12521H2.79708L3.35355 0.509033L3.91001 2.12521H5.71007L4.25357 3.12201L4.81004 4.72851L3.35355 3.73655L1.89221 4.73335ZM10.8538 4.73335L11.4151 3.12201L9.95374 2.12521H11.7586L12.3151 0.509033L12.8716 2.12521H14.6668L13.2151 3.12201L13.7716 4.72851L12.3151 3.73171L10.8538 4.73335ZM10.8538 11.5077L11.4151 9.8964L9.95374 8.8996H11.7586L12.3151 7.28342L12.8716 8.8996H14.6668L13.2151 9.8964L13.7764 11.5077L12.3199 10.5109L10.8538 11.5077ZM6.40202 8.15925L6.95849 6.54792L5.50199 5.55111H7.30205L7.85851 3.93978L8.41498 5.55111H10.2199L8.75854 6.54792L9.31501 8.15925L7.86335 7.16245L6.40202 8.15925ZM1.89221 11.5077L2.45352 9.8964L0.992188 8.8996H2.79708L3.35355 7.28342L3.91001 8.8996H5.71007L4.25357 9.8964L4.81004 11.5029L3.35355 10.5061L1.89221 11.5077Z" fill="white"/>
</g>
</g>
<defs>
<clipPath id="clip0_720_53415">
<rect width="24.0044" height="24.0044" fill="white" transform="translate(0.00439453 0.083252)"/>
</clipPath>
</defs>
</svg>
