<svg width="25" height="25" viewBox="0 0 25 25" fill="none" xmlns="http://www.w3.org/2000/svg">
<g clip-path="url(#clip0_720_53468)">
<path d="M0.026123 0.083252H24.0305V24.0876H0.026123V0.083252Z" fill="#FFB700"/>
<path d="M1.0249 12.0855L4.31144 1.08191H7.59797V23.089H4.31613L1.0249 12.0855Z" fill="#FF5B00"/>
<path d="M1.0249 1.08191H4.31144V23.089H1.02959L1.0249 1.08191Z" fill="#005641"/>
<path d="M8.5918 1.08191H23.0319V23.089H8.5918V1.08191Z" fill="#8D2029"/>
<path d="M21.752 21.4106C21.752 21.4106 21.8878 21.6871 22.0378 21.7996C22.2627 21.9636 22.7173 21.9542 22.9094 22.1464C23.1437 22.3807 22.8907 22.6806 22.8954 22.7087L22.9094 22.868C22.9094 22.868 22.7501 22.868 22.6845 22.8821C22.5861 22.8961 22.5439 22.9758 22.3611 22.9664C21.8972 22.9336 21.916 22.5166 21.8925 22.1604C21.8691 22.0198 21.8129 21.8464 21.7848 21.7106C21.7566 21.5934 21.752 21.4106 21.752 21.4106Z" fill="#FFB700" stroke="black" stroke-width="0.0421952"/>
<path d="M10.0076 21.4106C10.0076 21.4106 9.87167 21.6871 9.72172 21.7996C9.49679 21.9636 9.04224 21.9542 8.85011 22.1464C8.6158 22.3807 8.86885 22.6806 8.86417 22.7087L8.85011 22.868C8.85011 22.868 9.00943 22.868 9.07504 22.8821C9.17345 22.8961 9.21562 22.9758 9.39838 22.9664C9.8623 22.9336 9.84356 22.5166 9.86699 22.1604C9.89042 22.0198 9.94665 21.8464 9.97477 21.7106C10.0029 21.5934 10.0076 21.4106 10.0076 21.4106Z" fill="#FFB700" stroke="black" stroke-width="0.0421952"/>
<path d="M21.752 2.76038C21.752 2.76038 21.8878 2.4839 22.0378 2.37143C22.2627 2.20742 22.7173 2.21679 22.9094 2.02466C23.1437 1.79036 22.8907 1.49045 22.8954 1.46233L22.9094 1.30301C22.9094 1.30301 22.7501 1.30301 22.6845 1.28895C22.5861 1.27489 22.5439 1.19523 22.3611 1.2046C21.8972 1.2374 21.916 1.65446 21.8925 2.0106C21.8691 2.15119 21.8129 2.32457 21.7848 2.46047C21.7566 2.57762 21.752 2.76038 21.752 2.76038Z" fill="#FFB700" stroke="black" stroke-width="0.0421952"/>
<path d="M10.0029 2.76038C10.0029 2.76038 9.86703 2.4839 9.71708 2.37143C9.49215 2.20742 9.0376 2.21679 8.84547 2.02466C8.61116 1.79036 8.86421 1.49045 8.85953 1.46233L8.84547 1.30301C8.84547 1.30301 9.0048 1.30301 9.0704 1.28895C9.16881 1.27489 9.21098 1.19523 9.39374 1.2046C9.85766 1.2374 9.83892 1.65446 9.86235 2.0106C9.88578 2.15119 9.94201 2.32457 9.97013 2.46047C9.99824 2.57762 10.0029 2.76038 10.0029 2.76038Z" fill="#FFB700" stroke="black" stroke-width="0.0421952"/>
<path d="M13.6604 15.8287L13.7466 15.7762L13.7841 15.8287C13.8329 15.8962 13.9717 15.8924 14.0617 15.8287L14.1329 15.7724L14.193 15.8249C14.268 15.8962 14.4105 15.8962 14.5043 15.8249C14.568 15.7799 14.5793 15.7762 14.6168 15.8137C14.643 15.8362 14.7181 15.8587 14.7818 15.8699C14.9018 15.8849 14.9018 15.8849 14.9693 15.7799C15.0294 15.6937 15.0369 15.6599 15.0256 15.5736L15.0031 15.3749C14.9956 15.2773 14.9994 15.2773 15.1381 15.2248L15.3407 15.1498C15.3969 15.1161 15.5545 14.9323 15.5545 14.8948C15.5545 14.8873 15.4944 14.8723 15.4194 14.8648C15.1194 14.8298 15.0681 14.6672 15.2657 14.3772C15.577 13.8896 15.7682 13.4207 15.7682 13.1244C15.7682 12.9919 15.777 12.9419 15.7945 12.9744C15.8658 13.0907 15.7382 13.5895 15.5507 13.9496L15.4757 14.0921L15.547 14.0771C15.5845 14.0659 15.8245 13.9646 16.072 13.8521C16.7547 13.5445 16.9872 13.4845 17.4298 13.5033C17.8011 13.5183 17.9549 13.5895 18.2174 13.8633C18.3562 14.0134 18.4912 14.1146 18.735 14.2684C19.2526 14.591 19.2751 14.621 19.3014 15.0035C19.3276 15.3861 19.3126 15.4124 19.0201 15.4761C18.765 15.5336 18.615 15.6462 18.57 15.8137C18.545 15.8987 18.595 15.8999 18.72 15.8174L18.8138 15.7574L18.8551 15.8174C18.9113 15.8962 19.0238 15.8962 19.1176 15.8174L19.1926 15.7612L19.2676 15.8174C19.3802 15.9112 19.5302 15.8887 19.5752 15.7724C19.5827 15.7524 19.6077 15.7612 19.6502 15.7987C19.7365 15.8737 19.9503 15.9037 19.9728 15.8437C19.9803 15.8212 19.9653 15.7687 19.9353 15.7237C19.8115 15.5361 19.7702 15.4499 19.7702 15.3486C19.7702 15.2061 19.8077 15.1348 19.9728 15.0223C20.1678 14.8798 20.2278 14.6997 20.0778 14.6997C19.9878 14.6997 19.894 14.6172 19.834 14.4859C19.714 14.2159 19.7402 13.9158 19.9202 13.4132C20.0578 13.1174 20.127 12.7943 20.1228 12.4681C20.1228 12.1905 20.1153 12.1455 20.0553 11.9917C20.0084 11.8848 19.9506 11.783 19.8827 11.6879L19.7777 11.5492L19.909 11.4366C20.3141 11.1028 20.2316 10.5552 19.744 10.3452C19.5939 10.2777 19.5564 10.2739 19.2939 10.2739C19.1439 10.2739 18.9001 10.2964 18.7688 10.3227C18.5926 10.3506 18.4146 10.3656 18.2362 10.3677C17.9811 10.3677 17.9361 10.3602 17.8386 10.3077C17.7374 10.2552 17.7186 10.2289 17.6998 10.1014C17.698 10.0894 17.6933 10.078 17.6862 10.0682C17.679 10.0584 17.6695 10.0505 17.6586 10.0451C17.6211 10.0339 17.4636 10.1727 17.441 10.2327C17.426 10.2664 17.4185 10.2627 17.3848 10.2214C17.3528 10.1807 17.3274 10.1351 17.3098 10.0864C17.2698 9.96387 17.3223 9.86885 17.4673 9.80134L17.5798 9.74883L17.5123 9.70757C17.3773 9.62131 17.1447 9.68132 17.0622 9.82009C17.036 9.8576 17.0097 9.89511 17.0022 9.89511C16.9947 9.89511 16.9497 9.8576 16.9047 9.80884C16.7284 9.63631 16.7884 9.38126 17.0247 9.30625C17.1485 9.26499 17.261 9.295 17.2835 9.38126C17.321 9.50503 17.426 9.34 17.4073 9.18623C17.396 9.08496 17.396 9.08121 17.4673 9.08121C17.5648 9.08121 17.7674 9.20873 17.8349 9.30625C17.9099 9.42252 17.9024 9.6063 17.8199 9.74133L17.7561 9.84635L17.8424 9.83134C17.9624 9.80509 18.0824 9.73008 18.1424 9.63631C18.174 9.57659 18.1918 9.51051 18.1944 9.44298C18.197 9.37546 18.1844 9.30821 18.1574 9.24624C18.1012 9.14497 18.1087 9.12997 18.1912 9.16372C18.3262 9.21998 18.4012 9.28374 18.4537 9.39251C18.5062 9.49003 18.51 9.51254 18.4837 9.61756C18.4658 9.6815 18.4379 9.74224 18.4012 9.79759C18.3562 9.8576 18.3525 9.86885 18.39 9.86885C18.4575 9.86885 18.5925 9.80509 18.6413 9.75633C18.6675 9.72632 18.705 9.66256 18.7238 9.6063L18.7613 9.51254L18.7988 9.58755C18.8551 9.68882 18.9676 9.78259 19.1026 9.8426C19.2489 9.90261 19.3089 9.90636 19.2339 9.8501C19.1814 9.81259 19.0838 9.53129 19.1176 9.50503C19.2795 9.59568 19.4273 9.70939 19.5564 9.8426C19.7702 10.0339 19.9052 10.0976 20.1003 10.0976C20.3516 10.0976 20.4979 9.8801 20.3853 9.67382C20.3216 9.55379 20.1753 9.53504 20.0853 9.63631C20.0478 9.68132 20.0353 9.72758 20.0478 9.77508C20.0628 9.83509 20.059 9.8426 20.0028 9.8426C19.9277 9.8426 19.7852 9.74883 19.5302 9.53504C19.1752 9.22952 18.7671 8.99178 18.3262 8.83366C18.0276 8.76432 17.7191 8.74782 17.4148 8.7849C17.1747 8.82991 16.8897 8.96869 16.7322 9.11496C16.4584 9.37751 16.4546 9.72633 16.7209 10.0451L16.7959 10.1351L16.7472 10.2177C16.709 10.2762 16.6899 10.3452 16.6926 10.4151C16.6953 10.485 16.7196 10.5523 16.7622 10.6077C16.7997 10.6602 16.8372 10.7015 16.8484 10.7015C16.8559 10.6965 16.8622 10.6715 16.8672 10.6265C16.8747 10.524 16.9172 10.459 16.9947 10.4315C17.0622 10.4052 17.1072 10.4202 17.4148 10.544C17.7411 10.6715 18.2774 10.679 18.8476 10.5665C19.0947 10.51 19.3517 10.5126 19.5977 10.574C19.8677 10.6865 19.9278 10.9753 19.7327 11.1928C19.6464 11.2904 19.5677 11.3279 19.2939 11.4029C19.0555 11.466 18.8077 11.4851 18.5625 11.4591C18.1574 11.4554 18.0112 11.4629 17.8499 11.4966C17.6661 11.5342 17.5573 11.5379 17.0322 11.5267L16.4209 11.5117L16.4884 11.5642L16.6046 11.6504C16.6534 11.6767 16.6497 11.6804 16.5821 11.7067C16.5446 11.7217 16.4546 11.7329 16.3834 11.7329H16.2596L16.2446 11.838C16.2345 11.8875 16.2345 11.9385 16.2446 11.988C16.2596 12.023 16.2496 12.033 16.2146 12.018C16.1883 12.0067 16.1171 11.988 16.0533 11.9767C15.989 11.9629 15.9262 11.9428 15.8658 11.9167C15.7945 11.8792 15.787 11.8792 15.7607 11.928C15.7382 11.9655 15.5282 12.123 15.4982 12.123C15.4845 12.0257 15.4567 11.931 15.4157 11.8417C15.3782 11.7629 15.3444 11.6729 15.3332 11.6467C15.3232 11.6067 15.3107 11.6029 15.2957 11.6354C15.2844 11.6542 15.2694 11.7104 15.2582 11.7554C15.2447 11.8161 15.2219 11.8743 15.1906 11.928L15.1344 12.0105L15.0969 11.9392C15.0594 11.8642 14.9994 11.7817 14.9768 11.7817C14.9693 11.7817 14.9606 11.8005 14.9506 11.838C14.9318 11.898 14.7856 12.0743 14.7481 12.0743C14.7368 12.0743 14.7256 12.0255 14.7256 11.9617C14.7256 11.9055 14.7143 11.853 14.6993 11.853C14.6843 11.8555 14.6755 11.868 14.673 11.8905C14.673 11.9355 14.5493 12.078 14.5043 12.078C14.4843 12.078 14.463 12.0905 14.4405 12.1155C14.3955 12.1643 14.358 12.1568 14.3767 12.1005C14.382 12.0525 14.3769 12.0039 14.3617 11.958L14.3242 11.838C14.3192 11.8205 14.2692 11.8267 14.1742 11.8567C14.0242 11.9055 13.9717 11.8942 14.0504 11.8342C14.0804 11.8117 14.1254 11.7329 14.1479 11.6617C14.1742 11.5867 14.2117 11.5229 14.2305 11.5154C14.258 11.5054 14.2555 11.5204 14.223 11.5604C14.2016 11.5892 14.1875 11.6226 14.1817 11.6579C14.1817 11.6767 14.163 11.7254 14.1442 11.7667C14.1254 11.808 14.1067 11.8417 14.1104 11.8455C14.1142 11.8492 14.1742 11.8267 14.2417 11.7967L14.3617 11.7367V11.7892C14.3617 11.8192 14.3767 11.8942 14.3955 11.958L14.4292 12.0705L14.5118 12.033C14.5943 11.9955 14.673 11.8605 14.673 11.7517C14.673 11.6992 14.703 11.7067 14.7181 11.7629C14.7181 11.7779 14.7406 11.8417 14.7556 11.9017L14.7931 12.0067L14.8493 11.9392C14.8831 11.9017 14.9206 11.8267 14.9356 11.7779C14.9656 11.6879 15.0106 11.6467 15.0106 11.7142C15.0106 11.7592 15.1381 11.9317 15.1606 11.9167C15.1756 11.9092 15.1981 11.8455 15.2169 11.7742C15.2544 11.6242 15.3107 11.5267 15.3482 11.5492C15.3632 11.5592 15.3669 11.5717 15.3594 11.5867C15.3519 11.5942 15.3819 11.6917 15.4269 11.7967L15.5244 12.033C15.5395 12.0705 15.5545 12.0705 15.6482 11.9842C15.7045 11.9317 15.7607 11.8755 15.7645 11.8567C15.7757 11.8267 15.787 11.8305 15.8395 11.8642C15.9501 11.9226 16.0712 11.9583 16.1958 11.9692C16.2033 11.9617 16.2108 11.8942 16.2108 11.8192L16.2146 11.6804L16.2896 11.6954C16.3271 11.7067 16.4134 11.7067 16.4771 11.6954L16.5896 11.6804L16.4884 11.6054C16.4321 11.5679 16.3759 11.5192 16.3609 11.4966C16.3458 11.4741 16.2971 11.4516 16.2408 11.4479C16.0871 11.4329 15.8133 11.2829 15.8133 11.2078C15.8183 11.1978 15.8458 11.2153 15.8958 11.2604C16.0008 11.3541 16.1433 11.4104 16.2708 11.4104H16.3609L16.3046 11.3354C16.2646 11.2771 16.2389 11.2103 16.2296 11.1403C16.2221 11.0278 16.2108 11.0128 16.0946 10.934C16.0271 10.8863 15.9643 10.8323 15.907 10.7728L15.8433 10.7015L15.8095 10.7878C15.7895 10.8403 15.7732 10.869 15.7607 10.874C15.7532 10.874 15.7157 10.844 15.6857 10.8103C15.6646 10.7858 15.6392 10.7655 15.6107 10.7503C15.5995 10.7503 15.5732 10.7953 15.5432 10.8515L15.4907 10.9528L15.4532 10.8965C15.4198 10.8506 15.3821 10.8079 15.3407 10.769C15.2932 10.729 15.2769 10.7065 15.2919 10.7015C15.3069 10.7015 15.3557 10.739 15.4044 10.7878L15.4869 10.874L15.5244 10.8103C15.5461 10.7661 15.5527 10.716 15.5432 10.6677C15.5282 10.6027 15.5319 10.594 15.5545 10.6415C15.5868 10.6838 15.6246 10.7217 15.667 10.754L15.7495 10.8215L15.8058 10.7203C15.862 10.6152 15.862 10.6152 15.8845 10.679C15.922 10.7578 16.1658 10.9603 16.3721 11.0766C16.4096 11.0966 16.3971 11.0341 16.3346 10.889C16.3168 10.8409 16.3066 10.7903 16.3046 10.739C16.3046 10.6715 16.2858 10.6415 16.1996 10.574C16.1461 10.5395 16.1014 10.4931 16.0689 10.4384C16.0364 10.3838 16.0169 10.3223 16.012 10.2589C16.0008 10.1952 15.9783 10.1276 15.9595 10.1051C15.937 10.0626 15.9295 10.0951 15.937 10.2027C15.9445 10.2814 15.9333 10.3789 15.9145 10.4202L15.8845 10.4952L15.862 10.4315C15.847 10.3977 15.787 10.3377 15.7307 10.3002C15.6745 10.2627 15.6332 10.2252 15.6407 10.2177C15.6482 10.2102 15.7082 10.2439 15.772 10.2927C15.8733 10.3714 15.892 10.3789 15.907 10.3452C15.922 10.3077 15.907 10.1351 15.877 10.0151C15.862 9.95512 15.862 9.95512 15.937 10.0301C15.987 10.0776 16.0233 10.1552 16.0458 10.2627C16.0758 10.4052 16.0908 10.4315 16.2221 10.5477C16.3008 10.619 16.3721 10.6715 16.3759 10.6677C16.3834 10.6602 16.3909 10.4802 16.3984 10.2627C16.4134 9.84635 16.3984 9.74508 16.2971 9.61756L16.2446 9.55004L16.3271 9.46378C16.4195 9.37536 16.4813 9.25971 16.5034 9.13372L16.5184 9.03245L16.4284 9.11871C16.3533 9.18998 16.3158 9.20498 16.2296 9.20498C16.1433 9.20498 16.1096 9.18998 16.0533 9.12997C15.9657 9.0456 15.8588 8.98382 15.742 8.94993C15.6995 8.93493 15.6795 8.94243 15.682 8.97244C15.682 8.99494 15.6595 9.05495 15.6295 9.11121L15.577 9.20873L15.4644 9.09621C15.3932 9.03245 15.3144 8.97619 15.2506 8.96119C15.0969 8.92368 15.0894 8.92368 15.0894 9.03995C15.0869 9.21748 15.0169 9.24874 14.8793 9.13372C14.7743 9.0437 14.6918 9.0212 14.493 9.04745L14.343 9.06245L14.3692 9.12997C14.3917 9.18623 14.388 9.21248 14.3392 9.27624C14.2605 9.38126 14.1592 9.42627 14.0017 9.42627C13.9267 9.42627 13.8366 9.44127 13.7991 9.46003C13.7616 9.47878 13.6641 9.49753 13.5853 9.50503C13.5103 9.51254 13.4241 9.52754 13.3978 9.53504C13.3603 9.55004 13.3603 9.53504 13.3716 9.45253C13.3903 9.325 13.2965 9.22748 13.1578 9.22748C12.974 9.22748 12.8915 9.39251 12.9627 9.61005L13.0002 9.75258C13.0495 9.84637 13.1156 9.93029 13.1953 10.0001C13.2928 10.0976 13.3828 10.1989 13.3978 10.2252C13.428 10.2643 13.4664 10.2963 13.5103 10.3189L13.5928 10.3639L13.5816 10.2739C13.5691 10.1739 13.5891 10.1602 13.6416 10.2327C13.6604 10.2552 13.7091 10.2964 13.7466 10.3189C13.8104 10.3564 13.8216 10.3564 13.8216 10.3264C13.8216 10.3039 13.8329 10.2552 13.8479 10.2177L13.8741 10.1502L13.9229 10.2439C13.9492 10.2964 14.0354 10.4127 14.1142 10.5065C14.268 10.6827 14.3655 10.8815 14.3167 10.9265C14.2942 10.9453 14.2417 10.9453 14.1292 10.9228C14.0467 10.9078 13.9417 10.8965 13.8967 10.904C13.8104 10.9153 13.8029 10.904 13.8591 10.8365C13.9154 10.7615 13.9042 10.7503 13.7916 10.7503C13.6604 10.7503 13.334 10.6865 13.2065 10.6377C13.0865 10.589 13.0565 10.6002 13.019 10.7165L12.9552 10.9265L12.9177 11.0391L13.0527 11.0278C13.1224 11.0205 13.1913 11.008 13.259 10.9903C13.2856 10.9815 13.3136 10.9776 13.3416 10.9791C13.3491 10.9828 13.3303 11.0278 13.304 11.0803L13.2515 11.1703L13.334 11.1553C13.3791 11.1441 13.4466 11.1216 13.4841 11.1028C13.5516 11.0728 13.5591 11.0728 13.6116 11.1591C13.6791 11.2591 13.7204 11.2554 13.7354 11.1478C13.7454 11.0328 13.7854 11.0503 13.8554 11.2003C13.9229 11.3429 13.9904 11.3954 14.0054 11.3129C14.0129 11.2779 14.0392 11.2429 14.0842 11.2078C14.1667 11.1528 14.2255 11.1691 14.2605 11.2566C14.298 11.3504 14.2155 11.4441 13.9829 11.5867C13.7676 11.7056 13.5823 11.8722 13.4412 12.0737C13.3001 12.2752 13.207 12.5063 13.169 12.7494C13.0978 13.192 13.319 13.6495 13.7541 13.9834C13.9642 14.1409 14.298 14.3059 14.2755 14.2459C14.1855 13.9721 14.1892 13.4583 14.2792 13.372C14.2942 13.357 14.2905 13.4095 14.268 13.4883C14.193 13.7846 14.2305 14.0171 14.418 14.5647C14.583 15.0598 14.5605 15.2736 14.3205 15.4124C14.2455 15.4574 14.1967 15.4649 13.9904 15.4611C13.7654 15.4611 13.7391 15.4611 13.6679 15.5211C13.5823 15.6096 13.526 15.7222 13.5066 15.8437C13.5066 15.8912 13.5566 15.8862 13.6566 15.8287H13.6604Z" fill="#FFB700" stroke="black" stroke-width="0.210038"/>
<path d="M17.2986 15.8173L17.3923 15.7573L17.4561 15.8173C17.5386 15.8961 17.6399 15.8924 17.7186 15.8136C17.7586 15.7736 17.7824 15.7548 17.7899 15.7573L17.8237 15.8173C17.8412 15.8499 17.8862 15.8686 17.9587 15.8736C18.0449 15.8774 18.0712 15.8736 18.1087 15.8211L18.1462 15.7573L18.24 15.8173C18.495 15.9824 18.63 15.8098 18.5138 15.4685C18.4575 15.296 18.4913 15.1985 18.6751 14.9809C18.7538 14.8872 18.8176 14.7859 18.8176 14.7559C18.8176 14.7146 18.8026 14.7071 18.6976 14.7109C18.6 14.7109 18.57 14.6996 18.5175 14.6434C18.4325 14.5484 18.4375 14.4408 18.5325 14.3208L18.6075 14.2271L18.4725 14.137C18.3648 14.0574 18.2644 13.9683 18.1725 13.8707C18.0064 13.6766 17.7707 13.5554 17.5161 13.5332L17.3398 13.5144V13.6495C17.3398 13.8182 17.4223 13.9833 17.6399 14.2608C17.8874 14.5759 17.9024 14.6246 17.9137 15.0372L17.9249 15.386L17.8499 15.4535C17.7861 15.5135 17.7599 15.5248 17.5499 15.536C17.3511 15.5473 17.3061 15.5585 17.2498 15.6111C17.1847 15.6598 17.1395 15.7304 17.1223 15.8098C17.111 15.8661 17.1148 15.8774 17.156 15.8774C17.1823 15.8774 17.246 15.8511 17.2986 15.8173ZM11.9651 14.9172C11.9874 14.8837 12.0004 14.8448 12.0026 14.8047C12.0026 14.7672 12.0251 14.7522 12.1226 14.7371L12.2389 14.7221L12.1639 14.6584C12.0701 14.5834 12.0589 14.5271 12.1414 14.5271C12.2239 14.5271 12.3589 14.4446 12.3814 14.3808C12.3889 14.3458 12.3839 14.3171 12.3664 14.2946C12.3214 14.2421 12.2351 14.2496 12.2201 14.3096C12.2014 14.3696 12.1751 14.3696 12.1076 14.3096C12.0138 14.2158 12.0101 14.0245 12.1076 13.912C12.1489 13.8595 12.1489 13.8595 12.0926 13.8032C12.0326 13.7432 11.9876 13.6307 12.0176 13.6007C12.0251 13.5932 12.0739 13.6007 12.1226 13.6194C12.1976 13.642 12.2239 13.642 12.2539 13.6194C12.3402 13.5482 12.2464 13.4582 12.1039 13.4807C12.0489 13.4907 12.0188 13.4807 12.0138 13.4507C12.0063 13.4282 11.9576 13.3982 11.9013 13.3832C11.8001 13.3569 11.8001 13.3569 11.8001 13.4282C11.8001 13.5032 11.7575 13.5169 11.6725 13.4694C11.605 13.4319 11.5413 13.4619 11.5413 13.5332C11.5413 13.6007 11.6038 13.6307 11.7288 13.6232C11.8188 13.6194 11.8226 13.687 11.7363 13.7845L11.6725 13.8595L11.7213 13.9308C11.7963 14.0358 11.7888 14.2121 11.71 14.3021L11.6463 14.3696L11.605 14.3133C11.545 14.2383 11.4662 14.2421 11.4437 14.3246C11.4325 14.3771 11.4437 14.3996 11.5113 14.4596C11.5563 14.4971 11.6238 14.5271 11.6575 14.5271C11.7438 14.5271 11.74 14.5984 11.65 14.6659L11.575 14.7221L11.6875 14.7371C11.7475 14.7484 11.8001 14.7634 11.8001 14.7747C11.8001 14.8234 11.8751 14.9697 11.8976 14.9697C11.9176 14.9647 11.9401 14.9459 11.9651 14.9134V14.9172Z" fill="#FFB700" stroke="black" stroke-width="0.210038"/>
<path d="M13.3969 14.2937C13.4982 14.2562 13.7156 14.0688 13.7156 14.0276C13.7156 14.0126 13.6556 13.9451 13.5806 13.8776C13.4307 13.7426 13.262 13.5065 13.217 13.3715C13.1945 13.2965 13.0858 13.1766 12.7784 12.8767L12.3697 12.483L12.2535 12.513C12.1861 12.528 12.1073 12.543 12.0773 12.543C12.0211 12.543 12.0211 12.543 12.0961 12.603L12.1711 12.663L12.2835 12.603C12.3847 12.543 12.3885 12.543 12.3997 12.5917C12.4072 12.618 12.3922 12.6667 12.3622 12.7005C12.336 12.7342 12.321 12.7754 12.3248 12.7867C12.3323 12.8017 12.3135 12.8217 12.2685 12.8467C12.1935 12.8842 12.1373 13.0079 12.1973 13.0079C12.2535 13.0079 12.3735 12.8579 12.3585 12.8092C12.3535 12.7792 12.356 12.7592 12.366 12.7492C12.4147 12.723 12.411 12.8392 12.366 12.8992C12.336 12.9291 12.321 12.9666 12.3285 12.9816C12.3335 12.9966 12.3135 13.0166 12.2685 13.0416C12.1935 13.0791 12.1373 13.2028 12.1973 13.2028C12.2573 13.2028 12.3735 13.0604 12.3622 13.0079C12.3547 12.9779 12.356 12.9566 12.366 12.9441C12.3997 12.9291 12.4147 13.0191 12.3885 13.0641C12.3804 13.0763 12.3761 13.0907 12.3761 13.1053C12.3761 13.12 12.3804 13.1343 12.3885 13.1466C12.4147 13.1953 12.3885 13.2853 12.3398 13.3153C12.3198 13.3278 12.3348 13.3528 12.3847 13.3903C12.4597 13.4427 12.4597 13.4502 12.4597 13.6902C12.4597 13.8926 12.4672 13.9451 12.5047 13.9788C12.5372 14.0163 12.5522 14.0163 12.5497 13.9788C12.5459 13.9226 12.6247 13.8889 12.6809 13.8889C12.6996 13.8889 12.8084 13.9826 12.9246 14.095C13.0408 14.2075 13.1645 14.3087 13.1982 14.3125L13.2807 14.3275C13.292 14.3275 13.3444 14.3162 13.3969 14.29V14.2937ZM12.1486 13.3153C12.1486 13.2515 12.0136 13.1803 11.8524 13.1653C11.7212 13.1466 11.7212 13.1503 11.7212 13.2141C11.7212 13.2665 11.7399 13.289 11.8337 13.3265C11.9761 13.3903 12.1486 13.3828 12.1486 13.3153Z" fill="#FFB700" stroke="black" stroke-width="0.210038"/>
<path d="M12.2947 13.3076C12.3622 13.2476 12.3922 13.1801 12.351 13.1801C12.3097 13.1801 12.186 13.2851 12.186 13.3301C12.186 13.3901 12.2085 13.3863 12.2985 13.3076H12.2947ZM12.156 13.1164C12.1635 13.0839 12.1348 13.0527 12.0698 13.0227C11.9198 12.9589 11.7474 12.9252 11.7061 12.9589C11.6274 13.0227 11.6799 13.1051 11.8036 13.1201C11.8561 13.1239 11.9236 13.1389 11.9573 13.1539C12.0548 13.1914 12.1448 13.1726 12.156 13.1164ZM12.156 12.9177C12.1635 12.869 12.1298 12.8502 11.8561 12.7527C11.6499 12.6778 11.5599 12.7153 11.6274 12.839C11.6499 12.8802 11.6874 12.899 11.7736 12.9139C11.8374 12.9214 11.9236 12.9402 11.9648 12.9552C12.0798 12.9927 12.1423 12.9802 12.1523 12.9177H12.156ZM12.291 12.734C12.3322 12.6928 12.3659 12.644 12.3659 12.6215C12.3659 12.5653 12.2047 12.6703 12.1823 12.7452C12.1623 12.8327 12.1997 12.829 12.2947 12.734H12.291ZM12.156 12.7228C12.1635 12.6628 12.0685 12.6115 11.8711 12.5691C11.7261 12.5366 11.6599 12.5541 11.6724 12.6215C11.6799 12.659 11.7286 12.6853 11.8599 12.7265C12.081 12.794 12.1448 12.794 12.156 12.7228ZM12.3435 12.4453C12.5984 12.3329 12.6171 12.0517 12.3809 11.9767C12.286 11.9467 12.221 11.9642 12.186 12.0292C12.156 12.0817 12.1748 12.1717 12.2122 12.1717C12.2272 12.1742 12.236 12.1867 12.2385 12.2092C12.2385 12.3104 11.8561 12.3516 11.6987 12.2729C11.6424 12.2466 11.6237 12.1717 11.6649 12.1717C11.7024 12.1717 11.7249 12.0967 11.7061 12.048C11.6812 11.973 11.6149 11.9505 11.5075 11.9805C11.2713 12.0405 11.2788 12.3179 11.5187 12.4303C11.7844 12.5266 12.0745 12.5319 12.3435 12.4453Z" fill="#FFB700" stroke="black" stroke-width="0.210038"/>
<path d="M12.19 12.228C12.2025 12.2105 12.1975 12.193 12.175 12.1755C12.125 12.1304 12.1275 12.0717 12.1825 11.9992C12.2276 11.9467 12.2313 11.8642 12.2463 11.0578C12.2726 9.66625 12.3776 8.61981 12.5126 8.36476C12.5689 8.26725 12.5614 8.26725 12.4188 8.36476C12.2319 8.49504 12.0809 8.67052 11.98 8.87486C11.7475 9.30619 11.6687 9.88754 11.6687 11.1328C11.6687 11.8379 11.6725 11.9317 11.7137 11.9954C11.7512 12.0629 11.7512 12.0854 11.7287 12.153C11.71 12.1942 11.7025 12.2392 11.71 12.2467C11.7625 12.2955 12.1375 12.2842 12.19 12.228ZM14.2942 10.9002C14.3054 10.889 14.2867 10.8252 14.2567 10.7652C14.2117 10.6677 14.1929 10.6527 14.1291 10.6527C13.8292 10.6266 13.5368 10.5452 13.2665 10.4126C13.0752 10.3264 13.0039 10.3076 12.9852 10.3301C12.9252 10.3864 13.0227 10.5177 13.1727 10.5889C13.3935 10.6685 13.6248 10.7152 13.8591 10.7277C13.9604 10.7277 13.9641 10.7277 13.9041 10.814L13.8666 10.874H13.9791L14.1667 10.8965C14.2792 10.9227 14.2792 10.9227 14.2942 10.9002Z" fill="#FFB700" stroke="black" stroke-width="0.210038"/>
<path d="M15.4795 11.5267C15.4795 11.4891 15.3707 11.3954 15.2657 11.3316C15.1794 11.2829 15.1644 11.2791 15.1644 11.3204C15.1644 11.3804 15.1119 11.5342 15.0894 11.5342C15.0744 11.5292 15.0619 11.5079 15.0519 11.4704C15.0406 11.4329 14.9994 11.3579 14.9581 11.3091L14.8831 11.2153L14.8306 11.3016C14.7781 11.3841 14.6843 11.4629 14.6431 11.4629C14.6356 11.4629 14.6318 11.4179 14.6431 11.3691C14.6481 11.3041 14.6418 11.2666 14.6243 11.2566C14.6068 11.2466 14.5968 11.2491 14.5943 11.2641C14.5943 11.2941 14.4668 11.4366 14.4443 11.4366C14.4293 11.4341 14.4168 11.4041 14.4068 11.3466L14.3768 11.1666C14.3718 11.1241 14.3843 11.1491 14.4143 11.2416L14.4743 11.3954L14.5343 11.3016C14.5615 11.2629 14.5818 11.2197 14.5943 11.1741C14.5943 11.1541 14.603 11.1478 14.6205 11.1553C14.6356 11.1628 14.6543 11.2266 14.6618 11.2941L14.6806 11.4216L14.7481 11.3466L14.8456 11.2266C14.8718 11.1816 14.8756 11.1816 14.9319 11.2266C14.9619 11.2566 15.0106 11.3204 15.0406 11.3729C15.0706 11.4254 15.0969 11.4629 15.1006 11.4591L15.1231 11.3391L15.1381 11.2266C15.1419 11.2078 15.3407 11.3391 15.4157 11.4029C15.4607 11.4441 15.5057 11.4741 15.5132 11.4666C15.5207 11.4591 15.5282 11.3991 15.5282 11.3279C15.5282 11.2228 15.517 11.1928 15.4532 11.1366C15.3782 11.0691 15.3782 11.0691 15.3482 11.1178C15.3107 11.1816 15.2694 11.1816 15.2694 11.1178C15.2694 11.0728 15.1269 10.8965 15.0931 10.8965C15.0781 10.9015 15.0556 10.9303 15.0256 10.9828C14.9806 11.0616 14.9694 11.0691 14.9619 11.0691C14.9244 11.0691 14.7256 10.844 14.7256 10.8065C14.7256 10.774 14.7418 10.784 14.7743 10.8365C14.8079 10.8858 14.8469 10.9311 14.8906 10.9716C14.9656 11.0391 14.9956 11.0241 15.0256 10.8928C15.0381 10.8528 15.0506 10.8303 15.0631 10.8253C15.0931 10.8253 15.2657 11.0091 15.2882 11.0691L15.3144 11.1291L15.3332 11.0616C15.3557 10.9816 15.3844 10.9791 15.4194 11.0541C15.4344 11.0841 15.5095 11.1516 15.5845 11.1966L15.7233 11.2866L15.7495 11.1966C15.7695 11.1466 15.7845 11.1266 15.7945 11.1366C15.8095 11.1553 15.772 11.3054 15.7458 11.3354C15.7458 11.3391 15.697 11.3129 15.6482 11.2791L15.5545 11.2116V11.3316C15.5545 11.3954 15.547 11.4741 15.5395 11.5042C15.5207 11.5642 15.4757 11.5792 15.4757 11.5267H15.4795ZM14.7856 10.574C14.6205 10.439 14.598 10.409 14.598 10.3414L14.6018 10.2739L14.613 10.3377C14.6205 10.3752 14.6656 10.4352 14.7181 10.4802L14.8156 10.5552L14.8718 10.4877C14.9056 10.4502 14.9319 10.4052 14.9319 10.3902C14.9319 10.3452 14.9394 10.3489 15.0519 10.4465C15.1494 10.5327 15.1531 10.5327 15.1644 10.4765C15.1757 10.4465 15.1719 10.3864 15.1644 10.3452C15.1269 10.2352 15.1331 10.2152 15.1832 10.2852L15.2732 10.3902C15.3107 10.4315 15.3144 10.4315 15.3294 10.3789C15.3407 10.3452 15.3482 10.2889 15.3482 10.2514V10.1802L15.4344 10.2814C15.5207 10.3789 15.5282 10.3827 15.5507 10.3339C15.5695 10.3077 15.5807 10.2439 15.5807 10.1952C15.5807 10.1302 15.5882 10.1101 15.6032 10.1352C15.6332 10.1802 15.6145 10.2927 15.562 10.3902L15.5245 10.4652L15.4757 10.3864C15.4119 10.2889 15.3894 10.2889 15.3519 10.3939C15.3169 10.494 15.2832 10.504 15.2507 10.424C15.2282 10.3752 15.2207 10.3827 15.2057 10.4877L15.1869 10.6002L15.0744 10.514L14.9619 10.4277L14.9056 10.484C14.8793 10.5177 14.8568 10.559 14.8568 10.574C14.8543 10.6115 14.8306 10.6115 14.7856 10.574ZM16.2483 10.0639C16.1921 10.0114 16.1508 9.95887 16.1583 9.95137C16.1708 9.93887 16.1783 9.93637 16.1808 9.94387L16.2934 10.0564C16.4209 10.1914 16.3946 10.1952 16.2521 10.0639H16.2483ZM14.298 9.86135C14.2455 9.78634 14.2492 9.74133 14.3167 9.65882C14.3618 9.60256 14.3843 9.59505 14.4668 9.60631C14.523 9.61006 14.6393 9.65882 14.7256 9.71133C14.8501 9.78616 14.9929 9.82511 15.1381 9.82385L15.0744 9.71883C14.9894 9.5988 14.9944 9.57755 15.0894 9.65507C15.1869 9.73383 15.3032 9.75633 15.5657 9.74883L15.6932 9.74508L15.6182 9.67007C15.517 9.5688 15.547 9.55755 15.6632 9.65882C15.7683 9.75258 15.7645 9.76008 15.5357 9.78259C15.4403 9.79222 15.344 9.78588 15.2507 9.76384C15.1231 9.72633 15.1156 9.73008 15.1419 9.77134C15.1594 9.79884 15.1757 9.81384 15.1907 9.81634C15.2057 9.81885 15.2144 9.82885 15.2169 9.84635C15.2169 9.89511 14.9394 9.8501 14.8043 9.78634C14.5043 9.63256 14.4668 9.61756 14.3918 9.64006C14.3714 9.64715 14.3529 9.65852 14.3374 9.6734C14.3218 9.68829 14.3097 9.70634 14.3017 9.72633C14.253 9.8501 14.4293 9.94762 14.5005 9.83885C14.523 9.80509 14.5193 9.78634 14.4818 9.74508C14.4293 9.69507 14.4368 9.68257 14.5043 9.70758C14.553 9.72633 14.5568 9.8426 14.5118 9.88761C14.463 9.93637 14.343 9.92511 14.298 9.86135Z" fill="#000001" stroke="black" stroke-width="0.210038"/>
<path d="M15.4946 9.55736C15.4571 9.51987 15.4871 9.51237 15.6558 9.50862C15.8657 9.50487 15.9932 9.47113 16.1431 9.37366C16.2631 9.29869 16.2968 9.31368 16.1806 9.39241C16.0794 9.46739 15.9182 9.51987 15.757 9.53486L15.5658 9.56111C15.5308 9.5686 15.5058 9.56736 15.4908 9.55736H15.4946Z" fill="#000001" stroke="black" stroke-width="0.210038"/>
<path d="M13.6604 15.8287L13.7466 15.7762L13.7841 15.8287C13.8329 15.8962 13.9717 15.8924 14.0617 15.8287L14.1329 15.7724L14.193 15.8249C14.268 15.8962 14.4105 15.8962 14.5043 15.8249C14.568 15.7799 14.5793 15.7762 14.6168 15.8137C14.643 15.8362 14.7181 15.8587 14.7818 15.8699C14.9018 15.8849 14.9018 15.8849 14.9693 15.7799C15.0294 15.6937 15.0369 15.6599 15.0256 15.5736L15.0031 15.3749C14.9956 15.2773 14.9994 15.2773 15.1381 15.2248L15.3407 15.1498C15.3969 15.1161 15.5545 14.9323 15.5545 14.8948C15.5545 14.8873 15.4944 14.8723 15.4194 14.8648C15.1194 14.8298 15.0681 14.6672 15.2657 14.3772C15.577 13.8896 15.7682 13.4207 15.7682 13.1244C15.7682 12.9919 15.777 12.9419 15.7945 12.9744C15.8658 13.0907 15.7382 13.5895 15.5507 13.9496L15.4757 14.0921L15.547 14.0771C15.5845 14.0659 15.8245 13.9646 16.072 13.8521C16.7547 13.5445 16.9872 13.4845 17.4298 13.5033C17.8011 13.5183 17.9549 13.5895 18.2174 13.8633C18.3562 14.0134 18.4912 14.1146 18.735 14.2684C19.2526 14.591 19.2751 14.621 19.3014 15.0035C19.3276 15.3861 19.3126 15.4124 19.0201 15.4761C18.765 15.5336 18.615 15.6462 18.57 15.8137C18.545 15.8987 18.595 15.8999 18.72 15.8174L18.8138 15.7574L18.8551 15.8174C18.9113 15.8962 19.0238 15.8962 19.1176 15.8174L19.1926 15.7612L19.2676 15.8174C19.3802 15.9112 19.5302 15.8887 19.5752 15.7724C19.5827 15.7524 19.6077 15.7612 19.6502 15.7987C19.7365 15.8737 19.9503 15.9037 19.9728 15.8437C19.9803 15.8212 19.9653 15.7687 19.9353 15.7237C19.8115 15.5361 19.7702 15.4499 19.7702 15.3486C19.7702 15.2061 19.8077 15.1348 19.9728 15.0223C20.1678 14.8798 20.2278 14.6997 20.0778 14.6997C19.9878 14.6997 19.894 14.6172 19.834 14.4859C19.714 14.2159 19.7402 13.9158 19.9202 13.4132C20.0578 13.1174 20.127 12.7943 20.1228 12.4681C20.1228 12.1905 20.1153 12.1455 20.0553 11.9917C20.0084 11.8848 19.9506 11.783 19.8827 11.6879L19.7777 11.5492L19.909 11.4366C20.3141 11.1028 20.2316 10.5552 19.744 10.3452C19.5939 10.2777 19.5564 10.2739 19.2939 10.2739C19.1439 10.2739 18.9001 10.2964 18.7688 10.3227C18.5926 10.3506 18.4146 10.3656 18.2362 10.3677C17.9811 10.3677 17.9361 10.3602 17.8386 10.3077C17.7374 10.2552 17.7186 10.2289 17.6998 10.1014C17.698 10.0894 17.6933 10.078 17.6862 10.0682C17.679 10.0584 17.6695 10.0505 17.6586 10.0451C17.6211 10.0339 17.4636 10.1727 17.441 10.2327C17.426 10.2664 17.4185 10.2627 17.3848 10.2214C17.3528 10.1807 17.3274 10.1351 17.3098 10.0864C17.2698 9.96387 17.3223 9.86885 17.4673 9.80134L17.5798 9.74883L17.5123 9.70757C17.3773 9.62131 17.1447 9.68132 17.0622 9.82009C17.036 9.8576 17.0097 9.89511 17.0022 9.89511C16.9947 9.89511 16.9497 9.8576 16.9047 9.80884C16.7284 9.63631 16.7884 9.38126 17.0247 9.30625C17.1485 9.26499 17.261 9.295 17.2835 9.38126C17.321 9.50503 17.426 9.34 17.4073 9.18623C17.396 9.08496 17.396 9.08121 17.4673 9.08121C17.5648 9.08121 17.7674 9.20873 17.8349 9.30625C17.9099 9.42252 17.9024 9.6063 17.8199 9.74133L17.7561 9.84635L17.8424 9.83134C17.9624 9.80509 18.0824 9.73008 18.1424 9.63631C18.174 9.57659 18.1918 9.51051 18.1944 9.44298C18.197 9.37546 18.1844 9.30821 18.1574 9.24624C18.1012 9.14497 18.1087 9.12997 18.1912 9.16372C18.3262 9.21998 18.4012 9.28374 18.4537 9.39251C18.5062 9.49003 18.51 9.51254 18.4837 9.61756C18.4658 9.6815 18.4379 9.74224 18.4012 9.79759C18.3562 9.8576 18.3525 9.86885 18.39 9.86885C18.4575 9.86885 18.5925 9.80509 18.6413 9.75633C18.6675 9.72632 18.705 9.66256 18.7238 9.6063L18.7613 9.51254L18.7988 9.58755C18.8551 9.68882 18.9676 9.78259 19.1026 9.8426C19.2489 9.90261 19.3089 9.90636 19.2339 9.8501C19.1814 9.81259 19.0838 9.53129 19.1176 9.50503C19.2795 9.59568 19.4273 9.70939 19.5564 9.8426C19.7702 10.0339 19.9052 10.0976 20.1003 10.0976C20.3516 10.0976 20.4979 9.8801 20.3853 9.67382C20.3216 9.55379 20.1753 9.53504 20.0853 9.63631C20.0478 9.68132 20.0353 9.72758 20.0478 9.77508C20.0628 9.83509 20.059 9.8426 20.0028 9.8426C19.9277 9.8426 19.7852 9.74883 19.5302 9.53504C19.1752 9.22952 18.7671 8.99178 18.3262 8.83366C18.0276 8.76432 17.7191 8.74782 17.4148 8.7849C17.1747 8.82991 16.8897 8.96869 16.7322 9.11496C16.4584 9.37751 16.4546 9.72633 16.7209 10.0451L16.7959 10.1351L16.7472 10.2177C16.709 10.2762 16.6899 10.3452 16.6926 10.4151C16.6953 10.485 16.7196 10.5523 16.7622 10.6077C16.7997 10.6602 16.8372 10.7015 16.8484 10.7015C16.8559 10.6965 16.8622 10.6715 16.8672 10.6265C16.8747 10.524 16.9172 10.459 16.9947 10.4315C17.0622 10.4052 17.1072 10.4202 17.4148 10.544C17.7411 10.6715 18.2774 10.679 18.8476 10.5665C19.0947 10.51 19.3517 10.5126 19.5977 10.574C19.8677 10.6865 19.9278 10.9753 19.7327 11.1928C19.6464 11.2904 19.5677 11.3279 19.2939 11.4029C19.0555 11.466 18.8077 11.4851 18.5625 11.4591C18.1574 11.4554 18.0112 11.4629 17.8499 11.4966C17.6661 11.5342 17.5573 11.5379 17.0322 11.5267L16.4209 11.5117L16.4884 11.5642L16.6046 11.6504C16.6534 11.6767 16.6497 11.6804 16.5821 11.7067C16.5446 11.7217 16.4546 11.7329 16.3834 11.7329H16.2596L16.2446 11.838C16.2345 11.8875 16.2345 11.9385 16.2446 11.988C16.2596 12.023 16.2496 12.033 16.2146 12.018C16.1883 12.0067 16.1171 11.988 16.0533 11.9767C15.989 11.9629 15.9262 11.9428 15.8658 11.9167C15.7945 11.8792 15.787 11.8792 15.7607 11.928C15.7382 11.9655 15.5282 12.123 15.4982 12.123C15.4845 12.0257 15.4567 11.931 15.4157 11.8417C15.3782 11.7629 15.3444 11.6729 15.3332 11.6467C15.3232 11.6067 15.3107 11.6029 15.2957 11.6354C15.2844 11.6542 15.2694 11.7104 15.2582 11.7554C15.2447 11.8161 15.2219 11.8743 15.1906 11.928L15.1344 12.0105L15.0969 11.9392C15.0594 11.8642 14.9994 11.7817 14.9768 11.7817C14.9693 11.7817 14.9606 11.8005 14.9506 11.838C14.9318 11.898 14.7856 12.0743 14.7481 12.0743C14.7368 12.0743 14.7256 12.0255 14.7256 11.9617C14.7256 11.9055 14.7143 11.853 14.6993 11.853C14.6843 11.8555 14.6755 11.868 14.673 11.8905C14.673 11.9355 14.5493 12.078 14.5043 12.078C14.4843 12.078 14.463 12.0905 14.4405 12.1155C14.3955 12.1643 14.358 12.1568 14.3767 12.1005C14.382 12.0525 14.3769 12.0039 14.3617 11.958L14.3242 11.838C14.3192 11.8205 14.2692 11.8267 14.1742 11.8567C14.0242 11.9055 13.9717 11.8942 14.0504 11.8342C14.0804 11.8117 14.1254 11.7329 14.1479 11.6617C14.1742 11.5867 14.2117 11.5229 14.2305 11.5154C14.258 11.5054 14.2555 11.5204 14.223 11.5604C14.2016 11.5892 14.1875 11.6226 14.1817 11.6579C14.1817 11.6767 14.163 11.7254 14.1442 11.7667C14.1254 11.808 14.1067 11.8417 14.1104 11.8455C14.1142 11.8492 14.1742 11.8267 14.2417 11.7967L14.3617 11.7367V11.7892C14.3617 11.8192 14.3767 11.8942 14.3955 11.958L14.4292 12.0705L14.5118 12.033C14.5943 11.9955 14.673 11.8605 14.673 11.7517C14.673 11.6992 14.703 11.7067 14.7181 11.7629C14.7181 11.7779 14.7406 11.8417 14.7556 11.9017L14.7931 12.0067L14.8493 11.9392C14.8831 11.9017 14.9206 11.8267 14.9356 11.7779C14.9656 11.6879 15.0106 11.6467 15.0106 11.7142C15.0106 11.7592 15.1381 11.9317 15.1606 11.9167C15.1756 11.9092 15.1981 11.8455 15.2169 11.7742C15.2544 11.6242 15.3107 11.5267 15.3482 11.5492C15.3632 11.5592 15.3669 11.5717 15.3594 11.5867C15.3519 11.5942 15.3819 11.6917 15.4269 11.7967L15.5244 12.033C15.5395 12.0705 15.5545 12.0705 15.6482 11.9842C15.7045 11.9317 15.7607 11.8755 15.7645 11.8567C15.7757 11.8267 15.787 11.8305 15.8395 11.8642C15.9501 11.9226 16.0712 11.9583 16.1958 11.9692C16.2033 11.9617 16.2108 11.8942 16.2108 11.8192L16.2146 11.6804L16.2896 11.6954C16.3271 11.7067 16.4134 11.7067 16.4771 11.6954L16.5896 11.6804L16.4884 11.6054C16.4321 11.5679 16.3759 11.5192 16.3609 11.4966C16.3458 11.4741 16.2971 11.4516 16.2408 11.4479C16.0871 11.4329 15.8133 11.2829 15.8133 11.2078C15.8183 11.1978 15.8458 11.2153 15.8958 11.2604C16.0008 11.3541 16.1433 11.4104 16.2708 11.4104H16.3609L16.3046 11.3354C16.2646 11.2771 16.2389 11.2103 16.2296 11.1403C16.2221 11.0278 16.2108 11.0128 16.0946 10.934C16.0271 10.8863 15.9643 10.8323 15.907 10.7728L15.8433 10.7015L15.8095 10.7878C15.7895 10.8403 15.7732 10.869 15.7607 10.874C15.7532 10.874 15.7157 10.844 15.6857 10.8103C15.6646 10.7858 15.6392 10.7655 15.6107 10.7503C15.5995 10.7503 15.5732 10.7953 15.5432 10.8515L15.4907 10.9528L15.4532 10.8965C15.4198 10.8506 15.3821 10.8079 15.3407 10.769C15.2932 10.729 15.2769 10.7065 15.2919 10.7015C15.3069 10.7015 15.3557 10.739 15.4044 10.7878L15.4869 10.874L15.5244 10.8103C15.5461 10.7661 15.5527 10.716 15.5432 10.6677C15.5282 10.6027 15.5319 10.594 15.5545 10.6415C15.5868 10.6838 15.6246 10.7217 15.667 10.754L15.7495 10.8215L15.8058 10.7203C15.862 10.6152 15.862 10.6152 15.8845 10.679C15.922 10.7578 16.1658 10.9603 16.3721 11.0766C16.4096 11.0966 16.3971 11.0341 16.3346 10.889C16.3168 10.8409 16.3066 10.7903 16.3046 10.739C16.3046 10.6715 16.2858 10.6415 16.1996 10.574C16.1461 10.5395 16.1014 10.4931 16.0689 10.4384C16.0364 10.3838 16.0169 10.3223 16.012 10.2589C16.0008 10.1952 15.9783 10.1276 15.9595 10.1051C15.937 10.0626 15.9295 10.0951 15.937 10.2027C15.9445 10.2814 15.9333 10.3789 15.9145 10.4202L15.8845 10.4952L15.862 10.4315C15.847 10.3977 15.787 10.3377 15.7307 10.3002C15.6745 10.2627 15.6332 10.2252 15.6407 10.2177C15.6482 10.2102 15.7082 10.2439 15.772 10.2927C15.8733 10.3714 15.892 10.3789 15.907 10.3452C15.922 10.3077 15.907 10.1351 15.877 10.0151C15.862 9.95512 15.862 9.95512 15.937 10.0301C15.987 10.0776 16.0233 10.1552 16.0458 10.2627C16.0758 10.4052 16.0908 10.4315 16.2221 10.5477C16.3008 10.619 16.3721 10.6715 16.3759 10.6677C16.3834 10.6602 16.3909 10.4802 16.3984 10.2627C16.4134 9.84635 16.3984 9.74508 16.2971 9.61756L16.2446 9.55004L16.3271 9.46378C16.4195 9.37536 16.4813 9.25971 16.5034 9.13372L16.5184 9.03245L16.4284 9.11871C16.3533 9.18998 16.3158 9.20498 16.2296 9.20498C16.1433 9.20498 16.1096 9.18998 16.0533 9.12997C15.9657 9.0456 15.8588 8.98382 15.742 8.94993C15.6995 8.93493 15.6795 8.94243 15.682 8.97244C15.682 8.99494 15.6595 9.05495 15.6295 9.11121L15.577 9.20873L15.4644 9.09621C15.3932 9.03245 15.3144 8.97619 15.2506 8.96119C15.0969 8.92368 15.0894 8.92368 15.0894 9.03995C15.0869 9.21748 15.0169 9.24874 14.8793 9.13372C14.7743 9.0437 14.6918 9.0212 14.493 9.04745L14.343 9.06245L14.3692 9.12997C14.3917 9.18623 14.388 9.21248 14.3392 9.27624C14.2605 9.38126 14.1592 9.42627 14.0017 9.42627C13.9267 9.42627 13.8366 9.44127 13.7991 9.46003C13.7616 9.47878 13.6641 9.49753 13.5853 9.50503C13.5103 9.51254 13.4241 9.52754 13.3978 9.53504C13.3603 9.55004 13.3603 9.53504 13.3716 9.45253C13.3903 9.325 13.2965 9.22748 13.1578 9.22748C12.974 9.22748 12.8915 9.39251 12.9627 9.61005L13.0002 9.75258C13.0495 9.84637 13.1156 9.93029 13.1953 10.0001C13.2928 10.0976 13.3828 10.1989 13.3978 10.2252C13.428 10.2643 13.4664 10.2963 13.5103 10.3189L13.5928 10.3639L13.5816 10.2739C13.5691 10.1739 13.5891 10.1602 13.6416 10.2327C13.6604 10.2552 13.7091 10.2964 13.7466 10.3189C13.8104 10.3564 13.8216 10.3564 13.8216 10.3264C13.8216 10.3039 13.8329 10.2552 13.8479 10.2177L13.8741 10.1502L13.9229 10.2439C13.9492 10.2964 14.0354 10.4127 14.1142 10.5065C14.268 10.6827 14.3655 10.8815 14.3167 10.9265C14.2942 10.9453 14.2417 10.9453 14.1292 10.9228C14.0467 10.9078 13.9417 10.8965 13.8967 10.904C13.8104 10.9153 13.8029 10.904 13.8591 10.8365C13.9154 10.7615 13.9042 10.7503 13.7916 10.7503C13.6604 10.7503 13.334 10.6865 13.2065 10.6377C13.0865 10.589 13.0565 10.6002 13.019 10.7165L12.9552 10.9265L12.9177 11.0391L13.0527 11.0278C13.1224 11.0205 13.1913 11.008 13.259 10.9903C13.2856 10.9815 13.3136 10.9776 13.3416 10.9791C13.3491 10.9828 13.3303 11.0278 13.304 11.0803L13.2515 11.1703L13.334 11.1553C13.3791 11.1441 13.4466 11.1216 13.4841 11.1028C13.5516 11.0728 13.5591 11.0728 13.6116 11.1591C13.6791 11.2591 13.7204 11.2554 13.7354 11.1478C13.7454 11.0328 13.7854 11.0503 13.8554 11.2003C13.9229 11.3429 13.9904 11.3954 14.0054 11.3129C14.0129 11.2779 14.0392 11.2429 14.0842 11.2078C14.1667 11.1528 14.2255 11.1691 14.2605 11.2566C14.298 11.3504 14.2155 11.4441 13.9829 11.5867C13.7676 11.7056 13.5823 11.8722 13.4412 12.0737C13.3001 12.2752 13.207 12.5063 13.169 12.7494C13.0978 13.192 13.319 13.6495 13.7541 13.9834C13.9642 14.1409 14.298 14.3059 14.2755 14.2459C14.1855 13.9721 14.1892 13.4583 14.2792 13.372C14.2942 13.357 14.2905 13.4095 14.268 13.4883C14.193 13.7846 14.2305 14.0171 14.418 14.5647C14.583 15.0598 14.5605 15.2736 14.3205 15.4124C14.2455 15.4574 14.1967 15.4649 13.9904 15.4611C13.7654 15.4611 13.7391 15.4611 13.6679 15.5211C13.5823 15.6096 13.526 15.7222 13.5066 15.8437C13.5066 15.8912 13.5566 15.8862 13.6566 15.8287H13.6604Z" fill="#FFB700"/>
<path d="M17.2986 15.8173L17.3923 15.7573L17.4561 15.8173C17.5386 15.8961 17.6399 15.8924 17.7186 15.8136C17.7586 15.7736 17.7824 15.7548 17.7899 15.7573L17.8237 15.8173C17.8412 15.8499 17.8862 15.8686 17.9587 15.8736C18.0449 15.8774 18.0712 15.8736 18.1087 15.8211L18.1462 15.7573L18.24 15.8173C18.495 15.9824 18.63 15.8098 18.5138 15.4685C18.4575 15.296 18.4913 15.1985 18.6751 14.9809C18.7538 14.8872 18.8176 14.7859 18.8176 14.7559C18.8176 14.7146 18.8026 14.7071 18.6976 14.7109C18.6 14.7109 18.57 14.6996 18.5175 14.6434C18.4325 14.5484 18.4375 14.4408 18.5325 14.3208L18.6075 14.2271L18.4725 14.137C18.3648 14.0574 18.2644 13.9683 18.1725 13.8707C18.0064 13.6766 17.7707 13.5554 17.5161 13.5332L17.3398 13.5144V13.6495C17.3398 13.8182 17.4223 13.9833 17.6399 14.2608C17.8874 14.5759 17.9024 14.6246 17.9137 15.0372L17.9249 15.386L17.8499 15.4535C17.7861 15.5135 17.7599 15.5248 17.5499 15.536C17.3511 15.5473 17.3061 15.5585 17.2498 15.6111C17.1847 15.6598 17.1395 15.7304 17.1223 15.8098C17.111 15.8661 17.1148 15.8774 17.156 15.8774C17.1823 15.8774 17.246 15.8511 17.2986 15.8173ZM11.9651 14.9172C11.9874 14.8837 12.0004 14.8448 12.0026 14.8047C12.0026 14.7672 12.0251 14.7522 12.1226 14.7371L12.2389 14.7221L12.1639 14.6584C12.0701 14.5834 12.0589 14.5271 12.1414 14.5271C12.2239 14.5271 12.3589 14.4446 12.3814 14.3808C12.3889 14.3458 12.3839 14.3171 12.3664 14.2946C12.3214 14.2421 12.2351 14.2496 12.2201 14.3096C12.2014 14.3696 12.1751 14.3696 12.1076 14.3096C12.0138 14.2158 12.0101 14.0245 12.1076 13.912C12.1489 13.8595 12.1489 13.8595 12.0926 13.8032C12.0326 13.7432 11.9876 13.6307 12.0176 13.6007C12.0251 13.5932 12.0739 13.6007 12.1226 13.6194C12.1976 13.642 12.2239 13.642 12.2539 13.6194C12.3402 13.5482 12.2464 13.4582 12.1039 13.4807C12.0489 13.4907 12.0188 13.4807 12.0138 13.4507C12.0063 13.4282 11.9576 13.3982 11.9013 13.3832C11.8001 13.3569 11.8001 13.3569 11.8001 13.4282C11.8001 13.5032 11.7575 13.5169 11.6725 13.4694C11.605 13.4319 11.5413 13.4619 11.5413 13.5332C11.5413 13.6007 11.6038 13.6307 11.7288 13.6232C11.8188 13.6194 11.8226 13.687 11.7363 13.7845L11.6725 13.8595L11.7213 13.9308C11.7963 14.0358 11.7888 14.2121 11.71 14.3021L11.6463 14.3696L11.605 14.3133C11.545 14.2383 11.4662 14.2421 11.4437 14.3246C11.4325 14.3771 11.4437 14.3996 11.5113 14.4596C11.5563 14.4971 11.6238 14.5271 11.6575 14.5271C11.7438 14.5271 11.74 14.5984 11.65 14.6659L11.575 14.7221L11.6875 14.7371C11.7475 14.7484 11.8001 14.7634 11.8001 14.7747C11.8001 14.8234 11.8751 14.9697 11.8976 14.9697C11.9176 14.9647 11.9401 14.9459 11.9651 14.9134V14.9172Z" fill="#FFB700"/>
<path d="M13.3969 14.2937C13.4982 14.2562 13.7156 14.0688 13.7156 14.0276C13.7156 14.0126 13.6556 13.9451 13.5806 13.8776C13.4307 13.7426 13.262 13.5065 13.217 13.3715C13.1945 13.2965 13.0858 13.1766 12.7784 12.8767L12.3697 12.483L12.2535 12.513C12.1861 12.528 12.1073 12.543 12.0773 12.543C12.0211 12.543 12.0211 12.543 12.0961 12.603L12.1711 12.663L12.2835 12.603C12.3847 12.543 12.3885 12.543 12.3997 12.5917C12.4072 12.618 12.3922 12.6667 12.3622 12.7005C12.336 12.7342 12.321 12.7754 12.3248 12.7867C12.3323 12.8017 12.3135 12.8217 12.2685 12.8467C12.1935 12.8842 12.1373 13.0079 12.1973 13.0079C12.2535 13.0079 12.3735 12.8579 12.3585 12.8092C12.3535 12.7792 12.356 12.7592 12.366 12.7492C12.4147 12.723 12.411 12.8392 12.366 12.8992C12.336 12.9291 12.321 12.9666 12.3285 12.9816C12.3335 12.9966 12.3135 13.0166 12.2685 13.0416C12.1935 13.0791 12.1373 13.2028 12.1973 13.2028C12.2573 13.2028 12.3735 13.0604 12.3622 13.0079C12.3547 12.9779 12.356 12.9566 12.366 12.9441C12.3997 12.9291 12.4147 13.0191 12.3885 13.0641C12.3804 13.0763 12.3761 13.0907 12.3761 13.1053C12.3761 13.12 12.3804 13.1343 12.3885 13.1466C12.4147 13.1953 12.3885 13.2853 12.3398 13.3153C12.3198 13.3278 12.3348 13.3528 12.3847 13.3903C12.4597 13.4427 12.4597 13.4502 12.4597 13.6902C12.4597 13.8926 12.4672 13.9451 12.5047 13.9788C12.5372 14.0163 12.5522 14.0163 12.5497 13.9788C12.5459 13.9226 12.6247 13.8889 12.6809 13.8889C12.6996 13.8889 12.8084 13.9826 12.9246 14.095C13.0408 14.2075 13.1645 14.3087 13.1982 14.3125L13.2807 14.3275C13.292 14.3275 13.3444 14.3162 13.3969 14.29V14.2937ZM12.1486 13.3153C12.1486 13.2515 12.0136 13.1803 11.8524 13.1653C11.7212 13.1466 11.7212 13.1503 11.7212 13.2141C11.7212 13.2665 11.7399 13.289 11.8337 13.3265C11.9761 13.3903 12.1486 13.3828 12.1486 13.3153Z" fill="#FFB700"/>
<path d="M12.2947 13.3076C12.3622 13.2476 12.3922 13.1801 12.351 13.1801C12.3097 13.1801 12.186 13.2851 12.186 13.3301C12.186 13.3901 12.2085 13.3863 12.2985 13.3076H12.2947ZM12.156 13.1164C12.1635 13.0839 12.1348 13.0527 12.0698 13.0227C11.9198 12.9589 11.7474 12.9252 11.7061 12.9589C11.6274 13.0227 11.6799 13.1051 11.8036 13.1201C11.8561 13.1239 11.9236 13.1389 11.9573 13.1539C12.0548 13.1914 12.1448 13.1726 12.156 13.1164ZM12.156 12.9177C12.1635 12.869 12.1298 12.8502 11.8561 12.7527C11.6499 12.6778 11.5599 12.7153 11.6274 12.839C11.6499 12.8802 11.6874 12.899 11.7736 12.9139C11.8374 12.9214 11.9236 12.9402 11.9648 12.9552C12.0798 12.9927 12.1423 12.9802 12.1523 12.9177H12.156ZM12.291 12.734C12.3322 12.6928 12.3659 12.644 12.3659 12.6215C12.3659 12.5653 12.2047 12.6703 12.1823 12.7452C12.1623 12.8327 12.1997 12.829 12.2947 12.734H12.291ZM12.156 12.7228C12.1635 12.6628 12.0685 12.6115 11.8711 12.5691C11.7261 12.5366 11.6599 12.5541 11.6724 12.6215C11.6799 12.659 11.7286 12.6853 11.8599 12.7265C12.081 12.794 12.1448 12.794 12.156 12.7228ZM12.3435 12.4453C12.5984 12.3329 12.6171 12.0517 12.3809 11.9767C12.286 11.9467 12.221 11.9642 12.186 12.0292C12.156 12.0817 12.1748 12.1717 12.2122 12.1717C12.2272 12.1742 12.236 12.1867 12.2385 12.2092C12.2385 12.3104 11.8561 12.3516 11.6987 12.2729C11.6424 12.2466 11.6237 12.1717 11.6649 12.1717C11.7024 12.1717 11.7249 12.0967 11.7061 12.048C11.6812 11.973 11.6149 11.9505 11.5075 11.9805C11.2713 12.0405 11.2788 12.3179 11.5187 12.4303C11.7844 12.5266 12.0745 12.5319 12.3435 12.4453Z" fill="#FFB700"/>
<path d="M12.19 12.228C12.2025 12.2105 12.1975 12.193 12.175 12.1755C12.125 12.1304 12.1275 12.0717 12.1825 11.9992C12.2276 11.9467 12.2313 11.8642 12.2463 11.0578C12.2726 9.66625 12.3776 8.61981 12.5126 8.36476C12.5689 8.26725 12.5614 8.26725 12.4188 8.36476C12.2319 8.49504 12.0809 8.67052 11.98 8.87486C11.7475 9.30619 11.6687 9.88754 11.6687 11.1328C11.6687 11.8379 11.6725 11.9317 11.7137 11.9954C11.7512 12.0629 11.7512 12.0854 11.7287 12.153C11.71 12.1942 11.7025 12.2392 11.71 12.2467C11.7625 12.2955 12.1375 12.2842 12.19 12.228ZM14.2942 10.9002C14.3054 10.889 14.2867 10.8252 14.2567 10.7652C14.2117 10.6677 14.1929 10.6527 14.1291 10.6527C13.8292 10.6266 13.5368 10.5452 13.2665 10.4126C13.0752 10.3264 13.0039 10.3076 12.9852 10.3301C12.9252 10.3864 13.0227 10.5177 13.1727 10.5889C13.3935 10.6685 13.6248 10.7152 13.8591 10.7277C13.9604 10.7277 13.9641 10.7277 13.9041 10.814L13.8666 10.874H13.9791L14.1667 10.8965C14.2792 10.9227 14.2792 10.9227 14.2942 10.9002Z" fill="#FFB700"/>
<path d="M15.4795 11.5267C15.4795 11.4891 15.3707 11.3954 15.2657 11.3316C15.1794 11.2829 15.1644 11.2791 15.1644 11.3204C15.1644 11.3804 15.1119 11.5342 15.0894 11.5342C15.0744 11.5292 15.0619 11.5079 15.0519 11.4704C15.0406 11.4329 14.9994 11.3579 14.9581 11.3091L14.8831 11.2153L14.8306 11.3016C14.7781 11.3841 14.6843 11.4629 14.6431 11.4629C14.6356 11.4629 14.6318 11.4179 14.6431 11.3691C14.6481 11.3041 14.6418 11.2666 14.6243 11.2566C14.6068 11.2466 14.5968 11.2491 14.5943 11.2641C14.5943 11.2941 14.4668 11.4366 14.4443 11.4366C14.4293 11.4341 14.4168 11.4041 14.4068 11.3466L14.3768 11.1666C14.3718 11.1241 14.3843 11.1491 14.4143 11.2416L14.4743 11.3954L14.5343 11.3016C14.5615 11.2629 14.5818 11.2197 14.5943 11.1741C14.5943 11.1541 14.603 11.1478 14.6205 11.1553C14.6356 11.1628 14.6543 11.2266 14.6618 11.2941L14.6806 11.4216L14.7481 11.3466L14.8456 11.2266C14.8718 11.1816 14.8756 11.1816 14.9319 11.2266C14.9619 11.2566 15.0106 11.3204 15.0406 11.3729C15.0706 11.4254 15.0969 11.4629 15.1006 11.4591L15.1231 11.3391L15.1381 11.2266C15.1419 11.2078 15.3407 11.3391 15.4157 11.4029C15.4607 11.4441 15.5057 11.4741 15.5132 11.4666C15.5207 11.4591 15.5282 11.3991 15.5282 11.3279C15.5282 11.2228 15.517 11.1928 15.4532 11.1366C15.3782 11.0691 15.3782 11.0691 15.3482 11.1178C15.3107 11.1816 15.2694 11.1816 15.2694 11.1178C15.2694 11.0728 15.1269 10.8965 15.0931 10.8965C15.0781 10.9015 15.0556 10.9303 15.0256 10.9828C14.9806 11.0616 14.9694 11.0691 14.9619 11.0691C14.9244 11.0691 14.7256 10.844 14.7256 10.8065C14.7256 10.774 14.7418 10.784 14.7743 10.8365C14.8079 10.8858 14.8469 10.9311 14.8906 10.9716C14.9656 11.0391 14.9956 11.0241 15.0256 10.8928C15.0381 10.8528 15.0506 10.8303 15.0631 10.8253C15.0931 10.8253 15.2657 11.0091 15.2882 11.0691L15.3144 11.1291L15.3332 11.0616C15.3557 10.9816 15.3844 10.9791 15.4194 11.0541C15.4344 11.0841 15.5095 11.1516 15.5845 11.1966L15.7233 11.2866L15.7495 11.1966C15.7695 11.1466 15.7845 11.1266 15.7945 11.1366C15.8095 11.1553 15.772 11.3054 15.7458 11.3354C15.7458 11.3391 15.697 11.3129 15.6482 11.2791L15.5545 11.2116V11.3316C15.5545 11.3954 15.547 11.4741 15.5395 11.5042C15.5207 11.5642 15.4757 11.5792 15.4757 11.5267H15.4795ZM14.7856 10.574C14.6205 10.439 14.598 10.409 14.598 10.3414L14.6018 10.2739L14.613 10.3377C14.6205 10.3752 14.6656 10.4352 14.7181 10.4802L14.8156 10.5552L14.8718 10.4877C14.9056 10.4502 14.9319 10.4052 14.9319 10.3902C14.9319 10.3452 14.9394 10.3489 15.0519 10.4465C15.1494 10.5327 15.1531 10.5327 15.1644 10.4765C15.1757 10.4465 15.1719 10.3864 15.1644 10.3452C15.1269 10.2352 15.1331 10.2152 15.1832 10.2852L15.2732 10.3902C15.3107 10.4315 15.3144 10.4315 15.3294 10.3789C15.3407 10.3452 15.3482 10.2889 15.3482 10.2514V10.1802L15.4344 10.2814C15.5207 10.3789 15.5282 10.3827 15.5507 10.3339C15.5695 10.3077 15.5807 10.2439 15.5807 10.1952C15.5807 10.1302 15.5882 10.1101 15.6032 10.1352C15.6332 10.1802 15.6145 10.2927 15.562 10.3902L15.5245 10.4652L15.4757 10.3864C15.4119 10.2889 15.3894 10.2889 15.3519 10.3939C15.3169 10.494 15.2832 10.504 15.2507 10.424C15.2282 10.3752 15.2207 10.3827 15.2057 10.4877L15.1869 10.6002L15.0744 10.514L14.9619 10.4277L14.9056 10.484C14.8793 10.5177 14.8568 10.559 14.8568 10.574C14.8543 10.6115 14.8306 10.6115 14.7856 10.574ZM16.2483 10.0639C16.1921 10.0114 16.1508 9.95887 16.1583 9.95137C16.1708 9.93887 16.1783 9.93637 16.1808 9.94387L16.2934 10.0564C16.4209 10.1914 16.3946 10.1952 16.2521 10.0639H16.2483ZM14.298 9.86135C14.2455 9.78634 14.2492 9.74133 14.3167 9.65882C14.3618 9.60256 14.3843 9.59505 14.4668 9.60631C14.523 9.61006 14.6393 9.65882 14.7256 9.71133C14.8501 9.78616 14.9929 9.82511 15.1381 9.82385L15.0744 9.71883C14.9894 9.5988 14.9944 9.57755 15.0894 9.65507C15.1869 9.73383 15.3032 9.75633 15.5657 9.74883L15.6932 9.74508L15.6182 9.67007C15.517 9.5688 15.547 9.55755 15.6632 9.65882C15.7683 9.75258 15.7645 9.76008 15.5357 9.78259C15.4403 9.79222 15.344 9.78588 15.2507 9.76384C15.1231 9.72633 15.1156 9.73008 15.1419 9.77134C15.1594 9.79884 15.1757 9.81384 15.1907 9.81634C15.2057 9.81885 15.2144 9.82885 15.2169 9.84635C15.2169 9.89511 14.9394 9.8501 14.8043 9.78634C14.5043 9.63256 14.4668 9.61756 14.3918 9.64006C14.3714 9.64715 14.3529 9.65852 14.3374 9.6734C14.3218 9.68829 14.3097 9.70634 14.3017 9.72633C14.253 9.8501 14.4293 9.94762 14.5005 9.83885C14.523 9.80509 14.5193 9.78634 14.4818 9.74508C14.4293 9.69507 14.4368 9.68257 14.5043 9.70758C14.553 9.72633 14.5568 9.8426 14.5118 9.88761C14.463 9.93637 14.343 9.92511 14.298 9.86135Z" fill="#000001"/>
<path d="M15.4946 9.55736C15.4571 9.51987 15.4871 9.51237 15.6558 9.50862C15.8657 9.50487 15.9932 9.47113 16.1431 9.37366C16.2631 9.29869 16.2968 9.31368 16.1806 9.39241C16.0794 9.46739 15.9182 9.51987 15.757 9.53486L15.5658 9.56111C15.5308 9.5686 15.5058 9.56736 15.4908 9.55736H15.4946Z" fill="#000001"/>
</g>
<defs>
<clipPath id="clip0_720_53468">
<rect width="24.0044" height="24.0044" fill="white" transform="translate(0.026123 0.083252)"/>
</clipPath>
</defs>
</svg>
