<svg width="24" height="25" viewBox="0 0 24 25" fill="none" xmlns="http://www.w3.org/2000/svg">
<g clip-path="url(#clip0_720_53293)">
<path d="M0.000244141 0.0876465H24.0046V24.092H0.000244141V0.0876465Z" fill="#3E5EB9"/>
<path d="M0.000244141 4.5885H24.0046V19.5912H0.000244141V4.5885Z" fill="#FFD900"/>
<path d="M0.000244141 6.08875H24.0046V18.0909H0.000244141V6.08875Z" fill="#B10C0C"/>
<path d="M20.7994 9.97778L19.676 10.3754L20.7948 10.7683L21.9182 10.3754L20.7994 9.97778Z" fill="white" stroke="black" stroke-width="0.0462304"/>
<path d="M20.0553 10.2411H3.83301C3.75386 10.2411 3.6897 10.3001 3.6897 10.3728C3.6897 10.4456 3.75386 10.5046 3.83301 10.5046H20.0553C20.1344 10.5046 20.1986 10.4456 20.1986 10.3728C20.1986 10.3001 20.1344 10.2411 20.0553 10.2411Z" fill="#FFD900" stroke="black" stroke-width="0.0462304"/>
<path d="M19.8054 10.5047C19.8398 10.5036 19.8726 10.4898 19.8973 10.4659C19.9221 10.442 19.9371 10.4097 19.9394 10.3753C19.9382 10.3402 19.9237 10.3067 19.8989 10.2819C19.874 10.257 19.8406 10.2425 19.8054 10.2413M19.676 10.5047C19.7096 10.5025 19.7413 10.4882 19.7651 10.4644C19.7889 10.4406 19.8032 10.4089 19.8054 10.3753C19.8043 10.3409 19.7905 10.3081 19.7665 10.2834C19.7426 10.2586 19.7104 10.2436 19.676 10.2413M19.542 10.5047C19.5764 10.5036 19.6092 10.4898 19.634 10.4659C19.6587 10.442 19.6737 10.4097 19.676 10.3753C19.6748 10.3402 19.6604 10.3067 19.6355 10.2819C19.6106 10.257 19.5772 10.2425 19.542 10.2413" fill="#FFD900"/>
<path d="M19.8054 10.5047C19.8398 10.5036 19.8726 10.4898 19.8973 10.4659C19.9221 10.442 19.9371 10.4097 19.9394 10.3753C19.9382 10.3402 19.9237 10.3067 19.8989 10.2819C19.874 10.257 19.8406 10.2425 19.8054 10.2413M19.676 10.5047C19.7096 10.5025 19.7413 10.4882 19.7651 10.4644C19.7889 10.4406 19.8032 10.4089 19.8054 10.3753C19.8043 10.3409 19.7905 10.3081 19.7665 10.2834C19.7426 10.2586 19.7104 10.2436 19.676 10.2413M19.542 10.5047C19.5764 10.5036 19.6092 10.4898 19.634 10.4659C19.6587 10.442 19.6737 10.4097 19.676 10.3753C19.6748 10.3402 19.6604 10.3067 19.6355 10.2819C19.6106 10.257 19.5772 10.2425 19.542 10.2413" stroke="black" stroke-width="0.0462304"/>
<path d="M19.7223 10.7683L18.5989 11.1659L19.7177 11.5589L20.8411 11.1659L19.7223 10.7683Z" fill="white" stroke="black" stroke-width="0.0462304"/>
<path d="M18.9781 11.0319H2.75586C2.67671 11.0319 2.61255 11.0909 2.61255 11.1636C2.61255 11.2364 2.67671 11.2954 2.75586 11.2954H18.9781C19.0573 11.2954 19.1214 11.2364 19.1214 11.1636C19.1214 11.0909 19.0573 11.0319 18.9781 11.0319Z" fill="#FFD900" stroke="black" stroke-width="0.0462304"/>
<path d="M18.7282 11.2952C18.7626 11.2942 18.7954 11.2803 18.8202 11.2564C18.845 11.2325 18.86 11.2002 18.8622 11.1659C18.8611 11.1307 18.8466 11.0973 18.8217 11.0724C18.7968 11.0475 18.7634 11.033 18.7282 11.0319M18.5988 11.2952C18.6324 11.2931 18.6641 11.2787 18.6879 11.2549C18.7117 11.2311 18.7261 11.1995 18.7282 11.1659C18.7272 11.1314 18.7133 11.0987 18.6894 11.0739C18.6655 11.0491 18.6332 11.0341 18.5988 11.0319M18.4648 11.2952C18.4993 11.2942 18.532 11.2803 18.5568 11.2564C18.5816 11.2325 18.5966 11.2002 18.5988 11.1659C18.5977 11.1307 18.5832 11.0973 18.5583 11.0724C18.5334 11.0475 18.5 11.033 18.4648 11.0319" fill="#FFD900"/>
<path d="M18.7282 11.2952C18.7626 11.2942 18.7954 11.2803 18.8202 11.2564C18.845 11.2325 18.86 11.2002 18.8622 11.1659C18.8611 11.1307 18.8466 11.0973 18.8217 11.0724C18.7968 11.0475 18.7634 11.033 18.7282 11.0319M18.5988 11.2952C18.6324 11.2931 18.6641 11.2787 18.6879 11.2549C18.7117 11.2311 18.7261 11.1995 18.7282 11.1659C18.7272 11.1314 18.7133 11.0987 18.6894 11.0739C18.6655 11.0491 18.6332 11.0341 18.5988 11.0319M18.4648 11.2952C18.4993 11.2942 18.532 11.2803 18.5568 11.2564C18.5816 11.2325 18.5966 11.2002 18.5988 11.1659C18.5977 11.1307 18.5832 11.0973 18.5583 11.0724C18.5334 11.0475 18.5 11.033 18.4648 11.0319" stroke="black" stroke-width="0.0462304"/>
<path d="M23.0368 11.8917H0.971023C0.863787 11.8917 0.776855 11.9807 0.776855 12.0905C0.776855 12.2003 0.863787 12.2893 0.971023 12.2893H23.0368C23.144 12.2893 23.231 12.2003 23.231 12.0905C23.231 11.9807 23.144 11.8917 23.0368 11.8917Z" fill="#FFD900" stroke="black" stroke-width="0.0508535"/>
<path d="M18.4818 12.0898C17.1644 13.4119 15.4016 16.0515 11.8806 16.0515C8.79566 16.0515 6.59682 13.4119 5.27002 12.0898C6.59682 10.7677 8.79566 8.12817 11.8806 8.12817C15.3969 8.12817 17.1644 10.7677 18.4818 12.0898Z" fill="white" stroke="black" stroke-width="0.0468835"/>
<path d="M11.4164 9.50655C11.768 9.90037 11.4773 10.0598 11.8477 10.0879C12.2416 10.116 12.0165 10.5052 12.3494 10.5192C12.5791 10.5286 12.3259 11.4475 12.5463 11.7523C12.7713 12.0711 12.9636 11.846 12.9682 12.0758C12.9729 12.3055 12.3494 12.2867 12.34 13.0134C12.3213 13.4354 11.8149 13.4635 11.7915 13.7354C11.7633 13.9886 12.7854 14.134 12.776 14.359C12.7573 14.5887 11.6696 14.5512 11.618 14.8091C11.5946 15.0435 13.1183 15.231 13.2449 15.9062C12.797 16.0058 12.3393 16.0545 11.8805 16.0515C8.79561 16.0515 6.59677 13.4119 5.27466 12.0898C6.59677 10.7677 8.79561 8.12817 11.8805 8.12817C11.8805 8.12817 10.9663 8.9627 11.4164 9.50655Z" fill="black"/>
<path d="M7.9043 11.7387V10.6805V11.7387ZM8.54197 10.6805V11.7387V10.6805ZM9.17964 10.6805V11.7387V10.6805Z" fill="black"/>
<path d="M7.9043 11.7387V10.6805M8.54197 10.6805V11.7387M9.17964 10.6805V11.7387" stroke="white" stroke-width="0.31899"/>
<path d="M7.9043 13.5001V12.4419V13.5001ZM8.54197 12.4419V13.5001V12.4419ZM9.17964 12.4419V13.5001V12.4419Z" fill="black"/>
<path d="M7.9043 13.5001V12.4419M8.54197 12.4419V13.5001M9.17964 12.4419V13.5001" stroke="white" stroke-width="0.31899"/>
<path d="M9.82812 11.7387V10.6805V11.7387ZM10.4658 10.6805V11.7387V10.6805ZM11.1035 10.6805V11.7387V10.6805Z" fill="black"/>
<path d="M9.82812 11.7387V10.6805M10.4658 10.6805V11.7387M11.1035 10.6805V11.7387" stroke="white" stroke-width="0.31899"/>
<path d="M9.82812 13.5001V12.4419V13.5001ZM10.4658 12.4419V13.5001V12.4419ZM11.1035 12.4419V13.5001V12.4419Z" fill="black"/>
<path d="M9.82812 13.5001V12.4419M10.4658 12.4419V13.5001M11.1035 12.4419V13.5001" stroke="white" stroke-width="0.31899"/>
<path d="M12.7507 11.7387V10.6805V11.7387ZM13.3884 10.6805V11.7387V10.6805ZM14.0261 10.6805V11.7387V10.6805Z" fill="black"/>
<path d="M12.7507 11.7387V10.6805M13.3884 10.6805V11.7387M14.0261 10.6805V11.7387" stroke="black" stroke-width="0.31899"/>
<path d="M12.7505 13.5001V12.4419V13.5001ZM13.3882 12.4419V13.5001V12.4419ZM14.0258 12.4419V13.5001V12.4419Z" fill="black"/>
<path d="M12.7505 13.5001V12.4419M13.3882 12.4419V13.5001M14.0258 12.4419V13.5001" stroke="black" stroke-width="0.31899"/>
<path d="M14.6736 11.7387V10.6805V11.7387ZM15.3113 10.6805V11.7387V10.6805ZM15.9489 10.6805V11.7387V10.6805Z" fill="black"/>
<path d="M14.6736 11.7387V10.6805M15.3113 10.6805V11.7387M15.9489 10.6805V11.7387" stroke="black" stroke-width="0.31899"/>
<path d="M14.6736 13.5001V12.4419V13.5001ZM15.3113 12.4419V13.5001V12.4419ZM15.9489 12.4419V13.5001V12.4419Z" fill="black"/>
<path d="M14.6736 13.5001V12.4419M15.3113 12.4419V13.5001M15.9489 12.4419V13.5001" stroke="black" stroke-width="0.31899"/>
<path d="M21.651 11.9352C21.4494 12.2774 21.8057 11.818 22.6684 12.3946C22.7557 12.4678 22.8273 12.5578 22.8788 12.6593C22.9304 12.7608 22.9609 12.8718 22.9685 12.9854C22.9263 12.9619 22.8981 12.901 22.8512 12.8635C22.7903 12.9244 22.9169 13.2104 22.9309 13.3464C22.795 13.2714 22.809 13.2385 22.7622 13.1448C22.7715 13.2573 22.7387 13.5667 22.795 13.6839C22.6872 13.6511 22.6965 13.5667 22.6403 13.5527C22.6778 13.6839 22.6075 13.8293 22.6262 13.984C22.5653 13.923 22.4949 13.8715 22.4668 13.8433C22.4621 13.923 22.3496 14.1106 22.3449 14.1762C22.3068 14.1493 22.28 14.1092 22.2699 14.0637C22.1457 14.2094 22.0401 14.37 21.9558 14.5419C21.7776 14.3825 21.3182 13.9981 21.2572 13.7918C21.2056 13.909 21.1259 13.9465 20.9759 14.0309C20.9196 13.7074 20.6946 13.3464 20.8118 13.0651L20.5774 13.2292C20.6471 12.9458 20.7804 12.682 20.9673 12.4578C21.1541 12.2336 21.3895 12.0549 21.6557 11.9352H21.651Z" fill="#333333" stroke="black" stroke-width="0.0421952"/>
<path d="M20.9058 13.6507C20.9901 13.482 21.0651 13.4304 21.1213 13.3227C21.215 13.1352 21.2291 12.9853 21.3088 13.0087C21.3884 13.0321 21.3931 13.1071 21.2853 13.2899C21.1822 13.4773 21.1307 13.5195 20.9058 13.6507ZM21.4681 14.0443C21.4587 13.9225 21.4962 13.8663 21.4868 13.7866C21.4775 13.6413 21.4165 13.5429 21.4962 13.5335C21.5665 13.5335 21.604 13.5804 21.604 13.721C21.604 13.8616 21.5852 13.9084 21.4634 14.0443H21.4681ZM21.8945 14.2927C21.8617 14.1146 21.8852 14.0396 21.8617 13.9225C21.8289 13.7257 21.7539 13.5945 21.8242 13.571C21.8945 13.5476 21.9367 13.6179 21.9648 13.8241C21.9882 14.0256 21.9789 14.0818 21.8945 14.2927ZM22.3397 13.0602C22.2319 12.9759 22.171 12.9712 22.1054 12.9197C21.9882 12.8259 21.9273 12.7369 21.8898 12.7838C21.8461 12.8275 21.8836 12.8884 22.0023 12.9665C22.1804 13.0837 22.171 13.0556 22.3397 13.0602ZM22.2647 13.6413C22.2085 13.5242 22.1523 13.5007 22.1148 13.4258C22.0539 13.2946 22.0539 13.1868 21.9836 13.2102C21.9148 13.2383 21.9148 13.3102 21.9836 13.4258C22.0585 13.5523 22.096 13.571 22.2647 13.6413Z" fill="#B3B3B3"/>
<path d="M1.74916 12.268C1.7351 12.1695 1.75854 12.1555 1.69759 12.0805C1.79136 12.1133 1.79136 12.2211 1.89919 12.1461C1.94139 12.1227 1.95545 12.1227 1.90857 12.0101C2.02109 12.0148 2.39616 12.1461 2.45711 12.1508C2.61651 12.1508 2.9025 11.982 3.1041 12.1977C3.29163 12.3852 3.23068 12.5915 3.23068 12.854C3.15567 12.8212 3.18849 12.8072 3.10879 12.7087C3.16974 12.9431 3.10879 13.3651 3.10879 13.6182C3.07597 13.5526 3.08066 13.5807 3.04784 13.5245C2.96814 13.7448 2.86968 13.7917 2.86968 14.0636C2.83686 13.9558 2.86968 13.9792 2.83686 13.923C2.75716 14.0964 2.218 14.2465 2.42898 14.4153C2.24144 14.3074 2.16174 14.3215 2.07735 14.223C2.04297 14.248 2.01015 14.2902 1.97889 14.3496C1.65071 14.1996 1.76792 13.8808 1.51006 13.6604C1.46317 13.7542 1.4913 13.7401 1.43973 13.8855C1.39285 13.6792 1.3741 13.5526 1.31784 13.4026C1.27095 13.4823 1.27095 13.4495 1.17719 13.576C1.13968 13.3276 1.08342 13.2666 1.10217 13.1072C1.0084 13.1728 1.07404 13.1447 0.975586 13.2291C1.06935 12.5915 1.46317 12.118 1.74448 12.268H1.74916Z" fill="#333333" stroke="black" stroke-width="0.0515719"/>
<path d="M1.34595 13.3084C1.4303 13.1022 1.50527 13.0413 1.56151 12.9101C1.65523 12.6758 1.66929 12.4883 1.74895 12.5164C1.82861 12.5445 1.82861 12.6383 1.72083 12.8679C1.61305 13.0975 1.56619 13.149 1.34595 13.3084ZM1.6646 13.8238C1.6974 13.6364 1.74895 13.5755 1.77238 13.4536C1.81455 13.2475 1.79112 13.0928 1.8661 13.0975C1.94108 13.1022 1.95982 13.1912 1.90828 13.3927C1.85673 13.6036 1.82393 13.6505 1.65991 13.8238H1.6646ZM2.03949 14.1847C2.05354 14.0066 2.09572 13.9363 2.10041 13.8192C2.11446 13.6177 2.07229 13.4724 2.14727 13.4724C2.21756 13.4724 2.24099 13.5427 2.22224 13.7489C2.19881 13.9504 2.17538 14.0019 2.04417 14.1847H2.03949ZM2.85955 13.0132C2.70491 12.8585 2.61119 12.8257 2.50809 12.732C2.33471 12.5539 2.24567 12.3899 2.18007 12.4508C2.11915 12.5071 2.15664 12.5914 2.34408 12.7601C2.53153 12.9288 2.59713 12.9522 2.85955 13.0132ZM2.76583 13.6177C2.66742 13.463 2.58776 13.4162 2.52215 13.3177C2.405 13.1397 2.3722 12.9897 2.30191 13.0272C2.2363 13.0647 2.25505 13.1444 2.37688 13.3177C2.50341 13.4864 2.55027 13.5192 2.76583 13.6177Z" fill="#B3B3B3"/>
<path d="M9.74749 8.83142C9.55996 9.18305 10.0663 8.71421 10.8539 9.30963C11.0472 9.51514 11.1717 9.77565 11.2103 10.0551C11.0487 10.003 10.8931 9.93384 10.7461 9.84879C10.7461 9.84879 11.0977 10.2004 11.0977 10.6036C10.9712 10.5286 10.9102 10.538 10.8633 10.4442C10.8633 10.5755 10.9805 10.6552 10.9805 10.8568C10.9042 10.7965 10.8226 10.7432 10.7367 10.6974C10.8539 10.899 10.5258 11.2928 10.6899 11.4194C10.5508 11.4003 10.4172 11.353 10.2971 11.2804C10.1769 11.2079 10.0729 11.1116 9.99129 10.9974C9.93034 11.0349 9.92565 11.1006 9.92096 11.1709C9.93034 11.1803 9.48495 10.8427 9.52714 10.7115C9.47509 10.7752 9.44543 10.8543 9.44275 10.9365C9.27317 10.7952 9.14516 10.6104 9.07237 10.402L8.92234 10.5896C8.87077 10.2614 8.87077 10.2707 8.9786 9.98944L8.76294 10.1535C8.81873 9.87394 8.93601 9.61025 9.1063 9.38158C9.27659 9.15291 9.49561 8.96499 9.74749 8.83142Z" fill="#333333" stroke="black" stroke-width="0.0375068"/>
<path d="M9.29272 10.5562C9.32553 10.3125 9.38645 10.2282 9.40519 10.0642C9.44268 9.79237 9.4005 9.58618 9.49891 9.59555C9.59263 9.60024 9.62075 9.70333 9.57389 9.97512C9.52703 10.2563 9.48017 10.3172 9.29272 10.5609V10.5562ZM9.80819 11.0061C9.78476 10.7999 9.82225 10.7108 9.80819 10.5796C9.78945 10.3453 9.71447 10.1907 9.79882 10.1766C9.88317 10.1626 9.93003 10.2375 9.9394 10.4765C9.94878 10.7108 9.92535 10.7718 9.80351 11.0061H9.80819ZM10.6048 11.3716C10.5158 11.1935 10.4408 11.1373 10.3846 11.0248C10.2909 10.8233 10.2627 10.6593 10.1878 10.6874C10.1128 10.7202 10.1175 10.8046 10.2253 11.0014C10.3377 11.1982 10.3846 11.2357 10.6001 11.3716H10.6048ZM10.8813 9.77831C10.6564 9.66116 10.5439 9.65647 10.4033 9.58618C10.1503 9.45028 10.005 9.30502 9.95346 9.38936C9.90192 9.47371 9.97221 9.54869 10.2299 9.67053C10.4877 9.78768 10.5673 9.79237 10.8766 9.77362L10.8813 9.77831ZM10.961 10.439C10.797 10.3078 10.7032 10.2891 10.6001 10.2047C10.4127 10.0501 10.3237 9.90483 10.2674 9.96575C10.2065 10.0267 10.244 10.1063 10.4361 10.2469C10.6283 10.3875 10.6939 10.4062 10.961 10.439Z" fill="#B3B3B3"/>
</g>
<defs>
<clipPath id="clip0_720_53293">
<rect width="24.0044" height="24.0044" fill="white" transform="translate(0 0.0876465)"/>
</clipPath>
</defs>
</svg>
