<svg width="25" height="25" viewBox="0 0 25 25" fill="none" xmlns="http://www.w3.org/2000/svg">
<g clip-path="url(#clip0_720_53421)">
<mask id="mask0_720_53421" style="mask-type:luminance" maskUnits="userSpaceOnUse" x="0" y="0" width="25" height="25">
<path d="M0.0168457 0.0876465H24.0212V24.092H0.0168457V0.0876465Z" fill="white"/>
</mask>
<g mask="url(#mask0_720_53421)">
<path d="M0.0168457 0.0876465H36.0234V24.092H0.0168457V0.0876465Z" fill="#FF0000"/>
<path d="M0.0168457 0.0876465H18.0201V12.0898H0.0168457V0.0876465Z" fill="#000095"/>
<path d="M7.72009 6.43574L7.59351 6.91396L8.06703 7.04054L7.97326 6.6936L7.72009 6.43574ZM10.0643 6.6936L9.9705 7.04054L10.444 6.91396L10.3174 6.43574L10.0643 6.6936ZM7.97326 5.48401L7.72009 5.74187L7.81386 6.08881L7.97326 5.48401Z" fill="white"/>
<path d="M7.81394 6.08875L7.72021 6.43551L7.97326 6.69325L7.81394 6.08875Z" fill="white"/>
<path d="M7.72023 5.74182L7.37329 6.08876L7.72023 6.4357L7.814 6.08876L7.72023 5.74182ZM8.41411 7.13426L8.67197 7.38743L9.0189 7.29367L8.41411 7.13426ZM9.36584 7.38743L9.84405 7.51402L9.97064 7.0405L9.6237 7.13426L9.36584 7.38743Z" fill="white"/>
<path d="M9.62292 7.1341L9.96969 7.04037L10.0634 6.6936L9.62292 7.1341ZM8.06714 7.04037L8.19366 7.51367L8.67164 7.38714L8.41391 7.1341L8.06714 7.04037ZM9.01841 7.29342L9.36518 7.38714L9.62292 7.1341L9.01841 7.29342Z" fill="white"/>
<path d="M8.67183 7.38749L9.01876 7.73443L9.3657 7.38749L9.01876 7.29373L8.67183 7.38749ZM8.06703 5.13708L7.59351 5.26367L7.72009 5.74188L7.97326 5.48402L8.06703 5.13708ZM7.97326 6.69362L8.06703 7.04056L8.41397 7.13432L7.97326 6.69362ZM10.2237 6.08882L10.3174 5.74188L10.0643 5.48402L10.2237 6.08882Z" fill="white"/>
<path d="M8.41409 5.04321L8.06716 5.13698L7.97339 5.48392L8.41409 5.04321ZM10.0644 5.48392L9.97063 5.13698L9.62369 5.04321L10.0644 5.48392ZM10.3176 6.43565L10.6645 6.08872L10.3176 5.74178L10.2238 6.08872L10.3176 6.43565Z" fill="white"/>
<path d="M10.0644 5.48402L9.62367 5.04331L9.01887 4.88391L8.41407 5.04331L7.97337 5.48402L7.81396 6.08882L7.97337 6.69361L8.41407 7.13432L9.01887 7.29372L9.62367 7.13432L10.0644 6.69361L10.2238 6.08882L10.0644 5.48402Z" fill="white"/>
<path d="M10.0644 6.69351L10.3175 6.43565L10.2238 6.08871L10.0644 6.69351ZM10.3175 5.74177L10.4441 5.26356L9.97061 5.13698L10.0644 5.48391L10.3175 5.74177ZM9.97061 5.13698L9.84402 4.66345L9.36581 4.79004L9.62367 5.04321L9.97061 5.13698ZM8.67194 4.79004L8.19372 4.66345L8.06714 5.13698L8.41408 5.04321L8.67194 4.79004Z" fill="white"/>
<path d="M9.01857 4.88376L8.6718 4.79004L8.41406 5.04309L9.01857 4.88376Z" fill="white"/>
<path d="M9.36541 4.78989L9.01864 4.44312L8.67188 4.78989L9.01864 4.88361L9.36541 4.78989Z" fill="white"/>
<path d="M9.6237 5.04321L9.36584 4.79004L9.0189 4.88381L9.6237 5.04321ZM8.67197 7.38739L8.19375 7.51397L8.41411 8.33912L9.0189 7.73432L8.67197 7.38739ZM8.41411 8.33912L9.0189 10.5895L9.6237 8.33912L9.0189 7.73432L8.41411 8.33912ZM8.06717 7.04045L7.59364 6.91386L7.37329 7.73432L8.19375 7.51397L8.06717 7.04045Z" fill="white"/>
<path d="M7.37321 7.73442L6.76841 9.98483L8.41403 8.33922L8.19367 7.51407L7.37321 7.73442ZM6.76841 6.6936L5.1228 8.33922L7.37321 7.73442L7.59356 6.91396L6.76841 6.6936Z" fill="white"/>
<path d="M7.71983 6.43519L7.37306 6.08842L6.76855 6.69293L7.5933 6.91317L7.71983 6.43519ZM7.71983 5.74165L7.5933 5.26367L6.76855 5.48392L7.37306 6.08842L7.71983 5.74165Z" fill="white"/>
<path d="M6.76848 5.48401L4.51807 6.08881L6.76848 6.6936L7.37327 6.08881L6.76848 5.48401ZM11.2693 6.6936L10.4441 6.91396L10.6645 7.73442L12.9149 8.33922L11.2693 6.6936Z" fill="white"/>
<path d="M9.97053 7.04051L9.84395 7.51403L10.6644 7.73438L10.4441 6.91392L9.97053 7.04051ZM9.36574 7.38744L9.0188 7.73438L9.6236 8.33918L9.84395 7.51403L9.36574 7.38744ZM10.3175 6.43571L10.4441 6.91392L11.2692 6.69357L10.6644 6.08877L10.3175 6.43571ZM9.6236 8.33918L11.2692 9.98479L10.6644 7.73438L9.84395 7.51403L9.6236 8.33918ZM9.97053 5.13703L10.4441 5.26362L10.6644 4.44316L9.84395 4.66351L9.97053 5.13703ZM11.2692 5.48397L12.9148 3.83836L10.6644 4.44316L10.4441 5.26362L11.2692 5.48397ZM10.6644 4.44316L11.2692 2.19275L9.6236 3.83836L9.84395 4.66351L10.6644 4.44316ZM11.2692 6.69357L13.5196 6.08877L11.2692 5.48397L10.6644 6.08877L11.2692 6.69357Z" fill="white"/>
<path d="M10.3176 5.74183L10.6646 6.08877L11.2694 5.48397L10.4442 5.26362L10.3176 5.74183ZM8.41417 3.83836L6.76855 2.19275L7.37335 4.44316L8.19381 4.66351L8.41417 3.83836ZM8.06723 5.13703L8.19381 4.66351L7.37335 4.44316L7.59371 5.26362L8.06723 5.13703Z" fill="white"/>
<path d="M7.37321 4.44318L5.1228 3.83838L6.76841 5.48399L7.59356 5.26364L7.37321 4.44318ZM9.36576 4.79011L9.84397 4.66353L9.62362 3.83838L9.01882 4.44318L9.36576 4.79011Z" fill="white"/>
<path d="M9.62366 3.83842L9.01886 1.58801L8.41406 3.83842L9.01886 4.44322L9.62366 3.83842Z" fill="white"/>
<path d="M8.67183 4.78965L9.0186 4.44288L8.41409 3.83838L8.19385 4.66313L8.67183 4.78965Z" fill="white"/>
<path d="M9.01824 8.63926C10.4268 8.63926 11.5687 7.49738 11.5687 6.08879C11.5687 4.68021 10.4268 3.53833 9.01824 3.53833C7.60965 3.53833 6.46777 4.68021 6.46777 6.08879C6.46777 7.49738 7.60965 8.63926 9.01824 8.63926Z" fill="#000095"/>
<path d="M9.01848 8.3392C10.2613 8.3392 11.2689 7.33166 11.2689 6.08879C11.2689 4.84592 10.2613 3.83838 9.01848 3.83838C7.77561 3.83838 6.76807 4.84592 6.76807 6.08879C6.76807 7.33166 7.77561 8.3392 9.01848 8.3392Z" fill="white"/>
</g>
</g>
<defs>
<clipPath id="clip0_720_53421">
<rect width="24.0044" height="24.0044" fill="white" transform="translate(0.0175781 0.0876465)"/>
</clipPath>
</defs>
</svg>
