<svg width="25" height="25" viewBox="0 0 25 25" fill="none" xmlns="http://www.w3.org/2000/svg">
<g clip-path="url(#clip0_720_53492)">
<path d="M0.0222168 0.0876465H24.0266V24.092H0.0222168V0.0876465Z" fill="#006600"/>
<path d="M0.0222168 0.0876465H24.0266V17.233H0.0222168V0.0876465Z" fill="white"/>
<path d="M0.0222168 0.0876465H24.0266V6.94671H0.0222168V0.0876465Z" fill="#CC0000"/>
<path d="M11.0641 11.771C11.1109 11.6905 11.1827 11.6274 11.2685 11.5913C11.3544 11.5552 11.4496 11.5481 11.5399 11.5709C11.6302 11.5938 11.7106 11.6454 11.7689 11.718C11.8272 11.7906 11.8603 11.8803 11.8631 11.9733V13.6879H12.1855V11.9733C12.1883 11.8803 12.2214 11.7906 12.2797 11.718C12.3381 11.6454 12.4184 11.5938 12.5087 11.5709C12.599 11.5481 12.6942 11.5552 12.7801 11.5913C12.8659 11.6274 12.9377 11.6905 12.9845 11.771C13.0349 11.619 13.0485 11.4572 13.0242 11.2989C12.9999 11.1406 12.9383 10.9903 12.8445 10.8604C12.7508 10.7306 12.6275 10.6248 12.4849 10.5519C12.3424 10.4789 12.1845 10.4409 12.0243 10.4409C11.8641 10.4409 11.7063 10.4789 11.5637 10.5519C11.4211 10.6248 11.2978 10.7306 11.2041 10.8604C11.1103 10.9903 11.0488 11.1406 11.0244 11.2989C11.0001 11.4572 11.0137 11.619 11.0641 11.771Z" fill="#F8C300"/>
<path d="M11.2939 11.3215C11.4348 11.2929 11.581 11.3092 11.712 11.3683C11.843 11.4273 11.9522 11.5261 12.024 11.6505C12.0959 11.5261 12.205 11.4273 12.336 11.3683C12.467 11.3092 12.6133 11.2929 12.7541 11.3215C12.7298 11.145 12.6426 10.9834 12.5083 10.8663C12.3741 10.7493 12.2021 10.6848 12.024 10.6848C11.8459 10.6848 11.6739 10.7493 11.5397 10.8663C11.4055 10.9834 11.3182 11.145 11.2939 11.3215Z" fill="white"/>
<path d="M11.8632 13.0021C11.8411 13.245 11.7512 13.4768 11.6038 13.6712C11.4563 13.8655 11.2573 14.0146 11.0294 14.1014C10.8014 14.1883 10.5536 14.2093 10.3143 14.1623C10.0749 14.1153 9.85357 14.002 9.67542 13.8354C9.59949 14.0269 9.48088 14.1986 9.3286 14.3374C9.17632 14.4762 8.99438 14.5784 8.79665 14.6362C8.59891 14.6941 8.39057 14.7061 8.1875 14.6713C7.98442 14.6365 7.79196 14.5559 7.62476 14.4355C7.75164 15.6837 9.62398 15.4299 9.76115 14.216C10.351 15.2482 11.6472 14.9533 12.0244 13.6879L11.8632 13.0021Z" fill="#F8C300"/>
<path d="M12.1856 13.0021C12.2077 13.245 12.2977 13.4768 12.4451 13.6712C12.5925 13.8655 12.7915 14.0146 13.0195 14.1014C13.2474 14.1883 13.4952 14.2093 13.7345 14.1623C13.9739 14.1153 14.1953 14.002 14.3734 13.8354C14.4493 14.0269 14.5679 14.1986 14.7202 14.3374C14.8725 14.4762 15.0544 14.5784 15.2522 14.6362C15.4499 14.6941 15.6583 14.7061 15.8613 14.6713C16.0644 14.6365 16.2569 14.5559 16.4241 14.4355C16.2972 15.6837 14.4248 15.4299 14.2877 14.216C13.6979 15.2482 12.4016 14.9533 12.0244 13.6879L12.1856 13.0021Z" fill="#F8C300"/>
<path d="M10.6109 15.2205C10.3504 15.786 9.8294 15.882 9.37354 15.4261C9.37354 15.4261 9.55519 15.2959 9.75056 15.2616C9.73863 15.1741 9.74561 15.0851 9.77103 15.0005C9.79646 14.916 9.83974 14.8379 9.89795 14.7715C10.0445 14.8665 10.1535 15.0095 10.2064 15.1759C10.4806 15.1417 10.6109 15.2205 10.6109 15.2205Z" fill="#F8C300"/>
<path d="M12.6613 15.1567C12.3119 15.6721 11.7823 15.6817 11.407 15.1575C11.407 15.1575 11.6075 15.0586 11.8058 15.0567C11.8083 14.9685 11.8298 14.8818 11.8687 14.8025C11.9076 14.7232 11.963 14.6532 12.0313 14.5972C12.1604 14.7149 12.2446 14.8738 12.2696 15.0466C12.5457 15.0576 12.6613 15.1567 12.6613 15.1567Z" fill="#F8C300"/>
<path d="M14.6733 15.4239C14.2453 15.8761 13.721 15.8 13.4354 15.222C13.4354 15.222 13.6492 15.1569 13.8452 15.1871C13.862 15.1004 13.8971 15.0183 13.9483 14.9463C13.9995 14.8744 14.0656 14.8143 14.142 14.7701C14.2504 14.9071 14.3078 15.0774 14.3045 15.2521C14.5752 15.3075 14.6733 15.4239 14.6733 15.4239Z" fill="#F8C300"/>
<path d="M8.698 16.4793C10.8685 15.8332 13.1802 15.8332 15.3506 16.4793" stroke="#F8C300" stroke-width="0.548672"/>
<path d="M12.8615 8.0453L11.5068 9.02952L12.0242 7.43701L12.5417 9.02952L11.187 8.0453H12.8615Z" fill="#F8C300"/>
<path d="M10.4608 8.68995L9.10617 9.67418L9.62361 8.08167L10.141 9.67418L8.78638 8.68995H10.4608Z" fill="#F8C300"/>
<path d="M8.70498 10.4457L7.35031 11.4299L7.86775 9.8374L8.38519 11.4299L7.03052 10.4457H8.70498Z" fill="#F8C300"/>
<path d="M8.06045 12.8462L6.70578 13.8304L7.22322 12.2379L7.74066 13.8304L6.38599 12.8462H8.06045Z" fill="#F8C300"/>
<path d="M13.5875 8.68995L14.9422 9.67418L14.4247 8.08167L13.9073 9.67418L15.262 8.68995H13.5875Z" fill="#F8C300"/>
<path d="M15.3434 10.4457L16.698 11.4299L16.1806 9.8374L15.6632 11.4299L17.0178 10.4457H15.3434Z" fill="#F8C300"/>
<path d="M15.9879 12.8462L17.3426 13.8304L16.8251 12.2379L16.3077 13.8304L17.6624 12.8462H15.9879Z" fill="#F8C300"/>
</g>
<defs>
<clipPath id="clip0_720_53492">
<rect width="24.0044" height="24.0044" fill="white" transform="translate(0.0217285 0.0876465)"/>
</clipPath>
</defs>
</svg>
