<svg width="25" height="25" viewBox="0 0 25 25" fill="none" xmlns="http://www.w3.org/2000/svg">
<g clip-path="url(#clip0_720_53290)">
<path d="M0.0390625 0.0876465H24.0434V24.092H0.0390625V0.0876465Z" fill="#00247D"/>
<path d="M4.29117 18.1002C4.04269 18.1002 6.63535 16.7172 8.81075 14.9497C11.6566 12.6289 17.7889 8.91576 19.594 8.31565C19.7815 8.25471 19.2095 8.63446 19.1345 8.76105C17.2076 11.0396 18.7454 15.3388 21.1505 17.5001C21.8725 18.0534 21.835 18.0815 23.1759 18.1378V18.2643L4.29117 18.1002ZM4.13646 18.3534C4.13646 18.3534 3.95361 18.4847 3.95361 18.5831C3.95361 18.691 4.1599 18.8363 4.1599 18.8363L22.7867 19.0426L23.129 18.8129L22.6508 18.5175L4.13646 18.3534Z" fill="#FED100"/>
<path d="M4.98512 5.55422L4.79759 6.12151L5.28518 5.76988L5.76808 6.12151L5.58054 5.55422L6.06813 5.20259H5.46802L5.28518 4.63062L5.09764 5.20259H4.50222L4.98512 5.55422ZM8.63266 8.23127L9.03586 7.94059H8.53889L8.38418 7.46707L8.22946 7.94059H7.7325L8.13569 8.23127L7.98098 8.70479L8.38418 8.41412L8.78738 8.70479L8.63266 8.23127ZM1.84861 8.84076L1.66577 8.27347L1.47823 8.84076H0.882812L1.36571 9.19238L1.17818 9.75967L1.66577 9.40805L2.14867 9.75967L1.96582 9.19238L2.44872 8.84076H1.84861ZM5.50084 14.5559L5.28518 13.8901L5.06951 14.5559H4.37095L4.93355 14.9637L4.71789 15.6295L5.28518 15.2169L5.84778 15.6295L5.63211 14.9637L6.19472 14.5559H5.50084Z" fill="white"/>
</g>
<defs>
<clipPath id="clip0_720_53290">
<rect width="24.0044" height="24.0044" fill="white" transform="translate(0.0393066 0.0876465)"/>
</clipPath>
</defs>
</svg>
