<svg width="25" height="25" viewBox="0 0 25 25" fill="none" xmlns="http://www.w3.org/2000/svg">
<g clip-path="url(#clip0_720_53518)">
<path d="M0.00878906 0.092041H24.0132V24.0964H0.00878906V0.092041Z" fill="#E70013"/>
<path d="M12.0111 6.42127C10.519 6.41506 9.0855 7.00183 8.02602 8.05252C6.96654 9.10321 6.36784 10.5317 6.36162 12.0239C6.3554 13.516 6.94218 14.9494 7.99287 16.0089C9.04356 17.0684 10.4721 17.6671 11.9642 17.6733C13.4625 17.6733 14.8995 17.0781 15.959 16.0186C17.0185 14.9592 17.6137 13.5222 17.6137 12.0239C17.6137 10.5255 17.0185 9.08856 15.959 8.02908C14.8995 6.9696 13.4625 6.37439 11.9642 6.37439L12.0111 6.42127ZM15.3867 14.579C14.8588 15.2932 14.119 15.8225 13.2727 16.0917C12.4263 16.3609 11.5167 16.3562 10.6732 16.0783C9.82968 15.8004 9.09539 15.2634 8.57486 14.5439C8.05433 13.8243 7.77411 12.9588 7.77411 12.0707C7.77411 11.1826 8.05433 10.3172 8.57486 9.59762C9.09539 8.87806 9.82968 8.34108 10.6732 8.06316C11.5167 7.78523 12.4263 7.78054 13.2727 8.04974C14.119 8.31894 14.8588 8.84832 15.3867 9.56247C14.9018 9.12571 14.3006 8.83889 13.656 8.73674C13.0115 8.63458 12.3511 8.72146 11.7549 8.98687C11.1586 9.25228 10.6521 9.68483 10.2967 10.2322C9.94121 10.7795 9.75203 11.4181 9.75203 12.0707C9.75203 12.7234 9.94121 13.362 10.2967 13.9093C10.6521 14.4567 11.1586 14.8892 11.7549 15.1546C12.3511 15.42 13.0115 15.5069 13.656 15.4047C14.3006 15.3026 14.9018 15.0158 15.3867 14.579ZM15.1663 13.5616L13.4129 12.9943L12.3299 14.4852V12.6427L10.5811 12.0707L12.3299 11.4988V9.65155L13.4129 11.1471L15.1663 10.5798L14.0833 12.0707L15.1663 13.5616Z" fill="white"/>
</g>
<defs>
<clipPath id="clip0_720_53518">
<rect width="24.0044" height="24.0044" fill="white" transform="translate(0.00878906 0.092041)"/>
</clipPath>
</defs>
</svg>
