<svg width="25" height="25" viewBox="0 0 25 25" fill="none" xmlns="http://www.w3.org/2000/svg">
<g clip-path="url(#clip0_720_53288)">
<path d="M24.0256 24.0964V0.092041H0.0212402V24.0964H24.0256Z" fill="#002868"/>
<path d="M23.0409 9.07019V13.2897C23.0409 16.1027 21.6343 19.1314 18.1181 20.7723C14.6018 19.1314 13.1953 16.1027 13.1953 13.2897V9.07019H23.0409Z" fill="#FCD116" stroke="black" stroke-width="0.375068"/>
<path d="M23.0409 9.07019V13.2897C23.0409 16.1027 21.6343 19.1314 18.1181 20.7723C14.6018 19.1314 13.1953 16.1027 13.1953 13.2897V9.07019H23.0409Z" stroke="white" stroke-width="0.328185"/>
<path d="M16.3412 13.7164C16.2146 13.932 15.9943 13.9789 15.8255 13.9086C15.652 13.8429 15.4926 13.4304 15.3144 13.2053C15.1457 12.9897 15.0988 13.0834 14.9863 12.9568C14.822 12.8071 14.6312 12.6894 14.4237 12.6099C14.2689 12.5396 14.1095 12.4739 14.0017 12.2067C14.05 12.0992 14.1371 12.0138 14.2455 11.9676C14.3346 11.9348 14.4049 11.8082 14.4143 11.6957C14.4283 11.5878 14.5221 11.4706 14.6487 11.3862C14.5878 11.3956 14.4659 11.3722 14.4096 11.33C14.358 11.2831 14.2689 11.2972 14.2174 11.3394C14.1642 11.3737 14.0924 11.3847 14.0017 11.3722C14.0392 11.344 14.1049 11.2784 14.1095 11.2221C14.1142 11.1659 14.1846 11.1331 14.3205 11.1331C14.4518 11.1331 14.5362 10.9784 14.644 10.9784C14.569 10.9784 14.5831 10.8518 14.6253 10.8471C14.4377 10.8096 14.4612 10.6595 14.5362 10.6595C14.5315 10.6361 14.5081 10.6127 14.419 10.5798C14.3393 10.5517 14.3768 10.4767 14.4424 10.4298C14.3862 10.3126 14.4377 10.2235 14.5315 10.1485C14.4002 10.1438 14.5456 9.96098 14.5784 9.86252C14.6159 9.76876 14.6299 9.75469 14.6721 9.81564C14.719 9.86721 14.8269 9.98911 14.9488 10.0266C15.0675 10.0579 15.1379 10.1235 15.1597 10.2235C15.1832 10.3314 15.2301 10.3829 15.3566 10.4298C15.4926 10.472 15.6755 10.5845 15.652 10.833C15.7406 10.8364 15.8259 10.8675 15.8958 10.9221" fill="#FCAD56"/>
<path d="M16.3412 13.7164C16.2146 13.932 15.9943 13.9789 15.8255 13.9086C15.652 13.8429 15.4926 13.4304 15.3144 13.2053C15.1457 12.9897 15.0988 13.0834 14.9863 12.9568C14.822 12.8071 14.6312 12.6894 14.4237 12.6099C14.2689 12.5396 14.1095 12.4739 14.0017 12.2067C14.05 12.0992 14.1371 12.0138 14.2455 11.9676C14.3346 11.9348 14.4049 11.8082 14.4143 11.6957C14.4283 11.5878 14.5221 11.4706 14.6487 11.3862C14.5878 11.3956 14.4659 11.3722 14.4096 11.33C14.358 11.2831 14.2689 11.2972 14.2174 11.3394C14.1642 11.3737 14.0924 11.3847 14.0017 11.3722C14.0392 11.344 14.1049 11.2784 14.1095 11.2221C14.1142 11.1659 14.1846 11.1331 14.3205 11.1331C14.4518 11.1331 14.5362 10.9784 14.644 10.9784C14.569 10.9784 14.5831 10.8518 14.6253 10.8471C14.4377 10.8096 14.4612 10.6595 14.5362 10.6595C14.5315 10.6361 14.5081 10.6127 14.419 10.5798C14.3393 10.5517 14.3768 10.4767 14.4424 10.4298C14.3862 10.3126 14.4377 10.2235 14.5315 10.1485C14.4002 10.1438 14.5456 9.96098 14.5784 9.86252C14.6159 9.76876 14.6299 9.75469 14.6721 9.81564C14.719 9.86721 14.8269 9.98911 14.9488 10.0266C15.0675 10.0579 15.1379 10.1235 15.1597 10.2235C15.1832 10.3314 15.2301 10.3829 15.3566 10.4298C15.4926 10.472 15.6755 10.5845 15.652 10.833C15.7406 10.8364 15.8259 10.8675 15.8958 10.9221" stroke="black" stroke-width="0.0140651" stroke-linecap="round" stroke-linejoin="round"/>
<path d="M16.6646 10.5423C16.6648 10.5994 16.678 10.6556 16.7032 10.7068C16.7284 10.758 16.7649 10.8028 16.81 10.8377C16.8991 10.9127 16.9741 10.969 16.9553 11.0581C16.9366 11.1471 16.9741 11.2081 17.0491 11.269C17.1335 11.3253 17.1897 11.3956 17.171 11.5128C17.1522 11.63 17.1616 11.7004 17.2085 11.7894C17.2554 11.8785 17.3398 11.9488 17.3023 12.0895C17.2648 12.2301 17.2835 12.4177 17.3304 12.5114C17.3773 12.6005 17.3304 12.6708 17.2507 12.8256C17.1663 12.9803 17.1194 13.0365 16.9506 13.0975C16.7772 13.1491 16.7631 13.2569 16.7631 13.435C16.7631 13.6288 16.6459 13.7117 16.4115 13.6835C16.1771 13.8758 16.0317 13.646 15.9708 13.36C15.9098 13.074 15.9051 12.7599 15.5582 12.5114C15.2159 12.2536 15.3519 11.8176 15.6379 11.6441C15.9239 11.4706 15.8911 10.969 15.8536 10.6595C15.8254 10.3454 16.0317 10.172 16.1911 10.0032C16.4021 10.0829 16.6646 10.4064 16.6646 10.5423Z" fill="#FFA1A1" stroke="black" stroke-width="0.0140651" stroke-linecap="round" stroke-linejoin="round"/>
<path d="M16.1677 12.5396C16.1021 12.3849 16.0318 12.2349 16.2006 11.9067C16.3787 11.5738 16.2662 11.3206 16.2146 11.1518C16.1631 10.9878 16.149 10.833 16.2146 10.7627C16.285 10.7018 16.3131 10.6596 16.3178 10.547C16.3225 10.4345 16.4115 10.4767 16.4256 10.5283C16.4397 10.5799 16.449 10.6689 16.3553 10.8284C16.2615 10.9878 16.6178 11.391 16.4537 11.8176C16.3412 12.1176 16.4912 12.4974 16.5475 12.7646C16.6038 13.0319 16.6413 13.6554 16.2521 13.7492C16.5194 13.6226 16.2709 12.7834 16.1677 12.5396Z" fill="#F1B2DC" stroke="black" stroke-width="0.0140651" stroke-linecap="round" stroke-linejoin="round"/>
<path d="M14.4285 12.4927C14.4894 12.5068 14.5222 12.4693 14.541 12.4271C14.5597 12.3849 14.5738 12.3614 14.6348 12.3567C14.691 12.3567 14.7848 12.338 14.8082 12.2911C14.8317 12.2442 14.8973 12.2911 14.9583 12.1692C15.0192 12.0473 15.0567 11.9067 15.2161 11.8551M15.6521 10.833C15.5912 10.833 15.4224 10.8424 15.3521 10.9924M14.8645 10.1063C15.0051 10.1485 14.9489 10.2423 15.0192 10.2939C15.1458 10.397 15.0286 10.5001 15.1364 10.5283C15.2442 10.5564 15.2349 10.5752 15.2114 10.6924C15.1739 10.8283 15.3052 10.833 15.2583 10.9221M14.6488 11.3862C14.7332 11.3065 14.9348 11.2503 14.9817 11.1659M14.6441 10.9784C14.766 10.9784 14.9301 11.0252 14.9536 10.9784M14.6254 10.8471C14.6863 10.8471 14.8082 10.8049 14.8317 10.7205M14.5363 10.6595C14.6244 10.6627 14.7113 10.6381 14.7848 10.5892M14.4425 10.4298C14.4941 10.3876 14.5879 10.4345 14.677 10.3782M14.5316 10.1485C14.5738 10.1485 14.6629 10.1345 14.6629 10.1907" stroke="black" stroke-width="0.0140651" stroke-linecap="round" stroke-linejoin="round"/>
<path d="M20.1395 11.221C20.1395 11.221 19.7293 10.8752 19.3894 10.6408C19.0495 10.4064 18.6392 10.1192 18.6392 10.0606C18.7037 10.0137 19.0495 10.2364 19.5242 10.5236C20.0047 10.8166 20.2743 11.1038 20.2743 11.1038L20.1395 11.221ZM20.1102 11.4554C20.1102 11.4554 19.7117 11.2151 19.3191 11.0452C18.9088 10.8752 18.2935 10.8752 18.229 10.8166C18.229 10.758 18.944 10.7228 19.4538 10.9279C19.9754 11.1682 20.245 11.3382 20.245 11.3382L20.1102 11.4554ZM20.1044 11.8539C20.1044 11.8539 19.6707 11.6546 19.2487 11.5609C18.8385 11.4671 18.2525 11.5023 18.1821 11.4495C18.1821 11.3909 18.9088 11.2737 19.4538 11.4495C20.0047 11.6195 20.2391 11.7367 20.2391 11.7367L20.1044 11.8539ZM20.0809 12.2583C20.0809 12.2583 19.7527 12.0356 19.3191 11.9887C18.9088 11.9477 18.3638 12.2583 18.2935 12.1997C18.2935 12.1411 18.7682 11.7953 19.3601 11.8539C19.9403 11.9125 20.2157 12.1411 20.2157 12.1411L20.0809 12.2583ZM20.2157 10.9807C20.2157 10.9807 19.7996 10.5998 19.7996 10.3419C19.7996 10.1133 20.0516 9.76172 20.163 9.76172C20.1044 9.87893 19.911 10.1133 19.911 10.3419C19.911 10.5763 20.3505 10.8635 20.3505 10.8635L20.2157 10.9807Z" fill="#9E540A" stroke="black" stroke-width="0.012893" stroke-linecap="round" stroke-linejoin="round"/>
<path d="M20.2159 10.98C20.2159 10.98 20.2979 10.5993 20.2979 10.3416C20.2979 9.99597 20.0519 9.67966 20.0753 9.5918C20.1632 9.67966 20.4092 9.9374 20.4092 10.3416C20.4092 10.693 20.3506 10.8629 20.3506 10.8629L20.2159 10.98Z" fill="#9E540A" stroke="black" stroke-width="0.012893" stroke-linecap="round" stroke-linejoin="round"/>
<path d="M20.3154 10.8576C20.3154 10.7463 20.2744 10.6467 20.2041 10.5705C20.1103 10.4591 19.9696 10.424 19.8231 10.4474C19.6473 10.4767 19.5067 10.5822 19.4188 10.7463C19.3015 10.9631 19.2898 11.1976 19.284 11.4261C19.284 12.2173 19.3133 12.5396 19.3367 13.319C19.3426 13.5476 19.3836 14.0164 19.2781 14.3856C19.2371 14.5439 19.1902 14.6904 19.1199 14.8427C19.1668 14.6494 19.1902 14.5497 19.2136 14.4032C19.2781 14.0223 19.2605 13.6648 19.2488 13.3132C19.2254 12.5923 19.1843 12.2231 19.1609 11.3499C19.155 11.0862 19.1785 10.8869 19.3015 10.676C19.4305 10.4591 19.6532 10.3009 19.9052 10.3009C20.0107 10.3009 20.0986 10.3185 20.1865 10.3712C20.3623 10.465 20.4443 10.6584 20.4443 10.8518L20.3154 10.8576Z" fill="#9E540A" stroke="#FCD116" stroke-width="0.0703253" stroke-linecap="round" stroke-linejoin="round"/>
<path d="M20.3154 10.8576C20.3154 10.7463 20.2744 10.6467 20.2041 10.5705C20.1103 10.4591 19.9696 10.424 19.8231 10.4474C19.6473 10.4767 19.5067 10.5822 19.4188 10.7463C19.3015 10.9631 19.2898 11.1976 19.284 11.4261C19.284 12.2173 19.3133 12.5396 19.3367 13.319C19.3426 13.5476 19.3836 14.0164 19.2781 14.3856C19.2371 14.5439 19.1902 14.6904 19.1199 14.8427C19.1668 14.6494 19.1902 14.5497 19.2136 14.4032C19.2781 14.0223 19.2605 13.6648 19.2488 13.3132C19.2254 12.5923 19.1843 12.2231 19.1609 11.3499C19.155 11.0862 19.1785 10.8869 19.3015 10.676C19.4305 10.4591 19.6532 10.3009 19.9052 10.3009C20.0107 10.3009 20.0986 10.3185 20.1865 10.3712C20.3623 10.465 20.4443 10.6584 20.4443 10.8518L20.3154 10.8576Z" fill="#9E540A"/>
<path d="M20.3504 13.6823C20.3504 13.6823 20.1864 13.9752 20.0634 14.1861C19.9404 14.397 19.8408 14.4438 19.7471 14.3794C19.6592 14.315 19.7353 14.1451 19.8056 14.0631C19.8759 13.9811 20.2684 13.6003 20.2684 13.6003L20.3504 13.6823Z" fill="#9E540A" stroke="black" stroke-width="0.012893" stroke-linecap="round" stroke-linejoin="round"/>
<path d="M20.3915 13.7058C20.3915 13.7058 20.3271 14.0397 20.2744 14.2798C20.2275 14.52 20.1455 14.602 20.0459 14.5727C19.9405 14.5493 19.9581 14.356 19.9991 14.2564C20.0401 14.1568 20.2861 13.6531 20.2861 13.6531L20.3915 13.7058Z" fill="#9E540A" stroke="black" stroke-width="0.012893" stroke-linecap="round" stroke-linejoin="round"/>
<path d="M20.4618 13.7175V14.3033C20.4618 14.5493 20.4033 14.6489 20.292 14.643C20.1865 14.6372 20.1631 14.4497 20.1865 14.3384C20.2041 14.233 20.3505 13.6882 20.3505 13.6882L20.4618 13.7175Z" fill="#9E540A" stroke="black" stroke-width="0.012893" stroke-linecap="round" stroke-linejoin="round"/>
<path d="M20.7843 11.221C20.7843 11.221 21.1945 10.8752 21.5344 10.6408C21.8744 10.4064 22.2846 10.1192 22.2846 10.0606C22.2201 10.0137 21.8744 10.2364 21.3997 10.5236C20.9191 10.8166 20.6495 11.1038 20.6495 11.1038L20.7843 11.221ZM20.8136 11.4554C20.8136 11.4554 21.2121 11.2151 21.6048 11.0452C22.015 10.8752 22.6304 10.8752 22.6948 10.8166C22.6948 10.758 21.9798 10.7228 21.47 10.9279C20.9484 11.1682 20.6788 11.3382 20.6788 11.3382L20.8136 11.4554ZM20.8195 11.8539C20.8195 11.8539 21.2531 11.6546 21.6751 11.5609C22.0853 11.4671 22.6714 11.5023 22.7417 11.4495C22.7417 11.3909 22.015 11.2737 21.47 11.4495C20.9191 11.6195 20.6847 11.7367 20.6847 11.7367L20.8195 11.8539ZM20.8429 12.2583C20.8429 12.2583 21.1711 12.0356 21.6048 11.9887C22.015 11.9477 22.56 12.2583 22.6304 12.1997C22.6304 12.1411 22.1557 11.7953 21.5638 11.8539C20.9836 11.9125 20.7081 12.1411 20.7081 12.1411L20.8429 12.2583ZM20.7081 10.9807C20.7081 10.9807 21.1242 10.5998 21.1242 10.3419C21.1242 10.1133 20.8722 9.76172 20.7609 9.76172C20.8195 9.87893 21.0129 10.1133 21.0129 10.3419C21.0129 10.5763 20.5733 10.8635 20.5733 10.8635L20.7081 10.9807Z" fill="#9E540A" stroke="black" stroke-width="0.012893" stroke-linecap="round" stroke-linejoin="round"/>
<path d="M20.7082 10.98C20.7082 10.98 20.6262 10.5993 20.6262 10.3416C20.6262 9.99597 20.8722 9.67966 20.8488 9.5918C20.7609 9.67966 20.5149 9.9374 20.5149 10.3416C20.5149 10.693 20.5735 10.8629 20.5735 10.8629L20.7082 10.98Z" fill="#9E540A" stroke="black" stroke-width="0.012893" stroke-linecap="round" stroke-linejoin="round"/>
<path d="M20.6079 10.8576C20.6079 10.7463 20.649 10.6467 20.7193 10.5705C20.8131 10.4591 20.9537 10.424 21.1002 10.4474C21.276 10.4767 21.4167 10.5822 21.5046 10.7463C21.6218 10.9631 21.6335 11.1976 21.6394 11.4261C21.6394 12.2173 21.6101 12.5396 21.5866 13.319C21.5808 13.5476 21.5397 14.0164 21.6452 14.3856C21.6863 14.5439 21.7331 14.6904 21.8035 14.8427C21.7566 14.6494 21.7331 14.5497 21.7097 14.4032C21.6452 14.0223 21.6628 13.6648 21.6745 13.3132C21.698 12.5923 21.739 12.2231 21.7624 11.3499C21.7683 11.0862 21.7449 10.8869 21.6218 10.676C21.4929 10.4591 21.2702 10.3009 21.0182 10.3009C20.9127 10.3009 20.8248 10.3185 20.7369 10.3712C20.5611 10.465 20.479 10.6584 20.479 10.8518L20.6079 10.8576Z" fill="#9E540A" stroke="#FCD116" stroke-width="0.0703253" stroke-linecap="round" stroke-linejoin="round"/>
<path d="M20.6079 10.8576C20.6079 10.7463 20.649 10.6467 20.7193 10.5705C20.8131 10.4591 20.9537 10.424 21.1002 10.4474C21.276 10.4767 21.4167 10.5822 21.5046 10.7463C21.6218 10.9631 21.6335 11.1976 21.6394 11.4261C21.6394 12.2173 21.6101 12.5396 21.5866 13.319C21.5808 13.5476 21.5397 14.0164 21.6452 14.3856C21.6863 14.5439 21.7331 14.6904 21.8035 14.8427C21.7566 14.6494 21.7331 14.5497 21.7097 14.4032C21.6452 14.0223 21.6628 13.6648 21.6745 13.3132C21.698 12.5923 21.739 12.2231 21.7624 11.3499C21.7683 11.0862 21.7449 10.8869 21.6218 10.676C21.4929 10.4591 21.2702 10.3009 21.0182 10.3009C20.9127 10.3009 20.8248 10.3185 20.7369 10.3712C20.5611 10.465 20.479 10.6584 20.479 10.8518L20.6079 10.8576Z" fill="#9E540A"/>
<path d="M20.5737 13.6823C20.5737 13.6823 20.7377 13.9752 20.8607 14.1861C20.9837 14.397 21.0833 14.4438 21.177 14.3794C21.2649 14.315 21.1887 14.1451 21.1184 14.0631C21.0482 13.9811 20.6557 13.6003 20.6557 13.6003L20.5737 13.6823Z" fill="#9E540A" stroke="black" stroke-width="0.012893" stroke-linecap="round" stroke-linejoin="round"/>
<path d="M20.5325 13.7058C20.5325 13.7058 20.597 14.0397 20.6497 14.2798C20.6965 14.52 20.7785 14.602 20.8781 14.5727C20.9836 14.5493 20.966 14.356 20.925 14.2564C20.884 14.1568 20.638 13.6531 20.638 13.6531L20.5325 13.7058Z" fill="#9E540A" stroke="black" stroke-width="0.012893" stroke-linecap="round" stroke-linejoin="round"/>
<path d="M20.4622 13.7175V14.3033C20.4622 14.5493 20.5208 14.6489 20.6321 14.643C20.7375 14.6372 20.761 14.4497 20.7375 14.3384C20.72 14.233 20.5735 13.6882 20.5735 13.6882L20.4622 13.7175Z" fill="#9E540A" stroke="black" stroke-width="0.012893" stroke-linecap="round" stroke-linejoin="round"/>
<path d="M20.4625 13.7117C20.1519 13.7058 20.1226 13.5945 20.1226 13.5945C20.1226 13.5945 20.0816 13.4538 20.0757 13.3659C20.0699 13.3542 19.9878 13.1784 20.0113 13.1022C19.982 13.0319 19.9116 12.8619 19.9761 12.8326C19.9468 12.7506 19.8999 12.6568 19.8941 12.5689C19.8706 12.5045 19.812 12.3638 19.8589 12.3169C19.8589 12.3169 19.7476 12.0825 19.8003 12.0239C19.8003 12.0239 19.7476 11.7953 19.8003 11.7367C19.8003 11.7367 19.8003 11.5023 19.8589 11.4437C19.8589 11.4437 19.8589 11.2152 19.9116 11.1566C19.9116 11.1683 20.0757 10.8342 20.4625 10.8342L20.4567 11.3324H20.4625V13.7117Z" fill="#9E540A" stroke="black" stroke-width="0.012893" stroke-linecap="round" stroke-linejoin="round"/>
<path d="M20.4625 12.4339C19.9644 12.4281 19.8589 12.3167 19.8589 12.3167M20.4625 12.1409C19.9644 12.1409 19.8003 12.0237 19.8003 12.0237M20.4625 11.8538C19.9644 11.8479 19.8003 11.7366 19.8003 11.7366M20.4625 11.5607C19.9644 11.5549 19.8589 11.4435 19.8589 11.4435M20.4567 11.3322C20.4625 11.3322 20.0816 11.3322 20.023 11.2736L19.9116 11.1622M20.4625 13.4771C20.316 13.4771 20.1519 13.4537 20.0757 13.3658M20.4625 13.2427C20.1871 13.2427 20.023 13.1313 20.023 13.1313C20.023 13.1313 20.0171 13.1196 20.0113 13.102M20.4625 12.9555C20.0992 12.9497 19.9995 12.8735 19.9761 12.8325M20.4625 12.7211C19.9644 12.7211 19.9116 12.6039 19.9116 12.6039L19.8941 12.5687" stroke="black" stroke-width="0.012893" stroke-linecap="round" stroke-linejoin="round"/>
<path d="M20.4628 13.7117C20.7734 13.7058 20.8027 13.5945 20.8027 13.5945C20.8027 13.5945 20.8437 13.4538 20.8496 13.3659C20.8554 13.3542 20.9375 13.1784 20.914 13.1022C20.9433 13.0319 21.0136 12.8619 20.9492 12.8326C20.9785 12.7506 21.0254 12.6568 21.0312 12.5689C21.0547 12.5045 21.1133 12.3638 21.0664 12.3169C21.0664 12.3169 21.1777 12.0825 21.125 12.0239C21.125 12.0239 21.1777 11.7953 21.125 11.7367C21.125 11.7367 21.125 11.5023 21.0664 11.4437C21.0664 11.4437 21.0664 11.2152 21.0136 11.1566C21.0136 11.1683 20.8496 10.8342 20.4628 10.8342L20.4686 11.3324H20.4628V13.7117Z" fill="#9E540A" stroke="black" stroke-width="0.012893" stroke-linecap="round" stroke-linejoin="round"/>
<path d="M20.4628 12.4341C20.9609 12.4282 21.0664 12.3169 21.0664 12.3169M20.4628 12.141C20.9609 12.141 21.125 12.0238 21.125 12.0238M20.4628 11.8539C20.9609 11.848 21.125 11.7367 21.125 11.7367M20.4628 11.5609C20.9609 11.555 21.0664 11.4437 21.0664 11.4437M20.4686 11.3323C20.4628 11.3323 20.8437 11.3323 20.9023 11.2737L21.0137 11.1624M20.4628 13.4772C20.6093 13.4772 20.7734 13.4538 20.8496 13.3659M20.4628 13.2428C20.7382 13.2428 20.9023 13.1315 20.9023 13.1315C20.9023 13.1315 20.9082 13.1197 20.914 13.1022M20.4628 12.9556C20.8261 12.9498 20.9257 12.8736 20.9492 12.8326M20.4628 12.7212C20.9609 12.7212 21.0137 12.604 21.0137 12.604L21.0312 12.5689" stroke="black" stroke-width="0.012893" stroke-linecap="round" stroke-linejoin="round"/>
<path d="M18.1186 19.1033C17.8666 19.3377 17.3802 19.1853 17.2278 19.0798C17.0696 19.1326 16.6476 18.9685 16.5363 18.7868C16.2315 18.8278 16.126 18.3942 16.1788 18.2828C16.2608 18.1187 16.1143 18.0132 16.2198 17.9019C16.3663 17.7612 16.1378 17.6265 16.2784 17.5327C16.4191 17.4331 16.2432 17.269 16.3839 17.1635C16.5304 17.0521 16.3077 16.8998 16.4601 16.8236C16.6124 16.7474 16.4425 16.5481 16.5714 16.4719C16.7004 16.3958 16.4952 16.2024 16.6711 16.1145C16.841 16.0266 16.6886 15.8742 16.8234 15.8097C16.9699 15.7335 16.8351 15.5753 16.9699 15.5226C17.1223 15.4581 17.011 15.2881 17.1399 15.2413C17.2512 15.2002 17.1809 15.0947 17.2512 15.001H18.1186" fill="#009E49"/>
<path d="M18.1186 19.1033C17.8666 19.3377 17.3802 19.1853 17.2278 19.0798C17.0696 19.1326 16.6476 18.9685 16.5363 18.7868C16.2315 18.8278 16.126 18.3942 16.1788 18.2828C16.2608 18.1187 16.1143 18.0132 16.2198 17.9019C16.3663 17.7612 16.1378 17.6265 16.2784 17.5327C16.4191 17.4331 16.2432 17.269 16.3839 17.1635C16.5304 17.0521 16.3077 16.8998 16.4601 16.8236C16.6124 16.7474 16.4425 16.5481 16.5714 16.4719C16.7004 16.3958 16.4952 16.2024 16.6711 16.1145C16.841 16.0266 16.6886 15.8742 16.8234 15.8097C16.9699 15.7335 16.8351 15.5753 16.9699 15.5226C17.1223 15.4581 17.011 15.2881 17.1399 15.2413C17.2512 15.2002 17.1809 15.0947 17.2512 15.001H18.1186" stroke="black" stroke-width="0.012893" stroke-linecap="round" stroke-linejoin="round"/>
<path d="M17.5384 15.0361C17.4212 15.1533 17.5618 15.2412 17.4446 15.3819C17.3215 15.5284 17.4329 15.6046 17.3333 15.7335C17.2336 15.8625 17.3802 15.9269 17.2688 16.0734C17.1575 16.2141 17.2922 16.302 17.1692 16.4192C17.052 16.5423 17.1926 16.6478 17.0696 16.7767C16.9523 16.9115 17.093 16.9994 16.9758 17.1166C16.8527 17.2397 16.9934 17.3686 16.8762 17.4858C16.7589 17.6089 16.8996 17.7612 16.7648 17.9019C16.6359 18.0425 16.7882 18.1539 16.6828 18.2594C16.5714 18.3707 16.671 18.4821 16.5949 18.5583C16.5187 18.6344 16.5069 18.7399 16.5363 18.7868M17.7669 15.0772C17.6615 15.2237 17.8255 15.2881 17.7259 15.4053C17.6263 15.5284 17.7669 15.5694 17.6908 15.7101C17.6146 15.8507 17.7494 15.8859 17.6497 16.0265C17.5501 16.1672 17.7025 16.2785 17.597 16.4192C17.4856 16.5598 17.6497 16.636 17.5501 16.7767C17.4563 16.9232 17.597 16.9994 17.5091 17.1049C17.4212 17.2162 17.5735 17.3217 17.4622 17.4565C17.3567 17.5854 17.5091 17.6851 17.4212 17.8023C17.3333 17.9253 17.4563 18.0543 17.3802 18.1539C17.304 18.2477 17.4329 18.3942 17.3215 18.5231C17.2161 18.652 17.345 18.7399 17.2805 18.8278C17.2161 18.9157 17.1633 19.0447 17.2278 19.0798" stroke="black" stroke-width="0.012893" stroke-linecap="round" stroke-linejoin="round"/>
<path d="M18.1177 19.1033C18.3697 19.3377 18.8562 19.1853 19.0085 19.0798C19.1668 19.1326 19.5887 18.9685 19.7001 18.7868C20.0048 18.8278 20.1103 18.3942 20.0576 18.2828C19.9755 18.1187 20.122 18.0132 20.0165 17.9019C19.87 17.7612 20.0986 17.6265 19.9579 17.5327C19.8173 17.4331 19.9931 17.269 19.8524 17.1635C19.7059 17.0521 19.9286 16.8998 19.7763 16.8236C19.6239 16.7474 19.7938 16.5481 19.6649 16.4719C19.536 16.3958 19.7411 16.2024 19.5653 16.1145C19.3953 16.0266 19.5477 15.8742 19.4129 15.8097C19.2664 15.7335 19.4012 15.5753 19.2664 15.5226C19.114 15.4581 19.2254 15.2881 19.0964 15.2413C18.9851 15.2002 19.0554 15.0947 18.9851 15.001H18.1177" fill="#009E49"/>
<path d="M18.1177 19.1033C18.3697 19.3377 18.8562 19.1853 19.0085 19.0798C19.1668 19.1326 19.5887 18.9685 19.7001 18.7868C20.0048 18.8278 20.1103 18.3942 20.0576 18.2828C19.9755 18.1187 20.122 18.0132 20.0165 17.9019C19.87 17.7612 20.0986 17.6265 19.9579 17.5327C19.8173 17.4331 19.9931 17.269 19.8524 17.1635C19.7059 17.0521 19.9286 16.8998 19.7763 16.8236C19.6239 16.7474 19.7938 16.5481 19.6649 16.4719C19.536 16.3958 19.7411 16.2024 19.5653 16.1145C19.3953 16.0266 19.5477 15.8742 19.4129 15.8097C19.2664 15.7335 19.4012 15.5753 19.2664 15.5226C19.114 15.4581 19.2254 15.2881 19.0964 15.2413C18.9851 15.2002 19.0554 15.0947 18.9851 15.001H18.1177" stroke="black" stroke-width="0.012893" stroke-linecap="round" stroke-linejoin="round"/>
<path d="M18.6982 15.0361C18.8154 15.1533 18.6747 15.2412 18.792 15.3819C18.915 15.5284 18.8037 15.6046 18.9033 15.7335C19.0029 15.8625 18.8564 15.9269 18.9678 16.0734C19.0791 16.2141 18.9443 16.302 19.0674 16.4192C19.1846 16.5423 19.044 16.6478 19.167 16.7767C19.2842 16.9115 19.1436 16.9994 19.2608 17.1166C19.3839 17.2397 19.2432 17.3686 19.3604 17.4858C19.4776 17.6089 19.337 17.7612 19.4718 17.9019C19.6007 18.0425 19.4483 18.1539 19.5538 18.2594C19.6652 18.3707 19.5655 18.4821 19.6417 18.5583C19.7179 18.6344 19.7296 18.7399 19.7003 18.7868M18.4696 15.0772C18.5751 15.2237 18.411 15.2881 18.5107 15.4053C18.6103 15.5284 18.4696 15.5694 18.5458 15.7101C18.622 15.8507 18.4872 15.8859 18.5868 16.0265C18.6865 16.1672 18.5341 16.2785 18.6396 16.4192C18.7509 16.5598 18.5868 16.636 18.6865 16.7767C18.7802 16.9232 18.6396 16.9994 18.7275 17.1049C18.8154 17.2162 18.663 17.3217 18.7744 17.4565C18.8799 17.5854 18.7275 17.6851 18.8154 17.8023C18.9033 17.9253 18.7802 18.0543 18.8564 18.1539C18.9326 18.2477 18.8037 18.3942 18.915 18.5231C19.0205 18.652 18.8916 18.7399 18.956 18.8278C19.0205 18.9157 19.0733 19.0447 19.0088 19.0798" stroke="black" stroke-width="0.012893" stroke-linecap="round" stroke-linejoin="round"/>
<path d="M18.1184 19.1033V15.001" stroke="#009E49" stroke-width="0.012893" stroke-linecap="round" stroke-linejoin="round"/>
<path d="M18.1183 15.2119C18.0655 15.4405 18.1945 15.6397 18.1183 15.8331C18.0421 16.0207 18.171 16.0968 18.13 16.2492C18.0831 16.4016 18.1827 16.5129 18.1183 16.677C18.0538 16.8411 18.2062 16.97 18.1183 17.1869C18.0304 17.3979 18.1769 17.4506 18.1183 17.6674C18.0538 17.9136 18.2296 18.0425 18.1183 18.2183C18.0069 18.3941 18.2179 18.4352 18.13 18.6344C18.0421 18.8278 18.1827 18.904 18.1183 19.1032" stroke="black" stroke-width="0.012893" stroke-linecap="round" stroke-linejoin="round"/>
<path d="M18.2061 15.9503C18.1768 16.0148 18.294 16.1672 18.2295 16.2844C18.1592 16.3957 18.2647 16.5716 18.1944 16.7122C18.1241 16.8529 18.3057 17.0287 18.2354 17.1928C18.1592 17.3569 18.2706 17.562 18.2354 17.7143C18.2061 17.8667 18.3116 18.1597 18.2354 18.2652C18.1592 18.3766 18.3116 18.4059 18.2237 18.6755C18.1358 18.945 18.0772 18.7165 18.1299 18.6344C18.2413 18.4528 18.0068 18.3942 18.1182 18.2183C18.2295 18.0425 18.0537 17.9136 18.1182 17.6675C18.1768 17.4506 18.0303 17.3979 18.1182 17.1869C18.2061 16.9701 18.0537 16.8411 18.1182 16.677C18.1827 16.513 18.083 16.4016 18.1299 16.2492C18.1709 16.0969 18.042 16.0207 18.1182 15.8331C18.1768 15.6456 18.2354 15.8859 18.2061 15.9503ZM17.7138 16.1379C17.6728 16.2082 17.7842 16.343 17.6845 16.4778C17.6142 16.5716 17.7314 16.6829 17.6318 16.8177C17.5673 16.9115 17.6962 17.0287 17.6083 17.1635C17.5497 17.2396 17.6494 17.3862 17.579 17.4975C17.5087 17.6147 17.6142 17.7085 17.4911 17.8609C17.4208 17.9429 17.5439 18.148 17.4677 18.2125C17.3915 18.2769 17.4618 18.5289 17.4091 18.5641C17.3622 18.6051 17.4091 18.7868 17.2802 18.8278C17.3446 18.7399 17.2157 18.652 17.3212 18.5231C17.4325 18.3942 17.3036 18.2476 17.3798 18.1539C17.456 18.0542 17.3329 17.9253 17.4208 17.8022C17.5087 17.685 17.3563 17.5854 17.4618 17.4565C17.5732 17.3217 17.4208 17.2162 17.5087 17.1049C17.5966 16.9994 17.456 16.9232 17.5497 16.7767C17.6494 16.636 17.4853 16.5598 17.5966 16.4192C17.7021 16.2785 17.5497 16.1672 17.6494 16.0265C17.749 15.8859 17.6142 15.8507 17.6904 15.7101C17.831 15.7628 17.7607 16.0676 17.7138 16.1379ZM17.4208 15.757C17.3622 15.8507 17.4442 15.9621 17.3563 16.0793C17.2684 16.2023 17.3563 16.3547 17.2684 16.4543C17.1805 16.5481 17.2919 16.7356 17.1805 16.8118C17.0692 16.888 17.1395 17.1166 17.0516 17.1928C16.9637 17.2689 17.0516 17.4858 16.952 17.5971C16.8523 17.7085 16.8992 17.937 16.8406 17.9898C16.7879 18.0425 16.9168 18.1539 16.823 18.2301C16.7234 18.3062 16.7234 18.4586 16.5945 18.5582C16.6707 18.4821 16.571 18.3707 16.6824 18.2594C16.7879 18.1539 16.6355 18.0425 16.7644 17.9019C16.8992 17.7612 16.7586 17.6089 16.8758 17.4858C16.993 17.3686 16.8523 17.2396 16.9754 17.1166C17.0926 16.9994 16.952 16.9115 17.0692 16.7767C17.1922 16.6477 17.0516 16.5423 17.1688 16.4192C17.2919 16.302 17.1571 16.2141 17.2684 16.0734C17.3798 15.9269 17.2333 15.8624 17.3329 15.7335C17.3798 15.6749 17.3798 15.6222 17.3798 15.5753C17.4501 15.3936 17.4501 15.7101 17.4208 15.757Z" fill="#FCD116" stroke="black" stroke-width="0.012893" stroke-linecap="round" stroke-linejoin="round"/>
<path d="M17.3037 15.135C17.3037 13.9049 17.4736 13.4773 18.1179 13.4773C18.7623 13.4773 18.9321 13.9049 18.9321 15.135H17.3037Z" fill="#CE1126" stroke="black" stroke-width="0.012893" stroke-linecap="round" stroke-linejoin="round"/>
<path d="M17.3037 15.135C17.3037 13.9049 17.4736 13.4773 18.1179 13.4773C17.825 13.4773 17.6435 13.7057 17.5966 13.858C17.5439 14.0103 17.5732 13.9986 17.6376 13.94C17.702 13.8815 17.6727 14.0103 17.6142 14.0806C17.5614 14.1509 17.5087 14.3559 17.5849 14.2915C17.661 14.2212 17.7196 14.2974 17.6376 14.4145C17.5556 14.5258 17.4853 14.7953 17.5673 14.7015C17.6493 14.6078 17.6669 14.7601 17.6142 14.8363C17.5673 14.9124 17.5732 14.9827 17.6142 14.9476C17.661 14.9124 17.6552 15.0706 17.6142 15.135H17.3037ZM18.4225 15.1116C18.4225 14.93 18.4284 14.5024 18.3288 14.3618C18.2585 14.2505 18.2585 14.1333 18.3405 14.2622C18.4225 14.3911 18.4635 14.3266 18.4049 14.1978C18.3346 14.0338 18.2409 13.8522 18.2644 13.817C18.2936 13.776 18.3112 13.7936 18.3698 13.8815C18.4284 13.9693 18.4401 13.8405 18.3757 13.7526C18.3112 13.6706 18.3171 13.653 18.4518 13.7116C18.692 13.8112 18.8091 14.0982 18.8091 15.0647L18.4225 15.1116Z" fill="#000001" stroke="black" stroke-width="0.012893" stroke-linecap="round" stroke-linejoin="round"/>
<path d="M18.1178 15.3114C17.8601 15.3114 17.5789 15.2704 17.3915 15.1943C17.1689 15.1064 17.1572 15.0302 17.2333 14.9365C17.2919 14.8662 17.409 14.9072 17.5262 14.9599C17.6375 15.0068 17.9538 15.042 18.1178 15.042C18.2818 15.042 18.5981 15.0068 18.7094 14.9541C18.8266 14.9072 18.9437 14.8662 19.0023 14.9365C19.0785 15.0302 19.0667 15.1064 18.8442 15.1943C18.6567 15.2704 18.3755 15.3114 18.1178 15.3114Z" fill="#CE1126" stroke="black" stroke-width="0.012893" stroke-linecap="round" stroke-linejoin="round"/>
<path d="M0.0212402 0.0686035H12.0234V12.0708H0.0212402V0.0686035Z" fill="#012169"/>
<path d="M12.0234 0.0686035V1.56888L7.56949 6.0697L12.0234 10.4533V12.0708H10.4528L5.97545 7.66374L1.61528 12.0708H0.0212402V10.4767L4.38141 6.09314L0.0212402 1.80329V0.0686035H1.47463L5.97545 4.47566L10.3356 0.0686035H12.0234Z" fill="white"/>
<path d="M4.33453 7.66374L4.59238 8.46076L1.00579 12.0708H0.0212402V12.0005L4.33453 7.66374ZM7.2413 7.38243L8.50716 7.56997L12.0234 11.0159V12.0708L7.2413 7.38243ZM12.0234 0.0686035L7.5226 4.66319L7.42884 3.63175L10.9451 0.0686035H12.0234ZM0.0212402 0.0920453L4.5455 4.52254L3.16244 4.335L0.0212402 1.21725V0.0920453Z" fill="#C8102E"/>
<path d="M4.14699 0.0686035V12.0708H7.89767V0.0686035H4.14699ZM0.0212402 4.19435V7.94504H12.0234V4.19435H0.0212402Z" fill="white"/>
<path d="M0.0212402 4.94449V7.1949H12.0234V4.94449H0.0212402ZM4.89713 0.0686035V12.0708H7.14754V0.0686035H4.89713Z" fill="#C8102E"/>
</g>
<defs>
<clipPath id="clip0_720_53288">
<rect width="24.0044" height="24.0044" fill="white" transform="translate(0.0217285 0.092041)"/>
</clipPath>
</defs>
</svg>
