<svg width="25" height="25" viewBox="0 0 25 25" fill="none" xmlns="http://www.w3.org/2000/svg">
<g clip-path="url(#clip0_720_53483)">
<path fill-rule="evenodd" clip-rule="evenodd" d="M0.0131836 0.092041H24.0176V24.0964H0.0131836V0.092041Z" fill="#E30A17"/>
<path fill-rule="evenodd" clip-rule="evenodd" d="M16.3661 12.4693C16.3661 15.7793 13.6328 18.4657 10.2665 18.4657C6.9003 18.4657 4.16699 15.7793 4.16699 12.4646C4.16699 9.14995 6.89561 6.4729 10.2619 6.4729C13.6281 6.4729 16.3708 9.15464 16.3708 12.4693H16.3661Z" fill="white"/>
<path fill-rule="evenodd" clip-rule="evenodd" d="M16.6708 12.4693C16.6708 15.1182 14.486 17.2655 11.7902 17.2655C9.09439 17.2655 6.91431 15.1182 6.91431 12.4693C6.91431 9.82036 9.09439 7.6731 11.7902 7.6731C14.486 7.6731 16.6661 9.82036 16.6661 12.4693H16.6708Z" fill="#E30A17"/>
<path fill-rule="evenodd" clip-rule="evenodd" d="M17.5522 9.66565L17.5054 11.8832L15.4331 12.4458L17.4725 13.1725L17.4257 15.2026L18.7525 13.6179L20.7638 14.3118L19.6011 12.6099L21.0169 10.9174L18.8415 11.5175L17.5522 9.66565Z" fill="white"/>
</g>
<defs>
<clipPath id="clip0_720_53483">
<rect width="24.0044" height="24.0044" fill="white" transform="translate(0.0131836 0.092041)"/>
</clipPath>
</defs>
</svg>
