<svg width="25" height="25" viewBox="0 0 25 25" fill="none" xmlns="http://www.w3.org/2000/svg">
<g clip-path="url(#clip0_720_53289)">
<path d="M0.0175781 0.092041H24.0219V24.0964H0.0175781V0.092041Z" fill="#00843D"/>
<path d="M17.8939 2.75031C18.2929 2.91819 18.6509 3.17057 18.943 3.49007C19.2352 3.80957 19.4546 4.18859 19.5862 4.60104C19.7178 5.01349 19.7585 5.44956 19.7054 5.87923C19.6523 6.3089 19.5067 6.72195 19.2786 7.08995C19.0505 7.45794 18.7454 7.77213 18.3843 8.01089C18.0231 8.24964 17.6145 8.40728 17.1866 8.47295C16.7587 8.53862 16.3216 8.51076 15.9054 8.39129C15.4893 8.27183 15.104 8.06359 14.7761 7.78092C15.4348 8.06596 16.174 8.10503 16.8592 7.891C17.5443 7.67698 18.1298 7.22409 18.5091 6.61475C18.8885 6.00542 19.0364 5.28014 18.9261 4.5709C18.8158 3.86166 18.4545 3.21561 17.9079 2.75031H17.8939ZM15.0574 4.94446L15.3762 3.89896L14.4901 4.55533H15.6059L14.7198 3.89896L15.0574 4.94446ZM15.0574 3.40668L15.3762 2.37524L14.4901 3.01286H15.6059L14.7198 2.37524L15.0574 3.40668ZM16.5624 4.2037L16.8999 3.1582L16.0138 3.79582H17.1109L16.2248 3.1582L16.5624 4.2037ZM13.5149 5.68991L13.8713 4.65847L12.9805 5.30078H14.0635L13.1774 4.66316L13.5149 5.68991ZM15.0387 6.48693L15.395 5.44143L14.5042 6.07904H15.5872L14.7011 5.44143L15.0387 6.48693Z" fill="white"/>
<path d="M4.33984 0.092041H10.8238V24.0964H4.33984V0.092041Z" fill="#D22630"/>
<path d="M5.91456 0.092041H5.70368L5.29599 0.448183L5.13667 0.307601H5.27725L5.2585 0.12953H4.97734L4.49936 0.621568V0.799639H4.73366V0.659057L4.83676 0.766836L4.56965 0.97771L4.69618 1.09955L4.34003 1.45569V1.66656L4.9586 1.10423L4.83676 0.97771L5.08512 0.743406L4.86956 0.532532L5.01014 0.39195L5.29599 0.659057L5.91456 0.092041ZM4.32129 0.092041V0.532532L4.48062 0.39195V0.213879H4.63994L4.76647 0.092041H4.32129ZM5.52561 0.092041H5.34754L5.38503 0.199821L5.52561 0.092041Z" fill="#383739"/>
<path d="M5.89562 0.092041H5.72224L5.2958 0.480986L5.09899 0.302915H5.27706L5.24426 0.162332H5.00995L4.51791 0.621568V0.76215H4.69599V0.588765L4.86937 0.748092L4.60695 0.97771L4.72879 1.09955L4.33984 1.45569V1.65251L4.9256 1.09955L4.79908 0.982396L5.06619 0.748092L4.83188 0.537218L5.01464 0.377892L5.2958 0.644998L5.89562 0.092041ZM4.33984 0.092041V0.513788L4.46168 0.373206V0.199821H4.63975L4.73347 0.092041H4.33984ZM5.49262 0.092041H5.38484V0.162332L5.49262 0.092041Z" fill="#FFC72C"/>
<path d="M4.33985 2.87219V3.10661L4.69616 3.45824L4.56489 3.56138L4.83213 3.80986L4.72429 3.91301V3.7536H4.49456V3.93645L4.99153 4.41466H5.25408L5.27283 4.2365H5.15093L5.32909 4.09585L5.71822 4.45217L5.31034 4.82255L5.15093 4.6819H5.29158L5.27283 4.50374H4.97278L4.47581 4.98195V5.16011H4.71023V5.01946L4.81337 5.10385L4.54614 5.35233L4.67272 5.47892L4.31641 5.81179V6.04621L4.93527 5.47892L4.81337 5.35233L5.06185 5.10385L4.85088 4.91163L4.99153 4.77098L5.27283 5.03352L5.89169 4.47092L5.27283 3.88488L4.99153 4.14742L4.85088 4.00677L5.06185 3.81455L4.81337 3.56607L4.93527 3.45824L4.31641 2.87219H4.33985ZM4.33985 4.02553V4.91163L4.4805 4.75222V4.57406H4.6399L4.76649 4.46623L4.6399 4.34434H4.4805V4.16618L4.33985 4.02553ZM5.4041 4.32558L5.36191 4.45217L5.38066 4.57406L5.52131 4.45217L5.4041 4.32558Z" fill="#383739"/>
<path d="M4.33984 2.90503V3.09256L4.72898 3.44419L4.60708 3.57078L4.86963 3.81926L4.69616 3.95991V3.78175H4.518V3.93647L5.01497 4.39593H5.2447L5.25876 4.25528H5.08529L5.29627 4.07712L5.71822 4.46625L5.29627 4.84132L5.09936 4.66316H5.27751L5.2447 4.52251H5.01028L4.518 4.98197V5.14137H4.69616V4.96322L4.86963 5.10387L4.60708 5.35235L4.72898 5.47894L4.33984 5.83056V6.00872L4.92589 5.47894L4.7993 5.35235L5.06654 5.10387L4.83212 4.91164L5.01497 4.73349L5.29627 5.01479L5.89638 4.46625L5.29627 3.91771L5.01497 4.18495L4.83681 4.00679L5.06654 3.81457L4.7993 3.5614L4.92589 3.45357L4.33984 2.90503ZM4.33984 4.0443V4.87414L4.46174 4.75224V4.57408H4.6399L4.73367 4.46625L4.62114 4.36311H4.46174V4.18495L4.33984 4.0443ZM5.4041 4.36311L5.38535 4.45219V4.53658L5.49318 4.45219L5.4041 4.36311Z" fill="#FFC72C"/>
<path d="M4.34004 7.3918V7.62153L4.69636 7.97316L4.56977 8.08099L4.83701 8.31541L4.72918 8.41855V8.2779H4.49945V8.45137L4.99641 8.91551H5.25896L5.27771 8.75611H5.15582L5.33397 8.61546L5.72311 8.96709L5.31522 9.3234L5.15582 9.18275H5.29647L5.27771 9.01866H4.97766L4.48069 9.49687V9.67503H4.71511V9.51562L4.81825 9.62346L4.55102 9.87194L4.6776 9.97508L4.32129 10.3314V10.5424L4.94015 9.96102L4.81825 9.85319L5.06674 9.6047L4.85576 9.39373L4.99641 9.26714L5.27771 9.53438L5.89658 8.94833L5.27771 8.38573L4.99641 8.64828L4.85576 8.50763L5.06674 8.29196L4.81825 8.06223L4.94015 7.94034L4.32129 7.37305L4.34004 7.3918ZM4.34004 8.52638V9.41248L4.48069 9.27183V9.09367H4.6401L4.76668 8.96709L4.6401 8.84519H4.48069V8.66703L4.34004 8.52638ZM5.4043 8.84519L5.36679 8.96709L5.38555 9.09367L5.5262 8.96709L5.4043 8.84519Z" fill="#383739"/>
<path d="M4.33984 7.40588V7.58404L4.72898 7.95911L4.60708 8.08101L4.86963 8.31542L4.69616 8.47014V8.29667H4.518V8.45607L5.01497 8.92022H5.2447L5.25876 8.77957H5.08529L5.29627 8.60141L5.71822 8.97648L5.29627 9.36093L5.09936 9.18277H5.27751L5.2447 9.04212H5.01028L4.518 9.48282V9.64223H4.69616V9.46407L4.86963 9.60472L4.60708 9.8532L4.72898 9.96104L4.33984 10.3127V10.5471L4.92589 10.0126L4.7993 9.89071L5.06654 9.64223L4.83212 9.42656L5.01497 9.26716L5.29627 9.5344L5.89638 9.00461L5.29627 8.43732L5.01497 8.69987L4.83681 8.54047L5.06654 8.32949L4.7993 8.09507L4.92589 7.97317L4.33984 7.40588ZM4.33984 8.55922V9.39375L4.46174 9.26716V9.09369H4.6399L4.73367 8.96711L4.62114 8.85927H4.46174V8.6858L4.33984 8.55922ZM5.4041 8.87803L5.38535 8.97179V9.05618L5.49318 8.96711L5.4041 8.87803Z" fill="#FFC72C"/>
<path d="M4.34004 11.8926V12.1364L4.69636 12.4739L4.56977 12.5818L4.83701 12.8302L4.72918 12.9334V12.774H4.49945V12.9521L4.99641 13.4304H5.25896L5.27771 13.2522H5.15582L5.33397 13.1116L5.72311 13.4679L5.31522 13.8429L5.15582 13.6976H5.29647L5.27771 13.5194H4.97766L4.48069 13.9976V14.1758H4.71511V14.0352L4.81825 14.1383L4.55102 14.3727L4.6776 14.4946L4.32129 14.8509V15.0619L4.94015 14.4946L4.81825 14.3727L5.06674 14.1383L4.85576 13.9273L4.99641 13.7867L5.27771 14.0539L5.89658 13.4866L5.27771 12.9193L4.99641 13.1819L4.85576 13.0412L5.06674 12.8302L4.81825 12.5818L4.94015 12.4739L4.32129 11.8926H4.34004ZM4.34004 13.0412V13.932L4.48069 13.7867V13.6085H4.6401L4.76668 13.4866L4.6401 13.36H4.48069V13.1819L4.34004 13.0412ZM5.4043 13.36L5.36679 13.4679L5.38555 13.5898L5.5262 13.4679L5.4043 13.36Z" fill="#383739"/>
<path d="M4.33984 11.9254V12.1036L4.72898 12.4786L4.60708 12.5818L4.86963 12.8303L4.69616 12.9709V12.7928H4.518V12.9709L5.01497 13.4163H5.2447L5.25876 13.2897H5.08529L5.29627 13.0928L5.71822 13.4866L5.29627 13.8758L5.09936 13.6976H5.27751L5.2447 13.557H5.01028L4.518 14.0164V14.1571H4.69616V13.9789L4.86963 14.1383L4.60708 14.3727L4.72898 14.4946L4.33984 14.8509V15.0244L4.92589 14.4946L4.7993 14.3727L5.06654 14.1383L4.83212 13.9273L5.01497 13.7492L5.29627 14.0305L5.89638 13.4866L5.29627 12.9334L5.01497 13.2006L4.83681 13.0225L5.06654 12.849L4.7993 12.5818L4.92589 12.474L4.33984 11.9254ZM4.33984 13.06V13.9086L4.46174 13.7867V13.6085H4.6399L4.73367 13.5007L4.62114 13.3976H4.46174V13.2194L4.33984 13.0788V13.06ZM5.4041 13.3976L5.38535 13.4679V13.557L5.49318 13.4632L5.4041 13.3976Z" fill="#FFC72C"/>
<path d="M4.34004 16.4075V16.6419L4.69636 16.9935L4.56977 17.0967L4.83701 17.3451L4.72918 17.453V17.2748H4.49945V17.453L4.99641 17.9312H5.25896L5.27771 17.753H5.15582L5.33397 17.6124L5.72311 17.9687L5.31522 18.3391L5.15582 18.1984H5.29647L5.27771 18.0203H4.97766L4.48069 18.4985V18.6766H4.71511V18.536L4.81825 18.6204L4.55102 18.8689L4.6776 18.9954L4.32129 19.333V19.5627L4.94015 18.9954L4.81825 18.8689L5.06674 18.6204L4.85576 18.4282L4.99641 18.2875L5.27771 18.55L5.89658 17.9874L5.27771 17.4014L4.99641 17.6639L4.85576 17.5233L5.06674 17.3311L4.81825 17.0826L4.94015 16.9748L4.34004 16.4075ZM4.34004 17.5608V18.4469L4.48069 18.2875V18.1093H4.6401L4.76668 18.0015L4.6401 17.8796H4.48069V17.7015L4.34004 17.5608ZM5.4043 17.8609L5.36679 17.9828L5.38555 18.1093L5.5262 17.9828L5.4043 17.8609Z" fill="#383739"/>
<path d="M4.33984 16.4449V16.6184L4.72898 16.9747L4.60708 17.0966L4.86963 17.3451L4.69616 17.4858V17.3123H4.518V17.4717L5.01497 17.9312H5.2447L5.25876 17.7905H5.08529L5.29627 17.6123L5.71822 18.0015L5.29627 18.3765L5.09936 18.1984H5.27751L5.2447 18.0577H5.01028L4.518 18.5172V18.6954H4.69616V18.5172L4.86963 18.6391L4.61177 18.8923L4.73367 19.0189L4.34453 19.3705V19.5486L4.93058 19.0189L4.80399 18.8923L5.07123 18.6438L4.83681 18.4516L5.01965 18.2734L5.30096 18.5547L5.90107 18.0062L5.30096 17.4576L5.01965 17.7249L4.8415 17.5467L5.07123 17.3498L4.80399 17.1013L4.93058 16.9982L4.33984 16.4449ZM4.33984 17.5748V18.4094L4.46174 18.2875V18.1093H4.6399L4.73367 18.0015L4.62114 17.8936H4.46174V17.7202L4.33984 17.5748ZM5.4041 17.8936L5.38535 17.9874V18.0718L5.49318 17.9827L5.4041 17.8936Z" fill="#FFC72C"/>
<path d="M9.22974 0.092041H9.45935L9.8483 0.448183L10.0264 0.307601H9.86236L9.89516 0.12953H10.1435L10.6402 0.621568V0.799639H10.4294V0.659057L10.3028 0.766836L10.57 0.97771L10.4481 1.09955L10.7996 1.45569V1.66656L10.1998 1.10423L10.3216 0.97771L10.0545 0.743406L10.2888 0.532532L10.1295 0.39195L9.8483 0.659057L9.22974 0.092041ZM10.823 0.092041V0.532532L10.6637 0.39195V0.213879H10.5231L10.3966 0.092041H10.823ZM9.63743 0.092041H9.79675L9.75926 0.199821L9.63743 0.092041Z" fill="#383739"/>
<path d="M9.26245 0.092041H9.44052L9.84821 0.480986L10.0591 0.302915H9.8857L9.9185 0.162332H10.1153L10.6448 0.621568V0.780895H10.4715V0.60751L10.2981 0.748092L10.5792 0.97771L10.4574 1.09955L10.8463 1.45569V1.65251L10.2372 1.11829L10.3637 0.996454L10.1153 0.748092L10.2934 0.532532L10.1153 0.373206L9.83415 0.640312L9.26245 0.092041ZM10.8229 0.092041V0.513788L10.6823 0.373206V0.199821H10.5183L10.4152 0.092041H10.8229ZM9.6514 0.092041H9.75918V0.162332L9.6514 0.092041Z" fill="#FFC72C"/>
<path d="M10.8238 2.87219V3.10661L10.4488 3.45824L10.5753 3.56607L10.3081 3.81455L10.4347 3.9177V3.75829H10.6457V3.93645L10.1487 4.41466H9.90022L9.8674 4.2365H10.0081L9.84865 4.09585L9.45952 4.45217L9.84865 4.82255L10.0268 4.6819H9.86271L9.89553 4.50374H10.144L10.641 4.98195V5.16011H10.43V5.01946L10.3034 5.10385L10.5707 5.35233L10.4488 5.47892L10.8004 5.81179V6.04621L10.2003 5.47892L10.3222 5.35233L10.0549 5.10385L10.2894 4.91163L10.1299 4.77098L9.84865 5.03352L9.2251 4.47092L9.84396 3.88488L10.1253 4.14742L10.2894 4.00677L10.0549 3.81455L10.3315 3.56138L10.2097 3.45355L10.8238 2.87219ZM10.8238 4.02553V4.91163L10.6644 4.75222V4.57406H10.5238L10.3972 4.46623L10.5238 4.34434H10.6644V4.16618L10.8238 4.02553ZM9.75957 4.32558L9.77832 4.45217V4.57406L9.63767 4.45217L9.75957 4.32558Z" fill="#383739"/>
<path d="M10.8238 2.90503V3.09256L10.4347 3.44419L10.5566 3.57078L10.294 3.81926L10.4534 3.95991V3.78175H10.6269V3.93647L10.1346 4.39593H9.93772L9.90022 4.25528H10.0784L9.8674 4.07712L9.44545 4.46625L9.8674 4.84132L10.0784 4.66316H9.90022L9.93772 4.52251H10.1159L10.6128 4.98197V5.14137H10.4347V4.96322L10.2565 5.10387L10.5378 5.35235L10.4159 5.47894L10.8051 5.83056V6.00872L10.205 5.48362L10.3269 5.35704L10.0784 5.10856L10.294 4.91633L10.1159 4.73818L9.83458 5.01948L9.24854 4.47094L9.82989 3.9224L10.1112 4.18964L10.294 4.01148L10.1159 3.81926L10.3644 3.57078L10.2378 3.46294L10.8238 2.90503ZM10.8238 4.0443V4.87414L10.6832 4.75224V4.57408H10.5191L10.4112 4.46625L10.5191 4.36311H10.6925V4.18495L10.8238 4.0443ZM9.75957 4.35842V4.53189L9.65642 4.4475L9.75957 4.35842Z" fill="#FFC72C"/>
<path d="M10.8238 7.3918V7.62153L10.4488 7.97316L10.5753 8.08099L10.3081 8.31541L10.4347 8.41855V8.2779H10.6457V8.45137L10.1487 8.91551H9.90022L9.8674 8.75611H10.0081L9.84865 8.61546L9.45952 8.96709L9.84865 9.3234L10.0268 9.18275H9.86271L9.89553 9.01866H10.144L10.641 9.49687V9.67503H10.43V9.51562L10.3034 9.62346L10.5707 9.87194L10.4488 9.97508L10.8004 10.3314V10.5424L10.2003 9.96102L10.3222 9.85319L10.0549 9.6047L10.2894 9.39373L10.1299 9.26714L9.84865 9.53438L9.2251 8.94833L9.84396 8.38573L10.1253 8.64828L10.2894 8.50763L10.0549 8.29196L10.3222 8.06223L10.2003 7.94034L10.8191 7.37305L10.8238 7.3918ZM10.8238 8.52638V9.41248L10.6644 9.27183V9.09367H10.5238L10.3972 8.96709L10.5238 8.84519H10.6644V8.66703L10.8238 8.52638ZM9.75957 8.84519L9.77832 8.96709V9.09367L9.63767 8.96709L9.75957 8.84519Z" fill="#383739"/>
<path d="M10.8237 7.40588V7.58404L10.4346 7.95911L10.5565 8.08101L10.2939 8.31542L10.4533 8.47014V8.29667H10.6268V8.45607L10.1345 8.92022H9.93762L9.90011 8.77957H10.0783L9.86729 8.60141L9.44534 8.97648L9.86729 9.36093L10.0783 9.18277H9.90011L9.93762 9.04212H10.1158L10.6456 9.48751V9.64692H10.4721V9.46876L10.2986 9.60941L10.5799 9.85789L10.458 9.96572L10.8472 10.3174V10.5518L10.2377 10.0079L10.3643 9.88602L10.1158 9.63754L10.3268 9.42188L10.1486 9.26247L9.86729 9.52971L9.28125 8.99992L9.86729 8.43263L10.1486 8.69518L10.3268 8.53578L10.1158 8.3248L10.3643 8.09038L10.2377 7.96849L10.8237 7.40588ZM10.8237 8.55922V9.39375L10.6831 9.26716V9.09369H10.519L10.4111 8.96711L10.519 8.85927H10.6924V8.6858L10.8237 8.55922ZM9.75946 8.87803V9.05618L9.65632 8.96711L9.75946 8.87803Z" fill="#FFC72C"/>
<path d="M10.8238 11.8927V12.1364L10.4488 12.474L10.5753 12.5818L10.3081 12.8303L10.4347 12.9335V12.7741H10.6457V12.9522L10.1487 13.4304H9.90022L9.8674 13.2523H10.0081L9.84865 13.1116L9.45952 13.4679L9.84865 13.843L10.0268 13.6977H9.86271L9.89553 13.5195H10.144L10.641 13.9977V14.1759H10.43V14.0352L10.3034 14.1384L10.5707 14.3728L10.4488 14.4947L10.8004 14.851V15.062L10.2003 14.4947L10.3222 14.3728L10.0549 14.1384L10.2894 13.9086L10.1299 13.768L9.84865 14.0352L9.2251 13.4679L9.84396 12.9007L10.1253 13.1679L10.2894 13.0272L10.0549 12.8116L10.3222 12.5631L10.2003 12.4553L10.8191 11.8739L10.8238 11.8927ZM10.8238 13.0413V13.9321L10.6597 13.7821V13.6039H10.5191L10.3925 13.482L10.5191 13.3554H10.6597V13.1773L10.8238 13.0413ZM9.75957 13.3601L9.77832 13.4679V13.5898L9.63767 13.4679L9.75957 13.3601Z" fill="#383739"/>
<path d="M10.8238 11.9254V12.1036L10.4347 12.4927L10.5566 12.6005L10.294 12.849L10.4534 12.9897V12.8115H10.6269V12.9897L10.1346 13.4304H9.93772L9.90022 13.3085H10.0784L9.8674 13.1116L9.44545 13.5007L9.8674 13.8945L10.0784 13.7164H9.90022L9.93772 13.5757H10.1159L10.6128 14.0352V14.1758H10.4347V13.9977L10.2565 14.1571L10.5378 14.3915L10.4159 14.5134L10.8051 14.865V15.0432L10.205 14.5134L10.3269 14.3868L10.0784 14.1571L10.294 13.9086L10.1159 13.7351L9.83458 14.0164L9.24854 13.4679L9.82989 12.9193L10.1112 13.1819L10.294 13.0084L10.0784 12.8303L10.3269 12.563L10.205 12.4552L10.8238 11.9254ZM10.8238 13.06V13.9086L10.6832 13.7867V13.6085H10.5191L10.4112 13.5007L10.5191 13.3976H10.6925V13.2194L10.8191 13.0788L10.8238 13.06ZM9.75957 13.3976V13.557L9.65642 13.4632L9.75957 13.3976Z" fill="#FFC72C"/>
<path d="M10.8238 16.4075V16.6419L10.4488 16.9935L10.5753 17.0967L10.3081 17.3451L10.4347 17.453V17.2748H10.6457V17.453L10.1487 17.9312H9.90022L9.8674 17.753H10.0081L9.84865 17.6124L9.45952 17.9687L9.84865 18.3391L10.0268 18.1984H9.86271L9.89553 18.0203H10.144L10.641 18.5172V18.6954H10.43V18.5547L10.3034 18.6391L10.5707 18.8876L10.4488 19.0142L10.8004 19.3471V19.5815L10.2003 19.0142L10.3222 18.8876L10.0549 18.6391L10.2894 18.4469L10.1299 18.3063L9.84865 18.5688L9.2251 17.9828L9.84396 17.4014L10.1253 17.6639L10.2894 17.5233L10.0549 17.3311L10.3222 17.0826L10.2003 16.9748L10.8238 16.4075ZM10.8238 17.5608V18.4469L10.6597 18.2828V18.1047H10.5191L10.3925 17.9968L10.5191 17.8749H10.6597V17.6968L10.8238 17.5608ZM9.75957 17.8609L9.77832 17.9828V18.1093L9.63767 17.9828L9.75957 17.8609Z" fill="#383739"/>
<path d="M10.8237 16.4449V16.6184L10.4346 16.9747L10.5565 17.0966L10.2939 17.3451L10.4533 17.4858V17.3123H10.6268V17.4717L10.1345 17.9312H9.93762L9.90011 17.7905H10.0783L9.86729 17.6123L9.44534 18.0015L9.86729 18.3765L10.0783 18.1984H9.90011L9.93762 18.0577H10.1158L10.6456 18.5172V18.6954H10.4721V18.5172L10.2986 18.6391L10.5799 18.8876L10.458 19.0142L10.8472 19.3658V19.5439L10.2377 19.0142L10.3643 18.8876L10.1158 18.6391L10.3268 18.4469L10.1486 18.2687L9.86729 18.55L9.28125 18.0015L9.86729 17.4529L10.1486 17.7202L10.3268 17.542L10.1158 17.3451L10.3643 17.0966L10.2377 16.9935L10.8237 16.4449ZM10.8237 17.5748V18.4094L10.6831 18.2875V18.1093H10.519L10.4111 18.0015L10.519 17.8936H10.6924V17.7202L10.8237 17.5748ZM9.75946 17.8936V18.0718L9.65632 17.9827L9.75946 17.8936Z" fill="#FFC72C"/>
<path d="M4.86961 21.3162C4.88836 21.4568 4.99619 21.5646 5.02901 21.7053C5.08527 21.5646 5.12278 21.4381 5.08527 21.2833C5.06652 21.1567 4.97744 21.0677 4.95869 20.9598C4.85554 21.0536 4.83679 21.1943 4.86961 21.3162ZM4.83679 21.8975C4.92797 22.0198 5.04905 22.1167 5.18842 22.1788C5.1556 22.0569 5.20717 21.9913 5.25874 21.8975C5.33376 21.7944 5.36657 21.7053 5.315 21.5787C5.28752 21.6428 5.25122 21.7028 5.20717 21.7569C5.1556 21.8272 5.11809 21.8975 5.09934 22.0053C5.03397 21.9493 4.9853 21.8763 4.95869 21.7944C4.89998 21.6905 4.81408 21.6046 4.71021 21.5459C4.74771 21.6678 4.76647 21.7944 4.83679 21.8975ZM5.33376 22.2538C5.33376 22.3241 5.29625 22.3945 5.315 22.4648L5.09934 22.2913C4.99136 22.2402 4.89548 22.1667 4.81804 22.0757C4.82429 22.2194 4.88367 22.3382 4.99619 22.432L5.40408 22.6617C5.38533 22.5351 5.4369 22.4273 5.47441 22.3054C5.49152 22.2507 5.49404 22.1926 5.4817 22.1366C5.46936 22.0807 5.4426 22.029 5.40408 21.9866C5.40408 22.0804 5.36657 22.1647 5.33376 22.2538ZM5.61506 22.7133L5.75571 22.9805C5.63381 22.943 5.50723 22.8539 5.40408 22.8024C5.26343 22.7133 5.09934 22.6805 4.97744 22.5726C5.02901 22.807 5.18842 22.9289 5.41815 23.018C5.5963 23.0649 5.72289 23.0321 5.91511 23.1212C5.89427 22.9861 5.85318 22.8549 5.79321 22.732L5.65256 22.4648C5.61186 22.5409 5.59861 22.6286 5.61506 22.7133ZM6.11202 23.0696C6.15677 23.1458 6.21756 23.2114 6.29018 23.2618C6.11202 23.2618 5.93387 23.1587 5.75571 23.1587C5.65256 23.1587 5.54473 23.1915 5.41815 23.1587C5.5588 23.2618 5.69945 23.3368 5.88229 23.3697C6.09327 23.3884 6.29018 23.3368 6.51991 23.3697C6.42299 23.2858 6.34336 23.1839 6.28549 23.0696C6.2011 22.9289 6.11202 22.8211 5.93387 22.8024C6.00419 22.8727 6.06045 22.9805 6.11202 23.0696ZM6.76839 23.3884C6.43083 23.44 6.13078 23.5103 5.79321 23.5103C6.14516 23.6462 6.5339 23.6528 6.89029 23.5291C7.05273 23.4573 7.22844 23.4206 7.40601 23.4212C7.71655 23.456 8.00186 23.6088 8.20303 23.8479L8.30617 23.7588C8.09433 23.5851 7.84614 23.4611 7.57997 23.3962C7.3138 23.3313 7.03644 23.327 6.76839 23.3837V23.3884Z" fill="#FFC72C"/>
<path d="M5.15581 2.90507L4.62134 2.57689V1.82675L5.15581 1.50794V1.10006L5.63402 0.800004H6.04191L6.80142 0.378052H8.39546L9.12216 0.800004H9.51129L10.0083 1.10006V1.50794L10.538 1.82675V2.57689L10.0083 2.8957V3.30358L9.51129 3.58489H9.12216L8.37671 4.01153H6.78267L6.02316 3.58957H5.63402L5.15581 3.32234V2.90507Z" fill="#383739"/>
<path d="M6.78267 0.39209L6.04191 0.814042H5.65278L5.15581 1.10003V1.50792L4.62134 1.82673V2.57686L5.15581 2.89567V3.30356L5.63402 3.58486H6.04191L6.78267 4.0115H8.37671L9.12685 3.58955H9.51129L9.9895 3.30356V2.89567L10.524 2.57686V1.82673L9.9895 1.50792V1.10003L9.51129 0.81873H9.12216L8.37671 0.396778L6.78267 0.39209ZM6.82018 0.570247H8.34389L9.07059 0.978134H9.45972L9.81603 1.18911V1.597L10.3458 1.9158V2.4831L9.81603 2.8019V3.20979L9.45972 3.44421H9.07059L8.34389 3.84272H6.83893L6.07473 3.45358H5.69028L5.33866 3.21917V2.81597L4.7995 2.50185V1.93456L5.33397 1.61575V1.1938L5.68559 0.978134H6.07473L6.82018 0.570247Z" fill="#00843D"/>
<path d="M7.56544 2.2158V0.57019H6.8153L6.06986 0.992142H5.6901L5.33847 1.20781V1.61569L4.82275 1.9345V2.20174H7.58888V3.81453H8.3484L9.09384 3.40664H9.48298L9.8346 3.19098V2.78309L10.3691 2.46428V2.2158H7.56544Z" fill="#FFC72C"/>
<path d="M4.81812 2.2158V2.48304L5.3479 2.80185V3.20973L5.70421 3.42071H6.07928L6.82004 3.8286H7.56549V2.2158H10.3316V1.95325L9.79715 1.63445V1.21249L9.47834 0.978077H9.0892L8.33907 0.57019H7.59831V2.2158H4.81812Z" fill="white"/>
<path d="M5.95274 1.15619L5.82622 1.02966L5.70438 1.09995L5.82622 1.22648L5.65283 1.33426H6.04178L6.34169 1.61542L6.44947 1.50764L6.14487 1.22648V1.04841L5.95274 1.15619Z" fill="#383739"/>
<path d="M6.57138 1.08593L6.4308 0.978149L6.30428 1.04844L6.4308 1.17028L6.25273 1.27806H6.62762L6.94158 1.55922L7.03531 1.45613L6.74946 1.17496V0.996894L6.57138 1.08593ZM5.89659 1.50768L5.75601 1.38584L5.63417 1.45613L5.77475 1.57797L5.59668 1.68575H5.95282L6.27147 1.96691L6.37925 1.86382L6.07466 1.58265V1.40458L5.89659 1.50768Z" fill="#383739"/>
<path d="M7.57926 0.551514H7.24655L7.06848 0.729585H6.74983L6.50146 0.851423L6.57176 0.977947L6.78263 0.870167H6.87635L7.22781 1.25911L7.57926 1.02949V0.551514Z" fill="#383739"/>
<path d="M5.83117 1.04837L5.93426 1.15615L5.84523 1.2077L5.72339 1.09992L5.83117 1.04837ZM6.11233 1.06712V1.24519L6.41224 1.50761L6.32321 1.60133L6.04204 1.31548H5.73745L6.13108 1.06712H6.11233ZM6.43099 0.996826L6.53877 1.09992L6.44505 1.15615L6.34195 1.04837L6.43099 0.996826ZM6.71215 1.01088V1.18896L7.01675 1.45606L6.94177 1.5451L6.64186 1.26393H6.32321L6.71215 1.01088Z" fill="#D22630"/>
<path d="M5.77483 1.38557L5.89666 1.49335L5.79357 1.56364L5.68579 1.43711L5.77483 1.38557ZM6.07474 1.40431V1.5777L6.3559 1.8448L6.2903 1.93384L5.9857 1.65267H5.69048L6.07474 1.40431ZM7.56491 0.57019H7.28374L7.0963 0.748261H6.74484L6.53397 0.851355L6.56677 0.959135L6.77765 0.851355H6.88543L7.20408 1.22624L7.56022 1.01068L7.56491 0.57019Z" fill="#D22630"/>
<path d="M5.95274 3.27981L5.82622 3.38759L5.70438 3.29386L5.82622 3.19077L5.65283 3.08768H6.04178L6.34169 2.78308L6.44947 2.89086L6.14487 3.17203V3.37353L5.95274 3.27981Z" fill="#383739"/>
<path d="M6.57138 3.31724L6.4308 3.43908L6.30428 3.35004L6.4308 3.24695L6.25273 3.13917H6.62762L6.94158 2.83926L7.03531 2.94236L6.73071 3.22352V3.42034L6.57138 3.31724ZM5.89659 2.9283L5.75601 3.05014L5.63417 2.9611L5.77475 2.83926L5.59668 2.74554H5.95282L6.27147 2.45032L6.37925 2.55341L6.07466 2.83458V3.01265L5.89659 2.9283Z" fill="#383739"/>
<path d="M7.57926 3.84706H7.24655L7.06848 3.68773H6.74983L6.50146 3.56589L6.57176 3.42531L6.78263 3.54715H6.87635L7.22781 3.1582L7.57926 3.36908V3.84706Z" fill="#383739"/>
<path d="M5.83117 3.36895L5.93426 3.26117L5.84523 3.19088L5.72339 3.29866L5.83117 3.36895ZM6.11233 3.35021V3.17213L6.41224 2.89097L6.32321 2.82068L6.04204 3.10184H5.73745L6.13108 3.35021H6.11233ZM6.43099 3.4205L6.53877 3.3174L6.44505 3.24711L6.34195 3.35021L6.43099 3.4205ZM6.71215 3.38769V3.20962L7.01675 2.94252L6.94177 2.87223L6.64186 3.15339H6.32321L6.71215 3.38769Z" fill="#D22630"/>
<path d="M5.77483 3.01256L5.89666 2.90947L5.79357 2.85323L5.68579 2.96101L5.77483 3.01256ZM6.07474 3.01256V2.83917L6.3559 2.55801L6.2903 2.48303L5.9857 2.7642H5.69048L6.07474 3.01256ZM7.56491 3.82794H7.28374L7.10099 3.66861H6.74953L6.53866 3.54677L6.57146 3.43899L6.78233 3.56552H6.89011L7.20877 3.17189L7.56491 3.38745V3.82794Z" fill="#D22630"/>
<path d="M5.737 1.68601L5.57768 1.61572L5.38555 1.7563V1.79379L5.06689 2.21554L5.38555 2.62323V2.66072L5.57768 2.8013L5.737 2.74975L5.65265 2.67946V2.57168L5.68546 2.52014H5.86353V1.91563H5.68546L5.65265 1.88283V1.7563L5.737 1.68601Z" fill="#383739"/>
<path d="M5.40439 1.7751L5.57778 1.63452L5.7043 1.68607L5.63401 1.73762V1.86414L5.66681 1.91569H5.84489V2.4827H5.66681L5.63401 2.53425V2.67483L5.7043 2.73106L5.57778 2.76855L5.40439 2.64203V2.60923L5.08105 2.20154L5.39971 1.81259L5.40439 1.7751Z" fill="#D22630"/>
<path d="M9.1916 1.15619L9.31813 1.02966L9.45871 1.09995L9.31813 1.22648L9.4962 1.33426H9.14006L8.8214 1.61542L8.71362 1.50764L9.01822 1.22648V1.04841L9.1916 1.15619Z" fill="#383739"/>
<path d="M8.59151 1.08581L8.71334 0.978027L8.83987 1.04832L8.71334 1.17016L8.89141 1.27794H8.53996L8.21662 1.5591L8.11353 1.45601L8.41343 1.17484V0.996772L8.59151 1.08581ZM9.24756 1.50755L9.36939 1.38572L9.49592 1.45601L9.36939 1.57785L9.54747 1.68563H9.17258L8.85861 1.96679L8.76489 1.8637L9.05074 1.56379V1.38572L9.24756 1.50755Z" fill="#383739"/>
<path d="M7.57935 0.551514H7.898L8.07607 0.729585H8.39472L8.64309 0.851423L8.59622 0.982633L8.36192 0.874853H8.27757L7.94017 1.2638L7.58403 1.03418L7.57935 0.551514Z" fill="#383739"/>
<path d="M9.33656 1.04837L9.21003 1.15615L9.31781 1.2077L9.42091 1.09992L9.33656 1.04837ZM9.03196 1.06712V1.24519L8.7508 1.50761L8.82109 1.60133L9.121 1.31548H9.42091L9.05071 1.06712H9.03196ZM8.71331 0.996826L8.61022 1.09992L8.69925 1.15615L8.82109 1.04837L8.71331 0.996826ZM8.43215 1.01088V1.18896L8.16504 1.45606L8.23533 1.5451L8.51649 1.26393H8.82109L8.43215 1.01088Z" fill="#D22630"/>
<path d="M9.36943 1.38569L9.26165 1.49347L9.35537 1.56376L9.47721 1.43724L9.36943 1.38569ZM9.08826 1.40443V1.57782L8.78367 1.84493L8.87739 1.93396L9.1773 1.6528H9.47721L9.08826 1.40443ZM7.57935 0.570312H7.898L8.08076 0.748383H8.39941L8.63371 0.851477L8.57748 0.959257L8.38066 0.851477H8.27757L7.94017 1.22636L7.58403 1.0108L7.57935 0.570312Z" fill="#D22630"/>
<path d="M9.1916 3.27981L9.31813 3.38759L9.45871 3.29386L9.31813 3.19077L9.4962 3.08768H9.14006L8.8214 2.78308L8.71362 2.89086L9.01822 3.17203V3.37353L9.1916 3.27981Z" fill="#383739"/>
<path d="M8.59151 3.31724L8.71334 3.43908L8.83987 3.35004L8.71334 3.24695L8.89141 3.13917H8.53996L8.21662 2.83926L8.11353 2.94236L8.41343 3.22352V3.42034L8.59151 3.31724ZM9.24756 2.9283L9.36939 3.05014L9.49592 2.9611L9.36939 2.83926L9.54747 2.74554H9.17258L8.85861 2.45032L8.76489 2.55341L9.06949 2.83458V3.03139L9.24756 2.9283Z" fill="#383739"/>
<path d="M7.5791 3.84706H7.89776L8.07583 3.68773H8.39448L8.64284 3.56589L8.59129 3.42531L8.35699 3.54715H8.27264L7.93524 3.1582L7.5791 3.36908V3.84706Z" fill="#383739"/>
<path d="M9.33656 3.36895L9.21003 3.26117L9.31781 3.19088L9.42091 3.29866L9.33656 3.36895ZM9.03196 3.35021V3.17213L8.7508 2.89097L8.82109 2.82068L9.121 3.10184H9.42091L9.05071 3.35021H9.03196ZM8.71331 3.4205L8.61022 3.3174L8.69925 3.24711L8.82109 3.35021L8.71331 3.4205ZM8.43215 3.38769V3.20962L8.16504 2.96126L8.23533 2.89097L8.53993 3.17213H8.83983L8.45089 3.40644L8.43215 3.38769Z" fill="#D22630"/>
<path d="M9.36918 3.01256L9.2614 2.90947L9.35512 2.85323L9.47696 2.96101L9.36918 3.01256ZM9.08802 3.01256V2.83917L8.78342 2.55801L8.87715 2.48303L9.17705 2.7642H9.47696L9.08802 3.01256ZM7.5791 3.80919H7.89776L8.08051 3.65455H8.39917L8.63347 3.53271L8.57724 3.42493L8.38042 3.55146H8.27733L7.93993 3.16251L7.58379 3.37339L7.5791 3.80919Z" fill="#D22630"/>
<path d="M9.40753 1.68601L9.58091 1.61572L9.75899 1.7563V1.79379L10.1151 2.21554L9.75899 2.60917V2.64197L9.54811 2.78256L9.38879 2.73101L9.49657 2.66072V2.57168L9.45908 2.52014H9.28101V1.91563H9.45908L9.49657 1.88283V1.7563L9.40753 1.68601Z" fill="#383739"/>
<path d="M9.75885 1.7751L9.56672 1.63452L9.45894 1.68607L9.52923 1.73762V1.86414L9.47769 1.91569H9.31836V2.4827H9.49643L9.52923 2.53425V2.67483L9.45894 2.73106L9.56672 2.76855L9.74011 2.64203V2.60923L10.0588 2.20154L9.75885 1.81259V1.7751Z" fill="#D22630"/>
<path d="M5.47451 2.53471L5.38074 2.46439V2.43626L5.20728 2.20184L5.38543 1.9768V1.93929L5.47451 1.86897L5.61516 1.99086H5.52608L5.66673 2.13152H5.97148L6.20121 1.95805V1.41889H6.80132L7.50926 0.996934V0.889102L7.38736 0.818777H7.36861L7.24671 0.889102L7.22796 0.959427L7.13888 0.83753L7.31703 0.678126H7.33579L7.54676 0.537476H7.61709L7.814 0.678126H7.84682L8.02498 0.83753L7.91714 0.959427V0.889102L7.79525 0.818777H7.75774L7.65928 0.889102V0.996934L8.36254 1.41889H8.94858V1.92054L9.19706 2.0987H9.50181L9.6237 1.9768H9.53463L9.69403 1.85021L9.78311 1.92054V1.95805L9.96127 2.18778L9.78311 2.41751V2.45501L9.69403 2.52534L9.53463 2.38938H9.6237L9.50181 2.26748H9.19706L8.94858 2.44564V2.93791H8.34847L7.6546 3.37393V3.48176L7.75774 3.55209H7.79525L7.89839 3.48176L7.91714 3.4255L8.02498 3.55209L7.84682 3.69274H7.814L7.61709 3.83339H7.54676L7.33579 3.69274H7.31703L7.13888 3.55209L7.22796 3.4255L7.24671 3.48176L7.36861 3.55209H7.38736L7.49519 3.48176V3.37393L6.80132 2.95198H6.21996V2.44564L5.98554 2.26748H5.69018L5.54953 2.38938H5.6386L5.47451 2.53471Z" fill="#383739"/>
<path d="M7.57963 3.58011L7.65465 3.63637L7.57963 3.7067V3.58011ZM7.3499 3.68795L7.52806 3.8286H7.56557V3.72545L7.45773 3.63169L7.56557 3.56605V3.35038L6.81543 2.89093H6.28565V2.43147L5.96684 2.2158H5.5402L5.43237 2.34239L5.32922 2.2158H5.20264L5.38079 2.43147V2.46429L5.43237 2.52055L5.55895 2.42678H5.50269V2.41271L5.64334 2.27206H5.96684L6.21532 2.45022V2.9425H6.79668L7.50462 3.38789V3.50979L7.40147 3.58011H7.34521L7.22332 3.50979V3.45822L7.15299 3.54729L7.33115 3.66919L7.3499 3.68795ZM5.45581 2.09391L5.54489 2.20174H5.36204L5.45581 2.09391ZM7.57963 0.710841L7.49524 0.767101L7.56557 0.813985L7.57963 0.710841ZM9.60031 2.2158L9.67064 2.30957L9.7644 2.2158H9.60031ZM7.81405 0.715529L7.61714 0.57019H7.57963V0.692088L7.68746 0.767101L7.57963 0.851492V1.06716L8.34383 1.50786H8.87362V1.97201L9.15492 2.20174H9.58156L9.68939 2.07515L9.81598 2.20174H9.93787L9.75972 1.98607V1.95325L9.68939 1.88293L9.58156 1.96732H9.63782V1.98138L9.49717 2.14079H9.17836L8.92988 1.94857V1.4516H8.34383L7.63589 1.02965V0.903063L7.75779 0.809296H7.7953L7.91719 0.903063V0.935882L7.98752 0.846803L7.82811 0.706153L7.81405 0.715529Z" fill="#FFC72C"/>
<path d="M7.56557 3.70201L7.49524 3.63637L7.56557 3.58011V3.70201ZM5.54489 2.2158L5.45581 2.30957L5.36673 2.2158H5.54489ZM7.81405 3.68795L7.61714 3.8286H7.57963V3.72545L7.68746 3.63169L7.57963 3.56605V3.35038L8.32977 2.89093H8.87362V2.43147L9.15492 2.2158H9.58156L9.68939 2.34239L9.81598 2.2158H9.93787L9.75972 2.43147V2.46429L9.68939 2.52055L9.58156 2.42678H9.63782V2.41271L9.49717 2.27206H9.17836L8.92988 2.45022V2.9425H8.34383L7.63589 3.38789V3.50979L7.75779 3.58011H7.7953L7.91719 3.50979V3.45822L7.98752 3.54729L7.82811 3.66919L7.81405 3.68795ZM9.68939 2.09391L9.61907 2.20174H9.79722L9.68939 2.09391ZM7.3499 0.710841L7.52806 0.57019H7.56557V0.692088L7.45773 0.767101L7.56557 0.851492V1.06716L6.81543 1.50786H6.28565V1.97201L5.96684 2.2158H5.5402L5.43237 2.09391L5.32922 2.2158H5.20264L5.38079 2.00483V1.97201L5.43237 1.89699L5.55895 1.99076H5.50269V2.00483L5.64334 2.16423H5.96684L6.21532 1.97201V1.4516H6.79668L7.50462 1.02965V0.903063L7.40147 0.809296H7.34521L7.22332 0.903063V0.935882L7.15299 0.846803L7.33115 0.706153L7.3499 0.710841ZM7.58432 0.818673L7.65465 0.767101L7.57963 0.710841L7.58432 0.818673Z" fill="white"/>
<path d="M7.56547 2.21583V1.08594L6.83877 1.50789H6.29961V1.97204L6.01831 2.18301H7.57484V3.31759L8.32498 2.85345H8.85476V2.41274L9.13607 2.20177L7.56547 2.21583Z" fill="#00843D"/>
<path d="M6.01831 2.21591L6.29024 2.43157V2.87228H6.81533L7.56078 3.33174V2.20184H9.13607L8.85476 1.98618V1.50797H8.32029L7.57484 1.06726V2.21591H6.01831Z" fill="#D22630"/>
<path d="M6.78272 1.6532L6.66082 1.52661L6.52017 1.61569L6.66082 1.73759L6.48267 1.83135H6.83898L7.15779 2.13141L7.26093 2.02358L6.96088 1.74228V1.56412L6.78272 1.6532ZM8.37676 2.75027L8.50335 2.87217L8.62524 2.80184L8.50335 2.67995L8.66275 2.57211H8.30644L7.98763 2.29081L7.89855 2.39396L8.20329 2.67526V2.8581L8.37676 2.75027ZM6.78272 2.75027L6.66082 2.87217L6.52017 2.80184L6.66082 2.67995L6.48267 2.57211H6.83898L7.15779 2.29081L7.26093 2.39396L6.96088 2.67526V2.8581L6.78272 2.75027ZM8.37676 1.6532L8.50335 1.52661L8.62524 1.61569L8.50335 1.73759L8.66275 1.83135H8.30644L7.98763 2.13141L7.89855 2.02358L8.20329 1.74228V1.56412L8.37676 1.6532Z" fill="#383739"/>
<path d="M8.50239 2.85757L8.37586 2.74979L8.48364 2.6795L8.59142 2.78259L8.50239 2.85757ZM8.22122 2.83882V2.66075L7.91663 2.39364L7.98692 2.30461L8.29151 2.58577H8.61017L8.22122 2.83882ZM6.64201 1.56421L6.76854 1.6673L6.67482 1.72354L6.55298 1.61576L6.64201 1.56421ZM6.94192 1.56421V1.73291L7.22309 2.01407L7.15748 2.08905L6.85757 1.80788H6.57641L6.92786 1.57358L6.94192 1.56421Z" fill="#D22630"/>
<path d="M8.50239 1.56421L8.37586 1.6673L8.48364 1.72354L8.59142 1.61576L8.50239 1.56421ZM8.22122 1.56421V1.73291L7.91663 2.0375L7.98692 2.10779L8.29151 1.82663H8.61017L8.22122 1.56421ZM6.64201 2.85288L6.76854 2.74979L6.67482 2.6795L6.55298 2.78259L6.64201 2.85288ZM6.94192 2.83882V2.66075L7.22309 2.39364L7.15748 2.30461L6.85757 2.58577H6.57641L6.96067 2.83882H6.94192Z" fill="#00843D"/>
<path d="M8.37574 2.21556L7.5791 2.74977L6.78247 2.21556L7.5791 1.68604L8.37574 2.21556Z" fill="#383739"/>
<path d="M7.5652 1.68604L6.81543 2.21556H8.33841L7.57926 1.68604V2.69354L8.34309 2.21556H6.83886L7.57926 2.71697L7.5652 1.68604Z" fill="white"/>
<path d="M7.795 2.39376V2.53435H7.37325V2.39376H7.0874V2.01888H7.36857V1.8783H7.79031V2.01888H8.05742V2.37502L7.795 2.39376Z" fill="#383739"/>
<path d="M7.38717 1.89709V2.03768H7.106V2.20169H7.56524V1.89709H7.38717ZM7.5793 2.20169H8.04322V2.02362H7.77611V1.89709H7.59804V2.20169H7.5793ZM7.10132 2.20169V2.37507H7.38248V2.51566H7.56524V2.21575L7.10132 2.20169ZM7.5793 2.52034H7.75737V2.37976H8.03853V2.20169H7.5793V2.52034Z" fill="#D22630"/>
<path d="M8.92529 8.24037V8.01533H9.58165V7.76684H10.2193V5.65708H9.58165V5.42735H8.94404V5.19762H8.30642V4.9679H6.89054V5.20231H6.22011V5.42735H5.5778V5.66177H4.94019V7.78091H5.5778V8.01064H6.22011V8.24505H6.85772V8.4701H8.29236V8.24037H8.92529Z" fill="#383739"/>
<path d="M6.87163 4.98193V5.21166H6.23402V5.44608H5.5964V5.67112H4.97754V7.74337H5.61515V7.99186H6.25277V8.22627H6.89039V8.45131H8.30627V8.22159H8.92982V7.99186H9.56744V7.74337H10.2051V5.67112H9.56744V5.44139H8.92513V5.23042H8.28752V4.996L6.87163 4.98193ZM7.04979 5.16009H8.11405V5.38982H8.75166V5.61955H9.38928V5.84928H10.0269V7.58397H9.38928V7.81839H8.75166V8.04812H8.11405V8.27785H7.04979V8.06218H6.39342V7.83245H5.75581V7.60272H5.11819V5.86803H5.75581V5.63361H6.39342V5.40857H7.03104L7.04979 5.16009Z" fill="#FFC72C"/>
<path d="M6.43099 8.02936V7.79494H5.79338V7.5699H5.15576V5.86803H5.79338V5.63361H6.43099V5.40857H7.06861V5.1554H8.09536V5.40388H8.73297V5.63361H9.37059V5.86334H10.0082V7.56521H9.37059V7.79494H8.73766V8.02467H8.10005V8.2544H7.06861V8.01998L6.43099 8.02936Z" fill="#D22630"/>
<path d="M6.57173 5.58208L6.39357 5.44143V5.68991L6.25292 5.79775V5.63834L6.09352 5.77899L5.95287 5.63834V5.79775L5.77471 5.67116V5.90558L5.63406 6.00872V5.86807L5.4559 5.98997L5.27775 5.86807V6.00872L5.1371 5.88682V6.55726H4.94019V6.87607H5.11834V7.53244L5.2965 7.41054V7.55119L5.47466 7.4246L5.63406 7.55119V7.41054L5.77471 7.51368V7.7481L5.95287 7.62151V7.78092L6.09352 7.64027L6.25292 7.78092V7.62151L6.41233 7.72935V7.97314L6.59049 7.83249V8.01065L6.73114 7.87L6.90929 8.01065V7.83249L7.04994 7.95908V8.20756L7.26092 8.01065V8.24507L7.57973 8.06222L7.88447 8.24038V8.01534L8.1142 8.21225V7.96376L8.25485 7.83718V8.01534L8.43301 7.87469L8.57366 8.01534V7.83718L8.75182 7.97783V7.73404L8.91122 7.6262V7.78561L9.05187 7.64496L9.21128 7.78561V7.6262L9.38943 7.7481V7.53712L9.53008 7.42929V7.56994L9.70824 7.44805L9.86764 7.57463V7.43398L10.027 7.55588V6.88075H10.2052V6.56195H10.027V5.89151L9.84889 6.01341V5.87276L9.68949 5.99466L9.51133 5.87276V6.01341L9.39412 5.90558V5.67116L9.21596 5.79775V5.63834L9.05656 5.77899L8.91591 5.63834V5.79775L8.73775 5.68991V5.44143L8.57835 5.56802V5.38986L8.41894 5.56802L8.25954 5.38986V5.56802L8.11889 5.46018V5.2117L7.88447 5.40861V5.17419L7.58442 5.35235L7.26561 5.17419V5.40861L7.05463 5.2117V5.46018L6.89523 5.56802V5.38986L6.73582 5.56802L6.57642 5.38986L6.57173 5.58208Z" fill="#383739"/>
<path d="M5.31505 6.0462V5.90555L5.45571 6.0087L5.61511 5.90086V6.04152L5.77451 5.91962V7.51366L5.59636 7.39176V7.53241L5.45571 7.42458L5.31505 7.53241V7.39176L5.1369 7.51366V6.85729H4.95874V6.57599H5.1369V5.93837L5.31505 6.0462ZM6.59029 5.44141L6.73094 5.56799L6.87159 5.44141V5.61956L7.04975 5.47891V7.95905L6.87159 7.83247V7.99187L6.73094 7.85122L6.59029 7.99187V7.81371L6.41213 7.95436V5.4836L6.59029 5.6055V5.44141ZM8.5594 5.44141L8.41874 5.56799L8.27341 5.44141V5.61956L8.09525 5.47891V7.95905L8.27341 7.83247V7.99187L8.41406 7.85122L8.55471 7.99187V7.81371L8.73286 7.95436V5.4836L8.55471 5.6055L8.5594 5.44141ZM9.84869 6.0462V5.90555L9.68929 6.0087L9.54864 5.90086V6.04152L9.37048 5.91962V7.51366L9.54864 7.39176V7.53241L9.68929 7.42458L9.84869 7.53241V7.39176L10.0081 7.51366V6.85729H10.1863V6.57599H10.0034V5.93837L9.84869 6.0462Z" fill="#00843D"/>
<path d="M5.97161 5.67121L6.09351 5.79779L6.23416 5.67121V5.81186L6.41232 5.70871V7.7247L6.23416 7.62156V7.76221L6.09351 7.64031L5.97161 7.76221V7.62156L5.79346 7.72939V5.70871L5.97161 5.81186V5.67121ZM7.28435 5.44148L7.06869 5.24925V8.18885L7.27966 7.99194V8.24042L7.57972 8.0482L7.86102 8.22167V7.99194L8.09544 8.18885V5.24925L7.86102 5.44148V5.19299L7.57972 5.37115L7.27966 5.19299L7.28435 5.44148ZM9.19251 5.67589L9.05186 5.79779L8.92997 5.67121V5.81186L8.75181 5.70871V7.7247L8.92997 7.62156V7.76221L9.05186 7.64031L9.19251 7.76221V7.62156L9.37067 7.72939V5.70871L9.19251 5.81186V5.67589Z" fill="#FFC72C"/>
<path d="M5.38553 6.43493L5.45582 6.45367L5.52611 6.43493C5.55331 6.39668 5.57199 6.35305 5.58088 6.30697C5.58977 6.26089 5.58868 6.21344 5.57766 6.16782L5.50737 6.25686L5.45582 6.18656L5.40428 6.25686L5.33398 6.16782C5.33398 6.25686 5.33398 6.36463 5.38085 6.43493H5.38553ZM6.06033 6.25686L6.00409 6.20531V6.09284L5.88226 6.20062L6.09313 6.4115L6.304 6.20062L6.18216 6.09284V6.20062L6.14468 6.25217V6.0741L6.2384 5.98506L6.09781 5.88197L5.97129 5.98506L6.06033 6.07878V6.25686ZM6.69763 6.04598L6.6414 6.00849V5.9054L6.51956 6.01318L6.73044 6.22405L6.94131 6.01318L6.81947 5.9054V6.01318L6.78198 6.05067V5.8726L6.8757 5.80231L6.73512 5.67578L6.6086 5.80231L6.69763 5.8726V6.04598Z" fill="#383739"/>
<path d="M5.45592 6.21933L5.50747 6.2943L5.5637 6.21933C5.5637 6.31305 5.5637 6.37865 5.50747 6.3974C5.50089 6.40449 5.49292 6.41016 5.48405 6.41403C5.47518 6.4179 5.4656 6.4199 5.45592 6.4199C5.44625 6.4199 5.43667 6.4179 5.4278 6.41403C5.41893 6.41016 5.41096 6.40449 5.40438 6.3974C5.36689 6.3724 5.34814 6.31305 5.34814 6.21933L5.41844 6.2943L5.45592 6.21933ZM6.76803 5.86787V6.09749L6.83832 6.00845V5.93816L6.92735 6.00845L6.74928 6.18652L6.55247 6.00845L6.62276 5.93816V6.00845L6.71648 6.09749V5.86318L6.62276 5.79758L6.73054 5.70386L6.83832 5.79758L6.76803 5.86787Z" fill="white"/>
<path d="M6.13084 6.06004V6.29434L6.20113 6.20062V6.1397L6.29017 6.20999L6.1121 6.38338L5.91528 6.20999L5.98557 6.1397V6.20999L6.0793 6.29903V6.06472L5.98557 5.99443L6.09335 5.9054L6.20113 5.99912L6.13084 6.06004Z" fill="#D22630"/>
<path d="M9.7589 6.43505L9.68861 6.45379L9.61832 6.43505C9.56677 6.36476 9.56677 6.25698 9.56677 6.16794L9.65581 6.25698L9.68861 6.18669L9.74016 6.25698L9.83388 6.16794C9.83388 6.25698 9.83388 6.36476 9.7589 6.43505ZM9.10285 6.25698L9.14034 6.20543V6.09296L9.26218 6.20074L9.0513 6.41162L8.84043 6.20074L8.96227 6.09296V6.20074L9.0185 6.25229V6.07422L8.92478 5.98518L9.0513 5.88209L9.19189 5.98518L9.10285 6.07891V6.25698ZM8.4468 6.0461L8.50303 6.00861V5.90552L8.62487 6.0133L8.414 6.22417L8.20312 6.0133L8.32496 5.90552V6.0133L8.37651 6.05079V5.87272L8.29216 5.80243L8.414 5.6759L8.55458 5.80243L8.45149 5.87272L8.4468 6.0461Z" fill="#383739"/>
<path d="M9.68877 6.21945L9.65597 6.29443L9.58099 6.21945C9.58099 6.31629 9.59973 6.37565 9.63722 6.39752C9.64338 6.40823 9.65226 6.41712 9.66296 6.4233C9.67365 6.42949 9.68579 6.43274 9.69814 6.43274C9.71049 6.43274 9.72263 6.42949 9.73333 6.4233C9.74402 6.41712 9.7529 6.40823 9.75906 6.39752C9.79655 6.37253 9.81529 6.31317 9.81529 6.21945L9.74031 6.29443L9.68877 6.21945ZM8.39541 5.86799V6.09761L8.30638 6.00857V5.93828L8.23608 6.00857L8.41416 6.18665L8.59223 6.00857L8.52193 5.93828V6.00857L8.45164 6.09761V5.86331L8.52193 5.7977L8.41416 5.70398L8.30638 5.7977L8.39541 5.86799Z" fill="white"/>
<path d="M9.03286 6.06028V6.29458L8.94383 6.20086V6.13994L8.87354 6.21023L9.05161 6.38362L9.22968 6.21023L9.15939 6.13994V6.21023L9.0891 6.29927V6.06497L9.15939 5.99468L9.05161 5.90564L8.94383 5.99936L9.03286 6.06028Z" fill="#D22630"/>
<path d="M7.81373 6.11623L7.7575 6.02251L7.93557 5.86787L7.7575 5.74135V5.83507L7.70595 5.88193V5.70855L7.86528 5.60077L7.58411 5.38989L7.29826 5.60077L7.45759 5.72729V5.90068L7.3873 5.83038V5.74135L7.20923 5.86787L7.3873 6.04594L7.33575 6.13498L7.81373 6.11623Z" fill="#383739"/>
<path d="M7.34992 6.11627L7.42021 6.02255L7.24683 5.86791L7.36866 5.77419V5.83042L7.47644 5.92414V5.70858L7.31712 5.6008L7.57954 5.42273L7.8279 5.6008L7.68732 5.70858V5.91945L7.7951 5.83042V5.77887L7.91694 5.86791L7.73886 6.04598L7.7951 6.11627H7.34992Z" fill="#D22630"/>
<path d="M7.45776 5.60075L7.5796 5.68979L7.70613 5.60075L7.5796 5.51172L7.45776 5.60075Z" fill="#383739"/>
<path d="M7.57971 5.53052L7.67347 5.60084L7.57971 5.67117L7.47656 5.60084L7.57971 5.53052Z" fill="#00843D"/>
<path d="M5.38553 7.00267C5.39541 6.99502 5.40671 6.98942 5.41878 6.9862C5.43086 6.98298 5.44345 6.9822 5.45582 6.98392L5.52611 7.00267C5.55076 7.03857 5.56801 7.07902 5.57686 7.12166C5.58571 7.16431 5.58599 7.20828 5.57766 7.25103L5.50737 7.17605L5.45582 7.26977L5.40428 7.17605L5.33398 7.26977C5.33398 7.1948 5.33398 7.0917 5.38085 7.01673L5.38553 7.00267ZM6.06033 7.17605L6.00409 7.23229V7.33538L5.88226 7.21354L6.09313 7.01673L6.304 7.21354L6.18216 7.33538V7.23229L6.14468 7.17605V7.35412L6.2384 7.44784L6.09781 7.55094L5.97129 7.44316L6.06033 7.35412V7.17605ZM6.69763 7.37287L6.6414 7.42441V7.53219L6.51956 7.42441L6.73044 7.21354L6.94131 7.42441L6.81947 7.53219V7.42441L6.78198 7.37287V7.55094L6.8757 7.63997L6.73512 7.74307L6.6086 7.63997L6.69763 7.56968V7.37287Z" fill="#383739"/>
<path d="M5.45592 7.21346L5.50747 7.14317L5.5637 7.21346C5.5637 7.12442 5.5637 7.03539 5.50747 7.01664C5.50089 7.00955 5.49292 7.00388 5.48405 7.00001C5.47518 6.99614 5.4656 6.99414 5.45592 6.99414C5.44625 6.99414 5.43667 6.99614 5.4278 7.00001C5.41893 7.00388 5.41096 7.00955 5.40438 7.01664C5.36689 7.05726 5.34814 7.12286 5.34814 7.21346L5.41844 7.14317L5.45592 7.21346ZM6.76803 7.5696V7.3353L6.83832 7.42902V7.49462L6.92735 7.42433L6.74928 7.25095L6.55247 7.42433L6.62276 7.49462V7.42433L6.71648 7.3353V7.5696L6.62276 7.63989L6.73054 7.72893L6.83832 7.63521L6.76803 7.5696Z" fill="white"/>
<path d="M6.13084 7.35874V7.14318L6.20113 7.21347V7.28376L6.29017 7.21347L6.1121 7.0354L5.91528 7.21347L5.98557 7.28376V7.21816L6.0793 7.14787V7.35874L5.98557 7.42903L6.09335 7.52275L6.20113 7.42903L6.13084 7.35874Z" fill="#D22630"/>
<path d="M9.7589 7.00267C9.74903 6.99502 9.73772 6.98942 9.72565 6.9862C9.71358 6.98298 9.70099 6.9822 9.68861 6.98392L9.61832 7.00267C9.56677 7.07296 9.56677 7.17605 9.56677 7.25103L9.65581 7.15731L9.68861 7.25103L9.74016 7.15731L9.83388 7.25103C9.83388 7.17605 9.83388 7.07296 9.7589 7.00267ZM9.10285 7.17605L9.14034 7.23229V7.33538L9.26218 7.21354L9.0513 7.01673L8.84043 7.21354L8.96227 7.33538V7.23229L9.0185 7.17605V7.35412L8.92478 7.44784L9.0513 7.55094L9.19189 7.44316L9.10285 7.35412V7.17605ZM8.4468 7.35412L8.50303 7.41036V7.51345L8.62487 7.41036L8.414 7.1948L8.20312 7.41036L8.32496 7.51345V7.41036L8.37651 7.35412V7.53219L8.29216 7.62123L8.414 7.72901L8.55458 7.62123L8.45149 7.55094L8.4468 7.35412Z" fill="#383739"/>
<path d="M9.68877 7.21348L9.65597 7.14319L9.58099 7.21348C9.58099 7.12445 9.59973 7.03541 9.63722 7.01667C9.64338 7.00596 9.65226 6.99707 9.66296 6.99089C9.67365 6.9847 9.68579 6.98145 9.69814 6.98145C9.71049 6.98145 9.72263 6.9847 9.73333 6.99089C9.74402 6.99707 9.7529 7.00596 9.75906 7.01667C9.79655 7.05728 9.81529 7.12289 9.81529 7.21348L9.74031 7.14319L9.68877 7.21348ZM8.39541 7.56963V7.33532L8.30638 7.42904V7.49465L8.23608 7.42436L8.41416 7.25097L8.59223 7.42436L8.52193 7.49465V7.42436L8.45164 7.33532V7.56963L8.52193 7.63992L8.41416 7.72895L8.30638 7.63523L8.39541 7.56963Z" fill="white"/>
<path d="M9.03281 7.35881V7.14325L8.94378 7.21355V7.28384L8.87817 7.21823L9.05624 7.04016L9.23432 7.21823L9.16402 7.28852V7.21823L9.09373 7.14794V7.35881L9.16402 7.41505L9.05624 7.51814L8.94846 7.41505L9.03281 7.35881Z" fill="#D22630"/>
<path d="M7.81373 7.30266L7.7575 7.3917L7.93557 7.56977L7.7575 7.6916V7.60257L7.70595 7.53228V7.71035L7.86528 7.83219L7.58411 8.029L7.29826 7.83219L7.45759 7.71035V7.53228L7.3873 7.60257V7.6916L7.20923 7.56977L7.3873 7.3917L7.33575 7.29797L7.81373 7.30266Z" fill="#383739"/>
<path d="M7.34992 7.32141L7.42021 7.41045L7.24683 7.56977L7.36866 7.65412V7.58383L7.47644 7.4948V7.7291L7.31712 7.83219L7.57954 8.01026L7.8279 7.83219L7.68732 7.7291V7.4948L7.7951 7.58852V7.65412L7.91694 7.56977L7.73886 7.3917L7.7951 7.32141H7.34992Z" fill="#D22630"/>
<path d="M7.45776 7.83246L7.5796 7.72937L7.70613 7.83246L7.5796 7.92619L7.45776 7.83246Z" fill="#383739"/>
<path d="M7.57971 7.88879L7.67347 7.83253L7.57971 7.76221L7.47656 7.83253L7.57971 7.88879Z" fill="#00843D"/>
<path d="M9.84878 6.60885H9.58154V6.50571H8.73764L8.11409 6.11658H7.04983L6.44972 6.50571H5.57769V6.61354H5.29639V6.82452H5.57769V6.94642H6.44972L7.04983 7.33555H8.11409L8.7142 6.94642H9.56748V6.82452H9.84878V6.60885Z" fill="#383739"/>
<path d="M7.04992 6.11658L6.44981 6.52446H5.59653V6.62761H5.33398V6.80576H5.61529V6.9136H6.46388L7.06867 7.30273H8.12824L8.7096 6.9136H9.56288V6.78701H9.84418V6.64636H9.56288V6.53853H8.69553L8.10949 6.1494L7.04992 6.11658ZM7.04992 6.1869H8.09542L8.62521 6.53853V6.59479H9.25345V6.82452H8.64396V6.89484L8.09542 7.25116H7.06399L6.52014 6.89484V6.82452H5.89659V6.5901H6.52014V6.54322L7.04992 6.1869Z" fill="#D22630"/>
<path d="M8.09537 6.20569L8.62515 6.55731V6.61358H9.22995V6.82455H8.62515V6.89488L8.09537 7.25119H7.06393L6.53883 6.89488V6.82455H5.91528V6.64639H6.53883V6.57607L7.06862 6.21975L8.09537 6.20569Z" fill="#D22630"/>
<path d="M6.80072 6.9133L7.03503 7.09137L7.17561 6.98359L7.08189 6.9133L7.03503 6.9461L6.9788 6.9133L7.86446 6.25725H7.68639L6.80072 6.9133ZM7.28339 7.17104H7.46146L8.34713 6.51498L8.11283 6.3416L7.93944 6.44938L8.04722 6.51967L8.11751 6.46344L8.16906 6.51967L7.28339 7.17104ZM7.65828 7.17104H7.83166L6.94599 6.51498L7.02097 6.46812L7.06783 6.51498L7.16155 6.44938L7.02097 6.3416L6.78667 6.51967L7.65828 7.17104ZM8.17375 6.90861L8.11751 6.94142L8.04722 6.90861L7.9535 6.97891L8.11751 7.08669L8.34713 6.90861L7.46146 6.25256H7.28339L8.17375 6.90861ZM6.61328 6.7118L6.77261 6.81958L6.93193 6.7118L6.75386 6.60871L6.61328 6.7118Z" fill="#383739"/>
<path d="M7.42432 6.71662L7.57896 6.8244L7.73828 6.71662L7.5649 6.61353L7.42432 6.71662ZM8.5396 6.71662L8.36153 6.8244L8.22095 6.71662L8.37559 6.61353L8.5396 6.71662Z" fill="#383739"/>
<path d="M8.32381 6.91323L8.13168 7.07256L8.00516 6.97884L8.0567 6.93198L8.13168 6.97884L8.20197 6.91323L7.34911 6.27593H7.47563L8.32381 6.91323ZM7.79428 7.1616H7.66776L6.81958 6.52429L7.03045 6.36496L7.15698 6.454L7.08669 6.50086L7.03045 6.454L6.94142 6.52429L7.79428 7.1616ZM7.47563 7.1616H7.34911L8.20197 6.52429L8.13168 6.454L8.0567 6.50086L8.00984 6.454L8.13168 6.36028L8.32381 6.52429L7.47563 7.1616ZM7.66776 6.27124H7.79428L6.94142 6.91323L7.03514 6.98352L7.082 6.93198L7.15698 6.97884L7.03045 7.07256L6.81958 6.91323L7.66776 6.27124Z" fill="#FFC72C"/>
<path d="M6.78199 6.64636L6.90852 6.71665L6.78199 6.81038L6.66016 6.71665L6.78199 6.64636ZM7.57863 6.64636L7.70515 6.71665L7.57863 6.81038L7.45679 6.71665L7.57863 6.64636ZM8.37526 6.64636L8.25342 6.71665L8.37526 6.81038L8.50179 6.71665L8.37526 6.64636Z" fill="#00843D"/>
<path d="M4.83702 11.0581L4.78076 11.1472L4.88859 11.2363L4.78076 11.3066L4.83702 11.3957L4.95892 11.4144L5.0855 11.3207L5.40431 11.4988V11.3582L5.2074 11.2363L5.38556 11.1097V10.9362L5.0855 11.1472L4.95892 11.0394L4.83702 11.0581ZM4.83702 10.4908L4.78076 10.5799L4.88859 10.669L4.78076 10.7581L4.83702 10.8284L4.95892 10.8471L5.0855 10.7534L5.40431 10.9362V10.7956L5.2074 10.669L5.38556 10.5424V10.3689L5.0855 10.5799L4.95892 10.4721L4.83702 10.4908ZM4.83702 11.963L4.78076 11.8692L4.88859 11.7848L4.78076 11.7145L4.83702 11.6207L4.95892 11.6067L5.0855 11.6957L5.40431 11.5176V11.6582L5.2074 11.7848L5.38556 11.9067V12.0849L5.0855 11.8739L4.95892 11.977L4.83702 11.963ZM10.3271 11.0581L10.3787 11.1472L10.2755 11.2363L10.3787 11.3066L10.3083 11.3957L10.1864 11.4144L10.0598 11.3207L9.75979 11.4988V11.3582L9.93795 11.2363L9.75979 11.1097V10.9362L10.0598 11.1472L10.1864 11.0394L10.3271 11.0581ZM10.3083 10.4908L10.3787 10.5799L10.2755 10.669L10.3787 10.7581L10.3083 10.8284L10.1864 10.8471L10.0598 10.7534L9.75979 10.9362V10.7956L9.93795 10.669L9.75979 10.5424V10.3689L10.0598 10.5799L10.1864 10.4721L10.3083 10.4908ZM10.3083 11.963L10.3787 11.8692L10.2755 11.7848L10.3787 11.7145L10.3083 11.6207L10.1864 11.6067L10.0598 11.6957L9.75979 11.5176V11.6582L9.93795 11.7848L9.75979 11.9067V12.0849L10.0598 11.8739L10.1864 11.977L10.3083 11.963ZM9.07061 9.51565V9.75007H9.24876V9.85321H9.42223V9.67505H9.28158V9.51565H9.07061ZM9.60039 9.89072V10.1204H9.75979V10.2236H9.93795V10.0501H9.75979V9.89072H9.60039ZM6.06068 9.5344V9.74538H5.87784V9.85321H5.71843V9.67505H5.87784V9.51565L6.06068 9.5344ZM9.07061 12.9335V12.7037H9.24876V12.6006H9.42223V12.7741H9.28158V12.9335H9.07061ZM6.06068 12.9335V12.7037H5.87784V12.6006H5.71843V12.7741H5.87784V12.9335H6.06068ZM9.60039 12.5818V12.3146H9.75979V12.2115H9.93795V12.3849H9.75979V12.5631L9.60039 12.5818ZM5.54965 9.87197V10.1017H5.36212V10.2095H5.20271V10.0314H5.36212V9.87197H5.54965ZM5.54965 12.5443V12.3146H5.36212V12.2115H5.20271V12.3849H5.36212V12.5631L5.54965 12.5443ZM8.20795 9.4969L8.0673 9.375L7.94071 9.48283L8.04854 9.60473L7.90789 9.73132H8.11887L8.18919 9.6563L8.27827 9.73132H8.48925L8.3486 9.60473L8.45643 9.48283L8.32985 9.375L8.18919 9.4969H8.20795ZM7.57033 9.4969L7.42968 9.375L7.3031 9.48283L7.41093 9.60473L7.27028 9.73132H7.48125L7.57033 9.6563L7.64066 9.73132H7.85163L7.71098 9.60473L7.81881 9.48283L7.69223 9.375L7.57033 9.4969ZM6.93272 9.4969L7.05461 9.375L7.19526 9.48283L7.07337 9.60473L7.23277 9.73132H6.99835L6.93272 9.6563L6.86239 9.73132H6.64673L6.78738 9.60473L6.68423 9.48283L6.80613 9.375L6.93272 9.4969ZM8.18919 12.9194L8.06261 13.0413L7.94071 12.9335L8.04854 12.8303L7.90789 12.6897H8.11887L8.18919 12.76L8.27827 12.6897H8.48925L8.3486 12.8303L8.45643 12.9335L8.32985 13.0413L8.18919 12.9194ZM7.57033 12.9194L7.42968 13.0413L7.3031 12.9335L7.41093 12.8303L7.27028 12.6897H7.48125L7.57033 12.76L7.64066 12.6897H7.85163L7.71098 12.8303L7.81881 12.9335L7.69223 13.0413L7.57033 12.9194ZM6.93272 12.9194L7.05461 13.0413L7.19526 12.9335L7.07337 12.8303L7.23277 12.6897H6.99835L6.93272 12.76L6.86239 12.6897H6.64673L6.78738 12.8303L6.68423 12.9335L6.80613 13.0413L6.93272 12.9194Z" fill="#383739"/>
<path d="M5.38541 11.3581V11.4847L5.08536 11.3066L4.95877 11.3956H4.85563L4.79937 11.3253L4.9072 11.2316L4.79937 11.1472L4.85563 11.0768H4.95877L5.08536 11.1659L5.38541 10.9878V11.0956L5.15099 11.255L5.38541 11.3581ZM5.38541 10.7955V10.9174L5.08067 10.7346L4.95408 10.8237H4.85094L4.79468 10.7533L4.90251 10.6596L4.79468 10.5752L4.85094 10.5049H4.95408L5.08067 10.5939L5.38072 10.4158V10.5236L5.16975 10.6643L5.38541 10.7955ZM5.38541 11.6582V11.5363L5.08536 11.7145L4.95877 11.6207H4.85563L4.79937 11.6957L4.9072 11.7848L4.79937 11.8739L4.85563 11.9442H4.95877L5.08536 11.8551L5.38541 12.0333V11.9254L5.15099 11.7848L5.38541 11.6582ZM9.75964 11.3581V11.4847L10.0409 11.3066L10.1675 11.3956H10.2941L10.3269 11.3253L10.2191 11.2316L10.3269 11.1472L10.2941 11.0768H10.1675L10.0456 11.1659L9.76433 10.9878V11.0956L9.97531 11.2362L9.75964 11.3581ZM9.75964 10.7955V10.9174L10.0409 10.7393L10.1675 10.8284H10.2941L10.3269 10.758L10.2191 10.6643L10.3269 10.5799L10.2941 10.5095H10.1675L10.0503 10.5939L9.76902 10.4158V10.5236L9.98 10.6643L9.75964 10.7955ZM9.75964 11.6582V11.5363L10.0409 11.7145L10.1675 11.6207H10.2941L10.3269 11.6957L10.2191 11.7848L10.3269 11.8739L10.2941 11.9442H10.1675L10.0456 11.8551L9.76433 12.0333V11.9254L9.97531 11.7848L9.75964 11.6582ZM9.22986 9.53437V9.69378H9.38926V9.83443H9.24861V9.73128H9.06577V9.55313L9.22986 9.53437ZM9.74558 9.90944V10.0501H9.88623V10.2236H9.75964V10.1017H9.58149V9.90475L9.74558 9.90944ZM5.88238 9.55313V9.69378H5.72297V9.83443H5.86362V9.73128H6.04178V9.55313H5.88238ZM9.24861 12.9194V12.7787H9.38926V12.6006H9.24861V12.7225H9.06577V12.9194H9.24861ZM5.88238 12.9194V12.7787H5.72297V12.6006H5.86362V12.7225H6.04178V12.9194H5.88238ZM9.74089 12.563V12.3849H9.88154V12.2442H9.75964V12.3521H9.58149V12.5443L9.74089 12.563ZM5.38072 9.90475V10.0454H5.22601V10.2236H5.36666V10.1017H5.54481V9.90475H5.38072ZM5.38072 12.563V12.3849H5.22601V12.2442H5.36666V12.3521H5.54481V12.5443L5.38072 12.563ZM8.04371 9.41248L8.18436 9.53437L8.32501 9.41248L8.41877 9.49687L8.30625 9.62345L8.43284 9.73128H8.26875L8.17498 9.65627L8.10934 9.73128H7.93119L8.05308 9.62345L7.94994 9.49687L8.04371 9.41248ZM7.42016 9.41248L7.56081 9.53437L7.68739 9.41248L7.79522 9.49687L7.68739 9.62345L7.81398 9.73128H7.63582L7.56549 9.65627L7.47173 9.73128H7.29826L7.43891 9.62345L7.33577 9.49687L7.42016 9.41248ZM7.06853 9.41248L6.92788 9.53437L6.80129 9.41248L6.69815 9.49687L6.80129 9.62345L6.6794 9.73128H6.85755L6.92788 9.65627L7.01696 9.73128H7.19043L7.04978 9.62345L7.15761 9.49687L7.06853 9.41248ZM8.05777 13.0413L8.18436 12.9194L8.32501 13.0413L8.41877 12.9522L8.30625 12.849L8.43284 12.7225H8.26875L8.17498 12.7928L8.10934 12.7225H7.93119L8.05308 12.849L7.94994 12.9522L8.05777 13.0413ZM7.42016 13.0413L7.56081 12.9194L7.68739 13.0413L7.79522 12.9522L7.68739 12.849L7.81398 12.7225H7.63582L7.56549 12.7975L7.47173 12.7271H7.29826L7.43891 12.8537L7.33577 12.9569L7.42016 13.0413ZM7.06853 13.0413L6.92788 12.9194L6.80129 13.0413L6.69815 12.9522L6.80129 12.849L6.6794 12.7225H6.85755L6.92788 12.7928L7.01696 12.7225H7.19043L7.04978 12.849L7.15761 12.9522L7.06853 13.0413Z" fill="#00843D"/>
<path d="M5.86371 12.3521V12.7037H9.26277V12.3521H9.77848V10.1017H9.26277V9.74536H5.88246V10.1017H5.3855V12.3521H5.86371Z" fill="#383739"/>
<path d="M5.89652 9.75V10.1204H5.40894V12.3286H5.90121V12.6849H9.26745V12.3286H9.76442V10.1157H9.26745V9.75938H5.90121L5.89652 9.75ZM6.11219 9.89065H9.05179V10.2423L9.17837 10.3501H9.63783V12.1223H9.17837L9.05179 12.2114V12.563H6.11219V12.2114L5.9856 12.1176H5.54959V10.3501H5.99029L6.11688 10.2563V9.90472L6.11219 9.89065Z" fill="#FFC72C"/>
<path d="M6.13101 9.90479V10.2423L6.57172 9.90479H6.13101ZM8.57364 9.90479L9.01904 10.2423V9.90479H8.57364ZM5.56372 10.3689V10.669L5.97161 10.3689H5.56372ZM9.17375 10.3689L9.60039 10.669V10.3689H9.17375ZM9.60039 11.7848L9.17844 12.1036H9.60039V11.7848ZM5.56372 11.7848V12.1036H5.97161L5.56372 11.7848ZM6.12632 12.2068V12.5443H6.57172L6.12632 12.2068ZM9.01904 12.2068L8.57364 12.5443H9.01904V12.2068Z" fill="#D22630"/>
<path d="M8.5547 9.90479L9.6002 10.6877V11.7848L8.54063 12.5631H6.59028L5.55884 11.7848V10.7206L6.60903 9.92354L8.5547 9.90479Z" fill="#00843D"/>
<path d="M5.81213 11.8927L5.68555 11.752L5.79338 11.6254L5.68555 11.4848L5.79338 11.3582L5.68555 11.2363L5.79338 11.0956L5.68555 10.9691L5.79338 10.8284L5.68555 10.7018L5.81213 10.5612H9.34715L9.47374 10.7018L9.34715 10.8284L9.47374 10.9691L9.34715 11.0956L9.47374 11.2363L9.34715 11.3582L9.47374 11.4848L9.34715 11.6254L9.47374 11.7473L9.34715 11.888L5.81213 11.8927ZM8.23601 10.083L8.09536 9.96106L7.97346 10.083L7.84688 9.96106L7.70623 10.083L7.57964 9.96106L7.43899 10.083L7.31709 9.96106L7.19051 10.083L7.04986 9.96106L6.90921 10.083V12.3849L7.04986 12.4928L7.19051 12.3849L7.31709 12.4928L7.43899 12.3849L7.57964 12.4928L7.70623 12.3849L7.84688 12.4928L7.97346 12.3849L8.09536 12.4928L8.23601 12.3709V10.083Z" fill="#383739"/>
<path d="M7.95512 10.0829L7.84729 9.9751L7.72539 10.0829V12.3755L7.84729 12.4787L7.95512 12.3755V10.0829ZM7.42065 10.0829L7.3175 9.9751L7.19092 10.0829V12.3755L7.3175 12.4787L7.4394 12.3755L7.42065 10.0829Z" fill="#FFC72C"/>
<path d="M5.81272 11.8738L5.70488 11.7472L5.81272 11.6253H9.34773L9.4415 11.7472L9.33367 11.8738H5.81272ZM9.34773 11.1096L9.4415 11.2362L9.33367 11.3393H5.80803L5.7002 11.2362L5.80803 11.1096H9.34773ZM9.34773 10.8283L9.4415 10.7017L9.33367 10.5798H5.80803L5.7002 10.7017L5.80803 10.8283H9.34773Z" fill="#FFC72C"/>
<path d="M8.22221 10.0829L8.09562 9.9751L7.97373 10.0829V12.3755L8.09562 12.4787L8.21752 12.3755L8.22221 10.0829ZM7.17671 10.0829L7.05012 9.9751L6.92822 10.0829V12.3755L7.05012 12.4787L7.17671 12.3755V10.0829Z" fill="#D22630"/>
<path d="M5.81242 11.6066L5.70459 11.4847L5.81242 11.3581H9.34744L9.44121 11.4847L9.33337 11.6066H5.81242ZM5.81242 11.0768L5.70459 10.9689L5.81242 10.847H9.34744L9.44121 10.9689L9.33337 11.0955L5.81242 11.0768Z" fill="#D22630"/>
<path d="M7.70649 12.3708L7.57991 12.4739L7.45801 12.3708V10.0782L7.57991 9.97034L7.70649 10.0782V12.3708Z" fill="#D22630"/>
<path d="M8.77051 10.1345H6.37945V10.3127H6.07471V12.1411H6.39352V12.3146H8.78458V12.1411H9.08932V10.3361H8.78458V10.1392L8.77051 10.1345Z" fill="#383739"/>
<path d="M6.39332 10.1533V10.3314H6.09326V12.1036H6.39332V12.3146H6.6418L6.14483 11.9067V10.5471L6.6418 10.1345H6.39332V10.1533ZM8.52183 10.1533L9.00004 10.5612V11.8927L8.52183 12.2959H8.77031V12.1224H9.05161V10.3502H8.75156V10.1533H8.52183Z" fill="#D22630"/>
<path d="M6.6746 10.1532L6.16357 10.5752V11.8738L6.67929 12.2958H8.46556L9.00003 11.8738V10.5798L8.46556 10.1579L6.6746 10.1532ZM6.69805 10.2235H8.45149L8.91095 10.6127V11.8598L8.45149 12.2348H6.69805L6.2339 11.841V10.6033L6.69805 10.2235Z" fill="#00843D"/>
<path d="M7.17605 11.8551L7.24637 11.8926V11.977L7.15261 12.0708L7.29794 12.2114H7.15729L7.06353 12.1177L6.96038 12.2114H6.83849L6.97914 12.0708L6.8713 11.977L6.89006 11.8926L6.96038 11.8551L7.06821 11.9442L7.17605 11.8551ZM7.66832 11.8551L7.76209 11.8926V11.977L7.66832 12.0708L7.80897 12.2114H7.66832L7.57925 12.1177L7.4761 12.2114H7.33545L7.4761 12.0708L7.38233 11.977V11.8926L7.4761 11.8551L7.57925 11.9442L7.66832 11.8551ZM7.98713 11.8551L7.91681 11.8926L7.89805 11.977L7.99182 12.0708L7.85117 12.2114H7.99182L8.09496 12.1177L8.18404 12.2114H8.32469L8.18404 12.0708L8.27312 11.977V11.8926L8.17935 11.8551L8.09496 11.9442L7.98713 11.8551ZM7.17605 10.5986L7.24637 10.5611V10.472L7.15261 10.383L7.29794 10.2423H7.15729L7.06353 10.3314L6.96038 10.2423H6.83849L6.97914 10.383L6.8713 10.4767L6.89006 10.5611L6.96038 10.5986L7.06821 10.5049L7.17605 10.5986ZM7.66832 10.5986L7.76209 10.5611V10.472L7.66832 10.383L7.80897 10.2423H7.66832L7.57925 10.3314L7.4761 10.2423H7.33545L7.4761 10.383L7.38233 10.4767V10.5611L7.4761 10.5986L7.57925 10.5049L7.66832 10.5986ZM7.98713 10.5986L7.91681 10.5611L7.89805 10.472L7.99182 10.383L7.85117 10.2423H7.99182L8.09496 10.3314L8.18404 10.2423H8.32469L8.18404 10.383L8.27312 10.4767V10.5611L8.17935 10.5986L8.09496 10.5049L7.98713 10.5986ZM8.89198 10.7393L8.82166 10.8096L8.89198 10.8612V10.969L8.77009 10.8799L8.67632 10.9503H8.59662L8.55911 10.8799L8.65288 10.8096L8.55911 10.7205L8.59662 10.6689H8.6857L8.77478 10.7205L8.89667 10.6314L8.89198 10.7393ZM8.89198 11.1612L8.82166 11.2362L8.89198 11.2878V11.3956L8.77009 11.3019L8.67632 11.3769H8.59662L8.55911 11.3066L8.65288 11.2362L8.55911 11.1425L8.59662 11.0956H8.6857L8.77478 11.1425L8.89667 11.0581L8.89198 11.1612ZM8.89198 11.7145L8.82166 11.6582L8.89198 11.5879V11.4847L8.77009 11.5738L8.67632 11.4988H8.59662L8.55911 11.5738L8.65288 11.6582L8.55911 11.7332L8.59662 11.7801L8.6857 11.8035L8.77478 11.7332L8.89667 11.8176L8.89198 11.7145ZM6.25244 10.7346L6.34152 10.8049L6.25244 10.8565V10.9643L6.37903 10.8752L6.46342 10.9456H6.55718L6.59 10.8752L6.51968 10.8049L6.59 10.7158L6.5525 10.6643H6.46342L6.37903 10.7158L6.25244 10.6268V10.7346ZM6.25244 11.1565L6.34152 11.2316L6.25244 11.2831V11.391L6.37903 11.2972L6.46342 11.3722H6.55718L6.59 11.3019L6.51968 11.2316L6.59 11.1378L6.5525 11.0909H6.46342L6.37903 11.1378L6.25244 11.0534V11.1565ZM6.25244 11.7098L6.34152 11.6535L6.25244 11.5832V11.4847L6.37903 11.5738L6.46342 11.4988H6.55718L6.59 11.5738L6.51968 11.6582L6.59 11.7332L6.5525 11.7801L6.46342 11.8035L6.37903 11.7332L6.25244 11.8176V11.7098Z" fill="#00843D"/>
<path d="M6.71214 10.2423L6.27144 10.5986L6.37927 10.7018L6.46366 10.6314H6.57149L6.609 10.7252L6.53868 10.8096L6.609 10.8799L6.57149 10.9503L6.46366 10.969L6.37927 10.8987L6.25269 11.0065V11.0393L6.37927 11.1331L6.46366 11.0581H6.57149L6.609 11.1472L6.53868 11.2362L6.609 11.3066L6.57149 11.3769L6.46366 11.3956L6.37927 11.3253L6.25269 11.4285V11.466L6.37927 11.555L6.46366 11.4847H6.57149L6.609 11.5738L6.53868 11.6582L6.609 11.7332L6.57149 11.8035L6.46366 11.8176L6.37927 11.7473L6.27144 11.841L6.71214 12.2114H6.80591L6.94656 12.0708L6.85279 11.9958L6.87155 11.8926L6.96532 11.8363L7.06846 11.9301L7.15754 11.8363L7.26068 11.8926V11.9958L7.19036 12.0661L7.31694 12.2067L7.45759 12.0661L7.36851 11.9958V11.8926L7.47635 11.8363L7.57949 11.9301L7.67326 11.8363L7.7764 11.8926V11.9958L7.68732 12.0661L7.82797 12.2067L7.96862 12.0661L7.88423 11.9958V11.8926L7.98738 11.8363L8.09521 11.9301L8.18429 11.8363L8.27337 11.8926L8.29212 11.9958L8.19835 12.0661L8.339 12.2067H8.45152L8.89223 11.8551L8.77033 11.7473L8.70001 11.8176H8.59217L8.5406 11.7332L8.61093 11.6582L8.5406 11.5738L8.58749 11.4988L8.70001 11.4847L8.77033 11.555L8.89223 11.4613V11.4285L8.77033 11.3253L8.70001 11.3956H8.59217L8.5406 11.3019L8.61093 11.2362L8.5406 11.1425L8.58749 11.0768H8.70001L8.77033 11.1284L8.89223 11.0393V11.0065L8.77033 10.8987L8.70001 10.969H8.59217L8.5406 10.8799L8.61093 10.8096L8.5406 10.7205L8.58749 10.6502H8.70001L8.77033 10.7018L8.89223 10.6127L8.45152 10.2423H8.34369L8.20304 10.383L8.29212 10.4533V10.5611L8.18429 10.6127L8.09521 10.5424L7.98738 10.6127L7.8983 10.5658L7.88423 10.4533L7.97331 10.383L7.83266 10.2423L7.69201 10.383L7.79515 10.4533L7.7764 10.5611L7.66857 10.6127L7.57949 10.5424L7.47635 10.6127L7.38258 10.5658L7.36851 10.4533L7.45759 10.383L7.31694 10.2423L7.19036 10.383L7.28412 10.4533L7.26068 10.5611L7.15754 10.6127L7.06377 10.5424L6.96063 10.6127L6.87155 10.5658V10.4533L6.94187 10.383L6.80122 10.2423H6.71214ZM6.25269 11.18V11.2737L6.30426 11.2362L6.25269 11.18Z" fill="#D22630"/>
<path d="M7.06846 12.1411L6.99813 12.2114H7.13878L7.06846 12.1411ZM7.58418 12.1411L7.50916 12.2114H7.64981L7.58418 12.1411ZM8.09521 12.1411L8.00613 12.2114H8.16553L8.09521 12.1411ZM6.99813 10.2423L7.06846 10.3126L7.13878 10.2423H6.99813ZM7.4951 10.2423L7.57949 10.3126L7.6545 10.2423H7.4951ZM8.02488 10.2423L8.09521 10.3126L8.16553 10.2423H8.02488ZM8.89223 10.7721L8.84066 10.8096L8.89223 10.8471V10.7721ZM8.89223 11.18L8.84066 11.2362L8.89223 11.2691V11.18ZM8.89223 11.6066L8.84066 11.6582L8.89223 11.6957V11.6066ZM6.25269 10.758V10.8471L6.30426 10.8096L6.25269 10.758ZM6.25269 11.18V11.2737L6.30426 11.2362L6.25269 11.18ZM6.25269 11.6066V11.6957L6.30426 11.6582L6.25269 11.6066Z" fill="white"/>
<path d="M8.00602 11.0767V10.9361H7.86544V10.7581H7.27968V10.9361H7.12035V11.0955H6.92822V11.3766H7.1391V11.5172H7.29842V11.6953H7.86075V11.5172H8.00602V11.3766H8.21689V11.0767H8.00602Z" fill="#383739"/>
<path d="M7.56553 10.7908V10.9689L7.33123 11.0954V11.2173H6.92822V11.1095H7.1391V10.9502H7.29842V10.7721L7.56553 10.7908ZM7.57959 11.6812V11.4984L7.82795 11.3579V11.2548H8.20284V11.3766H7.98728V11.5172H7.84669V11.6953L7.57959 11.6812Z" fill="#FFC72C"/>
<path d="M7.81375 11.2173V11.0954L7.57945 10.9549V10.7721H7.84655V10.9502H7.98713V11.1095H8.20269V11.2173H7.81375ZM6.94214 11.236H7.33577V11.3579L7.56539 11.4984V11.6765H7.31702V11.4984H7.1577V11.3579H6.94214V11.236Z" fill="white"/>
<path d="M7.3313 11.2503V11.358L7.5656 11.4846V11.2362L7.3313 11.2503Z" fill="#D22630"/>
<path d="M7.5656 10.969L7.3313 11.1096V11.2174H7.5656V10.969Z" fill="#00843D"/>
<path d="M7.81414 11.2174V11.1096L7.57983 10.969V11.2174H7.81414Z" fill="#D22630"/>
<path d="M7.57983 11.4846L7.81414 11.358V11.2362H7.57983V11.4846Z" fill="#00843D"/>
<path d="M5.50744 14.2508V14.7056H5.08548V15.151H4.62134V16.3559H5.08548V16.7778H5.50744V17.2561H7.12023L7.42028 17.4342L7.27963 17.5045H6.69828L6.64202 17.453H7.17649L7.03584 17.3123H6.27164L6.62326 17.6639H7.33589L7.56562 17.5045L7.79535 17.6639H8.49861L8.85961 17.3123H8.09541L7.95476 17.453H8.48454L8.41422 17.5045H7.85161L7.70627 17.4389L7.98758 17.2608H9.61912V16.745H10.0598V16.3231H10.5052V15.151H10.0598V14.729H9.61912V14.2696H7.98758L7.70627 14.0914L7.84693 14.0023H8.41422L8.46579 14.0586H7.94069L8.1001 14.218H8.84554L8.50798 13.8617H7.80004L7.56562 14.0023L7.32183 13.8617H6.61389L6.27633 14.218H7.03584L7.17649 14.0586H6.64671L6.70297 14.0023H7.28432L7.42497 14.0961L7.12492 14.2696L5.50744 14.2508Z" fill="#D22630"/>
<path d="M7.98758 17.2233H9.61912V16.7451H10.0598V16.3231H10.5052V15.151H10.0598V14.7291H9.61912V14.2603H7.98758L7.31714 13.8571H6.6092L6.30446 14.1759H7.01709L7.13898 14.054H6.6092L6.69828 13.9602H7.27963L8.04384 14.4243H9.42221V14.9026H9.86761V15.3245H10.3271V16.159H9.86761V16.5669H9.42221V17.0264H8.04384L7.27963 17.5046H6.69828L6.60451 17.4155H7.14367L7.02177 17.3124H6.29977L6.61858 17.6312H7.31245L7.98758 17.2233ZM7.10148 17.0451H5.69028V16.5857H5.24958V16.1637H4.7995V15.3292H5.24489V14.9026H5.68559V14.4243H7.10148L7.86568 13.9649H8.46579L8.5408 14.054H8.00633L8.13291 14.1759H8.83617L8.52205 13.8571H7.81411L7.17649 14.2649H5.5637V14.7244H5.1183V15.1464H4.62134V16.3184H5.08548V16.7404H5.52619V17.2233H7.12023L7.81411 17.6312H8.51736L8.8221 17.3124H8.11416L8.00633 17.4155H8.5408L8.44703 17.5093H7.84693L7.10148 17.0451Z" fill="#FFC72C"/>
<path d="M9.31911 16.445V16.9233H8.02512L7.57973 17.1858L7.13902 16.9233H5.84504V16.445H5.40902V16.0325H4.94019V15.4699H5.40433V15.0479H5.84504V14.5791H7.14371L7.58442 14.3165L8.02981 14.5838H9.3238V15.0432H9.7645V15.4652H10.2099V16.0372H9.7645V16.4591L9.31911 16.445Z" fill="#00843D"/>
<path d="M6.00464 16.2856V16.7451H6.71258L6.00933 16.2669L6.00464 16.2856ZM6.00464 15.1839V14.7432H6.71258L6.00933 15.2026L6.00464 15.1839ZM9.14115 16.2856V16.7451H8.43321L9.14115 16.2669V16.2856ZM9.14115 15.1839V14.7432H8.43321L9.14115 15.2026V15.1839Z" fill="#383739"/>
<path d="M6.04224 16.2997L6.6611 16.7264H6.04224V16.2997ZM6.04224 15.1839L6.6611 14.762H6.04224V15.1839ZM9.12248 16.2997L8.48487 16.7264H9.12248V16.2997ZM9.12248 15.1839L8.48487 14.762H9.12248V15.1839Z" fill="#D22630"/>
<path d="M6.92711 15.6102V15.3759H6.83339L6.44913 15.151L6.09299 15.3806H6.00395V15.6149H5.83057V15.8586H6.00864V16.0929H6.07893L6.45381 16.3366L6.84276 16.0882H6.91305V15.8586H7.19422V15.6102H6.92711Z" fill="#383739"/>
<path d="M6.46327 15.151L6.81941 15.3806H6.11182L6.46327 15.151ZM6.81941 16.0882L6.46327 16.3225L6.11182 16.0882H6.81941ZM6.71163 15.629V15.8586H6.28989V15.6477L6.71163 15.629Z" fill="#D22630"/>
<path d="M6.88967 15.8586V16.0695H6.46793V15.8586H6.88967ZM6.44918 15.8586V16.0695H6.01806V15.8586H6.44918ZM7.15209 15.6243V15.8586H6.74909V15.6478L7.15209 15.6243ZM6.27111 15.6243V15.8586H5.84937V15.6478L6.27111 15.6243ZM6.88967 15.3994V15.6103H6.46793V15.3994H6.88967ZM6.44918 15.3994V15.6103H6.01806V15.3994H6.44918Z" fill="#FFC72C"/>
<path d="M6.14458 15.6805V15.8071H5.97119V15.6805H6.14458ZM6.32265 15.4509V15.5728H6.14458V15.4509H6.32265ZM6.78188 15.4509V15.5728H6.57101V15.4509H6.78188ZM6.6085 15.6852V15.8071H6.39294V15.6805L6.6085 15.6852ZM7.04899 15.6852V15.8071H6.86155V15.6805L7.04899 15.6852ZM6.78188 15.9102V16.0367H6.57101V15.9102H6.78188ZM6.32265 15.9102V16.0367H6.14458V15.9102H6.32265Z" fill="#383739"/>
<path d="M6.13052 15.6806H5.97119V15.7884H6.14458L6.13052 15.6806ZM6.3039 15.4697H6.14458V15.5588H6.32265L6.3039 15.4697ZM6.76782 15.4697H6.58975V15.5588H6.76782V15.4697ZM6.57101 15.6806H6.39294V15.7743H6.57101V15.6806ZM7.01619 15.6806H6.85686V15.7743H7.01619V15.6806ZM6.74908 15.929H6.57101V16.018H6.74908V15.929ZM6.28984 15.929H6.13052V16.018H6.3039L6.28984 15.929Z" fill="white"/>
<path d="M8.23616 15.6102V15.3759H8.32988L8.68133 15.151H8.70008L9.07028 15.3806H9.15931V15.6149H9.33738V15.8586H9.15931V16.0929H9.05153L8.70008 16.3366L8.32519 16.0882H8.23616V15.8586H7.98779V15.6102H8.23616Z" fill="#383739"/>
<path d="M8.70014 15.151L8.34399 15.3806H9.05159L8.70014 15.151ZM8.34399 16.0882L8.70014 16.3225L9.05159 16.0882H8.34399ZM8.43303 15.629V15.8586H8.87352V15.6477L8.43303 15.629Z" fill="#D22630"/>
<path d="M8.2549 15.8586V16.0695H8.70008V15.8586H8.2549ZM8.70008 15.8586V16.0695H9.14057V15.8586H8.70008ZM7.98779 15.6243V15.8586H8.41423V15.6478L7.98779 15.6243ZM8.87815 15.6243V15.8586H9.31864V15.6478L8.87815 15.6243ZM8.2549 15.3994V15.6103H8.70008V15.3994H8.2549ZM8.70008 15.3994V15.6103H9.14057V15.3994H8.70008Z" fill="#FFC72C"/>
<path d="M8.99987 15.6805V15.8071H9.192V15.6805H8.99987ZM8.8218 15.4509V15.5728H9.01862V15.4509H8.8218ZM8.37662 15.4509V15.5728H8.55469V15.4509H8.37662ZM8.55469 15.6852V15.8071H8.73277V15.6805L8.55469 15.6852ZM8.09546 15.6852V15.8071H8.29227V15.6805L8.09546 15.6852ZM8.37662 15.9102V16.0367H8.55469V15.9102H8.37662ZM8.8218 15.9102V16.0367H9.01862V15.9102H8.8218Z" fill="#383739"/>
<path d="M9.01867 15.6806H9.19206V15.7884H9.01867V15.6806ZM8.8406 15.4697H9.01867V15.5588H8.8406V15.4697ZM8.39542 15.4697H8.55475V15.5588H8.37668L8.39542 15.4697ZM8.57349 15.6993H8.73282V15.7884H8.55475L8.57349 15.6993ZM8.11426 15.6993H8.29233V15.7884H8.11426V15.6993ZM8.39542 15.9336H8.55475V16.018H8.37668L8.39542 15.9336ZM8.8406 15.9336H9.01867V16.018H8.8406V15.9336Z" fill="white"/>
<path d="M8.04291 15.221V15.4506H7.94919L7.57899 15.699L7.19005 15.4506H7.11975V15.2163H6.89014V14.9727H7.12444V14.7384H7.19005L7.57899 14.5134L7.95388 14.743H8.04291V14.9727H8.25379V15.221H8.04291Z" fill="#383739"/>
<path d="M7.57924 15.6802L7.93538 15.4506H7.22778L7.57924 15.6802ZM7.93538 14.743L7.57924 14.5321L7.22778 14.743H7.93538Z" fill="#FFC72C"/>
<path d="M8.02422 14.9727V14.7618H7.57904V14.9727H8.02422ZM7.56499 14.9727V14.7618H7.13855V14.9727H7.56499ZM8.2351 15.207V14.9915H7.81335V15.2023L8.2351 15.207ZM7.7946 15.207V14.9915H7.37286V15.2023L7.7946 15.207ZM7.34943 15.207V14.9915H6.90894V15.2023L7.34943 15.207ZM8.02422 15.432V15.2211H7.57904V15.432H8.02422ZM7.56499 15.432V15.2211H7.13855V15.432H7.56499Z" fill="#D22630"/>
<path d="M7.45719 14.7947V14.9353H7.26038V14.7947H7.45719ZM7.89769 14.7947V14.9353H7.70556V14.7947H7.89769ZM7.22758 15.043V15.1696H7.03076V15.043H7.22758ZM7.66807 15.043V15.1696H7.49468V15.043H7.66807ZM8.13199 15.043V15.1696H7.93517V15.043H8.13199ZM7.43845 15.2773V15.3992H7.26038V15.2727L7.43845 15.2773ZM7.89769 15.2773V15.3992H7.70556V15.2727L7.89769 15.2773Z" fill="#383739"/>
<path d="M7.42439 14.8322H7.28381V14.9212H7.42439V14.8322ZM7.88363 14.8322H7.7243V14.9212H7.88363V14.8322ZM7.20883 15.0618H7.03076V15.1508H7.20883V15.0618ZM7.65401 15.0618H7.49468V15.1508H7.66807L7.65401 15.0618ZM8.11325 15.0618H7.93517V15.1508H8.11325V15.0618ZM7.41971 15.2914H7.27912V15.3804H7.41971V15.2914ZM7.88363 15.2914H7.7243V15.3804H7.88363V15.2914Z" fill="white"/>
<path d="M8.04291 16.4962V16.7446H7.94919L7.57899 16.993L7.19005 16.7446H7.11975V16.5103H6.89014V16.2666H7.12444V16.0323H7.19005L7.57899 15.8074L7.95388 16.037H8.04291V16.2666H8.25379V16.515L8.04291 16.4962Z" fill="#383739"/>
<path d="M7.57924 16.9367L7.93538 16.7258H7.22778L7.57924 16.9367ZM7.93538 16.0182L7.57924 15.8074L7.22778 16.0182H7.93538Z" fill="#FFC72C"/>
<path d="M8.02422 16.248V16.0371H7.57904V16.248H8.02422ZM7.56499 16.248V16.0371H7.13855V16.248H7.56499ZM8.2351 16.4823V16.2667H7.81335V16.4776L8.2351 16.4823ZM7.7946 16.4823V16.2667H7.37286V16.4776L7.7946 16.4823ZM7.34943 16.4823V16.2667H6.90894V16.4776L7.34943 16.4823ZM8.02422 16.7072V16.501H7.57904V16.7119L8.02422 16.7072ZM7.56499 16.7072V16.501H7.13855V16.7119L7.56499 16.7072Z" fill="#D22630"/>
<path d="M7.45719 16.0886V16.1964H7.26038V16.0886H7.45719ZM7.89769 16.0886V16.1964H7.70556V16.0886H7.89769ZM7.22758 16.3229V16.4448H7.03076V16.3136L7.22758 16.3229ZM7.66807 16.3229V16.4448H7.49468V16.3136L7.66807 16.3229ZM8.13199 16.3229V16.4448H7.93517V16.3136L8.13199 16.3229ZM7.43845 16.5479V16.6744H7.26038V16.5479H7.43845ZM7.89769 16.5479V16.6744H7.70556V16.5479H7.89769Z" fill="#383739"/>
<path d="M7.42439 16.1074H7.28381V16.1777H7.42439V16.1074ZM7.88363 16.1074H7.7243V16.1777H7.88363V16.1074ZM7.20883 16.337H7.03076V16.4073H7.20883V16.337ZM7.65401 16.337H7.49468V16.4073H7.66807L7.65401 16.337ZM8.11325 16.337H7.93517V16.4073H8.11325V16.337ZM7.41971 16.5713H7.27912V16.6557H7.41971V16.5713ZM7.88363 16.5713H7.7243V16.6557H7.88363V16.5713Z" fill="white"/>
<path d="M5.11816 19.258L6.80597 18.3766H8.34375L10.0269 19.258V20.7489L8.33906 21.6678H6.80128L5.11816 20.7489V19.258Z" fill="#383739"/>
<path d="M6.82008 18.3766L5.13696 19.258V20.7489L6.82008 21.635H8.3438L10.0082 20.7442V19.2768L8.3438 18.3907L6.82008 18.3766ZM6.83884 18.4985H8.30629L9.90033 19.3471V20.6786L8.30629 21.5272H6.83884L5.2448 20.6786V19.3471L6.83884 18.4985Z" fill="#00843D"/>
<path d="M7.57957 20.0034V21.5084H8.30626L9.88624 20.6598V20.0222H7.57957V18.5172H6.83881L5.27759 19.3471V20.0034H7.57957Z" fill="#FFC72C"/>
<path d="M7.56565 20.0034V21.5084H6.85771L5.26367 20.6598V20.0222H7.57972V18.5172H8.30641L9.88639 19.3471V20.0034H7.56565Z" fill="white"/>
<path d="M7.72502 21.424V20.9974L7.58437 21.0865L7.44372 20.9927V21.4193H6.99833L7.29838 21.2084V20.8896L6.83892 20.6083H6.53418V19.4033H6.83423L7.29369 19.122V18.8173L6.99364 18.6063H7.4531V19.0283L7.59375 18.9392L7.7344 19.033V18.6063H8.16104L7.87974 18.8173V19.1174L8.32044 19.3987H8.63925V20.6083H8.32044L7.87974 20.8896V21.2084L8.16104 21.4193L7.72502 21.424Z" fill="#383739"/>
<path d="M7.73913 18.6203V19.0657L7.57973 18.9767V19.0986L8.2736 19.5439H8.50333V20.0034H8.61117V19.408H8.30642L7.84696 19.1267V18.7844L8.09545 18.611H7.73913V18.6203ZM6.55298 20.0222V20.5848H6.85772L7.31718 20.8895V21.2083L7.04994 21.4052H7.40626V20.9551L7.57973 21.0489V20.9223L6.87648 20.4769H6.66081V20.0175L6.55298 20.0222Z" fill="#FFC72C"/>
<path d="M7.04994 18.6204L7.31718 18.7985V19.1361L6.85772 19.4174H6.55298V20.0034H6.66081V19.5487H6.87179L7.57973 19.1033V18.9814L7.40626 19.0704V18.625L7.04994 18.6204ZM8.50333 20.0222V20.4816H8.26892L7.57973 20.927V21.0489L7.73913 20.9598V21.4052H8.09545L7.84696 21.2271V20.8895L8.30642 20.5895H8.61117V20.0175L8.50333 20.0222Z" fill="white"/>
<path d="M6.6748 20.4622H6.89036L7.57922 20.9074L8.27276 20.4622H8.48363V19.5485H8.27276L7.56516 19.1267L6.89036 19.5485H6.67949L6.6748 20.4622Z" fill="#D22630"/>
<path d="M8.05724 20.2328H8.19782V20.1625H8.09473V20.0407H8.32903V20.3593H8.09473V20.5702H7.63549V20.2515H7.84637V20.3921H7.75733V20.4484H7.97289V20.3218L7.08254 19.7923H6.94195V19.8626H7.06848V19.9844H6.81543V19.6658H7.04973V19.4362H7.50428V19.7548H7.31215V19.633H7.38245V19.5767H7.17157V19.6845L8.05724 20.2328ZM7.97289 19.7033V19.5767H7.75265V19.633H7.84637V19.7548H7.63081V19.4362H8.09004V19.6705H8.33841V19.9844H8.1041V19.8626H8.21188V19.7923H8.0713L7.19032 20.3218V20.4484H7.40588V20.3921H7.3309V20.2515H7.54177V20.5702H7.06379V20.3593H6.82949V20.0407H7.08254V20.1625H6.92321V20.2328H7.08254L7.97289 19.7033Z" fill="#383739"/>
<path d="M7.98681 20.3219V20.4625H7.73844V20.3734H7.83217V20.2703H7.65409V20.5515H8.07584V20.3453H8.31015V20.0641H8.11333V20.1485H8.21642V20.2563H8.04304L7.15268 19.708V19.5674H7.40573V19.6565H7.33076V19.7408H7.50414V19.4596H7.06365V19.6939H6.82935V19.9751H7.0449V19.8814H6.92307V19.7783H7.09645L7.98681 20.3219ZM8.04304 19.7924H8.21642V19.8814H8.11333V19.9704H8.30546V19.6893H8.08053V19.455H7.65878V19.7361H7.83217V19.6518H7.74313V19.5581H7.99149V19.6986L7.10582 20.2328H6.93244V20.1438H7.05428V20.0548H6.8434V20.3359H7.07302V20.5515H7.51351V20.2891H7.34013V20.3922H7.41042V20.4859H7.16206V20.3406L8.04304 19.7924Z" fill="white"/>
<path d="M9.53471 20.0925V20.552H9.34718V20.3738H9.1362V20.552H8.92522V20.1113H9.1362V20.2707H9.33311V20.0925H9.53471ZM8.82208 20.7114V21.1755H8.62517V21.0161H8.41419V21.1896H8.22197V20.7114H8.41888V20.8896H8.62986V20.7114H8.82208ZM9.53002 19.9331V19.4737H9.35187V19.6331H9.14089V19.4549H8.92991V19.9331H9.14089V19.755H9.3378V19.9331H9.53002ZM5.61525 20.0925V20.552H5.81216V20.3738H6.04189V20.552H6.22004V20.1113H6.01845V20.2707H5.80747V20.0925H5.61525ZM5.61525 19.9331V19.4737H5.81216V19.6331H6.04189V19.4549H6.22004V19.9331H6.01845V19.755H5.80747V19.9331H5.61525ZM8.82208 19.3143V18.8361H8.62517V19.0142H8.41419V18.8361H8.22197V19.3143H8.41888V19.1361H8.62986V19.3143H8.82208ZM6.34194 20.7114V21.1755H6.5201V21.0161H6.74983V21.1896H6.92799V20.7114H6.74983V20.8896H6.53416V20.7114H6.34194ZM6.34194 19.2955V18.8361H6.5201V19.0142H6.74983V18.8361H6.92799V19.3143H6.74983V19.1361H6.53416V19.3143L6.34194 19.2955ZM8.94398 18.9767V19.333H9.58159L8.94398 18.9767ZM6.22004 21.0302V20.6786H5.54492L6.22004 21.0302ZM6.22004 18.9767V19.333H5.54492L6.22004 18.9767ZM8.94398 21.0302V20.6786H9.58159L8.94398 21.0302Z" fill="#383739"/>
<path d="M9.3519 20.3739V20.552H9.53005V20.1113H9.3519V20.2707H9.12217V20.0926H8.94401V20.538H9.12217V20.3598L9.3519 20.3739ZM8.64864 20.9974V21.1756H8.80336V20.7302H8.6252V20.9084H8.39547V20.7302H8.23607V21.1522H8.41423V21.0021L8.64864 20.9974ZM9.3519 19.6519V19.4737H9.53005V19.9144H9.3519V19.7363H9.12217V19.9144H8.94401V19.4925H9.12217V19.6519H9.3519ZM5.81219 20.3551V20.538H5.63403V20.1113H5.81219V20.2707H6.04192V20.0926H6.20132V20.538H6.01848V20.3598L5.81219 20.3551ZM5.81219 19.6519V19.4737H5.63403V19.9144H5.81219V19.7363H6.04192V19.9144H6.20132V19.4925H6.01848V19.6519H5.81219ZM8.64396 19.0283V18.8549H8.80336V19.2956H8.6252V19.1174H8.39547V19.2956H8.23607V18.8549H8.41423V19.0283H8.64396ZM6.52013 20.9974V21.1756H6.34197V20.7302H6.52013V20.9084H6.74986V20.7302H6.92802V21.1522H6.74986V21.0021L6.52013 20.9974ZM6.52013 19.0283V18.8549H6.34197V19.2956H6.52013V19.1174H6.74986V19.2956H6.92802V18.8549H6.74986V19.0283H6.52013Z" fill="#D22630"/>
<path d="M8.96272 19.0142V19.3142H9.5347L8.96272 19.0142ZM5.61523 20.6973L6.20128 21.0161V20.6973H5.61523Z" fill="#FFC72C"/>
<path d="M6.20128 19.0142L5.61523 19.3142H6.22003L6.20128 19.0142ZM8.96741 20.6973V21.0161L9.53001 20.6973H8.96741Z" fill="white"/>
<path d="M10.2942 21.3162C10.2567 21.4568 10.1535 21.5646 10.116 21.7053C10.0785 21.5646 10.0223 21.4381 10.0598 21.2833C10.0785 21.1567 10.1864 21.0677 10.2004 20.9598C10.3082 21.0536 10.327 21.1943 10.2942 21.3162ZM10.327 21.8975C10.2358 22.0198 10.1147 22.1167 9.97538 22.1788C9.98944 22.0569 9.93787 21.9913 9.88161 21.8975C9.81597 21.7944 9.77846 21.7053 9.84879 21.5787C9.87043 21.6418 9.90039 21.7017 9.93787 21.7569C10.0082 21.8272 10.0457 21.8975 10.0457 22.0053C10.1111 21.9493 10.1597 21.8763 10.1864 21.7944C10.2502 21.6879 10.3428 21.6018 10.4536 21.5459C10.4161 21.6678 10.3973 21.7944 10.327 21.8975ZM9.81128 22.2538L9.84879 22.4648L10.0598 22.2913C10.1567 22.2351 10.2504 22.1632 10.3411 22.0757C10.3382 22.1453 10.3199 22.2133 10.2875 22.275C10.2551 22.3366 10.2093 22.3902 10.1535 22.432C10.0269 22.5211 9.86754 22.5726 9.75971 22.6617C9.75659 22.5398 9.73314 22.421 9.68939 22.3054C9.67227 22.2507 9.66976 22.1926 9.68209 22.1366C9.69443 22.0807 9.72119 22.029 9.75971 21.9866L9.81128 22.2538ZM9.52998 22.7133C9.51123 22.807 9.4409 22.8914 9.38933 22.9805C9.52998 22.943 9.63781 22.8539 9.74096 22.8024C9.90036 22.7133 10.0598 22.6805 10.1864 22.5726C10.116 22.807 9.95193 22.9289 9.72689 23.018C9.56749 23.0649 9.44559 23.0321 9.24868 23.1212C9.26952 22.9861 9.31061 22.8549 9.37058 22.732L9.49716 22.4648C9.52998 22.5351 9.56749 22.6242 9.52998 22.7133ZM9.05177 23.0696C9.00703 23.1458 8.94623 23.2114 8.87361 23.2618C9.05177 23.2618 9.21117 23.1587 9.40808 23.1587C9.51123 23.1587 9.61906 23.1915 9.72689 23.1587C9.58937 23.2649 9.4409 23.3353 9.2815 23.3697C9.07052 23.3884 8.87361 23.3368 8.62513 23.3697C8.72827 23.2853 8.80641 23.1852 8.85955 23.0696C8.96269 22.9289 9.03302 22.8211 9.21117 22.8024C9.14085 22.8727 9.10334 22.9805 9.03302 23.0696H9.05177ZM8.37665 23.3884C8.71421 23.44 9.03302 23.5103 9.37058 23.5103C9.01305 23.6508 8.6168 23.6575 8.25475 23.5291C8.09809 23.4599 7.92903 23.4232 7.75778 23.4212C7.52806 23.44 7.26082 23.5291 6.96076 23.8479L6.83887 23.7588C7.04705 23.5788 7.29509 23.4508 7.56248 23.3856C7.82988 23.3204 8.10895 23.3198 8.37665 23.3837V23.3884Z" fill="#FFC72C"/>
</g>
<defs>
<clipPath id="clip0_720_53289">
<rect width="24.0044" height="24.0044" fill="white" transform="translate(0.0175781 0.092041)"/>
</clipPath>
</defs>
</svg>
