<svg width="25" height="25" viewBox="0 0 25 25" fill="none" xmlns="http://www.w3.org/2000/svg">
<g clip-path="url(#clip0_720_53365)">
<path d="M0.0263672 0.092041H24.0307V24.0964H0.0263672V0.092041Z" fill="#009FCA"/>
<path fill-rule="evenodd" clip-rule="evenodd" d="M22.4369 10.7018L22.7698 11.6582L21.9071 11.0675L21.0398 11.6582L21.3727 10.7018L20.5053 10.1111H21.579L21.9071 9.15466L22.2353 10.1111H23.3043L22.4369 10.7018ZM19.7552 18.3345L20.0834 19.2909L19.2207 18.6955L18.3581 19.2909L18.6862 18.3345L17.8236 17.739H18.8925L19.2207 16.7826L19.5489 17.7437H20.6225L19.7552 18.3345ZM22.4416 16.6045L22.7698 17.5609L21.9071 16.9701L21.0398 17.5609L21.3727 16.6045L20.5053 16.0137H21.579L21.9071 15.0573L22.2353 16.0137H23.3043L22.4416 16.6045ZM10.8989 22.1367L11.2318 23.0978L10.3691 22.5024L9.50176 23.0978L9.83463 22.1414L8.96729 21.5507H10.0362L10.3644 20.5942L10.6973 21.5507H11.7662L10.8989 22.1367ZM12.9196 17.9922L12.5914 17.0358L13.454 17.6265L14.3167 17.0358L13.9885 17.9922L14.8512 18.5829H13.7822L13.454 19.5394L13.1259 18.5829H12.0569L12.9196 17.9922ZM16.0748 13.632L15.742 12.6756L16.6046 13.2663L17.472 12.6756L17.1438 13.632L18.0064 14.2228H16.9375L16.6093 15.1792L16.2811 14.2228H15.2075L16.0748 13.632ZM18.7237 12.7272L18.3956 11.7708L19.2582 12.3615L20.1209 11.7708L19.7927 12.7272L20.6553 13.3179H19.5864L19.2582 14.2743L18.93 13.3179H17.8564L18.7237 12.7272ZM16.0748 20.2754L15.742 19.319L16.6046 19.9097L17.472 19.319L17.1438 20.2754L18.0064 20.8662H16.9375L16.6093 21.8226L16.2811 20.8662H15.2075L16.0748 20.2754ZM12.9196 21.0443L12.5914 20.0879L13.454 20.6786L14.3167 20.0879L13.9885 21.0443L14.8512 21.6351H13.7822L13.454 22.5915L13.1259 21.6351H12.0569L12.9196 21.0443Z" fill="#FFF40D"/>
<path d="M0.0263672 0.092041H12.0286V12.0942H0.0263672V0.092041Z" fill="#012169"/>
<path d="M12.0286 0.092041V1.59231L7.57462 6.09313L12.0286 10.4767V12.0942H10.458L5.98058 7.68717L1.62041 12.0942H0.0263672V10.5002L4.38654 6.11657L0.0263672 1.82673V0.092041H1.47976L5.98058 4.49909L10.3407 0.092041H12.0286Z" fill="white"/>
<path d="M4.33965 7.68717L4.59751 8.48419L1.01092 12.0942H0.0263672V12.0239L4.33965 7.68717ZM7.24643 7.40587L8.51229 7.59341L12.0286 11.0393V12.0942L7.24643 7.40587ZM12.0286 0.092041L7.52773 4.68663L7.43397 3.65519L10.9502 0.092041H12.0286ZM0.0263672 0.115483L4.55063 4.54598L3.16756 4.35844L0.0263672 1.24069V0.115483Z" fill="#C8102E"/>
<path d="M4.15212 0.092041V12.0942H7.9028V0.092041H4.15212ZM0.0263672 4.21779V7.96847H12.0286V4.21779H0.0263672Z" fill="white"/>
<path d="M0.0263672 4.96793V7.21834H12.0286V4.96793H0.0263672ZM4.90225 0.092041V12.0942H7.15266V0.092041H4.90225Z" fill="#C8102E"/>
</g>
<defs>
<clipPath id="clip0_720_53365">
<rect width="24.0044" height="24.0044" fill="white" transform="translate(0.026123 0.092041)"/>
</clipPath>
</defs>
</svg>
