<svg width="25" height="25" viewBox="0 0 25 25" fill="none" xmlns="http://www.w3.org/2000/svg">
<g clip-path="url(#clip0_720_53287)">
<mask id="mask0_720_53287" style="mask-type:luminance" maskUnits="userSpaceOnUse" x="0" y="0" width="25" height="25">
<path d="M0.0302734 0.092041H24.031V24.0927H0.0302734V0.092041Z" fill="white"/>
</mask>
<g mask="url(#mask0_720_53287)">
<path fill-rule="evenodd" clip-rule="evenodd" d="M-5.97021 16.0941H30.0308V20.0958H-5.97021V16.0941Z" fill="#FFE700"/>
<path fill-rule="evenodd" clip-rule="evenodd" d="M-5.97021 12.0924H30.0308V16.0941H-5.97021V12.0924Z" fill="#000001"/>
<path fill-rule="evenodd" clip-rule="evenodd" d="M-5.97021 8.09546H30.0308V12.0923H-5.97021V8.09546Z" fill="#DE3908"/>
<path fill-rule="evenodd" clip-rule="evenodd" d="M-5.97021 4.09375H30.0308V8.09548H-5.97021V4.09375Z" fill="#FFE700"/>
<path fill-rule="evenodd" clip-rule="evenodd" d="M-5.96997 0.092041H30.0311V4.09377H-5.96997V0.092041Z" fill="#000001"/>
<path fill-rule="evenodd" clip-rule="evenodd" d="M15.7707 12.0924C15.7707 13.0838 15.3769 14.0345 14.6759 14.7356C13.9748 15.4366 13.0241 15.8304 12.0327 15.8304C11.0413 15.8304 10.0905 15.4366 9.38952 14.7356C8.6885 14.0345 8.29468 13.0838 8.29468 12.0924C8.29468 11.101 8.6885 10.1502 9.38952 9.44921C10.0905 8.7482 11.0413 8.35437 12.0327 8.35437C13.0241 8.35437 13.9748 8.7482 14.6759 9.44921C15.3769 10.1502 15.7707 11.101 15.7707 12.0924Z" fill="#FFFDFF" stroke="black" stroke-width="0.0435496"/>
<path fill-rule="evenodd" clip-rule="evenodd" d="M11.3722 9.22744L11.1304 8.78248C11.2271 8.68575 11.3819 8.61804 11.6334 8.61804L11.6092 9.10169L11.3722 9.22744Z" fill="#DE3108" stroke="black" stroke-width="0.0435496"/>
<path fill-rule="evenodd" clip-rule="evenodd" d="M11.6094 9.11142L11.6384 8.6181C11.6384 8.6181 12.1414 8.58908 12.4122 8.91313L12.1462 9.30005L11.6094 9.11142Z" fill="#FFE700" stroke="black" stroke-width="0.0435496"/>
<path fill-rule="evenodd" clip-rule="evenodd" d="M12.1562 9.29537L12.4029 8.90845C12.5674 9.08256 12.6351 9.20831 12.6641 9.3921C12.6641 9.40177 12.2723 9.48883 12.2723 9.48883L12.1562 9.29537Z" fill="#DE3108" stroke="black" stroke-width="0.0435496"/>
<path fill-rule="evenodd" clip-rule="evenodd" d="M11.498 15.6199C11.498 15.6199 11.9626 15.0876 12.8626 15.1989C12.7271 14.9812 12.2868 15.0054 12.2868 15.0054C12.2868 15.0054 12.1513 13.9698 12.2577 13.9215C12.3642 13.8731 12.8142 13.9215 12.8142 13.9215C12.8771 13.9215 12.9787 13.7618 12.8965 13.6602C12.8142 13.5585 12.5771 13.1666 12.6739 13.0892C12.7707 13.0117 13.3029 13.1327 13.3029 13.1327L11.8029 11.2069C11.8029 11.2069 11.648 10.481 11.9577 10.1375C12.3255 9.82779 12.2868 9.49874 12.2771 9.50358C12.2287 9.16486 11.7158 8.92292 11.3674 9.23261C11.1642 9.47939 11.2997 9.6681 11.2997 9.6681C11.2997 9.6681 10.7674 9.81327 10.7432 9.91004C10.7238 9.99714 11.348 9.89069 11.348 9.89069L11.29 10.3165C11.29 10.3165 10.0706 11.4294 10.9996 12.3827C11.0142 12.3827 11.0335 12.3391 11.0335 12.3391C11.0335 12.3391 11.3626 12.7456 11.7061 12.8327C12.0303 13.1666 11.9964 13.1134 11.9964 13.1134C11.9964 13.1134 12.0642 13.636 12.0013 13.7424C11.6608 13.7001 11.3166 13.6968 10.9754 13.7327C10.8642 13.7666 10.4383 13.7473 10.54 14.4392L10.6948 14.086C10.6948 14.086 10.6851 14.3376 10.7867 14.4247C10.7674 14.1634 10.8835 13.9844 10.8835 13.9844C10.8835 13.9844 10.9029 14.2747 10.9706 14.3134C11.0335 14.3618 11.0335 13.8489 11.3868 13.8876C11.74 13.936 11.9964 13.9215 11.9964 13.9215C11.9964 13.9215 12.1126 14.9183 12.0739 15.015C11.8222 14.9521 11.2126 15.0392 11.1738 15.1941C11.5319 15.1699 11.6964 15.2134 11.6964 15.2134C11.6964 15.2134 11.4061 15.4699 11.498 15.6199Z" fill="black" stroke="black" stroke-width="0.0387108" stroke-linecap="round" stroke-linejoin="round"/>
<path fill-rule="evenodd" clip-rule="evenodd" d="M11.643 10.1569C11.643 10.1569 10.753 11.1338 11.1351 11.8835C11.1593 11.7771 11.1496 11.7142 11.1593 11.7191C11.14 11.7045 11.2705 11.8061 11.256 11.7868C11.2657 11.7336 11.2222 11.6175 11.2222 11.6175L11.3383 11.6465L11.2705 11.5159L11.4398 11.5401C11.4398 11.5401 11.3818 11.3757 11.4011 11.3757L11.5414 11.3853C11.2899 10.9355 11.5269 10.5631 11.6381 10.1617L11.643 10.1569Z" fill="#9CA69C" stroke="#9CA69C" stroke-width="0.0387108" stroke-linecap="round" stroke-linejoin="round"/>
<path fill-rule="evenodd" clip-rule="evenodd" d="M11.9479 9.32458C11.9479 9.32458 11.9963 9.66314 11.8125 9.75987C11.7835 9.77922 11.6674 9.81791 11.6819 9.88562C11.7061 9.97751 11.7545 9.95817 11.827 9.94366C12.0205 9.9098 12.2429 9.4987 11.9479 9.32458Z" fill="#9CA69C" stroke="#9CA69C" stroke-width="0.0435496"/>
<path fill-rule="evenodd" clip-rule="evenodd" d="M11.6183 9.60967C11.6183 9.62882 11.6107 9.64718 11.5971 9.66072C11.5836 9.67426 11.5652 9.68187 11.5461 9.68187C11.5269 9.68187 11.5086 9.67426 11.495 9.66072C11.4815 9.64718 11.4739 9.62882 11.4739 9.60967C11.4739 9.59052 11.4815 9.57216 11.495 9.55862C11.5086 9.54508 11.5269 9.53748 11.5461 9.53748C11.5652 9.53748 11.5836 9.54508 11.5971 9.55862C11.6107 9.57216 11.6183 9.59052 11.6183 9.60967Z" fill="white"/>
<path fill-rule="evenodd" clip-rule="evenodd" d="M11.3336 9.89075C11.2852 9.92944 11.0434 10.1858 11.2852 10.2777C11.5367 10.21 11.4642 10.1664 11.5222 10.1084C11.5222 9.99715 11.3965 9.96329 11.3336 9.89075Z" fill="#DE3108" stroke="black" stroke-width="0.0435496"/>
<path fill-rule="evenodd" clip-rule="evenodd" d="M11.8707 12.3053C11.8562 12.3633 11.803 12.5665 11.8804 12.7212C12.0932 12.6342 12.1899 12.6584 12.2625 12.7067C12.0883 12.5616 12.0206 12.5084 11.8707 12.3053Z" fill="#9CA69C" stroke="#9CA69C" stroke-width="0.0387108" stroke-linecap="round" stroke-linejoin="round"/>
<path fill-rule="evenodd" clip-rule="evenodd" d="M12.2385 13.2731L12.2482 13.747C12.2482 13.747 12.4175 13.7809 12.49 13.747C12.5674 13.718 12.49 13.4182 12.2385 13.2731Z" fill="white" stroke="white" stroke-width="0.0387108" stroke-linecap="round" stroke-linejoin="round"/>
<path fill-rule="evenodd" clip-rule="evenodd" d="M13.4434 13.3311C13.4434 13.3311 13.1337 12.5908 12.3547 12.4021C11.5756 12.2133 11.6724 11.3859 11.7353 11.3327C11.7692 11.2601 11.7934 11.1488 12.0208 11.2553C12.2482 11.3617 13.2837 11.8843 13.4337 11.9085C13.5837 11.9327 13.4531 13.3505 13.4434 13.3311Z" fill="#9CA69C" stroke="black" stroke-width="0.0435496"/>
<path fill-rule="evenodd" clip-rule="evenodd" d="M12.6981 12.4021C12.6836 12.4069 13.7433 13.0263 13.424 13.5586C13.7288 13.3602 13.6272 13.0069 13.6272 13.0069C13.6272 13.0069 13.874 13.6505 13.274 13.965C13.3417 14.0231 13.3804 14.0086 13.3804 14.0086L13.2836 14.1102C13.2836 14.1102 13.2353 14.1876 13.6369 13.994C13.5256 14.0811 13.5159 14.1441 13.5159 14.1441C13.5159 14.1441 13.5498 14.2312 13.8111 13.9989C13.707 14.1012 13.6189 14.2187 13.5498 14.3473C14.1304 14.2941 15.3789 12.4263 13.1578 11.8746L13.2546 11.9811L12.6981 12.4021Z" fill="#DE3108" stroke="black" stroke-width="0.0387108" stroke-linejoin="round"/>
<path fill-rule="evenodd" clip-rule="evenodd" d="M12.7413 12.2179C12.8864 12.3146 12.9347 12.3533 12.9541 12.4017C12.8235 12.3726 12.7026 12.3823 12.7026 12.3823C12.7026 12.3823 12.4221 12.1115 12.3689 12.0921C12.3302 12.0921 12.1077 11.947 12.1077 11.947C11.9965 11.8938 11.8949 11.5117 12.3012 11.623C12.7268 11.8213 12.7848 11.8358 12.7848 11.8358L13.2878 11.9954L13.578 12.3194C13.578 12.3194 13.0605 12.0631 12.9976 12.0583C13.1427 12.1743 13.2201 12.3291 13.2201 12.3291C13.0557 12.2807 12.9154 12.2421 12.7413 12.2179Z" fill="white" stroke="black" stroke-width="0.0387108" stroke-linecap="round" stroke-linejoin="round"/>
<path d="M10.7383 9.92935C10.7383 9.92935 11.2316 9.81327 11.2896 9.83262" stroke="white" stroke-width="0.0387108" stroke-linecap="round"/>
<path fill-rule="evenodd" clip-rule="evenodd" d="M-5.97021 20.0958H30.0308V24.0976H-5.97021V20.0958Z" fill="#DE3908"/>
</g>
</g>
<defs>
<clipPath id="clip0_720_53287">
<rect width="24.0044" height="24.0044" fill="white" transform="translate(0.0305176 0.092041)"/>
</clipPath>
</defs>
</svg>
