<svg width="24" height="25" viewBox="0 0 24 25" fill="none" xmlns="http://www.w3.org/2000/svg">
<g clip-path="url(#clip0_720_53283)">
<path d="M0.00878906 0.0964355H24.0088V24.0964H0.00878906" fill="#BD3D44"/>
<path d="M0.00878906 2.81519H24.0088H0.00878906ZM0.00878906 6.51831H24.0088H0.00878906ZM0.00878906 10.2214H24.0088H0.00878906ZM0.00878906 13.9246H24.0088H0.00878906ZM0.00878906 17.6277H24.0088H0.00878906ZM0.00878906 21.3308H24.0088H0.00878906Z" fill="black"/>
<path d="M24.0088 20.3933V22.2683H0.00878906V20.3933H24.0088ZM24.0088 16.6902V18.5652H0.00878906V16.6902H24.0088ZM24.0088 12.9871V14.8621H0.00878906V12.9871H24.0088ZM24.0088 9.28394V11.1589H0.00878906V9.28394H24.0088ZM24.0088 5.58081V7.45581H0.00878906V5.58081H24.0088ZM24.0088 1.87769V3.75269H0.00878906V1.87769H24.0088Z" fill="white"/>
<path d="M0.00878906 0.0964355H18.29V12.9871H0.00878906V0.0964355Z" fill="#192F5D"/>
<path d="M1.55566 0.612061L1.9916 1.95269L0.852539 1.12769H2.25879L1.11973 1.95269" fill="white"/>
<path d="M4.60254 0.612061L5.03848 1.95269L3.89941 1.12769H5.30566L4.1666 1.95269" fill="white"/>
<path d="M7.64941 0.612061L8.08535 1.95269L6.94629 1.12769H8.35254L7.21348 1.95269" fill="white"/>
<path d="M10.6963 0.612061L11.1322 1.95269L9.99316 1.12769H11.3994L10.2604 1.95269" fill="white"/>
<path d="M13.7432 0.612061L14.1791 1.95269L13.04 1.12769H14.4463L13.3072 1.95269" fill="white"/>
<path d="M16.8369 0.612061L17.2729 1.95269L16.1338 1.12769H17.54L16.401 1.95269" fill="white"/>
<path d="M3.10254 1.92456L3.53848 3.26519L2.39941 2.44019H3.80566L2.6666 3.26519" fill="white"/>
<path d="M6.14941 1.92456L6.58535 3.26519L5.44629 2.44019H6.85254L5.71348 3.26519" fill="white"/>
<path d="M9.19629 1.92456L9.63223 3.26519L8.49316 2.44019H9.89941L8.76035 3.26519" fill="white"/>
<path d="M12.2432 1.92456L12.6791 3.26519L11.54 2.44019H12.9463L11.8072 3.26519" fill="white"/>
<path d="M15.29 1.92456L15.726 3.26519L14.5869 2.44019H15.9932L14.8541 3.26519" fill="white"/>
<path d="M1.55566 3.19019L1.9916 4.53081L0.852539 3.70581H2.25879L1.11973 4.53081" fill="white"/>
<path d="M4.60254 3.19019L5.03848 4.53081L3.89941 3.70581H5.30566L4.1666 4.53081" fill="white"/>
<path d="M7.64941 3.19019L8.08535 4.53081L6.94629 3.70581H8.35254L7.21348 4.53081" fill="white"/>
<path d="M10.6963 3.19019L11.1322 4.53081L9.99316 3.70581H11.3994L10.2604 4.53081" fill="white"/>
<path d="M13.7432 3.19019L14.1791 4.53081L13.04 3.70581H14.4463L13.3072 4.53081" fill="white"/>
<path d="M16.8369 3.19019L17.2729 4.53081L16.1338 3.70581H17.54L16.401 4.53081" fill="white"/>
<path d="M3.10254 4.50269L3.53848 5.84331L2.39941 5.01831H3.80566L2.6666 5.84331" fill="white"/>
<path d="M6.14941 4.50269L6.58535 5.84331L5.44629 5.01831H6.85254L5.71348 5.84331" fill="white"/>
<path d="M9.19629 4.50269L9.63223 5.84331L8.49316 5.01831H9.89941L8.76035 5.84331" fill="white"/>
<path d="M12.2432 4.50269L12.6791 5.84331L11.54 5.01831H12.9463L11.8072 5.84331" fill="white"/>
<path d="M15.29 4.50269L15.726 5.84331L14.5869 5.01831H15.9932L14.8541 5.84331" fill="white"/>
<path d="M1.55566 5.76831L1.9916 7.10894L0.852539 6.28394H2.25879L1.11973 7.10894" fill="white"/>
<path d="M4.60254 5.76831L5.03848 7.10894L3.89941 6.28394H5.30566L4.1666 7.10894" fill="white"/>
<path d="M7.64941 5.76831L8.08535 7.10894L6.94629 6.28394H8.35254L7.21348 7.10894" fill="white"/>
<path d="M10.6963 5.76831L11.1322 7.10894L9.99316 6.28394H11.3994L10.2604 7.10894" fill="white"/>
<path d="M13.7432 5.76831L14.1791 7.10894L13.04 6.28394H14.4463L13.3072 7.10894" fill="white"/>
<path d="M16.8369 5.76831L17.2729 7.10894L16.1338 6.28394H17.54L16.401 7.10894" fill="white"/>
<path d="M3.10254 7.08081L3.53848 8.42144L2.39941 7.59644H3.80566L2.6666 8.42144" fill="white"/>
<path d="M6.14941 7.08081L6.58535 8.42144L5.44629 7.59644H6.85254L5.71348 8.42144" fill="white"/>
<path d="M9.19629 7.08081L9.63223 8.42144L8.49316 7.59644H9.89941L8.76035 8.42144" fill="white"/>
<path d="M12.2432 7.08081L12.6791 8.42144L11.54 7.59644H12.9463L11.8072 8.42144" fill="white"/>
<path d="M15.29 7.08081L15.726 8.42144L14.5869 7.59644H15.9932L14.8541 8.42144" fill="white"/>
<path d="M1.55566 8.39331L1.9916 9.73394L0.852539 8.90894H2.25879L1.11973 9.73394" fill="white"/>
<path d="M4.60254 8.39331L5.03848 9.73394L3.89941 8.90894H5.30566L4.1666 9.73394" fill="white"/>
<path d="M7.64941 8.39331L8.08535 9.73394L6.94629 8.90894H8.35254L7.21348 9.73394" fill="white"/>
<path d="M10.6963 8.39331L11.1322 9.73394L9.99316 8.90894H11.3994L10.2604 9.73394" fill="white"/>
<path d="M13.7432 8.39331L14.1791 9.73394L13.04 8.90894H14.4463L13.3072 9.73394" fill="white"/>
<path d="M16.8369 8.39331L17.2729 9.73394L16.1338 8.90894H17.54L16.401 9.73394" fill="white"/>
<path d="M3.10254 9.70581L3.53848 11.0464L2.39941 10.2214H3.80566L2.6666 11.0464" fill="white"/>
<path d="M6.14941 9.70581L6.58535 11.0464L5.44629 10.2214H6.85254L5.71348 11.0464" fill="white"/>
<path d="M9.19629 9.70581L9.63223 11.0464L8.49316 10.2214H9.89941L8.76035 11.0464" fill="white"/>
<path d="M12.2432 9.70581L12.6791 11.0464L11.54 10.2214H12.9463L11.8072 11.0464" fill="white"/>
<path d="M15.29 9.70581L15.726 11.0464L14.5869 10.2214H15.9932L14.8541 11.0464" fill="white"/>
<path d="M1.55566 10.9714L1.9916 12.3121L0.852539 11.4871H2.25879L1.11973 12.3121" fill="white"/>
<path d="M4.60254 10.9714L5.03848 12.3121L3.89941 11.4871H5.30566L4.1666 12.3121" fill="white"/>
<path d="M7.64941 10.9714L8.08535 12.3121L6.94629 11.4871H8.35254L7.21348 12.3121" fill="white"/>
<path d="M10.6963 10.9714L11.1322 12.3121L9.99316 11.4871H11.3994L10.2604 12.3121" fill="white"/>
<path d="M13.7432 10.9714L14.1791 12.3121L13.04 11.4871H14.4463L13.3072 12.3121" fill="white"/>
<path d="M16.8369 10.9714L17.2729 12.3121L16.1338 11.4871H17.54L16.401 12.3121" fill="white"/>
</g>
<defs>
<clipPath id="clip0_720_53283">
<rect width="24" height="24" fill="white" transform="translate(0.00878906 0.0964355)"/>
</clipPath>
</defs>
</svg>
