<svg width="24" height="25" viewBox="0 0 24 25" fill="none" xmlns="http://www.w3.org/2000/svg">
<g clip-path="url(#clip0_720_53284)">
<path d="M-0.000244141 0.0964355H24.0041V24.1008H-0.000244141V0.0964355Z" fill="#012169"/>
<path d="M24.0041 0.0964355V3.09698L15.0963 12.0986L24.0041 20.8658V24.1008H20.8629L11.9082 15.2867L3.18784 24.1008H-0.000244141V20.9127L8.72009 12.1455L-0.000244141 3.56582V0.0964355H2.90653L11.9082 8.91054L20.6285 0.0964355H24.0041Z" fill="white"/>
<path d="M8.62633 15.2867L9.14204 16.8807L1.96886 24.1008H-0.000244141V23.9602L8.62633 15.2867ZM14.4399 14.7241L16.9716 15.0992L24.0041 21.991V24.1008L14.4399 14.7241ZM24.0041 0.0964355L15.0025 9.28561L14.815 7.22273L21.8475 0.0964355H24.0041ZM-0.000244141 0.143319L9.04828 9.00431L6.28215 8.62924L-0.000244141 2.39373V0.143319Z" fill="#C8102E"/>
<path d="M8.25126 0.0964355V24.1008H15.7526V0.0964355H8.25126ZM-0.000244141 8.34794V15.8493H24.0041V8.34794H-0.000244141Z" fill="white"/>
<path d="M-0.000244141 9.84821V14.349H24.0041V9.84821H-0.000244141ZM9.75153 0.0964355V24.1008H14.2523V0.0964355H9.75153Z" fill="#C8102E"/>
</g>
<defs>
<clipPath id="clip0_720_53284">
<rect width="24.0044" height="24.0044" fill="white" transform="translate(0 0.0964355)"/>
</clipPath>
</defs>
</svg>
