<svg width="25" height="25" viewBox="0 0 25 25" fill="none" xmlns="http://www.w3.org/2000/svg">
<g clip-path="url(#clip0_720_53370)">
<path d="M0.00878906 0.0964355H24.0132V24.1008H0.00878906V0.0964355Z" fill="white"/>
<path d="M13.3237 2.76404H24.0132V5.43171H13.3237V2.76404ZM13.3237 8.09938H24.0132V10.7671H13.3237V8.09938ZM0.00878906 13.43H24.0132V16.1024H0.00878906V13.43ZM0.00878906 18.7654H24.0132V21.4377H0.00878906V18.7654Z" fill="#0038A8"/>
<path d="M6.38185 8.06885L6.82193 8.72897C5.00294 10.0492 6.10314 10.812 4.8269 11.2228C5.61905 10.46 4.69488 10.3866 5.36967 8.75831" fill="#FCD116"/>
<path d="M6.38185 8.06885L6.82193 8.72897C5.00294 10.0492 6.10314 10.812 4.8269 11.2228C5.61905 10.46 4.69488 10.3866 5.36967 8.75831" stroke="black" stroke-width="0.0880161" stroke-miterlimit="20" stroke-linecap="square"/>
<path d="M6.05913 8.25952C5.06161 9.90249 5.70706 10.812 4.8269 11.2374" stroke="black" stroke-width="0.0880161" stroke-miterlimit="20"/>
<path d="M6.67533 6.76331H7.55549L6.67533 11.6042L5.79517 6.76331H6.67533V11.6042V6.76331Z" fill="#FCD116"/>
<path d="M6.67533 6.76331H7.55549L6.67533 11.6042M6.67533 6.76331H5.79517L6.67533 11.6042M6.67533 6.76331V11.6042" stroke="black" stroke-width="0.0880161" stroke-miterlimit="20"/>
<path d="M5.54532 7.47879L5.38972 8.25675C3.16995 7.90407 3.40852 9.22142 2.21565 8.60942C3.31517 8.63017 2.71354 7.92482 4.34207 7.25059" fill="#FCD116"/>
<path d="M5.54532 7.47879L5.38972 8.25675C3.16995 7.90407 3.40852 9.22142 2.21565 8.60942C3.31517 8.63017 2.71354 7.92482 4.34207 7.25059" stroke="black" stroke-width="0.0880161" stroke-miterlimit="20" stroke-linecap="square"/>
<path d="M5.18211 7.3856C3.315 7.842 3.12829 8.94152 2.20511 8.61996" stroke="black" stroke-width="0.0880161" stroke-miterlimit="20"/>
<path d="M6.67583 6.76324L7.2982 7.3856L3.25281 10.1863L6.05347 6.14087L6.67583 6.76324L3.25281 10.1863L6.67583 6.76324Z" fill="#FCD116"/>
<path d="M6.67583 6.76324L7.2982 7.3856L3.25281 10.1863M6.67583 6.76324L6.05347 6.14087L3.25281 10.1863M6.67583 6.76324L3.25281 10.1863" stroke="black" stroke-width="0.0880161" stroke-miterlimit="20"/>
<path d="M5.36938 6.46987L4.70926 6.90995C3.38902 5.09095 2.62622 6.19115 2.21548 4.91492C2.97828 5.70706 3.05163 4.78289 4.67993 5.45768" fill="#FCD116"/>
<path d="M5.36938 6.46987L4.70926 6.90995C3.38902 5.09095 2.62622 6.19115 2.21548 4.91492C2.97828 5.70706 3.05163 4.78289 4.67993 5.45768" stroke="black" stroke-width="0.0880161" stroke-miterlimit="20" stroke-linecap="square"/>
<path d="M5.17847 6.14714C3.5355 5.14963 2.626 5.79508 2.20059 4.91492" stroke="black" stroke-width="0.0880161" stroke-miterlimit="20"/>
<path d="M6.6748 6.76322V7.64338L1.83392 6.76322L6.6748 5.88306V6.76322H1.83392H6.6748Z" fill="#FCD116"/>
<path d="M6.6748 6.76322V7.64338L1.83392 6.76322M6.6748 6.76322V5.88306L1.83392 6.76322M6.6748 6.76322H1.83392" stroke="black" stroke-width="0.0880161" stroke-miterlimit="20"/>
<path d="M5.95908 5.63284L5.18112 5.47725C5.53379 3.25747 4.21645 3.49605 4.82844 2.30318C4.8077 3.40269 5.51305 2.80107 6.18728 4.4296" fill="#FCD116"/>
<path d="M5.95908 5.63284L5.18112 5.47725C5.53379 3.25747 4.21645 3.49605 4.82844 2.30318C4.8077 3.40269 5.51305 2.80107 6.18728 4.4296" stroke="black" stroke-width="0.0880161" stroke-miterlimit="20" stroke-linecap="square"/>
<path d="M6.05251 5.26975C5.59611 3.40265 4.4966 3.21594 4.81815 2.29276" stroke="black" stroke-width="0.0880161" stroke-miterlimit="20"/>
<path d="M6.675 6.76348L6.05263 7.38585L3.25197 3.34046L7.29736 6.14111L6.675 6.76348L3.25197 3.34046L6.675 6.76348Z" fill="#FCD116"/>
<path d="M6.675 6.76348L6.05263 7.38585L3.25197 3.34046M6.675 6.76348L7.29736 6.14111L3.25197 3.34046M6.675 6.76348L3.25197 3.34046" stroke="black" stroke-width="0.0880161" stroke-miterlimit="20"/>
<path d="M6.96946 5.45764L6.52938 4.79752C8.34838 3.47728 7.24818 2.71447 8.52441 2.30373C7.73227 3.06654 8.65644 3.13989 7.98165 4.76818" fill="#FCD116"/>
<path d="M6.96946 5.45764L6.52938 4.79752C8.34838 3.47728 7.24818 2.71447 8.52441 2.30373C7.73227 3.06654 8.65644 3.13989 7.98165 4.76818" stroke="black" stroke-width="0.0880161" stroke-miterlimit="20" stroke-linecap="square"/>
<path d="M7.29219 5.26697C8.2897 3.624 7.64425 2.7145 8.52441 2.28909" stroke="black" stroke-width="0.0880161" stroke-miterlimit="20"/>
<path d="M6.67599 6.76331H5.79583L6.67599 1.92242L7.55615 6.76331H6.67599V1.92242V6.76331Z" fill="#FCD116"/>
<path d="M6.67599 6.76331H5.79583L6.67599 1.92242M6.67599 6.76331H7.55615L6.67599 1.92242M6.67599 6.76331V1.92242" stroke="black" stroke-width="0.0880161" stroke-miterlimit="20"/>
<path d="M7.80625 6.04758L7.96184 5.26962C10.1816 5.62229 9.94304 4.30495 11.1359 4.91694C10.0364 4.8962 10.638 5.60155 9.00949 6.27578" fill="#FCD116"/>
<path d="M7.80625 6.04758L7.96184 5.26962C10.1816 5.62229 9.94304 4.30495 11.1359 4.91694C10.0364 4.8962 10.638 5.60155 9.00949 6.27578" stroke="black" stroke-width="0.0880161" stroke-miterlimit="20" stroke-linecap="square"/>
<path d="M8.16921 6.14089C10.0363 5.68449 10.223 4.58497 11.1462 4.90653" stroke="black" stroke-width="0.0880161" stroke-miterlimit="20"/>
<path d="M6.67548 6.76362L6.05312 6.14125L10.0985 3.3406L7.29785 7.38599L6.67548 6.76362L10.0985 3.3406L6.67548 6.76362Z" fill="#FCD116"/>
<path d="M6.67548 6.76362L6.05312 6.14125L10.0985 3.3406M6.67548 6.76362L7.29785 7.38599L10.0985 3.3406M6.67548 6.76362L10.0985 3.3406" stroke="black" stroke-width="0.0880161" stroke-miterlimit="20"/>
<path d="M7.98071 7.05662L8.64083 6.61654C9.96107 8.43554 10.7239 7.33534 11.1346 8.61157C10.3718 7.81943 10.2985 8.7436 8.67017 8.06881" fill="#FCD116"/>
<path d="M7.98071 7.05662L8.64083 6.61654C9.96107 8.43554 10.7239 7.33534 11.1346 8.61157C10.3718 7.81943 10.2985 8.7436 8.67017 8.06881" stroke="black" stroke-width="0.0880161" stroke-miterlimit="20" stroke-linecap="square"/>
<path d="M8.17163 7.37935C9.8146 8.37686 10.7241 7.73141 11.1495 8.61157" stroke="black" stroke-width="0.0880161" stroke-miterlimit="20"/>
<path d="M6.67529 6.76327V5.88311L11.5162 6.76327L6.67529 7.64343V6.76327H11.5162H6.67529Z" fill="#FCD116"/>
<path d="M6.67529 6.76327V5.88311L11.5162 6.76327M6.67529 6.76327V7.64343L11.5162 6.76327M6.67529 6.76327H11.5162" stroke="black" stroke-width="0.0880161" stroke-miterlimit="20"/>
<path d="M7.39224 7.89389L8.1702 8.04948C7.81752 10.2693 9.13487 10.0307 8.52287 11.2236C8.54362 10.124 7.83827 10.7257 7.16404 9.09714" fill="#FCD116"/>
<path d="M7.39224 7.89389L8.1702 8.04948C7.81752 10.2693 9.13487 10.0307 8.52287 11.2236C8.54362 10.124 7.83827 10.7257 7.16404 9.09714" stroke="black" stroke-width="0.0880161" stroke-miterlimit="20" stroke-linecap="square"/>
<path d="M7.2988 8.25698C7.75521 10.1241 8.85472 10.3108 8.53317 11.234" stroke="black" stroke-width="0.0880161" stroke-miterlimit="20"/>
<path d="M6.67657 6.76325L7.29893 6.14089L10.0996 10.1863L6.0542 7.38562L6.67657 6.76325L10.0996 10.1863L6.67657 6.76325Z" fill="#FCD116"/>
<path d="M6.67657 6.76325L7.29893 6.14089L10.0996 10.1863M6.67657 6.76325L6.0542 7.38562L10.0996 10.1863M6.67657 6.76325L10.0996 10.1863" stroke="black" stroke-width="0.0880161" stroke-miterlimit="20"/>
<path d="M6.6754 8.37691C7.56658 8.37691 8.28902 7.65447 8.28902 6.76329C8.28902 5.8721 7.56658 5.14966 6.6754 5.14966C5.78421 5.14966 5.06177 5.8721 5.06177 6.76329C5.06177 7.65447 5.78421 8.37691 6.6754 8.37691Z" fill="#FCD116" stroke="black" stroke-width="0.0880161" stroke-miterlimit="20"/>
<path d="M7.86298 6.11768C7.76034 6.23497 7.70169 6.0297 7.33513 6.0297C6.96858 6.0297 6.90993 6.24964 6.85128 6.20565C6.79263 6.16166 7.15919 5.89774 7.27649 5.88308C7.39378 5.86842 7.73102 5.98571 7.86298 6.11768ZM7.43777 6.24964C7.54041 6.33761 7.45243 6.52822 7.3498 6.52822C7.24716 6.52822 7.05655 6.35227 7.14452 6.23497" fill="black"/>
<path d="M6.95386 6.38154C6.96852 6.20559 7.11514 6.17627 7.34974 6.17627C7.58434 6.17627 7.68697 6.35222 7.77494 6.3962C7.67231 6.3962 7.58434 6.24958 7.34974 6.24958C7.11514 6.24958 7.11514 6.24958 6.95386 6.3962M6.99784 6.42553C7.05649 6.33755 7.1298 6.5135 7.29109 6.5135C7.45237 6.5135 7.54035 6.46951 7.64298 6.3962C7.74562 6.32289 7.49636 6.57215 7.33508 6.57215C7.17379 6.57215 6.95386 6.48418 6.99784 6.42553Z" fill="black"/>
<path d="M7.49596 6.51369C7.68657 6.41105 7.56927 6.26443 7.49596 6.23511C7.52529 6.26443 7.64258 6.41105 7.49596 6.51369ZM6.67487 7.39343C6.76285 7.39343 6.79217 7.3641 6.90947 7.3641C7.02677 7.3641 7.30535 7.52539 7.46664 7.46674C7.1294 7.5987 7.26136 7.51072 6.67487 7.51072H6.60156M7.52529 7.5987C7.46664 7.49606 7.4813 7.52539 7.364 7.3641C7.4813 7.45208 7.51062 7.49606 7.52529 7.5987ZM6.67487 7.74532C7.04143 7.74532 6.98278 7.67201 7.46664 7.46674C7.11474 7.51072 7.04143 7.62802 6.67487 7.62802H6.60156M6.67487 7.20282C6.77751 7.20282 6.80683 7.12951 6.92413 7.12951C7.04143 7.12951 7.20272 7.17349 7.27603 7.23214C7.29069 7.2468 7.23204 7.11484 7.11474 7.10018C6.99744 7.08552 7.04143 6.89491 6.90947 6.86559C6.90947 6.92423 6.95346 6.90957 6.96812 6.99755C6.96812 7.07086 6.83616 7.07086 6.80683 6.99755C6.83616 7.11484 6.74819 7.11484 6.67487 7.11484" fill="black"/>
<path d="M5.48761 6.11768C5.59025 6.23497 5.64889 6.0297 6.01545 6.0297C6.38201 6.0297 6.44066 6.24964 6.49931 6.20565C6.55796 6.16166 6.1914 5.89774 6.0741 5.88308C5.9568 5.86842 5.61957 5.98571 5.48761 6.11768ZM5.91282 6.24964C5.81018 6.33761 5.89815 6.52822 6.00079 6.52822C6.10343 6.52822 6.29403 6.35227 6.20606 6.23497" fill="black"/>
<path d="M6.39648 6.38179C6.38182 6.20584 6.2352 6.17651 6.0006 6.17651C5.76601 6.17651 5.66337 6.35246 5.5754 6.39645C5.67803 6.39645 5.76601 6.24983 6.0006 6.24983C6.2352 6.24983 6.2352 6.24983 6.39648 6.39645M6.3525 6.42577C6.29385 6.3378 6.22054 6.51375 6.05925 6.51375C5.89797 6.51375 5.80999 6.46976 5.70736 6.39645C5.60472 6.32314 5.85398 6.57239 6.01527 6.57239C6.17655 6.57239 6.39648 6.48442 6.3525 6.42577Z" fill="black"/>
<path d="M5.85414 6.51369C5.66353 6.41105 5.78083 6.26443 5.85414 6.23511C5.82481 6.26443 5.70751 6.41105 5.85414 6.51369ZM6.67522 7.39343C6.58725 7.39343 6.55793 7.3641 6.44063 7.3641C6.32333 7.3641 6.04475 7.52539 5.88346 7.46674C6.22069 7.5987 6.08873 7.51072 6.67522 7.51072H6.74854M5.82481 7.5987C5.88346 7.49606 5.8688 7.52539 5.9861 7.3641C5.8688 7.45208 5.83947 7.49606 5.82481 7.5987ZM6.67522 7.74532C6.30867 7.74532 6.36732 7.67201 5.88346 7.46674C6.23536 7.51072 6.30867 7.62802 6.67522 7.62802H6.74854M6.67522 7.20282C6.57259 7.20282 6.54326 7.12951 6.42597 7.12951C6.30867 7.12951 6.14738 7.17349 6.07407 7.23214C6.05941 7.2468 6.11806 7.11484 6.23536 7.10018C6.35265 7.08552 6.30867 6.89491 6.44063 6.86559C6.44063 6.92423 6.39664 6.90957 6.38198 6.99755C6.38198 7.07086 6.51394 7.07086 6.54326 6.99755C6.51394 7.11484 6.60191 7.11484 6.67522 7.11484" fill="black"/>
<path d="M6.67539 7.87817C6.60208 7.87817 6.41147 7.92216 6.67539 7.92216C6.93931 7.92216 6.7487 7.87817 6.67539 7.87817Z" fill="black"/>
</g>
<defs>
<clipPath id="clip0_720_53370">
<rect width="24.0044" height="24.0044" fill="white" transform="translate(0.00878906 0.0964355)"/>
</clipPath>
</defs>
</svg>
