<svg width="25" height="25" viewBox="0 0 25 25" fill="none" xmlns="http://www.w3.org/2000/svg">
<g clip-path="url(#clip0_720_53507)">
<path d="M0.0129395 0.0964355H24.0173V24.1008H0.0129395V0.0964355Z" fill="white"/>
<path d="M7.67833 14.9117C7.67833 14.9117 7.65957 14.7757 7.90805 14.6772C8.15654 14.5835 8.17529 14.2225 8.12841 13.9834C8.12841 13.9834 7.99713 14.2131 7.83773 14.2881C7.83773 14.2881 7.57987 14.4241 7.56581 14.6819C7.56581 14.6819 7.56581 14.7757 7.54705 14.846C7.53767 14.8882 7.42047 14.5272 7.64082 14.2553C7.86117 13.9787 7.92212 13.7536 7.74865 13.3176C7.74865 13.3176 7.7299 13.5802 7.55643 13.7349C7.37827 13.8849 7.35952 13.899 7.35952 14.26C7.35952 14.26 7.35952 14.3866 7.29857 14.4288C7.29857 14.4288 7.15792 14.2272 7.1251 14.1006C7.08759 13.9646 7.07353 13.913 7.22824 13.7583C7.22824 13.7583 7.72521 13.4348 7.36889 12.7269C7.36889 12.7269 7.35483 12.9754 7.18136 13.116C7.01258 13.2567 7.02664 13.3551 7.01727 13.6036C7.00789 13.8521 6.98914 13.838 6.97038 13.8708C6.97038 13.8708 6.65626 13.2895 6.90006 12.9801C7.14385 12.6706 7.27982 12.605 7.01258 12.0283C7.01258 12.0283 7.02196 12.3237 6.80629 12.469C6.59063 12.6144 6.6422 12.9613 6.6422 12.9613C6.6422 12.9613 6.65626 13.0879 6.60938 13.1817C6.60938 13.1817 6.30464 12.5862 6.59532 12.2674C6.8438 11.9955 6.86255 11.8033 6.72659 11.4188C6.72659 11.4188 6.71252 11.597 6.57656 11.6955C6.43591 11.7892 6.33277 11.883 6.35621 12.2581C6.35621 12.2581 6.36559 12.5159 6.33277 12.5862C6.33277 12.5862 6.20618 12.3518 6.16868 12.1971C6.13117 12.0424 6.12179 11.9533 6.21556 11.7986C6.30933 11.6439 6.68439 11.1985 6.23431 10.5609C6.23431 10.5609 6.22025 10.7672 6.10773 10.9547C5.99521 11.1422 6.04678 11.3626 6.07022 11.5314C6.09366 11.7001 6.01396 11.8642 6.01396 11.8642C6.01396 11.8642 5.82174 11.5079 5.85924 11.1C5.90613 10.6921 5.73735 10.3499 5.35759 10.1155C5.35759 10.1155 5.08567 10.7484 5.46073 11.0719C5.46073 11.0719 5.77954 11.3907 5.85924 11.7752C5.85924 11.7752 5.61545 11.747 5.39979 11.3204C5.18412 10.8937 4.72466 10.9641 4.69653 10.9594C4.69653 10.9594 4.76686 11.6158 5.46542 11.8033C5.46542 11.8033 5.9155 11.883 5.99521 12.2112C5.99521 12.2112 6.07022 12.4362 6.10304 12.5581C6.10304 12.5581 5.96239 12.5019 5.83111 12.3096C5.69984 12.1127 5.71859 12.0893 5.27789 12.0471C5.27789 12.0471 5.09973 12.0283 5.00596 11.9017C5.00596 11.9017 5.1935 12.6003 5.66702 12.5956C5.66702 12.5956 6.10304 12.5487 6.34683 13.1207L6.23431 13.0457C6.17336 12.9988 6.00927 12.9191 5.69046 12.9613C5.37166 13.0035 5.28258 12.9426 5.20288 12.9144C5.20288 12.9144 5.52637 13.5098 5.98114 13.3364C6.43591 13.1582 6.65626 13.7958 6.66095 13.8099C6.66095 13.8099 6.6 13.763 6.5203 13.6833C6.4406 13.6036 6.27182 13.5098 5.9577 13.6083C5.9577 13.6083 5.72797 13.6974 5.49824 13.6271C5.49824 13.6271 5.71859 14.0537 6.239 13.9834C6.75472 13.9084 6.89068 14.3678 6.89068 14.3678L6.77347 14.2881C6.72659 14.2506 6.54843 14.1475 6.17336 14.26C5.7983 14.3725 5.66233 14.2412 5.66233 14.2412C5.66233 14.2412 5.87331 14.621 6.27182 14.6632C6.27182 14.6632 6.49217 14.6632 6.59063 14.6304C6.68115 14.592 6.78222 14.5865 6.87637 14.6148C6.97053 14.643 7.05187 14.7033 7.10635 14.7851C7.10635 14.7851 7.05946 14.7945 6.98445 14.7616C6.98445 14.7616 6.71721 14.6679 6.51561 14.8366C6.51561 14.8366 6.33746 15.0242 6.0796 14.9867C6.0796 14.9867 6.40778 15.3055 6.93757 15.0336C6.93757 15.0336 7.11572 14.907 7.24231 15.0054C7.36889 15.1039 7.67833 14.9117 7.67833 14.9117Z" fill="#369443" stroke="#010002" stroke-width="0.0562602" stroke-miterlimit="10"/>
<path d="M10.5991 6.9881C10.5991 6.9881 10.5382 6.43983 10.974 6.38828C11.4238 6.33673 11.6488 6.43046 11.6488 6.43046L11.8503 6.82877L11.78 7.10056L11.4988 7.22709C11.4988 7.22709 11.5457 6.81471 11.1708 6.80534C11.0771 6.80534 11.0162 6.84283 10.8662 6.8194C10.7163 6.79597 10.6319 6.95998 10.5991 6.98341V6.9881Z" fill="#F4C53D" stroke="#010002" stroke-width="0.0562602" stroke-miterlimit="10"/>
<path d="M13.6559 8.33388C13.5903 8.41827 13.3324 8.4464 13.3324 8.4464C13.3324 8.4464 13.5997 8.648 13.7122 8.94336C13.8294 9.23404 10.6273 8.94336 10.6273 8.94336C10.6273 8.94336 10.7679 8.84491 10.8617 8.66206C10.8617 8.66206 10.721 8.70894 10.5757 8.56829C10.5757 8.56829 10.6835 8.6058 10.8195 8.39483C10.8195 8.39483 11.0258 8.13228 11.1711 8.06195C11.1711 8.06195 11.1008 8.10415 10.9414 8.01507C10.9414 8.01507 11.2227 7.97756 11.3164 7.50404C11.3164 7.50404 11.3352 7.40089 11.443 7.24618C11.5462 7.09615 11.5227 7.279 11.7196 7.04458C11.7196 7.04458 11.8087 6.8758 11.729 6.77734C11.6493 6.67889 11.5696 6.71171 11.4055 6.61325C11.2414 6.5148 11.1711 6.46322 11.2274 6.3132C11.2836 6.16317 11.4243 6.18661 11.4477 6.18661C11.4712 6.18661 11.4805 6.05534 11.654 5.96626C11.889 5.89657 12.1385 5.89171 12.376 5.95219C12.4463 5.99439 12.7323 6.07878 12.8964 6.49604C13.0652 6.91799 12.8495 7.0774 13.309 7.71501C13.309 7.71501 13.1215 7.75252 13.0089 7.71501C13.0089 7.71501 13.2434 8.13697 13.6559 8.33388Z" fill="#F4C53D" stroke="#010002" stroke-width="0.0562602" stroke-miterlimit="10"/>
<path d="M11.6726 6.55685C11.3071 6.5381 11.4477 6.18665 11.4477 6.18665" stroke="#010002" stroke-width="0.0562602" stroke-miterlimit="10"/>
<path d="M12.3146 6.60382C12.3146 6.60382 12.249 6.57102 12.1974 6.50073C12.1178 6.39764 11.9444 6.35078 11.8507 6.4445C11.8507 6.4445 11.757 6.55228 11.6726 6.55696C11.6726 6.55696 11.7663 6.58508 11.8319 6.646C11.8944 6.7116 11.9725 6.74284 12.0662 6.73972C12.16 6.72098 12.1787 6.66943 12.2209 6.64131C12.2677 6.60851 12.3146 6.60382 12.3146 6.60382Z" fill="#F4C53D" stroke="#010002" stroke-width="0.0562602" stroke-miterlimit="10"/>
<path d="M7.6221 15.7179C7.6221 15.7179 7.61273 15.4836 7.91264 15.4602L8.79362 16.688C8.79362 16.688 8.76082 16.7676 8.3625 16.7582C8.3625 16.7582 8.31564 16.7582 8.2969 16.8051C8.2641 16.8801 7.6221 15.7179 7.6221 15.7179Z" fill="#369443" stroke="#010002" stroke-width="0.0562602" stroke-miterlimit="10"/>
<path d="M8.59109 14.2901C8.59109 14.2901 8.30932 14.7735 7.96883 14.7814C7.96883 14.7814 7.38327 14.7103 7.21782 14.8633C7.10207 14.97 6.98405 15.0581 6.93549 15.3308C6.88806 15.6036 7.02866 15.6623 7.06198 15.6741C7.06198 15.6741 7.08795 15.8689 7.2805 15.8181C7.2805 15.8181 7.29179 16.0214 7.63172 15.9237C7.97165 15.826 8.11338 15.8571 8.17945 15.5183C8.24664 15.1789 8.30819 15.1846 8.36861 15.1439C8.44992 15.0891 8.60295 15.0378 8.71644 14.9723C8.81808 14.9135 9.20883 14.7148 9.34209 14.6995C9.47535 14.6837 9.44599 14.2354 9.44599 14.2354H9.10155L8.93497 13.9897L8.59109 14.2901ZM9.67525 11.8655C9.67525 11.8655 9.3308 12.1461 9.04169 11.8655C9.04169 11.8655 8.92537 12.0055 8.6916 11.9648C8.45896 11.9236 8.42 11.8011 8.39797 11.7311C8.39797 11.7311 8.19582 11.8485 8.02529 11.7554C7.8559 11.6628 7.8559 11.5222 7.8559 11.5222C7.8559 11.5222 7.55945 11.5809 7.40755 11.3799C7.25566 11.1794 7.34826 10.9806 7.43014 10.9569C7.43014 10.9569 7.10997 11.0411 7.02245 10.7661C6.99915 10.7047 6.99554 10.6375 7.01214 10.574C7.02873 10.5104 7.0647 10.4536 7.11505 10.4115C7.11505 10.4115 6.44084 10.4081 6.16416 10.1969C6.16416 10.1969 5.93434 10.0523 6.07155 9.90043C6.07155 9.90043 5.46454 9.80331 5.31264 9.56163C5.31264 9.56163 5.24601 9.495 5.26803 9.37812C5.26803 9.37812 5.27199 9.31205 5.33862 9.3081C5.33862 9.3081 4.64634 9.20081 4.44645 8.97269C4.44645 8.97269 4.35045 8.86766 4.39845 8.72706C4.39845 8.72706 4.40861 8.69035 4.42499 8.66494C4.42499 8.66494 3.79482 8.53225 3.48426 8.25161C3.48426 8.25161 3.30469 8.09181 3.3973 7.87724C3.3973 7.87724 2.3442 7.58926 2.58813 7.1251C2.58813 7.1251 2.09574 6.9653 2.25159 6.52091C2.25159 6.52091 1.84447 6.31424 2.02177 5.98674C2.19174 5.67335 2.71405 6.04151 3.3318 6.2126C3.3318 6.2126 5.00546 6.73887 5.82931 6.87891L8.17041 10.3646L9.53634 10.8909L9.67525 11.8655Z" fill="#F4C53D" stroke="#010002" stroke-width="0.0564665"/>
<path d="M9.69142 9.29859C9.69142 9.29859 9.47176 9.13371 9.08045 9.32739C9.08045 9.32739 8.94888 9.4183 8.84498 9.31892C8.82246 9.29743 8.80498 9.2712 8.7938 9.24214C8.78262 9.21307 8.77803 9.18189 8.78035 9.15084C8.78268 9.11979 8.79186 9.08964 8.80723 9.06256C8.8226 9.03548 8.84379 9.01215 8.86927 8.99424C9.1612 8.77797 9.26905 8.12917 8.82522 7.85983C8.82522 7.85983 8.1815 7.47811 5.81951 6.87731C5.81951 6.87731 5.62188 6.82197 5.51572 6.84851C5.46436 6.86161 5.4175 6.88837 5.38012 6.92595C5.34274 6.96353 5.31623 7.01053 5.3034 7.06196C5.3034 7.06196 5.19725 7.36292 5.55299 7.53514C5.55299 7.53514 5.71335 7.60855 5.8788 7.65598C5.8788 7.65598 5.69698 7.61646 5.61905 7.79602C5.54565 7.96768 5.65293 8.14329 5.98608 8.25622C5.98608 8.25622 6.07643 8.29123 6.20461 8.32229C6.20461 8.32229 5.91945 8.40416 6.05667 8.63455C6.05667 8.63455 6.17863 8.87622 6.61004 8.91914C6.61004 8.91914 6.28818 8.95415 6.51518 9.2602C6.51518 9.2602 6.61512 9.4279 6.92964 9.49002C6.92964 9.49002 6.69135 9.49792 6.81106 9.71193C6.9319 9.9265 7.2148 10.0473 7.49374 10.0671C7.49374 10.0671 7.64451 10.075 7.7501 10.0513C7.7501 10.0513 7.48471 10.184 7.64055 10.4059C7.64055 10.4059 7.75518 10.564 8.04203 10.5561C8.04203 10.5561 7.96806 10.8046 8.17811 10.8983C8.34187 10.9717 8.47795 10.8542 8.47795 10.8542C8.47795 10.8542 8.42261 11.1202 8.66147 11.2139C8.66147 11.2139 8.78061 11.2755 8.95848 11.2139C8.95848 11.2139 9.094 11.5183 9.57735 11.3043C10.0607 11.0914 9.69142 9.29916 9.69142 9.29916V9.29859ZM9.71965 12.0621C9.71965 12.0621 9.64907 12.4427 9.08723 12.9215C9.08723 12.9215 8.65356 13.3038 8.66429 13.7442C8.67558 14.1931 8.58693 14.2434 8.4164 14.3953C8.4164 14.3953 8.76819 14.4229 8.93815 14.1886C8.93815 14.1886 8.93081 14.5782 8.87886 14.6138C8.87886 14.6138 8.98954 14.6206 9.14934 14.4461C9.14934 14.4461 9.24533 14.3444 9.33455 14.3055C9.33455 14.3055 9.23065 14.5748 9.31196 14.8244C9.31196 14.8244 9.33794 14.7267 9.47515 14.6838C9.47515 14.6838 9.7236 14.633 9.8196 14.2744C9.8196 14.2744 9.88227 14.0373 10.2713 13.8261C10.2713 13.8261 10.7118 13.6601 10.7005 13.4432C10.6892 13.2258 9.72022 12.0621 9.72022 12.0621H9.71965Z" fill="#F4C53D" stroke="#010002" stroke-width="0.0564665"/>
<path d="M11.7615 16.9684C11.7615 16.9684 11.6605 17.4134 11.3098 17.3778C11.3098 17.3778 11.0619 17.3541 11.0806 16.9408C11.0806 16.9408 10.7141 17.1361 10.6548 16.6528C10.6548 16.6528 10.3216 16.7302 10.3256 16.2784C10.3256 16.2784 10.015 16.3326 10.0517 15.9312C10.0517 15.9312 9.71463 16.0215 9.71463 15.6432C9.71463 15.6432 8.92636 15.5122 10.5695 14.0135L12.0354 14.8865L11.7615 16.9684Z" fill="#F4C53D" stroke="#010002" stroke-width="0.0564665" stroke-miterlimit="10"/>
<path d="M11.9248 14.97C11.9248 14.97 11.6803 15.1868 11.5064 14.8627C11.5064 14.8627 11.2692 14.8514 11.2325 14.6718C11.2325 14.6718 11.04 14.6526 11.0027 14.4691C11.0027 14.4691 10.7401 14.442 10.7475 14.2201C10.7475 14.2201 10.2698 14.1828 10.7475 13.6419C11.2252 13.1009 12.0355 14.5397 12.0355 14.5397L11.9248 14.97ZM12.197 14.8356C12.4341 14.8356 12.7023 16.315 12.6329 17.2066C12.6075 17.5302 12.4341 17.7944 12.197 17.7944C11.9598 17.7944 11.787 17.5302 11.7622 17.2066C11.6922 16.315 11.9604 14.8356 12.197 14.8356Z" fill="#F4C53D" stroke="#010002" stroke-width="0.0564665"/>
<path d="M12.1967 15.3095C12.3775 15.3095 12.5241 15.0922 12.5241 14.8241C12.5241 14.5561 12.3775 14.3387 12.1967 14.3387C12.0159 14.3387 11.8694 14.5561 11.8694 14.8241C11.8694 15.0922 12.0159 15.3095 12.1967 15.3095Z" fill="#F4C53D" stroke="#010002" stroke-width="0.0564665"/>
<path d="M11.0807 16.9408C11.0807 16.9408 11.118 16.1576 11.7967 15.0344M10.6549 16.6528C10.6549 16.6528 10.5493 16.2005 11.5065 14.8628C11.5065 14.8628 11.3952 14.5437 11.7357 14.3388M10.3257 16.2784C10.3257 16.2784 10.2958 15.7888 11.2326 14.6719C11.2326 14.6719 11.1496 14.3839 11.4889 14.1536M10.0519 15.9311C10.0519 15.9311 10.0869 15.4365 11.0028 14.4692C11.0028 14.4692 10.9576 14.1733 11.2851 13.9898M9.71533 15.6432C9.71533 15.6432 9.7814 15.0779 10.7475 14.2202C10.7475 14.2202 10.7142 13.9977 11.0361 13.7719" stroke="#010002" stroke-width="0.0564665" stroke-miterlimit="10"/>
<path d="M2.25146 6.521C2.25146 6.521 3.00981 6.96031 5.3735 7.39962M2.58801 7.12519C2.58801 7.12519 4.64169 7.79488 5.59824 7.87732M3.39661 7.87732C3.39661 7.87732 4.6016 8.25565 6.0127 8.4945M4.42486 8.66559C4.42486 8.66559 5.7857 8.99254 6.4362 9.04674M5.33849 9.30818C5.33849 9.30818 6.48984 9.54817 6.78121 9.57696M6.07143 9.90052C6.07143 9.90052 6.91165 10.0281 7.24593 10.0214M7.11493 10.411C7.11493 10.411 7.45485 10.3952 7.61804 10.3681M7.42945 10.957C7.42945 10.957 7.71855 10.8791 7.88852 10.7701M7.8552 11.5222C7.8552 11.5222 8.07768 11.4364 8.18497 11.2026M8.39785 11.7312C8.39785 11.7312 8.5695 11.577 8.5808 11.4054M9.04156 11.8656C9.04156 11.8656 8.97719 11.8097 9.02124 11.568M8.95856 11.2134C8.95856 11.2134 8.92468 11.1445 8.93597 11.0349M7.74453 7.75253C7.74453 7.75253 8.13302 7.90838 8.26233 8.12295C8.39163 8.33752 8.30694 8.54589 8.26233 8.66503C8.2403 8.72545 7.96644 9.25341 8.2883 9.63569M7.74961 10.0502C7.74961 10.0502 7.75187 10.0485 7.88852 10.005M6.92972 9.48888C6.92972 9.48888 7.16123 9.53518 7.38879 9.53744M6.60955 8.91744C6.60955 8.91744 6.88172 8.9451 7.13751 8.94115M6.20469 8.32115C6.20469 8.32115 6.59713 8.39907 6.80775 8.40303M5.87887 7.65597C5.87887 7.65597 6.36279 7.79375 6.72248 7.84288M7.52205 8.12747C7.52205 8.12747 7.17422 8.45102 7.59263 8.75142C7.59263 8.75142 7.41872 9.02416 7.76655 9.30875M7.67395 9.44314C7.67395 9.44314 7.622 9.96376 8.25894 9.96376C8.25894 9.96376 8.13641 10.4273 8.75133 10.4121C8.75133 10.4121 8.82135 10.7825 9.26517 10.708M8.28774 14.782C8.28774 14.782 8.18666 14.8046 7.96814 14.782M7.35378 15.0548C7.35378 15.0548 7.0466 15.0079 7.06128 15.6748M7.53899 15.2067C7.53899 15.2067 7.26117 15.1717 7.27924 15.8188M10.2195 13.6476C10.2195 13.6476 10.0862 13.6747 9.99359 13.7803C9.90099 13.8859 9.72368 13.8656 9.72368 13.8656C9.72368 13.8656 9.81967 13.7877 9.85355 13.5929C9.8863 13.3981 9.99415 13.3393 9.99415 13.3393M9.67625 13.1552C9.67625 13.1552 9.54299 13.1824 9.45038 13.2874C9.35778 13.393 9.17991 13.3732 9.17991 13.3732C9.17991 13.3732 9.2759 13.2953 9.30978 13.1005C9.34366 12.9057 9.45038 12.8469 9.45038 12.8469M9.58421 13.9113C9.58421 13.9113 9.46789 13.9356 9.38714 14.0271C9.30639 14.1191 9.15111 14.1022 9.15111 14.1022C9.15111 14.1022 9.23581 14.0344 9.26404 13.8639C9.2934 13.6939 9.38714 13.6426 9.38714 13.6426" stroke="#010002" stroke-width="0.0564665"/>
<path d="M15.7112 14.2901C15.7112 14.2901 15.9929 14.7735 16.3334 14.7814C16.3334 14.7814 16.919 14.7103 17.0844 14.8633C17.2002 14.97 17.3182 15.0581 17.3668 15.3308C17.4142 15.6036 17.2736 15.6623 17.2403 15.6741C17.2403 15.6741 17.2143 15.8689 17.0217 15.8181C17.0217 15.8181 17.0105 16.0214 16.6705 15.9237C16.3306 15.826 16.1889 15.8571 16.1228 15.5183C16.0556 15.1789 15.9941 15.1846 15.9336 15.1439C15.8523 15.0891 15.6993 15.0378 15.5858 14.9723C15.4842 14.9135 15.0934 14.7148 14.9602 14.6995C14.8269 14.6837 14.8563 14.2354 14.8563 14.2354H15.2007L15.3673 13.9897L15.7112 14.2901ZM14.627 11.8655C14.627 11.8655 14.9714 12.1461 15.2606 11.8655C15.2606 11.8655 15.3769 12.0055 15.6106 11.9648C15.8433 11.9236 15.8823 11.8011 15.9043 11.7311C15.9043 11.7311 16.1064 11.8485 16.277 11.7554C16.4464 11.6628 16.4464 11.5222 16.4464 11.5222C16.4464 11.5222 16.7428 11.5809 16.8947 11.3799C17.0466 11.1794 16.954 10.9806 16.8721 10.9569C16.8721 10.9569 17.1923 11.0411 17.2798 10.7661C17.3031 10.7047 17.3067 10.6375 17.2901 10.574C17.2735 10.5104 17.2375 10.4536 17.1872 10.4115C17.1872 10.4115 17.8614 10.4081 18.1381 10.1969C18.1381 10.1969 18.3679 10.0523 18.2307 9.90043C18.2307 9.90043 18.8377 9.80331 18.9896 9.56163C18.9896 9.56163 19.0562 9.495 19.0342 9.37812C19.0342 9.37812 19.0303 9.31205 18.9636 9.3081C18.9636 9.3081 19.6559 9.20081 19.8558 8.97269C19.8558 8.97269 19.9518 8.86766 19.9038 8.72706C19.9038 8.72706 19.8936 8.69035 19.8773 8.66494C19.8773 8.66494 20.5074 8.53225 20.818 8.25161C20.818 8.25161 20.9976 8.09181 20.9049 7.87724C20.9049 7.87724 21.958 7.58926 21.7141 7.1251C21.7141 7.1251 22.2065 6.9653 22.0507 6.52091C22.0507 6.52091 22.4578 6.31424 22.2805 5.98674C22.1105 5.67335 21.5882 6.04151 20.9704 6.2126C20.9704 6.2126 19.2968 6.73887 18.4729 6.87891L16.1318 10.3646L14.7659 10.8909L14.627 11.8655Z" fill="#F4C53D" stroke="#010002" stroke-width="0.0564665"/>
<path d="M14.6106 9.29859C14.6106 9.29859 14.8302 9.13371 15.2216 9.32739C15.2216 9.32739 15.3531 9.4183 15.457 9.31892C15.4795 9.29743 15.497 9.2712 15.5082 9.24214C15.5194 9.21307 15.524 9.18189 15.5216 9.15084C15.5193 9.11979 15.5101 9.08964 15.4948 9.06256C15.4794 9.03548 15.4582 9.01215 15.4327 8.99424C15.1408 8.77797 15.033 8.12917 15.4768 7.85983C15.4768 7.85983 16.1205 7.47811 18.4825 6.87731C18.4825 6.87731 18.6801 6.82197 18.7863 6.84851C18.8376 6.86161 18.8845 6.88837 18.9219 6.92595C18.9593 6.96353 18.9858 7.01053 18.9986 7.06196C18.9986 7.06196 19.1048 7.36292 18.749 7.53514C18.749 7.53514 18.5887 7.60855 18.4232 7.65598C18.4232 7.65598 18.605 7.61646 18.683 7.79602C18.7564 7.96768 18.6491 8.14329 18.3159 8.25622C18.3159 8.25622 18.2256 8.29123 18.0974 8.32229C18.0974 8.32229 18.3825 8.40416 18.2453 8.63455C18.2453 8.63455 18.1234 8.87622 17.692 8.91914C17.692 8.91914 18.0138 8.95415 17.7868 9.2602C17.7868 9.2602 17.6869 9.4279 17.3724 9.49002C17.3724 9.49002 17.6107 9.49792 17.4909 9.71193C17.3701 9.9265 17.0872 10.0473 16.8083 10.0671C16.8083 10.0671 16.6575 10.075 16.5519 10.0513C16.5519 10.0513 16.8173 10.184 16.6614 10.4059C16.6614 10.4059 16.5468 10.564 16.26 10.5561C16.26 10.5561 16.3339 10.8046 16.1239 10.8983C15.9601 10.9717 15.8241 10.8542 15.8241 10.8542C15.8241 10.8542 15.8794 11.1202 15.6405 11.2139C15.6405 11.2139 15.5214 11.2755 15.3435 11.2139C15.3435 11.2139 15.208 11.5183 14.7246 11.3043C14.2413 11.0914 14.6106 9.29916 14.6106 9.29916V9.29859ZM14.5824 12.0621C14.5824 12.0621 14.6529 12.4427 15.2148 12.9215C15.2148 12.9215 15.6484 13.3038 15.6377 13.7442C15.6264 14.1931 15.7151 14.2434 15.8856 14.3953C15.8856 14.3953 15.5338 14.4229 15.3638 14.1886C15.3638 14.1886 15.3712 14.5782 15.4231 14.6138C15.4231 14.6138 15.3125 14.6206 15.1527 14.4461C15.1527 14.4461 15.0567 14.3444 14.9675 14.3055C14.9675 14.3055 15.0714 14.5748 14.99 14.8244C14.99 14.8244 14.9641 14.7267 14.8269 14.6838C14.8269 14.6838 14.5784 14.633 14.4824 14.2744C14.4824 14.2744 14.4197 14.0373 14.0307 13.8261C14.0307 13.8261 13.5902 13.6601 13.6015 13.4432C13.6128 13.2258 14.5818 12.0621 14.5818 12.0621H14.5824Z" fill="#F4C53D" stroke="#010002" stroke-width="0.0564665"/>
<path d="M12.5405 16.9684C12.5405 16.9684 12.6415 17.4134 12.9922 17.3778C12.9922 17.3778 13.2401 17.3541 13.2214 16.9408C13.2214 16.9408 13.5879 17.1361 13.6472 16.6528C13.6472 16.6528 13.9804 16.7302 13.9764 16.2784C13.9764 16.2784 14.287 16.3326 14.2503 15.9312C14.2503 15.9312 14.5874 16.0215 14.5874 15.6432C14.5874 15.6432 15.3756 15.5122 13.7325 14.0135L12.2666 14.8865L12.5405 16.9684Z" fill="#F4C53D" stroke="#010002" stroke-width="0.0564665" stroke-miterlimit="10"/>
<path d="M12.3774 14.97C12.3774 14.97 12.6219 15.1868 12.7959 14.8627C12.7959 14.8627 13.033 14.8514 13.0697 14.6718C13.0697 14.6718 13.2623 14.6526 13.2995 14.4691C13.2995 14.4691 13.5621 14.442 13.5548 14.2201C13.5548 14.2201 14.0325 14.1828 13.5548 13.6419C13.0771 13.1009 12.2668 14.5397 12.2668 14.5397L12.3774 14.97ZM12.1053 14.8356C11.8681 14.8356 11.5999 16.315 11.6694 17.2066C11.6948 17.5302 11.8681 17.7944 12.1053 17.7944C12.3424 17.7944 12.5152 17.5302 12.5401 17.2066C12.6101 16.315 12.3419 14.8356 12.1053 14.8356Z" fill="#F4C53D" stroke="#010002" stroke-width="0.0564665"/>
<path d="M12.1053 15.3095C11.9245 15.3095 11.7779 15.0922 11.7779 14.8241C11.7779 14.5561 11.9245 14.3387 12.1053 14.3387C12.2861 14.3387 12.4326 14.5561 12.4326 14.8241C12.4326 15.0922 12.2861 15.3095 12.1053 15.3095Z" fill="#F4C53D" stroke="#010002" stroke-width="0.0564665"/>
<path d="M13.2216 16.9408C13.2216 16.9408 13.1843 16.1576 12.5056 15.0344M13.6473 16.6528C13.6473 16.6528 13.7529 16.2005 12.7958 14.8628C12.7958 14.8628 12.907 14.5437 12.5665 14.3388M13.9765 16.2784C13.9765 16.2784 14.0064 15.7888 13.0697 14.6719C13.0697 14.6719 13.1527 14.3839 12.8133 14.1536M14.2504 15.9311C14.2504 15.9311 14.2154 15.4365 13.2995 14.4692C13.2995 14.4692 13.3447 14.1733 13.0171 13.9898M14.5869 15.6432C14.5869 15.6432 14.5208 15.0779 13.5547 14.2202C13.5547 14.2202 13.588 13.9977 13.2662 13.7719" stroke="#010002" stroke-width="0.0564665" stroke-miterlimit="10"/>
<path d="M22.0505 6.521C22.0505 6.521 21.2922 6.96031 18.9285 7.39962M21.714 7.12519C21.714 7.12519 19.6603 7.79488 18.7038 7.87732M20.9054 7.87732C20.9054 7.87732 19.7004 8.25565 18.2893 8.4945M19.8771 8.66559C19.8771 8.66559 18.5163 8.99254 17.8658 9.04674M18.9635 9.30818C18.9635 9.30818 17.8122 9.54817 17.5208 9.57696M18.2306 9.90052C18.2306 9.90052 17.3904 10.0281 17.0561 10.0214M17.1871 10.411C17.1871 10.411 16.8471 10.3952 16.684 10.3681M16.8726 10.957C16.8726 10.957 16.5834 10.8791 16.4135 10.7701M16.4468 11.5222C16.4468 11.5222 16.2243 11.4364 16.117 11.2026M15.9042 11.7312C15.9042 11.7312 15.7325 11.577 15.7212 11.4054M15.2604 11.8656C15.2604 11.8656 15.3248 11.8097 15.2808 11.568M15.3434 11.2134C15.3434 11.2134 15.3773 11.1445 15.366 11.0349M16.5575 7.75253C16.5575 7.75253 16.169 7.90838 16.0397 8.12295C15.9104 8.33752 15.9951 8.54589 16.0397 8.66503C16.0617 8.72545 16.3356 9.25341 16.0137 9.63569M16.5524 10.0502C16.5524 10.0502 16.5501 10.0485 16.4135 10.005M17.3723 9.48888C17.3723 9.48888 17.1408 9.53518 16.9132 9.53744M17.6925 8.91744C17.6925 8.91744 17.4203 8.9451 17.1645 8.94115M18.0973 8.32115C18.0973 8.32115 17.7049 8.39907 17.4943 8.40303M18.4231 7.65597C18.4231 7.65597 17.9392 7.79375 17.5795 7.84288M16.78 8.12747C16.78 8.12747 17.1278 8.45102 16.7094 8.75142C16.7094 8.75142 16.8833 9.02416 16.5355 9.30875M16.6281 9.44314C16.6281 9.44314 16.68 9.96376 16.0431 9.96376C16.0431 9.96376 16.1656 10.4273 15.5507 10.4121C15.5507 10.4121 15.4807 10.7825 15.0368 10.708M16.0143 14.782C16.0143 14.782 16.1153 14.8046 16.3339 14.782M16.9482 15.0548C16.9482 15.0548 17.2554 15.0079 17.2407 15.6748M16.763 15.2067C16.763 15.2067 17.0408 15.1717 17.0228 15.8188M14.0825 13.6476C14.0825 13.6476 14.2158 13.6747 14.3084 13.7803C14.401 13.8859 14.5783 13.8656 14.5783 13.8656C14.5783 13.8656 14.4823 13.7877 14.4484 13.5929C14.4157 13.3981 14.3078 13.3393 14.3078 13.3393M14.6258 13.1552C14.6258 13.1552 14.759 13.1824 14.8516 13.2874C14.9442 13.393 15.1221 13.3732 15.1221 13.3732C15.1221 13.3732 15.0261 13.2953 14.9922 13.1005C14.9583 12.9057 14.8516 12.8469 14.8516 12.8469M14.7178 13.9113C14.7178 13.9113 14.8341 13.9356 14.9149 14.0271C14.9956 14.1191 15.1509 14.1022 15.1509 14.1022C15.1509 14.1022 15.0662 14.0344 15.038 13.8639C15.0086 13.6939 14.9149 13.6426 14.9149 13.6426" stroke="#010002" stroke-width="0.0564665"/>
<path d="M17.8144 12.8816L17.4909 12.6941L16.9564 15.0148L16.7361 14.8554L17.2565 12.6331L16.8908 12.6425L17.7581 11.0579L17.8144 12.8863V12.8816ZM19.0803 13.5099L18.8787 13.1817L17.2659 15.0898L17.0924 14.8929L18.7005 13.0176L18.3723 12.8394L19.8445 11.8689L19.0803 13.5099Z" fill="#0081C6" stroke="#010002" stroke-width="0.0562602" stroke-miterlimit="10"/>
<path d="M18.7568 12.4456L18.4896 12.1737L17.0455 14.9492L16.8252 14.8179L18.2786 12.0518L17.9223 11.958L19.1459 10.6641L18.7568 12.4456ZM16.6892 15.7978L16.5814 16.2385L16.8768 16.5339L16.4548 18.2967L16.0844 17.7997L15.5359 18.0576L15.9578 16.2901L16.3423 16.1823L16.4407 15.7415C16.4407 15.7415 16.5579 15.6947 16.6892 15.7978Z" fill="#0081C6" stroke="#010002" stroke-width="0.0562602" stroke-miterlimit="10"/>
<path d="M16.7877 15.5025L16.5767 15.901L16.7877 16.2667L15.9485 17.8607L15.7141 17.2747L15.1187 17.3731L15.9579 15.7791H16.3564L16.5627 15.3853C16.5627 15.3853 16.7127 15.3853 16.7877 15.5025Z" fill="#0081C6" stroke="#010002" stroke-width="0.0562602" stroke-miterlimit="10"/>
<path d="M16.8251 15.6197L16.2578 16.3417L16.3891 16.7449L15.2311 18.0998L15.1232 17.4763L14.5231 17.4294L15.6812 16.0745L16.0703 16.1682L16.6704 15.4087C16.6704 15.4087 16.8345 15.4884 16.8251 15.6197ZM2.46938 13.9319C2.60535 13.8756 2.7038 13.824 2.7038 13.6787C2.7038 13.6474 2.68349 13.5724 2.64285 13.4537L1.738 10.6828C1.70725 10.5804 1.66966 10.4802 1.62548 10.3828C1.58329 10.3031 1.50358 10.2703 1.39575 10.2281H2.54909C2.4225 10.2843 2.30998 10.3312 2.31467 10.4625C2.31467 10.5188 2.32717 10.5922 2.35218 10.6828L3.05074 12.8489L3.74462 10.6782C3.77587 10.5844 3.7915 10.5125 3.7915 10.4625C3.78681 10.3218 3.66491 10.275 3.54771 10.2234H4.66822C4.56508 10.2656 4.48069 10.2937 4.43849 10.3781C4.41661 10.4125 4.37911 10.5125 4.32597 10.6782L3.42112 13.4443C3.3941 13.5205 3.37371 13.599 3.36017 13.6787C3.36017 13.6787 3.31798 13.8522 3.59459 13.9272L2.46938 13.9319ZM21.7948 13.6506V10.5094C21.7966 10.4669 21.7869 10.4248 21.7666 10.3875C21.7526 10.3547 21.6729 10.275 21.5604 10.2281H22.6012C22.5179 10.2569 22.4458 10.311 22.3949 10.3828C22.3738 10.4215 22.364 10.4654 22.3668 10.5094V13.6506C22.3668 13.7006 22.3761 13.7428 22.3949 13.7772C22.4136 13.8053 22.4886 13.8803 22.6012 13.9319H21.5604C21.6729 13.885 21.7479 13.8053 21.7666 13.7772C21.7854 13.7459 21.7948 13.7021 21.7948 13.6459V13.6506Z" fill="#0081C6" stroke="#010002" stroke-width="0.0562602" stroke-miterlimit="10"/>
<path d="M12.1978 14.7147C12.1978 14.7147 14.9733 13.4817 14.9827 10.6359H9.4082C9.41758 13.4817 12.1978 14.7147 12.1978 14.7147Z" fill="white" stroke="#010002" stroke-width="0.0562602"/>
<path d="M9.8396 10.6359V12.4549C9.8396 12.4549 10.0506 12.8769 10.2662 13.1441V10.6359H9.8396ZM10.6976 10.6359V13.6364C10.6976 13.6364 10.9648 13.899 11.1242 14.0255V10.6359H10.6976ZM11.5508 10.6359V14.3397C11.5508 14.3397 11.8603 14.5413 11.9822 14.6069V10.6359H11.5508ZM14.5514 10.6359V12.4549C14.5514 12.4549 14.3404 12.8769 14.1248 13.1441V10.6359H14.5514ZM13.6934 10.6359V13.6364C13.6934 13.6364 13.4262 13.899 13.2715 14.0255V10.6359H13.6934ZM12.8401 10.6359V14.3397C12.8401 14.3397 12.5307 14.5413 12.4088 14.6069V10.6359H12.8401Z" fill="#A60032" stroke="#010002" stroke-width="0.0562602"/>
<path d="M14.9827 8.56371C14.9827 8.56371 13.6183 9.27634 12.1978 8.50745C10.7725 9.27634 9.4082 8.56371 9.4082 8.56371V10.636H14.9827V8.56371Z" fill="#162667" stroke="#010002" stroke-width="0.0562602" stroke-miterlimit="10"/>
</g>
<defs>
<clipPath id="clip0_720_53507">
<rect width="24.0044" height="24.0044" fill="white" transform="translate(0.0131836 0.0964355)"/>
</clipPath>
</defs>
</svg>
