<svg width="25" height="25" viewBox="0 0 25 25" fill="none" xmlns="http://www.w3.org/2000/svg">
<g clip-path="url(#clip0_720_53500)">
<path d="M0.0180664 16.0978H24.0224V24.1008H0.0180664V16.0978Z" fill="#1EB53A"/>
<path d="M0.0180664 0.0964355H24.0224V8.09945H0.0180664V0.0964355Z" fill="#0099B5"/>
<path d="M0.0180664 7.776H24.0224V16.4213H0.0180664V7.776Z" fill="#CE1126"/>
<path d="M0.0180664 8.25427H24.0224V15.9432H0.0180664V8.25427Z" fill="white"/>
<path d="M6.7412 6.81491C8.33103 6.81491 9.61985 5.5261 9.61985 3.93627C9.61985 2.34643 8.33103 1.05762 6.7412 1.05762C5.15136 1.05762 3.86255 2.34643 3.86255 3.93627C3.86255 5.5261 5.15136 6.81491 6.7412 6.81491Z" fill="white"/>
<path d="M7.6975 6.81491C9.28733 6.81491 10.5761 5.5261 10.5761 3.93627C10.5761 2.34643 9.28733 1.05762 7.6975 1.05762C6.10766 1.05762 4.81885 2.34643 4.81885 3.93627C4.81885 5.5261 6.10766 6.81491 7.6975 6.81491Z" fill="#0099B5"/>
<path d="M13.0747 5.66211L12.8923 6.20914L13.1706 6.30511" fill="white"/>
<path d="M13.075 5.66211L13.2573 6.20914L12.979 6.30511" fill="white"/>
<path d="M13.623 6.06014L13.0464 6.05576L13.0411 6.35011" fill="white"/>
<path d="M13.6231 6.06034L13.1592 6.40281L12.9819 6.16777" fill="white"/>
<path d="M12.5268 6.06034L12.9907 6.40281L13.168 6.16777" fill="white"/>
<path d="M12.5269 6.06014L13.1035 6.05576L13.1088 6.35011" fill="white"/>
<path d="M13.413 6.70423L13.239 6.15449L12.9574 6.24043" fill="white"/>
<path d="M13.4129 6.70434L12.9438 6.36896L13.1126 6.12773" fill="white"/>
<path d="M12.7363 6.70434L13.2053 6.36896L13.0366 6.12773" fill="white"/>
<path d="M12.7359 6.70435L12.9099 6.15461L13.1915 6.24056" fill="white"/>
<path d="M13.0747 3.35767L12.8923 3.9047L13.1706 4.00067" fill="white"/>
<path d="M13.075 3.35767L13.2573 3.9047L12.979 4.00067" fill="white"/>
<path d="M13.623 3.7557L13.0464 3.75132L13.0411 4.04567" fill="white"/>
<path d="M13.6231 3.7559L13.1592 4.09836L12.9819 3.86333" fill="white"/>
<path d="M12.5268 3.7559L12.9907 4.09836L13.168 3.86333" fill="white"/>
<path d="M12.5269 3.7557L13.1035 3.75132L13.1088 4.04567" fill="white"/>
<path d="M13.413 4.39978L13.239 3.85004L12.9574 3.93599" fill="white"/>
<path d="M13.4129 4.3999L12.9438 4.06452L13.1126 3.82329" fill="white"/>
<path d="M12.7363 4.3999L13.2053 4.06452L13.0366 3.82329" fill="white"/>
<path d="M12.7359 4.3999L12.9099 3.85016L13.1915 3.93611" fill="white"/>
<path d="M13.0747 1.05334L12.8923 1.60038L13.1706 1.69635" fill="white"/>
<path d="M13.075 1.05334L13.2573 1.60038L12.979 1.69635" fill="white"/>
<path d="M13.623 1.45125L13.0464 1.44687L13.0411 1.74123" fill="white"/>
<path d="M13.6231 1.45146L13.1592 1.79392L12.9819 1.55888" fill="white"/>
<path d="M12.5268 1.45146L12.9907 1.79392L13.168 1.55888" fill="white"/>
<path d="M12.5269 1.45125L13.1035 1.44687L13.1088 1.74123" fill="white"/>
<path d="M13.413 2.09546L13.239 1.54572L12.9574 1.63167" fill="white"/>
<path d="M13.4129 2.09546L12.9438 1.76008L13.1126 1.51885" fill="white"/>
<path d="M12.7363 2.09546L13.2053 1.76008L13.0366 1.51885" fill="white"/>
<path d="M12.7359 2.09546L12.9099 1.54572L13.1915 1.63167" fill="white"/>
<path d="M15.3781 5.66211L15.1958 6.20914L15.4741 6.30511" fill="white"/>
<path d="M15.3784 5.66211L15.5608 6.20914L15.2825 6.30511" fill="white"/>
<path d="M15.9262 6.06026L15.3496 6.05588L15.3443 6.35023" fill="white"/>
<path d="M15.9263 6.06034L15.4624 6.40281L15.2851 6.16777" fill="white"/>
<path d="M14.8308 6.06022L15.2947 6.40269L15.472 6.16765" fill="white"/>
<path d="M14.8309 6.06002L15.4075 6.05564L15.4127 6.34999" fill="white"/>
<path d="M15.7184 6.70423L15.5444 6.15449L15.2629 6.24043" fill="white"/>
<path d="M15.7183 6.70434L15.2493 6.36896L15.418 6.12773" fill="white"/>
<path d="M15.0405 6.70434L15.5095 6.36896L15.3408 6.12773" fill="white"/>
<path d="M15.0406 6.70435L15.2146 6.15461L15.4962 6.24056" fill="white"/>
<path d="M15.3781 3.35767L15.1958 3.9047L15.4741 4.00067" fill="white"/>
<path d="M15.3784 3.35767L15.5608 3.9047L15.2825 4.00067" fill="white"/>
<path d="M15.9262 3.75582L15.3496 3.75144L15.3443 4.04579" fill="white"/>
<path d="M15.9263 3.7559L15.4624 4.09836L15.2851 3.86333" fill="white"/>
<path d="M14.8308 3.7559L15.2947 4.09836L15.472 3.86333" fill="white"/>
<path d="M14.8309 3.7557L15.4075 3.75132L15.4127 4.04567" fill="white"/>
<path d="M15.718 4.39978L15.5439 3.85004L15.2624 3.93599" fill="white"/>
<path d="M15.7178 4.39978L15.2488 4.0644L15.4175 3.82317" fill="white"/>
<path d="M15.0407 4.3999L15.5098 4.06452L15.341 3.82329" fill="white"/>
<path d="M15.0403 4.3999L15.2144 3.85016L15.4959 3.93611" fill="white"/>
<path d="M15.3781 1.05334L15.1958 1.60038L15.4741 1.69635" fill="white"/>
<path d="M15.3784 1.05334L15.5608 1.60038L15.2825 1.69635" fill="white"/>
<path d="M15.9262 1.45137L15.3496 1.447L15.3443 1.74135" fill="white"/>
<path d="M15.9263 1.45146L15.4624 1.79392L15.2851 1.55888" fill="white"/>
<path d="M14.8308 1.45146L15.2947 1.79392L15.472 1.55888" fill="white"/>
<path d="M14.8309 1.45125L15.4075 1.44687L15.4127 1.74123" fill="white"/>
<path d="M15.7184 2.09546L15.5444 1.54572L15.2629 1.63167" fill="white"/>
<path d="M15.7181 2.09546L15.249 1.76008L15.4178 1.51885" fill="white"/>
<path d="M15.0407 2.09546L15.5098 1.76008L15.341 1.51885" fill="white"/>
<path d="M15.0403 2.09546L15.2144 1.54572L15.4959 1.63167" fill="white"/>
<path d="M17.6816 5.66211L17.4993 6.20914L17.7776 6.30511" fill="white"/>
<path d="M17.6817 5.66211L17.864 6.20914L17.5857 6.30511" fill="white"/>
<path d="M18.2297 6.06026L17.6531 6.05588L17.6478 6.35023" fill="white"/>
<path d="M18.2298 6.06034L17.7659 6.40281L17.5886 6.16777" fill="white"/>
<path d="M17.1342 6.06022L17.5981 6.40269L17.7754 6.16765" fill="white"/>
<path d="M17.1343 6.06002L17.7109 6.05564L17.7162 6.34999" fill="white"/>
<path d="M18.0219 6.70423L17.8479 6.15449L17.5663 6.24043" fill="white"/>
<path d="M18.0218 6.70434L17.5527 6.36896L17.7215 6.12773" fill="white"/>
<path d="M17.3442 6.70434L17.8132 6.36896L17.6445 6.12773" fill="white"/>
<path d="M17.3441 6.70435L17.5181 6.15461L17.7996 6.24056" fill="white"/>
<path d="M17.6816 3.35767L17.4993 3.9047L17.7776 4.00067" fill="white"/>
<path d="M17.6817 3.35767L17.864 3.9047L17.5857 4.00067" fill="white"/>
<path d="M18.2297 3.75582L17.6531 3.75144L17.6478 4.04579" fill="white"/>
<path d="M18.2298 3.7559L17.7659 4.09836L17.5886 3.86333" fill="white"/>
<path d="M17.1342 3.7559L17.5981 4.09836L17.7754 3.86333" fill="white"/>
<path d="M17.1343 3.7557L17.7109 3.75132L17.7162 4.04567" fill="white"/>
<path d="M18.0219 4.3999L17.8479 3.85016L17.5663 3.93611" fill="white"/>
<path d="M18.0213 4.3999L17.5522 4.06452L17.721 3.82329" fill="white"/>
<path d="M17.3447 4.3999L17.8137 4.06452L17.645 3.82329" fill="white"/>
<path d="M17.3445 4.3999L17.5186 3.85016L17.8001 3.93611" fill="white"/>
<path d="M17.6816 1.05334L17.4993 1.60038L17.7776 1.69635" fill="white"/>
<path d="M17.6817 1.05334L17.864 1.60038L17.5857 1.69635" fill="white"/>
<path d="M18.2297 1.45137L17.6531 1.447L17.6478 1.74135" fill="white"/>
<path d="M18.2298 1.45146L17.7659 1.79392L17.5886 1.55888" fill="white"/>
<path d="M17.1342 1.45146L17.5981 1.79392L17.7754 1.55888" fill="white"/>
<path d="M17.1343 1.45125L17.7109 1.44687L17.7162 1.74123" fill="white"/>
<path d="M18.0219 2.09546L17.8479 1.54572L17.5663 1.63167" fill="white"/>
<path d="M18.0218 2.09546L17.5527 1.76008L17.7215 1.51885" fill="white"/>
<path d="M17.3447 2.09546L17.8137 1.76008L17.645 1.51885" fill="white"/>
<path d="M17.3445 2.09546L17.5186 1.54572L17.8001 1.63167" fill="white"/>
<path d="M8.46457 5.66211L8.28223 6.20914L8.56054 6.30511" fill="white"/>
<path d="M8.46487 5.66211L8.64722 6.20914L8.3689 6.30511" fill="white"/>
<path d="M9.01289 6.06014L8.43628 6.05576L8.43101 6.35011" fill="white"/>
<path d="M9.01299 6.06034L8.54908 6.40281L8.3718 6.16777" fill="white"/>
<path d="M7.91743 6.06022L8.38134 6.40269L8.55862 6.16765" fill="white"/>
<path d="M7.91753 6.06002L8.49414 6.05564L8.49941 6.34999" fill="white"/>
<path d="M8.80487 6.70423L8.63085 6.15449L8.34928 6.24043" fill="white"/>
<path d="M8.80475 6.70434L8.33569 6.36896L8.50444 6.12773" fill="white"/>
<path d="M8.12714 6.70434L8.5962 6.36896L8.42744 6.12773" fill="white"/>
<path d="M8.12701 6.70423L8.30103 6.15449L8.5826 6.24043" fill="white"/>
<path d="M10.771 5.66211L10.5886 6.20914L10.8669 6.30511" fill="white"/>
<path d="M10.7713 5.66211L10.9536 6.20914L10.6753 6.30511" fill="white"/>
<path d="M11.3193 6.06014L10.7427 6.05576L10.7374 6.35011" fill="white"/>
<path d="M11.3194 6.06034L10.8555 6.40281L10.6782 6.16777" fill="white"/>
<path d="M10.2229 6.06034L10.6868 6.40281L10.864 6.16777" fill="white"/>
<path d="M10.2229 6.06014L10.7996 6.05576L10.8048 6.35011" fill="white"/>
<path d="M11.1093 6.70423L10.9353 6.15449L10.6537 6.24043" fill="white"/>
<path d="M11.1092 6.70434L10.6401 6.36896L10.8089 6.12773" fill="white"/>
<path d="M10.4316 6.70434L10.9006 6.36896L10.7319 6.12773" fill="white"/>
<path d="M10.4315 6.70423L10.6055 6.15449L10.887 6.24043" fill="white"/>
<path d="M10.771 3.35767L10.5886 3.9047L10.8669 4.00067" fill="white"/>
<path d="M10.7713 3.35767L10.9536 3.9047L10.6753 4.00067" fill="white"/>
<path d="M11.3193 3.7557L10.7427 3.75132L10.7374 4.04567" fill="white"/>
<path d="M11.3194 3.7559L10.8555 4.09836L10.6782 3.86333" fill="white"/>
<path d="M10.2229 3.7559L10.6868 4.09836L10.864 3.86333" fill="white"/>
<path d="M10.2229 3.7557L10.7996 3.75132L10.8048 4.04567" fill="white"/>
<path d="M11.1093 4.39978L10.9353 3.85004L10.6537 3.93599" fill="white"/>
<path d="M11.1092 4.3999L10.6401 4.06452L10.8089 3.82329" fill="white"/>
<path d="M10.4316 4.40002L10.9006 4.06464L10.7319 3.82341" fill="white"/>
<path d="M10.4315 4.3999L10.6055 3.85016L10.887 3.93611" fill="white"/>
</g>
<defs>
<clipPath id="clip0_720_53500">
<rect width="24.0044" height="24.0044" fill="white" transform="translate(0.0175781 0.0964355)"/>
</clipPath>
</defs>
</svg>
