<svg width="25" height="25" viewBox="0 0 25 25" fill="none" xmlns="http://www.w3.org/2000/svg">
<g clip-path="url(#clip0_720_53282)">
<path d="M0.0224609 0.0964355H24.0268V24.1008H0.0224609V0.0964355Z" fill="#009543"/>
<path d="M0.0224609 0.0964355H24.0268V12.0986H0.0224609V0.0964355Z" fill="#D21034"/>
<mask id="mask0_720_53282" style="mask-type:luminance" maskUnits="userSpaceOnUse" x="0" y="0" width="25" height="25">
<path d="M0.0234375 0.0964355V24.1009L11.2255 14.2464H24.0279V9.95091H11.2255L0.0234375 0.0964355Z" fill="white"/>
</mask>
<g mask="url(#mask0_720_53282)">
<path d="M0.0234375 0.0964355L11.2255 9.95091H24.0279V14.2464H11.2255L0.0234375 24.1009" fill="black"/>
<path d="M0.0234375 0.0964355L11.2255 9.95091H24.0279V14.2464H11.2255L0.0234375 24.1009" stroke="#FDCE12" stroke-width="4.03847"/>
<path d="M0.0234375 0.0964355L11.2255 9.95091H24.0279M24.0279 14.2464H11.2255L0.0234375 24.1009" stroke="black" stroke-width="2.2028"/>
</g>
<path d="M3.19252 14.1589V15.3811C4.2563 15.3811 6.34763 14.5663 6.34763 11.9363C6.34763 9.30627 4.11597 8.81738 3.45055 8.81738C2.78512 8.81738 0.720947 9.29721 0.720947 11.4429C0.720947 13.5976 2.74438 13.7968 3.14273 13.7968C3.54108 13.7968 5.03489 13.4346 4.86288 11.8231C4.81828 12.2164 4.63009 12.5794 4.33438 12.8426C4.03867 13.1057 3.65625 13.2504 3.26043 13.249C2.17402 13.249 1.49501 12.4433 1.49501 11.6466C1.49501 10.8499 2.15591 9.78157 3.30117 9.78157C4.44642 9.78157 5.28386 10.8001 5.28386 11.8231C5.28386 12.8461 4.47811 14.1544 3.19252 14.1544V14.1589Z" fill="#FDCE12"/>
<path d="M2.25562 12.5599L2.31896 12.6051C2.31896 12.6051 2.8257 11.4514 4.17853 10.6324C4.0066 10.7229 3.1017 11.1754 2.25562 12.5599Z" fill="#FDCE12" stroke="#FDCE12" stroke-width="0.0362136"/>
<path d="M2.38685 12.3618C2.38685 12.3618 2.23294 12.0449 2.36874 11.9C2.50454 11.7552 2.44569 12.2757 2.44569 12.2757L2.50454 12.1897C2.50454 12.1897 2.41401 11.8004 2.51359 11.719C2.61318 11.6375 2.56791 12.0947 2.56791 12.0947L2.63129 12.0132C2.63129 12.0132 2.56339 11.633 2.66297 11.5605C2.76256 11.4881 2.70371 11.9227 2.70371 11.9227L2.77614 11.8321C2.77614 11.8321 2.72182 11.47 2.84404 11.384C2.96626 11.298 2.85762 11.728 2.85762 11.728L2.9391 11.6375C2.9391 11.6375 2.90289 11.307 3.007 11.2301C3.11112 11.1576 3.02511 11.5469 3.02511 11.5469L3.09754 11.4655C3.09754 11.4655 3.0749 11.1576 3.17449 11.0852C3.27408 11.0128 3.18354 11.3795 3.18354 11.3795L3.2605 11.307C3.2605 11.307 3.24239 10.9947 3.36914 10.9358C3.49589 10.877 3.34651 11.2255 3.34651 11.2255L3.43704 11.1531C3.43704 11.1531 3.45967 10.791 3.56831 10.7593C3.67695 10.7231 3.52305 11.0762 3.52305 11.0762L3.6 11.0128C3.6 11.0128 3.64074 10.705 3.75844 10.6688C3.88066 10.628 3.68601 10.9494 3.68601 10.9494L3.76296 10.8906C3.76296 10.8906 3.84897 10.5828 3.96214 10.5465C4.07078 10.5149 3.84444 10.8408 3.84444 10.8408L3.9214 10.7865C3.9214 10.7865 4.04362 10.5058 4.14773 10.4877C4.24279 10.4696 4.03004 10.7186 4.03004 10.7186L4.1251 10.6642C4.1251 10.6642 4.28353 10.3745 4.34238 10.4605C4.40123 10.5465 4.11604 10.6823 4.11604 10.6823L4.02551 10.7367C4.02551 10.7367 4.36501 10.5737 4.40575 10.6552C4.44649 10.7367 3.9395 10.791 3.9395 10.791L3.85802 10.8453C3.85802 10.8453 4.19752 10.7548 4.15678 10.8408C4.11604 10.9268 3.77654 10.9087 3.77654 10.9087L3.69959 10.963C3.69959 10.963 4.03909 10.8815 3.99382 10.963C3.94856 11.0354 3.61811 11.0309 3.61811 11.0309L3.53663 11.0988C3.53663 11.0988 3.86708 11.0083 3.81728 11.1124C3.76749 11.2165 3.39177 11.2074 3.39177 11.2074L3.30124 11.298C3.30124 11.298 3.64979 11.1758 3.61811 11.2708C3.59095 11.3613 3.1926 11.4066 3.1926 11.4066L3.10206 11.4972C3.10206 11.4972 3.47778 11.3749 3.36461 11.4881C3.25597 11.6058 2.97984 11.633 2.97984 11.633L2.87573 11.7688C2.87573 11.7688 3.24692 11.5424 3.1926 11.6692C3.13828 11.7959 2.77614 11.8819 2.77614 11.8819L2.70371 11.9725C2.70371 11.9725 3.03869 11.7778 3.00248 11.8819C2.97079 11.9951 2.61318 12.1083 2.61318 12.1083L2.55433 12.1897C2.55433 12.1897 2.94816 11.9543 2.91647 12.0766C2.88026 12.1943 2.50454 12.2803 2.50454 12.2803L2.45927 12.3572C2.45927 12.3572 2.82141 12.1445 2.82141 12.2486C2.83046 12.3482 2.3959 12.4478 2.3959 12.4478L2.38685 12.3618Z" fill="#FDCE12"/>
<path d="M4.41064 12.56L4.3473 12.6053C4.3473 12.6053 3.84056 11.4515 2.48773 10.6326C2.65966 10.7231 3.56456 11.1755 4.41064 12.56Z" fill="#FDCE12" stroke="#FDCE12" stroke-width="0.0362136"/>
<path d="M4.27941 12.3618C4.27941 12.3618 4.43332 12.0449 4.29752 11.9C4.16172 11.7552 4.22057 12.2757 4.22057 12.2757L4.16172 12.1897C4.16172 12.1897 4.25225 11.8004 4.15267 11.719C4.05308 11.6375 4.09835 12.0947 4.09835 12.0947L4.03497 12.0132C4.03497 12.0132 4.10287 11.633 4.00329 11.5605C3.9037 11.4881 3.96255 11.9227 3.96255 11.9227L3.89012 11.8321C3.89012 11.8321 3.94444 11.47 3.82222 11.384C3.7 11.298 3.80864 11.728 3.80864 11.728L3.72716 11.6375C3.72716 11.6375 3.76337 11.307 3.65926 11.2301C3.55514 11.1576 3.64115 11.5469 3.64115 11.5469L3.56872 11.4655C3.56872 11.4655 3.59136 11.1576 3.49177 11.0852C3.39218 11.0128 3.48272 11.3795 3.48272 11.3795L3.40576 11.307C3.40576 11.307 3.42387 10.9947 3.29712 10.9358C3.17037 10.877 3.31975 11.2255 3.31975 11.2255L3.22922 11.1531C3.22922 11.1531 3.20659 10.791 3.09795 10.7593C2.98931 10.7231 3.14321 11.0762 3.14321 11.0762L3.06626 11.0128C3.06626 11.0128 3.02552 10.705 2.90782 10.6688C2.7856 10.628 2.98025 10.9494 2.98025 10.9494L2.9033 10.8906C2.9033 10.8906 2.81729 10.5828 2.70412 10.5465C2.59548 10.5149 2.82182 10.8408 2.82182 10.8408L2.74486 10.7865C2.74486 10.7865 2.62264 10.5058 2.51853 10.4877C2.42347 10.4696 2.63622 10.7186 2.63622 10.7186L2.54116 10.6642C2.54116 10.6642 2.38273 10.3745 2.32388 10.4605C2.26503 10.5465 2.55022 10.6823 2.55022 10.6823L2.64075 10.7367C2.64075 10.7367 2.30125 10.5737 2.26051 10.6552C2.21977 10.7367 2.72676 10.791 2.72676 10.791L2.80824 10.8453C2.80824 10.8453 2.46873 10.7548 2.50948 10.8408C2.55022 10.9268 2.88972 10.9087 2.88972 10.9087L2.96667 10.963C2.96667 10.963 2.62717 10.8815 2.67244 10.963C2.7177 11.0354 3.04815 11.0309 3.04815 11.0309L3.12963 11.0988C3.12963 11.0988 2.79918 11.0083 2.84898 11.1124C2.89877 11.2165 3.27449 11.2074 3.27449 11.2074L3.36502 11.298C3.36502 11.298 3.01647 11.1758 3.04815 11.2708C3.07531 11.3613 3.47366 11.4066 3.47366 11.4066L3.5642 11.4972C3.5642 11.4972 3.18848 11.3749 3.30165 11.4881C3.41029 11.6058 3.68642 11.633 3.68642 11.633L3.79053 11.7688C3.79053 11.7688 3.41934 11.5424 3.47366 11.6692C3.52798 11.7959 3.89012 11.8819 3.89012 11.8819L3.96255 11.9725C3.96255 11.9725 3.62757 11.7778 3.66378 11.8819C3.69547 11.9951 4.05308 12.1083 4.05308 12.1083L4.11193 12.1897C4.11193 12.1897 3.7181 11.9543 3.74979 12.0766C3.786 12.1943 4.16172 12.2803 4.16172 12.2803L4.20699 12.3572C4.20699 12.3572 3.84485 12.1445 3.84485 12.2486C3.8358 12.3482 4.27036 12.4478 4.27036 12.4478L4.27941 12.3618Z" fill="#FDCE12"/>
</g>
<defs>
<clipPath id="clip0_720_53282">
<rect width="24.0044" height="24.0044" fill="white" transform="translate(0.0219727 0.0964355)"/>
</clipPath>
</defs>
</svg>
