<svg width="25" height="25" viewBox="0 0 25 25" fill="none" xmlns="http://www.w3.org/2000/svg">
<g clip-path="url(#clip0_720_53304)">
<path d="M0.0263672 0.0964355H24.0307V24.1008H0.0263672V0.0964355Z" fill="#CF142B"/>
<path d="M0.0263672 0.0964355H24.0307V16.0978H0.0263672V0.0964355Z" fill="#00247D"/>
<path d="M0.0263672 0.0964355H24.0307V8.09945H0.0263672V0.0964355Z" fill="#FFCC00"/>
<path d="M13.4671 8.82574L13.0053 9.71844L13.5252 9.99276L13.4671 8.82574Z" fill="white"/>
<path d="M13.4675 8.82587L13.5961 9.82269L13.0138 9.90266L13.4675 8.82587Z" fill="white"/>
<path d="M14.2837 9.67114L13.2919 9.50778L13.1917 10.087L14.2837 9.67114Z" fill="white"/>
<path d="M14.2837 9.67127L13.3754 10.1017L13.1194 9.57252L14.2837 9.67127Z" fill="white"/>
<path d="M12.4108 9.34113L13.1171 10.0562L13.5386 9.64655L12.4108 9.34113Z" fill="white"/>
<path d="M12.4108 9.34112L13.3986 9.5268L13.2947 10.1053L12.4108 9.34112Z" fill="white"/>
<path d="M13.7313 10.7089L13.5802 9.71527L12.9984 9.79892L13.7313 10.7089Z" fill="white"/>
<path d="M13.7311 10.709L13.0411 9.97821L13.4652 9.57122L13.7311 10.709Z" fill="white"/>
<path d="M12.5742 10.5051L13.4726 10.0543L13.2132 9.52679L12.5742 10.5051Z" fill="white"/>
<path d="M12.574 10.5048L13.0558 9.62278L13.5739 9.90037L12.574 10.5048Z" fill="white"/>
<path d="M16.1422 9.79992L15.4029 10.4808L15.7976 10.9164L16.1422 9.79992Z" fill="white"/>
<path d="M16.1425 9.80006L15.9224 10.7808L15.3479 10.6567L16.1425 9.80006Z" fill="white"/>
<path d="M16.6198 10.8734L15.7438 10.3807L15.4515 10.8907L16.6198 10.8734Z" fill="white"/>
<path d="M16.6197 10.8739L15.619 10.9677L15.5594 10.3829L16.6197 10.8739Z" fill="white"/>
<path d="M14.9728 9.92294L15.3919 10.8365L15.9282 10.5957L14.9728 9.92294Z" fill="white"/>
<path d="M14.973 9.92289L15.8377 10.4352L15.5422 10.9433L14.973 9.92289Z" fill="white"/>
<path d="M15.746 11.6601L15.9439 10.6747L15.3686 10.5543L15.746 11.6601Z" fill="white"/>
<path d="M15.7459 11.6602L15.3475 10.7374L15.8852 10.5001L15.7459 11.6602Z" fill="white"/>
<path d="M14.7284 11.0726L15.7267 10.9562L15.6634 10.3718L14.7284 11.0726Z" fill="white"/>
<path d="M14.7284 11.0723L15.4828 10.4083L15.8748 10.8463L14.7284 11.0723Z" fill="white"/>
<path d="M18.3238 11.6297L17.3962 12.0167L17.6181 12.561L18.3238 11.6297Z" fill="white"/>
<path d="M18.3239 11.6298L17.7817 12.4761L17.2842 12.1631L18.3239 11.6298Z" fill="white"/>
<path d="M18.4061 12.8021L17.7514 12.0395L17.3023 12.4187L18.4061 12.8021Z" fill="white"/>
<path d="M18.4059 12.8024L17.4335 12.5483L17.5775 11.9784L18.4059 12.8024Z" fill="white"/>
<path d="M17.1827 11.3455L17.2642 12.3472L17.8504 12.3044L17.1827 11.3455Z" fill="white"/>
<path d="M17.1827 11.3455L17.8201 12.1226L17.3686 12.499L17.1827 11.3455Z" fill="white"/>
<path d="M17.3146 13.2425L17.8376 12.3842L17.3381 12.0743L17.3146 13.2425Z" fill="white"/>
<path d="M17.3146 13.2426L17.2558 12.2392L17.8423 12.2001L17.3146 13.2426Z" fill="white"/>
<path d="M16.5592 12.3423L17.5371 12.5744L17.6775 12.0036L16.5592 12.3423Z" fill="white"/>
<path d="M16.5592 12.342L17.4953 11.976L17.7138 12.5217L16.5592 12.342Z" fill="white"/>
<path d="M19.7478 14.0954L18.7438 14.1418L18.7662 14.7292L19.7478 14.0954Z" fill="white"/>
<path d="M19.7478 14.0955L18.9489 14.7053L18.5884 14.241L19.7478 14.0955Z" fill="white"/>
<path d="M19.4232 15.2252L19.0688 14.2847L18.5171 14.4875L19.4232 15.2252Z" fill="white"/>
<path d="M19.423 15.2255L18.5961 14.6541L18.9264 14.1678L19.423 15.2255Z" fill="white"/>
<path d="M18.7723 13.4383L18.5061 14.4075L19.0717 14.5677L18.7723 13.4383Z" fill="white"/>
<path d="M18.7727 13.4383L19.1057 14.3866L18.5528 14.5859L18.7727 13.4383Z" fill="white"/>
<path d="M18.2476 15.2664L19.0325 14.6388L18.6692 14.1767L18.2476 15.2664Z" fill="white"/>
<path d="M18.2473 15.2663L18.5352 14.3033L19.0998 14.4671L18.2473 15.2663Z" fill="white"/>
<path d="M17.8458 14.162L18.6854 14.7146L19.0125 14.2263L17.8458 14.162Z" fill="white"/>
<path d="M17.8458 14.162L18.8506 14.1382L18.8693 14.7257L17.8458 14.162Z" fill="white"/>
<path d="M4.33862 14.0957L5.13756 14.7056L5.49799 14.2412L4.33862 14.0957Z" fill="white"/>
<path d="M4.33863 14.0954L5.34264 14.1418L5.32027 14.7292L4.33863 14.0954Z" fill="white"/>
<path d="M5.31255 13.4383L4.97946 14.3866L5.53245 14.5859L5.31255 13.4383Z" fill="white"/>
<path d="M5.31294 13.4384L5.57907 14.4076L5.01352 14.5678L5.31294 13.4384Z" fill="white"/>
<path d="M4.66269 15.2255L5.48955 14.6541L5.15931 14.1678L4.66269 15.2255Z" fill="white"/>
<path d="M4.66251 15.2252L5.01689 14.2847L5.56862 14.4875L4.66251 15.2252Z" fill="white"/>
<path d="M6.2401 14.1617L5.2353 14.138L5.21664 14.7255L6.2401 14.1617Z" fill="white"/>
<path d="M6.24012 14.162L5.40058 14.7146L5.07343 14.2263L6.24012 14.162Z" fill="white"/>
<path d="M5.83789 15.2663L5.54997 14.3033L4.98545 14.4671L5.83789 15.2663Z" fill="white"/>
<path d="M5.83789 15.2662L5.0529 14.6385L5.41626 14.1765L5.83789 15.2662Z" fill="white"/>
<path d="M5.76204 11.6298L6.30423 12.4761L6.80173 12.1631L5.76204 11.6298Z" fill="white"/>
<path d="M5.76238 11.6296L6.68997 12.0166L6.46805 12.5609L5.76238 11.6296Z" fill="white"/>
<path d="M6.90199 11.3453L6.26465 12.1225L6.71613 12.4989L6.90199 11.3453Z" fill="white"/>
<path d="M6.90221 11.3453L6.8208 12.3471L6.23456 12.3043L6.90221 11.3453Z" fill="white"/>
<path d="M5.67951 12.8023L6.65194 12.5481L6.50793 11.9783L5.67951 12.8023Z" fill="white"/>
<path d="M5.67962 12.802L6.33431 12.0394L6.7834 12.4186L5.67962 12.802Z" fill="white"/>
<path d="M7.5245 12.342L6.58841 11.976L6.36994 12.5217L7.5245 12.342Z" fill="white"/>
<path d="M7.52433 12.3423L6.54642 12.5744L6.40602 12.0036L7.52433 12.3423Z" fill="white"/>
<path d="M6.76917 13.2426L6.82797 12.2392L6.24147 12.2001L6.76917 13.2426Z" fill="white"/>
<path d="M6.76867 13.2425L6.2457 12.3842L6.74517 12.0743L6.76867 13.2425Z" fill="white"/>
<path d="M7.94322 9.79957L8.16326 10.7803L8.73784 10.6562L7.94322 9.79957Z" fill="white"/>
<path d="M7.94325 9.79943L8.68255 10.4803L8.28785 10.9159L7.94325 9.79943Z" fill="white"/>
<path d="M9.11122 9.9224L8.24651 10.4347L8.54202 10.9429L9.11122 9.9224Z" fill="white"/>
<path d="M9.1112 9.92245L8.69206 10.836L8.15583 10.5952L9.1112 9.92245Z" fill="white"/>
<path d="M7.46379 10.8733L8.46449 10.967L8.52409 10.3823L7.46379 10.8733Z" fill="white"/>
<path d="M7.4637 10.873L8.33974 10.3803L8.63203 10.8902L7.4637 10.873Z" fill="white"/>
<path d="M9.35609 11.0718L8.60163 10.4078L8.20969 10.8458L9.35609 11.0718Z" fill="white"/>
<path d="M9.35607 11.0721L8.35774 10.9558L8.42103 10.3714L9.35607 11.0721Z" fill="white"/>
<path d="M8.33857 11.6597L8.737 10.737L8.19925 10.4996L8.33857 11.6597Z" fill="white"/>
<path d="M8.33819 11.6596L8.14032 10.6742L8.71566 10.5538L8.33819 11.6596Z" fill="white"/>
<path d="M10.6187 8.82563L10.4901 9.82245L11.0724 9.90241L10.6187 8.82563Z" fill="white"/>
<path d="M10.6191 8.8255L11.0809 9.7182L10.561 9.99251L10.6191 8.8255Z" fill="white"/>
<path d="M11.6757 9.34063L10.6879 9.52631L10.7918 10.1049L11.6757 9.34063Z" fill="white"/>
<path d="M11.6757 9.34089L10.9694 10.056L10.5478 9.64631L11.6757 9.34089Z" fill="white"/>
<path d="M9.80198 9.67127L10.7103 10.1017L10.9663 9.57252L9.80198 9.67127Z" fill="white"/>
<path d="M9.80178 9.67102L10.7935 9.50766L10.8937 10.0869L9.80178 9.67102Z" fill="white"/>
<path d="M11.512 10.5046L11.0301 9.62253L10.512 9.90013L11.512 10.5046Z" fill="white"/>
<path d="M11.512 10.5048L10.6136 10.054L10.873 9.52655L11.512 10.5048Z" fill="white"/>
<path d="M10.3543 10.7089L11.0443 9.97809L10.6202 9.5711L10.3543 10.7089Z" fill="white"/>
<path d="M10.3539 10.7087L10.505 9.71503L11.0868 9.79867L10.3539 10.7087Z" fill="white"/>
</g>
<defs>
<clipPath id="clip0_720_53304">
<rect width="24.0044" height="24.0044" fill="white" transform="translate(0.0263672 0.0964355)"/>
</clipPath>
</defs>
</svg>
