<svg width="24" height="25" viewBox="0 0 24 25" fill="none" xmlns="http://www.w3.org/2000/svg">
<g clip-path="url(#clip0_720_53279)">
<mask id="mask0_720_53279" style="mask-type:luminance" maskUnits="userSpaceOnUse" x="0" y="0" width="25" height="25">
<path d="M0.00317383 0.10083H24.0039V24.1015H0.00317383V0.10083Z" fill="white"/>
</mask>
<g mask="url(#mask0_720_53279)">
<path fill-rule="evenodd" clip-rule="evenodd" d="M-11.9973 0.10083H24.0037V24.1015H-11.9973V0.10083Z" fill="#198A00"/>
<path fill-rule="evenodd" clip-rule="evenodd" d="M19.7841 8.72375H24.0036V24.1016H19.7793L19.7841 8.72375Z" fill="#EF7D00"/>
<path fill-rule="evenodd" clip-rule="evenodd" d="M15.5647 8.71399H19.7842V24.1015H15.5647V8.71399Z" fill="#000001"/>
<path fill-rule="evenodd" clip-rule="evenodd" d="M11.2532 8.72852H15.5597V24.1015H11.2532V8.72852Z" fill="#DE2010"/>
<path fill-rule="evenodd" clip-rule="evenodd" d="M21.1777 3.1736C21.1777 3.1736 22.7697 2.49616 22.9197 2.35583C22.9923 2.4381 22.2858 3.29457 20.9116 3.61394C22.16 3.31393 23.2246 2.38971 23.4375 2.41874C23.5004 2.43326 23.4859 3.3236 20.6309 4.09298C22.6052 3.57522 23.7568 2.62197 23.7423 2.72843C23.7568 2.74778 23.5488 3.47845 21.8165 4.04459C22.3003 3.9333 23.6068 3.13489 23.5923 3.28973C23.6359 3.35264 22.3245 5.03172 19.9583 4.48493C21.8455 4.97849 23.0746 3.79297 23.2488 3.81233C23.2875 3.82201 22.9004 4.84784 20.5197 4.91075C21.6616 4.79462 21.3326 4.90591 21.3326 4.90591C21.3326 4.90591 20.6551 5.43334 19.847 5.07527C20.4858 5.24947 20.5535 5.25431 20.568 5.31237C20.5245 5.38012 20.0019 5.48657 19.4938 5.21559C19.9003 5.38012 20.268 5.40915 20.2729 5.47205C20.2014 5.52276 20.1185 5.55503 20.0316 5.566C19.9446 5.57698 19.8563 5.56631 19.7745 5.53496C19.547 5.43334 17.4131 4.12201 17.4131 4.12201L21.0422 3.12521L21.1777 3.1736ZM16.9099 6.72048C16.8698 6.71576 16.8292 6.71944 16.7906 6.73129C16.7521 6.74314 16.7164 6.7629 16.6859 6.78931C16.6554 6.81571 16.6307 6.84819 16.6135 6.88466C16.5962 6.92113 16.5867 6.9608 16.5857 7.00113C16.5857 7.00113 16.5566 7.02532 16.576 7.16081L16.6534 7.03984C16.6873 7.03984 16.8373 7.08823 17.0647 6.90919C16.8566 7.12694 16.9825 7.2092 16.9825 7.2092C16.9825 7.2092 16.9341 7.3834 17.0937 7.41727C17.0454 7.34469 17.0744 7.28662 17.0744 7.28662C17.0744 7.28662 17.297 7.26243 17.2825 6.98661C17.2921 7.2334 17.4276 7.2963 17.4276 7.2963C17.4276 7.2963 17.4276 7.43179 17.5728 7.44147C17.4954 7.37372 17.5099 7.26727 17.5099 7.26727C17.5099 7.26727 17.7034 7.12694 17.5389 6.89468C17.6357 6.84145 17.718 6.68661 17.718 6.68661C17.718 6.68661 17.5825 6.62854 17.5244 6.58015C17.4954 6.52208 17.5244 6.18336 17.5244 6.18336L17.4421 5.74787L17.2147 6.42531C17.2244 6.32853 17.2292 6.71564 16.9099 6.71564V6.72048Z" fill="#EF7D00" stroke="black" stroke-width="0.0435496" stroke-linejoin="round"/>
<path fill-rule="evenodd" clip-rule="evenodd" d="M18.4874 5.73812C18.4923 5.74779 18.7294 6.00425 18.952 5.98974C19.0342 5.92199 18.7729 5.76715 18.7729 5.73328C18.8697 5.81554 19.252 6.14458 19.4988 6.02361C19.5955 5.88812 19.3197 5.90748 19.0197 5.53005C19.2278 5.67037 19.7552 5.98006 20.002 5.85909C20.1036 5.74779 19.4552 5.39456 19.2375 5.12358L18.6762 4.83325L17.9116 5.4623L18.4874 5.73812Z" fill="#EF7D00" stroke="black" stroke-width="0.0435496" stroke-linejoin="round"/>
<path fill-rule="evenodd" clip-rule="evenodd" d="M17.626 3.60909C17.626 3.60909 17.8873 3.45425 18.9228 3.53167C19.0341 3.54619 19.6293 3.32844 19.818 3.26553C20.118 3.21231 21.0761 2.9994 21.3374 2.80584C21.5213 2.78165 21.289 3.14456 21.0567 3.22682C20.8148 3.33812 19.9244 3.6478 19.6051 3.60425C19.9873 3.60909 19.7744 3.91878 19.1454 3.76877C19.4454 3.93813 19.3389 3.96717 19.3389 3.96717C19.3389 3.96717 18.8067 3.9962 18.6615 3.87523C19.0196 4.01072 18.8744 4.0591 18.8744 4.0591C18.8744 4.0591 18.5066 4.09298 18.3421 4.01556C18.5986 4.09298 18.4679 4.14137 18.4679 4.14137C18.4679 4.14137 18.255 4.17524 18.0808 4.11233C17.9066 4.04943 17.6405 3.60909 17.626 3.60909Z" fill="#EF7D00" stroke="black" stroke-width="0.0435496" stroke-linecap="round" stroke-linejoin="round"/>
<path fill-rule="evenodd" clip-rule="evenodd" d="M18.0419 5.88324L18.0806 6.57002L18.0419 6.62322C18.0225 6.64741 17.5582 6.55068 17.6211 6.91341C17.6211 7.05851 17.6211 7.09236 17.7178 7.17458C17.6936 7.07785 17.7033 7.01014 17.7033 7.01014C17.7033 7.01014 17.8339 7.09236 17.9645 6.87472C17.8774 7.08753 17.9403 7.16491 17.9596 7.16491C17.979 7.20844 17.9258 7.38255 18.0999 7.37772C18.0322 7.31484 18.066 7.21811 18.066 7.21811C18.066 7.21811 18.2498 7.18909 18.1821 6.85537C18.2498 6.78766 18.2788 6.85537 18.2788 6.85537C18.2788 6.85537 18.2982 7.04883 18.4578 7.01014C18.5303 7.05367 18.4481 7.16007 18.4481 7.16007C18.4481 7.16007 18.5642 7.16007 18.5981 7.06334C18.6319 6.96661 18.6754 6.78766 18.482 6.71512C18.4578 6.64257 18.5594 6.63773 18.5594 6.63773C18.5594 6.63773 18.6803 6.67642 18.719 6.7393C18.7577 6.80217 18.7383 6.57969 18.5884 6.55551C18.3998 6.55067 18.3901 6.50715 18.3901 6.50231L18.3417 5.86389L18.0419 5.88324Z" fill="#EF7D00" stroke="black" stroke-width="0.0435496" stroke-linejoin="round"/>
<path fill-rule="evenodd" clip-rule="evenodd" d="M18.6953 6.46881C18.6953 6.43494 18.376 6.00428 18.4534 5.94621C18.5357 5.96557 18.6711 6.16396 18.7776 6.09622C18.7486 6.0188 18.6518 6.06235 18.5357 5.86879C18.4292 5.64621 18.4147 5.31232 18.0276 4.94941C18.2792 5.33652 18.8453 5.55911 18.8695 5.44297C18.8937 5.32684 18.3711 4.9107 18.3953 4.80425C18.4969 5.01715 19.0244 5.48168 19.4115 5.44781C19.4357 5.35587 19.0921 5.172 19.005 5.00264C18.7631 4.83812 18.1002 4.26713 18.0856 4.13648C17.9711 3.93843 17.8141 3.76822 17.626 3.63808C17.6001 3.60582 17.5872 3.5784 17.5872 3.55582C17.4372 3.20743 17.6356 3.09129 17.7518 3.07194C17.8485 3.0671 17.8727 3.07678 17.9453 3.04774L17.6985 2.95097C17.805 3.02839 18.076 2.96064 18.0131 3.18323C18.134 3.13968 18.3856 2.84451 17.7276 2.77193C17.5147 2.52999 16.6388 2.38482 16.4211 3.45421C16.4356 3.46872 16.4453 3.48324 16.5033 3.52679C16.2227 3.3913 15.4775 3.28485 15.2065 3.24614C14.4807 3.03323 13.7258 2.52999 13.6533 2.58805C13.5565 2.63644 14.0888 3.13484 14.0646 3.14452C13.5952 2.87354 13.1742 2.67999 12.7774 2.50579C12.4968 2.39934 12.221 2.1574 12.1871 2.20578C12.0903 2.41869 12.6371 2.95097 12.7387 3.01387C12.8403 3.07678 13.6436 3.44937 13.6291 3.44937C12.4193 2.90258 12.2161 2.80096 12.1581 2.73806C12.0516 2.71386 11.7903 2.36547 11.7226 2.38482C11.679 2.42353 11.7564 2.98 12.3371 3.22678C12.4339 3.29452 13.571 3.71067 13.5613 3.7397L12.2016 3.17839C11.95 3.08162 11.6403 2.73322 11.5822 2.77193C11.529 2.81064 11.7274 3.18323 11.979 3.3042C12.1145 3.36227 12.6226 3.61389 13.0871 3.77357C13.1161 3.78809 12.2597 3.44937 11.8435 3.27517C11.6597 3.17839 11.5677 3.0429 11.5435 3.07194C11.4951 3.10097 11.6113 3.6526 12.9371 3.96712C12.971 3.98164 13.4016 3.86551 13.3823 3.88003C13.1372 3.94088 12.8882 3.98454 12.6371 4.01067C12.6226 4.04939 12.7194 4.24778 13.4065 4.20423C13.4936 4.20423 13.9678 4.03487 13.9291 4.06874C13.9097 4.0881 13.2807 4.29133 13.2323 4.29617C13.1936 4.29617 12.971 4.3252 12.9661 4.34455C12.9565 4.37843 13.1258 4.51875 13.4984 4.53811C13.8226 4.55746 14.4371 4.34456 14.4275 4.35907C14.413 4.37359 13.8323 4.57198 13.8129 4.58166C13.7936 4.59618 13.5807 4.60585 13.571 4.62521C13.5565 4.66392 13.8807 4.96877 14.8436 4.64456C14.7468 4.77521 14.2823 4.86231 14.2823 4.88651C14.2823 4.9107 14.3839 5.00748 14.5484 5.04135C14.6307 5.0607 14.742 5.05587 14.8388 5.04135C15.0778 4.99435 15.297 4.87629 15.4678 4.70263C15.492 4.77521 14.8533 5.10425 14.8823 5.13329C15.0227 5.26394 15.4823 5.11393 15.5114 5.09942C15.8232 4.93461 16.1224 4.747 16.4066 4.53811C16.4211 4.61069 15.2936 5.22523 15.3081 5.24942C15.3807 5.36071 15.7678 5.23974 15.7823 5.23006L16.2856 4.95909C16.3001 4.94941 15.734 5.29297 15.7823 5.3462C15.7582 5.56395 16.6679 5.19135 16.7404 5.14297C16.7743 5.11877 16.3049 5.35104 16.3049 5.46233C16.4501 5.71879 16.9437 5.63653 17.0163 5.57846C17.055 5.55427 16.9679 5.77202 16.9969 5.75266C17.0554 5.6927 17.1043 5.62417 17.1421 5.54943C17.1324 5.62201 17.0743 5.7333 17.0453 5.86395C17.0163 5.9946 17.0066 6.14461 16.963 6.29945C16.9534 6.36719 17.263 6.16396 17.2195 5.68008C17.2437 5.9317 17.1227 6.4059 17.1517 6.42526C17.2195 6.47365 17.3937 6.193 17.4179 5.99944C17.4663 6.09622 17.5824 6.29945 17.6792 6.34784C17.6695 6.20267 17.6792 6.20267 17.6356 6.06235C17.655 5.86234 17.6663 5.61072 17.6695 5.30749C17.9356 5.81073 18.0373 6.02364 17.9647 6.41074C18.0421 6.44462 18.1679 6.13977 18.1582 5.98492C18.255 6.42042 18.6905 6.48333 18.7002 6.46881H18.6953Z" fill="#EF7D00" stroke="black" stroke-width="0.0483885" stroke-linecap="round" stroke-linejoin="round"/>
<path fill-rule="evenodd" clip-rule="evenodd" d="M14.3211 3.27515C14.3211 3.27515 14.142 3.41063 13.9194 3.40096C13.9727 3.62354 14.4372 3.45418 14.4372 3.45418C14.4372 3.45418 14.2146 3.70097 14.0501 3.74452C14.1469 3.8171 14.5485 3.7929 14.6162 3.75419C14.684 3.71548 14.8049 3.56064 14.8049 3.56064C14.8049 3.56064 14.3936 4.03485 14.3307 4.03001C14.3259 4.08323 14.7662 4.06388 14.8582 3.98162C14.9501 3.89936 15.1775 3.77355 15.1775 3.77355C15.1775 3.77355 14.5727 4.19453 14.5485 4.19453C14.7711 4.25743 15.2259 4.12678 15.5163 3.94775C15.0856 4.23324 15.0469 4.28647 14.8291 4.38324C15.0227 4.42195 15.1195 4.5526 15.7824 4.26711C16.1598 4.08807 16.3727 3.76387 16.3727 3.76387C16.0854 4.10131 15.7415 4.38621 15.3566 4.60583C15.3372 4.65422 15.7969 4.84777 16.3872 4.23808" fill="#EF7D00"/>
<path d="M14.3211 3.27515C14.3211 3.27515 14.142 3.41063 13.9194 3.40096C13.9727 3.62354 14.4372 3.45418 14.4372 3.45418C14.4372 3.45418 14.2146 3.70097 14.0501 3.74452C14.1469 3.8171 14.5485 3.7929 14.6162 3.75419C14.684 3.71548 14.8049 3.56064 14.8049 3.56064C14.8049 3.56064 14.3936 4.03485 14.3307 4.03001C14.3259 4.08323 14.7662 4.06388 14.8582 3.98162C14.9501 3.89936 15.1775 3.77355 15.1775 3.77355C15.1775 3.77355 14.5727 4.19453 14.5485 4.19453C14.7711 4.25743 15.2259 4.12678 15.5163 3.94775C15.0856 4.23324 15.0469 4.28647 14.8291 4.38324C15.0227 4.42195 15.1195 4.5526 15.7824 4.26711C16.1598 4.08807 16.3727 3.76387 16.3727 3.76387C16.0854 4.10131 15.7415 4.38621 15.3566 4.60583C15.3372 4.65422 15.7969 4.84777 16.3872 4.23808" stroke="black" stroke-width="0.0483885" stroke-linecap="round" stroke-linejoin="round"/>
<path fill-rule="evenodd" clip-rule="evenodd" d="M17.5148 4.60103C17.5148 4.60103 17.5535 4.78974 17.7084 4.93007C17.8681 5.07523 17.8826 5.21556 17.8826 5.21556M17.4326 3.38647C17.4326 3.38647 17.4906 3.55583 17.6503 3.66229C17.8249 3.80215 17.9725 3.97269 18.0858 4.16553C18.1358 4.37926 18.1729 4.59578 18.1971 4.81394M16.4212 3.64293C16.4309 3.71068 16.189 4.03004 16.5229 4.40747C16.218 4.78006 16.218 4.82845 16.218 4.82845C16.218 4.82845 16.3874 4.92523 16.6971 4.65909C17.2003 5.27846 17.0358 5.56396 17.0358 5.56396" fill="#EF7D00"/>
<path d="M17.5148 4.60103C17.5148 4.60103 17.5535 4.78974 17.7084 4.93007C17.8681 5.07523 17.8826 5.21556 17.8826 5.21556M17.4326 3.38647C17.4326 3.38647 17.4906 3.55583 17.6503 3.66229C17.8249 3.80215 17.9725 3.97269 18.0858 4.16553C18.1358 4.37926 18.1729 4.59578 18.1971 4.81394M16.4212 3.64293C16.4309 3.71068 16.189 4.03004 16.5229 4.40747C16.218 4.78006 16.218 4.82845 16.218 4.82845C16.218 4.82845 16.3874 4.92523 16.6971 4.65909C17.2003 5.27846 17.0358 5.56396 17.0358 5.56396" stroke="black" stroke-width="0.0483885" stroke-linecap="round"/>
<path fill-rule="evenodd" clip-rule="evenodd" d="M16.9873 5.12834C16.9873 5.12834 16.9438 5.06063 17.026 4.81396C17.1034 4.90102 17.1856 4.92037 17.2195 4.95906C17.2534 4.99775 17.6403 5.05095 17.6645 5.30245" fill="#EF7D00"/>
<path d="M16.9873 5.12834C16.9873 5.12834 16.9438 5.06063 17.026 4.81396C17.1034 4.90102 17.1856 4.92037 17.2195 4.95906C17.2534 4.99775 17.6403 5.05095 17.6645 5.30245" stroke="black" stroke-width="0.0483885" stroke-linecap="round" stroke-linejoin="round"/>
<path fill-rule="evenodd" clip-rule="evenodd" d="M17.4372 2.79611C17.4372 2.77676 17.3598 2.61232 17.0745 2.81546C17.2292 2.82513 17.3792 2.91219 17.4372 2.79611Z" fill="#EF7D00" stroke="black" stroke-width="0.0483885"/>
<path fill-rule="evenodd" clip-rule="evenodd" d="M20.1664 3.54614C20.1809 3.55582 21.0228 3.7397 21.3035 3.64292C20.9454 4.12197 20.2293 3.79776 20.2293 3.79776C20.5825 3.90422 20.597 3.89454 20.7083 3.99132C20.7422 4.08809 20.0648 4.04454 19.8373 3.91873C20.4664 4.11229 20.4761 4.10261 20.4954 4.17519C20.5244 4.28165 19.4793 4.151 19.3825 4.01067C19.6631 4.22842 19.818 4.26713 19.9728 4.36875C19.7793 4.45101 19.4309 4.53327 18.7873 4.07842C19.6341 4.85263 20.3986 4.80424 20.5196 4.93973C20.2244 5.37523 19.0825 4.68327 18.555 4.33004C18.0324 3.98164 19.7067 5.17683 19.8615 5.15748C19.7841 5.27845 19.2325 5.172 19.1938 5.11393" fill="#EF7D00"/>
<path d="M20.1664 3.54614C20.1809 3.55582 21.0228 3.7397 21.3035 3.64292C20.9454 4.12197 20.2293 3.79776 20.2293 3.79776C20.5825 3.90422 20.597 3.89454 20.7083 3.99132C20.7422 4.08809 20.0648 4.04454 19.8373 3.91873C20.4664 4.11229 20.4761 4.10261 20.4954 4.17519C20.5244 4.28165 19.4793 4.151 19.3825 4.01067C19.6631 4.22842 19.818 4.26713 19.9728 4.36875C19.7793 4.45101 19.4309 4.53327 18.7873 4.07842C19.6341 4.85263 20.3986 4.80424 20.5196 4.93973C20.2244 5.37523 19.0825 4.68327 18.555 4.33004C18.0324 3.98164 19.7067 5.17683 19.8615 5.15748C19.7841 5.27845 19.2325 5.172 19.1938 5.11393" stroke="black" stroke-width="0.0483885" stroke-linejoin="round"/>
<path fill-rule="evenodd" clip-rule="evenodd" d="M20.384 4.35425C20.2873 4.36876 19.9971 4.36876 19.9487 4.35908L20.384 4.35425Z" fill="#EF7D00"/>
<path d="M20.384 4.35425C20.2873 4.36876 19.9971 4.36876 19.9487 4.35908" stroke="black" stroke-width="0.0483885" stroke-linecap="round"/>
<path fill-rule="evenodd" clip-rule="evenodd" d="M14.0742 3.14929C14.0742 3.14929 14.7126 3.48785 14.9835 3.46366C14.9109 3.53138 14.8045 3.56039 14.8045 3.56039C14.8722 3.58458 15.056 3.68614 15.3365 3.61843C15.2737 3.68614 15.1866 3.76353 15.1866 3.76353C15.1866 3.76353 15.4284 3.85542 15.6993 3.71516L15.5687 3.88928L15.7622 3.90379" fill="#EF7D00"/>
<path d="M14.0742 3.14929C14.0742 3.14929 14.7126 3.48785 14.9835 3.46366C14.9109 3.53138 14.8045 3.56039 14.8045 3.56039C14.8722 3.58458 15.056 3.68614 15.3365 3.61843C15.2737 3.68614 15.1866 3.76353 15.1866 3.76353C15.1866 3.76353 15.4284 3.85542 15.6993 3.71516L15.5687 3.88928L15.7622 3.90379" stroke="black" stroke-width="0.0483885" stroke-linecap="round" stroke-linejoin="round"/>
</g>
</g>
<defs>
<clipPath id="clip0_720_53279">
<rect width="24.0044" height="24.0044" fill="white" transform="translate(0.00439453 0.10083)"/>
</clipPath>
</defs>
</svg>
