<svg width="25" height="25" viewBox="0 0 25 25" fill="none" xmlns="http://www.w3.org/2000/svg">
<g clip-path="url(#clip0_720_53278)">
<mask id="mask0_720_53278" style="mask-type:luminance" maskUnits="userSpaceOnUse" x="0" y="0" width="25" height="25">
<path d="M0.0119629 0.0998535H24.0144V24.1029H0.0119629V0.0998535Z" fill="white"/>
</mask>
<g mask="url(#mask0_720_53278)">
<path d="M-0.0617676 0.105591H47.7836V24.0972H-0.0617676V0.105591Z" fill="#006400"/>
<path d="M-0.0617676 3.53296H47.7836V20.6698H-0.0617676V3.53296Z" fill="#FFD200"/>
<path d="M-0.0617676 6.96033H47.7836V17.2424H-0.0617676V6.96033Z" fill="#D40000"/>
<path d="M-0.0617676 10.3877H47.7836V13.8151H-0.0617676V10.3877Z" fill="#000001"/>
<path d="M-0.0617676 0.105591V24.0972L15.8867 12.1014L-0.0617676 0.105591Z" fill="black" stroke="black" stroke-width="1.14082"/>
<path d="M-0.0617676 0.105591V24.0972L15.8867 12.1014L-0.0617676 0.105591Z" fill="white"/>
<path d="M6.00422 6.06921L9.16544 15.8201L0.89502 9.79363H11.1191L2.84301 15.8201L6.00422 6.06921Z" fill="#D40000"/>
<path d="M4.6544 14.5976L5.21259 14.4948L6.24355 14.4548L6.62517 14.4891L7.47955 14.6319L7.54221 14.5462V13.9293L7.64474 13.3981L7.81561 12.8611L8.00358 12.4327L8.2428 11.9871L8.63012 12.0842H8.73265L8.74404 12.01L7.92383 11.3074L7.06945 10.6505L5.83345 9.72506L5.71953 9.6965L5.58852 8.72541L5.49169 8.43409L5.36069 8.31984L5.11577 8.23987L4.84236 8.25129L4.71705 8.31984L4.45504 8.37696L4.31834 8.39981L4.22721 8.50835L4.21582 8.64544L4.59744 8.65687L4.69427 8.69685L4.68288 8.73684L4.46643 8.7654L4.36391 8.79967L4.48352 8.89107L4.60883 8.93677L4.76832 8.99389L4.80249 9.10814L4.81388 10.5819L4.72845 10.8104L4.69997 11.2388L4.82528 11.7529L4.50631 12.1185L4.32404 12.4441L4.28986 12.644L4.19303 12.844L4.18164 12.9696L4.2443 13.1067L4.48922 13.9179L4.61453 14.5862L4.6544 14.5976Z" fill="#FFCC00"/>
<path d="M4.9507 8.21704C4.84818 8.21704 4.80261 8.22847 4.70578 8.27988C4.62539 8.32559 4.53592 8.35289 4.44377 8.35985C4.30137 8.35985 4.18746 8.46267 4.18746 8.59405V8.67974L4.39251 8.67402C4.99627 8.69116 4.44947 8.74828 4.4039 8.754C4.25581 8.78256 4.43808 8.90252 4.61465 8.96535C4.80261 9.02247 4.79122 8.9882 4.79122 9.82219C4.79122 10.502 4.79122 10.5991 4.73426 10.7533C4.66021 10.9818 4.66021 11.3245 4.73426 11.553C4.76844 11.6444 4.79122 11.7244 4.79122 11.7415C4.79122 11.7587 4.70009 11.8615 4.59186 11.9872C4.39251 12.2156 4.27289 12.4498 4.27289 12.6155C4.26579 12.6688 4.24628 12.7197 4.21594 12.764C4.14189 12.8611 4.14189 13.0268 4.21024 13.0896C4.28429 13.1582 4.58617 14.3349 4.59186 14.5577C4.59186 14.6377 4.60326 14.6377 5.06462 14.5463C5.44055 14.472 6.32341 14.4549 6.77339 14.512C6.97844 14.5405 7.21766 14.5862 7.3031 14.6034C7.57651 14.6776 7.56511 14.6891 7.56511 14.3578C7.56721 13.8357 7.6657 13.3186 7.8556 12.8326C7.96451 12.5556 8.09596 12.2882 8.24862 12.0329C8.24862 12.0329 8.35114 12.0443 8.47645 12.0785C8.70999 12.1357 8.77834 12.13 8.77834 12.0214C8.77834 11.9643 8.53341 11.7587 7.33158 10.8218C6.84685 10.4239 6.34715 10.0448 5.83357 9.6851C5.79559 9.6851 5.77091 9.67177 5.75952 9.64511L5.67408 9.10245C5.63421 8.82254 5.57725 8.54835 5.55447 8.49123C5.47852 8.32367 5.31524 8.23227 5.06462 8.21704H4.9507ZM4.9564 8.27416H5.07032C5.44625 8.29701 5.5146 8.39983 5.61712 9.07388L5.68547 9.61084C5.68927 9.65273 5.62851 9.71556 5.5032 9.79935C5.28776 9.95116 5.09584 10.134 4.93362 10.342L4.85957 10.4448L4.84248 10.2049V9.53087C4.85957 9.0339 4.84248 8.9882 4.683 8.93108C4.55199 8.88538 4.38112 8.83968 4.42668 8.81112C4.48364 8.77685 4.5406 8.79969 4.6773 8.75971C4.73426 8.74828 4.72857 8.754 4.71717 8.7083C4.70578 8.63404 4.62604 8.59405 4.41529 8.60548C4.24442 8.6169 4.22733 8.61119 4.23872 8.56549C4.2653 8.47409 4.35074 8.41888 4.49503 8.39983C4.5823 8.39018 4.66716 8.36503 4.74565 8.32557C4.80924 8.28724 4.88222 8.26746 4.9564 8.26845V8.27416ZM5.80509 9.74793H5.82787C5.9247 9.76507 8.72138 11.9586 8.72138 12.0214C8.72138 12.0481 8.70239 12.0614 8.66442 12.0614C8.64163 12.0614 7.92965 11.8615 7.08666 11.6159C5.74243 11.216 5.54877 11.1589 5.49181 11.0846C5.45126 11.0348 5.42864 10.9728 5.42761 10.9085C5.42658 10.8443 5.44719 10.7815 5.48612 10.7304C5.51346 10.6972 5.53293 10.6581 5.54308 10.6162C5.54308 10.5477 5.40068 10.719 5.3722 10.8161C5.34372 10.9304 5.40068 11.1246 5.48612 11.1874C5.52029 11.216 5.77661 11.3017 6.05571 11.3874C6.53416 11.5245 6.56833 11.5416 6.59112 11.6216C6.64808 11.8101 6.44872 12.0329 6.16393 12.0957C6.05734 12.1219 5.95677 12.1684 5.86774 12.2328C5.57232 12.4784 5.24215 12.6786 4.88805 12.8269C4.86527 12.844 4.83679 12.9354 4.8197 13.0211C4.78552 13.2096 4.77413 13.2381 4.71717 13.2381C4.6868 13.242 4.683 13.2153 4.70578 13.1582C4.74565 13.0439 4.73996 12.9068 4.70009 12.9068C4.67351 12.9068 4.66021 12.9411 4.66021 13.0097C4.66021 13.0668 4.64313 13.1353 4.62034 13.1525C4.59186 13.1867 4.58617 13.1639 4.59756 13.0211C4.60895 12.924 4.60326 12.8497 4.59186 12.8497C4.56338 12.8497 4.51212 12.9925 4.49503 13.1182C4.48744 13.1943 4.47605 13.1886 4.46086 13.101C4.44377 13.0325 4.44947 12.9868 4.50073 12.9011C4.5331 12.8391 4.55248 12.771 4.55769 12.7012C4.55769 12.6269 4.61465 12.5527 4.88235 12.2842C5.05323 12.1071 5.26398 11.8843 5.33802 11.7872C5.46903 11.6273 5.47473 11.6159 5.46903 11.4502C5.46903 11.3588 5.45764 11.2731 5.44625 11.2617C5.41207 11.2274 5.3665 11.4102 5.38929 11.5073C5.40068 11.5987 5.38929 11.6273 5.20132 11.8501C5.0661 12.0053 4.92354 12.154 4.77413 12.2956C4.55199 12.5013 4.47225 12.6155 4.47225 12.7183C4.47225 12.7526 4.44947 12.8326 4.41529 12.9068C4.38112 12.9811 4.36972 13.0554 4.38112 13.0725C4.38871 13.0915 4.38302 13.0915 4.36403 13.0725C4.33745 13.0496 4.33555 12.9925 4.35833 12.9011C4.37137 12.8528 4.37524 12.8024 4.36973 12.7526C4.34125 12.6955 4.30137 12.764 4.28429 12.9068C4.2729 12.9868 4.25581 13.0496 4.23872 13.0382C4.19885 13.0154 4.21024 12.8668 4.2615 12.7869C4.28998 12.7469 4.31846 12.6555 4.33555 12.5812C4.37542 12.3699 4.46655 12.1985 4.66591 11.97L4.84818 11.7529L4.79122 11.5644C4.71483 11.3097 4.71088 11.0387 4.77983 10.7819C4.85198 10.5686 5.00387 10.3458 5.2355 10.1135C5.46333 9.89074 5.68547 9.75365 5.80509 9.74793ZM6.65947 11.5873C6.66666 11.5868 6.67395 11.5872 6.68084 11.5887C6.68773 11.5902 6.69408 11.5926 6.69946 11.5959C6.70484 11.5991 6.70913 11.6031 6.71206 11.6075C6.71498 11.6119 6.71647 11.6167 6.71643 11.6216C6.71293 11.6283 6.70639 11.6341 6.69771 11.6382C6.68904 11.6424 6.67866 11.6446 6.66801 11.6446C6.65737 11.6446 6.64699 11.6424 6.63831 11.6382C6.62964 11.6341 6.6231 11.6283 6.6196 11.6216C6.6193 11.6137 6.62311 11.6059 6.63038 11.5997C6.63765 11.5934 6.64793 11.589 6.65947 11.5873ZM6.80187 11.6044C6.80906 11.6039 6.81634 11.6044 6.82324 11.6059C6.83013 11.6073 6.83647 11.6098 6.84186 11.613C6.84724 11.6163 6.85153 11.6202 6.85446 11.6246C6.85738 11.6291 6.85887 11.6339 6.85882 11.6387C6.85533 11.6454 6.84879 11.6512 6.84011 11.6554C6.83143 11.6595 6.82105 11.6617 6.81041 11.6617C6.79977 11.6617 6.78939 11.6595 6.78071 11.6554C6.77203 11.6512 6.76549 11.6454 6.76199 11.6387C6.7617 11.6308 6.76551 11.6231 6.77278 11.6168C6.78004 11.6106 6.79032 11.6062 6.80187 11.6044ZM6.94996 11.633C6.95715 11.6325 6.96444 11.6329 6.97133 11.6344C6.97822 11.6359 6.98457 11.6383 6.98995 11.6416C6.99533 11.6448 6.99962 11.6488 7.00255 11.6532C7.00547 11.6576 7.00696 11.6624 7.00692 11.6673C7.00342 11.674 6.99688 11.6798 6.9882 11.6839C6.97953 11.6881 6.96915 11.6903 6.9585 11.6903C6.94786 11.6903 6.93748 11.6881 6.9288 11.6839C6.92013 11.6798 6.91359 11.674 6.91009 11.6673C6.90979 11.6594 6.9136 11.6516 6.92087 11.6454C6.92814 11.6391 6.93842 11.6347 6.94996 11.633ZM7.08666 11.6616C7.09385 11.661 7.10114 11.6615 7.10803 11.663C7.11492 11.6645 7.12127 11.6669 7.12665 11.6701C7.13203 11.6734 7.13632 11.6773 7.13925 11.6818C7.14217 11.6862 7.14366 11.691 7.14362 11.6958C7.14012 11.7025 7.13358 11.7084 7.1249 11.7125C7.11623 11.7166 7.10585 11.7188 7.0952 11.7188C7.08456 11.7188 7.07418 11.7166 7.0655 11.7125C7.05683 11.7084 7.05029 11.7025 7.04679 11.6958C7.04649 11.6879 7.0503 11.6802 7.05757 11.6739C7.06484 11.6677 7.07512 11.6633 7.08666 11.6616ZM6.72782 11.6958C6.73501 11.6953 6.7423 11.6958 6.74919 11.6973C6.75608 11.6987 6.76243 11.7012 6.76781 11.7044C6.77319 11.7076 6.77748 11.7116 6.78041 11.716C6.78333 11.7205 6.78482 11.7253 6.78478 11.7301C6.78128 11.7368 6.77474 11.7426 6.76606 11.7468C6.75739 11.7509 6.74701 11.7531 6.73636 11.7531C6.72572 11.7531 6.71534 11.7509 6.70666 11.7468C6.69799 11.7426 6.69145 11.7368 6.68795 11.7301C6.68765 11.7222 6.69146 11.7144 6.69873 11.7082C6.706 11.702 6.71628 11.6976 6.72782 11.6958ZM6.86452 11.7187C6.87171 11.7181 6.879 11.7186 6.88589 11.7201C6.89278 11.7216 6.89913 11.724 6.90451 11.7273C6.90989 11.7305 6.91419 11.7345 6.91711 11.7389C6.92004 11.7433 6.92152 11.7481 6.92148 11.7529C6.91798 11.7597 6.91144 11.7655 6.90276 11.7696C6.89409 11.7737 6.88371 11.776 6.87306 11.776C6.86242 11.776 6.85204 11.7737 6.84336 11.7696C6.83469 11.7655 6.82815 11.7597 6.82465 11.7529C6.82435 11.745 6.82816 11.7373 6.83543 11.7311C6.8427 11.7248 6.85298 11.7204 6.86452 11.7187ZM7.16071 11.7301C7.1679 11.7296 7.17518 11.73 7.18208 11.7315C7.18897 11.733 7.19531 11.7354 7.2007 11.7387C7.20608 11.7419 7.21037 11.7459 7.2133 11.7503C7.21622 11.7547 7.21771 11.7595 7.21766 11.7644C7.21417 11.7711 7.20763 11.7769 7.19895 11.781C7.19027 11.7852 7.17989 11.7874 7.16925 11.7874C7.15861 11.7874 7.14823 11.7852 7.13955 11.781C7.13087 11.7769 7.12433 11.7711 7.12083 11.7644C7.12054 11.7565 7.12435 11.7487 7.13162 11.7425C7.13889 11.7362 7.14916 11.7319 7.16071 11.7301ZM7.00692 11.7301C7.01411 11.7296 7.0214 11.73 7.02829 11.7315C7.03518 11.733 7.04153 11.7354 7.04691 11.7387C7.05229 11.7419 7.05658 11.7459 7.05951 11.7503C7.06243 11.7547 7.06392 11.7595 7.06388 11.7644C7.06038 11.7711 7.05384 11.7769 7.04516 11.781C7.03649 11.7852 7.02611 11.7874 7.01546 11.7874C7.00482 11.7874 6.99444 11.7852 6.98576 11.781C6.97709 11.7769 6.97054 11.7711 6.96705 11.7644C6.96675 11.7565 6.97056 11.7487 6.97783 11.7425C6.9851 11.7362 6.99537 11.7319 7.00692 11.7301ZM7.29171 11.7644C7.29741 11.7644 7.50246 11.8101 7.74738 11.8786L8.19736 12.01L8.11192 12.1642L7.97522 12.4156C7.91826 12.5298 7.90687 12.5298 7.63346 12.467C7.33728 12.3984 6.87022 12.3356 6.39176 12.2956L5.93609 12.2556L6.10697 12.1928L6.40885 12.0557C6.52277 11.9929 6.56833 11.9814 6.74491 11.9986C7.00312 12.0138 7.1683 11.9681 7.24045 11.8615L7.29741 11.7644H7.29171ZM6.79047 11.7986C6.79767 11.7981 6.80495 11.7986 6.81184 11.8001C6.81874 11.8016 6.82508 11.804 6.83046 11.8072C6.83584 11.8105 6.84014 11.8144 6.84306 11.8189C6.84599 11.8233 6.84748 11.8281 6.84743 11.8329C6.84393 11.8396 6.83739 11.8455 6.82872 11.8496C6.82004 11.8537 6.80966 11.8559 6.79902 11.8559C6.78837 11.8559 6.77799 11.8537 6.76932 11.8496C6.76064 11.8455 6.7541 11.8396 6.7506 11.8329C6.75031 11.825 6.75412 11.8173 6.76139 11.811C6.76865 11.8048 6.77893 11.8004 6.79047 11.7986ZM7.10944 11.7986C7.11664 11.7981 7.12392 11.7986 7.13081 11.8001C7.13771 11.8016 7.14405 11.804 7.14943 11.8072C7.15481 11.8105 7.15911 11.8144 7.16203 11.8189C7.16496 11.8233 7.16645 11.8281 7.1664 11.8329C7.16209 11.8385 7.15556 11.8432 7.14752 11.8465C7.13948 11.8498 7.13025 11.8515 7.12083 11.8515C7.11142 11.8515 7.10219 11.8498 7.09415 11.8465C7.08611 11.8432 7.07958 11.8385 7.07527 11.8329C7.07497 11.825 7.07878 11.8173 7.08605 11.811C7.09332 11.8048 7.1036 11.8004 7.11514 11.7986H7.10944ZM6.65377 11.7986C6.66097 11.7981 6.66825 11.7986 6.67514 11.8001C6.68204 11.8016 6.68838 11.804 6.69376 11.8072C6.69914 11.8105 6.70344 11.8144 6.70636 11.8189C6.70929 11.8233 6.71078 11.8281 6.71073 11.8329C6.70723 11.8396 6.70069 11.8455 6.69202 11.8496C6.68334 11.8537 6.67296 11.8559 6.66232 11.8559C6.65167 11.8559 6.64129 11.8537 6.63262 11.8496C6.62394 11.8455 6.6174 11.8396 6.6139 11.8329C6.6154 11.826 6.62003 11.8196 6.62715 11.8145C6.63428 11.8094 6.64357 11.8058 6.65377 11.8044V11.7986ZM6.95565 11.8101C6.96883 11.809 6.98214 11.8113 6.99276 11.8167C7.00338 11.822 7.0105 11.8299 7.01261 11.8386C7.00911 11.8454 7.00257 11.8512 6.9939 11.8553C6.98522 11.8594 6.97484 11.8616 6.9642 11.8616C6.95355 11.8616 6.94317 11.8594 6.9345 11.8553C6.92582 11.8512 6.91928 11.8454 6.91578 11.8386C6.91729 11.8317 6.92191 11.8253 6.92904 11.8202C6.93616 11.8151 6.94545 11.8115 6.95565 11.8101ZM6.57973 11.8729C6.58692 11.8724 6.5942 11.8729 6.6011 11.8743C6.60799 11.8758 6.61434 11.8783 6.61972 11.8815C6.6251 11.8847 6.62939 11.8887 6.63232 11.8931C6.63524 11.8975 6.63673 11.9023 6.63668 11.9072C6.63319 11.9139 6.62665 11.9197 6.61797 11.9239C6.60929 11.928 6.59891 11.9302 6.58827 11.9302C6.57763 11.9302 6.56725 11.928 6.55857 11.9239C6.54989 11.9197 6.54335 11.9139 6.53986 11.9072C6.53956 11.8993 6.54337 11.8915 6.55064 11.8853C6.55791 11.879 6.56818 11.8747 6.57973 11.8729ZM6.72212 11.8729C6.7301 11.8722 6.7382 11.8728 6.74577 11.8746C6.75335 11.8764 6.76018 11.8794 6.76573 11.8833C6.77127 11.8872 6.77537 11.8919 6.77769 11.897C6.78001 11.9022 6.78049 11.9076 6.77908 11.9129C6.77558 11.9196 6.76904 11.9254 6.76037 11.9296C6.75169 11.9337 6.74131 11.9359 6.73067 11.9359C6.72002 11.9359 6.70964 11.9337 6.70097 11.9296C6.69229 11.9254 6.68575 11.9196 6.68225 11.9129C6.68196 11.905 6.68577 11.8972 6.69303 11.891C6.7003 11.8847 6.71058 11.8804 6.72212 11.8786V11.8729ZM6.87022 11.8843C6.88339 11.8832 6.8967 11.8856 6.90732 11.8909C6.91795 11.8962 6.92506 11.9041 6.92717 11.9129C6.92368 11.9196 6.91714 11.9254 6.90846 11.9296C6.89978 11.9337 6.8894 11.9359 6.87876 11.9359C6.86812 11.9359 6.85774 11.9337 6.84906 11.9296C6.84038 11.9254 6.83384 11.9196 6.83034 11.9129C6.83185 11.906 6.83647 11.8995 6.8436 11.8944C6.85072 11.8893 6.86001 11.8858 6.87022 11.8843ZM7.0297 11.8843C7.0369 11.8838 7.04418 11.8843 7.05107 11.8858C7.05796 11.8872 7.06431 11.8897 7.06969 11.8929C7.07507 11.8962 7.07937 11.9001 7.08229 11.9045C7.08522 11.909 7.0867 11.9138 7.08666 11.9186C7.08316 11.9253 7.07662 11.9312 7.06794 11.9353C7.05927 11.9394 7.04889 11.9416 7.03824 11.9416C7.0276 11.9416 7.01722 11.9394 7.00854 11.9353C6.99987 11.9312 6.99333 11.9253 6.98983 11.9186C6.98953 11.9107 6.99334 11.903 7.00061 11.8967C7.00788 11.8905 7.01816 11.8861 7.0297 11.8843ZM5.87344 12.347C6.54582 12.3648 7.2151 12.4452 7.87269 12.5869C7.87839 12.5927 7.83852 12.7297 7.77586 12.8954L7.66194 13.2381C7.66194 13.2648 7.61448 13.2705 7.51955 13.2553C7.04679 13.181 5.67978 13.1867 5.15576 13.2667C4.85387 13.3124 4.814 13.3067 4.83679 13.2439L4.89375 13.0439L4.92792 12.8897L5.2355 12.7297C5.44058 12.625 5.63514 12.5006 5.81648 12.3585H5.86774L5.87344 12.347ZM4.33555 13.1582C4.35454 13.1582 4.38491 13.1734 4.42668 13.2039C4.48364 13.2381 4.55199 13.2667 4.58047 13.2667C4.72857 13.2667 4.80831 13.4781 4.93362 14.1807L4.97918 14.432C4.99058 14.4891 4.97918 14.5006 4.84818 14.5291C4.68869 14.5634 4.64882 14.5691 4.64882 14.5463C4.64882 14.4891 4.48934 13.7637 4.42099 13.5066L4.32985 13.1639H4.33555V13.1582ZM5.96457 13.2724H6.12975L6.07279 13.3295C5.97596 13.4438 5.9304 13.4495 5.86205 13.3752L5.80509 13.2896C5.80509 13.2781 5.87913 13.2667 5.96457 13.2667V13.2724ZM6.31202 13.2724H6.6196L6.55125 13.341C6.4715 13.4324 6.46581 13.4324 6.38037 13.341L6.31202 13.2667V13.2724ZM6.77908 13.2724H6.85313C6.893 13.2724 6.96705 13.2724 7.01261 13.2838L7.09805 13.301L7.01831 13.3752C6.96894 13.4209 6.93857 13.4438 6.92717 13.4438L6.84743 13.3524L6.77908 13.2724ZM7.26323 13.2896L7.33158 13.3067C7.37145 13.3181 7.45689 13.3238 7.51955 13.3295H7.63346L7.54803 13.4038L7.4455 13.4781C7.4398 13.4781 7.38854 13.4324 7.34867 13.381L7.26323 13.2896ZM5.54308 13.2953H5.55447C5.55827 13.3143 5.53928 13.3467 5.49751 13.3924L5.44055 13.4723L5.35511 13.4038L5.26967 13.3295L5.40638 13.3124L5.54308 13.2953ZM5.67408 13.3067L5.76522 13.3867L5.85635 13.4723L5.68547 13.4838L5.5146 13.4895L5.59434 13.4038L5.67408 13.3067ZM6.69934 13.3067C6.71453 13.3067 6.72972 13.3124 6.74491 13.3238L6.81895 13.4209C6.84933 13.4628 6.83035 13.4819 6.76199 13.4781L6.6196 13.4495L6.55125 13.4324L6.62529 13.3581C6.65567 13.32 6.68225 13.301 6.70504 13.301L6.69934 13.3067ZM6.22658 13.3067C6.25316 13.3029 6.28354 13.3276 6.31772 13.381C6.35759 13.4438 6.35759 13.4438 6.2038 13.4438H6.05001L6.12975 13.3695C6.16772 13.3314 6.2 13.3124 6.22658 13.3124V13.3067ZM7.19488 13.3181L7.26323 13.3867C7.34297 13.4628 7.35437 13.5009 7.29741 13.5009L7.13792 13.4838L7.01261 13.4723L7.10375 13.3981L7.19488 13.3181ZM5.18993 13.3581C5.20892 13.3581 5.2393 13.381 5.28107 13.4266L5.34942 13.5009L5.20702 13.5238L5.00766 13.5523C4.96589 13.5637 4.98488 13.5333 5.06462 13.4609C5.12918 13.3962 5.17095 13.3619 5.18993 13.3581ZM4.97918 13.3581H5.00197C5.04753 13.3695 5.04753 13.381 4.96779 13.4609L4.88235 13.5466L4.85387 13.4723C4.83109 13.4152 4.83679 13.3981 4.88805 13.3752L4.97918 13.3581ZM7.59929 13.4609C7.61068 13.4609 7.61068 13.4723 7.59929 13.4952C7.5879 13.5409 7.53663 13.5523 7.53663 13.5066C7.53663 13.4952 7.54992 13.4819 7.57651 13.4666L7.59929 13.4609ZM6.38037 13.5523C6.81895 13.5523 7.26323 13.5637 7.37145 13.5752C7.54803 13.598 7.56511 13.6037 7.56511 13.6723C7.56511 13.7522 7.54233 13.758 7.3031 13.718C7.23475 13.7008 6.94426 13.678 6.66516 13.6551C6.12347 13.6224 5.57991 13.6416 5.04184 13.7123C4.93362 13.7237 4.90514 13.7123 4.90514 13.678C4.90514 13.6037 5.48612 13.5523 6.38037 13.5523ZM5.7937 13.718H6.10127L6.03292 13.7922C5.94748 13.8836 5.94179 13.8836 5.86205 13.7922L5.7937 13.718ZM6.19241 13.718L6.27215 13.7979L6.35189 13.8893L6.18671 13.8951H6.02153L6.10697 13.8037L6.19241 13.718ZM6.31202 13.718H6.6196L6.55125 13.7922C6.4715 13.8836 6.46581 13.8836 6.38037 13.7922L6.31202 13.718ZM5.58295 13.718C5.59434 13.718 5.58105 13.7465 5.54308 13.8037C5.49751 13.8608 5.46903 13.8912 5.45764 13.8951C5.43865 13.8912 5.41017 13.8665 5.3722 13.8208L5.30385 13.7465H5.40638C5.4585 13.7468 5.51036 13.7391 5.56016 13.7237L5.58295 13.718ZM5.69686 13.7465L5.77091 13.8151L5.85635 13.8893L5.70826 13.9008L5.54308 13.9122L5.62282 13.8265L5.69686 13.7465ZM6.68795 13.7465L6.76769 13.8379C6.85882 13.935 6.85313 13.9408 6.64808 13.9008L6.55125 13.8836L6.6196 13.8151L6.68795 13.7465ZM6.80187 13.7465H6.93857C7.08286 13.7427 7.10944 13.777 7.01831 13.8494C6.94996 13.9065 6.94996 13.9065 6.87022 13.8208L6.80187 13.7465ZM5.05893 13.7751C5.12728 13.7751 5.12158 13.7808 5.03614 13.8665C4.97349 13.9293 4.96779 13.9293 4.94501 13.8836C4.93362 13.8227 4.97159 13.7865 5.05893 13.7751ZM7.26893 13.7865L7.38285 13.7979L7.51385 13.8208L7.4398 13.8893L7.37145 13.9579L7.3088 13.8779L7.25184 13.7865H7.26893ZM5.21841 13.8151C5.2336 13.8151 5.25449 13.8284 5.28107 13.8551C5.33802 13.9122 5.33802 13.9122 5.29246 13.935L5.15576 13.9579H5.06462L5.13867 13.8779C5.17664 13.8398 5.20132 13.8189 5.21272 13.8151H5.21841ZM7.16071 13.8322C7.17969 13.8284 7.20248 13.8475 7.22906 13.8893L7.28032 13.9579H7.16071C7.08476 13.9579 7.04679 13.9465 7.04679 13.9236C7.05818 13.897 7.08286 13.8722 7.12083 13.8494L7.16071 13.8322ZM7.52524 13.9065C7.53663 13.9065 7.54043 13.916 7.53663 13.935C7.53663 13.9922 7.48537 14.0322 7.46259 13.9922C7.45879 13.9731 7.46828 13.9522 7.49107 13.9293L7.52524 13.9065ZM6.05001 13.975C6.54555 13.975 7.09236 14.0093 7.41702 14.0664L7.50815 14.0836V14.3349C7.50815 14.5234 7.49676 14.5862 7.46828 14.5862L7.18349 14.5291C6.52486 14.4171 5.85386 14.3979 5.18993 14.472L5.05893 14.4891L5.02475 14.2778L5.00197 14.0607C5.00197 14.0607 5.13297 14.0322 5.28676 14.015C5.47473 13.9865 5.75382 13.975 6.05001 13.975Z" fill="black"/>
<path d="M7.04645 12.5469C6.87566 12.5469 6.7561 12.6668 6.7561 12.8438C6.7561 13.1178 7.06353 13.2549 7.24571 13.0607C7.42789 12.8666 7.30264 12.5469 7.04645 12.5469ZM7.04645 12.6154C7.10685 12.6154 7.16477 12.6395 7.20748 12.6823C7.25018 12.7251 7.27418 12.7832 7.27418 12.8438C7.27418 13.0151 7.0863 13.1292 6.93259 13.055C6.77888 12.9694 6.79026 12.7067 6.95536 12.6382L7.04645 12.6154Z" fill="black"/>
<path d="M5.90168 12.5127C5.73088 12.5127 5.61133 12.6326 5.61133 12.8096C5.61133 13.0836 5.91876 13.2207 6.10094 13.0266C6.28312 12.8324 6.15787 12.5127 5.90168 12.5127ZM5.90168 12.5812C5.96207 12.5812 6.02 12.6053 6.0627 12.6481C6.10541 12.6909 6.1294 12.749 6.1294 12.8096C6.1294 12.9809 5.94153 13.0951 5.78782 13.0208C5.6341 12.9352 5.64549 12.6726 5.81059 12.604L5.90168 12.5812Z" fill="black"/>
<path d="M4.95047 8.40551C4.9267 8.40696 4.90427 8.41767 4.88746 8.43557C4.87066 8.45348 4.86066 8.47734 4.85938 8.50258C4.85938 8.53064 4.86987 8.55755 4.88856 8.5774C4.90724 8.59724 4.93259 8.60838 4.95901 8.60838C4.98544 8.60838 5.01078 8.59724 5.02947 8.5774C5.04815 8.55755 5.05865 8.53064 5.05865 8.50258C5.058 8.48849 5.05464 8.47469 5.04875 8.46204C5.04287 8.44939 5.03459 8.43817 5.02444 8.42906C5.0143 8.41995 5.00249 8.41316 4.98977 8.40911C4.97704 8.40506 4.96366 8.40384 4.95047 8.40551ZM4.95616 8.43977C4.97334 8.43971 4.98991 8.44614 5.00257 8.45778C5.01523 8.46942 5.02306 8.48542 5.02449 8.50258C5.02449 8.51924 5.01729 8.53522 5.00448 8.54699C4.99166 8.55877 4.97429 8.56539 4.95616 8.56539C4.93804 8.56539 4.92067 8.55877 4.90785 8.54699C4.89504 8.53522 4.88784 8.51924 4.88784 8.50258C4.88927 8.48542 4.8971 8.46942 4.90976 8.45778C4.92242 8.44614 4.93899 8.43971 4.95616 8.43977Z" fill="black"/>
</g>
</g>
<defs>
<clipPath id="clip0_720_53278">
<rect width="24.0044" height="24.0044" fill="white" transform="translate(0.00878906 0.10083)"/>
</clipPath>
</defs>
</svg>
