<svg width="72" height="72" viewBox="0 0 72 72" fill="none" xmlns="http://www.w3.org/2000/svg">
<g clip-path="url(#clip0_5730_5860)">
<path d="M28.8847 71.9887C27.29 71.9777 25.7564 71.3764 24.5816 70.3016C23.4068 69.2269 22.6747 67.7554 22.5275 66.1729C22.3802 64.5904 22.8284 63.0098 23.7849 61.7382C24.7414 60.4665 26.138 59.5945 27.7034 59.2914C31.8847 58.3131 35.7077 56.1879 38.7397 53.1562C41.7718 50.1246 43.8917 46.3077 44.8597 42.1374C45.0266 41.3049 45.3582 40.5139 45.8353 39.8105C46.3124 39.1072 46.9253 38.5056 47.6382 38.0409C48.3512 37.5763 49.1499 37.2579 49.9877 37.1043C50.8255 36.9506 51.6856 36.9649 52.5178 37.1463C53.35 37.3277 54.1376 37.6725 54.8346 38.1606C55.5316 38.6487 56.124 39.2703 56.5773 39.9891C57.0306 40.7079 57.3356 41.5095 57.4745 42.3471C57.6135 43.1847 57.5835 44.0415 57.3865 44.8675H57.3978C55.9096 51.4221 52.5977 57.4259 47.842 62.1902C43.0863 66.9545 37.0794 70.2865 30.5103 71.8037V71.7925C29.9723 71.9327 29.4182 72.0024 28.8622 71.9999L28.8847 71.9887Z" fill="white"/>
</g>
<defs>
<clipPath id="clip0_5730_5860">
<rect width="72" height="72" fill="white"/>
</clipPath>
</defs>
</svg>
