<svg width="25" height="24" viewBox="0 0 25 24" fill="none" xmlns="http://www.w3.org/2000/svg">
<g clip-path="url(#clip0_720_53525)">
<path d="M12.0112 -2.28882e-05H24.0134V24.0043H12.0112V-2.28882e-05Z" fill="white"/>
<path d="M0.00927734 1.52588e-05H12.0115V24.0044H0.00927734V1.52588e-05Z" fill="#006233"/>
<path d="M17.2153 9.00162C16.5548 7.85756 15.5352 6.96342 14.3147 6.45788C13.0942 5.95233 11.741 5.86364 10.465 6.20555C9.18895 6.54746 8.0614 7.30087 7.2572 8.34893C6.45299 9.39698 6.01709 10.6811 6.01709 12.0022C6.01709 13.3232 6.45299 14.6073 7.2572 15.6554C8.0614 16.7035 9.18895 17.4569 10.465 17.7988C11.741 18.1407 13.0942 18.052 14.3147 17.5464C15.5352 17.0409 16.5548 16.1468 17.2153 15.0027C16.5936 15.7792 15.7461 16.3434 14.79 16.6173C13.8338 16.8913 12.8161 16.8615 11.8776 16.5321C10.9391 16.2027 10.126 15.5899 9.55085 14.7784C8.97567 13.9669 8.66673 12.9968 8.66673 12.0022C8.66673 11.0075 8.97567 10.0374 9.55085 9.22593C10.126 8.41445 10.9391 7.80165 11.8776 7.47223C12.8161 7.14281 13.8338 7.11303 14.79 7.387C15.7461 7.66097 16.5936 8.22516 17.2153 9.00162ZM17.4122 12.0022L12.0112 10.2393L15.3728 14.8433V9.16102L12.0112 13.765L17.4122 12.0022Z" fill="#D21034"/>
</g>
<defs>
<clipPath id="clip0_720_53525">
<rect width="24.0044" height="24.0044" fill="white" transform="translate(0.00878906)"/>
</clipPath>
</defs>
</svg>
